<?xml version="1.0" encoding="utf-8" standalone="no"?>
<!DOCTYPE svg PUBLIC "-//W3C//DTD SVG 1.1//EN"
  "http://www.w3.org/Graphics/SVG/1.1/DTD/svg11.dtd">
<svg xmlns:xlink="http://www.w3.org/1999/xlink" width="809.376281pt" height="387.904489pt" viewBox="0 0 809.376281 387.904489" xmlns="http://www.w3.org/2000/svg" version="1.1">
 <metadata>
  <rdf:RDF xmlns:dc="http://purl.org/dc/elements/1.1/" xmlns:cc="http://creativecommons.org/ns#" xmlns:rdf="http://www.w3.org/1999/02/22-rdf-syntax-ns#">
   <cc:Work>
    <dc:type rdf:resource="http://purl.org/dc/dcmitype/StillImage"/>
    <dc:date>2026-07-11T21:16:22.286208</dc:date>
    <dc:format>image/svg+xml</dc:format>
    <dc:creator>
     <cc:Agent>
      <dc:title>Matplotlib v3.10.8, https://matplotlib.org/</dc:title>
     </cc:Agent>
    </dc:creator>
   </cc:Work>
  </rdf:RDF>
 </metadata>
 <defs>
  <style type="text/css">*{stroke-linejoin: round; stroke-linecap: butt}</style>
 </defs>
 <g id="figure_1">
  <g id="patch_1">
   <path d="M -0 387.904489 
L 809.376281 387.904489 
L 809.376281 0 
L -0 0 
z
" style="fill: #ffffff"/>
  </g>
  <g id="axes_1">
   <g id="patch_2">
    <path d="M 28.942188 364.026364 
L 370.648551 364.026364 
L 370.648551 22.32 
L 28.942188 22.32 
z
" style="fill: #ffffff"/>
   </g>
   <g id="matplotlib.axis_1">
    <g id="xtick_1">
     <g id="line2d_1">
      <path d="M 28.942187 364.026364 
L 28.942187 22.32 
" clip-path="url(#p8000f653ad)" style="fill: none; stroke-dasharray: 2.96,1.28; stroke-dashoffset: 0; stroke: #b0b0b0; stroke-opacity: 0.4; stroke-width: 0.8"/>
     </g>
     <g id="line2d_2">
      <defs>
       <path id="m39610867a8" d="M 0 0 
L 0 3.5 
" style="stroke: #000000; stroke-width: 0.8"/>
      </defs>
      <g>
       <use xlink:href="#m39610867a8" x="28.942187" y="364.026364" style="stroke: #000000; stroke-width: 0.8"/>
      </g>
     </g>
     <g id="text_1">
      <!-- −4 -->
      <g transform="translate(21.571094 378.624801) scale(0.1 -0.1)">
       <defs>
        <path id="DejaVuSans-2212" d="M 678 2272 
L 4684 2272 
L 4684 1741 
L 678 1741 
L 678 2272 
z
" transform="scale(0.015625)"/>
        <path id="DejaVuSans-34" d="M 2419 4116 
L 825 1625 
L 2419 1625 
L 2419 4116 
z
M 2253 4666 
L 3047 4666 
L 3047 1625 
L 3713 1625 
L 3713 1100 
L 3047 1100 
L 3047 0 
L 2419 0 
L 2419 1100 
L 313 1100 
L 313 1709 
L 2253 4666 
z
" transform="scale(0.015625)"/>
       </defs>
       <use xlink:href="#DejaVuSans-2212"/>
       <use xlink:href="#DejaVuSans-34" transform="translate(83.789062 0)"/>
      </g>
     </g>
    </g>
    <g id="xtick_2">
     <g id="line2d_3">
      <path d="M 71.655483 364.026364 
L 71.655483 22.32 
" clip-path="url(#p8000f653ad)" style="fill: none; stroke-dasharray: 2.96,1.28; stroke-dashoffset: 0; stroke: #b0b0b0; stroke-opacity: 0.4; stroke-width: 0.8"/>
     </g>
     <g id="line2d_4">
      <g>
       <use xlink:href="#m39610867a8" x="71.655483" y="364.026364" style="stroke: #000000; stroke-width: 0.8"/>
      </g>
     </g>
     <g id="text_2">
      <!-- −3 -->
      <g transform="translate(64.284389 378.624801) scale(0.1 -0.1)">
       <defs>
        <path id="DejaVuSans-33" d="M 2597 2516 
Q 3050 2419 3304 2112 
Q 3559 1806 3559 1356 
Q 3559 666 3084 287 
Q 2609 -91 1734 -91 
Q 1441 -91 1130 -33 
Q 819 25 488 141 
L 488 750 
Q 750 597 1062 519 
Q 1375 441 1716 441 
Q 2309 441 2620 675 
Q 2931 909 2931 1356 
Q 2931 1769 2642 2001 
Q 2353 2234 1838 2234 
L 1294 2234 
L 1294 2753 
L 1863 2753 
Q 2328 2753 2575 2939 
Q 2822 3125 2822 3475 
Q 2822 3834 2567 4026 
Q 2313 4219 1838 4219 
Q 1578 4219 1281 4162 
Q 984 4106 628 3988 
L 628 4550 
Q 988 4650 1302 4700 
Q 1616 4750 1894 4750 
Q 2613 4750 3031 4423 
Q 3450 4097 3450 3541 
Q 3450 3153 3228 2886 
Q 3006 2619 2597 2516 
z
" transform="scale(0.015625)"/>
       </defs>
       <use xlink:href="#DejaVuSans-2212"/>
       <use xlink:href="#DejaVuSans-33" transform="translate(83.789062 0)"/>
      </g>
     </g>
    </g>
    <g id="xtick_3">
     <g id="line2d_5">
      <path d="M 114.368778 364.026364 
L 114.368778 22.32 
" clip-path="url(#p8000f653ad)" style="fill: none; stroke-dasharray: 2.96,1.28; stroke-dashoffset: 0; stroke: #b0b0b0; stroke-opacity: 0.4; stroke-width: 0.8"/>
     </g>
     <g id="line2d_6">
      <g>
       <use xlink:href="#m39610867a8" x="114.368778" y="364.026364" style="stroke: #000000; stroke-width: 0.8"/>
      </g>
     </g>
     <g id="text_3">
      <!-- −2 -->
      <g transform="translate(106.997685 378.624801) scale(0.1 -0.1)">
       <defs>
        <path id="DejaVuSans-32" d="M 1228 531 
L 3431 531 
L 3431 0 
L 469 0 
L 469 531 
Q 828 903 1448 1529 
Q 2069 2156 2228 2338 
Q 2531 2678 2651 2914 
Q 2772 3150 2772 3378 
Q 2772 3750 2511 3984 
Q 2250 4219 1831 4219 
Q 1534 4219 1204 4116 
Q 875 4013 500 3803 
L 500 4441 
Q 881 4594 1212 4672 
Q 1544 4750 1819 4750 
Q 2544 4750 2975 4387 
Q 3406 4025 3406 3419 
Q 3406 3131 3298 2873 
Q 3191 2616 2906 2266 
Q 2828 2175 2409 1742 
Q 1991 1309 1228 531 
z
" transform="scale(0.015625)"/>
       </defs>
       <use xlink:href="#DejaVuSans-2212"/>
       <use xlink:href="#DejaVuSans-32" transform="translate(83.789062 0)"/>
      </g>
     </g>
    </g>
    <g id="xtick_4">
     <g id="line2d_7">
      <path d="M 157.082074 364.026364 
L 157.082074 22.32 
" clip-path="url(#p8000f653ad)" style="fill: none; stroke-dasharray: 2.96,1.28; stroke-dashoffset: 0; stroke: #b0b0b0; stroke-opacity: 0.4; stroke-width: 0.8"/>
     </g>
     <g id="line2d_8">
      <g>
       <use xlink:href="#m39610867a8" x="157.082074" y="364.026364" style="stroke: #000000; stroke-width: 0.8"/>
      </g>
     </g>
     <g id="text_4">
      <!-- −1 -->
      <g transform="translate(149.71098 378.624801) scale(0.1 -0.1)">
       <defs>
        <path id="DejaVuSans-31" d="M 794 531 
L 1825 531 
L 1825 4091 
L 703 3866 
L 703 4441 
L 1819 4666 
L 2450 4666 
L 2450 531 
L 3481 531 
L 3481 0 
L 794 0 
L 794 531 
z
" transform="scale(0.015625)"/>
       </defs>
       <use xlink:href="#DejaVuSans-2212"/>
       <use xlink:href="#DejaVuSans-31" transform="translate(83.789062 0)"/>
      </g>
     </g>
    </g>
    <g id="xtick_5">
     <g id="line2d_9">
      <path d="M 199.795369 364.026364 
L 199.795369 22.32 
" clip-path="url(#p8000f653ad)" style="fill: none; stroke-dasharray: 2.96,1.28; stroke-dashoffset: 0; stroke: #b0b0b0; stroke-opacity: 0.4; stroke-width: 0.8"/>
     </g>
     <g id="line2d_10">
      <g>
       <use xlink:href="#m39610867a8" x="199.795369" y="364.026364" style="stroke: #000000; stroke-width: 0.8"/>
      </g>
     </g>
     <g id="text_5">
      <!-- 0 -->
      <g transform="translate(196.614119 378.624801) scale(0.1 -0.1)">
       <defs>
        <path id="DejaVuSans-30" d="M 2034 4250 
Q 1547 4250 1301 3770 
Q 1056 3291 1056 2328 
Q 1056 1369 1301 889 
Q 1547 409 2034 409 
Q 2525 409 2770 889 
Q 3016 1369 3016 2328 
Q 3016 3291 2770 3770 
Q 2525 4250 2034 4250 
z
M 2034 4750 
Q 2819 4750 3233 4129 
Q 3647 3509 3647 2328 
Q 3647 1150 3233 529 
Q 2819 -91 2034 -91 
Q 1250 -91 836 529 
Q 422 1150 422 2328 
Q 422 3509 836 4129 
Q 1250 4750 2034 4750 
z
" transform="scale(0.015625)"/>
       </defs>
       <use xlink:href="#DejaVuSans-30"/>
      </g>
     </g>
    </g>
    <g id="xtick_6">
     <g id="line2d_11">
      <path d="M 242.508665 364.026364 
L 242.508665 22.32 
" clip-path="url(#p8000f653ad)" style="fill: none; stroke-dasharray: 2.96,1.28; stroke-dashoffset: 0; stroke: #b0b0b0; stroke-opacity: 0.4; stroke-width: 0.8"/>
     </g>
     <g id="line2d_12">
      <g>
       <use xlink:href="#m39610867a8" x="242.508665" y="364.026364" style="stroke: #000000; stroke-width: 0.8"/>
      </g>
     </g>
     <g id="text_6">
      <!-- 1 -->
      <g transform="translate(239.327415 378.624801) scale(0.1 -0.1)">
       <use xlink:href="#DejaVuSans-31"/>
      </g>
     </g>
    </g>
    <g id="xtick_7">
     <g id="line2d_13">
      <path d="M 285.22196 364.026364 
L 285.22196 22.32 
" clip-path="url(#p8000f653ad)" style="fill: none; stroke-dasharray: 2.96,1.28; stroke-dashoffset: 0; stroke: #b0b0b0; stroke-opacity: 0.4; stroke-width: 0.8"/>
     </g>
     <g id="line2d_14">
      <g>
       <use xlink:href="#m39610867a8" x="285.22196" y="364.026364" style="stroke: #000000; stroke-width: 0.8"/>
      </g>
     </g>
     <g id="text_7">
      <!-- 2 -->
      <g transform="translate(282.04071 378.624801) scale(0.1 -0.1)">
       <use xlink:href="#DejaVuSans-32"/>
      </g>
     </g>
    </g>
    <g id="xtick_8">
     <g id="line2d_15">
      <path d="M 327.935256 364.026364 
L 327.935256 22.32 
" clip-path="url(#p8000f653ad)" style="fill: none; stroke-dasharray: 2.96,1.28; stroke-dashoffset: 0; stroke: #b0b0b0; stroke-opacity: 0.4; stroke-width: 0.8"/>
     </g>
     <g id="line2d_16">
      <g>
       <use xlink:href="#m39610867a8" x="327.935256" y="364.026364" style="stroke: #000000; stroke-width: 0.8"/>
      </g>
     </g>
     <g id="text_8">
      <!-- 3 -->
      <g transform="translate(324.754006 378.624801) scale(0.1 -0.1)">
       <use xlink:href="#DejaVuSans-33"/>
      </g>
     </g>
    </g>
    <g id="xtick_9">
     <g id="line2d_17">
      <path d="M 370.648551 364.026364 
L 370.648551 22.32 
" clip-path="url(#p8000f653ad)" style="fill: none; stroke-dasharray: 2.96,1.28; stroke-dashoffset: 0; stroke: #b0b0b0; stroke-opacity: 0.4; stroke-width: 0.8"/>
     </g>
     <g id="line2d_18">
      <g>
       <use xlink:href="#m39610867a8" x="370.648551" y="364.026364" style="stroke: #000000; stroke-width: 0.8"/>
      </g>
     </g>
     <g id="text_9">
      <!-- 4 -->
      <g transform="translate(367.467301 378.624801) scale(0.1 -0.1)">
       <use xlink:href="#DejaVuSans-34"/>
      </g>
     </g>
    </g>
   </g>
   <g id="matplotlib.axis_2">
    <g id="ytick_1">
     <g id="line2d_19">
      <path d="M 28.942188 364.026364 
L 370.648551 364.026364 
" clip-path="url(#p8000f653ad)" style="fill: none; stroke-dasharray: 2.96,1.28; stroke-dashoffset: 0; stroke: #b0b0b0; stroke-opacity: 0.4; stroke-width: 0.8"/>
     </g>
     <g id="line2d_20">
      <defs>
       <path id="m8b52c1ac44" d="M 0 0 
L -3.5 0 
" style="stroke: #000000; stroke-width: 0.8"/>
      </defs>
      <g>
       <use xlink:href="#m8b52c1ac44" x="28.942188" y="364.026364" style="stroke: #000000; stroke-width: 0.8"/>
      </g>
     </g>
     <g id="text_10">
      <!-- −4 -->
      <g transform="translate(7.2 367.825582) scale(0.1 -0.1)">
       <use xlink:href="#DejaVuSans-2212"/>
       <use xlink:href="#DejaVuSans-34" transform="translate(83.789062 0)"/>
      </g>
     </g>
    </g>
    <g id="ytick_2">
     <g id="line2d_21">
      <path d="M 28.942188 321.313068 
L 370.648551 321.313068 
" clip-path="url(#p8000f653ad)" style="fill: none; stroke-dasharray: 2.96,1.28; stroke-dashoffset: 0; stroke: #b0b0b0; stroke-opacity: 0.4; stroke-width: 0.8"/>
     </g>
     <g id="line2d_22">
      <g>
       <use xlink:href="#m8b52c1ac44" x="28.942188" y="321.313068" style="stroke: #000000; stroke-width: 0.8"/>
      </g>
     </g>
     <g id="text_11">
      <!-- −3 -->
      <g transform="translate(7.2 325.112287) scale(0.1 -0.1)">
       <use xlink:href="#DejaVuSans-2212"/>
       <use xlink:href="#DejaVuSans-33" transform="translate(83.789062 0)"/>
      </g>
     </g>
    </g>
    <g id="ytick_3">
     <g id="line2d_23">
      <path d="M 28.942188 278.599773 
L 370.648551 278.599773 
" clip-path="url(#p8000f653ad)" style="fill: none; stroke-dasharray: 2.96,1.28; stroke-dashoffset: 0; stroke: #b0b0b0; stroke-opacity: 0.4; stroke-width: 0.8"/>
     </g>
     <g id="line2d_24">
      <g>
       <use xlink:href="#m8b52c1ac44" x="28.942188" y="278.599773" style="stroke: #000000; stroke-width: 0.8"/>
      </g>
     </g>
     <g id="text_12">
      <!-- −2 -->
      <g transform="translate(7.2 282.398991) scale(0.1 -0.1)">
       <use xlink:href="#DejaVuSans-2212"/>
       <use xlink:href="#DejaVuSans-32" transform="translate(83.789062 0)"/>
      </g>
     </g>
    </g>
    <g id="ytick_4">
     <g id="line2d_25">
      <path d="M 28.942188 235.886477 
L 370.648551 235.886477 
" clip-path="url(#p8000f653ad)" style="fill: none; stroke-dasharray: 2.96,1.28; stroke-dashoffset: 0; stroke: #b0b0b0; stroke-opacity: 0.4; stroke-width: 0.8"/>
     </g>
     <g id="line2d_26">
      <g>
       <use xlink:href="#m8b52c1ac44" x="28.942188" y="235.886477" style="stroke: #000000; stroke-width: 0.8"/>
      </g>
     </g>
     <g id="text_13">
      <!-- −1 -->
      <g transform="translate(7.2 239.685696) scale(0.1 -0.1)">
       <use xlink:href="#DejaVuSans-2212"/>
       <use xlink:href="#DejaVuSans-31" transform="translate(83.789062 0)"/>
      </g>
     </g>
    </g>
    <g id="ytick_5">
     <g id="line2d_27">
      <path d="M 28.942188 193.173182 
L 370.648551 193.173182 
" clip-path="url(#p8000f653ad)" style="fill: none; stroke-dasharray: 2.96,1.28; stroke-dashoffset: 0; stroke: #b0b0b0; stroke-opacity: 0.4; stroke-width: 0.8"/>
     </g>
     <g id="line2d_28">
      <g>
       <use xlink:href="#m8b52c1ac44" x="28.942188" y="193.173182" style="stroke: #000000; stroke-width: 0.8"/>
      </g>
     </g>
     <g id="text_14">
      <!-- 0 -->
      <g transform="translate(15.579688 196.972401) scale(0.1 -0.1)">
       <use xlink:href="#DejaVuSans-30"/>
      </g>
     </g>
    </g>
    <g id="ytick_6">
     <g id="line2d_29">
      <path d="M 28.942188 150.459886 
L 370.648551 150.459886 
" clip-path="url(#p8000f653ad)" style="fill: none; stroke-dasharray: 2.96,1.28; stroke-dashoffset: 0; stroke: #b0b0b0; stroke-opacity: 0.4; stroke-width: 0.8"/>
     </g>
     <g id="line2d_30">
      <g>
       <use xlink:href="#m8b52c1ac44" x="28.942188" y="150.459886" style="stroke: #000000; stroke-width: 0.8"/>
      </g>
     </g>
     <g id="text_15">
      <!-- 1 -->
      <g transform="translate(15.579688 154.259105) scale(0.1 -0.1)">
       <use xlink:href="#DejaVuSans-31"/>
      </g>
     </g>
    </g>
    <g id="ytick_7">
     <g id="line2d_31">
      <path d="M 28.942188 107.746591 
L 370.648551 107.746591 
" clip-path="url(#p8000f653ad)" style="fill: none; stroke-dasharray: 2.96,1.28; stroke-dashoffset: 0; stroke: #b0b0b0; stroke-opacity: 0.4; stroke-width: 0.8"/>
     </g>
     <g id="line2d_32">
      <g>
       <use xlink:href="#m8b52c1ac44" x="28.942188" y="107.746591" style="stroke: #000000; stroke-width: 0.8"/>
      </g>
     </g>
     <g id="text_16">
      <!-- 2 -->
      <g transform="translate(15.579688 111.54581) scale(0.1 -0.1)">
       <use xlink:href="#DejaVuSans-32"/>
      </g>
     </g>
    </g>
    <g id="ytick_8">
     <g id="line2d_33">
      <path d="M 28.942188 65.033295 
L 370.648551 65.033295 
" clip-path="url(#p8000f653ad)" style="fill: none; stroke-dasharray: 2.96,1.28; stroke-dashoffset: 0; stroke: #b0b0b0; stroke-opacity: 0.4; stroke-width: 0.8"/>
     </g>
     <g id="line2d_34">
      <g>
       <use xlink:href="#m8b52c1ac44" x="28.942188" y="65.033295" style="stroke: #000000; stroke-width: 0.8"/>
      </g>
     </g>
     <g id="text_17">
      <!-- 3 -->
      <g transform="translate(15.579688 68.832514) scale(0.1 -0.1)">
       <use xlink:href="#DejaVuSans-33"/>
      </g>
     </g>
    </g>
    <g id="ytick_9">
     <g id="line2d_35">
      <path d="M 28.942188 22.32 
L 370.648551 22.32 
" clip-path="url(#p8000f653ad)" style="fill: none; stroke-dasharray: 2.96,1.28; stroke-dashoffset: 0; stroke: #b0b0b0; stroke-opacity: 0.4; stroke-width: 0.8"/>
     </g>
     <g id="line2d_36">
      <g>
       <use xlink:href="#m8b52c1ac44" x="28.942188" y="22.32" style="stroke: #000000; stroke-width: 0.8"/>
      </g>
     </g>
     <g id="text_18">
      <!-- 4 -->
      <g transform="translate(15.579688 26.119219) scale(0.1 -0.1)">
       <use xlink:href="#DejaVuSans-34"/>
      </g>
     </g>
    </g>
   </g>
   <g id="line2d_37">
    <path d="M 50.298835 342.669716 
L 53.318967 339.649584 
L 56.339099 336.629452 
L 59.359231 333.60932 
L 62.379363 330.589188 
L 65.399495 327.569056 
L 68.419627 324.548924 
L 71.439759 321.528792 
L 74.459891 318.50866 
L 77.480023 315.488528 
L 80.500155 312.468396 
L 83.520287 309.448264 
L 86.540419 306.428132 
L 89.560551 303.408 
L 92.580683 300.387868 
L 95.600815 297.367736 
L 98.620947 294.347604 
L 101.641079 291.327472 
L 104.661211 288.30734 
L 107.681343 285.287208 
L 110.701475 282.267076 
L 113.721607 279.246944 
L 116.741739 276.226812 
L 119.761871 273.20668 
L 122.782003 270.186548 
L 125.802135 267.166416 
L 128.822267 264.146284 
L 131.842399 261.126152 
L 134.862531 258.10602 
L 137.882663 255.085888 
L 140.902795 252.065756 
L 143.922927 249.045624 
L 146.943059 246.025492 
L 149.963191 243.00536 
L 152.983323 239.985228 
L 156.003455 236.965096 
L 159.023587 233.944964 
L 162.043719 230.924832 
L 165.063851 227.9047 
L 168.083983 224.884568 
L 171.104115 221.864436 
L 174.124247 218.844304 
L 177.144379 215.824172 
L 180.164511 212.80404 
L 183.184643 209.783908 
L 186.204775 206.763776 
L 189.224907 203.743644 
L 192.245039 200.723512 
L 195.265171 197.70338 
L 198.285303 194.683248 
L 201.305435 191.663116 
L 204.325567 188.642984 
L 207.345699 185.622852 
L 210.365831 182.60272 
L 213.385963 179.582588 
L 216.406095 176.562456 
L 219.426227 173.542324 
L 222.446359 170.522192 
L 225.466491 167.50206 
L 228.486623 164.481928 
L 231.506755 161.461796 
L 234.526887 158.441664 
L 237.547019 155.421532 
L 240.567151 152.4014 
L 243.587283 149.381268 
L 246.607415 146.361136 
L 249.627547 143.341004 
L 252.647679 140.320872 
L 255.667811 137.30074 
L 258.687943 134.280608 
L 261.708075 131.260476 
L 264.728207 128.240344 
L 267.748339 125.220212 
L 270.768471 122.20008 
L 273.788603 119.179948 
L 276.808735 116.159816 
L 279.828867 113.139684 
L 282.848999 110.119552 
L 285.869131 107.09942 
L 288.889263 104.079288 
L 291.909395 101.059156 
L 294.929527 98.039024 
L 297.949659 95.018892 
L 300.969791 91.99876 
L 303.989923 88.978628 
L 307.010055 85.958496 
L 310.030187 82.938364 
L 313.050319 79.918232 
L 316.070451 76.8981 
L 319.090583 73.877968 
L 322.110715 70.857836 
L 325.130847 67.837704 
L 328.150979 64.817572 
L 331.171111 61.79744 
L 334.191243 58.777308 
L 337.211375 55.757176 
L 340.231507 52.737044 
L 343.251639 49.716912 
L 346.271771 46.69678 
L 349.291903 43.676648 
" clip-path="url(#p8000f653ad)" style="fill: none; stroke: #cc7000; stroke-opacity: 0.3; stroke-width: 3; stroke-linecap: square"/>
   </g>
   <g id="line2d_38">
    <path d="M 28.942188 193.173182 
L 370.648551 193.173182 
" clip-path="url(#p8000f653ad)" style="fill: none; stroke: #4169e1; stroke-width: 1.2; stroke-linecap: square"/>
   </g>
   <g id="line2d_39">
    <path d="M 199.795369 364.026364 
L 199.795369 22.32 
" clip-path="url(#p8000f653ad)" style="fill: none; stroke: #4169e1; stroke-width: 1.2; stroke-linecap: square"/>
   </g>
   <g id="patch_3">
    <path d="M 28.942188 364.026364 
L 28.942188 22.32 
" style="fill: none; stroke: #000000; stroke-width: 0.8; stroke-linejoin: miter; stroke-linecap: square"/>
   </g>
   <g id="patch_4">
    <path d="M 370.648551 364.026364 
L 370.648551 22.32 
" style="fill: none; stroke: #000000; stroke-width: 0.8; stroke-linejoin: miter; stroke-linecap: square"/>
   </g>
   <g id="patch_5">
    <path d="M 28.942187 364.026364 
L 370.648551 364.026364 
" style="fill: none; stroke: #000000; stroke-width: 0.8; stroke-linejoin: miter; stroke-linecap: square"/>
   </g>
   <g id="patch_6">
    <path d="M 28.942187 22.32 
L 370.648551 22.32 
" style="fill: none; stroke: #000000; stroke-width: 0.8; stroke-linejoin: miter; stroke-linecap: square"/>
   </g>
   <g id="text_19">
    <!-- $A$ and $3I$ agree -->
    <g style="fill: #cc7000" transform="translate(293.764619 75.171818) scale(0.1 -0.1)">
     <defs>
      <path id="DejaVuSans-Oblique-41" d="M 2356 4666 
L 3072 4666 
L 3938 0 
L 3278 0 
L 3084 1197 
L 984 1197 
L 325 0 
L -341 0 
L 2356 4666 
z
M 2584 4044 
L 1275 1722 
L 2988 1722 
L 2584 4044 
z
" transform="scale(0.015625)"/>
      <path id="DejaVuSans-20" transform="scale(0.015625)"/>
      <path id="DejaVuSans-61" d="M 2194 1759 
Q 1497 1759 1228 1600 
Q 959 1441 959 1056 
Q 959 750 1161 570 
Q 1363 391 1709 391 
Q 2188 391 2477 730 
Q 2766 1069 2766 1631 
L 2766 1759 
L 2194 1759 
z
M 3341 1997 
L 3341 0 
L 2766 0 
L 2766 531 
Q 2569 213 2275 61 
Q 1981 -91 1556 -91 
Q 1019 -91 701 211 
Q 384 513 384 1019 
Q 384 1609 779 1909 
Q 1175 2209 1959 2209 
L 2766 2209 
L 2766 2266 
Q 2766 2663 2505 2880 
Q 2244 3097 1772 3097 
Q 1472 3097 1187 3025 
Q 903 2953 641 2809 
L 641 3341 
Q 956 3463 1253 3523 
Q 1550 3584 1831 3584 
Q 2591 3584 2966 3190 
Q 3341 2797 3341 1997 
z
" transform="scale(0.015625)"/>
      <path id="DejaVuSans-6e" d="M 3513 2113 
L 3513 0 
L 2938 0 
L 2938 2094 
Q 2938 2591 2744 2837 
Q 2550 3084 2163 3084 
Q 1697 3084 1428 2787 
Q 1159 2491 1159 1978 
L 1159 0 
L 581 0 
L 581 3500 
L 1159 3500 
L 1159 2956 
Q 1366 3272 1645 3428 
Q 1925 3584 2291 3584 
Q 2894 3584 3203 3211 
Q 3513 2838 3513 2113 
z
" transform="scale(0.015625)"/>
      <path id="DejaVuSans-64" d="M 2906 2969 
L 2906 4863 
L 3481 4863 
L 3481 0 
L 2906 0 
L 2906 525 
Q 2725 213 2448 61 
Q 2172 -91 1784 -91 
Q 1150 -91 751 415 
Q 353 922 353 1747 
Q 353 2572 751 3078 
Q 1150 3584 1784 3584 
Q 2172 3584 2448 3432 
Q 2725 3281 2906 2969 
z
M 947 1747 
Q 947 1113 1208 752 
Q 1469 391 1925 391 
Q 2381 391 2643 752 
Q 2906 1113 2906 1747 
Q 2906 2381 2643 2742 
Q 2381 3103 1925 3103 
Q 1469 3103 1208 2742 
Q 947 2381 947 1747 
z
" transform="scale(0.015625)"/>
      <path id="DejaVuSans-Oblique-49" d="M 1081 4666 
L 1716 4666 
L 806 0 
L 172 0 
L 1081 4666 
z
" transform="scale(0.015625)"/>
      <path id="DejaVuSans-67" d="M 2906 1791 
Q 2906 2416 2648 2759 
Q 2391 3103 1925 3103 
Q 1463 3103 1205 2759 
Q 947 2416 947 1791 
Q 947 1169 1205 825 
Q 1463 481 1925 481 
Q 2391 481 2648 825 
Q 2906 1169 2906 1791 
z
M 3481 434 
Q 3481 -459 3084 -895 
Q 2688 -1331 1869 -1331 
Q 1566 -1331 1297 -1286 
Q 1028 -1241 775 -1147 
L 775 -588 
Q 1028 -725 1275 -790 
Q 1522 -856 1778 -856 
Q 2344 -856 2625 -561 
Q 2906 -266 2906 331 
L 2906 616 
Q 2728 306 2450 153 
Q 2172 0 1784 0 
Q 1141 0 747 490 
Q 353 981 353 1791 
Q 353 2603 747 3093 
Q 1141 3584 1784 3584 
Q 2172 3584 2450 3431 
Q 2728 3278 2906 2969 
L 2906 3500 
L 3481 3500 
L 3481 434 
z
" transform="scale(0.015625)"/>
      <path id="DejaVuSans-72" d="M 2631 2963 
Q 2534 3019 2420 3045 
Q 2306 3072 2169 3072 
Q 1681 3072 1420 2755 
Q 1159 2438 1159 1844 
L 1159 0 
L 581 0 
L 581 3500 
L 1159 3500 
L 1159 2956 
Q 1341 3275 1631 3429 
Q 1922 3584 2338 3584 
Q 2397 3584 2469 3576 
Q 2541 3569 2628 3553 
L 2631 2963 
z
" transform="scale(0.015625)"/>
      <path id="DejaVuSans-65" d="M 3597 1894 
L 3597 1613 
L 953 1613 
Q 991 1019 1311 708 
Q 1631 397 2203 397 
Q 2534 397 2845 478 
Q 3156 559 3463 722 
L 3463 178 
Q 3153 47 2828 -22 
Q 2503 -91 2169 -91 
Q 1331 -91 842 396 
Q 353 884 353 1716 
Q 353 2575 817 3079 
Q 1281 3584 2069 3584 
Q 2775 3584 3186 3129 
Q 3597 2675 3597 1894 
z
M 3022 2063 
Q 3016 2534 2758 2815 
Q 2500 3097 2075 3097 
Q 1594 3097 1305 2825 
Q 1016 2553 972 2059 
L 3022 2063 
z
" transform="scale(0.015625)"/>
     </defs>
     <use xlink:href="#DejaVuSans-Oblique-41" transform="translate(0 0.015625)"/>
     <use xlink:href="#DejaVuSans-20" transform="translate(68.408203 0.015625)"/>
     <use xlink:href="#DejaVuSans-61" transform="translate(100.195312 0.015625)"/>
     <use xlink:href="#DejaVuSans-6e" transform="translate(161.474609 0.015625)"/>
     <use xlink:href="#DejaVuSans-64" transform="translate(224.853516 0.015625)"/>
     <use xlink:href="#DejaVuSans-20" transform="translate(288.330078 0.015625)"/>
     <use xlink:href="#DejaVuSans-33" transform="translate(320.117188 0.015625)"/>
     <use xlink:href="#DejaVuSans-Oblique-49" transform="translate(383.740234 0.015625)"/>
     <use xlink:href="#DejaVuSans-20" transform="translate(413.232422 0.015625)"/>
     <use xlink:href="#DejaVuSans-61" transform="translate(445.019531 0.015625)"/>
     <use xlink:href="#DejaVuSans-67" transform="translate(506.298828 0.015625)"/>
     <use xlink:href="#DejaVuSans-72" transform="translate(569.775391 0.015625)"/>
     <use xlink:href="#DejaVuSans-65" transform="translate(610.888672 0.015625)"/>
     <use xlink:href="#DejaVuSans-65" transform="translate(672.412109 0.015625)"/>
    </g>
    <!-- along this line -->
    <g style="fill: #cc7000" transform="translate(293.764619 86.389943) scale(0.1 -0.1)">
     <defs>
      <path id="DejaVuSans-6c" d="M 603 4863 
L 1178 4863 
L 1178 0 
L 603 0 
L 603 4863 
z
" transform="scale(0.015625)"/>
      <path id="DejaVuSans-6f" d="M 1959 3097 
Q 1497 3097 1228 2736 
Q 959 2375 959 1747 
Q 959 1119 1226 758 
Q 1494 397 1959 397 
Q 2419 397 2687 759 
Q 2956 1122 2956 1747 
Q 2956 2369 2687 2733 
Q 2419 3097 1959 3097 
z
M 1959 3584 
Q 2709 3584 3137 3096 
Q 3566 2609 3566 1747 
Q 3566 888 3137 398 
Q 2709 -91 1959 -91 
Q 1206 -91 779 398 
Q 353 888 353 1747 
Q 353 2609 779 3096 
Q 1206 3584 1959 3584 
z
" transform="scale(0.015625)"/>
      <path id="DejaVuSans-74" d="M 1172 4494 
L 1172 3500 
L 2356 3500 
L 2356 3053 
L 1172 3053 
L 1172 1153 
Q 1172 725 1289 603 
Q 1406 481 1766 481 
L 2356 481 
L 2356 0 
L 1766 0 
Q 1100 0 847 248 
Q 594 497 594 1153 
L 594 3053 
L 172 3053 
L 172 3500 
L 594 3500 
L 594 4494 
L 1172 4494 
z
" transform="scale(0.015625)"/>
      <path id="DejaVuSans-68" d="M 3513 2113 
L 3513 0 
L 2938 0 
L 2938 2094 
Q 2938 2591 2744 2837 
Q 2550 3084 2163 3084 
Q 1697 3084 1428 2787 
Q 1159 2491 1159 1978 
L 1159 0 
L 581 0 
L 581 4863 
L 1159 4863 
L 1159 2956 
Q 1366 3272 1645 3428 
Q 1925 3584 2291 3584 
Q 2894 3584 3203 3211 
Q 3513 2838 3513 2113 
z
" transform="scale(0.015625)"/>
      <path id="DejaVuSans-69" d="M 603 3500 
L 1178 3500 
L 1178 0 
L 603 0 
L 603 3500 
z
M 603 4863 
L 1178 4863 
L 1178 4134 
L 603 4134 
L 603 4863 
z
" transform="scale(0.015625)"/>
      <path id="DejaVuSans-73" d="M 2834 3397 
L 2834 2853 
Q 2591 2978 2328 3040 
Q 2066 3103 1784 3103 
Q 1356 3103 1142 2972 
Q 928 2841 928 2578 
Q 928 2378 1081 2264 
Q 1234 2150 1697 2047 
L 1894 2003 
Q 2506 1872 2764 1633 
Q 3022 1394 3022 966 
Q 3022 478 2636 193 
Q 2250 -91 1575 -91 
Q 1294 -91 989 -36 
Q 684 19 347 128 
L 347 722 
Q 666 556 975 473 
Q 1284 391 1588 391 
Q 1994 391 2212 530 
Q 2431 669 2431 922 
Q 2431 1156 2273 1281 
Q 2116 1406 1581 1522 
L 1381 1569 
Q 847 1681 609 1914 
Q 372 2147 372 2553 
Q 372 3047 722 3315 
Q 1072 3584 1716 3584 
Q 2034 3584 2315 3537 
Q 2597 3491 2834 3397 
z
" transform="scale(0.015625)"/>
     </defs>
     <use xlink:href="#DejaVuSans-61"/>
     <use xlink:href="#DejaVuSans-6c" transform="translate(61.279297 0)"/>
     <use xlink:href="#DejaVuSans-6f" transform="translate(89.0625 0)"/>
     <use xlink:href="#DejaVuSans-6e" transform="translate(150.244141 0)"/>
     <use xlink:href="#DejaVuSans-67" transform="translate(213.623047 0)"/>
     <use xlink:href="#DejaVuSans-20" transform="translate(277.099609 0)"/>
     <use xlink:href="#DejaVuSans-74" transform="translate(308.886719 0)"/>
     <use xlink:href="#DejaVuSans-68" transform="translate(348.095703 0)"/>
     <use xlink:href="#DejaVuSans-69" transform="translate(411.474609 0)"/>
     <use xlink:href="#DejaVuSans-73" transform="translate(439.257812 0)"/>
     <use xlink:href="#DejaVuSans-20" transform="translate(491.357422 0)"/>
     <use xlink:href="#DejaVuSans-6c" transform="translate(523.144531 0)"/>
     <use xlink:href="#DejaVuSans-69" transform="translate(550.927734 0)"/>
     <use xlink:href="#DejaVuSans-6e" transform="translate(578.710938 0)"/>
     <use xlink:href="#DejaVuSans-65" transform="translate(642.089844 0)"/>
    </g>
   </g>
   <g id="text_20">
    <!-- $\lambda = 3$ -->
    <g style="fill: #cc7000" transform="translate(135.725426 312.770409) scale(0.13 -0.13)">
     <defs>
      <path id="DejaVuSans-Oblique-3bb" d="M 2350 4316 
L 3125 0 
L 2516 0 
L 2038 2588 
L 328 0 
L -281 0 
L 1903 3356 
L 1794 3975 
Q 1725 4369 1391 4369 
L 1091 4369 
L 1184 4863 
L 1550 4856 
Q 2253 4847 2350 4316 
z
" transform="scale(0.015625)"/>
      <path id="DejaVuSans-3d" d="M 678 2906 
L 4684 2906 
L 4684 2381 
L 678 2381 
L 678 2906 
z
M 678 1631 
L 4684 1631 
L 4684 1100 
L 678 1100 
L 678 1631 
z
" transform="scale(0.015625)"/>
     </defs>
     <use xlink:href="#DejaVuSans-Oblique-3bb" transform="translate(0 0.015625)"/>
     <use xlink:href="#DejaVuSans-3d" transform="translate(78.662109 0.015625)"/>
     <use xlink:href="#DejaVuSans-33" transform="translate(181.933594 0.015625)"/>
    </g>
   </g>
   <g id="text_21">
    <!-- $A$ matches $3I$ along the diagonal -->
    <g style="fill: #808080" transform="translate(102.475369 16.32) scale(0.12 -0.12)">
     <defs>
      <path id="DejaVuSans-6d" d="M 3328 2828 
Q 3544 3216 3844 3400 
Q 4144 3584 4550 3584 
Q 5097 3584 5394 3201 
Q 5691 2819 5691 2113 
L 5691 0 
L 5113 0 
L 5113 2094 
Q 5113 2597 4934 2840 
Q 4756 3084 4391 3084 
Q 3944 3084 3684 2787 
Q 3425 2491 3425 1978 
L 3425 0 
L 2847 0 
L 2847 2094 
Q 2847 2600 2669 2842 
Q 2491 3084 2119 3084 
Q 1678 3084 1418 2786 
Q 1159 2488 1159 1978 
L 1159 0 
L 581 0 
L 581 3500 
L 1159 3500 
L 1159 2956 
Q 1356 3278 1631 3431 
Q 1906 3584 2284 3584 
Q 2666 3584 2933 3390 
Q 3200 3197 3328 2828 
z
" transform="scale(0.015625)"/>
      <path id="DejaVuSans-63" d="M 3122 3366 
L 3122 2828 
Q 2878 2963 2633 3030 
Q 2388 3097 2138 3097 
Q 1578 3097 1268 2742 
Q 959 2388 959 1747 
Q 959 1106 1268 751 
Q 1578 397 2138 397 
Q 2388 397 2633 464 
Q 2878 531 3122 666 
L 3122 134 
Q 2881 22 2623 -34 
Q 2366 -91 2075 -91 
Q 1284 -91 818 406 
Q 353 903 353 1747 
Q 353 2603 823 3093 
Q 1294 3584 2113 3584 
Q 2378 3584 2631 3529 
Q 2884 3475 3122 3366 
z
" transform="scale(0.015625)"/>
     </defs>
     <use xlink:href="#DejaVuSans-Oblique-41" transform="translate(0 0.015625)"/>
     <use xlink:href="#DejaVuSans-20" transform="translate(68.408203 0.015625)"/>
     <use xlink:href="#DejaVuSans-6d" transform="translate(100.195312 0.015625)"/>
     <use xlink:href="#DejaVuSans-61" transform="translate(197.607422 0.015625)"/>
     <use xlink:href="#DejaVuSans-74" transform="translate(258.886719 0.015625)"/>
     <use xlink:href="#DejaVuSans-63" transform="translate(298.095703 0.015625)"/>
     <use xlink:href="#DejaVuSans-68" transform="translate(353.076172 0.015625)"/>
     <use xlink:href="#DejaVuSans-65" transform="translate(416.455078 0.015625)"/>
     <use xlink:href="#DejaVuSans-73" transform="translate(477.978516 0.015625)"/>
     <use xlink:href="#DejaVuSans-20" transform="translate(530.078125 0.015625)"/>
     <use xlink:href="#DejaVuSans-33" transform="translate(561.865234 0.015625)"/>
     <use xlink:href="#DejaVuSans-Oblique-49" transform="translate(625.488281 0.015625)"/>
     <use xlink:href="#DejaVuSans-20" transform="translate(654.980469 0.015625)"/>
     <use xlink:href="#DejaVuSans-61" transform="translate(686.767578 0.015625)"/>
     <use xlink:href="#DejaVuSans-6c" transform="translate(748.046875 0.015625)"/>
     <use xlink:href="#DejaVuSans-6f" transform="translate(775.830078 0.015625)"/>
     <use xlink:href="#DejaVuSans-6e" transform="translate(837.011719 0.015625)"/>
     <use xlink:href="#DejaVuSans-67" transform="translate(900.390625 0.015625)"/>
     <use xlink:href="#DejaVuSans-20" transform="translate(963.867188 0.015625)"/>
     <use xlink:href="#DejaVuSans-74" transform="translate(995.654297 0.015625)"/>
     <use xlink:href="#DejaVuSans-68" transform="translate(1034.863281 0.015625)"/>
     <use xlink:href="#DejaVuSans-65" transform="translate(1098.242188 0.015625)"/>
     <use xlink:href="#DejaVuSans-20" transform="translate(1159.765625 0.015625)"/>
     <use xlink:href="#DejaVuSans-64" transform="translate(1191.552734 0.015625)"/>
     <use xlink:href="#DejaVuSans-69" transform="translate(1255.029297 0.015625)"/>
     <use xlink:href="#DejaVuSans-61" transform="translate(1282.8125 0.015625)"/>
     <use xlink:href="#DejaVuSans-67" transform="translate(1344.091797 0.015625)"/>
     <use xlink:href="#DejaVuSans-6f" transform="translate(1407.568359 0.015625)"/>
     <use xlink:href="#DejaVuSans-6e" transform="translate(1468.75 0.015625)"/>
     <use xlink:href="#DejaVuSans-61" transform="translate(1532.128906 0.015625)"/>
     <use xlink:href="#DejaVuSans-6c" transform="translate(1593.408203 0.015625)"/>
    </g>
   </g>
   <g id="line2d_40">
    <defs>
     <path id="m277eabdab5" d="M 0 4 
C 1.060812 4 2.078319 3.578535 2.828427 2.828427 
C 3.578535 2.078319 4 1.060812 4 0 
C 4 -1.060812 3.578535 -2.078319 2.828427 -2.828427 
C 2.078319 -3.578535 1.060812 -4 0 -4 
C -1.060812 -4 -2.078319 -3.578535 -2.828427 -2.828427 
C -3.578535 -2.078319 -4 -1.060812 -4 0 
C -4 1.060812 -3.578535 2.078319 -2.828427 2.828427 
C -2.078319 3.578535 -1.060812 4 0 4 
z
" style="stroke: #20b2aa"/>
    </defs>
    <g clip-path="url(#p8000f653ad)">
     <use xlink:href="#m277eabdab5" x="157.082074" y="235.886477" style="fill: #20b2aa; stroke: #20b2aa"/>
    </g>
   </g>
   <g id="line2d_41">
    <defs>
     <path id="m4f6be16775" d="M 0 4 
C 1.060812 4 2.078319 3.578535 2.828427 2.828427 
C 3.578535 2.078319 4 1.060812 4 0 
C 4 -1.060812 3.578535 -2.078319 2.828427 -2.828427 
C 2.078319 -3.578535 1.060812 -4 0 -4 
C -1.060812 -4 -2.078319 -3.578535 -2.828427 -2.828427 
C -3.578535 -2.078319 -4 -1.060812 -4 0 
C -4 1.060812 -3.578535 2.078319 -2.828427 2.828427 
C -2.078319 3.578535 -1.060812 4 0 4 
z
" style="stroke: #cc7000"/>
    </defs>
    <g clip-path="url(#p8000f653ad)">
     <use xlink:href="#m4f6be16775" x="71.655483" y="321.313068" style="fill: #cc7000; stroke: #cc7000"/>
    </g>
   </g>
   <g id="line2d_42">
    <g clip-path="url(#p8000f653ad)">
     <use xlink:href="#m277eabdab5" x="242.508665" y="150.459886" style="fill: #20b2aa; stroke: #20b2aa"/>
    </g>
   </g>
   <g id="line2d_43">
    <g clip-path="url(#p8000f653ad)">
     <use xlink:href="#m4f6be16775" x="327.935256" y="65.033295" style="fill: #cc7000; stroke: #cc7000"/>
    </g>
   </g>
  </g>
  <g id="axes_2">
   <g id="patch_7">
    <path d="M 457.288667 364.026364 
L 798.995031 364.026364 
L 798.995031 22.32 
L 457.288667 22.32 
z
" style="fill: #ffffff"/>
   </g>
   <g id="matplotlib.axis_3">
    <g id="xtick_10">
     <g id="line2d_44">
      <path d="M 457.288667 364.026364 
L 457.288667 22.32 
" clip-path="url(#p8971fa99f2)" style="fill: none; stroke-dasharray: 2.96,1.28; stroke-dashoffset: 0; stroke: #b0b0b0; stroke-opacity: 0.4; stroke-width: 0.8"/>
     </g>
     <g id="line2d_45">
      <g>
       <use xlink:href="#m39610867a8" x="457.288667" y="364.026364" style="stroke: #000000; stroke-width: 0.8"/>
      </g>
     </g>
     <g id="text_22">
      <!-- −4 -->
      <g transform="translate(449.917573 378.624801) scale(0.1 -0.1)">
       <use xlink:href="#DejaVuSans-2212"/>
       <use xlink:href="#DejaVuSans-34" transform="translate(83.789062 0)"/>
      </g>
     </g>
    </g>
    <g id="xtick_11">
     <g id="line2d_46">
      <path d="M 500.001962 364.026364 
L 500.001962 22.32 
" clip-path="url(#p8971fa99f2)" style="fill: none; stroke-dasharray: 2.96,1.28; stroke-dashoffset: 0; stroke: #b0b0b0; stroke-opacity: 0.4; stroke-width: 0.8"/>
     </g>
     <g id="line2d_47">
      <g>
       <use xlink:href="#m39610867a8" x="500.001962" y="364.026364" style="stroke: #000000; stroke-width: 0.8"/>
      </g>
     </g>
     <g id="text_23">
      <!-- −3 -->
      <g transform="translate(492.630869 378.624801) scale(0.1 -0.1)">
       <use xlink:href="#DejaVuSans-2212"/>
       <use xlink:href="#DejaVuSans-33" transform="translate(83.789062 0)"/>
      </g>
     </g>
    </g>
    <g id="xtick_12">
     <g id="line2d_48">
      <path d="M 542.715258 364.026364 
L 542.715258 22.32 
" clip-path="url(#p8971fa99f2)" style="fill: none; stroke-dasharray: 2.96,1.28; stroke-dashoffset: 0; stroke: #b0b0b0; stroke-opacity: 0.4; stroke-width: 0.8"/>
     </g>
     <g id="line2d_49">
      <g>
       <use xlink:href="#m39610867a8" x="542.715258" y="364.026364" style="stroke: #000000; stroke-width: 0.8"/>
      </g>
     </g>
     <g id="text_24">
      <!-- −2 -->
      <g transform="translate(535.344164 378.624801) scale(0.1 -0.1)">
       <use xlink:href="#DejaVuSans-2212"/>
       <use xlink:href="#DejaVuSans-32" transform="translate(83.789062 0)"/>
      </g>
     </g>
    </g>
    <g id="xtick_13">
     <g id="line2d_50">
      <path d="M 585.428553 364.026364 
L 585.428553 22.32 
" clip-path="url(#p8971fa99f2)" style="fill: none; stroke-dasharray: 2.96,1.28; stroke-dashoffset: 0; stroke: #b0b0b0; stroke-opacity: 0.4; stroke-width: 0.8"/>
     </g>
     <g id="line2d_51">
      <g>
       <use xlink:href="#m39610867a8" x="585.428553" y="364.026364" style="stroke: #000000; stroke-width: 0.8"/>
      </g>
     </g>
     <g id="text_25">
      <!-- −1 -->
      <g transform="translate(578.05746 378.624801) scale(0.1 -0.1)">
       <use xlink:href="#DejaVuSans-2212"/>
       <use xlink:href="#DejaVuSans-31" transform="translate(83.789062 0)"/>
      </g>
     </g>
    </g>
    <g id="xtick_14">
     <g id="line2d_52">
      <path d="M 628.141849 364.026364 
L 628.141849 22.32 
" clip-path="url(#p8971fa99f2)" style="fill: none; stroke-dasharray: 2.96,1.28; stroke-dashoffset: 0; stroke: #b0b0b0; stroke-opacity: 0.4; stroke-width: 0.8"/>
     </g>
     <g id="line2d_53">
      <g>
       <use xlink:href="#m39610867a8" x="628.141849" y="364.026364" style="stroke: #000000; stroke-width: 0.8"/>
      </g>
     </g>
     <g id="text_26">
      <!-- 0 -->
      <g transform="translate(624.960599 378.624801) scale(0.1 -0.1)">
       <use xlink:href="#DejaVuSans-30"/>
      </g>
     </g>
    </g>
    <g id="xtick_15">
     <g id="line2d_54">
      <path d="M 670.855144 364.026364 
L 670.855144 22.32 
" clip-path="url(#p8971fa99f2)" style="fill: none; stroke-dasharray: 2.96,1.28; stroke-dashoffset: 0; stroke: #b0b0b0; stroke-opacity: 0.4; stroke-width: 0.8"/>
     </g>
     <g id="line2d_55">
      <g>
       <use xlink:href="#m39610867a8" x="670.855144" y="364.026364" style="stroke: #000000; stroke-width: 0.8"/>
      </g>
     </g>
     <g id="text_27">
      <!-- 1 -->
      <g transform="translate(667.673894 378.624801) scale(0.1 -0.1)">
       <use xlink:href="#DejaVuSans-31"/>
      </g>
     </g>
    </g>
    <g id="xtick_16">
     <g id="line2d_56">
      <path d="M 713.56844 364.026364 
L 713.56844 22.32 
" clip-path="url(#p8971fa99f2)" style="fill: none; stroke-dasharray: 2.96,1.28; stroke-dashoffset: 0; stroke: #b0b0b0; stroke-opacity: 0.4; stroke-width: 0.8"/>
     </g>
     <g id="line2d_57">
      <g>
       <use xlink:href="#m39610867a8" x="713.56844" y="364.026364" style="stroke: #000000; stroke-width: 0.8"/>
      </g>
     </g>
     <g id="text_28">
      <!-- 2 -->
      <g transform="translate(710.38719 378.624801) scale(0.1 -0.1)">
       <use xlink:href="#DejaVuSans-32"/>
      </g>
     </g>
    </g>
    <g id="xtick_17">
     <g id="line2d_58">
      <path d="M 756.281735 364.026364 
L 756.281735 22.32 
" clip-path="url(#p8971fa99f2)" style="fill: none; stroke-dasharray: 2.96,1.28; stroke-dashoffset: 0; stroke: #b0b0b0; stroke-opacity: 0.4; stroke-width: 0.8"/>
     </g>
     <g id="line2d_59">
      <g>
       <use xlink:href="#m39610867a8" x="756.281735" y="364.026364" style="stroke: #000000; stroke-width: 0.8"/>
      </g>
     </g>
     <g id="text_29">
      <!-- 3 -->
      <g transform="translate(753.100485 378.624801) scale(0.1 -0.1)">
       <use xlink:href="#DejaVuSans-33"/>
      </g>
     </g>
    </g>
    <g id="xtick_18">
     <g id="line2d_60">
      <path d="M 798.995031 364.026364 
L 798.995031 22.32 
" clip-path="url(#p8971fa99f2)" style="fill: none; stroke-dasharray: 2.96,1.28; stroke-dashoffset: 0; stroke: #b0b0b0; stroke-opacity: 0.4; stroke-width: 0.8"/>
     </g>
     <g id="line2d_61">
      <g>
       <use xlink:href="#m39610867a8" x="798.995031" y="364.026364" style="stroke: #000000; stroke-width: 0.8"/>
      </g>
     </g>
     <g id="text_30">
      <!-- 4 -->
      <g transform="translate(795.813781 378.624801) scale(0.1 -0.1)">
       <use xlink:href="#DejaVuSans-34"/>
      </g>
     </g>
    </g>
   </g>
   <g id="matplotlib.axis_4">
    <g id="ytick_10">
     <g id="line2d_62">
      <path d="M 457.288667 364.026364 
L 798.995031 364.026364 
" clip-path="url(#p8971fa99f2)" style="fill: none; stroke-dasharray: 2.96,1.28; stroke-dashoffset: 0; stroke: #b0b0b0; stroke-opacity: 0.4; stroke-width: 0.8"/>
     </g>
     <g id="line2d_63">
      <g>
       <use xlink:href="#m8b52c1ac44" x="457.288667" y="364.026364" style="stroke: #000000; stroke-width: 0.8"/>
      </g>
     </g>
     <g id="text_31">
      <!-- −4 -->
      <g transform="translate(435.54648 367.825582) scale(0.1 -0.1)">
       <use xlink:href="#DejaVuSans-2212"/>
       <use xlink:href="#DejaVuSans-34" transform="translate(83.789062 0)"/>
      </g>
     </g>
    </g>
    <g id="ytick_11">
     <g id="line2d_64">
      <path d="M 457.288667 321.313068 
L 798.995031 321.313068 
" clip-path="url(#p8971fa99f2)" style="fill: none; stroke-dasharray: 2.96,1.28; stroke-dashoffset: 0; stroke: #b0b0b0; stroke-opacity: 0.4; stroke-width: 0.8"/>
     </g>
     <g id="line2d_65">
      <g>
       <use xlink:href="#m8b52c1ac44" x="457.288667" y="321.313068" style="stroke: #000000; stroke-width: 0.8"/>
      </g>
     </g>
     <g id="text_32">
      <!-- −3 -->
      <g transform="translate(435.54648 325.112287) scale(0.1 -0.1)">
       <use xlink:href="#DejaVuSans-2212"/>
       <use xlink:href="#DejaVuSans-33" transform="translate(83.789062 0)"/>
      </g>
     </g>
    </g>
    <g id="ytick_12">
     <g id="line2d_66">
      <path d="M 457.288667 278.599773 
L 798.995031 278.599773 
" clip-path="url(#p8971fa99f2)" style="fill: none; stroke-dasharray: 2.96,1.28; stroke-dashoffset: 0; stroke: #b0b0b0; stroke-opacity: 0.4; stroke-width: 0.8"/>
     </g>
     <g id="line2d_67">
      <g>
       <use xlink:href="#m8b52c1ac44" x="457.288667" y="278.599773" style="stroke: #000000; stroke-width: 0.8"/>
      </g>
     </g>
     <g id="text_33">
      <!-- −2 -->
      <g transform="translate(435.54648 282.398991) scale(0.1 -0.1)">
       <use xlink:href="#DejaVuSans-2212"/>
       <use xlink:href="#DejaVuSans-32" transform="translate(83.789062 0)"/>
      </g>
     </g>
    </g>
    <g id="ytick_13">
     <g id="line2d_68">
      <path d="M 457.288667 235.886477 
L 798.995031 235.886477 
" clip-path="url(#p8971fa99f2)" style="fill: none; stroke-dasharray: 2.96,1.28; stroke-dashoffset: 0; stroke: #b0b0b0; stroke-opacity: 0.4; stroke-width: 0.8"/>
     </g>
     <g id="line2d_69">
      <g>
       <use xlink:href="#m8b52c1ac44" x="457.288667" y="235.886477" style="stroke: #000000; stroke-width: 0.8"/>
      </g>
     </g>
     <g id="text_34">
      <!-- −1 -->
      <g transform="translate(435.54648 239.685696) scale(0.1 -0.1)">
       <use xlink:href="#DejaVuSans-2212"/>
       <use xlink:href="#DejaVuSans-31" transform="translate(83.789062 0)"/>
      </g>
     </g>
    </g>
    <g id="ytick_14">
     <g id="line2d_70">
      <path d="M 457.288667 193.173182 
L 798.995031 193.173182 
" clip-path="url(#p8971fa99f2)" style="fill: none; stroke-dasharray: 2.96,1.28; stroke-dashoffset: 0; stroke: #b0b0b0; stroke-opacity: 0.4; stroke-width: 0.8"/>
     </g>
     <g id="line2d_71">
      <g>
       <use xlink:href="#m8b52c1ac44" x="457.288667" y="193.173182" style="stroke: #000000; stroke-width: 0.8"/>
      </g>
     </g>
     <g id="text_35">
      <!-- 0 -->
      <g transform="translate(443.926167 196.972401) scale(0.1 -0.1)">
       <use xlink:href="#DejaVuSans-30"/>
      </g>
     </g>
    </g>
    <g id="ytick_15">
     <g id="line2d_72">
      <path d="M 457.288667 150.459886 
L 798.995031 150.459886 
" clip-path="url(#p8971fa99f2)" style="fill: none; stroke-dasharray: 2.96,1.28; stroke-dashoffset: 0; stroke: #b0b0b0; stroke-opacity: 0.4; stroke-width: 0.8"/>
     </g>
     <g id="line2d_73">
      <g>
       <use xlink:href="#m8b52c1ac44" x="457.288667" y="150.459886" style="stroke: #000000; stroke-width: 0.8"/>
      </g>
     </g>
     <g id="text_36">
      <!-- 1 -->
      <g transform="translate(443.926167 154.259105) scale(0.1 -0.1)">
       <use xlink:href="#DejaVuSans-31"/>
      </g>
     </g>
    </g>
    <g id="ytick_16">
     <g id="line2d_74">
      <path d="M 457.288667 107.746591 
L 798.995031 107.746591 
" clip-path="url(#p8971fa99f2)" style="fill: none; stroke-dasharray: 2.96,1.28; stroke-dashoffset: 0; stroke: #b0b0b0; stroke-opacity: 0.4; stroke-width: 0.8"/>
     </g>
     <g id="line2d_75">
      <g>
       <use xlink:href="#m8b52c1ac44" x="457.288667" y="107.746591" style="stroke: #000000; stroke-width: 0.8"/>
      </g>
     </g>
     <g id="text_37">
      <!-- 2 -->
      <g transform="translate(443.926167 111.54581) scale(0.1 -0.1)">
       <use xlink:href="#DejaVuSans-32"/>
      </g>
     </g>
    </g>
    <g id="ytick_17">
     <g id="line2d_76">
      <path d="M 457.288667 65.033295 
L 798.995031 65.033295 
" clip-path="url(#p8971fa99f2)" style="fill: none; stroke-dasharray: 2.96,1.28; stroke-dashoffset: 0; stroke: #b0b0b0; stroke-opacity: 0.4; stroke-width: 0.8"/>
     </g>
     <g id="line2d_77">
      <g>
       <use xlink:href="#m8b52c1ac44" x="457.288667" y="65.033295" style="stroke: #000000; stroke-width: 0.8"/>
      </g>
     </g>
     <g id="text_38">
      <!-- 3 -->
      <g transform="translate(443.926167 68.832514) scale(0.1 -0.1)">
       <use xlink:href="#DejaVuSans-33"/>
      </g>
     </g>
    </g>
    <g id="ytick_18">
     <g id="line2d_78">
      <path d="M 457.288667 22.32 
L 798.995031 22.32 
" clip-path="url(#p8971fa99f2)" style="fill: none; stroke-dasharray: 2.96,1.28; stroke-dashoffset: 0; stroke: #b0b0b0; stroke-opacity: 0.4; stroke-width: 0.8"/>
     </g>
     <g id="line2d_79">
      <g>
       <use xlink:href="#m8b52c1ac44" x="457.288667" y="22.32" style="stroke: #000000; stroke-width: 0.8"/>
      </g>
     </g>
     <g id="text_39">
      <!-- 4 -->
      <g transform="translate(443.926167 26.119219) scale(0.1 -0.1)">
       <use xlink:href="#DejaVuSans-34"/>
      </g>
     </g>
    </g>
   </g>
   <g id="line2d_80">
    <path d="M 478.645315 193.173182 
L 481.665447 193.173182 
L 484.685579 193.173182 
L 487.705711 193.173182 
L 490.725843 193.173182 
L 493.745975 193.173182 
L 496.766107 193.173182 
L 499.786239 193.173182 
L 502.806371 193.173182 
L 505.826503 193.173182 
L 508.846635 193.173182 
L 511.866767 193.173182 
L 514.886899 193.173182 
L 517.907031 193.173182 
L 520.927163 193.173182 
L 523.947295 193.173182 
L 526.967427 193.173182 
L 529.987559 193.173182 
L 533.007691 193.173182 
L 536.027823 193.173182 
L 539.047955 193.173182 
L 542.068087 193.173182 
L 545.088219 193.173182 
L 548.108351 193.173182 
L 551.128483 193.173182 
L 554.148615 193.173182 
L 557.168747 193.173182 
L 560.188879 193.173182 
L 563.209011 193.173182 
L 566.229143 193.173182 
L 569.249275 193.173182 
L 572.269407 193.173182 
L 575.289539 193.173182 
L 578.309671 193.173182 
L 581.329803 193.173182 
L 584.349935 193.173182 
L 587.370067 193.173182 
L 590.390199 193.173182 
L 593.410331 193.173182 
L 596.430463 193.173182 
L 599.450595 193.173182 
L 602.470727 193.173182 
L 605.490859 193.173182 
L 608.510991 193.173182 
L 611.531123 193.173182 
L 614.551255 193.173182 
L 617.571387 193.173182 
L 620.591519 193.173182 
L 623.611651 193.173182 
L 626.631783 193.173182 
L 629.651915 193.173182 
L 632.672047 193.173182 
L 635.692179 193.173182 
L 638.712311 193.173182 
L 641.732443 193.173182 
L 644.752575 193.173182 
L 647.772707 193.173182 
L 650.792839 193.173182 
L 653.812971 193.173182 
L 656.833103 193.173182 
L 659.853235 193.173182 
L 662.873367 193.173182 
L 665.893499 193.173182 
L 668.913631 193.173182 
L 671.933763 193.173182 
L 674.953895 193.173182 
L 677.974027 193.173182 
L 680.994159 193.173182 
L 684.014291 193.173182 
L 687.034423 193.173182 
L 690.054555 193.173182 
L 693.074687 193.173182 
L 696.094819 193.173182 
L 699.114951 193.173182 
L 702.135083 193.173182 
L 705.155215 193.173182 
L 708.175347 193.173182 
L 711.195479 193.173182 
L 714.215611 193.173182 
L 717.235743 193.173182 
L 720.255875 193.173182 
L 723.276007 193.173182 
L 726.296139 193.173182 
L 729.316271 193.173182 
L 732.336403 193.173182 
L 735.356535 193.173182 
L 738.376667 193.173182 
L 741.396799 193.173182 
L 744.416931 193.173182 
L 747.437063 193.173182 
L 750.457195 193.173182 
L 753.477327 193.173182 
L 756.497459 193.173182 
L 759.517591 193.173182 
L 762.537723 193.173182 
L 765.557855 193.173182 
L 768.577987 193.173182 
L 771.598119 193.173182 
L 774.618251 193.173182 
L 777.638383 193.173182 
" clip-path="url(#p8971fa99f2)" style="fill: none; stroke: #20b2aa; stroke-opacity: 0.3; stroke-width: 3; stroke-linecap: square"/>
   </g>
   <g id="line2d_81">
    <path d="M 457.288667 193.173182 
L 798.995031 193.173182 
" clip-path="url(#p8971fa99f2)" style="fill: none; stroke: #4169e1; stroke-width: 1.2; stroke-linecap: square"/>
   </g>
   <g id="line2d_82">
    <path d="M 628.141849 364.026364 
L 628.141849 22.32 
" clip-path="url(#p8971fa99f2)" style="fill: none; stroke: #4169e1; stroke-width: 1.2; stroke-linecap: square"/>
   </g>
   <g id="patch_8">
    <path d="M 457.288667 364.026364 
L 457.288667 22.32 
" style="fill: none; stroke: #000000; stroke-width: 0.8; stroke-linejoin: miter; stroke-linecap: square"/>
   </g>
   <g id="patch_9">
    <path d="M 798.995031 364.026364 
L 798.995031 22.32 
" style="fill: none; stroke: #000000; stroke-width: 0.8; stroke-linejoin: miter; stroke-linecap: square"/>
   </g>
   <g id="patch_10">
    <path d="M 457.288667 364.026364 
L 798.995031 364.026364 
" style="fill: none; stroke: #000000; stroke-width: 0.8; stroke-linejoin: miter; stroke-linecap: square"/>
   </g>
   <g id="patch_11">
    <path d="M 457.288667 22.32 
L 798.995031 22.32 
" style="fill: none; stroke: #000000; stroke-width: 0.8; stroke-linejoin: miter; stroke-linecap: square"/>
   </g>
   <g id="text_40">
    <!-- $A$ and $2I$ agree -->
    <g style="fill: #20b2aa" transform="translate(692.211792 147.78442) scale(0.1 -0.1)">
     <use xlink:href="#DejaVuSans-Oblique-41" transform="translate(0 0.015625)"/>
     <use xlink:href="#DejaVuSans-20" transform="translate(68.408203 0.015625)"/>
     <use xlink:href="#DejaVuSans-61" transform="translate(100.195312 0.015625)"/>
     <use xlink:href="#DejaVuSans-6e" transform="translate(161.474609 0.015625)"/>
     <use xlink:href="#DejaVuSans-64" transform="translate(224.853516 0.015625)"/>
     <use xlink:href="#DejaVuSans-20" transform="translate(288.330078 0.015625)"/>
     <use xlink:href="#DejaVuSans-32" transform="translate(320.117188 0.015625)"/>
     <use xlink:href="#DejaVuSans-Oblique-49" transform="translate(383.740234 0.015625)"/>
     <use xlink:href="#DejaVuSans-20" transform="translate(413.232422 0.015625)"/>
     <use xlink:href="#DejaVuSans-61" transform="translate(445.019531 0.015625)"/>
     <use xlink:href="#DejaVuSans-67" transform="translate(506.298828 0.015625)"/>
     <use xlink:href="#DejaVuSans-72" transform="translate(569.775391 0.015625)"/>
     <use xlink:href="#DejaVuSans-65" transform="translate(610.888672 0.015625)"/>
     <use xlink:href="#DejaVuSans-65" transform="translate(672.412109 0.015625)"/>
    </g>
    <!-- along this line -->
    <g style="fill: #20b2aa" transform="translate(692.211792 159.002545) scale(0.1 -0.1)">
     <use xlink:href="#DejaVuSans-61"/>
     <use xlink:href="#DejaVuSans-6c" transform="translate(61.279297 0)"/>
     <use xlink:href="#DejaVuSans-6f" transform="translate(89.0625 0)"/>
     <use xlink:href="#DejaVuSans-6e" transform="translate(150.244141 0)"/>
     <use xlink:href="#DejaVuSans-67" transform="translate(213.623047 0)"/>
     <use xlink:href="#DejaVuSans-20" transform="translate(277.099609 0)"/>
     <use xlink:href="#DejaVuSans-74" transform="translate(308.886719 0)"/>
     <use xlink:href="#DejaVuSans-68" transform="translate(348.095703 0)"/>
     <use xlink:href="#DejaVuSans-69" transform="translate(411.474609 0)"/>
     <use xlink:href="#DejaVuSans-73" transform="translate(439.257812 0)"/>
     <use xlink:href="#DejaVuSans-20" transform="translate(491.357422 0)"/>
     <use xlink:href="#DejaVuSans-6c" transform="translate(523.144531 0)"/>
     <use xlink:href="#DejaVuSans-69" transform="translate(550.927734 0)"/>
     <use xlink:href="#DejaVuSans-6e" transform="translate(578.710938 0)"/>
     <use xlink:href="#DejaVuSans-65" transform="translate(642.089844 0)"/>
    </g>
   </g>
   <g id="text_41">
    <!-- $\lambda = 2$ -->
    <g style="fill: #20b2aa" transform="translate(564.071906 312.770409) scale(0.13 -0.13)">
     <use xlink:href="#DejaVuSans-Oblique-3bb" transform="translate(0 0.015625)"/>
     <use xlink:href="#DejaVuSans-3d" transform="translate(78.662109 0.015625)"/>
     <use xlink:href="#DejaVuSans-32" transform="translate(181.933594 0.015625)"/>
    </g>
   </g>
   <g id="text_42">
    <!-- $A$ matches $2I$ along the $x$-axis -->
    <g style="fill: #808080" transform="translate(538.861849 16.32) scale(0.12 -0.12)">
     <defs>
      <path id="DejaVuSans-Oblique-78" d="M 3841 3500 
L 2234 1784 
L 3219 0 
L 2559 0 
L 1819 1388 
L 531 0 
L -166 0 
L 1556 1844 
L 641 3500 
L 1300 3500 
L 1972 2234 
L 3144 3500 
L 3841 3500 
z
" transform="scale(0.015625)"/>
      <path id="DejaVuSans-2d" d="M 313 2009 
L 1997 2009 
L 1997 1497 
L 313 1497 
L 313 2009 
z
" transform="scale(0.015625)"/>
      <path id="DejaVuSans-78" d="M 3513 3500 
L 2247 1797 
L 3578 0 
L 2900 0 
L 1881 1375 
L 863 0 
L 184 0 
L 1544 1831 
L 300 3500 
L 978 3500 
L 1906 2253 
L 2834 3500 
L 3513 3500 
z
" transform="scale(0.015625)"/>
     </defs>
     <use xlink:href="#DejaVuSans-Oblique-41" transform="translate(0 0.015625)"/>
     <use xlink:href="#DejaVuSans-20" transform="translate(68.408203 0.015625)"/>
     <use xlink:href="#DejaVuSans-6d" transform="translate(100.195312 0.015625)"/>
     <use xlink:href="#DejaVuSans-61" transform="translate(197.607422 0.015625)"/>
     <use xlink:href="#DejaVuSans-74" transform="translate(258.886719 0.015625)"/>
     <use xlink:href="#DejaVuSans-63" transform="translate(298.095703 0.015625)"/>
     <use xlink:href="#DejaVuSans-68" transform="translate(353.076172 0.015625)"/>
     <use xlink:href="#DejaVuSans-65" transform="translate(416.455078 0.015625)"/>
     <use xlink:href="#DejaVuSans-73" transform="translate(477.978516 0.015625)"/>
     <use xlink:href="#DejaVuSans-20" transform="translate(530.078125 0.015625)"/>
     <use xlink:href="#DejaVuSans-32" transform="translate(561.865234 0.015625)"/>
     <use xlink:href="#DejaVuSans-Oblique-49" transform="translate(625.488281 0.015625)"/>
     <use xlink:href="#DejaVuSans-20" transform="translate(654.980469 0.015625)"/>
     <use xlink:href="#DejaVuSans-61" transform="translate(686.767578 0.015625)"/>
     <use xlink:href="#DejaVuSans-6c" transform="translate(748.046875 0.015625)"/>
     <use xlink:href="#DejaVuSans-6f" transform="translate(775.830078 0.015625)"/>
     <use xlink:href="#DejaVuSans-6e" transform="translate(837.011719 0.015625)"/>
     <use xlink:href="#DejaVuSans-67" transform="translate(900.390625 0.015625)"/>
     <use xlink:href="#DejaVuSans-20" transform="translate(963.867188 0.015625)"/>
     <use xlink:href="#DejaVuSans-74" transform="translate(995.654297 0.015625)"/>
     <use xlink:href="#DejaVuSans-68" transform="translate(1034.863281 0.015625)"/>
     <use xlink:href="#DejaVuSans-65" transform="translate(1098.242188 0.015625)"/>
     <use xlink:href="#DejaVuSans-20" transform="translate(1159.765625 0.015625)"/>
     <use xlink:href="#DejaVuSans-Oblique-78" transform="translate(1191.552734 0.015625)"/>
     <use xlink:href="#DejaVuSans-2d" transform="translate(1250.732422 0.015625)"/>
     <use xlink:href="#DejaVuSans-61" transform="translate(1286.816406 0.015625)"/>
     <use xlink:href="#DejaVuSans-78" transform="translate(1348.095703 0.015625)"/>
     <use xlink:href="#DejaVuSans-69" transform="translate(1407.275391 0.015625)"/>
     <use xlink:href="#DejaVuSans-73" transform="translate(1435.058594 0.015625)"/>
    </g>
   </g>
   <g id="line2d_83">
    <g clip-path="url(#p8971fa99f2)">
     <use xlink:href="#m277eabdab5" x="585.428553" y="193.173182" style="fill: #20b2aa; stroke: #20b2aa"/>
    </g>
   </g>
   <g id="line2d_84">
    <g clip-path="url(#p8971fa99f2)">
     <use xlink:href="#m4f6be16775" x="542.715258" y="193.173182" style="fill: #cc7000; stroke: #cc7000"/>
    </g>
   </g>
   <g id="line2d_85">
    <g clip-path="url(#p8971fa99f2)">
     <use xlink:href="#m277eabdab5" x="670.855144" y="193.173182" style="fill: #20b2aa; stroke: #20b2aa"/>
    </g>
   </g>
   <g id="line2d_86">
    <g clip-path="url(#p8971fa99f2)">
     <use xlink:href="#m4f6be16775" x="713.56844" y="193.173182" style="fill: #cc7000; stroke: #cc7000"/>
    </g>
   </g>
  </g>
 </g>
 <defs>
  <clipPath id="p8000f653ad">
   <rect x="28.942188" y="22.32" width="341.706364" height="341.706364"/>
  </clipPath>
  <clipPath id="p8971fa99f2">
   <rect x="457.288667" y="22.32" width="341.706364" height="341.706364"/>
  </clipPath>
 </defs>
</svg>
