<svg xmlns="http://www.w3.org/2000/svg" style="max-width:100%;max-height:599px;height:auto;width:425px;" xlink="http://www.w3.org/1999/xlink" version="1.1" viewbox="-0.5 -0.5 327 461"><defs></defs><g><g data-cell-id="0"><g data-cell-id="1"><g data-cell-id="tZFbiyOfFUJotgIQvUmY-14"><g transform="translate(0.5,0.5)"><rect x="5.5" y="180" width="320" height="210" rx="31.5" ry="31.5" fill="#ffffff" stroke="#000000" stroke-dasharray="8 4 1 4" pointer-events="all" style="fill: light-dark(#ffffff, var(--ge-dark-color, #121212)); stroke: light-dark(rgb(0, 0, 0), rgb(255, 255, 255));"></rect></g><g><g fill="#000000" font-family="Garamond" text-anchor="middle" font-size="14px" style="fill: light-dark(rgb(0, 0, 0), rgb(255, 255, 255));"><text x="165.5" y="291">OSPF</text></g></g></g><g data-cell-id="tZFbiyOfFUJotgIQvUmY-13"><g transform="translate(0.5,0.5)"><rect x="0" y="80" width="320" height="90" rx="13.5" ry="13.5" fill="#ffffff" stroke="#000000" stroke-dasharray="3 3" pointer-events="all" style="fill: light-dark(#ffffff, var(--ge-dark-color, #121212)); stroke: light-dark(rgb(0, 0, 0), rgb(255, 255, 255));"></rect></g><g><g fill="#000000" font-family="Garamond" text-anchor="middle" font-size="14px" style="fill: light-dark(rgb(0, 0, 0), rgb(255, 255, 255));"><text x="160" y="131">eBGP</text></g></g></g><g data-cell-id="tZFbiyOfFUJotgIQvUmY-1"><g transform="translate(0.5,0.5)"><path d="M 124.25 27.5 C 91.25 27.5 83 55 109.4 60.5 C 83 72.6 112.7 99 134.15 88 C 149 110 198.5 110 215 88 C 248 88 248 66 227.38 55 C 248 33 215 11 186.13 22 C 165.5 5.5 132.5 5.5 124.25 27.5 Z" fill="#ffffff" stroke="#000000" stroke-miterlimit="10" pointer-events="all" style="fill: light-dark(#ffffff, var(--ge-dark-color, #121212)); stroke: light-dark(rgb(0, 0, 0), rgb(255, 255, 255));"></path></g><g><g fill="#000000" font-family="Garamond" text-anchor="middle" font-size="14px" style="fill: light-dark(rgb(0, 0, 0), rgb(255, 255, 255));"><text x="165.5" y="61">Internet</text></g></g></g><g data-cell-id="tZFbiyOfFUJotgIQvUmY-2"><g transform="translate(0.5,0.5)"><path d="M 124.25 377.5 C 91.25 377.5 83 405 109.4 410.5 C 83 422.6 112.7 449 134.15 438 C 149 460 198.5 460 215 438 C 248 438 248 416 227.38 405 C 248 383 215 361 186.13 372 C 165.5 355.5 132.5 355.5 124.25 377.5 Z" fill="#ffffff" stroke="#000000" stroke-miterlimit="10" pointer-events="all" style="fill: light-dark(#ffffff, var(--ge-dark-color, #121212)); stroke: light-dark(rgb(0, 0, 0), rgb(255, 255, 255));"></path></g><g><g fill="#000000" font-family="Garamond" text-anchor="middle" font-size="14px" style="fill: light-dark(rgb(0, 0, 0), rgb(255, 255, 255));"><text x="165.5" y="411">Internal Network</text></g></g></g><g data-cell-id="tZFbiyOfFUJotgIQvUmY-7"><g transform="translate(0.5,0.5)"><path d="M 89.01 143.5 L 124.43 102.7" fill="none" stroke="#000000" stroke-miterlimit="10" pointer-events="stroke" style="stroke: light-dark(rgb(0, 0, 0), rgb(255, 255, 255));"></path></g></g><g data-cell-id="tZFbiyOfFUJotgIQvUmY-11"><g transform="translate(0.5,0.5)"><path d="M 66 196.5 L 66 270" fill="none" stroke="#000000" stroke-miterlimit="10" pointer-events="stroke" style="stroke: light-dark(rgb(0, 0, 0), rgb(255, 255, 255));"></path></g></g><g data-cell-id="tZFbiyOfFUJotgIQvUmY-3"><g><rect x="27" y="143.5" width="78" height="53" fill="none" stroke="none" pointer-events="all"></rect><path d="M 105 158.88 C 105 167.35 87.61 174.24 65.99 174.24 C 44.39 174.24 27 167.35 27 158.88 C 27 181.14 27 181.14 27 181.14 C 27 189.61 44.39 196.5 65.99 196.5 C 87.61 196.5 105 189.61 105 181.14 Z M 65.99 174.24 C 87.61 174.24 105 167.35 105 158.88 C 105 150.39 87.61 143.5 65.99 143.5 C 44.39 143.5 27 150.39 27 158.88 C 27 167.35 44.39 174.24 65.99 174.24 Z" fill="#036897" stroke="#ffffff" stroke-width="2" stroke-linejoin="round" stroke-miterlimit="10" pointer-events="all" style="fill: light-dark(rgb(3, 104, 151), rgb(92, 179, 220)); stroke: light-dark(rgb(255, 255, 255), rgb(18, 18, 18));"></path><path d="M 57.04 153.04 L 60.2 157.81 L 48.08 160.47 L 50.72 158.34 L 32.27 155.16 L 37.01 151.45 L 54.92 154.63 Z M 74.44 164.7 L 71.8 159.93 L 82.86 157.29 L 81.28 159.4 L 99.2 162.58 L 94.99 165.76 L 76.54 162.58 Z M 68.11 150.39 L 80.22 147.21 L 80.76 151.98 L 77.6 151.45 L 71.8 156.75 L 65.99 155.7 L 71.8 150.93 Z M 62.83 169.47 L 51.24 171.6 L 50.72 165.76 L 54.4 166.83 L 60.73 160.99 L 66.53 162.06 L 59.67 168.42 Z" fill="#ffffff" stroke="none" pointer-events="all" style="fill: light-dark(rgb(255, 255, 255), rgb(18, 18, 18));"></path></g></g><g data-cell-id="tZFbiyOfFUJotgIQvUmY-8"><g transform="translate(0.5,0.5)"><path d="M 241.22 143.5 L 206.25 102.82" fill="none" stroke="#000000" stroke-miterlimit="10" pointer-events="stroke" style="stroke: light-dark(rgb(0, 0, 0), rgb(255, 255, 255));"></path></g></g><g data-cell-id="tZFbiyOfFUJotgIQvUmY-12"><g transform="translate(0.5,0.5)"><path d="M 264 196.5 L 264 270" fill="none" stroke="#000000" stroke-miterlimit="10" pointer-events="stroke" style="stroke: light-dark(rgb(0, 0, 0), rgb(255, 255, 255));"></path></g></g><g data-cell-id="tZFbiyOfFUJotgIQvUmY-4"><g><rect x="225" y="143.5" width="78" height="53" fill="none" stroke="none" pointer-events="all"></rect><path d="M 303 158.88 C 303 167.35 285.61 174.24 263.99 174.24 C 242.39 174.24 225 167.35 225 158.88 C 225 181.14 225 181.14 225 181.14 C 225 189.61 242.39 196.5 263.99 196.5 C 285.61 196.5 303 189.61 303 181.14 Z M 263.99 174.24 C 285.61 174.24 303 167.35 303 158.88 C 303 150.39 285.61 143.5 263.99 143.5 C 242.39 143.5 225 150.39 225 158.88 C 225 167.35 242.39 174.24 263.99 174.24 Z" fill="#036897" stroke="#ffffff" stroke-width="2" stroke-linejoin="round" stroke-miterlimit="10" pointer-events="all" style="fill: light-dark(rgb(3, 104, 151), rgb(92, 179, 220)); stroke: light-dark(rgb(255, 255, 255), rgb(18, 18, 18));"></path><path d="M 255.04 153.04 L 258.2 157.81 L 246.08 160.47 L 248.72 158.34 L 230.27 155.16 L 235.01 151.45 L 252.92 154.63 Z M 272.44 164.7 L 269.8 159.93 L 280.86 157.29 L 279.28 159.4 L 297.2 162.58 L 292.99 165.76 L 274.54 162.58 Z M 266.11 150.39 L 278.22 147.21 L 278.76 151.98 L 275.6 151.45 L 269.8 156.75 L 263.99 155.7 L 269.8 150.93 Z M 260.83 169.47 L 249.24 171.6 L 248.72 165.76 L 252.4 166.83 L 258.73 160.99 L 264.53 162.06 L 257.67 168.42 Z" fill="#ffffff" stroke="none" pointer-events="all" style="fill: light-dark(rgb(255, 255, 255), rgb(18, 18, 18));"></path></g></g><g data-cell-id="tZFbiyOfFUJotgIQvUmY-10"><g transform="translate(0.5,0.5)"><path d="M 90.31 323 L 122.48 358.07" fill="none" stroke="#000000" stroke-miterlimit="10" pointer-events="stroke" style="stroke: light-dark(rgb(0, 0, 0), rgb(255, 255, 255));"></path></g></g><g data-cell-id="tZFbiyOfFUJotgIQvUmY-5"><g><rect x="27" y="270" width="78" height="53" fill="none" stroke="none" pointer-events="all"></rect><path d="M 105 285.38 C 105 293.85 87.61 300.74 65.99 300.74 C 44.39 300.74 27 293.85 27 285.38 C 27 307.64 27 307.64 27 307.64 C 27 316.11 44.39 323 65.99 323 C 87.61 323 105 316.11 105 307.64 Z M 65.99 300.74 C 87.61 300.74 105 293.85 105 285.38 C 105 276.89 87.61 270 65.99 270 C 44.39 270 27 276.89 27 285.38 C 27 293.85 44.39 300.74 65.99 300.74 Z" fill="#036897" stroke="#ffffff" stroke-width="2" stroke-linejoin="round" stroke-miterlimit="10" pointer-events="all" style="fill: light-dark(rgb(3, 104, 151), rgb(92, 179, 220)); stroke: light-dark(rgb(255, 255, 255), rgb(18, 18, 18));"></path><path d="M 57.04 279.54 L 60.2 284.31 L 48.08 286.97 L 50.72 284.84 L 32.27 281.66 L 37.01 277.95 L 54.92 281.13 Z M 74.44 291.2 L 71.8 286.43 L 82.86 283.79 L 81.28 285.9 L 99.2 289.08 L 94.99 292.26 L 76.54 289.08 Z M 68.11 276.89 L 80.22 273.71 L 80.76 278.48 L 77.6 277.95 L 71.8 283.25 L 65.99 282.2 L 71.8 277.43 Z M 62.83 295.97 L 51.24 298.1 L 50.72 292.26 L 54.4 293.33 L 60.73 287.49 L 66.53 288.56 L 59.67 294.92 Z" fill="#ffffff" stroke="none" pointer-events="all" style="fill: light-dark(rgb(255, 255, 255), rgb(18, 18, 18));"></path></g></g><g data-cell-id="tZFbiyOfFUJotgIQvUmY-9"><g transform="translate(0.5,0.5)"><path d="M 239.93 323 L 208.2 357.94" fill="none" stroke="#000000" stroke-miterlimit="10" pointer-events="stroke" style="stroke: light-dark(rgb(0, 0, 0), rgb(255, 255, 255));"></path></g></g><g data-cell-id="tZFbiyOfFUJotgIQvUmY-6"><g><rect x="225" y="270" width="78" height="53" fill="none" stroke="none" pointer-events="all"></rect><path d="M 303 285.38 C 303 293.85 285.61 300.74 263.99 300.74 C 242.39 300.74 225 293.85 225 285.38 C 225 307.64 225 307.64 225 307.64 C 225 316.11 242.39 323 263.99 323 C 285.61 323 303 316.11 303 307.64 Z M 263.99 300.74 C 285.61 300.74 303 293.85 303 285.38 C 303 276.89 285.61 270 263.99 270 C 242.39 270 225 276.89 225 285.38 C 225 293.85 242.39 300.74 263.99 300.74 Z" fill="#036897" stroke="#ffffff" stroke-width="2" stroke-linejoin="round" stroke-miterlimit="10" pointer-events="all" style="fill: light-dark(rgb(3, 104, 151), rgb(92, 179, 220)); stroke: light-dark(rgb(255, 255, 255), rgb(18, 18, 18));"></path><path d="M 255.04 279.54 L 258.2 284.31 L 246.08 286.97 L 248.72 284.84 L 230.27 281.66 L 235.01 277.95 L 252.92 281.13 Z M 272.44 291.2 L 269.8 286.43 L 280.86 283.79 L 279.28 285.9 L 297.2 289.08 L 292.99 292.26 L 274.54 289.08 Z M 266.11 276.89 L 278.22 273.71 L 278.76 278.48 L 275.6 277.95 L 269.8 283.25 L 263.99 282.2 L 269.8 277.43 Z M 260.83 295.97 L 249.24 298.1 L 248.72 292.26 L 252.4 293.33 L 258.73 287.49 L 264.53 288.56 L 257.67 294.92 Z" fill="#ffffff" stroke="none" pointer-events="all" style="fill: light-dark(rgb(255, 255, 255), rgb(18, 18, 18));"></path></g></g></g></g></g></svg>