<?xml version="1.0" encoding="utf-8" standalone="no"?>
<!DOCTYPE svg PUBLIC "-//W3C//DTD SVG 1.1//EN"
  "http://www.w3.org/Graphics/SVG/1.1/DTD/svg11.dtd">
<svg xmlns:xlink="http://www.w3.org/1999/xlink" width="854.08375pt" height="351.711875pt" viewBox="0 0 854.08375 351.711875" xmlns="http://www.w3.org/2000/svg" version="1.1">
 <metadata>
  <rdf:RDF xmlns:dc="http://purl.org/dc/elements/1.1/" xmlns:cc="http://creativecommons.org/ns#" xmlns:rdf="http://www.w3.org/1999/02/22-rdf-syntax-ns#">
   <cc:Work>
    <dc:type rdf:resource="http://purl.org/dc/dcmitype/StillImage"/>
    <dc:date>2026-07-09T22:25:52.562506</dc:date>
    <dc:format>image/svg+xml</dc:format>
    <dc:creator>
     <cc:Agent>
      <dc:title>Matplotlib v3.10.8, https://matplotlib.org/</dc:title>
     </cc:Agent>
    </dc:creator>
   </cc:Work>
  </rdf:RDF>
 </metadata>
 <defs>
  <style type="text/css">*{stroke-linejoin: round; stroke-linecap: butt}</style>
 </defs>
 <g id="figure_1">
  <g id="patch_1">
   <path d="M 0 351.711875 
L 854.08375 351.711875 
L 854.08375 0 
L 0 0 
z
" style="fill: #ffffff"/>
  </g>
  <g id="axes_1">
   <g id="patch_2">
    <path d="M 36.2025 312.22 
L 395.055393 312.22 
L 395.055393 22.32 
L 36.2025 22.32 
z
" style="fill: #ffffff"/>
   </g>
   <g id="matplotlib.axis_1">
    <g id="xtick_1">
     <g id="line2d_1">
      <path d="M 52.513995 312.22 
L 52.513995 22.32 
" clip-path="url(#p56d45ed08e)" style="fill: none; stroke-dasharray: 2.96,1.28; stroke-dashoffset: 0; stroke: #b0b0b0; stroke-opacity: 0.4; stroke-width: 0.8"/>
     </g>
     <g id="line2d_2">
      <defs>
       <path id="m43004843bf" d="M 0 0 
L 0 3.5 
" style="stroke: #000000; stroke-width: 0.8"/>
      </defs>
      <g>
       <use xlink:href="#m43004843bf" x="52.513995" y="312.22" style="stroke: #000000; stroke-width: 0.8"/>
      </g>
     </g>
     <g id="text_1">
      <!-- −1 -->
      <g transform="translate(45.142901 326.818437) scale(0.1 -0.1)">
       <defs>
        <path id="DejaVuSans-2212" d="M 678 2272 
L 4684 2272 
L 4684 1741 
L 678 1741 
L 678 2272 
z
" transform="scale(0.015625)"/>
        <path id="DejaVuSans-31" d="M 794 531 
L 1825 531 
L 1825 4091 
L 703 3866 
L 703 4441 
L 1819 4666 
L 2450 4666 
L 2450 531 
L 3481 531 
L 3481 0 
L 794 0 
L 794 531 
z
" transform="scale(0.015625)"/>
       </defs>
       <use xlink:href="#DejaVuSans-2212"/>
       <use xlink:href="#DejaVuSans-31" transform="translate(83.789062 0)"/>
      </g>
     </g>
    </g>
    <g id="xtick_2">
     <g id="line2d_3">
      <path d="M 117.759976 312.22 
L 117.759976 22.32 
" clip-path="url(#p56d45ed08e)" style="fill: none; stroke-dasharray: 2.96,1.28; stroke-dashoffset: 0; stroke: #b0b0b0; stroke-opacity: 0.4; stroke-width: 0.8"/>
     </g>
     <g id="line2d_4">
      <g>
       <use xlink:href="#m43004843bf" x="117.759976" y="312.22" style="stroke: #000000; stroke-width: 0.8"/>
      </g>
     </g>
     <g id="text_2">
      <!-- 0 -->
      <g transform="translate(114.578726 326.818437) scale(0.1 -0.1)">
       <defs>
        <path id="DejaVuSans-30" d="M 2034 4250 
Q 1547 4250 1301 3770 
Q 1056 3291 1056 2328 
Q 1056 1369 1301 889 
Q 1547 409 2034 409 
Q 2525 409 2770 889 
Q 3016 1369 3016 2328 
Q 3016 3291 2770 3770 
Q 2525 4250 2034 4250 
z
M 2034 4750 
Q 2819 4750 3233 4129 
Q 3647 3509 3647 2328 
Q 3647 1150 3233 529 
Q 2819 -91 2034 -91 
Q 1250 -91 836 529 
Q 422 1150 422 2328 
Q 422 3509 836 4129 
Q 1250 4750 2034 4750 
z
" transform="scale(0.015625)"/>
       </defs>
       <use xlink:href="#DejaVuSans-30"/>
      </g>
     </g>
    </g>
    <g id="xtick_3">
     <g id="line2d_5">
      <path d="M 183.005956 312.22 
L 183.005956 22.32 
" clip-path="url(#p56d45ed08e)" style="fill: none; stroke-dasharray: 2.96,1.28; stroke-dashoffset: 0; stroke: #b0b0b0; stroke-opacity: 0.4; stroke-width: 0.8"/>
     </g>
     <g id="line2d_6">
      <g>
       <use xlink:href="#m43004843bf" x="183.005956" y="312.22" style="stroke: #000000; stroke-width: 0.8"/>
      </g>
     </g>
     <g id="text_3">
      <!-- 1 -->
      <g transform="translate(179.824706 326.818437) scale(0.1 -0.1)">
       <use xlink:href="#DejaVuSans-31"/>
      </g>
     </g>
    </g>
    <g id="xtick_4">
     <g id="line2d_7">
      <path d="M 248.251937 312.22 
L 248.251937 22.32 
" clip-path="url(#p56d45ed08e)" style="fill: none; stroke-dasharray: 2.96,1.28; stroke-dashoffset: 0; stroke: #b0b0b0; stroke-opacity: 0.4; stroke-width: 0.8"/>
     </g>
     <g id="line2d_8">
      <g>
       <use xlink:href="#m43004843bf" x="248.251937" y="312.22" style="stroke: #000000; stroke-width: 0.8"/>
      </g>
     </g>
     <g id="text_4">
      <!-- 2 -->
      <g transform="translate(245.070687 326.818437) scale(0.1 -0.1)">
       <defs>
        <path id="DejaVuSans-32" d="M 1228 531 
L 3431 531 
L 3431 0 
L 469 0 
L 469 531 
Q 828 903 1448 1529 
Q 2069 2156 2228 2338 
Q 2531 2678 2651 2914 
Q 2772 3150 2772 3378 
Q 2772 3750 2511 3984 
Q 2250 4219 1831 4219 
Q 1534 4219 1204 4116 
Q 875 4013 500 3803 
L 500 4441 
Q 881 4594 1212 4672 
Q 1544 4750 1819 4750 
Q 2544 4750 2975 4387 
Q 3406 4025 3406 3419 
Q 3406 3131 3298 2873 
Q 3191 2616 2906 2266 
Q 2828 2175 2409 1742 
Q 1991 1309 1228 531 
z
" transform="scale(0.015625)"/>
       </defs>
       <use xlink:href="#DejaVuSans-32"/>
      </g>
     </g>
    </g>
    <g id="xtick_5">
     <g id="line2d_9">
      <path d="M 313.497917 312.22 
L 313.497917 22.32 
" clip-path="url(#p56d45ed08e)" style="fill: none; stroke-dasharray: 2.96,1.28; stroke-dashoffset: 0; stroke: #b0b0b0; stroke-opacity: 0.4; stroke-width: 0.8"/>
     </g>
     <g id="line2d_10">
      <g>
       <use xlink:href="#m43004843bf" x="313.497917" y="312.22" style="stroke: #000000; stroke-width: 0.8"/>
      </g>
     </g>
     <g id="text_5">
      <!-- 3 -->
      <g transform="translate(310.316667 326.818437) scale(0.1 -0.1)">
       <defs>
        <path id="DejaVuSans-33" d="M 2597 2516 
Q 3050 2419 3304 2112 
Q 3559 1806 3559 1356 
Q 3559 666 3084 287 
Q 2609 -91 1734 -91 
Q 1441 -91 1130 -33 
Q 819 25 488 141 
L 488 750 
Q 750 597 1062 519 
Q 1375 441 1716 441 
Q 2309 441 2620 675 
Q 2931 909 2931 1356 
Q 2931 1769 2642 2001 
Q 2353 2234 1838 2234 
L 1294 2234 
L 1294 2753 
L 1863 2753 
Q 2328 2753 2575 2939 
Q 2822 3125 2822 3475 
Q 2822 3834 2567 4026 
Q 2313 4219 1838 4219 
Q 1578 4219 1281 4162 
Q 984 4106 628 3988 
L 628 4550 
Q 988 4650 1302 4700 
Q 1616 4750 1894 4750 
Q 2613 4750 3031 4423 
Q 3450 4097 3450 3541 
Q 3450 3153 3228 2886 
Q 3006 2619 2597 2516 
z
" transform="scale(0.015625)"/>
       </defs>
       <use xlink:href="#DejaVuSans-33"/>
      </g>
     </g>
    </g>
    <g id="xtick_6">
     <g id="line2d_11">
      <path d="M 378.743897 312.22 
L 378.743897 22.32 
" clip-path="url(#p56d45ed08e)" style="fill: none; stroke-dasharray: 2.96,1.28; stroke-dashoffset: 0; stroke: #b0b0b0; stroke-opacity: 0.4; stroke-width: 0.8"/>
     </g>
     <g id="line2d_12">
      <g>
       <use xlink:href="#m43004843bf" x="378.743897" y="312.22" style="stroke: #000000; stroke-width: 0.8"/>
      </g>
     </g>
     <g id="text_6">
      <!-- 4 -->
      <g transform="translate(375.562647 326.818437) scale(0.1 -0.1)">
       <defs>
        <path id="DejaVuSans-34" d="M 2419 4116 
L 825 1625 
L 2419 1625 
L 2419 4116 
z
M 2253 4666 
L 3047 4666 
L 3047 1625 
L 3713 1625 
L 3713 1100 
L 3047 1100 
L 3047 0 
L 2419 0 
L 2419 1100 
L 313 1100 
L 313 1709 
L 2253 4666 
z
" transform="scale(0.015625)"/>
       </defs>
       <use xlink:href="#DejaVuSans-34"/>
      </g>
     </g>
    </g>
    <g id="text_7">
     <!-- $w$ -->
     <g transform="translate(210.708946 342.01625) scale(0.12 -0.12)">
      <defs>
       <path id="DejaVuSans-Oblique-77" d="M 544 3500 
L 1113 3500 
L 1259 684 
L 2566 3500 
L 3231 3500 
L 3425 684 
L 4666 3500 
L 5241 3500 
L 3641 0 
L 2969 0 
L 2797 2900 
L 1459 0 
L 781 0 
L 544 3500 
z
" transform="scale(0.015625)"/>
      </defs>
      <use xlink:href="#DejaVuSans-Oblique-77" transform="translate(0 0.3125)"/>
     </g>
    </g>
   </g>
   <g id="matplotlib.axis_2">
    <g id="ytick_1">
     <g id="line2d_13">
      <path d="M 36.2025 272.276392 
L 395.055393 272.276392 
" clip-path="url(#p56d45ed08e)" style="fill: none; stroke-dasharray: 2.96,1.28; stroke-dashoffset: 0; stroke: #b0b0b0; stroke-opacity: 0.4; stroke-width: 0.8"/>
     </g>
     <g id="line2d_14">
      <defs>
       <path id="m8044ebe548" d="M 0 0 
L -3.5 0 
" style="stroke: #000000; stroke-width: 0.8"/>
      </defs>
      <g>
       <use xlink:href="#m8044ebe548" x="36.2025" y="272.276392" style="stroke: #000000; stroke-width: 0.8"/>
      </g>
     </g>
     <g id="text_8">
      <!-- 1 -->
      <g transform="translate(22.84 276.075611) scale(0.1 -0.1)">
       <use xlink:href="#DejaVuSans-31"/>
      </g>
     </g>
    </g>
    <g id="ytick_2">
     <g id="line2d_15">
      <path d="M 36.2025 231.097415 
L 395.055393 231.097415 
" clip-path="url(#p56d45ed08e)" style="fill: none; stroke-dasharray: 2.96,1.28; stroke-dashoffset: 0; stroke: #b0b0b0; stroke-opacity: 0.4; stroke-width: 0.8"/>
     </g>
     <g id="line2d_16">
      <g>
       <use xlink:href="#m8044ebe548" x="36.2025" y="231.097415" style="stroke: #000000; stroke-width: 0.8"/>
      </g>
     </g>
     <g id="text_9">
      <!-- 2 -->
      <g transform="translate(22.84 234.896634) scale(0.1 -0.1)">
       <use xlink:href="#DejaVuSans-32"/>
      </g>
     </g>
    </g>
    <g id="ytick_3">
     <g id="line2d_17">
      <path d="M 36.2025 189.918437 
L 395.055393 189.918437 
" clip-path="url(#p56d45ed08e)" style="fill: none; stroke-dasharray: 2.96,1.28; stroke-dashoffset: 0; stroke: #b0b0b0; stroke-opacity: 0.4; stroke-width: 0.8"/>
     </g>
     <g id="line2d_18">
      <g>
       <use xlink:href="#m8044ebe548" x="36.2025" y="189.918437" style="stroke: #000000; stroke-width: 0.8"/>
      </g>
     </g>
     <g id="text_10">
      <!-- 3 -->
      <g transform="translate(22.84 193.717656) scale(0.1 -0.1)">
       <use xlink:href="#DejaVuSans-33"/>
      </g>
     </g>
    </g>
    <g id="ytick_4">
     <g id="line2d_19">
      <path d="M 36.2025 148.73946 
L 395.055393 148.73946 
" clip-path="url(#p56d45ed08e)" style="fill: none; stroke-dasharray: 2.96,1.28; stroke-dashoffset: 0; stroke: #b0b0b0; stroke-opacity: 0.4; stroke-width: 0.8"/>
     </g>
     <g id="line2d_20">
      <g>
       <use xlink:href="#m8044ebe548" x="36.2025" y="148.73946" style="stroke: #000000; stroke-width: 0.8"/>
      </g>
     </g>
     <g id="text_11">
      <!-- 4 -->
      <g transform="translate(22.84 152.538679) scale(0.1 -0.1)">
       <use xlink:href="#DejaVuSans-34"/>
      </g>
     </g>
    </g>
    <g id="ytick_5">
     <g id="line2d_21">
      <path d="M 36.2025 107.560483 
L 395.055393 107.560483 
" clip-path="url(#p56d45ed08e)" style="fill: none; stroke-dasharray: 2.96,1.28; stroke-dashoffset: 0; stroke: #b0b0b0; stroke-opacity: 0.4; stroke-width: 0.8"/>
     </g>
     <g id="line2d_22">
      <g>
       <use xlink:href="#m8044ebe548" x="36.2025" y="107.560483" style="stroke: #000000; stroke-width: 0.8"/>
      </g>
     </g>
     <g id="text_12">
      <!-- 5 -->
      <g transform="translate(22.84 111.359702) scale(0.1 -0.1)">
       <defs>
        <path id="DejaVuSans-35" d="M 691 4666 
L 3169 4666 
L 3169 4134 
L 1269 4134 
L 1269 2991 
Q 1406 3038 1543 3061 
Q 1681 3084 1819 3084 
Q 2600 3084 3056 2656 
Q 3513 2228 3513 1497 
Q 3513 744 3044 326 
Q 2575 -91 1722 -91 
Q 1428 -91 1123 -41 
Q 819 9 494 109 
L 494 744 
Q 775 591 1075 516 
Q 1375 441 1709 441 
Q 2250 441 2565 725 
Q 2881 1009 2881 1497 
Q 2881 1984 2565 2268 
Q 2250 2553 1709 2553 
Q 1456 2553 1204 2497 
Q 953 2441 691 2322 
L 691 4666 
z
" transform="scale(0.015625)"/>
       </defs>
       <use xlink:href="#DejaVuSans-35"/>
      </g>
     </g>
    </g>
    <g id="ytick_6">
     <g id="line2d_23">
      <path d="M 36.2025 66.381506 
L 395.055393 66.381506 
" clip-path="url(#p56d45ed08e)" style="fill: none; stroke-dasharray: 2.96,1.28; stroke-dashoffset: 0; stroke: #b0b0b0; stroke-opacity: 0.4; stroke-width: 0.8"/>
     </g>
     <g id="line2d_24">
      <g>
       <use xlink:href="#m8044ebe548" x="36.2025" y="66.381506" style="stroke: #000000; stroke-width: 0.8"/>
      </g>
     </g>
     <g id="text_13">
      <!-- 6 -->
      <g transform="translate(22.84 70.180724) scale(0.1 -0.1)">
       <defs>
        <path id="DejaVuSans-36" d="M 2113 2584 
Q 1688 2584 1439 2293 
Q 1191 2003 1191 1497 
Q 1191 994 1439 701 
Q 1688 409 2113 409 
Q 2538 409 2786 701 
Q 3034 994 3034 1497 
Q 3034 2003 2786 2293 
Q 2538 2584 2113 2584 
z
M 3366 4563 
L 3366 3988 
Q 3128 4100 2886 4159 
Q 2644 4219 2406 4219 
Q 1781 4219 1451 3797 
Q 1122 3375 1075 2522 
Q 1259 2794 1537 2939 
Q 1816 3084 2150 3084 
Q 2853 3084 3261 2657 
Q 3669 2231 3669 1497 
Q 3669 778 3244 343 
Q 2819 -91 2113 -91 
Q 1303 -91 875 529 
Q 447 1150 447 2328 
Q 447 3434 972 4092 
Q 1497 4750 2381 4750 
Q 2619 4750 2861 4703 
Q 3103 4656 3366 4563 
z
" transform="scale(0.015625)"/>
       </defs>
       <use xlink:href="#DejaVuSans-36"/>
      </g>
     </g>
    </g>
    <g id="ytick_7">
     <g id="line2d_25">
      <path d="M 36.2025 25.202528 
L 395.055393 25.202528 
" clip-path="url(#p56d45ed08e)" style="fill: none; stroke-dasharray: 2.96,1.28; stroke-dashoffset: 0; stroke: #b0b0b0; stroke-opacity: 0.4; stroke-width: 0.8"/>
     </g>
     <g id="line2d_26">
      <g>
       <use xlink:href="#m8044ebe548" x="36.2025" y="25.202528" style="stroke: #000000; stroke-width: 0.8"/>
      </g>
     </g>
     <g id="text_14">
      <!-- 7 -->
      <g transform="translate(22.84 29.001747) scale(0.1 -0.1)">
       <defs>
        <path id="DejaVuSans-37" d="M 525 4666 
L 3525 4666 
L 3525 4397 
L 1831 0 
L 1172 0 
L 2766 4134 
L 525 4134 
L 525 4666 
z
" transform="scale(0.015625)"/>
       </defs>
       <use xlink:href="#DejaVuSans-37"/>
      </g>
     </g>
    </g>
    <g id="text_15">
     <!-- $J(w)$ -->
     <g transform="translate(16.32 178.67) rotate(-90) scale(0.12 -0.12)">
      <defs>
       <path id="DejaVuSans-Oblique-4a" d="M 1069 4666 
L 1703 4666 
L 856 325 
Q 691 -522 298 -901 
Q -94 -1281 -800 -1281 
L -1050 -1281 
L -947 -750 
L -750 -750 
Q -328 -750 -109 -509 
Q 109 -269 225 325 
L 1069 4666 
z
" transform="scale(0.015625)"/>
       <path id="DejaVuSans-28" d="M 1984 4856 
Q 1566 4138 1362 3434 
Q 1159 2731 1159 2009 
Q 1159 1288 1364 580 
Q 1569 -128 1984 -844 
L 1484 -844 
Q 1016 -109 783 600 
Q 550 1309 550 2009 
Q 550 2706 781 3412 
Q 1013 4119 1484 4856 
L 1984 4856 
z
" transform="scale(0.015625)"/>
       <path id="DejaVuSans-29" d="M 513 4856 
L 1013 4856 
Q 1481 4119 1714 3412 
Q 1947 2706 1947 2009 
Q 1947 1309 1714 600 
Q 1481 -109 1013 -844 
L 513 -844 
Q 928 -128 1133 580 
Q 1338 1288 1338 2009 
Q 1338 2731 1133 3434 
Q 928 4138 513 4856 
z
" transform="scale(0.015625)"/>
      </defs>
      <use xlink:href="#DejaVuSans-Oblique-4a" transform="translate(0 0.125)"/>
      <use xlink:href="#DejaVuSans-28" transform="translate(29.492188 0.125)"/>
      <use xlink:href="#DejaVuSans-Oblique-77" transform="translate(68.505859 0.125)"/>
      <use xlink:href="#DejaVuSans-29" transform="translate(150.292969 0.125)"/>
     </g>
    </g>
   </g>
   <g id="line2d_27">
    <path d="M 52.513995 35.497273 
L 59.07138 55.774287 
L 65.628765 75.219424 
L 72.18615 93.832684 
L 78.743535 111.614066 
L 85.30092 128.563571 
L 90.218959 140.729779 
L 95.136997 152.428057 
L 100.055036 163.658404 
L 104.973075 174.420819 
L 109.891114 184.715304 
L 114.809152 194.541857 
L 119.727191 203.900479 
L 124.64523 212.79117 
L 129.563269 221.21393 
L 134.481307 229.168759 
L 139.399346 236.655656 
L 144.317385 243.674623 
L 149.235423 250.225659 
L 154.153462 256.308763 
L 159.071501 261.923936 
L 163.98954 267.071178 
L 167.268232 270.242711 
L 170.546925 273.206275 
L 173.825617 275.961869 
L 177.10431 278.509494 
L 180.383002 280.84915 
L 183.661695 282.980836 
L 186.940387 284.904553 
L 190.21908 286.6203 
L 193.497772 288.128078 
L 196.776464 289.427887 
L 200.055157 290.519726 
L 203.333849 291.403596 
L 206.612542 292.079496 
L 209.891234 292.547428 
L 213.169927 292.807389 
L 216.448619 292.859382 
L 219.727312 292.703405 
L 223.006004 292.339458 
L 226.284697 291.767542 
L 229.563389 290.987657 
L 232.842082 289.999803 
L 236.120774 288.803979 
L 239.399467 287.400185 
L 242.678159 285.788423 
L 245.956852 283.968691 
L 249.235544 281.940989 
L 252.514237 279.705318 
L 255.792929 277.261678 
L 259.071622 274.610068 
L 262.350314 271.750489 
L 265.629007 268.682941 
L 268.907699 265.407423 
L 273.825738 260.104204 
L 278.743777 254.333054 
L 283.661815 248.093972 
L 288.579854 241.38696 
L 293.497893 234.212016 
L 298.415932 226.569141 
L 303.33397 218.458336 
L 308.252009 209.879599 
L 313.170048 200.832931 
L 318.088086 191.318331 
L 323.006125 181.335801 
L 327.924164 170.88534 
L 332.842203 159.966947 
L 337.760241 148.580624 
L 342.67828 136.726369 
L 347.596319 124.404183 
L 352.514358 111.614066 
L 359.071743 93.832684 
L 365.629128 75.219424 
L 372.186512 55.774287 
L 378.743897 35.497273 
L 378.743897 35.497273 
" clip-path="url(#p56d45ed08e)" style="fill: none; stroke: #4682b4; stroke-width: 2.5; stroke-linecap: square"/>
   </g>
   <g id="line2d_28">
    <path d="M 261.301133 299.042727 
L 263.431614 295.008868 
L 265.562095 290.975009 
L 267.692576 286.94115 
L 269.823057 282.907291 
L 271.953538 278.873432 
L 274.084019 274.839573 
L 276.2145 270.805714 
L 278.344981 266.771855 
L 280.475462 262.737996 
L 282.605943 258.704137 
L 284.736424 254.670278 
L 286.866905 250.636419 
L 288.997386 246.60256 
L 291.127867 242.568701 
L 293.258348 238.534842 
L 295.388829 234.500983 
L 297.51931 230.467124 
L 299.649791 226.433265 
L 301.780272 222.399406 
L 303.910753 218.365547 
L 306.041233 214.331688 
L 308.171714 210.297829 
L 310.302195 206.26397 
L 312.432676 202.230111 
L 314.563157 198.196252 
L 316.693638 194.162393 
L 318.824119 190.128534 
L 320.9546 186.094675 
L 323.085081 182.060816 
L 325.215562 178.026957 
L 327.346043 173.993098 
L 329.476524 169.959239 
L 331.607005 165.92538 
L 333.737486 161.891521 
L 335.867967 157.857662 
L 337.998448 153.823803 
L 340.128929 149.789944 
L 342.25941 145.756085 
L 344.389891 141.722226 
L 346.520372 137.688367 
L 348.650853 133.654508 
L 350.781334 129.620649 
L 352.911815 125.58679 
L 355.042296 121.552931 
L 357.172777 117.519072 
L 359.303258 113.485213 
L 361.433739 109.451354 
L 363.56422 105.417495 
L 365.694701 101.383636 
" clip-path="url(#p56d45ed08e)" style="fill: none; stroke-dasharray: 7.4,3.2; stroke-dashoffset: 0; stroke: #cc0000; stroke-width: 2"/>
   </g>
   <g id="patch_3">
    <path d="M 36.2025 312.22 
L 36.2025 22.32 
" style="fill: none; stroke: #000000; stroke-width: 0.8; stroke-linejoin: miter; stroke-linecap: square"/>
   </g>
   <g id="patch_4">
    <path d="M 395.055393 312.22 
L 395.055393 22.32 
" style="fill: none; stroke: #000000; stroke-width: 0.8; stroke-linejoin: miter; stroke-linecap: square"/>
   </g>
   <g id="patch_5">
    <path d="M 36.2025 312.22 
L 395.055393 312.22 
" style="fill: none; stroke: #000000; stroke-width: 0.8; stroke-linejoin: miter; stroke-linecap: square"/>
   </g>
   <g id="patch_6">
    <path d="M 36.2025 22.32 
L 395.055393 22.32 
" style="fill: none; stroke: #000000; stroke-width: 0.8; stroke-linejoin: miter; stroke-linecap: square"/>
   </g>
   <g id="patch_7">
    <path d="M 311.500396 212.566875 
Q 287.401134 212.566875 266.096957 212.566875 
" style="fill: none; stroke: #2e8b57; stroke-width: 2.5; stroke-linecap: round"/>
    <path d="M 270.096957 214.566875 
L 266.096957 212.566875 
L 270.096957 210.566875 
" style="fill: none; stroke: #2e8b57; stroke-width: 2.5; stroke-linecap: round"/>
   </g>
   <g id="text_16">
    <!-- move left -->
    <g style="fill: #2e8b57" transform="translate(260.692494 229.038466) scale(0.1 -0.1)">
     <defs>
      <path id="DejaVuSans-Bold-6d" d="M 3781 2919 
Q 3994 3244 4286 3414 
Q 4578 3584 4928 3584 
Q 5531 3584 5847 3212 
Q 6163 2841 6163 2131 
L 6163 0 
L 5038 0 
L 5038 1825 
Q 5041 1866 5042 1909 
Q 5044 1953 5044 2034 
Q 5044 2406 4934 2573 
Q 4825 2741 4581 2741 
Q 4263 2741 4089 2478 
Q 3916 2216 3909 1719 
L 3909 0 
L 2784 0 
L 2784 1825 
Q 2784 2406 2684 2573 
Q 2584 2741 2328 2741 
Q 2006 2741 1831 2477 
Q 1656 2213 1656 1722 
L 1656 0 
L 531 0 
L 531 3500 
L 1656 3500 
L 1656 2988 
Q 1863 3284 2130 3434 
Q 2397 3584 2719 3584 
Q 3081 3584 3359 3409 
Q 3638 3234 3781 2919 
z
" transform="scale(0.015625)"/>
      <path id="DejaVuSans-Bold-6f" d="M 2203 2784 
Q 1831 2784 1636 2517 
Q 1441 2250 1441 1747 
Q 1441 1244 1636 976 
Q 1831 709 2203 709 
Q 2569 709 2762 976 
Q 2956 1244 2956 1747 
Q 2956 2250 2762 2517 
Q 2569 2784 2203 2784 
z
M 2203 3584 
Q 3106 3584 3614 3096 
Q 4122 2609 4122 1747 
Q 4122 884 3614 396 
Q 3106 -91 2203 -91 
Q 1297 -91 786 396 
Q 275 884 275 1747 
Q 275 2609 786 3096 
Q 1297 3584 2203 3584 
z
" transform="scale(0.015625)"/>
      <path id="DejaVuSans-Bold-76" d="M 97 3500 
L 1216 3500 
L 2088 1081 
L 2956 3500 
L 4078 3500 
L 2700 0 
L 1472 0 
L 97 3500 
z
" transform="scale(0.015625)"/>
      <path id="DejaVuSans-Bold-65" d="M 4031 1759 
L 4031 1441 
L 1416 1441 
Q 1456 1047 1700 850 
Q 1944 653 2381 653 
Q 2734 653 3104 758 
Q 3475 863 3866 1075 
L 3866 213 
Q 3469 63 3072 -14 
Q 2675 -91 2278 -91 
Q 1328 -91 801 392 
Q 275 875 275 1747 
Q 275 2603 792 3093 
Q 1309 3584 2216 3584 
Q 3041 3584 3536 3087 
Q 4031 2591 4031 1759 
z
M 2881 2131 
Q 2881 2450 2695 2645 
Q 2509 2841 2209 2841 
Q 1884 2841 1681 2658 
Q 1478 2475 1428 2131 
L 2881 2131 
z
" transform="scale(0.015625)"/>
      <path id="DejaVuSans-Bold-20" transform="scale(0.015625)"/>
      <path id="DejaVuSans-Bold-6c" d="M 538 4863 
L 1656 4863 
L 1656 0 
L 538 0 
L 538 4863 
z
" transform="scale(0.015625)"/>
      <path id="DejaVuSans-Bold-66" d="M 2841 4863 
L 2841 4128 
L 2222 4128 
Q 1984 4128 1890 4042 
Q 1797 3956 1797 3744 
L 1797 3500 
L 2753 3500 
L 2753 2700 
L 1797 2700 
L 1797 0 
L 678 0 
L 678 2700 
L 122 2700 
L 122 3500 
L 678 3500 
L 678 3744 
Q 678 4316 997 4589 
Q 1316 4863 1984 4863 
L 2841 4863 
z
" transform="scale(0.015625)"/>
      <path id="DejaVuSans-Bold-74" d="M 1759 4494 
L 1759 3500 
L 2913 3500 
L 2913 2700 
L 1759 2700 
L 1759 1216 
Q 1759 972 1856 886 
Q 1953 800 2241 800 
L 2816 800 
L 2816 0 
L 1856 0 
Q 1194 0 917 276 
Q 641 553 641 1216 
L 641 2700 
L 84 2700 
L 84 3500 
L 641 3500 
L 641 4494 
L 1759 4494 
z
" transform="scale(0.015625)"/>
     </defs>
     <use xlink:href="#DejaVuSans-Bold-6d"/>
     <use xlink:href="#DejaVuSans-Bold-6f" transform="translate(104.199219 0)"/>
     <use xlink:href="#DejaVuSans-Bold-76" transform="translate(172.900391 0)"/>
     <use xlink:href="#DejaVuSans-Bold-65" transform="translate(238.085938 0)"/>
     <use xlink:href="#DejaVuSans-Bold-20" transform="translate(305.908203 0)"/>
     <use xlink:href="#DejaVuSans-Bold-6c" transform="translate(340.722656 0)"/>
     <use xlink:href="#DejaVuSans-Bold-65" transform="translate(375 0)"/>
     <use xlink:href="#DejaVuSans-Bold-66" transform="translate(442.822266 0)"/>
     <use xlink:href="#DejaVuSans-Bold-74" transform="translate(486.328125 0)"/>
    </g>
   </g>
   <g id="patch_8">
    <path d="M 369.412333 163.992788 
Q 342.292954 181.560254 316.111933 198.519867 
" style="fill: none; stroke: #cc0000; stroke-linecap: round"/>
    <path d="M 320.11201 198.073349 
L 316.111933 198.519867 
L 318.154764 195.051894 
" style="fill: none; stroke: #cc0000; stroke-linecap: round"/>
   </g>
   <g id="text_17">
    <!-- slope = 3.0 (positive) -->
    <g style="fill: #cc0000" transform="translate(326.547113 159.034205) scale(0.09 -0.09)">
     <defs>
      <path id="DejaVuSans-Bold-73" d="M 3272 3391 
L 3272 2541 
Q 2913 2691 2578 2766 
Q 2244 2841 1947 2841 
Q 1628 2841 1473 2761 
Q 1319 2681 1319 2516 
Q 1319 2381 1436 2309 
Q 1553 2238 1856 2203 
L 2053 2175 
Q 2913 2066 3209 1816 
Q 3506 1566 3506 1031 
Q 3506 472 3093 190 
Q 2681 -91 1863 -91 
Q 1516 -91 1145 -36 
Q 775 19 384 128 
L 384 978 
Q 719 816 1070 734 
Q 1422 653 1784 653 
Q 2113 653 2278 743 
Q 2444 834 2444 1013 
Q 2444 1163 2330 1236 
Q 2216 1309 1875 1350 
L 1678 1375 
Q 931 1469 631 1722 
Q 331 1975 331 2491 
Q 331 3047 712 3315 
Q 1094 3584 1881 3584 
Q 2191 3584 2531 3537 
Q 2872 3491 3272 3391 
z
" transform="scale(0.015625)"/>
      <path id="DejaVuSans-Bold-70" d="M 1656 506 
L 1656 -1331 
L 538 -1331 
L 538 3500 
L 1656 3500 
L 1656 2988 
Q 1888 3294 2169 3439 
Q 2450 3584 2816 3584 
Q 3463 3584 3878 3070 
Q 4294 2556 4294 1747 
Q 4294 938 3878 423 
Q 3463 -91 2816 -91 
Q 2450 -91 2169 54 
Q 1888 200 1656 506 
z
M 2400 2772 
Q 2041 2772 1848 2508 
Q 1656 2244 1656 1747 
Q 1656 1250 1848 986 
Q 2041 722 2400 722 
Q 2759 722 2948 984 
Q 3138 1247 3138 1747 
Q 3138 2247 2948 2509 
Q 2759 2772 2400 2772 
z
" transform="scale(0.015625)"/>
      <path id="DejaVuSans-Bold-3d" d="M 678 3084 
L 4684 3084 
L 4684 2350 
L 678 2350 
L 678 3084 
z
M 678 1663 
L 4684 1663 
L 4684 922 
L 678 922 
L 678 1663 
z
" transform="scale(0.015625)"/>
      <path id="DejaVuSans-Bold-33" d="M 2981 2516 
Q 3453 2394 3698 2092 
Q 3944 1791 3944 1325 
Q 3944 631 3412 270 
Q 2881 -91 1863 -91 
Q 1503 -91 1142 -33 
Q 781 25 428 141 
L 428 1069 
Q 766 900 1098 814 
Q 1431 728 1753 728 
Q 2231 728 2486 893 
Q 2741 1059 2741 1369 
Q 2741 1688 2480 1852 
Q 2219 2016 1709 2016 
L 1228 2016 
L 1228 2791 
L 1734 2791 
Q 2188 2791 2409 2933 
Q 2631 3075 2631 3366 
Q 2631 3634 2415 3781 
Q 2200 3928 1806 3928 
Q 1516 3928 1219 3862 
Q 922 3797 628 3669 
L 628 4550 
Q 984 4650 1334 4700 
Q 1684 4750 2022 4750 
Q 2931 4750 3382 4451 
Q 3834 4153 3834 3553 
Q 3834 3144 3618 2883 
Q 3403 2622 2981 2516 
z
" transform="scale(0.015625)"/>
      <path id="DejaVuSans-Bold-2e" d="M 653 1209 
L 1778 1209 
L 1778 0 
L 653 0 
L 653 1209 
z
" transform="scale(0.015625)"/>
      <path id="DejaVuSans-Bold-30" d="M 2944 2338 
Q 2944 3213 2780 3570 
Q 2616 3928 2228 3928 
Q 1841 3928 1675 3570 
Q 1509 3213 1509 2338 
Q 1509 1453 1675 1090 
Q 1841 728 2228 728 
Q 2613 728 2778 1090 
Q 2944 1453 2944 2338 
z
M 4147 2328 
Q 4147 1169 3647 539 
Q 3147 -91 2228 -91 
Q 1306 -91 806 539 
Q 306 1169 306 2328 
Q 306 3491 806 4120 
Q 1306 4750 2228 4750 
Q 3147 4750 3647 4120 
Q 4147 3491 4147 2328 
z
" transform="scale(0.015625)"/>
      <path id="DejaVuSans-Bold-28" d="M 2413 -844 
L 1484 -844 
Q 1006 -72 778 623 
Q 550 1319 550 2003 
Q 550 2688 779 3389 
Q 1009 4091 1484 4856 
L 2413 4856 
Q 2013 4116 1813 3408 
Q 1613 2700 1613 2009 
Q 1613 1319 1811 609 
Q 2009 -100 2413 -844 
z
" transform="scale(0.015625)"/>
      <path id="DejaVuSans-Bold-69" d="M 538 3500 
L 1656 3500 
L 1656 0 
L 538 0 
L 538 3500 
z
M 538 4863 
L 1656 4863 
L 1656 3950 
L 538 3950 
L 538 4863 
z
" transform="scale(0.015625)"/>
      <path id="DejaVuSans-Bold-29" d="M 513 -844 
Q 913 -100 1113 609 
Q 1313 1319 1313 2009 
Q 1313 2700 1113 3408 
Q 913 4116 513 4856 
L 1441 4856 
Q 1916 4091 2145 3389 
Q 2375 2688 2375 2003 
Q 2375 1319 2147 623 
Q 1919 -72 1441 -844 
L 513 -844 
z
" transform="scale(0.015625)"/>
     </defs>
     <use xlink:href="#DejaVuSans-Bold-73"/>
     <use xlink:href="#DejaVuSans-Bold-6c" transform="translate(59.521484 0)"/>
     <use xlink:href="#DejaVuSans-Bold-6f" transform="translate(93.798828 0)"/>
     <use xlink:href="#DejaVuSans-Bold-70" transform="translate(162.5 0)"/>
     <use xlink:href="#DejaVuSans-Bold-65" transform="translate(234.082031 0)"/>
     <use xlink:href="#DejaVuSans-Bold-20" transform="translate(301.904297 0)"/>
     <use xlink:href="#DejaVuSans-Bold-3d" transform="translate(336.71875 0)"/>
     <use xlink:href="#DejaVuSans-Bold-20" transform="translate(420.507812 0)"/>
     <use xlink:href="#DejaVuSans-Bold-33" transform="translate(455.322266 0)"/>
     <use xlink:href="#DejaVuSans-Bold-2e" transform="translate(524.902344 0)"/>
     <use xlink:href="#DejaVuSans-Bold-30" transform="translate(562.890625 0)"/>
     <use xlink:href="#DejaVuSans-Bold-20" transform="translate(632.470703 0)"/>
     <use xlink:href="#DejaVuSans-Bold-28" transform="translate(667.285156 0)"/>
     <use xlink:href="#DejaVuSans-Bold-70" transform="translate(712.988281 0)"/>
     <use xlink:href="#DejaVuSans-Bold-6f" transform="translate(784.570312 0)"/>
     <use xlink:href="#DejaVuSans-Bold-73" transform="translate(853.271484 0)"/>
     <use xlink:href="#DejaVuSans-Bold-69" transform="translate(912.792969 0)"/>
     <use xlink:href="#DejaVuSans-Bold-74" transform="translate(947.070312 0)"/>
     <use xlink:href="#DejaVuSans-Bold-69" transform="translate(994.873047 0)"/>
     <use xlink:href="#DejaVuSans-Bold-76" transform="translate(1029.150391 0)"/>
     <use xlink:href="#DejaVuSans-Bold-65" transform="translate(1094.335938 0)"/>
     <use xlink:href="#DejaVuSans-Bold-29" transform="translate(1162.158203 0)"/>
    </g>
   </g>
   <g id="text_18">
    <!-- Positive slope → decrease $w$ -->
    <g style="fill: #808080" transform="translate(131.268946 16.32) scale(0.12 -0.12)">
     <defs>
      <path id="DejaVuSans-50" d="M 1259 4147 
L 1259 2394 
L 2053 2394 
Q 2494 2394 2734 2622 
Q 2975 2850 2975 3272 
Q 2975 3691 2734 3919 
Q 2494 4147 2053 4147 
L 1259 4147 
z
M 628 4666 
L 2053 4666 
Q 2838 4666 3239 4311 
Q 3641 3956 3641 3272 
Q 3641 2581 3239 2228 
Q 2838 1875 2053 1875 
L 1259 1875 
L 1259 0 
L 628 0 
L 628 4666 
z
" transform="scale(0.015625)"/>
      <path id="DejaVuSans-6f" d="M 1959 3097 
Q 1497 3097 1228 2736 
Q 959 2375 959 1747 
Q 959 1119 1226 758 
Q 1494 397 1959 397 
Q 2419 397 2687 759 
Q 2956 1122 2956 1747 
Q 2956 2369 2687 2733 
Q 2419 3097 1959 3097 
z
M 1959 3584 
Q 2709 3584 3137 3096 
Q 3566 2609 3566 1747 
Q 3566 888 3137 398 
Q 2709 -91 1959 -91 
Q 1206 -91 779 398 
Q 353 888 353 1747 
Q 353 2609 779 3096 
Q 1206 3584 1959 3584 
z
" transform="scale(0.015625)"/>
      <path id="DejaVuSans-73" d="M 2834 3397 
L 2834 2853 
Q 2591 2978 2328 3040 
Q 2066 3103 1784 3103 
Q 1356 3103 1142 2972 
Q 928 2841 928 2578 
Q 928 2378 1081 2264 
Q 1234 2150 1697 2047 
L 1894 2003 
Q 2506 1872 2764 1633 
Q 3022 1394 3022 966 
Q 3022 478 2636 193 
Q 2250 -91 1575 -91 
Q 1294 -91 989 -36 
Q 684 19 347 128 
L 347 722 
Q 666 556 975 473 
Q 1284 391 1588 391 
Q 1994 391 2212 530 
Q 2431 669 2431 922 
Q 2431 1156 2273 1281 
Q 2116 1406 1581 1522 
L 1381 1569 
Q 847 1681 609 1914 
Q 372 2147 372 2553 
Q 372 3047 722 3315 
Q 1072 3584 1716 3584 
Q 2034 3584 2315 3537 
Q 2597 3491 2834 3397 
z
" transform="scale(0.015625)"/>
      <path id="DejaVuSans-69" d="M 603 3500 
L 1178 3500 
L 1178 0 
L 603 0 
L 603 3500 
z
M 603 4863 
L 1178 4863 
L 1178 4134 
L 603 4134 
L 603 4863 
z
" transform="scale(0.015625)"/>
      <path id="DejaVuSans-74" d="M 1172 4494 
L 1172 3500 
L 2356 3500 
L 2356 3053 
L 1172 3053 
L 1172 1153 
Q 1172 725 1289 603 
Q 1406 481 1766 481 
L 2356 481 
L 2356 0 
L 1766 0 
Q 1100 0 847 248 
Q 594 497 594 1153 
L 594 3053 
L 172 3053 
L 172 3500 
L 594 3500 
L 594 4494 
L 1172 4494 
z
" transform="scale(0.015625)"/>
      <path id="DejaVuSans-76" d="M 191 3500 
L 800 3500 
L 1894 563 
L 2988 3500 
L 3597 3500 
L 2284 0 
L 1503 0 
L 191 3500 
z
" transform="scale(0.015625)"/>
      <path id="DejaVuSans-65" d="M 3597 1894 
L 3597 1613 
L 953 1613 
Q 991 1019 1311 708 
Q 1631 397 2203 397 
Q 2534 397 2845 478 
Q 3156 559 3463 722 
L 3463 178 
Q 3153 47 2828 -22 
Q 2503 -91 2169 -91 
Q 1331 -91 842 396 
Q 353 884 353 1716 
Q 353 2575 817 3079 
Q 1281 3584 2069 3584 
Q 2775 3584 3186 3129 
Q 3597 2675 3597 1894 
z
M 3022 2063 
Q 3016 2534 2758 2815 
Q 2500 3097 2075 3097 
Q 1594 3097 1305 2825 
Q 1016 2553 972 2059 
L 3022 2063 
z
" transform="scale(0.015625)"/>
      <path id="DejaVuSans-20" transform="scale(0.015625)"/>
      <path id="DejaVuSans-6c" d="M 603 4863 
L 1178 4863 
L 1178 0 
L 603 0 
L 603 4863 
z
" transform="scale(0.015625)"/>
      <path id="DejaVuSans-70" d="M 1159 525 
L 1159 -1331 
L 581 -1331 
L 581 3500 
L 1159 3500 
L 1159 2969 
Q 1341 3281 1617 3432 
Q 1894 3584 2278 3584 
Q 2916 3584 3314 3078 
Q 3713 2572 3713 1747 
Q 3713 922 3314 415 
Q 2916 -91 2278 -91 
Q 1894 -91 1617 61 
Q 1341 213 1159 525 
z
M 3116 1747 
Q 3116 2381 2855 2742 
Q 2594 3103 2138 3103 
Q 1681 3103 1420 2742 
Q 1159 2381 1159 1747 
Q 1159 1113 1420 752 
Q 1681 391 2138 391 
Q 2594 391 2855 752 
Q 3116 1113 3116 1747 
z
" transform="scale(0.015625)"/>
      <path id="DejaVuSans-2192" d="M 5050 2147 
L 5050 1866 
L 3822 638 
L 3447 1013 
L 4175 1741 
L 366 1741 
L 366 2272 
L 4175 2272 
L 3447 3000 
L 3822 3375 
L 5050 2147 
z
" transform="scale(0.015625)"/>
      <path id="DejaVuSans-64" d="M 2906 2969 
L 2906 4863 
L 3481 4863 
L 3481 0 
L 2906 0 
L 2906 525 
Q 2725 213 2448 61 
Q 2172 -91 1784 -91 
Q 1150 -91 751 415 
Q 353 922 353 1747 
Q 353 2572 751 3078 
Q 1150 3584 1784 3584 
Q 2172 3584 2448 3432 
Q 2725 3281 2906 2969 
z
M 947 1747 
Q 947 1113 1208 752 
Q 1469 391 1925 391 
Q 2381 391 2643 752 
Q 2906 1113 2906 1747 
Q 2906 2381 2643 2742 
Q 2381 3103 1925 3103 
Q 1469 3103 1208 2742 
Q 947 2381 947 1747 
z
" transform="scale(0.015625)"/>
      <path id="DejaVuSans-63" d="M 3122 3366 
L 3122 2828 
Q 2878 2963 2633 3030 
Q 2388 3097 2138 3097 
Q 1578 3097 1268 2742 
Q 959 2388 959 1747 
Q 959 1106 1268 751 
Q 1578 397 2138 397 
Q 2388 397 2633 464 
Q 2878 531 3122 666 
L 3122 134 
Q 2881 22 2623 -34 
Q 2366 -91 2075 -91 
Q 1284 -91 818 406 
Q 353 903 353 1747 
Q 353 2603 823 3093 
Q 1294 3584 2113 3584 
Q 2378 3584 2631 3529 
Q 2884 3475 3122 3366 
z
" transform="scale(0.015625)"/>
      <path id="DejaVuSans-72" d="M 2631 2963 
Q 2534 3019 2420 3045 
Q 2306 3072 2169 3072 
Q 1681 3072 1420 2755 
Q 1159 2438 1159 1844 
L 1159 0 
L 581 0 
L 581 3500 
L 1159 3500 
L 1159 2956 
Q 1341 3275 1631 3429 
Q 1922 3584 2338 3584 
Q 2397 3584 2469 3576 
Q 2541 3569 2628 3553 
L 2631 2963 
z
" transform="scale(0.015625)"/>
      <path id="DejaVuSans-61" d="M 2194 1759 
Q 1497 1759 1228 1600 
Q 959 1441 959 1056 
Q 959 750 1161 570 
Q 1363 391 1709 391 
Q 2188 391 2477 730 
Q 2766 1069 2766 1631 
L 2766 1759 
L 2194 1759 
z
M 3341 1997 
L 3341 0 
L 2766 0 
L 2766 531 
Q 2569 213 2275 61 
Q 1981 -91 1556 -91 
Q 1019 -91 701 211 
Q 384 513 384 1019 
Q 384 1609 779 1909 
Q 1175 2209 1959 2209 
L 2766 2209 
L 2766 2266 
Q 2766 2663 2505 2880 
Q 2244 3097 1772 3097 
Q 1472 3097 1187 3025 
Q 903 2953 641 2809 
L 641 3341 
Q 956 3463 1253 3523 
Q 1550 3584 1831 3584 
Q 2591 3584 2966 3190 
Q 3341 2797 3341 1997 
z
" transform="scale(0.015625)"/>
     </defs>
     <use xlink:href="#DejaVuSans-50" transform="translate(0 0.015625)"/>
     <use xlink:href="#DejaVuSans-6f" transform="translate(60.302734 0.015625)"/>
     <use xlink:href="#DejaVuSans-73" transform="translate(121.484375 0.015625)"/>
     <use xlink:href="#DejaVuSans-69" transform="translate(173.583984 0.015625)"/>
     <use xlink:href="#DejaVuSans-74" transform="translate(201.367188 0.015625)"/>
     <use xlink:href="#DejaVuSans-69" transform="translate(240.576172 0.015625)"/>
     <use xlink:href="#DejaVuSans-76" transform="translate(268.359375 0.015625)"/>
     <use xlink:href="#DejaVuSans-65" transform="translate(327.539062 0.015625)"/>
     <use xlink:href="#DejaVuSans-20" transform="translate(389.0625 0.015625)"/>
     <use xlink:href="#DejaVuSans-73" transform="translate(420.849609 0.015625)"/>
     <use xlink:href="#DejaVuSans-6c" transform="translate(472.949219 0.015625)"/>
     <use xlink:href="#DejaVuSans-6f" transform="translate(500.732422 0.015625)"/>
     <use xlink:href="#DejaVuSans-70" transform="translate(561.914062 0.015625)"/>
     <use xlink:href="#DejaVuSans-65" transform="translate(625.390625 0.015625)"/>
     <use xlink:href="#DejaVuSans-20" transform="translate(686.914062 0.015625)"/>
     <use xlink:href="#DejaVuSans-2192" transform="translate(718.701172 0.015625)"/>
     <use xlink:href="#DejaVuSans-20" transform="translate(802.490234 0.015625)"/>
     <use xlink:href="#DejaVuSans-64" transform="translate(834.277344 0.015625)"/>
     <use xlink:href="#DejaVuSans-65" transform="translate(897.753906 0.015625)"/>
     <use xlink:href="#DejaVuSans-63" transform="translate(959.277344 0.015625)"/>
     <use xlink:href="#DejaVuSans-72" transform="translate(1014.257812 0.015625)"/>
     <use xlink:href="#DejaVuSans-65" transform="translate(1055.371094 0.015625)"/>
     <use xlink:href="#DejaVuSans-61" transform="translate(1116.894531 0.015625)"/>
     <use xlink:href="#DejaVuSans-73" transform="translate(1178.173828 0.015625)"/>
     <use xlink:href="#DejaVuSans-65" transform="translate(1230.273438 0.015625)"/>
     <use xlink:href="#DejaVuSans-20" transform="translate(1291.796875 0.015625)"/>
     <use xlink:href="#DejaVuSans-Oblique-77" transform="translate(1323.583984 0.015625)"/>
    </g>
   </g>
   <g id="line2d_29">
    <defs>
     <path id="m2f76dd48ad" d="M 0 5 
C 1.326016 5 2.597899 4.473168 3.535534 3.535534 
C 4.473168 2.597899 5 1.326016 5 0 
C 5 -1.326016 4.473168 -2.597899 3.535534 -3.535534 
C 2.597899 -4.473168 1.326016 -5 0 -5 
C -1.326016 -5 -2.597899 -4.473168 -3.535534 -3.535534 
C -4.473168 -2.597899 -5 -1.326016 -5 0 
C -5 1.326016 -4.473168 2.597899 -3.535534 3.535534 
C -2.597899 4.473168 -1.326016 5 0 5 
z
" style="stroke: #cc0000"/>
    </defs>
    <g clip-path="url(#p56d45ed08e)">
     <use xlink:href="#m2f76dd48ad" x="313.497917" y="200.213182" style="fill: #cc0000; stroke: #cc0000"/>
    </g>
   </g>
  </g>
  <g id="axes_2">
   <g id="patch_9">
    <path d="M 488.030857 312.22 
L 846.88375 312.22 
L 846.88375 22.32 
L 488.030857 22.32 
z
" style="fill: #ffffff"/>
   </g>
   <g id="matplotlib.axis_3">
    <g id="xtick_7">
     <g id="line2d_30">
      <path d="M 504.342353 312.22 
L 504.342353 22.32 
" clip-path="url(#pf2e1aa609a)" style="fill: none; stroke-dasharray: 2.96,1.28; stroke-dashoffset: 0; stroke: #b0b0b0; stroke-opacity: 0.4; stroke-width: 0.8"/>
     </g>
     <g id="line2d_31">
      <g>
       <use xlink:href="#m43004843bf" x="504.342353" y="312.22" style="stroke: #000000; stroke-width: 0.8"/>
      </g>
     </g>
     <g id="text_19">
      <!-- −1 -->
      <g transform="translate(496.971259 326.818437) scale(0.1 -0.1)">
       <use xlink:href="#DejaVuSans-2212"/>
       <use xlink:href="#DejaVuSans-31" transform="translate(83.789062 0)"/>
      </g>
     </g>
    </g>
    <g id="xtick_8">
     <g id="line2d_32">
      <path d="M 569.588333 312.22 
L 569.588333 22.32 
" clip-path="url(#pf2e1aa609a)" style="fill: none; stroke-dasharray: 2.96,1.28; stroke-dashoffset: 0; stroke: #b0b0b0; stroke-opacity: 0.4; stroke-width: 0.8"/>
     </g>
     <g id="line2d_33">
      <g>
       <use xlink:href="#m43004843bf" x="569.588333" y="312.22" style="stroke: #000000; stroke-width: 0.8"/>
      </g>
     </g>
     <g id="text_20">
      <!-- 0 -->
      <g transform="translate(566.407083 326.818437) scale(0.1 -0.1)">
       <use xlink:href="#DejaVuSans-30"/>
      </g>
     </g>
    </g>
    <g id="xtick_9">
     <g id="line2d_34">
      <path d="M 634.834313 312.22 
L 634.834313 22.32 
" clip-path="url(#pf2e1aa609a)" style="fill: none; stroke-dasharray: 2.96,1.28; stroke-dashoffset: 0; stroke: #b0b0b0; stroke-opacity: 0.4; stroke-width: 0.8"/>
     </g>
     <g id="line2d_35">
      <g>
       <use xlink:href="#m43004843bf" x="634.834313" y="312.22" style="stroke: #000000; stroke-width: 0.8"/>
      </g>
     </g>
     <g id="text_21">
      <!-- 1 -->
      <g transform="translate(631.653063 326.818437) scale(0.1 -0.1)">
       <use xlink:href="#DejaVuSans-31"/>
      </g>
     </g>
    </g>
    <g id="xtick_10">
     <g id="line2d_36">
      <path d="M 700.080294 312.22 
L 700.080294 22.32 
" clip-path="url(#pf2e1aa609a)" style="fill: none; stroke-dasharray: 2.96,1.28; stroke-dashoffset: 0; stroke: #b0b0b0; stroke-opacity: 0.4; stroke-width: 0.8"/>
     </g>
     <g id="line2d_37">
      <g>
       <use xlink:href="#m43004843bf" x="700.080294" y="312.22" style="stroke: #000000; stroke-width: 0.8"/>
      </g>
     </g>
     <g id="text_22">
      <!-- 2 -->
      <g transform="translate(696.899044 326.818437) scale(0.1 -0.1)">
       <use xlink:href="#DejaVuSans-32"/>
      </g>
     </g>
    </g>
    <g id="xtick_11">
     <g id="line2d_38">
      <path d="M 765.326274 312.22 
L 765.326274 22.32 
" clip-path="url(#pf2e1aa609a)" style="fill: none; stroke-dasharray: 2.96,1.28; stroke-dashoffset: 0; stroke: #b0b0b0; stroke-opacity: 0.4; stroke-width: 0.8"/>
     </g>
     <g id="line2d_39">
      <g>
       <use xlink:href="#m43004843bf" x="765.326274" y="312.22" style="stroke: #000000; stroke-width: 0.8"/>
      </g>
     </g>
     <g id="text_23">
      <!-- 3 -->
      <g transform="translate(762.145024 326.818437) scale(0.1 -0.1)">
       <use xlink:href="#DejaVuSans-33"/>
      </g>
     </g>
    </g>
    <g id="xtick_12">
     <g id="line2d_40">
      <path d="M 830.572255 312.22 
L 830.572255 22.32 
" clip-path="url(#pf2e1aa609a)" style="fill: none; stroke-dasharray: 2.96,1.28; stroke-dashoffset: 0; stroke: #b0b0b0; stroke-opacity: 0.4; stroke-width: 0.8"/>
     </g>
     <g id="line2d_41">
      <g>
       <use xlink:href="#m43004843bf" x="830.572255" y="312.22" style="stroke: #000000; stroke-width: 0.8"/>
      </g>
     </g>
     <g id="text_24">
      <!-- 4 -->
      <g transform="translate(827.391005 326.818437) scale(0.1 -0.1)">
       <use xlink:href="#DejaVuSans-34"/>
      </g>
     </g>
    </g>
    <g id="text_25">
     <!-- $w$ -->
     <g transform="translate(662.537304 342.01625) scale(0.12 -0.12)">
      <use xlink:href="#DejaVuSans-Oblique-77" transform="translate(0 0.3125)"/>
     </g>
    </g>
   </g>
   <g id="matplotlib.axis_4">
    <g id="ytick_8">
     <g id="line2d_42">
      <path d="M 488.030857 272.276392 
L 846.88375 272.276392 
" clip-path="url(#pf2e1aa609a)" style="fill: none; stroke-dasharray: 2.96,1.28; stroke-dashoffset: 0; stroke: #b0b0b0; stroke-opacity: 0.4; stroke-width: 0.8"/>
     </g>
     <g id="line2d_43">
      <g>
       <use xlink:href="#m8044ebe548" x="488.030857" y="272.276392" style="stroke: #000000; stroke-width: 0.8"/>
      </g>
     </g>
     <g id="text_26">
      <!-- 1 -->
      <g transform="translate(474.668357 276.075611) scale(0.1 -0.1)">
       <use xlink:href="#DejaVuSans-31"/>
      </g>
     </g>
    </g>
    <g id="ytick_9">
     <g id="line2d_44">
      <path d="M 488.030857 231.097415 
L 846.88375 231.097415 
" clip-path="url(#pf2e1aa609a)" style="fill: none; stroke-dasharray: 2.96,1.28; stroke-dashoffset: 0; stroke: #b0b0b0; stroke-opacity: 0.4; stroke-width: 0.8"/>
     </g>
     <g id="line2d_45">
      <g>
       <use xlink:href="#m8044ebe548" x="488.030857" y="231.097415" style="stroke: #000000; stroke-width: 0.8"/>
      </g>
     </g>
     <g id="text_27">
      <!-- 2 -->
      <g transform="translate(474.668357 234.896634) scale(0.1 -0.1)">
       <use xlink:href="#DejaVuSans-32"/>
      </g>
     </g>
    </g>
    <g id="ytick_10">
     <g id="line2d_46">
      <path d="M 488.030857 189.918437 
L 846.88375 189.918437 
" clip-path="url(#pf2e1aa609a)" style="fill: none; stroke-dasharray: 2.96,1.28; stroke-dashoffset: 0; stroke: #b0b0b0; stroke-opacity: 0.4; stroke-width: 0.8"/>
     </g>
     <g id="line2d_47">
      <g>
       <use xlink:href="#m8044ebe548" x="488.030857" y="189.918437" style="stroke: #000000; stroke-width: 0.8"/>
      </g>
     </g>
     <g id="text_28">
      <!-- 3 -->
      <g transform="translate(474.668357 193.717656) scale(0.1 -0.1)">
       <use xlink:href="#DejaVuSans-33"/>
      </g>
     </g>
    </g>
    <g id="ytick_11">
     <g id="line2d_48">
      <path d="M 488.030857 148.73946 
L 846.88375 148.73946 
" clip-path="url(#pf2e1aa609a)" style="fill: none; stroke-dasharray: 2.96,1.28; stroke-dashoffset: 0; stroke: #b0b0b0; stroke-opacity: 0.4; stroke-width: 0.8"/>
     </g>
     <g id="line2d_49">
      <g>
       <use xlink:href="#m8044ebe548" x="488.030857" y="148.73946" style="stroke: #000000; stroke-width: 0.8"/>
      </g>
     </g>
     <g id="text_29">
      <!-- 4 -->
      <g transform="translate(474.668357 152.538679) scale(0.1 -0.1)">
       <use xlink:href="#DejaVuSans-34"/>
      </g>
     </g>
    </g>
    <g id="ytick_12">
     <g id="line2d_50">
      <path d="M 488.030857 107.560483 
L 846.88375 107.560483 
" clip-path="url(#pf2e1aa609a)" style="fill: none; stroke-dasharray: 2.96,1.28; stroke-dashoffset: 0; stroke: #b0b0b0; stroke-opacity: 0.4; stroke-width: 0.8"/>
     </g>
     <g id="line2d_51">
      <g>
       <use xlink:href="#m8044ebe548" x="488.030857" y="107.560483" style="stroke: #000000; stroke-width: 0.8"/>
      </g>
     </g>
     <g id="text_30">
      <!-- 5 -->
      <g transform="translate(474.668357 111.359702) scale(0.1 -0.1)">
       <use xlink:href="#DejaVuSans-35"/>
      </g>
     </g>
    </g>
    <g id="ytick_13">
     <g id="line2d_52">
      <path d="M 488.030857 66.381506 
L 846.88375 66.381506 
" clip-path="url(#pf2e1aa609a)" style="fill: none; stroke-dasharray: 2.96,1.28; stroke-dashoffset: 0; stroke: #b0b0b0; stroke-opacity: 0.4; stroke-width: 0.8"/>
     </g>
     <g id="line2d_53">
      <g>
       <use xlink:href="#m8044ebe548" x="488.030857" y="66.381506" style="stroke: #000000; stroke-width: 0.8"/>
      </g>
     </g>
     <g id="text_31">
      <!-- 6 -->
      <g transform="translate(474.668357 70.180724) scale(0.1 -0.1)">
       <use xlink:href="#DejaVuSans-36"/>
      </g>
     </g>
    </g>
    <g id="ytick_14">
     <g id="line2d_54">
      <path d="M 488.030857 25.202528 
L 846.88375 25.202528 
" clip-path="url(#pf2e1aa609a)" style="fill: none; stroke-dasharray: 2.96,1.28; stroke-dashoffset: 0; stroke: #b0b0b0; stroke-opacity: 0.4; stroke-width: 0.8"/>
     </g>
     <g id="line2d_55">
      <g>
       <use xlink:href="#m8044ebe548" x="488.030857" y="25.202528" style="stroke: #000000; stroke-width: 0.8"/>
      </g>
     </g>
     <g id="text_32">
      <!-- 7 -->
      <g transform="translate(474.668357 29.001747) scale(0.1 -0.1)">
       <use xlink:href="#DejaVuSans-37"/>
      </g>
     </g>
    </g>
    <g id="text_33">
     <!-- $J(w)$ -->
     <g transform="translate(468.148357 178.67) rotate(-90) scale(0.12 -0.12)">
      <use xlink:href="#DejaVuSans-Oblique-4a" transform="translate(0 0.125)"/>
      <use xlink:href="#DejaVuSans-28" transform="translate(29.492188 0.125)"/>
      <use xlink:href="#DejaVuSans-Oblique-77" transform="translate(68.505859 0.125)"/>
      <use xlink:href="#DejaVuSans-29" transform="translate(150.292969 0.125)"/>
     </g>
    </g>
   </g>
   <g id="line2d_56">
    <path d="M 504.342353 35.497273 
L 510.899738 55.774287 
L 517.457122 75.219424 
L 524.014507 93.832684 
L 530.571892 111.614066 
L 537.129277 128.563571 
L 542.047316 140.729779 
L 546.965355 152.428057 
L 551.883394 163.658404 
L 556.801432 174.420819 
L 561.719471 184.715304 
L 566.63751 194.541857 
L 571.555549 203.900479 
L 576.473587 212.79117 
L 581.391626 221.21393 
L 586.309665 229.168759 
L 591.227703 236.655656 
L 596.145742 243.674623 
L 601.063781 250.225659 
L 605.98182 256.308763 
L 610.899858 261.923936 
L 615.817897 267.071178 
L 619.09659 270.242711 
L 622.375282 273.206275 
L 625.653975 275.961869 
L 628.932667 278.509494 
L 632.211359 280.84915 
L 635.490052 282.980836 
L 638.768744 284.904553 
L 642.047437 286.6203 
L 645.326129 288.128078 
L 648.604822 289.427887 
L 651.883514 290.519726 
L 655.162207 291.403596 
L 658.440899 292.079496 
L 661.719592 292.547428 
L 664.998284 292.807389 
L 668.276977 292.859382 
L 671.555669 292.703405 
L 674.834362 292.339458 
L 678.113054 291.767542 
L 681.391747 290.987657 
L 684.670439 289.999803 
L 687.949132 288.803979 
L 691.227824 287.400185 
L 694.506517 285.788423 
L 697.785209 283.968691 
L 701.063902 281.940989 
L 704.342594 279.705318 
L 707.621287 277.261678 
L 710.899979 274.610068 
L 714.178672 271.750489 
L 717.457364 268.682941 
L 720.736057 265.407423 
L 725.654095 260.104204 
L 730.572134 254.333054 
L 735.490173 248.093972 
L 740.408212 241.38696 
L 745.32625 234.212016 
L 750.244289 226.569141 
L 755.162328 218.458336 
L 760.080366 209.879599 
L 764.998405 200.832931 
L 769.916444 191.318331 
L 774.834483 181.335801 
L 779.752521 170.88534 
L 784.67056 159.966947 
L 789.588599 148.580624 
L 794.506638 136.726369 
L 799.424676 124.404183 
L 804.342715 111.614066 
L 810.9001 93.832684 
L 817.457485 75.219424 
L 824.01487 55.774287 
L 830.572255 35.497273 
L 830.572255 35.497273 
" clip-path="url(#pf2e1aa609a)" style="fill: none; stroke: #4682b4; stroke-width: 2.5; stroke-linecap: square"/>
   </g>
   <g id="line2d_57">
    <path d="M 517.391549 101.383636 
L 519.52203 105.417495 
L 521.652511 109.451354 
L 523.782992 113.485213 
L 525.913473 117.519072 
L 528.043954 121.552931 
L 530.174435 125.58679 
L 532.304916 129.620649 
L 534.435397 133.654508 
L 536.565878 137.688367 
L 538.696359 141.722226 
L 540.82684 145.756085 
L 542.957321 149.789944 
L 545.087802 153.823803 
L 547.218283 157.857662 
L 549.348764 161.891521 
L 551.479245 165.92538 
L 553.609726 169.959239 
L 555.740207 173.993098 
L 557.870688 178.026957 
L 560.001169 182.060816 
L 562.13165 186.094675 
L 564.262131 190.128534 
L 566.392612 194.162393 
L 568.523093 198.196252 
L 570.653574 202.230111 
L 572.784055 206.26397 
L 574.914536 210.297829 
L 577.045017 214.331688 
L 579.175497 218.365547 
L 581.305978 222.399406 
L 583.436459 226.433265 
L 585.56694 230.467124 
L 587.697421 234.500983 
L 589.827902 238.534842 
L 591.958383 242.568701 
L 594.088864 246.60256 
L 596.219345 250.636419 
L 598.349826 254.670278 
L 600.480307 258.704137 
L 602.610788 262.737996 
L 604.741269 266.771855 
L 606.87175 270.805714 
L 609.002231 274.839573 
L 611.132712 278.873432 
L 613.263193 282.907291 
L 615.393674 286.94115 
L 617.524155 290.975009 
L 619.654636 295.008868 
L 621.785117 299.042727 
" clip-path="url(#pf2e1aa609a)" style="fill: none; stroke-dasharray: 7.4,3.2; stroke-dashoffset: 0; stroke: #cc0000; stroke-width: 2"/>
   </g>
   <g id="patch_10">
    <path d="M 488.030857 312.22 
L 488.030857 22.32 
" style="fill: none; stroke: #000000; stroke-width: 0.8; stroke-linejoin: miter; stroke-linecap: square"/>
   </g>
   <g id="patch_11">
    <path d="M 846.88375 312.22 
L 846.88375 22.32 
" style="fill: none; stroke: #000000; stroke-width: 0.8; stroke-linejoin: miter; stroke-linecap: square"/>
   </g>
   <g id="patch_12">
    <path d="M 488.030857 312.22 
L 846.88375 312.22 
" style="fill: none; stroke: #000000; stroke-width: 0.8; stroke-linejoin: miter; stroke-linecap: square"/>
   </g>
   <g id="patch_13">
    <path d="M 488.030857 22.32 
L 846.88375 22.32 
" style="fill: none; stroke: #000000; stroke-width: 0.8; stroke-linejoin: miter; stroke-linecap: square"/>
   </g>
   <g id="patch_14">
    <path d="M 571.585854 212.566875 
Q 595.685116 212.566875 616.989293 212.566875 
" style="fill: none; stroke: #2e8b57; stroke-width: 2.5; stroke-linecap: round"/>
    <path d="M 612.989293 210.566875 
L 616.989293 212.566875 
L 612.989293 214.566875 
" style="fill: none; stroke: #2e8b57; stroke-width: 2.5; stroke-linecap: round"/>
   </g>
   <g id="text_34">
    <!-- move right -->
    <g style="fill: #2e8b57" transform="translate(564.942194 229.038466) scale(0.1 -0.1)">
     <defs>
      <path id="DejaVuSans-Bold-72" d="M 3138 2547 
Q 2991 2616 2845 2648 
Q 2700 2681 2553 2681 
Q 2122 2681 1889 2404 
Q 1656 2128 1656 1613 
L 1656 0 
L 538 0 
L 538 3500 
L 1656 3500 
L 1656 2925 
Q 1872 3269 2151 3426 
Q 2431 3584 2822 3584 
Q 2878 3584 2943 3579 
Q 3009 3575 3134 3559 
L 3138 2547 
z
" transform="scale(0.015625)"/>
      <path id="DejaVuSans-Bold-67" d="M 2919 594 
Q 2688 288 2409 144 
Q 2131 0 1766 0 
Q 1125 0 706 504 
Q 288 1009 288 1791 
Q 288 2575 706 3076 
Q 1125 3578 1766 3578 
Q 2131 3578 2409 3434 
Q 2688 3291 2919 2981 
L 2919 3500 
L 4044 3500 
L 4044 353 
Q 4044 -491 3511 -936 
Q 2978 -1381 1966 -1381 
Q 1638 -1381 1331 -1331 
Q 1025 -1281 716 -1178 
L 716 -306 
Q 1009 -475 1290 -558 
Q 1572 -641 1856 -641 
Q 2406 -641 2662 -400 
Q 2919 -159 2919 353 
L 2919 594 
z
M 2181 2772 
Q 1834 2772 1640 2515 
Q 1447 2259 1447 1791 
Q 1447 1309 1634 1061 
Q 1822 813 2181 813 
Q 2531 813 2725 1069 
Q 2919 1325 2919 1791 
Q 2919 2259 2725 2515 
Q 2531 2772 2181 2772 
z
" transform="scale(0.015625)"/>
      <path id="DejaVuSans-Bold-68" d="M 4056 2131 
L 4056 0 
L 2931 0 
L 2931 347 
L 2931 1625 
Q 2931 2084 2911 2256 
Q 2891 2428 2841 2509 
Q 2775 2619 2662 2680 
Q 2550 2741 2406 2741 
Q 2056 2741 1856 2470 
Q 1656 2200 1656 1722 
L 1656 0 
L 538 0 
L 538 4863 
L 1656 4863 
L 1656 2988 
Q 1909 3294 2193 3439 
Q 2478 3584 2822 3584 
Q 3428 3584 3742 3212 
Q 4056 2841 4056 2131 
z
" transform="scale(0.015625)"/>
     </defs>
     <use xlink:href="#DejaVuSans-Bold-6d"/>
     <use xlink:href="#DejaVuSans-Bold-6f" transform="translate(104.199219 0)"/>
     <use xlink:href="#DejaVuSans-Bold-76" transform="translate(172.900391 0)"/>
     <use xlink:href="#DejaVuSans-Bold-65" transform="translate(238.085938 0)"/>
     <use xlink:href="#DejaVuSans-Bold-20" transform="translate(305.908203 0)"/>
     <use xlink:href="#DejaVuSans-Bold-72" transform="translate(340.722656 0)"/>
     <use xlink:href="#DejaVuSans-Bold-69" transform="translate(390.039062 0)"/>
     <use xlink:href="#DejaVuSans-Bold-67" transform="translate(424.316406 0)"/>
     <use xlink:href="#DejaVuSans-Bold-68" transform="translate(495.898438 0)"/>
     <use xlink:href="#DejaVuSans-Bold-74" transform="translate(567.089844 0)"/>
    </g>
   </g>
   <g id="patch_15">
    <path d="M 601.233579 164.471814 
Q 586.074417 181.59316 571.656401 197.877426 
" style="fill: none; stroke: #cc0000; stroke-linecap: round"/>
    <path d="M 575.390518 196.375304 
L 571.656401 197.877426 
L 572.695174 193.988859 
" style="fill: none; stroke: #cc0000; stroke-linecap: round"/>
   </g>
   <g id="text_35">
    <!-- slope = -3.0 (negative) -->
    <g style="fill: #cc0000" transform="translate(550.014539 159.034205) scale(0.09 -0.09)">
     <defs>
      <path id="DejaVuSans-Bold-2d" d="M 347 2297 
L 2309 2297 
L 2309 1388 
L 347 1388 
L 347 2297 
z
" transform="scale(0.015625)"/>
      <path id="DejaVuSans-Bold-6e" d="M 4056 2131 
L 4056 0 
L 2931 0 
L 2931 347 
L 2931 1631 
Q 2931 2084 2911 2256 
Q 2891 2428 2841 2509 
Q 2775 2619 2662 2680 
Q 2550 2741 2406 2741 
Q 2056 2741 1856 2470 
Q 1656 2200 1656 1722 
L 1656 0 
L 538 0 
L 538 3500 
L 1656 3500 
L 1656 2988 
Q 1909 3294 2193 3439 
Q 2478 3584 2822 3584 
Q 3428 3584 3742 3212 
Q 4056 2841 4056 2131 
z
" transform="scale(0.015625)"/>
      <path id="DejaVuSans-Bold-61" d="M 2106 1575 
Q 1756 1575 1579 1456 
Q 1403 1338 1403 1106 
Q 1403 894 1545 773 
Q 1688 653 1941 653 
Q 2256 653 2472 879 
Q 2688 1106 2688 1447 
L 2688 1575 
L 2106 1575 
z
M 3816 1997 
L 3816 0 
L 2688 0 
L 2688 519 
Q 2463 200 2181 54 
Q 1900 -91 1497 -91 
Q 953 -91 614 226 
Q 275 544 275 1050 
Q 275 1666 698 1953 
Q 1122 2241 2028 2241 
L 2688 2241 
L 2688 2328 
Q 2688 2594 2478 2717 
Q 2269 2841 1825 2841 
Q 1466 2841 1156 2769 
Q 847 2697 581 2553 
L 581 3406 
Q 941 3494 1303 3539 
Q 1666 3584 2028 3584 
Q 2975 3584 3395 3211 
Q 3816 2838 3816 1997 
z
" transform="scale(0.015625)"/>
     </defs>
     <use xlink:href="#DejaVuSans-Bold-73"/>
     <use xlink:href="#DejaVuSans-Bold-6c" transform="translate(59.521484 0)"/>
     <use xlink:href="#DejaVuSans-Bold-6f" transform="translate(93.798828 0)"/>
     <use xlink:href="#DejaVuSans-Bold-70" transform="translate(162.5 0)"/>
     <use xlink:href="#DejaVuSans-Bold-65" transform="translate(234.082031 0)"/>
     <use xlink:href="#DejaVuSans-Bold-20" transform="translate(301.904297 0)"/>
     <use xlink:href="#DejaVuSans-Bold-3d" transform="translate(336.71875 0)"/>
     <use xlink:href="#DejaVuSans-Bold-20" transform="translate(420.507812 0)"/>
     <use xlink:href="#DejaVuSans-Bold-2d" transform="translate(455.322266 0)"/>
     <use xlink:href="#DejaVuSans-Bold-33" transform="translate(496.826172 0)"/>
     <use xlink:href="#DejaVuSans-Bold-2e" transform="translate(566.40625 0)"/>
     <use xlink:href="#DejaVuSans-Bold-30" transform="translate(604.394531 0)"/>
     <use xlink:href="#DejaVuSans-Bold-20" transform="translate(673.974609 0)"/>
     <use xlink:href="#DejaVuSans-Bold-28" transform="translate(708.789062 0)"/>
     <use xlink:href="#DejaVuSans-Bold-6e" transform="translate(754.492188 0)"/>
     <use xlink:href="#DejaVuSans-Bold-65" transform="translate(825.683594 0)"/>
     <use xlink:href="#DejaVuSans-Bold-67" transform="translate(893.505859 0)"/>
     <use xlink:href="#DejaVuSans-Bold-61" transform="translate(965.087891 0)"/>
     <use xlink:href="#DejaVuSans-Bold-74" transform="translate(1032.568359 0)"/>
     <use xlink:href="#DejaVuSans-Bold-69" transform="translate(1080.371094 0)"/>
     <use xlink:href="#DejaVuSans-Bold-76" transform="translate(1114.648438 0)"/>
     <use xlink:href="#DejaVuSans-Bold-65" transform="translate(1179.833984 0)"/>
     <use xlink:href="#DejaVuSans-Bold-29" transform="translate(1247.65625 0)"/>
    </g>
   </g>
   <g id="text_36">
    <!-- Negative slope → increase $w$ -->
    <g style="fill: #808080" transform="translate(581.537304 16.32) scale(0.12 -0.12)">
     <defs>
      <path id="DejaVuSans-4e" d="M 628 4666 
L 1478 4666 
L 3547 763 
L 3547 4666 
L 4159 4666 
L 4159 0 
L 3309 0 
L 1241 3903 
L 1241 0 
L 628 0 
L 628 4666 
z
" transform="scale(0.015625)"/>
      <path id="DejaVuSans-67" d="M 2906 1791 
Q 2906 2416 2648 2759 
Q 2391 3103 1925 3103 
Q 1463 3103 1205 2759 
Q 947 2416 947 1791 
Q 947 1169 1205 825 
Q 1463 481 1925 481 
Q 2391 481 2648 825 
Q 2906 1169 2906 1791 
z
M 3481 434 
Q 3481 -459 3084 -895 
Q 2688 -1331 1869 -1331 
Q 1566 -1331 1297 -1286 
Q 1028 -1241 775 -1147 
L 775 -588 
Q 1028 -725 1275 -790 
Q 1522 -856 1778 -856 
Q 2344 -856 2625 -561 
Q 2906 -266 2906 331 
L 2906 616 
Q 2728 306 2450 153 
Q 2172 0 1784 0 
Q 1141 0 747 490 
Q 353 981 353 1791 
Q 353 2603 747 3093 
Q 1141 3584 1784 3584 
Q 2172 3584 2450 3431 
Q 2728 3278 2906 2969 
L 2906 3500 
L 3481 3500 
L 3481 434 
z
" transform="scale(0.015625)"/>
      <path id="DejaVuSans-6e" d="M 3513 2113 
L 3513 0 
L 2938 0 
L 2938 2094 
Q 2938 2591 2744 2837 
Q 2550 3084 2163 3084 
Q 1697 3084 1428 2787 
Q 1159 2491 1159 1978 
L 1159 0 
L 581 0 
L 581 3500 
L 1159 3500 
L 1159 2956 
Q 1366 3272 1645 3428 
Q 1925 3584 2291 3584 
Q 2894 3584 3203 3211 
Q 3513 2838 3513 2113 
z
" transform="scale(0.015625)"/>
     </defs>
     <use xlink:href="#DejaVuSans-4e" transform="translate(0 0.015625)"/>
     <use xlink:href="#DejaVuSans-65" transform="translate(74.804688 0.015625)"/>
     <use xlink:href="#DejaVuSans-67" transform="translate(136.328125 0.015625)"/>
     <use xlink:href="#DejaVuSans-61" transform="translate(199.804688 0.015625)"/>
     <use xlink:href="#DejaVuSans-74" transform="translate(261.083984 0.015625)"/>
     <use xlink:href="#DejaVuSans-69" transform="translate(300.292969 0.015625)"/>
     <use xlink:href="#DejaVuSans-76" transform="translate(328.076172 0.015625)"/>
     <use xlink:href="#DejaVuSans-65" transform="translate(387.255859 0.015625)"/>
     <use xlink:href="#DejaVuSans-20" transform="translate(448.779297 0.015625)"/>
     <use xlink:href="#DejaVuSans-73" transform="translate(480.566406 0.015625)"/>
     <use xlink:href="#DejaVuSans-6c" transform="translate(532.666016 0.015625)"/>
     <use xlink:href="#DejaVuSans-6f" transform="translate(560.449219 0.015625)"/>
     <use xlink:href="#DejaVuSans-70" transform="translate(621.630859 0.015625)"/>
     <use xlink:href="#DejaVuSans-65" transform="translate(685.107422 0.015625)"/>
     <use xlink:href="#DejaVuSans-20" transform="translate(746.630859 0.015625)"/>
     <use xlink:href="#DejaVuSans-2192" transform="translate(778.417969 0.015625)"/>
     <use xlink:href="#DejaVuSans-20" transform="translate(862.207031 0.015625)"/>
     <use xlink:href="#DejaVuSans-69" transform="translate(893.994141 0.015625)"/>
     <use xlink:href="#DejaVuSans-6e" transform="translate(921.777344 0.015625)"/>
     <use xlink:href="#DejaVuSans-63" transform="translate(985.15625 0.015625)"/>
     <use xlink:href="#DejaVuSans-72" transform="translate(1040.136719 0.015625)"/>
     <use xlink:href="#DejaVuSans-65" transform="translate(1081.25 0.015625)"/>
     <use xlink:href="#DejaVuSans-61" transform="translate(1142.773438 0.015625)"/>
     <use xlink:href="#DejaVuSans-73" transform="translate(1204.052734 0.015625)"/>
     <use xlink:href="#DejaVuSans-65" transform="translate(1256.152344 0.015625)"/>
     <use xlink:href="#DejaVuSans-20" transform="translate(1317.675781 0.015625)"/>
     <use xlink:href="#DejaVuSans-Oblique-77" transform="translate(1349.462891 0.015625)"/>
    </g>
   </g>
   <g id="line2d_58">
    <g clip-path="url(#pf2e1aa609a)">
     <use xlink:href="#m2f76dd48ad" x="569.588333" y="200.213182" style="fill: #cc0000; stroke: #cc0000"/>
    </g>
   </g>
  </g>
 </g>
 <defs>
  <clipPath id="p56d45ed08e">
   <rect x="36.2025" y="22.32" width="358.852893" height="289.9"/>
  </clipPath>
  <clipPath id="pf2e1aa609a">
   <rect x="488.030857" y="22.32" width="358.852893" height="289.9"/>
  </clipPath>
 </defs>
</svg>
