<?xml version="1.0" encoding="utf-8" standalone="no"?>
<!DOCTYPE svg PUBLIC "-//W3C//DTD SVG 1.1//EN"
  "http://www.w3.org/Graphics/SVG/1.1/DTD/svg11.dtd">
<svg xmlns:xlink="http://www.w3.org/1999/xlink" width="928.8pt" height="189.39226pt" viewBox="0 0 928.8 189.39226" xmlns="http://www.w3.org/2000/svg" version="1.1">
 <metadata>
  <rdf:RDF xmlns:dc="http://purl.org/dc/elements/1.1/" xmlns:cc="http://creativecommons.org/ns#" xmlns:rdf="http://www.w3.org/1999/02/22-rdf-syntax-ns#">
   <cc:Work>
    <dc:type rdf:resource="http://purl.org/dc/dcmitype/StillImage"/>
    <dc:date>2026-06-15T22:27:48.604371</dc:date>
    <dc:format>image/svg+xml</dc:format>
    <dc:creator>
     <cc:Agent>
      <dc:title>Matplotlib v3.10.8, https://matplotlib.org/</dc:title>
     </cc:Agent>
    </dc:creator>
   </cc:Work>
  </rdf:RDF>
 </metadata>
 <defs>
  <style type="text/css">*{stroke-linejoin: round; stroke-linecap: butt}</style>
 </defs>
 <g id="figure_1">
  <g id="patch_1">
   <path d="M 0 189.39226 
L 928.8 189.39226 
L 928.8 0 
L 0 0 
z
" style="fill: #ffffff"/>
  </g>
  <g id="axes_1">
   <g id="patch_2">
    <path d="M 35.209412 78.907554 
L 66.72 78.907554 
Q 68.470588 78.907554 68.470588 77.156966 
L 68.470588 49.147554 
Q 68.470588 47.396966 66.72 47.396966 
L 35.209412 47.396966 
Q 33.458824 47.396966 33.458824 49.147554 
L 33.458824 77.156966 
Q 33.458824 78.907554 35.209412 78.907554 
z
" clip-path="url(#p27914892c7)" style="fill: #87ceeb; stroke: #4682b4; stroke-width: 1.5; stroke-linejoin: miter"/>
   </g>
   <g id="patch_3">
    <path d="M 35.209412 113.919319 
L 66.72 113.919319 
Q 68.470588 113.919319 68.470588 112.168731 
L 68.470588 84.159319 
Q 68.470588 82.408731 66.72 82.408731 
L 35.209412 82.408731 
Q 33.458824 82.408731 33.458824 84.159319 
L 33.458824 112.168731 
Q 33.458824 113.919319 35.209412 113.919319 
z
" clip-path="url(#p27914892c7)" style="fill: #87ceeb; stroke: #4682b4; stroke-width: 1.5; stroke-linejoin: miter"/>
   </g>
   <g id="patch_4">
    <path d="M 35.209412 148.931084 
L 66.72 148.931084 
Q 68.470588 148.931084 68.470588 147.180495 
L 68.470588 119.171084 
Q 68.470588 117.420495 66.72 117.420495 
L 35.209412 117.420495 
Q 33.458824 117.420495 33.458824 119.171084 
L 33.458824 147.180495 
Q 33.458824 148.931084 35.209412 148.931084 
z
" clip-path="url(#p27914892c7)" style="fill: #87ceeb; stroke: #4682b4; stroke-width: 1.5; stroke-linejoin: miter"/>
   </g>
   <g id="patch_5">
    <path d="M 129.741176 113.919319 
L 161.251765 113.919319 
Q 163.002353 113.919319 163.002353 112.168731 
L 163.002353 84.159319 
Q 163.002353 82.408731 161.251765 82.408731 
L 129.741176 82.408731 
Q 127.990588 82.408731 127.990588 84.159319 
L 127.990588 112.168731 
Q 127.990588 113.919319 129.741176 113.919319 
z
" clip-path="url(#p27914892c7)" style="fill: #ffb347; stroke: #cc7000; stroke-width: 1.5; stroke-linejoin: miter"/>
   </g>
   <g id="patch_6">
    <path d="M 164.752941 113.919319 
L 196.263529 113.919319 
Q 198.014118 113.919319 198.014118 112.168731 
L 198.014118 84.159319 
Q 198.014118 82.408731 196.263529 82.408731 
L 164.752941 82.408731 
Q 163.002353 82.408731 163.002353 84.159319 
L 163.002353 112.168731 
Q 163.002353 113.919319 164.752941 113.919319 
z
" clip-path="url(#p27914892c7)" style="fill: #ffb347; stroke: #cc7000; stroke-width: 1.5; stroke-linejoin: miter"/>
   </g>
   <g id="patch_7">
    <path d="M 199.764706 113.919319 
L 231.275294 113.919319 
Q 233.025882 113.919319 233.025882 112.168731 
L 233.025882 84.159319 
Q 233.025882 82.408731 231.275294 82.408731 
L 199.764706 82.408731 
Q 198.014118 82.408731 198.014118 84.159319 
L 198.014118 112.168731 
Q 198.014118 113.919319 199.764706 113.919319 
z
" clip-path="url(#p27914892c7)" style="fill: #ffb347; stroke: #cc7000; stroke-width: 1.5; stroke-linejoin: miter"/>
   </g>
   <g id="text_1">
    <!-- 2 -->
    <g transform="translate(46.094237 67.015385) scale(0.14 -0.14)">
     <defs>
      <path id="DejaVuSans-Bold-32" d="M 1844 884 
L 3897 884 
L 3897 0 
L 506 0 
L 506 884 
L 2209 2388 
Q 2438 2594 2547 2791 
Q 2656 2988 2656 3200 
Q 2656 3528 2436 3728 
Q 2216 3928 1850 3928 
Q 1569 3928 1234 3808 
Q 900 3688 519 3450 
L 519 4475 
Q 925 4609 1322 4679 
Q 1719 4750 2100 4750 
Q 2938 4750 3402 4381 
Q 3866 4013 3866 3353 
Q 3866 2972 3669 2642 
Q 3472 2313 2841 1759 
L 1844 884 
z
" transform="scale(0.015625)"/>
     </defs>
     <use xlink:href="#DejaVuSans-Bold-32"/>
    </g>
   </g>
   <g id="text_2">
    <!-- 5 -->
    <g transform="translate(46.094237 102.02715) scale(0.14 -0.14)">
     <defs>
      <path id="DejaVuSans-Bold-35" d="M 678 4666 
L 3669 4666 
L 3669 3781 
L 1638 3781 
L 1638 3059 
Q 1775 3097 1914 3117 
Q 2053 3138 2203 3138 
Q 3056 3138 3531 2711 
Q 4006 2284 4006 1522 
Q 4006 766 3489 337 
Q 2972 -91 2053 -91 
Q 1656 -91 1267 -14 
Q 878 63 494 219 
L 494 1166 
Q 875 947 1217 837 
Q 1559 728 1863 728 
Q 2300 728 2551 942 
Q 2803 1156 2803 1522 
Q 2803 1891 2551 2103 
Q 2300 2316 1863 2316 
Q 1603 2316 1309 2248 
Q 1016 2181 678 2041 
L 678 4666 
z
" transform="scale(0.015625)"/>
     </defs>
     <use xlink:href="#DejaVuSans-Bold-35"/>
    </g>
   </g>
   <g id="text_3">
    <!-- 7 -->
    <g transform="translate(46.094237 137.038914) scale(0.14 -0.14)">
     <defs>
      <path id="DejaVuSans-Bold-37" d="M 428 4666 
L 3944 4666 
L 3944 3988 
L 2125 0 
L 953 0 
L 2675 3781 
L 428 3781 
L 428 4666 
z
" transform="scale(0.015625)"/>
     </defs>
     <use xlink:href="#DejaVuSans-Bold-37"/>
    </g>
   </g>
   <g id="patch_8">
    <path d="M 82.72489 98.164025 
Q 94.73098 98.164025 105.06002 98.164025 
" style="fill: none; stroke: #808080; stroke-width: 1.5; stroke-linecap: round"/>
    <path d="M 101.06002 96.164025 
L 105.06002 98.164025 
L 101.06002 100.164025 
" style="fill: none; stroke: #808080; stroke-width: 1.5; stroke-linecap: round"/>
   </g>
   <g id="text_4">
    <!-- T -->
    <g style="fill: #808080" transform="translate(91.064724 83.414282) scale(0.12 -0.12)">
     <defs>
      <path id="DejaVuSans-Oblique-54" d="M 378 4666 
L 4325 4666 
L 4225 4134 
L 2559 4134 
L 1759 0 
L 1125 0 
L 1925 4134 
L 275 4134 
L 378 4666 
z
" transform="scale(0.015625)"/>
     </defs>
     <use xlink:href="#DejaVuSans-Oblique-54"/>
    </g>
   </g>
   <g id="text_5">
    <!-- 2 -->
    <g transform="translate(140.626002 102.02715) scale(0.14 -0.14)">
     <use xlink:href="#DejaVuSans-Bold-32"/>
    </g>
   </g>
   <g id="text_6">
    <!-- 5 -->
    <g transform="translate(175.637767 102.02715) scale(0.14 -0.14)">
     <use xlink:href="#DejaVuSans-Bold-35"/>
    </g>
   </g>
   <g id="text_7">
    <!-- 7 -->
    <g transform="translate(210.649531 102.02715) scale(0.14 -0.14)">
     <use xlink:href="#DejaVuSans-Bold-37"/>
    </g>
   </g>
   <g id="text_8">
    <!-- $\mathbf{x}$ -->
    <g style="fill: #4682b4" transform="translate(46.739706 38.644025) scale(0.13 -0.13)">
     <defs>
      <path id="DejaVuSans-Bold-78" d="M 1422 1791 
L 159 3500 
L 1344 3500 
L 2059 2463 
L 2784 3500 
L 3969 3500 
L 2706 1797 
L 4031 0 
L 2847 0 
L 2059 1106 
L 1281 0 
L 97 0 
L 1422 1791 
z
" transform="scale(0.015625)"/>
     </defs>
     <use xlink:href="#DejaVuSans-Bold-78" transform="translate(0 0.3125)"/>
    </g>
   </g>
   <g id="text_9">
    <!-- $\mathbf{x}^T$ -->
    <g style="fill: #cc7000" transform="translate(173.293235 73.655789) scale(0.13 -0.13)">
     <use xlink:href="#DejaVuSans-Bold-78" transform="translate(0 0.684375)"/>
     <use xlink:href="#DejaVuSans-Oblique-54" transform="translate(65.458984 38.965625) scale(0.7)"/>
    </g>
   </g>
   <g id="text_10">
    <!-- Vector transpose -->
    <g style="fill: #808080" transform="translate(109.480312 16.639319) scale(0.11 -0.11)">
     <defs>
      <path id="DejaVuSans-56" d="M 1831 0 
L 50 4666 
L 709 4666 
L 2188 738 
L 3669 4666 
L 4325 4666 
L 2547 0 
L 1831 0 
z
" transform="scale(0.015625)"/>
      <path id="DejaVuSans-65" d="M 3597 1894 
L 3597 1613 
L 953 1613 
Q 991 1019 1311 708 
Q 1631 397 2203 397 
Q 2534 397 2845 478 
Q 3156 559 3463 722 
L 3463 178 
Q 3153 47 2828 -22 
Q 2503 -91 2169 -91 
Q 1331 -91 842 396 
Q 353 884 353 1716 
Q 353 2575 817 3079 
Q 1281 3584 2069 3584 
Q 2775 3584 3186 3129 
Q 3597 2675 3597 1894 
z
M 3022 2063 
Q 3016 2534 2758 2815 
Q 2500 3097 2075 3097 
Q 1594 3097 1305 2825 
Q 1016 2553 972 2059 
L 3022 2063 
z
" transform="scale(0.015625)"/>
      <path id="DejaVuSans-63" d="M 3122 3366 
L 3122 2828 
Q 2878 2963 2633 3030 
Q 2388 3097 2138 3097 
Q 1578 3097 1268 2742 
Q 959 2388 959 1747 
Q 959 1106 1268 751 
Q 1578 397 2138 397 
Q 2388 397 2633 464 
Q 2878 531 3122 666 
L 3122 134 
Q 2881 22 2623 -34 
Q 2366 -91 2075 -91 
Q 1284 -91 818 406 
Q 353 903 353 1747 
Q 353 2603 823 3093 
Q 1294 3584 2113 3584 
Q 2378 3584 2631 3529 
Q 2884 3475 3122 3366 
z
" transform="scale(0.015625)"/>
      <path id="DejaVuSans-74" d="M 1172 4494 
L 1172 3500 
L 2356 3500 
L 2356 3053 
L 1172 3053 
L 1172 1153 
Q 1172 725 1289 603 
Q 1406 481 1766 481 
L 2356 481 
L 2356 0 
L 1766 0 
Q 1100 0 847 248 
Q 594 497 594 1153 
L 594 3053 
L 172 3053 
L 172 3500 
L 594 3500 
L 594 4494 
L 1172 4494 
z
" transform="scale(0.015625)"/>
      <path id="DejaVuSans-6f" d="M 1959 3097 
Q 1497 3097 1228 2736 
Q 959 2375 959 1747 
Q 959 1119 1226 758 
Q 1494 397 1959 397 
Q 2419 397 2687 759 
Q 2956 1122 2956 1747 
Q 2956 2369 2687 2733 
Q 2419 3097 1959 3097 
z
M 1959 3584 
Q 2709 3584 3137 3096 
Q 3566 2609 3566 1747 
Q 3566 888 3137 398 
Q 2709 -91 1959 -91 
Q 1206 -91 779 398 
Q 353 888 353 1747 
Q 353 2609 779 3096 
Q 1206 3584 1959 3584 
z
" transform="scale(0.015625)"/>
      <path id="DejaVuSans-72" d="M 2631 2963 
Q 2534 3019 2420 3045 
Q 2306 3072 2169 3072 
Q 1681 3072 1420 2755 
Q 1159 2438 1159 1844 
L 1159 0 
L 581 0 
L 581 3500 
L 1159 3500 
L 1159 2956 
Q 1341 3275 1631 3429 
Q 1922 3584 2338 3584 
Q 2397 3584 2469 3576 
Q 2541 3569 2628 3553 
L 2631 2963 
z
" transform="scale(0.015625)"/>
      <path id="DejaVuSans-20" transform="scale(0.015625)"/>
      <path id="DejaVuSans-61" d="M 2194 1759 
Q 1497 1759 1228 1600 
Q 959 1441 959 1056 
Q 959 750 1161 570 
Q 1363 391 1709 391 
Q 2188 391 2477 730 
Q 2766 1069 2766 1631 
L 2766 1759 
L 2194 1759 
z
M 3341 1997 
L 3341 0 
L 2766 0 
L 2766 531 
Q 2569 213 2275 61 
Q 1981 -91 1556 -91 
Q 1019 -91 701 211 
Q 384 513 384 1019 
Q 384 1609 779 1909 
Q 1175 2209 1959 2209 
L 2766 2209 
L 2766 2266 
Q 2766 2663 2505 2880 
Q 2244 3097 1772 3097 
Q 1472 3097 1187 3025 
Q 903 2953 641 2809 
L 641 3341 
Q 956 3463 1253 3523 
Q 1550 3584 1831 3584 
Q 2591 3584 2966 3190 
Q 3341 2797 3341 1997 
z
" transform="scale(0.015625)"/>
      <path id="DejaVuSans-6e" d="M 3513 2113 
L 3513 0 
L 2938 0 
L 2938 2094 
Q 2938 2591 2744 2837 
Q 2550 3084 2163 3084 
Q 1697 3084 1428 2787 
Q 1159 2491 1159 1978 
L 1159 0 
L 581 0 
L 581 3500 
L 1159 3500 
L 1159 2956 
Q 1366 3272 1645 3428 
Q 1925 3584 2291 3584 
Q 2894 3584 3203 3211 
Q 3513 2838 3513 2113 
z
" transform="scale(0.015625)"/>
      <path id="DejaVuSans-73" d="M 2834 3397 
L 2834 2853 
Q 2591 2978 2328 3040 
Q 2066 3103 1784 3103 
Q 1356 3103 1142 2972 
Q 928 2841 928 2578 
Q 928 2378 1081 2264 
Q 1234 2150 1697 2047 
L 1894 2003 
Q 2506 1872 2764 1633 
Q 3022 1394 3022 966 
Q 3022 478 2636 193 
Q 2250 -91 1575 -91 
Q 1294 -91 989 -36 
Q 684 19 347 128 
L 347 722 
Q 666 556 975 473 
Q 1284 391 1588 391 
Q 1994 391 2212 530 
Q 2431 669 2431 922 
Q 2431 1156 2273 1281 
Q 2116 1406 1581 1522 
L 1381 1569 
Q 847 1681 609 1914 
Q 372 2147 372 2553 
Q 372 3047 722 3315 
Q 1072 3584 1716 3584 
Q 2034 3584 2315 3537 
Q 2597 3491 2834 3397 
z
" transform="scale(0.015625)"/>
      <path id="DejaVuSans-70" d="M 1159 525 
L 1159 -1331 
L 581 -1331 
L 581 3500 
L 1159 3500 
L 1159 2969 
Q 1341 3281 1617 3432 
Q 1894 3584 2278 3584 
Q 2916 3584 3314 3078 
Q 3713 2572 3713 1747 
Q 3713 922 3314 415 
Q 2916 -91 2278 -91 
Q 1894 -91 1617 61 
Q 1341 213 1159 525 
z
M 3116 1747 
Q 3116 2381 2855 2742 
Q 2594 3103 2138 3103 
Q 1681 3103 1420 2742 
Q 1159 2381 1159 1747 
Q 1159 1113 1420 752 
Q 1681 391 2138 391 
Q 2594 391 2855 752 
Q 3116 1113 3116 1747 
z
" transform="scale(0.015625)"/>
     </defs>
     <use xlink:href="#DejaVuSans-56"/>
     <use xlink:href="#DejaVuSans-65" transform="translate(60.658203 0)"/>
     <use xlink:href="#DejaVuSans-63" transform="translate(122.181641 0)"/>
     <use xlink:href="#DejaVuSans-74" transform="translate(177.162109 0)"/>
     <use xlink:href="#DejaVuSans-6f" transform="translate(216.371094 0)"/>
     <use xlink:href="#DejaVuSans-72" transform="translate(277.552734 0)"/>
     <use xlink:href="#DejaVuSans-20" transform="translate(318.666016 0)"/>
     <use xlink:href="#DejaVuSans-74" transform="translate(350.453125 0)"/>
     <use xlink:href="#DejaVuSans-72" transform="translate(389.662109 0)"/>
     <use xlink:href="#DejaVuSans-61" transform="translate(430.775391 0)"/>
     <use xlink:href="#DejaVuSans-6e" transform="translate(492.054688 0)"/>
     <use xlink:href="#DejaVuSans-73" transform="translate(555.433594 0)"/>
     <use xlink:href="#DejaVuSans-70" transform="translate(607.533203 0)"/>
     <use xlink:href="#DejaVuSans-6f" transform="translate(671.009766 0)"/>
     <use xlink:href="#DejaVuSans-73" transform="translate(732.191406 0)"/>
     <use xlink:href="#DejaVuSans-65" transform="translate(784.291016 0)"/>
    </g>
   </g>
  </g>
  <g id="axes_2">
   <g id="patch_9">
    <path d="M 334.395789 79.921053 
L 359.456842 79.921053 
Q 361.023158 79.921053 361.023158 78.354737 
L 361.023158 53.293684 
Q 361.023158 51.727368 359.456842 51.727368 
L 334.395789 51.727368 
Q 332.829474 51.727368 332.829474 53.293684 
L 332.829474 78.354737 
Q 332.829474 79.921053 334.395789 79.921053 
z
" clip-path="url(#pf9bc9f4476)" style="fill: #87ceeb; stroke: #555555; stroke-width: 1.2; stroke-linejoin: miter"/>
   </g>
   <g id="patch_10">
    <path d="M 365.722105 79.921053 
L 390.783158 79.921053 
Q 392.349474 79.921053 392.349474 78.354737 
L 392.349474 53.293684 
Q 392.349474 51.727368 390.783158 51.727368 
L 365.722105 51.727368 
Q 364.155789 51.727368 364.155789 53.293684 
L 364.155789 78.354737 
Q 364.155789 79.921053 365.722105 79.921053 
z
" clip-path="url(#pf9bc9f4476)" style="fill: #90ee90; stroke: #555555; stroke-width: 1.2; stroke-linejoin: miter"/>
   </g>
   <g id="patch_11">
    <path d="M 334.395789 111.247368 
L 359.456842 111.247368 
Q 361.023158 111.247368 361.023158 109.681053 
L 361.023158 84.62 
Q 361.023158 83.053684 359.456842 83.053684 
L 334.395789 83.053684 
Q 332.829474 83.053684 332.829474 84.62 
L 332.829474 109.681053 
Q 332.829474 111.247368 334.395789 111.247368 
z
" clip-path="url(#pf9bc9f4476)" style="fill: #87ceeb; stroke: #555555; stroke-width: 1.2; stroke-linejoin: miter"/>
   </g>
   <g id="patch_12">
    <path d="M 365.722105 111.247368 
L 390.783158 111.247368 
Q 392.349474 111.247368 392.349474 109.681053 
L 392.349474 84.62 
Q 392.349474 83.053684 390.783158 83.053684 
L 365.722105 83.053684 
Q 364.155789 83.053684 364.155789 84.62 
L 364.155789 109.681053 
Q 364.155789 111.247368 365.722105 111.247368 
z
" clip-path="url(#pf9bc9f4476)" style="fill: #90ee90; stroke: #555555; stroke-width: 1.2; stroke-linejoin: miter"/>
   </g>
   <g id="patch_13">
    <path d="M 334.395789 142.573684 
L 359.456842 142.573684 
Q 361.023158 142.573684 361.023158 141.007368 
L 361.023158 115.946316 
Q 361.023158 114.38 359.456842 114.38 
L 334.395789 114.38 
Q 332.829474 114.38 332.829474 115.946316 
L 332.829474 141.007368 
Q 332.829474 142.573684 334.395789 142.573684 
z
" clip-path="url(#pf9bc9f4476)" style="fill: #87ceeb; stroke: #555555; stroke-width: 1.2; stroke-linejoin: miter"/>
   </g>
   <g id="patch_14">
    <path d="M 365.722105 142.573684 
L 390.783158 142.573684 
Q 392.349474 142.573684 392.349474 141.007368 
L 392.349474 115.946316 
Q 392.349474 114.38 390.783158 114.38 
L 365.722105 114.38 
Q 364.155789 114.38 364.155789 115.946316 
L 364.155789 141.007368 
Q 364.155789 142.573684 365.722105 142.573684 
z
" clip-path="url(#pf9bc9f4476)" style="fill: #90ee90; stroke: #555555; stroke-width: 1.2; stroke-linejoin: miter"/>
   </g>
   <g id="patch_15">
    <path d="M 450.303158 95.584211 
L 475.364211 95.584211 
Q 476.930526 95.584211 476.930526 94.017895 
L 476.930526 68.956842 
Q 476.930526 67.390526 475.364211 67.390526 
L 450.303158 67.390526 
Q 448.736842 67.390526 448.736842 68.956842 
L 448.736842 94.017895 
Q 448.736842 95.584211 450.303158 95.584211 
z
" clip-path="url(#pf9bc9f4476)" style="fill: #87ceeb; stroke: #555555; stroke-width: 1.2; stroke-linejoin: miter"/>
   </g>
   <g id="patch_16">
    <path d="M 481.629474 95.584211 
L 506.690526 95.584211 
Q 508.256842 95.584211 508.256842 94.017895 
L 508.256842 68.956842 
Q 508.256842 67.390526 506.690526 67.390526 
L 481.629474 67.390526 
Q 480.063158 67.390526 480.063158 68.956842 
L 480.063158 94.017895 
Q 480.063158 95.584211 481.629474 95.584211 
z
" clip-path="url(#pf9bc9f4476)" style="fill: #87ceeb; stroke: #555555; stroke-width: 1.2; stroke-linejoin: miter"/>
   </g>
   <g id="patch_17">
    <path d="M 512.955789 95.584211 
L 538.016842 95.584211 
Q 539.583158 95.584211 539.583158 94.017895 
L 539.583158 68.956842 
Q 539.583158 67.390526 538.016842 67.390526 
L 512.955789 67.390526 
Q 511.389474 67.390526 511.389474 68.956842 
L 511.389474 94.017895 
Q 511.389474 95.584211 512.955789 95.584211 
z
" clip-path="url(#pf9bc9f4476)" style="fill: #87ceeb; stroke: #555555; stroke-width: 1.2; stroke-linejoin: miter"/>
   </g>
   <g id="patch_18">
    <path d="M 450.303158 126.910526 
L 475.364211 126.910526 
Q 476.930526 126.910526 476.930526 125.344211 
L 476.930526 100.283158 
Q 476.930526 98.716842 475.364211 98.716842 
L 450.303158 98.716842 
Q 448.736842 98.716842 448.736842 100.283158 
L 448.736842 125.344211 
Q 448.736842 126.910526 450.303158 126.910526 
z
" clip-path="url(#pf9bc9f4476)" style="fill: #90ee90; stroke: #555555; stroke-width: 1.2; stroke-linejoin: miter"/>
   </g>
   <g id="patch_19">
    <path d="M 481.629474 126.910526 
L 506.690526 126.910526 
Q 508.256842 126.910526 508.256842 125.344211 
L 508.256842 100.283158 
Q 508.256842 98.716842 506.690526 98.716842 
L 481.629474 98.716842 
Q 480.063158 98.716842 480.063158 100.283158 
L 480.063158 125.344211 
Q 480.063158 126.910526 481.629474 126.910526 
z
" clip-path="url(#pf9bc9f4476)" style="fill: #90ee90; stroke: #555555; stroke-width: 1.2; stroke-linejoin: miter"/>
   </g>
   <g id="patch_20">
    <path d="M 512.955789 126.910526 
L 538.016842 126.910526 
Q 539.583158 126.910526 539.583158 125.344211 
L 539.583158 100.283158 
Q 539.583158 98.716842 538.016842 98.716842 
L 512.955789 98.716842 
Q 511.389474 98.716842 511.389474 100.283158 
L 511.389474 125.344211 
Q 511.389474 126.910526 512.955789 126.910526 
z
" clip-path="url(#pf9bc9f4476)" style="fill: #90ee90; stroke: #555555; stroke-width: 1.2; stroke-linejoin: miter"/>
   </g>
   <g id="text_11">
    <!-- 1 -->
    <g transform="translate(342.055847 69.687336) scale(0.14 -0.14)">
     <defs>
      <path id="DejaVuSans-Bold-31" d="M 750 831 
L 1813 831 
L 1813 3847 
L 722 3622 
L 722 4441 
L 1806 4666 
L 2950 4666 
L 2950 831 
L 4013 831 
L 4013 0 
L 750 0 
L 750 831 
z
" transform="scale(0.015625)"/>
     </defs>
     <use xlink:href="#DejaVuSans-Bold-31"/>
    </g>
   </g>
   <g id="text_12">
    <!-- 4 -->
    <g transform="translate(373.382163 69.687336) scale(0.14 -0.14)">
     <defs>
      <path id="DejaVuSans-Bold-34" d="M 2356 3675 
L 1038 1722 
L 2356 1722 
L 2356 3675 
z
M 2156 4666 
L 3494 4666 
L 3494 1722 
L 4159 1722 
L 4159 850 
L 3494 850 
L 3494 0 
L 2356 0 
L 2356 850 
L 288 850 
L 288 1881 
L 2156 4666 
z
" transform="scale(0.015625)"/>
     </defs>
     <use xlink:href="#DejaVuSans-Bold-34"/>
    </g>
   </g>
   <g id="text_13">
    <!-- 2 -->
    <g transform="translate(342.055847 101.013651) scale(0.14 -0.14)">
     <use xlink:href="#DejaVuSans-Bold-32"/>
    </g>
   </g>
   <g id="text_14">
    <!-- 5 -->
    <g transform="translate(373.382163 101.013651) scale(0.14 -0.14)">
     <use xlink:href="#DejaVuSans-Bold-35"/>
    </g>
   </g>
   <g id="text_15">
    <!-- 3 -->
    <g transform="translate(342.055847 132.339967) scale(0.14 -0.14)">
     <defs>
      <path id="DejaVuSans-Bold-33" d="M 2981 2516 
Q 3453 2394 3698 2092 
Q 3944 1791 3944 1325 
Q 3944 631 3412 270 
Q 2881 -91 1863 -91 
Q 1503 -91 1142 -33 
Q 781 25 428 141 
L 428 1069 
Q 766 900 1098 814 
Q 1431 728 1753 728 
Q 2231 728 2486 893 
Q 2741 1059 2741 1369 
Q 2741 1688 2480 1852 
Q 2219 2016 1709 2016 
L 1228 2016 
L 1228 2791 
L 1734 2791 
Q 2188 2791 2409 2933 
Q 2631 3075 2631 3366 
Q 2631 3634 2415 3781 
Q 2200 3928 1806 3928 
Q 1516 3928 1219 3862 
Q 922 3797 628 3669 
L 628 4550 
Q 984 4650 1334 4700 
Q 1684 4750 2022 4750 
Q 2931 4750 3382 4451 
Q 3834 4153 3834 3553 
Q 3834 3144 3618 2883 
Q 3403 2622 2981 2516 
z
" transform="scale(0.015625)"/>
     </defs>
     <use xlink:href="#DejaVuSans-Bold-33"/>
    </g>
   </g>
   <g id="text_16">
    <!-- 6 -->
    <g transform="translate(373.382163 132.339967) scale(0.14 -0.14)">
     <defs>
      <path id="DejaVuSans-Bold-36" d="M 2316 2303 
Q 2000 2303 1842 2098 
Q 1684 1894 1684 1484 
Q 1684 1075 1842 870 
Q 2000 666 2316 666 
Q 2634 666 2792 870 
Q 2950 1075 2950 1484 
Q 2950 1894 2792 2098 
Q 2634 2303 2316 2303 
z
M 3803 4544 
L 3803 3681 
Q 3506 3822 3243 3889 
Q 2981 3956 2731 3956 
Q 2194 3956 1894 3657 
Q 1594 3359 1544 2772 
Q 1750 2925 1990 3001 
Q 2231 3078 2516 3078 
Q 3231 3078 3670 2659 
Q 4109 2241 4109 1563 
Q 4109 813 3618 361 
Q 3128 -91 2303 -91 
Q 1394 -91 895 523 
Q 397 1138 397 2266 
Q 397 3422 980 4083 
Q 1563 4744 2578 4744 
Q 2900 4744 3203 4694 
Q 3506 4644 3803 4544 
z
" transform="scale(0.015625)"/>
     </defs>
     <use xlink:href="#DejaVuSans-Bold-36"/>
    </g>
   </g>
   <g id="patch_21">
    <path d="M 408.446275 97.150526 
Q 422.108877 97.150526 434.094429 97.150526 
" style="fill: none; stroke: #808080; stroke-width: 1.5; stroke-linecap: round"/>
    <path d="M 430.094429 95.150526 
L 434.094429 97.150526 
L 430.094429 99.150526 
" style="fill: none; stroke: #808080; stroke-width: 1.5; stroke-linecap: round"/>
   </g>
   <g id="text_17">
    <!-- T -->
    <g style="fill: #808080" transform="translate(418.444786 83.690691) scale(0.12 -0.12)">
     <use xlink:href="#DejaVuSans-Oblique-54"/>
    </g>
   </g>
   <g id="text_18">
    <!-- 1 -->
    <g transform="translate(457.963215 85.350493) scale(0.14 -0.14)">
     <use xlink:href="#DejaVuSans-Bold-31"/>
    </g>
   </g>
   <g id="text_19">
    <!-- 2 -->
    <g transform="translate(489.289531 85.350493) scale(0.14 -0.14)">
     <use xlink:href="#DejaVuSans-Bold-32"/>
    </g>
   </g>
   <g id="text_20">
    <!-- 3 -->
    <g transform="translate(520.615847 85.350493) scale(0.14 -0.14)">
     <use xlink:href="#DejaVuSans-Bold-33"/>
    </g>
   </g>
   <g id="text_21">
    <!-- 4 -->
    <g transform="translate(457.963215 116.676809) scale(0.14 -0.14)">
     <use xlink:href="#DejaVuSans-Bold-34"/>
    </g>
   </g>
   <g id="text_22">
    <!-- 5 -->
    <g transform="translate(489.289531 116.676809) scale(0.14 -0.14)">
     <use xlink:href="#DejaVuSans-Bold-35"/>
    </g>
   </g>
   <g id="text_23">
    <!-- 6 -->
    <g transform="translate(520.615847 116.676809) scale(0.14 -0.14)">
     <use xlink:href="#DejaVuSans-Bold-36"/>
    </g>
   </g>
   <g id="text_24">
    <!-- $A$  ($3 \times 2$) -->
    <g style="fill: #808080" transform="translate(340.367105 40.763158) scale(0.11 -0.11)">
     <defs>
      <path id="DejaVuSans-Oblique-41" d="M 2356 4666 
L 3072 4666 
L 3938 0 
L 3278 0 
L 3084 1197 
L 984 1197 
L 325 0 
L -341 0 
L 2356 4666 
z
M 2584 4044 
L 1275 1722 
L 2988 1722 
L 2584 4044 
z
" transform="scale(0.015625)"/>
      <path id="DejaVuSans-28" d="M 1984 4856 
Q 1566 4138 1362 3434 
Q 1159 2731 1159 2009 
Q 1159 1288 1364 580 
Q 1569 -128 1984 -844 
L 1484 -844 
Q 1016 -109 783 600 
Q 550 1309 550 2009 
Q 550 2706 781 3412 
Q 1013 4119 1484 4856 
L 1984 4856 
z
" transform="scale(0.015625)"/>
      <path id="DejaVuSans-33" d="M 2597 2516 
Q 3050 2419 3304 2112 
Q 3559 1806 3559 1356 
Q 3559 666 3084 287 
Q 2609 -91 1734 -91 
Q 1441 -91 1130 -33 
Q 819 25 488 141 
L 488 750 
Q 750 597 1062 519 
Q 1375 441 1716 441 
Q 2309 441 2620 675 
Q 2931 909 2931 1356 
Q 2931 1769 2642 2001 
Q 2353 2234 1838 2234 
L 1294 2234 
L 1294 2753 
L 1863 2753 
Q 2328 2753 2575 2939 
Q 2822 3125 2822 3475 
Q 2822 3834 2567 4026 
Q 2313 4219 1838 4219 
Q 1578 4219 1281 4162 
Q 984 4106 628 3988 
L 628 4550 
Q 988 4650 1302 4700 
Q 1616 4750 1894 4750 
Q 2613 4750 3031 4423 
Q 3450 4097 3450 3541 
Q 3450 3153 3228 2886 
Q 3006 2619 2597 2516 
z
" transform="scale(0.015625)"/>
      <path id="DejaVuSans-d7" d="M 4488 3438 
L 3059 2003 
L 4488 575 
L 4116 197 
L 2681 1631 
L 1247 197 
L 878 575 
L 2303 2003 
L 878 3438 
L 1247 3816 
L 2681 2381 
L 4116 3816 
L 4488 3438 
z
" transform="scale(0.015625)"/>
      <path id="DejaVuSans-32" d="M 1228 531 
L 3431 531 
L 3431 0 
L 469 0 
L 469 531 
Q 828 903 1448 1529 
Q 2069 2156 2228 2338 
Q 2531 2678 2651 2914 
Q 2772 3150 2772 3378 
Q 2772 3750 2511 3984 
Q 2250 4219 1831 4219 
Q 1534 4219 1204 4116 
Q 875 4013 500 3803 
L 500 4441 
Q 881 4594 1212 4672 
Q 1544 4750 1819 4750 
Q 2544 4750 2975 4387 
Q 3406 4025 3406 3419 
Q 3406 3131 3298 2873 
Q 3191 2616 2906 2266 
Q 2828 2175 2409 1742 
Q 1991 1309 1228 531 
z
" transform="scale(0.015625)"/>
      <path id="DejaVuSans-29" d="M 513 4856 
L 1013 4856 
Q 1481 4119 1714 3412 
Q 1947 2706 1947 2009 
Q 1947 1309 1714 600 
Q 1481 -109 1013 -844 
L 513 -844 
Q 928 -128 1133 580 
Q 1338 1288 1338 2009 
Q 1338 2731 1133 3434 
Q 928 4138 513 4856 
z
" transform="scale(0.015625)"/>
     </defs>
     <use xlink:href="#DejaVuSans-Oblique-41" transform="translate(0 0.125)"/>
     <use xlink:href="#DejaVuSans-20" transform="translate(68.408203 0.125)"/>
     <use xlink:href="#DejaVuSans-20" transform="translate(100.195312 0.125)"/>
     <use xlink:href="#DejaVuSans-28" transform="translate(131.982422 0.125)"/>
     <use xlink:href="#DejaVuSans-33" transform="translate(170.996094 0.125)"/>
     <use xlink:href="#DejaVuSans-d7" transform="translate(254.101562 0.125)"/>
     <use xlink:href="#DejaVuSans-32" transform="translate(357.373047 0.125)"/>
     <use xlink:href="#DejaVuSans-29" transform="translate(420.996094 0.125)"/>
    </g>
   </g>
   <g id="text_25">
    <!-- $A^T$  ($2 \times 3$) -->
    <g style="fill: #808080" transform="translate(465.945 47.028421) scale(0.11 -0.11)">
     <use xlink:href="#DejaVuSans-Oblique-41" transform="translate(0 0.684375)"/>
     <use xlink:href="#DejaVuSans-Oblique-54" transform="translate(75.424974 38.965625) scale(0.7)"/>
     <use xlink:href="#DejaVuSans-20" transform="translate(120.918138 0.684375)"/>
     <use xlink:href="#DejaVuSans-20" transform="translate(152.705247 0.684375)"/>
     <use xlink:href="#DejaVuSans-28" transform="translate(184.492357 0.684375)"/>
     <use xlink:href="#DejaVuSans-32" transform="translate(223.506029 0.684375)"/>
     <use xlink:href="#DejaVuSans-d7" transform="translate(306.611497 0.684375)"/>
     <use xlink:href="#DejaVuSans-33" transform="translate(409.882982 0.684375)"/>
     <use xlink:href="#DejaVuSans-29" transform="translate(473.506029 0.684375)"/>
    </g>
   </g>
   <g id="text_26">
    <!-- Matrix transpose -->
    <g style="fill: #808080" transform="translate(418.090859 17.1) scale(0.11 -0.11)">
     <defs>
      <path id="DejaVuSans-4d" d="M 628 4666 
L 1569 4666 
L 2759 1491 
L 3956 4666 
L 4897 4666 
L 4897 0 
L 4281 0 
L 4281 4097 
L 3078 897 
L 2444 897 
L 1241 4097 
L 1241 0 
L 628 0 
L 628 4666 
z
" transform="scale(0.015625)"/>
      <path id="DejaVuSans-69" d="M 603 3500 
L 1178 3500 
L 1178 0 
L 603 0 
L 603 3500 
z
M 603 4863 
L 1178 4863 
L 1178 4134 
L 603 4134 
L 603 4863 
z
" transform="scale(0.015625)"/>
      <path id="DejaVuSans-78" d="M 3513 3500 
L 2247 1797 
L 3578 0 
L 2900 0 
L 1881 1375 
L 863 0 
L 184 0 
L 1544 1831 
L 300 3500 
L 978 3500 
L 1906 2253 
L 2834 3500 
L 3513 3500 
z
" transform="scale(0.015625)"/>
     </defs>
     <use xlink:href="#DejaVuSans-4d"/>
     <use xlink:href="#DejaVuSans-61" transform="translate(86.279297 0)"/>
     <use xlink:href="#DejaVuSans-74" transform="translate(147.558594 0)"/>
     <use xlink:href="#DejaVuSans-72" transform="translate(186.767578 0)"/>
     <use xlink:href="#DejaVuSans-69" transform="translate(227.880859 0)"/>
     <use xlink:href="#DejaVuSans-78" transform="translate(255.664062 0)"/>
     <use xlink:href="#DejaVuSans-20" transform="translate(314.84375 0)"/>
     <use xlink:href="#DejaVuSans-74" transform="translate(346.630859 0)"/>
     <use xlink:href="#DejaVuSans-72" transform="translate(385.839844 0)"/>
     <use xlink:href="#DejaVuSans-61" transform="translate(426.953125 0)"/>
     <use xlink:href="#DejaVuSans-6e" transform="translate(488.232422 0)"/>
     <use xlink:href="#DejaVuSans-73" transform="translate(551.611328 0)"/>
     <use xlink:href="#DejaVuSans-70" transform="translate(603.710938 0)"/>
     <use xlink:href="#DejaVuSans-6f" transform="translate(667.1875 0)"/>
     <use xlink:href="#DejaVuSans-73" transform="translate(728.369141 0)"/>
     <use xlink:href="#DejaVuSans-65" transform="translate(780.46875 0)"/>
    </g>
   </g>
  </g>
  <g id="axes_3">
   <g id="patch_22">
    <path d="M 642.795789 89.318947 
L 667.856842 89.318947 
Q 669.423158 89.318947 669.423158 87.752632 
L 669.423158 62.691579 
Q 669.423158 61.125263 667.856842 61.125263 
L 642.795789 61.125263 
Q 641.229474 61.125263 641.229474 62.691579 
L 641.229474 87.752632 
Q 641.229474 89.318947 642.795789 89.318947 
z
" clip-path="url(#p7a606f8b4d)" style="fill: #87ceeb; stroke: #4682b4; stroke-width: 1.5; stroke-linejoin: miter"/>
   </g>
   <g id="patch_23">
    <path d="M 674.122105 89.318947 
L 699.183158 89.318947 
Q 700.749474 89.318947 700.749474 87.752632 
L 700.749474 62.691579 
Q 700.749474 61.125263 699.183158 61.125263 
L 674.122105 61.125263 
Q 672.555789 61.125263 672.555789 62.691579 
L 672.555789 87.752632 
Q 672.555789 89.318947 674.122105 89.318947 
z
" clip-path="url(#p7a606f8b4d)" style="fill: #87ceeb; stroke: #4682b4; stroke-width: 1.5; stroke-linejoin: miter"/>
   </g>
   <g id="patch_24">
    <path d="M 705.448421 89.318947 
L 730.509474 89.318947 
Q 732.075789 89.318947 732.075789 87.752632 
L 732.075789 62.691579 
Q 732.075789 61.125263 730.509474 61.125263 
L 705.448421 61.125263 
Q 703.882105 61.125263 703.882105 62.691579 
L 703.882105 87.752632 
Q 703.882105 89.318947 705.448421 89.318947 
z
" clip-path="url(#p7a606f8b4d)" style="fill: #87ceeb; stroke: #4682b4; stroke-width: 1.5; stroke-linejoin: miter"/>
   </g>
   <g id="patch_25">
    <path d="M 758.703158 73.655789 
L 783.764211 73.655789 
Q 785.330526 73.655789 785.330526 72.089474 
L 785.330526 47.028421 
Q 785.330526 45.462105 783.764211 45.462105 
L 758.703158 45.462105 
Q 757.136842 45.462105 757.136842 47.028421 
L 757.136842 72.089474 
Q 757.136842 73.655789 758.703158 73.655789 
z
" clip-path="url(#p7a606f8b4d)" style="fill: #ffb347; stroke: #cc7000; stroke-width: 1.5; stroke-linejoin: miter"/>
   </g>
   <g id="patch_26">
    <path d="M 758.703158 104.982105 
L 783.764211 104.982105 
Q 785.330526 104.982105 785.330526 103.415789 
L 785.330526 78.354737 
Q 785.330526 76.788421 783.764211 76.788421 
L 758.703158 76.788421 
Q 757.136842 76.788421 757.136842 78.354737 
L 757.136842 103.415789 
Q 757.136842 104.982105 758.703158 104.982105 
z
" clip-path="url(#p7a606f8b4d)" style="fill: #ffb347; stroke: #cc7000; stroke-width: 1.5; stroke-linejoin: miter"/>
   </g>
   <g id="patch_27">
    <path d="M 758.703158 136.308421 
L 783.764211 136.308421 
Q 785.330526 136.308421 785.330526 134.742105 
L 785.330526 109.681053 
Q 785.330526 108.114737 783.764211 108.114737 
L 758.703158 108.114737 
Q 757.136842 108.114737 757.136842 109.681053 
L 757.136842 134.742105 
Q 757.136842 136.308421 758.703158 136.308421 
z
" clip-path="url(#p7a606f8b4d)" style="fill: #ffb347; stroke: #cc7000; stroke-width: 1.5; stroke-linejoin: miter"/>
   </g>
   <g id="text_27">
    <!-- 2 -->
    <g transform="translate(650.455847 79.08523) scale(0.14 -0.14)">
     <use xlink:href="#DejaVuSans-Bold-32"/>
    </g>
   </g>
   <g id="text_28">
    <!-- 4 -->
    <g transform="translate(681.782163 79.08523) scale(0.14 -0.14)">
     <use xlink:href="#DejaVuSans-Bold-34"/>
    </g>
   </g>
   <g id="text_29">
    <!-- 1 -->
    <g transform="translate(713.108479 79.08523) scale(0.14 -0.14)">
     <use xlink:href="#DejaVuSans-Bold-31"/>
    </g>
   </g>
   <g id="text_30">
    <!-- $\cdot$ -->
    <g transform="translate(739.84 80.740855) scale(0.2 -0.2)">
     <defs>
      <path id="DejaVuSans-22c5" d="M 684 2619 
L 1344 2619 
L 1344 1825 
L 684 1825 
L 684 2619 
z
" transform="scale(0.015625)"/>
     </defs>
     <use xlink:href="#DejaVuSans-22c5" transform="translate(0 0.078125)"/>
    </g>
   </g>
   <g id="text_31">
    <!-- 3 -->
    <g transform="translate(766.363215 63.422072) scale(0.14 -0.14)">
     <use xlink:href="#DejaVuSans-Bold-33"/>
    </g>
   </g>
   <g id="text_32">
    <!-- 5 -->
    <g transform="translate(766.363215 94.748388) scale(0.14 -0.14)">
     <use xlink:href="#DejaVuSans-Bold-35"/>
    </g>
   </g>
   <g id="text_33">
    <!-- 2 -->
    <g transform="translate(766.363215 126.074704) scale(0.14 -0.14)">
     <use xlink:href="#DejaVuSans-Bold-32"/>
    </g>
   </g>
   <g id="text_34">
    <!-- $= 28$ -->
    <g style="fill: #2e8b57" transform="translate(805.692632 107.830789) scale(0.16 -0.16)">
     <defs>
      <path id="DejaVuSans-3d" d="M 678 2906 
L 4684 2906 
L 4684 2381 
L 678 2381 
L 678 2906 
z
M 678 1631 
L 4684 1631 
L 4684 1100 
L 678 1100 
L 678 1631 
z
" transform="scale(0.015625)"/>
      <path id="DejaVuSans-38" d="M 2034 2216 
Q 1584 2216 1326 1975 
Q 1069 1734 1069 1313 
Q 1069 891 1326 650 
Q 1584 409 2034 409 
Q 2484 409 2743 651 
Q 3003 894 3003 1313 
Q 3003 1734 2745 1975 
Q 2488 2216 2034 2216 
z
M 1403 2484 
Q 997 2584 770 2862 
Q 544 3141 544 3541 
Q 544 4100 942 4425 
Q 1341 4750 2034 4750 
Q 2731 4750 3128 4425 
Q 3525 4100 3525 3541 
Q 3525 3141 3298 2862 
Q 3072 2584 2669 2484 
Q 3125 2378 3379 2068 
Q 3634 1759 3634 1313 
Q 3634 634 3220 271 
Q 2806 -91 2034 -91 
Q 1263 -91 848 271 
Q 434 634 434 1313 
Q 434 1759 690 2068 
Q 947 2378 1403 2484 
z
M 1172 3481 
Q 1172 3119 1398 2916 
Q 1625 2713 2034 2713 
Q 2441 2713 2670 2916 
Q 2900 3119 2900 3481 
Q 2900 3844 2670 4047 
Q 2441 4250 2034 4250 
Q 1625 4250 1398 4047 
Q 1172 3844 1172 3481 
z
" transform="scale(0.015625)"/>
     </defs>
     <use xlink:href="#DejaVuSans-3d" transform="translate(19.482422 0.78125)"/>
     <use xlink:href="#DejaVuSans-32" transform="translate(122.753906 0.78125)"/>
     <use xlink:href="#DejaVuSans-38" transform="translate(186.376953 0.78125)"/>
    </g>
   </g>
   <g id="text_35">
    <!-- $\mathbf{q}^T$ -->
    <g style="fill: #4682b4" transform="translate(679.512632 53.293684) scale(0.12 -0.12)">
     <defs>
      <path id="DejaVuSans-Bold-71" d="M 2181 2772 
Q 1825 2772 1636 2509 
Q 1447 2247 1447 1747 
Q 1447 1247 1636 984 
Q 1825 722 2181 722 
Q 2541 722 2730 984 
Q 2919 1247 2919 1747 
Q 2919 2247 2730 2509 
Q 2541 2772 2181 2772 
z
M 2919 506 
Q 2688 197 2409 53 
Q 2131 -91 1766 -91 
Q 1119 -91 703 423 
Q 288 938 288 1747 
Q 288 2556 703 3067 
Q 1119 3578 1766 3578 
Q 2131 3578 2409 3434 
Q 2688 3291 2919 2981 
L 2919 3500 
L 4044 3500 
L 4044 -1331 
L 2919 -1331 
L 2919 506 
z
" transform="scale(0.015625)"/>
     </defs>
     <use xlink:href="#DejaVuSans-Bold-71" transform="translate(0 0.684375)"/>
     <use xlink:href="#DejaVuSans-Oblique-54" transform="translate(72.539062 38.965625) scale(0.7)"/>
    </g>
   </g>
   <g id="text_36">
    <!-- $\mathbf{p}$ -->
    <g style="fill: #cc7000" transform="translate(766.913684 37.630526) scale(0.12 -0.12)">
     <defs>
      <path id="DejaVuSans-Bold-70" d="M 1656 506 
L 1656 -1331 
L 538 -1331 
L 538 3500 
L 1656 3500 
L 1656 2988 
Q 1888 3294 2169 3439 
Q 2450 3584 2816 3584 
Q 3463 3584 3878 3070 
Q 4294 2556 4294 1747 
Q 4294 938 3878 423 
Q 3463 -91 2816 -91 
Q 2450 -91 2169 54 
Q 1888 200 1656 506 
z
M 2400 2772 
Q 2041 2772 1848 2508 
Q 1656 2244 1656 1747 
Q 1656 1250 1848 986 
Q 2041 722 2400 722 
Q 2759 722 2948 984 
Q 3138 1247 3138 1747 
Q 3138 2247 2948 2509 
Q 2759 2772 2400 2772 
z
" transform="scale(0.015625)"/>
     </defs>
     <use xlink:href="#DejaVuSans-Bold-70"/>
    </g>
   </g>
   <g id="text_37">
    <!-- Dot product as $\mathbf{q}^T \mathbf{p}$ -->
    <g style="fill: #808080" transform="translate(719.835 17.1) scale(0.11 -0.11)">
     <defs>
      <path id="DejaVuSans-44" d="M 1259 4147 
L 1259 519 
L 2022 519 
Q 2988 519 3436 956 
Q 3884 1394 3884 2338 
Q 3884 3275 3436 3711 
Q 2988 4147 2022 4147 
L 1259 4147 
z
M 628 4666 
L 1925 4666 
Q 3281 4666 3915 4102 
Q 4550 3538 4550 2338 
Q 4550 1131 3912 565 
Q 3275 0 1925 0 
L 628 0 
L 628 4666 
z
" transform="scale(0.015625)"/>
      <path id="DejaVuSans-64" d="M 2906 2969 
L 2906 4863 
L 3481 4863 
L 3481 0 
L 2906 0 
L 2906 525 
Q 2725 213 2448 61 
Q 2172 -91 1784 -91 
Q 1150 -91 751 415 
Q 353 922 353 1747 
Q 353 2572 751 3078 
Q 1150 3584 1784 3584 
Q 2172 3584 2448 3432 
Q 2725 3281 2906 2969 
z
M 947 1747 
Q 947 1113 1208 752 
Q 1469 391 1925 391 
Q 2381 391 2643 752 
Q 2906 1113 2906 1747 
Q 2906 2381 2643 2742 
Q 2381 3103 1925 3103 
Q 1469 3103 1208 2742 
Q 947 2381 947 1747 
z
" transform="scale(0.015625)"/>
      <path id="DejaVuSans-75" d="M 544 1381 
L 544 3500 
L 1119 3500 
L 1119 1403 
Q 1119 906 1312 657 
Q 1506 409 1894 409 
Q 2359 409 2629 706 
Q 2900 1003 2900 1516 
L 2900 3500 
L 3475 3500 
L 3475 0 
L 2900 0 
L 2900 538 
Q 2691 219 2414 64 
Q 2138 -91 1772 -91 
Q 1169 -91 856 284 
Q 544 659 544 1381 
z
M 1991 3584 
L 1991 3584 
z
" transform="scale(0.015625)"/>
     </defs>
     <use xlink:href="#DejaVuSans-44" transform="translate(0 0.684375)"/>
     <use xlink:href="#DejaVuSans-6f" transform="translate(77.001953 0.684375)"/>
     <use xlink:href="#DejaVuSans-74" transform="translate(138.183594 0.684375)"/>
     <use xlink:href="#DejaVuSans-20" transform="translate(177.392578 0.684375)"/>
     <use xlink:href="#DejaVuSans-70" transform="translate(209.179688 0.684375)"/>
     <use xlink:href="#DejaVuSans-72" transform="translate(272.65625 0.684375)"/>
     <use xlink:href="#DejaVuSans-6f" transform="translate(313.769531 0.684375)"/>
     <use xlink:href="#DejaVuSans-64" transform="translate(374.951172 0.684375)"/>
     <use xlink:href="#DejaVuSans-75" transform="translate(438.427734 0.684375)"/>
     <use xlink:href="#DejaVuSans-63" transform="translate(501.806641 0.684375)"/>
     <use xlink:href="#DejaVuSans-74" transform="translate(556.787109 0.684375)"/>
     <use xlink:href="#DejaVuSans-20" transform="translate(595.996094 0.684375)"/>
     <use xlink:href="#DejaVuSans-61" transform="translate(627.783203 0.684375)"/>
     <use xlink:href="#DejaVuSans-73" transform="translate(689.0625 0.684375)"/>
     <use xlink:href="#DejaVuSans-20" transform="translate(741.162109 0.684375)"/>
     <use xlink:href="#DejaVuSans-Bold-71" transform="translate(772.949219 0.684375)"/>
     <use xlink:href="#DejaVuSans-Oblique-54" transform="translate(845.488281 38.965625) scale(0.7)"/>
     <use xlink:href="#DejaVuSans-Bold-70" transform="translate(890.981445 0.684375)"/>
    </g>
   </g>
  </g>
 </g>
 <defs>
  <clipPath id="p27914892c7">
   <rect x="7.2" y="24.639319" width="297.6" height="157.552941"/>
  </clipPath>
  <clipPath id="pf9bc9f4476">
   <rect x="315.6" y="25.1" width="297.6" height="156.631579"/>
  </clipPath>
  <clipPath id="p7a606f8b4d">
   <rect x="624" y="25.1" width="297.6" height="156.631579"/>
  </clipPath>
 </defs>
</svg>
