<?xml version="1.0" encoding="utf-8" standalone="no"?>
<!DOCTYPE svg PUBLIC "-//W3C//DTD SVG 1.1//EN"
  "http://www.w3.org/Graphics/SVG/1.1/DTD/svg11.dtd">
<svg xmlns:xlink="http://www.w3.org/1999/xlink" width="1000.8pt" height="507.6pt" viewBox="0 0 1000.8 507.6" xmlns="http://www.w3.org/2000/svg" version="1.1">
 <metadata>
  <rdf:RDF xmlns:dc="http://purl.org/dc/elements/1.1/" xmlns:cc="http://creativecommons.org/ns#" xmlns:rdf="http://www.w3.org/1999/02/22-rdf-syntax-ns#">
   <cc:Work>
    <dc:type rdf:resource="http://purl.org/dc/dcmitype/StillImage"/>
    <dc:date>2026-05-03T12:15:59.997335</dc:date>
    <dc:format>image/svg+xml</dc:format>
    <dc:creator>
     <cc:Agent>
      <dc:title>Matplotlib v3.10.8, https://matplotlib.org/</dc:title>
     </cc:Agent>
    </dc:creator>
   </cc:Work>
  </rdf:RDF>
 </metadata>
 <defs>
  <style type="text/css">*{stroke-linejoin: round; stroke-linecap: butt}</style>
 </defs>
 <g id="figure_1">
  <g id="patch_1">
   <path d="M 0 507.6 
L 1000.8 507.6 
L 1000.8 0 
L 0 0 
z
" style="fill: #ffffff"/>
  </g>
  <g id="axes_1">
   <g id="line2d_1">
    <path d="M 166.860691 129.211433 
L 346.557699 97.265298 
" clip-path="url(#p9adff476de)" style="fill: none; stroke: #d0d0d0; stroke-width: 0.7; stroke-linecap: square"/>
   </g>
   <g id="line2d_2">
    <path d="M 166.769045 137.753809 
L 346.736627 173.747325 
" clip-path="url(#p9adff476de)" style="fill: none; stroke: #d0d0d0; stroke-width: 0.7; stroke-linecap: square"/>
   </g>
   <g id="line2d_3">
    <path d="M 164.128751 144.754389 
L 351.891487 253.239526 
" clip-path="url(#p9adff476de)" style="fill: none; stroke: #d0d0d0; stroke-width: 0.7; stroke-linecap: square"/>
   </g>
   <g id="line2d_4">
    <path d="M 160.840354 149.140782 
L 358.31169 337.835615 
" clip-path="url(#p9adff476de)" style="fill: none; stroke: #d0d0d0; stroke-width: 0.7; stroke-linecap: square"/>
   </g>
   <g id="line2d_5">
    <path d="M 164.694245 204.965164 
L 350.787427 109.850871 
" clip-path="url(#p9adff476de)" style="fill: none; stroke: #d0d0d0; stroke-width: 0.7; stroke-linecap: square"/>
   </g>
   <g id="line2d_6">
    <path d="M 167.014101 212.39812 
L 346.258183 188.498909 
" clip-path="url(#p9adff476de)" style="fill: none; stroke: #d0d0d0; stroke-width: 0.7; stroke-linecap: square"/>
   </g>
   <g id="line2d_7">
    <path d="M 166.55772 220.90522 
L 347.149214 265.049808 
" clip-path="url(#p9adff476de)" style="fill: none; stroke: #d0d0d0; stroke-width: 0.7; stroke-linecap: square"/>
   </g>
   <g id="line2d_8">
    <path d="M 163.741887 227.599396 
L 352.646792 345.140226 
" clip-path="url(#p9adff476de)" style="fill: none; stroke: #d0d0d0; stroke-width: 0.7; stroke-linecap: square"/>
   </g>
   <g id="line2d_9">
    <path d="M 160.47477 319.72523 
L 359.02545 121.17455 
" clip-path="url(#p9adff476de)" style="fill: none; stroke: #d0d0d0; stroke-width: 0.7; stroke-linecap: square"/>
   </g>
   <g id="line2d_10">
    <path d="M 163.741887 323.840604 
L 352.646792 206.299774 
" clip-path="url(#p9adff476de)" style="fill: none; stroke: #d0d0d0; stroke-width: 0.7; stroke-linecap: square"/>
   </g>
   <g id="line2d_11">
    <path d="M 166.55772 330.53478 
L 347.149214 286.390192 
" clip-path="url(#p9adff476de)" style="fill: none; stroke: #d0d0d0; stroke-width: 0.7; stroke-linecap: square"/>
   </g>
   <g id="line2d_12">
    <path d="M 167.014101 339.04188 
L 346.258183 362.941091 
" clip-path="url(#p9adff476de)" style="fill: none; stroke: #d0d0d0; stroke-width: 0.7; stroke-linecap: square"/>
   </g>
   <g id="line2d_13">
    <path d="M 434.290072 100.707419 
L 621.309928 149.332581 
" clip-path="url(#p9adff476de)" style="fill: none; stroke: #d0d0d0; stroke-width: 0.7; stroke-linecap: square"/>
   </g>
   <g id="line2d_14">
    <path d="M 426.576344 116.590022 
L 629.023656 270.449978 
" clip-path="url(#p9adff476de)" style="fill: none; stroke: #d0d0d0; stroke-width: 0.7; stroke-linecap: square"/>
   </g>
   <g id="line2d_15">
    <path d="M 435.592891 178.976569 
L 620.007109 164.223431 
" clip-path="url(#p9adff476de)" style="fill: none; stroke: #d0d0d0; stroke-width: 0.7; stroke-linecap: square"/>
   </g>
   <g id="line2d_16">
    <path d="M 432.230188 199.960679 
L 623.369812 280.239321 
" clip-path="url(#p9adff476de)" style="fill: none; stroke: #d0d0d0; stroke-width: 0.7; stroke-linecap: square"/>
   </g>
   <g id="line2d_17">
    <path d="M 432.230188 258.319321 
L 623.369812 178.040679 
" clip-path="url(#p9adff476de)" style="fill: none; stroke: #d0d0d0; stroke-width: 0.7; stroke-linecap: square"/>
   </g>
   <g id="line2d_18">
    <path d="M 435.592891 279.303431 
L 620.007109 294.056569 
" clip-path="url(#p9adff476de)" style="fill: none; stroke: #d0d0d0; stroke-width: 0.7; stroke-linecap: square"/>
   </g>
   <g id="line2d_19">
    <path d="M 426.576344 341.689978 
L 629.023656 187.830022 
" clip-path="url(#p9adff476de)" style="fill: none; stroke: #d0d0d0; stroke-width: 0.7; stroke-linecap: square"/>
   </g>
   <g id="line2d_20">
    <path d="M 434.290072 357.572581 
L 621.309928 308.947419 
" clip-path="url(#p9adff476de)" style="fill: none; stroke: #d0d0d0; stroke-width: 0.7; stroke-linecap: square"/>
   </g>
   <g id="line2d_21">
    <path d="M 707.690512 174.043285 
L 862.031689 222.274903 
" clip-path="url(#p9adff476de)" style="fill: none; stroke: #d0d0d0; stroke-width: 0.7; stroke-linecap: square"/>
   </g>
   <g id="line2d_22">
    <path d="M 707.690512 284.236715 
L 862.031689 236.005097 
" clip-path="url(#p9adff476de)" style="fill: none; stroke: #d0d0d0; stroke-width: 0.7; stroke-linecap: square"/>
   </g>
   <g id="patch_2">
    <path d="M 442.121819 89.4 
Q 455.73791 89.4 467.900557 89.4 
" style="fill: none; stroke: #cc7000; stroke-width: 1.3; stroke-linecap: round"/>
    <path d="M 463.900557 87.4 
L 467.900557 89.4 
L 463.900557 91.4 
" style="fill: none; stroke: #cc7000; stroke-width: 1.3; stroke-linecap: round"/>
   </g>
   <g id="patch_3">
    <path d="M 442.121819 182.56 
Q 455.73791 182.56 467.900557 182.56 
" style="fill: none; stroke: #cc7000; stroke-width: 1.3; stroke-linecap: round"/>
    <path d="M 463.900557 180.56 
L 467.900557 182.56 
L 463.900557 184.56 
" style="fill: none; stroke: #cc7000; stroke-width: 1.3; stroke-linecap: round"/>
   </g>
   <g id="patch_4">
    <path d="M 442.121819 275.72 
Q 455.73791 275.72 467.900557 275.72 
" style="fill: none; stroke: #cc7000; stroke-width: 1.3; stroke-linecap: round"/>
    <path d="M 463.900557 273.72 
L 467.900557 275.72 
L 463.900557 277.72 
" style="fill: none; stroke: #cc7000; stroke-width: 1.3; stroke-linecap: round"/>
   </g>
   <g id="patch_5">
    <path d="M 442.121819 368.88 
Q 455.73791 368.88 467.900557 368.88 
" style="fill: none; stroke: #cc7000; stroke-width: 1.3; stroke-linecap: round"/>
    <path d="M 463.900557 366.88 
L 467.900557 368.88 
L 463.900557 370.88 
" style="fill: none; stroke: #cc7000; stroke-width: 1.3; stroke-linecap: round"/>
   </g>
   <g id="patch_6">
    <path d="M 716.121819 160.64 
Q 729.73791 160.64 741.900557 160.64 
" style="fill: none; stroke: #1e6b3e; stroke-width: 1.3; stroke-linecap: round"/>
    <path d="M 737.900557 158.64 
L 741.900557 160.64 
L 737.900557 162.64 
" style="fill: none; stroke: #1e6b3e; stroke-width: 1.3; stroke-linecap: round"/>
   </g>
   <g id="patch_7">
    <path d="M 716.121819 297.64 
Q 729.73791 297.64 741.900557 297.64 
" style="fill: none; stroke: #1e6b3e; stroke-width: 1.3; stroke-linecap: round"/>
    <path d="M 737.900557 295.64 
L 741.900557 297.64 
L 737.900557 299.64 
" style="fill: none; stroke: #1e6b3e; stroke-width: 1.3; stroke-linecap: round"/>
   </g>
   <g id="patch_8">
    <path d="M 144.2 156.256 
C 150.303915 156.256 156.15865 153.830889 160.47477 149.51477 
C 164.790889 145.19865 167.216 139.343915 167.216 133.24 
C 167.216 127.136085 164.790889 121.28135 160.47477 116.96523 
C 156.15865 112.649111 150.303915 110.224 144.2 110.224 
C 138.096085 110.224 132.24135 112.649111 127.92523 116.96523 
C 123.609111 121.28135 121.184 127.136085 121.184 133.24 
C 121.184 139.343915 123.609111 145.19865 127.92523 149.51477 
C 132.24135 153.830889 138.096085 156.256 144.2 156.256 
z
" clip-path="url(#p9adff476de)" style="fill: #87ceeb; stroke: #ffffff; stroke-width: 1.5; stroke-linejoin: miter"/>
   </g>
   <g id="patch_9">
    <path d="M 144.2 238.456 
C 150.303915 238.456 156.15865 236.030889 160.47477 231.71477 
C 164.790889 227.39865 167.216 221.543915 167.216 215.44 
C 167.216 209.336085 164.790889 203.48135 160.47477 199.16523 
C 156.15865 194.849111 150.303915 192.424 144.2 192.424 
C 138.096085 192.424 132.24135 194.849111 127.92523 199.16523 
C 123.609111 203.48135 121.184 209.336085 121.184 215.44 
C 121.184 221.543915 123.609111 227.39865 127.92523 231.71477 
C 132.24135 236.030889 138.096085 238.456 144.2 238.456 
z
" clip-path="url(#p9adff476de)" style="fill: #87ceeb; stroke: #ffffff; stroke-width: 1.5; stroke-linejoin: miter"/>
   </g>
   <g id="patch_10">
    <path d="M 144.2 359.016 
C 150.303915 359.016 156.15865 356.590889 160.47477 352.27477 
C 164.790889 347.95865 167.216 342.103915 167.216 336 
C 167.216 329.896085 164.790889 324.04135 160.47477 319.72523 
C 156.15865 315.409111 150.303915 312.984 144.2 312.984 
C 138.096085 312.984 132.24135 315.409111 127.92523 319.72523 
C 123.609111 324.04135 121.184 329.896085 121.184 336 
C 121.184 342.103915 123.609111 347.95865 127.92523 352.27477 
C 132.24135 356.590889 138.096085 359.016 144.2 359.016 
z
" clip-path="url(#p9adff476de)" style="fill: #87ceeb; stroke: #ffffff; stroke-width: 1.5; stroke-linejoin: miter"/>
   </g>
   <g id="patch_11">
    <path d="M 390.8 134.336 
C 402.717167 134.336 414.147841 129.60126 422.57455 121.17455 
C 431.00126 112.747841 435.736 101.317167 435.736 89.4 
C 435.736 77.482833 431.00126 66.052159 422.57455 57.62545 
C 414.147841 49.19874 402.717167 44.464 390.8 44.464 
C 378.882833 44.464 367.452159 49.19874 359.02545 57.62545 
C 350.59874 66.052159 345.864 77.482833 345.864 89.4 
C 345.864 101.317167 350.59874 112.747841 359.02545 121.17455 
C 367.452159 129.60126 378.882833 134.336 390.8 134.336 
z
" clip-path="url(#p9adff476de)" style="fill: #ffb347; stroke: #ffffff; stroke-width: 1.5; stroke-linejoin: miter"/>
   </g>
   <g id="patch_12">
    <path d="M 390.8 227.496 
C 402.717167 227.496 414.147841 222.76126 422.57455 214.33455 
C 431.00126 205.907841 435.736 194.477167 435.736 182.56 
C 435.736 170.642833 431.00126 159.212159 422.57455 150.78545 
C 414.147841 142.35874 402.717167 137.624 390.8 137.624 
C 378.882833 137.624 367.452159 142.35874 359.02545 150.78545 
C 350.59874 159.212159 345.864 170.642833 345.864 182.56 
C 345.864 194.477167 350.59874 205.907841 359.02545 214.33455 
C 367.452159 222.76126 378.882833 227.496 390.8 227.496 
z
" clip-path="url(#p9adff476de)" style="fill: #ffb347; stroke: #ffffff; stroke-width: 1.5; stroke-linejoin: miter"/>
   </g>
   <g id="patch_13">
    <path d="M 390.8 320.656 
C 402.717167 320.656 414.147841 315.92126 422.57455 307.49455 
C 431.00126 299.067841 435.736 287.637167 435.736 275.72 
C 435.736 263.802833 431.00126 252.372159 422.57455 243.94545 
C 414.147841 235.51874 402.717167 230.784 390.8 230.784 
C 378.882833 230.784 367.452159 235.51874 359.02545 243.94545 
C 350.59874 252.372159 345.864 263.802833 345.864 275.72 
C 345.864 287.637167 350.59874 299.067841 359.02545 307.49455 
C 367.452159 315.92126 378.882833 320.656 390.8 320.656 
z
" clip-path="url(#p9adff476de)" style="fill: #ffb347; stroke: #ffffff; stroke-width: 1.5; stroke-linejoin: miter"/>
   </g>
   <g id="patch_14">
    <path d="M 390.8 413.816 
C 402.717167 413.816 414.147841 409.08126 422.57455 400.65455 
C 431.00126 392.227841 435.736 380.797167 435.736 368.88 
C 435.736 356.962833 431.00126 345.532159 422.57455 337.10545 
C 414.147841 328.67874 402.717167 323.944 390.8 323.944 
C 378.882833 323.944 367.452159 328.67874 359.02545 337.10545 
C 350.59874 345.532159 345.864 356.962833 345.864 368.88 
C 345.864 380.797167 350.59874 392.227841 359.02545 400.65455 
C 367.452159 409.08126 378.882833 413.816 390.8 413.816 
z
" clip-path="url(#p9adff476de)" style="fill: #ffb347; stroke: #ffffff; stroke-width: 1.5; stroke-linejoin: miter"/>
   </g>
   <g id="patch_15">
    <path d="M 664.8 205.576 
C 676.717167 205.576 688.147841 200.84126 696.57455 192.41455 
C 705.00126 183.987841 709.736 172.557167 709.736 160.64 
C 709.736 148.722833 705.00126 137.292159 696.57455 128.86545 
C 688.147841 120.43874 676.717167 115.704 664.8 115.704 
C 652.882833 115.704 641.452159 120.43874 633.02545 128.86545 
C 624.59874 137.292159 619.864 148.722833 619.864 160.64 
C 619.864 172.557167 624.59874 183.987841 633.02545 192.41455 
C 641.452159 200.84126 652.882833 205.576 664.8 205.576 
z
" clip-path="url(#p9adff476de)" style="fill: #90ee90; stroke: #ffffff; stroke-width: 1.5; stroke-linejoin: miter"/>
   </g>
   <g id="patch_16">
    <path d="M 664.8 342.576 
C 676.717167 342.576 688.147841 337.84126 696.57455 329.41455 
C 705.00126 320.987841 709.736 309.557167 709.736 297.64 
C 709.736 285.722833 705.00126 274.292159 696.57455 265.86545 
C 688.147841 257.43874 676.717167 252.704 664.8 252.704 
C 652.882833 252.704 641.452159 257.43874 633.02545 265.86545 
C 624.59874 274.292159 619.864 285.722833 619.864 297.64 
C 619.864 309.557167 624.59874 320.987841 633.02545 329.41455 
C 641.452159 337.84126 652.882833 342.576 664.8 342.576 
z
" clip-path="url(#p9adff476de)" style="fill: #90ee90; stroke: #ffffff; stroke-width: 1.5; stroke-linejoin: miter"/>
   </g>
   <g id="patch_17">
    <path d="M 884 252.156 
C 890.103915 252.156 895.95865 249.730889 900.27477 245.41477 
C 904.590889 241.09865 907.016 235.243915 907.016 229.14 
C 907.016 223.036085 904.590889 217.18135 900.27477 212.86523 
C 895.95865 208.549111 890.103915 206.124 884 206.124 
C 877.896085 206.124 872.04135 208.549111 867.72523 212.86523 
C 863.409111 217.18135 860.984 223.036085 860.984 229.14 
C 860.984 235.243915 863.409111 241.09865 867.72523 245.41477 
C 872.04135 249.730889 877.896085 252.156 884 252.156 
z
" clip-path="url(#p9adff476de)" style="fill: #f08080; stroke: #ffffff; stroke-width: 1.5; stroke-linejoin: miter"/>
   </g>
   <g id="text_1">
    <!-- $x_1$ -->
    <g transform="translate(135.64 137.655) scale(0.16 -0.16)">
     <defs>
      <path id="DejaVuSans-Oblique-78" d="M 3841 3500 
L 2234 1784 
L 3219 0 
L 2559 0 
L 1819 1388 
L 531 0 
L -166 0 
L 1556 1844 
L 641 3500 
L 1300 3500 
L 1972 2234 
L 3144 3500 
L 3841 3500 
z
" transform="scale(0.015625)"/>
      <path id="DejaVuSans-31" d="M 794 531 
L 1825 531 
L 1825 4091 
L 703 3866 
L 703 4441 
L 1819 4666 
L 2450 4666 
L 2450 531 
L 3481 531 
L 3481 0 
L 794 0 
L 794 531 
z
" transform="scale(0.015625)"/>
     </defs>
     <use xlink:href="#DejaVuSans-Oblique-78" transform="translate(0 0.3125)"/>
     <use xlink:href="#DejaVuSans-31" transform="translate(59.179688 -16.09375) scale(0.7)"/>
    </g>
   </g>
   <g id="text_2">
    <!-- $x_2$ -->
    <g transform="translate(135.64 219.855) scale(0.16 -0.16)">
     <defs>
      <path id="DejaVuSans-32" d="M 1228 531 
L 3431 531 
L 3431 0 
L 469 0 
L 469 531 
Q 828 903 1448 1529 
Q 2069 2156 2228 2338 
Q 2531 2678 2651 2914 
Q 2772 3150 2772 3378 
Q 2772 3750 2511 3984 
Q 2250 4219 1831 4219 
Q 1534 4219 1204 4116 
Q 875 4013 500 3803 
L 500 4441 
Q 881 4594 1212 4672 
Q 1544 4750 1819 4750 
Q 2544 4750 2975 4387 
Q 3406 4025 3406 3419 
Q 3406 3131 3298 2873 
Q 3191 2616 2906 2266 
Q 2828 2175 2409 1742 
Q 1991 1309 1228 531 
z
" transform="scale(0.015625)"/>
     </defs>
     <use xlink:href="#DejaVuSans-Oblique-78" transform="translate(0 0.3125)"/>
     <use xlink:href="#DejaVuSans-32" transform="translate(59.179688 -16.09375) scale(0.7)"/>
    </g>
   </g>
   <g id="text_3">
    <!-- $x_n$ -->
    <g transform="translate(135.64 340.415) scale(0.16 -0.16)">
     <defs>
      <path id="DejaVuSans-Oblique-6e" d="M 3566 2113 
L 3156 0 
L 2578 0 
L 2988 2091 
Q 3016 2238 3031 2350 
Q 3047 2463 3047 2528 
Q 3047 2791 2881 2937 
Q 2716 3084 2419 3084 
Q 1956 3084 1622 2776 
Q 1288 2469 1184 1941 
L 800 0 
L 225 0 
L 903 3500 
L 1478 3500 
L 1363 2950 
Q 1603 3253 1940 3418 
Q 2278 3584 2650 3584 
Q 3113 3584 3367 3334 
Q 3622 3084 3622 2631 
Q 3622 2519 3608 2391 
Q 3594 2263 3566 2113 
z
" transform="scale(0.015625)"/>
     </defs>
     <use xlink:href="#DejaVuSans-Oblique-78" transform="translate(0 0.3125)"/>
     <use xlink:href="#DejaVuSans-Oblique-6e" transform="translate(59.179688 -16.09375) scale(0.7)"/>
    </g>
   </g>
   <g id="text_4">
    <!-- $\vdots$ -->
    <g transform="translate(134.2 281.23875) scale(0.2 -0.2)">
     <defs>
      <path id="DejaVuSans-22ee" d="M 2868 187 
L 3528 187 
L 3528 -607 
L 2868 -607 
L 2868 187 
z
M 2868 4603 
L 3528 4603 
L 3528 3809 
L 2868 3809 
L 2868 4603 
z
M 2868 2363 
L 3528 2363 
L 3528 1569 
L 2868 1569 
L 2868 2363 
z
" transform="scale(0.015625)"/>
     </defs>
     <use xlink:href="#DejaVuSans-22ee" transform="translate(0 0.078125)"/>
    </g>
   </g>
   <g id="text_5">
    <!-- $\sigma(\mathbf{W_1^{[1]}}\!\cdot\! X + \mathbf{b_1^{[1]}})$ -->
    <g transform="translate(351.5 92.95) scale(0.1 -0.1)">
     <defs>
      <path id="DejaVuSans-Oblique-3c3" d="M 2219 3044 
Q 1744 3044 1422 2700 
Q 1081 2341 969 1747 
Q 844 1119 1044 756 
Q 1241 397 1706 397 
Q 2166 397 2503 759 
Q 2844 1122 2966 1747 
Q 3075 2319 2881 2700 
Q 2700 3044 2219 3044 
z
M 2309 3503 
L 4219 3500 
L 4106 2925 
L 3463 2925 
Q 3706 2438 3575 1747 
Q 3406 888 2884 400 
Q 2359 -91 1609 -91 
Q 856 -91 525 400 
Q 194 888 363 1747 
Q 528 2609 1050 3097 
Q 1484 3503 2309 3503 
z
" transform="scale(0.015625)"/>
      <path id="DejaVuSans-28" d="M 1984 4856 
Q 1566 4138 1362 3434 
Q 1159 2731 1159 2009 
Q 1159 1288 1364 580 
Q 1569 -128 1984 -844 
L 1484 -844 
Q 1016 -109 783 600 
Q 550 1309 550 2009 
Q 550 2706 781 3412 
Q 1013 4119 1484 4856 
L 1984 4856 
z
" transform="scale(0.015625)"/>
      <path id="DejaVuSans-Bold-57" d="M 191 4666 
L 1344 4666 
L 2150 1275 
L 2950 4666 
L 4109 4666 
L 4909 1275 
L 5716 4666 
L 6859 4666 
L 5759 0 
L 4372 0 
L 3525 3547 
L 2688 0 
L 1300 0 
L 191 4666 
z
" transform="scale(0.015625)"/>
      <path id="DejaVuSans-Bold-5b" d="M 550 4863 
L 2491 4863 
L 2491 4159 
L 1613 4159 
L 1613 -141 
L 2491 -141 
L 2491 -844 
L 550 -844 
L 550 4863 
z
" transform="scale(0.015625)"/>
      <path id="DejaVuSans-Bold-31" d="M 750 831 
L 1813 831 
L 1813 3847 
L 722 3622 
L 722 4441 
L 1806 4666 
L 2950 4666 
L 2950 831 
L 4013 831 
L 4013 0 
L 750 0 
L 750 831 
z
" transform="scale(0.015625)"/>
      <path id="DejaVuSans-Bold-5d" d="M 2375 -844 
L 434 -844 
L 434 -141 
L 1313 -141 
L 1313 4159 
L 434 4159 
L 434 4863 
L 2375 4863 
L 2375 -844 
z
" transform="scale(0.015625)"/>
      <path id="DejaVuSans-22c5" d="M 684 2619 
L 1344 2619 
L 1344 1825 
L 684 1825 
L 684 2619 
z
" transform="scale(0.015625)"/>
      <path id="DejaVuSans-Oblique-58" d="M 878 4666 
L 1516 4666 
L 2316 2981 
L 3763 4666 
L 4500 4666 
L 2578 2438 
L 3738 0 
L 3103 0 
L 2163 1966 
L 459 0 
L -275 0 
L 1906 2509 
L 878 4666 
z
" transform="scale(0.015625)"/>
      <path id="DejaVuSans-2b" d="M 2944 4013 
L 2944 2272 
L 4684 2272 
L 4684 1741 
L 2944 1741 
L 2944 0 
L 2419 0 
L 2419 1741 
L 678 1741 
L 678 2272 
L 2419 2272 
L 2419 4013 
L 2944 4013 
z
" transform="scale(0.015625)"/>
      <path id="DejaVuSans-Bold-62" d="M 2400 722 
Q 2759 722 2948 984 
Q 3138 1247 3138 1747 
Q 3138 2247 2948 2509 
Q 2759 2772 2400 2772 
Q 2041 2772 1848 2508 
Q 1656 2244 1656 1747 
Q 1656 1250 1848 986 
Q 2041 722 2400 722 
z
M 1656 2988 
Q 1888 3294 2169 3439 
Q 2450 3584 2816 3584 
Q 3463 3584 3878 3070 
Q 4294 2556 4294 1747 
Q 4294 938 3878 423 
Q 3463 -91 2816 -91 
Q 2450 -91 2169 54 
Q 1888 200 1656 506 
L 1656 0 
L 538 0 
L 538 4863 
L 1656 4863 
L 1656 2988 
z
" transform="scale(0.015625)"/>
      <path id="DejaVuSans-29" d="M 513 4856 
L 1013 4856 
Q 1481 4119 1714 3412 
Q 1947 2706 1947 2009 
Q 1947 1309 1714 600 
Q 1481 -109 1013 -844 
L 513 -844 
Q 928 -128 1133 580 
Q 1338 1288 1338 2009 
Q 1338 2731 1133 3434 
Q 928 4138 513 4856 
z
" transform="scale(0.015625)"/>
     </defs>
     <use xlink:href="#DejaVuSans-Oblique-3c3" transform="translate(0 0.389063)"/>
     <use xlink:href="#DejaVuSans-28" transform="translate(63.378906 0.389063)"/>
     <use xlink:href="#DejaVuSans-Bold-57" transform="translate(102.392578 0.389063)"/>
     <use xlink:href="#DejaVuSans-Bold-5b" transform="translate(213.652344 45.810938) scale(0.7)"/>
     <use xlink:href="#DejaVuSans-Bold-31" transform="translate(245.644531 45.810938) scale(0.7)"/>
     <use xlink:href="#DejaVuSans-Bold-5d" transform="translate(294.350586 45.810938) scale(0.7)"/>
     <use xlink:href="#DejaVuSans-Bold-31" transform="translate(213.652344 -26.954687) scale(0.7)"/>
     <use xlink:href="#DejaVuSans-22c5" transform="translate(332.323894 0.389063)"/>
     <use xlink:href="#DejaVuSans-Oblique-58" transform="translate(367.357749 0.389063)"/>
     <use xlink:href="#DejaVuSans-2b" transform="translate(455.34603 0.389063)"/>
     <use xlink:href="#DejaVuSans-Bold-62" transform="translate(558.617515 0.389063)"/>
     <use xlink:href="#DejaVuSans-Bold-5b" transform="translate(631.156577 45.810938) scale(0.7)"/>
     <use xlink:href="#DejaVuSans-Bold-31" transform="translate(663.148765 45.810938) scale(0.7)"/>
     <use xlink:href="#DejaVuSans-Bold-5d" transform="translate(711.854819 45.810938) scale(0.7)"/>
     <use xlink:href="#DejaVuSans-Bold-31" transform="translate(631.156577 -26.954687) scale(0.7)"/>
     <use xlink:href="#DejaVuSans-29" transform="translate(746.581382 0.389063)"/>
    </g>
   </g>
   <g id="text_6">
    <!-- $a_1^{[1]}$ -->
    <g transform="translate(445.384 73.984) scale(0.12 -0.12)">
     <defs>
      <path id="DejaVuSans-Oblique-61" d="M 3438 1997 
L 3047 0 
L 2472 0 
L 2578 531 
Q 2325 219 2001 64 
Q 1678 -91 1281 -91 
Q 834 -91 548 182 
Q 263 456 263 884 
Q 263 1497 752 1853 
Q 1241 2209 2100 2209 
L 2900 2209 
L 2931 2363 
Q 2938 2388 2941 2417 
Q 2944 2447 2944 2509 
Q 2944 2788 2717 2942 
Q 2491 3097 2081 3097 
Q 1800 3097 1504 3025 
Q 1209 2953 897 2809 
L 997 3341 
Q 1322 3463 1633 3523 
Q 1944 3584 2234 3584 
Q 2853 3584 3176 3315 
Q 3500 3047 3500 2534 
Q 3500 2431 3484 2292 
Q 3469 2153 3438 1997 
z
M 2816 1759 
L 2241 1759 
Q 1534 1759 1195 1570 
Q 856 1381 856 984 
Q 856 709 1029 553 
Q 1203 397 1509 397 
Q 1978 397 2328 733 
Q 2678 1069 2791 1631 
L 2816 1759 
z
" transform="scale(0.015625)"/>
      <path id="DejaVuSans-5b" d="M 550 4863 
L 1875 4863 
L 1875 4416 
L 1125 4416 
L 1125 -397 
L 1875 -397 
L 1875 -844 
L 550 -844 
L 550 4863 
z
" transform="scale(0.015625)"/>
      <path id="DejaVuSans-5d" d="M 1947 4863 
L 1947 -844 
L 622 -844 
L 622 -397 
L 1369 -397 
L 1369 4416 
L 622 4416 
L 622 4863 
L 1947 4863 
z
" transform="scale(0.015625)"/>
     </defs>
     <use xlink:href="#DejaVuSans-Oblique-61" transform="translate(0 0.389063)"/>
     <use xlink:href="#DejaVuSans-5b" transform="translate(65.929193 45.810938) scale(0.7)"/>
     <use xlink:href="#DejaVuSans-31" transform="translate(93.238763 45.810938) scale(0.7)"/>
     <use xlink:href="#DejaVuSans-5d" transform="translate(137.774896 45.810938) scale(0.7)"/>
     <use xlink:href="#DejaVuSans-31" transform="translate(61.279297 -26.954687) scale(0.7)"/>
    </g>
   </g>
   <g id="text_7">
    <!-- $\sigma(\mathbf{W_2^{[1]}}\!\cdot\! X + \mathbf{b_2^{[1]}})$ -->
    <g transform="translate(351.5 186.16) scale(0.1 -0.1)">
     <defs>
      <path id="DejaVuSans-Bold-32" d="M 1844 884 
L 3897 884 
L 3897 0 
L 506 0 
L 506 884 
L 2209 2388 
Q 2438 2594 2547 2791 
Q 2656 2988 2656 3200 
Q 2656 3528 2436 3728 
Q 2216 3928 1850 3928 
Q 1569 3928 1234 3808 
Q 900 3688 519 3450 
L 519 4475 
Q 925 4609 1322 4679 
Q 1719 4750 2100 4750 
Q 2938 4750 3402 4381 
Q 3866 4013 3866 3353 
Q 3866 2972 3669 2642 
Q 3472 2313 2841 1759 
L 1844 884 
z
" transform="scale(0.015625)"/>
     </defs>
     <use xlink:href="#DejaVuSans-Oblique-3c3" transform="translate(0 0.470313)"/>
     <use xlink:href="#DejaVuSans-28" transform="translate(63.378906 0.470313)"/>
     <use xlink:href="#DejaVuSans-Bold-57" transform="translate(102.392578 0.470313)"/>
     <use xlink:href="#DejaVuSans-Bold-5b" transform="translate(213.652344 46.810938) scale(0.7)"/>
     <use xlink:href="#DejaVuSans-Bold-31" transform="translate(245.644531 46.810938) scale(0.7)"/>
     <use xlink:href="#DejaVuSans-Bold-5d" transform="translate(294.350586 46.810938) scale(0.7)"/>
     <use xlink:href="#DejaVuSans-Bold-32" transform="translate(213.652344 -26.873437) scale(0.7)"/>
     <use xlink:href="#DejaVuSans-22c5" transform="translate(332.323894 0.470313)"/>
     <use xlink:href="#DejaVuSans-Oblique-58" transform="translate(367.357749 0.470313)"/>
     <use xlink:href="#DejaVuSans-2b" transform="translate(455.34603 0.470313)"/>
     <use xlink:href="#DejaVuSans-Bold-62" transform="translate(558.617515 0.470313)"/>
     <use xlink:href="#DejaVuSans-Bold-5b" transform="translate(631.156577 46.810938) scale(0.7)"/>
     <use xlink:href="#DejaVuSans-Bold-31" transform="translate(663.148765 46.810938) scale(0.7)"/>
     <use xlink:href="#DejaVuSans-Bold-5d" transform="translate(711.854819 46.810938) scale(0.7)"/>
     <use xlink:href="#DejaVuSans-Bold-32" transform="translate(631.156577 -26.873437) scale(0.7)"/>
     <use xlink:href="#DejaVuSans-29" transform="translate(746.581382 0.470313)"/>
    </g>
   </g>
   <g id="text_8">
    <!-- $a_2^{[1]}$ -->
    <g transform="translate(445.384 167.144) scale(0.12 -0.12)">
     <use xlink:href="#DejaVuSans-Oblique-61" transform="translate(0 0.470313)"/>
     <use xlink:href="#DejaVuSans-5b" transform="translate(65.929193 46.810938) scale(0.7)"/>
     <use xlink:href="#DejaVuSans-31" transform="translate(93.238763 46.810938) scale(0.7)"/>
     <use xlink:href="#DejaVuSans-5d" transform="translate(137.774896 46.810938) scale(0.7)"/>
     <use xlink:href="#DejaVuSans-32" transform="translate(61.279297 -26.873437) scale(0.7)"/>
    </g>
   </g>
   <g id="text_9">
    <!-- $\sigma(\mathbf{W_3^{[1]}}\!\cdot\! X + \mathbf{b_3^{[1]}})$ -->
    <g transform="translate(351.5 279.27) scale(0.1 -0.1)">
     <defs>
      <path id="DejaVuSans-Bold-33" d="M 2981 2516 
Q 3453 2394 3698 2092 
Q 3944 1791 3944 1325 
Q 3944 631 3412 270 
Q 2881 -91 1863 -91 
Q 1503 -91 1142 -33 
Q 781 25 428 141 
L 428 1069 
Q 766 900 1098 814 
Q 1431 728 1753 728 
Q 2231 728 2486 893 
Q 2741 1059 2741 1369 
Q 2741 1688 2480 1852 
Q 2219 2016 1709 2016 
L 1228 2016 
L 1228 2791 
L 1734 2791 
Q 2188 2791 2409 2933 
Q 2631 3075 2631 3366 
Q 2631 3634 2415 3781 
Q 2200 3928 1806 3928 
Q 1516 3928 1219 3862 
Q 922 3797 628 3669 
L 628 4550 
Q 984 4650 1334 4700 
Q 1684 4750 2022 4750 
Q 2931 4750 3382 4451 
Q 3834 4153 3834 3553 
Q 3834 3144 3618 2883 
Q 3403 2622 2981 2516 
z
" transform="scale(0.015625)"/>
     </defs>
     <use xlink:href="#DejaVuSans-Oblique-3c3" transform="translate(0 0.470313)"/>
     <use xlink:href="#DejaVuSans-28" transform="translate(63.378906 0.470313)"/>
     <use xlink:href="#DejaVuSans-Bold-57" transform="translate(102.392578 0.470313)"/>
     <use xlink:href="#DejaVuSans-Bold-5b" transform="translate(213.652344 46.810938) scale(0.7)"/>
     <use xlink:href="#DejaVuSans-Bold-31" transform="translate(245.644531 46.810938) scale(0.7)"/>
     <use xlink:href="#DejaVuSans-Bold-5d" transform="translate(294.350586 46.810938) scale(0.7)"/>
     <use xlink:href="#DejaVuSans-Bold-33" transform="translate(213.652344 -26.873437) scale(0.7)"/>
     <use xlink:href="#DejaVuSans-22c5" transform="translate(332.323894 0.470313)"/>
     <use xlink:href="#DejaVuSans-Oblique-58" transform="translate(367.357749 0.470313)"/>
     <use xlink:href="#DejaVuSans-2b" transform="translate(455.34603 0.470313)"/>
     <use xlink:href="#DejaVuSans-Bold-62" transform="translate(558.617515 0.470313)"/>
     <use xlink:href="#DejaVuSans-Bold-5b" transform="translate(631.156577 46.810938) scale(0.7)"/>
     <use xlink:href="#DejaVuSans-Bold-31" transform="translate(663.148765 46.810938) scale(0.7)"/>
     <use xlink:href="#DejaVuSans-Bold-5d" transform="translate(711.854819 46.810938) scale(0.7)"/>
     <use xlink:href="#DejaVuSans-Bold-33" transform="translate(631.156577 -26.873437) scale(0.7)"/>
     <use xlink:href="#DejaVuSans-29" transform="translate(746.581382 0.470313)"/>
    </g>
   </g>
   <g id="text_10">
    <!-- $a_3^{[1]}$ -->
    <g transform="translate(445.384 260.184) scale(0.12 -0.12)">
     <defs>
      <path id="DejaVuSans-33" d="M 2597 2516 
Q 3050 2419 3304 2112 
Q 3559 1806 3559 1356 
Q 3559 666 3084 287 
Q 2609 -91 1734 -91 
Q 1441 -91 1130 -33 
Q 819 25 488 141 
L 488 750 
Q 750 597 1062 519 
Q 1375 441 1716 441 
Q 2309 441 2620 675 
Q 2931 909 2931 1356 
Q 2931 1769 2642 2001 
Q 2353 2234 1838 2234 
L 1294 2234 
L 1294 2753 
L 1863 2753 
Q 2328 2753 2575 2939 
Q 2822 3125 2822 3475 
Q 2822 3834 2567 4026 
Q 2313 4219 1838 4219 
Q 1578 4219 1281 4162 
Q 984 4106 628 3988 
L 628 4550 
Q 988 4650 1302 4700 
Q 1616 4750 1894 4750 
Q 2613 4750 3031 4423 
Q 3450 4097 3450 3541 
Q 3450 3153 3228 2886 
Q 3006 2619 2597 2516 
z
" transform="scale(0.015625)"/>
     </defs>
     <use xlink:href="#DejaVuSans-Oblique-61" transform="translate(0 0.470313)"/>
     <use xlink:href="#DejaVuSans-5b" transform="translate(65.929193 46.810938) scale(0.7)"/>
     <use xlink:href="#DejaVuSans-31" transform="translate(93.238763 46.810938) scale(0.7)"/>
     <use xlink:href="#DejaVuSans-5d" transform="translate(137.774896 46.810938) scale(0.7)"/>
     <use xlink:href="#DejaVuSans-33" transform="translate(61.279297 -26.873437) scale(0.7)"/>
    </g>
   </g>
   <g id="text_11">
    <!-- $\sigma(\mathbf{W_n^{[1]}}\!\cdot\! X + \mathbf{b_n^{[1]}})$ -->
    <g transform="translate(351.5 372.08) scale(0.1 -0.1)">
     <defs>
      <path id="DejaVuSans-Bold-6e" d="M 4056 2131 
L 4056 0 
L 2931 0 
L 2931 347 
L 2931 1631 
Q 2931 2084 2911 2256 
Q 2891 2428 2841 2509 
Q 2775 2619 2662 2680 
Q 2550 2741 2406 2741 
Q 2056 2741 1856 2470 
Q 1656 2200 1656 1722 
L 1656 0 
L 538 0 
L 538 3500 
L 1656 3500 
L 1656 2988 
Q 1909 3294 2193 3439 
Q 2478 3584 2822 3584 
Q 3428 3584 3742 3212 
Q 4056 2841 4056 2131 
z
" transform="scale(0.015625)"/>
     </defs>
     <use xlink:href="#DejaVuSans-Oblique-3c3" transform="translate(0 0.529687)"/>
     <use xlink:href="#DejaVuSans-28" transform="translate(63.378906 0.529687)"/>
     <use xlink:href="#DejaVuSans-Bold-57" transform="translate(102.392578 0.529687)"/>
     <use xlink:href="#DejaVuSans-Bold-5b" transform="translate(213.652344 38.810938) scale(0.7)"/>
     <use xlink:href="#DejaVuSans-Bold-31" transform="translate(245.644531 38.810938) scale(0.7)"/>
     <use xlink:href="#DejaVuSans-Bold-5d" transform="translate(294.350586 38.810938) scale(0.7)"/>
     <use xlink:href="#DejaVuSans-Bold-6e" transform="translate(213.652344 -26.814063) scale(0.7)"/>
     <use xlink:href="#DejaVuSans-22c5" transform="translate(332.323894 0.529687)"/>
     <use xlink:href="#DejaVuSans-Oblique-58" transform="translate(367.357749 0.529687)"/>
     <use xlink:href="#DejaVuSans-2b" transform="translate(455.34603 0.529687)"/>
     <use xlink:href="#DejaVuSans-Bold-62" transform="translate(558.617515 0.529687)"/>
     <use xlink:href="#DejaVuSans-Bold-5b" transform="translate(631.156577 38.810938) scale(0.7)"/>
     <use xlink:href="#DejaVuSans-Bold-31" transform="translate(663.148765 38.810938) scale(0.7)"/>
     <use xlink:href="#DejaVuSans-Bold-5d" transform="translate(711.854819 38.810938) scale(0.7)"/>
     <use xlink:href="#DejaVuSans-Bold-6e" transform="translate(631.156577 -26.814063) scale(0.7)"/>
     <use xlink:href="#DejaVuSans-29" transform="translate(746.581382 0.529687)"/>
    </g>
   </g>
   <g id="text_12">
    <!-- $a_n^{[1]}$ -->
    <g transform="translate(445.384 353.464) scale(0.12 -0.12)">
     <use xlink:href="#DejaVuSans-Oblique-61" transform="translate(0 0.529687)"/>
     <use xlink:href="#DejaVuSans-5b" transform="translate(65.929193 38.810938) scale(0.7)"/>
     <use xlink:href="#DejaVuSans-31" transform="translate(93.238763 38.810938) scale(0.7)"/>
     <use xlink:href="#DejaVuSans-5d" transform="translate(137.774896 38.810938) scale(0.7)"/>
     <use xlink:href="#DejaVuSans-Oblique-6e" transform="translate(61.279297 -26.814063) scale(0.7)"/>
    </g>
   </g>
   <g id="text_13">
    <!-- $\sigma(\mathbf{W_1^{[2]}}\!\cdot\! A^{[1]} + \mathbf{b_1^{[2]}})$ -->
    <g transform="translate(620.05 164.19) scale(0.1 -0.1)">
     <defs>
      <path id="DejaVuSans-Oblique-41" d="M 2356 4666 
L 3072 4666 
L 3938 0 
L 3278 0 
L 3084 1197 
L 984 1197 
L 325 0 
L -341 0 
L 2356 4666 
z
M 2584 4044 
L 1275 1722 
L 2988 1722 
L 2584 4044 
z
" transform="scale(0.015625)"/>
     </defs>
     <use xlink:href="#DejaVuSans-Oblique-3c3" transform="translate(0 0.389063)"/>
     <use xlink:href="#DejaVuSans-28" transform="translate(63.378906 0.389063)"/>
     <use xlink:href="#DejaVuSans-Bold-57" transform="translate(102.392578 0.389063)"/>
     <use xlink:href="#DejaVuSans-Bold-5b" transform="translate(213.652344 45.810938) scale(0.7)"/>
     <use xlink:href="#DejaVuSans-Bold-32" transform="translate(245.644531 45.810938) scale(0.7)"/>
     <use xlink:href="#DejaVuSans-Bold-5d" transform="translate(294.350586 45.810938) scale(0.7)"/>
     <use xlink:href="#DejaVuSans-Bold-31" transform="translate(213.652344 -26.954687) scale(0.7)"/>
     <use xlink:href="#DejaVuSans-22c5" transform="translate(332.323894 0.389063)"/>
     <use xlink:href="#DejaVuSans-Oblique-41" transform="translate(367.357749 0.389063)"/>
     <use xlink:href="#DejaVuSans-5b" transform="translate(442.782723 38.670313) scale(0.7)"/>
     <use xlink:href="#DejaVuSans-31" transform="translate(470.092293 38.670313) scale(0.7)"/>
     <use xlink:href="#DejaVuSans-5d" transform="translate(514.628426 38.670313) scale(0.7)"/>
     <use xlink:href="#DejaVuSans-2b" transform="translate(564.154793 0.389063)"/>
     <use xlink:href="#DejaVuSans-Bold-62" transform="translate(667.426278 0.389063)"/>
     <use xlink:href="#DejaVuSans-Bold-5b" transform="translate(739.96534 45.810938) scale(0.7)"/>
     <use xlink:href="#DejaVuSans-Bold-32" transform="translate(771.957528 45.810938) scale(0.7)"/>
     <use xlink:href="#DejaVuSans-Bold-5d" transform="translate(820.663582 45.810938) scale(0.7)"/>
     <use xlink:href="#DejaVuSans-Bold-31" transform="translate(739.96534 -26.954687) scale(0.7)"/>
     <use xlink:href="#DejaVuSans-29" transform="translate(855.390145 0.389063)"/>
    </g>
   </g>
   <g id="text_14">
    <!-- $a_1^{[2]}$ -->
    <g transform="translate(719.384 145.224) scale(0.12 -0.12)">
     <use xlink:href="#DejaVuSans-Oblique-61" transform="translate(0 0.389063)"/>
     <use xlink:href="#DejaVuSans-5b" transform="translate(65.929193 45.810938) scale(0.7)"/>
     <use xlink:href="#DejaVuSans-32" transform="translate(93.238763 45.810938) scale(0.7)"/>
     <use xlink:href="#DejaVuSans-5d" transform="translate(137.774896 45.810938) scale(0.7)"/>
     <use xlink:href="#DejaVuSans-31" transform="translate(61.279297 -26.954687) scale(0.7)"/>
    </g>
   </g>
   <g id="text_15">
    <!-- $\sigma(\mathbf{W_2^{[2]}}\!\cdot\! A^{[1]} + \mathbf{b_2^{[2]}})$ -->
    <g transform="translate(620.05 301.24) scale(0.1 -0.1)">
     <use xlink:href="#DejaVuSans-Oblique-3c3" transform="translate(0 0.470313)"/>
     <use xlink:href="#DejaVuSans-28" transform="translate(63.378906 0.470313)"/>
     <use xlink:href="#DejaVuSans-Bold-57" transform="translate(102.392578 0.470313)"/>
     <use xlink:href="#DejaVuSans-Bold-5b" transform="translate(213.652344 46.810938) scale(0.7)"/>
     <use xlink:href="#DejaVuSans-Bold-32" transform="translate(245.644531 46.810938) scale(0.7)"/>
     <use xlink:href="#DejaVuSans-Bold-5d" transform="translate(294.350586 46.810938) scale(0.7)"/>
     <use xlink:href="#DejaVuSans-Bold-32" transform="translate(213.652344 -26.873437) scale(0.7)"/>
     <use xlink:href="#DejaVuSans-22c5" transform="translate(332.323894 0.470313)"/>
     <use xlink:href="#DejaVuSans-Oblique-41" transform="translate(367.357749 0.470313)"/>
     <use xlink:href="#DejaVuSans-5b" transform="translate(442.782723 38.751563) scale(0.7)"/>
     <use xlink:href="#DejaVuSans-31" transform="translate(470.092293 38.751563) scale(0.7)"/>
     <use xlink:href="#DejaVuSans-5d" transform="translate(514.628426 38.751563) scale(0.7)"/>
     <use xlink:href="#DejaVuSans-2b" transform="translate(564.154793 0.470313)"/>
     <use xlink:href="#DejaVuSans-Bold-62" transform="translate(667.426278 0.470313)"/>
     <use xlink:href="#DejaVuSans-Bold-5b" transform="translate(739.96534 46.810938) scale(0.7)"/>
     <use xlink:href="#DejaVuSans-Bold-32" transform="translate(771.957528 46.810938) scale(0.7)"/>
     <use xlink:href="#DejaVuSans-Bold-5d" transform="translate(820.663582 46.810938) scale(0.7)"/>
     <use xlink:href="#DejaVuSans-Bold-32" transform="translate(739.96534 -26.873437) scale(0.7)"/>
     <use xlink:href="#DejaVuSans-29" transform="translate(855.390145 0.470313)"/>
    </g>
   </g>
   <g id="text_16">
    <!-- $a_2^{[2]}$ -->
    <g transform="translate(719.384 282.224) scale(0.12 -0.12)">
     <use xlink:href="#DejaVuSans-Oblique-61" transform="translate(0 0.470313)"/>
     <use xlink:href="#DejaVuSans-5b" transform="translate(65.929193 46.810938) scale(0.7)"/>
     <use xlink:href="#DejaVuSans-32" transform="translate(93.238763 46.810938) scale(0.7)"/>
     <use xlink:href="#DejaVuSans-5d" transform="translate(137.774896 46.810938) scale(0.7)"/>
     <use xlink:href="#DejaVuSans-32" transform="translate(61.279297 -26.873437) scale(0.7)"/>
    </g>
   </g>
   <g id="text_17">
    <!-- $\hat{y}$ -->
    <g transform="translate(879.2 234.82) scale(0.16 -0.16)">
     <defs>
      <path id="DejaVuSans-302" d="M -1831 5119 
L -1369 5119 
L -603 3944 
L -1038 3944 
L -1600 4709 
L -2163 3944 
L -2597 3944 
L -1831 5119 
z
M -1600 3584 
L -1600 3584 
z
" transform="scale(0.015625)"/>
      <path id="DejaVuSans-Oblique-79" d="M 1588 -325 
Q 1188 -997 936 -1164 
Q 684 -1331 294 -1331 
L -159 -1331 
L -63 -850 
L 269 -850 
Q 509 -850 678 -719 
Q 847 -588 1056 -206 
L 1234 128 
L 459 3500 
L 1069 3500 
L 1650 819 
L 3256 3500 
L 3859 3500 
L 1588 -325 
z
" transform="scale(0.015625)"/>
     </defs>
     <use xlink:href="#DejaVuSans-302" transform="translate(62.373047 12.015625)"/>
     <use xlink:href="#DejaVuSans-Oblique-79" transform="translate(0 0.828125)"/>
    </g>
   </g>
   <g id="text_18">
    <!-- Input layer -->
    <g transform="translate(108.995391 482.877969) scale(0.13 -0.13)">
     <defs>
      <path id="DejaVuSans-49" d="M 628 4666 
L 1259 4666 
L 1259 0 
L 628 0 
L 628 4666 
z
" transform="scale(0.015625)"/>
      <path id="DejaVuSans-6e" d="M 3513 2113 
L 3513 0 
L 2938 0 
L 2938 2094 
Q 2938 2591 2744 2837 
Q 2550 3084 2163 3084 
Q 1697 3084 1428 2787 
Q 1159 2491 1159 1978 
L 1159 0 
L 581 0 
L 581 3500 
L 1159 3500 
L 1159 2956 
Q 1366 3272 1645 3428 
Q 1925 3584 2291 3584 
Q 2894 3584 3203 3211 
Q 3513 2838 3513 2113 
z
" transform="scale(0.015625)"/>
      <path id="DejaVuSans-70" d="M 1159 525 
L 1159 -1331 
L 581 -1331 
L 581 3500 
L 1159 3500 
L 1159 2969 
Q 1341 3281 1617 3432 
Q 1894 3584 2278 3584 
Q 2916 3584 3314 3078 
Q 3713 2572 3713 1747 
Q 3713 922 3314 415 
Q 2916 -91 2278 -91 
Q 1894 -91 1617 61 
Q 1341 213 1159 525 
z
M 3116 1747 
Q 3116 2381 2855 2742 
Q 2594 3103 2138 3103 
Q 1681 3103 1420 2742 
Q 1159 2381 1159 1747 
Q 1159 1113 1420 752 
Q 1681 391 2138 391 
Q 2594 391 2855 752 
Q 3116 1113 3116 1747 
z
" transform="scale(0.015625)"/>
      <path id="DejaVuSans-75" d="M 544 1381 
L 544 3500 
L 1119 3500 
L 1119 1403 
Q 1119 906 1312 657 
Q 1506 409 1894 409 
Q 2359 409 2629 706 
Q 2900 1003 2900 1516 
L 2900 3500 
L 3475 3500 
L 3475 0 
L 2900 0 
L 2900 538 
Q 2691 219 2414 64 
Q 2138 -91 1772 -91 
Q 1169 -91 856 284 
Q 544 659 544 1381 
z
M 1991 3584 
L 1991 3584 
z
" transform="scale(0.015625)"/>
      <path id="DejaVuSans-74" d="M 1172 4494 
L 1172 3500 
L 2356 3500 
L 2356 3053 
L 1172 3053 
L 1172 1153 
Q 1172 725 1289 603 
Q 1406 481 1766 481 
L 2356 481 
L 2356 0 
L 1766 0 
Q 1100 0 847 248 
Q 594 497 594 1153 
L 594 3053 
L 172 3053 
L 172 3500 
L 594 3500 
L 594 4494 
L 1172 4494 
z
" transform="scale(0.015625)"/>
      <path id="DejaVuSans-20" transform="scale(0.015625)"/>
      <path id="DejaVuSans-6c" d="M 603 4863 
L 1178 4863 
L 1178 0 
L 603 0 
L 603 4863 
z
" transform="scale(0.015625)"/>
      <path id="DejaVuSans-61" d="M 2194 1759 
Q 1497 1759 1228 1600 
Q 959 1441 959 1056 
Q 959 750 1161 570 
Q 1363 391 1709 391 
Q 2188 391 2477 730 
Q 2766 1069 2766 1631 
L 2766 1759 
L 2194 1759 
z
M 3341 1997 
L 3341 0 
L 2766 0 
L 2766 531 
Q 2569 213 2275 61 
Q 1981 -91 1556 -91 
Q 1019 -91 701 211 
Q 384 513 384 1019 
Q 384 1609 779 1909 
Q 1175 2209 1959 2209 
L 2766 2209 
L 2766 2266 
Q 2766 2663 2505 2880 
Q 2244 3097 1772 3097 
Q 1472 3097 1187 3025 
Q 903 2953 641 2809 
L 641 3341 
Q 956 3463 1253 3523 
Q 1550 3584 1831 3584 
Q 2591 3584 2966 3190 
Q 3341 2797 3341 1997 
z
" transform="scale(0.015625)"/>
      <path id="DejaVuSans-79" d="M 2059 -325 
Q 1816 -950 1584 -1140 
Q 1353 -1331 966 -1331 
L 506 -1331 
L 506 -850 
L 844 -850 
Q 1081 -850 1212 -737 
Q 1344 -625 1503 -206 
L 1606 56 
L 191 3500 
L 800 3500 
L 1894 763 
L 2988 3500 
L 3597 3500 
L 2059 -325 
z
" transform="scale(0.015625)"/>
      <path id="DejaVuSans-65" d="M 3597 1894 
L 3597 1613 
L 953 1613 
Q 991 1019 1311 708 
Q 1631 397 2203 397 
Q 2534 397 2845 478 
Q 3156 559 3463 722 
L 3463 178 
Q 3153 47 2828 -22 
Q 2503 -91 2169 -91 
Q 1331 -91 842 396 
Q 353 884 353 1716 
Q 353 2575 817 3079 
Q 1281 3584 2069 3584 
Q 2775 3584 3186 3129 
Q 3597 2675 3597 1894 
z
M 3022 2063 
Q 3016 2534 2758 2815 
Q 2500 3097 2075 3097 
Q 1594 3097 1305 2825 
Q 1016 2553 972 2059 
L 3022 2063 
z
" transform="scale(0.015625)"/>
      <path id="DejaVuSans-72" d="M 2631 2963 
Q 2534 3019 2420 3045 
Q 2306 3072 2169 3072 
Q 1681 3072 1420 2755 
Q 1159 2438 1159 1844 
L 1159 0 
L 581 0 
L 581 3500 
L 1159 3500 
L 1159 2956 
Q 1341 3275 1631 3429 
Q 1922 3584 2338 3584 
Q 2397 3584 2469 3576 
Q 2541 3569 2628 3553 
L 2631 2963 
z
" transform="scale(0.015625)"/>
     </defs>
     <use xlink:href="#DejaVuSans-49"/>
     <use xlink:href="#DejaVuSans-6e" transform="translate(29.492188 0)"/>
     <use xlink:href="#DejaVuSans-70" transform="translate(92.871094 0)"/>
     <use xlink:href="#DejaVuSans-75" transform="translate(156.347656 0)"/>
     <use xlink:href="#DejaVuSans-74" transform="translate(219.726562 0)"/>
     <use xlink:href="#DejaVuSans-20" transform="translate(258.935547 0)"/>
     <use xlink:href="#DejaVuSans-6c" transform="translate(290.722656 0)"/>
     <use xlink:href="#DejaVuSans-61" transform="translate(318.505859 0)"/>
     <use xlink:href="#DejaVuSans-79" transform="translate(379.785156 0)"/>
     <use xlink:href="#DejaVuSans-65" transform="translate(438.964844 0)"/>
     <use xlink:href="#DejaVuSans-72" transform="translate(500.488281 0)"/>
    </g>
   </g>
   <g id="text_19">
    <!-- Hidden layer $[1]$ -->
    <g transform="translate(338.085 482.88) scale(0.13 -0.13)">
     <defs>
      <path id="DejaVuSans-48" d="M 628 4666 
L 1259 4666 
L 1259 2753 
L 3553 2753 
L 3553 4666 
L 4184 4666 
L 4184 0 
L 3553 0 
L 3553 2222 
L 1259 2222 
L 1259 0 
L 628 0 
L 628 4666 
z
" transform="scale(0.015625)"/>
      <path id="DejaVuSans-69" d="M 603 3500 
L 1178 3500 
L 1178 0 
L 603 0 
L 603 3500 
z
M 603 4863 
L 1178 4863 
L 1178 4134 
L 603 4134 
L 603 4863 
z
" transform="scale(0.015625)"/>
      <path id="DejaVuSans-64" d="M 2906 2969 
L 2906 4863 
L 3481 4863 
L 3481 0 
L 2906 0 
L 2906 525 
Q 2725 213 2448 61 
Q 2172 -91 1784 -91 
Q 1150 -91 751 415 
Q 353 922 353 1747 
Q 353 2572 751 3078 
Q 1150 3584 1784 3584 
Q 2172 3584 2448 3432 
Q 2725 3281 2906 2969 
z
M 947 1747 
Q 947 1113 1208 752 
Q 1469 391 1925 391 
Q 2381 391 2643 752 
Q 2906 1113 2906 1747 
Q 2906 2381 2643 2742 
Q 2381 3103 1925 3103 
Q 1469 3103 1208 2742 
Q 947 2381 947 1747 
z
" transform="scale(0.015625)"/>
     </defs>
     <use xlink:href="#DejaVuSans-48" transform="translate(0 0.015625)"/>
     <use xlink:href="#DejaVuSans-69" transform="translate(75.195312 0.015625)"/>
     <use xlink:href="#DejaVuSans-64" transform="translate(102.978516 0.015625)"/>
     <use xlink:href="#DejaVuSans-64" transform="translate(166.455078 0.015625)"/>
     <use xlink:href="#DejaVuSans-65" transform="translate(229.931641 0.015625)"/>
     <use xlink:href="#DejaVuSans-6e" transform="translate(291.455078 0.015625)"/>
     <use xlink:href="#DejaVuSans-20" transform="translate(354.833984 0.015625)"/>
     <use xlink:href="#DejaVuSans-6c" transform="translate(386.621094 0.015625)"/>
     <use xlink:href="#DejaVuSans-61" transform="translate(414.404297 0.015625)"/>
     <use xlink:href="#DejaVuSans-79" transform="translate(475.683594 0.015625)"/>
     <use xlink:href="#DejaVuSans-65" transform="translate(534.863281 0.015625)"/>
     <use xlink:href="#DejaVuSans-72" transform="translate(596.386719 0.015625)"/>
     <use xlink:href="#DejaVuSans-20" transform="translate(637.5 0.015625)"/>
     <use xlink:href="#DejaVuSans-5b" transform="translate(669.287109 0.015625)"/>
     <use xlink:href="#DejaVuSans-31" transform="translate(708.300781 0.015625)"/>
     <use xlink:href="#DejaVuSans-5d" transform="translate(771.923828 0.015625)"/>
    </g>
   </g>
   <g id="text_20">
    <!-- Hidden layer $[2]$ -->
    <g transform="translate(612.085 482.88) scale(0.13 -0.13)">
     <use xlink:href="#DejaVuSans-48" transform="translate(0 0.015625)"/>
     <use xlink:href="#DejaVuSans-69" transform="translate(75.195312 0.015625)"/>
     <use xlink:href="#DejaVuSans-64" transform="translate(102.978516 0.015625)"/>
     <use xlink:href="#DejaVuSans-64" transform="translate(166.455078 0.015625)"/>
     <use xlink:href="#DejaVuSans-65" transform="translate(229.931641 0.015625)"/>
     <use xlink:href="#DejaVuSans-6e" transform="translate(291.455078 0.015625)"/>
     <use xlink:href="#DejaVuSans-20" transform="translate(354.833984 0.015625)"/>
     <use xlink:href="#DejaVuSans-6c" transform="translate(386.621094 0.015625)"/>
     <use xlink:href="#DejaVuSans-61" transform="translate(414.404297 0.015625)"/>
     <use xlink:href="#DejaVuSans-79" transform="translate(475.683594 0.015625)"/>
     <use xlink:href="#DejaVuSans-65" transform="translate(534.863281 0.015625)"/>
     <use xlink:href="#DejaVuSans-72" transform="translate(596.386719 0.015625)"/>
     <use xlink:href="#DejaVuSans-20" transform="translate(637.5 0.015625)"/>
     <use xlink:href="#DejaVuSans-5b" transform="translate(669.287109 0.015625)"/>
     <use xlink:href="#DejaVuSans-32" transform="translate(708.300781 0.015625)"/>
     <use xlink:href="#DejaVuSans-5d" transform="translate(771.923828 0.015625)"/>
    </g>
   </g>
   <g id="text_21">
    <!-- Output -->
    <g transform="translate(861.421641 482.877969) scale(0.13 -0.13)">
     <defs>
      <path id="DejaVuSans-4f" d="M 2522 4238 
Q 1834 4238 1429 3725 
Q 1025 3213 1025 2328 
Q 1025 1447 1429 934 
Q 1834 422 2522 422 
Q 3209 422 3611 934 
Q 4013 1447 4013 2328 
Q 4013 3213 3611 3725 
Q 3209 4238 2522 4238 
z
M 2522 4750 
Q 3503 4750 4090 4092 
Q 4678 3434 4678 2328 
Q 4678 1225 4090 567 
Q 3503 -91 2522 -91 
Q 1538 -91 948 565 
Q 359 1222 359 2328 
Q 359 3434 948 4092 
Q 1538 4750 2522 4750 
z
" transform="scale(0.015625)"/>
     </defs>
     <use xlink:href="#DejaVuSans-4f"/>
     <use xlink:href="#DejaVuSans-75" transform="translate(78.710938 0)"/>
     <use xlink:href="#DejaVuSans-74" transform="translate(142.089844 0)"/>
     <use xlink:href="#DejaVuSans-70" transform="translate(181.298828 0)"/>
     <use xlink:href="#DejaVuSans-75" transform="translate(244.775391 0)"/>
     <use xlink:href="#DejaVuSans-74" transform="translate(308.154297 0)"/>
    </g>
   </g>
  </g>
 </g>
 <defs>
  <clipPath id="p9adff476de">
   <rect x="7.2" y="7.2" width="986.4" height="493.2"/>
  </clipPath>
 </defs>
</svg>
