<?xml version="1.0" encoding="utf-8" standalone="no"?>
<!DOCTYPE svg PUBLIC "-//W3C//DTD SVG 1.1//EN"
  "http://www.w3.org/Graphics/SVG/1.1/DTD/svg11.dtd">
<svg xmlns:xlink="http://www.w3.org/1999/xlink" width="496.676562pt" height="308.756808pt" viewBox="0 0 496.676562 308.756808" xmlns="http://www.w3.org/2000/svg" version="1.1">
 <metadata>
  <rdf:RDF xmlns:dc="http://purl.org/dc/elements/1.1/" xmlns:cc="http://creativecommons.org/ns#" xmlns:rdf="http://www.w3.org/1999/02/22-rdf-syntax-ns#">
   <cc:Work>
    <dc:type rdf:resource="http://purl.org/dc/dcmitype/StillImage"/>
    <dc:date>2026-05-15T05:41:19.189036</dc:date>
    <dc:format>image/svg+xml</dc:format>
    <dc:creator>
     <cc:Agent>
      <dc:title>Matplotlib v3.10.8, https://matplotlib.org/</dc:title>
     </cc:Agent>
    </dc:creator>
   </cc:Work>
  </rdf:RDF>
 </metadata>
 <defs>
  <style type="text/css">*{stroke-linejoin: round; stroke-linecap: butt}</style>
 </defs>
 <g id="figure_1">
  <g id="patch_1">
   <path d="M 0 308.756808 
L 496.676562 308.756808 
L 496.676562 0 
L 0 0 
z
" style="fill: #ffffff"/>
  </g>
  <g id="axes_1">
   <g id="patch_2">
    <path d="M 28.942187 284.878683 
L 486.295312 284.878683 
L 486.295312 7.2 
L 28.942187 7.2 
z
" style="fill: #ffffff"/>
   </g>
   <g id="patch_3">
    <path d="M 307.595102 434.80774 
C 373.325882 412.89748 427.718638 365.722893 458.704424 303.751319 
C 489.690211 241.779746 494.794227 169.960789 472.883967 104.230009 
C 450.973707 38.499229 403.799121 -15.893526 341.827547 -46.879313 
C 279.855973 -77.8651 208.037017 -82.969116 142.306237 -61.058856 
L 224.95067 186.874442 
z
" clip-path="url(#p9e4fc333b1)" style="fill: #2e8b57; opacity: 0.08"/>
   </g>
   <g id="patch_4">
    <path d="M 142.306237 -61.058856 
C 76.575457 -39.148596 22.182702 8.025991 -8.803085 69.997565 
C -39.788872 131.969138 -44.892888 203.788094 -22.982628 269.518875 
C -1.072368 335.249655 46.102218 389.64241 108.073792 420.628197 
C 170.045366 451.613984 241.864322 456.718 307.595102 434.80774 
L 224.95067 186.874442 
z
" clip-path="url(#p9e4fc333b1)" style="fill: #cd5c5c; opacity: 0.08"/>
   </g>
   <g id="matplotlib.axis_1">
    <g id="xtick_1">
     <g id="line2d_1">
      <path d="M 28.942187 284.878683 
L 28.942187 7.2 
" clip-path="url(#p9e4fc333b1)" style="fill: none; stroke-dasharray: 2.96,1.28; stroke-dashoffset: 0; stroke: #b0b0b0; stroke-opacity: 0.3; stroke-width: 0.8"/>
     </g>
     <g id="line2d_2">
      <defs>
       <path id="m2f4cc0dded" d="M 0 0 
L 0 3.5 
" style="stroke: #000000; stroke-width: 0.8"/>
      </defs>
      <g>
       <use xlink:href="#m2f4cc0dded" x="28.942187" y="284.878683" style="stroke: #000000; stroke-width: 0.8"/>
      </g>
     </g>
     <g id="text_1">
      <!-- −6 -->
      <g transform="translate(21.571094 299.477121) scale(0.1 -0.1)">
       <defs>
        <path id="DejaVuSans-2212" d="M 678 2272 
L 4684 2272 
L 4684 1741 
L 678 1741 
L 678 2272 
z
" transform="scale(0.015625)"/>
        <path id="DejaVuSans-36" d="M 2113 2584 
Q 1688 2584 1439 2293 
Q 1191 2003 1191 1497 
Q 1191 994 1439 701 
Q 1688 409 2113 409 
Q 2538 409 2786 701 
Q 3034 994 3034 1497 
Q 3034 2003 2786 2293 
Q 2538 2584 2113 2584 
z
M 3366 4563 
L 3366 3988 
Q 3128 4100 2886 4159 
Q 2644 4219 2406 4219 
Q 1781 4219 1451 3797 
Q 1122 3375 1075 2522 
Q 1259 2794 1537 2939 
Q 1816 3084 2150 3084 
Q 2853 3084 3261 2657 
Q 3669 2231 3669 1497 
Q 3669 778 3244 343 
Q 2819 -91 2113 -91 
Q 1303 -91 875 529 
Q 447 1150 447 2328 
Q 447 3434 972 4092 
Q 1497 4750 2381 4750 
Q 2619 4750 2861 4703 
Q 3103 4656 3366 4563 
z
" transform="scale(0.015625)"/>
       </defs>
       <use xlink:href="#DejaVuSans-2212"/>
       <use xlink:href="#DejaVuSans-36" transform="translate(83.789062 0)"/>
      </g>
     </g>
    </g>
    <g id="xtick_2">
     <g id="line2d_3">
      <path d="M 94.278348 284.878683 
L 94.278348 7.2 
" clip-path="url(#p9e4fc333b1)" style="fill: none; stroke-dasharray: 2.96,1.28; stroke-dashoffset: 0; stroke: #b0b0b0; stroke-opacity: 0.3; stroke-width: 0.8"/>
     </g>
     <g id="line2d_4">
      <g>
       <use xlink:href="#m2f4cc0dded" x="94.278348" y="284.878683" style="stroke: #000000; stroke-width: 0.8"/>
      </g>
     </g>
     <g id="text_2">
      <!-- −4 -->
      <g transform="translate(86.907254 299.477121) scale(0.1 -0.1)">
       <defs>
        <path id="DejaVuSans-34" d="M 2419 4116 
L 825 1625 
L 2419 1625 
L 2419 4116 
z
M 2253 4666 
L 3047 4666 
L 3047 1625 
L 3713 1625 
L 3713 1100 
L 3047 1100 
L 3047 0 
L 2419 0 
L 2419 1100 
L 313 1100 
L 313 1709 
L 2253 4666 
z
" transform="scale(0.015625)"/>
       </defs>
       <use xlink:href="#DejaVuSans-2212"/>
       <use xlink:href="#DejaVuSans-34" transform="translate(83.789062 0)"/>
      </g>
     </g>
    </g>
    <g id="xtick_3">
     <g id="line2d_5">
      <path d="M 159.614509 284.878683 
L 159.614509 7.2 
" clip-path="url(#p9e4fc333b1)" style="fill: none; stroke-dasharray: 2.96,1.28; stroke-dashoffset: 0; stroke: #b0b0b0; stroke-opacity: 0.3; stroke-width: 0.8"/>
     </g>
     <g id="line2d_6">
      <g>
       <use xlink:href="#m2f4cc0dded" x="159.614509" y="284.878683" style="stroke: #000000; stroke-width: 0.8"/>
      </g>
     </g>
     <g id="text_3">
      <!-- −2 -->
      <g transform="translate(152.243415 299.477121) scale(0.1 -0.1)">
       <defs>
        <path id="DejaVuSans-32" d="M 1228 531 
L 3431 531 
L 3431 0 
L 469 0 
L 469 531 
Q 828 903 1448 1529 
Q 2069 2156 2228 2338 
Q 2531 2678 2651 2914 
Q 2772 3150 2772 3378 
Q 2772 3750 2511 3984 
Q 2250 4219 1831 4219 
Q 1534 4219 1204 4116 
Q 875 4013 500 3803 
L 500 4441 
Q 881 4594 1212 4672 
Q 1544 4750 1819 4750 
Q 2544 4750 2975 4387 
Q 3406 4025 3406 3419 
Q 3406 3131 3298 2873 
Q 3191 2616 2906 2266 
Q 2828 2175 2409 1742 
Q 1991 1309 1228 531 
z
" transform="scale(0.015625)"/>
       </defs>
       <use xlink:href="#DejaVuSans-2212"/>
       <use xlink:href="#DejaVuSans-32" transform="translate(83.789062 0)"/>
      </g>
     </g>
    </g>
    <g id="xtick_4">
     <g id="line2d_7">
      <path d="M 224.95067 284.878683 
L 224.95067 7.2 
" clip-path="url(#p9e4fc333b1)" style="fill: none; stroke-dasharray: 2.96,1.28; stroke-dashoffset: 0; stroke: #b0b0b0; stroke-opacity: 0.3; stroke-width: 0.8"/>
     </g>
     <g id="line2d_8">
      <g>
       <use xlink:href="#m2f4cc0dded" x="224.95067" y="284.878683" style="stroke: #000000; stroke-width: 0.8"/>
      </g>
     </g>
     <g id="text_4">
      <!-- 0 -->
      <g transform="translate(221.76942 299.477121) scale(0.1 -0.1)">
       <defs>
        <path id="DejaVuSans-30" d="M 2034 4250 
Q 1547 4250 1301 3770 
Q 1056 3291 1056 2328 
Q 1056 1369 1301 889 
Q 1547 409 2034 409 
Q 2525 409 2770 889 
Q 3016 1369 3016 2328 
Q 3016 3291 2770 3770 
Q 2525 4250 2034 4250 
z
M 2034 4750 
Q 2819 4750 3233 4129 
Q 3647 3509 3647 2328 
Q 3647 1150 3233 529 
Q 2819 -91 2034 -91 
Q 1250 -91 836 529 
Q 422 1150 422 2328 
Q 422 3509 836 4129 
Q 1250 4750 2034 4750 
z
" transform="scale(0.015625)"/>
       </defs>
       <use xlink:href="#DejaVuSans-30"/>
      </g>
     </g>
    </g>
    <g id="xtick_5">
     <g id="line2d_9">
      <path d="M 290.28683 284.878683 
L 290.28683 7.2 
" clip-path="url(#p9e4fc333b1)" style="fill: none; stroke-dasharray: 2.96,1.28; stroke-dashoffset: 0; stroke: #b0b0b0; stroke-opacity: 0.3; stroke-width: 0.8"/>
     </g>
     <g id="line2d_10">
      <g>
       <use xlink:href="#m2f4cc0dded" x="290.28683" y="284.878683" style="stroke: #000000; stroke-width: 0.8"/>
      </g>
     </g>
     <g id="text_5">
      <!-- 2 -->
      <g transform="translate(287.10558 299.477121) scale(0.1 -0.1)">
       <use xlink:href="#DejaVuSans-32"/>
      </g>
     </g>
    </g>
    <g id="xtick_6">
     <g id="line2d_11">
      <path d="M 355.622991 284.878683 
L 355.622991 7.2 
" clip-path="url(#p9e4fc333b1)" style="fill: none; stroke-dasharray: 2.96,1.28; stroke-dashoffset: 0; stroke: #b0b0b0; stroke-opacity: 0.3; stroke-width: 0.8"/>
     </g>
     <g id="line2d_12">
      <g>
       <use xlink:href="#m2f4cc0dded" x="355.622991" y="284.878683" style="stroke: #000000; stroke-width: 0.8"/>
      </g>
     </g>
     <g id="text_6">
      <!-- 4 -->
      <g transform="translate(352.441741 299.477121) scale(0.1 -0.1)">
       <use xlink:href="#DejaVuSans-34"/>
      </g>
     </g>
    </g>
    <g id="xtick_7">
     <g id="line2d_13">
      <path d="M 420.959152 284.878683 
L 420.959152 7.2 
" clip-path="url(#p9e4fc333b1)" style="fill: none; stroke-dasharray: 2.96,1.28; stroke-dashoffset: 0; stroke: #b0b0b0; stroke-opacity: 0.3; stroke-width: 0.8"/>
     </g>
     <g id="line2d_14">
      <g>
       <use xlink:href="#m2f4cc0dded" x="420.959152" y="284.878683" style="stroke: #000000; stroke-width: 0.8"/>
      </g>
     </g>
     <g id="text_7">
      <!-- 6 -->
      <g transform="translate(417.777902 299.477121) scale(0.1 -0.1)">
       <use xlink:href="#DejaVuSans-36"/>
      </g>
     </g>
    </g>
    <g id="xtick_8">
     <g id="line2d_15">
      <path d="M 486.295312 284.878683 
L 486.295312 7.2 
" clip-path="url(#p9e4fc333b1)" style="fill: none; stroke-dasharray: 2.96,1.28; stroke-dashoffset: 0; stroke: #b0b0b0; stroke-opacity: 0.3; stroke-width: 0.8"/>
     </g>
     <g id="line2d_16">
      <g>
       <use xlink:href="#m2f4cc0dded" x="486.295312" y="284.878683" style="stroke: #000000; stroke-width: 0.8"/>
      </g>
     </g>
     <g id="text_8">
      <!-- 8 -->
      <g transform="translate(483.114062 299.477121) scale(0.1 -0.1)">
       <defs>
        <path id="DejaVuSans-38" d="M 2034 2216 
Q 1584 2216 1326 1975 
Q 1069 1734 1069 1313 
Q 1069 891 1326 650 
Q 1584 409 2034 409 
Q 2484 409 2743 651 
Q 3003 894 3003 1313 
Q 3003 1734 2745 1975 
Q 2488 2216 2034 2216 
z
M 1403 2484 
Q 997 2584 770 2862 
Q 544 3141 544 3541 
Q 544 4100 942 4425 
Q 1341 4750 2034 4750 
Q 2731 4750 3128 4425 
Q 3525 4100 3525 3541 
Q 3525 3141 3298 2862 
Q 3072 2584 2669 2484 
Q 3125 2378 3379 2068 
Q 3634 1759 3634 1313 
Q 3634 634 3220 271 
Q 2806 -91 2034 -91 
Q 1263 -91 848 271 
Q 434 634 434 1313 
Q 434 1759 690 2068 
Q 947 2378 1403 2484 
z
M 1172 3481 
Q 1172 3119 1398 2916 
Q 1625 2713 2034 2713 
Q 2441 2713 2670 2916 
Q 2900 3119 2900 3481 
Q 2900 3844 2670 4047 
Q 2441 4250 2034 4250 
Q 1625 4250 1398 4047 
Q 1172 3844 1172 3481 
z
" transform="scale(0.015625)"/>
       </defs>
       <use xlink:href="#DejaVuSans-38"/>
      </g>
     </g>
    </g>
   </g>
   <g id="matplotlib.axis_2">
    <g id="ytick_1">
     <g id="line2d_17">
      <path d="M 28.942187 284.878683 
L 486.295312 284.878683 
" clip-path="url(#p9e4fc333b1)" style="fill: none; stroke-dasharray: 2.96,1.28; stroke-dashoffset: 0; stroke: #b0b0b0; stroke-opacity: 0.3; stroke-width: 0.8"/>
     </g>
     <g id="line2d_18">
      <defs>
       <path id="m059c3f946d" d="M 0 0 
L -3.5 0 
" style="stroke: #000000; stroke-width: 0.8"/>
      </defs>
      <g>
       <use xlink:href="#m059c3f946d" x="28.942187" y="284.878683" style="stroke: #000000; stroke-width: 0.8"/>
      </g>
     </g>
     <g id="text_9">
      <!-- −3 -->
      <g transform="translate(7.2 288.677902) scale(0.1 -0.1)">
       <defs>
        <path id="DejaVuSans-33" d="M 2597 2516 
Q 3050 2419 3304 2112 
Q 3559 1806 3559 1356 
Q 3559 666 3084 287 
Q 2609 -91 1734 -91 
Q 1441 -91 1130 -33 
Q 819 25 488 141 
L 488 750 
Q 750 597 1062 519 
Q 1375 441 1716 441 
Q 2309 441 2620 675 
Q 2931 909 2931 1356 
Q 2931 1769 2642 2001 
Q 2353 2234 1838 2234 
L 1294 2234 
L 1294 2753 
L 1863 2753 
Q 2328 2753 2575 2939 
Q 2822 3125 2822 3475 
Q 2822 3834 2567 4026 
Q 2313 4219 1838 4219 
Q 1578 4219 1281 4162 
Q 984 4106 628 3988 
L 628 4550 
Q 988 4650 1302 4700 
Q 1616 4750 1894 4750 
Q 2613 4750 3031 4423 
Q 3450 4097 3450 3541 
Q 3450 3153 3228 2886 
Q 3006 2619 2597 2516 
z
" transform="scale(0.015625)"/>
       </defs>
       <use xlink:href="#DejaVuSans-2212"/>
       <use xlink:href="#DejaVuSans-33" transform="translate(83.789062 0)"/>
      </g>
     </g>
    </g>
    <g id="ytick_2">
     <g id="line2d_19">
      <path d="M 28.942187 252.210603 
L 486.295312 252.210603 
" clip-path="url(#p9e4fc333b1)" style="fill: none; stroke-dasharray: 2.96,1.28; stroke-dashoffset: 0; stroke: #b0b0b0; stroke-opacity: 0.3; stroke-width: 0.8"/>
     </g>
     <g id="line2d_20">
      <g>
       <use xlink:href="#m059c3f946d" x="28.942187" y="252.210603" style="stroke: #000000; stroke-width: 0.8"/>
      </g>
     </g>
     <g id="text_10">
      <!-- −2 -->
      <g transform="translate(7.2 256.009821) scale(0.1 -0.1)">
       <use xlink:href="#DejaVuSans-2212"/>
       <use xlink:href="#DejaVuSans-32" transform="translate(83.789062 0)"/>
      </g>
     </g>
    </g>
    <g id="ytick_3">
     <g id="line2d_21">
      <path d="M 28.942187 219.542522 
L 486.295312 219.542522 
" clip-path="url(#p9e4fc333b1)" style="fill: none; stroke-dasharray: 2.96,1.28; stroke-dashoffset: 0; stroke: #b0b0b0; stroke-opacity: 0.3; stroke-width: 0.8"/>
     </g>
     <g id="line2d_22">
      <g>
       <use xlink:href="#m059c3f946d" x="28.942187" y="219.542522" style="stroke: #000000; stroke-width: 0.8"/>
      </g>
     </g>
     <g id="text_11">
      <!-- −1 -->
      <g transform="translate(7.2 223.341741) scale(0.1 -0.1)">
       <defs>
        <path id="DejaVuSans-31" d="M 794 531 
L 1825 531 
L 1825 4091 
L 703 3866 
L 703 4441 
L 1819 4666 
L 2450 4666 
L 2450 531 
L 3481 531 
L 3481 0 
L 794 0 
L 794 531 
z
" transform="scale(0.015625)"/>
       </defs>
       <use xlink:href="#DejaVuSans-2212"/>
       <use xlink:href="#DejaVuSans-31" transform="translate(83.789062 0)"/>
      </g>
     </g>
    </g>
    <g id="ytick_4">
     <g id="line2d_23">
      <path d="M 28.942187 186.874442 
L 486.295312 186.874442 
" clip-path="url(#p9e4fc333b1)" style="fill: none; stroke-dasharray: 2.96,1.28; stroke-dashoffset: 0; stroke: #b0b0b0; stroke-opacity: 0.3; stroke-width: 0.8"/>
     </g>
     <g id="line2d_24">
      <g>
       <use xlink:href="#m059c3f946d" x="28.942187" y="186.874442" style="stroke: #000000; stroke-width: 0.8"/>
      </g>
     </g>
     <g id="text_12">
      <!-- 0 -->
      <g transform="translate(15.579687 190.673661) scale(0.1 -0.1)">
       <use xlink:href="#DejaVuSans-30"/>
      </g>
     </g>
    </g>
    <g id="ytick_5">
     <g id="line2d_25">
      <path d="M 28.942187 154.206362 
L 486.295312 154.206362 
" clip-path="url(#p9e4fc333b1)" style="fill: none; stroke-dasharray: 2.96,1.28; stroke-dashoffset: 0; stroke: #b0b0b0; stroke-opacity: 0.3; stroke-width: 0.8"/>
     </g>
     <g id="line2d_26">
      <g>
       <use xlink:href="#m059c3f946d" x="28.942187" y="154.206362" style="stroke: #000000; stroke-width: 0.8"/>
      </g>
     </g>
     <g id="text_13">
      <!-- 1 -->
      <g transform="translate(15.579687 158.00558) scale(0.1 -0.1)">
       <use xlink:href="#DejaVuSans-31"/>
      </g>
     </g>
    </g>
    <g id="ytick_6">
     <g id="line2d_27">
      <path d="M 28.942187 121.538281 
L 486.295312 121.538281 
" clip-path="url(#p9e4fc333b1)" style="fill: none; stroke-dasharray: 2.96,1.28; stroke-dashoffset: 0; stroke: #b0b0b0; stroke-opacity: 0.3; stroke-width: 0.8"/>
     </g>
     <g id="line2d_28">
      <g>
       <use xlink:href="#m059c3f946d" x="28.942187" y="121.538281" style="stroke: #000000; stroke-width: 0.8"/>
      </g>
     </g>
     <g id="text_14">
      <!-- 2 -->
      <g transform="translate(15.579687 125.3375) scale(0.1 -0.1)">
       <use xlink:href="#DejaVuSans-32"/>
      </g>
     </g>
    </g>
    <g id="ytick_7">
     <g id="line2d_29">
      <path d="M 28.942187 88.870201 
L 486.295312 88.870201 
" clip-path="url(#p9e4fc333b1)" style="fill: none; stroke-dasharray: 2.96,1.28; stroke-dashoffset: 0; stroke: #b0b0b0; stroke-opacity: 0.3; stroke-width: 0.8"/>
     </g>
     <g id="line2d_30">
      <g>
       <use xlink:href="#m059c3f946d" x="28.942187" y="88.870201" style="stroke: #000000; stroke-width: 0.8"/>
      </g>
     </g>
     <g id="text_15">
      <!-- 3 -->
      <g transform="translate(15.579687 92.66942) scale(0.1 -0.1)">
       <use xlink:href="#DejaVuSans-33"/>
      </g>
     </g>
    </g>
    <g id="ytick_8">
     <g id="line2d_31">
      <path d="M 28.942187 56.202121 
L 486.295312 56.202121 
" clip-path="url(#p9e4fc333b1)" style="fill: none; stroke-dasharray: 2.96,1.28; stroke-dashoffset: 0; stroke: #b0b0b0; stroke-opacity: 0.3; stroke-width: 0.8"/>
     </g>
     <g id="line2d_32">
      <g>
       <use xlink:href="#m059c3f946d" x="28.942187" y="56.202121" style="stroke: #000000; stroke-width: 0.8"/>
      </g>
     </g>
     <g id="text_16">
      <!-- 4 -->
      <g transform="translate(15.579687 60.001339) scale(0.1 -0.1)">
       <use xlink:href="#DejaVuSans-34"/>
      </g>
     </g>
    </g>
    <g id="ytick_9">
     <g id="line2d_33">
      <path d="M 28.942187 23.53404 
L 486.295312 23.53404 
" clip-path="url(#p9e4fc333b1)" style="fill: none; stroke-dasharray: 2.96,1.28; stroke-dashoffset: 0; stroke: #b0b0b0; stroke-opacity: 0.3; stroke-width: 0.8"/>
     </g>
     <g id="line2d_34">
      <g>
       <use xlink:href="#m059c3f946d" x="28.942187" y="23.53404" style="stroke: #000000; stroke-width: 0.8"/>
      </g>
     </g>
     <g id="text_17">
      <!-- 5 -->
      <g transform="translate(15.579687 27.333259) scale(0.1 -0.1)">
       <defs>
        <path id="DejaVuSans-35" d="M 691 4666 
L 3169 4666 
L 3169 4134 
L 1269 4134 
L 1269 2991 
Q 1406 3038 1543 3061 
Q 1681 3084 1819 3084 
Q 2600 3084 3056 2656 
Q 3513 2228 3513 1497 
Q 3513 744 3044 326 
Q 2575 -91 1722 -91 
Q 1428 -91 1123 -41 
Q 819 9 494 109 
L 494 744 
Q 775 591 1075 516 
Q 1375 441 1709 441 
Q 2250 441 2565 725 
Q 2881 1009 2881 1497 
Q 2881 1984 2565 2268 
Q 2250 2553 1709 2553 
Q 1456 2553 1204 2497 
Q 953 2441 691 2322 
L 691 4666 
z
" transform="scale(0.015625)"/>
       </defs>
       <use xlink:href="#DejaVuSans-35"/>
      </g>
     </g>
    </g>
   </g>
   <g id="line2d_35">
    <path d="M 245.611778 248.857766 
L 244.985684 246.979484 
L 244.359589 245.101201 
L 243.733495 243.222919 
L 243.107401 241.344636 
L 242.481307 239.466354 
L 241.855213 237.588071 
L 241.229118 235.709788 
L 240.603024 233.831506 
L 239.97693 231.953223 
L 239.350836 230.074941 
L 238.724742 228.196658 
L 238.098648 226.318376 
L 237.472553 224.440093 
L 236.846459 222.561811 
L 236.220365 220.683528 
L 235.594271 218.805245 
L 234.968177 216.926963 
L 234.342082 215.04868 
L 233.715988 213.170398 
L 233.089894 211.292115 
L 232.4638 209.413833 
L 231.837706 207.53555 
L 231.211612 205.657268 
L 230.585517 203.778985 
L 229.959423 201.900702 
L 229.333329 200.02242 
L 228.707235 198.144137 
L 228.081141 196.265855 
L 227.455046 194.387572 
L 226.828952 192.50929 
L 226.202858 190.631007 
L 225.576764 188.752725 
L 224.95067 186.874442 
L 224.324575 184.996159 
L 223.698481 183.117877 
L 223.072387 181.239594 
L 222.446293 179.361312 
L 221.820199 177.483029 
L 221.194105 175.604747 
L 220.56801 173.726464 
L 219.941916 171.848181 
L 219.315822 169.969899 
L 218.689728 168.091616 
L 218.063634 166.213334 
L 217.437539 164.335051 
L 216.811445 162.456769 
L 216.185351 160.578486 
L 215.559257 158.700204 
L 214.933163 156.821921 
L 214.307068 154.943638 
L 213.680974 153.065356 
L 213.05488 151.187073 
L 212.428786 149.308791 
L 211.802692 147.430508 
L 211.176598 145.552226 
L 210.550503 143.673943 
L 209.924409 141.795661 
L 209.298315 139.917378 
L 208.672221 138.039095 
L 208.046127 136.160813 
L 207.420032 134.28253 
L 206.793938 132.404248 
L 206.167844 130.525965 
L 205.54175 128.647683 
L 204.915656 126.7694 
L 204.289562 124.891118 
L 203.663467 123.012835 
L 203.037373 121.134552 
L 202.411279 119.25627 
L 201.785185 117.377987 
L 201.159091 115.499705 
L 200.532996 113.621422 
L 199.906902 111.74314 
L 199.280808 109.864857 
L 198.654714 107.986575 
L 198.02862 106.108292 
L 197.402525 104.230009 
L 196.776431 102.351727 
L 196.150337 100.473444 
L 195.524243 98.595162 
L 194.898149 96.716879 
L 194.272055 94.838597 
L 193.64596 92.960314 
L 193.019866 91.082031 
L 192.393772 89.203749 
L 191.767678 87.325466 
L 191.141584 85.447184 
L 190.515489 83.568901 
L 189.889395 81.690619 
L 189.263301 79.812336 
L 188.637207 77.934054 
L 188.011113 76.055771 
L 187.385018 74.177488 
L 186.758924 72.299206 
L 186.13283 70.420923 
L 185.506736 68.542641 
L 184.880642 66.664358 
L 184.254548 64.786076 
L 183.628453 62.907793 
" clip-path="url(#p9e4fc333b1)" style="fill: none; stroke-dasharray: 3.7,1.6; stroke-dashoffset: 0; stroke: #808080; stroke-opacity: 0.6"/>
   </g>
   <g id="line2d_36">
    <path d="M 28.942187 186.874442 
L 486.295312 186.874442 
" clip-path="url(#p9e4fc333b1)" style="fill: none; stroke: #000000; stroke-width: 0.8; stroke-linecap: square"/>
   </g>
   <g id="line2d_37">
    <path d="M 224.95067 284.878683 
L 224.95067 7.2 
" clip-path="url(#p9e4fc333b1)" style="fill: none; stroke: #000000; stroke-width: 0.8; stroke-linecap: square"/>
   </g>
   <g id="patch_5">
    <path d="M 28.942187 284.878683 
L 28.942187 7.2 
" style="fill: none; stroke: #000000; stroke-width: 0.8; stroke-linejoin: miter; stroke-linecap: square"/>
   </g>
   <g id="patch_6">
    <path d="M 486.295312 284.878683 
L 486.295312 7.2 
" style="fill: none; stroke: #000000; stroke-width: 0.8; stroke-linejoin: miter; stroke-linecap: square"/>
   </g>
   <g id="patch_7">
    <path d="M 28.942187 284.878683 
L 486.295312 284.878683 
" style="fill: none; stroke: #000000; stroke-width: 0.8; stroke-linejoin: miter; stroke-linecap: square"/>
   </g>
   <g id="patch_8">
    <path d="M 28.942187 7.2 
L 486.295312 7.2 
" style="fill: none; stroke: #000000; stroke-width: 0.8; stroke-linejoin: miter; stroke-linecap: square"/>
   </g>
   <g id="patch_9">
    <path d="M 226.849861 186.241378 
Q 322.955226 154.206256 416.408941 123.055018 
" style="fill: none; stroke: #ff8c00; stroke-width: 2.5; stroke-linecap: round"/>
    <path d="M 411.981752 122.422563 
L 416.408941 123.055018 
L 413.246663 126.217296 
" style="fill: none; stroke: #ff8c00; stroke-width: 2.5; stroke-linecap: round"/>
   </g>
   <g id="text_18">
    <!-- $\mathbf{v} = (6, 2)$ -->
    <g style="fill: #ff8c00" transform="translate(388.291071 170.540402) scale(0.1 -0.1)">
     <defs>
      <path id="DejaVuSans-Bold-76" d="M 97 3500 
L 1216 3500 
L 2088 1081 
L 2956 3500 
L 4078 3500 
L 2700 0 
L 1472 0 
L 97 3500 
z
" transform="scale(0.015625)"/>
      <path id="DejaVuSans-3d" d="M 678 2906 
L 4684 2906 
L 4684 2381 
L 678 2381 
L 678 2906 
z
M 678 1631 
L 4684 1631 
L 4684 1100 
L 678 1100 
L 678 1631 
z
" transform="scale(0.015625)"/>
      <path id="DejaVuSans-28" d="M 1984 4856 
Q 1566 4138 1362 3434 
Q 1159 2731 1159 2009 
Q 1159 1288 1364 580 
Q 1569 -128 1984 -844 
L 1484 -844 
Q 1016 -109 783 600 
Q 550 1309 550 2009 
Q 550 2706 781 3412 
Q 1013 4119 1484 4856 
L 1984 4856 
z
" transform="scale(0.015625)"/>
      <path id="DejaVuSans-2c" d="M 750 794 
L 1409 794 
L 1409 256 
L 897 -744 
L 494 -744 
L 750 256 
L 750 794 
z
" transform="scale(0.015625)"/>
      <path id="DejaVuSans-29" d="M 513 4856 
L 1013 4856 
Q 1481 4119 1714 3412 
Q 1947 2706 1947 2009 
Q 1947 1309 1714 600 
Q 1481 -109 1013 -844 
L 513 -844 
Q 928 -128 1133 580 
Q 1338 1288 1338 2009 
Q 1338 2731 1133 3434 
Q 928 4138 513 4856 
z
" transform="scale(0.015625)"/>
     </defs>
     <use xlink:href="#DejaVuSans-Bold-76" transform="translate(0 0.125)"/>
     <use xlink:href="#DejaVuSans-3d" transform="translate(84.667969 0.125)"/>
     <use xlink:href="#DejaVuSans-28" transform="translate(187.939453 0.125)"/>
     <use xlink:href="#DejaVuSans-36" transform="translate(226.953125 0.125)"/>
     <use xlink:href="#DejaVuSans-2c" transform="translate(290.576172 0.125)"/>
     <use xlink:href="#DejaVuSans-32" transform="translate(341.845703 0.125)"/>
     <use xlink:href="#DejaVuSans-29" transform="translate(405.46875 0.125)"/>
    </g>
   </g>
   <g id="patch_10">
    <path d="M 224.317606 184.975251 
Q 208.616361 137.871517 193.799 93.419433 
" style="fill: none; stroke: #808080; stroke-width: 2.5; stroke-linecap: round"/>
    <path d="M 193.166545 97.846622 
L 193.799 93.419433 
L 196.961278 96.581711 
" style="fill: none; stroke: #808080; stroke-width: 2.5; stroke-linecap: round"/>
   </g>
   <g id="text_19">
    <!-- $(-1, 3)$: dot $= 0$ -->
    <g style="fill: #808080" transform="translate(153.080893 82.336585) scale(0.1 -0.1)">
     <defs>
      <path id="DejaVuSans-Bold-3a" d="M 716 3500 
L 1844 3500 
L 1844 2291 
L 716 2291 
L 716 3500 
z
M 716 1209 
L 1844 1209 
L 1844 0 
L 716 0 
L 716 1209 
z
" transform="scale(0.015625)"/>
      <path id="DejaVuSans-Bold-20" transform="scale(0.015625)"/>
      <path id="DejaVuSans-Bold-64" d="M 2919 2988 
L 2919 4863 
L 4044 4863 
L 4044 0 
L 2919 0 
L 2919 506 
Q 2688 197 2409 53 
Q 2131 -91 1766 -91 
Q 1119 -91 703 423 
Q 288 938 288 1747 
Q 288 2556 703 3070 
Q 1119 3584 1766 3584 
Q 2128 3584 2408 3439 
Q 2688 3294 2919 2988 
z
M 2181 722 
Q 2541 722 2730 984 
Q 2919 1247 2919 1747 
Q 2919 2247 2730 2509 
Q 2541 2772 2181 2772 
Q 1825 2772 1636 2509 
Q 1447 2247 1447 1747 
Q 1447 1247 1636 984 
Q 1825 722 2181 722 
z
" transform="scale(0.015625)"/>
      <path id="DejaVuSans-Bold-6f" d="M 2203 2784 
Q 1831 2784 1636 2517 
Q 1441 2250 1441 1747 
Q 1441 1244 1636 976 
Q 1831 709 2203 709 
Q 2569 709 2762 976 
Q 2956 1244 2956 1747 
Q 2956 2250 2762 2517 
Q 2569 2784 2203 2784 
z
M 2203 3584 
Q 3106 3584 3614 3096 
Q 4122 2609 4122 1747 
Q 4122 884 3614 396 
Q 3106 -91 2203 -91 
Q 1297 -91 786 396 
Q 275 884 275 1747 
Q 275 2609 786 3096 
Q 1297 3584 2203 3584 
z
" transform="scale(0.015625)"/>
      <path id="DejaVuSans-Bold-74" d="M 1759 4494 
L 1759 3500 
L 2913 3500 
L 2913 2700 
L 1759 2700 
L 1759 1216 
Q 1759 972 1856 886 
Q 1953 800 2241 800 
L 2816 800 
L 2816 0 
L 1856 0 
Q 1194 0 917 276 
Q 641 553 641 1216 
L 641 2700 
L 84 2700 
L 84 3500 
L 641 3500 
L 641 4494 
L 1759 4494 
z
" transform="scale(0.015625)"/>
     </defs>
     <use xlink:href="#DejaVuSans-28" transform="translate(0 0.015625)"/>
     <use xlink:href="#DejaVuSans-2212" transform="translate(39.013672 0.015625)"/>
     <use xlink:href="#DejaVuSans-31" transform="translate(122.802734 0.015625)"/>
     <use xlink:href="#DejaVuSans-2c" transform="translate(186.425781 0.015625)"/>
     <use xlink:href="#DejaVuSans-33" transform="translate(237.695312 0.015625)"/>
     <use xlink:href="#DejaVuSans-29" transform="translate(301.318359 0.015625)"/>
     <use xlink:href="#DejaVuSans-Bold-3a" transform="translate(340.332031 0.015625)"/>
     <use xlink:href="#DejaVuSans-Bold-20" transform="translate(380.322266 0.015625)"/>
     <use xlink:href="#DejaVuSans-Bold-64" transform="translate(415.136719 0.015625)"/>
     <use xlink:href="#DejaVuSans-Bold-6f" transform="translate(486.71875 0.015625)"/>
     <use xlink:href="#DejaVuSans-Bold-74" transform="translate(555.419922 0.015625)"/>
     <use xlink:href="#DejaVuSans-Bold-20" transform="translate(603.222656 0.015625)"/>
     <use xlink:href="#DejaVuSans-3d" transform="translate(657.519531 0.015625)"/>
     <use xlink:href="#DejaVuSans-30" transform="translate(760.791016 0.015625)"/>
    </g>
   </g>
   <g id="patch_11">
    <path d="M 225.845931 185.083919 
Q 257.618984 121.537814 288.142036 60.491708 
" style="fill: none; stroke: #2e8b57; stroke-width: 2.5; stroke-linecap: round"/>
    <path d="M 284.564328 63.17499 
L 288.142036 60.491708 
L 288.142036 64.963844 
" style="fill: none; stroke: #2e8b57; stroke-width: 2.5; stroke-linecap: round"/>
   </g>
   <g id="text_20">
    <!-- $(2, 4)$: dot $= 20$ -->
    <g style="fill: #2e8b57" transform="translate(257.61875 49.668504) scale(0.1 -0.1)">
     <use xlink:href="#DejaVuSans-28" transform="translate(0 0.015625)"/>
     <use xlink:href="#DejaVuSans-32" transform="translate(39.013672 0.015625)"/>
     <use xlink:href="#DejaVuSans-2c" transform="translate(102.636719 0.015625)"/>
     <use xlink:href="#DejaVuSans-34" transform="translate(153.90625 0.015625)"/>
     <use xlink:href="#DejaVuSans-29" transform="translate(217.529297 0.015625)"/>
     <use xlink:href="#DejaVuSans-Bold-3a" transform="translate(256.542969 0.015625)"/>
     <use xlink:href="#DejaVuSans-Bold-20" transform="translate(296.533203 0.015625)"/>
     <use xlink:href="#DejaVuSans-Bold-64" transform="translate(331.347656 0.015625)"/>
     <use xlink:href="#DejaVuSans-Bold-6f" transform="translate(402.929688 0.015625)"/>
     <use xlink:href="#DejaVuSans-Bold-74" transform="translate(471.630859 0.015625)"/>
     <use xlink:href="#DejaVuSans-Bold-20" transform="translate(519.433594 0.015625)"/>
     <use xlink:href="#DejaVuSans-3d" transform="translate(573.730469 0.015625)"/>
     <use xlink:href="#DejaVuSans-32" transform="translate(677.001953 0.015625)"/>
     <use xlink:href="#DejaVuSans-30" transform="translate(740.625 0.015625)"/>
    </g>
   </g>
   <g id="patch_12">
    <path d="M 223.00861 186.388927 
Q 159.611863 170.53974 98.926747 155.368461 
" style="fill: none; stroke: #cd5c5c; stroke-width: 2.5; stroke-linecap: round"/>
    <path d="M 102.322246 158.278889 
L 98.926747 155.368461 
L 103.292388 154.398319 
" style="fill: none; stroke: #cd5c5c; stroke-width: 2.5; stroke-linecap: round"/>
   </g>
   <g id="text_21">
    <!-- $(-4, 1)$: dot $= -22$ -->
    <g style="fill: #cd5c5c" transform="translate(55.076652 144.405937) scale(0.1 -0.1)">
     <use xlink:href="#DejaVuSans-28" transform="translate(0 0.015625)"/>
     <use xlink:href="#DejaVuSans-2212" transform="translate(39.013672 0.015625)"/>
     <use xlink:href="#DejaVuSans-34" transform="translate(122.802734 0.015625)"/>
     <use xlink:href="#DejaVuSans-2c" transform="translate(186.425781 0.015625)"/>
     <use xlink:href="#DejaVuSans-31" transform="translate(237.695312 0.015625)"/>
     <use xlink:href="#DejaVuSans-29" transform="translate(301.318359 0.015625)"/>
     <use xlink:href="#DejaVuSans-Bold-3a" transform="translate(340.332031 0.015625)"/>
     <use xlink:href="#DejaVuSans-Bold-20" transform="translate(380.322266 0.015625)"/>
     <use xlink:href="#DejaVuSans-Bold-64" transform="translate(415.136719 0.015625)"/>
     <use xlink:href="#DejaVuSans-Bold-6f" transform="translate(486.71875 0.015625)"/>
     <use xlink:href="#DejaVuSans-Bold-74" transform="translate(555.419922 0.015625)"/>
     <use xlink:href="#DejaVuSans-Bold-20" transform="translate(603.222656 0.015625)"/>
     <use xlink:href="#DejaVuSans-3d" transform="translate(657.519531 0.015625)"/>
     <use xlink:href="#DejaVuSans-2212" transform="translate(760.791016 0.015625)"/>
     <use xlink:href="#DejaVuSans-32" transform="translate(844.580078 0.015625)"/>
     <use xlink:href="#DejaVuSans-32" transform="translate(908.203125 0.015625)"/>
    </g>
   </g>
   <g id="text_22">
    <!-- dot $&gt; 0$ -->
    <g style="fill: #2e8b57; opacity: 0.7" transform="translate(339.288951 56.202121) scale(0.12 -0.12)">
     <defs>
      <path id="DejaVuSans-Oblique-64" d="M 2675 525 
Q 2444 222 2128 65 
Q 1813 -91 1428 -91 
Q 903 -91 598 267 
Q 294 625 294 1247 
Q 294 1766 478 2236 
Q 663 2706 1013 3078 
Q 1244 3325 1534 3454 
Q 1825 3584 2144 3584 
Q 2481 3584 2739 3421 
Q 2997 3259 3138 2956 
L 3513 4863 
L 4091 4863 
L 3144 0 
L 2566 0 
L 2675 525 
z
M 891 1350 
Q 891 897 1095 644 
Q 1300 391 1663 391 
Q 1931 391 2161 520 
Q 2391 650 2566 903 
Q 2750 1166 2856 1509 
Q 2963 1853 2963 2188 
Q 2963 2622 2758 2865 
Q 2553 3109 2194 3109 
Q 1922 3109 1687 2981 
Q 1453 2853 1288 2613 
Q 1106 2353 998 2009 
Q 891 1666 891 1350 
z
" transform="scale(0.015625)"/>
      <path id="DejaVuSans-Oblique-6f" d="M 1625 -91 
Q 1009 -91 651 289 
Q 294 669 294 1325 
Q 294 1706 417 2101 
Q 541 2497 738 2766 
Q 1047 3184 1428 3384 
Q 1809 3584 2291 3584 
Q 2888 3584 3255 3212 
Q 3622 2841 3622 2241 
Q 3622 1825 3500 1412 
Q 3378 1000 3181 728 
Q 2875 309 2494 109 
Q 2113 -91 1625 -91 
z
M 891 1344 
Q 891 869 1089 633 
Q 1288 397 1691 397 
Q 2269 397 2648 901 
Q 3028 1406 3028 2181 
Q 3028 2634 2825 2865 
Q 2622 3097 2228 3097 
Q 1903 3097 1650 2945 
Q 1397 2794 1197 2484 
Q 1050 2253 970 1956 
Q 891 1659 891 1344 
z
" transform="scale(0.015625)"/>
      <path id="DejaVuSans-Oblique-74" d="M 2706 3500 
L 2619 3053 
L 1472 3053 
L 1100 1153 
Q 1081 1047 1072 975 
Q 1063 903 1063 863 
Q 1063 663 1183 572 
Q 1303 481 1569 481 
L 2150 481 
L 2053 0 
L 1503 0 
Q 991 0 739 200 
Q 488 400 488 806 
Q 488 878 497 964 
Q 506 1050 525 1153 
L 897 3053 
L 409 3053 
L 500 3500 
L 978 3500 
L 1172 4494 
L 1747 4494 
L 1556 3500 
L 2706 3500 
z
" transform="scale(0.015625)"/>
      <path id="DejaVuSans-Oblique-20" transform="scale(0.015625)"/>
      <path id="DejaVuSans-3e" d="M 678 3150 
L 678 3719 
L 4684 2266 
L 4684 1747 
L 678 294 
L 678 863 
L 3897 2003 
L 678 3150 
z
" transform="scale(0.015625)"/>
     </defs>
     <use xlink:href="#DejaVuSans-Oblique-64" transform="translate(0 0.015625)"/>
     <use xlink:href="#DejaVuSans-Oblique-6f" transform="translate(63.476562 0.015625)"/>
     <use xlink:href="#DejaVuSans-Oblique-74" transform="translate(124.658203 0.015625)"/>
     <use xlink:href="#DejaVuSans-Oblique-20" transform="translate(163.867188 0.015625)"/>
     <use xlink:href="#DejaVuSans-3e" transform="translate(215.136719 0.015625)"/>
     <use xlink:href="#DejaVuSans-30" transform="translate(318.408203 0.015625)"/>
    </g>
   </g>
   <g id="text_23">
    <!-- dot $&lt; 0$ -->
    <g style="fill: #cd5c5c; opacity: 0.7" transform="translate(77.944308 235.876562) scale(0.12 -0.12)">
     <defs>
      <path id="DejaVuSans-3c" d="M 4684 3150 
L 1459 2003 
L 4684 863 
L 4684 294 
L 678 1747 
L 678 2266 
L 4684 3719 
L 4684 3150 
z
" transform="scale(0.015625)"/>
     </defs>
     <use xlink:href="#DejaVuSans-Oblique-64" transform="translate(0 0.015625)"/>
     <use xlink:href="#DejaVuSans-Oblique-6f" transform="translate(63.476562 0.015625)"/>
     <use xlink:href="#DejaVuSans-Oblique-74" transform="translate(124.658203 0.015625)"/>
     <use xlink:href="#DejaVuSans-Oblique-20" transform="translate(163.867188 0.015625)"/>
     <use xlink:href="#DejaVuSans-3c" transform="translate(215.136719 0.015625)"/>
     <use xlink:href="#DejaVuSans-30" transform="translate(318.408203 0.015625)"/>
    </g>
   </g>
  </g>
 </g>
 <defs>
  <clipPath id="p9e4fc333b1">
   <rect x="28.942187" y="7.2" width="457.353125" height="277.678683"/>
  </clipPath>
 </defs>
</svg>
