<?xml version="1.0" encoding="utf-8" standalone="no"?>
<!DOCTYPE svg PUBLIC "-//W3C//DTD SVG 1.1//EN"
  "http://www.w3.org/Graphics/SVG/1.1/DTD/svg11.dtd">
<svg xmlns:xlink="http://www.w3.org/1999/xlink" width="752.061591pt" height="350.66pt" viewBox="0 0 752.061591 350.66" xmlns="http://www.w3.org/2000/svg" version="1.1">
 <metadata>
  <rdf:RDF xmlns:dc="http://purl.org/dc/elements/1.1/" xmlns:cc="http://creativecommons.org/ns#" xmlns:rdf="http://www.w3.org/1999/02/22-rdf-syntax-ns#">
   <cc:Work>
    <dc:type rdf:resource="http://purl.org/dc/dcmitype/StillImage"/>
    <dc:date>2026-06-22T15:28:50.019494</dc:date>
    <dc:format>image/svg+xml</dc:format>
    <dc:creator>
     <cc:Agent>
      <dc:title>Matplotlib v3.10.8, https://matplotlib.org/</dc:title>
     </cc:Agent>
    </dc:creator>
   </cc:Work>
  </rdf:RDF>
 </metadata>
 <defs>
  <style type="text/css">*{stroke-linejoin: round; stroke-linecap: butt}</style>
 </defs>
 <g id="figure_1">
  <g id="patch_1">
   <path d="M 0 350.66 
L 752.061591 350.66 
L 752.061591 0 
L 0 0 
z
" style="fill: #ffffff"/>
  </g>
  <g id="axes_1">
   <g id="patch_2">
    <path d="M 36.2025 311.168125 
L 325.0525 311.168125 
L 325.0525 22.318125 
L 36.2025 22.318125 
z
" style="fill: #ffffff"/>
   </g>
   <g id="matplotlib.axis_1">
    <g id="xtick_1">
     <g id="line2d_1">
      <path d="M 72.30875 311.168125 
L 72.30875 22.318125 
" clip-path="url(#p2e74d7d33e)" style="fill: none; stroke-dasharray: 2.96,1.28; stroke-dashoffset: 0; stroke: #b0b0b0; stroke-opacity: 0.4; stroke-width: 0.8"/>
     </g>
     <g id="line2d_2">
      <defs>
       <path id="md2e6ca7cb5" d="M 0 0 
L 0 3.5 
" style="stroke: #000000; stroke-width: 0.8"/>
      </defs>
      <g>
       <use xlink:href="#md2e6ca7cb5" x="72.30875" y="311.168125" style="stroke: #000000; stroke-width: 0.8"/>
      </g>
     </g>
     <g id="text_1">
      <!-- 0 -->
      <g transform="translate(69.1275 325.766562) scale(0.1 -0.1)">
       <defs>
        <path id="DejaVuSans-30" d="M 2034 4250 
Q 1547 4250 1301 3770 
Q 1056 3291 1056 2328 
Q 1056 1369 1301 889 
Q 1547 409 2034 409 
Q 2525 409 2770 889 
Q 3016 1369 3016 2328 
Q 3016 3291 2770 3770 
Q 2525 4250 2034 4250 
z
M 2034 4750 
Q 2819 4750 3233 4129 
Q 3647 3509 3647 2328 
Q 3647 1150 3233 529 
Q 2819 -91 2034 -91 
Q 1250 -91 836 529 
Q 422 1150 422 2328 
Q 422 3509 836 4129 
Q 1250 4750 2034 4750 
z
" transform="scale(0.015625)"/>
       </defs>
       <use xlink:href="#DejaVuSans-30"/>
      </g>
     </g>
    </g>
    <g id="xtick_2">
     <g id="line2d_3">
      <path d="M 144.52125 311.168125 
L 144.52125 22.318125 
" clip-path="url(#p2e74d7d33e)" style="fill: none; stroke-dasharray: 2.96,1.28; stroke-dashoffset: 0; stroke: #b0b0b0; stroke-opacity: 0.4; stroke-width: 0.8"/>
     </g>
     <g id="line2d_4">
      <g>
       <use xlink:href="#md2e6ca7cb5" x="144.52125" y="311.168125" style="stroke: #000000; stroke-width: 0.8"/>
      </g>
     </g>
     <g id="text_2">
      <!-- 1 -->
      <g transform="translate(141.34 325.766562) scale(0.1 -0.1)">
       <defs>
        <path id="DejaVuSans-31" d="M 794 531 
L 1825 531 
L 1825 4091 
L 703 3866 
L 703 4441 
L 1819 4666 
L 2450 4666 
L 2450 531 
L 3481 531 
L 3481 0 
L 794 0 
L 794 531 
z
" transform="scale(0.015625)"/>
       </defs>
       <use xlink:href="#DejaVuSans-31"/>
      </g>
     </g>
    </g>
    <g id="xtick_3">
     <g id="line2d_5">
      <path d="M 216.73375 311.168125 
L 216.73375 22.318125 
" clip-path="url(#p2e74d7d33e)" style="fill: none; stroke-dasharray: 2.96,1.28; stroke-dashoffset: 0; stroke: #b0b0b0; stroke-opacity: 0.4; stroke-width: 0.8"/>
     </g>
     <g id="line2d_6">
      <g>
       <use xlink:href="#md2e6ca7cb5" x="216.73375" y="311.168125" style="stroke: #000000; stroke-width: 0.8"/>
      </g>
     </g>
     <g id="text_3">
      <!-- 2 -->
      <g transform="translate(213.5525 325.766562) scale(0.1 -0.1)">
       <defs>
        <path id="DejaVuSans-32" d="M 1228 531 
L 3431 531 
L 3431 0 
L 469 0 
L 469 531 
Q 828 903 1448 1529 
Q 2069 2156 2228 2338 
Q 2531 2678 2651 2914 
Q 2772 3150 2772 3378 
Q 2772 3750 2511 3984 
Q 2250 4219 1831 4219 
Q 1534 4219 1204 4116 
Q 875 4013 500 3803 
L 500 4441 
Q 881 4594 1212 4672 
Q 1544 4750 1819 4750 
Q 2544 4750 2975 4387 
Q 3406 4025 3406 3419 
Q 3406 3131 3298 2873 
Q 3191 2616 2906 2266 
Q 2828 2175 2409 1742 
Q 1991 1309 1228 531 
z
" transform="scale(0.015625)"/>
       </defs>
       <use xlink:href="#DejaVuSans-32"/>
      </g>
     </g>
    </g>
    <g id="xtick_4">
     <g id="line2d_7">
      <path d="M 288.94625 311.168125 
L 288.94625 22.318125 
" clip-path="url(#p2e74d7d33e)" style="fill: none; stroke-dasharray: 2.96,1.28; stroke-dashoffset: 0; stroke: #b0b0b0; stroke-opacity: 0.4; stroke-width: 0.8"/>
     </g>
     <g id="line2d_8">
      <g>
       <use xlink:href="#md2e6ca7cb5" x="288.94625" y="311.168125" style="stroke: #000000; stroke-width: 0.8"/>
      </g>
     </g>
     <g id="text_4">
      <!-- 3 -->
      <g transform="translate(285.765 325.766562) scale(0.1 -0.1)">
       <defs>
        <path id="DejaVuSans-33" d="M 2597 2516 
Q 3050 2419 3304 2112 
Q 3559 1806 3559 1356 
Q 3559 666 3084 287 
Q 2609 -91 1734 -91 
Q 1441 -91 1130 -33 
Q 819 25 488 141 
L 488 750 
Q 750 597 1062 519 
Q 1375 441 1716 441 
Q 2309 441 2620 675 
Q 2931 909 2931 1356 
Q 2931 1769 2642 2001 
Q 2353 2234 1838 2234 
L 1294 2234 
L 1294 2753 
L 1863 2753 
Q 2328 2753 2575 2939 
Q 2822 3125 2822 3475 
Q 2822 3834 2567 4026 
Q 2313 4219 1838 4219 
Q 1578 4219 1281 4162 
Q 984 4106 628 3988 
L 628 4550 
Q 988 4650 1302 4700 
Q 1616 4750 1894 4750 
Q 2613 4750 3031 4423 
Q 3450 4097 3450 3541 
Q 3450 3153 3228 2886 
Q 3006 2619 2597 2516 
z
" transform="scale(0.015625)"/>
       </defs>
       <use xlink:href="#DejaVuSans-33"/>
      </g>
     </g>
    </g>
    <g id="text_5">
     <!-- $x_1$ (aack count) -->
     <g transform="translate(134.6675 340.964375) scale(0.12 -0.12)">
      <defs>
       <path id="DejaVuSans-Oblique-78" d="M 3841 3500 
L 2234 1784 
L 3219 0 
L 2559 0 
L 1819 1388 
L 531 0 
L -166 0 
L 1556 1844 
L 641 3500 
L 1300 3500 
L 1972 2234 
L 3144 3500 
L 3841 3500 
z
" transform="scale(0.015625)"/>
       <path id="DejaVuSans-20" transform="scale(0.015625)"/>
       <path id="DejaVuSans-28" d="M 1984 4856 
Q 1566 4138 1362 3434 
Q 1159 2731 1159 2009 
Q 1159 1288 1364 580 
Q 1569 -128 1984 -844 
L 1484 -844 
Q 1016 -109 783 600 
Q 550 1309 550 2009 
Q 550 2706 781 3412 
Q 1013 4119 1484 4856 
L 1984 4856 
z
" transform="scale(0.015625)"/>
       <path id="DejaVuSans-61" d="M 2194 1759 
Q 1497 1759 1228 1600 
Q 959 1441 959 1056 
Q 959 750 1161 570 
Q 1363 391 1709 391 
Q 2188 391 2477 730 
Q 2766 1069 2766 1631 
L 2766 1759 
L 2194 1759 
z
M 3341 1997 
L 3341 0 
L 2766 0 
L 2766 531 
Q 2569 213 2275 61 
Q 1981 -91 1556 -91 
Q 1019 -91 701 211 
Q 384 513 384 1019 
Q 384 1609 779 1909 
Q 1175 2209 1959 2209 
L 2766 2209 
L 2766 2266 
Q 2766 2663 2505 2880 
Q 2244 3097 1772 3097 
Q 1472 3097 1187 3025 
Q 903 2953 641 2809 
L 641 3341 
Q 956 3463 1253 3523 
Q 1550 3584 1831 3584 
Q 2591 3584 2966 3190 
Q 3341 2797 3341 1997 
z
" transform="scale(0.015625)"/>
       <path id="DejaVuSans-63" d="M 3122 3366 
L 3122 2828 
Q 2878 2963 2633 3030 
Q 2388 3097 2138 3097 
Q 1578 3097 1268 2742 
Q 959 2388 959 1747 
Q 959 1106 1268 751 
Q 1578 397 2138 397 
Q 2388 397 2633 464 
Q 2878 531 3122 666 
L 3122 134 
Q 2881 22 2623 -34 
Q 2366 -91 2075 -91 
Q 1284 -91 818 406 
Q 353 903 353 1747 
Q 353 2603 823 3093 
Q 1294 3584 2113 3584 
Q 2378 3584 2631 3529 
Q 2884 3475 3122 3366 
z
" transform="scale(0.015625)"/>
       <path id="DejaVuSans-6b" d="M 581 4863 
L 1159 4863 
L 1159 1991 
L 2875 3500 
L 3609 3500 
L 1753 1863 
L 3688 0 
L 2938 0 
L 1159 1709 
L 1159 0 
L 581 0 
L 581 4863 
z
" transform="scale(0.015625)"/>
       <path id="DejaVuSans-6f" d="M 1959 3097 
Q 1497 3097 1228 2736 
Q 959 2375 959 1747 
Q 959 1119 1226 758 
Q 1494 397 1959 397 
Q 2419 397 2687 759 
Q 2956 1122 2956 1747 
Q 2956 2369 2687 2733 
Q 2419 3097 1959 3097 
z
M 1959 3584 
Q 2709 3584 3137 3096 
Q 3566 2609 3566 1747 
Q 3566 888 3137 398 
Q 2709 -91 1959 -91 
Q 1206 -91 779 398 
Q 353 888 353 1747 
Q 353 2609 779 3096 
Q 1206 3584 1959 3584 
z
" transform="scale(0.015625)"/>
       <path id="DejaVuSans-75" d="M 544 1381 
L 544 3500 
L 1119 3500 
L 1119 1403 
Q 1119 906 1312 657 
Q 1506 409 1894 409 
Q 2359 409 2629 706 
Q 2900 1003 2900 1516 
L 2900 3500 
L 3475 3500 
L 3475 0 
L 2900 0 
L 2900 538 
Q 2691 219 2414 64 
Q 2138 -91 1772 -91 
Q 1169 -91 856 284 
Q 544 659 544 1381 
z
M 1991 3584 
L 1991 3584 
z
" transform="scale(0.015625)"/>
       <path id="DejaVuSans-6e" d="M 3513 2113 
L 3513 0 
L 2938 0 
L 2938 2094 
Q 2938 2591 2744 2837 
Q 2550 3084 2163 3084 
Q 1697 3084 1428 2787 
Q 1159 2491 1159 1978 
L 1159 0 
L 581 0 
L 581 3500 
L 1159 3500 
L 1159 2956 
Q 1366 3272 1645 3428 
Q 1925 3584 2291 3584 
Q 2894 3584 3203 3211 
Q 3513 2838 3513 2113 
z
" transform="scale(0.015625)"/>
       <path id="DejaVuSans-74" d="M 1172 4494 
L 1172 3500 
L 2356 3500 
L 2356 3053 
L 1172 3053 
L 1172 1153 
Q 1172 725 1289 603 
Q 1406 481 1766 481 
L 2356 481 
L 2356 0 
L 1766 0 
Q 1100 0 847 248 
Q 594 497 594 1153 
L 594 3053 
L 172 3053 
L 172 3500 
L 594 3500 
L 594 4494 
L 1172 4494 
z
" transform="scale(0.015625)"/>
       <path id="DejaVuSans-29" d="M 513 4856 
L 1013 4856 
Q 1481 4119 1714 3412 
Q 1947 2706 1947 2009 
Q 1947 1309 1714 600 
Q 1481 -109 1013 -844 
L 513 -844 
Q 928 -128 1133 580 
Q 1338 1288 1338 2009 
Q 1338 2731 1133 3434 
Q 928 4138 513 4856 
z
" transform="scale(0.015625)"/>
      </defs>
      <use xlink:href="#DejaVuSans-Oblique-78" transform="translate(0 0.015625)"/>
      <use xlink:href="#DejaVuSans-31" transform="translate(59.179688 -16.390625) scale(0.7)"/>
      <use xlink:href="#DejaVuSans-20" transform="translate(106.450195 0.015625)"/>
      <use xlink:href="#DejaVuSans-28" transform="translate(138.237305 0.015625)"/>
      <use xlink:href="#DejaVuSans-61" transform="translate(177.250977 0.015625)"/>
      <use xlink:href="#DejaVuSans-61" transform="translate(238.530273 0.015625)"/>
      <use xlink:href="#DejaVuSans-63" transform="translate(299.80957 0.015625)"/>
      <use xlink:href="#DejaVuSans-6b" transform="translate(354.790039 0.015625)"/>
      <use xlink:href="#DejaVuSans-20" transform="translate(412.700195 0.015625)"/>
      <use xlink:href="#DejaVuSans-63" transform="translate(444.487305 0.015625)"/>
      <use xlink:href="#DejaVuSans-6f" transform="translate(499.467773 0.015625)"/>
      <use xlink:href="#DejaVuSans-75" transform="translate(560.649414 0.015625)"/>
      <use xlink:href="#DejaVuSans-6e" transform="translate(624.02832 0.015625)"/>
      <use xlink:href="#DejaVuSans-74" transform="translate(687.407227 0.015625)"/>
      <use xlink:href="#DejaVuSans-29" transform="translate(726.616211 0.015625)"/>
     </g>
    </g>
   </g>
   <g id="matplotlib.axis_2">
    <g id="ytick_1">
     <g id="line2d_9">
      <path d="M 36.2025 275.061875 
L 325.0525 275.061875 
" clip-path="url(#p2e74d7d33e)" style="fill: none; stroke-dasharray: 2.96,1.28; stroke-dashoffset: 0; stroke: #b0b0b0; stroke-opacity: 0.4; stroke-width: 0.8"/>
     </g>
     <g id="line2d_10">
      <defs>
       <path id="m08fc05072f" d="M 0 0 
L -3.5 0 
" style="stroke: #000000; stroke-width: 0.8"/>
      </defs>
      <g>
       <use xlink:href="#m08fc05072f" x="36.2025" y="275.061875" style="stroke: #000000; stroke-width: 0.8"/>
      </g>
     </g>
     <g id="text_6">
      <!-- 0 -->
      <g transform="translate(22.84 278.861094) scale(0.1 -0.1)">
       <use xlink:href="#DejaVuSans-30"/>
      </g>
     </g>
    </g>
    <g id="ytick_2">
     <g id="line2d_11">
      <path d="M 36.2025 202.849375 
L 325.0525 202.849375 
" clip-path="url(#p2e74d7d33e)" style="fill: none; stroke-dasharray: 2.96,1.28; stroke-dashoffset: 0; stroke: #b0b0b0; stroke-opacity: 0.4; stroke-width: 0.8"/>
     </g>
     <g id="line2d_12">
      <g>
       <use xlink:href="#m08fc05072f" x="36.2025" y="202.849375" style="stroke: #000000; stroke-width: 0.8"/>
      </g>
     </g>
     <g id="text_7">
      <!-- 1 -->
      <g transform="translate(22.84 206.648594) scale(0.1 -0.1)">
       <use xlink:href="#DejaVuSans-31"/>
      </g>
     </g>
    </g>
    <g id="ytick_3">
     <g id="line2d_13">
      <path d="M 36.2025 130.636875 
L 325.0525 130.636875 
" clip-path="url(#p2e74d7d33e)" style="fill: none; stroke-dasharray: 2.96,1.28; stroke-dashoffset: 0; stroke: #b0b0b0; stroke-opacity: 0.4; stroke-width: 0.8"/>
     </g>
     <g id="line2d_14">
      <g>
       <use xlink:href="#m08fc05072f" x="36.2025" y="130.636875" style="stroke: #000000; stroke-width: 0.8"/>
      </g>
     </g>
     <g id="text_8">
      <!-- 2 -->
      <g transform="translate(22.84 134.436094) scale(0.1 -0.1)">
       <use xlink:href="#DejaVuSans-32"/>
      </g>
     </g>
    </g>
    <g id="ytick_4">
     <g id="line2d_15">
      <path d="M 36.2025 58.424375 
L 325.0525 58.424375 
" clip-path="url(#p2e74d7d33e)" style="fill: none; stroke-dasharray: 2.96,1.28; stroke-dashoffset: 0; stroke: #b0b0b0; stroke-opacity: 0.4; stroke-width: 0.8"/>
     </g>
     <g id="line2d_16">
      <g>
       <use xlink:href="#m08fc05072f" x="36.2025" y="58.424375" style="stroke: #000000; stroke-width: 0.8"/>
      </g>
     </g>
     <g id="text_9">
      <!-- 3 -->
      <g transform="translate(22.84 62.223594) scale(0.1 -0.1)">
       <use xlink:href="#DejaVuSans-33"/>
      </g>
     </g>
    </g>
    <g id="text_10">
     <!-- $x_2$ (beep count) -->
     <g transform="translate(16.32 213.603125) rotate(-90) scale(0.12 -0.12)">
      <defs>
       <path id="DejaVuSans-62" d="M 3116 1747 
Q 3116 2381 2855 2742 
Q 2594 3103 2138 3103 
Q 1681 3103 1420 2742 
Q 1159 2381 1159 1747 
Q 1159 1113 1420 752 
Q 1681 391 2138 391 
Q 2594 391 2855 752 
Q 3116 1113 3116 1747 
z
M 1159 2969 
Q 1341 3281 1617 3432 
Q 1894 3584 2278 3584 
Q 2916 3584 3314 3078 
Q 3713 2572 3713 1747 
Q 3713 922 3314 415 
Q 2916 -91 2278 -91 
Q 1894 -91 1617 61 
Q 1341 213 1159 525 
L 1159 0 
L 581 0 
L 581 4863 
L 1159 4863 
L 1159 2969 
z
" transform="scale(0.015625)"/>
       <path id="DejaVuSans-65" d="M 3597 1894 
L 3597 1613 
L 953 1613 
Q 991 1019 1311 708 
Q 1631 397 2203 397 
Q 2534 397 2845 478 
Q 3156 559 3463 722 
L 3463 178 
Q 3153 47 2828 -22 
Q 2503 -91 2169 -91 
Q 1331 -91 842 396 
Q 353 884 353 1716 
Q 353 2575 817 3079 
Q 1281 3584 2069 3584 
Q 2775 3584 3186 3129 
Q 3597 2675 3597 1894 
z
M 3022 2063 
Q 3016 2534 2758 2815 
Q 2500 3097 2075 3097 
Q 1594 3097 1305 2825 
Q 1016 2553 972 2059 
L 3022 2063 
z
" transform="scale(0.015625)"/>
       <path id="DejaVuSans-70" d="M 1159 525 
L 1159 -1331 
L 581 -1331 
L 581 3500 
L 1159 3500 
L 1159 2969 
Q 1341 3281 1617 3432 
Q 1894 3584 2278 3584 
Q 2916 3584 3314 3078 
Q 3713 2572 3713 1747 
Q 3713 922 3314 415 
Q 2916 -91 2278 -91 
Q 1894 -91 1617 61 
Q 1341 213 1159 525 
z
M 3116 1747 
Q 3116 2381 2855 2742 
Q 2594 3103 2138 3103 
Q 1681 3103 1420 2742 
Q 1159 2381 1159 1747 
Q 1159 1113 1420 752 
Q 1681 391 2138 391 
Q 2594 391 2855 752 
Q 3116 1113 3116 1747 
z
" transform="scale(0.015625)"/>
      </defs>
      <use xlink:href="#DejaVuSans-Oblique-78" transform="translate(0 0.015625)"/>
      <use xlink:href="#DejaVuSans-32" transform="translate(59.179688 -16.390625) scale(0.7)"/>
      <use xlink:href="#DejaVuSans-20" transform="translate(106.450195 0.015625)"/>
      <use xlink:href="#DejaVuSans-28" transform="translate(138.237305 0.015625)"/>
      <use xlink:href="#DejaVuSans-62" transform="translate(177.250977 0.015625)"/>
      <use xlink:href="#DejaVuSans-65" transform="translate(240.727539 0.015625)"/>
      <use xlink:href="#DejaVuSans-65" transform="translate(302.250977 0.015625)"/>
      <use xlink:href="#DejaVuSans-70" transform="translate(363.774414 0.015625)"/>
      <use xlink:href="#DejaVuSans-20" transform="translate(427.250977 0.015625)"/>
      <use xlink:href="#DejaVuSans-63" transform="translate(459.038086 0.015625)"/>
      <use xlink:href="#DejaVuSans-6f" transform="translate(514.018555 0.015625)"/>
      <use xlink:href="#DejaVuSans-75" transform="translate(575.200195 0.015625)"/>
      <use xlink:href="#DejaVuSans-6e" transform="translate(638.579102 0.015625)"/>
      <use xlink:href="#DejaVuSans-74" transform="translate(701.958008 0.015625)"/>
      <use xlink:href="#DejaVuSans-29" transform="translate(741.166992 0.015625)"/>
     </g>
    </g>
   </g>
   <g id="line2d_17">
    <path d="M 36.2025 275.061875 
L 325.0525 275.061875 
" clip-path="url(#p2e74d7d33e)" style="fill: none; stroke: #000000; stroke-width: 0.8; stroke-linecap: square"/>
   </g>
   <g id="line2d_18">
    <path d="M 72.30875 311.168125 
L 72.30875 22.318125 
" clip-path="url(#p2e74d7d33e)" style="fill: none; stroke: #000000; stroke-width: 0.8; stroke-linecap: square"/>
   </g>
   <g id="patch_3">
    <path d="M 36.2025 311.168125 
L 36.2025 22.318125 
" style="fill: none; stroke: #000000; stroke-width: 0.8; stroke-linejoin: miter; stroke-linecap: square"/>
   </g>
   <g id="patch_4">
    <path d="M 325.0525 311.168125 
L 325.0525 22.318125 
" style="fill: none; stroke: #000000; stroke-width: 0.8; stroke-linejoin: miter; stroke-linecap: square"/>
   </g>
   <g id="patch_5">
    <path d="M 36.2025 311.168125 
L 325.0525 311.168125 
" style="fill: none; stroke: #000000; stroke-width: 0.8; stroke-linejoin: miter; stroke-linecap: square"/>
   </g>
   <g id="patch_6">
    <path d="M 36.2025 22.318125 
L 325.0525 22.318125 
" style="fill: none; stroke: #000000; stroke-width: 0.8; stroke-linejoin: miter; stroke-linecap: square"/>
   </g>
   <g id="text_11">
    <!-- Alien Sentiment Data -->
    <g style="fill: #808080" transform="translate(116.541875 16.318125) scale(0.12 -0.12)">
     <defs>
      <path id="DejaVuSans-41" d="M 2188 4044 
L 1331 1722 
L 3047 1722 
L 2188 4044 
z
M 1831 4666 
L 2547 4666 
L 4325 0 
L 3669 0 
L 3244 1197 
L 1141 1197 
L 716 0 
L 50 0 
L 1831 4666 
z
" transform="scale(0.015625)"/>
      <path id="DejaVuSans-6c" d="M 603 4863 
L 1178 4863 
L 1178 0 
L 603 0 
L 603 4863 
z
" transform="scale(0.015625)"/>
      <path id="DejaVuSans-69" d="M 603 3500 
L 1178 3500 
L 1178 0 
L 603 0 
L 603 3500 
z
M 603 4863 
L 1178 4863 
L 1178 4134 
L 603 4134 
L 603 4863 
z
" transform="scale(0.015625)"/>
      <path id="DejaVuSans-53" d="M 3425 4513 
L 3425 3897 
Q 3066 4069 2747 4153 
Q 2428 4238 2131 4238 
Q 1616 4238 1336 4038 
Q 1056 3838 1056 3469 
Q 1056 3159 1242 3001 
Q 1428 2844 1947 2747 
L 2328 2669 
Q 3034 2534 3370 2195 
Q 3706 1856 3706 1288 
Q 3706 609 3251 259 
Q 2797 -91 1919 -91 
Q 1588 -91 1214 -16 
Q 841 59 441 206 
L 441 856 
Q 825 641 1194 531 
Q 1563 422 1919 422 
Q 2459 422 2753 634 
Q 3047 847 3047 1241 
Q 3047 1584 2836 1778 
Q 2625 1972 2144 2069 
L 1759 2144 
Q 1053 2284 737 2584 
Q 422 2884 422 3419 
Q 422 4038 858 4394 
Q 1294 4750 2059 4750 
Q 2388 4750 2728 4690 
Q 3069 4631 3425 4513 
z
" transform="scale(0.015625)"/>
      <path id="DejaVuSans-6d" d="M 3328 2828 
Q 3544 3216 3844 3400 
Q 4144 3584 4550 3584 
Q 5097 3584 5394 3201 
Q 5691 2819 5691 2113 
L 5691 0 
L 5113 0 
L 5113 2094 
Q 5113 2597 4934 2840 
Q 4756 3084 4391 3084 
Q 3944 3084 3684 2787 
Q 3425 2491 3425 1978 
L 3425 0 
L 2847 0 
L 2847 2094 
Q 2847 2600 2669 2842 
Q 2491 3084 2119 3084 
Q 1678 3084 1418 2786 
Q 1159 2488 1159 1978 
L 1159 0 
L 581 0 
L 581 3500 
L 1159 3500 
L 1159 2956 
Q 1356 3278 1631 3431 
Q 1906 3584 2284 3584 
Q 2666 3584 2933 3390 
Q 3200 3197 3328 2828 
z
" transform="scale(0.015625)"/>
      <path id="DejaVuSans-44" d="M 1259 4147 
L 1259 519 
L 2022 519 
Q 2988 519 3436 956 
Q 3884 1394 3884 2338 
Q 3884 3275 3436 3711 
Q 2988 4147 2022 4147 
L 1259 4147 
z
M 628 4666 
L 1925 4666 
Q 3281 4666 3915 4102 
Q 4550 3538 4550 2338 
Q 4550 1131 3912 565 
Q 3275 0 1925 0 
L 628 0 
L 628 4666 
z
" transform="scale(0.015625)"/>
     </defs>
     <use xlink:href="#DejaVuSans-41"/>
     <use xlink:href="#DejaVuSans-6c" transform="translate(68.408203 0)"/>
     <use xlink:href="#DejaVuSans-69" transform="translate(96.191406 0)"/>
     <use xlink:href="#DejaVuSans-65" transform="translate(123.974609 0)"/>
     <use xlink:href="#DejaVuSans-6e" transform="translate(185.498047 0)"/>
     <use xlink:href="#DejaVuSans-20" transform="translate(248.876953 0)"/>
     <use xlink:href="#DejaVuSans-53" transform="translate(280.664062 0)"/>
     <use xlink:href="#DejaVuSans-65" transform="translate(344.140625 0)"/>
     <use xlink:href="#DejaVuSans-6e" transform="translate(405.664062 0)"/>
     <use xlink:href="#DejaVuSans-74" transform="translate(469.042969 0)"/>
     <use xlink:href="#DejaVuSans-69" transform="translate(508.251953 0)"/>
     <use xlink:href="#DejaVuSans-6d" transform="translate(536.035156 0)"/>
     <use xlink:href="#DejaVuSans-65" transform="translate(633.447266 0)"/>
     <use xlink:href="#DejaVuSans-6e" transform="translate(694.970703 0)"/>
     <use xlink:href="#DejaVuSans-74" transform="translate(758.349609 0)"/>
     <use xlink:href="#DejaVuSans-20" transform="translate(797.558594 0)"/>
     <use xlink:href="#DejaVuSans-44" transform="translate(829.345703 0)"/>
     <use xlink:href="#DejaVuSans-61" transform="translate(906.347656 0)"/>
     <use xlink:href="#DejaVuSans-74" transform="translate(967.626953 0)"/>
     <use xlink:href="#DejaVuSans-61" transform="translate(1006.835938 0)"/>
    </g>
   </g>
   <g id="text_12">
    <g id="patch_7">
     <path d="M 277.47875 287.907812 
L 300.41375 287.907812 
Q 302.61375 287.907812 302.61375 285.707812 
L 302.61375 264.415937 
Q 302.61375 262.215937 300.41375 262.215937 
L 277.47875 262.215937 
Q 275.27875 262.215937 275.27875 264.415937 
L 275.27875 285.707812 
Q 275.27875 287.907812 277.47875 287.907812 
z
" style="fill: #ffffff"/>
    </g>
    <!-- 😊 -->
    <g transform="translate(277.47875 281.1325) scale(0.22 -0.22)">
     <defs>
      <path id="DejaVuSans-1f60a" d="M 1691 1453 
L 2050 1675 
Q 2138 1538 2263 1419 
Q 2706 975 3337 975 
Q 3969 975 4413 1419 
Q 4534 1541 4625 1678 
L 4984 1453 
Q 4869 1275 4713 1119 
Q 4144 553 3337 553 
Q 2531 553 1963 1119 
Q 1806 1278 1691 1453 
z
M 1669 2838 
Q 1669 3272 1887 3580 
Q 2106 3888 2412 3888 
Q 2719 3888 2937 3580 
Q 3156 3272 3156 2838 
L 2734 2838 
Q 2734 3097 2639 3283 
Q 2544 3469 2412 3469 
Q 2281 3469 2186 3283 
Q 2091 3097 2091 2838 
L 1669 2838 
z
M 3519 2838 
Q 3519 3272 3737 3580 
Q 3956 3888 4262 3888 
Q 4569 3888 4787 3580 
Q 5006 3272 5006 2838 
L 4584 2838 
Q 4584 3097 4489 3283 
Q 4394 3469 4262 3469 
Q 4131 3469 4036 3283 
Q 3941 3097 3941 2838 
L 3519 2838 
z
M 531 2331 
Q 531 3497 1353 4320 
Q 2175 5144 3338 5144 
Q 4503 5144 5322 4320 
Q 6141 3497 6141 2331 
Q 6141 1169 5322 350 
Q 4503 -469 3338 -469 
Q 2175 -469 1353 350 
Q 531 1169 531 2331 
z
M 953 2331 
Q 953 1344 1651 648 
Q 2350 -47 3338 -47 
Q 4328 -47 5023 648 
Q 5719 1344 5719 2331 
Q 5719 3322 5023 4022 
Q 4328 4722 3338 4722 
Q 2350 4722 1651 4022 
Q 953 3322 953 2331 
z
" transform="scale(0.015625)"/>
     </defs>
     <use xlink:href="#DejaVuSans-1f60a"/>
    </g>
   </g>
   <g id="text_13">
    <g id="patch_8">
     <path d="M 60.84125 143.482812 
L 83.77625 143.482812 
Q 85.97625 143.482812 85.97625 141.282812 
L 85.97625 119.990937 
Q 85.97625 117.790937 83.77625 117.790937 
L 60.84125 117.790937 
Q 58.64125 117.790937 58.64125 119.990937 
L 58.64125 141.282812 
Q 58.64125 143.482812 60.84125 143.482812 
z
" style="fill: #ffffff"/>
    </g>
    <!-- 😢 -->
    <g transform="translate(60.84125 136.7075) scale(0.22 -0.22)">
     <defs>
      <path id="DejaVuSans-1f622" d="M 953 2331 
Q 953 1344 1651 648 
Q 2350 -47 3338 -47 
Q 4328 -47 5023 648 
Q 5719 1344 5719 2331 
Q 5719 3322 5023 4022 
Q 4328 4722 3338 4722 
Q 2350 4722 1651 4022 
Q 953 3322 953 2331 
z
M 531 2331 
Q 531 3497 1353 4320 
Q 2175 5144 3338 5144 
Q 4503 5144 5322 4320 
Q 6141 3497 6141 2331 
Q 6141 1169 5322 350 
Q 4503 -469 3338 -469 
Q 2175 -469 1353 350 
Q 531 1169 531 2331 
z
M 3156 3625 
Q 3156 3191 2937 2883 
Q 2719 2575 2412 2575 
Q 2106 2575 1887 2883 
Q 1669 3191 1669 3625 
L 2091 3625 
Q 2091 3366 2186 3180 
Q 2281 2994 2412 2994 
Q 2544 2994 2639 3180 
Q 2734 3366 2734 3625 
L 3156 3625 
z
M 1691 1038 
Q 1806 1213 1963 1372 
Q 2531 1938 3337 1938 
Q 4144 1938 4713 1372 
Q 4872 1213 4984 1038 
L 4625 813 
Q 4538 950 4413 1072 
Q 3969 1516 3338 1516 
Q 2706 1519 2263 1075 
Q 2141 953 2050 816 
L 1691 1038 
z
M 5006 3625 
Q 5006 3188 4788 2881 
Q 4606 2628 4366 2584 
L 4466 2388 
Q 4553 2216 4550 2106 
Q 4547 1972 4466 1891 
Q 4381 1806 4262 1806 
Q 4144 1806 4059 1890 
Q 3975 1975 3975 2113 
Q 3975 2222 4059 2388 
L 4159 2584 
Q 3919 2625 3738 2881 
Q 3519 3188 3519 3625 
L 3941 3625 
Q 3941 3366 4036 3180 
Q 4131 2994 4262 2994 
Q 4394 2994 4489 3180 
Q 4584 3366 4584 3625 
L 5006 3625 
z
" transform="scale(0.015625)"/>
     </defs>
     <use xlink:href="#DejaVuSans-1f622"/>
    </g>
   </g>
   <g id="text_14">
    <g id="patch_9">
     <path d="M 133.05375 71.270313 
L 155.98875 71.270313 
Q 158.18875 71.270313 158.18875 69.070312 
L 158.18875 47.778437 
Q 158.18875 45.578437 155.98875 45.578437 
L 133.05375 45.578437 
Q 130.85375 45.578437 130.85375 47.778437 
L 130.85375 69.070312 
Q 130.85375 71.270313 133.05375 71.270313 
z
" style="fill: #ffffff"/>
    </g>
    <!-- 😢 -->
    <g transform="translate(133.05375 64.495) scale(0.22 -0.22)">
     <use xlink:href="#DejaVuSans-1f622"/>
    </g>
   </g>
   <g id="text_15">
    <g id="patch_10">
     <path d="M 205.26625 215.695312 
L 228.20125 215.695312 
Q 230.40125 215.695312 230.40125 213.495312 
L 230.40125 192.203437 
Q 230.40125 190.003437 228.20125 190.003437 
L 205.26625 190.003437 
Q 203.06625 190.003437 203.06625 192.203437 
L 203.06625 213.495312 
Q 203.06625 215.695312 205.26625 215.695312 
z
" style="fill: #ffffff"/>
    </g>
    <!-- 😊 -->
    <g transform="translate(205.26625 208.92) scale(0.22 -0.22)">
     <use xlink:href="#DejaVuSans-1f60a"/>
    </g>
   </g>
  </g>
  <g id="axes_2">
   <g id="patch_11">
    <path d="M 456.011591 311.168125 
L 744.861591 311.168125 
L 744.861591 22.318125 
L 456.011591 22.318125 
z
" style="fill: #ffffff"/>
   </g>
   <g id="FillBetweenPolyCollection_1">
    <defs>
     <path id="m057ec7cd08" d="M 456.011591 -39.491875 
L 456.011591 -39.491875 
L 458.929268 -39.491875 
L 461.846944 -39.491875 
L 464.764621 -39.491875 
L 467.682298 -39.491875 
L 470.599975 -39.491875 
L 473.517652 -39.491875 
L 476.435328 -44.2331 
L 479.353005 -50.068453 
L 482.270682 -55.903807 
L 485.188359 -61.73916 
L 488.106035 -67.574514 
L 491.023712 -73.409867 
L 493.941389 -79.245221 
L 496.859066 -85.080574 
L 499.776742 -90.915928 
L 502.694419 -96.751282 
L 505.612096 -102.586635 
L 508.529773 -108.421989 
L 511.447449 -114.257342 
L 514.365126 -120.092696 
L 517.282803 -125.928049 
L 520.20048 -131.763403 
L 523.118157 -137.598756 
L 526.035833 -143.43411 
L 528.95351 -149.269463 
L 531.871187 -155.104817 
L 534.788864 -160.94017 
L 537.70654 -166.775524 
L 540.624217 -172.610878 
L 543.541894 -178.446231 
L 546.459571 -184.281585 
L 549.377247 -190.116938 
L 552.294924 -195.952292 
L 555.212601 -201.787645 
L 558.130278 -207.622999 
L 561.047955 -213.458352 
L 563.965631 -219.293706 
L 566.883308 -225.129059 
L 569.800985 -230.964413 
L 572.718662 -236.799766 
L 575.636338 -242.63512 
L 578.554015 -248.470473 
L 581.471692 -254.305827 
L 584.389369 -260.141181 
L 587.307045 -265.976534 
L 590.224722 -271.811888 
L 593.142399 -277.647241 
L 596.060076 -283.482595 
L 598.977753 -289.317948 
L 601.895429 -295.153302 
L 604.813106 -300.988655 
L 607.730783 -306.824009 
L 610.64846 -312.659362 
L 613.566136 -318.494716 
L 616.483813 -324.330069 
L 619.40149 -328.341875 
L 622.319167 -328.341875 
L 625.236843 -328.341875 
L 628.15452 -328.341875 
L 631.072197 -328.341875 
L 633.989874 -328.341875 
L 636.907551 -328.341875 
L 639.825227 -328.341875 
L 642.742904 -328.341875 
L 645.660581 -328.341875 
L 648.578258 -328.341875 
L 651.495934 -328.341875 
L 654.413611 -328.341875 
L 657.331288 -328.341875 
L 660.248965 -328.341875 
L 663.166641 -328.341875 
L 666.084318 -328.341875 
L 669.001995 -328.341875 
L 671.919672 -328.341875 
L 674.837348 -328.341875 
L 677.755025 -328.341875 
L 680.672702 -328.341875 
L 683.590379 -328.341875 
L 686.508056 -328.341875 
L 689.425732 -328.341875 
L 692.343409 -328.341875 
L 695.261086 -328.341875 
L 698.178763 -328.341875 
L 701.096439 -328.341875 
L 704.014116 -328.341875 
L 706.931793 -328.341875 
L 709.84947 -328.341875 
L 712.767146 -328.341875 
L 715.684823 -328.341875 
L 718.6025 -328.341875 
L 721.520177 -328.341875 
L 724.437854 -328.341875 
L 727.35553 -328.341875 
L 730.273207 -328.341875 
L 733.190884 -328.341875 
L 736.108561 -328.341875 
L 739.026237 -328.341875 
L 741.943914 -328.341875 
L 744.861591 -328.341875 
L 744.861591 -39.491875 
L 744.861591 -39.491875 
L 741.943914 -39.491875 
L 739.026237 -39.491875 
L 736.108561 -39.491875 
L 733.190884 -39.491875 
L 730.273207 -39.491875 
L 727.35553 -39.491875 
L 724.437854 -39.491875 
L 721.520177 -39.491875 
L 718.6025 -39.491875 
L 715.684823 -39.491875 
L 712.767146 -39.491875 
L 709.84947 -39.491875 
L 706.931793 -39.491875 
L 704.014116 -39.491875 
L 701.096439 -39.491875 
L 698.178763 -39.491875 
L 695.261086 -39.491875 
L 692.343409 -39.491875 
L 689.425732 -39.491875 
L 686.508056 -39.491875 
L 683.590379 -39.491875 
L 680.672702 -39.491875 
L 677.755025 -39.491875 
L 674.837348 -39.491875 
L 671.919672 -39.491875 
L 669.001995 -39.491875 
L 666.084318 -39.491875 
L 663.166641 -39.491875 
L 660.248965 -39.491875 
L 657.331288 -39.491875 
L 654.413611 -39.491875 
L 651.495934 -39.491875 
L 648.578258 -39.491875 
L 645.660581 -39.491875 
L 642.742904 -39.491875 
L 639.825227 -39.491875 
L 636.907551 -39.491875 
L 633.989874 -39.491875 
L 631.072197 -39.491875 
L 628.15452 -39.491875 
L 625.236843 -39.491875 
L 622.319167 -39.491875 
L 619.40149 -39.491875 
L 616.483813 -39.491875 
L 613.566136 -39.491875 
L 610.64846 -39.491875 
L 607.730783 -39.491875 
L 604.813106 -39.491875 
L 601.895429 -39.491875 
L 598.977753 -39.491875 
L 596.060076 -39.491875 
L 593.142399 -39.491875 
L 590.224722 -39.491875 
L 587.307045 -39.491875 
L 584.389369 -39.491875 
L 581.471692 -39.491875 
L 578.554015 -39.491875 
L 575.636338 -39.491875 
L 572.718662 -39.491875 
L 569.800985 -39.491875 
L 566.883308 -39.491875 
L 563.965631 -39.491875 
L 561.047955 -39.491875 
L 558.130278 -39.491875 
L 555.212601 -39.491875 
L 552.294924 -39.491875 
L 549.377247 -39.491875 
L 546.459571 -39.491875 
L 543.541894 -39.491875 
L 540.624217 -39.491875 
L 537.70654 -39.491875 
L 534.788864 -39.491875 
L 531.871187 -39.491875 
L 528.95351 -39.491875 
L 526.035833 -39.491875 
L 523.118157 -39.491875 
L 520.20048 -39.491875 
L 517.282803 -39.491875 
L 514.365126 -39.491875 
L 511.447449 -39.491875 
L 508.529773 -39.491875 
L 505.612096 -39.491875 
L 502.694419 -39.491875 
L 499.776742 -39.491875 
L 496.859066 -39.491875 
L 493.941389 -39.491875 
L 491.023712 -39.491875 
L 488.106035 -39.491875 
L 485.188359 -39.491875 
L 482.270682 -39.491875 
L 479.353005 -39.491875 
L 476.435328 -39.491875 
L 473.517652 -39.491875 
L 470.599975 -39.491875 
L 467.682298 -39.491875 
L 464.764621 -39.491875 
L 461.846944 -39.491875 
L 458.929268 -39.491875 
L 456.011591 -39.491875 
z
" style="stroke: #2e8b57; stroke-opacity: 0.05"/>
    </defs>
    <g clip-path="url(#pa7d93c9042)">
     <use xlink:href="#m057ec7cd08" x="0" y="350.66" style="fill: #2e8b57; fill-opacity: 0.05; stroke: #2e8b57; stroke-opacity: 0.05"/>
    </g>
   </g>
   <g id="FillBetweenPolyCollection_2">
    <defs>
     <path id="m85a0f21eca" d="M 456.011591 -328.341875 
L 456.011591 -39.491875 
L 458.929268 -39.491875 
L 461.846944 -39.491875 
L 464.764621 -39.491875 
L 467.682298 -39.491875 
L 470.599975 -39.491875 
L 473.517652 -39.491875 
L 476.435328 -44.2331 
L 479.353005 -50.068453 
L 482.270682 -55.903807 
L 485.188359 -61.73916 
L 488.106035 -67.574514 
L 491.023712 -73.409867 
L 493.941389 -79.245221 
L 496.859066 -85.080574 
L 499.776742 -90.915928 
L 502.694419 -96.751282 
L 505.612096 -102.586635 
L 508.529773 -108.421989 
L 511.447449 -114.257342 
L 514.365126 -120.092696 
L 517.282803 -125.928049 
L 520.20048 -131.763403 
L 523.118157 -137.598756 
L 526.035833 -143.43411 
L 528.95351 -149.269463 
L 531.871187 -155.104817 
L 534.788864 -160.94017 
L 537.70654 -166.775524 
L 540.624217 -172.610878 
L 543.541894 -178.446231 
L 546.459571 -184.281585 
L 549.377247 -190.116938 
L 552.294924 -195.952292 
L 555.212601 -201.787645 
L 558.130278 -207.622999 
L 561.047955 -213.458352 
L 563.965631 -219.293706 
L 566.883308 -225.129059 
L 569.800985 -230.964413 
L 572.718662 -236.799766 
L 575.636338 -242.63512 
L 578.554015 -248.470473 
L 581.471692 -254.305827 
L 584.389369 -260.141181 
L 587.307045 -265.976534 
L 590.224722 -271.811888 
L 593.142399 -277.647241 
L 596.060076 -283.482595 
L 598.977753 -289.317948 
L 601.895429 -295.153302 
L 604.813106 -300.988655 
L 607.730783 -306.824009 
L 610.64846 -312.659362 
L 613.566136 -318.494716 
L 616.483813 -324.330069 
L 619.40149 -328.341875 
L 622.319167 -328.341875 
L 625.236843 -328.341875 
L 628.15452 -328.341875 
L 631.072197 -328.341875 
L 633.989874 -328.341875 
L 636.907551 -328.341875 
L 639.825227 -328.341875 
L 642.742904 -328.341875 
L 645.660581 -328.341875 
L 648.578258 -328.341875 
L 651.495934 -328.341875 
L 654.413611 -328.341875 
L 657.331288 -328.341875 
L 660.248965 -328.341875 
L 663.166641 -328.341875 
L 666.084318 -328.341875 
L 669.001995 -328.341875 
L 671.919672 -328.341875 
L 674.837348 -328.341875 
L 677.755025 -328.341875 
L 680.672702 -328.341875 
L 683.590379 -328.341875 
L 686.508056 -328.341875 
L 689.425732 -328.341875 
L 692.343409 -328.341875 
L 695.261086 -328.341875 
L 698.178763 -328.341875 
L 701.096439 -328.341875 
L 704.014116 -328.341875 
L 706.931793 -328.341875 
L 709.84947 -328.341875 
L 712.767146 -328.341875 
L 715.684823 -328.341875 
L 718.6025 -328.341875 
L 721.520177 -328.341875 
L 724.437854 -328.341875 
L 727.35553 -328.341875 
L 730.273207 -328.341875 
L 733.190884 -328.341875 
L 736.108561 -328.341875 
L 739.026237 -328.341875 
L 741.943914 -328.341875 
L 744.861591 -328.341875 
L 744.861591 -328.341875 
L 744.861591 -328.341875 
L 741.943914 -328.341875 
L 739.026237 -328.341875 
L 736.108561 -328.341875 
L 733.190884 -328.341875 
L 730.273207 -328.341875 
L 727.35553 -328.341875 
L 724.437854 -328.341875 
L 721.520177 -328.341875 
L 718.6025 -328.341875 
L 715.684823 -328.341875 
L 712.767146 -328.341875 
L 709.84947 -328.341875 
L 706.931793 -328.341875 
L 704.014116 -328.341875 
L 701.096439 -328.341875 
L 698.178763 -328.341875 
L 695.261086 -328.341875 
L 692.343409 -328.341875 
L 689.425732 -328.341875 
L 686.508056 -328.341875 
L 683.590379 -328.341875 
L 680.672702 -328.341875 
L 677.755025 -328.341875 
L 674.837348 -328.341875 
L 671.919672 -328.341875 
L 669.001995 -328.341875 
L 666.084318 -328.341875 
L 663.166641 -328.341875 
L 660.248965 -328.341875 
L 657.331288 -328.341875 
L 654.413611 -328.341875 
L 651.495934 -328.341875 
L 648.578258 -328.341875 
L 645.660581 -328.341875 
L 642.742904 -328.341875 
L 639.825227 -328.341875 
L 636.907551 -328.341875 
L 633.989874 -328.341875 
L 631.072197 -328.341875 
L 628.15452 -328.341875 
L 625.236843 -328.341875 
L 622.319167 -328.341875 
L 619.40149 -328.341875 
L 616.483813 -328.341875 
L 613.566136 -328.341875 
L 610.64846 -328.341875 
L 607.730783 -328.341875 
L 604.813106 -328.341875 
L 601.895429 -328.341875 
L 598.977753 -328.341875 
L 596.060076 -328.341875 
L 593.142399 -328.341875 
L 590.224722 -328.341875 
L 587.307045 -328.341875 
L 584.389369 -328.341875 
L 581.471692 -328.341875 
L 578.554015 -328.341875 
L 575.636338 -328.341875 
L 572.718662 -328.341875 
L 569.800985 -328.341875 
L 566.883308 -328.341875 
L 563.965631 -328.341875 
L 561.047955 -328.341875 
L 558.130278 -328.341875 
L 555.212601 -328.341875 
L 552.294924 -328.341875 
L 549.377247 -328.341875 
L 546.459571 -328.341875 
L 543.541894 -328.341875 
L 540.624217 -328.341875 
L 537.70654 -328.341875 
L 534.788864 -328.341875 
L 531.871187 -328.341875 
L 528.95351 -328.341875 
L 526.035833 -328.341875 
L 523.118157 -328.341875 
L 520.20048 -328.341875 
L 517.282803 -328.341875 
L 514.365126 -328.341875 
L 511.447449 -328.341875 
L 508.529773 -328.341875 
L 505.612096 -328.341875 
L 502.694419 -328.341875 
L 499.776742 -328.341875 
L 496.859066 -328.341875 
L 493.941389 -328.341875 
L 491.023712 -328.341875 
L 488.106035 -328.341875 
L 485.188359 -328.341875 
L 482.270682 -328.341875 
L 479.353005 -328.341875 
L 476.435328 -328.341875 
L 473.517652 -328.341875 
L 470.599975 -328.341875 
L 467.682298 -328.341875 
L 464.764621 -328.341875 
L 461.846944 -328.341875 
L 458.929268 -328.341875 
L 456.011591 -328.341875 
z
" style="stroke: #cc0000; stroke-opacity: 0.05"/>
    </defs>
    <g clip-path="url(#pa7d93c9042)">
     <use xlink:href="#m85a0f21eca" x="0" y="350.66" style="fill: #cc0000; fill-opacity: 0.05; stroke: #cc0000; stroke-opacity: 0.05"/>
    </g>
   </g>
   <g id="matplotlib.axis_3">
    <g id="xtick_5">
     <g id="line2d_19">
      <path d="M 492.117841 311.168125 
L 492.117841 22.318125 
" clip-path="url(#pa7d93c9042)" style="fill: none; stroke-dasharray: 2.96,1.28; stroke-dashoffset: 0; stroke: #b0b0b0; stroke-opacity: 0.4; stroke-width: 0.8"/>
     </g>
     <g id="line2d_20">
      <g>
       <use xlink:href="#md2e6ca7cb5" x="492.117841" y="311.168125" style="stroke: #000000; stroke-width: 0.8"/>
      </g>
     </g>
     <g id="text_16">
      <!-- 0 -->
      <g transform="translate(488.936591 325.766562) scale(0.1 -0.1)">
       <use xlink:href="#DejaVuSans-30"/>
      </g>
     </g>
    </g>
    <g id="xtick_6">
     <g id="line2d_21">
      <path d="M 564.330341 311.168125 
L 564.330341 22.318125 
" clip-path="url(#pa7d93c9042)" style="fill: none; stroke-dasharray: 2.96,1.28; stroke-dashoffset: 0; stroke: #b0b0b0; stroke-opacity: 0.4; stroke-width: 0.8"/>
     </g>
     <g id="line2d_22">
      <g>
       <use xlink:href="#md2e6ca7cb5" x="564.330341" y="311.168125" style="stroke: #000000; stroke-width: 0.8"/>
      </g>
     </g>
     <g id="text_17">
      <!-- 1 -->
      <g transform="translate(561.149091 325.766562) scale(0.1 -0.1)">
       <use xlink:href="#DejaVuSans-31"/>
      </g>
     </g>
    </g>
    <g id="xtick_7">
     <g id="line2d_23">
      <path d="M 636.542841 311.168125 
L 636.542841 22.318125 
" clip-path="url(#pa7d93c9042)" style="fill: none; stroke-dasharray: 2.96,1.28; stroke-dashoffset: 0; stroke: #b0b0b0; stroke-opacity: 0.4; stroke-width: 0.8"/>
     </g>
     <g id="line2d_24">
      <g>
       <use xlink:href="#md2e6ca7cb5" x="636.542841" y="311.168125" style="stroke: #000000; stroke-width: 0.8"/>
      </g>
     </g>
     <g id="text_18">
      <!-- 2 -->
      <g transform="translate(633.361591 325.766562) scale(0.1 -0.1)">
       <use xlink:href="#DejaVuSans-32"/>
      </g>
     </g>
    </g>
    <g id="xtick_8">
     <g id="line2d_25">
      <path d="M 708.755341 311.168125 
L 708.755341 22.318125 
" clip-path="url(#pa7d93c9042)" style="fill: none; stroke-dasharray: 2.96,1.28; stroke-dashoffset: 0; stroke: #b0b0b0; stroke-opacity: 0.4; stroke-width: 0.8"/>
     </g>
     <g id="line2d_26">
      <g>
       <use xlink:href="#md2e6ca7cb5" x="708.755341" y="311.168125" style="stroke: #000000; stroke-width: 0.8"/>
      </g>
     </g>
     <g id="text_19">
      <!-- 3 -->
      <g transform="translate(705.574091 325.766562) scale(0.1 -0.1)">
       <use xlink:href="#DejaVuSans-33"/>
      </g>
     </g>
    </g>
    <g id="text_20">
     <!-- $x_1$ (aack count) -->
     <g transform="translate(554.476591 340.964375) scale(0.12 -0.12)">
      <use xlink:href="#DejaVuSans-Oblique-78" transform="translate(0 0.015625)"/>
      <use xlink:href="#DejaVuSans-31" transform="translate(59.179688 -16.390625) scale(0.7)"/>
      <use xlink:href="#DejaVuSans-20" transform="translate(106.450195 0.015625)"/>
      <use xlink:href="#DejaVuSans-28" transform="translate(138.237305 0.015625)"/>
      <use xlink:href="#DejaVuSans-61" transform="translate(177.250977 0.015625)"/>
      <use xlink:href="#DejaVuSans-61" transform="translate(238.530273 0.015625)"/>
      <use xlink:href="#DejaVuSans-63" transform="translate(299.80957 0.015625)"/>
      <use xlink:href="#DejaVuSans-6b" transform="translate(354.790039 0.015625)"/>
      <use xlink:href="#DejaVuSans-20" transform="translate(412.700195 0.015625)"/>
      <use xlink:href="#DejaVuSans-63" transform="translate(444.487305 0.015625)"/>
      <use xlink:href="#DejaVuSans-6f" transform="translate(499.467773 0.015625)"/>
      <use xlink:href="#DejaVuSans-75" transform="translate(560.649414 0.015625)"/>
      <use xlink:href="#DejaVuSans-6e" transform="translate(624.02832 0.015625)"/>
      <use xlink:href="#DejaVuSans-74" transform="translate(687.407227 0.015625)"/>
      <use xlink:href="#DejaVuSans-29" transform="translate(726.616211 0.015625)"/>
     </g>
    </g>
   </g>
   <g id="matplotlib.axis_4">
    <g id="ytick_5">
     <g id="line2d_27">
      <path d="M 456.011591 275.061875 
L 744.861591 275.061875 
" clip-path="url(#pa7d93c9042)" style="fill: none; stroke-dasharray: 2.96,1.28; stroke-dashoffset: 0; stroke: #b0b0b0; stroke-opacity: 0.4; stroke-width: 0.8"/>
     </g>
     <g id="line2d_28">
      <g>
       <use xlink:href="#m08fc05072f" x="456.011591" y="275.061875" style="stroke: #000000; stroke-width: 0.8"/>
      </g>
     </g>
     <g id="text_21">
      <!-- 0 -->
      <g transform="translate(442.649091 278.861094) scale(0.1 -0.1)">
       <use xlink:href="#DejaVuSans-30"/>
      </g>
     </g>
    </g>
    <g id="ytick_6">
     <g id="line2d_29">
      <path d="M 456.011591 202.849375 
L 744.861591 202.849375 
" clip-path="url(#pa7d93c9042)" style="fill: none; stroke-dasharray: 2.96,1.28; stroke-dashoffset: 0; stroke: #b0b0b0; stroke-opacity: 0.4; stroke-width: 0.8"/>
     </g>
     <g id="line2d_30">
      <g>
       <use xlink:href="#m08fc05072f" x="456.011591" y="202.849375" style="stroke: #000000; stroke-width: 0.8"/>
      </g>
     </g>
     <g id="text_22">
      <!-- 1 -->
      <g transform="translate(442.649091 206.648594) scale(0.1 -0.1)">
       <use xlink:href="#DejaVuSans-31"/>
      </g>
     </g>
    </g>
    <g id="ytick_7">
     <g id="line2d_31">
      <path d="M 456.011591 130.636875 
L 744.861591 130.636875 
" clip-path="url(#pa7d93c9042)" style="fill: none; stroke-dasharray: 2.96,1.28; stroke-dashoffset: 0; stroke: #b0b0b0; stroke-opacity: 0.4; stroke-width: 0.8"/>
     </g>
     <g id="line2d_32">
      <g>
       <use xlink:href="#m08fc05072f" x="456.011591" y="130.636875" style="stroke: #000000; stroke-width: 0.8"/>
      </g>
     </g>
     <g id="text_23">
      <!-- 2 -->
      <g transform="translate(442.649091 134.436094) scale(0.1 -0.1)">
       <use xlink:href="#DejaVuSans-32"/>
      </g>
     </g>
    </g>
    <g id="ytick_8">
     <g id="line2d_33">
      <path d="M 456.011591 58.424375 
L 744.861591 58.424375 
" clip-path="url(#pa7d93c9042)" style="fill: none; stroke-dasharray: 2.96,1.28; stroke-dashoffset: 0; stroke: #b0b0b0; stroke-opacity: 0.4; stroke-width: 0.8"/>
     </g>
     <g id="line2d_34">
      <g>
       <use xlink:href="#m08fc05072f" x="456.011591" y="58.424375" style="stroke: #000000; stroke-width: 0.8"/>
      </g>
     </g>
     <g id="text_24">
      <!-- 3 -->
      <g transform="translate(442.649091 62.223594) scale(0.1 -0.1)">
       <use xlink:href="#DejaVuSans-33"/>
      </g>
     </g>
    </g>
    <g id="text_25">
     <!-- $x_2$ (beep count) -->
     <g transform="translate(436.129091 213.603125) rotate(-90) scale(0.12 -0.12)">
      <use xlink:href="#DejaVuSans-Oblique-78" transform="translate(0 0.015625)"/>
      <use xlink:href="#DejaVuSans-32" transform="translate(59.179688 -16.390625) scale(0.7)"/>
      <use xlink:href="#DejaVuSans-20" transform="translate(106.450195 0.015625)"/>
      <use xlink:href="#DejaVuSans-28" transform="translate(138.237305 0.015625)"/>
      <use xlink:href="#DejaVuSans-62" transform="translate(177.250977 0.015625)"/>
      <use xlink:href="#DejaVuSans-65" transform="translate(240.727539 0.015625)"/>
      <use xlink:href="#DejaVuSans-65" transform="translate(302.250977 0.015625)"/>
      <use xlink:href="#DejaVuSans-70" transform="translate(363.774414 0.015625)"/>
      <use xlink:href="#DejaVuSans-20" transform="translate(427.250977 0.015625)"/>
      <use xlink:href="#DejaVuSans-63" transform="translate(459.038086 0.015625)"/>
      <use xlink:href="#DejaVuSans-6f" transform="translate(514.018555 0.015625)"/>
      <use xlink:href="#DejaVuSans-75" transform="translate(575.200195 0.015625)"/>
      <use xlink:href="#DejaVuSans-6e" transform="translate(638.579102 0.015625)"/>
      <use xlink:href="#DejaVuSans-74" transform="translate(701.958008 0.015625)"/>
      <use xlink:href="#DejaVuSans-29" transform="translate(741.166992 0.015625)"/>
     </g>
    </g>
   </g>
   <g id="line2d_35">
    <path d="M 456.011591 347.274375 
L 458.929268 341.439021 
L 461.846944 335.603668 
L 464.764621 329.768314 
L 467.682298 323.932961 
L 470.599975 318.097607 
L 473.517652 312.262254 
L 476.435328 306.4269 
L 479.353005 300.591547 
L 482.270682 294.756193 
L 485.188359 288.92084 
L 488.106035 283.085486 
L 491.023712 277.250133 
L 493.941389 271.414779 
L 496.859066 265.579426 
L 499.776742 259.744072 
L 502.694419 253.908718 
L 505.612096 248.073365 
L 508.529773 242.238011 
L 511.447449 236.402658 
L 514.365126 230.567304 
L 517.282803 224.731951 
L 520.20048 218.896597 
L 523.118157 213.061244 
L 526.035833 207.22589 
L 528.95351 201.390537 
L 531.871187 195.555183 
L 534.788864 189.71983 
L 537.70654 183.884476 
L 540.624217 178.049122 
L 543.541894 172.213769 
L 546.459571 166.378415 
L 549.377247 160.543062 
L 552.294924 154.707708 
L 555.212601 148.872355 
L 558.130278 143.037001 
L 561.047955 137.201648 
L 563.965631 131.366294 
L 566.883308 125.530941 
L 569.800985 119.695587 
L 572.718662 113.860234 
L 575.636338 108.02488 
L 578.554015 102.189527 
L 581.471692 96.354173 
L 584.389369 90.518819 
L 587.307045 84.683466 
L 590.224722 78.848112 
L 593.142399 73.012759 
L 596.060076 67.177405 
L 598.977753 61.342052 
L 601.895429 55.506698 
L 604.813106 49.671345 
L 607.730783 43.835991 
L 610.64846 38.000638 
L 613.566136 32.165284 
L 616.483813 26.329931 
L 619.40149 20.494577 
L 622.319167 14.659223 
L 625.236843 8.82387 
L 628.15452 2.988516 
L 630.148778 -1 
" clip-path="url(#pa7d93c9042)" style="fill: none; stroke: #cc0000; stroke-width: 2; stroke-linecap: square"/>
   </g>
   <g id="line2d_36">
    <path d="M 456.011591 275.061875 
L 744.861591 275.061875 
" clip-path="url(#pa7d93c9042)" style="fill: none; stroke: #000000; stroke-width: 0.8; stroke-linecap: square"/>
   </g>
   <g id="line2d_37">
    <path d="M 492.117841 311.168125 
L 492.117841 22.318125 
" clip-path="url(#pa7d93c9042)" style="fill: none; stroke: #000000; stroke-width: 0.8; stroke-linecap: square"/>
   </g>
   <g id="patch_12">
    <path d="M 456.011591 311.168125 
L 456.011591 22.318125 
" style="fill: none; stroke: #000000; stroke-width: 0.8; stroke-linejoin: miter; stroke-linecap: square"/>
   </g>
   <g id="patch_13">
    <path d="M 744.861591 311.168125 
L 744.861591 22.318125 
" style="fill: none; stroke: #000000; stroke-width: 0.8; stroke-linejoin: miter; stroke-linecap: square"/>
   </g>
   <g id="patch_14">
    <path d="M 456.011591 311.168125 
L 744.861591 311.168125 
" style="fill: none; stroke: #000000; stroke-width: 0.8; stroke-linejoin: miter; stroke-linecap: square"/>
   </g>
   <g id="patch_15">
    <path d="M 456.011591 22.318125 
L 744.861591 22.318125 
" style="fill: none; stroke: #000000; stroke-width: 0.8; stroke-linejoin: miter; stroke-linecap: square"/>
   </g>
   <g id="text_26">
    <!-- Classification Boundary -->
    <g style="fill: #808080" transform="translate(529.933778 16.318125) scale(0.12 -0.12)">
     <defs>
      <path id="DejaVuSans-43" d="M 4122 4306 
L 4122 3641 
Q 3803 3938 3442 4084 
Q 3081 4231 2675 4231 
Q 1875 4231 1450 3742 
Q 1025 3253 1025 2328 
Q 1025 1406 1450 917 
Q 1875 428 2675 428 
Q 3081 428 3442 575 
Q 3803 722 4122 1019 
L 4122 359 
Q 3791 134 3420 21 
Q 3050 -91 2638 -91 
Q 1578 -91 968 557 
Q 359 1206 359 2328 
Q 359 3453 968 4101 
Q 1578 4750 2638 4750 
Q 3056 4750 3426 4639 
Q 3797 4528 4122 4306 
z
" transform="scale(0.015625)"/>
      <path id="DejaVuSans-73" d="M 2834 3397 
L 2834 2853 
Q 2591 2978 2328 3040 
Q 2066 3103 1784 3103 
Q 1356 3103 1142 2972 
Q 928 2841 928 2578 
Q 928 2378 1081 2264 
Q 1234 2150 1697 2047 
L 1894 2003 
Q 2506 1872 2764 1633 
Q 3022 1394 3022 966 
Q 3022 478 2636 193 
Q 2250 -91 1575 -91 
Q 1294 -91 989 -36 
Q 684 19 347 128 
L 347 722 
Q 666 556 975 473 
Q 1284 391 1588 391 
Q 1994 391 2212 530 
Q 2431 669 2431 922 
Q 2431 1156 2273 1281 
Q 2116 1406 1581 1522 
L 1381 1569 
Q 847 1681 609 1914 
Q 372 2147 372 2553 
Q 372 3047 722 3315 
Q 1072 3584 1716 3584 
Q 2034 3584 2315 3537 
Q 2597 3491 2834 3397 
z
" transform="scale(0.015625)"/>
      <path id="DejaVuSans-66" d="M 2375 4863 
L 2375 4384 
L 1825 4384 
Q 1516 4384 1395 4259 
Q 1275 4134 1275 3809 
L 1275 3500 
L 2222 3500 
L 2222 3053 
L 1275 3053 
L 1275 0 
L 697 0 
L 697 3053 
L 147 3053 
L 147 3500 
L 697 3500 
L 697 3744 
Q 697 4328 969 4595 
Q 1241 4863 1831 4863 
L 2375 4863 
z
" transform="scale(0.015625)"/>
      <path id="DejaVuSans-42" d="M 1259 2228 
L 1259 519 
L 2272 519 
Q 2781 519 3026 730 
Q 3272 941 3272 1375 
Q 3272 1813 3026 2020 
Q 2781 2228 2272 2228 
L 1259 2228 
z
M 1259 4147 
L 1259 2741 
L 2194 2741 
Q 2656 2741 2882 2914 
Q 3109 3088 3109 3444 
Q 3109 3797 2882 3972 
Q 2656 4147 2194 4147 
L 1259 4147 
z
M 628 4666 
L 2241 4666 
Q 2963 4666 3353 4366 
Q 3744 4066 3744 3513 
Q 3744 3084 3544 2831 
Q 3344 2578 2956 2516 
Q 3422 2416 3680 2098 
Q 3938 1781 3938 1306 
Q 3938 681 3513 340 
Q 3088 0 2303 0 
L 628 0 
L 628 4666 
z
" transform="scale(0.015625)"/>
      <path id="DejaVuSans-64" d="M 2906 2969 
L 2906 4863 
L 3481 4863 
L 3481 0 
L 2906 0 
L 2906 525 
Q 2725 213 2448 61 
Q 2172 -91 1784 -91 
Q 1150 -91 751 415 
Q 353 922 353 1747 
Q 353 2572 751 3078 
Q 1150 3584 1784 3584 
Q 2172 3584 2448 3432 
Q 2725 3281 2906 2969 
z
M 947 1747 
Q 947 1113 1208 752 
Q 1469 391 1925 391 
Q 2381 391 2643 752 
Q 2906 1113 2906 1747 
Q 2906 2381 2643 2742 
Q 2381 3103 1925 3103 
Q 1469 3103 1208 2742 
Q 947 2381 947 1747 
z
" transform="scale(0.015625)"/>
      <path id="DejaVuSans-72" d="M 2631 2963 
Q 2534 3019 2420 3045 
Q 2306 3072 2169 3072 
Q 1681 3072 1420 2755 
Q 1159 2438 1159 1844 
L 1159 0 
L 581 0 
L 581 3500 
L 1159 3500 
L 1159 2956 
Q 1341 3275 1631 3429 
Q 1922 3584 2338 3584 
Q 2397 3584 2469 3576 
Q 2541 3569 2628 3553 
L 2631 2963 
z
" transform="scale(0.015625)"/>
      <path id="DejaVuSans-79" d="M 2059 -325 
Q 1816 -950 1584 -1140 
Q 1353 -1331 966 -1331 
L 506 -1331 
L 506 -850 
L 844 -850 
Q 1081 -850 1212 -737 
Q 1344 -625 1503 -206 
L 1606 56 
L 191 3500 
L 800 3500 
L 1894 763 
L 2988 3500 
L 3597 3500 
L 2059 -325 
z
" transform="scale(0.015625)"/>
     </defs>
     <use xlink:href="#DejaVuSans-43"/>
     <use xlink:href="#DejaVuSans-6c" transform="translate(69.824219 0)"/>
     <use xlink:href="#DejaVuSans-61" transform="translate(97.607422 0)"/>
     <use xlink:href="#DejaVuSans-73" transform="translate(158.886719 0)"/>
     <use xlink:href="#DejaVuSans-73" transform="translate(210.986328 0)"/>
     <use xlink:href="#DejaVuSans-69" transform="translate(263.085938 0)"/>
     <use xlink:href="#DejaVuSans-66" transform="translate(290.869141 0)"/>
     <use xlink:href="#DejaVuSans-69" transform="translate(326.074219 0)"/>
     <use xlink:href="#DejaVuSans-63" transform="translate(353.857422 0)"/>
     <use xlink:href="#DejaVuSans-61" transform="translate(408.837891 0)"/>
     <use xlink:href="#DejaVuSans-74" transform="translate(470.117188 0)"/>
     <use xlink:href="#DejaVuSans-69" transform="translate(509.326172 0)"/>
     <use xlink:href="#DejaVuSans-6f" transform="translate(537.109375 0)"/>
     <use xlink:href="#DejaVuSans-6e" transform="translate(598.291016 0)"/>
     <use xlink:href="#DejaVuSans-20" transform="translate(661.669922 0)"/>
     <use xlink:href="#DejaVuSans-42" transform="translate(693.457031 0)"/>
     <use xlink:href="#DejaVuSans-6f" transform="translate(762.060547 0)"/>
     <use xlink:href="#DejaVuSans-75" transform="translate(823.242188 0)"/>
     <use xlink:href="#DejaVuSans-6e" transform="translate(886.621094 0)"/>
     <use xlink:href="#DejaVuSans-64" transform="translate(950 0)"/>
     <use xlink:href="#DejaVuSans-61" transform="translate(1013.476562 0)"/>
     <use xlink:href="#DejaVuSans-72" transform="translate(1074.755859 0)"/>
     <use xlink:href="#DejaVuSans-79" transform="translate(1115.869141 0)"/>
    </g>
   </g>
   <g id="PathCollection_1">
    <defs>
     <path id="md608645d4d" d="M 0 5.477226 
C 1.452577 5.477226 2.845856 4.900111 3.872983 3.872983 
C 4.900111 2.845856 5.477226 1.452577 5.477226 0 
C 5.477226 -1.452577 4.900111 -2.845856 3.872983 -3.872983 
C 2.845856 -4.900111 1.452577 -5.477226 0 -5.477226 
C -1.452577 -5.477226 -2.845856 -4.900111 -3.872983 -3.872983 
C -4.900111 -2.845856 -5.477226 -1.452577 -5.477226 0 
C -5.477226 1.452577 -4.900111 2.845856 -3.872983 3.872983 
C -2.845856 4.900111 -1.452577 5.477226 0 5.477226 
z
" style="stroke: #2e8b57"/>
    </defs>
    <g clip-path="url(#pa7d93c9042)">
     <use xlink:href="#md608645d4d" x="708.755341" y="275.061875" style="fill: #2e8b57; stroke: #2e8b57"/>
     <use xlink:href="#md608645d4d" x="636.542841" y="202.849375" style="fill: #2e8b57; stroke: #2e8b57"/>
    </g>
   </g>
   <g id="PathCollection_2">
    <defs>
     <path id="mbc679ee83a" d="M 0 5.477226 
C 1.452577 5.477226 2.845856 4.900111 3.872983 3.872983 
C 4.900111 2.845856 5.477226 1.452577 5.477226 0 
C 5.477226 -1.452577 4.900111 -2.845856 3.872983 -3.872983 
C 2.845856 -4.900111 1.452577 -5.477226 0 -5.477226 
C -1.452577 -5.477226 -2.845856 -4.900111 -3.872983 -3.872983 
C -4.900111 -2.845856 -5.477226 -1.452577 -5.477226 0 
C -5.477226 1.452577 -4.900111 2.845856 -3.872983 3.872983 
C -2.845856 4.900111 -1.452577 5.477226 0 5.477226 
z
" style="stroke: #cc0000"/>
    </defs>
    <g clip-path="url(#pa7d93c9042)">
     <use xlink:href="#mbc679ee83a" x="492.117841" y="130.636875" style="fill: #cc0000; stroke: #cc0000"/>
     <use xlink:href="#mbc679ee83a" x="564.330341" y="58.424375" style="fill: #cc0000; stroke: #cc0000"/>
    </g>
   </g>
   <g id="legend_1">
    <g id="patch_16">
     <path d="M 612.461591 190.260312 
L 737.861591 190.260312 
Q 739.861591 190.260312 739.861591 188.260312 
L 739.861591 145.225937 
Q 739.861591 143.225937 737.861591 143.225937 
L 612.461591 143.225937 
Q 610.461591 143.225937 610.461591 145.225937 
L 610.461591 188.260312 
Q 610.461591 190.260312 612.461591 190.260312 
z
" style="fill: #ffffff; opacity: 0.8; stroke: #cccccc; stroke-linejoin: miter"/>
    </g>
    <g id="PathCollection_3">
     <g>
      <use xlink:href="#md608645d4d" x="624.461591" y="152.199375" style="fill: #2e8b57; stroke: #2e8b57"/>
     </g>
    </g>
    <g id="text_27">
     <!-- Happy -->
     <g transform="translate(642.461591 154.824375) scale(0.1 -0.1)">
      <defs>
       <path id="DejaVuSans-48" d="M 628 4666 
L 1259 4666 
L 1259 2753 
L 3553 2753 
L 3553 4666 
L 4184 4666 
L 4184 0 
L 3553 0 
L 3553 2222 
L 1259 2222 
L 1259 0 
L 628 0 
L 628 4666 
z
" transform="scale(0.015625)"/>
      </defs>
      <use xlink:href="#DejaVuSans-48"/>
      <use xlink:href="#DejaVuSans-61" transform="translate(75.195312 0)"/>
      <use xlink:href="#DejaVuSans-70" transform="translate(136.474609 0)"/>
      <use xlink:href="#DejaVuSans-70" transform="translate(199.951172 0)"/>
      <use xlink:href="#DejaVuSans-79" transform="translate(263.427734 0)"/>
     </g>
    </g>
    <g id="PathCollection_4">
     <g>
      <use xlink:href="#mbc679ee83a" x="624.461591" y="166.8775" style="fill: #cc0000; stroke: #cc0000"/>
     </g>
    </g>
    <g id="text_28">
     <!-- Sad -->
     <g transform="translate(642.461591 169.5025) scale(0.1 -0.1)">
      <use xlink:href="#DejaVuSans-53"/>
      <use xlink:href="#DejaVuSans-61" transform="translate(63.476562 0)"/>
      <use xlink:href="#DejaVuSans-64" transform="translate(124.755859 0)"/>
     </g>
    </g>
    <g id="line2d_38">
     <path d="M 614.461591 180.680625 
L 624.461591 180.680625 
L 634.461591 180.680625 
" style="fill: none; stroke: #cc0000; stroke-width: 2; stroke-linecap: square"/>
    </g>
    <g id="text_29">
     <!-- Decision boundary -->
     <g transform="translate(642.461591 184.180625) scale(0.1 -0.1)">
      <use xlink:href="#DejaVuSans-44"/>
      <use xlink:href="#DejaVuSans-65" transform="translate(77.001953 0)"/>
      <use xlink:href="#DejaVuSans-63" transform="translate(138.525391 0)"/>
      <use xlink:href="#DejaVuSans-69" transform="translate(193.505859 0)"/>
      <use xlink:href="#DejaVuSans-73" transform="translate(221.289062 0)"/>
      <use xlink:href="#DejaVuSans-69" transform="translate(273.388672 0)"/>
      <use xlink:href="#DejaVuSans-6f" transform="translate(301.171875 0)"/>
      <use xlink:href="#DejaVuSans-6e" transform="translate(362.353516 0)"/>
      <use xlink:href="#DejaVuSans-20" transform="translate(425.732422 0)"/>
      <use xlink:href="#DejaVuSans-62" transform="translate(457.519531 0)"/>
      <use xlink:href="#DejaVuSans-6f" transform="translate(520.996094 0)"/>
      <use xlink:href="#DejaVuSans-75" transform="translate(582.177734 0)"/>
      <use xlink:href="#DejaVuSans-6e" transform="translate(645.556641 0)"/>
      <use xlink:href="#DejaVuSans-64" transform="translate(708.935547 0)"/>
      <use xlink:href="#DejaVuSans-61" transform="translate(772.412109 0)"/>
      <use xlink:href="#DejaVuSans-72" transform="translate(833.691406 0)"/>
      <use xlink:href="#DejaVuSans-79" transform="translate(874.804688 0)"/>
     </g>
    </g>
   </g>
  </g>
 </g>
 <defs>
  <clipPath id="p2e74d7d33e">
   <rect x="36.2025" y="22.318125" width="288.85" height="288.85"/>
  </clipPath>
  <clipPath id="pa7d93c9042">
   <rect x="456.011591" y="22.318125" width="288.85" height="288.85"/>
  </clipPath>
 </defs>
</svg>
