<?xml version="1.0" encoding="utf-8" standalone="no"?>
<!DOCTYPE svg PUBLIC "-//W3C//DTD SVG 1.1//EN"
  "http://www.w3.org/Graphics/SVG/1.1/DTD/svg11.dtd">
<svg xmlns:xlink="http://www.w3.org/1999/xlink" width="460.8pt" height="258.336pt" viewBox="0 0 460.8 258.336" xmlns="http://www.w3.org/2000/svg" version="1.1">
 <metadata>
  <rdf:RDF xmlns:dc="http://purl.org/dc/elements/1.1/" xmlns:cc="http://creativecommons.org/ns#" xmlns:rdf="http://www.w3.org/1999/02/22-rdf-syntax-ns#">
   <cc:Work>
    <dc:type rdf:resource="http://purl.org/dc/dcmitype/StillImage"/>
    <dc:date>2026-07-23T15:00:46.404773</dc:date>
    <dc:format>image/svg+xml</dc:format>
    <dc:creator>
     <cc:Agent>
      <dc:title>Matplotlib v3.10.8, https://matplotlib.org/</dc:title>
     </cc:Agent>
    </dc:creator>
   </cc:Work>
  </rdf:RDF>
 </metadata>
 <defs>
  <style type="text/css">*{stroke-linejoin: round; stroke-linecap: butt}</style>
 </defs>
 <g id="figure_1">
  <g id="patch_1">
   <path d="M 0 258.336 
L 460.8 258.336 
L 460.8 0 
L 0 0 
z
" style="fill: #ffffff"/>
  </g>
  <g id="axes_1">
   <g id="patch_2">
    <path d="M 220.767025 97.108108 
Q 177.02711 143.240152 134.518002 188.074075 
" clip-path="url(#pd01d708014)" style="fill: none; stroke: #555555; stroke-width: 1.6; stroke-linecap: round"/>
    <path d="M 141.243618 185.631516 
L 134.518002 188.074075 
L 136.599324 181.228047 
z
" clip-path="url(#pd01d708014)" style="fill: #555555; stroke: #555555; stroke-width: 1.6; stroke-linecap: round"/>
   </g>
   <g id="patch_3">
    <path d="M 240.032975 97.108108 
Q 283.77289 143.240152 326.281998 188.074075 
" clip-path="url(#pd01d708014)" style="fill: none; stroke: #555555; stroke-width: 1.6; stroke-linecap: round"/>
    <path d="M 324.200676 181.228047 
L 326.281998 188.074075 
L 319.556382 185.631516 
z
" clip-path="url(#pd01d708014)" style="fill: #555555; stroke: #555555; stroke-width: 1.6; stroke-linecap: round"/>
   </g>
   <g id="patch_4">
    <path d="M 230.4 111.576462 
C 246.485145 111.576462 261.913649 108.981484 273.287563 104.363042 
C 284.661478 99.744601 291.052174 93.47977 291.052174 86.948308 
C 291.052174 80.416845 284.661478 74.152015 273.287563 69.533573 
C 261.913649 64.915131 246.485145 62.320154 230.4 62.320154 
C 214.314855 62.320154 198.886351 64.915131 187.512437 69.533573 
C 176.138522 74.152015 169.747826 80.416845 169.747826 86.948308 
C 169.747826 93.47977 176.138522 99.744601 187.512437 104.363042 
C 198.886351 108.981484 214.314855 111.576462 230.4 111.576462 
z
" clip-path="url(#pd01d708014)" style="fill: #ffffff; stroke: #7030a0; stroke-width: 2; stroke-linejoin: miter"/>
   </g>
   <g id="text_1">
    <g id="patch_5">
     <path d="M 126.490557 149.280293 
L 159.631182 149.280293 
L 159.631182 137.202168 
L 126.490557 137.202168 
z
" style="fill: #ffffff"/>
    </g>
    <!-- Pointy -->
    <g style="fill: #555555" transform="translate(127.690557 146.000606) scale(0.1 -0.1)">
     <defs>
      <path id="DejaVuSans-50" d="M 1259 4147 
L 1259 2394 
L 2053 2394 
Q 2494 2394 2734 2622 
Q 2975 2850 2975 3272 
Q 2975 3691 2734 3919 
Q 2494 4147 2053 4147 
L 1259 4147 
z
M 628 4666 
L 2053 4666 
Q 2838 4666 3239 4311 
Q 3641 3956 3641 3272 
Q 3641 2581 3239 2228 
Q 2838 1875 2053 1875 
L 1259 1875 
L 1259 0 
L 628 0 
L 628 4666 
z
" transform="scale(0.015625)"/>
      <path id="DejaVuSans-6f" d="M 1959 3097 
Q 1497 3097 1228 2736 
Q 959 2375 959 1747 
Q 959 1119 1226 758 
Q 1494 397 1959 397 
Q 2419 397 2687 759 
Q 2956 1122 2956 1747 
Q 2956 2369 2687 2733 
Q 2419 3097 1959 3097 
z
M 1959 3584 
Q 2709 3584 3137 3096 
Q 3566 2609 3566 1747 
Q 3566 888 3137 398 
Q 2709 -91 1959 -91 
Q 1206 -91 779 398 
Q 353 888 353 1747 
Q 353 2609 779 3096 
Q 1206 3584 1959 3584 
z
" transform="scale(0.015625)"/>
      <path id="DejaVuSans-69" d="M 603 3500 
L 1178 3500 
L 1178 0 
L 603 0 
L 603 3500 
z
M 603 4863 
L 1178 4863 
L 1178 4134 
L 603 4134 
L 603 4863 
z
" transform="scale(0.015625)"/>
      <path id="DejaVuSans-6e" d="M 3513 2113 
L 3513 0 
L 2938 0 
L 2938 2094 
Q 2938 2591 2744 2837 
Q 2550 3084 2163 3084 
Q 1697 3084 1428 2787 
Q 1159 2491 1159 1978 
L 1159 0 
L 581 0 
L 581 3500 
L 1159 3500 
L 1159 2956 
Q 1366 3272 1645 3428 
Q 1925 3584 2291 3584 
Q 2894 3584 3203 3211 
Q 3513 2838 3513 2113 
z
" transform="scale(0.015625)"/>
      <path id="DejaVuSans-74" d="M 1172 4494 
L 1172 3500 
L 2356 3500 
L 2356 3053 
L 1172 3053 
L 1172 1153 
Q 1172 725 1289 603 
Q 1406 481 1766 481 
L 2356 481 
L 2356 0 
L 1766 0 
Q 1100 0 847 248 
Q 594 497 594 1153 
L 594 3053 
L 172 3053 
L 172 3500 
L 594 3500 
L 594 4494 
L 1172 4494 
z
" transform="scale(0.015625)"/>
      <path id="DejaVuSans-79" d="M 2059 -325 
Q 1816 -950 1584 -1140 
Q 1353 -1331 966 -1331 
L 506 -1331 
L 506 -850 
L 844 -850 
Q 1081 -850 1212 -737 
Q 1344 -625 1503 -206 
L 1606 56 
L 191 3500 
L 800 3500 
L 1894 763 
L 2988 3500 
L 3597 3500 
L 2059 -325 
z
" transform="scale(0.015625)"/>
     </defs>
     <use xlink:href="#DejaVuSans-50"/>
     <use xlink:href="#DejaVuSans-6f" transform="translate(56.677734 0)"/>
     <use xlink:href="#DejaVuSans-69" transform="translate(117.859375 0)"/>
     <use xlink:href="#DejaVuSans-6e" transform="translate(145.642578 0)"/>
     <use xlink:href="#DejaVuSans-74" transform="translate(209.021484 0)"/>
     <use xlink:href="#DejaVuSans-79" transform="translate(248.230469 0)"/>
    </g>
   </g>
   <g id="text_2">
    <g id="patch_6">
     <path d="M 299.907099 149.280293 
L 335.571162 149.280293 
L 335.571162 137.202168 
L 299.907099 137.202168 
z
" style="fill: #ffffff"/>
    </g>
    <!-- Floppy -->
    <g style="fill: #555555" transform="translate(301.107099 146.000606) scale(0.1 -0.1)">
     <defs>
      <path id="DejaVuSans-46" d="M 628 4666 
L 3309 4666 
L 3309 4134 
L 1259 4134 
L 1259 2759 
L 3109 2759 
L 3109 2228 
L 1259 2228 
L 1259 0 
L 628 0 
L 628 4666 
z
" transform="scale(0.015625)"/>
      <path id="DejaVuSans-6c" d="M 603 4863 
L 1178 4863 
L 1178 0 
L 603 0 
L 603 4863 
z
" transform="scale(0.015625)"/>
      <path id="DejaVuSans-70" d="M 1159 525 
L 1159 -1331 
L 581 -1331 
L 581 3500 
L 1159 3500 
L 1159 2969 
Q 1341 3281 1617 3432 
Q 1894 3584 2278 3584 
Q 2916 3584 3314 3078 
Q 3713 2572 3713 1747 
Q 3713 922 3314 415 
Q 2916 -91 2278 -91 
Q 1894 -91 1617 61 
Q 1341 213 1159 525 
z
M 3116 1747 
Q 3116 2381 2855 2742 
Q 2594 3103 2138 3103 
Q 1681 3103 1420 2742 
Q 1159 2381 1159 1747 
Q 1159 1113 1420 752 
Q 1681 391 2138 391 
Q 2594 391 2855 752 
Q 3116 1113 3116 1747 
z
" transform="scale(0.015625)"/>
     </defs>
     <use xlink:href="#DejaVuSans-46"/>
     <use xlink:href="#DejaVuSans-6c" transform="translate(57.519531 0)"/>
     <use xlink:href="#DejaVuSans-6f" transform="translate(85.302734 0)"/>
     <use xlink:href="#DejaVuSans-70" transform="translate(146.484375 0)"/>
     <use xlink:href="#DejaVuSans-70" transform="translate(209.960938 0)"/>
     <use xlink:href="#DejaVuSans-79" transform="translate(273.4375 0)"/>
    </g>
   </g>
   <g id="text_3">
    <!-- Ear shape -->
    <g style="fill: #7030a0" transform="translate(204.195938 89.845651) scale(0.105 -0.105)">
     <defs>
      <path id="DejaVuSans-45" d="M 628 4666 
L 3578 4666 
L 3578 4134 
L 1259 4134 
L 1259 2753 
L 3481 2753 
L 3481 2222 
L 1259 2222 
L 1259 531 
L 3634 531 
L 3634 0 
L 628 0 
L 628 4666 
z
" transform="scale(0.015625)"/>
      <path id="DejaVuSans-61" d="M 2194 1759 
Q 1497 1759 1228 1600 
Q 959 1441 959 1056 
Q 959 750 1161 570 
Q 1363 391 1709 391 
Q 2188 391 2477 730 
Q 2766 1069 2766 1631 
L 2766 1759 
L 2194 1759 
z
M 3341 1997 
L 3341 0 
L 2766 0 
L 2766 531 
Q 2569 213 2275 61 
Q 1981 -91 1556 -91 
Q 1019 -91 701 211 
Q 384 513 384 1019 
Q 384 1609 779 1909 
Q 1175 2209 1959 2209 
L 2766 2209 
L 2766 2266 
Q 2766 2663 2505 2880 
Q 2244 3097 1772 3097 
Q 1472 3097 1187 3025 
Q 903 2953 641 2809 
L 641 3341 
Q 956 3463 1253 3523 
Q 1550 3584 1831 3584 
Q 2591 3584 2966 3190 
Q 3341 2797 3341 1997 
z
" transform="scale(0.015625)"/>
      <path id="DejaVuSans-72" d="M 2631 2963 
Q 2534 3019 2420 3045 
Q 2306 3072 2169 3072 
Q 1681 3072 1420 2755 
Q 1159 2438 1159 1844 
L 1159 0 
L 581 0 
L 581 3500 
L 1159 3500 
L 1159 2956 
Q 1341 3275 1631 3429 
Q 1922 3584 2338 3584 
Q 2397 3584 2469 3576 
Q 2541 3569 2628 3553 
L 2631 2963 
z
" transform="scale(0.015625)"/>
      <path id="DejaVuSans-20" transform="scale(0.015625)"/>
      <path id="DejaVuSans-73" d="M 2834 3397 
L 2834 2853 
Q 2591 2978 2328 3040 
Q 2066 3103 1784 3103 
Q 1356 3103 1142 2972 
Q 928 2841 928 2578 
Q 928 2378 1081 2264 
Q 1234 2150 1697 2047 
L 1894 2003 
Q 2506 1872 2764 1633 
Q 3022 1394 3022 966 
Q 3022 478 2636 193 
Q 2250 -91 1575 -91 
Q 1294 -91 989 -36 
Q 684 19 347 128 
L 347 722 
Q 666 556 975 473 
Q 1284 391 1588 391 
Q 1994 391 2212 530 
Q 2431 669 2431 922 
Q 2431 1156 2273 1281 
Q 2116 1406 1581 1522 
L 1381 1569 
Q 847 1681 609 1914 
Q 372 2147 372 2553 
Q 372 3047 722 3315 
Q 1072 3584 1716 3584 
Q 2034 3584 2315 3537 
Q 2597 3491 2834 3397 
z
" transform="scale(0.015625)"/>
      <path id="DejaVuSans-68" d="M 3513 2113 
L 3513 0 
L 2938 0 
L 2938 2094 
Q 2938 2591 2744 2837 
Q 2550 3084 2163 3084 
Q 1697 3084 1428 2787 
Q 1159 2491 1159 1978 
L 1159 0 
L 581 0 
L 581 4863 
L 1159 4863 
L 1159 2956 
Q 1366 3272 1645 3428 
Q 1925 3584 2291 3584 
Q 2894 3584 3203 3211 
Q 3513 2838 3513 2113 
z
" transform="scale(0.015625)"/>
      <path id="DejaVuSans-65" d="M 3597 1894 
L 3597 1613 
L 953 1613 
Q 991 1019 1311 708 
Q 1631 397 2203 397 
Q 2534 397 2845 478 
Q 3156 559 3463 722 
L 3463 178 
Q 3153 47 2828 -22 
Q 2503 -91 2169 -91 
Q 1331 -91 842 396 
Q 353 884 353 1716 
Q 353 2575 817 3079 
Q 1281 3584 2069 3584 
Q 2775 3584 3186 3129 
Q 3597 2675 3597 1894 
z
M 3022 2063 
Q 3016 2534 2758 2815 
Q 2500 3097 2075 3097 
Q 1594 3097 1305 2825 
Q 1016 2553 972 2059 
L 3022 2063 
z
" transform="scale(0.015625)"/>
     </defs>
     <use xlink:href="#DejaVuSans-45"/>
     <use xlink:href="#DejaVuSans-61" transform="translate(63.183594 0)"/>
     <use xlink:href="#DejaVuSans-72" transform="translate(124.462891 0)"/>
     <use xlink:href="#DejaVuSans-20" transform="translate(165.576172 0)"/>
     <use xlink:href="#DejaVuSans-73" transform="translate(197.363281 0)"/>
     <use xlink:href="#DejaVuSans-68" transform="translate(249.462891 0)"/>
     <use xlink:href="#DejaVuSans-61" transform="translate(312.841797 0)"/>
     <use xlink:href="#DejaVuSans-70" transform="translate(374.121094 0)"/>
     <use xlink:href="#DejaVuSans-65" transform="translate(437.597656 0)"/>
    </g>
   </g>
   <g id="text_4">
    <!-- $p_1^{root} = 5/10$ -->
    <g style="fill: #7030a0" transform="translate(199.545 35.346462) scale(0.11 -0.11)">
     <defs>
      <path id="DejaVuSans-Oblique-70" d="M 3175 2156 
Q 3175 2616 2975 2859 
Q 2775 3103 2400 3103 
Q 2144 3103 1911 2972 
Q 1678 2841 1497 2591 
Q 1319 2344 1212 1994 
Q 1106 1644 1106 1300 
Q 1106 863 1306 627 
Q 1506 391 1875 391 
Q 2147 391 2380 519 
Q 2613 647 2778 891 
Q 2956 1147 3065 1494 
Q 3175 1841 3175 2156 
z
M 1394 2969 
Q 1625 3272 1939 3428 
Q 2253 3584 2638 3584 
Q 3175 3584 3472 3232 
Q 3769 2881 3769 2247 
Q 3769 1728 3584 1258 
Q 3400 788 3053 416 
Q 2822 169 2531 39 
Q 2241 -91 1919 -91 
Q 1547 -91 1294 64 
Q 1041 219 916 525 
L 556 -1331 
L -19 -1331 
L 922 3500 
L 1497 3500 
L 1394 2969 
z
" transform="scale(0.015625)"/>
      <path id="DejaVuSans-Oblique-72" d="M 2853 2969 
Q 2766 3016 2653 3041 
Q 2541 3066 2413 3066 
Q 1953 3066 1609 2717 
Q 1266 2369 1153 1784 
L 800 0 
L 225 0 
L 909 3500 
L 1484 3500 
L 1375 2956 
Q 1603 3259 1920 3421 
Q 2238 3584 2597 3584 
Q 2691 3584 2781 3573 
Q 2872 3563 2963 3538 
L 2853 2969 
z
" transform="scale(0.015625)"/>
      <path id="DejaVuSans-Oblique-6f" d="M 1625 -91 
Q 1009 -91 651 289 
Q 294 669 294 1325 
Q 294 1706 417 2101 
Q 541 2497 738 2766 
Q 1047 3184 1428 3384 
Q 1809 3584 2291 3584 
Q 2888 3584 3255 3212 
Q 3622 2841 3622 2241 
Q 3622 1825 3500 1412 
Q 3378 1000 3181 728 
Q 2875 309 2494 109 
Q 2113 -91 1625 -91 
z
M 891 1344 
Q 891 869 1089 633 
Q 1288 397 1691 397 
Q 2269 397 2648 901 
Q 3028 1406 3028 2181 
Q 3028 2634 2825 2865 
Q 2622 3097 2228 3097 
Q 1903 3097 1650 2945 
Q 1397 2794 1197 2484 
Q 1050 2253 970 1956 
Q 891 1659 891 1344 
z
" transform="scale(0.015625)"/>
      <path id="DejaVuSans-Oblique-74" d="M 2706 3500 
L 2619 3053 
L 1472 3053 
L 1100 1153 
Q 1081 1047 1072 975 
Q 1063 903 1063 863 
Q 1063 663 1183 572 
Q 1303 481 1569 481 
L 2150 481 
L 2053 0 
L 1503 0 
Q 991 0 739 200 
Q 488 400 488 806 
Q 488 878 497 964 
Q 506 1050 525 1153 
L 897 3053 
L 409 3053 
L 500 3500 
L 978 3500 
L 1172 4494 
L 1747 4494 
L 1556 3500 
L 2706 3500 
z
" transform="scale(0.015625)"/>
      <path id="DejaVuSans-31" d="M 794 531 
L 1825 531 
L 1825 4091 
L 703 3866 
L 703 4441 
L 1819 4666 
L 2450 4666 
L 2450 531 
L 3481 531 
L 3481 0 
L 794 0 
L 794 531 
z
" transform="scale(0.015625)"/>
      <path id="DejaVuSans-3d" d="M 678 2906 
L 4684 2906 
L 4684 2381 
L 678 2381 
L 678 2906 
z
M 678 1631 
L 4684 1631 
L 4684 1100 
L 678 1100 
L 678 1631 
z
" transform="scale(0.015625)"/>
      <path id="DejaVuSans-35" d="M 691 4666 
L 3169 4666 
L 3169 4134 
L 1269 4134 
L 1269 2991 
Q 1406 3038 1543 3061 
Q 1681 3084 1819 3084 
Q 2600 3084 3056 2656 
Q 3513 2228 3513 1497 
Q 3513 744 3044 326 
Q 2575 -91 1722 -91 
Q 1428 -91 1123 -41 
Q 819 9 494 109 
L 494 744 
Q 775 591 1075 516 
Q 1375 441 1709 441 
Q 2250 441 2565 725 
Q 2881 1009 2881 1497 
Q 2881 1984 2565 2268 
Q 2250 2553 1709 2553 
Q 1456 2553 1204 2497 
Q 953 2441 691 2322 
L 691 4666 
z
" transform="scale(0.015625)"/>
      <path id="DejaVuSans-2f" d="M 1625 4666 
L 2156 4666 
L 531 -594 
L 0 -594 
L 1625 4666 
z
" transform="scale(0.015625)"/>
      <path id="DejaVuSans-30" d="M 2034 4250 
Q 1547 4250 1301 3770 
Q 1056 3291 1056 2328 
Q 1056 1369 1301 889 
Q 1547 409 2034 409 
Q 2525 409 2770 889 
Q 3016 1369 3016 2328 
Q 3016 3291 2770 3770 
Q 2525 4250 2034 4250 
z
M 2034 4750 
Q 2819 4750 3233 4129 
Q 3647 3509 3647 2328 
Q 3647 1150 3233 529 
Q 2819 -91 2034 -91 
Q 1250 -91 836 529 
Q 422 1150 422 2328 
Q 422 3509 836 4129 
Q 1250 4750 2034 4750 
z
" transform="scale(0.015625)"/>
     </defs>
     <use xlink:href="#DejaVuSans-Oblique-70" transform="translate(0 0.565625)"/>
     <use xlink:href="#DejaVuSans-Oblique-72" transform="translate(68.126458 38.846875) scale(0.7)"/>
     <use xlink:href="#DejaVuSans-Oblique-6f" transform="translate(96.905755 38.846875) scale(0.7)"/>
     <use xlink:href="#DejaVuSans-Oblique-6f" transform="translate(139.732904 38.846875) scale(0.7)"/>
     <use xlink:href="#DejaVuSans-Oblique-74" transform="translate(182.560052 38.846875) scale(0.7)"/>
     <use xlink:href="#DejaVuSans-31" transform="translate(63.476562 -26.778125) scale(0.7)"/>
     <use xlink:href="#DejaVuSans-3d" transform="translate(232.223138 0.565625)"/>
     <use xlink:href="#DejaVuSans-35" transform="translate(335.494622 0.565625)"/>
     <use xlink:href="#DejaVuSans-2f" transform="translate(399.117669 0.565625)"/>
     <use xlink:href="#DejaVuSans-31" transform="translate(432.809076 0.565625)"/>
     <use xlink:href="#DejaVuSans-30" transform="translate(496.432122 0.565625)"/>
    </g>
   </g>
   <g id="text_5">
    <!-- $p_1^{left} = 4/5$ -->
    <g style="fill: #0e7490" transform="translate(97.802174 222.989538) scale(0.11 -0.11)">
     <defs>
      <path id="DejaVuSans-Oblique-6c" d="M 1172 4863 
L 1747 4863 
L 800 0 
L 225 0 
L 1172 4863 
z
" transform="scale(0.015625)"/>
      <path id="DejaVuSans-Oblique-65" d="M 3078 2063 
Q 3088 2113 3092 2166 
Q 3097 2219 3097 2272 
Q 3097 2653 2873 2875 
Q 2650 3097 2266 3097 
Q 1838 3097 1509 2826 
Q 1181 2556 1013 2059 
L 3078 2063 
z
M 3578 1613 
L 903 1613 
Q 884 1494 878 1425 
Q 872 1356 872 1306 
Q 872 872 1139 634 
Q 1406 397 1894 397 
Q 2269 397 2603 481 
Q 2938 566 3225 728 
L 3116 159 
Q 2806 34 2476 -28 
Q 2147 -91 1806 -91 
Q 1078 -91 686 257 
Q 294 606 294 1247 
Q 294 1794 489 2264 
Q 684 2734 1063 3103 
Q 1306 3334 1642 3459 
Q 1978 3584 2356 3584 
Q 2950 3584 3301 3228 
Q 3653 2872 3653 2272 
Q 3653 2128 3634 1964 
Q 3616 1800 3578 1613 
z
" transform="scale(0.015625)"/>
      <path id="DejaVuSans-Oblique-66" d="M 3059 4863 
L 2969 4384 
L 2419 4384 
Q 2106 4384 1964 4261 
Q 1822 4138 1753 3809 
L 1691 3500 
L 2638 3500 
L 2553 3053 
L 1606 3053 
L 1013 0 
L 434 0 
L 1031 3053 
L 481 3053 
L 563 3500 
L 1113 3500 
L 1159 3744 
Q 1278 4363 1576 4613 
Q 1875 4863 2516 4863 
L 3059 4863 
z
" transform="scale(0.015625)"/>
      <path id="DejaVuSans-34" d="M 2419 4116 
L 825 1625 
L 2419 1625 
L 2419 4116 
z
M 2253 4666 
L 3047 4666 
L 3047 1625 
L 3713 1625 
L 3713 1100 
L 3047 1100 
L 3047 0 
L 2419 0 
L 2419 1100 
L 313 1100 
L 313 1709 
L 2253 4666 
z
" transform="scale(0.015625)"/>
     </defs>
     <use xlink:href="#DejaVuSans-Oblique-70" transform="translate(0 0.529687)"/>
     <use xlink:href="#DejaVuSans-Oblique-6c" transform="translate(68.126458 38.810938) scale(0.7)"/>
     <use xlink:href="#DejaVuSans-Oblique-65" transform="translate(87.574701 38.810938) scale(0.7)"/>
     <use xlink:href="#DejaVuSans-Oblique-66" transform="translate(130.641107 38.810938) scale(0.7)"/>
     <use xlink:href="#DejaVuSans-Oblique-74" transform="translate(155.284661 38.810938) scale(0.7)"/>
     <use xlink:href="#DejaVuSans-31" transform="translate(63.476562 -26.814063) scale(0.7)"/>
     <use xlink:href="#DejaVuSans-3d" transform="translate(204.947747 0.529687)"/>
     <use xlink:href="#DejaVuSans-34" transform="translate(308.219232 0.529687)"/>
     <use xlink:href="#DejaVuSans-2f" transform="translate(371.842279 0.529687)"/>
     <use xlink:href="#DejaVuSans-35" transform="translate(405.533685 0.529687)"/>
    </g>
   </g>
   <g id="text_6">
    <!-- $p_1^{right} = 1/5$ -->
    <g style="fill: #0e7490" transform="translate(308.547826 222.989538) scale(0.11 -0.11)">
     <defs>
      <path id="DejaVuSans-Oblique-69" d="M 1172 4863 
L 1747 4863 
L 1606 4134 
L 1031 4134 
L 1172 4863 
z
M 909 3500 
L 1484 3500 
L 800 0 
L 225 0 
L 909 3500 
z
" transform="scale(0.015625)"/>
      <path id="DejaVuSans-Oblique-67" d="M 3816 3500 
L 3219 434 
Q 3047 -456 2561 -893 
Q 2075 -1331 1253 -1331 
Q 950 -1331 690 -1286 
Q 431 -1241 206 -1147 
L 313 -588 
Q 525 -725 762 -790 
Q 1000 -856 1269 -856 
Q 1816 -856 2167 -557 
Q 2519 -259 2631 300 
L 2681 563 
Q 2441 288 2122 144 
Q 1803 0 1434 0 
Q 903 0 598 351 
Q 294 703 294 1319 
Q 294 1803 478 2267 
Q 663 2731 997 3091 
Q 1219 3328 1514 3456 
Q 1809 3584 2131 3584 
Q 2484 3584 2746 3420 
Q 3009 3256 3138 2956 
L 3238 3500 
L 3816 3500 
z
M 2950 2216 
Q 2950 2641 2750 2872 
Q 2550 3103 2181 3103 
Q 1953 3103 1747 3012 
Q 1541 2922 1394 2759 
Q 1156 2491 1023 2127 
Q 891 1763 891 1375 
Q 891 944 1092 712 
Q 1294 481 1672 481 
Q 2219 481 2584 976 
Q 2950 1472 2950 2216 
z
" transform="scale(0.015625)"/>
      <path id="DejaVuSans-Oblique-68" d="M 3566 2113 
L 3156 0 
L 2578 0 
L 2988 2091 
Q 3016 2238 3031 2350 
Q 3047 2463 3047 2528 
Q 3047 2791 2881 2937 
Q 2716 3084 2419 3084 
Q 1956 3084 1617 2771 
Q 1278 2459 1178 1941 
L 800 0 
L 225 0 
L 1172 4863 
L 1747 4863 
L 1375 2950 
Q 1594 3244 1934 3414 
Q 2275 3584 2650 3584 
Q 3113 3584 3367 3334 
Q 3622 3084 3622 2631 
Q 3622 2519 3608 2391 
Q 3594 2263 3566 2113 
z
" transform="scale(0.015625)"/>
     </defs>
     <use xlink:href="#DejaVuSans-Oblique-70" transform="translate(0 0.0625)"/>
     <use xlink:href="#DejaVuSans-Oblique-72" transform="translate(68.126458 50.810938) scale(0.7)"/>
     <use xlink:href="#DejaVuSans-Oblique-69" transform="translate(96.905755 50.810938) scale(0.7)"/>
     <use xlink:href="#DejaVuSans-Oblique-67" transform="translate(116.353997 50.810938) scale(0.7)"/>
     <use xlink:href="#DejaVuSans-Oblique-68" transform="translate(160.787591 50.810938) scale(0.7)"/>
     <use xlink:href="#DejaVuSans-Oblique-74" transform="translate(205.152826 50.810938) scale(0.7)"/>
     <use xlink:href="#DejaVuSans-31" transform="translate(63.476562 -27.28125) scale(0.7)"/>
     <use xlink:href="#DejaVuSans-3d" transform="translate(254.815911 0.0625)"/>
     <use xlink:href="#DejaVuSans-31" transform="translate(358.087396 0.0625)"/>
     <use xlink:href="#DejaVuSans-2f" transform="translate(421.710443 0.0625)"/>
     <use xlink:href="#DejaVuSans-35" transform="translate(455.401849 0.0625)"/>
    </g>
   </g>
   <g id="text_7">
    <!-- $w^{left} = 5/10$ -->
    <g style="fill: #be1d74" transform="translate(64.563043 131.513538) scale(0.1 -0.1)">
     <defs>
      <path id="DejaVuSans-Oblique-77" d="M 544 3500 
L 1113 3500 
L 1259 684 
L 2566 3500 
L 3231 3500 
L 3425 684 
L 4666 3500 
L 5241 3500 
L 3641 0 
L 2969 0 
L 2797 2900 
L 1459 0 
L 781 0 
L 544 3500 
z
" transform="scale(0.015625)"/>
     </defs>
     <use xlink:href="#DejaVuSans-Oblique-77" transform="translate(0 0.529687)"/>
     <use xlink:href="#DejaVuSans-Oblique-6c" transform="translate(86.253255 38.810937) scale(0.7)"/>
     <use xlink:href="#DejaVuSans-Oblique-65" transform="translate(105.701497 38.810937) scale(0.7)"/>
     <use xlink:href="#DejaVuSans-Oblique-66" transform="translate(148.767904 38.810937) scale(0.7)"/>
     <use xlink:href="#DejaVuSans-Oblique-74" transform="translate(173.411458 38.810937) scale(0.7)"/>
     <use xlink:href="#DejaVuSans-3d" transform="translate(223.074544 0.529687)"/>
     <use xlink:href="#DejaVuSans-35" transform="translate(326.346029 0.529687)"/>
     <use xlink:href="#DejaVuSans-2f" transform="translate(389.969076 0.529687)"/>
     <use xlink:href="#DejaVuSans-31" transform="translate(423.660482 0.529687)"/>
     <use xlink:href="#DejaVuSans-30" transform="translate(487.283529 0.529687)"/>
    </g>
   </g>
   <g id="text_8">
    <!-- $w^{right} = 5/10$ -->
    <g style="fill: #be1d74" transform="translate(338.636957 131.513538) scale(0.1 -0.1)">
     <use xlink:href="#DejaVuSans-Oblique-77" transform="translate(0 0.529687)"/>
     <use xlink:href="#DejaVuSans-Oblique-72" transform="translate(86.253255 38.810937) scale(0.7)"/>
     <use xlink:href="#DejaVuSans-Oblique-69" transform="translate(115.032552 38.810937) scale(0.7)"/>
     <use xlink:href="#DejaVuSans-Oblique-67" transform="translate(134.480794 38.810937) scale(0.7)"/>
     <use xlink:href="#DejaVuSans-Oblique-68" transform="translate(178.914388 38.810937) scale(0.7)"/>
     <use xlink:href="#DejaVuSans-Oblique-74" transform="translate(223.279622 38.810937) scale(0.7)"/>
     <use xlink:href="#DejaVuSans-3d" transform="translate(272.942708 0.529687)"/>
     <use xlink:href="#DejaVuSans-35" transform="translate(376.214193 0.529687)"/>
     <use xlink:href="#DejaVuSans-2f" transform="translate(439.83724 0.529687)"/>
     <use xlink:href="#DejaVuSans-31" transform="translate(473.528646 0.529687)"/>
     <use xlink:href="#DejaVuSans-30" transform="translate(537.151693 0.529687)"/>
    </g>
   </g>
  </g>
 </g>
 <defs>
  <clipPath id="pd01d708014">
   <rect x="7.2" y="7.2" width="446.4" height="243.936"/>
  </clipPath>
 </defs>
</svg>
