<?xml version="1.0" encoding="utf-8" standalone="no"?>
<!DOCTYPE svg PUBLIC "-//W3C//DTD SVG 1.1//EN"
  "http://www.w3.org/Graphics/SVG/1.1/DTD/svg11.dtd">
<svg xmlns:xlink="http://www.w3.org/1999/xlink" width="717.12pt" height="280.944pt" viewBox="0 0 717.12 280.944" xmlns="http://www.w3.org/2000/svg" version="1.1">
 <metadata>
  <rdf:RDF xmlns:dc="http://purl.org/dc/elements/1.1/" xmlns:cc="http://creativecommons.org/ns#" xmlns:rdf="http://www.w3.org/1999/02/22-rdf-syntax-ns#">
   <cc:Work>
    <dc:type rdf:resource="http://purl.org/dc/dcmitype/StillImage"/>
    <dc:date>2026-07-20T23:14:35.617408</dc:date>
    <dc:format>image/svg+xml</dc:format>
    <dc:creator>
     <cc:Agent>
      <dc:title>Matplotlib v3.10.8, https://matplotlib.org/</dc:title>
     </cc:Agent>
    </dc:creator>
   </cc:Work>
  </rdf:RDF>
 </metadata>
 <defs>
  <style type="text/css">*{stroke-linejoin: round; stroke-linecap: butt}</style>
 </defs>
 <g id="figure_1">
  <g id="patch_1">
   <path d="M 0 280.944 
L 717.12 280.944 
L 717.12 0 
L 0 0 
z
" style="fill: #ffffff"/>
  </g>
  <g id="axes_1">
   <g id="patch_2">
    <path d="M 112.865218 79.845105 
Q 95.476858 102.283201 79.184253 123.307324 
" clip-path="url(#p9586541a7c)" style="fill: none; stroke: #555555; stroke-width: 1.6; stroke-linecap: round"/>
    <path d="M 85.63394 120.208688 
L 79.184253 123.307324 
L 80.575156 116.288394 
z
" clip-path="url(#p9586541a7c)" style="fill: #555555; stroke: #555555; stroke-width: 1.6; stroke-linecap: round"/>
   </g>
   <g id="patch_3">
    <path d="M 130.014782 79.845105 
Q 147.403142 102.283201 163.695747 123.307324 
" clip-path="url(#p9586541a7c)" style="fill: none; stroke: #555555; stroke-width: 1.6; stroke-linecap: round"/>
    <path d="M 162.304844 116.288394 
L 163.695747 123.307324 
L 157.24606 120.208688 
z
" clip-path="url(#p9586541a7c)" style="fill: #555555; stroke: #555555; stroke-width: 1.6; stroke-linecap: round"/>
   </g>
   <g id="patch_4">
    <path d="M 121.44 89.473597 
C 130.047046 89.473597 138.302729 87.293202 144.388829 83.41262 
C 150.47493 79.532038 153.894545 74.268101 153.894545 68.780129 
C 153.894545 63.292157 150.47493 58.02822 144.388829 54.147638 
C 138.302729 50.267056 130.047046 48.086661 121.44 48.086661 
C 112.832954 48.086661 104.577271 50.267056 98.491171 54.147638 
C 92.40507 58.02822 88.985455 63.292157 88.985455 68.780129 
C 88.985455 74.268101 92.40507 79.532038 98.491171 83.41262 
C 104.577271 87.293202 112.832954 89.473597 121.44 89.473597 
z
" clip-path="url(#p9586541a7c)" style="fill: #ffffff; stroke: #7030a0; stroke-width: 2; stroke-linejoin: miter"/>
   </g>
   <g id="text_1">
    <g id="patch_5">
     <path d="M 57.570476 108.115948 
L 89.24407 108.115948 
L 89.24407 96.451729 
L 57.570476 96.451729 
z
" style="fill: #ffffff"/>
    </g>
    <!-- Pointy -->
    <g style="fill: #555555" transform="translate(58.805476 104.905245) scale(0.095 -0.095)">
     <defs>
      <path id="DejaVuSans-50" d="M 1259 4147 
L 1259 2394 
L 2053 2394 
Q 2494 2394 2734 2622 
Q 2975 2850 2975 3272 
Q 2975 3691 2734 3919 
Q 2494 4147 2053 4147 
L 1259 4147 
z
M 628 4666 
L 2053 4666 
Q 2838 4666 3239 4311 
Q 3641 3956 3641 3272 
Q 3641 2581 3239 2228 
Q 2838 1875 2053 1875 
L 1259 1875 
L 1259 0 
L 628 0 
L 628 4666 
z
" transform="scale(0.015625)"/>
      <path id="DejaVuSans-6f" d="M 1959 3097 
Q 1497 3097 1228 2736 
Q 959 2375 959 1747 
Q 959 1119 1226 758 
Q 1494 397 1959 397 
Q 2419 397 2687 759 
Q 2956 1122 2956 1747 
Q 2956 2369 2687 2733 
Q 2419 3097 1959 3097 
z
M 1959 3584 
Q 2709 3584 3137 3096 
Q 3566 2609 3566 1747 
Q 3566 888 3137 398 
Q 2709 -91 1959 -91 
Q 1206 -91 779 398 
Q 353 888 353 1747 
Q 353 2609 779 3096 
Q 1206 3584 1959 3584 
z
" transform="scale(0.015625)"/>
      <path id="DejaVuSans-69" d="M 603 3500 
L 1178 3500 
L 1178 0 
L 603 0 
L 603 3500 
z
M 603 4863 
L 1178 4863 
L 1178 4134 
L 603 4134 
L 603 4863 
z
" transform="scale(0.015625)"/>
      <path id="DejaVuSans-6e" d="M 3513 2113 
L 3513 0 
L 2938 0 
L 2938 2094 
Q 2938 2591 2744 2837 
Q 2550 3084 2163 3084 
Q 1697 3084 1428 2787 
Q 1159 2491 1159 1978 
L 1159 0 
L 581 0 
L 581 3500 
L 1159 3500 
L 1159 2956 
Q 1366 3272 1645 3428 
Q 1925 3584 2291 3584 
Q 2894 3584 3203 3211 
Q 3513 2838 3513 2113 
z
" transform="scale(0.015625)"/>
      <path id="DejaVuSans-74" d="M 1172 4494 
L 1172 3500 
L 2356 3500 
L 2356 3053 
L 1172 3053 
L 1172 1153 
Q 1172 725 1289 603 
Q 1406 481 1766 481 
L 2356 481 
L 2356 0 
L 1766 0 
Q 1100 0 847 248 
Q 594 497 594 1153 
L 594 3053 
L 172 3053 
L 172 3500 
L 594 3500 
L 594 4494 
L 1172 4494 
z
" transform="scale(0.015625)"/>
      <path id="DejaVuSans-79" d="M 2059 -325 
Q 1816 -950 1584 -1140 
Q 1353 -1331 966 -1331 
L 506 -1331 
L 506 -850 
L 844 -850 
Q 1081 -850 1212 -737 
Q 1344 -625 1503 -206 
L 1606 56 
L 191 3500 
L 800 3500 
L 1894 763 
L 2988 3500 
L 3597 3500 
L 2059 -325 
z
" transform="scale(0.015625)"/>
     </defs>
     <use xlink:href="#DejaVuSans-50"/>
     <use xlink:href="#DejaVuSans-6f" transform="translate(56.677734 0)"/>
     <use xlink:href="#DejaVuSans-69" transform="translate(117.859375 0)"/>
     <use xlink:href="#DejaVuSans-6e" transform="translate(145.642578 0)"/>
     <use xlink:href="#DejaVuSans-74" transform="translate(209.021484 0)"/>
     <use xlink:href="#DejaVuSans-79" transform="translate(248.230469 0)"/>
    </g>
   </g>
   <g id="text_2">
    <g id="patch_6">
     <path d="M 155.033661 108.115948 
L 189.104521 108.115948 
L 189.104521 96.451729 
L 155.033661 96.451729 
z
" style="fill: #ffffff"/>
    </g>
    <!-- Floppy -->
    <g style="fill: #555555" transform="translate(156.268661 104.905245) scale(0.095 -0.095)">
     <defs>
      <path id="DejaVuSans-46" d="M 628 4666 
L 3309 4666 
L 3309 4134 
L 1259 4134 
L 1259 2759 
L 3109 2759 
L 3109 2228 
L 1259 2228 
L 1259 0 
L 628 0 
L 628 4666 
z
" transform="scale(0.015625)"/>
      <path id="DejaVuSans-6c" d="M 603 4863 
L 1178 4863 
L 1178 0 
L 603 0 
L 603 4863 
z
" transform="scale(0.015625)"/>
      <path id="DejaVuSans-70" d="M 1159 525 
L 1159 -1331 
L 581 -1331 
L 581 3500 
L 1159 3500 
L 1159 2969 
Q 1341 3281 1617 3432 
Q 1894 3584 2278 3584 
Q 2916 3584 3314 3078 
Q 3713 2572 3713 1747 
Q 3713 922 3314 415 
Q 2916 -91 2278 -91 
Q 1894 -91 1617 61 
Q 1341 213 1159 525 
z
M 3116 1747 
Q 3116 2381 2855 2742 
Q 2594 3103 2138 3103 
Q 1681 3103 1420 2742 
Q 1159 2381 1159 1747 
Q 1159 1113 1420 752 
Q 1681 391 2138 391 
Q 2594 391 2855 752 
Q 3116 1113 3116 1747 
z
" transform="scale(0.015625)"/>
     </defs>
     <use xlink:href="#DejaVuSans-46"/>
     <use xlink:href="#DejaVuSans-6c" transform="translate(57.519531 0)"/>
     <use xlink:href="#DejaVuSans-6f" transform="translate(85.302734 0)"/>
     <use xlink:href="#DejaVuSans-70" transform="translate(146.484375 0)"/>
     <use xlink:href="#DejaVuSans-70" transform="translate(209.960938 0)"/>
     <use xlink:href="#DejaVuSans-79" transform="translate(273.4375 0)"/>
    </g>
   </g>
   <g id="text_3">
    <!-- Ear shape -->
    <g style="fill: #7030a0" transform="translate(96.48375 71.539504) scale(0.1 -0.1)">
     <defs>
      <path id="DejaVuSans-45" d="M 628 4666 
L 3578 4666 
L 3578 4134 
L 1259 4134 
L 1259 2753 
L 3481 2753 
L 3481 2222 
L 1259 2222 
L 1259 531 
L 3634 531 
L 3634 0 
L 628 0 
L 628 4666 
z
" transform="scale(0.015625)"/>
      <path id="DejaVuSans-61" d="M 2194 1759 
Q 1497 1759 1228 1600 
Q 959 1441 959 1056 
Q 959 750 1161 570 
Q 1363 391 1709 391 
Q 2188 391 2477 730 
Q 2766 1069 2766 1631 
L 2766 1759 
L 2194 1759 
z
M 3341 1997 
L 3341 0 
L 2766 0 
L 2766 531 
Q 2569 213 2275 61 
Q 1981 -91 1556 -91 
Q 1019 -91 701 211 
Q 384 513 384 1019 
Q 384 1609 779 1909 
Q 1175 2209 1959 2209 
L 2766 2209 
L 2766 2266 
Q 2766 2663 2505 2880 
Q 2244 3097 1772 3097 
Q 1472 3097 1187 3025 
Q 903 2953 641 2809 
L 641 3341 
Q 956 3463 1253 3523 
Q 1550 3584 1831 3584 
Q 2591 3584 2966 3190 
Q 3341 2797 3341 1997 
z
" transform="scale(0.015625)"/>
      <path id="DejaVuSans-72" d="M 2631 2963 
Q 2534 3019 2420 3045 
Q 2306 3072 2169 3072 
Q 1681 3072 1420 2755 
Q 1159 2438 1159 1844 
L 1159 0 
L 581 0 
L 581 3500 
L 1159 3500 
L 1159 2956 
Q 1341 3275 1631 3429 
Q 1922 3584 2338 3584 
Q 2397 3584 2469 3576 
Q 2541 3569 2628 3553 
L 2631 2963 
z
" transform="scale(0.015625)"/>
      <path id="DejaVuSans-20" transform="scale(0.015625)"/>
      <path id="DejaVuSans-73" d="M 2834 3397 
L 2834 2853 
Q 2591 2978 2328 3040 
Q 2066 3103 1784 3103 
Q 1356 3103 1142 2972 
Q 928 2841 928 2578 
Q 928 2378 1081 2264 
Q 1234 2150 1697 2047 
L 1894 2003 
Q 2506 1872 2764 1633 
Q 3022 1394 3022 966 
Q 3022 478 2636 193 
Q 2250 -91 1575 -91 
Q 1294 -91 989 -36 
Q 684 19 347 128 
L 347 722 
Q 666 556 975 473 
Q 1284 391 1588 391 
Q 1994 391 2212 530 
Q 2431 669 2431 922 
Q 2431 1156 2273 1281 
Q 2116 1406 1581 1522 
L 1381 1569 
Q 847 1681 609 1914 
Q 372 2147 372 2553 
Q 372 3047 722 3315 
Q 1072 3584 1716 3584 
Q 2034 3584 2315 3537 
Q 2597 3491 2834 3397 
z
" transform="scale(0.015625)"/>
      <path id="DejaVuSans-68" d="M 3513 2113 
L 3513 0 
L 2938 0 
L 2938 2094 
Q 2938 2591 2744 2837 
Q 2550 3084 2163 3084 
Q 1697 3084 1428 2787 
Q 1159 2491 1159 1978 
L 1159 0 
L 581 0 
L 581 4863 
L 1159 4863 
L 1159 2956 
Q 1366 3272 1645 3428 
Q 1925 3584 2291 3584 
Q 2894 3584 3203 3211 
Q 3513 2838 3513 2113 
z
" transform="scale(0.015625)"/>
      <path id="DejaVuSans-65" d="M 3597 1894 
L 3597 1613 
L 953 1613 
Q 991 1019 1311 708 
Q 1631 397 2203 397 
Q 2534 397 2845 478 
Q 3156 559 3463 722 
L 3463 178 
Q 3153 47 2828 -22 
Q 2503 -91 2169 -91 
Q 1331 -91 842 396 
Q 353 884 353 1716 
Q 353 2575 817 3079 
Q 1281 3584 2069 3584 
Q 2775 3584 3186 3129 
Q 3597 2675 3597 1894 
z
M 3022 2063 
Q 3016 2534 2758 2815 
Q 2500 3097 2075 3097 
Q 1594 3097 1305 2825 
Q 1016 2553 972 2059 
L 3022 2063 
z
" transform="scale(0.015625)"/>
     </defs>
     <use xlink:href="#DejaVuSans-45"/>
     <use xlink:href="#DejaVuSans-61" transform="translate(63.183594 0)"/>
     <use xlink:href="#DejaVuSans-72" transform="translate(124.462891 0)"/>
     <use xlink:href="#DejaVuSans-20" transform="translate(165.576172 0)"/>
     <use xlink:href="#DejaVuSans-73" transform="translate(197.363281 0)"/>
     <use xlink:href="#DejaVuSans-68" transform="translate(249.462891 0)"/>
     <use xlink:href="#DejaVuSans-61" transform="translate(312.841797 0)"/>
     <use xlink:href="#DejaVuSans-70" transform="translate(374.121094 0)"/>
     <use xlink:href="#DejaVuSans-65" transform="translate(437.597656 0)"/>
    </g>
   </g>
   <g id="text_4">
    <!-- $p_1 = 4/5$ -->
    <g style="fill: #555555" transform="translate(49.762727 153.524806) scale(0.1 -0.1)">
     <defs>
      <path id="DejaVuSans-Oblique-70" d="M 3175 2156 
Q 3175 2616 2975 2859 
Q 2775 3103 2400 3103 
Q 2144 3103 1911 2972 
Q 1678 2841 1497 2591 
Q 1319 2344 1212 1994 
Q 1106 1644 1106 1300 
Q 1106 863 1306 627 
Q 1506 391 1875 391 
Q 2147 391 2380 519 
Q 2613 647 2778 891 
Q 2956 1147 3065 1494 
Q 3175 1841 3175 2156 
z
M 1394 2969 
Q 1625 3272 1939 3428 
Q 2253 3584 2638 3584 
Q 3175 3584 3472 3232 
Q 3769 2881 3769 2247 
Q 3769 1728 3584 1258 
Q 3400 788 3053 416 
Q 2822 169 2531 39 
Q 2241 -91 1919 -91 
Q 1547 -91 1294 64 
Q 1041 219 916 525 
L 556 -1331 
L -19 -1331 
L 922 3500 
L 1497 3500 
L 1394 2969 
z
" transform="scale(0.015625)"/>
      <path id="DejaVuSans-31" d="M 794 531 
L 1825 531 
L 1825 4091 
L 703 3866 
L 703 4441 
L 1819 4666 
L 2450 4666 
L 2450 531 
L 3481 531 
L 3481 0 
L 794 0 
L 794 531 
z
" transform="scale(0.015625)"/>
      <path id="DejaVuSans-3d" d="M 678 2906 
L 4684 2906 
L 4684 2381 
L 678 2381 
L 678 2906 
z
M 678 1631 
L 4684 1631 
L 4684 1100 
L 678 1100 
L 678 1631 
z
" transform="scale(0.015625)"/>
      <path id="DejaVuSans-34" d="M 2419 4116 
L 825 1625 
L 2419 1625 
L 2419 4116 
z
M 2253 4666 
L 3047 4666 
L 3047 1625 
L 3713 1625 
L 3713 1100 
L 3047 1100 
L 3047 0 
L 2419 0 
L 2419 1100 
L 313 1100 
L 313 1709 
L 2253 4666 
z
" transform="scale(0.015625)"/>
      <path id="DejaVuSans-2f" d="M 1625 4666 
L 2156 4666 
L 531 -594 
L 0 -594 
L 1625 4666 
z
" transform="scale(0.015625)"/>
      <path id="DejaVuSans-35" d="M 691 4666 
L 3169 4666 
L 3169 4134 
L 1269 4134 
L 1269 2991 
Q 1406 3038 1543 3061 
Q 1681 3084 1819 3084 
Q 2600 3084 3056 2656 
Q 3513 2228 3513 1497 
Q 3513 744 3044 326 
Q 2575 -91 1722 -91 
Q 1428 -91 1123 -41 
Q 819 9 494 109 
L 494 744 
Q 775 591 1075 516 
Q 1375 441 1709 441 
Q 2250 441 2565 725 
Q 2881 1009 2881 1497 
Q 2881 1984 2565 2268 
Q 2250 2553 1709 2553 
Q 1456 2553 1204 2497 
Q 953 2441 691 2322 
L 691 4666 
z
" transform="scale(0.015625)"/>
     </defs>
     <use xlink:href="#DejaVuSans-Oblique-70" transform="translate(0 0.09375)"/>
     <use xlink:href="#DejaVuSans-31" transform="translate(63.476562 -16.3125) scale(0.7)"/>
     <use xlink:href="#DejaVuSans-3d" transform="translate(130.229492 0.09375)"/>
     <use xlink:href="#DejaVuSans-34" transform="translate(233.500977 0.09375)"/>
     <use xlink:href="#DejaVuSans-2f" transform="translate(297.124023 0.09375)"/>
     <use xlink:href="#DejaVuSans-35" transform="translate(330.81543 0.09375)"/>
    </g>
   </g>
   <g id="text_5">
    <!-- $p_1 = 1/5$ -->
    <g style="fill: #555555" transform="translate(153.617273 153.524806) scale(0.1 -0.1)">
     <use xlink:href="#DejaVuSans-Oblique-70" transform="translate(0 0.09375)"/>
     <use xlink:href="#DejaVuSans-31" transform="translate(63.476562 -16.3125) scale(0.7)"/>
     <use xlink:href="#DejaVuSans-3d" transform="translate(130.229492 0.09375)"/>
     <use xlink:href="#DejaVuSans-31" transform="translate(233.500977 0.09375)"/>
     <use xlink:href="#DejaVuSans-2f" transform="translate(297.124023 0.09375)"/>
     <use xlink:href="#DejaVuSans-35" transform="translate(330.81543 0.09375)"/>
    </g>
   </g>
   <g id="text_6">
    <!-- $H(0.8) \approx 0.72$ -->
    <g style="fill: #0e7490" transform="translate(37.112727 181.116097) scale(0.1 -0.1)">
     <defs>
      <path id="DejaVuSans-Oblique-48" d="M 1081 4666 
L 1716 4666 
L 1344 2753 
L 3634 2753 
L 4006 4666 
L 4641 4666 
L 3731 0 
L 3097 0 
L 3531 2222 
L 1241 2222 
L 806 0 
L 172 0 
L 1081 4666 
z
" transform="scale(0.015625)"/>
      <path id="DejaVuSans-28" d="M 1984 4856 
Q 1566 4138 1362 3434 
Q 1159 2731 1159 2009 
Q 1159 1288 1364 580 
Q 1569 -128 1984 -844 
L 1484 -844 
Q 1016 -109 783 600 
Q 550 1309 550 2009 
Q 550 2706 781 3412 
Q 1013 4119 1484 4856 
L 1984 4856 
z
" transform="scale(0.015625)"/>
      <path id="DejaVuSans-30" d="M 2034 4250 
Q 1547 4250 1301 3770 
Q 1056 3291 1056 2328 
Q 1056 1369 1301 889 
Q 1547 409 2034 409 
Q 2525 409 2770 889 
Q 3016 1369 3016 2328 
Q 3016 3291 2770 3770 
Q 2525 4250 2034 4250 
z
M 2034 4750 
Q 2819 4750 3233 4129 
Q 3647 3509 3647 2328 
Q 3647 1150 3233 529 
Q 2819 -91 2034 -91 
Q 1250 -91 836 529 
Q 422 1150 422 2328 
Q 422 3509 836 4129 
Q 1250 4750 2034 4750 
z
" transform="scale(0.015625)"/>
      <path id="DejaVuSans-2e" d="M 684 794 
L 1344 794 
L 1344 0 
L 684 0 
L 684 794 
z
" transform="scale(0.015625)"/>
      <path id="DejaVuSans-38" d="M 2034 2216 
Q 1584 2216 1326 1975 
Q 1069 1734 1069 1313 
Q 1069 891 1326 650 
Q 1584 409 2034 409 
Q 2484 409 2743 651 
Q 3003 894 3003 1313 
Q 3003 1734 2745 1975 
Q 2488 2216 2034 2216 
z
M 1403 2484 
Q 997 2584 770 2862 
Q 544 3141 544 3541 
Q 544 4100 942 4425 
Q 1341 4750 2034 4750 
Q 2731 4750 3128 4425 
Q 3525 4100 3525 3541 
Q 3525 3141 3298 2862 
Q 3072 2584 2669 2484 
Q 3125 2378 3379 2068 
Q 3634 1759 3634 1313 
Q 3634 634 3220 271 
Q 2806 -91 2034 -91 
Q 1263 -91 848 271 
Q 434 634 434 1313 
Q 434 1759 690 2068 
Q 947 2378 1403 2484 
z
M 1172 3481 
Q 1172 3119 1398 2916 
Q 1625 2713 2034 2713 
Q 2441 2713 2670 2916 
Q 2900 3119 2900 3481 
Q 2900 3844 2670 4047 
Q 2441 4250 2034 4250 
Q 1625 4250 1398 4047 
Q 1172 3844 1172 3481 
z
" transform="scale(0.015625)"/>
      <path id="DejaVuSans-29" d="M 513 4856 
L 1013 4856 
Q 1481 4119 1714 3412 
Q 1947 2706 1947 2009 
Q 1947 1309 1714 600 
Q 1481 -109 1013 -844 
L 513 -844 
Q 928 -128 1133 580 
Q 1338 1288 1338 2009 
Q 1338 2731 1133 3434 
Q 928 4138 513 4856 
z
" transform="scale(0.015625)"/>
      <path id="DejaVuSans-2248" d="M 4684 1947 
L 4684 1388 
Q 4356 1144 4076 1036 
Q 3797 928 3494 928 
Q 3150 928 2694 1113 
Q 2663 1125 2641 1134 
Q 2622 1141 2575 1159 
Q 2091 1350 1797 1350 
Q 1522 1350 1253 1231 
Q 984 1113 678 850 
L 678 1409 
Q 1006 1653 1286 1761 
Q 1566 1869 1869 1869 
Q 2213 1869 2672 1684 
Q 2706 1669 2722 1663 
Q 2741 1656 2788 1638 
Q 3272 1447 3566 1447 
Q 3834 1447 4098 1564 
Q 4363 1681 4684 1947 
z
M 4684 3163 
L 4684 2606 
Q 4356 2359 4076 2251 
Q 3797 2144 3494 2144 
Q 3150 2144 2694 2328 
Q 2663 2341 2641 2350 
Q 2622 2356 2575 2375 
Q 2091 2566 1797 2566 
Q 1522 2566 1253 2447 
Q 984 2328 678 2069 
L 678 2625 
Q 1006 2869 1286 2976 
Q 1566 3084 1869 3084 
Q 2213 3084 2672 2900 
Q 2703 2888 2719 2881 
Q 2741 2872 2788 2853 
Q 3272 2663 3566 2663 
Q 3834 2663 4098 2780 
Q 4363 2897 4684 3163 
z
" transform="scale(0.015625)"/>
      <path id="DejaVuSans-37" d="M 525 4666 
L 3525 4666 
L 3525 4397 
L 1831 0 
L 1172 0 
L 2766 4134 
L 525 4134 
L 525 4666 
z
" transform="scale(0.015625)"/>
      <path id="DejaVuSans-32" d="M 1228 531 
L 3431 531 
L 3431 0 
L 469 0 
L 469 531 
Q 828 903 1448 1529 
Q 2069 2156 2228 2338 
Q 2531 2678 2651 2914 
Q 2772 3150 2772 3378 
Q 2772 3750 2511 3984 
Q 2250 4219 1831 4219 
Q 1534 4219 1204 4116 
Q 875 4013 500 3803 
L 500 4441 
Q 881 4594 1212 4672 
Q 1544 4750 1819 4750 
Q 2544 4750 2975 4387 
Q 3406 4025 3406 3419 
Q 3406 3131 3298 2873 
Q 3191 2616 2906 2266 
Q 2828 2175 2409 1742 
Q 1991 1309 1228 531 
z
" transform="scale(0.015625)"/>
     </defs>
     <use xlink:href="#DejaVuSans-Oblique-48" transform="translate(0 0.125)"/>
     <use xlink:href="#DejaVuSans-28" transform="translate(75.195312 0.125)"/>
     <use xlink:href="#DejaVuSans-30" transform="translate(114.208984 0.125)"/>
     <use xlink:href="#DejaVuSans-2e" transform="translate(177.832031 0.125)"/>
     <use xlink:href="#DejaVuSans-38" transform="translate(206.994141 0.125)"/>
     <use xlink:href="#DejaVuSans-29" transform="translate(270.617188 0.125)"/>
     <use xlink:href="#DejaVuSans-2248" transform="translate(329.113281 0.125)"/>
     <use xlink:href="#DejaVuSans-30" transform="translate(432.384766 0.125)"/>
     <use xlink:href="#DejaVuSans-2e" transform="translate(496.007812 0.125)"/>
     <use xlink:href="#DejaVuSans-37" transform="translate(520.044922 0.125)"/>
     <use xlink:href="#DejaVuSans-32" transform="translate(583.667969 0.125)"/>
    </g>
   </g>
   <g id="text_7">
    <!-- $H(0.2) \approx 0.72$ -->
    <g style="fill: #0e7490" transform="translate(141.117273 181.116097) scale(0.1 -0.1)">
     <use xlink:href="#DejaVuSans-Oblique-48" transform="translate(0 0.125)"/>
     <use xlink:href="#DejaVuSans-28" transform="translate(75.195312 0.125)"/>
     <use xlink:href="#DejaVuSans-30" transform="translate(114.208984 0.125)"/>
     <use xlink:href="#DejaVuSans-2e" transform="translate(177.832031 0.125)"/>
     <use xlink:href="#DejaVuSans-32" transform="translate(204.119141 0.125)"/>
     <use xlink:href="#DejaVuSans-29" transform="translate(267.742188 0.125)"/>
     <use xlink:href="#DejaVuSans-2248" transform="translate(326.238281 0.125)"/>
     <use xlink:href="#DejaVuSans-30" transform="translate(429.509766 0.125)"/>
     <use xlink:href="#DejaVuSans-2e" transform="translate(493.132812 0.125)"/>
     <use xlink:href="#DejaVuSans-37" transform="translate(517.169922 0.125)"/>
     <use xlink:href="#DejaVuSans-32" transform="translate(580.792969 0.125)"/>
    </g>
   </g>
   <g id="text_8">
    <!-- $H(0.5) - \left(\frac{5}{10} H(0.8) + \frac{5}{10} H(0.2)\right)$ -->
    <g style="fill: #555555" transform="translate(51.805 222.503032) scale(0.095 -0.095)">
     <defs>
      <path id="DejaVuSans-2212" d="M 678 2272 
L 4684 2272 
L 4684 1741 
L 678 1741 
L 678 2272 
z
" transform="scale(0.015625)"/>
      <path id="STIXSizeTwoSym-Regular-28" d="M 3219 -1555 
L 3219 -1786 
Q 2144 -774 1517 730 
Q 890 2234 890 4115 
Q 890 6003 1533 7593 
Q 2176 9184 3219 10022 
L 3219 9811 
Q 2490 9062 1994 7606 
Q 1498 6150 1498 4115 
Q 1498 563 3219 -1555 
z
" transform="scale(0.015625)"/>
      <path id="DejaVuSans-2b" d="M 2944 4013 
L 2944 2272 
L 4684 2272 
L 4684 1741 
L 2944 1741 
L 2944 0 
L 2419 0 
L 2419 1741 
L 678 1741 
L 678 2272 
L 2419 2272 
L 2419 4013 
L 2944 4013 
z
" transform="scale(0.015625)"/>
      <path id="STIXSizeTwoSym-Regular-29" d="M 730 9792 
L 730 10022 
Q 1805 9011 2432 7507 
Q 3059 6003 3059 4115 
Q 3059 2234 2416 643 
Q 1773 -947 730 -1786 
L 730 -1574 
Q 1459 -826 1955 633 
Q 2451 2093 2451 4115 
Q 2451 7674 730 9792 
z
" transform="scale(0.015625)"/>
     </defs>
     <use xlink:href="#DejaVuSans-Oblique-48" transform="translate(0 0.870312)"/>
     <use xlink:href="#DejaVuSans-28" transform="translate(75.195312 0.870312)"/>
     <use xlink:href="#DejaVuSans-30" transform="translate(114.208984 0.870312)"/>
     <use xlink:href="#DejaVuSans-2e" transform="translate(177.832031 0.870312)"/>
     <use xlink:href="#DejaVuSans-35" transform="translate(209.619141 0.870312)"/>
     <use xlink:href="#DejaVuSans-29" transform="translate(273.242188 0.870312)"/>
     <use xlink:href="#DejaVuSans-2212" transform="translate(331.738281 0.870312)"/>
     <use xlink:href="#STIXSizeTwoSym-Regular-28" transform="translate(435.009766 -18.890625) scale(0.738364)"/>
     <use xlink:href="#DejaVuSans-35" transform="translate(500.522141 45.6625) scale(0.7)"/>
     <use xlink:href="#DejaVuSans-31" transform="translate(478.522141 -38.535937) scale(0.7)"/>
     <use xlink:href="#DejaVuSans-30" transform="translate(523.058273 -38.535937) scale(0.7)"/>
     <use xlink:href="#DejaVuSans-Oblique-48" transform="translate(580.094406 0.870312)"/>
     <use xlink:href="#DejaVuSans-28" transform="translate(655.289719 0.870312)"/>
     <use xlink:href="#DejaVuSans-30" transform="translate(694.303391 0.870312)"/>
     <use xlink:href="#DejaVuSans-2e" transform="translate(757.926437 0.870312)"/>
     <use xlink:href="#DejaVuSans-38" transform="translate(787.088547 0.870312)"/>
     <use xlink:href="#DejaVuSans-29" transform="translate(850.711594 0.870312)"/>
     <use xlink:href="#DejaVuSans-2b" transform="translate(909.207687 0.870312)"/>
     <use xlink:href="#DejaVuSans-35" transform="translate(1034.479172 45.6625) scale(0.7)"/>
     <use xlink:href="#DejaVuSans-31" transform="translate(1012.479172 -38.535937) scale(0.7)"/>
     <use xlink:href="#DejaVuSans-30" transform="translate(1057.015305 -38.535937) scale(0.7)"/>
     <use xlink:href="#DejaVuSans-Oblique-48" transform="translate(1114.051437 0.870312)"/>
     <use xlink:href="#DejaVuSans-28" transform="translate(1189.24675 0.870312)"/>
     <use xlink:href="#DejaVuSans-30" transform="translate(1228.260422 0.870312)"/>
     <use xlink:href="#DejaVuSans-2e" transform="translate(1291.883469 0.870312)"/>
     <use xlink:href="#DejaVuSans-32" transform="translate(1318.170578 0.870312)"/>
     <use xlink:href="#DejaVuSans-29" transform="translate(1381.793625 0.870312)"/>
     <use xlink:href="#STIXSizeTwoSym-Regular-29" transform="translate(1420.807297 -18.890625) scale(0.738364)"/>
     <path d="M 478.522141 19.667187 
L 478.522141 25.917187 
L 567.594406 25.917187 
L 567.594406 19.667187 
L 478.522141 19.667187 
z
"/>
     <path d="M 1012.479172 19.667187 
L 1012.479172 25.917187 
L 1101.551437 25.917187 
L 1101.551437 19.667187 
L 1012.479172 19.667187 
z
"/>
    </g>
   </g>
   <g id="text_9">
    <!-- $= 0.28$ -->
    <g style="fill: #be1d74" transform="translate(101.04 256.006742) scale(0.12 -0.12)">
     <use xlink:href="#DejaVuSans-3d" transform="translate(19.482422 0.78125)"/>
     <use xlink:href="#DejaVuSans-30" transform="translate(122.753906 0.78125)"/>
     <use xlink:href="#DejaVuSans-2e" transform="translate(186.376953 0.78125)"/>
     <use xlink:href="#DejaVuSans-32" transform="translate(212.664062 0.78125)"/>
     <use xlink:href="#DejaVuSans-38" transform="translate(276.287109 0.78125)"/>
    </g>
   </g>
  </g>
  <g id="axes_2">
   <g id="patch_7">
    <path d="M 349.985218 79.845105 
Q 332.596858 102.283201 316.304253 123.307324 
" clip-path="url(#p02344d5caf)" style="fill: none; stroke: #555555; stroke-width: 1.6; stroke-linecap: round"/>
    <path d="M 322.75394 120.208688 
L 316.304253 123.307324 
L 317.695156 116.288394 
z
" clip-path="url(#p02344d5caf)" style="fill: #555555; stroke: #555555; stroke-width: 1.6; stroke-linecap: round"/>
   </g>
   <g id="patch_8">
    <path d="M 367.134782 79.845105 
Q 384.523142 102.283201 400.815747 123.307324 
" clip-path="url(#p02344d5caf)" style="fill: none; stroke: #555555; stroke-width: 1.6; stroke-linecap: round"/>
    <path d="M 399.424844 116.288394 
L 400.815747 123.307324 
L 394.36606 120.208688 
z
" clip-path="url(#p02344d5caf)" style="fill: #555555; stroke: #555555; stroke-width: 1.6; stroke-linecap: round"/>
   </g>
   <g id="patch_9">
    <path d="M 358.56 89.473597 
C 367.167046 89.473597 375.422729 87.293202 381.508829 83.41262 
C 387.59493 79.532038 391.014545 74.268101 391.014545 68.780129 
C 391.014545 63.292157 387.59493 58.02822 381.508829 54.147638 
C 375.422729 50.267056 367.167046 48.086661 358.56 48.086661 
C 349.952954 48.086661 341.697271 50.267056 335.611171 54.147638 
C 329.52507 58.02822 326.105455 63.292157 326.105455 68.780129 
C 326.105455 74.268101 329.52507 79.532038 335.611171 83.41262 
C 341.697271 87.293202 349.952954 89.473597 358.56 89.473597 
z
" clip-path="url(#p02344d5caf)" style="fill: #ffffff; stroke: #7030a0; stroke-width: 2; stroke-linejoin: miter"/>
   </g>
   <g id="text_10">
    <g id="patch_10">
     <path d="M 294.262976 108.115948 
L 326.79157 108.115948 
L 326.79157 96.451729 
L 294.262976 96.451729 
z
" style="fill: #ffffff"/>
    </g>
    <!-- Round -->
    <g style="fill: #555555" transform="translate(295.497976 104.905245) scale(0.095 -0.095)">
     <defs>
      <path id="DejaVuSans-52" d="M 2841 2188 
Q 3044 2119 3236 1894 
Q 3428 1669 3622 1275 
L 4263 0 
L 3584 0 
L 2988 1197 
Q 2756 1666 2539 1819 
Q 2322 1972 1947 1972 
L 1259 1972 
L 1259 0 
L 628 0 
L 628 4666 
L 2053 4666 
Q 2853 4666 3247 4331 
Q 3641 3997 3641 3322 
Q 3641 2881 3436 2590 
Q 3231 2300 2841 2188 
z
M 1259 4147 
L 1259 2491 
L 2053 2491 
Q 2509 2491 2742 2702 
Q 2975 2913 2975 3322 
Q 2975 3731 2742 3939 
Q 2509 4147 2053 4147 
L 1259 4147 
z
" transform="scale(0.015625)"/>
      <path id="DejaVuSans-75" d="M 544 1381 
L 544 3500 
L 1119 3500 
L 1119 1403 
Q 1119 906 1312 657 
Q 1506 409 1894 409 
Q 2359 409 2629 706 
Q 2900 1003 2900 1516 
L 2900 3500 
L 3475 3500 
L 3475 0 
L 2900 0 
L 2900 538 
Q 2691 219 2414 64 
Q 2138 -91 1772 -91 
Q 1169 -91 856 284 
Q 544 659 544 1381 
z
M 1991 3584 
L 1991 3584 
z
" transform="scale(0.015625)"/>
      <path id="DejaVuSans-64" d="M 2906 2969 
L 2906 4863 
L 3481 4863 
L 3481 0 
L 2906 0 
L 2906 525 
Q 2725 213 2448 61 
Q 2172 -91 1784 -91 
Q 1150 -91 751 415 
Q 353 922 353 1747 
Q 353 2572 751 3078 
Q 1150 3584 1784 3584 
Q 2172 3584 2448 3432 
Q 2725 3281 2906 2969 
z
M 947 1747 
Q 947 1113 1208 752 
Q 1469 391 1925 391 
Q 2381 391 2643 752 
Q 2906 1113 2906 1747 
Q 2906 2381 2643 2742 
Q 2381 3103 1925 3103 
Q 1469 3103 1208 2742 
Q 947 2381 947 1747 
z
" transform="scale(0.015625)"/>
     </defs>
     <use xlink:href="#DejaVuSans-52"/>
     <use xlink:href="#DejaVuSans-6f" transform="translate(64.982422 0)"/>
     <use xlink:href="#DejaVuSans-75" transform="translate(126.164062 0)"/>
     <use xlink:href="#DejaVuSans-6e" transform="translate(189.542969 0)"/>
     <use xlink:href="#DejaVuSans-64" transform="translate(252.921875 0)"/>
    </g>
   </g>
   <g id="text_11">
    <g id="patch_11">
     <path d="M 384.333974 108.115948 
L 434.044208 108.115948 
L 434.044208 96.451729 
L 384.333974 96.451729 
z
" style="fill: #ffffff"/>
    </g>
    <!-- Not round -->
    <g style="fill: #555555" transform="translate(385.568974 104.905245) scale(0.095 -0.095)">
     <defs>
      <path id="DejaVuSans-4e" d="M 628 4666 
L 1478 4666 
L 3547 763 
L 3547 4666 
L 4159 4666 
L 4159 0 
L 3309 0 
L 1241 3903 
L 1241 0 
L 628 0 
L 628 4666 
z
" transform="scale(0.015625)"/>
     </defs>
     <use xlink:href="#DejaVuSans-4e"/>
     <use xlink:href="#DejaVuSans-6f" transform="translate(74.804688 0)"/>
     <use xlink:href="#DejaVuSans-74" transform="translate(135.986328 0)"/>
     <use xlink:href="#DejaVuSans-20" transform="translate(175.195312 0)"/>
     <use xlink:href="#DejaVuSans-72" transform="translate(206.982422 0)"/>
     <use xlink:href="#DejaVuSans-6f" transform="translate(245.845703 0)"/>
     <use xlink:href="#DejaVuSans-75" transform="translate(307.027344 0)"/>
     <use xlink:href="#DejaVuSans-6e" transform="translate(370.40625 0)"/>
     <use xlink:href="#DejaVuSans-64" transform="translate(433.785156 0)"/>
    </g>
   </g>
   <g id="text_12">
    <!-- Face shape -->
    <g style="fill: #7030a0" transform="translate(330.573281 71.539504) scale(0.1 -0.1)">
     <defs>
      <path id="DejaVuSans-63" d="M 3122 3366 
L 3122 2828 
Q 2878 2963 2633 3030 
Q 2388 3097 2138 3097 
Q 1578 3097 1268 2742 
Q 959 2388 959 1747 
Q 959 1106 1268 751 
Q 1578 397 2138 397 
Q 2388 397 2633 464 
Q 2878 531 3122 666 
L 3122 134 
Q 2881 22 2623 -34 
Q 2366 -91 2075 -91 
Q 1284 -91 818 406 
Q 353 903 353 1747 
Q 353 2603 823 3093 
Q 1294 3584 2113 3584 
Q 2378 3584 2631 3529 
Q 2884 3475 3122 3366 
z
" transform="scale(0.015625)"/>
     </defs>
     <use xlink:href="#DejaVuSans-46"/>
     <use xlink:href="#DejaVuSans-61" transform="translate(48.394531 0)"/>
     <use xlink:href="#DejaVuSans-63" transform="translate(109.673828 0)"/>
     <use xlink:href="#DejaVuSans-65" transform="translate(164.654297 0)"/>
     <use xlink:href="#DejaVuSans-20" transform="translate(226.177734 0)"/>
     <use xlink:href="#DejaVuSans-73" transform="translate(257.964844 0)"/>
     <use xlink:href="#DejaVuSans-68" transform="translate(310.064453 0)"/>
     <use xlink:href="#DejaVuSans-61" transform="translate(373.443359 0)"/>
     <use xlink:href="#DejaVuSans-70" transform="translate(434.722656 0)"/>
     <use xlink:href="#DejaVuSans-65" transform="translate(498.199219 0)"/>
    </g>
   </g>
   <g id="text_13">
    <!-- $p_1 = 4/7$ -->
    <g style="fill: #555555" transform="translate(287.582727 153.524806) scale(0.1 -0.1)">
     <use xlink:href="#DejaVuSans-Oblique-70" transform="translate(0 0.09375)"/>
     <use xlink:href="#DejaVuSans-31" transform="translate(63.476562 -16.3125) scale(0.7)"/>
     <use xlink:href="#DejaVuSans-3d" transform="translate(130.229492 0.09375)"/>
     <use xlink:href="#DejaVuSans-34" transform="translate(233.500977 0.09375)"/>
     <use xlink:href="#DejaVuSans-2f" transform="translate(297.124023 0.09375)"/>
     <use xlink:href="#DejaVuSans-37" transform="translate(317.06543 0.09375)"/>
    </g>
   </g>
   <g id="text_14">
    <!-- $p_1 = 1/3$ -->
    <g style="fill: #555555" transform="translate(390.737273 153.524806) scale(0.1 -0.1)">
     <defs>
      <path id="DejaVuSans-33" d="M 2597 2516 
Q 3050 2419 3304 2112 
Q 3559 1806 3559 1356 
Q 3559 666 3084 287 
Q 2609 -91 1734 -91 
Q 1441 -91 1130 -33 
Q 819 25 488 141 
L 488 750 
Q 750 597 1062 519 
Q 1375 441 1716 441 
Q 2309 441 2620 675 
Q 2931 909 2931 1356 
Q 2931 1769 2642 2001 
Q 2353 2234 1838 2234 
L 1294 2234 
L 1294 2753 
L 1863 2753 
Q 2328 2753 2575 2939 
Q 2822 3125 2822 3475 
Q 2822 3834 2567 4026 
Q 2313 4219 1838 4219 
Q 1578 4219 1281 4162 
Q 984 4106 628 3988 
L 628 4550 
Q 988 4650 1302 4700 
Q 1616 4750 1894 4750 
Q 2613 4750 3031 4423 
Q 3450 4097 3450 3541 
Q 3450 3153 3228 2886 
Q 3006 2619 2597 2516 
z
" transform="scale(0.015625)"/>
     </defs>
     <use xlink:href="#DejaVuSans-Oblique-70" transform="translate(0 0.78125)"/>
     <use xlink:href="#DejaVuSans-31" transform="translate(63.476562 -15.625) scale(0.7)"/>
     <use xlink:href="#DejaVuSans-3d" transform="translate(130.229492 0.78125)"/>
     <use xlink:href="#DejaVuSans-31" transform="translate(233.500977 0.78125)"/>
     <use xlink:href="#DejaVuSans-2f" transform="translate(297.124023 0.78125)"/>
     <use xlink:href="#DejaVuSans-33" transform="translate(330.81543 0.78125)"/>
    </g>
   </g>
   <g id="text_15">
    <!-- $H(0.57) \approx 0.99$ -->
    <g style="fill: #0e7490" transform="translate(270.882727 181.116097) scale(0.1 -0.1)">
     <defs>
      <path id="DejaVuSans-39" d="M 703 97 
L 703 672 
Q 941 559 1184 500 
Q 1428 441 1663 441 
Q 2288 441 2617 861 
Q 2947 1281 2994 2138 
Q 2813 1869 2534 1725 
Q 2256 1581 1919 1581 
Q 1219 1581 811 2004 
Q 403 2428 403 3163 
Q 403 3881 828 4315 
Q 1253 4750 1959 4750 
Q 2769 4750 3195 4129 
Q 3622 3509 3622 2328 
Q 3622 1225 3098 567 
Q 2575 -91 1691 -91 
Q 1453 -91 1209 -44 
Q 966 3 703 97 
z
M 1959 2075 
Q 2384 2075 2632 2365 
Q 2881 2656 2881 3163 
Q 2881 3666 2632 3958 
Q 2384 4250 1959 4250 
Q 1534 4250 1286 3958 
Q 1038 3666 1038 3163 
Q 1038 2656 1286 2365 
Q 1534 2075 1959 2075 
z
" transform="scale(0.015625)"/>
     </defs>
     <use xlink:href="#DejaVuSans-Oblique-48" transform="translate(0 0.125)"/>
     <use xlink:href="#DejaVuSans-28" transform="translate(75.195312 0.125)"/>
     <use xlink:href="#DejaVuSans-30" transform="translate(114.208984 0.125)"/>
     <use xlink:href="#DejaVuSans-2e" transform="translate(177.832031 0.125)"/>
     <use xlink:href="#DejaVuSans-35" transform="translate(209.619141 0.125)"/>
     <use xlink:href="#DejaVuSans-37" transform="translate(265.992188 0.125)"/>
     <use xlink:href="#DejaVuSans-29" transform="translate(329.615234 0.125)"/>
     <use xlink:href="#DejaVuSans-2248" transform="translate(388.111328 0.125)"/>
     <use xlink:href="#DejaVuSans-30" transform="translate(491.382812 0.125)"/>
     <use xlink:href="#DejaVuSans-2e" transform="translate(555.005859 0.125)"/>
     <use xlink:href="#DejaVuSans-39" transform="translate(586.792969 0.125)"/>
     <use xlink:href="#DejaVuSans-39" transform="translate(650.416016 0.125)"/>
    </g>
   </g>
   <g id="text_16">
    <!-- $H(0.33) \approx 0.92$ -->
    <g style="fill: #0e7490" transform="translate(374.487273 181.116097) scale(0.1 -0.1)">
     <use xlink:href="#DejaVuSans-Oblique-48" transform="translate(0 0.125)"/>
     <use xlink:href="#DejaVuSans-28" transform="translate(75.195312 0.125)"/>
     <use xlink:href="#DejaVuSans-30" transform="translate(114.208984 0.125)"/>
     <use xlink:href="#DejaVuSans-2e" transform="translate(177.832031 0.125)"/>
     <use xlink:href="#DejaVuSans-33" transform="translate(209.619141 0.125)"/>
     <use xlink:href="#DejaVuSans-33" transform="translate(273.242188 0.125)"/>
     <use xlink:href="#DejaVuSans-29" transform="translate(336.865234 0.125)"/>
     <use xlink:href="#DejaVuSans-2248" transform="translate(395.361328 0.125)"/>
     <use xlink:href="#DejaVuSans-30" transform="translate(498.632812 0.125)"/>
     <use xlink:href="#DejaVuSans-2e" transform="translate(562.255859 0.125)"/>
     <use xlink:href="#DejaVuSans-39" transform="translate(594.042969 0.125)"/>
     <use xlink:href="#DejaVuSans-32" transform="translate(655.916016 0.125)"/>
    </g>
   </g>
   <g id="text_17">
    <!-- $H(0.5) - \left(\frac{7}{10} H(0.57) + \frac{3}{10} H(0.33)\right)$ -->
    <g style="fill: #555555" transform="translate(282.7975 222.503032) scale(0.095 -0.095)">
     <use xlink:href="#DejaVuSans-Oblique-48" transform="translate(0 0.254687)"/>
     <use xlink:href="#DejaVuSans-28" transform="translate(75.195312 0.254687)"/>
     <use xlink:href="#DejaVuSans-30" transform="translate(114.208984 0.254687)"/>
     <use xlink:href="#DejaVuSans-2e" transform="translate(177.832031 0.254687)"/>
     <use xlink:href="#DejaVuSans-35" transform="translate(209.619141 0.254687)"/>
     <use xlink:href="#DejaVuSans-29" transform="translate(273.242188 0.254687)"/>
     <use xlink:href="#DejaVuSans-2212" transform="translate(331.738281 0.254687)"/>
     <use xlink:href="#STIXSizeTwoSym-Regular-28" transform="translate(435.009766 -19.50625) scale(0.743343)"/>
     <use xlink:href="#DejaVuSans-37" transform="translate(500.816635 44.051563) scale(0.7)"/>
     <use xlink:href="#DejaVuSans-31" transform="translate(478.816635 -39.151563) scale(0.7)"/>
     <use xlink:href="#DejaVuSans-30" transform="translate(523.352768 -39.151563) scale(0.7)"/>
     <use xlink:href="#DejaVuSans-Oblique-48" transform="translate(580.388901 0.254687)"/>
     <use xlink:href="#DejaVuSans-28" transform="translate(655.584213 0.254687)"/>
     <use xlink:href="#DejaVuSans-30" transform="translate(694.597885 0.254687)"/>
     <use xlink:href="#DejaVuSans-2e" transform="translate(758.220932 0.254687)"/>
     <use xlink:href="#DejaVuSans-35" transform="translate(790.008041 0.254687)"/>
     <use xlink:href="#DejaVuSans-37" transform="translate(846.381088 0.254687)"/>
     <use xlink:href="#DejaVuSans-29" transform="translate(910.004135 0.254687)"/>
     <use xlink:href="#DejaVuSans-2b" transform="translate(968.500229 0.254687)"/>
     <use xlink:href="#DejaVuSans-33" transform="translate(1093.771713 45.046875) scale(0.7)"/>
     <use xlink:href="#DejaVuSans-31" transform="translate(1071.771713 -39.151563) scale(0.7)"/>
     <use xlink:href="#DejaVuSans-30" transform="translate(1116.307846 -39.151563) scale(0.7)"/>
     <use xlink:href="#DejaVuSans-Oblique-48" transform="translate(1173.343979 0.254687)"/>
     <use xlink:href="#DejaVuSans-28" transform="translate(1248.539291 0.254687)"/>
     <use xlink:href="#DejaVuSans-30" transform="translate(1287.552963 0.254687)"/>
     <use xlink:href="#DejaVuSans-2e" transform="translate(1351.17601 0.254687)"/>
     <use xlink:href="#DejaVuSans-33" transform="translate(1382.96312 0.254687)"/>
     <use xlink:href="#DejaVuSans-33" transform="translate(1446.586166 0.254687)"/>
     <use xlink:href="#DejaVuSans-29" transform="translate(1510.209213 0.254687)"/>
     <use xlink:href="#STIXSizeTwoSym-Regular-29" transform="translate(1549.222885 -19.50625) scale(0.743343)"/>
     <path d="M 478.816635 19.051563 
L 478.816635 25.301563 
L 567.888901 25.301563 
L 567.888901 19.051563 
L 478.816635 19.051563 
z
"/>
     <path d="M 1071.771713 19.051563 
L 1071.771713 25.301563 
L 1160.843979 25.301563 
L 1160.843979 19.051563 
L 1071.771713 19.051563 
z
"/>
    </g>
   </g>
   <g id="text_18">
    <!-- $= 0.03$ -->
    <g style="fill: #555555" transform="translate(337.8 256.006742) scale(0.12 -0.12)">
     <use xlink:href="#DejaVuSans-3d" transform="translate(19.482422 0.78125)"/>
     <use xlink:href="#DejaVuSans-30" transform="translate(122.753906 0.78125)"/>
     <use xlink:href="#DejaVuSans-2e" transform="translate(186.376953 0.78125)"/>
     <use xlink:href="#DejaVuSans-30" transform="translate(218.164062 0.78125)"/>
     <use xlink:href="#DejaVuSans-33" transform="translate(281.787109 0.78125)"/>
    </g>
   </g>
  </g>
  <g id="axes_3">
   <g id="patch_12">
    <path d="M 587.105218 79.845105 
Q 569.716858 102.283201 553.424253 123.307324 
" clip-path="url(#p52519e9e30)" style="fill: none; stroke: #555555; stroke-width: 1.6; stroke-linecap: round"/>
    <path d="M 559.87394 120.208688 
L 553.424253 123.307324 
L 554.815156 116.288394 
z
" clip-path="url(#p52519e9e30)" style="fill: #555555; stroke: #555555; stroke-width: 1.6; stroke-linecap: round"/>
   </g>
   <g id="patch_13">
    <path d="M 604.254782 79.845105 
Q 621.643142 102.283201 637.935747 123.307324 
" clip-path="url(#p52519e9e30)" style="fill: none; stroke: #555555; stroke-width: 1.6; stroke-linecap: round"/>
    <path d="M 636.544844 116.288394 
L 637.935747 123.307324 
L 631.48606 120.208688 
z
" clip-path="url(#p52519e9e30)" style="fill: #555555; stroke: #555555; stroke-width: 1.6; stroke-linecap: round"/>
   </g>
   <g id="patch_14">
    <path d="M 595.68 89.473597 
C 604.287046 89.473597 612.542729 87.293202 618.628829 83.41262 
C 624.71493 79.532038 628.134545 74.268101 628.134545 68.780129 
C 628.134545 63.292157 624.71493 58.02822 618.628829 54.147638 
C 612.542729 50.267056 604.287046 48.086661 595.68 48.086661 
C 587.072954 48.086661 578.817271 50.267056 572.731171 54.147638 
C 566.64507 58.02822 563.225455 63.292157 563.225455 68.780129 
C 563.225455 74.268101 566.64507 79.532038 572.731171 83.41262 
C 578.817271 87.293202 587.072954 89.473597 595.68 89.473597 
z
" clip-path="url(#p52519e9e30)" style="fill: #ffffff; stroke: #7030a0; stroke-width: 2; stroke-linejoin: miter"/>
   </g>
   <g id="text_19">
    <g id="patch_15">
     <path d="M 528.593093 108.115948 
L 566.701452 108.115948 
L 566.701452 96.451729 
L 528.593093 96.451729 
z
" style="fill: #ffffff"/>
    </g>
    <!-- Present -->
    <g style="fill: #555555" transform="translate(529.828093 104.905245) scale(0.095 -0.095)">
     <use xlink:href="#DejaVuSans-50"/>
     <use xlink:href="#DejaVuSans-72" transform="translate(58.552734 0)"/>
     <use xlink:href="#DejaVuSans-65" transform="translate(97.416016 0)"/>
     <use xlink:href="#DejaVuSans-73" transform="translate(158.939453 0)"/>
     <use xlink:href="#DejaVuSans-65" transform="translate(211.039062 0)"/>
     <use xlink:href="#DejaVuSans-6e" transform="translate(272.5625 0)"/>
     <use xlink:href="#DejaVuSans-74" transform="translate(335.941406 0)"/>
    </g>
   </g>
   <g id="text_20">
    <g id="patch_16">
     <path d="M 628.539638 108.115948 
L 664.078544 108.115948 
L 664.078544 96.451729 
L 628.539638 96.451729 
z
" style="fill: #ffffff"/>
    </g>
    <!-- Absent -->
    <g style="fill: #555555" transform="translate(629.774638 104.905245) scale(0.095 -0.095)">
     <defs>
      <path id="DejaVuSans-41" d="M 2188 4044 
L 1331 1722 
L 3047 1722 
L 2188 4044 
z
M 1831 4666 
L 2547 4666 
L 4325 0 
L 3669 0 
L 3244 1197 
L 1141 1197 
L 716 0 
L 50 0 
L 1831 4666 
z
" transform="scale(0.015625)"/>
      <path id="DejaVuSans-62" d="M 3116 1747 
Q 3116 2381 2855 2742 
Q 2594 3103 2138 3103 
Q 1681 3103 1420 2742 
Q 1159 2381 1159 1747 
Q 1159 1113 1420 752 
Q 1681 391 2138 391 
Q 2594 391 2855 752 
Q 3116 1113 3116 1747 
z
M 1159 2969 
Q 1341 3281 1617 3432 
Q 1894 3584 2278 3584 
Q 2916 3584 3314 3078 
Q 3713 2572 3713 1747 
Q 3713 922 3314 415 
Q 2916 -91 2278 -91 
Q 1894 -91 1617 61 
Q 1341 213 1159 525 
L 1159 0 
L 581 0 
L 581 4863 
L 1159 4863 
L 1159 2969 
z
" transform="scale(0.015625)"/>
     </defs>
     <use xlink:href="#DejaVuSans-41"/>
     <use xlink:href="#DejaVuSans-62" transform="translate(68.408203 0)"/>
     <use xlink:href="#DejaVuSans-73" transform="translate(131.884766 0)"/>
     <use xlink:href="#DejaVuSans-65" transform="translate(183.984375 0)"/>
     <use xlink:href="#DejaVuSans-6e" transform="translate(245.507812 0)"/>
     <use xlink:href="#DejaVuSans-74" transform="translate(308.886719 0)"/>
    </g>
   </g>
   <g id="text_21">
    <!-- Whiskers -->
    <g style="fill: #7030a0" transform="translate(573.122969 71.539504) scale(0.1 -0.1)">
     <defs>
      <path id="DejaVuSans-57" d="M 213 4666 
L 850 4666 
L 1831 722 
L 2809 4666 
L 3519 4666 
L 4500 722 
L 5478 4666 
L 6119 4666 
L 4947 0 
L 4153 0 
L 3169 4050 
L 2175 0 
L 1381 0 
L 213 4666 
z
" transform="scale(0.015625)"/>
      <path id="DejaVuSans-6b" d="M 581 4863 
L 1159 4863 
L 1159 1991 
L 2875 3500 
L 3609 3500 
L 1753 1863 
L 3688 0 
L 2938 0 
L 1159 1709 
L 1159 0 
L 581 0 
L 581 4863 
z
" transform="scale(0.015625)"/>
     </defs>
     <use xlink:href="#DejaVuSans-57"/>
     <use xlink:href="#DejaVuSans-68" transform="translate(98.876953 0)"/>
     <use xlink:href="#DejaVuSans-69" transform="translate(162.255859 0)"/>
     <use xlink:href="#DejaVuSans-73" transform="translate(190.039062 0)"/>
     <use xlink:href="#DejaVuSans-6b" transform="translate(242.138672 0)"/>
     <use xlink:href="#DejaVuSans-65" transform="translate(296.423828 0)"/>
     <use xlink:href="#DejaVuSans-72" transform="translate(357.947266 0)"/>
     <use xlink:href="#DejaVuSans-73" transform="translate(399.060547 0)"/>
    </g>
   </g>
   <g id="text_22">
    <!-- $p_1 = 3/4$ -->
    <g style="fill: #555555" transform="translate(524.002727 153.524806) scale(0.1 -0.1)">
     <use xlink:href="#DejaVuSans-Oblique-70" transform="translate(0 0.78125)"/>
     <use xlink:href="#DejaVuSans-31" transform="translate(63.476562 -15.625) scale(0.7)"/>
     <use xlink:href="#DejaVuSans-3d" transform="translate(130.229492 0.78125)"/>
     <use xlink:href="#DejaVuSans-33" transform="translate(233.500977 0.78125)"/>
     <use xlink:href="#DejaVuSans-2f" transform="translate(297.124023 0.78125)"/>
     <use xlink:href="#DejaVuSans-34" transform="translate(330.81543 0.78125)"/>
    </g>
   </g>
   <g id="text_23">
    <!-- $p_1 = 2/6$ -->
    <g style="fill: #555555" transform="translate(627.857273 153.524806) scale(0.1 -0.1)">
     <defs>
      <path id="DejaVuSans-36" d="M 2113 2584 
Q 1688 2584 1439 2293 
Q 1191 2003 1191 1497 
Q 1191 994 1439 701 
Q 1688 409 2113 409 
Q 2538 409 2786 701 
Q 3034 994 3034 1497 
Q 3034 2003 2786 2293 
Q 2538 2584 2113 2584 
z
M 3366 4563 
L 3366 3988 
Q 3128 4100 2886 4159 
Q 2644 4219 2406 4219 
Q 1781 4219 1451 3797 
Q 1122 3375 1075 2522 
Q 1259 2794 1537 2939 
Q 1816 3084 2150 3084 
Q 2853 3084 3261 2657 
Q 3669 2231 3669 1497 
Q 3669 778 3244 343 
Q 2819 -91 2113 -91 
Q 1303 -91 875 529 
Q 447 1150 447 2328 
Q 447 3434 972 4092 
Q 1497 4750 2381 4750 
Q 2619 4750 2861 4703 
Q 3103 4656 3366 4563 
z
" transform="scale(0.015625)"/>
     </defs>
     <use xlink:href="#DejaVuSans-Oblique-70" transform="translate(0 0.78125)"/>
     <use xlink:href="#DejaVuSans-31" transform="translate(63.476562 -15.625) scale(0.7)"/>
     <use xlink:href="#DejaVuSans-3d" transform="translate(130.229492 0.78125)"/>
     <use xlink:href="#DejaVuSans-32" transform="translate(233.500977 0.78125)"/>
     <use xlink:href="#DejaVuSans-2f" transform="translate(297.124023 0.78125)"/>
     <use xlink:href="#DejaVuSans-36" transform="translate(330.81543 0.78125)"/>
    </g>
   </g>
   <g id="text_24">
    <!-- $H(0.75) \approx 0.81$ -->
    <g style="fill: #0e7490" transform="translate(508.202727 181.116097) scale(0.1 -0.1)">
     <use xlink:href="#DejaVuSans-Oblique-48" transform="translate(0 0.125)"/>
     <use xlink:href="#DejaVuSans-28" transform="translate(75.195312 0.125)"/>
     <use xlink:href="#DejaVuSans-30" transform="translate(114.208984 0.125)"/>
     <use xlink:href="#DejaVuSans-2e" transform="translate(177.832031 0.125)"/>
     <use xlink:href="#DejaVuSans-37" transform="translate(201.869141 0.125)"/>
     <use xlink:href="#DejaVuSans-35" transform="translate(265.492188 0.125)"/>
     <use xlink:href="#DejaVuSans-29" transform="translate(329.115234 0.125)"/>
     <use xlink:href="#DejaVuSans-2248" transform="translate(387.611328 0.125)"/>
     <use xlink:href="#DejaVuSans-30" transform="translate(490.882812 0.125)"/>
     <use xlink:href="#DejaVuSans-2e" transform="translate(554.505859 0.125)"/>
     <use xlink:href="#DejaVuSans-38" transform="translate(583.667969 0.125)"/>
     <use xlink:href="#DejaVuSans-31" transform="translate(647.291016 0.125)"/>
    </g>
   </g>
   <g id="text_25">
    <!-- $H(0.33) \approx 0.92$ -->
    <g style="fill: #0e7490" transform="translate(611.607273 181.116097) scale(0.1 -0.1)">
     <use xlink:href="#DejaVuSans-Oblique-48" transform="translate(0 0.125)"/>
     <use xlink:href="#DejaVuSans-28" transform="translate(75.195312 0.125)"/>
     <use xlink:href="#DejaVuSans-30" transform="translate(114.208984 0.125)"/>
     <use xlink:href="#DejaVuSans-2e" transform="translate(177.832031 0.125)"/>
     <use xlink:href="#DejaVuSans-33" transform="translate(209.619141 0.125)"/>
     <use xlink:href="#DejaVuSans-33" transform="translate(273.242188 0.125)"/>
     <use xlink:href="#DejaVuSans-29" transform="translate(336.865234 0.125)"/>
     <use xlink:href="#DejaVuSans-2248" transform="translate(395.361328 0.125)"/>
     <use xlink:href="#DejaVuSans-30" transform="translate(498.632812 0.125)"/>
     <use xlink:href="#DejaVuSans-2e" transform="translate(562.255859 0.125)"/>
     <use xlink:href="#DejaVuSans-39" transform="translate(594.042969 0.125)"/>
     <use xlink:href="#DejaVuSans-32" transform="translate(655.916016 0.125)"/>
    </g>
   </g>
   <g id="text_26">
    <!-- $H(0.5) - \left(\frac{4}{10} H(0.75) + \frac{6}{10} H(0.33)\right)$ -->
    <g style="fill: #555555" transform="translate(519.965 222.503032) scale(0.095 -0.095)">
     <use xlink:href="#DejaVuSans-Oblique-48" transform="translate(0 0.254687)"/>
     <use xlink:href="#DejaVuSans-28" transform="translate(75.195312 0.254687)"/>
     <use xlink:href="#DejaVuSans-30" transform="translate(114.208984 0.254687)"/>
     <use xlink:href="#DejaVuSans-2e" transform="translate(177.832031 0.254687)"/>
     <use xlink:href="#DejaVuSans-35" transform="translate(209.619141 0.254687)"/>
     <use xlink:href="#DejaVuSans-29" transform="translate(273.242188 0.254687)"/>
     <use xlink:href="#DejaVuSans-2212" transform="translate(331.738281 0.254687)"/>
     <use xlink:href="#STIXSizeTwoSym-Regular-28" transform="translate(435.009766 -19.50625) scale(0.743343)"/>
     <use xlink:href="#DejaVuSans-34" transform="translate(500.816635 44.051563) scale(0.7)"/>
     <use xlink:href="#DejaVuSans-31" transform="translate(478.816635 -39.151563) scale(0.7)"/>
     <use xlink:href="#DejaVuSans-30" transform="translate(523.352768 -39.151563) scale(0.7)"/>
     <use xlink:href="#DejaVuSans-Oblique-48" transform="translate(580.388901 0.254687)"/>
     <use xlink:href="#DejaVuSans-28" transform="translate(655.584213 0.254687)"/>
     <use xlink:href="#DejaVuSans-30" transform="translate(694.597885 0.254687)"/>
     <use xlink:href="#DejaVuSans-2e" transform="translate(758.220932 0.254687)"/>
     <use xlink:href="#DejaVuSans-37" transform="translate(782.258041 0.254687)"/>
     <use xlink:href="#DejaVuSans-35" transform="translate(845.881088 0.254687)"/>
     <use xlink:href="#DejaVuSans-29" transform="translate(909.504135 0.254687)"/>
     <use xlink:href="#DejaVuSans-2b" transform="translate(968.000229 0.254687)"/>
     <use xlink:href="#DejaVuSans-36" transform="translate(1093.271713 45.046875) scale(0.7)"/>
     <use xlink:href="#DejaVuSans-31" transform="translate(1071.271713 -39.151563) scale(0.7)"/>
     <use xlink:href="#DejaVuSans-30" transform="translate(1115.807846 -39.151563) scale(0.7)"/>
     <use xlink:href="#DejaVuSans-Oblique-48" transform="translate(1172.843979 0.254687)"/>
     <use xlink:href="#DejaVuSans-28" transform="translate(1248.039291 0.254687)"/>
     <use xlink:href="#DejaVuSans-30" transform="translate(1287.052963 0.254687)"/>
     <use xlink:href="#DejaVuSans-2e" transform="translate(1350.67601 0.254687)"/>
     <use xlink:href="#DejaVuSans-33" transform="translate(1382.46312 0.254687)"/>
     <use xlink:href="#DejaVuSans-33" transform="translate(1446.086166 0.254687)"/>
     <use xlink:href="#DejaVuSans-29" transform="translate(1509.709213 0.254687)"/>
     <use xlink:href="#STIXSizeTwoSym-Regular-29" transform="translate(1548.722885 -19.50625) scale(0.743343)"/>
     <path d="M 478.816635 19.051563 
L 478.816635 25.301563 
L 567.888901 25.301563 
L 567.888901 19.051563 
L 478.816635 19.051563 
z
"/>
     <path d="M 1071.271713 19.051563 
L 1071.271713 25.301563 
L 1160.343979 25.301563 
L 1160.343979 19.051563 
L 1071.271713 19.051563 
z
"/>
    </g>
   </g>
   <g id="text_27">
    <!-- $= 0.12$ -->
    <g style="fill: #555555" transform="translate(574.92 256.006742) scale(0.12 -0.12)">
     <use xlink:href="#DejaVuSans-3d" transform="translate(19.482422 0.78125)"/>
     <use xlink:href="#DejaVuSans-30" transform="translate(122.753906 0.78125)"/>
     <use xlink:href="#DejaVuSans-2e" transform="translate(186.376953 0.78125)"/>
     <use xlink:href="#DejaVuSans-31" transform="translate(218.164062 0.78125)"/>
     <use xlink:href="#DejaVuSans-32" transform="translate(281.787109 0.78125)"/>
    </g>
   </g>
  </g>
  <g id="text_28">
   <!-- information gain of the three candidate root splits -->
   <g style="fill: #808080" transform="translate(227.319844 15.178359) scale(0.105 -0.105)">
    <defs>
     <path id="DejaVuSans-66" d="M 2375 4863 
L 2375 4384 
L 1825 4384 
Q 1516 4384 1395 4259 
Q 1275 4134 1275 3809 
L 1275 3500 
L 2222 3500 
L 2222 3053 
L 1275 3053 
L 1275 0 
L 697 0 
L 697 3053 
L 147 3053 
L 147 3500 
L 697 3500 
L 697 3744 
Q 697 4328 969 4595 
Q 1241 4863 1831 4863 
L 2375 4863 
z
" transform="scale(0.015625)"/>
     <path id="DejaVuSans-6d" d="M 3328 2828 
Q 3544 3216 3844 3400 
Q 4144 3584 4550 3584 
Q 5097 3584 5394 3201 
Q 5691 2819 5691 2113 
L 5691 0 
L 5113 0 
L 5113 2094 
Q 5113 2597 4934 2840 
Q 4756 3084 4391 3084 
Q 3944 3084 3684 2787 
Q 3425 2491 3425 1978 
L 3425 0 
L 2847 0 
L 2847 2094 
Q 2847 2600 2669 2842 
Q 2491 3084 2119 3084 
Q 1678 3084 1418 2786 
Q 1159 2488 1159 1978 
L 1159 0 
L 581 0 
L 581 3500 
L 1159 3500 
L 1159 2956 
Q 1356 3278 1631 3431 
Q 1906 3584 2284 3584 
Q 2666 3584 2933 3390 
Q 3200 3197 3328 2828 
z
" transform="scale(0.015625)"/>
     <path id="DejaVuSans-67" d="M 2906 1791 
Q 2906 2416 2648 2759 
Q 2391 3103 1925 3103 
Q 1463 3103 1205 2759 
Q 947 2416 947 1791 
Q 947 1169 1205 825 
Q 1463 481 1925 481 
Q 2391 481 2648 825 
Q 2906 1169 2906 1791 
z
M 3481 434 
Q 3481 -459 3084 -895 
Q 2688 -1331 1869 -1331 
Q 1566 -1331 1297 -1286 
Q 1028 -1241 775 -1147 
L 775 -588 
Q 1028 -725 1275 -790 
Q 1522 -856 1778 -856 
Q 2344 -856 2625 -561 
Q 2906 -266 2906 331 
L 2906 616 
Q 2728 306 2450 153 
Q 2172 0 1784 0 
Q 1141 0 747 490 
Q 353 981 353 1791 
Q 353 2603 747 3093 
Q 1141 3584 1784 3584 
Q 2172 3584 2450 3431 
Q 2728 3278 2906 2969 
L 2906 3500 
L 3481 3500 
L 3481 434 
z
" transform="scale(0.015625)"/>
    </defs>
    <use xlink:href="#DejaVuSans-69"/>
    <use xlink:href="#DejaVuSans-6e" transform="translate(27.783203 0)"/>
    <use xlink:href="#DejaVuSans-66" transform="translate(91.162109 0)"/>
    <use xlink:href="#DejaVuSans-6f" transform="translate(126.367188 0)"/>
    <use xlink:href="#DejaVuSans-72" transform="translate(187.548828 0)"/>
    <use xlink:href="#DejaVuSans-6d" transform="translate(226.912109 0)"/>
    <use xlink:href="#DejaVuSans-61" transform="translate(324.324219 0)"/>
    <use xlink:href="#DejaVuSans-74" transform="translate(385.603516 0)"/>
    <use xlink:href="#DejaVuSans-69" transform="translate(424.8125 0)"/>
    <use xlink:href="#DejaVuSans-6f" transform="translate(452.595703 0)"/>
    <use xlink:href="#DejaVuSans-6e" transform="translate(513.777344 0)"/>
    <use xlink:href="#DejaVuSans-20" transform="translate(577.15625 0)"/>
    <use xlink:href="#DejaVuSans-67" transform="translate(608.943359 0)"/>
    <use xlink:href="#DejaVuSans-61" transform="translate(672.419922 0)"/>
    <use xlink:href="#DejaVuSans-69" transform="translate(733.699219 0)"/>
    <use xlink:href="#DejaVuSans-6e" transform="translate(761.482422 0)"/>
    <use xlink:href="#DejaVuSans-20" transform="translate(824.861328 0)"/>
    <use xlink:href="#DejaVuSans-6f" transform="translate(856.648438 0)"/>
    <use xlink:href="#DejaVuSans-66" transform="translate(917.830078 0)"/>
    <use xlink:href="#DejaVuSans-20" transform="translate(953.035156 0)"/>
    <use xlink:href="#DejaVuSans-74" transform="translate(984.822266 0)"/>
    <use xlink:href="#DejaVuSans-68" transform="translate(1024.03125 0)"/>
    <use xlink:href="#DejaVuSans-65" transform="translate(1087.410156 0)"/>
    <use xlink:href="#DejaVuSans-20" transform="translate(1148.933594 0)"/>
    <use xlink:href="#DejaVuSans-74" transform="translate(1180.720703 0)"/>
    <use xlink:href="#DejaVuSans-68" transform="translate(1219.929688 0)"/>
    <use xlink:href="#DejaVuSans-72" transform="translate(1283.308594 0)"/>
    <use xlink:href="#DejaVuSans-65" transform="translate(1322.171875 0)"/>
    <use xlink:href="#DejaVuSans-65" transform="translate(1383.695312 0)"/>
    <use xlink:href="#DejaVuSans-20" transform="translate(1445.21875 0)"/>
    <use xlink:href="#DejaVuSans-63" transform="translate(1477.005859 0)"/>
    <use xlink:href="#DejaVuSans-61" transform="translate(1531.986328 0)"/>
    <use xlink:href="#DejaVuSans-6e" transform="translate(1593.265625 0)"/>
    <use xlink:href="#DejaVuSans-64" transform="translate(1656.644531 0)"/>
    <use xlink:href="#DejaVuSans-69" transform="translate(1720.121094 0)"/>
    <use xlink:href="#DejaVuSans-64" transform="translate(1747.904297 0)"/>
    <use xlink:href="#DejaVuSans-61" transform="translate(1811.380859 0)"/>
    <use xlink:href="#DejaVuSans-74" transform="translate(1872.660156 0)"/>
    <use xlink:href="#DejaVuSans-65" transform="translate(1911.869141 0)"/>
    <use xlink:href="#DejaVuSans-20" transform="translate(1973.392578 0)"/>
    <use xlink:href="#DejaVuSans-72" transform="translate(2005.179688 0)"/>
    <use xlink:href="#DejaVuSans-6f" transform="translate(2044.042969 0)"/>
    <use xlink:href="#DejaVuSans-6f" transform="translate(2105.224609 0)"/>
    <use xlink:href="#DejaVuSans-74" transform="translate(2166.40625 0)"/>
    <use xlink:href="#DejaVuSans-20" transform="translate(2205.615234 0)"/>
    <use xlink:href="#DejaVuSans-73" transform="translate(2237.402344 0)"/>
    <use xlink:href="#DejaVuSans-70" transform="translate(2289.501953 0)"/>
    <use xlink:href="#DejaVuSans-6c" transform="translate(2352.978516 0)"/>
    <use xlink:href="#DejaVuSans-69" transform="translate(2380.761719 0)"/>
    <use xlink:href="#DejaVuSans-74" transform="translate(2408.544922 0)"/>
    <use xlink:href="#DejaVuSans-73" transform="translate(2447.753906 0)"/>
   </g>
  </g>
 </g>
 <defs>
  <clipPath id="p9586541a7c">
   <rect x="7.2" y="29.364" width="228.48" height="244.38"/>
  </clipPath>
  <clipPath id="p02344d5caf">
   <rect x="244.32" y="29.364" width="228.48" height="244.38"/>
  </clipPath>
  <clipPath id="p52519e9e30">
   <rect x="481.44" y="29.364" width="228.48" height="244.38"/>
  </clipPath>
 </defs>
</svg>
