<?xml version="1.0" encoding="utf-8" standalone="no"?>
<!DOCTYPE svg PUBLIC "-//W3C//DTD SVG 1.1//EN"
  "http://www.w3.org/Graphics/SVG/1.1/DTD/svg11.dtd">
<svg xmlns:xlink="http://www.w3.org/1999/xlink" width="544.5pt" height="338.842359pt" viewBox="0 0 544.5 338.842359" xmlns="http://www.w3.org/2000/svg" version="1.1">
 <metadata>
  <rdf:RDF xmlns:dc="http://purl.org/dc/elements/1.1/" xmlns:cc="http://creativecommons.org/ns#" xmlns:rdf="http://www.w3.org/1999/02/22-rdf-syntax-ns#">
   <cc:Work>
    <dc:type rdf:resource="http://purl.org/dc/dcmitype/StillImage"/>
    <dc:date>2026-07-22T14:15:59.561263</dc:date>
    <dc:format>image/svg+xml</dc:format>
    <dc:creator>
     <cc:Agent>
      <dc:title>Matplotlib v3.10.8, https://matplotlib.org/</dc:title>
     </cc:Agent>
    </dc:creator>
   </cc:Work>
  </rdf:RDF>
 </metadata>
 <defs>
  <style type="text/css">*{stroke-linejoin: round; stroke-linecap: butt}</style>
 </defs>
 <g id="figure_1">
  <g id="patch_1">
   <path d="M 0 338.842359 
L 544.5 338.842359 
L 544.5 0 
L 0 0 
z
" style="fill: #ffffff"/>
  </g>
  <g id="axes_1">
   <g id="patch_2">
    <path d="M 260.932313 71.126803 
Q 208.636876 109.221208 157.787342 146.26235 
" clip-path="url(#p61acffb364)" style="fill: none; stroke: #555555; stroke-width: 1.6; stroke-linecap: round"/>
    <path d="M 164.844498 145.080594 
L 157.787342 146.26235 
L 161.076231 139.907571 
z
" clip-path="url(#p61acffb364)" style="fill: #555555; stroke: #555555; stroke-width: 1.6; stroke-linecap: round"/>
   </g>
   <g id="patch_3">
    <path d="M 283.567687 71.126803 
Q 335.863124 109.221208 386.712658 146.26235 
" clip-path="url(#p61acffb364)" style="fill: none; stroke: #555555; stroke-width: 1.6; stroke-linecap: round"/>
    <path d="M 383.423769 139.907571 
L 386.712658 146.26235 
L 379.655502 145.080594 
z
" clip-path="url(#p61acffb364)" style="fill: #555555; stroke: #555555; stroke-width: 1.6; stroke-linecap: round"/>
   </g>
   <g id="patch_4">
    <path d="M 136.670551 166.794904 
Q 110.569337 201.896429 85.53554 235.562467 
" clip-path="url(#p61acffb364)" style="fill: none; stroke: #555555; stroke-width: 1.6; stroke-linecap: round"/>
    <path d="M 91.922322 232.336167 
L 85.53554 235.562467 
L 86.786569 228.517261 
z
" clip-path="url(#p61acffb364)" style="fill: #555555; stroke: #555555; stroke-width: 1.6; stroke-linecap: round"/>
   </g>
   <g id="patch_5">
    <path d="M 153.381449 166.794904 
Q 179.482663 201.896429 204.51646 235.562467 
" clip-path="url(#p61acffb364)" style="fill: none; stroke: #555555; stroke-width: 1.6; stroke-linecap: round"/>
    <path d="M 203.265431 228.517261 
L 204.51646 235.562467 
L 198.129678 232.336167 
z
" clip-path="url(#p61acffb364)" style="fill: #555555; stroke: #555555; stroke-width: 1.6; stroke-linecap: round"/>
   </g>
   <g id="patch_6">
    <path d="M 391.118551 166.794904 
Q 365.017337 201.896429 339.98354 235.562467 
" clip-path="url(#p61acffb364)" style="fill: none; stroke: #555555; stroke-width: 1.6; stroke-linecap: round"/>
    <path d="M 346.370322 232.336167 
L 339.98354 235.562467 
L 341.234569 228.517261 
z
" clip-path="url(#p61acffb364)" style="fill: #555555; stroke: #555555; stroke-width: 1.6; stroke-linecap: round"/>
   </g>
   <g id="patch_7">
    <path d="M 407.829449 166.794904 
Q 433.930663 201.896429 458.96446 235.562467 
" clip-path="url(#p61acffb364)" style="fill: none; stroke: #555555; stroke-width: 1.6; stroke-linecap: round"/>
    <path d="M 457.713431 228.517261 
L 458.96446 235.562467 
L 452.577678 232.336167 
z
" clip-path="url(#p61acffb364)" style="fill: #555555; stroke: #555555; stroke-width: 1.6; stroke-linecap: round"/>
   </g>
   <g id="patch_8">
    <path d="M 25.7535 287.621344 
L 264.2985 287.621344 
Q 269.5995 287.621344 269.5995 282.987553 
L 269.5995 116.171076 
Q 269.5995 111.537285 264.2985 111.537285 
L 25.7535 111.537285 
Q 20.4525 111.537285 20.4525 116.171076 
L 20.4525 282.987553 
Q 20.4525 287.621344 25.7535 287.621344 
L 25.7535 287.621344 
z
" clip-path="url(#p61acffb364)" style="fill: none; stroke-dasharray: 5.92,2.56; stroke-dashoffset: 0; stroke: #be1d74; stroke-width: 1.6; stroke-linejoin: miter"/>
   </g>
   <g id="patch_9">
    <path d="M 280.2015 287.621344 
L 518.7465 287.621344 
Q 524.0475 287.621344 524.0475 282.987553 
L 524.0475 116.171076 
Q 524.0475 111.537285 518.7465 111.537285 
L 280.2015 111.537285 
Q 274.9005 111.537285 274.9005 116.171076 
L 274.9005 282.987553 
Q 274.9005 287.621344 280.2015 287.621344 
L 280.2015 287.621344 
z
" clip-path="url(#p61acffb364)" style="fill: none; stroke-dasharray: 5.92,2.56; stroke-dashoffset: 0; stroke: #be1d74; stroke-width: 1.6; stroke-linejoin: miter"/>
   </g>
   <g id="patch_10">
    <path d="M 272.25 87.209882 
C 289.82302 87.209882 306.678661 84.646593 319.104663 80.08455 
C 331.530665 75.522508 338.5125 69.334181 338.5125 62.882479 
C 338.5125 56.430776 331.530665 50.24245 319.104663 45.680407 
C 306.678661 41.118364 289.82302 38.555076 272.25 38.555076 
C 254.67698 38.555076 237.821339 41.118364 225.395337 45.680407 
C 212.969335 50.24245 205.9875 56.430776 205.9875 62.882479 
C 205.9875 69.334181 212.969335 75.522508 225.395337 80.08455 
C 237.821339 84.646593 254.67698 87.209882 272.25 87.209882 
z
" clip-path="url(#p61acffb364)" style="fill: #ffffff; stroke: #7030a0; stroke-width: 2; stroke-linejoin: miter"/>
   </g>
   <g id="patch_11">
    <path d="M 145.026 179.885703 
C 162.59902 179.885703 179.454661 177.322414 191.880663 172.760371 
C 204.306665 168.198329 211.2885 162.010002 211.2885 155.5583 
C 211.2885 149.106597 204.306665 142.918271 191.880663 138.356228 
C 179.454661 133.794185 162.59902 131.230897 145.026 131.230897 
C 127.45298 131.230897 110.597339 133.794185 98.171337 138.356228 
C 85.745335 142.918271 78.7635 149.106597 78.7635 155.5583 
C 78.7635 162.010002 85.745335 168.198329 98.171337 172.760371 
C 110.597339 177.322414 127.45298 179.885703 145.026 179.885703 
z
" clip-path="url(#p61acffb364)" style="fill: #ffffff; stroke: #7030a0; stroke-width: 2; stroke-linejoin: miter"/>
   </g>
   <g id="patch_12">
    <path d="M 399.474 179.885703 
C 417.04702 179.885703 433.902661 177.322414 446.328663 172.760371 
C 458.754665 168.198329 465.7365 162.010002 465.7365 155.5583 
C 465.7365 149.106597 458.754665 142.918271 446.328663 138.356228 
C 433.902661 133.794185 417.04702 131.230897 399.474 131.230897 
C 381.90098 131.230897 365.045339 133.794185 352.619337 138.356228 
C 340.193335 142.918271 333.2115 149.106597 333.2115 155.5583 
C 333.2115 162.010002 340.193335 168.198329 352.619337 172.760371 
C 365.045339 177.322414 381.90098 179.885703 399.474 179.885703 
z
" clip-path="url(#p61acffb364)" style="fill: #ffffff; stroke: #7030a0; stroke-width: 2; stroke-linejoin: miter"/>
   </g>
   <g id="patch_13">
    <path d="M 31.0545 270.708007 
L 121.1715 270.708007 
Q 124.3521 270.708007 124.3521 267.927733 
L 124.3521 228.540509 
Q 124.3521 225.760234 121.1715 225.760234 
L 31.0545 225.760234 
Q 27.8739 225.760234 27.8739 228.540509 
L 27.8739 267.927733 
Q 27.8739 270.708007 31.0545 270.708007 
z
" clip-path="url(#p61acffb364)" style="fill: #ffffff; stroke: #0e7490; stroke-width: 2; stroke-linejoin: miter"/>
   </g>
   <g id="patch_14">
    <path d="M 168.8805 270.708007 
L 258.9975 270.708007 
Q 262.1781 270.708007 262.1781 267.927733 
L 262.1781 228.540509 
Q 262.1781 225.760234 258.9975 225.760234 
L 168.8805 225.760234 
Q 165.6999 225.760234 165.6999 228.540509 
L 165.6999 267.927733 
Q 165.6999 270.708007 168.8805 270.708007 
z
" clip-path="url(#p61acffb364)" style="fill: #ffffff; stroke: #9a9aa8; stroke-width: 2; stroke-linejoin: miter"/>
   </g>
   <g id="patch_15">
    <path d="M 285.5025 270.708007 
L 375.6195 270.708007 
Q 378.8001 270.708007 378.8001 267.927733 
L 378.8001 228.540509 
Q 378.8001 225.760234 375.6195 225.760234 
L 285.5025 225.760234 
Q 282.3219 225.760234 282.3219 228.540509 
L 282.3219 267.927733 
Q 282.3219 270.708007 285.5025 270.708007 
z
" clip-path="url(#p61acffb364)" style="fill: #ffffff; stroke: #0e7490; stroke-width: 2; stroke-linejoin: miter"/>
   </g>
   <g id="patch_16">
    <path d="M 423.3285 270.708007 
L 513.4455 270.708007 
Q 516.6261 270.708007 516.6261 267.927733 
L 516.6261 228.540509 
Q 516.6261 225.760234 513.4455 225.760234 
L 423.3285 225.760234 
Q 420.1479 225.760234 420.1479 228.540509 
L 420.1479 267.927733 
Q 420.1479 270.708007 423.3285 270.708007 
z
" clip-path="url(#p61acffb364)" style="fill: #ffffff; stroke: #9a9aa8; stroke-width: 2; stroke-linejoin: miter"/>
   </g>
   <g id="text_1">
    <g id="patch_17">
     <path d="M 166.296203 115.052499 
L 197.969797 115.052499 
L 197.969797 103.38828 
L 166.296203 103.38828 
z
" style="fill: #ffffff"/>
    </g>
    <!-- Pointy -->
    <g style="fill: #555555" transform="translate(167.531203 111.841795) scale(0.095 -0.095)">
     <defs>
      <path id="DejaVuSans-50" d="M 1259 4147 
L 1259 2394 
L 2053 2394 
Q 2494 2394 2734 2622 
Q 2975 2850 2975 3272 
Q 2975 3691 2734 3919 
Q 2494 4147 2053 4147 
L 1259 4147 
z
M 628 4666 
L 2053 4666 
Q 2838 4666 3239 4311 
Q 3641 3956 3641 3272 
Q 3641 2581 3239 2228 
Q 2838 1875 2053 1875 
L 1259 1875 
L 1259 0 
L 628 0 
L 628 4666 
z
" transform="scale(0.015625)"/>
      <path id="DejaVuSans-6f" d="M 1959 3097 
Q 1497 3097 1228 2736 
Q 959 2375 959 1747 
Q 959 1119 1226 758 
Q 1494 397 1959 397 
Q 2419 397 2687 759 
Q 2956 1122 2956 1747 
Q 2956 2369 2687 2733 
Q 2419 3097 1959 3097 
z
M 1959 3584 
Q 2709 3584 3137 3096 
Q 3566 2609 3566 1747 
Q 3566 888 3137 398 
Q 2709 -91 1959 -91 
Q 1206 -91 779 398 
Q 353 888 353 1747 
Q 353 2609 779 3096 
Q 1206 3584 1959 3584 
z
" transform="scale(0.015625)"/>
      <path id="DejaVuSans-69" d="M 603 3500 
L 1178 3500 
L 1178 0 
L 603 0 
L 603 3500 
z
M 603 4863 
L 1178 4863 
L 1178 4134 
L 603 4134 
L 603 4863 
z
" transform="scale(0.015625)"/>
      <path id="DejaVuSans-6e" d="M 3513 2113 
L 3513 0 
L 2938 0 
L 2938 2094 
Q 2938 2591 2744 2837 
Q 2550 3084 2163 3084 
Q 1697 3084 1428 2787 
Q 1159 2491 1159 1978 
L 1159 0 
L 581 0 
L 581 3500 
L 1159 3500 
L 1159 2956 
Q 1366 3272 1645 3428 
Q 1925 3584 2291 3584 
Q 2894 3584 3203 3211 
Q 3513 2838 3513 2113 
z
" transform="scale(0.015625)"/>
      <path id="DejaVuSans-74" d="M 1172 4494 
L 1172 3500 
L 2356 3500 
L 2356 3053 
L 1172 3053 
L 1172 1153 
Q 1172 725 1289 603 
Q 1406 481 1766 481 
L 2356 481 
L 2356 0 
L 1766 0 
Q 1100 0 847 248 
Q 594 497 594 1153 
L 594 3053 
L 172 3053 
L 172 3500 
L 594 3500 
L 594 4494 
L 1172 4494 
z
" transform="scale(0.015625)"/>
      <path id="DejaVuSans-79" d="M 2059 -325 
Q 1816 -950 1584 -1140 
Q 1353 -1331 966 -1331 
L 506 -1331 
L 506 -850 
L 844 -850 
Q 1081 -850 1212 -737 
Q 1344 -625 1503 -206 
L 1606 56 
L 191 3500 
L 800 3500 
L 1894 763 
L 2988 3500 
L 3597 3500 
L 2059 -325 
z
" transform="scale(0.015625)"/>
     </defs>
     <use xlink:href="#DejaVuSans-50"/>
     <use xlink:href="#DejaVuSans-6f" transform="translate(56.677734 0)"/>
     <use xlink:href="#DejaVuSans-69" transform="translate(117.859375 0)"/>
     <use xlink:href="#DejaVuSans-6e" transform="translate(145.642578 0)"/>
     <use xlink:href="#DejaVuSans-74" transform="translate(209.021484 0)"/>
     <use xlink:href="#DejaVuSans-79" transform="translate(248.230469 0)"/>
    </g>
   </g>
   <g id="text_2">
    <g id="patch_18">
     <path d="M 345.33157 115.052499 
L 379.40243 115.052499 
L 379.40243 103.38828 
L 345.33157 103.38828 
z
" style="fill: #ffffff"/>
    </g>
    <!-- Floppy -->
    <g style="fill: #555555" transform="translate(346.56657 111.841795) scale(0.095 -0.095)">
     <defs>
      <path id="DejaVuSans-46" d="M 628 4666 
L 3309 4666 
L 3309 4134 
L 1259 4134 
L 1259 2759 
L 3109 2759 
L 3109 2228 
L 1259 2228 
L 1259 0 
L 628 0 
L 628 4666 
z
" transform="scale(0.015625)"/>
      <path id="DejaVuSans-6c" d="M 603 4863 
L 1178 4863 
L 1178 0 
L 603 0 
L 603 4863 
z
" transform="scale(0.015625)"/>
      <path id="DejaVuSans-70" d="M 1159 525 
L 1159 -1331 
L 581 -1331 
L 581 3500 
L 1159 3500 
L 1159 2969 
Q 1341 3281 1617 3432 
Q 1894 3584 2278 3584 
Q 2916 3584 3314 3078 
Q 3713 2572 3713 1747 
Q 3713 922 3314 415 
Q 2916 -91 2278 -91 
Q 1894 -91 1617 61 
Q 1341 213 1159 525 
z
M 3116 1747 
Q 3116 2381 2855 2742 
Q 2594 3103 2138 3103 
Q 1681 3103 1420 2742 
Q 1159 2381 1159 1747 
Q 1159 1113 1420 752 
Q 1681 391 2138 391 
Q 2594 391 2855 752 
Q 3116 1113 3116 1747 
z
" transform="scale(0.015625)"/>
     </defs>
     <use xlink:href="#DejaVuSans-46"/>
     <use xlink:href="#DejaVuSans-6c" transform="translate(57.519531 0)"/>
     <use xlink:href="#DejaVuSans-6f" transform="translate(85.302734 0)"/>
     <use xlink:href="#DejaVuSans-70" transform="translate(146.484375 0)"/>
     <use xlink:href="#DejaVuSans-70" transform="translate(209.960938 0)"/>
     <use xlink:href="#DejaVuSans-79" transform="translate(273.4375 0)"/>
    </g>
   </g>
   <g id="text_3">
    <g id="patch_19">
     <path d="M 65.149703 207.728319 
L 97.678297 207.728319 
L 97.678297 196.064101 
L 65.149703 196.064101 
z
" style="fill: #ffffff"/>
    </g>
    <!-- Round -->
    <g style="fill: #555555" transform="translate(66.384703 204.517616) scale(0.095 -0.095)">
     <defs>
      <path id="DejaVuSans-52" d="M 2841 2188 
Q 3044 2119 3236 1894 
Q 3428 1669 3622 1275 
L 4263 0 
L 3584 0 
L 2988 1197 
Q 2756 1666 2539 1819 
Q 2322 1972 1947 1972 
L 1259 1972 
L 1259 0 
L 628 0 
L 628 4666 
L 2053 4666 
Q 2853 4666 3247 4331 
Q 3641 3997 3641 3322 
Q 3641 2881 3436 2590 
Q 3231 2300 2841 2188 
z
M 1259 4147 
L 1259 2491 
L 2053 2491 
Q 2509 2491 2742 2702 
Q 2975 2913 2975 3322 
Q 2975 3731 2742 3939 
Q 2509 4147 2053 4147 
L 1259 4147 
z
" transform="scale(0.015625)"/>
      <path id="DejaVuSans-75" d="M 544 1381 
L 544 3500 
L 1119 3500 
L 1119 1403 
Q 1119 906 1312 657 
Q 1506 409 1894 409 
Q 2359 409 2629 706 
Q 2900 1003 2900 1516 
L 2900 3500 
L 3475 3500 
L 3475 0 
L 2900 0 
L 2900 538 
Q 2691 219 2414 64 
Q 2138 -91 1772 -91 
Q 1169 -91 856 284 
Q 544 659 544 1381 
z
M 1991 3584 
L 1991 3584 
z
" transform="scale(0.015625)"/>
      <path id="DejaVuSans-64" d="M 2906 2969 
L 2906 4863 
L 3481 4863 
L 3481 0 
L 2906 0 
L 2906 525 
Q 2725 213 2448 61 
Q 2172 -91 1784 -91 
Q 1150 -91 751 415 
Q 353 922 353 1747 
Q 353 2572 751 3078 
Q 1150 3584 1784 3584 
Q 2172 3584 2448 3432 
Q 2725 3281 2906 2969 
z
M 947 1747 
Q 947 1113 1208 752 
Q 1469 391 1925 391 
Q 2381 391 2643 752 
Q 2906 1113 2906 1747 
Q 2906 2381 2643 2742 
Q 2381 3103 1925 3103 
Q 1469 3103 1208 2742 
Q 947 2381 947 1747 
z
" transform="scale(0.015625)"/>
     </defs>
     <use xlink:href="#DejaVuSans-52"/>
     <use xlink:href="#DejaVuSans-6f" transform="translate(64.982422 0)"/>
     <use xlink:href="#DejaVuSans-75" transform="translate(126.164062 0)"/>
     <use xlink:href="#DejaVuSans-6e" transform="translate(189.542969 0)"/>
     <use xlink:href="#DejaVuSans-64" transform="translate(252.921875 0)"/>
    </g>
   </g>
   <g id="text_4">
    <g id="patch_20">
     <path d="M 192.794583 207.728319 
L 242.504817 207.728319 
L 242.504817 196.064101 
L 192.794583 196.064101 
z
" style="fill: #ffffff"/>
    </g>
    <!-- Not round -->
    <g style="fill: #555555" transform="translate(194.029583 204.517616) scale(0.095 -0.095)">
     <defs>
      <path id="DejaVuSans-4e" d="M 628 4666 
L 1478 4666 
L 3547 763 
L 3547 4666 
L 4159 4666 
L 4159 0 
L 3309 0 
L 1241 3903 
L 1241 0 
L 628 0 
L 628 4666 
z
" transform="scale(0.015625)"/>
      <path id="DejaVuSans-20" transform="scale(0.015625)"/>
      <path id="DejaVuSans-72" d="M 2631 2963 
Q 2534 3019 2420 3045 
Q 2306 3072 2169 3072 
Q 1681 3072 1420 2755 
Q 1159 2438 1159 1844 
L 1159 0 
L 581 0 
L 581 3500 
L 1159 3500 
L 1159 2956 
Q 1341 3275 1631 3429 
Q 1922 3584 2338 3584 
Q 2397 3584 2469 3576 
Q 2541 3569 2628 3553 
L 2631 2963 
z
" transform="scale(0.015625)"/>
     </defs>
     <use xlink:href="#DejaVuSans-4e"/>
     <use xlink:href="#DejaVuSans-6f" transform="translate(74.804688 0)"/>
     <use xlink:href="#DejaVuSans-74" transform="translate(135.986328 0)"/>
     <use xlink:href="#DejaVuSans-20" transform="translate(175.195312 0)"/>
     <use xlink:href="#DejaVuSans-72" transform="translate(206.982422 0)"/>
     <use xlink:href="#DejaVuSans-6f" transform="translate(245.845703 0)"/>
     <use xlink:href="#DejaVuSans-75" transform="translate(307.027344 0)"/>
     <use xlink:href="#DejaVuSans-6e" transform="translate(370.40625 0)"/>
     <use xlink:href="#DejaVuSans-64" transform="translate(433.785156 0)"/>
    </g>
   </g>
   <g id="text_5">
    <g id="patch_21">
     <path d="M 313.09712 207.728319 
L 351.20548 207.728319 
L 351.20548 196.064101 
L 313.09712 196.064101 
z
" style="fill: #ffffff"/>
    </g>
    <!-- Present -->
    <g style="fill: #555555" transform="translate(314.33212 204.517616) scale(0.095 -0.095)">
     <defs>
      <path id="DejaVuSans-65" d="M 3597 1894 
L 3597 1613 
L 953 1613 
Q 991 1019 1311 708 
Q 1631 397 2203 397 
Q 2534 397 2845 478 
Q 3156 559 3463 722 
L 3463 178 
Q 3153 47 2828 -22 
Q 2503 -91 2169 -91 
Q 1331 -91 842 396 
Q 353 884 353 1716 
Q 353 2575 817 3079 
Q 1281 3584 2069 3584 
Q 2775 3584 3186 3129 
Q 3597 2675 3597 1894 
z
M 3022 2063 
Q 3016 2534 2758 2815 
Q 2500 3097 2075 3097 
Q 1594 3097 1305 2825 
Q 1016 2553 972 2059 
L 3022 2063 
z
" transform="scale(0.015625)"/>
      <path id="DejaVuSans-73" d="M 2834 3397 
L 2834 2853 
Q 2591 2978 2328 3040 
Q 2066 3103 1784 3103 
Q 1356 3103 1142 2972 
Q 928 2841 928 2578 
Q 928 2378 1081 2264 
Q 1234 2150 1697 2047 
L 1894 2003 
Q 2506 1872 2764 1633 
Q 3022 1394 3022 966 
Q 3022 478 2636 193 
Q 2250 -91 1575 -91 
Q 1294 -91 989 -36 
Q 684 19 347 128 
L 347 722 
Q 666 556 975 473 
Q 1284 391 1588 391 
Q 1994 391 2212 530 
Q 2431 669 2431 922 
Q 2431 1156 2273 1281 
Q 2116 1406 1581 1522 
L 1381 1569 
Q 847 1681 609 1914 
Q 372 2147 372 2553 
Q 372 3047 722 3315 
Q 1072 3584 1716 3584 
Q 2034 3584 2315 3537 
Q 2597 3491 2834 3397 
z
" transform="scale(0.015625)"/>
     </defs>
     <use xlink:href="#DejaVuSans-50"/>
     <use xlink:href="#DejaVuSans-72" transform="translate(58.552734 0)"/>
     <use xlink:href="#DejaVuSans-65" transform="translate(97.416016 0)"/>
     <use xlink:href="#DejaVuSans-73" transform="translate(158.939453 0)"/>
     <use xlink:href="#DejaVuSans-65" transform="translate(211.039062 0)"/>
     <use xlink:href="#DejaVuSans-6e" transform="translate(272.5625 0)"/>
     <use xlink:href="#DejaVuSans-74" transform="translate(335.941406 0)"/>
    </g>
   </g>
   <g id="text_6">
    <g id="patch_22">
     <path d="M 445.316547 207.728319 
L 480.855453 207.728319 
L 480.855453 196.064101 
L 445.316547 196.064101 
z
" style="fill: #ffffff"/>
    </g>
    <!-- Absent -->
    <g style="fill: #555555" transform="translate(446.551547 204.517616) scale(0.095 -0.095)">
     <defs>
      <path id="DejaVuSans-41" d="M 2188 4044 
L 1331 1722 
L 3047 1722 
L 2188 4044 
z
M 1831 4666 
L 2547 4666 
L 4325 0 
L 3669 0 
L 3244 1197 
L 1141 1197 
L 716 0 
L 50 0 
L 1831 4666 
z
" transform="scale(0.015625)"/>
      <path id="DejaVuSans-62" d="M 3116 1747 
Q 3116 2381 2855 2742 
Q 2594 3103 2138 3103 
Q 1681 3103 1420 2742 
Q 1159 2381 1159 1747 
Q 1159 1113 1420 752 
Q 1681 391 2138 391 
Q 2594 391 2855 752 
Q 3116 1113 3116 1747 
z
M 1159 2969 
Q 1341 3281 1617 3432 
Q 1894 3584 2278 3584 
Q 2916 3584 3314 3078 
Q 3713 2572 3713 1747 
Q 3713 922 3314 415 
Q 2916 -91 2278 -91 
Q 1894 -91 1617 61 
Q 1341 213 1159 525 
L 1159 0 
L 581 0 
L 581 4863 
L 1159 4863 
L 1159 2969 
z
" transform="scale(0.015625)"/>
     </defs>
     <use xlink:href="#DejaVuSans-41"/>
     <use xlink:href="#DejaVuSans-62" transform="translate(68.408203 0)"/>
     <use xlink:href="#DejaVuSans-73" transform="translate(131.884766 0)"/>
     <use xlink:href="#DejaVuSans-65" transform="translate(183.984375 0)"/>
     <use xlink:href="#DejaVuSans-6e" transform="translate(245.507812 0)"/>
     <use xlink:href="#DejaVuSans-74" transform="translate(308.886719 0)"/>
    </g>
   </g>
   <g id="text_7">
    <!-- Ear shape -->
    <g style="fill: #7030a0" transform="translate(246.045938 65.779823) scale(0.105 -0.105)">
     <defs>
      <path id="DejaVuSans-45" d="M 628 4666 
L 3578 4666 
L 3578 4134 
L 1259 4134 
L 1259 2753 
L 3481 2753 
L 3481 2222 
L 1259 2222 
L 1259 531 
L 3634 531 
L 3634 0 
L 628 0 
L 628 4666 
z
" transform="scale(0.015625)"/>
      <path id="DejaVuSans-61" d="M 2194 1759 
Q 1497 1759 1228 1600 
Q 959 1441 959 1056 
Q 959 750 1161 570 
Q 1363 391 1709 391 
Q 2188 391 2477 730 
Q 2766 1069 2766 1631 
L 2766 1759 
L 2194 1759 
z
M 3341 1997 
L 3341 0 
L 2766 0 
L 2766 531 
Q 2569 213 2275 61 
Q 1981 -91 1556 -91 
Q 1019 -91 701 211 
Q 384 513 384 1019 
Q 384 1609 779 1909 
Q 1175 2209 1959 2209 
L 2766 2209 
L 2766 2266 
Q 2766 2663 2505 2880 
Q 2244 3097 1772 3097 
Q 1472 3097 1187 3025 
Q 903 2953 641 2809 
L 641 3341 
Q 956 3463 1253 3523 
Q 1550 3584 1831 3584 
Q 2591 3584 2966 3190 
Q 3341 2797 3341 1997 
z
" transform="scale(0.015625)"/>
      <path id="DejaVuSans-68" d="M 3513 2113 
L 3513 0 
L 2938 0 
L 2938 2094 
Q 2938 2591 2744 2837 
Q 2550 3084 2163 3084 
Q 1697 3084 1428 2787 
Q 1159 2491 1159 1978 
L 1159 0 
L 581 0 
L 581 4863 
L 1159 4863 
L 1159 2956 
Q 1366 3272 1645 3428 
Q 1925 3584 2291 3584 
Q 2894 3584 3203 3211 
Q 3513 2838 3513 2113 
z
" transform="scale(0.015625)"/>
     </defs>
     <use xlink:href="#DejaVuSans-45"/>
     <use xlink:href="#DejaVuSans-61" transform="translate(63.183594 0)"/>
     <use xlink:href="#DejaVuSans-72" transform="translate(124.462891 0)"/>
     <use xlink:href="#DejaVuSans-20" transform="translate(165.576172 0)"/>
     <use xlink:href="#DejaVuSans-73" transform="translate(197.363281 0)"/>
     <use xlink:href="#DejaVuSans-68" transform="translate(249.462891 0)"/>
     <use xlink:href="#DejaVuSans-61" transform="translate(312.841797 0)"/>
     <use xlink:href="#DejaVuSans-70" transform="translate(374.121094 0)"/>
     <use xlink:href="#DejaVuSans-65" transform="translate(437.597656 0)"/>
    </g>
   </g>
   <g id="text_8">
    <!-- Face shape -->
    <g style="fill: #7030a0" transform="translate(115.639945 158.455643) scale(0.105 -0.105)">
     <defs>
      <path id="DejaVuSans-63" d="M 3122 3366 
L 3122 2828 
Q 2878 2963 2633 3030 
Q 2388 3097 2138 3097 
Q 1578 3097 1268 2742 
Q 959 2388 959 1747 
Q 959 1106 1268 751 
Q 1578 397 2138 397 
Q 2388 397 2633 464 
Q 2878 531 3122 666 
L 3122 134 
Q 2881 22 2623 -34 
Q 2366 -91 2075 -91 
Q 1284 -91 818 406 
Q 353 903 353 1747 
Q 353 2603 823 3093 
Q 1294 3584 2113 3584 
Q 2378 3584 2631 3529 
Q 2884 3475 3122 3366 
z
" transform="scale(0.015625)"/>
     </defs>
     <use xlink:href="#DejaVuSans-46"/>
     <use xlink:href="#DejaVuSans-61" transform="translate(48.394531 0)"/>
     <use xlink:href="#DejaVuSans-63" transform="translate(109.673828 0)"/>
     <use xlink:href="#DejaVuSans-65" transform="translate(164.654297 0)"/>
     <use xlink:href="#DejaVuSans-20" transform="translate(226.177734 0)"/>
     <use xlink:href="#DejaVuSans-73" transform="translate(257.964844 0)"/>
     <use xlink:href="#DejaVuSans-68" transform="translate(310.064453 0)"/>
     <use xlink:href="#DejaVuSans-61" transform="translate(373.443359 0)"/>
     <use xlink:href="#DejaVuSans-70" transform="translate(434.722656 0)"/>
     <use xlink:href="#DejaVuSans-65" transform="translate(498.199219 0)"/>
    </g>
   </g>
   <g id="text_9">
    <!-- Whiskers -->
    <g style="fill: #7030a0" transform="translate(375.789117 158.455643) scale(0.105 -0.105)">
     <defs>
      <path id="DejaVuSans-57" d="M 213 4666 
L 850 4666 
L 1831 722 
L 2809 4666 
L 3519 4666 
L 4500 722 
L 5478 4666 
L 6119 4666 
L 4947 0 
L 4153 0 
L 3169 4050 
L 2175 0 
L 1381 0 
L 213 4666 
z
" transform="scale(0.015625)"/>
      <path id="DejaVuSans-6b" d="M 581 4863 
L 1159 4863 
L 1159 1991 
L 2875 3500 
L 3609 3500 
L 1753 1863 
L 3688 0 
L 2938 0 
L 1159 1709 
L 1159 0 
L 581 0 
L 581 4863 
z
" transform="scale(0.015625)"/>
     </defs>
     <use xlink:href="#DejaVuSans-57"/>
     <use xlink:href="#DejaVuSans-68" transform="translate(98.876953 0)"/>
     <use xlink:href="#DejaVuSans-69" transform="translate(162.255859 0)"/>
     <use xlink:href="#DejaVuSans-73" transform="translate(190.039062 0)"/>
     <use xlink:href="#DejaVuSans-6b" transform="translate(242.138672 0)"/>
     <use xlink:href="#DejaVuSans-65" transform="translate(296.423828 0)"/>
     <use xlink:href="#DejaVuSans-72" transform="translate(357.947266 0)"/>
     <use xlink:href="#DejaVuSans-73" transform="translate(399.060547 0)"/>
    </g>
   </g>
   <g id="text_10">
    <!-- Cat -->
    <g style="fill: #0e7490" transform="translate(67.171594 251.131464) scale(0.105 -0.105)">
     <defs>
      <path id="DejaVuSans-43" d="M 4122 4306 
L 4122 3641 
Q 3803 3938 3442 4084 
Q 3081 4231 2675 4231 
Q 1875 4231 1450 3742 
Q 1025 3253 1025 2328 
Q 1025 1406 1450 917 
Q 1875 428 2675 428 
Q 3081 428 3442 575 
Q 3803 722 4122 1019 
L 4122 359 
Q 3791 134 3420 21 
Q 3050 -91 2638 -91 
Q 1578 -91 968 557 
Q 359 1206 359 2328 
Q 359 3453 968 4101 
Q 1578 4750 2638 4750 
Q 3056 4750 3426 4639 
Q 3797 4528 4122 4306 
z
" transform="scale(0.015625)"/>
     </defs>
     <use xlink:href="#DejaVuSans-43"/>
     <use xlink:href="#DejaVuSans-61" transform="translate(69.824219 0)"/>
     <use xlink:href="#DejaVuSans-74" transform="translate(131.103516 0)"/>
    </g>
   </g>
   <g id="text_11">
    <!-- Not cat -->
    <g style="fill: #9a9aa8" transform="translate(194.910211 251.131464) scale(0.105 -0.105)">
     <use xlink:href="#DejaVuSans-4e"/>
     <use xlink:href="#DejaVuSans-6f" transform="translate(74.804688 0)"/>
     <use xlink:href="#DejaVuSans-74" transform="translate(135.986328 0)"/>
     <use xlink:href="#DejaVuSans-20" transform="translate(175.195312 0)"/>
     <use xlink:href="#DejaVuSans-63" transform="translate(206.982422 0)"/>
     <use xlink:href="#DejaVuSans-61" transform="translate(261.962891 0)"/>
     <use xlink:href="#DejaVuSans-74" transform="translate(323.242188 0)"/>
    </g>
   </g>
   <g id="text_12">
    <!-- Cat -->
    <g style="fill: #0e7490" transform="translate(321.619594 251.131464) scale(0.105 -0.105)">
     <use xlink:href="#DejaVuSans-43"/>
     <use xlink:href="#DejaVuSans-61" transform="translate(69.824219 0)"/>
     <use xlink:href="#DejaVuSans-74" transform="translate(131.103516 0)"/>
    </g>
   </g>
   <g id="text_13">
    <!-- Not cat -->
    <g style="fill: #9a9aa8" transform="translate(449.358211 251.131464) scale(0.105 -0.105)">
     <use xlink:href="#DejaVuSans-4e"/>
     <use xlink:href="#DejaVuSans-6f" transform="translate(74.804688 0)"/>
     <use xlink:href="#DejaVuSans-74" transform="translate(135.986328 0)"/>
     <use xlink:href="#DejaVuSans-20" transform="translate(175.195312 0)"/>
     <use xlink:href="#DejaVuSans-63" transform="translate(206.982422 0)"/>
     <use xlink:href="#DejaVuSans-61" transform="translate(261.962891 0)"/>
     <use xlink:href="#DejaVuSans-74" transform="translate(323.242188 0)"/>
    </g>
   </g>
   <g id="text_14">
    <!-- a smaller decision tree, built on -->
    <g style="fill: #be1d74" transform="translate(69.952992 300.152378) scale(0.095 -0.095)">
     <defs>
      <path id="DejaVuSans-6d" d="M 3328 2828 
Q 3544 3216 3844 3400 
Q 4144 3584 4550 3584 
Q 5097 3584 5394 3201 
Q 5691 2819 5691 2113 
L 5691 0 
L 5113 0 
L 5113 2094 
Q 5113 2597 4934 2840 
Q 4756 3084 4391 3084 
Q 3944 3084 3684 2787 
Q 3425 2491 3425 1978 
L 3425 0 
L 2847 0 
L 2847 2094 
Q 2847 2600 2669 2842 
Q 2491 3084 2119 3084 
Q 1678 3084 1418 2786 
Q 1159 2488 1159 1978 
L 1159 0 
L 581 0 
L 581 3500 
L 1159 3500 
L 1159 2956 
Q 1356 3278 1631 3431 
Q 1906 3584 2284 3584 
Q 2666 3584 2933 3390 
Q 3200 3197 3328 2828 
z
" transform="scale(0.015625)"/>
      <path id="DejaVuSans-2c" d="M 750 794 
L 1409 794 
L 1409 256 
L 897 -744 
L 494 -744 
L 750 256 
L 750 794 
z
" transform="scale(0.015625)"/>
     </defs>
     <use xlink:href="#DejaVuSans-61"/>
     <use xlink:href="#DejaVuSans-20" transform="translate(61.279297 0)"/>
     <use xlink:href="#DejaVuSans-73" transform="translate(93.066406 0)"/>
     <use xlink:href="#DejaVuSans-6d" transform="translate(145.166016 0)"/>
     <use xlink:href="#DejaVuSans-61" transform="translate(242.578125 0)"/>
     <use xlink:href="#DejaVuSans-6c" transform="translate(303.857422 0)"/>
     <use xlink:href="#DejaVuSans-6c" transform="translate(331.640625 0)"/>
     <use xlink:href="#DejaVuSans-65" transform="translate(359.423828 0)"/>
     <use xlink:href="#DejaVuSans-72" transform="translate(420.947266 0)"/>
     <use xlink:href="#DejaVuSans-20" transform="translate(462.060547 0)"/>
     <use xlink:href="#DejaVuSans-64" transform="translate(493.847656 0)"/>
     <use xlink:href="#DejaVuSans-65" transform="translate(557.324219 0)"/>
     <use xlink:href="#DejaVuSans-63" transform="translate(618.847656 0)"/>
     <use xlink:href="#DejaVuSans-69" transform="translate(673.828125 0)"/>
     <use xlink:href="#DejaVuSans-73" transform="translate(701.611328 0)"/>
     <use xlink:href="#DejaVuSans-69" transform="translate(753.710938 0)"/>
     <use xlink:href="#DejaVuSans-6f" transform="translate(781.494141 0)"/>
     <use xlink:href="#DejaVuSans-6e" transform="translate(842.675781 0)"/>
     <use xlink:href="#DejaVuSans-20" transform="translate(906.054688 0)"/>
     <use xlink:href="#DejaVuSans-74" transform="translate(937.841797 0)"/>
     <use xlink:href="#DejaVuSans-72" transform="translate(977.050781 0)"/>
     <use xlink:href="#DejaVuSans-65" transform="translate(1015.914062 0)"/>
     <use xlink:href="#DejaVuSans-65" transform="translate(1077.4375 0)"/>
     <use xlink:href="#DejaVuSans-2c" transform="translate(1138.960938 0)"/>
     <use xlink:href="#DejaVuSans-20" transform="translate(1170.748047 0)"/>
     <use xlink:href="#DejaVuSans-62" transform="translate(1202.535156 0)"/>
     <use xlink:href="#DejaVuSans-75" transform="translate(1266.011719 0)"/>
     <use xlink:href="#DejaVuSans-69" transform="translate(1329.390625 0)"/>
     <use xlink:href="#DejaVuSans-6c" transform="translate(1357.173828 0)"/>
     <use xlink:href="#DejaVuSans-74" transform="translate(1384.957031 0)"/>
     <use xlink:href="#DejaVuSans-20" transform="translate(1424.166016 0)"/>
     <use xlink:href="#DejaVuSans-6f" transform="translate(1455.953125 0)"/>
     <use xlink:href="#DejaVuSans-6e" transform="translate(1517.134766 0)"/>
    </g>
    <!-- the 5 pointy-eared examples -->
    <g style="fill: #be1d74" transform="translate(76.58518 310.7903) scale(0.095 -0.095)">
     <defs>
      <path id="DejaVuSans-35" d="M 691 4666 
L 3169 4666 
L 3169 4134 
L 1269 4134 
L 1269 2991 
Q 1406 3038 1543 3061 
Q 1681 3084 1819 3084 
Q 2600 3084 3056 2656 
Q 3513 2228 3513 1497 
Q 3513 744 3044 326 
Q 2575 -91 1722 -91 
Q 1428 -91 1123 -41 
Q 819 9 494 109 
L 494 744 
Q 775 591 1075 516 
Q 1375 441 1709 441 
Q 2250 441 2565 725 
Q 2881 1009 2881 1497 
Q 2881 1984 2565 2268 
Q 2250 2553 1709 2553 
Q 1456 2553 1204 2497 
Q 953 2441 691 2322 
L 691 4666 
z
" transform="scale(0.015625)"/>
      <path id="DejaVuSans-2d" d="M 313 2009 
L 1997 2009 
L 1997 1497 
L 313 1497 
L 313 2009 
z
" transform="scale(0.015625)"/>
      <path id="DejaVuSans-78" d="M 3513 3500 
L 2247 1797 
L 3578 0 
L 2900 0 
L 1881 1375 
L 863 0 
L 184 0 
L 1544 1831 
L 300 3500 
L 978 3500 
L 1906 2253 
L 2834 3500 
L 3513 3500 
z
" transform="scale(0.015625)"/>
     </defs>
     <use xlink:href="#DejaVuSans-74"/>
     <use xlink:href="#DejaVuSans-68" transform="translate(39.208984 0)"/>
     <use xlink:href="#DejaVuSans-65" transform="translate(102.587891 0)"/>
     <use xlink:href="#DejaVuSans-20" transform="translate(164.111328 0)"/>
     <use xlink:href="#DejaVuSans-35" transform="translate(195.898438 0)"/>
     <use xlink:href="#DejaVuSans-20" transform="translate(259.521484 0)"/>
     <use xlink:href="#DejaVuSans-70" transform="translate(291.308594 0)"/>
     <use xlink:href="#DejaVuSans-6f" transform="translate(354.785156 0)"/>
     <use xlink:href="#DejaVuSans-69" transform="translate(415.966797 0)"/>
     <use xlink:href="#DejaVuSans-6e" transform="translate(443.75 0)"/>
     <use xlink:href="#DejaVuSans-74" transform="translate(507.128906 0)"/>
     <use xlink:href="#DejaVuSans-79" transform="translate(546.337891 0)"/>
     <use xlink:href="#DejaVuSans-2d" transform="translate(603.767578 0)"/>
     <use xlink:href="#DejaVuSans-65" transform="translate(639.851562 0)"/>
     <use xlink:href="#DejaVuSans-61" transform="translate(701.375 0)"/>
     <use xlink:href="#DejaVuSans-72" transform="translate(762.654297 0)"/>
     <use xlink:href="#DejaVuSans-65" transform="translate(801.517578 0)"/>
     <use xlink:href="#DejaVuSans-64" transform="translate(863.041016 0)"/>
     <use xlink:href="#DejaVuSans-20" transform="translate(926.517578 0)"/>
     <use xlink:href="#DejaVuSans-65" transform="translate(958.304688 0)"/>
     <use xlink:href="#DejaVuSans-78" transform="translate(1018.078125 0)"/>
     <use xlink:href="#DejaVuSans-61" transform="translate(1077.257812 0)"/>
     <use xlink:href="#DejaVuSans-6d" transform="translate(1138.537109 0)"/>
     <use xlink:href="#DejaVuSans-70" transform="translate(1235.949219 0)"/>
     <use xlink:href="#DejaVuSans-6c" transform="translate(1299.425781 0)"/>
     <use xlink:href="#DejaVuSans-65" transform="translate(1327.208984 0)"/>
     <use xlink:href="#DejaVuSans-73" transform="translate(1388.732422 0)"/>
    </g>
   </g>
   <g id="text_15">
    <!-- a smaller decision tree, built on -->
    <g style="fill: #be1d74" transform="translate(324.400992 300.152378) scale(0.095 -0.095)">
     <use xlink:href="#DejaVuSans-61"/>
     <use xlink:href="#DejaVuSans-20" transform="translate(61.279297 0)"/>
     <use xlink:href="#DejaVuSans-73" transform="translate(93.066406 0)"/>
     <use xlink:href="#DejaVuSans-6d" transform="translate(145.166016 0)"/>
     <use xlink:href="#DejaVuSans-61" transform="translate(242.578125 0)"/>
     <use xlink:href="#DejaVuSans-6c" transform="translate(303.857422 0)"/>
     <use xlink:href="#DejaVuSans-6c" transform="translate(331.640625 0)"/>
     <use xlink:href="#DejaVuSans-65" transform="translate(359.423828 0)"/>
     <use xlink:href="#DejaVuSans-72" transform="translate(420.947266 0)"/>
     <use xlink:href="#DejaVuSans-20" transform="translate(462.060547 0)"/>
     <use xlink:href="#DejaVuSans-64" transform="translate(493.847656 0)"/>
     <use xlink:href="#DejaVuSans-65" transform="translate(557.324219 0)"/>
     <use xlink:href="#DejaVuSans-63" transform="translate(618.847656 0)"/>
     <use xlink:href="#DejaVuSans-69" transform="translate(673.828125 0)"/>
     <use xlink:href="#DejaVuSans-73" transform="translate(701.611328 0)"/>
     <use xlink:href="#DejaVuSans-69" transform="translate(753.710938 0)"/>
     <use xlink:href="#DejaVuSans-6f" transform="translate(781.494141 0)"/>
     <use xlink:href="#DejaVuSans-6e" transform="translate(842.675781 0)"/>
     <use xlink:href="#DejaVuSans-20" transform="translate(906.054688 0)"/>
     <use xlink:href="#DejaVuSans-74" transform="translate(937.841797 0)"/>
     <use xlink:href="#DejaVuSans-72" transform="translate(977.050781 0)"/>
     <use xlink:href="#DejaVuSans-65" transform="translate(1015.914062 0)"/>
     <use xlink:href="#DejaVuSans-65" transform="translate(1077.4375 0)"/>
     <use xlink:href="#DejaVuSans-2c" transform="translate(1138.960938 0)"/>
     <use xlink:href="#DejaVuSans-20" transform="translate(1170.748047 0)"/>
     <use xlink:href="#DejaVuSans-62" transform="translate(1202.535156 0)"/>
     <use xlink:href="#DejaVuSans-75" transform="translate(1266.011719 0)"/>
     <use xlink:href="#DejaVuSans-69" transform="translate(1329.390625 0)"/>
     <use xlink:href="#DejaVuSans-6c" transform="translate(1357.173828 0)"/>
     <use xlink:href="#DejaVuSans-74" transform="translate(1384.957031 0)"/>
     <use xlink:href="#DejaVuSans-20" transform="translate(1424.166016 0)"/>
     <use xlink:href="#DejaVuSans-6f" transform="translate(1455.953125 0)"/>
     <use xlink:href="#DejaVuSans-6e" transform="translate(1517.134766 0)"/>
    </g>
    <!-- the 5 floppy-eared examples -->
    <g style="fill: #be1d74" transform="translate(331.217984 310.7903) scale(0.095 -0.095)">
     <defs>
      <path id="DejaVuSans-66" d="M 2375 4863 
L 2375 4384 
L 1825 4384 
Q 1516 4384 1395 4259 
Q 1275 4134 1275 3809 
L 1275 3500 
L 2222 3500 
L 2222 3053 
L 1275 3053 
L 1275 0 
L 697 0 
L 697 3053 
L 147 3053 
L 147 3500 
L 697 3500 
L 697 3744 
Q 697 4328 969 4595 
Q 1241 4863 1831 4863 
L 2375 4863 
z
" transform="scale(0.015625)"/>
     </defs>
     <use xlink:href="#DejaVuSans-74"/>
     <use xlink:href="#DejaVuSans-68" transform="translate(39.208984 0)"/>
     <use xlink:href="#DejaVuSans-65" transform="translate(102.587891 0)"/>
     <use xlink:href="#DejaVuSans-20" transform="translate(164.111328 0)"/>
     <use xlink:href="#DejaVuSans-35" transform="translate(195.898438 0)"/>
     <use xlink:href="#DejaVuSans-20" transform="translate(259.521484 0)"/>
     <use xlink:href="#DejaVuSans-66" transform="translate(291.308594 0)"/>
     <use xlink:href="#DejaVuSans-6c" transform="translate(326.513672 0)"/>
     <use xlink:href="#DejaVuSans-6f" transform="translate(354.296875 0)"/>
     <use xlink:href="#DejaVuSans-70" transform="translate(415.478516 0)"/>
     <use xlink:href="#DejaVuSans-70" transform="translate(478.955078 0)"/>
     <use xlink:href="#DejaVuSans-79" transform="translate(542.431641 0)"/>
     <use xlink:href="#DejaVuSans-2d" transform="translate(599.861328 0)"/>
     <use xlink:href="#DejaVuSans-65" transform="translate(635.945312 0)"/>
     <use xlink:href="#DejaVuSans-61" transform="translate(697.46875 0)"/>
     <use xlink:href="#DejaVuSans-72" transform="translate(758.748047 0)"/>
     <use xlink:href="#DejaVuSans-65" transform="translate(797.611328 0)"/>
     <use xlink:href="#DejaVuSans-64" transform="translate(859.134766 0)"/>
     <use xlink:href="#DejaVuSans-20" transform="translate(922.611328 0)"/>
     <use xlink:href="#DejaVuSans-65" transform="translate(954.398438 0)"/>
     <use xlink:href="#DejaVuSans-78" transform="translate(1014.171875 0)"/>
     <use xlink:href="#DejaVuSans-61" transform="translate(1073.351562 0)"/>
     <use xlink:href="#DejaVuSans-6d" transform="translate(1134.630859 0)"/>
     <use xlink:href="#DejaVuSans-70" transform="translate(1232.042969 0)"/>
     <use xlink:href="#DejaVuSans-6c" transform="translate(1295.519531 0)"/>
     <use xlink:href="#DejaVuSans-65" transform="translate(1323.302734 0)"/>
     <use xlink:href="#DejaVuSans-73" transform="translate(1384.826172 0)"/>
    </g>
   </g>
   <g id="text_16">
    <!-- the overall tree is built by building smaller trees inside each branch -->
    <g style="fill: #808080" transform="translate(94.462031 15.178359) scale(0.105 -0.105)">
     <defs>
      <path id="DejaVuSans-76" d="M 191 3500 
L 800 3500 
L 1894 563 
L 2988 3500 
L 3597 3500 
L 2284 0 
L 1503 0 
L 191 3500 
z
" transform="scale(0.015625)"/>
      <path id="DejaVuSans-67" d="M 2906 1791 
Q 2906 2416 2648 2759 
Q 2391 3103 1925 3103 
Q 1463 3103 1205 2759 
Q 947 2416 947 1791 
Q 947 1169 1205 825 
Q 1463 481 1925 481 
Q 2391 481 2648 825 
Q 2906 1169 2906 1791 
z
M 3481 434 
Q 3481 -459 3084 -895 
Q 2688 -1331 1869 -1331 
Q 1566 -1331 1297 -1286 
Q 1028 -1241 775 -1147 
L 775 -588 
Q 1028 -725 1275 -790 
Q 1522 -856 1778 -856 
Q 2344 -856 2625 -561 
Q 2906 -266 2906 331 
L 2906 616 
Q 2728 306 2450 153 
Q 2172 0 1784 0 
Q 1141 0 747 490 
Q 353 981 353 1791 
Q 353 2603 747 3093 
Q 1141 3584 1784 3584 
Q 2172 3584 2450 3431 
Q 2728 3278 2906 2969 
L 2906 3500 
L 3481 3500 
L 3481 434 
z
" transform="scale(0.015625)"/>
     </defs>
     <use xlink:href="#DejaVuSans-74"/>
     <use xlink:href="#DejaVuSans-68" transform="translate(39.208984 0)"/>
     <use xlink:href="#DejaVuSans-65" transform="translate(102.587891 0)"/>
     <use xlink:href="#DejaVuSans-20" transform="translate(164.111328 0)"/>
     <use xlink:href="#DejaVuSans-6f" transform="translate(195.898438 0)"/>
     <use xlink:href="#DejaVuSans-76" transform="translate(257.080078 0)"/>
     <use xlink:href="#DejaVuSans-65" transform="translate(316.259766 0)"/>
     <use xlink:href="#DejaVuSans-72" transform="translate(377.783203 0)"/>
     <use xlink:href="#DejaVuSans-61" transform="translate(418.896484 0)"/>
     <use xlink:href="#DejaVuSans-6c" transform="translate(480.175781 0)"/>
     <use xlink:href="#DejaVuSans-6c" transform="translate(507.958984 0)"/>
     <use xlink:href="#DejaVuSans-20" transform="translate(535.742188 0)"/>
     <use xlink:href="#DejaVuSans-74" transform="translate(567.529297 0)"/>
     <use xlink:href="#DejaVuSans-72" transform="translate(606.738281 0)"/>
     <use xlink:href="#DejaVuSans-65" transform="translate(645.601562 0)"/>
     <use xlink:href="#DejaVuSans-65" transform="translate(707.125 0)"/>
     <use xlink:href="#DejaVuSans-20" transform="translate(768.648438 0)"/>
     <use xlink:href="#DejaVuSans-69" transform="translate(800.435547 0)"/>
     <use xlink:href="#DejaVuSans-73" transform="translate(828.21875 0)"/>
     <use xlink:href="#DejaVuSans-20" transform="translate(880.318359 0)"/>
     <use xlink:href="#DejaVuSans-62" transform="translate(912.105469 0)"/>
     <use xlink:href="#DejaVuSans-75" transform="translate(975.582031 0)"/>
     <use xlink:href="#DejaVuSans-69" transform="translate(1038.960938 0)"/>
     <use xlink:href="#DejaVuSans-6c" transform="translate(1066.744141 0)"/>
     <use xlink:href="#DejaVuSans-74" transform="translate(1094.527344 0)"/>
     <use xlink:href="#DejaVuSans-20" transform="translate(1133.736328 0)"/>
     <use xlink:href="#DejaVuSans-62" transform="translate(1165.523438 0)"/>
     <use xlink:href="#DejaVuSans-79" transform="translate(1229 0)"/>
     <use xlink:href="#DejaVuSans-20" transform="translate(1288.179688 0)"/>
     <use xlink:href="#DejaVuSans-62" transform="translate(1319.966797 0)"/>
     <use xlink:href="#DejaVuSans-75" transform="translate(1383.443359 0)"/>
     <use xlink:href="#DejaVuSans-69" transform="translate(1446.822266 0)"/>
     <use xlink:href="#DejaVuSans-6c" transform="translate(1474.605469 0)"/>
     <use xlink:href="#DejaVuSans-64" transform="translate(1502.388672 0)"/>
     <use xlink:href="#DejaVuSans-69" transform="translate(1565.865234 0)"/>
     <use xlink:href="#DejaVuSans-6e" transform="translate(1593.648438 0)"/>
     <use xlink:href="#DejaVuSans-67" transform="translate(1657.027344 0)"/>
     <use xlink:href="#DejaVuSans-20" transform="translate(1720.503906 0)"/>
     <use xlink:href="#DejaVuSans-73" transform="translate(1752.291016 0)"/>
     <use xlink:href="#DejaVuSans-6d" transform="translate(1804.390625 0)"/>
     <use xlink:href="#DejaVuSans-61" transform="translate(1901.802734 0)"/>
     <use xlink:href="#DejaVuSans-6c" transform="translate(1963.082031 0)"/>
     <use xlink:href="#DejaVuSans-6c" transform="translate(1990.865234 0)"/>
     <use xlink:href="#DejaVuSans-65" transform="translate(2018.648438 0)"/>
     <use xlink:href="#DejaVuSans-72" transform="translate(2080.171875 0)"/>
     <use xlink:href="#DejaVuSans-20" transform="translate(2121.285156 0)"/>
     <use xlink:href="#DejaVuSans-74" transform="translate(2153.072266 0)"/>
     <use xlink:href="#DejaVuSans-72" transform="translate(2192.28125 0)"/>
     <use xlink:href="#DejaVuSans-65" transform="translate(2231.144531 0)"/>
     <use xlink:href="#DejaVuSans-65" transform="translate(2292.667969 0)"/>
     <use xlink:href="#DejaVuSans-73" transform="translate(2354.191406 0)"/>
     <use xlink:href="#DejaVuSans-20" transform="translate(2406.291016 0)"/>
     <use xlink:href="#DejaVuSans-69" transform="translate(2438.078125 0)"/>
     <use xlink:href="#DejaVuSans-6e" transform="translate(2465.861328 0)"/>
     <use xlink:href="#DejaVuSans-73" transform="translate(2529.240234 0)"/>
     <use xlink:href="#DejaVuSans-69" transform="translate(2581.339844 0)"/>
     <use xlink:href="#DejaVuSans-64" transform="translate(2609.123047 0)"/>
     <use xlink:href="#DejaVuSans-65" transform="translate(2672.599609 0)"/>
     <use xlink:href="#DejaVuSans-20" transform="translate(2734.123047 0)"/>
     <use xlink:href="#DejaVuSans-65" transform="translate(2765.910156 0)"/>
     <use xlink:href="#DejaVuSans-61" transform="translate(2827.433594 0)"/>
     <use xlink:href="#DejaVuSans-63" transform="translate(2888.712891 0)"/>
     <use xlink:href="#DejaVuSans-68" transform="translate(2943.693359 0)"/>
     <use xlink:href="#DejaVuSans-20" transform="translate(3007.072266 0)"/>
     <use xlink:href="#DejaVuSans-62" transform="translate(3038.859375 0)"/>
     <use xlink:href="#DejaVuSans-72" transform="translate(3102.335938 0)"/>
     <use xlink:href="#DejaVuSans-61" transform="translate(3143.449219 0)"/>
     <use xlink:href="#DejaVuSans-6e" transform="translate(3204.728516 0)"/>
     <use xlink:href="#DejaVuSans-63" transform="translate(3268.107422 0)"/>
     <use xlink:href="#DejaVuSans-68" transform="translate(3323.087891 0)"/>
    </g>
   </g>
  </g>
 </g>
 <defs>
  <clipPath id="p61acffb364">
   <rect x="7.2" y="21.178359" width="530.1" height="310.464"/>
  </clipPath>
 </defs>
</svg>
