<?xml version="1.0" encoding="utf-8" standalone="no"?>
<!DOCTYPE svg PUBLIC "-//W3C//DTD SVG 1.1//EN"
  "http://www.w3.org/Graphics/SVG/1.1/DTD/svg11.dtd">
<svg xmlns:xlink="http://www.w3.org/1999/xlink" width="856.985625pt" height="280.450156pt" viewBox="0 0 856.985625 280.450156" xmlns="http://www.w3.org/2000/svg" version="1.1">
 <metadata>
  <rdf:RDF xmlns:dc="http://purl.org/dc/elements/1.1/" xmlns:cc="http://creativecommons.org/ns#" xmlns:rdf="http://www.w3.org/1999/02/22-rdf-syntax-ns#">
   <cc:Work>
    <dc:type rdf:resource="http://purl.org/dc/dcmitype/StillImage"/>
    <dc:date>2026-07-01T21:36:53.796079</dc:date>
    <dc:format>image/svg+xml</dc:format>
    <dc:creator>
     <cc:Agent>
      <dc:title>Matplotlib v3.10.8, https://matplotlib.org/</dc:title>
     </cc:Agent>
    </dc:creator>
   </cc:Work>
  </rdf:RDF>
 </metadata>
 <defs>
  <style type="text/css">*{stroke-linejoin: round; stroke-linecap: butt}</style>
 </defs>
 <g id="figure_1">
  <g id="patch_1">
   <path d="M -0 280.450156 
L 856.985625 280.450156 
L 856.985625 0 
L -0 0 
z
" style="fill: #ffffff"/>
  </g>
  <g id="axes_1">
   <g id="patch_2">
    <path d="M 64.804375 240.958281 
L 426.385625 240.958281 
L 426.385625 21.558281 
L 64.804375 21.558281 
z
" style="fill: #ffffff"/>
   </g>
   <g id="FillBetweenPolyCollection_1">
    <defs>
     <path id="m29052886fb" d="M 90.631607 -49.464602 
L 90.631607 -248.919148 
L 91.668152 -248.919148 
L 92.704696 -248.919148 
L 93.74124 -248.919148 
L 94.777785 -248.919148 
L 95.814329 -248.919148 
L 96.850874 -248.919148 
L 97.887418 -248.919148 
L 98.923963 -248.919148 
L 99.960507 -248.919148 
L 100.997051 -248.919148 
L 102.033596 -248.919148 
L 103.07014 -248.919148 
L 104.106685 -248.919148 
L 105.143229 -248.919148 
L 106.179774 -248.919148 
L 107.216318 -248.919148 
L 108.252863 -248.919148 
L 109.289407 -248.919148 
L 110.325951 -248.919148 
L 111.362496 -248.919148 
L 112.39904 -248.919148 
L 113.435585 -248.919148 
L 114.472129 -248.919148 
L 115.508674 -248.919148 
L 116.545218 -248.919148 
L 117.581762 -248.919148 
L 118.618307 -248.919148 
L 119.654851 -248.919148 
L 120.691396 -248.919148 
L 121.72794 -248.919148 
L 122.764485 -248.919148 
L 123.801029 -248.919148 
L 124.837573 -248.919148 
L 125.874118 -248.919148 
L 126.910662 -248.919148 
L 127.947207 -248.919148 
L 128.983751 -248.919148 
L 130.020296 -248.919148 
L 131.05684 -248.919148 
L 132.093384 -248.919148 
L 133.129929 -248.919148 
L 134.166473 -248.919148 
L 135.203018 -248.919148 
L 136.239562 -248.919148 
L 137.276107 -248.919148 
L 138.312651 -248.919148 
L 139.349196 -248.919148 
L 140.38574 -248.919148 
L 141.422284 -248.919148 
L 142.458829 -248.919148 
L 143.495373 -248.919148 
L 144.531918 -248.919148 
L 145.568462 -248.919148 
L 146.605007 -248.919148 
L 147.641551 -248.919148 
L 148.678095 -248.919148 
L 149.71464 -248.919148 
L 150.751184 -248.919148 
L 151.787729 -248.919148 
L 152.824273 -248.919148 
L 153.860818 -248.919148 
L 154.897362 -248.919148 
L 155.933906 -248.919148 
L 156.970451 -248.919148 
L 158.006995 -248.919148 
L 159.04354 -248.919148 
L 160.080084 -248.919148 
L 161.116629 -248.919148 
L 162.153173 -248.919148 
L 163.189718 -248.919148 
L 164.226262 -248.919148 
L 165.262806 -248.919148 
L 166.299351 -248.919148 
L 167.335895 -248.919148 
L 168.37244 -248.919148 
L 169.408984 -248.919148 
L 170.445529 -248.919148 
L 171.482073 -248.919148 
L 172.518617 -248.919148 
L 173.555162 -248.919148 
L 174.591706 -248.919148 
L 175.628251 -248.919148 
L 176.664795 -248.919148 
L 177.70134 -248.919148 
L 178.737884 -248.919148 
L 179.774428 -248.919148 
L 180.810973 -248.919148 
L 181.847517 -248.919148 
L 182.884062 -248.919148 
L 183.920606 -248.919148 
L 184.957151 -248.919148 
L 185.993695 -248.919148 
L 187.030239 -248.919148 
L 188.066784 -248.919148 
L 189.103328 -248.919148 
L 190.139873 -248.919148 
L 191.176417 -248.919148 
L 192.212962 -248.919148 
L 193.249506 -248.919148 
L 194.286051 -248.919148 
L 195.322595 -248.919148 
L 196.359139 -248.919148 
L 197.395684 -248.919148 
L 198.432228 -248.919148 
L 199.468773 -248.919148 
L 200.505317 -248.919148 
L 201.541862 -248.919148 
L 202.578406 -248.919148 
L 203.61495 -248.919148 
L 204.651495 -248.919148 
L 205.688039 -248.919148 
L 206.724584 -248.919148 
L 207.761128 -248.919148 
L 208.797673 -248.919148 
L 209.834217 -248.919148 
L 210.870761 -248.919148 
L 211.907306 -248.919148 
L 212.94385 -248.919148 
L 213.980395 -248.919148 
L 215.016939 -248.919148 
L 216.053484 -248.919148 
L 217.090028 -248.919148 
L 218.126573 -248.919148 
L 219.163117 -248.919148 
L 220.199661 -248.919148 
L 221.236206 -248.919148 
L 222.27275 -248.919148 
L 223.309295 -248.919148 
L 224.345839 -248.919148 
L 225.382384 -248.919148 
L 226.418928 -248.919148 
L 227.455472 -248.919148 
L 228.492017 -248.919148 
L 229.528561 -248.919148 
L 230.565106 -248.919148 
L 231.60165 -248.919148 
L 232.638195 -248.919148 
L 233.674739 -248.919148 
L 234.711283 -248.919148 
L 235.747828 -248.919148 
L 236.784372 -248.919148 
L 237.820917 -248.919148 
L 238.857461 -248.919148 
L 239.894006 -248.919148 
L 240.93055 -248.919148 
L 241.967094 -248.919148 
L 243.003639 -248.919148 
L 244.040183 -248.919148 
L 245.076728 -248.919148 
L 246.113272 -248.919148 
L 247.149817 -248.919148 
L 248.186361 -248.919148 
L 249.222906 -248.919148 
L 250.25945 -248.919148 
L 251.295994 -248.919148 
L 252.332539 -248.919148 
L 253.369083 -248.919148 
L 254.405628 -248.919148 
L 255.442172 -248.919148 
L 256.478717 -248.919148 
L 257.515261 -248.919148 
L 258.551805 -248.919148 
L 259.58835 -248.919148 
L 260.624894 -248.919148 
L 261.661439 -248.919148 
L 262.697983 -248.919148 
L 263.734528 -248.919148 
L 264.771072 -248.919148 
L 265.807616 -248.919148 
L 266.844161 -248.919148 
L 267.880705 -248.919148 
L 268.91725 -248.919148 
L 269.953794 -248.919148 
L 270.990339 -248.919148 
L 272.026883 -248.919148 
L 273.063427 -248.919148 
L 274.099972 -248.919148 
L 275.136516 -248.919148 
L 276.173061 -248.919148 
L 277.209605 -248.919148 
L 278.24615 -248.919148 
L 279.282694 -248.919148 
L 280.319239 -248.919148 
L 281.355783 -248.919148 
L 282.392327 -248.919148 
L 283.428872 -248.919148 
L 284.465416 -248.919148 
L 285.501961 -248.919148 
L 286.538505 -248.919148 
L 287.57505 -248.919148 
L 288.611594 -248.919148 
L 289.648138 -248.919148 
L 290.684683 -248.919148 
L 291.721227 -248.919148 
L 292.757772 -248.919148 
L 293.794316 -248.919148 
L 294.830861 -248.919148 
L 295.867405 -248.919148 
L 296.903949 -248.919148 
L 297.940494 -248.919148 
L 298.977038 -248.919148 
L 300.013583 -248.919148 
L 301.050127 -248.919148 
L 302.086672 -248.919148 
L 303.123216 -248.919148 
L 304.159761 -248.919148 
L 305.196305 -248.919148 
L 306.232849 -248.919148 
L 307.269394 -248.919148 
L 308.305938 -248.919148 
L 309.342483 -248.919148 
L 310.379027 -248.919148 
L 311.415572 -248.919148 
L 312.452116 -248.919148 
L 313.48866 -248.919148 
L 314.525205 -248.919148 
L 315.561749 -248.919148 
L 316.598294 -248.919148 
L 317.634838 -248.919148 
L 318.671383 -248.919148 
L 319.707927 -248.919148 
L 320.744471 -248.919148 
L 321.781016 -248.919148 
L 322.81756 -248.919148 
L 323.854105 -248.919148 
L 324.890649 -248.919148 
L 325.927194 -248.919148 
L 326.963738 -248.919148 
L 328.000282 -248.919148 
L 329.036827 -248.919148 
L 330.073371 -248.919148 
L 331.109916 -248.919148 
L 332.14646 -248.919148 
L 333.183005 -248.919148 
L 334.219549 -248.919148 
L 335.256094 -248.919148 
L 336.292638 -248.919148 
L 337.329182 -248.919148 
L 338.365727 -248.919148 
L 339.402271 -248.919148 
L 340.438816 -248.919148 
L 341.47536 -248.919148 
L 342.511905 -248.919148 
L 343.548449 -248.919148 
L 344.584993 -248.919148 
L 345.621538 -248.919148 
L 346.658082 -248.919148 
L 347.694627 -248.919148 
L 348.731171 -248.919148 
L 349.767716 -248.919148 
L 350.80426 -248.919148 
L 351.840804 -248.919148 
L 352.877349 -248.919148 
L 353.913893 -248.919148 
L 354.950438 -248.919148 
L 355.986982 -248.919148 
L 357.023527 -248.919148 
L 358.060071 -248.919148 
L 359.096616 -248.919148 
L 360.13316 -248.919148 
L 361.169704 -248.919148 
L 362.206249 -248.919148 
L 363.242793 -248.919148 
L 364.279338 -248.919148 
L 365.315882 -248.919148 
L 366.352427 -248.919148 
L 367.388971 -248.919148 
L 368.425515 -248.919148 
L 369.46206 -248.919148 
L 370.498604 -248.919148 
L 371.535149 -248.919148 
L 372.571693 -248.919148 
L 373.608238 -248.919148 
L 374.644782 -248.919148 
L 375.681326 -248.919148 
L 376.717871 -248.919148 
L 377.754415 -248.919148 
L 378.79096 -248.919148 
L 379.827504 -248.919148 
L 380.864049 -248.919148 
L 381.900593 -248.919148 
L 382.937137 -248.919148 
L 383.973682 -248.919148 
L 385.010226 -248.919148 
L 386.046771 -248.919148 
L 387.083315 -248.919148 
L 388.11986 -248.919148 
L 389.156404 -248.919148 
L 390.192949 -248.919148 
L 391.229493 -248.919148 
L 392.266037 -248.919148 
L 393.302582 -248.919148 
L 394.339126 -248.919148 
L 395.375671 -248.919148 
L 396.412215 -248.919148 
L 397.44876 -248.919148 
L 398.485304 -248.919148 
L 399.521848 -248.919148 
L 400.558393 -248.919148 
L 400.558393 -49.464602 
L 400.558393 -49.464602 
L 399.521848 -49.464602 
L 398.485304 -49.464602 
L 397.44876 -49.464602 
L 396.412215 -49.464602 
L 395.375671 -49.464602 
L 394.339126 -49.464602 
L 393.302582 -49.464602 
L 392.266037 -49.464602 
L 391.229493 -49.464602 
L 390.192949 -49.464602 
L 389.156404 -49.464602 
L 388.11986 -49.464602 
L 387.083315 -49.464602 
L 386.046771 -49.464602 
L 385.010226 -49.464602 
L 383.973682 -49.464602 
L 382.937137 -49.464602 
L 381.900593 -49.464602 
L 380.864049 -49.464602 
L 379.827504 -49.464602 
L 378.79096 -49.464602 
L 377.754415 -49.464602 
L 376.717871 -49.464602 
L 375.681326 -49.464602 
L 374.644782 -49.464602 
L 373.608238 -49.464602 
L 372.571693 -49.464602 
L 371.535149 -49.464602 
L 370.498604 -49.464602 
L 369.46206 -49.464602 
L 368.425515 -49.464602 
L 367.388971 -49.464602 
L 366.352427 -49.464602 
L 365.315882 -49.464602 
L 364.279338 -49.464602 
L 363.242793 -49.464602 
L 362.206249 -49.464602 
L 361.169704 -49.464602 
L 360.13316 -49.464602 
L 359.096616 -49.464602 
L 358.060071 -49.464602 
L 357.023527 -49.464602 
L 355.986982 -49.464602 
L 354.950438 -49.464602 
L 353.913893 -49.464602 
L 352.877349 -49.464602 
L 351.840804 -49.464602 
L 350.80426 -49.464602 
L 349.767716 -49.464602 
L 348.731171 -49.464602 
L 347.694627 -49.464602 
L 346.658082 -49.464602 
L 345.621538 -49.464602 
L 344.584993 -49.464602 
L 343.548449 -49.464602 
L 342.511905 -49.464602 
L 341.47536 -49.464602 
L 340.438816 -49.464602 
L 339.402271 -49.464602 
L 338.365727 -49.464602 
L 337.329182 -49.464602 
L 336.292638 -49.464602 
L 335.256094 -49.464602 
L 334.219549 -49.464602 
L 333.183005 -49.464602 
L 332.14646 -49.464602 
L 331.109916 -49.464602 
L 330.073371 -49.464602 
L 329.036827 -49.464602 
L 328.000282 -49.464602 
L 326.963738 -49.464602 
L 325.927194 -49.464602 
L 324.890649 -49.464602 
L 323.854105 -49.464602 
L 322.81756 -49.464602 
L 321.781016 -49.464602 
L 320.744471 -49.464602 
L 319.707927 -49.464602 
L 318.671383 -49.464602 
L 317.634838 -49.464602 
L 316.598294 -49.464602 
L 315.561749 -49.464602 
L 314.525205 -49.464602 
L 313.48866 -49.464602 
L 312.452116 -49.464602 
L 311.415572 -49.464602 
L 310.379027 -49.464602 
L 309.342483 -49.464602 
L 308.305938 -49.464602 
L 307.269394 -49.464602 
L 306.232849 -49.464602 
L 305.196305 -49.464602 
L 304.159761 -49.464602 
L 303.123216 -49.464602 
L 302.086672 -49.464602 
L 301.050127 -49.464602 
L 300.013583 -49.464602 
L 298.977038 -49.464602 
L 297.940494 -49.464602 
L 296.903949 -49.464602 
L 295.867405 -49.464602 
L 294.830861 -49.464602 
L 293.794316 -49.464602 
L 292.757772 -49.464602 
L 291.721227 -49.464602 
L 290.684683 -49.464602 
L 289.648138 -49.464602 
L 288.611594 -49.464602 
L 287.57505 -49.464602 
L 286.538505 -49.464602 
L 285.501961 -49.464602 
L 284.465416 -49.464602 
L 283.428872 -49.464602 
L 282.392327 -49.464602 
L 281.355783 -49.464602 
L 280.319239 -49.464602 
L 279.282694 -49.464602 
L 278.24615 -49.464602 
L 277.209605 -49.464602 
L 276.173061 -49.464602 
L 275.136516 -49.464602 
L 274.099972 -49.464602 
L 273.063427 -49.464602 
L 272.026883 -49.464602 
L 270.990339 -49.464602 
L 269.953794 -49.464602 
L 268.91725 -49.464602 
L 267.880705 -49.464602 
L 266.844161 -49.464602 
L 265.807616 -49.464602 
L 264.771072 -49.464602 
L 263.734528 -49.464602 
L 262.697983 -49.464602 
L 261.661439 -49.464602 
L 260.624894 -49.464602 
L 259.58835 -49.464602 
L 258.551805 -49.464602 
L 257.515261 -49.464602 
L 256.478717 -49.464602 
L 255.442172 -49.464602 
L 254.405628 -49.464602 
L 253.369083 -49.464602 
L 252.332539 -49.464602 
L 251.295994 -49.464602 
L 250.25945 -49.464602 
L 249.222906 -49.464602 
L 248.186361 -49.464602 
L 247.149817 -49.464602 
L 246.113272 -49.464602 
L 245.076728 -49.464602 
L 244.040183 -49.464602 
L 243.003639 -49.464602 
L 241.967094 -49.464602 
L 240.93055 -49.464602 
L 239.894006 -49.464602 
L 238.857461 -49.464602 
L 237.820917 -49.464602 
L 236.784372 -49.464602 
L 235.747828 -49.464602 
L 234.711283 -49.464602 
L 233.674739 -49.464602 
L 232.638195 -49.464602 
L 231.60165 -49.464602 
L 230.565106 -49.464602 
L 229.528561 -49.464602 
L 228.492017 -49.464602 
L 227.455472 -49.464602 
L 226.418928 -49.464602 
L 225.382384 -49.464602 
L 224.345839 -49.464602 
L 223.309295 -49.464602 
L 222.27275 -49.464602 
L 221.236206 -49.464602 
L 220.199661 -49.464602 
L 219.163117 -49.464602 
L 218.126573 -49.464602 
L 217.090028 -49.464602 
L 216.053484 -49.464602 
L 215.016939 -49.464602 
L 213.980395 -49.464602 
L 212.94385 -49.464602 
L 211.907306 -49.464602 
L 210.870761 -49.464602 
L 209.834217 -49.464602 
L 208.797673 -49.464602 
L 207.761128 -49.464602 
L 206.724584 -49.464602 
L 205.688039 -49.464602 
L 204.651495 -49.464602 
L 203.61495 -49.464602 
L 202.578406 -49.464602 
L 201.541862 -49.464602 
L 200.505317 -49.464602 
L 199.468773 -49.464602 
L 198.432228 -49.464602 
L 197.395684 -49.464602 
L 196.359139 -49.464602 
L 195.322595 -49.464602 
L 194.286051 -49.464602 
L 193.249506 -49.464602 
L 192.212962 -49.464602 
L 191.176417 -49.464602 
L 190.139873 -49.464602 
L 189.103328 -49.464602 
L 188.066784 -49.464602 
L 187.030239 -49.464602 
L 185.993695 -49.464602 
L 184.957151 -49.464602 
L 183.920606 -49.464602 
L 182.884062 -49.464602 
L 181.847517 -49.464602 
L 180.810973 -49.464602 
L 179.774428 -49.464602 
L 178.737884 -49.464602 
L 177.70134 -49.464602 
L 176.664795 -49.464602 
L 175.628251 -49.464602 
L 174.591706 -49.464602 
L 173.555162 -49.464602 
L 172.518617 -49.464602 
L 171.482073 -49.464602 
L 170.445529 -49.464602 
L 169.408984 -49.464602 
L 168.37244 -49.464602 
L 167.335895 -49.464602 
L 166.299351 -49.464602 
L 165.262806 -49.464602 
L 164.226262 -49.464602 
L 163.189718 -49.464602 
L 162.153173 -49.464602 
L 161.116629 -49.464602 
L 160.080084 -49.464602 
L 159.04354 -49.464602 
L 158.006995 -49.464602 
L 156.970451 -49.464602 
L 155.933906 -49.464602 
L 154.897362 -49.464602 
L 153.860818 -49.464602 
L 152.824273 -49.464602 
L 151.787729 -49.464602 
L 150.751184 -49.464602 
L 149.71464 -49.464602 
L 148.678095 -49.464602 
L 147.641551 -49.464602 
L 146.605007 -49.464602 
L 145.568462 -49.464602 
L 144.531918 -49.464602 
L 143.495373 -49.464602 
L 142.458829 -49.464602 
L 141.422284 -49.464602 
L 140.38574 -49.464602 
L 139.349196 -49.464602 
L 138.312651 -49.464602 
L 137.276107 -49.464602 
L 136.239562 -49.464602 
L 135.203018 -49.464602 
L 134.166473 -49.464602 
L 133.129929 -49.464602 
L 132.093384 -49.464602 
L 131.05684 -49.464602 
L 130.020296 -49.464602 
L 128.983751 -49.464602 
L 127.947207 -49.464602 
L 126.910662 -49.464602 
L 125.874118 -49.464602 
L 124.837573 -49.464602 
L 123.801029 -49.464602 
L 122.764485 -49.464602 
L 121.72794 -49.464602 
L 120.691396 -49.464602 
L 119.654851 -49.464602 
L 118.618307 -49.464602 
L 117.581762 -49.464602 
L 116.545218 -49.464602 
L 115.508674 -49.464602 
L 114.472129 -49.464602 
L 113.435585 -49.464602 
L 112.39904 -49.464602 
L 111.362496 -49.464602 
L 110.325951 -49.464602 
L 109.289407 -49.464602 
L 108.252863 -49.464602 
L 107.216318 -49.464602 
L 106.179774 -49.464602 
L 105.143229 -49.464602 
L 104.106685 -49.464602 
L 103.07014 -49.464602 
L 102.033596 -49.464602 
L 100.997051 -49.464602 
L 99.960507 -49.464602 
L 98.923963 -49.464602 
L 97.887418 -49.464602 
L 96.850874 -49.464602 
L 95.814329 -49.464602 
L 94.777785 -49.464602 
L 93.74124 -49.464602 
L 92.704696 -49.464602 
L 91.668152 -49.464602 
L 90.631607 -49.464602 
z
" style="stroke: #4682b4; stroke-opacity: 0.15"/>
    </defs>
    <g clip-path="url(#p59909d4c2a)">
     <use xlink:href="#m29052886fb" x="0" y="280.450156" style="fill: #4682b4; fill-opacity: 0.15; stroke: #4682b4; stroke-opacity: 0.15"/>
    </g>
   </g>
   <g id="matplotlib.axis_1">
    <g id="xtick_1">
     <g id="line2d_1">
      <path d="M 90.631607 240.958281 
L 90.631607 21.558281 
" clip-path="url(#p59909d4c2a)" style="fill: none; stroke-dasharray: 2.96,1.28; stroke-dashoffset: 0; stroke: #b0b0b0; stroke-opacity: 0.4; stroke-width: 0.8"/>
     </g>
     <g id="line2d_2">
      <defs>
       <path id="md71cab55c1" d="M 0 0 
L 0 3.5 
" style="stroke: #000000; stroke-width: 0.8"/>
      </defs>
      <g>
       <use xlink:href="#md71cab55c1" x="90.631607" y="240.958281" style="stroke: #000000; stroke-width: 0.8"/>
      </g>
     </g>
     <g id="text_1">
      <!-- 0 -->
      <g transform="translate(87.450357 255.556719) scale(0.1 -0.1)">
       <defs>
        <path id="DejaVuSans-30" d="M 2034 4250 
Q 1547 4250 1301 3770 
Q 1056 3291 1056 2328 
Q 1056 1369 1301 889 
Q 1547 409 2034 409 
Q 2525 409 2770 889 
Q 3016 1369 3016 2328 
Q 3016 3291 2770 3770 
Q 2525 4250 2034 4250 
z
M 2034 4750 
Q 2819 4750 3233 4129 
Q 3647 3509 3647 2328 
Q 3647 1150 3233 529 
Q 2819 -91 2034 -91 
Q 1250 -91 836 529 
Q 422 1150 422 2328 
Q 422 3509 836 4129 
Q 1250 4750 2034 4750 
z
" transform="scale(0.015625)"/>
       </defs>
       <use xlink:href="#DejaVuSans-30"/>
      </g>
     </g>
    </g>
    <g id="xtick_2">
     <g id="line2d_3">
      <path d="M 142.286071 240.958281 
L 142.286071 21.558281 
" clip-path="url(#p59909d4c2a)" style="fill: none; stroke-dasharray: 2.96,1.28; stroke-dashoffset: 0; stroke: #b0b0b0; stroke-opacity: 0.4; stroke-width: 0.8"/>
     </g>
     <g id="line2d_4">
      <g>
       <use xlink:href="#md71cab55c1" x="142.286071" y="240.958281" style="stroke: #000000; stroke-width: 0.8"/>
      </g>
     </g>
     <g id="text_2">
      <!-- 10 -->
      <g transform="translate(135.923571 255.556719) scale(0.1 -0.1)">
       <defs>
        <path id="DejaVuSans-31" d="M 794 531 
L 1825 531 
L 1825 4091 
L 703 3866 
L 703 4441 
L 1819 4666 
L 2450 4666 
L 2450 531 
L 3481 531 
L 3481 0 
L 794 0 
L 794 531 
z
" transform="scale(0.015625)"/>
       </defs>
       <use xlink:href="#DejaVuSans-31"/>
       <use xlink:href="#DejaVuSans-30" transform="translate(63.623047 0)"/>
      </g>
     </g>
    </g>
    <g id="xtick_3">
     <g id="line2d_5">
      <path d="M 193.940536 240.958281 
L 193.940536 21.558281 
" clip-path="url(#p59909d4c2a)" style="fill: none; stroke-dasharray: 2.96,1.28; stroke-dashoffset: 0; stroke: #b0b0b0; stroke-opacity: 0.4; stroke-width: 0.8"/>
     </g>
     <g id="line2d_6">
      <g>
       <use xlink:href="#md71cab55c1" x="193.940536" y="240.958281" style="stroke: #000000; stroke-width: 0.8"/>
      </g>
     </g>
     <g id="text_3">
      <!-- 20 -->
      <g transform="translate(187.578036 255.556719) scale(0.1 -0.1)">
       <defs>
        <path id="DejaVuSans-32" d="M 1228 531 
L 3431 531 
L 3431 0 
L 469 0 
L 469 531 
Q 828 903 1448 1529 
Q 2069 2156 2228 2338 
Q 2531 2678 2651 2914 
Q 2772 3150 2772 3378 
Q 2772 3750 2511 3984 
Q 2250 4219 1831 4219 
Q 1534 4219 1204 4116 
Q 875 4013 500 3803 
L 500 4441 
Q 881 4594 1212 4672 
Q 1544 4750 1819 4750 
Q 2544 4750 2975 4387 
Q 3406 4025 3406 3419 
Q 3406 3131 3298 2873 
Q 3191 2616 2906 2266 
Q 2828 2175 2409 1742 
Q 1991 1309 1228 531 
z
" transform="scale(0.015625)"/>
       </defs>
       <use xlink:href="#DejaVuSans-32"/>
       <use xlink:href="#DejaVuSans-30" transform="translate(63.623047 0)"/>
      </g>
     </g>
    </g>
    <g id="xtick_4">
     <g id="line2d_7">
      <path d="M 245.595 240.958281 
L 245.595 21.558281 
" clip-path="url(#p59909d4c2a)" style="fill: none; stroke-dasharray: 2.96,1.28; stroke-dashoffset: 0; stroke: #b0b0b0; stroke-opacity: 0.4; stroke-width: 0.8"/>
     </g>
     <g id="line2d_8">
      <g>
       <use xlink:href="#md71cab55c1" x="245.595" y="240.958281" style="stroke: #000000; stroke-width: 0.8"/>
      </g>
     </g>
     <g id="text_4">
      <!-- 30 -->
      <g transform="translate(239.2325 255.556719) scale(0.1 -0.1)">
       <defs>
        <path id="DejaVuSans-33" d="M 2597 2516 
Q 3050 2419 3304 2112 
Q 3559 1806 3559 1356 
Q 3559 666 3084 287 
Q 2609 -91 1734 -91 
Q 1441 -91 1130 -33 
Q 819 25 488 141 
L 488 750 
Q 750 597 1062 519 
Q 1375 441 1716 441 
Q 2309 441 2620 675 
Q 2931 909 2931 1356 
Q 2931 1769 2642 2001 
Q 2353 2234 1838 2234 
L 1294 2234 
L 1294 2753 
L 1863 2753 
Q 2328 2753 2575 2939 
Q 2822 3125 2822 3475 
Q 2822 3834 2567 4026 
Q 2313 4219 1838 4219 
Q 1578 4219 1281 4162 
Q 984 4106 628 3988 
L 628 4550 
Q 988 4650 1302 4700 
Q 1616 4750 1894 4750 
Q 2613 4750 3031 4423 
Q 3450 4097 3450 3541 
Q 3450 3153 3228 2886 
Q 3006 2619 2597 2516 
z
" transform="scale(0.015625)"/>
       </defs>
       <use xlink:href="#DejaVuSans-33"/>
       <use xlink:href="#DejaVuSans-30" transform="translate(63.623047 0)"/>
      </g>
     </g>
    </g>
    <g id="xtick_5">
     <g id="line2d_9">
      <path d="M 297.249464 240.958281 
L 297.249464 21.558281 
" clip-path="url(#p59909d4c2a)" style="fill: none; stroke-dasharray: 2.96,1.28; stroke-dashoffset: 0; stroke: #b0b0b0; stroke-opacity: 0.4; stroke-width: 0.8"/>
     </g>
     <g id="line2d_10">
      <g>
       <use xlink:href="#md71cab55c1" x="297.249464" y="240.958281" style="stroke: #000000; stroke-width: 0.8"/>
      </g>
     </g>
     <g id="text_5">
      <!-- 40 -->
      <g transform="translate(290.886964 255.556719) scale(0.1 -0.1)">
       <defs>
        <path id="DejaVuSans-34" d="M 2419 4116 
L 825 1625 
L 2419 1625 
L 2419 4116 
z
M 2253 4666 
L 3047 4666 
L 3047 1625 
L 3713 1625 
L 3713 1100 
L 3047 1100 
L 3047 0 
L 2419 0 
L 2419 1100 
L 313 1100 
L 313 1709 
L 2253 4666 
z
" transform="scale(0.015625)"/>
       </defs>
       <use xlink:href="#DejaVuSans-34"/>
       <use xlink:href="#DejaVuSans-30" transform="translate(63.623047 0)"/>
      </g>
     </g>
    </g>
    <g id="xtick_6">
     <g id="line2d_11">
      <path d="M 348.903929 240.958281 
L 348.903929 21.558281 
" clip-path="url(#p59909d4c2a)" style="fill: none; stroke-dasharray: 2.96,1.28; stroke-dashoffset: 0; stroke: #b0b0b0; stroke-opacity: 0.4; stroke-width: 0.8"/>
     </g>
     <g id="line2d_12">
      <g>
       <use xlink:href="#md71cab55c1" x="348.903929" y="240.958281" style="stroke: #000000; stroke-width: 0.8"/>
      </g>
     </g>
     <g id="text_6">
      <!-- 50 -->
      <g transform="translate(342.541429 255.556719) scale(0.1 -0.1)">
       <defs>
        <path id="DejaVuSans-35" d="M 691 4666 
L 3169 4666 
L 3169 4134 
L 1269 4134 
L 1269 2991 
Q 1406 3038 1543 3061 
Q 1681 3084 1819 3084 
Q 2600 3084 3056 2656 
Q 3513 2228 3513 1497 
Q 3513 744 3044 326 
Q 2575 -91 1722 -91 
Q 1428 -91 1123 -41 
Q 819 9 494 109 
L 494 744 
Q 775 591 1075 516 
Q 1375 441 1709 441 
Q 2250 441 2565 725 
Q 2881 1009 2881 1497 
Q 2881 1984 2565 2268 
Q 2250 2553 1709 2553 
Q 1456 2553 1204 2497 
Q 953 2441 691 2322 
L 691 4666 
z
" transform="scale(0.015625)"/>
       </defs>
       <use xlink:href="#DejaVuSans-35"/>
       <use xlink:href="#DejaVuSans-30" transform="translate(63.623047 0)"/>
      </g>
     </g>
    </g>
    <g id="xtick_7">
     <g id="line2d_13">
      <path d="M 400.558393 240.958281 
L 400.558393 21.558281 
" clip-path="url(#p59909d4c2a)" style="fill: none; stroke-dasharray: 2.96,1.28; stroke-dashoffset: 0; stroke: #b0b0b0; stroke-opacity: 0.4; stroke-width: 0.8"/>
     </g>
     <g id="line2d_14">
      <g>
       <use xlink:href="#md71cab55c1" x="400.558393" y="240.958281" style="stroke: #000000; stroke-width: 0.8"/>
      </g>
     </g>
     <g id="text_7">
      <!-- 60 -->
      <g transform="translate(394.195893 255.556719) scale(0.1 -0.1)">
       <defs>
        <path id="DejaVuSans-36" d="M 2113 2584 
Q 1688 2584 1439 2293 
Q 1191 2003 1191 1497 
Q 1191 994 1439 701 
Q 1688 409 2113 409 
Q 2538 409 2786 701 
Q 3034 994 3034 1497 
Q 3034 2003 2786 2293 
Q 2538 2584 2113 2584 
z
M 3366 4563 
L 3366 3988 
Q 3128 4100 2886 4159 
Q 2644 4219 2406 4219 
Q 1781 4219 1451 3797 
Q 1122 3375 1075 2522 
Q 1259 2794 1537 2939 
Q 1816 3084 2150 3084 
Q 2853 3084 3261 2657 
Q 3669 2231 3669 1497 
Q 3669 778 3244 343 
Q 2819 -91 2113 -91 
Q 1303 -91 875 529 
Q 447 1150 447 2328 
Q 447 3434 972 4092 
Q 1497 4750 2381 4750 
Q 2619 4750 2861 4703 
Q 3103 4656 3366 4563 
z
" transform="scale(0.015625)"/>
       </defs>
       <use xlink:href="#DejaVuSans-36"/>
       <use xlink:href="#DejaVuSans-30" transform="translate(63.623047 0)"/>
      </g>
     </g>
    </g>
    <g id="text_8">
     <!-- Wait time (minutes) -->
     <g transform="translate(186.012188 270.754531) scale(0.12 -0.12)">
      <defs>
       <path id="DejaVuSans-57" d="M 213 4666 
L 850 4666 
L 1831 722 
L 2809 4666 
L 3519 4666 
L 4500 722 
L 5478 4666 
L 6119 4666 
L 4947 0 
L 4153 0 
L 3169 4050 
L 2175 0 
L 1381 0 
L 213 4666 
z
" transform="scale(0.015625)"/>
       <path id="DejaVuSans-61" d="M 2194 1759 
Q 1497 1759 1228 1600 
Q 959 1441 959 1056 
Q 959 750 1161 570 
Q 1363 391 1709 391 
Q 2188 391 2477 730 
Q 2766 1069 2766 1631 
L 2766 1759 
L 2194 1759 
z
M 3341 1997 
L 3341 0 
L 2766 0 
L 2766 531 
Q 2569 213 2275 61 
Q 1981 -91 1556 -91 
Q 1019 -91 701 211 
Q 384 513 384 1019 
Q 384 1609 779 1909 
Q 1175 2209 1959 2209 
L 2766 2209 
L 2766 2266 
Q 2766 2663 2505 2880 
Q 2244 3097 1772 3097 
Q 1472 3097 1187 3025 
Q 903 2953 641 2809 
L 641 3341 
Q 956 3463 1253 3523 
Q 1550 3584 1831 3584 
Q 2591 3584 2966 3190 
Q 3341 2797 3341 1997 
z
" transform="scale(0.015625)"/>
       <path id="DejaVuSans-69" d="M 603 3500 
L 1178 3500 
L 1178 0 
L 603 0 
L 603 3500 
z
M 603 4863 
L 1178 4863 
L 1178 4134 
L 603 4134 
L 603 4863 
z
" transform="scale(0.015625)"/>
       <path id="DejaVuSans-74" d="M 1172 4494 
L 1172 3500 
L 2356 3500 
L 2356 3053 
L 1172 3053 
L 1172 1153 
Q 1172 725 1289 603 
Q 1406 481 1766 481 
L 2356 481 
L 2356 0 
L 1766 0 
Q 1100 0 847 248 
Q 594 497 594 1153 
L 594 3053 
L 172 3053 
L 172 3500 
L 594 3500 
L 594 4494 
L 1172 4494 
z
" transform="scale(0.015625)"/>
       <path id="DejaVuSans-20" transform="scale(0.015625)"/>
       <path id="DejaVuSans-6d" d="M 3328 2828 
Q 3544 3216 3844 3400 
Q 4144 3584 4550 3584 
Q 5097 3584 5394 3201 
Q 5691 2819 5691 2113 
L 5691 0 
L 5113 0 
L 5113 2094 
Q 5113 2597 4934 2840 
Q 4756 3084 4391 3084 
Q 3944 3084 3684 2787 
Q 3425 2491 3425 1978 
L 3425 0 
L 2847 0 
L 2847 2094 
Q 2847 2600 2669 2842 
Q 2491 3084 2119 3084 
Q 1678 3084 1418 2786 
Q 1159 2488 1159 1978 
L 1159 0 
L 581 0 
L 581 3500 
L 1159 3500 
L 1159 2956 
Q 1356 3278 1631 3431 
Q 1906 3584 2284 3584 
Q 2666 3584 2933 3390 
Q 3200 3197 3328 2828 
z
" transform="scale(0.015625)"/>
       <path id="DejaVuSans-65" d="M 3597 1894 
L 3597 1613 
L 953 1613 
Q 991 1019 1311 708 
Q 1631 397 2203 397 
Q 2534 397 2845 478 
Q 3156 559 3463 722 
L 3463 178 
Q 3153 47 2828 -22 
Q 2503 -91 2169 -91 
Q 1331 -91 842 396 
Q 353 884 353 1716 
Q 353 2575 817 3079 
Q 1281 3584 2069 3584 
Q 2775 3584 3186 3129 
Q 3597 2675 3597 1894 
z
M 3022 2063 
Q 3016 2534 2758 2815 
Q 2500 3097 2075 3097 
Q 1594 3097 1305 2825 
Q 1016 2553 972 2059 
L 3022 2063 
z
" transform="scale(0.015625)"/>
       <path id="DejaVuSans-28" d="M 1984 4856 
Q 1566 4138 1362 3434 
Q 1159 2731 1159 2009 
Q 1159 1288 1364 580 
Q 1569 -128 1984 -844 
L 1484 -844 
Q 1016 -109 783 600 
Q 550 1309 550 2009 
Q 550 2706 781 3412 
Q 1013 4119 1484 4856 
L 1984 4856 
z
" transform="scale(0.015625)"/>
       <path id="DejaVuSans-6e" d="M 3513 2113 
L 3513 0 
L 2938 0 
L 2938 2094 
Q 2938 2591 2744 2837 
Q 2550 3084 2163 3084 
Q 1697 3084 1428 2787 
Q 1159 2491 1159 1978 
L 1159 0 
L 581 0 
L 581 3500 
L 1159 3500 
L 1159 2956 
Q 1366 3272 1645 3428 
Q 1925 3584 2291 3584 
Q 2894 3584 3203 3211 
Q 3513 2838 3513 2113 
z
" transform="scale(0.015625)"/>
       <path id="DejaVuSans-75" d="M 544 1381 
L 544 3500 
L 1119 3500 
L 1119 1403 
Q 1119 906 1312 657 
Q 1506 409 1894 409 
Q 2359 409 2629 706 
Q 2900 1003 2900 1516 
L 2900 3500 
L 3475 3500 
L 3475 0 
L 2900 0 
L 2900 538 
Q 2691 219 2414 64 
Q 2138 -91 1772 -91 
Q 1169 -91 856 284 
Q 544 659 544 1381 
z
M 1991 3584 
L 1991 3584 
z
" transform="scale(0.015625)"/>
       <path id="DejaVuSans-73" d="M 2834 3397 
L 2834 2853 
Q 2591 2978 2328 3040 
Q 2066 3103 1784 3103 
Q 1356 3103 1142 2972 
Q 928 2841 928 2578 
Q 928 2378 1081 2264 
Q 1234 2150 1697 2047 
L 1894 2003 
Q 2506 1872 2764 1633 
Q 3022 1394 3022 966 
Q 3022 478 2636 193 
Q 2250 -91 1575 -91 
Q 1294 -91 989 -36 
Q 684 19 347 128 
L 347 722 
Q 666 556 975 473 
Q 1284 391 1588 391 
Q 1994 391 2212 530 
Q 2431 669 2431 922 
Q 2431 1156 2273 1281 
Q 2116 1406 1581 1522 
L 1381 1569 
Q 847 1681 609 1914 
Q 372 2147 372 2553 
Q 372 3047 722 3315 
Q 1072 3584 1716 3584 
Q 2034 3584 2315 3537 
Q 2597 3491 2834 3397 
z
" transform="scale(0.015625)"/>
       <path id="DejaVuSans-29" d="M 513 4856 
L 1013 4856 
Q 1481 4119 1714 3412 
Q 1947 2706 1947 2009 
Q 1947 1309 1714 600 
Q 1481 -109 1013 -844 
L 513 -844 
Q 928 -128 1133 580 
Q 1338 1288 1338 2009 
Q 1338 2731 1133 3434 
Q 928 4138 513 4856 
z
" transform="scale(0.015625)"/>
      </defs>
      <use xlink:href="#DejaVuSans-57"/>
      <use xlink:href="#DejaVuSans-61" transform="translate(92.501953 0)"/>
      <use xlink:href="#DejaVuSans-69" transform="translate(153.78125 0)"/>
      <use xlink:href="#DejaVuSans-74" transform="translate(181.564453 0)"/>
      <use xlink:href="#DejaVuSans-20" transform="translate(220.773438 0)"/>
      <use xlink:href="#DejaVuSans-74" transform="translate(252.560547 0)"/>
      <use xlink:href="#DejaVuSans-69" transform="translate(291.769531 0)"/>
      <use xlink:href="#DejaVuSans-6d" transform="translate(319.552734 0)"/>
      <use xlink:href="#DejaVuSans-65" transform="translate(416.964844 0)"/>
      <use xlink:href="#DejaVuSans-20" transform="translate(478.488281 0)"/>
      <use xlink:href="#DejaVuSans-28" transform="translate(510.275391 0)"/>
      <use xlink:href="#DejaVuSans-6d" transform="translate(549.289062 0)"/>
      <use xlink:href="#DejaVuSans-69" transform="translate(646.701172 0)"/>
      <use xlink:href="#DejaVuSans-6e" transform="translate(674.484375 0)"/>
      <use xlink:href="#DejaVuSans-75" transform="translate(737.863281 0)"/>
      <use xlink:href="#DejaVuSans-74" transform="translate(801.242188 0)"/>
      <use xlink:href="#DejaVuSans-65" transform="translate(840.451172 0)"/>
      <use xlink:href="#DejaVuSans-73" transform="translate(901.974609 0)"/>
      <use xlink:href="#DejaVuSans-29" transform="translate(954.074219 0)"/>
     </g>
    </g>
   </g>
   <g id="matplotlib.axis_2">
    <g id="ytick_1">
     <g id="line2d_15">
      <path d="M 64.804375 230.985554 
L 426.385625 230.985554 
" clip-path="url(#p59909d4c2a)" style="fill: none; stroke-dasharray: 2.96,1.28; stroke-dashoffset: 0; stroke: #b0b0b0; stroke-opacity: 0.4; stroke-width: 0.8"/>
     </g>
     <g id="line2d_16">
      <defs>
       <path id="m1916475d82" d="M 0 0 
L -3.5 0 
" style="stroke: #000000; stroke-width: 0.8"/>
      </defs>
      <g>
       <use xlink:href="#m1916475d82" x="64.804375" y="230.985554" style="stroke: #000000; stroke-width: 0.8"/>
      </g>
     </g>
     <g id="text_9">
      <!-- 0.0000 -->
      <g transform="translate(22.81375 234.784773) scale(0.1 -0.1)">
       <defs>
        <path id="DejaVuSans-2e" d="M 684 794 
L 1344 794 
L 1344 0 
L 684 0 
L 684 794 
z
" transform="scale(0.015625)"/>
       </defs>
       <use xlink:href="#DejaVuSans-30"/>
       <use xlink:href="#DejaVuSans-2e" transform="translate(63.623047 0)"/>
       <use xlink:href="#DejaVuSans-30" transform="translate(95.410156 0)"/>
       <use xlink:href="#DejaVuSans-30" transform="translate(159.033203 0)"/>
       <use xlink:href="#DejaVuSans-30" transform="translate(222.65625 0)"/>
       <use xlink:href="#DejaVuSans-30" transform="translate(286.279297 0)"/>
      </g>
     </g>
    </g>
    <g id="ytick_2">
     <g id="line2d_17">
      <path d="M 64.804375 201.067372 
L 426.385625 201.067372 
" clip-path="url(#p59909d4c2a)" style="fill: none; stroke-dasharray: 2.96,1.28; stroke-dashoffset: 0; stroke: #b0b0b0; stroke-opacity: 0.4; stroke-width: 0.8"/>
     </g>
     <g id="line2d_18">
      <g>
       <use xlink:href="#m1916475d82" x="64.804375" y="201.067372" style="stroke: #000000; stroke-width: 0.8"/>
      </g>
     </g>
     <g id="text_10">
      <!-- 0.0025 -->
      <g transform="translate(22.81375 204.866591) scale(0.1 -0.1)">
       <use xlink:href="#DejaVuSans-30"/>
       <use xlink:href="#DejaVuSans-2e" transform="translate(63.623047 0)"/>
       <use xlink:href="#DejaVuSans-30" transform="translate(95.410156 0)"/>
       <use xlink:href="#DejaVuSans-30" transform="translate(159.033203 0)"/>
       <use xlink:href="#DejaVuSans-32" transform="translate(222.65625 0)"/>
       <use xlink:href="#DejaVuSans-35" transform="translate(286.279297 0)"/>
      </g>
     </g>
    </g>
    <g id="ytick_3">
     <g id="line2d_19">
      <path d="M 64.804375 171.14919 
L 426.385625 171.14919 
" clip-path="url(#p59909d4c2a)" style="fill: none; stroke-dasharray: 2.96,1.28; stroke-dashoffset: 0; stroke: #b0b0b0; stroke-opacity: 0.4; stroke-width: 0.8"/>
     </g>
     <g id="line2d_20">
      <g>
       <use xlink:href="#m1916475d82" x="64.804375" y="171.14919" style="stroke: #000000; stroke-width: 0.8"/>
      </g>
     </g>
     <g id="text_11">
      <!-- 0.0050 -->
      <g transform="translate(22.81375 174.948409) scale(0.1 -0.1)">
       <use xlink:href="#DejaVuSans-30"/>
       <use xlink:href="#DejaVuSans-2e" transform="translate(63.623047 0)"/>
       <use xlink:href="#DejaVuSans-30" transform="translate(95.410156 0)"/>
       <use xlink:href="#DejaVuSans-30" transform="translate(159.033203 0)"/>
       <use xlink:href="#DejaVuSans-35" transform="translate(222.65625 0)"/>
       <use xlink:href="#DejaVuSans-30" transform="translate(286.279297 0)"/>
      </g>
     </g>
    </g>
    <g id="ytick_4">
     <g id="line2d_21">
      <path d="M 64.804375 141.231009 
L 426.385625 141.231009 
" clip-path="url(#p59909d4c2a)" style="fill: none; stroke-dasharray: 2.96,1.28; stroke-dashoffset: 0; stroke: #b0b0b0; stroke-opacity: 0.4; stroke-width: 0.8"/>
     </g>
     <g id="line2d_22">
      <g>
       <use xlink:href="#m1916475d82" x="64.804375" y="141.231009" style="stroke: #000000; stroke-width: 0.8"/>
      </g>
     </g>
     <g id="text_12">
      <!-- 0.0075 -->
      <g transform="translate(22.81375 145.030227) scale(0.1 -0.1)">
       <defs>
        <path id="DejaVuSans-37" d="M 525 4666 
L 3525 4666 
L 3525 4397 
L 1831 0 
L 1172 0 
L 2766 4134 
L 525 4134 
L 525 4666 
z
" transform="scale(0.015625)"/>
       </defs>
       <use xlink:href="#DejaVuSans-30"/>
       <use xlink:href="#DejaVuSans-2e" transform="translate(63.623047 0)"/>
       <use xlink:href="#DejaVuSans-30" transform="translate(95.410156 0)"/>
       <use xlink:href="#DejaVuSans-30" transform="translate(159.033203 0)"/>
       <use xlink:href="#DejaVuSans-37" transform="translate(222.65625 0)"/>
       <use xlink:href="#DejaVuSans-35" transform="translate(286.279297 0)"/>
      </g>
     </g>
    </g>
    <g id="ytick_5">
     <g id="line2d_23">
      <path d="M 64.804375 111.312827 
L 426.385625 111.312827 
" clip-path="url(#p59909d4c2a)" style="fill: none; stroke-dasharray: 2.96,1.28; stroke-dashoffset: 0; stroke: #b0b0b0; stroke-opacity: 0.4; stroke-width: 0.8"/>
     </g>
     <g id="line2d_24">
      <g>
       <use xlink:href="#m1916475d82" x="64.804375" y="111.312827" style="stroke: #000000; stroke-width: 0.8"/>
      </g>
     </g>
     <g id="text_13">
      <!-- 0.0100 -->
      <g transform="translate(22.81375 115.112045) scale(0.1 -0.1)">
       <use xlink:href="#DejaVuSans-30"/>
       <use xlink:href="#DejaVuSans-2e" transform="translate(63.623047 0)"/>
       <use xlink:href="#DejaVuSans-30" transform="translate(95.410156 0)"/>
       <use xlink:href="#DejaVuSans-31" transform="translate(159.033203 0)"/>
       <use xlink:href="#DejaVuSans-30" transform="translate(222.65625 0)"/>
       <use xlink:href="#DejaVuSans-30" transform="translate(286.279297 0)"/>
      </g>
     </g>
    </g>
    <g id="ytick_6">
     <g id="line2d_25">
      <path d="M 64.804375 81.394645 
L 426.385625 81.394645 
" clip-path="url(#p59909d4c2a)" style="fill: none; stroke-dasharray: 2.96,1.28; stroke-dashoffset: 0; stroke: #b0b0b0; stroke-opacity: 0.4; stroke-width: 0.8"/>
     </g>
     <g id="line2d_26">
      <g>
       <use xlink:href="#m1916475d82" x="64.804375" y="81.394645" style="stroke: #000000; stroke-width: 0.8"/>
      </g>
     </g>
     <g id="text_14">
      <!-- 0.0125 -->
      <g transform="translate(22.81375 85.193864) scale(0.1 -0.1)">
       <use xlink:href="#DejaVuSans-30"/>
       <use xlink:href="#DejaVuSans-2e" transform="translate(63.623047 0)"/>
       <use xlink:href="#DejaVuSans-30" transform="translate(95.410156 0)"/>
       <use xlink:href="#DejaVuSans-31" transform="translate(159.033203 0)"/>
       <use xlink:href="#DejaVuSans-32" transform="translate(222.65625 0)"/>
       <use xlink:href="#DejaVuSans-35" transform="translate(286.279297 0)"/>
      </g>
     </g>
    </g>
    <g id="ytick_7">
     <g id="line2d_27">
      <path d="M 64.804375 51.476463 
L 426.385625 51.476463 
" clip-path="url(#p59909d4c2a)" style="fill: none; stroke-dasharray: 2.96,1.28; stroke-dashoffset: 0; stroke: #b0b0b0; stroke-opacity: 0.4; stroke-width: 0.8"/>
     </g>
     <g id="line2d_28">
      <g>
       <use xlink:href="#m1916475d82" x="64.804375" y="51.476463" style="stroke: #000000; stroke-width: 0.8"/>
      </g>
     </g>
     <g id="text_15">
      <!-- 0.0150 -->
      <g transform="translate(22.81375 55.275682) scale(0.1 -0.1)">
       <use xlink:href="#DejaVuSans-30"/>
       <use xlink:href="#DejaVuSans-2e" transform="translate(63.623047 0)"/>
       <use xlink:href="#DejaVuSans-30" transform="translate(95.410156 0)"/>
       <use xlink:href="#DejaVuSans-31" transform="translate(159.033203 0)"/>
       <use xlink:href="#DejaVuSans-35" transform="translate(222.65625 0)"/>
       <use xlink:href="#DejaVuSans-30" transform="translate(286.279297 0)"/>
      </g>
     </g>
    </g>
    <g id="ytick_8">
     <g id="line2d_29">
      <path d="M 64.804375 21.558281 
L 426.385625 21.558281 
" clip-path="url(#p59909d4c2a)" style="fill: none; stroke-dasharray: 2.96,1.28; stroke-dashoffset: 0; stroke: #b0b0b0; stroke-opacity: 0.4; stroke-width: 0.8"/>
     </g>
     <g id="line2d_30">
      <g>
       <use xlink:href="#m1916475d82" x="64.804375" y="21.558281" style="stroke: #000000; stroke-width: 0.8"/>
      </g>
     </g>
     <g id="text_16">
      <!-- 0.0175 -->
      <g transform="translate(22.81375 25.3575) scale(0.1 -0.1)">
       <use xlink:href="#DejaVuSans-30"/>
       <use xlink:href="#DejaVuSans-2e" transform="translate(63.623047 0)"/>
       <use xlink:href="#DejaVuSans-30" transform="translate(95.410156 0)"/>
       <use xlink:href="#DejaVuSans-31" transform="translate(159.033203 0)"/>
       <use xlink:href="#DejaVuSans-37" transform="translate(222.65625 0)"/>
       <use xlink:href="#DejaVuSans-35" transform="translate(286.279297 0)"/>
      </g>
     </g>
    </g>
    <g id="text_17">
     <!-- f(x) -->
     <g transform="translate(16.318125 141.603594) rotate(-90) scale(0.12 -0.12)">
      <defs>
       <path id="DejaVuSans-66" d="M 2375 4863 
L 2375 4384 
L 1825 4384 
Q 1516 4384 1395 4259 
Q 1275 4134 1275 3809 
L 1275 3500 
L 2222 3500 
L 2222 3053 
L 1275 3053 
L 1275 0 
L 697 0 
L 697 3053 
L 147 3053 
L 147 3500 
L 697 3500 
L 697 3744 
Q 697 4328 969 4595 
Q 1241 4863 1831 4863 
L 2375 4863 
z
" transform="scale(0.015625)"/>
       <path id="DejaVuSans-78" d="M 3513 3500 
L 2247 1797 
L 3578 0 
L 2900 0 
L 1881 1375 
L 863 0 
L 184 0 
L 1544 1831 
L 300 3500 
L 978 3500 
L 1906 2253 
L 2834 3500 
L 3513 3500 
z
" transform="scale(0.015625)"/>
      </defs>
      <use xlink:href="#DejaVuSans-66"/>
      <use xlink:href="#DejaVuSans-28" transform="translate(35.205078 0)"/>
      <use xlink:href="#DejaVuSans-78" transform="translate(74.21875 0)"/>
      <use xlink:href="#DejaVuSans-29" transform="translate(133.398438 0)"/>
     </g>
    </g>
   </g>
   <g id="line2d_31">
    <path d="M 90.631607 31.531009 
L 400.558393 31.531009 
L 400.558393 31.531009 
" clip-path="url(#p59909d4c2a)" style="fill: none; stroke: #4682b4; stroke-width: 2.5; stroke-linecap: square"/>
   </g>
   <g id="line2d_32">
    <path d="M 245.595 240.958281 
L 245.595 21.558281 
" clip-path="url(#p59909d4c2a)" style="fill: none; stroke-dasharray: 9.25,4; stroke-dashoffset: 0; stroke: #cc7000; stroke-width: 2.5"/>
   </g>
   <g id="patch_3">
    <path d="M 64.804375 240.958281 
L 64.804375 21.558281 
" style="fill: none; stroke: #000000; stroke-width: 0.8; stroke-linejoin: miter; stroke-linecap: square"/>
   </g>
   <g id="patch_4">
    <path d="M 426.385625 240.958281 
L 426.385625 21.558281 
" style="fill: none; stroke: #000000; stroke-width: 0.8; stroke-linejoin: miter; stroke-linecap: square"/>
   </g>
   <g id="patch_5">
    <path d="M 64.804375 240.958281 
L 426.385625 240.958281 
" style="fill: none; stroke: #000000; stroke-width: 0.8; stroke-linejoin: miter; stroke-linecap: square"/>
   </g>
   <g id="patch_6">
    <path d="M 64.804375 21.558281 
L 426.385625 21.558281 
" style="fill: none; stroke: #000000; stroke-width: 0.8; stroke-linejoin: miter; stroke-linecap: square"/>
   </g>
   <g id="text_18">
    <!-- Uniform(0, 60): mean at midpoint -->
    <g style="fill: #808080" transform="translate(152.822031 15.558281) scale(0.11 -0.11)">
     <defs>
      <path id="DejaVuSans-55" d="M 556 4666 
L 1191 4666 
L 1191 1831 
Q 1191 1081 1462 751 
Q 1734 422 2344 422 
Q 2950 422 3222 751 
Q 3494 1081 3494 1831 
L 3494 4666 
L 4128 4666 
L 4128 1753 
Q 4128 841 3676 375 
Q 3225 -91 2344 -91 
Q 1459 -91 1007 375 
Q 556 841 556 1753 
L 556 4666 
z
" transform="scale(0.015625)"/>
      <path id="DejaVuSans-6f" d="M 1959 3097 
Q 1497 3097 1228 2736 
Q 959 2375 959 1747 
Q 959 1119 1226 758 
Q 1494 397 1959 397 
Q 2419 397 2687 759 
Q 2956 1122 2956 1747 
Q 2956 2369 2687 2733 
Q 2419 3097 1959 3097 
z
M 1959 3584 
Q 2709 3584 3137 3096 
Q 3566 2609 3566 1747 
Q 3566 888 3137 398 
Q 2709 -91 1959 -91 
Q 1206 -91 779 398 
Q 353 888 353 1747 
Q 353 2609 779 3096 
Q 1206 3584 1959 3584 
z
" transform="scale(0.015625)"/>
      <path id="DejaVuSans-72" d="M 2631 2963 
Q 2534 3019 2420 3045 
Q 2306 3072 2169 3072 
Q 1681 3072 1420 2755 
Q 1159 2438 1159 1844 
L 1159 0 
L 581 0 
L 581 3500 
L 1159 3500 
L 1159 2956 
Q 1341 3275 1631 3429 
Q 1922 3584 2338 3584 
Q 2397 3584 2469 3576 
Q 2541 3569 2628 3553 
L 2631 2963 
z
" transform="scale(0.015625)"/>
      <path id="DejaVuSans-2c" d="M 750 794 
L 1409 794 
L 1409 256 
L 897 -744 
L 494 -744 
L 750 256 
L 750 794 
z
" transform="scale(0.015625)"/>
      <path id="DejaVuSans-3a" d="M 750 794 
L 1409 794 
L 1409 0 
L 750 0 
L 750 794 
z
M 750 3309 
L 1409 3309 
L 1409 2516 
L 750 2516 
L 750 3309 
z
" transform="scale(0.015625)"/>
      <path id="DejaVuSans-64" d="M 2906 2969 
L 2906 4863 
L 3481 4863 
L 3481 0 
L 2906 0 
L 2906 525 
Q 2725 213 2448 61 
Q 2172 -91 1784 -91 
Q 1150 -91 751 415 
Q 353 922 353 1747 
Q 353 2572 751 3078 
Q 1150 3584 1784 3584 
Q 2172 3584 2448 3432 
Q 2725 3281 2906 2969 
z
M 947 1747 
Q 947 1113 1208 752 
Q 1469 391 1925 391 
Q 2381 391 2643 752 
Q 2906 1113 2906 1747 
Q 2906 2381 2643 2742 
Q 2381 3103 1925 3103 
Q 1469 3103 1208 2742 
Q 947 2381 947 1747 
z
" transform="scale(0.015625)"/>
      <path id="DejaVuSans-70" d="M 1159 525 
L 1159 -1331 
L 581 -1331 
L 581 3500 
L 1159 3500 
L 1159 2969 
Q 1341 3281 1617 3432 
Q 1894 3584 2278 3584 
Q 2916 3584 3314 3078 
Q 3713 2572 3713 1747 
Q 3713 922 3314 415 
Q 2916 -91 2278 -91 
Q 1894 -91 1617 61 
Q 1341 213 1159 525 
z
M 3116 1747 
Q 3116 2381 2855 2742 
Q 2594 3103 2138 3103 
Q 1681 3103 1420 2742 
Q 1159 2381 1159 1747 
Q 1159 1113 1420 752 
Q 1681 391 2138 391 
Q 2594 391 2855 752 
Q 3116 1113 3116 1747 
z
" transform="scale(0.015625)"/>
     </defs>
     <use xlink:href="#DejaVuSans-55"/>
     <use xlink:href="#DejaVuSans-6e" transform="translate(73.193359 0)"/>
     <use xlink:href="#DejaVuSans-69" transform="translate(136.572266 0)"/>
     <use xlink:href="#DejaVuSans-66" transform="translate(164.355469 0)"/>
     <use xlink:href="#DejaVuSans-6f" transform="translate(199.560547 0)"/>
     <use xlink:href="#DejaVuSans-72" transform="translate(260.742188 0)"/>
     <use xlink:href="#DejaVuSans-6d" transform="translate(300.105469 0)"/>
     <use xlink:href="#DejaVuSans-28" transform="translate(397.517578 0)"/>
     <use xlink:href="#DejaVuSans-30" transform="translate(436.53125 0)"/>
     <use xlink:href="#DejaVuSans-2c" transform="translate(500.154297 0)"/>
     <use xlink:href="#DejaVuSans-20" transform="translate(531.941406 0)"/>
     <use xlink:href="#DejaVuSans-36" transform="translate(563.728516 0)"/>
     <use xlink:href="#DejaVuSans-30" transform="translate(627.351562 0)"/>
     <use xlink:href="#DejaVuSans-29" transform="translate(690.974609 0)"/>
     <use xlink:href="#DejaVuSans-3a" transform="translate(729.988281 0)"/>
     <use xlink:href="#DejaVuSans-20" transform="translate(763.679688 0)"/>
     <use xlink:href="#DejaVuSans-6d" transform="translate(795.466797 0)"/>
     <use xlink:href="#DejaVuSans-65" transform="translate(892.878906 0)"/>
     <use xlink:href="#DejaVuSans-61" transform="translate(954.402344 0)"/>
     <use xlink:href="#DejaVuSans-6e" transform="translate(1015.681641 0)"/>
     <use xlink:href="#DejaVuSans-20" transform="translate(1079.060547 0)"/>
     <use xlink:href="#DejaVuSans-61" transform="translate(1110.847656 0)"/>
     <use xlink:href="#DejaVuSans-74" transform="translate(1172.126953 0)"/>
     <use xlink:href="#DejaVuSans-20" transform="translate(1211.335938 0)"/>
     <use xlink:href="#DejaVuSans-6d" transform="translate(1243.123047 0)"/>
     <use xlink:href="#DejaVuSans-69" transform="translate(1340.535156 0)"/>
     <use xlink:href="#DejaVuSans-64" transform="translate(1368.318359 0)"/>
     <use xlink:href="#DejaVuSans-70" transform="translate(1431.794922 0)"/>
     <use xlink:href="#DejaVuSans-6f" transform="translate(1495.271484 0)"/>
     <use xlink:href="#DejaVuSans-69" transform="translate(1556.453125 0)"/>
     <use xlink:href="#DejaVuSans-6e" transform="translate(1584.236328 0)"/>
     <use xlink:href="#DejaVuSans-74" transform="translate(1647.615234 0)"/>
    </g>
   </g>
   <g id="legend_1">
    <g id="patch_7">
     <path d="M 341.285625 140.097344 
L 419.385625 140.097344 
Q 421.385625 140.097344 421.385625 138.097344 
L 421.385625 124.419219 
Q 421.385625 122.419219 419.385625 122.419219 
L 341.285625 122.419219 
Q 339.285625 122.419219 339.285625 124.419219 
L 339.285625 138.097344 
Q 339.285625 140.097344 341.285625 140.097344 
z
" style="fill: #ffffff; opacity: 0.8; stroke: #cccccc; stroke-linejoin: miter"/>
    </g>
    <g id="line2d_33">
     <path d="M 343.285625 130.517656 
L 353.285625 130.517656 
L 363.285625 130.517656 
" style="fill: none; stroke-dasharray: 9.25,4; stroke-dashoffset: 0; stroke: #cc7000; stroke-width: 2.5"/>
    </g>
    <g id="text_19">
     <!-- $\mathbb{E}[X] = 30$ -->
     <g transform="translate(371.285625 134.017656) scale(0.1 -0.1)">
      <defs>
       <path id="STIXNonUnicode-Italic-e156" d="M 4250 4179 
L 4192 3942 
L 2150 3942 
L 1709 2266 
L 3514 2266 
L 3443 2029 
L 1645 2029 
L 1165 237 
L 3443 237 
L 3392 0 
L 109 0 
L 1229 4179 
L 4250 4179 
z
M 1914 3942 
L 1414 3942 
L 416 237 
L 928 237 
L 1914 3942 
z
" transform="scale(0.015625)"/>
       <path id="DejaVuSans-5b" d="M 550 4863 
L 1875 4863 
L 1875 4416 
L 1125 4416 
L 1125 -397 
L 1875 -397 
L 1875 -844 
L 550 -844 
L 550 4863 
z
" transform="scale(0.015625)"/>
       <path id="DejaVuSans-Oblique-58" d="M 878 4666 
L 1516 4666 
L 2316 2981 
L 3763 4666 
L 4500 4666 
L 2578 2438 
L 3738 0 
L 3103 0 
L 2163 1966 
L 459 0 
L -275 0 
L 1906 2509 
L 878 4666 
z
" transform="scale(0.015625)"/>
       <path id="DejaVuSans-5d" d="M 1947 4863 
L 1947 -844 
L 622 -844 
L 622 -397 
L 1369 -397 
L 1369 4416 
L 622 4416 
L 622 4863 
L 1947 4863 
z
" transform="scale(0.015625)"/>
       <path id="DejaVuSans-3d" d="M 678 2906 
L 4684 2906 
L 4684 2381 
L 678 2381 
L 678 2906 
z
M 678 1631 
L 4684 1631 
L 4684 1100 
L 678 1100 
L 678 1631 
z
" transform="scale(0.015625)"/>
      </defs>
      <use xlink:href="#STIXNonUnicode-Italic-e156" transform="translate(0 0.015625)"/>
      <use xlink:href="#DejaVuSans-5b" transform="translate(63.899994 0.015625)"/>
      <use xlink:href="#DejaVuSans-Oblique-58" transform="translate(102.913666 0.015625)"/>
      <use xlink:href="#DejaVuSans-5d" transform="translate(171.419525 0.015625)"/>
      <use xlink:href="#DejaVuSans-3d" transform="translate(229.915619 0.015625)"/>
      <use xlink:href="#DejaVuSans-33" transform="translate(333.187103 0.015625)"/>
      <use xlink:href="#DejaVuSans-30" transform="translate(396.81015 0.015625)"/>
     </g>
    </g>
   </g>
  </g>
  <g id="axes_2">
   <g id="patch_8">
    <path d="M 481.841875 240.958281 
L 843.423125 240.958281 
L 843.423125 21.558281 
L 481.841875 21.558281 
z
" style="fill: #ffffff"/>
   </g>
   <g id="FillBetweenPolyCollection_2">
    <defs>
     <path id="mc66afef5b7" d="M 481.841875 -49.464602 
L 481.841875 -49.464602 
L 483.051177 -52.342801 
L 484.260479 -57.337613 
L 485.469781 -63.452512 
L 486.679082 -70.292048 
L 487.888384 -77.614456 
L 489.097686 -85.251422 
L 490.306988 -93.077846 
L 491.51629 -100.997126 
L 492.725592 -108.932871 
L 493.934893 -116.823758 
L 495.144195 -124.620101 
L 496.353497 -132.281452 
L 497.562799 -139.774836 
L 498.772101 -147.073429 
L 499.981403 -154.155525 
L 501.190704 -161.003722 
L 502.400006 -167.604264 
L 503.609308 -173.9465 
L 504.81861 -180.022439 
L 506.027912 -185.826375 
L 507.237214 -191.354569 
L 508.446515 -196.60498 
L 509.655817 -201.577031 
L 510.865119 -206.271409 
L 512.074421 -210.68989 
L 513.283723 -214.835191 
L 514.493025 -218.71083 
L 515.702327 -222.321016 
L 516.911628 -225.670544 
L 518.12093 -228.764704 
L 519.330232 -231.6092 
L 520.539534 -234.210083 
L 521.748836 -236.573683 
L 522.958138 -238.70656 
L 524.167439 -240.615448 
L 525.376741 -242.307216 
L 526.586043 -243.788828 
L 527.795345 -245.067307 
L 529.004647 -246.149707 
L 530.213949 -247.043087 
L 531.42325 -247.754482 
L 532.632552 -248.290888 
L 533.841854 -248.659243 
L 535.051156 -248.866405 
L 536.260458 -248.919148 
L 537.46976 -248.824139 
L 538.679061 -248.587937 
L 539.888363 -248.216977 
L 541.097665 -247.717567 
L 542.306967 -247.09588 
L 543.516269 -246.357947 
L 544.725571 -245.509656 
L 545.934872 -244.556745 
L 547.144174 -243.504803 
L 548.353476 -242.359265 
L 549.562778 -241.125412 
L 550.77208 -239.80837 
L 551.981382 -238.413112 
L 553.190684 -236.944453 
L 554.399985 -235.407056 
L 555.609287 -233.805431 
L 556.818589 -232.143935 
L 558.027891 -230.426778 
L 559.237193 -228.658017 
L 560.446495 -226.841568 
L 561.655796 -224.981199 
L 562.865098 -223.080541 
L 564.0744 -221.143082 
L 565.283702 -219.172177 
L 566.493004 -217.171046 
L 567.702306 -215.142782 
L 568.911607 -213.090347 
L 570.120909 -211.016582 
L 571.330211 -208.924204 
L 572.539513 -206.815814 
L 573.748815 -204.693897 
L 574.958117 -202.560828 
L 576.167418 -200.418872 
L 577.37672 -198.270189 
L 578.586022 -196.116835 
L 579.795324 -193.96077 
L 581.004626 -191.803855 
L 582.213928 -189.647858 
L 583.42323 -187.494458 
L 584.632531 -185.345245 
L 585.841833 -183.201727 
L 587.051135 -181.065328 
L 588.260437 -178.937395 
L 589.469739 -176.819197 
L 590.679041 -174.711932 
L 591.888342 -172.616724 
L 593.097644 -170.534633 
L 594.306946 -168.46665 
L 595.516248 -166.413705 
L 596.72555 -164.376665 
L 597.934852 -162.356342 
L 599.144153 -160.353488 
L 600.353455 -158.368803 
L 601.562757 -156.402935 
L 602.772059 -154.456484 
L 603.981361 -152.529999 
L 605.190663 -150.623987 
L 606.399964 -148.738908 
L 607.609266 -146.875183 
L 608.818568 -145.033191 
L 610.02787 -143.213274 
L 611.237172 -141.415737 
L 612.446474 -139.64085 
L 613.655776 -137.88885 
L 614.865077 -136.159943 
L 616.074379 -134.454303 
L 617.283681 -132.772076 
L 618.492983 -131.113382 
L 619.702285 -129.478313 
L 620.911587 -127.866937 
L 622.120888 -126.279299 
L 623.33019 -124.715421 
L 624.539492 -123.175304 
L 625.748794 -121.65893 
L 626.958096 -120.166262 
L 628.167398 -118.697243 
L 629.376699 -117.251801 
L 630.586001 -115.829848 
L 631.795303 -114.431282 
L 633.004605 -113.055984 
L 634.213907 -111.703825 
L 635.423209 -110.374662 
L 636.63251 -109.068341 
L 637.841812 -107.784696 
L 639.051114 -106.523552 
L 640.260416 -105.284726 
L 641.469718 -104.068022 
L 642.67902 -102.873241 
L 643.888321 -101.700174 
L 645.097623 -100.548603 
L 646.306925 -99.418309 
L 647.516227 -98.309061 
L 648.725529 -97.220629 
L 649.934831 -96.152773 
L 651.144133 -95.105251 
L 652.353434 -94.077818 
L 653.562736 -93.070223 
L 654.772038 -92.082215 
L 655.98134 -91.113537 
L 657.190642 -90.163933 
L 658.399944 -89.233142 
L 659.609245 -88.320904 
L 660.818547 -87.426957 
L 662.027849 -86.551036 
L 663.237151 -85.692877 
L 664.446453 -84.852217 
L 665.655755 -84.02879 
L 666.865056 -83.222331 
L 668.074358 -82.432576 
L 669.28366 -81.65926 
L 670.492962 -80.902122 
L 671.702264 -80.160897 
L 672.911566 -79.435324 
L 674.120867 -78.725144 
L 675.330169 -78.030097 
L 676.539471 -77.349926 
L 677.748773 -76.684375 
L 678.958075 -76.033191 
L 680.167377 -75.396121 
L 681.376679 -74.772915 
L 682.58598 -74.163326 
L 683.795282 -73.567108 
L 685.004584 -72.984017 
L 686.213886 -72.413812 
L 687.423188 -71.856256 
L 688.63249 -71.311111 
L 689.841791 -70.778146 
L 691.051093 -70.257128 
L 692.260395 -69.74783 
L 693.469697 -69.250026 
L 694.678999 -68.763495 
L 695.888301 -68.288016 
L 697.097602 -67.823373 
L 698.306904 -67.369351 
L 699.516206 -66.925741 
L 700.725508 -66.492332 
L 701.93481 -66.068922 
L 703.144112 -65.655306 
L 704.353413 -65.251287 
L 705.562715 -64.856667 
L 706.772017 -64.471254 
L 707.981319 -64.094858 
L 709.190621 -63.72729 
L 710.399923 -63.368367 
L 711.609224 -63.017907 
L 712.818526 -62.675732 
L 714.027828 -62.341666 
L 715.23713 -62.015537 
L 716.446432 -61.697175 
L 717.655734 -61.386413 
L 718.865036 -61.083088 
L 720.074337 -60.787038 
L 721.283639 -60.498105 
L 722.492941 -60.216134 
L 723.702243 -59.940972 
L 724.911545 -59.672469 
L 726.120847 -59.410479 
L 727.330148 -59.154857 
L 728.53945 -58.90546 
L 729.748752 -58.662151 
L 730.958054 -58.424793 
L 732.167356 -58.193251 
L 733.376658 -57.967396 
L 734.585959 -57.747097 
L 735.795261 -57.532228 
L 737.004563 -57.322667 
L 738.213865 -57.118291 
L 739.423167 -56.918982 
L 740.632469 -56.724623 
L 741.84177 -56.5351 
L 743.051072 -56.350302 
L 744.260374 -56.170117 
L 745.469676 -55.99444 
L 746.678978 -55.823164 
L 747.88828 -55.656187 
L 749.097582 -55.493409 
L 750.306883 -55.334729 
L 751.516185 -55.180052 
L 752.725487 -55.029283 
L 753.934789 -54.882329 
L 755.144091 -54.7391 
L 756.353393 -54.599506 
L 757.562694 -54.463462 
L 758.771996 -54.330881 
L 759.981298 -54.201681 
L 761.1906 -54.075781 
L 762.399902 -53.9531 
L 763.609204 -53.833562 
L 764.818505 -53.71709 
L 766.027807 -53.603609 
L 767.237109 -53.493047 
L 768.446411 -53.385333 
L 769.655713 -53.280398 
L 770.865015 -53.178172 
L 772.074316 -53.07859 
L 773.283618 -52.981587 
L 774.49292 -52.887099 
L 775.702222 -52.795065 
L 776.911524 -52.705423 
L 778.120826 -52.618114 
L 779.330128 -52.533081 
L 780.539429 -52.450267 
L 781.748731 -52.369616 
L 782.958033 -52.291075 
L 784.167335 -52.214591 
L 785.376637 -52.140112 
L 786.585939 -52.067589 
L 787.79524 -51.996971 
L 789.004542 -51.928212 
L 790.213844 -51.861263 
L 791.423146 -51.796081 
L 792.632448 -51.732619 
L 793.84175 -51.670835 
L 795.051051 -51.610685 
L 796.260353 -51.552128 
L 797.469655 -51.495124 
L 798.678957 -51.439634 
L 799.888259 -51.385617 
L 801.097561 -51.333038 
L 802.306862 -51.281859 
L 803.516164 -51.232043 
L 804.725466 -51.183557 
L 805.934768 -51.136366 
L 807.14407 -51.090436 
L 808.353372 -51.045736 
L 809.562673 -51.002233 
L 810.771975 -50.959896 
L 811.981277 -50.918695 
L 813.190579 -50.878601 
L 814.399881 -50.839586 
L 815.609183 -50.80162 
L 816.818485 -50.764677 
L 818.027786 -50.72873 
L 819.237088 -50.693753 
L 820.44639 -50.659721 
L 821.655692 -50.626609 
L 822.864994 -50.594392 
L 824.074296 -50.563049 
L 825.283597 -50.532554 
L 826.492899 -50.502888 
L 827.702201 -50.474026 
L 828.911503 -50.445949 
L 830.120805 -50.418635 
L 831.330107 -50.392065 
L 832.539408 -50.366219 
L 833.74871 -50.341077 
L 834.958012 -50.316621 
L 836.167314 -50.292834 
L 837.376616 -50.269696 
L 838.585918 -50.247191 
L 839.795219 -50.225302 
L 841.004521 -50.204012 
L 842.213823 -50.183306 
L 843.423125 -50.163169 
L 843.423125 -49.464602 
L 843.423125 -49.464602 
L 842.213823 -49.464602 
L 841.004521 -49.464602 
L 839.795219 -49.464602 
L 838.585918 -49.464602 
L 837.376616 -49.464602 
L 836.167314 -49.464602 
L 834.958012 -49.464602 
L 833.74871 -49.464602 
L 832.539408 -49.464602 
L 831.330107 -49.464602 
L 830.120805 -49.464602 
L 828.911503 -49.464602 
L 827.702201 -49.464602 
L 826.492899 -49.464602 
L 825.283597 -49.464602 
L 824.074296 -49.464602 
L 822.864994 -49.464602 
L 821.655692 -49.464602 
L 820.44639 -49.464602 
L 819.237088 -49.464602 
L 818.027786 -49.464602 
L 816.818485 -49.464602 
L 815.609183 -49.464602 
L 814.399881 -49.464602 
L 813.190579 -49.464602 
L 811.981277 -49.464602 
L 810.771975 -49.464602 
L 809.562673 -49.464602 
L 808.353372 -49.464602 
L 807.14407 -49.464602 
L 805.934768 -49.464602 
L 804.725466 -49.464602 
L 803.516164 -49.464602 
L 802.306862 -49.464602 
L 801.097561 -49.464602 
L 799.888259 -49.464602 
L 798.678957 -49.464602 
L 797.469655 -49.464602 
L 796.260353 -49.464602 
L 795.051051 -49.464602 
L 793.84175 -49.464602 
L 792.632448 -49.464602 
L 791.423146 -49.464602 
L 790.213844 -49.464602 
L 789.004542 -49.464602 
L 787.79524 -49.464602 
L 786.585939 -49.464602 
L 785.376637 -49.464602 
L 784.167335 -49.464602 
L 782.958033 -49.464602 
L 781.748731 -49.464602 
L 780.539429 -49.464602 
L 779.330128 -49.464602 
L 778.120826 -49.464602 
L 776.911524 -49.464602 
L 775.702222 -49.464602 
L 774.49292 -49.464602 
L 773.283618 -49.464602 
L 772.074316 -49.464602 
L 770.865015 -49.464602 
L 769.655713 -49.464602 
L 768.446411 -49.464602 
L 767.237109 -49.464602 
L 766.027807 -49.464602 
L 764.818505 -49.464602 
L 763.609204 -49.464602 
L 762.399902 -49.464602 
L 761.1906 -49.464602 
L 759.981298 -49.464602 
L 758.771996 -49.464602 
L 757.562694 -49.464602 
L 756.353393 -49.464602 
L 755.144091 -49.464602 
L 753.934789 -49.464602 
L 752.725487 -49.464602 
L 751.516185 -49.464602 
L 750.306883 -49.464602 
L 749.097582 -49.464602 
L 747.88828 -49.464602 
L 746.678978 -49.464602 
L 745.469676 -49.464602 
L 744.260374 -49.464602 
L 743.051072 -49.464602 
L 741.84177 -49.464602 
L 740.632469 -49.464602 
L 739.423167 -49.464602 
L 738.213865 -49.464602 
L 737.004563 -49.464602 
L 735.795261 -49.464602 
L 734.585959 -49.464602 
L 733.376658 -49.464602 
L 732.167356 -49.464602 
L 730.958054 -49.464602 
L 729.748752 -49.464602 
L 728.53945 -49.464602 
L 727.330148 -49.464602 
L 726.120847 -49.464602 
L 724.911545 -49.464602 
L 723.702243 -49.464602 
L 722.492941 -49.464602 
L 721.283639 -49.464602 
L 720.074337 -49.464602 
L 718.865036 -49.464602 
L 717.655734 -49.464602 
L 716.446432 -49.464602 
L 715.23713 -49.464602 
L 714.027828 -49.464602 
L 712.818526 -49.464602 
L 711.609224 -49.464602 
L 710.399923 -49.464602 
L 709.190621 -49.464602 
L 707.981319 -49.464602 
L 706.772017 -49.464602 
L 705.562715 -49.464602 
L 704.353413 -49.464602 
L 703.144112 -49.464602 
L 701.93481 -49.464602 
L 700.725508 -49.464602 
L 699.516206 -49.464602 
L 698.306904 -49.464602 
L 697.097602 -49.464602 
L 695.888301 -49.464602 
L 694.678999 -49.464602 
L 693.469697 -49.464602 
L 692.260395 -49.464602 
L 691.051093 -49.464602 
L 689.841791 -49.464602 
L 688.63249 -49.464602 
L 687.423188 -49.464602 
L 686.213886 -49.464602 
L 685.004584 -49.464602 
L 683.795282 -49.464602 
L 682.58598 -49.464602 
L 681.376679 -49.464602 
L 680.167377 -49.464602 
L 678.958075 -49.464602 
L 677.748773 -49.464602 
L 676.539471 -49.464602 
L 675.330169 -49.464602 
L 674.120867 -49.464602 
L 672.911566 -49.464602 
L 671.702264 -49.464602 
L 670.492962 -49.464602 
L 669.28366 -49.464602 
L 668.074358 -49.464602 
L 666.865056 -49.464602 
L 665.655755 -49.464602 
L 664.446453 -49.464602 
L 663.237151 -49.464602 
L 662.027849 -49.464602 
L 660.818547 -49.464602 
L 659.609245 -49.464602 
L 658.399944 -49.464602 
L 657.190642 -49.464602 
L 655.98134 -49.464602 
L 654.772038 -49.464602 
L 653.562736 -49.464602 
L 652.353434 -49.464602 
L 651.144133 -49.464602 
L 649.934831 -49.464602 
L 648.725529 -49.464602 
L 647.516227 -49.464602 
L 646.306925 -49.464602 
L 645.097623 -49.464602 
L 643.888321 -49.464602 
L 642.67902 -49.464602 
L 641.469718 -49.464602 
L 640.260416 -49.464602 
L 639.051114 -49.464602 
L 637.841812 -49.464602 
L 636.63251 -49.464602 
L 635.423209 -49.464602 
L 634.213907 -49.464602 
L 633.004605 -49.464602 
L 631.795303 -49.464602 
L 630.586001 -49.464602 
L 629.376699 -49.464602 
L 628.167398 -49.464602 
L 626.958096 -49.464602 
L 625.748794 -49.464602 
L 624.539492 -49.464602 
L 623.33019 -49.464602 
L 622.120888 -49.464602 
L 620.911587 -49.464602 
L 619.702285 -49.464602 
L 618.492983 -49.464602 
L 617.283681 -49.464602 
L 616.074379 -49.464602 
L 614.865077 -49.464602 
L 613.655776 -49.464602 
L 612.446474 -49.464602 
L 611.237172 -49.464602 
L 610.02787 -49.464602 
L 608.818568 -49.464602 
L 607.609266 -49.464602 
L 606.399964 -49.464602 
L 605.190663 -49.464602 
L 603.981361 -49.464602 
L 602.772059 -49.464602 
L 601.562757 -49.464602 
L 600.353455 -49.464602 
L 599.144153 -49.464602 
L 597.934852 -49.464602 
L 596.72555 -49.464602 
L 595.516248 -49.464602 
L 594.306946 -49.464602 
L 593.097644 -49.464602 
L 591.888342 -49.464602 
L 590.679041 -49.464602 
L 589.469739 -49.464602 
L 588.260437 -49.464602 
L 587.051135 -49.464602 
L 585.841833 -49.464602 
L 584.632531 -49.464602 
L 583.42323 -49.464602 
L 582.213928 -49.464602 
L 581.004626 -49.464602 
L 579.795324 -49.464602 
L 578.586022 -49.464602 
L 577.37672 -49.464602 
L 576.167418 -49.464602 
L 574.958117 -49.464602 
L 573.748815 -49.464602 
L 572.539513 -49.464602 
L 571.330211 -49.464602 
L 570.120909 -49.464602 
L 568.911607 -49.464602 
L 567.702306 -49.464602 
L 566.493004 -49.464602 
L 565.283702 -49.464602 
L 564.0744 -49.464602 
L 562.865098 -49.464602 
L 561.655796 -49.464602 
L 560.446495 -49.464602 
L 559.237193 -49.464602 
L 558.027891 -49.464602 
L 556.818589 -49.464602 
L 555.609287 -49.464602 
L 554.399985 -49.464602 
L 553.190684 -49.464602 
L 551.981382 -49.464602 
L 550.77208 -49.464602 
L 549.562778 -49.464602 
L 548.353476 -49.464602 
L 547.144174 -49.464602 
L 545.934872 -49.464602 
L 544.725571 -49.464602 
L 543.516269 -49.464602 
L 542.306967 -49.464602 
L 541.097665 -49.464602 
L 539.888363 -49.464602 
L 538.679061 -49.464602 
L 537.46976 -49.464602 
L 536.260458 -49.464602 
L 535.051156 -49.464602 
L 533.841854 -49.464602 
L 532.632552 -49.464602 
L 531.42325 -49.464602 
L 530.213949 -49.464602 
L 529.004647 -49.464602 
L 527.795345 -49.464602 
L 526.586043 -49.464602 
L 525.376741 -49.464602 
L 524.167439 -49.464602 
L 522.958138 -49.464602 
L 521.748836 -49.464602 
L 520.539534 -49.464602 
L 519.330232 -49.464602 
L 518.12093 -49.464602 
L 516.911628 -49.464602 
L 515.702327 -49.464602 
L 514.493025 -49.464602 
L 513.283723 -49.464602 
L 512.074421 -49.464602 
L 510.865119 -49.464602 
L 509.655817 -49.464602 
L 508.446515 -49.464602 
L 507.237214 -49.464602 
L 506.027912 -49.464602 
L 504.81861 -49.464602 
L 503.609308 -49.464602 
L 502.400006 -49.464602 
L 501.190704 -49.464602 
L 499.981403 -49.464602 
L 498.772101 -49.464602 
L 497.562799 -49.464602 
L 496.353497 -49.464602 
L 495.144195 -49.464602 
L 493.934893 -49.464602 
L 492.725592 -49.464602 
L 491.51629 -49.464602 
L 490.306988 -49.464602 
L 489.097686 -49.464602 
L 487.888384 -49.464602 
L 486.679082 -49.464602 
L 485.469781 -49.464602 
L 484.260479 -49.464602 
L 483.051177 -49.464602 
L 481.841875 -49.464602 
z
" style="stroke: #4682b4; stroke-opacity: 0.15"/>
    </defs>
    <g clip-path="url(#pe676ccc714)">
     <use xlink:href="#mc66afef5b7" x="0" y="280.450156" style="fill: #4682b4; fill-opacity: 0.15; stroke: #4682b4; stroke-opacity: 0.15"/>
    </g>
   </g>
   <g id="matplotlib.axis_3">
    <g id="xtick_8">
     <g id="line2d_34">
      <path d="M 481.841875 240.958281 
L 481.841875 21.558281 
" clip-path="url(#pe676ccc714)" style="fill: none; stroke-dasharray: 2.96,1.28; stroke-dashoffset: 0; stroke: #b0b0b0; stroke-opacity: 0.4; stroke-width: 0.8"/>
     </g>
     <g id="line2d_35">
      <g>
       <use xlink:href="#md71cab55c1" x="481.841875" y="240.958281" style="stroke: #000000; stroke-width: 0.8"/>
      </g>
     </g>
     <g id="text_20">
      <!-- 0 -->
      <g transform="translate(478.660625 255.556719) scale(0.1 -0.1)">
       <use xlink:href="#DejaVuSans-30"/>
      </g>
     </g>
    </g>
    <g id="xtick_9">
     <g id="line2d_36">
      <path d="M 554.158125 240.958281 
L 554.158125 21.558281 
" clip-path="url(#pe676ccc714)" style="fill: none; stroke-dasharray: 2.96,1.28; stroke-dashoffset: 0; stroke: #b0b0b0; stroke-opacity: 0.4; stroke-width: 0.8"/>
     </g>
     <g id="line2d_37">
      <g>
       <use xlink:href="#md71cab55c1" x="554.158125" y="240.958281" style="stroke: #000000; stroke-width: 0.8"/>
      </g>
     </g>
     <g id="text_21">
      <!-- 2 -->
      <g transform="translate(550.976875 255.556719) scale(0.1 -0.1)">
       <use xlink:href="#DejaVuSans-32"/>
      </g>
     </g>
    </g>
    <g id="xtick_10">
     <g id="line2d_38">
      <path d="M 626.474375 240.958281 
L 626.474375 21.558281 
" clip-path="url(#pe676ccc714)" style="fill: none; stroke-dasharray: 2.96,1.28; stroke-dashoffset: 0; stroke: #b0b0b0; stroke-opacity: 0.4; stroke-width: 0.8"/>
     </g>
     <g id="line2d_39">
      <g>
       <use xlink:href="#md71cab55c1" x="626.474375" y="240.958281" style="stroke: #000000; stroke-width: 0.8"/>
      </g>
     </g>
     <g id="text_22">
      <!-- 4 -->
      <g transform="translate(623.293125 255.556719) scale(0.1 -0.1)">
       <use xlink:href="#DejaVuSans-34"/>
      </g>
     </g>
    </g>
    <g id="xtick_11">
     <g id="line2d_40">
      <path d="M 698.790625 240.958281 
L 698.790625 21.558281 
" clip-path="url(#pe676ccc714)" style="fill: none; stroke-dasharray: 2.96,1.28; stroke-dashoffset: 0; stroke: #b0b0b0; stroke-opacity: 0.4; stroke-width: 0.8"/>
     </g>
     <g id="line2d_41">
      <g>
       <use xlink:href="#md71cab55c1" x="698.790625" y="240.958281" style="stroke: #000000; stroke-width: 0.8"/>
      </g>
     </g>
     <g id="text_23">
      <!-- 6 -->
      <g transform="translate(695.609375 255.556719) scale(0.1 -0.1)">
       <use xlink:href="#DejaVuSans-36"/>
      </g>
     </g>
    </g>
    <g id="xtick_12">
     <g id="line2d_42">
      <path d="M 771.106875 240.958281 
L 771.106875 21.558281 
" clip-path="url(#pe676ccc714)" style="fill: none; stroke-dasharray: 2.96,1.28; stroke-dashoffset: 0; stroke: #b0b0b0; stroke-opacity: 0.4; stroke-width: 0.8"/>
     </g>
     <g id="line2d_43">
      <g>
       <use xlink:href="#md71cab55c1" x="771.106875" y="240.958281" style="stroke: #000000; stroke-width: 0.8"/>
      </g>
     </g>
     <g id="text_24">
      <!-- 8 -->
      <g transform="translate(767.925625 255.556719) scale(0.1 -0.1)">
       <defs>
        <path id="DejaVuSans-38" d="M 2034 2216 
Q 1584 2216 1326 1975 
Q 1069 1734 1069 1313 
Q 1069 891 1326 650 
Q 1584 409 2034 409 
Q 2484 409 2743 651 
Q 3003 894 3003 1313 
Q 3003 1734 2745 1975 
Q 2488 2216 2034 2216 
z
M 1403 2484 
Q 997 2584 770 2862 
Q 544 3141 544 3541 
Q 544 4100 942 4425 
Q 1341 4750 2034 4750 
Q 2731 4750 3128 4425 
Q 3525 4100 3525 3541 
Q 3525 3141 3298 2862 
Q 3072 2584 2669 2484 
Q 3125 2378 3379 2068 
Q 3634 1759 3634 1313 
Q 3634 634 3220 271 
Q 2806 -91 2034 -91 
Q 1263 -91 848 271 
Q 434 634 434 1313 
Q 434 1759 690 2068 
Q 947 2378 1403 2484 
z
M 1172 3481 
Q 1172 3119 1398 2916 
Q 1625 2713 2034 2713 
Q 2441 2713 2670 2916 
Q 2900 3119 2900 3481 
Q 2900 3844 2670 4047 
Q 2441 4250 2034 4250 
Q 1625 4250 1398 4047 
Q 1172 3844 1172 3481 
z
" transform="scale(0.015625)"/>
       </defs>
       <use xlink:href="#DejaVuSans-38"/>
      </g>
     </g>
    </g>
    <g id="xtick_13">
     <g id="line2d_44">
      <path d="M 843.423125 240.958281 
L 843.423125 21.558281 
" clip-path="url(#pe676ccc714)" style="fill: none; stroke-dasharray: 2.96,1.28; stroke-dashoffset: 0; stroke: #b0b0b0; stroke-opacity: 0.4; stroke-width: 0.8"/>
     </g>
     <g id="line2d_45">
      <g>
       <use xlink:href="#md71cab55c1" x="843.423125" y="240.958281" style="stroke: #000000; stroke-width: 0.8"/>
      </g>
     </g>
     <g id="text_25">
      <!-- 10 -->
      <g transform="translate(837.060625 255.556719) scale(0.1 -0.1)">
       <use xlink:href="#DejaVuSans-31"/>
       <use xlink:href="#DejaVuSans-30" transform="translate(63.623047 0)"/>
      </g>
     </g>
    </g>
    <g id="text_26">
     <!-- Wait time (minutes) -->
     <g transform="translate(603.049688 270.754531) scale(0.12 -0.12)">
      <use xlink:href="#DejaVuSans-57"/>
      <use xlink:href="#DejaVuSans-61" transform="translate(92.501953 0)"/>
      <use xlink:href="#DejaVuSans-69" transform="translate(153.78125 0)"/>
      <use xlink:href="#DejaVuSans-74" transform="translate(181.564453 0)"/>
      <use xlink:href="#DejaVuSans-20" transform="translate(220.773438 0)"/>
      <use xlink:href="#DejaVuSans-74" transform="translate(252.560547 0)"/>
      <use xlink:href="#DejaVuSans-69" transform="translate(291.769531 0)"/>
      <use xlink:href="#DejaVuSans-6d" transform="translate(319.552734 0)"/>
      <use xlink:href="#DejaVuSans-65" transform="translate(416.964844 0)"/>
      <use xlink:href="#DejaVuSans-20" transform="translate(478.488281 0)"/>
      <use xlink:href="#DejaVuSans-28" transform="translate(510.275391 0)"/>
      <use xlink:href="#DejaVuSans-6d" transform="translate(549.289062 0)"/>
      <use xlink:href="#DejaVuSans-69" transform="translate(646.701172 0)"/>
      <use xlink:href="#DejaVuSans-6e" transform="translate(674.484375 0)"/>
      <use xlink:href="#DejaVuSans-75" transform="translate(737.863281 0)"/>
      <use xlink:href="#DejaVuSans-74" transform="translate(801.242188 0)"/>
      <use xlink:href="#DejaVuSans-65" transform="translate(840.451172 0)"/>
      <use xlink:href="#DejaVuSans-73" transform="translate(901.974609 0)"/>
      <use xlink:href="#DejaVuSans-29" transform="translate(954.074219 0)"/>
     </g>
    </g>
   </g>
   <g id="matplotlib.axis_4">
    <g id="ytick_9">
     <g id="line2d_46">
      <path d="M 481.841875 230.985554 
L 843.423125 230.985554 
" clip-path="url(#pe676ccc714)" style="fill: none; stroke-dasharray: 2.96,1.28; stroke-dashoffset: 0; stroke: #b0b0b0; stroke-opacity: 0.4; stroke-width: 0.8"/>
     </g>
     <g id="line2d_47">
      <g>
       <use xlink:href="#m1916475d82" x="481.841875" y="230.985554" style="stroke: #000000; stroke-width: 0.8"/>
      </g>
     </g>
     <g id="text_27">
      <!-- 0.00 -->
      <g transform="translate(452.57625 234.784773) scale(0.1 -0.1)">
       <use xlink:href="#DejaVuSans-30"/>
       <use xlink:href="#DejaVuSans-2e" transform="translate(63.623047 0)"/>
       <use xlink:href="#DejaVuSans-30" transform="translate(95.410156 0)"/>
       <use xlink:href="#DejaVuSans-30" transform="translate(159.033203 0)"/>
      </g>
     </g>
    </g>
    <g id="ytick_10">
     <g id="line2d_48">
      <path d="M 481.841875 198.644169 
L 843.423125 198.644169 
" clip-path="url(#pe676ccc714)" style="fill: none; stroke-dasharray: 2.96,1.28; stroke-dashoffset: 0; stroke: #b0b0b0; stroke-opacity: 0.4; stroke-width: 0.8"/>
     </g>
     <g id="line2d_49">
      <g>
       <use xlink:href="#m1916475d82" x="481.841875" y="198.644169" style="stroke: #000000; stroke-width: 0.8"/>
      </g>
     </g>
     <g id="text_28">
      <!-- 0.05 -->
      <g transform="translate(452.57625 202.443388) scale(0.1 -0.1)">
       <use xlink:href="#DejaVuSans-30"/>
       <use xlink:href="#DejaVuSans-2e" transform="translate(63.623047 0)"/>
       <use xlink:href="#DejaVuSans-30" transform="translate(95.410156 0)"/>
       <use xlink:href="#DejaVuSans-35" transform="translate(159.033203 0)"/>
      </g>
     </g>
    </g>
    <g id="ytick_11">
     <g id="line2d_50">
      <path d="M 481.841875 166.302784 
L 843.423125 166.302784 
" clip-path="url(#pe676ccc714)" style="fill: none; stroke-dasharray: 2.96,1.28; stroke-dashoffset: 0; stroke: #b0b0b0; stroke-opacity: 0.4; stroke-width: 0.8"/>
     </g>
     <g id="line2d_51">
      <g>
       <use xlink:href="#m1916475d82" x="481.841875" y="166.302784" style="stroke: #000000; stroke-width: 0.8"/>
      </g>
     </g>
     <g id="text_29">
      <!-- 0.10 -->
      <g transform="translate(452.57625 170.102003) scale(0.1 -0.1)">
       <use xlink:href="#DejaVuSans-30"/>
       <use xlink:href="#DejaVuSans-2e" transform="translate(63.623047 0)"/>
       <use xlink:href="#DejaVuSans-31" transform="translate(95.410156 0)"/>
       <use xlink:href="#DejaVuSans-30" transform="translate(159.033203 0)"/>
      </g>
     </g>
    </g>
    <g id="ytick_12">
     <g id="line2d_52">
      <path d="M 481.841875 133.9614 
L 843.423125 133.9614 
" clip-path="url(#pe676ccc714)" style="fill: none; stroke-dasharray: 2.96,1.28; stroke-dashoffset: 0; stroke: #b0b0b0; stroke-opacity: 0.4; stroke-width: 0.8"/>
     </g>
     <g id="line2d_53">
      <g>
       <use xlink:href="#m1916475d82" x="481.841875" y="133.9614" style="stroke: #000000; stroke-width: 0.8"/>
      </g>
     </g>
     <g id="text_30">
      <!-- 0.15 -->
      <g transform="translate(452.57625 137.760618) scale(0.1 -0.1)">
       <use xlink:href="#DejaVuSans-30"/>
       <use xlink:href="#DejaVuSans-2e" transform="translate(63.623047 0)"/>
       <use xlink:href="#DejaVuSans-31" transform="translate(95.410156 0)"/>
       <use xlink:href="#DejaVuSans-35" transform="translate(159.033203 0)"/>
      </g>
     </g>
    </g>
    <g id="ytick_13">
     <g id="line2d_54">
      <path d="M 481.841875 101.620015 
L 843.423125 101.620015 
" clip-path="url(#pe676ccc714)" style="fill: none; stroke-dasharray: 2.96,1.28; stroke-dashoffset: 0; stroke: #b0b0b0; stroke-opacity: 0.4; stroke-width: 0.8"/>
     </g>
     <g id="line2d_55">
      <g>
       <use xlink:href="#m1916475d82" x="481.841875" y="101.620015" style="stroke: #000000; stroke-width: 0.8"/>
      </g>
     </g>
     <g id="text_31">
      <!-- 0.20 -->
      <g transform="translate(452.57625 105.419234) scale(0.1 -0.1)">
       <use xlink:href="#DejaVuSans-30"/>
       <use xlink:href="#DejaVuSans-2e" transform="translate(63.623047 0)"/>
       <use xlink:href="#DejaVuSans-32" transform="translate(95.410156 0)"/>
       <use xlink:href="#DejaVuSans-30" transform="translate(159.033203 0)"/>
      </g>
     </g>
    </g>
    <g id="ytick_14">
     <g id="line2d_56">
      <path d="M 481.841875 69.27863 
L 843.423125 69.27863 
" clip-path="url(#pe676ccc714)" style="fill: none; stroke-dasharray: 2.96,1.28; stroke-dashoffset: 0; stroke: #b0b0b0; stroke-opacity: 0.4; stroke-width: 0.8"/>
     </g>
     <g id="line2d_57">
      <g>
       <use xlink:href="#m1916475d82" x="481.841875" y="69.27863" style="stroke: #000000; stroke-width: 0.8"/>
      </g>
     </g>
     <g id="text_32">
      <!-- 0.25 -->
      <g transform="translate(452.57625 73.077849) scale(0.1 -0.1)">
       <use xlink:href="#DejaVuSans-30"/>
       <use xlink:href="#DejaVuSans-2e" transform="translate(63.623047 0)"/>
       <use xlink:href="#DejaVuSans-32" transform="translate(95.410156 0)"/>
       <use xlink:href="#DejaVuSans-35" transform="translate(159.033203 0)"/>
      </g>
     </g>
    </g>
    <g id="ytick_15">
     <g id="line2d_58">
      <path d="M 481.841875 36.937245 
L 843.423125 36.937245 
" clip-path="url(#pe676ccc714)" style="fill: none; stroke-dasharray: 2.96,1.28; stroke-dashoffset: 0; stroke: #b0b0b0; stroke-opacity: 0.4; stroke-width: 0.8"/>
     </g>
     <g id="line2d_59">
      <g>
       <use xlink:href="#m1916475d82" x="481.841875" y="36.937245" style="stroke: #000000; stroke-width: 0.8"/>
      </g>
     </g>
     <g id="text_33">
      <!-- 0.30 -->
      <g transform="translate(452.57625 40.736464) scale(0.1 -0.1)">
       <use xlink:href="#DejaVuSans-30"/>
       <use xlink:href="#DejaVuSans-2e" transform="translate(63.623047 0)"/>
       <use xlink:href="#DejaVuSans-33" transform="translate(95.410156 0)"/>
       <use xlink:href="#DejaVuSans-30" transform="translate(159.033203 0)"/>
      </g>
     </g>
    </g>
    <g id="text_34">
     <!-- f(x) -->
     <g transform="translate(446.080625 141.603594) rotate(-90) scale(0.12 -0.12)">
      <use xlink:href="#DejaVuSans-66"/>
      <use xlink:href="#DejaVuSans-28" transform="translate(35.205078 0)"/>
      <use xlink:href="#DejaVuSans-78" transform="translate(74.21875 0)"/>
      <use xlink:href="#DejaVuSans-29" transform="translate(133.398438 0)"/>
     </g>
    </g>
   </g>
   <g id="line2d_60">
    <path d="M 481.841875 230.985554 
L 483.051177 228.107356 
L 484.260479 223.112544 
L 485.469781 216.997645 
L 487.888384 202.835701 
L 491.51629 179.45303 
L 496.353497 148.168704 
L 499.981403 126.294631 
L 502.400006 112.845892 
L 504.81861 100.427718 
L 507.237214 89.095587 
L 509.655817 78.873125 
L 512.074421 69.760266 
L 514.493025 61.739327 
L 516.911628 54.779612 
L 519.330232 48.840956 
L 521.748836 43.876473 
L 524.167439 39.834708 
L 525.376741 38.14294 
L 526.586043 36.661328 
L 527.795345 35.382849 
L 529.004647 34.300449 
L 530.213949 33.40707 
L 531.42325 32.695675 
L 532.632552 32.159268 
L 533.841854 31.790914 
L 535.051156 31.583751 
L 536.260458 31.531009 
L 537.46976 31.626017 
L 538.679061 31.86222 
L 539.888363 32.233179 
L 541.097665 32.732589 
L 543.516269 34.092209 
L 545.934872 35.893411 
L 548.353476 38.090891 
L 550.77208 40.641786 
L 553.190684 43.505704 
L 555.609287 46.644726 
L 559.237193 51.792139 
L 562.865098 57.369616 
L 567.702306 65.307374 
L 573.748815 75.756259 
L 596.72555 116.073491 
L 602.772059 125.993672 
L 607.609266 133.574973 
L 612.446474 140.809306 
L 617.283681 147.67808 
L 622.120888 154.170858 
L 626.958096 160.283895 
L 631.795303 166.018875 
L 636.63251 171.381816 
L 641.469718 176.382134 
L 646.306925 181.031848 
L 651.144133 185.344905 
L 655.98134 189.336619 
L 660.818547 193.0232 
L 665.655755 196.421367 
L 670.492962 199.548035 
L 675.330169 202.420059 
L 680.167377 205.054035 
L 685.004584 207.46614 
L 689.841791 209.672011 
L 695.888301 212.16214 
L 701.93481 214.381235 
L 707.981319 216.355298 
L 714.027828 218.10849 
L 721.283639 219.952052 
L 728.53945 221.544696 
L 735.795261 222.917928 
L 744.260374 224.280039 
L 752.725487 225.420873 
L 762.399902 226.497056 
L 773.283618 227.468569 
L 785.376637 228.310044 
L 798.678957 229.010523 
L 814.399881 229.610571 
L 833.74871 230.109079 
L 843.423125 230.286988 
L 843.423125 230.286988 
" clip-path="url(#pe676ccc714)" style="fill: none; stroke: #4682b4; stroke-width: 2.5; stroke-linecap: square"/>
   </g>
   <g id="line2d_61">
    <path d="M 572.237188 240.958281 
L 572.237188 21.558281 
" clip-path="url(#pe676ccc714)" style="fill: none; stroke-dasharray: 9.25,4; stroke-dashoffset: 0; stroke: #cc7000; stroke-width: 2.5"/>
   </g>
   <g id="patch_9">
    <path d="M 481.841875 240.958281 
L 481.841875 21.558281 
" style="fill: none; stroke: #000000; stroke-width: 0.8; stroke-linejoin: miter; stroke-linecap: square"/>
   </g>
   <g id="patch_10">
    <path d="M 843.423125 240.958281 
L 843.423125 21.558281 
" style="fill: none; stroke: #000000; stroke-width: 0.8; stroke-linejoin: miter; stroke-linecap: square"/>
   </g>
   <g id="patch_11">
    <path d="M 481.841875 240.958281 
L 843.423125 240.958281 
" style="fill: none; stroke: #000000; stroke-width: 0.8; stroke-linejoin: miter; stroke-linecap: square"/>
   </g>
   <g id="patch_12">
    <path d="M 481.841875 21.558281 
L 843.423125 21.558281 
" style="fill: none; stroke: #000000; stroke-width: 0.8; stroke-linejoin: miter; stroke-linecap: square"/>
   </g>
   <g id="text_35">
    <!-- Non-uniform: mean is NOT where 50% is on each side -->
    <g style="fill: #808080" transform="translate(514.089531 15.558281) scale(0.11 -0.11)">
     <defs>
      <path id="DejaVuSans-4e" d="M 628 4666 
L 1478 4666 
L 3547 763 
L 3547 4666 
L 4159 4666 
L 4159 0 
L 3309 0 
L 1241 3903 
L 1241 0 
L 628 0 
L 628 4666 
z
" transform="scale(0.015625)"/>
      <path id="DejaVuSans-2d" d="M 313 2009 
L 1997 2009 
L 1997 1497 
L 313 1497 
L 313 2009 
z
" transform="scale(0.015625)"/>
      <path id="DejaVuSans-4f" d="M 2522 4238 
Q 1834 4238 1429 3725 
Q 1025 3213 1025 2328 
Q 1025 1447 1429 934 
Q 1834 422 2522 422 
Q 3209 422 3611 934 
Q 4013 1447 4013 2328 
Q 4013 3213 3611 3725 
Q 3209 4238 2522 4238 
z
M 2522 4750 
Q 3503 4750 4090 4092 
Q 4678 3434 4678 2328 
Q 4678 1225 4090 567 
Q 3503 -91 2522 -91 
Q 1538 -91 948 565 
Q 359 1222 359 2328 
Q 359 3434 948 4092 
Q 1538 4750 2522 4750 
z
" transform="scale(0.015625)"/>
      <path id="DejaVuSans-54" d="M -19 4666 
L 3928 4666 
L 3928 4134 
L 2272 4134 
L 2272 0 
L 1638 0 
L 1638 4134 
L -19 4134 
L -19 4666 
z
" transform="scale(0.015625)"/>
      <path id="DejaVuSans-77" d="M 269 3500 
L 844 3500 
L 1563 769 
L 2278 3500 
L 2956 3500 
L 3675 769 
L 4391 3500 
L 4966 3500 
L 4050 0 
L 3372 0 
L 2619 2869 
L 1863 0 
L 1184 0 
L 269 3500 
z
" transform="scale(0.015625)"/>
      <path id="DejaVuSans-68" d="M 3513 2113 
L 3513 0 
L 2938 0 
L 2938 2094 
Q 2938 2591 2744 2837 
Q 2550 3084 2163 3084 
Q 1697 3084 1428 2787 
Q 1159 2491 1159 1978 
L 1159 0 
L 581 0 
L 581 4863 
L 1159 4863 
L 1159 2956 
Q 1366 3272 1645 3428 
Q 1925 3584 2291 3584 
Q 2894 3584 3203 3211 
Q 3513 2838 3513 2113 
z
" transform="scale(0.015625)"/>
      <path id="DejaVuSans-25" d="M 4653 2053 
Q 4381 2053 4226 1822 
Q 4072 1591 4072 1178 
Q 4072 772 4226 539 
Q 4381 306 4653 306 
Q 4919 306 5073 539 
Q 5228 772 5228 1178 
Q 5228 1588 5073 1820 
Q 4919 2053 4653 2053 
z
M 4653 2450 
Q 5147 2450 5437 2106 
Q 5728 1763 5728 1178 
Q 5728 594 5436 251 
Q 5144 -91 4653 -91 
Q 4153 -91 3862 251 
Q 3572 594 3572 1178 
Q 3572 1766 3864 2108 
Q 4156 2450 4653 2450 
z
M 1428 4353 
Q 1159 4353 1004 4120 
Q 850 3888 850 3481 
Q 850 3069 1003 2837 
Q 1156 2606 1428 2606 
Q 1700 2606 1854 2837 
Q 2009 3069 2009 3481 
Q 2009 3884 1853 4118 
Q 1697 4353 1428 4353 
z
M 4250 4750 
L 4750 4750 
L 1831 -91 
L 1331 -91 
L 4250 4750 
z
M 1428 4750 
Q 1922 4750 2215 4408 
Q 2509 4066 2509 3481 
Q 2509 2891 2217 2550 
Q 1925 2209 1428 2209 
Q 931 2209 642 2551 
Q 353 2894 353 3481 
Q 353 4063 643 4406 
Q 934 4750 1428 4750 
z
" transform="scale(0.015625)"/>
      <path id="DejaVuSans-63" d="M 3122 3366 
L 3122 2828 
Q 2878 2963 2633 3030 
Q 2388 3097 2138 3097 
Q 1578 3097 1268 2742 
Q 959 2388 959 1747 
Q 959 1106 1268 751 
Q 1578 397 2138 397 
Q 2388 397 2633 464 
Q 2878 531 3122 666 
L 3122 134 
Q 2881 22 2623 -34 
Q 2366 -91 2075 -91 
Q 1284 -91 818 406 
Q 353 903 353 1747 
Q 353 2603 823 3093 
Q 1294 3584 2113 3584 
Q 2378 3584 2631 3529 
Q 2884 3475 3122 3366 
z
" transform="scale(0.015625)"/>
     </defs>
     <use xlink:href="#DejaVuSans-4e"/>
     <use xlink:href="#DejaVuSans-6f" transform="translate(74.804688 0)"/>
     <use xlink:href="#DejaVuSans-6e" transform="translate(135.986328 0)"/>
     <use xlink:href="#DejaVuSans-2d" transform="translate(199.365234 0)"/>
     <use xlink:href="#DejaVuSans-75" transform="translate(235.449219 0)"/>
     <use xlink:href="#DejaVuSans-6e" transform="translate(298.828125 0)"/>
     <use xlink:href="#DejaVuSans-69" transform="translate(362.207031 0)"/>
     <use xlink:href="#DejaVuSans-66" transform="translate(389.990234 0)"/>
     <use xlink:href="#DejaVuSans-6f" transform="translate(425.195312 0)"/>
     <use xlink:href="#DejaVuSans-72" transform="translate(486.376953 0)"/>
     <use xlink:href="#DejaVuSans-6d" transform="translate(525.740234 0)"/>
     <use xlink:href="#DejaVuSans-3a" transform="translate(623.152344 0)"/>
     <use xlink:href="#DejaVuSans-20" transform="translate(656.84375 0)"/>
     <use xlink:href="#DejaVuSans-6d" transform="translate(688.630859 0)"/>
     <use xlink:href="#DejaVuSans-65" transform="translate(786.042969 0)"/>
     <use xlink:href="#DejaVuSans-61" transform="translate(847.566406 0)"/>
     <use xlink:href="#DejaVuSans-6e" transform="translate(908.845703 0)"/>
     <use xlink:href="#DejaVuSans-20" transform="translate(972.224609 0)"/>
     <use xlink:href="#DejaVuSans-69" transform="translate(1004.011719 0)"/>
     <use xlink:href="#DejaVuSans-73" transform="translate(1031.794922 0)"/>
     <use xlink:href="#DejaVuSans-20" transform="translate(1083.894531 0)"/>
     <use xlink:href="#DejaVuSans-4e" transform="translate(1115.681641 0)"/>
     <use xlink:href="#DejaVuSans-4f" transform="translate(1190.486328 0)"/>
     <use xlink:href="#DejaVuSans-54" transform="translate(1269.197266 0)"/>
     <use xlink:href="#DejaVuSans-20" transform="translate(1330.28125 0)"/>
     <use xlink:href="#DejaVuSans-77" transform="translate(1362.068359 0)"/>
     <use xlink:href="#DejaVuSans-68" transform="translate(1443.855469 0)"/>
     <use xlink:href="#DejaVuSans-65" transform="translate(1507.234375 0)"/>
     <use xlink:href="#DejaVuSans-72" transform="translate(1568.757812 0)"/>
     <use xlink:href="#DejaVuSans-65" transform="translate(1607.621094 0)"/>
     <use xlink:href="#DejaVuSans-20" transform="translate(1669.144531 0)"/>
     <use xlink:href="#DejaVuSans-35" transform="translate(1700.931641 0)"/>
     <use xlink:href="#DejaVuSans-30" transform="translate(1764.554688 0)"/>
     <use xlink:href="#DejaVuSans-25" transform="translate(1828.177734 0)"/>
     <use xlink:href="#DejaVuSans-20" transform="translate(1923.197266 0)"/>
     <use xlink:href="#DejaVuSans-69" transform="translate(1954.984375 0)"/>
     <use xlink:href="#DejaVuSans-73" transform="translate(1982.767578 0)"/>
     <use xlink:href="#DejaVuSans-20" transform="translate(2034.867188 0)"/>
     <use xlink:href="#DejaVuSans-6f" transform="translate(2066.654297 0)"/>
     <use xlink:href="#DejaVuSans-6e" transform="translate(2127.835938 0)"/>
     <use xlink:href="#DejaVuSans-20" transform="translate(2191.214844 0)"/>
     <use xlink:href="#DejaVuSans-65" transform="translate(2223.001953 0)"/>
     <use xlink:href="#DejaVuSans-61" transform="translate(2284.525391 0)"/>
     <use xlink:href="#DejaVuSans-63" transform="translate(2345.804688 0)"/>
     <use xlink:href="#DejaVuSans-68" transform="translate(2400.785156 0)"/>
     <use xlink:href="#DejaVuSans-20" transform="translate(2464.164062 0)"/>
     <use xlink:href="#DejaVuSans-73" transform="translate(2495.951172 0)"/>
     <use xlink:href="#DejaVuSans-69" transform="translate(2548.050781 0)"/>
     <use xlink:href="#DejaVuSans-64" transform="translate(2575.833984 0)"/>
     <use xlink:href="#DejaVuSans-65" transform="translate(2639.310547 0)"/>
    </g>
   </g>
   <g id="legend_2">
    <g id="patch_13">
     <path d="M 752.723125 44.236406 
L 836.423125 44.236406 
Q 838.423125 44.236406 838.423125 42.236406 
L 838.423125 28.558281 
Q 838.423125 26.558281 836.423125 26.558281 
L 752.723125 26.558281 
Q 750.723125 26.558281 750.723125 28.558281 
L 750.723125 42.236406 
Q 750.723125 44.236406 752.723125 44.236406 
z
" style="fill: #ffffff; opacity: 0.8; stroke: #cccccc; stroke-linejoin: miter"/>
    </g>
    <g id="line2d_62">
     <path d="M 754.723125 34.656719 
L 764.723125 34.656719 
L 774.723125 34.656719 
" style="fill: none; stroke-dasharray: 9.25,4; stroke-dashoffset: 0; stroke: #cc7000; stroke-width: 2.5"/>
    </g>
    <g id="text_36">
     <!-- $\mathbb{E}[X]$ = 2.5 -->
     <g transform="translate(782.723125 38.156719) scale(0.1 -0.1)">
      <use xlink:href="#STIXNonUnicode-Italic-e156" transform="translate(0 0.015625)"/>
      <use xlink:href="#DejaVuSans-5b" transform="translate(63.899994 0.015625)"/>
      <use xlink:href="#DejaVuSans-Oblique-58" transform="translate(102.913666 0.015625)"/>
      <use xlink:href="#DejaVuSans-5d" transform="translate(171.419525 0.015625)"/>
      <use xlink:href="#DejaVuSans-20" transform="translate(210.433197 0.015625)"/>
      <use xlink:href="#DejaVuSans-3d" transform="translate(242.220306 0.015625)"/>
      <use xlink:href="#DejaVuSans-20" transform="translate(326.009369 0.015625)"/>
      <use xlink:href="#DejaVuSans-32" transform="translate(357.796478 0.015625)"/>
      <use xlink:href="#DejaVuSans-2e" transform="translate(421.419525 0.015625)"/>
      <use xlink:href="#DejaVuSans-35" transform="translate(453.206635 0.015625)"/>
     </g>
    </g>
   </g>
  </g>
 </g>
 <defs>
  <clipPath id="p59909d4c2a">
   <rect x="64.804375" y="21.558281" width="361.58125" height="219.4"/>
  </clipPath>
  <clipPath id="pe676ccc714">
   <rect x="481.841875" y="21.558281" width="361.58125" height="219.4"/>
  </clipPath>
 </defs>
</svg>
