<?xml version="1.0" encoding="utf-8" standalone="no"?>
<!DOCTYPE svg PUBLIC "-//W3C//DTD SVG 1.1//EN"
  "http://www.w3.org/Graphics/SVG/1.1/DTD/svg11.dtd">
<svg xmlns:xlink="http://www.w3.org/1999/xlink" width="866.542795pt" height="386.721137pt" viewBox="0 0 866.542795 386.721137" xmlns="http://www.w3.org/2000/svg" version="1.1">
 <metadata>
  <rdf:RDF xmlns:dc="http://purl.org/dc/elements/1.1/" xmlns:cc="http://creativecommons.org/ns#" xmlns:rdf="http://www.w3.org/1999/02/22-rdf-syntax-ns#">
   <cc:Work>
    <dc:type rdf:resource="http://purl.org/dc/dcmitype/StillImage"/>
    <dc:date>2026-07-11T21:16:13.800211</dc:date>
    <dc:format>image/svg+xml</dc:format>
    <dc:creator>
     <cc:Agent>
      <dc:title>Matplotlib v3.10.8, https://matplotlib.org/</dc:title>
     </cc:Agent>
    </dc:creator>
   </cc:Work>
  </rdf:RDF>
 </metadata>
 <defs>
  <style type="text/css">*{stroke-linejoin: round; stroke-linecap: butt}</style>
 </defs>
 <g id="figure_1">
  <g id="patch_1">
   <path d="M 0 386.721137 
L 866.542795 386.721137 
L 866.542795 0 
L 0 0 
z
" style="fill: #ffffff"/>
  </g>
  <g id="axes_1">
   <g id="patch_2">
    <path d="M 44.555937 334.798625 
L 336.189188 334.798625 
L 336.189188 43.165375 
L 44.555937 43.165375 
z
" style="fill: #ffffff"/>
   </g>
   <g id="matplotlib.axis_1">
    <g id="xtick_1">
     <g id="line2d_1">
      <path d="M 44.555937 334.798625 
L 44.555937 43.165375 
" clip-path="url(#p0273542271)" style="fill: none; stroke-dasharray: 2.96,1.28; stroke-dashoffset: 0; stroke: #b0b0b0; stroke-opacity: 0.4; stroke-width: 0.8"/>
     </g>
     <g id="line2d_2">
      <defs>
       <path id="m49a4dc8e30" d="M 0 0 
L 0 3.5 
" style="stroke: #000000; stroke-width: 0.8"/>
      </defs>
      <g>
       <use xlink:href="#m49a4dc8e30" x="44.555937" y="334.798625" style="stroke: #000000; stroke-width: 0.8"/>
      </g>
     </g>
     <g id="text_1">
      <!-- −4 -->
      <g transform="translate(37.184844 349.397063) scale(0.1 -0.1)">
       <defs>
        <path id="DejaVuSans-2212" d="M 678 2272 
L 4684 2272 
L 4684 1741 
L 678 1741 
L 678 2272 
z
" transform="scale(0.015625)"/>
        <path id="DejaVuSans-34" d="M 2419 4116 
L 825 1625 
L 2419 1625 
L 2419 4116 
z
M 2253 4666 
L 3047 4666 
L 3047 1625 
L 3713 1625 
L 3713 1100 
L 3047 1100 
L 3047 0 
L 2419 0 
L 2419 1100 
L 313 1100 
L 313 1709 
L 2253 4666 
z
" transform="scale(0.015625)"/>
       </defs>
       <use xlink:href="#DejaVuSans-2212"/>
       <use xlink:href="#DejaVuSans-34" transform="translate(83.789062 0)"/>
      </g>
     </g>
    </g>
    <g id="xtick_2">
     <g id="line2d_3">
      <path d="M 81.010094 334.798625 
L 81.010094 43.165375 
" clip-path="url(#p0273542271)" style="fill: none; stroke-dasharray: 2.96,1.28; stroke-dashoffset: 0; stroke: #b0b0b0; stroke-opacity: 0.4; stroke-width: 0.8"/>
     </g>
     <g id="line2d_4">
      <g>
       <use xlink:href="#m49a4dc8e30" x="81.010094" y="334.798625" style="stroke: #000000; stroke-width: 0.8"/>
      </g>
     </g>
     <g id="text_2">
      <!-- −3 -->
      <g transform="translate(73.639 349.397063) scale(0.1 -0.1)">
       <defs>
        <path id="DejaVuSans-33" d="M 2597 2516 
Q 3050 2419 3304 2112 
Q 3559 1806 3559 1356 
Q 3559 666 3084 287 
Q 2609 -91 1734 -91 
Q 1441 -91 1130 -33 
Q 819 25 488 141 
L 488 750 
Q 750 597 1062 519 
Q 1375 441 1716 441 
Q 2309 441 2620 675 
Q 2931 909 2931 1356 
Q 2931 1769 2642 2001 
Q 2353 2234 1838 2234 
L 1294 2234 
L 1294 2753 
L 1863 2753 
Q 2328 2753 2575 2939 
Q 2822 3125 2822 3475 
Q 2822 3834 2567 4026 
Q 2313 4219 1838 4219 
Q 1578 4219 1281 4162 
Q 984 4106 628 3988 
L 628 4550 
Q 988 4650 1302 4700 
Q 1616 4750 1894 4750 
Q 2613 4750 3031 4423 
Q 3450 4097 3450 3541 
Q 3450 3153 3228 2886 
Q 3006 2619 2597 2516 
z
" transform="scale(0.015625)"/>
       </defs>
       <use xlink:href="#DejaVuSans-2212"/>
       <use xlink:href="#DejaVuSans-33" transform="translate(83.789062 0)"/>
      </g>
     </g>
    </g>
    <g id="xtick_3">
     <g id="line2d_5">
      <path d="M 117.46425 334.798625 
L 117.46425 43.165375 
" clip-path="url(#p0273542271)" style="fill: none; stroke-dasharray: 2.96,1.28; stroke-dashoffset: 0; stroke: #b0b0b0; stroke-opacity: 0.4; stroke-width: 0.8"/>
     </g>
     <g id="line2d_6">
      <g>
       <use xlink:href="#m49a4dc8e30" x="117.46425" y="334.798625" style="stroke: #000000; stroke-width: 0.8"/>
      </g>
     </g>
     <g id="text_3">
      <!-- −2 -->
      <g transform="translate(110.093156 349.397063) scale(0.1 -0.1)">
       <defs>
        <path id="DejaVuSans-32" d="M 1228 531 
L 3431 531 
L 3431 0 
L 469 0 
L 469 531 
Q 828 903 1448 1529 
Q 2069 2156 2228 2338 
Q 2531 2678 2651 2914 
Q 2772 3150 2772 3378 
Q 2772 3750 2511 3984 
Q 2250 4219 1831 4219 
Q 1534 4219 1204 4116 
Q 875 4013 500 3803 
L 500 4441 
Q 881 4594 1212 4672 
Q 1544 4750 1819 4750 
Q 2544 4750 2975 4387 
Q 3406 4025 3406 3419 
Q 3406 3131 3298 2873 
Q 3191 2616 2906 2266 
Q 2828 2175 2409 1742 
Q 1991 1309 1228 531 
z
" transform="scale(0.015625)"/>
       </defs>
       <use xlink:href="#DejaVuSans-2212"/>
       <use xlink:href="#DejaVuSans-32" transform="translate(83.789062 0)"/>
      </g>
     </g>
    </g>
    <g id="xtick_4">
     <g id="line2d_7">
      <path d="M 153.918406 334.798625 
L 153.918406 43.165375 
" clip-path="url(#p0273542271)" style="fill: none; stroke-dasharray: 2.96,1.28; stroke-dashoffset: 0; stroke: #b0b0b0; stroke-opacity: 0.4; stroke-width: 0.8"/>
     </g>
     <g id="line2d_8">
      <g>
       <use xlink:href="#m49a4dc8e30" x="153.918406" y="334.798625" style="stroke: #000000; stroke-width: 0.8"/>
      </g>
     </g>
     <g id="text_4">
      <!-- −1 -->
      <g transform="translate(146.547312 349.397063) scale(0.1 -0.1)">
       <defs>
        <path id="DejaVuSans-31" d="M 794 531 
L 1825 531 
L 1825 4091 
L 703 3866 
L 703 4441 
L 1819 4666 
L 2450 4666 
L 2450 531 
L 3481 531 
L 3481 0 
L 794 0 
L 794 531 
z
" transform="scale(0.015625)"/>
       </defs>
       <use xlink:href="#DejaVuSans-2212"/>
       <use xlink:href="#DejaVuSans-31" transform="translate(83.789062 0)"/>
      </g>
     </g>
    </g>
    <g id="xtick_5">
     <g id="line2d_9">
      <path d="M 190.372562 334.798625 
L 190.372562 43.165375 
" clip-path="url(#p0273542271)" style="fill: none; stroke-dasharray: 2.96,1.28; stroke-dashoffset: 0; stroke: #b0b0b0; stroke-opacity: 0.4; stroke-width: 0.8"/>
     </g>
     <g id="line2d_10">
      <g>
       <use xlink:href="#m49a4dc8e30" x="190.372562" y="334.798625" style="stroke: #000000; stroke-width: 0.8"/>
      </g>
     </g>
     <g id="text_5">
      <!-- 0 -->
      <g transform="translate(187.191312 349.397063) scale(0.1 -0.1)">
       <defs>
        <path id="DejaVuSans-30" d="M 2034 4250 
Q 1547 4250 1301 3770 
Q 1056 3291 1056 2328 
Q 1056 1369 1301 889 
Q 1547 409 2034 409 
Q 2525 409 2770 889 
Q 3016 1369 3016 2328 
Q 3016 3291 2770 3770 
Q 2525 4250 2034 4250 
z
M 2034 4750 
Q 2819 4750 3233 4129 
Q 3647 3509 3647 2328 
Q 3647 1150 3233 529 
Q 2819 -91 2034 -91 
Q 1250 -91 836 529 
Q 422 1150 422 2328 
Q 422 3509 836 4129 
Q 1250 4750 2034 4750 
z
" transform="scale(0.015625)"/>
       </defs>
       <use xlink:href="#DejaVuSans-30"/>
      </g>
     </g>
    </g>
    <g id="xtick_6">
     <g id="line2d_11">
      <path d="M 226.826719 334.798625 
L 226.826719 43.165375 
" clip-path="url(#p0273542271)" style="fill: none; stroke-dasharray: 2.96,1.28; stroke-dashoffset: 0; stroke: #b0b0b0; stroke-opacity: 0.4; stroke-width: 0.8"/>
     </g>
     <g id="line2d_12">
      <g>
       <use xlink:href="#m49a4dc8e30" x="226.826719" y="334.798625" style="stroke: #000000; stroke-width: 0.8"/>
      </g>
     </g>
     <g id="text_6">
      <!-- 1 -->
      <g transform="translate(223.645469 349.397063) scale(0.1 -0.1)">
       <use xlink:href="#DejaVuSans-31"/>
      </g>
     </g>
    </g>
    <g id="xtick_7">
     <g id="line2d_13">
      <path d="M 263.280875 334.798625 
L 263.280875 43.165375 
" clip-path="url(#p0273542271)" style="fill: none; stroke-dasharray: 2.96,1.28; stroke-dashoffset: 0; stroke: #b0b0b0; stroke-opacity: 0.4; stroke-width: 0.8"/>
     </g>
     <g id="line2d_14">
      <g>
       <use xlink:href="#m49a4dc8e30" x="263.280875" y="334.798625" style="stroke: #000000; stroke-width: 0.8"/>
      </g>
     </g>
     <g id="text_7">
      <!-- 2 -->
      <g transform="translate(260.099625 349.397063) scale(0.1 -0.1)">
       <use xlink:href="#DejaVuSans-32"/>
      </g>
     </g>
    </g>
    <g id="xtick_8">
     <g id="line2d_15">
      <path d="M 299.735031 334.798625 
L 299.735031 43.165375 
" clip-path="url(#p0273542271)" style="fill: none; stroke-dasharray: 2.96,1.28; stroke-dashoffset: 0; stroke: #b0b0b0; stroke-opacity: 0.4; stroke-width: 0.8"/>
     </g>
     <g id="line2d_16">
      <g>
       <use xlink:href="#m49a4dc8e30" x="299.735031" y="334.798625" style="stroke: #000000; stroke-width: 0.8"/>
      </g>
     </g>
     <g id="text_8">
      <!-- 3 -->
      <g transform="translate(296.553781 349.397063) scale(0.1 -0.1)">
       <use xlink:href="#DejaVuSans-33"/>
      </g>
     </g>
    </g>
    <g id="xtick_9">
     <g id="line2d_17">
      <path d="M 336.189188 334.798625 
L 336.189188 43.165375 
" clip-path="url(#p0273542271)" style="fill: none; stroke-dasharray: 2.96,1.28; stroke-dashoffset: 0; stroke: #b0b0b0; stroke-opacity: 0.4; stroke-width: 0.8"/>
     </g>
     <g id="line2d_18">
      <g>
       <use xlink:href="#m49a4dc8e30" x="336.189188" y="334.798625" style="stroke: #000000; stroke-width: 0.8"/>
      </g>
     </g>
     <g id="text_9">
      <!-- 4 -->
      <g transform="translate(333.007938 349.397063) scale(0.1 -0.1)">
       <use xlink:href="#DejaVuSans-34"/>
      </g>
     </g>
    </g>
    <g id="text_10">
     <!-- $x$ -->
     <g transform="translate(186.772562 364.594875) scale(0.12 -0.12)">
      <defs>
       <path id="DejaVuSans-Oblique-78" d="M 3841 3500 
L 2234 1784 
L 3219 0 
L 2559 0 
L 1819 1388 
L 531 0 
L -166 0 
L 1556 1844 
L 641 3500 
L 1300 3500 
L 1972 2234 
L 3144 3500 
L 3841 3500 
z
" transform="scale(0.015625)"/>
      </defs>
      <use xlink:href="#DejaVuSans-Oblique-78" transform="translate(0 0.3125)"/>
     </g>
    </g>
   </g>
   <g id="matplotlib.axis_2">
    <g id="ytick_1">
     <g id="line2d_19">
      <path d="M 44.555937 334.798625 
L 336.189188 334.798625 
" clip-path="url(#p0273542271)" style="fill: none; stroke-dasharray: 2.96,1.28; stroke-dashoffset: 0; stroke: #b0b0b0; stroke-opacity: 0.4; stroke-width: 0.8"/>
     </g>
     <g id="line2d_20">
      <defs>
       <path id="meca9978e12" d="M 0 0 
L -3.5 0 
" style="stroke: #000000; stroke-width: 0.8"/>
      </defs>
      <g>
       <use xlink:href="#meca9978e12" x="44.555937" y="334.798625" style="stroke: #000000; stroke-width: 0.8"/>
      </g>
     </g>
     <g id="text_11">
      <!-- −4 -->
      <g transform="translate(22.81375 338.597844) scale(0.1 -0.1)">
       <use xlink:href="#DejaVuSans-2212"/>
       <use xlink:href="#DejaVuSans-34" transform="translate(83.789062 0)"/>
      </g>
     </g>
    </g>
    <g id="ytick_2">
     <g id="line2d_21">
      <path d="M 44.555937 298.344469 
L 336.189188 298.344469 
" clip-path="url(#p0273542271)" style="fill: none; stroke-dasharray: 2.96,1.28; stroke-dashoffset: 0; stroke: #b0b0b0; stroke-opacity: 0.4; stroke-width: 0.8"/>
     </g>
     <g id="line2d_22">
      <g>
       <use xlink:href="#meca9978e12" x="44.555937" y="298.344469" style="stroke: #000000; stroke-width: 0.8"/>
      </g>
     </g>
     <g id="text_12">
      <!-- −3 -->
      <g transform="translate(22.81375 302.143687) scale(0.1 -0.1)">
       <use xlink:href="#DejaVuSans-2212"/>
       <use xlink:href="#DejaVuSans-33" transform="translate(83.789062 0)"/>
      </g>
     </g>
    </g>
    <g id="ytick_3">
     <g id="line2d_23">
      <path d="M 44.555937 261.890312 
L 336.189188 261.890312 
" clip-path="url(#p0273542271)" style="fill: none; stroke-dasharray: 2.96,1.28; stroke-dashoffset: 0; stroke: #b0b0b0; stroke-opacity: 0.4; stroke-width: 0.8"/>
     </g>
     <g id="line2d_24">
      <g>
       <use xlink:href="#meca9978e12" x="44.555937" y="261.890312" style="stroke: #000000; stroke-width: 0.8"/>
      </g>
     </g>
     <g id="text_13">
      <!-- −2 -->
      <g transform="translate(22.81375 265.689531) scale(0.1 -0.1)">
       <use xlink:href="#DejaVuSans-2212"/>
       <use xlink:href="#DejaVuSans-32" transform="translate(83.789062 0)"/>
      </g>
     </g>
    </g>
    <g id="ytick_4">
     <g id="line2d_25">
      <path d="M 44.555937 225.436156 
L 336.189188 225.436156 
" clip-path="url(#p0273542271)" style="fill: none; stroke-dasharray: 2.96,1.28; stroke-dashoffset: 0; stroke: #b0b0b0; stroke-opacity: 0.4; stroke-width: 0.8"/>
     </g>
     <g id="line2d_26">
      <g>
       <use xlink:href="#meca9978e12" x="44.555937" y="225.436156" style="stroke: #000000; stroke-width: 0.8"/>
      </g>
     </g>
     <g id="text_14">
      <!-- −1 -->
      <g transform="translate(22.81375 229.235375) scale(0.1 -0.1)">
       <use xlink:href="#DejaVuSans-2212"/>
       <use xlink:href="#DejaVuSans-31" transform="translate(83.789062 0)"/>
      </g>
     </g>
    </g>
    <g id="ytick_5">
     <g id="line2d_27">
      <path d="M 44.555937 188.982 
L 336.189188 188.982 
" clip-path="url(#p0273542271)" style="fill: none; stroke-dasharray: 2.96,1.28; stroke-dashoffset: 0; stroke: #b0b0b0; stroke-opacity: 0.4; stroke-width: 0.8"/>
     </g>
     <g id="line2d_28">
      <g>
       <use xlink:href="#meca9978e12" x="44.555937" y="188.982" style="stroke: #000000; stroke-width: 0.8"/>
      </g>
     </g>
     <g id="text_15">
      <!-- 0 -->
      <g transform="translate(31.193437 192.781219) scale(0.1 -0.1)">
       <use xlink:href="#DejaVuSans-30"/>
      </g>
     </g>
    </g>
    <g id="ytick_6">
     <g id="line2d_29">
      <path d="M 44.555937 152.527844 
L 336.189188 152.527844 
" clip-path="url(#p0273542271)" style="fill: none; stroke-dasharray: 2.96,1.28; stroke-dashoffset: 0; stroke: #b0b0b0; stroke-opacity: 0.4; stroke-width: 0.8"/>
     </g>
     <g id="line2d_30">
      <g>
       <use xlink:href="#meca9978e12" x="44.555937" y="152.527844" style="stroke: #000000; stroke-width: 0.8"/>
      </g>
     </g>
     <g id="text_16">
      <!-- 1 -->
      <g transform="translate(31.193437 156.327062) scale(0.1 -0.1)">
       <use xlink:href="#DejaVuSans-31"/>
      </g>
     </g>
    </g>
    <g id="ytick_7">
     <g id="line2d_31">
      <path d="M 44.555937 116.073687 
L 336.189188 116.073687 
" clip-path="url(#p0273542271)" style="fill: none; stroke-dasharray: 2.96,1.28; stroke-dashoffset: 0; stroke: #b0b0b0; stroke-opacity: 0.4; stroke-width: 0.8"/>
     </g>
     <g id="line2d_32">
      <g>
       <use xlink:href="#meca9978e12" x="44.555937" y="116.073687" style="stroke: #000000; stroke-width: 0.8"/>
      </g>
     </g>
     <g id="text_17">
      <!-- 2 -->
      <g transform="translate(31.193437 119.872906) scale(0.1 -0.1)">
       <use xlink:href="#DejaVuSans-32"/>
      </g>
     </g>
    </g>
    <g id="ytick_8">
     <g id="line2d_33">
      <path d="M 44.555937 79.619531 
L 336.189188 79.619531 
" clip-path="url(#p0273542271)" style="fill: none; stroke-dasharray: 2.96,1.28; stroke-dashoffset: 0; stroke: #b0b0b0; stroke-opacity: 0.4; stroke-width: 0.8"/>
     </g>
     <g id="line2d_34">
      <g>
       <use xlink:href="#meca9978e12" x="44.555937" y="79.619531" style="stroke: #000000; stroke-width: 0.8"/>
      </g>
     </g>
     <g id="text_18">
      <!-- 3 -->
      <g transform="translate(31.193437 83.41875) scale(0.1 -0.1)">
       <use xlink:href="#DejaVuSans-33"/>
      </g>
     </g>
    </g>
    <g id="ytick_9">
     <g id="line2d_35">
      <path d="M 44.555937 43.165375 
L 336.189188 43.165375 
" clip-path="url(#p0273542271)" style="fill: none; stroke-dasharray: 2.96,1.28; stroke-dashoffset: 0; stroke: #b0b0b0; stroke-opacity: 0.4; stroke-width: 0.8"/>
     </g>
     <g id="line2d_36">
      <g>
       <use xlink:href="#meca9978e12" x="44.555937" y="43.165375" style="stroke: #000000; stroke-width: 0.8"/>
      </g>
     </g>
     <g id="text_19">
      <!-- 4 -->
      <g transform="translate(31.193437 46.964594) scale(0.1 -0.1)">
       <use xlink:href="#DejaVuSans-34"/>
      </g>
     </g>
    </g>
    <g id="text_20">
     <!-- $y$ -->
     <g transform="translate(16.29375 192.582) rotate(-90) scale(0.12 -0.12)">
      <defs>
       <path id="DejaVuSans-Oblique-79" d="M 1588 -325 
Q 1188 -997 936 -1164 
Q 684 -1331 294 -1331 
L -159 -1331 
L -63 -850 
L 269 -850 
Q 509 -850 678 -719 
Q 847 -588 1056 -206 
L 1234 128 
L 459 3500 
L 1069 3500 
L 1650 819 
L 3256 3500 
L 3859 3500 
L 1588 -325 
z
" transform="scale(0.015625)"/>
      </defs>
      <use xlink:href="#DejaVuSans-Oblique-79" transform="translate(0 0.3125)"/>
     </g>
    </g>
   </g>
   <g id="line2d_37">
    <path d="M 87.264638 292.089924 
L 89.347627 290.006936 
L 91.430615 287.923948 
L 93.513603 285.840959 
L 95.596592 283.757971 
L 97.67958 281.674982 
L 99.762568 279.591994 
L 101.845557 277.509006 
L 103.928545 275.426017 
L 106.011533 273.343029 
L 108.094522 271.260041 
L 110.17751 269.177052 
L 112.260499 267.094064 
L 114.343487 265.011076 
L 116.426475 262.928087 
L 118.509464 260.845099 
L 120.592452 258.76211 
L 122.67544 256.679122 
L 124.758429 254.596134 
L 126.841417 252.513145 
L 128.924406 250.430157 
L 131.007394 248.347169 
L 133.090382 246.26418 
L 135.173371 244.181192 
L 137.256359 242.098203 
L 139.339347 240.015215 
L 141.422336 237.932227 
L 143.505324 235.849238 
L 145.588313 233.76625 
L 147.671301 231.683262 
L 149.754289 229.600273 
L 151.837278 227.517285 
L 153.920266 225.434296 
L 156.003254 223.351308 
L 158.086243 221.26832 
L 160.169231 219.185331 
L 162.252219 217.102343 
L 164.335208 215.019355 
L 166.418196 212.936366 
L 168.501185 210.853378 
L 170.584173 208.77039 
L 172.667161 206.687401 
L 174.75015 204.604413 
L 176.833138 202.521424 
L 178.916126 200.438436 
L 180.999115 198.355448 
L 183.082103 196.272459 
L 185.165092 194.189471 
L 187.24808 192.106483 
L 189.331068 190.023494 
L 191.414057 187.940506 
L 193.497045 185.857517 
L 195.580033 183.774529 
L 197.663022 181.691541 
L 199.74601 179.608552 
L 201.828999 177.525564 
L 203.911987 175.442576 
L 205.994975 173.359587 
L 208.077964 171.276599 
L 210.160952 169.19361 
L 212.24394 167.110622 
L 214.326929 165.027634 
L 216.409917 162.944645 
L 218.492906 160.861657 
L 220.575894 158.778669 
L 222.658882 156.69568 
L 224.741871 154.612692 
L 226.824859 152.529704 
L 228.907847 150.446715 
L 230.990836 148.363727 
L 233.073824 146.280738 
L 235.156812 144.19775 
L 237.239801 142.114762 
L 239.322789 140.031773 
L 241.405778 137.948785 
L 243.488766 135.865797 
L 245.571754 133.782808 
L 247.654743 131.69982 
L 249.737731 129.616831 
L 251.820719 127.533843 
L 253.903708 125.450855 
L 255.986696 123.367866 
L 258.069685 121.284878 
L 260.152673 119.20189 
L 262.235661 117.118901 
L 264.31865 115.035913 
L 266.401638 112.952924 
L 268.484626 110.869936 
L 270.567615 108.786948 
L 272.650603 106.703959 
L 274.733592 104.620971 
L 276.81658 102.537983 
L 278.899568 100.454994 
L 280.982557 98.372006 
L 283.065545 96.289018 
L 285.148533 94.206029 
L 287.231522 92.123041 
L 289.31451 90.040052 
L 291.397498 87.957064 
L 293.480487 85.874076 
" clip-path="url(#p0273542271)" style="fill: none; stroke: #2e8b57; stroke-opacity: 0.5; stroke-width: 1.5; stroke-linecap: square"/>
   </g>
   <g id="line2d_38">
    <path d="M 125.161385 319.404354 
L 126.478783 316.769559 
L 127.79618 314.134764 
L 129.113578 311.499969 
L 130.430975 308.865174 
L 131.748373 306.230379 
L 133.06577 303.595584 
L 134.383168 300.960789 
L 135.700565 298.325994 
L 137.017963 295.691199 
L 138.335361 293.056404 
L 139.652758 290.421609 
L 140.970156 287.786814 
L 142.287553 285.152019 
L 143.604951 282.517224 
L 144.922348 279.882429 
L 146.239746 277.247634 
L 147.557143 274.612839 
L 148.874541 271.978044 
L 150.191938 269.343249 
L 151.509336 266.708454 
L 152.826733 264.073659 
L 154.144131 261.438863 
L 155.461528 258.804068 
L 156.778926 256.169273 
L 158.096323 253.534478 
L 159.413721 250.899683 
L 160.731118 248.264888 
L 162.048516 245.630093 
L 163.365913 242.995298 
L 164.683311 240.360503 
L 166.000708 237.725708 
L 167.318106 235.090913 
L 168.635503 232.456118 
L 169.952901 229.821323 
L 171.270298 227.186528 
L 172.587696 224.551733 
L 173.905094 221.916938 
L 175.222491 219.282143 
L 176.539889 216.647348 
L 177.857286 214.012553 
L 179.174684 211.377758 
L 180.492081 208.742963 
L 181.809479 206.108168 
L 183.126876 203.473373 
L 184.444274 200.838578 
L 185.761671 198.203783 
L 187.079069 195.568988 
L 188.396466 192.934193 
L 189.713864 190.299398 
L 191.031261 187.664602 
L 192.348659 185.029807 
L 193.666056 182.395012 
L 194.983454 179.760217 
L 196.300851 177.125422 
L 197.618249 174.490627 
L 198.935646 171.855832 
L 200.253044 169.221037 
L 201.570441 166.586242 
L 202.887839 163.951447 
L 204.205236 161.316652 
L 205.522634 158.681857 
L 206.840031 156.047062 
L 208.157429 153.412267 
L 209.474827 150.777472 
L 210.792224 148.142677 
L 212.109622 145.507882 
L 213.427019 142.873087 
L 214.744417 140.238292 
L 216.061814 137.603497 
L 217.379212 134.968702 
L 218.696609 132.333907 
L 220.014007 129.699112 
L 221.331404 127.064317 
L 222.648802 124.429522 
L 223.966199 121.794727 
L 225.283597 119.159932 
L 226.600994 116.525137 
L 227.918392 113.890341 
L 229.235789 111.255546 
L 230.553187 108.620751 
L 231.870584 105.985956 
L 233.187982 103.351161 
L 234.505379 100.716366 
L 235.822777 98.081571 
L 237.140174 95.446776 
L 238.457572 92.811981 
L 239.774969 90.177186 
L 241.092367 87.542391 
L 242.409764 84.907596 
L 243.727162 82.272801 
L 245.04456 79.638006 
L 246.361957 77.003211 
L 247.679355 74.368416 
L 248.996752 71.733621 
L 250.31415 69.098826 
L 251.631547 66.464031 
L 252.948945 63.829236 
L 254.266342 61.194441 
L 255.58374 58.559646 
" clip-path="url(#p0273542271)" style="fill: none; stroke: #808000; stroke-opacity: 0.5; stroke-width: 1.5; stroke-linecap: square"/>
   </g>
   <g id="line2d_39">
    <path d="M 44.555937 188.982 
L 47.501728 188.982 
L 50.447518 188.982 
L 53.393309 188.982 
L 56.339099 188.982 
L 59.28489 188.982 
L 62.23068 188.982 
L 65.17647 188.982 
L 68.122261 188.982 
L 71.068051 188.982 
L 74.013842 188.982 
L 76.959632 188.982 
L 79.905422 188.982 
L 82.851213 188.982 
L 85.797003 188.982 
L 88.742794 188.982 
L 91.688584 188.982 
L 94.634374 188.982 
L 97.580165 188.982 
L 100.525955 188.982 
L 103.471746 188.982 
L 106.417536 188.982 
L 109.363326 188.982 
L 112.309117 188.982 
L 115.254907 188.982 
L 118.200698 188.982 
L 121.146488 188.982 
L 124.092278 188.982 
L 127.038069 188.982 
L 129.983859 188.982 
L 132.92965 188.982 
L 135.87544 188.982 
L 138.82123 188.982 
L 141.767021 188.982 
L 144.712811 188.982 
L 147.658602 188.982 
L 150.604392 188.982 
L 153.550182 188.982 
L 156.495973 188.982 
L 159.441763 188.982 
L 162.387554 188.982 
L 165.333344 188.982 
L 168.279134 188.982 
L 171.224925 188.982 
L 174.170715 188.982 
L 177.116506 188.982 
L 180.062296 188.982 
L 183.008086 188.982 
L 185.953877 188.982 
L 188.899667 188.982 
L 191.845458 188.982 
L 194.791248 188.982 
L 197.737039 188.982 
L 200.682829 188.982 
L 203.628619 188.982 
L 206.57441 188.982 
L 209.5202 188.982 
L 212.465991 188.982 
L 215.411781 188.982 
L 218.357571 188.982 
L 221.303362 188.982 
L 224.249152 188.982 
L 227.194943 188.982 
L 230.140733 188.982 
L 233.086523 188.982 
L 236.032314 188.982 
L 238.978104 188.982 
L 241.923895 188.982 
L 244.869685 188.982 
L 247.815475 188.982 
L 250.761266 188.982 
L 253.707056 188.982 
L 256.652847 188.982 
L 259.598637 188.982 
L 262.544427 188.982 
L 265.490218 188.982 
L 268.436008 188.982 
L 271.381799 188.982 
L 274.327589 188.982 
L 277.273379 188.982 
L 280.21917 188.982 
L 283.16496 188.982 
L 286.110751 188.982 
L 289.056541 188.982 
L 292.002331 188.982 
L 294.948122 188.982 
L 297.893912 188.982 
L 300.839703 188.982 
L 303.785493 188.982 
L 306.731283 188.982 
L 309.677074 188.982 
L 312.622864 188.982 
L 315.568655 188.982 
L 318.514445 188.982 
L 321.460235 188.982 
L 324.406026 188.982 
L 327.351816 188.982 
L 330.297607 188.982 
L 333.243397 188.982 
L 336.189188 188.982 
" clip-path="url(#p0273542271)" style="fill: none; stroke: #cc0000; stroke-opacity: 0.5; stroke-width: 1.5; stroke-linecap: square"/>
   </g>
   <g id="line2d_40">
    <path d="M 190.372562 334.798625 
L 190.372562 331.852835 
L 190.372562 328.907044 
L 190.372562 325.961254 
L 190.372562 323.015463 
L 190.372562 320.069673 
L 190.372562 317.123883 
L 190.372562 314.178092 
L 190.372562 311.232302 
L 190.372562 308.286511 
L 190.372562 305.340721 
L 190.372562 302.394931 
L 190.372562 299.44914 
L 190.372562 296.50335 
L 190.372562 293.557559 
L 190.372562 290.611769 
L 190.372562 287.665979 
L 190.372562 284.720188 
L 190.372562 281.774398 
L 190.372562 278.828607 
L 190.372562 275.882817 
L 190.372562 272.937027 
L 190.372562 269.991236 
L 190.372562 267.045446 
L 190.372562 264.099655 
L 190.372562 261.153865 
L 190.372562 258.208074 
L 190.372562 255.262284 
L 190.372562 252.316494 
L 190.372562 249.370703 
L 190.372562 246.424913 
L 190.372562 243.479122 
L 190.372562 240.533332 
L 190.372562 237.587542 
L 190.372562 234.641751 
L 190.372562 231.695961 
L 190.372562 228.75017 
L 190.372562 225.80438 
L 190.372562 222.85859 
L 190.372562 219.912799 
L 190.372562 216.967009 
L 190.372562 214.021218 
L 190.372562 211.075428 
L 190.372562 208.129638 
L 190.372562 205.183847 
L 190.372562 202.238057 
L 190.372562 199.292266 
L 190.372562 196.346476 
L 190.372562 193.400686 
L 190.372562 190.454895 
L 190.372562 187.509105 
L 190.372562 184.563314 
L 190.372562 181.617524 
L 190.372562 178.671734 
L 190.372562 175.725943 
L 190.372562 172.780153 
L 190.372562 169.834362 
L 190.372562 166.888572 
L 190.372562 163.942782 
L 190.372562 160.996991 
L 190.372562 158.051201 
L 190.372562 155.10541 
L 190.372562 152.15962 
L 190.372562 149.21383 
L 190.372562 146.268039 
L 190.372562 143.322249 
L 190.372562 140.376458 
L 190.372562 137.430668 
L 190.372562 134.484878 
L 190.372562 131.539087 
L 190.372562 128.593297 
L 190.372562 125.647506 
L 190.372562 122.701716 
L 190.372562 119.755926 
L 190.372562 116.810135 
L 190.372562 113.864345 
L 190.372562 110.918554 
L 190.372562 107.972764 
L 190.372562 105.026973 
L 190.372562 102.081183 
L 190.372562 99.135393 
L 190.372562 96.189602 
L 190.372562 93.243812 
L 190.372562 90.298021 
L 190.372562 87.352231 
L 190.372562 84.406441 
L 190.372562 81.46065 
L 190.372562 78.51486 
L 190.372562 75.569069 
L 190.372562 72.623279 
L 190.372562 69.677489 
L 190.372562 66.731698 
L 190.372562 63.785908 
L 190.372562 60.840117 
L 190.372562 57.894327 
L 190.372562 54.948537 
L 190.372562 52.002746 
L 190.372562 49.056956 
L 190.372562 46.111165 
L 190.372562 43.165375 
" clip-path="url(#p0273542271)" style="fill: none; stroke: #808080; stroke-opacity: 0.5; stroke-width: 1.5; stroke-linecap: square"/>
   </g>
   <g id="line2d_41">
    <path d="M 87.264638 85.874076 
L 89.347627 87.957064 
L 91.430615 90.040052 
L 93.513603 92.123041 
L 95.596592 94.206029 
L 97.67958 96.289018 
L 99.762568 98.372006 
L 101.845557 100.454994 
L 103.928545 102.537983 
L 106.011533 104.620971 
L 108.094522 106.703959 
L 110.17751 108.786948 
L 112.260499 110.869936 
L 114.343487 112.952924 
L 116.426475 115.035913 
L 118.509464 117.118901 
L 120.592452 119.20189 
L 122.67544 121.284878 
L 124.758429 123.367866 
L 126.841417 125.450855 
L 128.924406 127.533843 
L 131.007394 129.616831 
L 133.090382 131.69982 
L 135.173371 133.782808 
L 137.256359 135.865797 
L 139.339347 137.948785 
L 141.422336 140.031773 
L 143.505324 142.114762 
L 145.588313 144.19775 
L 147.671301 146.280738 
L 149.754289 148.363727 
L 151.837278 150.446715 
L 153.920266 152.529704 
L 156.003254 154.612692 
L 158.086243 156.69568 
L 160.169231 158.778669 
L 162.252219 160.861657 
L 164.335208 162.944645 
L 166.418196 165.027634 
L 168.501185 167.110622 
L 170.584173 169.19361 
L 172.667161 171.276599 
L 174.75015 173.359587 
L 176.833138 175.442576 
L 178.916126 177.525564 
L 180.999115 179.608552 
L 183.082103 181.691541 
L 185.165092 183.774529 
L 187.24808 185.857517 
L 189.331068 187.940506 
L 191.414057 190.023494 
L 193.497045 192.106483 
L 195.580033 194.189471 
L 197.663022 196.272459 
L 199.74601 198.355448 
L 201.828999 200.438436 
L 203.911987 202.521424 
L 205.994975 204.604413 
L 208.077964 206.687401 
L 210.160952 208.77039 
L 212.24394 210.853378 
L 214.326929 212.936366 
L 216.409917 215.019355 
L 218.492906 217.102343 
L 220.575894 219.185331 
L 222.658882 221.26832 
L 224.741871 223.351308 
L 226.824859 225.434296 
L 228.907847 227.517285 
L 230.990836 229.600273 
L 233.073824 231.683262 
L 235.156812 233.76625 
L 237.239801 235.849238 
L 239.322789 237.932227 
L 241.405778 240.015215 
L 243.488766 242.098203 
L 245.571754 244.181192 
L 247.654743 246.26418 
L 249.737731 248.347169 
L 251.820719 250.430157 
L 253.903708 252.513145 
L 255.986696 254.596134 
L 258.069685 256.679122 
L 260.152673 258.76211 
L 262.235661 260.845099 
L 264.31865 262.928087 
L 266.401638 265.011076 
L 268.484626 267.094064 
L 270.567615 269.177052 
L 272.650603 271.260041 
L 274.733592 273.343029 
L 276.81658 275.426017 
L 278.899568 277.509006 
L 280.982557 279.591994 
L 283.065545 281.674982 
L 285.148533 283.757971 
L 287.231522 285.840959 
L 289.31451 287.923948 
L 291.397498 290.006936 
L 293.480487 292.089924 
" clip-path="url(#p0273542271)" style="fill: none; stroke: #4682b4; stroke-opacity: 0.5; stroke-width: 1.5; stroke-linecap: square"/>
   </g>
   <g id="line2d_42">
    <path d="M 44.555937 188.982 
L 336.189188 188.982 
" clip-path="url(#p0273542271)" style="fill: none; stroke: #000000; stroke-width: 0.8; stroke-linecap: square"/>
   </g>
   <g id="line2d_43">
    <path d="M 190.372562 334.798625 
L 190.372562 43.165375 
" clip-path="url(#p0273542271)" style="fill: none; stroke: #000000; stroke-width: 0.8; stroke-linecap: square"/>
   </g>
   <g id="patch_3">
    <path d="M 44.555937 334.798625 
L 44.555937 43.165375 
" style="fill: none; stroke: #000000; stroke-width: 0.8; stroke-linejoin: miter; stroke-linecap: square"/>
   </g>
   <g id="patch_4">
    <path d="M 336.189188 334.798625 
L 336.189188 43.165375 
" style="fill: none; stroke: #000000; stroke-width: 0.8; stroke-linejoin: miter; stroke-linecap: square"/>
   </g>
   <g id="patch_5">
    <path d="M 44.555937 334.798625 
L 336.189188 334.798625 
" style="fill: none; stroke: #000000; stroke-width: 0.8; stroke-linejoin: miter; stroke-linecap: square"/>
   </g>
   <g id="patch_6">
    <path d="M 44.555937 43.165375 
L 336.189188 43.165375 
" style="fill: none; stroke: #000000; stroke-width: 0.8; stroke-linejoin: miter; stroke-linecap: square"/>
   </g>
   <g id="text_21">
    <!-- $x = y$ -->
    <g style="fill: #2e8b57" transform="translate(284.237412 95.117151) scale(0.09 -0.09)">
     <defs>
      <path id="DejaVuSans-3d" d="M 678 2906 
L 4684 2906 
L 4684 2381 
L 678 2381 
L 678 2906 
z
M 678 1631 
L 4684 1631 
L 4684 1100 
L 678 1100 
L 678 1631 
z
" transform="scale(0.015625)"/>
     </defs>
     <use xlink:href="#DejaVuSans-Oblique-78" transform="translate(0 0.3125)"/>
     <use xlink:href="#DejaVuSans-3d" transform="translate(78.662109 0.3125)"/>
     <use xlink:href="#DejaVuSans-Oblique-79" transform="translate(181.933594 0.3125)"/>
    </g>
   </g>
   <g id="text_22">
    <!-- $y = 2x$ -->
    <g style="fill: #808000" transform="translate(251.077758 71.217024) scale(0.09 -0.09)">
     <use xlink:href="#DejaVuSans-Oblique-79" transform="translate(0 0.78125)"/>
     <use xlink:href="#DejaVuSans-3d" transform="translate(78.662109 0.78125)"/>
     <use xlink:href="#DejaVuSans-32" transform="translate(181.933594 0.78125)"/>
     <use xlink:href="#DejaVuSans-Oblique-78" transform="translate(245.556641 0.78125)"/>
    </g>
   </g>
   <g id="text_23">
    <!-- $x$ -->
    <g style="fill: #cc0000" transform="translate(321.607525 185.336584) scale(0.09 -0.09)">
     <use xlink:href="#DejaVuSans-Oblique-78" transform="translate(0 0.3125)"/>
    </g>
   </g>
   <g id="text_24">
    <!-- $y$ -->
    <g style="fill: #808080" transform="translate(194.017978 57.747037) scale(0.09 -0.09)">
     <use xlink:href="#DejaVuSans-Oblique-79" transform="translate(0 0.3125)"/>
    </g>
   </g>
   <g id="text_25">
    <!-- $x = -y$ -->
    <g style="fill: #4682b4" transform="translate(284.237412 275.556018) scale(0.09 -0.09)">
     <use xlink:href="#DejaVuSans-Oblique-78" transform="translate(0 0.3125)"/>
     <use xlink:href="#DejaVuSans-3d" transform="translate(78.662109 0.3125)"/>
     <use xlink:href="#DejaVuSans-2212" transform="translate(181.933594 0.3125)"/>
     <use xlink:href="#DejaVuSans-Oblique-79" transform="translate(265.722656 0.3125)"/>
    </g>
   </g>
   <g id="text_26">
    <!-- Original data with projection directions -->
    <g style="fill: #808080" transform="translate(73.6435 37.165375) scale(0.12 -0.12)">
     <defs>
      <path id="DejaVuSans-4f" d="M 2522 4238 
Q 1834 4238 1429 3725 
Q 1025 3213 1025 2328 
Q 1025 1447 1429 934 
Q 1834 422 2522 422 
Q 3209 422 3611 934 
Q 4013 1447 4013 2328 
Q 4013 3213 3611 3725 
Q 3209 4238 2522 4238 
z
M 2522 4750 
Q 3503 4750 4090 4092 
Q 4678 3434 4678 2328 
Q 4678 1225 4090 567 
Q 3503 -91 2522 -91 
Q 1538 -91 948 565 
Q 359 1222 359 2328 
Q 359 3434 948 4092 
Q 1538 4750 2522 4750 
z
" transform="scale(0.015625)"/>
      <path id="DejaVuSans-72" d="M 2631 2963 
Q 2534 3019 2420 3045 
Q 2306 3072 2169 3072 
Q 1681 3072 1420 2755 
Q 1159 2438 1159 1844 
L 1159 0 
L 581 0 
L 581 3500 
L 1159 3500 
L 1159 2956 
Q 1341 3275 1631 3429 
Q 1922 3584 2338 3584 
Q 2397 3584 2469 3576 
Q 2541 3569 2628 3553 
L 2631 2963 
z
" transform="scale(0.015625)"/>
      <path id="DejaVuSans-69" d="M 603 3500 
L 1178 3500 
L 1178 0 
L 603 0 
L 603 3500 
z
M 603 4863 
L 1178 4863 
L 1178 4134 
L 603 4134 
L 603 4863 
z
" transform="scale(0.015625)"/>
      <path id="DejaVuSans-67" d="M 2906 1791 
Q 2906 2416 2648 2759 
Q 2391 3103 1925 3103 
Q 1463 3103 1205 2759 
Q 947 2416 947 1791 
Q 947 1169 1205 825 
Q 1463 481 1925 481 
Q 2391 481 2648 825 
Q 2906 1169 2906 1791 
z
M 3481 434 
Q 3481 -459 3084 -895 
Q 2688 -1331 1869 -1331 
Q 1566 -1331 1297 -1286 
Q 1028 -1241 775 -1147 
L 775 -588 
Q 1028 -725 1275 -790 
Q 1522 -856 1778 -856 
Q 2344 -856 2625 -561 
Q 2906 -266 2906 331 
L 2906 616 
Q 2728 306 2450 153 
Q 2172 0 1784 0 
Q 1141 0 747 490 
Q 353 981 353 1791 
Q 353 2603 747 3093 
Q 1141 3584 1784 3584 
Q 2172 3584 2450 3431 
Q 2728 3278 2906 2969 
L 2906 3500 
L 3481 3500 
L 3481 434 
z
" transform="scale(0.015625)"/>
      <path id="DejaVuSans-6e" d="M 3513 2113 
L 3513 0 
L 2938 0 
L 2938 2094 
Q 2938 2591 2744 2837 
Q 2550 3084 2163 3084 
Q 1697 3084 1428 2787 
Q 1159 2491 1159 1978 
L 1159 0 
L 581 0 
L 581 3500 
L 1159 3500 
L 1159 2956 
Q 1366 3272 1645 3428 
Q 1925 3584 2291 3584 
Q 2894 3584 3203 3211 
Q 3513 2838 3513 2113 
z
" transform="scale(0.015625)"/>
      <path id="DejaVuSans-61" d="M 2194 1759 
Q 1497 1759 1228 1600 
Q 959 1441 959 1056 
Q 959 750 1161 570 
Q 1363 391 1709 391 
Q 2188 391 2477 730 
Q 2766 1069 2766 1631 
L 2766 1759 
L 2194 1759 
z
M 3341 1997 
L 3341 0 
L 2766 0 
L 2766 531 
Q 2569 213 2275 61 
Q 1981 -91 1556 -91 
Q 1019 -91 701 211 
Q 384 513 384 1019 
Q 384 1609 779 1909 
Q 1175 2209 1959 2209 
L 2766 2209 
L 2766 2266 
Q 2766 2663 2505 2880 
Q 2244 3097 1772 3097 
Q 1472 3097 1187 3025 
Q 903 2953 641 2809 
L 641 3341 
Q 956 3463 1253 3523 
Q 1550 3584 1831 3584 
Q 2591 3584 2966 3190 
Q 3341 2797 3341 1997 
z
" transform="scale(0.015625)"/>
      <path id="DejaVuSans-6c" d="M 603 4863 
L 1178 4863 
L 1178 0 
L 603 0 
L 603 4863 
z
" transform="scale(0.015625)"/>
      <path id="DejaVuSans-20" transform="scale(0.015625)"/>
      <path id="DejaVuSans-64" d="M 2906 2969 
L 2906 4863 
L 3481 4863 
L 3481 0 
L 2906 0 
L 2906 525 
Q 2725 213 2448 61 
Q 2172 -91 1784 -91 
Q 1150 -91 751 415 
Q 353 922 353 1747 
Q 353 2572 751 3078 
Q 1150 3584 1784 3584 
Q 2172 3584 2448 3432 
Q 2725 3281 2906 2969 
z
M 947 1747 
Q 947 1113 1208 752 
Q 1469 391 1925 391 
Q 2381 391 2643 752 
Q 2906 1113 2906 1747 
Q 2906 2381 2643 2742 
Q 2381 3103 1925 3103 
Q 1469 3103 1208 2742 
Q 947 2381 947 1747 
z
" transform="scale(0.015625)"/>
      <path id="DejaVuSans-74" d="M 1172 4494 
L 1172 3500 
L 2356 3500 
L 2356 3053 
L 1172 3053 
L 1172 1153 
Q 1172 725 1289 603 
Q 1406 481 1766 481 
L 2356 481 
L 2356 0 
L 1766 0 
Q 1100 0 847 248 
Q 594 497 594 1153 
L 594 3053 
L 172 3053 
L 172 3500 
L 594 3500 
L 594 4494 
L 1172 4494 
z
" transform="scale(0.015625)"/>
      <path id="DejaVuSans-77" d="M 269 3500 
L 844 3500 
L 1563 769 
L 2278 3500 
L 2956 3500 
L 3675 769 
L 4391 3500 
L 4966 3500 
L 4050 0 
L 3372 0 
L 2619 2869 
L 1863 0 
L 1184 0 
L 269 3500 
z
" transform="scale(0.015625)"/>
      <path id="DejaVuSans-68" d="M 3513 2113 
L 3513 0 
L 2938 0 
L 2938 2094 
Q 2938 2591 2744 2837 
Q 2550 3084 2163 3084 
Q 1697 3084 1428 2787 
Q 1159 2491 1159 1978 
L 1159 0 
L 581 0 
L 581 4863 
L 1159 4863 
L 1159 2956 
Q 1366 3272 1645 3428 
Q 1925 3584 2291 3584 
Q 2894 3584 3203 3211 
Q 3513 2838 3513 2113 
z
" transform="scale(0.015625)"/>
      <path id="DejaVuSans-70" d="M 1159 525 
L 1159 -1331 
L 581 -1331 
L 581 3500 
L 1159 3500 
L 1159 2969 
Q 1341 3281 1617 3432 
Q 1894 3584 2278 3584 
Q 2916 3584 3314 3078 
Q 3713 2572 3713 1747 
Q 3713 922 3314 415 
Q 2916 -91 2278 -91 
Q 1894 -91 1617 61 
Q 1341 213 1159 525 
z
M 3116 1747 
Q 3116 2381 2855 2742 
Q 2594 3103 2138 3103 
Q 1681 3103 1420 2742 
Q 1159 2381 1159 1747 
Q 1159 1113 1420 752 
Q 1681 391 2138 391 
Q 2594 391 2855 752 
Q 3116 1113 3116 1747 
z
" transform="scale(0.015625)"/>
      <path id="DejaVuSans-6f" d="M 1959 3097 
Q 1497 3097 1228 2736 
Q 959 2375 959 1747 
Q 959 1119 1226 758 
Q 1494 397 1959 397 
Q 2419 397 2687 759 
Q 2956 1122 2956 1747 
Q 2956 2369 2687 2733 
Q 2419 3097 1959 3097 
z
M 1959 3584 
Q 2709 3584 3137 3096 
Q 3566 2609 3566 1747 
Q 3566 888 3137 398 
Q 2709 -91 1959 -91 
Q 1206 -91 779 398 
Q 353 888 353 1747 
Q 353 2609 779 3096 
Q 1206 3584 1959 3584 
z
" transform="scale(0.015625)"/>
      <path id="DejaVuSans-6a" d="M 603 3500 
L 1178 3500 
L 1178 -63 
Q 1178 -731 923 -1031 
Q 669 -1331 103 -1331 
L -116 -1331 
L -116 -844 
L 38 -844 
Q 366 -844 484 -692 
Q 603 -541 603 -63 
L 603 3500 
z
M 603 4863 
L 1178 4863 
L 1178 4134 
L 603 4134 
L 603 4863 
z
" transform="scale(0.015625)"/>
      <path id="DejaVuSans-65" d="M 3597 1894 
L 3597 1613 
L 953 1613 
Q 991 1019 1311 708 
Q 1631 397 2203 397 
Q 2534 397 2845 478 
Q 3156 559 3463 722 
L 3463 178 
Q 3153 47 2828 -22 
Q 2503 -91 2169 -91 
Q 1331 -91 842 396 
Q 353 884 353 1716 
Q 353 2575 817 3079 
Q 1281 3584 2069 3584 
Q 2775 3584 3186 3129 
Q 3597 2675 3597 1894 
z
M 3022 2063 
Q 3016 2534 2758 2815 
Q 2500 3097 2075 3097 
Q 1594 3097 1305 2825 
Q 1016 2553 972 2059 
L 3022 2063 
z
" transform="scale(0.015625)"/>
      <path id="DejaVuSans-63" d="M 3122 3366 
L 3122 2828 
Q 2878 2963 2633 3030 
Q 2388 3097 2138 3097 
Q 1578 3097 1268 2742 
Q 959 2388 959 1747 
Q 959 1106 1268 751 
Q 1578 397 2138 397 
Q 2388 397 2633 464 
Q 2878 531 3122 666 
L 3122 134 
Q 2881 22 2623 -34 
Q 2366 -91 2075 -91 
Q 1284 -91 818 406 
Q 353 903 353 1747 
Q 353 2603 823 3093 
Q 1294 3584 2113 3584 
Q 2378 3584 2631 3529 
Q 2884 3475 3122 3366 
z
" transform="scale(0.015625)"/>
      <path id="DejaVuSans-73" d="M 2834 3397 
L 2834 2853 
Q 2591 2978 2328 3040 
Q 2066 3103 1784 3103 
Q 1356 3103 1142 2972 
Q 928 2841 928 2578 
Q 928 2378 1081 2264 
Q 1234 2150 1697 2047 
L 1894 2003 
Q 2506 1872 2764 1633 
Q 3022 1394 3022 966 
Q 3022 478 2636 193 
Q 2250 -91 1575 -91 
Q 1294 -91 989 -36 
Q 684 19 347 128 
L 347 722 
Q 666 556 975 473 
Q 1284 391 1588 391 
Q 1994 391 2212 530 
Q 2431 669 2431 922 
Q 2431 1156 2273 1281 
Q 2116 1406 1581 1522 
L 1381 1569 
Q 847 1681 609 1914 
Q 372 2147 372 2553 
Q 372 3047 722 3315 
Q 1072 3584 1716 3584 
Q 2034 3584 2315 3537 
Q 2597 3491 2834 3397 
z
" transform="scale(0.015625)"/>
     </defs>
     <use xlink:href="#DejaVuSans-4f"/>
     <use xlink:href="#DejaVuSans-72" transform="translate(78.710938 0)"/>
     <use xlink:href="#DejaVuSans-69" transform="translate(119.824219 0)"/>
     <use xlink:href="#DejaVuSans-67" transform="translate(147.607422 0)"/>
     <use xlink:href="#DejaVuSans-69" transform="translate(211.083984 0)"/>
     <use xlink:href="#DejaVuSans-6e" transform="translate(238.867188 0)"/>
     <use xlink:href="#DejaVuSans-61" transform="translate(302.246094 0)"/>
     <use xlink:href="#DejaVuSans-6c" transform="translate(363.525391 0)"/>
     <use xlink:href="#DejaVuSans-20" transform="translate(391.308594 0)"/>
     <use xlink:href="#DejaVuSans-64" transform="translate(423.095703 0)"/>
     <use xlink:href="#DejaVuSans-61" transform="translate(486.572266 0)"/>
     <use xlink:href="#DejaVuSans-74" transform="translate(547.851562 0)"/>
     <use xlink:href="#DejaVuSans-61" transform="translate(587.060547 0)"/>
     <use xlink:href="#DejaVuSans-20" transform="translate(648.339844 0)"/>
     <use xlink:href="#DejaVuSans-77" transform="translate(680.126953 0)"/>
     <use xlink:href="#DejaVuSans-69" transform="translate(761.914062 0)"/>
     <use xlink:href="#DejaVuSans-74" transform="translate(789.697266 0)"/>
     <use xlink:href="#DejaVuSans-68" transform="translate(828.90625 0)"/>
     <use xlink:href="#DejaVuSans-20" transform="translate(892.285156 0)"/>
     <use xlink:href="#DejaVuSans-70" transform="translate(924.072266 0)"/>
     <use xlink:href="#DejaVuSans-72" transform="translate(987.548828 0)"/>
     <use xlink:href="#DejaVuSans-6f" transform="translate(1026.412109 0)"/>
     <use xlink:href="#DejaVuSans-6a" transform="translate(1087.59375 0)"/>
     <use xlink:href="#DejaVuSans-65" transform="translate(1115.376953 0)"/>
     <use xlink:href="#DejaVuSans-63" transform="translate(1176.900391 0)"/>
     <use xlink:href="#DejaVuSans-74" transform="translate(1231.880859 0)"/>
     <use xlink:href="#DejaVuSans-69" transform="translate(1271.089844 0)"/>
     <use xlink:href="#DejaVuSans-6f" transform="translate(1298.873047 0)"/>
     <use xlink:href="#DejaVuSans-6e" transform="translate(1360.054688 0)"/>
     <use xlink:href="#DejaVuSans-20" transform="translate(1423.433594 0)"/>
     <use xlink:href="#DejaVuSans-64" transform="translate(1455.220703 0)"/>
     <use xlink:href="#DejaVuSans-69" transform="translate(1518.697266 0)"/>
     <use xlink:href="#DejaVuSans-72" transform="translate(1546.480469 0)"/>
     <use xlink:href="#DejaVuSans-65" transform="translate(1585.34375 0)"/>
     <use xlink:href="#DejaVuSans-63" transform="translate(1646.867188 0)"/>
     <use xlink:href="#DejaVuSans-74" transform="translate(1701.847656 0)"/>
     <use xlink:href="#DejaVuSans-69" transform="translate(1741.056641 0)"/>
     <use xlink:href="#DejaVuSans-6f" transform="translate(1768.839844 0)"/>
     <use xlink:href="#DejaVuSans-6e" transform="translate(1830.021484 0)"/>
     <use xlink:href="#DejaVuSans-73" transform="translate(1893.400391 0)"/>
    </g>
   </g>
   <g id="line2d_44">
    <defs>
     <path id="m364f2671f4" d="M 0 3.5 
C 0.928211 3.5 1.81853 3.131218 2.474874 2.474874 
C 3.131218 1.81853 3.5 0.928211 3.5 0 
C 3.5 -0.928211 3.131218 -1.81853 2.474874 -2.474874 
C 1.81853 -3.131218 0.928211 -3.5 0 -3.5 
C -0.928211 -3.5 -1.81853 -3.131218 -2.474874 -2.474874 
C -3.131218 -1.81853 -3.5 -0.928211 -3.5 0 
C -3.5 0.928211 -3.131218 1.81853 -2.474874 2.474874 
C -1.81853 3.131218 -0.928211 3.5 0 3.5 
z
" style="stroke: #808080; stroke-opacity: 0.7"/>
    </defs>
    <g clip-path="url(#p0273542271)">
     <use xlink:href="#m364f2671f4" x="166.945944" y="211.990563" style="fill: #808080; fill-opacity: 0.7; stroke: #808080; stroke-opacity: 0.7"/>
     <use xlink:href="#m364f2671f4" x="140.606173" y="196.29626" style="fill: #808080; fill-opacity: 0.7; stroke: #808080; stroke-opacity: 0.7"/>
     <use xlink:href="#m364f2671f4" x="204.793294" y="182.122442" style="fill: #808080; fill-opacity: 0.7; stroke: #808080; stroke-opacity: 0.7"/>
     <use xlink:href="#m364f2671f4" x="102.272487" y="246.056428" style="fill: #808080; fill-opacity: 0.7; stroke: #808080; stroke-opacity: 0.7"/>
     <use xlink:href="#m364f2671f4" x="207.867055" y="161.749139" style="fill: #808080; fill-opacity: 0.7; stroke: #808080; stroke-opacity: 0.7"/>
     <use xlink:href="#m364f2671f4" x="218.93938" y="175.437338" style="fill: #808080; fill-opacity: 0.7; stroke: #808080; stroke-opacity: 0.7"/>
     <use xlink:href="#m364f2671f4" x="199.789315" y="224.77724" style="fill: #808080; fill-opacity: 0.7; stroke: #808080; stroke-opacity: 0.7"/>
     <use xlink:href="#m364f2671f4" x="283.487415" y="122.966018" style="fill: #808080; fill-opacity: 0.7; stroke: #808080; stroke-opacity: 0.7"/>
     <use xlink:href="#m364f2671f4" x="237.776241" y="141.635643" style="fill: #808080; fill-opacity: 0.7; stroke: #808080; stroke-opacity: 0.7"/>
     <use xlink:href="#m364f2671f4" x="251.985501" y="169.098991" style="fill: #808080; fill-opacity: 0.7; stroke: #808080; stroke-opacity: 0.7"/>
     <use xlink:href="#m364f2671f4" x="119.192076" y="254.446276" style="fill: #808080; fill-opacity: 0.7; stroke: #808080; stroke-opacity: 0.7"/>
     <use xlink:href="#m364f2671f4" x="203.051717" y="210.836833" style="fill: #808080; fill-opacity: 0.7; stroke: #808080; stroke-opacity: 0.7"/>
     <use xlink:href="#m364f2671f4" x="216.505611" y="164.306276" style="fill: #808080; fill-opacity: 0.7; stroke: #808080; stroke-opacity: 0.7"/>
     <use xlink:href="#m364f2671f4" x="244.032992" y="134.929499" style="fill: #808080; fill-opacity: 0.7; stroke: #808080; stroke-opacity: 0.7"/>
     <use xlink:href="#m364f2671f4" x="223.878419" y="167.271712" style="fill: #808080; fill-opacity: 0.7; stroke: #808080; stroke-opacity: 0.7"/>
     <use xlink:href="#m364f2671f4" x="199.740711" y="138.669179" style="fill: #808080; fill-opacity: 0.7; stroke: #808080; stroke-opacity: 0.7"/>
     <use xlink:href="#m364f2671f4" x="202.98617" y="202.495204" style="fill: #808080; fill-opacity: 0.7; stroke: #808080; stroke-opacity: 0.7"/>
     <use xlink:href="#m364f2671f4" x="162.770591" y="240.295095" style="fill: #808080; fill-opacity: 0.7; stroke: #808080; stroke-opacity: 0.7"/>
     <use xlink:href="#m364f2671f4" x="201.97775" y="223.984675" style="fill: #808080; fill-opacity: 0.7; stroke: #808080; stroke-opacity: 0.7"/>
     <use xlink:href="#m364f2671f4" x="254.964384" y="129.760686" style="fill: #808080; fill-opacity: 0.7; stroke: #808080; stroke-opacity: 0.7"/>
     <use xlink:href="#m364f2671f4" x="151.291097" y="218.168369" style="fill: #808080; fill-opacity: 0.7; stroke: #808080; stroke-opacity: 0.7"/>
     <use xlink:href="#m364f2671f4" x="199.587629" y="188.064381" style="fill: #808080; fill-opacity: 0.7; stroke: #808080; stroke-opacity: 0.7"/>
     <use xlink:href="#m364f2671f4" x="272.870499" y="135.56451" style="fill: #808080; fill-opacity: 0.7; stroke: #808080; stroke-opacity: 0.7"/>
     <use xlink:href="#m364f2671f4" x="201.616545" y="155.271854" style="fill: #808080; fill-opacity: 0.7; stroke: #808080; stroke-opacity: 0.7"/>
     <use xlink:href="#m364f2671f4" x="192.98038" y="227.108049" style="fill: #808080; fill-opacity: 0.7; stroke: #808080; stroke-opacity: 0.7"/>
     <use xlink:href="#m364f2671f4" x="178.414898" y="207.921655" style="fill: #808080; fill-opacity: 0.7; stroke: #808080; stroke-opacity: 0.7"/>
     <use xlink:href="#m364f2671f4" x="217.522633" y="151.988381" style="fill: #808080; fill-opacity: 0.7; stroke: #808080; stroke-opacity: 0.7"/>
     <use xlink:href="#m364f2671f4" x="128.001076" y="220.512554" style="fill: #808080; fill-opacity: 0.7; stroke: #808080; stroke-opacity: 0.7"/>
     <use xlink:href="#m364f2671f4" x="236.077564" y="157.33828" style="fill: #808080; fill-opacity: 0.7; stroke: #808080; stroke-opacity: 0.7"/>
     <use xlink:href="#m364f2671f4" x="162.701152" y="190.104475" style="fill: #808080; fill-opacity: 0.7; stroke: #808080; stroke-opacity: 0.7"/>
    </g>
   </g>
  </g>
  <g id="axes_2">
   <g id="line2d_45">
    <path d="M 372.002306 98.091 
L 765.707194 98.091 
" clip-path="url(#p012abd57bb)" style="fill: none; stroke: #2e8b57; stroke-opacity: 0.6; stroke-width: 1.5; stroke-linecap: square"/>
   </g>
   <g id="line2d_46">
    <path d="M 372.002306 158.685 
L 765.707194 158.685 
" clip-path="url(#p012abd57bb)" style="fill: none; stroke: #808000; stroke-opacity: 0.6; stroke-width: 1.5; stroke-linecap: square"/>
   </g>
   <g id="line2d_47">
    <path d="M 372.002306 219.279 
L 765.707194 219.279 
" clip-path="url(#p012abd57bb)" style="fill: none; stroke: #cc0000; stroke-opacity: 0.6; stroke-width: 1.5; stroke-linecap: square"/>
   </g>
   <g id="line2d_48">
    <path d="M 372.002306 279.873 
L 765.707194 279.873 
" clip-path="url(#p012abd57bb)" style="fill: none; stroke: #808080; stroke-opacity: 0.6; stroke-width: 1.5; stroke-linecap: square"/>
   </g>
   <g id="line2d_49">
    <path d="M 372.002306 340.467 
L 765.707194 340.467 
" clip-path="url(#p012abd57bb)" style="fill: none; stroke: #4682b4; stroke-opacity: 0.6; stroke-width: 1.5; stroke-linecap: square"/>
   </g>
   <g id="patch_7">
    <path d="M 391.876318 98.091 
Q 377.469739 98.091 364.740211 98.091 
" style="fill: none; stroke: #2e8b57; stroke-width: 1.5; stroke-linecap: round"/>
    <path d="M 368.740211 100.091 
L 364.740211 98.091 
L 368.740211 96.091 
" style="fill: none; stroke: #2e8b57; stroke-width: 1.5; stroke-linecap: round"/>
   </g>
   <g id="patch_8">
    <path d="M 745.833182 98.091 
Q 760.239761 98.091 772.969289 98.091 
" style="fill: none; stroke: #2e8b57; stroke-width: 1.5; stroke-linecap: round"/>
    <path d="M 768.969289 96.091 
L 772.969289 98.091 
L 768.969289 100.091 
" style="fill: none; stroke: #2e8b57; stroke-width: 1.5; stroke-linecap: round"/>
   </g>
   <g id="text_27">
    <!-- $x = y$ -->
    <g style="fill: #2e8b57" transform="translate(787.579687 101.103969) scale(0.11 -0.11)">
     <use xlink:href="#DejaVuSans-Oblique-78" transform="translate(0 0.3125)"/>
     <use xlink:href="#DejaVuSans-3d" transform="translate(78.662109 0.3125)"/>
     <use xlink:href="#DejaVuSans-Oblique-79" transform="translate(181.933594 0.3125)"/>
    </g>
   </g>
   <g id="patch_9">
    <path d="M 391.876318 158.685 
Q 377.469739 158.685 364.740211 158.685 
" style="fill: none; stroke: #808000; stroke-width: 1.5; stroke-linecap: round"/>
    <path d="M 368.740211 160.685 
L 364.740211 158.685 
L 368.740211 156.685 
" style="fill: none; stroke: #808000; stroke-width: 1.5; stroke-linecap: round"/>
   </g>
   <g id="patch_10">
    <path d="M 745.833182 158.685 
Q 760.239761 158.685 772.969289 158.685 
" style="fill: none; stroke: #808000; stroke-width: 1.5; stroke-linecap: round"/>
    <path d="M 768.969289 156.685 
L 772.969289 158.685 
L 768.969289 160.685 
" style="fill: none; stroke: #808000; stroke-width: 1.5; stroke-linecap: round"/>
   </g>
   <g id="text_28">
    <!-- $y = 2x$ -->
    <g style="fill: #808000" transform="translate(787.579687 161.697969) scale(0.11 -0.11)">
     <use xlink:href="#DejaVuSans-Oblique-79" transform="translate(0 0.78125)"/>
     <use xlink:href="#DejaVuSans-3d" transform="translate(78.662109 0.78125)"/>
     <use xlink:href="#DejaVuSans-32" transform="translate(181.933594 0.78125)"/>
     <use xlink:href="#DejaVuSans-Oblique-78" transform="translate(245.556641 0.78125)"/>
    </g>
   </g>
   <g id="patch_11">
    <path d="M 391.876318 219.279 
Q 377.469739 219.279 364.740211 219.279 
" style="fill: none; stroke: #cc0000; stroke-width: 1.5; stroke-linecap: round"/>
    <path d="M 368.740211 221.279 
L 364.740211 219.279 
L 368.740211 217.279 
" style="fill: none; stroke: #cc0000; stroke-width: 1.5; stroke-linecap: round"/>
   </g>
   <g id="patch_12">
    <path d="M 745.833182 219.279 
Q 760.239761 219.279 772.969289 219.279 
" style="fill: none; stroke: #cc0000; stroke-width: 1.5; stroke-linecap: round"/>
    <path d="M 768.969289 217.279 
L 772.969289 219.279 
L 768.969289 221.279 
" style="fill: none; stroke: #cc0000; stroke-width: 1.5; stroke-linecap: round"/>
   </g>
   <g id="text_29">
    <!-- $x$ -->
    <g style="fill: #cc0000" transform="translate(787.579687 222.314312) scale(0.11 -0.11)">
     <use xlink:href="#DejaVuSans-Oblique-78" transform="translate(0 0.3125)"/>
    </g>
   </g>
   <g id="patch_13">
    <path d="M 391.876318 279.873 
Q 377.469739 279.873 364.740211 279.873 
" style="fill: none; stroke: #808080; stroke-width: 1.5; stroke-linecap: round"/>
    <path d="M 368.740211 281.873 
L 364.740211 279.873 
L 368.740211 277.873 
" style="fill: none; stroke: #808080; stroke-width: 1.5; stroke-linecap: round"/>
   </g>
   <g id="patch_14">
    <path d="M 745.833182 279.873 
Q 760.239761 279.873 772.969289 279.873 
" style="fill: none; stroke: #808080; stroke-width: 1.5; stroke-linecap: round"/>
    <path d="M 768.969289 277.873 
L 772.969289 279.873 
L 768.969289 281.873 
" style="fill: none; stroke: #808080; stroke-width: 1.5; stroke-linecap: round"/>
   </g>
   <g id="text_30">
    <!-- $y$ -->
    <g style="fill: #808080" transform="translate(787.579687 282.885969) scale(0.11 -0.11)">
     <use xlink:href="#DejaVuSans-Oblique-79" transform="translate(0 0.3125)"/>
    </g>
   </g>
   <g id="patch_15">
    <path d="M 391.876318 340.467 
Q 377.469739 340.467 364.740211 340.467 
" style="fill: none; stroke: #4682b4; stroke-width: 1.5; stroke-linecap: round"/>
    <path d="M 368.740211 342.467 
L 364.740211 340.467 
L 368.740211 338.467 
" style="fill: none; stroke: #4682b4; stroke-width: 1.5; stroke-linecap: round"/>
   </g>
   <g id="patch_16">
    <path d="M 745.833182 340.467 
Q 760.239761 340.467 772.969289 340.467 
" style="fill: none; stroke: #4682b4; stroke-width: 1.5; stroke-linecap: round"/>
    <path d="M 768.969289 338.467 
L 772.969289 340.467 
L 768.969289 342.467 
" style="fill: none; stroke: #4682b4; stroke-width: 1.5; stroke-linecap: round"/>
   </g>
   <g id="text_31">
    <!-- $x = -y$ -->
    <g style="fill: #4682b4" transform="translate(787.579687 343.479969) scale(0.11 -0.11)">
     <use xlink:href="#DejaVuSans-Oblique-78" transform="translate(0 0.3125)"/>
     <use xlink:href="#DejaVuSans-3d" transform="translate(78.662109 0.3125)"/>
     <use xlink:href="#DejaVuSans-2212" transform="translate(181.933594 0.3125)"/>
     <use xlink:href="#DejaVuSans-Oblique-79" transform="translate(265.722656 0.3125)"/>
    </g>
   </g>
   <g id="text_32">
    <!-- More spread -->
    <g style="fill: #cc0000" transform="translate(533.481312 42.3977) scale(0.1 -0.1)">
     <defs>
      <path id="DejaVuSans-Bold-4d" d="M 588 4666 
L 2119 4666 
L 3181 2169 
L 4250 4666 
L 5778 4666 
L 5778 0 
L 4641 0 
L 4641 3413 
L 3566 897 
L 2803 897 
L 1728 3413 
L 1728 0 
L 588 0 
L 588 4666 
z
" transform="scale(0.015625)"/>
      <path id="DejaVuSans-Bold-6f" d="M 2203 2784 
Q 1831 2784 1636 2517 
Q 1441 2250 1441 1747 
Q 1441 1244 1636 976 
Q 1831 709 2203 709 
Q 2569 709 2762 976 
Q 2956 1244 2956 1747 
Q 2956 2250 2762 2517 
Q 2569 2784 2203 2784 
z
M 2203 3584 
Q 3106 3584 3614 3096 
Q 4122 2609 4122 1747 
Q 4122 884 3614 396 
Q 3106 -91 2203 -91 
Q 1297 -91 786 396 
Q 275 884 275 1747 
Q 275 2609 786 3096 
Q 1297 3584 2203 3584 
z
" transform="scale(0.015625)"/>
      <path id="DejaVuSans-Bold-72" d="M 3138 2547 
Q 2991 2616 2845 2648 
Q 2700 2681 2553 2681 
Q 2122 2681 1889 2404 
Q 1656 2128 1656 1613 
L 1656 0 
L 538 0 
L 538 3500 
L 1656 3500 
L 1656 2925 
Q 1872 3269 2151 3426 
Q 2431 3584 2822 3584 
Q 2878 3584 2943 3579 
Q 3009 3575 3134 3559 
L 3138 2547 
z
" transform="scale(0.015625)"/>
      <path id="DejaVuSans-Bold-65" d="M 4031 1759 
L 4031 1441 
L 1416 1441 
Q 1456 1047 1700 850 
Q 1944 653 2381 653 
Q 2734 653 3104 758 
Q 3475 863 3866 1075 
L 3866 213 
Q 3469 63 3072 -14 
Q 2675 -91 2278 -91 
Q 1328 -91 801 392 
Q 275 875 275 1747 
Q 275 2603 792 3093 
Q 1309 3584 2216 3584 
Q 3041 3584 3536 3087 
Q 4031 2591 4031 1759 
z
M 2881 2131 
Q 2881 2450 2695 2645 
Q 2509 2841 2209 2841 
Q 1884 2841 1681 2658 
Q 1478 2475 1428 2131 
L 2881 2131 
z
" transform="scale(0.015625)"/>
      <path id="DejaVuSans-Bold-20" transform="scale(0.015625)"/>
      <path id="DejaVuSans-Bold-73" d="M 3272 3391 
L 3272 2541 
Q 2913 2691 2578 2766 
Q 2244 2841 1947 2841 
Q 1628 2841 1473 2761 
Q 1319 2681 1319 2516 
Q 1319 2381 1436 2309 
Q 1553 2238 1856 2203 
L 2053 2175 
Q 2913 2066 3209 1816 
Q 3506 1566 3506 1031 
Q 3506 472 3093 190 
Q 2681 -91 1863 -91 
Q 1516 -91 1145 -36 
Q 775 19 384 128 
L 384 978 
Q 719 816 1070 734 
Q 1422 653 1784 653 
Q 2113 653 2278 743 
Q 2444 834 2444 1013 
Q 2444 1163 2330 1236 
Q 2216 1309 1875 1350 
L 1678 1375 
Q 931 1469 631 1722 
Q 331 1975 331 2491 
Q 331 3047 712 3315 
Q 1094 3584 1881 3584 
Q 2191 3584 2531 3537 
Q 2872 3491 3272 3391 
z
" transform="scale(0.015625)"/>
      <path id="DejaVuSans-Bold-70" d="M 1656 506 
L 1656 -1331 
L 538 -1331 
L 538 3500 
L 1656 3500 
L 1656 2988 
Q 1888 3294 2169 3439 
Q 2450 3584 2816 3584 
Q 3463 3584 3878 3070 
Q 4294 2556 4294 1747 
Q 4294 938 3878 423 
Q 3463 -91 2816 -91 
Q 2450 -91 2169 54 
Q 1888 200 1656 506 
z
M 2400 2772 
Q 2041 2772 1848 2508 
Q 1656 2244 1656 1747 
Q 1656 1250 1848 986 
Q 2041 722 2400 722 
Q 2759 722 2948 984 
Q 3138 1247 3138 1747 
Q 3138 2247 2948 2509 
Q 2759 2772 2400 2772 
z
" transform="scale(0.015625)"/>
      <path id="DejaVuSans-Bold-61" d="M 2106 1575 
Q 1756 1575 1579 1456 
Q 1403 1338 1403 1106 
Q 1403 894 1545 773 
Q 1688 653 1941 653 
Q 2256 653 2472 879 
Q 2688 1106 2688 1447 
L 2688 1575 
L 2106 1575 
z
M 3816 1997 
L 3816 0 
L 2688 0 
L 2688 519 
Q 2463 200 2181 54 
Q 1900 -91 1497 -91 
Q 953 -91 614 226 
Q 275 544 275 1050 
Q 275 1666 698 1953 
Q 1122 2241 2028 2241 
L 2688 2241 
L 2688 2328 
Q 2688 2594 2478 2717 
Q 2269 2841 1825 2841 
Q 1466 2841 1156 2769 
Q 847 2697 581 2553 
L 581 3406 
Q 941 3494 1303 3539 
Q 1666 3584 2028 3584 
Q 2975 3584 3395 3211 
Q 3816 2838 3816 1997 
z
" transform="scale(0.015625)"/>
      <path id="DejaVuSans-Bold-64" d="M 2919 2988 
L 2919 4863 
L 4044 4863 
L 4044 0 
L 2919 0 
L 2919 506 
Q 2688 197 2409 53 
Q 2131 -91 1766 -91 
Q 1119 -91 703 423 
Q 288 938 288 1747 
Q 288 2556 703 3070 
Q 1119 3584 1766 3584 
Q 2128 3584 2408 3439 
Q 2688 3294 2919 2988 
z
M 2181 722 
Q 2541 722 2730 984 
Q 2919 1247 2919 1747 
Q 2919 2247 2730 2509 
Q 2541 2772 2181 2772 
Q 1825 2772 1636 2509 
Q 1447 2247 1447 1747 
Q 1447 1247 1636 984 
Q 1825 722 2181 722 
z
" transform="scale(0.015625)"/>
     </defs>
     <use xlink:href="#DejaVuSans-Bold-4d"/>
     <use xlink:href="#DejaVuSans-Bold-6f" transform="translate(99.511719 0)"/>
     <use xlink:href="#DejaVuSans-Bold-72" transform="translate(168.212891 0)"/>
     <use xlink:href="#DejaVuSans-Bold-65" transform="translate(217.529297 0)"/>
     <use xlink:href="#DejaVuSans-Bold-20" transform="translate(285.351562 0)"/>
     <use xlink:href="#DejaVuSans-Bold-73" transform="translate(320.166016 0)"/>
     <use xlink:href="#DejaVuSans-Bold-70" transform="translate(379.6875 0)"/>
     <use xlink:href="#DejaVuSans-Bold-72" transform="translate(451.269531 0)"/>
     <use xlink:href="#DejaVuSans-Bold-65" transform="translate(500.585938 0)"/>
     <use xlink:href="#DejaVuSans-Bold-61" transform="translate(568.408203 0)"/>
     <use xlink:href="#DejaVuSans-Bold-64" transform="translate(635.888672 0)"/>
    </g>
    <!-- More information -->
    <g style="fill: #cc0000" transform="translate(519.814125 53.595512) scale(0.1 -0.1)">
     <defs>
      <path id="DejaVuSans-Bold-69" d="M 538 3500 
L 1656 3500 
L 1656 0 
L 538 0 
L 538 3500 
z
M 538 4863 
L 1656 4863 
L 1656 3950 
L 538 3950 
L 538 4863 
z
" transform="scale(0.015625)"/>
      <path id="DejaVuSans-Bold-6e" d="M 4056 2131 
L 4056 0 
L 2931 0 
L 2931 347 
L 2931 1631 
Q 2931 2084 2911 2256 
Q 2891 2428 2841 2509 
Q 2775 2619 2662 2680 
Q 2550 2741 2406 2741 
Q 2056 2741 1856 2470 
Q 1656 2200 1656 1722 
L 1656 0 
L 538 0 
L 538 3500 
L 1656 3500 
L 1656 2988 
Q 1909 3294 2193 3439 
Q 2478 3584 2822 3584 
Q 3428 3584 3742 3212 
Q 4056 2841 4056 2131 
z
" transform="scale(0.015625)"/>
      <path id="DejaVuSans-Bold-66" d="M 2841 4863 
L 2841 4128 
L 2222 4128 
Q 1984 4128 1890 4042 
Q 1797 3956 1797 3744 
L 1797 3500 
L 2753 3500 
L 2753 2700 
L 1797 2700 
L 1797 0 
L 678 0 
L 678 2700 
L 122 2700 
L 122 3500 
L 678 3500 
L 678 3744 
Q 678 4316 997 4589 
Q 1316 4863 1984 4863 
L 2841 4863 
z
" transform="scale(0.015625)"/>
      <path id="DejaVuSans-Bold-6d" d="M 3781 2919 
Q 3994 3244 4286 3414 
Q 4578 3584 4928 3584 
Q 5531 3584 5847 3212 
Q 6163 2841 6163 2131 
L 6163 0 
L 5038 0 
L 5038 1825 
Q 5041 1866 5042 1909 
Q 5044 1953 5044 2034 
Q 5044 2406 4934 2573 
Q 4825 2741 4581 2741 
Q 4263 2741 4089 2478 
Q 3916 2216 3909 1719 
L 3909 0 
L 2784 0 
L 2784 1825 
Q 2784 2406 2684 2573 
Q 2584 2741 2328 2741 
Q 2006 2741 1831 2477 
Q 1656 2213 1656 1722 
L 1656 0 
L 531 0 
L 531 3500 
L 1656 3500 
L 1656 2988 
Q 1863 3284 2130 3434 
Q 2397 3584 2719 3584 
Q 3081 3584 3359 3409 
Q 3638 3234 3781 2919 
z
" transform="scale(0.015625)"/>
      <path id="DejaVuSans-Bold-74" d="M 1759 4494 
L 1759 3500 
L 2913 3500 
L 2913 2700 
L 1759 2700 
L 1759 1216 
Q 1759 972 1856 886 
Q 1953 800 2241 800 
L 2816 800 
L 2816 0 
L 1856 0 
Q 1194 0 917 276 
Q 641 553 641 1216 
L 641 2700 
L 84 2700 
L 84 3500 
L 641 3500 
L 641 4494 
L 1759 4494 
z
" transform="scale(0.015625)"/>
     </defs>
     <use xlink:href="#DejaVuSans-Bold-4d"/>
     <use xlink:href="#DejaVuSans-Bold-6f" transform="translate(99.511719 0)"/>
     <use xlink:href="#DejaVuSans-Bold-72" transform="translate(168.212891 0)"/>
     <use xlink:href="#DejaVuSans-Bold-65" transform="translate(217.529297 0)"/>
     <use xlink:href="#DejaVuSans-Bold-20" transform="translate(285.351562 0)"/>
     <use xlink:href="#DejaVuSans-Bold-69" transform="translate(320.166016 0)"/>
     <use xlink:href="#DejaVuSans-Bold-6e" transform="translate(354.443359 0)"/>
     <use xlink:href="#DejaVuSans-Bold-66" transform="translate(425.634766 0)"/>
     <use xlink:href="#DejaVuSans-Bold-6f" transform="translate(469.140625 0)"/>
     <use xlink:href="#DejaVuSans-Bold-72" transform="translate(537.841797 0)"/>
     <use xlink:href="#DejaVuSans-Bold-6d" transform="translate(587.158203 0)"/>
     <use xlink:href="#DejaVuSans-Bold-61" transform="translate(691.357422 0)"/>
     <use xlink:href="#DejaVuSans-Bold-74" transform="translate(758.837891 0)"/>
     <use xlink:href="#DejaVuSans-Bold-69" transform="translate(806.640625 0)"/>
     <use xlink:href="#DejaVuSans-Bold-6f" transform="translate(840.917969 0)"/>
     <use xlink:href="#DejaVuSans-Bold-6e" transform="translate(909.619141 0)"/>
    </g>
   </g>
   <g id="text_33">
    <!-- Less spread -->
    <g style="fill: #4682b4" transform="translate(535.220375 366.243637) scale(0.1 -0.1)">
     <defs>
      <path id="DejaVuSans-Bold-4c" d="M 588 4666 
L 1791 4666 
L 1791 909 
L 3903 909 
L 3903 0 
L 588 0 
L 588 4666 
z
" transform="scale(0.015625)"/>
     </defs>
     <use xlink:href="#DejaVuSans-Bold-4c"/>
     <use xlink:href="#DejaVuSans-Bold-65" transform="translate(63.720703 0)"/>
     <use xlink:href="#DejaVuSans-Bold-73" transform="translate(131.542969 0)"/>
     <use xlink:href="#DejaVuSans-Bold-73" transform="translate(191.064453 0)"/>
     <use xlink:href="#DejaVuSans-Bold-20" transform="translate(250.585938 0)"/>
     <use xlink:href="#DejaVuSans-Bold-73" transform="translate(285.400391 0)"/>
     <use xlink:href="#DejaVuSans-Bold-70" transform="translate(344.921875 0)"/>
     <use xlink:href="#DejaVuSans-Bold-72" transform="translate(416.503906 0)"/>
     <use xlink:href="#DejaVuSans-Bold-65" transform="translate(465.820312 0)"/>
     <use xlink:href="#DejaVuSans-Bold-61" transform="translate(533.642578 0)"/>
     <use xlink:href="#DejaVuSans-Bold-64" transform="translate(601.123047 0)"/>
    </g>
    <!-- Less information -->
    <g style="fill: #4682b4" transform="translate(521.553187 377.44145) scale(0.1 -0.1)">
     <use xlink:href="#DejaVuSans-Bold-4c"/>
     <use xlink:href="#DejaVuSans-Bold-65" transform="translate(63.720703 0)"/>
     <use xlink:href="#DejaVuSans-Bold-73" transform="translate(131.542969 0)"/>
     <use xlink:href="#DejaVuSans-Bold-73" transform="translate(191.064453 0)"/>
     <use xlink:href="#DejaVuSans-Bold-20" transform="translate(250.585938 0)"/>
     <use xlink:href="#DejaVuSans-Bold-69" transform="translate(285.400391 0)"/>
     <use xlink:href="#DejaVuSans-Bold-6e" transform="translate(319.677734 0)"/>
     <use xlink:href="#DejaVuSans-Bold-66" transform="translate(390.869141 0)"/>
     <use xlink:href="#DejaVuSans-Bold-6f" transform="translate(434.375 0)"/>
     <use xlink:href="#DejaVuSans-Bold-72" transform="translate(503.076172 0)"/>
     <use xlink:href="#DejaVuSans-Bold-6d" transform="translate(552.392578 0)"/>
     <use xlink:href="#DejaVuSans-Bold-61" transform="translate(656.591797 0)"/>
     <use xlink:href="#DejaVuSans-Bold-74" transform="translate(724.072266 0)"/>
     <use xlink:href="#DejaVuSans-Bold-69" transform="translate(771.875 0)"/>
     <use xlink:href="#DejaVuSans-Bold-6f" transform="translate(806.152344 0)"/>
     <use xlink:href="#DejaVuSans-Bold-6e" transform="translate(874.853516 0)"/>
    </g>
   </g>
   <g id="text_34">
    <!-- Spread -->
    <g style="fill: #cc7000" transform="translate(856.84717 243.266812) rotate(-90) scale(0.12 -0.12)">
     <defs>
      <path id="DejaVuSans-Bold-53" d="M 3834 4519 
L 3834 3531 
Q 3450 3703 3084 3790 
Q 2719 3878 2394 3878 
Q 1963 3878 1756 3759 
Q 1550 3641 1550 3391 
Q 1550 3203 1689 3098 
Q 1828 2994 2194 2919 
L 2706 2816 
Q 3484 2659 3812 2340 
Q 4141 2022 4141 1434 
Q 4141 663 3683 286 
Q 3225 -91 2284 -91 
Q 1841 -91 1394 -6 
Q 947 78 500 244 
L 500 1259 
Q 947 1022 1364 901 
Q 1781 781 2169 781 
Q 2563 781 2772 912 
Q 2981 1044 2981 1288 
Q 2981 1506 2839 1625 
Q 2697 1744 2272 1838 
L 1806 1941 
Q 1106 2091 782 2419 
Q 459 2747 459 3303 
Q 459 4000 909 4375 
Q 1359 4750 2203 4750 
Q 2588 4750 2994 4692 
Q 3400 4634 3834 4519 
z
" transform="scale(0.015625)"/>
     </defs>
     <use xlink:href="#DejaVuSans-Bold-53"/>
     <use xlink:href="#DejaVuSans-Bold-70" transform="translate(72.021484 0)"/>
     <use xlink:href="#DejaVuSans-Bold-72" transform="translate(143.603516 0)"/>
     <use xlink:href="#DejaVuSans-Bold-65" transform="translate(192.919922 0)"/>
     <use xlink:href="#DejaVuSans-Bold-61" transform="translate(260.742188 0)"/>
     <use xlink:href="#DejaVuSans-Bold-64" transform="translate(328.222656 0)"/>
    </g>
   </g>
   <g id="line2d_50">
    <defs>
     <path id="m45d6867051" d="M 0 2.5 
C 0.663008 2.5 1.29895 2.236584 1.767767 1.767767 
C 2.236584 1.29895 2.5 0.663008 2.5 0 
C 2.5 -0.663008 2.236584 -1.29895 1.767767 -1.767767 
C 1.29895 -2.236584 0.663008 -2.5 0 -2.5 
C -0.663008 -2.5 -1.29895 -2.236584 -1.767767 -1.767767 
C -2.236584 -1.29895 -2.5 -0.663008 -2.5 0 
C -2.5 0.663008 -2.236584 1.29895 -1.767767 1.767767 
C -1.29895 2.236584 -0.663008 2.5 0 2.5 
z
" style="stroke: #808080; stroke-opacity: 0.7"/>
    </defs>
    <g clip-path="url(#p012abd57bb)">
     <use xlink:href="#m45d6867051" x="519.602802" y="98.091" style="fill: #808080; fill-opacity: 0.7; stroke: #808080; stroke-opacity: 0.7"/>
     <use xlink:href="#m45d6867051" x="508.311579" y="98.091" style="fill: #808080; fill-opacity: 0.7; stroke: #808080; stroke-opacity: 0.7"/>
     <use xlink:href="#m45d6867051" x="591.425906" y="98.091" style="fill: #808080; fill-opacity: 0.7; stroke: #808080; stroke-opacity: 0.7"/>
     <use xlink:href="#m45d6867051" x="414.873937" y="98.091" style="fill: #808080; fill-opacity: 0.7; stroke: #808080; stroke-opacity: 0.7"/>
     <use xlink:href="#m45d6867051" x="616.295273" y="98.091" style="fill: #808080; fill-opacity: 0.7; stroke: #808080; stroke-opacity: 0.7"/>
     <use xlink:href="#m45d6867051" x="613.52072" y="98.091" style="fill: #808080; fill-opacity: 0.7; stroke: #808080; stroke-opacity: 0.7"/>
     <use xlink:href="#m45d6867051" x="540.876139" y="98.091" style="fill: #808080; fill-opacity: 0.7; stroke: #808080; stroke-opacity: 0.7"/>
     <use xlink:href="#m45d6867051" x="737.638488" y="98.091" style="fill: #808080; fill-opacity: 0.7; stroke: #808080; stroke-opacity: 0.7"/>
     <use xlink:href="#m45d6867051" x="669.352339" y="98.091" style="fill: #808080; fill-opacity: 0.7; stroke: #808080; stroke-opacity: 0.7"/>
     <use xlink:href="#m45d6867051" x="655.294256" y="98.091" style="fill: #808080; fill-opacity: 0.7; stroke: #808080; stroke-opacity: 0.7"/>
     <use xlink:href="#m45d6867051" x="423.921092" y="98.091" style="fill: #808080; fill-opacity: 0.7; stroke: #808080; stroke-opacity: 0.7"/>
     <use xlink:href="#m45d6867051" x="559.122473" y="98.091" style="fill: #808080; fill-opacity: 0.7; stroke: #808080; stroke-opacity: 0.7"/>
     <use xlink:href="#m45d6867051" x="622.745591" y="98.091" style="fill: #808080; fill-opacity: 0.7; stroke: #808080; stroke-opacity: 0.7"/>
     <use xlink:href="#m45d6867051" x="683.101566" y="98.091" style="fill: #808080; fill-opacity: 0.7; stroke: #808080; stroke-opacity: 0.7"/>
     <use xlink:href="#m45d6867051" x="627.420316" y="98.091" style="fill: #808080; fill-opacity: 0.7; stroke: #808080; stroke-opacity: 0.7"/>
     <use xlink:href="#m45d6867051" x="632.155977" y="98.091" style="fill: #808080; fill-opacity: 0.7; stroke: #808080; stroke-opacity: 0.7"/>
     <use xlink:href="#m45d6867051" x="567.900584" y="98.091" style="fill: #808080; fill-opacity: 0.7; stroke: #808080; stroke-opacity: 0.7"/>
     <use xlink:href="#m45d6867051" x="485.152683" y="98.091" style="fill: #808080; fill-opacity: 0.7; stroke: #808080; stroke-opacity: 0.7"/>
     <use xlink:href="#m45d6867051" x="544.037967" y="98.091" style="fill: #808080; fill-opacity: 0.7; stroke: #808080; stroke-opacity: 0.7"/>
     <use xlink:href="#m45d6867051" x="700.178412" y="98.091" style="fill: #808080; fill-opacity: 0.7; stroke: #808080; stroke-opacity: 0.7"/>
     <use xlink:href="#m45d6867051" x="496.445777" y="98.091" style="fill: #808080; fill-opacity: 0.7; stroke: #808080; stroke-opacity: 0.7"/>
     <use xlink:href="#m45d6867051" x="579.602085" y="98.091" style="fill: #808080; fill-opacity: 0.7; stroke: #808080; stroke-opacity: 0.7"/>
     <use xlink:href="#m45d6867051" x="713.014829" y="98.091" style="fill: #808080; fill-opacity: 0.7; stroke: #808080; stroke-opacity: 0.7"/>
     <use xlink:href="#m45d6867051" x="616.535803" y="98.091" style="fill: #808080; fill-opacity: 0.7; stroke: #808080; stroke-opacity: 0.7"/>
     <use xlink:href="#m45d6867051" x="531.181977" y="98.091" style="fill: #808080; fill-opacity: 0.7; stroke: #808080; stroke-opacity: 0.7"/>
     <use xlink:href="#m45d6867051" x="536.083194" y="98.091" style="fill: #808080; fill-opacity: 0.7; stroke: #808080; stroke-opacity: 0.7"/>
     <use xlink:href="#m45d6867051" x="636.889407" y="98.091" style="fill: #808080; fill-opacity: 0.7; stroke: #808080; stroke-opacity: 0.7"/>
     <use xlink:href="#m45d6867051" x="469.256596" y="98.091" style="fill: #808080; fill-opacity: 0.7; stroke: #808080; stroke-opacity: 0.7"/>
     <use xlink:href="#m45d6867051" x="650.895458" y="98.091" style="fill: #808080; fill-opacity: 0.7; stroke: #808080; stroke-opacity: 0.7"/>
     <use xlink:href="#m45d6867051" x="538.314222" y="98.091" style="fill: #808080; fill-opacity: 0.7; stroke: #808080; stroke-opacity: 0.7"/>
    </g>
   </g>
   <g id="line2d_51">
    <g clip-path="url(#p012abd57bb)">
     <use xlink:href="#m45d6867051" x="522.27047" y="158.685" style="fill: #808080; fill-opacity: 0.7; stroke: #808080; stroke-opacity: 0.7"/>
     <use xlink:href="#m45d6867051" x="525.657332" y="158.685" style="fill: #808080; fill-opacity: 0.7; stroke: #808080; stroke-opacity: 0.7"/>
     <use xlink:href="#m45d6867051" x="587.731534" y="158.685" style="fill: #808080; fill-opacity: 0.7; stroke: #808080; stroke-opacity: 0.7"/>
     <use xlink:href="#m45d6867051" x="433.182043" y="158.685" style="fill: #808080; fill-opacity: 0.7; stroke: #808080; stroke-opacity: 0.7"/>
     <use xlink:href="#m45d6867051" x="617.12713" y="158.685" style="fill: #808080; fill-opacity: 0.7; stroke: #808080; stroke-opacity: 0.7"/>
     <use xlink:href="#m45d6867051" x="606.190025" y="158.685" style="fill: #808080; fill-opacity: 0.7; stroke: #808080; stroke-opacity: 0.7"/>
     <use xlink:href="#m45d6867051" x="527.147345" y="158.685" style="fill: #808080; fill-opacity: 0.7; stroke: #808080; stroke-opacity: 0.7"/>
     <use xlink:href="#m45d6867051" x="719.887826" y="158.685" style="fill: #808080; fill-opacity: 0.7; stroke: #808080; stroke-opacity: 0.7"/>
     <use xlink:href="#m45d6867051" x="664.175908" y="158.685" style="fill: #808080; fill-opacity: 0.7; stroke: #808080; stroke-opacity: 0.7"/>
     <use xlink:href="#m45d6867051" x="636.861822" y="158.685" style="fill: #808080; fill-opacity: 0.7; stroke: #808080; stroke-opacity: 0.7"/>
     <use xlink:href="#m45d6867051" x="433.275885" y="158.685" style="fill: #808080; fill-opacity: 0.7; stroke: #808080; stroke-opacity: 0.7"/>
     <use xlink:href="#m45d6867051" x="548.03885" y="158.685" style="fill: #808080; fill-opacity: 0.7; stroke: #808080; stroke-opacity: 0.7"/>
     <use xlink:href="#m45d6867051" x="619.491289" y="158.685" style="fill: #808080; fill-opacity: 0.7; stroke: #808080; stroke-opacity: 0.7"/>
     <use xlink:href="#m45d6867051" x="677.370301" y="158.685" style="fill: #808080; fill-opacity: 0.7; stroke: #808080; stroke-opacity: 0.7"/>
     <use xlink:href="#m45d6867051" x="620.45857" y="158.685" style="fill: #808080; fill-opacity: 0.7; stroke: #808080; stroke-opacity: 0.7"/>
     <use xlink:href="#m45d6867051" x="642.640828" y="158.685" style="fill: #808080; fill-opacity: 0.7; stroke: #808080; stroke-opacity: 0.7"/>
     <use xlink:href="#m45d6867051" x="559.186349" y="158.685" style="fill: #808080; fill-opacity: 0.7; stroke: #808080; stroke-opacity: 0.7"/>
     <use xlink:href="#m45d6867051" x="481.495044" y="158.685" style="fill: #808080; fill-opacity: 0.7; stroke: #808080; stroke-opacity: 0.7"/>
     <use xlink:href="#m45d6867051" x="529.67873" y="158.685" style="fill: #808080; fill-opacity: 0.7; stroke: #808080; stroke-opacity: 0.7"/>
     <use xlink:href="#m45d6867051" x="691.637992" y="158.685" style="fill: #808080; fill-opacity: 0.7; stroke: #808080; stroke-opacity: 0.7"/>
     <use xlink:href="#m45d6867051" x="503.480483" y="158.685" style="fill: #808080; fill-opacity: 0.7; stroke: #808080; stroke-opacity: 0.7"/>
     <use xlink:href="#m45d6867051" x="576.267519" y="158.685" style="fill: #808080; fill-opacity: 0.7; stroke: #808080; stroke-opacity: 0.7"/>
     <use xlink:href="#m45d6867051" x="695.863131" y="158.685" style="fill: #808080; fill-opacity: 0.7; stroke: #808080; stroke-opacity: 0.7"/>
     <use xlink:href="#m45d6867051" x="621.624349" y="158.685" style="fill: #808080; fill-opacity: 0.7; stroke: #808080; stroke-opacity: 0.7"/>
     <use xlink:href="#m45d6867051" x="519.452665" y="158.685" style="fill: #808080; fill-opacity: 0.7; stroke: #808080; stroke-opacity: 0.7"/>
     <use xlink:href="#m45d6867051" x="535.423091" y="158.685" style="fill: #808080; fill-opacity: 0.7; stroke: #808080; stroke-opacity: 0.7"/>
     <use xlink:href="#m45d6867051" x="636.699719" y="158.685" style="fill: #808080; fill-opacity: 0.7; stroke: #808080; stroke-opacity: 0.7"/>
     <use xlink:href="#m45d6867051" x="484.712008" y="158.685" style="fill: #808080; fill-opacity: 0.7; stroke: #808080; stroke-opacity: 0.7"/>
     <use xlink:href="#m45d6867051" x="641.969102" y="158.685" style="fill: #808080; fill-opacity: 0.7; stroke: #808080; stroke-opacity: 0.7"/>
     <use xlink:href="#m45d6867051" x="548.786245" y="158.685" style="fill: #808080; fill-opacity: 0.7; stroke: #808080; stroke-opacity: 0.7"/>
    </g>
   </g>
   <g id="line2d_52">
    <g clip-path="url(#p012abd57bb)">
     <use xlink:href="#m45d6867051" x="533.714822" y="219.279" style="fill: #808080; fill-opacity: 0.7; stroke: #808080; stroke-opacity: 0.7"/>
     <use xlink:href="#m45d6867051" x="494.205166" y="219.279" style="fill: #808080; fill-opacity: 0.7; stroke: #808080; stroke-opacity: 0.7"/>
     <use xlink:href="#m45d6867051" x="590.485848" y="219.279" style="fill: #808080; fill-opacity: 0.7; stroke: #808080; stroke-opacity: 0.7"/>
     <use xlink:href="#m45d6867051" x="436.704637" y="219.279" style="fill: #808080; fill-opacity: 0.7; stroke: #808080; stroke-opacity: 0.7"/>
     <use xlink:href="#m45d6867051" x="595.096489" y="219.279" style="fill: #808080; fill-opacity: 0.7; stroke: #808080; stroke-opacity: 0.7"/>
     <use xlink:href="#m45d6867051" x="611.704977" y="219.279" style="fill: #808080; fill-opacity: 0.7; stroke: #808080; stroke-opacity: 0.7"/>
     <use xlink:href="#m45d6867051" x="582.979879" y="219.279" style="fill: #808080; fill-opacity: 0.7; stroke: #808080; stroke-opacity: 0.7"/>
     <use xlink:href="#m45d6867051" x="708.527029" y="219.279" style="fill: #808080; fill-opacity: 0.7; stroke: #808080; stroke-opacity: 0.7"/>
     <use xlink:href="#m45d6867051" x="639.960268" y="219.279" style="fill: #808080; fill-opacity: 0.7; stroke: #808080; stroke-opacity: 0.7"/>
     <use xlink:href="#m45d6867051" x="661.274158" y="219.279" style="fill: #808080; fill-opacity: 0.7; stroke: #808080; stroke-opacity: 0.7"/>
     <use xlink:href="#m45d6867051" x="462.08402" y="219.279" style="fill: #808080; fill-opacity: 0.7; stroke: #808080; stroke-opacity: 0.7"/>
     <use xlink:href="#m45d6867051" x="587.873481" y="219.279" style="fill: #808080; fill-opacity: 0.7; stroke: #808080; stroke-opacity: 0.7"/>
     <use xlink:href="#m45d6867051" x="608.054323" y="219.279" style="fill: #808080; fill-opacity: 0.7; stroke: #808080; stroke-opacity: 0.7"/>
     <use xlink:href="#m45d6867051" x="649.345394" y="219.279" style="fill: #808080; fill-opacity: 0.7; stroke: #808080; stroke-opacity: 0.7"/>
     <use xlink:href="#m45d6867051" x="619.113535" y="219.279" style="fill: #808080; fill-opacity: 0.7; stroke: #808080; stroke-opacity: 0.7"/>
     <use xlink:href="#m45d6867051" x="582.906972" y="219.279" style="fill: #808080; fill-opacity: 0.7; stroke: #808080; stroke-opacity: 0.7"/>
     <use xlink:href="#m45d6867051" x="587.775161" y="219.279" style="fill: #808080; fill-opacity: 0.7; stroke: #808080; stroke-opacity: 0.7"/>
     <use xlink:href="#m45d6867051" x="527.451793" y="219.279" style="fill: #808080; fill-opacity: 0.7; stroke: #808080; stroke-opacity: 0.7"/>
     <use xlink:href="#m45d6867051" x="586.262532" y="219.279" style="fill: #808080; fill-opacity: 0.7; stroke: #808080; stroke-opacity: 0.7"/>
     <use xlink:href="#m45d6867051" x="665.742482" y="219.279" style="fill: #808080; fill-opacity: 0.7; stroke: #808080; stroke-opacity: 0.7"/>
     <use xlink:href="#m45d6867051" x="510.232552" y="219.279" style="fill: #808080; fill-opacity: 0.7; stroke: #808080; stroke-opacity: 0.7"/>
     <use xlink:href="#m45d6867051" x="582.677349" y="219.279" style="fill: #808080; fill-opacity: 0.7; stroke: #808080; stroke-opacity: 0.7"/>
     <use xlink:href="#m45d6867051" x="692.601654" y="219.279" style="fill: #808080; fill-opacity: 0.7; stroke: #808080; stroke-opacity: 0.7"/>
     <use xlink:href="#m45d6867051" x="585.720723" y="219.279" style="fill: #808080; fill-opacity: 0.7; stroke: #808080; stroke-opacity: 0.7"/>
     <use xlink:href="#m45d6867051" x="572.766477" y="219.279" style="fill: #808080; fill-opacity: 0.7; stroke: #808080; stroke-opacity: 0.7"/>
     <use xlink:href="#m45d6867051" x="550.918253" y="219.279" style="fill: #808080; fill-opacity: 0.7; stroke: #808080; stroke-opacity: 0.7"/>
     <use xlink:href="#m45d6867051" x="609.579856" y="219.279" style="fill: #808080; fill-opacity: 0.7; stroke: #808080; stroke-opacity: 0.7"/>
     <use xlink:href="#m45d6867051" x="475.297521" y="219.279" style="fill: #808080; fill-opacity: 0.7; stroke: #808080; stroke-opacity: 0.7"/>
     <use xlink:href="#m45d6867051" x="637.412253" y="219.279" style="fill: #808080; fill-opacity: 0.7; stroke: #808080; stroke-opacity: 0.7"/>
     <use xlink:href="#m45d6867051" x="527.347635" y="219.279" style="fill: #808080; fill-opacity: 0.7; stroke: #808080; stroke-opacity: 0.7"/>
    </g>
   </g>
   <g id="line2d_53">
    <g clip-path="url(#p012abd57bb)">
     <use xlink:href="#m45d6867051" x="534.341906" y="279.873" style="fill: #808080; fill-opacity: 0.7; stroke: #808080; stroke-opacity: 0.7"/>
     <use xlink:href="#m45d6867051" x="557.88336" y="279.873" style="fill: #808080; fill-opacity: 0.7; stroke: #808080; stroke-opacity: 0.7"/>
     <use xlink:href="#m45d6867051" x="579.144087" y="279.873" style="fill: #808080; fill-opacity: 0.7; stroke: #808080; stroke-opacity: 0.7"/>
     <use xlink:href="#m45d6867051" x="483.243108" y="279.873" style="fill: #808080; fill-opacity: 0.7; stroke: #808080; stroke-opacity: 0.7"/>
     <use xlink:href="#m45d6867051" x="609.704042" y="279.873" style="fill: #808080; fill-opacity: 0.7; stroke: #808080; stroke-opacity: 0.7"/>
     <use xlink:href="#m45d6867051" x="589.171743" y="279.873" style="fill: #808080; fill-opacity: 0.7; stroke: #808080; stroke-opacity: 0.7"/>
     <use xlink:href="#m45d6867051" x="515.16189" y="279.873" style="fill: #808080; fill-opacity: 0.7; stroke: #808080; stroke-opacity: 0.7"/>
     <use xlink:href="#m45d6867051" x="667.878723" y="279.873" style="fill: #808080; fill-opacity: 0.7; stroke: #808080; stroke-opacity: 0.7"/>
     <use xlink:href="#m45d6867051" x="639.874285" y="279.873" style="fill: #808080; fill-opacity: 0.7; stroke: #808080; stroke-opacity: 0.7"/>
     <use xlink:href="#m45d6867051" x="598.679264" y="279.873" style="fill: #808080; fill-opacity: 0.7; stroke: #808080; stroke-opacity: 0.7"/>
     <use xlink:href="#m45d6867051" x="470.658336" y="279.873" style="fill: #808080; fill-opacity: 0.7; stroke: #808080; stroke-opacity: 0.7"/>
     <use xlink:href="#m45d6867051" x="536.072501" y="279.873" style="fill: #808080; fill-opacity: 0.7; stroke: #808080; stroke-opacity: 0.7"/>
     <use xlink:href="#m45d6867051" x="605.868336" y="279.873" style="fill: #808080; fill-opacity: 0.7; stroke: #808080; stroke-opacity: 0.7"/>
     <use xlink:href="#m45d6867051" x="649.933502" y="279.873" style="fill: #808080; fill-opacity: 0.7; stroke: #808080; stroke-opacity: 0.7"/>
     <use xlink:href="#m45d6867051" x="601.420182" y="279.873" style="fill: #808080; fill-opacity: 0.7; stroke: #808080; stroke-opacity: 0.7"/>
     <use xlink:href="#m45d6867051" x="644.323982" y="279.873" style="fill: #808080; fill-opacity: 0.7; stroke: #808080; stroke-opacity: 0.7"/>
     <use xlink:href="#m45d6867051" x="548.584944" y="279.873" style="fill: #808080; fill-opacity: 0.7; stroke: #808080; stroke-opacity: 0.7"/>
     <use xlink:href="#m45d6867051" x="491.885108" y="279.873" style="fill: #808080; fill-opacity: 0.7; stroke: #808080; stroke-opacity: 0.7"/>
     <use xlink:href="#m45d6867051" x="516.350737" y="279.873" style="fill: #808080; fill-opacity: 0.7; stroke: #808080; stroke-opacity: 0.7"/>
     <use xlink:href="#m45d6867051" x="657.686721" y="279.873" style="fill: #808080; fill-opacity: 0.7; stroke: #808080; stroke-opacity: 0.7"/>
     <use xlink:href="#m45d6867051" x="525.075197" y="279.873" style="fill: #808080; fill-opacity: 0.7; stroke: #808080; stroke-opacity: 0.7"/>
     <use xlink:href="#m45d6867051" x="570.231178" y="279.873" style="fill: #808080; fill-opacity: 0.7; stroke: #808080; stroke-opacity: 0.7"/>
     <use xlink:href="#m45d6867051" x="648.980985" y="279.873" style="fill: #808080; fill-opacity: 0.7; stroke: #808080; stroke-opacity: 0.7"/>
     <use xlink:href="#m45d6867051" x="619.419969" y="279.873" style="fill: #808080; fill-opacity: 0.7; stroke: #808080; stroke-opacity: 0.7"/>
     <use xlink:href="#m45d6867051" x="511.665676" y="279.873" style="fill: #808080; fill-opacity: 0.7; stroke: #808080; stroke-opacity: 0.7"/>
     <use xlink:href="#m45d6867051" x="540.445268" y="279.873" style="fill: #808080; fill-opacity: 0.7; stroke: #808080; stroke-opacity: 0.7"/>
     <use xlink:href="#m45d6867051" x="624.345179" y="279.873" style="fill: #808080; fill-opacity: 0.7; stroke: #808080; stroke-opacity: 0.7"/>
     <use xlink:href="#m45d6867051" x="521.55892" y="279.873" style="fill: #808080; fill-opacity: 0.7; stroke: #808080; stroke-opacity: 0.7"/>
     <use xlink:href="#m45d6867051" x="616.320329" y="279.873" style="fill: #808080; fill-opacity: 0.7; stroke: #808080; stroke-opacity: 0.7"/>
     <use xlink:href="#m45d6867051" x="567.171037" y="279.873" style="fill: #808080; fill-opacity: 0.7; stroke: #808080; stroke-opacity: 0.7"/>
    </g>
   </g>
   <g id="line2d_54">
    <g clip-path="url(#p012abd57bb)">
     <use xlink:href="#m45d6867051" x="568.411335" y="340.467" style="fill: #808080; fill-opacity: 0.7; stroke: #808080; stroke-opacity: 0.7"/>
     <use xlink:href="#m45d6867051" x="523.827467" y="340.467" style="fill: #808080; fill-opacity: 0.7; stroke: #808080; stroke-opacity: 0.7"/>
     <use xlink:href="#m45d6867051" x="576.874586" y="340.467" style="fill: #808080; fill-opacity: 0.7; stroke: #808080; stroke-opacity: 0.7"/>
     <use xlink:href="#m45d6867051" x="535.947081" y="340.467" style="fill: #808080; fill-opacity: 0.7; stroke: #808080; stroke-opacity: 0.7"/>
     <use xlink:href="#m45d6867051" x="558.52565" y="340.467" style="fill: #808080; fill-opacity: 0.7; stroke: #808080; stroke-opacity: 0.7"/>
     <use xlink:href="#m45d6867051" x="584.788152" y="340.467" style="fill: #808080; fill-opacity: 0.7; stroke: #808080; stroke-opacity: 0.7"/>
     <use xlink:href="#m45d6867051" x="616.80931" y="340.467" style="fill: #808080; fill-opacity: 0.7; stroke: #808080; stroke-opacity: 0.7"/>
     <use xlink:href="#m45d6867051" x="597.597443" y="340.467" style="fill: #808080; fill-opacity: 0.7; stroke: #808080; stroke-opacity: 0.7"/>
     <use xlink:href="#m45d6867051" x="568.915549" y="340.467" style="fill: #808080; fill-opacity: 0.7; stroke: #808080; stroke-opacity: 0.7"/>
     <use xlink:href="#m45d6867051" x="613.116024" y="340.467" style="fill: #808080; fill-opacity: 0.7; stroke: #808080; stroke-opacity: 0.7"/>
     <use xlink:href="#m45d6867051" x="562.791793" y="340.467" style="fill: #808080; fill-opacity: 0.7; stroke: #808080; stroke-opacity: 0.7"/>
     <use xlink:href="#m45d6867051" x="605.483575" y="340.467" style="fill: #808080; fill-opacity: 0.7; stroke: #808080; stroke-opacity: 0.7"/>
     <use xlink:href="#m45d6867051" x="570.400477" y="340.467" style="fill: #808080; fill-opacity: 0.7; stroke: #808080; stroke-opacity: 0.7"/>
     <use xlink:href="#m45d6867051" x="568.438895" y="340.467" style="fill: #808080; fill-opacity: 0.7; stroke: #808080; stroke-opacity: 0.7"/>
     <use xlink:href="#m45d6867051" x="581.36584" y="340.467" style="fill: #808080; fill-opacity: 0.7; stroke: #808080; stroke-opacity: 0.7"/>
     <use xlink:href="#m45d6867051" x="525.426366" y="340.467" style="fill: #808080; fill-opacity: 0.7; stroke: #808080; stroke-opacity: 0.7"/>
     <use xlink:href="#m45d6867051" x="596.566418" y="340.467" style="fill: #808080; fill-opacity: 0.7; stroke: #808080; stroke-opacity: 0.7"/>
     <use xlink:href="#m45d6867051" x="594.004194" y="340.467" style="fill: #808080; fill-opacity: 0.7; stroke: #808080; stroke-opacity: 0.7"/>
     <use xlink:href="#m45d6867051" x="618.289854" y="340.467" style="fill: #808080; fill-opacity: 0.7; stroke: #808080; stroke-opacity: 0.7"/>
     <use xlink:href="#m45d6867051" x="574.551033" y="340.467" style="fill: #808080; fill-opacity: 0.7; stroke: #808080; stroke-opacity: 0.7"/>
     <use xlink:href="#m45d6867051" x="558.359415" y="340.467" style="fill: #808080; fill-opacity: 0.7; stroke: #808080; stroke-opacity: 0.7"/>
     <use xlink:href="#m45d6867051" x="577.655522" y="340.467" style="fill: #808080; fill-opacity: 0.7; stroke: #808080; stroke-opacity: 0.7"/>
     <use xlink:href="#m45d6867051" x="599.699221" y="340.467" style="fill: #808080; fill-opacity: 0.7; stroke: #808080; stroke-opacity: 0.7"/>
     <use xlink:href="#m45d6867051" x="545.025785" y="340.467" style="fill: #808080; fill-opacity: 0.7; stroke: #808080; stroke-opacity: 0.7"/>
     <use xlink:href="#m45d6867051" x="612.059541" y="340.467" style="fill: #808080; fill-opacity: 0.7; stroke: #808080; stroke-opacity: 0.7"/>
     <use xlink:href="#m45d6867051" x="576.260269" y="340.467" style="fill: #808080; fill-opacity: 0.7; stroke: #808080; stroke-opacity: 0.7"/>
     <use xlink:href="#m45d6867051" x="558.414091" y="340.467" style="fill: #808080; fill-opacity: 0.7; stroke: #808080; stroke-opacity: 0.7"/>
     <use xlink:href="#m45d6867051" x="536.143001" y="340.467" style="fill: #808080; fill-opacity: 0.7; stroke: #808080; stroke-opacity: 0.7"/>
     <use xlink:href="#m45d6867051" x="583.768992" y="340.467" style="fill: #808080; fill-opacity: 0.7; stroke: #808080; stroke-opacity: 0.7"/>
     <use xlink:href="#m45d6867051" x="540.695352" y="340.467" style="fill: #808080; fill-opacity: 0.7; stroke: #808080; stroke-opacity: 0.7"/>
    </g>
   </g>
  </g>
 </g>
 <defs>
  <clipPath id="p0273542271">
   <rect x="44.555937" y="43.165375" width="291.63325" height="291.63325"/>
  </clipPath>
  <clipPath id="p012abd57bb">
   <rect x="350.129813" y="7.2" width="437.449875" height="363.564"/>
  </clipPath>
 </defs>
</svg>
