<?xml version="1.0" encoding="utf-8" standalone="no"?>
<!DOCTYPE svg PUBLIC "-//W3C//DTD SVG 1.1//EN"
  "http://www.w3.org/Graphics/SVG/1.1/DTD/svg11.dtd">
<svg xmlns:xlink="http://www.w3.org/1999/xlink" width="609.12pt" height="313.638516pt" viewBox="0 0 609.12 313.638516" xmlns="http://www.w3.org/2000/svg" version="1.1">
 <metadata>
  <rdf:RDF xmlns:dc="http://purl.org/dc/elements/1.1/" xmlns:cc="http://creativecommons.org/ns#" xmlns:rdf="http://www.w3.org/1999/02/22-rdf-syntax-ns#">
   <cc:Work>
    <dc:type rdf:resource="http://purl.org/dc/dcmitype/StillImage"/>
    <dc:date>2026-07-23T10:57:21.480463</dc:date>
    <dc:format>image/svg+xml</dc:format>
    <dc:creator>
     <cc:Agent>
      <dc:title>Matplotlib v3.10.8, https://matplotlib.org/</dc:title>
     </cc:Agent>
    </dc:creator>
   </cc:Work>
  </rdf:RDF>
 </metadata>
 <defs>
  <style type="text/css">*{stroke-linejoin: round; stroke-linecap: butt}</style>
 </defs>
 <g id="figure_1">
  <g id="patch_1">
   <path d="M 0 313.638516 
L 609.12 313.638516 
L 609.12 0 
L 0 0 
z
" style="fill: #ffffff"/>
  </g>
  <g id="axes_1">
   <g id="patch_2">
    <path d="M 7.2 100.998516 
L 601.92 100.998516 
L 601.92 20.418516 
L 7.2 20.418516 
z
" style="fill: #ffffff"/>
   </g>
   <g id="matplotlib.axis_1"/>
   <g id="matplotlib.axis_2"/>
   <g id="line2d_1">
    <path d="M 34.232727 60.708516 
L 42.009497 60.73113 
L 46.743183 60.811629 
L 49.786266 60.587213 
L 52.49123 60.414333 
L 54.181832 60.499702 
L 56.210554 60.832392 
L 58.915518 61.285816 
L 60.267999 61.28286 
L 61.620481 61.042875 
L 63.311083 60.479067 
L 65.339806 59.800663 
L 66.354167 59.649934 
L 67.368528 59.709184 
L 68.382889 59.995969 
L 69.735371 60.669547 
L 72.102214 61.997942 
L 73.116575 62.302 
L 74.130936 62.300512 
L 75.145298 61.960514 
L 76.159659 61.319997 
L 79.540863 58.719817 
L 80.217104 58.489367 
L 80.893345 58.449979 
L 81.569586 58.616302 
L 82.245826 58.984764 
L 83.260188 59.862694 
L 86.641392 63.390325 
L 87.317633 63.711901 
L 87.993873 63.778831 
L 88.670114 63.56875 
L 89.346355 63.082318 
L 90.022596 62.344575 
L 91.036957 60.879531 
L 93.4038 57.23428 
L 94.080041 56.568661 
L 94.756282 56.232096 
L 95.432523 56.283455 
L 96.108763 56.752022 
L 96.785004 57.63208 
L 97.461245 58.879991 
L 98.475606 61.253908 
L 100.504329 66.152966 
L 101.18057 67.252673 
L 101.856811 67.838161 
L 102.194931 67.903241 
L 102.533051 67.803571 
L 102.871172 67.533614 
L 103.547413 66.479617 
L 104.223653 64.775378 
L 105.238015 61.236788 
L 107.604858 51.977726 
L 108.281098 50.225487 
L 108.619219 49.65277 
L 108.957339 49.313924 
L 109.29546 49.226987 
L 109.63358 49.404665 
L 109.9717 49.853779 
L 110.309821 50.574849 
L 110.986062 52.801866 
L 111.662303 55.957014 
L 112.676664 61.900905 
L 114.367266 72.099796 
L 115.043507 75.121322 
L 115.719748 76.994432 
L 116.057868 77.416381 
L 116.395988 77.464739 
L 116.734109 77.126999 
L 117.072229 76.399694 
L 117.74847 73.809591 
L 118.424711 69.855082 
L 119.439072 62.062469 
L 121.467795 45.667871 
L 122.144035 41.885457 
L 122.820276 39.688377 
L 123.158397 39.273573 
L 123.496517 39.341713 
L 123.834638 39.899029 
L 124.172758 40.940006 
L 124.848999 44.392184 
L 125.52524 49.425025 
L 126.539601 58.956015 
L 128.230203 75.208121 
L 128.906444 80.055949 
L 129.582685 83.202114 
L 129.920805 84.034211 
L 130.258925 84.340451 
L 130.597046 84.112532 
L 130.935166 83.354971 
L 131.273287 82.085013 
L 131.949528 78.137713 
L 132.625768 72.639656 
L 133.97825 59.148511 
L 135.330732 46.51397 
L 136.006973 41.983634 
L 136.683213 39.21172 
L 137.021334 38.560384 
L 137.359454 38.415243 
L 137.697575 38.773417 
L 138.035695 39.620056 
L 138.711936 42.662868 
L 139.388177 47.212033 
L 140.740658 58.894478 
L 142.09314 70.304506 
L 142.769381 74.616463 
L 143.445622 77.502093 
L 143.783742 78.343048 
L 144.121863 78.766972 
L 144.459983 78.774665 
L 144.798103 78.376759 
L 145.136224 77.5932 
L 145.812465 74.990902 
L 146.488705 71.281191 
L 148.179308 59.866905 
L 149.193669 53.698437 
L 149.86991 50.623236 
L 150.54615 48.643964 
L 150.884271 48.101198 
L 151.222391 47.860766 
L 151.560512 47.917043 
L 151.898632 48.257707 
L 152.236753 48.864289 
L 152.912993 50.774778 
L 153.927355 54.902803 
L 155.956077 64.059902 
L 156.632318 66.385579 
L 157.308559 68.028388 
L 157.9848 68.901379 
L 158.32292 69.04263 
L 158.66104 68.992557 
L 158.999161 68.760435 
L 159.675402 67.804941 
L 160.351643 66.314761 
L 161.704124 62.436861 
L 163.056606 58.59676 
L 163.732847 57.092452 
L 164.409087 56.013459 
L 165.085328 55.417632 
L 165.423449 55.306775 
L 165.761569 55.318368 
L 166.43781 55.687364 
L 167.114051 56.460371 
L 168.128412 58.170386 
L 170.833375 63.228948 
L 171.509616 64.039236 
L 172.185857 64.526093 
L 172.862098 64.664693 
L 173.538339 64.458948 
L 174.21458 63.939884 
L 175.228941 62.698575 
L 178.272025 58.240928 
L 178.948265 57.637442 
L 179.624506 57.30808 
L 180.300747 57.276924 
L 180.976988 57.543719 
L 181.653229 58.08412 
L 182.66759 59.301124 
L 185.710674 63.499448 
L 186.386915 64.027849 
L 187.063155 64.274051 
L 187.739396 64.21116 
L 188.415637 63.837137 
L 189.091878 63.175623 
L 190.106239 61.755818 
L 192.811202 57.447067 
L 193.487443 56.76644 
L 194.163684 56.409175 
L 194.839925 56.422858 
L 195.516166 56.825338 
L 196.192407 57.601375 
L 196.868647 58.701891 
L 198.221129 61.526562 
L 199.573611 64.382487 
L 200.249852 65.490898 
L 200.926092 66.225398 
L 201.602333 66.49613 
L 201.940454 66.439434 
L 202.278574 66.250386 
L 202.954815 65.480026 
L 203.631056 64.225201 
L 204.645417 61.638577 
L 207.01226 55.015359 
L 207.688501 53.772969 
L 208.364742 53.104639 
L 208.702862 53.016638 
L 209.040982 53.10224 
L 209.379103 53.363706 
L 210.055344 54.402728 
L 210.731585 56.069524 
L 211.745946 59.454243 
L 213.774668 66.872823 
L 214.450909 68.692471 
L 215.12715 69.847246 
L 215.46527 70.132033 
L 215.803391 70.207158 
L 216.141511 70.067606 
L 216.479632 69.713371 
L 217.155872 68.386184 
L 217.832113 66.325441 
L 218.846475 62.251268 
L 220.875197 53.675321 
L 221.551438 51.663702 
L 222.227679 50.438182 
L 222.565799 50.161814 
L 222.903919 50.121738 
L 223.24204 50.320152 
L 223.58016 50.753669 
L 224.256401 52.285039 
L 224.932642 54.58266 
L 225.947003 59.001668 
L 227.637605 66.684872 
L 228.313846 69.054222 
L 228.990087 70.674926 
L 229.328207 71.156524 
L 229.666328 71.403318 
L 230.004448 71.410306 
L 230.342569 71.178004 
L 230.680689 70.712399 
L 231.35693 69.131473 
L 232.033171 66.81549 
L 233.047532 62.441506 
L 234.738134 54.980019 
L 235.414375 52.707407 
L 236.090616 51.160483 
L 236.428736 50.702183 
L 236.766857 50.467643 
L 237.104977 50.460927 
L 237.443097 50.681088 
L 237.781218 51.122234 
L 238.457459 52.620322 
L 239.133699 54.818142 
L 240.148061 58.987509 
L 241.838663 66.205029 
L 242.514904 68.459442 
L 243.191144 70.04012 
L 243.529265 70.532386 
L 243.867385 70.809812 
L 244.205506 70.865827 
L 244.543626 70.698452 
L 244.881747 70.310353 
L 245.557987 68.905498 
L 246.234228 66.761589 
L 247.248589 62.552429 
L 249.277312 53.565036 
L 249.953553 51.35341 
L 250.629794 49.909977 
L 250.967914 49.525734 
L 251.306034 49.384143 
L 251.644155 49.492358 
L 251.982275 49.852336 
L 252.320396 50.460682 
L 252.996637 52.381957 
L 253.672877 55.122947 
L 254.687239 60.29362 
L 256.377841 69.26577 
L 257.054082 72.033928 
L 257.730322 73.894645 
L 258.068443 74.416039 
L 258.406563 74.638892 
L 258.744684 74.551562 
L 259.082804 74.149177 
L 259.420924 73.433922 
L 260.097165 71.109453 
L 260.773406 67.737667 
L 261.787767 61.316768 
L 263.478369 50.140035 
L 264.15461 46.710411 
L 264.830851 44.427598 
L 265.168972 43.800015 
L 265.507092 43.545248 
L 265.845212 43.675709 
L 266.183333 44.194997 
L 266.521453 45.097642 
L 267.197694 47.985802 
L 267.873935 52.1193 
L 268.888296 59.871995 
L 270.578898 73.014701 
L 271.255139 76.918749 
L 271.93138 79.432177 
L 272.2695 80.081217 
L 272.607621 80.297329 
L 272.945741 80.072133 
L 273.283862 79.407621 
L 273.621982 78.316195 
L 274.298223 74.952655 
L 274.974464 70.274105 
L 276.326945 58.737733 
L 277.679427 47.821683 
L 278.355668 43.870738 
L 279.031909 41.440469 
L 279.370029 40.869243 
L 279.708149 40.746468 
L 280.04627 41.073291 
L 280.38439 41.840228 
L 281.060631 44.605237 
L 281.736872 48.769611 
L 282.751233 56.740815 
L 284.441835 70.406606 
L 285.118076 74.555011 
L 285.794317 77.366212 
L 286.132437 78.196168 
L 286.470558 78.621341 
L 286.808678 78.638096 
L 287.146799 78.252481 
L 287.484919 77.479932 
L 288.16116 74.879382 
L 288.837401 71.12277 
L 290.189882 61.731567 
L 291.542364 52.793493 
L 292.218605 49.493813 
L 292.894846 47.34579 
L 293.232966 46.750881 
L 293.571086 46.484838 
L 293.909207 46.544906 
L 294.247327 46.920736 
L 294.585448 47.594849 
L 295.261689 49.736166 
L 296.27605 54.417375 
L 298.642893 66.405638 
L 299.319134 68.72586 
L 299.995374 70.178557 
L 300.333495 70.55487 
L 300.671615 70.696127 
L 301.009736 70.607965 
L 301.347856 70.301169 
L 302.024097 69.097714 
L 302.700338 67.255377 
L 304.052819 62.53291 
L 305.405301 57.966117 
L 306.081542 56.234324 
L 306.757783 55.043235 
L 307.434024 54.45066 
L 307.772144 54.380716 
L 308.110264 54.455718 
L 308.786505 55.004296 
L 309.462746 55.998908 
L 310.477107 58.042363 
L 312.50583 62.349807 
L 313.182071 63.39769 
L 313.858311 64.11601 
L 314.534552 64.473742 
L 315.210793 64.473797 
L 315.887034 64.149349 
L 316.563275 63.557961 
L 317.577636 62.336367 
L 319.606359 59.719163 
L 320.62072 58.807879 
L 321.296961 58.453206 
L 321.973201 58.318885 
L 322.649442 58.398979 
L 323.325683 58.670651 
L 324.340044 59.354525 
L 327.721249 62.015502 
L 328.73561 62.361298 
L 329.411851 62.402766 
L 330.426212 62.192284 
L 331.440573 61.715374 
L 335.159898 59.58314 
L 336.174259 59.387125 
L 337.18862 59.456952 
L 338.202981 59.762758 
L 339.893583 60.584643 
L 341.584186 61.384499 
L 342.598547 61.676389 
L 343.612908 61.763653 
L 344.627269 61.642855 
L 345.979751 61.226162 
L 349.360955 59.996543 
L 350.713437 59.852869 
L 352.065918 60.001212 
L 353.756521 60.494208 
L 356.461484 61.366163 
L 357.813966 61.546414 
L 359.166447 61.447864 
L 360.518929 61.080888 
L 364.914494 59.555879 
L 365.928856 59.571807 
L 366.943217 59.832673 
L 367.957578 60.320882 
L 369.986301 61.657611 
L 371.338782 62.396301 
L 372.353143 62.631447 
L 373.029384 62.578003 
L 373.705625 62.340701 
L 374.719986 61.656909 
L 376.072468 60.30311 
L 377.76307 58.548257 
L 378.439311 58.049854 
L 379.115552 57.763186 
L 379.791793 57.732428 
L 380.468033 57.97983 
L 381.144274 58.501865 
L 382.158636 59.725351 
L 385.201719 64.147696 
L 385.87796 64.677087 
L 386.554201 64.868844 
L 387.230442 64.686783 
L 387.906683 64.128425 
L 388.582923 63.226764 
L 389.597285 61.384962 
L 391.964128 56.743227 
L 392.640368 55.884235 
L 393.316609 55.424764 
L 393.65473 55.365041 
L 393.99285 55.424744 
L 394.669091 55.905195 
L 395.345332 56.844894 
L 396.021573 58.180645 
L 397.374054 61.604463 
L 398.726536 65.060236 
L 399.402777 66.405806 
L 400.079018 67.307384 
L 400.417138 67.557116 
L 400.755258 67.659316 
L 401.093379 67.607473 
L 401.431499 67.398243 
L 402.10774 66.511012 
L 402.783981 65.03889 
L 403.798342 61.957039 
L 406.503305 52.876825 
L 407.179546 51.556887 
L 407.517667 51.171201 
L 407.855787 50.990206 
L 408.193908 51.025308 
L 408.532028 51.283417 
L 408.870148 51.766603 
L 409.546389 53.390968 
L 410.22263 55.811777 
L 411.236991 60.549326 
L 413.265714 70.598303 
L 413.941955 72.950254 
L 414.618195 74.319607 
L 414.956316 74.571169 
L 415.294436 74.51127 
L 415.632557 74.131379 
L 415.970677 73.430338 
L 416.646918 71.09853 
L 417.323159 67.660021 
L 418.33752 61.024304 
L 420.028122 49.32582 
L 420.704363 45.718969 
L 421.380604 43.328425 
L 421.718724 42.682028 
L 422.056845 42.435331 
L 422.394965 42.602357 
L 422.733085 43.187378 
L 423.071206 44.184605 
L 423.747447 47.342143 
L 424.423688 51.831792 
L 425.776169 63.178919 
L 427.128651 74.206167 
L 427.804892 78.275632 
L 428.481133 80.814105 
L 428.819253 81.421791 
L 429.157373 81.562358 
L 429.495494 81.230169 
L 429.833614 80.431032 
L 430.509855 77.511505 
L 431.186096 73.06829 
L 432.200457 64.478925 
L 433.891059 49.592869 
L 434.5673 45.052661 
L 435.243541 41.98679 
L 435.581661 41.093765 
L 435.919782 40.65294 
L 436.257902 40.669708 
L 436.596023 41.13834 
L 436.934143 42.042251 
L 437.610384 45.038826 
L 438.286625 49.336607 
L 439.639106 60.019296 
L 440.991588 70.089933 
L 441.667829 73.751032 
L 442.34407 76.075891 
L 442.68219 76.68603 
L 443.02031 76.919185 
L 443.358431 76.780307 
L 443.696551 76.283185 
L 444.034672 75.449859 
L 444.710913 72.899134 
L 445.725274 67.477266 
L 447.753996 55.663249 
L 448.430237 52.754159 
L 449.106478 50.778356 
L 449.444598 50.177303 
L 449.782719 49.840417 
L 450.120839 49.764234 
L 450.45896 49.939156 
L 450.79708 50.349954 
L 451.473321 51.793964 
L 452.149562 53.887878 
L 455.192645 64.621568 
L 455.868886 66.021702 
L 456.545127 66.802432 
L 456.883247 66.957337 
L 457.221368 66.961159 
L 457.559488 66.82253 
L 458.235729 66.166488 
L 458.91197 65.107829 
L 460.264452 62.356582 
L 461.616933 59.700836 
L 462.293174 58.690285 
L 462.969415 57.981071 
L 463.645656 57.597715 
L 464.321897 57.532664 
L 464.998137 57.751342 
L 465.674378 58.198975 
L 466.68874 59.151001 
L 469.055582 61.482568 
L 470.069944 62.104363 
L 470.746185 62.325564 
L 471.422425 62.38958 
L 472.436787 62.217999 
L 473.451148 61.793842 
L 475.47987 60.595445 
L 476.832352 59.870609 
L 477.846713 59.511222 
L 478.861075 59.372601 
L 479.875436 59.480986 
L 480.889797 59.830897 
L 482.242279 60.598969 
L 484.947242 62.341453 
L 485.961603 62.678437 
L 486.637844 62.705784 
L 487.314085 62.545662 
L 487.990326 62.187341 
L 489.004687 61.296805 
L 490.357169 59.635848 
L 492.047771 57.554129 
L 492.724012 57.000622 
L 493.400252 56.738107 
L 494.076493 56.83472 
L 494.752734 57.331457 
L 495.428975 58.233682 
L 496.105216 59.505282 
L 497.119577 61.919592 
L 498.810179 66.1258 
L 499.48642 67.368073 
L 500.162661 68.101861 
L 500.500781 68.23463 
L 500.838902 68.194019 
L 501.177022 67.971655 
L 501.515142 67.563374 
L 502.191383 66.195348 
L 502.867624 64.150736 
L 503.881985 60.135284 
L 505.910708 51.689296 
L 506.586949 49.796953 
L 506.925069 49.172803 
L 507.263189 48.79633 
L 507.60131 48.685695 
L 507.93943 48.852958 
L 508.277551 49.303552 
L 508.615671 50.035918 
L 509.291912 52.303835 
L 509.968153 55.502081 
L 511.320634 63.573237 
L 512.673116 71.387919 
L 513.349357 74.222322 
L 514.025598 75.91128 
L 514.363718 76.258564 
L 514.701839 76.253709 
L 515.039959 75.89184 
L 515.378079 75.176924 
L 516.05432 72.747866 
L 516.730561 69.169619 
L 517.744922 62.374727 
L 519.435524 50.839704 
L 520.111765 47.430412 
L 520.788006 45.235547 
L 521.126127 44.660914 
L 521.464247 44.453667 
L 521.802367 44.616596 
L 522.140488 45.143342 
L 522.478608 46.018615 
L 523.154849 48.711929 
L 524.16921 54.538562 
L 526.536053 69.438913 
L 527.212294 72.25157 
L 527.888535 73.910247 
L 528.226655 74.270784 
L 528.564776 74.315342 
L 528.902896 74.051074 
L 529.241017 73.492506 
L 529.917257 71.583886 
L 530.593498 68.827805 
L 532.2841 60.305907 
L 533.298462 55.717478 
L 533.974702 53.446164 
L 534.650943 51.998666 
L 534.989064 51.607838 
L 535.327184 51.440335 
L 535.665304 51.490366 
L 536.003425 51.747114 
L 536.679666 52.815415 
L 537.355907 54.479153 
L 538.708388 58.748982 
L 540.06087 62.836681 
L 540.737111 64.368057 
L 541.413352 65.411965 
L 542.089592 65.927545 
L 542.427713 65.989166 
L 542.765833 65.927164 
L 543.442074 65.469205 
L 544.118315 64.647234 
L 545.132676 62.987877 
L 546.823278 60.093722 
L 547.837639 58.824287 
L 548.51388 58.296953 
L 549.190121 58.045026 
L 549.866362 58.056246 
L 550.542603 58.296789 
L 551.556964 58.976402 
L 554.600048 61.460805 
L 555.614409 61.912534 
L 556.62877 62.059915 
L 557.643132 61.928942 
L 558.995613 61.451015 
L 561.700576 60.325697 
L 563.053058 60.045466 
L 564.40554 60.039725 
L 566.096142 60.322733 
L 569.477346 60.987921 
L 571.167948 61.049889 
L 573.534791 60.856507 
L 574.887273 60.708516 
L 574.887273 60.708516 
" clip-path="url(#pfe70733b5d)" style="fill: none; stroke: #0e7490; stroke-width: 0.9"/>
   </g>
   <g id="patch_3">
    <path d="M 7.2 100.998516 
L 7.2 20.418516 
" style="fill: none; stroke: #f0f0f0; stroke-width: 3; stroke-linejoin: miter; stroke-linecap: square"/>
   </g>
   <g id="patch_4">
    <path d="M 601.92 100.998516 
L 601.92 20.418516 
" style="fill: none; stroke: #f0f0f0; stroke-width: 3; stroke-linejoin: miter; stroke-linecap: square"/>
   </g>
   <g id="patch_5">
    <path d="M 7.2 100.998516 
L 601.92 100.998516 
" style="fill: none; stroke: #f0f0f0; stroke-width: 3; stroke-linejoin: miter; stroke-linecap: square"/>
   </g>
   <g id="patch_6">
    <path d="M 7.2 20.418516 
L 601.92 20.418516 
" style="fill: none; stroke: #f0f0f0; stroke-width: 3; stroke-linejoin: miter; stroke-linecap: square"/>
   </g>
   <g id="text_1">
    <!-- original clip: “What is today's weather?” -->
    <g style="fill: #808080" transform="translate(7.2 14.418516) scale(0.095 -0.095)">
     <defs>
      <path id="DejaVuSans-6f" d="M 1959 3097 
Q 1497 3097 1228 2736 
Q 959 2375 959 1747 
Q 959 1119 1226 758 
Q 1494 397 1959 397 
Q 2419 397 2687 759 
Q 2956 1122 2956 1747 
Q 2956 2369 2687 2733 
Q 2419 3097 1959 3097 
z
M 1959 3584 
Q 2709 3584 3137 3096 
Q 3566 2609 3566 1747 
Q 3566 888 3137 398 
Q 2709 -91 1959 -91 
Q 1206 -91 779 398 
Q 353 888 353 1747 
Q 353 2609 779 3096 
Q 1206 3584 1959 3584 
z
" transform="scale(0.015625)"/>
      <path id="DejaVuSans-72" d="M 2631 2963 
Q 2534 3019 2420 3045 
Q 2306 3072 2169 3072 
Q 1681 3072 1420 2755 
Q 1159 2438 1159 1844 
L 1159 0 
L 581 0 
L 581 3500 
L 1159 3500 
L 1159 2956 
Q 1341 3275 1631 3429 
Q 1922 3584 2338 3584 
Q 2397 3584 2469 3576 
Q 2541 3569 2628 3553 
L 2631 2963 
z
" transform="scale(0.015625)"/>
      <path id="DejaVuSans-69" d="M 603 3500 
L 1178 3500 
L 1178 0 
L 603 0 
L 603 3500 
z
M 603 4863 
L 1178 4863 
L 1178 4134 
L 603 4134 
L 603 4863 
z
" transform="scale(0.015625)"/>
      <path id="DejaVuSans-67" d="M 2906 1791 
Q 2906 2416 2648 2759 
Q 2391 3103 1925 3103 
Q 1463 3103 1205 2759 
Q 947 2416 947 1791 
Q 947 1169 1205 825 
Q 1463 481 1925 481 
Q 2391 481 2648 825 
Q 2906 1169 2906 1791 
z
M 3481 434 
Q 3481 -459 3084 -895 
Q 2688 -1331 1869 -1331 
Q 1566 -1331 1297 -1286 
Q 1028 -1241 775 -1147 
L 775 -588 
Q 1028 -725 1275 -790 
Q 1522 -856 1778 -856 
Q 2344 -856 2625 -561 
Q 2906 -266 2906 331 
L 2906 616 
Q 2728 306 2450 153 
Q 2172 0 1784 0 
Q 1141 0 747 490 
Q 353 981 353 1791 
Q 353 2603 747 3093 
Q 1141 3584 1784 3584 
Q 2172 3584 2450 3431 
Q 2728 3278 2906 2969 
L 2906 3500 
L 3481 3500 
L 3481 434 
z
" transform="scale(0.015625)"/>
      <path id="DejaVuSans-6e" d="M 3513 2113 
L 3513 0 
L 2938 0 
L 2938 2094 
Q 2938 2591 2744 2837 
Q 2550 3084 2163 3084 
Q 1697 3084 1428 2787 
Q 1159 2491 1159 1978 
L 1159 0 
L 581 0 
L 581 3500 
L 1159 3500 
L 1159 2956 
Q 1366 3272 1645 3428 
Q 1925 3584 2291 3584 
Q 2894 3584 3203 3211 
Q 3513 2838 3513 2113 
z
" transform="scale(0.015625)"/>
      <path id="DejaVuSans-61" d="M 2194 1759 
Q 1497 1759 1228 1600 
Q 959 1441 959 1056 
Q 959 750 1161 570 
Q 1363 391 1709 391 
Q 2188 391 2477 730 
Q 2766 1069 2766 1631 
L 2766 1759 
L 2194 1759 
z
M 3341 1997 
L 3341 0 
L 2766 0 
L 2766 531 
Q 2569 213 2275 61 
Q 1981 -91 1556 -91 
Q 1019 -91 701 211 
Q 384 513 384 1019 
Q 384 1609 779 1909 
Q 1175 2209 1959 2209 
L 2766 2209 
L 2766 2266 
Q 2766 2663 2505 2880 
Q 2244 3097 1772 3097 
Q 1472 3097 1187 3025 
Q 903 2953 641 2809 
L 641 3341 
Q 956 3463 1253 3523 
Q 1550 3584 1831 3584 
Q 2591 3584 2966 3190 
Q 3341 2797 3341 1997 
z
" transform="scale(0.015625)"/>
      <path id="DejaVuSans-6c" d="M 603 4863 
L 1178 4863 
L 1178 0 
L 603 0 
L 603 4863 
z
" transform="scale(0.015625)"/>
      <path id="DejaVuSans-20" transform="scale(0.015625)"/>
      <path id="DejaVuSans-63" d="M 3122 3366 
L 3122 2828 
Q 2878 2963 2633 3030 
Q 2388 3097 2138 3097 
Q 1578 3097 1268 2742 
Q 959 2388 959 1747 
Q 959 1106 1268 751 
Q 1578 397 2138 397 
Q 2388 397 2633 464 
Q 2878 531 3122 666 
L 3122 134 
Q 2881 22 2623 -34 
Q 2366 -91 2075 -91 
Q 1284 -91 818 406 
Q 353 903 353 1747 
Q 353 2603 823 3093 
Q 1294 3584 2113 3584 
Q 2378 3584 2631 3529 
Q 2884 3475 3122 3366 
z
" transform="scale(0.015625)"/>
      <path id="DejaVuSans-70" d="M 1159 525 
L 1159 -1331 
L 581 -1331 
L 581 3500 
L 1159 3500 
L 1159 2969 
Q 1341 3281 1617 3432 
Q 1894 3584 2278 3584 
Q 2916 3584 3314 3078 
Q 3713 2572 3713 1747 
Q 3713 922 3314 415 
Q 2916 -91 2278 -91 
Q 1894 -91 1617 61 
Q 1341 213 1159 525 
z
M 3116 1747 
Q 3116 2381 2855 2742 
Q 2594 3103 2138 3103 
Q 1681 3103 1420 2742 
Q 1159 2381 1159 1747 
Q 1159 1113 1420 752 
Q 1681 391 2138 391 
Q 2594 391 2855 752 
Q 3116 1113 3116 1747 
z
" transform="scale(0.015625)"/>
      <path id="DejaVuSans-3a" d="M 750 794 
L 1409 794 
L 1409 0 
L 750 0 
L 750 794 
z
M 750 3309 
L 1409 3309 
L 1409 2516 
L 750 2516 
L 750 3309 
z
" transform="scale(0.015625)"/>
      <path id="DejaVuSans-201c" d="M 1203 3128 
L 544 3128 
L 544 3669 
L 1056 4666 
L 1459 4666 
L 1203 3669 
L 1203 3128 
z
M 2484 3128 
L 1825 3128 
L 1825 3669 
L 2338 4666 
L 2741 4666 
L 2484 3669 
L 2484 3128 
z
" transform="scale(0.015625)"/>
      <path id="DejaVuSans-57" d="M 213 4666 
L 850 4666 
L 1831 722 
L 2809 4666 
L 3519 4666 
L 4500 722 
L 5478 4666 
L 6119 4666 
L 4947 0 
L 4153 0 
L 3169 4050 
L 2175 0 
L 1381 0 
L 213 4666 
z
" transform="scale(0.015625)"/>
      <path id="DejaVuSans-68" d="M 3513 2113 
L 3513 0 
L 2938 0 
L 2938 2094 
Q 2938 2591 2744 2837 
Q 2550 3084 2163 3084 
Q 1697 3084 1428 2787 
Q 1159 2491 1159 1978 
L 1159 0 
L 581 0 
L 581 4863 
L 1159 4863 
L 1159 2956 
Q 1366 3272 1645 3428 
Q 1925 3584 2291 3584 
Q 2894 3584 3203 3211 
Q 3513 2838 3513 2113 
z
" transform="scale(0.015625)"/>
      <path id="DejaVuSans-74" d="M 1172 4494 
L 1172 3500 
L 2356 3500 
L 2356 3053 
L 1172 3053 
L 1172 1153 
Q 1172 725 1289 603 
Q 1406 481 1766 481 
L 2356 481 
L 2356 0 
L 1766 0 
Q 1100 0 847 248 
Q 594 497 594 1153 
L 594 3053 
L 172 3053 
L 172 3500 
L 594 3500 
L 594 4494 
L 1172 4494 
z
" transform="scale(0.015625)"/>
      <path id="DejaVuSans-73" d="M 2834 3397 
L 2834 2853 
Q 2591 2978 2328 3040 
Q 2066 3103 1784 3103 
Q 1356 3103 1142 2972 
Q 928 2841 928 2578 
Q 928 2378 1081 2264 
Q 1234 2150 1697 2047 
L 1894 2003 
Q 2506 1872 2764 1633 
Q 3022 1394 3022 966 
Q 3022 478 2636 193 
Q 2250 -91 1575 -91 
Q 1294 -91 989 -36 
Q 684 19 347 128 
L 347 722 
Q 666 556 975 473 
Q 1284 391 1588 391 
Q 1994 391 2212 530 
Q 2431 669 2431 922 
Q 2431 1156 2273 1281 
Q 2116 1406 1581 1522 
L 1381 1569 
Q 847 1681 609 1914 
Q 372 2147 372 2553 
Q 372 3047 722 3315 
Q 1072 3584 1716 3584 
Q 2034 3584 2315 3537 
Q 2597 3491 2834 3397 
z
" transform="scale(0.015625)"/>
      <path id="DejaVuSans-64" d="M 2906 2969 
L 2906 4863 
L 3481 4863 
L 3481 0 
L 2906 0 
L 2906 525 
Q 2725 213 2448 61 
Q 2172 -91 1784 -91 
Q 1150 -91 751 415 
Q 353 922 353 1747 
Q 353 2572 751 3078 
Q 1150 3584 1784 3584 
Q 2172 3584 2448 3432 
Q 2725 3281 2906 2969 
z
M 947 1747 
Q 947 1113 1208 752 
Q 1469 391 1925 391 
Q 2381 391 2643 752 
Q 2906 1113 2906 1747 
Q 2906 2381 2643 2742 
Q 2381 3103 1925 3103 
Q 1469 3103 1208 2742 
Q 947 2381 947 1747 
z
" transform="scale(0.015625)"/>
      <path id="DejaVuSans-79" d="M 2059 -325 
Q 1816 -950 1584 -1140 
Q 1353 -1331 966 -1331 
L 506 -1331 
L 506 -850 
L 844 -850 
Q 1081 -850 1212 -737 
Q 1344 -625 1503 -206 
L 1606 56 
L 191 3500 
L 800 3500 
L 1894 763 
L 2988 3500 
L 3597 3500 
L 2059 -325 
z
" transform="scale(0.015625)"/>
      <path id="DejaVuSans-27" d="M 1147 4666 
L 1147 2931 
L 616 2931 
L 616 4666 
L 1147 4666 
z
" transform="scale(0.015625)"/>
      <path id="DejaVuSans-77" d="M 269 3500 
L 844 3500 
L 1563 769 
L 2278 3500 
L 2956 3500 
L 3675 769 
L 4391 3500 
L 4966 3500 
L 4050 0 
L 3372 0 
L 2619 2869 
L 1863 0 
L 1184 0 
L 269 3500 
z
" transform="scale(0.015625)"/>
      <path id="DejaVuSans-65" d="M 3597 1894 
L 3597 1613 
L 953 1613 
Q 991 1019 1311 708 
Q 1631 397 2203 397 
Q 2534 397 2845 478 
Q 3156 559 3463 722 
L 3463 178 
Q 3153 47 2828 -22 
Q 2503 -91 2169 -91 
Q 1331 -91 842 396 
Q 353 884 353 1716 
Q 353 2575 817 3079 
Q 1281 3584 2069 3584 
Q 2775 3584 3186 3129 
Q 3597 2675 3597 1894 
z
M 3022 2063 
Q 3016 2534 2758 2815 
Q 2500 3097 2075 3097 
Q 1594 3097 1305 2825 
Q 1016 2553 972 2059 
L 3022 2063 
z
" transform="scale(0.015625)"/>
      <path id="DejaVuSans-3f" d="M 1222 794 
L 1856 794 
L 1856 0 
L 1222 0 
L 1222 794 
z
M 1838 1253 
L 1241 1253 
L 1241 1734 
Q 1241 2050 1328 2253 
Q 1416 2456 1697 2725 
L 1978 3003 
Q 2156 3169 2236 3316 
Q 2316 3463 2316 3616 
Q 2316 3894 2111 4066 
Q 1906 4238 1569 4238 
Q 1322 4238 1042 4128 
Q 763 4019 459 3809 
L 459 4397 
Q 753 4575 1054 4662 
Q 1356 4750 1678 4750 
Q 2253 4750 2601 4447 
Q 2950 4144 2950 3647 
Q 2950 3409 2837 3195 
Q 2725 2981 2444 2713 
L 2169 2444 
Q 2022 2297 1961 2214 
Q 1900 2131 1875 2053 
Q 1856 1988 1847 1894 
Q 1838 1800 1838 1638 
L 1838 1253 
z
" transform="scale(0.015625)"/>
      <path id="DejaVuSans-201d" d="M 800 4666 
L 1459 4666 
L 1459 4128 
L 947 3128 
L 544 3128 
L 800 4128 
L 800 4666 
z
M 2081 4666 
L 2741 4666 
L 2741 4128 
L 2228 3128 
L 1825 3128 
L 2081 4128 
L 2081 4666 
z
" transform="scale(0.015625)"/>
     </defs>
     <use xlink:href="#DejaVuSans-6f"/>
     <use xlink:href="#DejaVuSans-72" transform="translate(61.181641 0)"/>
     <use xlink:href="#DejaVuSans-69" transform="translate(102.294922 0)"/>
     <use xlink:href="#DejaVuSans-67" transform="translate(130.078125 0)"/>
     <use xlink:href="#DejaVuSans-69" transform="translate(193.554688 0)"/>
     <use xlink:href="#DejaVuSans-6e" transform="translate(221.337891 0)"/>
     <use xlink:href="#DejaVuSans-61" transform="translate(284.716797 0)"/>
     <use xlink:href="#DejaVuSans-6c" transform="translate(345.996094 0)"/>
     <use xlink:href="#DejaVuSans-20" transform="translate(373.779297 0)"/>
     <use xlink:href="#DejaVuSans-63" transform="translate(405.566406 0)"/>
     <use xlink:href="#DejaVuSans-6c" transform="translate(460.546875 0)"/>
     <use xlink:href="#DejaVuSans-69" transform="translate(488.330078 0)"/>
     <use xlink:href="#DejaVuSans-70" transform="translate(516.113281 0)"/>
     <use xlink:href="#DejaVuSans-3a" transform="translate(579.589844 0)"/>
     <use xlink:href="#DejaVuSans-20" transform="translate(613.28125 0)"/>
     <use xlink:href="#DejaVuSans-201c" transform="translate(645.068359 0)"/>
     <use xlink:href="#DejaVuSans-57" transform="translate(696.875 0)"/>
     <use xlink:href="#DejaVuSans-68" transform="translate(795.751953 0)"/>
     <use xlink:href="#DejaVuSans-61" transform="translate(859.130859 0)"/>
     <use xlink:href="#DejaVuSans-74" transform="translate(920.410156 0)"/>
     <use xlink:href="#DejaVuSans-20" transform="translate(959.619141 0)"/>
     <use xlink:href="#DejaVuSans-69" transform="translate(991.40625 0)"/>
     <use xlink:href="#DejaVuSans-73" transform="translate(1019.189453 0)"/>
     <use xlink:href="#DejaVuSans-20" transform="translate(1071.289062 0)"/>
     <use xlink:href="#DejaVuSans-74" transform="translate(1103.076172 0)"/>
     <use xlink:href="#DejaVuSans-6f" transform="translate(1142.285156 0)"/>
     <use xlink:href="#DejaVuSans-64" transform="translate(1203.466797 0)"/>
     <use xlink:href="#DejaVuSans-61" transform="translate(1266.943359 0)"/>
     <use xlink:href="#DejaVuSans-79" transform="translate(1328.222656 0)"/>
     <use xlink:href="#DejaVuSans-27" transform="translate(1387.402344 0)"/>
     <use xlink:href="#DejaVuSans-73" transform="translate(1414.892578 0)"/>
     <use xlink:href="#DejaVuSans-20" transform="translate(1466.992188 0)"/>
     <use xlink:href="#DejaVuSans-77" transform="translate(1498.779297 0)"/>
     <use xlink:href="#DejaVuSans-65" transform="translate(1580.566406 0)"/>
     <use xlink:href="#DejaVuSans-61" transform="translate(1642.089844 0)"/>
     <use xlink:href="#DejaVuSans-74" transform="translate(1703.369141 0)"/>
     <use xlink:href="#DejaVuSans-68" transform="translate(1742.578125 0)"/>
     <use xlink:href="#DejaVuSans-65" transform="translate(1805.957031 0)"/>
     <use xlink:href="#DejaVuSans-72" transform="translate(1867.480469 0)"/>
     <use xlink:href="#DejaVuSans-3f" transform="translate(1908.59375 0)"/>
     <use xlink:href="#DejaVuSans-201d" transform="translate(1961.669922 0)"/>
    </g>
   </g>
  </g>
  <g id="axes_2">
   <g id="patch_7">
    <path d="M 7.2 203.718516 
L 601.92 203.718516 
L 601.92 123.138516 
L 7.2 123.138516 
z
" style="fill: #ffffff"/>
   </g>
   <g id="matplotlib.axis_3"/>
   <g id="matplotlib.axis_4"/>
   <g id="line2d_2">
    <path d="M 34.232727 163.396833 
L 34.570848 164.48519 
L 34.908968 165.038681 
L 35.247089 166.251868 
L 35.585209 166.539978 
L 35.923329 164.555891 
L 36.26145 164.06289 
L 36.59957 164.261882 
L 36.937691 162.441246 
L 37.275811 162.073821 
L 37.613931 163.585004 
L 37.952052 164.120207 
L 38.290172 163.393929 
L 38.628293 163.141703 
L 38.966413 165.228482 
L 39.304534 165.920981 
L 39.980774 168.664932 
L 40.318895 171.782064 
L 40.657015 170.429572 
L 40.995136 171.431435 
L 41.333256 168.777527 
L 42.009497 164.997946 
L 42.347617 167.808345 
L 42.685738 166.927669 
L 43.023858 167.332753 
L 43.361979 167.398711 
L 43.700099 169.0578 
L 44.038219 166.568518 
L 44.37634 167.117386 
L 44.71446 168.05744 
L 45.390701 166.017878 
L 45.728821 165.471993 
L 46.066942 163.184576 
L 46.405062 162.901941 
L 46.743183 164.329858 
L 47.081303 163.19069 
L 47.419424 163.055576 
L 47.757544 165.621797 
L 48.095664 164.789235 
L 48.433785 162.959652 
L 48.771905 164.963461 
L 49.110026 163.957266 
L 49.448146 162.276914 
L 49.786266 163.124574 
L 50.124387 162.305877 
L 50.462507 159.443258 
L 50.800628 161.938919 
L 51.138748 161.968162 
L 51.476868 160.452579 
L 51.814989 163.119919 
L 52.153109 163.2057 
L 52.49123 161.811469 
L 52.82935 161.086382 
L 53.167471 160.038746 
L 54.519952 162.487584 
L 54.858073 165.7548 
L 55.196193 165.690638 
L 55.534313 166.239885 
L 56.210554 163.452708 
L 56.886795 164.021791 
L 57.224916 163.055262 
L 57.563036 166.664306 
L 57.901156 168.695064 
L 58.239277 167.242823 
L 58.577397 164.769568 
L 58.915518 164.749465 
L 59.253638 162.727591 
L 59.591758 162.618394 
L 59.929879 162.798461 
L 60.267999 162.449305 
L 60.60612 163.781894 
L 60.94424 163.700162 
L 61.282361 162.748133 
L 61.620481 162.507666 
L 61.958601 164.523162 
L 62.296722 165.258576 
L 62.634842 164.785252 
L 62.972963 165.639526 
L 63.649203 162.764707 
L 63.987324 161.302097 
L 64.325444 160.347064 
L 64.663565 160.106592 
L 65.001685 160.144292 
L 65.339806 160.863927 
L 65.677926 160.048286 
L 66.016046 162.399805 
L 66.354167 161.528876 
L 67.030408 167.392368 
L 67.368528 168.52621 
L 67.706648 168.117637 
L 68.044769 168.43757 
L 68.382889 163.734862 
L 68.72101 162.401063 
L 69.05913 162.954546 
L 69.397251 161.77753 
L 69.735371 161.565539 
L 70.073491 164.734768 
L 70.411612 164.1723 
L 70.749732 162.750531 
L 71.087853 162.564474 
L 71.425973 164.626047 
L 71.764093 164.68136 
L 72.102214 164.540386 
L 72.440334 166.825446 
L 72.778455 167.246853 
L 73.116575 167.102274 
L 73.454696 165.849669 
L 73.792816 165.656519 
L 74.130936 164.216111 
L 74.469057 165.183375 
L 74.807177 164.162972 
L 75.145298 167.654499 
L 75.483418 169.094111 
L 75.821538 168.543845 
L 76.159659 170.187627 
L 76.497779 168.74057 
L 76.8359 168.15206 
L 77.17402 165.546433 
L 77.512141 166.7338 
L 77.850261 162.876951 
L 78.188381 163.472578 
L 78.526502 162.950513 
L 78.864622 162.104347 
L 79.202743 159.086761 
L 79.540863 159.944852 
L 79.878983 160.303779 
L 80.217104 158.522396 
L 80.555224 161.204972 
L 80.893345 161.631225 
L 81.231465 162.273467 
L 81.569586 162.109451 
L 81.907706 163.046098 
L 82.245826 162.826588 
L 82.583947 165.994227 
L 82.922067 164.081573 
L 83.260188 164.537423 
L 83.598308 162.738618 
L 84.274549 162.01229 
L 84.612669 164.352464 
L 84.95079 165.244736 
L 85.28891 166.80078 
L 85.627031 167.636826 
L 85.965151 167.48212 
L 86.303271 169.062165 
L 86.641392 169.608294 
L 86.979512 167.780215 
L 87.317633 168.274315 
L 87.655753 169.266299 
L 88.331994 164.377075 
L 88.670114 168.048068 
L 89.346355 166.476737 
L 89.684476 168.709792 
L 90.022596 169.136464 
L 90.360716 166.93354 
L 90.698837 166.098761 
L 91.036957 165.721385 
L 91.375078 162.456603 
L 91.713198 163.459814 
L 92.051318 163.047518 
L 92.389439 163.948263 
L 92.727559 163.996766 
L 93.06568 162.434801 
L 93.4038 161.963853 
L 93.741921 161.061665 
L 94.418161 158.283831 
L 94.756282 160.421498 
L 95.094402 159.001651 
L 95.432523 159.806237 
L 95.770643 160.132127 
L 96.108763 159.850884 
L 96.446884 158.175775 
L 96.785004 158.60358 
L 97.123125 158.346476 
L 97.461245 159.517543 
L 97.799366 161.977242 
L 98.137486 163.052041 
L 98.475606 163.541008 
L 98.813727 165.048166 
L 99.151847 164.565332 
L 99.489968 162.772708 
L 100.504329 165.659936 
L 100.842449 165.072702 
L 101.18057 168.053238 
L 101.51869 168.380415 
L 101.856811 169.125427 
L 102.194931 167.560574 
L 102.533051 167.014518 
L 102.871172 163.395714 
L 103.547413 167.478959 
L 103.885533 166.772962 
L 104.223653 169.392982 
L 104.561774 170.161289 
L 104.899894 166.540369 
L 105.238015 165.200907 
L 105.576135 167.433803 
L 105.914256 164.472229 
L 106.252376 162.991811 
L 106.590496 162.933199 
L 107.266737 156.757747 
L 107.604858 157.808507 
L 107.942978 157.098921 
L 108.281098 157.205168 
L 108.619219 158.694969 
L 109.29546 154.813347 
L 109.63358 154.288177 
L 109.9717 154.758856 
L 110.309821 154.271584 
L 110.986062 159.355647 
L 111.662303 162.516681 
L 112.000423 163.13032 
L 112.338543 163.484062 
L 112.676664 162.004873 
L 113.014784 166.093339 
L 113.352905 166.185991 
L 114.029145 171.246317 
L 114.367266 177.34368 
L 114.705386 177.83458 
L 115.381627 180.489021 
L 115.719748 181.147002 
L 116.057868 180.147586 
L 116.395988 178.215892 
L 116.734109 178.815804 
L 117.072229 180.68555 
L 117.41035 180.522622 
L 117.74847 181.101159 
L 118.08659 184.681367 
L 118.424711 183.173081 
L 118.762831 176.440514 
L 119.439072 169.164258 
L 120.115313 158.509012 
L 120.453433 157.076403 
L 120.791554 154.304242 
L 121.467795 146.76782 
L 122.482156 141.377279 
L 122.820276 141.710402 
L 123.158397 140.715955 
L 123.496517 142.610733 
L 123.834638 142.504324 
L 124.172758 145.368386 
L 124.510878 145.765688 
L 125.52524 153.394178 
L 125.86336 153.023896 
L 126.20148 156.624833 
L 126.539601 159.020187 
L 126.877721 160.354594 
L 127.215842 169.086779 
L 127.553962 173.899156 
L 127.892083 176.568714 
L 128.568323 184.73033 
L 128.906444 184.092846 
L 129.244564 186.427574 
L 129.582685 186.232555 
L 129.920805 186.756614 
L 130.258925 185.749183 
L 130.597046 183.316136 
L 130.935166 183.020845 
L 131.611407 184.570294 
L 131.949528 180.444915 
L 132.287648 178.552776 
L 133.302009 163.64024 
L 134.31637 157.771752 
L 134.654491 155.224742 
L 135.330732 147.190829 
L 135.668852 144.489213 
L 136.006973 142.883965 
L 136.345093 142.105506 
L 136.683213 140.845852 
L 137.021334 140.254602 
L 137.359454 139.954945 
L 137.697575 140.027153 
L 138.035695 141.455085 
L 138.373815 144.811138 
L 138.711936 146.095164 
L 139.388177 151.062651 
L 139.726297 152.672355 
L 140.064418 155.349806 
L 140.402538 161.393124 
L 141.75502 173.585602 
L 142.09314 173.513474 
L 142.43126 173.671601 
L 142.769381 175.004351 
L 143.107501 178.463662 
L 143.445622 178.53268 
L 143.783742 180.083707 
L 144.121863 183.595313 
L 144.459983 182.653281 
L 144.798103 179.04625 
L 145.136224 178.813931 
L 145.474344 177.919532 
L 146.150585 174.954949 
L 146.488705 176.985568 
L 146.826826 175.878506 
L 147.164946 171.789439 
L 147.841187 165.99543 
L 148.517428 156.402356 
L 148.855548 155.222526 
L 149.193669 149.83281 
L 149.531789 149.736276 
L 150.20803 151.762863 
L 150.54615 151.546679 
L 150.884271 151.584045 
L 151.222391 149.925708 
L 151.560512 150.41004 
L 151.898632 150.140225 
L 152.236753 151.416173 
L 152.912993 156.210458 
L 153.251114 156.03513 
L 153.589234 156.010823 
L 153.927355 157.255703 
L 154.265475 159.230131 
L 154.603595 160.323552 
L 154.941716 162.28225 
L 155.279836 163.579943 
L 155.617957 162.395898 
L 155.956077 162.992127 
L 156.294198 164.416834 
L 156.632318 167.467278 
L 156.970438 168.522961 
L 157.308559 173.932945 
L 157.646679 176.921807 
L 157.9848 176.280067 
L 158.32292 173.487772 
L 158.66104 174.097277 
L 158.999161 173.574949 
L 159.337281 171.901276 
L 159.675402 173.227281 
L 160.013522 172.623919 
L 160.689763 165.614526 
L 161.366004 164.755013 
L 161.704124 164.582128 
L 162.042245 166.548519 
L 162.380365 167.233489 
L 162.718485 165.188564 
L 163.056606 164.282937 
L 163.732847 159.826332 
L 164.070967 156.486851 
L 164.409087 156.729151 
L 164.747208 154.326795 
L 165.423449 157.285723 
L 165.761569 159.043323 
L 166.09969 160.184991 
L 166.43781 162.826168 
L 166.77593 162.031435 
L 167.114051 162.220955 
L 167.452171 162.049742 
L 167.790292 159.802481 
L 168.128412 160.782378 
L 168.466532 163.378615 
L 168.804653 163.610275 
L 169.142773 164.081446 
L 169.480894 166.449513 
L 169.819014 163.716513 
L 170.157135 163.114943 
L 170.833375 167.520524 
L 171.171496 166.513362 
L 171.509616 167.573994 
L 171.847737 170.446734 
L 172.185857 167.507045 
L 172.523977 165.745667 
L 172.862098 165.111467 
L 173.200218 166.08956 
L 173.538339 163.978919 
L 173.876459 166.789507 
L 174.21458 164.116208 
L 174.5527 165.617838 
L 174.89082 162.783678 
L 175.228941 162.751235 
L 175.567061 160.669384 
L 175.905182 165.304916 
L 176.243302 165.02081 
L 176.919543 165.430204 
L 177.257663 163.805034 
L 177.595784 160.861496 
L 177.933904 161.232056 
L 178.272025 162.662706 
L 178.610145 161.357126 
L 179.286386 163.332673 
L 179.962627 162.643656 
L 180.300747 163.36219 
L 180.638867 164.979835 
L 180.976988 164.551149 
L 181.315108 162.692537 
L 181.653229 164.496372 
L 181.991349 163.591958 
L 182.32947 163.216251 
L 182.66759 164.804749 
L 183.00571 165.321587 
L 183.343831 164.583616 
L 183.681951 163.26332 
L 184.020072 163.935068 
L 184.358192 162.764401 
L 184.696312 164.569355 
L 185.034433 165.306317 
L 185.372553 166.828999 
L 185.710674 166.418231 
L 186.386915 166.460191 
L 186.725035 167.027659 
L 187.063155 167.959021 
L 187.401276 167.713191 
L 187.739396 167.206764 
L 188.077517 168.111058 
L 188.415637 166.602814 
L 188.753757 168.291767 
L 189.091878 167.192374 
L 189.429998 169.269405 
L 189.768119 169.896719 
L 190.106239 169.402079 
L 190.44436 165.383643 
L 190.78248 167.479691 
L 191.1206 166.90666 
L 191.458721 165.025478 
L 191.796841 165.776304 
L 192.134962 166.133842 
L 192.473082 164.762291 
L 192.811202 163.872973 
L 193.149323 161.869562 
L 193.487443 161.107087 
L 193.825564 160.818996 
L 194.163684 160.885521 
L 194.501805 161.445743 
L 194.839925 164.466735 
L 195.178045 161.410866 
L 195.516166 162.58394 
L 196.192407 160.42146 
L 196.530527 158.488702 
L 196.868647 161.296482 
L 197.206768 159.211697 
L 198.89737 170.882347 
L 199.23549 169.309258 
L 199.573611 169.236895 
L 199.911731 170.295129 
L 200.249852 169.607814 
L 200.587972 169.238299 
L 200.926092 174.015799 
L 201.264213 172.388863 
L 201.602333 172.076123 
L 201.940454 170.308654 
L 202.278574 173.147195 
L 202.616695 169.718806 
L 202.954815 171.762196 
L 203.292935 171.070152 
L 203.631056 169.962968 
L 203.969176 166.851601 
L 204.307297 166.126087 
L 204.645417 164.410912 
L 204.983537 164.552179 
L 205.321658 165.725483 
L 205.659778 165.757274 
L 205.997899 164.375218 
L 206.67414 160.644128 
L 207.01226 159.44818 
L 207.35038 158.772497 
L 208.364742 152.249775 
L 208.702862 153.020165 
L 209.040982 153.138028 
L 209.379103 155.727079 
L 209.717223 159.361977 
L 210.055344 159.869447 
L 210.393464 160.970573 
L 210.731585 161.053002 
L 211.069705 161.466747 
L 211.407825 161.38608 
L 211.745946 162.755526 
L 212.084066 163.63921 
L 212.422187 166.841844 
L 212.760307 168.298555 
L 213.098427 170.537254 
L 213.436548 171.221493 
L 213.774668 171.437699 
L 214.112789 172.928168 
L 214.450909 173.39217 
L 215.12715 176.563433 
L 215.46527 177.203728 
L 215.803391 178.153104 
L 216.141511 177.98365 
L 216.479632 175.797638 
L 216.817752 174.67163 
L 217.155872 174.067651 
L 217.493993 171.033161 
L 217.832113 171.229949 
L 218.508354 169.6073 
L 218.846475 167.522744 
L 219.184595 167.038332 
L 219.522715 164.032383 
L 220.198956 160.07217 
L 220.537077 159.361739 
L 220.875197 155.965678 
L 221.213317 157.202314 
L 222.227679 153.311943 
L 222.565799 153.242839 
L 222.903919 151.96311 
L 223.24204 153.044294 
L 223.58016 152.994656 
L 223.918281 153.473789 
L 224.256401 154.562 
L 224.594522 156.681739 
L 224.932642 156.937276 
L 225.608883 158.433001 
L 226.623244 162.723041 
L 226.961364 165.909994 
L 227.299485 171.757327 
L 227.975726 174.168645 
L 228.313846 178.017115 
L 228.651967 179.529873 
L 228.990087 175.569957 
L 229.328207 176.96883 
L 229.666328 175.053602 
L 230.342569 168.361957 
L 230.680689 169.58356 
L 231.018809 168.737367 
L 231.35693 169.72245 
L 231.69505 171.639294 
L 232.033171 171.834458 
L 232.709412 167.95285 
L 233.047532 163.651209 
L 233.385652 162.179178 
L 233.723773 161.205291 
L 235.076254 153.139538 
L 235.414375 152.393803 
L 235.752495 151.972441 
L 236.090616 153.245106 
L 236.428736 156.110352 
L 237.104977 155.332118 
L 237.443097 155.618228 
L 237.781218 156.911705 
L 238.119338 156.000547 
L 238.795579 160.309328 
L 239.133699 164.627987 
L 239.47182 164.25894 
L 239.80994 164.110965 
L 240.148061 164.375511 
L 240.486181 165.555233 
L 240.824302 164.313501 
L 241.162422 164.450086 
L 241.500542 170.34867 
L 241.838663 172.289741 
L 242.176783 172.087254 
L 242.514904 172.286502 
L 242.853024 172.013644 
L 243.191144 167.933032 
L 243.529265 167.889319 
L 243.867385 168.462538 
L 244.205506 168.390025 
L 244.543626 170.969447 
L 244.881747 172.02244 
L 245.219867 170.692903 
L 245.557987 167.859644 
L 245.896108 168.030861 
L 246.910469 162.735564 
L 247.248589 163.673806 
L 247.58671 160.122555 
L 247.92483 159.672131 
L 248.262951 158.578651 
L 248.601071 158.948938 
L 248.939192 156.506051 
L 249.615432 155.170896 
L 249.953553 155.0433 
L 250.291673 153.558612 
L 250.629794 154.715948 
L 250.967914 157.480249 
L 251.306034 154.214349 
L 251.644155 152.594716 
L 251.982275 152.763006 
L 252.320396 153.146649 
L 252.658516 150.866037 
L 252.996637 153.50704 
L 253.334757 154.047792 
L 253.672877 157.231919 
L 254.349118 162.057387 
L 255.025359 166.827292 
L 255.363479 167.262465 
L 256.03972 171.102722 
L 256.715961 173.498445 
L 257.054082 175.879723 
L 257.392202 176.345242 
L 257.730322 175.751307 
L 258.068443 173.096956 
L 259.420924 168.731458 
L 260.097165 172.953012 
L 260.773406 169.230141 
L 261.111527 170.127351 
L 261.449647 169.837766 
L 261.787767 168.136893 
L 262.125888 165.138654 
L 262.464008 164.288507 
L 262.802129 161.156579 
L 263.478369 152.127486 
L 263.81649 151.515859 
L 264.15461 148.383019 
L 264.830851 147.722474 
L 265.168972 149.110249 
L 265.507092 147.057025 
L 265.845212 147.83223 
L 266.183333 148.166662 
L 266.521453 149.057852 
L 266.859574 149.345013 
L 267.197694 151.490546 
L 267.535814 155.343967 
L 268.212055 160.374241 
L 268.550176 159.600701 
L 268.888296 162.007046 
L 269.226417 162.96071 
L 269.564537 163.580315 
L 269.902657 163.285173 
L 270.240778 169.232038 
L 270.578898 173.211358 
L 270.917019 173.693094 
L 271.255139 175.759736 
L 271.593259 178.909329 
L 271.93138 180.309397 
L 272.2695 178.149644 
L 272.945741 177.442327 
L 273.283862 176.761927 
L 273.621982 177.533173 
L 273.960102 177.614942 
L 274.298223 178.081502 
L 274.974464 173.56711 
L 275.312584 168.794484 
L 275.650704 168.780574 
L 275.988825 165.124984 
L 276.665066 161.855956 
L 277.003186 159.33079 
L 277.341306 155.002811 
L 277.679427 155.84775 
L 278.017547 151.300292 
L 278.355668 148.779918 
L 279.370029 137.968106 
L 279.708149 141.547752 
L 280.04627 143.281332 
L 280.722511 151.121343 
L 281.060631 152.629184 
L 281.398751 154.803784 
L 281.736872 155.522447 
L 282.074992 158.380608 
L 282.413113 160.078738 
L 282.751233 163.117634 
L 283.089354 163.917049 
L 283.427474 167.292789 
L 283.765594 168.899167 
L 284.441835 177.077086 
L 284.779956 178.950987 
L 285.118076 178.524649 
L 286.132437 173.774653 
L 286.470558 174.993008 
L 286.808678 175.503662 
L 287.146799 177.615389 
L 287.484919 178.548132 
L 287.823039 178.635528 
L 288.16116 176.227879 
L 288.49928 176.774754 
L 288.837401 174.807972 
L 289.175521 173.858687 
L 289.513641 171.625178 
L 289.851762 166.523576 
L 290.866123 157.097556 
L 291.204244 153.580375 
L 291.542364 155.736085 
L 291.880484 154.124242 
L 292.218605 151.186434 
L 292.556725 150.279002 
L 292.894846 150.079106 
L 293.232966 146.212911 
L 293.571086 146.523944 
L 294.247327 148.952968 
L 294.585448 147.94918 
L 294.923568 153.196544 
L 295.261689 154.38011 
L 295.599809 156.533259 
L 295.937929 156.656107 
L 296.27605 159.444312 
L 296.61417 157.131115 
L 296.952291 160.073491 
L 297.290411 160.337929 
L 298.304772 169.210291 
L 298.642893 169.847881 
L 298.981013 174.575609 
L 299.319134 175.72944 
L 299.995374 179.659868 
L 300.333495 178.452283 
L 301.009736 173.176199 
L 301.347856 171.277631 
L 302.362217 173.197427 
L 302.700338 175.648218 
L 303.376579 171.513697 
L 303.714699 171.792117 
L 304.39094 165.992071 
L 304.72906 164.902455 
L 305.067181 162.860078 
L 305.405301 158.626428 
L 305.743421 158.50685 
L 306.081542 156.050108 
L 306.757783 154.424335 
L 307.095903 154.323913 
L 307.772144 157.584283 
L 308.110264 158.498384 
L 308.448385 158.936211 
L 308.786505 161.441865 
L 309.124626 158.100931 
L 309.462746 158.31666 
L 309.800866 160.109394 
L 310.138987 163.146643 
L 310.477107 162.556305 
L 310.815228 165.425862 
L 311.153348 167.197323 
L 311.829589 165.767092 
L 312.167709 165.429087 
L 312.50583 166.835851 
L 312.84395 166.564106 
L 313.182071 165.962843 
L 313.520191 162.426313 
L 313.858311 164.65356 
L 314.196432 164.559224 
L 314.534552 165.675045 
L 314.872673 165.956871 
L 315.210793 170.474857 
L 315.887034 168.975457 
L 316.225154 168.879026 
L 316.563275 170.689967 
L 316.901395 169.492443 
L 317.577636 172.361612 
L 317.915756 171.213718 
L 318.253877 169.398005 
L 318.930118 167.745177 
L 319.944479 163.400962 
L 320.282599 162.964412 
L 320.95884 160.073345 
L 321.973201 164.480285 
L 322.311322 161.630499 
L 322.649442 162.200305 
L 322.987563 160.182819 
L 323.325683 159.494612 
L 323.663804 157.55726 
L 324.001924 160.300805 
L 324.340044 161.021047 
L 325.016285 158.435494 
L 325.354406 160.50011 
L 326.030646 159.869071 
L 327.045008 165.287782 
L 327.721249 166.310273 
L 328.059369 167.812173 
L 329.07373 161.968228 
L 329.411851 163.338965 
L 330.426212 160.683264 
L 330.764332 161.235181 
L 331.440573 158.226036 
L 331.778694 161.733012 
L 332.116814 162.603609 
L 332.454934 162.128726 
L 332.793055 161.180665 
L 333.131175 163.685637 
L 333.469296 161.955833 
L 333.807416 161.9556 
L 334.145536 162.182876 
L 334.821777 163.803272 
L 335.159898 164.083914 
L 335.498018 162.572941 
L 335.836138 163.840823 
L 336.174259 163.938684 
L 336.512379 161.717858 
L 337.18862 163.931126 
L 337.526741 164.123877 
L 338.202981 160.643315 
L 338.541102 156.994357 
L 338.879222 157.644467 
L 339.217343 155.605199 
L 339.555463 157.023427 
L 339.893583 159.912463 
L 340.231704 160.671425 
L 340.569824 162.192381 
L 340.907945 161.969402 
L 341.246065 162.329063 
L 341.584186 160.863071 
L 341.922306 162.649409 
L 342.260426 161.954522 
L 342.598547 162.984686 
L 342.936667 162.075058 
L 343.274788 163.787508 
L 343.951028 163.220554 
L 344.289149 166.13626 
L 344.627269 165.873228 
L 344.96539 164.978602 
L 345.30351 165.297107 
L 345.641631 164.460757 
L 345.979751 160.448906 
L 346.655992 163.564514 
L 346.994112 163.835976 
L 347.332233 162.320957 
L 347.670353 165.155434 
L 348.008473 163.002885 
L 348.346594 162.799021 
L 348.684714 163.80786 
L 349.022835 163.624901 
L 349.360955 161.962413 
L 349.699076 164.954789 
L 350.037196 164.565363 
L 350.375316 162.047113 
L 350.713437 162.122517 
L 351.051557 162.538177 
L 351.389678 160.474515 
L 351.727798 159.205272 
L 352.065918 161.199778 
L 352.404039 162.303169 
L 352.742159 161.908405 
L 353.4184 164.753252 
L 353.756521 163.996509 
L 354.094641 164.515207 
L 354.432761 165.291091 
L 354.770882 165.276826 
L 355.109002 163.425613 
L 355.447123 163.357474 
L 355.785243 162.412791 
L 356.123363 160.339788 
L 356.799604 157.827032 
L 357.137725 159.154949 
L 357.475845 159.286468 
L 357.813966 161.170595 
L 358.152086 159.619558 
L 358.490206 160.303412 
L 358.828327 161.653906 
L 359.166447 163.781603 
L 359.504568 162.508078 
L 360.180808 164.81209 
L 360.857049 160.518826 
L 361.19517 160.39898 
L 361.53329 161.322649 
L 361.871411 160.821788 
L 362.209531 163.360064 
L 362.547651 162.997418 
L 362.885772 164.927604 
L 363.223892 163.526206 
L 363.562013 164.947255 
L 363.900133 163.161747 
L 364.238253 163.392946 
L 364.576374 163.17489 
L 365.252615 167.044854 
L 365.590735 165.992695 
L 365.928856 165.873932 
L 366.266976 163.561556 
L 366.605096 162.703258 
L 366.943217 159.610647 
L 367.281337 159.6957 
L 367.957578 161.318828 
L 368.295698 160.049998 
L 368.633819 161.970547 
L 368.971939 162.518327 
L 369.31006 162.833083 
L 369.64818 163.666756 
L 369.986301 166.295007 
L 370.324421 164.830999 
L 370.662541 165.221575 
L 371.000662 164.633548 
L 371.338782 165.895981 
L 371.676903 164.468253 
L 372.015023 165.328241 
L 372.353143 165.392297 
L 373.367505 160.126158 
L 373.705625 159.288509 
L 374.043746 159.398149 
L 374.381866 162.115733 
L 374.719986 161.767876 
L 375.058107 163.569373 
L 375.396227 164.353829 
L 375.734348 163.539721 
L 376.072468 164.921227 
L 376.410588 165.358678 
L 376.748709 167.782226 
L 377.086829 167.026939 
L 377.42495 167.226725 
L 377.76307 165.576215 
L 378.101191 165.296502 
L 378.439311 162.016042 
L 378.777431 164.054908 
L 379.115552 165.195117 
L 379.453672 165.575761 
L 380.129913 169.43746 
L 380.468033 165.889625 
L 380.806154 165.269038 
L 381.144274 163.457106 
L 381.482395 162.990865 
L 381.820515 161.848972 
L 382.158636 164.64939 
L 382.496756 163.922549 
L 382.834876 164.546622 
L 383.172997 161.249768 
L 383.511117 161.920035 
L 383.849238 161.908676 
L 384.187358 163.540226 
L 384.525478 163.999175 
L 384.863599 166.884521 
L 385.201719 166.47498 
L 385.53984 166.984501 
L 385.87796 163.882229 
L 386.216081 167.170108 
L 386.554201 167.28273 
L 386.892321 167.178742 
L 387.230442 167.416434 
L 387.568562 170.289103 
L 387.906683 167.858661 
L 388.244803 168.775713 
L 388.582923 169.220422 
L 389.259164 162.244327 
L 389.597285 162.614483 
L 389.935405 161.298286 
L 390.273525 161.22933 
L 390.611646 162.27895 
L 390.949766 163.995125 
L 391.287887 162.818723 
L 391.964128 157.940142 
L 392.302248 159.155823 
L 392.640368 159.134461 
L 392.978489 159.90414 
L 393.316609 161.670949 
L 393.65473 165.406591 
L 393.99285 164.088474 
L 394.33097 163.670896 
L 395.007211 158.747715 
L 395.345332 155.098515 
L 395.683452 158.053375 
L 396.021573 156.926807 
L 396.359693 156.883252 
L 397.035934 164.426687 
L 397.374054 164.057441 
L 397.712175 167.997464 
L 398.050295 168.506723 
L 398.388415 171.396128 
L 399.064656 173.298027 
L 399.402777 172.238055 
L 399.740897 174.351559 
L 400.079018 171.457015 
L 400.417138 170.611495 
L 400.755258 168.989079 
L 401.093379 171.282119 
L 401.431499 171.276795 
L 401.76962 172.119258 
L 402.10774 171.17423 
L 402.44586 171.629916 
L 402.783981 169.320238 
L 403.122101 169.178439 
L 403.460222 166.296474 
L 403.798342 164.91048 
L 404.136463 164.830477 
L 404.812703 155.130167 
L 405.150824 156.67032 
L 405.488944 155.544815 
L 405.827065 150.520304 
L 406.165185 151.043798 
L 406.503305 152.711185 
L 406.841426 150.427968 
L 407.179546 150.886761 
L 407.517667 153.838237 
L 407.855787 155.293786 
L 408.193908 154.686537 
L 408.870148 155.538257 
L 409.208269 157.457036 
L 409.546389 157.761637 
L 409.88451 160.890946 
L 410.22263 161.925669 
L 410.898871 161.233925 
L 411.236991 162.242254 
L 411.575112 162.459815 
L 411.913232 163.940393 
L 412.589473 169.659828 
L 412.927593 170.949786 
L 413.265714 174.177982 
L 413.603834 173.889851 
L 413.941955 174.760558 
L 414.280075 176.122977 
L 414.618195 178.201185 
L 414.956316 177.953371 
L 415.294436 179.341041 
L 415.632557 179.883169 
L 415.970677 176.863557 
L 416.308798 176.20652 
L 416.646918 176.846878 
L 416.985038 176.345063 
L 417.323159 176.083832 
L 417.661279 175.476215 
L 418.67564 163.381156 
L 419.351881 154.788099 
L 420.028122 152.04408 
L 420.704363 141.559806 
L 421.380604 139.979984 
L 421.718724 138.903713 
L 422.056845 139.195304 
L 422.733085 146.594348 
L 423.071206 147.698214 
L 423.747447 153.284204 
L 424.085567 154.514256 
L 424.423688 152.735843 
L 424.761808 156.473575 
L 425.099928 158.27229 
L 426.79053 174.428513 
L 427.466771 182.602776 
L 427.804892 185.094031 
L 428.143012 185.917162 
L 428.481133 187.213078 
L 429.157373 185.232235 
L 429.495494 184.94022 
L 429.833614 184.924687 
L 430.171735 182.737711 
L 430.509855 182.839814 
L 430.847975 182.236396 
L 431.186096 178.480989 
L 431.524216 177.76758 
L 431.862337 174.988944 
L 432.538578 165.390666 
L 432.876698 165.248752 
L 433.214818 159.59259 
L 433.891059 153.944557 
L 434.22918 153.355861 
L 434.5673 150.437571 
L 435.243541 149.010913 
L 435.581661 147.738874 
L 435.919782 144.209893 
L 436.257902 142.946268 
L 436.596023 142.975056 
L 436.934143 142.074296 
L 437.272263 142.225667 
L 437.948504 144.708728 
L 438.286625 146.565049 
L 439.300986 159.318761 
L 439.977227 166.742007 
L 440.315347 169.60817 
L 440.653468 175.219708 
L 440.991588 176.8834 
L 441.329708 179.14816 
L 441.667829 179.086417 
L 442.005949 178.762206 
L 442.34407 177.708095 
L 442.68219 177.458342 
L 443.02031 178.68496 
L 443.358431 179.142142 
L 443.696551 180.162593 
L 444.034672 178.487823 
L 444.710913 172.578146 
L 445.049033 173.267671 
L 445.387153 172.196179 
L 445.725274 172.768694 
L 446.063394 174.341456 
L 446.739635 166.448535 
L 447.077755 165.258702 
L 447.753996 156.021845 
L 448.092117 156.503162 
L 448.430237 156.261431 
L 448.768357 153.697455 
L 449.106478 153.287768 
L 449.444598 153.447466 
L 450.45896 147.135444 
L 450.79708 146.225221 
L 451.1352 146.825399 
L 451.473321 150.969847 
L 452.487682 159.132916 
L 452.825802 160.106817 
L 453.163923 159.985318 
L 453.502043 162.275264 
L 454.178284 162.116604 
L 454.516405 164.10951 
L 454.854525 163.569902 
L 455.192645 162.04578 
L 455.530766 164.173469 
L 455.868886 168.629047 
L 456.545127 172.203262 
L 456.883247 174.867909 
L 457.221368 175.046293 
L 457.559488 170.432139 
L 457.897609 169.92877 
L 458.235729 170.373963 
L 458.57385 166.192798 
L 458.91197 166.41883 
L 459.25009 168.756132 
L 459.588211 167.187015 
L 459.926331 164.562503 
L 460.264452 167.193147 
L 460.940692 163.353159 
L 461.278813 164.124622 
L 461.616933 163.82642 
L 461.955054 161.476674 
L 462.293174 162.752701 
L 462.969415 160.023412 
L 463.307535 156.546392 
L 463.645656 158.209656 
L 463.983776 155.664408 
L 464.321897 156.139677 
L 464.660017 156.257384 
L 464.998137 158.977602 
L 465.336258 157.211728 
L 465.674378 157.603819 
L 466.012499 157.425557 
L 466.350619 158.326713 
L 466.68874 160.213627 
L 467.02686 161.041011 
L 467.36498 162.243179 
L 468.041221 160.386509 
L 468.379342 158.756079 
L 468.717462 157.826367 
L 469.055582 158.613198 
L 469.393703 162.393008 
L 469.731823 164.560147 
L 470.069944 167.793117 
L 470.408064 167.831893 
L 470.746185 169.163762 
L 471.084305 165.88284 
L 471.422425 163.73137 
L 471.760546 159.841197 
L 472.098666 160.50469 
L 472.436787 159.501483 
L 472.774907 161.139364 
L 473.113027 161.61052 
L 473.789268 165.035485 
L 474.127389 164.756342 
L 474.465509 162.335121 
L 474.80363 164.319266 
L 475.14175 164.00875 
L 475.47987 164.264429 
L 475.817991 163.795896 
L 476.156111 164.550142 
L 476.494232 162.357394 
L 476.832352 161.566329 
L 477.170472 162.262195 
L 477.508593 161.01366 
L 477.846713 162.685662 
L 478.184834 161.779163 
L 478.522954 162.456756 
L 478.861075 163.658292 
L 479.199195 165.951071 
L 479.875436 163.898921 
L 480.213556 163.861434 
L 480.551677 160.49211 
L 480.889797 161.439007 
L 481.227917 160.118931 
L 481.566038 159.993334 
L 481.904158 160.512838 
L 482.242279 161.314892 
L 482.580399 161.795197 
L 482.91852 162.700851 
L 483.59476 161.22882 
L 483.932881 159.63629 
L 484.271001 157.200431 
L 485.285362 164.07613 
L 485.623483 165.997845 
L 485.961603 166.397474 
L 486.299724 164.142859 
L 486.637844 165.263301 
L 486.975965 163.219502 
L 487.314085 163.790408 
L 487.652205 165.559052 
L 487.990326 166.36232 
L 488.328446 167.490952 
L 488.666567 169.270817 
L 489.004687 169.549274 
L 489.342807 168.192156 
L 489.680928 170.131494 
L 490.019048 170.48209 
L 490.357169 170.438165 
L 491.03341 166.666324 
L 491.37153 161.505643 
L 491.70965 161.290097 
L 492.385891 158.555156 
L 492.724012 159.075814 
L 493.062132 161.765562 
L 493.400252 157.74335 
L 493.738373 157.325083 
L 494.076493 159.958394 
L 494.414614 161.504536 
L 494.752734 160.99157 
L 495.428975 164.882362 
L 495.767095 165.266517 
L 496.105216 163.673997 
L 496.443336 164.128863 
L 496.781457 166.102107 
L 497.119577 164.510131 
L 497.457697 163.477893 
L 497.795818 167.201309 
L 498.133938 169.15548 
L 498.472059 168.68121 
L 498.810179 170.907367 
L 499.1483 174.906211 
L 499.82454 172.76915 
L 500.162661 171.634259 
L 500.500781 173.750689 
L 500.838902 167.882781 
L 501.177022 168.695494 
L 501.515142 168.035989 
L 501.853263 167.866696 
L 502.191383 163.20072 
L 502.529504 165.277187 
L 503.205744 163.388408 
L 503.543865 164.431021 
L 503.881985 167.298076 
L 504.558226 158.733571 
L 504.896347 155.787849 
L 505.234467 154.599089 
L 505.572587 148.369159 
L 505.910708 148.680496 
L 506.248828 146.598465 
L 506.586949 148.005586 
L 506.925069 147.738068 
L 507.263189 149.378497 
L 507.93943 158.078977 
L 508.277551 158.39083 
L 508.615671 158.864386 
L 508.953792 159.854008 
L 509.291912 158.54911 
L 509.630032 155.591329 
L 509.968153 155.814392 
L 510.306273 156.524522 
L 510.644394 156.839842 
L 510.982514 159.745165 
L 511.320634 164.643921 
L 511.658755 167.222061 
L 512.673116 176.889176 
L 513.011237 177.875406 
L 513.687477 178.683435 
L 514.025598 178.750315 
L 514.363718 178.578266 
L 514.701839 180.127055 
L 515.039959 183.282425 
L 516.05432 173.119865 
L 516.392441 170.925514 
L 516.730561 166.630581 
L 517.068682 166.700812 
L 517.406802 166.332199 
L 517.744922 164.179151 
L 518.083043 160.519923 
L 518.759284 156.147742 
L 519.097404 155.38591 
L 519.435524 155.789123 
L 519.773645 154.834922 
L 520.111765 155.753379 
L 520.449886 153.955435 
L 520.788006 153.70376 
L 521.126127 150.89437 
L 521.464247 149.589525 
L 521.802367 149.749744 
L 522.140488 151.096336 
L 522.478608 151.954051 
L 522.816729 152.362867 
L 523.154849 152.319537 
L 523.492969 151.282037 
L 523.83109 152.67177 
L 524.16921 151.838706 
L 524.507331 156.839994 
L 524.845451 159.37812 
L 525.521692 168.722987 
L 525.859812 169.394262 
L 526.197933 167.574315 
L 526.536053 172.45267 
L 526.874174 172.980253 
L 527.212294 171.107203 
L 527.888535 179.644829 
L 528.226655 179.575712 
L 528.564776 179.253689 
L 528.902896 178.453325 
L 529.241017 176.549574 
L 529.579137 173.801417 
L 529.917257 169.008015 
L 530.255378 169.169471 
L 530.593498 167.658475 
L 530.931619 169.876719 
L 531.269739 169.815073 
L 531.607859 169.319685 
L 531.94598 167.843027 
L 532.2841 165.788639 
L 532.622221 161.865603 
L 532.960341 160.069658 
L 533.298462 160.726454 
L 533.636582 158.96997 
L 533.974702 159.177961 
L 534.312823 157.345166 
L 534.650943 154.649871 
L 534.989064 154.540063 
L 535.327184 154.854302 
L 535.665304 153.96051 
L 536.003425 155.263986 
L 536.341545 155.251119 
L 536.679666 151.907289 
L 537.017786 150.53106 
L 537.694027 152.893709 
L 538.032147 156.266018 
L 538.370268 161.735833 
L 538.708388 165.115208 
L 539.384629 168.035426 
L 539.722749 167.074942 
L 540.06087 167.372909 
L 540.39899 167.206507 
L 540.737111 168.925097 
L 541.075231 166.971461 
L 541.413352 167.718927 
L 541.751472 165.360362 
L 542.089592 164.332428 
L 542.427713 161.073563 
L 542.765833 163.332868 
L 543.103954 162.898198 
L 543.442074 161.493198 
L 543.780194 163.598313 
L 544.118315 163.532958 
L 544.456435 160.634415 
L 544.794556 160.43905 
L 545.132676 162.229075 
L 545.470797 158.555103 
L 545.808917 160.21438 
L 546.485158 162.233031 
L 546.823278 163.491208 
L 547.161399 165.354266 
L 547.499519 164.286483 
L 547.837639 164.250926 
L 548.17576 162.296377 
L 548.51388 162.998435 
L 548.852001 159.578546 
L 549.190121 157.856188 
L 549.528242 157.102464 
L 549.866362 158.156521 
L 550.204482 156.583763 
L 550.542603 158.527052 
L 550.880723 159.652755 
L 551.218844 162.903994 
L 551.556964 161.78283 
L 551.895084 158.288415 
L 552.233205 161.594581 
L 552.571325 161.164559 
L 552.909446 158.893398 
L 553.247566 160.261126 
L 553.585687 162.483285 
L 553.923807 161.914397 
L 554.261927 163.201025 
L 554.600048 162.037311 
L 554.938168 162.328372 
L 555.276289 164.731067 
L 555.614409 163.215437 
L 555.952529 164.063241 
L 556.29065 164.005081 
L 556.62877 164.915682 
L 556.966891 163.273931 
L 557.305011 164.951766 
L 557.643132 163.477732 
L 558.319372 167.464379 
L 558.657493 168.442453 
L 558.995613 168.068321 
L 559.333734 169.322177 
L 560.009974 165.095421 
L 560.348095 166.273113 
L 560.686215 162.967178 
L 561.024336 162.124772 
L 561.362456 161.996286 
L 561.700576 160.069094 
L 562.038697 159.749238 
L 562.376817 161.569685 
L 562.714938 160.104088 
L 563.053058 160.816995 
L 563.391179 161.197429 
L 563.729299 160.014567 
L 564.067419 160.08009 
L 564.40554 162.381814 
L 564.74366 161.169268 
L 565.081781 161.209624 
L 565.419901 162.755652 
L 565.758021 163.281986 
L 566.096142 161.710122 
L 566.434262 163.413745 
L 566.772383 163.675108 
L 567.448624 162.617814 
L 568.124864 168.23763 
L 568.462985 167.120941 
L 568.801105 166.938602 
L 569.139226 166.544091 
L 569.815466 160.507581 
L 570.153587 161.509929 
L 570.491707 158.234818 
L 570.829828 157.869062 
L 571.167948 159.847069 
L 571.506069 159.730726 
L 571.844189 159.223405 
L 572.182309 162.960511 
L 572.52043 163.680635 
L 572.85855 163.408284 
L 573.196671 166.773988 
L 573.534791 167.467783 
L 573.872911 166.707249 
L 574.211032 167.313784 
L 574.549152 167.068988 
L 574.887273 164.555343 
L 574.887273 164.555343 
" clip-path="url(#pac0ffc98d1)" style="fill: none; stroke: #be1d74; stroke-width: 0.9"/>
   </g>
   <g id="patch_8">
    <path d="M 7.2 203.718516 
L 7.2 123.138516 
" style="fill: none; stroke: #f0f0f0; stroke-width: 3; stroke-linejoin: miter; stroke-linecap: square"/>
   </g>
   <g id="patch_9">
    <path d="M 601.92 203.718516 
L 601.92 123.138516 
" style="fill: none; stroke: #f0f0f0; stroke-width: 3; stroke-linejoin: miter; stroke-linecap: square"/>
   </g>
   <g id="patch_10">
    <path d="M 7.2 203.718516 
L 601.92 203.718516 
" style="fill: none; stroke: #f0f0f0; stroke-width: 3; stroke-linejoin: miter; stroke-linecap: square"/>
   </g>
   <g id="patch_11">
    <path d="M 7.2 123.138516 
L 601.92 123.138516 
" style="fill: none; stroke: #f0f0f0; stroke-width: 3; stroke-linejoin: miter; stroke-linecap: square"/>
   </g>
   <g id="text_2">
    <!-- + crowd background noise -->
    <g style="fill: #808080" transform="translate(7.2 117.138516) scale(0.095 -0.095)">
     <defs>
      <path id="DejaVuSans-2b" d="M 2944 4013 
L 2944 2272 
L 4684 2272 
L 4684 1741 
L 2944 1741 
L 2944 0 
L 2419 0 
L 2419 1741 
L 678 1741 
L 678 2272 
L 2419 2272 
L 2419 4013 
L 2944 4013 
z
" transform="scale(0.015625)"/>
      <path id="DejaVuSans-62" d="M 3116 1747 
Q 3116 2381 2855 2742 
Q 2594 3103 2138 3103 
Q 1681 3103 1420 2742 
Q 1159 2381 1159 1747 
Q 1159 1113 1420 752 
Q 1681 391 2138 391 
Q 2594 391 2855 752 
Q 3116 1113 3116 1747 
z
M 1159 2969 
Q 1341 3281 1617 3432 
Q 1894 3584 2278 3584 
Q 2916 3584 3314 3078 
Q 3713 2572 3713 1747 
Q 3713 922 3314 415 
Q 2916 -91 2278 -91 
Q 1894 -91 1617 61 
Q 1341 213 1159 525 
L 1159 0 
L 581 0 
L 581 4863 
L 1159 4863 
L 1159 2969 
z
" transform="scale(0.015625)"/>
      <path id="DejaVuSans-6b" d="M 581 4863 
L 1159 4863 
L 1159 1991 
L 2875 3500 
L 3609 3500 
L 1753 1863 
L 3688 0 
L 2938 0 
L 1159 1709 
L 1159 0 
L 581 0 
L 581 4863 
z
" transform="scale(0.015625)"/>
      <path id="DejaVuSans-75" d="M 544 1381 
L 544 3500 
L 1119 3500 
L 1119 1403 
Q 1119 906 1312 657 
Q 1506 409 1894 409 
Q 2359 409 2629 706 
Q 2900 1003 2900 1516 
L 2900 3500 
L 3475 3500 
L 3475 0 
L 2900 0 
L 2900 538 
Q 2691 219 2414 64 
Q 2138 -91 1772 -91 
Q 1169 -91 856 284 
Q 544 659 544 1381 
z
M 1991 3584 
L 1991 3584 
z
" transform="scale(0.015625)"/>
     </defs>
     <use xlink:href="#DejaVuSans-2b"/>
     <use xlink:href="#DejaVuSans-20" transform="translate(83.789062 0)"/>
     <use xlink:href="#DejaVuSans-63" transform="translate(115.576172 0)"/>
     <use xlink:href="#DejaVuSans-72" transform="translate(170.556641 0)"/>
     <use xlink:href="#DejaVuSans-6f" transform="translate(209.419922 0)"/>
     <use xlink:href="#DejaVuSans-77" transform="translate(270.601562 0)"/>
     <use xlink:href="#DejaVuSans-64" transform="translate(352.388672 0)"/>
     <use xlink:href="#DejaVuSans-20" transform="translate(415.865234 0)"/>
     <use xlink:href="#DejaVuSans-62" transform="translate(447.652344 0)"/>
     <use xlink:href="#DejaVuSans-61" transform="translate(511.128906 0)"/>
     <use xlink:href="#DejaVuSans-63" transform="translate(572.408203 0)"/>
     <use xlink:href="#DejaVuSans-6b" transform="translate(627.388672 0)"/>
     <use xlink:href="#DejaVuSans-67" transform="translate(685.298828 0)"/>
     <use xlink:href="#DejaVuSans-72" transform="translate(748.775391 0)"/>
     <use xlink:href="#DejaVuSans-6f" transform="translate(787.638672 0)"/>
     <use xlink:href="#DejaVuSans-75" transform="translate(848.820312 0)"/>
     <use xlink:href="#DejaVuSans-6e" transform="translate(912.199219 0)"/>
     <use xlink:href="#DejaVuSans-64" transform="translate(975.578125 0)"/>
     <use xlink:href="#DejaVuSans-20" transform="translate(1039.054688 0)"/>
     <use xlink:href="#DejaVuSans-6e" transform="translate(1070.841797 0)"/>
     <use xlink:href="#DejaVuSans-6f" transform="translate(1134.220703 0)"/>
     <use xlink:href="#DejaVuSans-69" transform="translate(1195.402344 0)"/>
     <use xlink:href="#DejaVuSans-73" transform="translate(1223.185547 0)"/>
     <use xlink:href="#DejaVuSans-65" transform="translate(1275.285156 0)"/>
    </g>
   </g>
  </g>
  <g id="axes_3">
   <g id="patch_12">
    <path d="M 7.2 306.438516 
L 601.92 306.438516 
L 601.92 225.858516 
L 7.2 225.858516 
z
" style="fill: #ffffff"/>
   </g>
   <g id="matplotlib.axis_5"/>
   <g id="matplotlib.axis_6"/>
   <g id="line2d_3">
    <path d="M 34.232727 266.548971 
L 34.908968 266.303299 
L 35.247089 266.039184 
L 35.585209 266.19663 
L 37.952052 265.983567 
L 38.290172 265.844537 
L 38.628293 265.457555 
L 39.304534 265.245025 
L 39.980774 264.626017 
L 40.318895 264.677314 
L 40.657015 264.416925 
L 41.333256 264.423692 
L 41.671376 264.116816 
L 42.009497 264.052002 
L 42.347617 264.115181 
L 42.685738 263.820065 
L 43.361979 263.648428 
L 43.700099 263.815911 
L 45.390701 262.543812 
L 46.743183 261.918414 
L 47.757544 261.067167 
L 48.095664 261.120634 
L 48.433785 260.961022 
L 49.110026 260.815662 
L 49.448146 260.579438 
L 49.786266 260.519205 
L 50.124387 260.777818 
L 50.462507 260.439333 
L 50.800628 260.342852 
L 51.138748 260.427555 
L 52.49123 259.925387 
L 52.82935 259.897369 
L 53.167471 260.064689 
L 53.843711 259.86234 
L 54.519952 259.872452 
L 54.858073 259.938081 
L 55.196193 259.796675 
L 55.534313 260.180468 
L 55.872434 260.012204 
L 56.886795 260.171521 
L 57.224916 260.18116 
L 57.901156 260.544052 
L 58.239277 260.561181 
L 58.577397 260.31966 
L 58.915518 260.475922 
L 59.253638 260.384568 
L 59.591758 260.557181 
L 59.929879 260.40866 
L 60.60612 260.546213 
L 61.282361 260.265693 
L 61.958601 260.371489 
L 62.634842 259.892604 
L 62.972963 259.564425 
L 63.311083 259.528308 
L 63.649203 259.623342 
L 63.987324 259.455813 
L 64.325444 259.447731 
L 64.663565 259.677614 
L 65.001685 259.343897 
L 65.339806 259.39961 
L 65.677926 259.228412 
L 66.354167 258.571151 
L 67.706648 258.185192 
L 68.044769 257.853989 
L 68.382889 258.050064 
L 68.72101 257.83466 
L 69.397251 258.019534 
L 70.073491 258.264872 
L 70.411612 258.257554 
L 70.749732 258.640995 
L 71.425973 259.084957 
L 71.764093 259.119527 
L 72.102214 259.475187 
L 73.454696 259.780269 
L 73.792816 260.050878 
L 74.130936 259.863274 
L 74.469057 259.949191 
L 74.807177 259.893226 
L 75.145298 260.058097 
L 76.8359 259.583106 
L 77.17402 259.241686 
L 77.850261 258.987066 
L 78.188381 258.679327 
L 78.526502 258.563665 
L 78.864622 258.328203 
L 79.202743 257.792781 
L 79.540863 257.848079 
L 79.878983 258.036261 
L 80.217104 257.896237 
L 80.555224 257.500593 
L 81.231465 257.522136 
L 82.245826 258.141386 
L 82.583947 258.735537 
L 82.922067 258.901096 
L 83.260188 259.505275 
L 83.598308 259.425058 
L 84.612669 260.978951 
L 84.95079 261.116312 
L 85.28891 261.446793 
L 85.627031 262.332461 
L 85.965151 262.601113 
L 86.303271 262.721183 
L 86.979512 263.339903 
L 87.993873 264.102359 
L 88.331994 263.962445 
L 88.670114 264.166297 
L 89.346355 264.077257 
L 89.684476 263.842243 
L 90.022596 263.350785 
L 90.360716 263.184264 
L 91.713198 260.829261 
L 92.051318 260.738234 
L 92.389439 260.433467 
L 92.727559 259.827789 
L 93.06568 259.694231 
L 93.4038 259.87649 
L 94.080041 259.311242 
L 94.418161 259.299244 
L 95.094402 259.840342 
L 95.432523 260.083607 
L 96.785004 262.063088 
L 97.799366 264.566307 
L 99.828088 270.645958 
L 100.504329 272.306518 
L 100.842449 272.789158 
L 101.18057 273.61757 
L 102.194931 274.362747 
L 103.209292 273.323216 
L 105.238015 267.38874 
L 105.914256 264.514272 
L 106.590496 262.089335 
L 106.928617 260.679653 
L 107.266737 259.910117 
L 107.604858 258.726544 
L 108.281098 257.580639 
L 108.957339 257.110519 
L 109.29546 257.22879 
L 109.63358 257.583928 
L 110.309821 258.978094 
L 110.647941 260.11536 
L 111.662303 265.416863 
L 112.676664 271.895133 
L 114.367266 282.508126 
L 115.043507 285.496529 
L 115.381627 286.69609 
L 116.057868 287.781204 
L 116.395988 287.578788 
L 116.734109 287.218843 
L 117.072229 286.485082 
L 117.74847 284.026852 
L 118.762831 277.55889 
L 119.777193 269.042131 
L 121.467795 256.182037 
L 122.482156 251.06738 
L 122.820276 250.268281 
L 123.158397 250.087422 
L 123.496517 250.319786 
L 123.834638 250.859097 
L 124.172758 251.887273 
L 124.848999 255.670468 
L 125.52524 261.023047 
L 126.539601 271.225771 
L 128.568323 290.443437 
L 129.244564 294.476683 
L 129.582685 295.753529 
L 129.920805 296.426429 
L 130.258925 296.754494 
L 130.597046 296.83582 
L 130.935166 296.142772 
L 131.273287 295.016608 
L 132.287648 288.416647 
L 132.963889 282.494679 
L 134.654491 265.711411 
L 135.668852 256.863817 
L 136.345093 252.895274 
L 136.683213 251.652161 
L 137.021334 250.986465 
L 137.359454 250.971389 
L 137.697575 251.458147 
L 138.035695 252.1875 
L 138.373815 253.405923 
L 139.050056 256.916263 
L 140.064418 265.156889 
L 142.43126 284.29861 
L 143.107501 287.922756 
L 143.783742 290.156575 
L 144.121863 290.787575 
L 144.459983 290.852015 
L 144.798103 290.491024 
L 145.136224 289.864827 
L 146.150585 285.490471 
L 147.503067 277.124193 
L 148.855548 268.041237 
L 149.531789 264.280992 
L 150.54615 260.878331 
L 151.222391 259.609183 
L 151.560512 259.446118 
L 151.898632 259.827348 
L 152.912993 261.628173 
L 153.589234 264.292863 
L 154.603595 268.949421 
L 156.294198 275.707929 
L 156.970438 277.532391 
L 157.646679 278.552989 
L 157.9848 278.747759 
L 158.32292 278.689778 
L 158.999161 277.999143 
L 159.675402 277.065883 
L 160.013522 276.32923 
L 162.718485 267.247398 
L 163.056606 265.706812 
L 163.732847 264.058467 
L 164.070967 263.273367 
L 164.747208 262.363989 
L 165.085328 262.107475 
L 165.761569 261.949551 
L 166.09969 261.934827 
L 166.43781 262.169726 
L 166.77593 262.184631 
L 169.142773 266.569839 
L 169.819014 267.715726 
L 170.495255 268.593474 
L 171.171496 269.046391 
L 171.847737 269.998217 
L 172.185857 269.943915 
L 172.862098 269.427487 
L 174.21458 267.851328 
L 174.5527 267.349 
L 174.89082 266.646361 
L 175.228941 266.355334 
L 176.581422 263.40502 
L 177.933904 261.173861 
L 178.948265 259.456122 
L 179.286386 259.291387 
L 179.624506 259.286335 
L 180.638867 258.916877 
L 180.976988 259.054131 
L 181.653229 259.764067 
L 183.00571 260.62323 
L 183.343831 261.018163 
L 183.681951 261.056109 
L 184.358192 261.931232 
L 185.710674 263.265244 
L 186.048794 263.108446 
L 186.386915 263.170995 
L 186.725035 263.348371 
L 187.063155 263.288047 
L 187.401276 263.524134 
L 187.739396 263.481747 
L 188.415637 263.007731 
L 188.753757 262.719932 
L 190.106239 260.659923 
L 190.44436 260.423806 
L 190.78248 259.655714 
L 191.1206 259.278428 
L 191.796841 257.866351 
L 192.811202 256.696724 
L 193.149323 255.925234 
L 193.825564 255.240132 
L 194.163684 254.878192 
L 194.839925 254.748357 
L 195.516166 254.981217 
L 195.854286 255.394956 
L 196.192407 255.429381 
L 196.530527 255.846877 
L 196.868647 256.682673 
L 197.206768 257.09295 
L 198.221129 258.928607 
L 200.249852 262.33223 
L 200.587972 262.728148 
L 200.926092 262.872595 
L 201.602333 263.58276 
L 201.940454 263.247036 
L 202.278574 263.188865 
L 202.616695 262.848563 
L 202.954815 262.31883 
L 203.292935 262.011181 
L 203.969176 260.67093 
L 205.997899 254.361986 
L 206.336019 253.869115 
L 207.01226 252.071584 
L 208.026621 250.576251 
L 208.364742 250.835753 
L 208.702862 250.838542 
L 209.379103 251.27361 
L 209.717223 251.434888 
L 210.055344 252.026247 
L 211.069705 254.953419 
L 214.450909 267.071304 
L 215.12715 268.316601 
L 215.803391 268.795561 
L 216.141511 268.813024 
L 216.479632 268.540058 
L 218.170234 263.700738 
L 220.537077 254.185852 
L 220.875197 253.467636 
L 221.551438 251.692506 
L 221.889558 251.149765 
L 222.227679 251.015722 
L 222.565799 250.536923 
L 222.903919 250.471738 
L 223.24204 250.742011 
L 223.58016 251.358615 
L 224.594522 254.612328 
L 225.270762 257.598827 
L 227.299485 268.286424 
L 227.975726 271.345142 
L 228.651967 273.913661 
L 229.328207 274.979105 
L 229.666328 275.28632 
L 230.004448 275.402207 
L 230.342569 275.338482 
L 230.680689 274.628745 
L 231.018809 274.326989 
L 231.69505 272.742688 
L 233.723773 264.761242 
L 234.061893 262.855454 
L 235.076254 259.052681 
L 236.766857 256.313179 
L 237.104977 256.458033 
L 237.781218 257.27227 
L 238.795579 260.048319 
L 241.838663 272.691654 
L 242.853024 276.640126 
L 243.529265 278.197102 
L 244.205506 278.848973 
L 244.543626 278.788852 
L 244.881747 278.418261 
L 245.219867 278.264368 
L 246.234228 275.513428 
L 247.248589 271.778093 
L 247.92483 268.630698 
L 249.615432 262.482887 
L 250.291673 260.599416 
L 250.967914 259.506517 
L 251.306034 259.192858 
L 251.644155 259.65247 
L 251.982275 259.857663 
L 252.658516 261.388355 
L 253.334757 263.928884 
L 254.010998 267.328356 
L 254.687239 271.076497 
L 255.363479 274.416425 
L 256.715961 281.702364 
L 257.392202 284.536911 
L 258.406563 286.701732 
L 258.744684 286.641034 
L 259.082804 286.418226 
L 259.759045 284.971379 
L 260.435286 282.252554 
L 261.449647 276.48383 
L 263.140249 264.954524 
L 264.15461 260.17348 
L 264.830851 257.852997 
L 265.168972 257.271448 
L 265.845212 256.924709 
L 266.183333 257.357701 
L 266.859574 259.373393 
L 267.873935 265.304739 
L 269.902657 281.366796 
L 270.917019 289.24928 
L 271.593259 292.438411 
L 272.2695 293.929778 
L 272.607621 294.128374 
L 272.945741 293.849593 
L 273.283862 293.287133 
L 273.621982 292.272024 
L 274.298223 289.083226 
L 274.974464 284.265799 
L 276.326945 272.667886 
L 277.341306 263.648787 
L 278.355668 257.164524 
L 279.031909 254.1851 
L 279.708149 252.845211 
L 280.04627 253.084596 
L 280.722511 254.862376 
L 281.398751 258.065408 
L 282.074992 262.779155 
L 284.779956 284.289327 
L 285.456196 287.556002 
L 286.132437 288.925639 
L 286.808678 289.497946 
L 287.146799 289.427591 
L 287.823039 287.591529 
L 288.49928 284.19636 
L 290.189882 272.444307 
L 291.542364 262.726872 
L 292.218605 259.099449 
L 292.894846 256.52582 
L 293.232966 255.630438 
L 293.571086 255.393895 
L 293.909207 255.425208 
L 294.923568 257.396825 
L 295.937929 260.714393 
L 296.61417 264.011287 
L 298.304772 272.84622 
L 299.657254 276.994478 
L 299.995374 277.713496 
L 300.333495 278.166883 
L 300.671615 278.184359 
L 301.009736 277.902613 
L 301.347856 277.47406 
L 302.024097 276.017142 
L 303.038458 272.893055 
L 305.405301 263.944893 
L 306.757783 260.025491 
L 307.434024 259.235426 
L 308.786505 259.026443 
L 309.124626 259.237068 
L 311.829589 264.22316 
L 313.182071 265.431636 
L 313.520191 265.636026 
L 314.534552 265.579991 
L 314.872673 265.793338 
L 315.887034 265.065947 
L 316.225154 264.467627 
L 316.563275 264.318247 
L 316.901395 263.836344 
L 317.239516 263.752228 
L 319.268238 260.266953 
L 319.944479 258.695094 
L 320.62072 258.316141 
L 321.635081 257.646418 
L 321.973201 257.739918 
L 322.987563 258.289642 
L 323.325683 258.412024 
L 324.001924 259.058057 
L 324.678165 259.305765 
L 325.016285 259.211581 
L 325.354406 259.593663 
L 325.692526 259.667983 
L 326.368767 260.187186 
L 327.045008 260.400874 
L 328.059369 261.111666 
L 328.397489 261.31802 
L 329.749971 261.12243 
L 330.088091 261.116725 
L 330.764332 260.430399 
L 332.454934 258.284257 
L 332.793055 258.103281 
L 333.131175 258.102633 
L 334.145536 257.088235 
L 334.483657 256.850042 
L 334.821777 256.796987 
L 335.159898 256.316788 
L 335.498018 256.259769 
L 335.836138 256.36924 
L 336.174259 256.253219 
L 336.512379 256.287853 
L 336.8505 256.149444 
L 337.18862 256.267059 
L 337.526741 256.764886 
L 338.541102 257.300139 
L 338.879222 257.795288 
L 339.217343 258.041866 
L 339.555463 258.131325 
L 339.893583 258.605634 
L 341.246065 259.173398 
L 341.584186 259.088932 
L 342.260426 259.322375 
L 343.274788 259.321518 
L 343.612908 259.846295 
L 344.289149 259.503913 
L 344.627269 259.622451 
L 344.96539 259.48485 
L 345.30351 259.863503 
L 345.641631 259.828947 
L 345.979751 259.526146 
L 346.317871 259.510659 
L 346.655992 259.364513 
L 347.332233 258.774759 
L 347.670353 258.680414 
L 348.008473 258.737895 
L 348.346594 258.567133 
L 349.699076 258.779265 
L 350.037196 258.771254 
L 350.375316 259.117691 
L 351.727798 259.496452 
L 352.065918 259.508681 
L 352.404039 259.799714 
L 352.742159 259.830557 
L 353.4184 260.091673 
L 354.094641 260.199402 
L 354.770882 260.560885 
L 355.447123 261.190891 
L 355.785243 261.131228 
L 356.123363 261.18879 
L 356.461484 261.471346 
L 356.799604 261.293292 
L 357.137725 261.475619 
L 357.475845 261.441797 
L 358.152086 261.702761 
L 358.828327 261.350685 
L 359.166447 261.566211 
L 359.504568 261.338583 
L 359.842688 261.498232 
L 360.180808 261.526352 
L 360.518929 261.793763 
L 361.19517 261.728249 
L 361.53329 261.520948 
L 361.871411 261.509348 
L 362.209531 261.223462 
L 363.900133 260.850586 
L 364.238253 261.022056 
L 364.576374 261.427778 
L 364.914494 261.420916 
L 365.590735 261.964053 
L 365.928856 262.107731 
L 366.605096 262.890445 
L 366.943217 263.569399 
L 367.281337 263.637309 
L 368.633819 264.820291 
L 368.971939 264.946789 
L 369.64818 265.908489 
L 369.986301 266.25785 
L 370.662541 267.483242 
L 372.015023 268.237625 
L 372.691264 268.638036 
L 373.029384 268.438689 
L 373.367505 268.669969 
L 374.381866 268.556809 
L 374.719986 268.333638 
L 375.396227 267.654886 
L 375.734348 267.597442 
L 377.76307 266.111986 
L 378.439311 266.130646 
L 378.777431 265.937222 
L 379.115552 265.527215 
L 379.453672 265.643699 
L 379.791793 266.028366 
L 380.129913 266.177703 
L 380.468033 266.481557 
L 380.806154 267.062599 
L 381.144274 267.154973 
L 381.482395 267.687771 
L 381.820515 267.962503 
L 382.496756 268.831894 
L 383.172997 269.808876 
L 383.849238 271.356086 
L 384.187358 271.842936 
L 384.525478 272.059235 
L 385.87796 273.989746 
L 386.892321 273.778823 
L 387.568562 273.741168 
L 387.906683 273.523001 
L 388.244803 272.998858 
L 388.582923 272.847746 
L 388.921044 272.205643 
L 389.259164 271.21156 
L 389.597285 271.028332 
L 390.273525 269.824987 
L 390.949766 268.680563 
L 391.626007 267.889052 
L 392.302248 266.961197 
L 392.640368 266.759907 
L 392.978489 266.769947 
L 393.316609 266.626426 
L 393.65473 266.265911 
L 394.33097 266.381654 
L 395.683452 269.269982 
L 398.726536 278.344603 
L 399.402777 279.878678 
L 399.740897 280.14002 
L 400.079018 280.807034 
L 400.755258 280.52978 
L 401.093379 280.602768 
L 401.431499 280.529624 
L 401.76962 280.241959 
L 402.10774 280.377151 
L 402.44586 279.926734 
L 403.122101 278.105139 
L 403.798342 275.706008 
L 404.474583 273.207278 
L 406.503305 266.093144 
L 406.841426 265.100411 
L 407.517667 264.448155 
L 407.855787 264.365402 
L 408.193908 264.642132 
L 408.532028 264.684444 
L 408.870148 265.354219 
L 410.56075 270.587191 
L 410.898871 271.976385 
L 411.575112 275.481099 
L 412.589473 280.649725 
L 413.265714 283.992987 
L 414.280075 286.977592 
L 414.618195 287.783729 
L 414.956316 287.714699 
L 415.294436 287.896124 
L 415.632557 287.398855 
L 415.970677 286.549026 
L 416.646918 283.717994 
L 417.323159 280.535758 
L 418.67564 271.309984 
L 420.028122 261.845962 
L 421.042483 256.98389 
L 421.718724 254.883154 
L 422.056845 254.77834 
L 422.394965 254.957289 
L 422.733085 255.325722 
L 423.071206 256.153977 
L 424.085567 261.268348 
L 427.466771 286.387122 
L 428.143012 289.639458 
L 428.481133 290.387568 
L 428.819253 290.609193 
L 429.157373 290.597586 
L 429.833614 288.972566 
L 430.171735 287.709114 
L 430.847975 283.273561 
L 431.862337 274.765706 
L 433.891059 256.285452 
L 434.5673 251.774358 
L 435.243541 248.702373 
L 435.919782 247.159944 
L 436.257902 246.898109 
L 436.596023 247.314841 
L 437.272263 249.244984 
L 437.948504 253.010888 
L 438.624745 257.029282 
L 440.991588 275.764991 
L 441.667829 279.118061 
L 442.005949 280.423059 
L 442.68219 281.566271 
L 443.02031 281.480926 
L 443.358431 281.057588 
L 444.034672 279.73299 
L 444.710913 277.452145 
L 445.725274 271.7675 
L 447.077755 263.710836 
L 448.092117 257.40585 
L 448.768357 254.516591 
L 449.444598 252.856104 
L 449.782719 252.573151 
L 450.120839 252.568864 
L 450.45896 252.419705 
L 450.79708 252.539966 
L 451.1352 252.952091 
L 453.163923 258.915531 
L 454.516405 263.328992 
L 454.854525 264.277544 
L 456.207007 265.903913 
L 456.545127 266.140539 
L 457.559488 266.06829 
L 457.897609 265.796006 
L 458.235729 265.359779 
L 458.57385 264.475597 
L 458.91197 264.15885 
L 460.264452 261.522759 
L 461.955054 257.504827 
L 462.969415 256.178129 
L 463.307535 255.841494 
L 463.983776 255.779115 
L 464.321897 255.70976 
L 464.660017 255.871907 
L 465.336258 256.392993 
L 465.674378 256.56968 
L 466.350619 257.17048 
L 466.68874 256.992714 
L 467.02686 257.806451 
L 467.36498 257.979394 
L 468.041221 258.719779 
L 468.379342 258.567211 
L 468.717462 259.14596 
L 469.393703 259.348642 
L 470.069944 259.864262 
L 470.746185 260.153577 
L 471.084305 260.177786 
L 471.422425 260.338176 
L 471.760546 260.279416 
L 472.098666 260.074407 
L 472.774907 260.057228 
L 473.451148 259.881308 
L 473.789268 259.460999 
L 474.465509 259.10034 
L 474.80363 258.827259 
L 475.14175 258.920804 
L 475.817991 258.182998 
L 476.156111 258.184171 
L 476.494232 257.694318 
L 476.832352 257.968777 
L 477.170472 257.396989 
L 478.861075 257.854361 
L 479.199195 257.707988 
L 479.537315 257.761277 
L 479.875436 257.451845 
L 480.213556 257.382614 
L 480.551677 257.632779 
L 481.227917 257.813344 
L 481.566038 258.066711 
L 481.904158 257.961389 
L 482.91852 258.860398 
L 483.59476 259.123778 
L 485.285362 260.274599 
L 485.623483 260.824944 
L 485.961603 260.854204 
L 486.299724 261.219071 
L 486.975965 261.330455 
L 487.314085 261.062242 
L 487.990326 261.05318 
L 488.328446 261.357957 
L 489.004687 261.271689 
L 491.03341 258.966635 
L 491.37153 258.524911 
L 491.70965 258.414209 
L 492.385891 257.68345 
L 492.724012 257.847652 
L 493.062132 257.590472 
L 494.076493 257.309781 
L 494.752734 258.272512 
L 495.090855 258.476255 
L 495.428975 258.956134 
L 499.82454 271.252945 
L 500.838902 272.556816 
L 501.515142 272.181955 
L 501.853263 271.956106 
L 502.191383 271.484186 
L 503.543865 267.38173 
L 506.248828 256.820592 
L 506.925069 255.38962 
L 507.263189 255.175783 
L 507.93943 255.162877 
L 508.277551 255.586295 
L 508.953792 257.687039 
L 509.291912 258.906161 
L 510.644394 266.460024 
L 511.658755 273.23896 
L 512.673116 279.077323 
L 513.349357 282.046292 
L 514.025598 283.649207 
L 514.363718 284.026286 
L 514.701839 284.14818 
L 515.039959 283.92214 
L 515.378079 283.381459 
L 516.05432 281.266297 
L 516.730561 278.115711 
L 518.083043 269.139121 
L 519.097404 262.309525 
L 519.773645 258.689614 
L 520.111765 256.839304 
L 520.449886 255.790196 
L 521.126127 254.725437 
L 521.464247 254.68695 
L 521.802367 255.033747 
L 522.140488 255.630937 
L 522.816729 258.030037 
L 523.154849 259.537375 
L 524.845451 270.264344 
L 526.197933 278.783434 
L 527.212294 283.412213 
L 527.888535 284.988481 
L 528.564776 285.526203 
L 528.902896 285.407305 
L 529.579137 284.236982 
L 530.593498 280.975937 
L 532.960341 268.368393 
L 533.636582 266.156079 
L 534.989064 263.840452 
L 535.327184 263.935706 
L 535.665304 263.795487 
L 536.003425 264.136163 
L 536.341545 264.691579 
L 536.679666 265.761356 
L 537.355907 267.291063 
L 539.384629 273.399744 
L 541.075231 278.329328 
L 541.751472 279.036224 
L 542.089592 279.147007 
L 542.427713 278.900518 
L 543.442074 278.629579 
L 544.794556 276.656829 
L 545.808917 274.604701 
L 546.823278 272.709679 
L 548.51388 270.929743 
L 548.852001 270.81938 
L 549.528242 270.171054 
L 550.204482 270.669829 
L 550.542603 270.896716 
L 551.218844 271.101293 
L 551.556964 271.318637 
L 552.233205 271.395248 
L 552.571325 271.8689 
L 553.247566 272.320239 
L 553.923807 272.290876 
L 554.600048 272.725603 
L 554.938168 272.848957 
L 555.614409 273.237707 
L 555.952529 273.006055 
L 556.29065 273.082964 
L 556.62877 272.864013 
L 556.966891 273.071105 
L 557.981252 272.202655 
L 558.319372 272.046783 
L 558.995613 271.307877 
L 559.333734 271.203302 
L 561.024336 269.966164 
L 561.700576 269.55738 
L 562.376817 269.399981 
L 562.714938 269.239374 
L 564.067419 268.126383 
L 564.40554 268.314751 
L 564.74366 268.308687 
L 565.081781 268.553983 
L 565.419901 268.387894 
L 565.758021 268.455148 
L 567.448624 268.013382 
L 567.786744 267.764265 
L 568.124864 267.659808 
L 568.462985 267.823875 
L 569.477346 267.379799 
L 571.844189 266.908808 
L 572.52043 266.648271 
L 572.85855 266.313207 
L 574.211032 265.666045 
L 574.549152 265.715472 
L 574.887273 265.649536 
L 574.887273 265.649536 
" clip-path="url(#p90bd382e98)" style="fill: none; stroke: #7030a0; stroke-width: 0.9"/>
   </g>
   <g id="patch_13">
    <path d="M 7.2 306.438516 
L 7.2 225.858516 
" style="fill: none; stroke: #f0f0f0; stroke-width: 3; stroke-linejoin: miter; stroke-linecap: square"/>
   </g>
   <g id="patch_14">
    <path d="M 601.92 306.438516 
L 601.92 225.858516 
" style="fill: none; stroke: #f0f0f0; stroke-width: 3; stroke-linejoin: miter; stroke-linecap: square"/>
   </g>
   <g id="patch_15">
    <path d="M 7.2 306.438516 
L 601.92 306.438516 
" style="fill: none; stroke: #f0f0f0; stroke-width: 3; stroke-linejoin: miter; stroke-linecap: square"/>
   </g>
   <g id="patch_16">
    <path d="M 7.2 225.858516 
L 601.92 225.858516 
" style="fill: none; stroke: #f0f0f0; stroke-width: 3; stroke-linejoin: miter; stroke-linecap: square"/>
   </g>
   <g id="text_3">
    <!-- + car background noise -->
    <g style="fill: #808080" transform="translate(7.2 219.858516) scale(0.095 -0.095)">
     <use xlink:href="#DejaVuSans-2b"/>
     <use xlink:href="#DejaVuSans-20" transform="translate(83.789062 0)"/>
     <use xlink:href="#DejaVuSans-63" transform="translate(115.576172 0)"/>
     <use xlink:href="#DejaVuSans-61" transform="translate(170.556641 0)"/>
     <use xlink:href="#DejaVuSans-72" transform="translate(231.835938 0)"/>
     <use xlink:href="#DejaVuSans-20" transform="translate(272.949219 0)"/>
     <use xlink:href="#DejaVuSans-62" transform="translate(304.736328 0)"/>
     <use xlink:href="#DejaVuSans-61" transform="translate(368.212891 0)"/>
     <use xlink:href="#DejaVuSans-63" transform="translate(429.492188 0)"/>
     <use xlink:href="#DejaVuSans-6b" transform="translate(484.472656 0)"/>
     <use xlink:href="#DejaVuSans-67" transform="translate(542.382812 0)"/>
     <use xlink:href="#DejaVuSans-72" transform="translate(605.859375 0)"/>
     <use xlink:href="#DejaVuSans-6f" transform="translate(644.722656 0)"/>
     <use xlink:href="#DejaVuSans-75" transform="translate(705.904297 0)"/>
     <use xlink:href="#DejaVuSans-6e" transform="translate(769.283203 0)"/>
     <use xlink:href="#DejaVuSans-64" transform="translate(832.662109 0)"/>
     <use xlink:href="#DejaVuSans-20" transform="translate(896.138672 0)"/>
     <use xlink:href="#DejaVuSans-6e" transform="translate(927.925781 0)"/>
     <use xlink:href="#DejaVuSans-6f" transform="translate(991.304688 0)"/>
     <use xlink:href="#DejaVuSans-69" transform="translate(1052.486328 0)"/>
     <use xlink:href="#DejaVuSans-73" transform="translate(1080.269531 0)"/>
     <use xlink:href="#DejaVuSans-65" transform="translate(1132.369141 0)"/>
    </g>
   </g>
  </g>
 </g>
 <defs>
  <clipPath id="pfe70733b5d">
   <rect x="7.2" y="20.418516" width="594.72" height="80.58"/>
  </clipPath>
  <clipPath id="pac0ffc98d1">
   <rect x="7.2" y="123.138516" width="594.72" height="80.58"/>
  </clipPath>
  <clipPath id="p90bd382e98">
   <rect x="7.2" y="225.858516" width="594.72" height="80.58"/>
  </clipPath>
 </defs>
</svg>
