<?xml version="1.0" encoding="utf-8" standalone="no"?>
<!DOCTYPE svg PUBLIC "-//W3C//DTD SVG 1.1//EN"
  "http://www.w3.org/Graphics/SVG/1.1/DTD/svg11.dtd">
<svg xmlns:xlink="http://www.w3.org/1999/xlink" width="492.48pt" height="334.178437pt" viewBox="0 0 492.48 334.178437" xmlns="http://www.w3.org/2000/svg" version="1.1">
 <metadata>
  <rdf:RDF xmlns:dc="http://purl.org/dc/elements/1.1/" xmlns:cc="http://creativecommons.org/ns#" xmlns:rdf="http://www.w3.org/1999/02/22-rdf-syntax-ns#">
   <cc:Work>
    <dc:type rdf:resource="http://purl.org/dc/dcmitype/StillImage"/>
    <dc:date>2026-07-20T21:11:52.860703</dc:date>
    <dc:format>image/svg+xml</dc:format>
    <dc:creator>
     <cc:Agent>
      <dc:title>Matplotlib v3.10.8, https://matplotlib.org/</dc:title>
     </cc:Agent>
    </dc:creator>
   </cc:Work>
  </rdf:RDF>
 </metadata>
 <defs>
  <style type="text/css">*{stroke-linejoin: round; stroke-linecap: butt}</style>
 </defs>
 <g id="figure_1">
  <g id="patch_1">
   <path d="M 0 334.178437 
L 492.48 334.178437 
L 492.48 0 
L 0 0 
z
" style="fill: #ffffff"/>
  </g>
  <g id="axes_1">
   <g id="text_1">
    <!-- Abcdefg -->
    <g style="fill: #0d0d0d" transform="translate(187.706875 50.136037) scale(0.34 -0.34)">
     <defs>
      <path id="NimbusRoman-Regular-41" d="M 4518 122 
C 4230 141 4166 205 3942 678 
L 2349 4314 
L 2221 4314 
L 890 1171 
C 480 237 403 134 96 122 
L 96 0 
L 1363 0 
L 1363 122 
C 1056 122 928 198 928 384 
C 928 461 947 550 979 634 
L 1274 1382 
L 2950 1382 
L 3213 768 
C 3290 595 3334 429 3334 339 
C 3334 179 3226 128 2886 122 
L 2886 0 
L 4518 0 
L 4518 122 
z
M 1382 1645 
L 2118 3405 
L 2861 1645 
L 1382 1645 
z
" transform="scale(0.015625)"/>
      <path id="NimbusRoman-Regular-62" d="M 979 4358 
L 947 4371 
C 685 4282 512 4224 205 4141 
L 19 4090 
L 19 3987 
C 58 3994 77 3994 128 3994 
C 384 3994 442 3936 442 3667 
L 442 346 
C 442 147 979 -64 1498 -64 
C 2342 -64 2995 640 2995 1555 
C 2995 2349 2509 2944 1869 2944 
C 1478 2944 1107 2720 979 2400 
L 979 4358 
z
M 979 2061 
C 979 2310 1280 2541 1613 2541 
C 1792 2541 1952 2477 2086 2355 
C 2291 2157 2432 1722 2432 1261 
C 2432 550 2125 141 1600 141 
C 1267 141 979 282 979 448 
L 979 2061 
z
" transform="scale(0.015625)"/>
      <path id="NimbusRoman-Regular-63" d="M 2547 998 
C 2240 550 2010 397 1645 397 
C 1056 397 653 909 653 1645 
C 653 2310 1005 2758 1523 2758 
C 1754 2758 1837 2694 1901 2451 
L 1939 2310 
C 1990 2125 2106 2016 2246 2016 
C 2413 2016 2547 2138 2547 2285 
C 2547 2643 2099 2944 1562 2944 
C 1248 2944 922 2816 659 2586 
C 339 2304 160 1869 160 1357 
C 160 531 666 -64 1376 -64 
C 1664 -64 1920 38 2150 237 
C 2323 384 2445 563 2637 941 
L 2547 998 
z
" transform="scale(0.015625)"/>
      <path id="NimbusRoman-Regular-64" d="M 3142 371 
C 3059 365 3021 365 2995 365 
C 2771 365 2714 435 2714 730 
L 2714 4358 
L 2682 4371 
C 2381 4269 2163 4198 1741 4090 
L 1741 3987 
C 1792 3994 1824 3994 1882 3994 
C 2118 3994 2176 3930 2176 3667 
L 2176 2669 
C 1933 2874 1760 2944 1504 2944 
C 768 2944 173 2221 173 1312 
C 173 493 646 -64 1357 -64 
C 1715 -64 1958 64 2176 365 
L 2176 -45 
L 2202 -64 
L 3142 269 
L 3142 371 
z
M 2176 653 
C 2176 608 2131 531 2067 461 
C 1958 333 1792 269 1606 269 
C 1069 269 723 781 723 1574 
C 723 2291 1037 2765 1523 2765 
C 1869 2765 2176 2464 2176 2125 
L 2176 653 
z
" transform="scale(0.015625)"/>
      <path id="NimbusRoman-Regular-65" d="M 2611 1050 
C 2304 563 2029 378 1619 378 
C 1254 378 979 563 794 928 
C 678 1171 634 1376 621 1773 
L 2592 1773 
C 2541 2189 2477 2374 2317 2579 
C 2125 2810 1830 2944 1498 2944 
C 1178 2944 877 2829 634 2611 
C 333 2349 160 1894 160 1370 
C 160 486 621 -64 1357 -64 
C 1965 -64 2445 314 2714 1005 
L 2611 1050 
z
M 634 1978 
C 704 2477 922 2714 1312 2714 
C 1702 2714 1856 2534 1939 1978 
L 634 1978 
z
" transform="scale(0.015625)"/>
      <path id="NimbusRoman-Regular-66" d="M 1978 2880 
L 1190 2880 
L 1190 3622 
C 1190 4000 1312 4192 1555 4192 
C 1696 4192 1779 4128 1894 3942 
C 1997 3776 2074 3712 2182 3712 
C 2336 3712 2451 3827 2451 3974 
C 2451 4205 2170 4371 1786 4371 
C 1382 4371 1050 4198 883 3910 
C 717 3622 666 3392 659 2880 
L 134 2880 
L 134 2675 
L 659 2675 
L 659 666 
C 646 186 582 115 128 96 
L 128 0 
L 1792 0 
L 1792 96 
C 1267 115 1197 186 1197 666 
L 1197 2675 
L 1978 2675 
L 1978 2880 
z
" transform="scale(0.015625)"/>
      <path id="NimbusRoman-Regular-67" d="M 3008 2483 
L 3008 2733 
L 2515 2733 
C 2381 2733 2291 2752 2163 2797 
L 2022 2848 
C 1856 2912 1677 2944 1510 2944 
C 915 2944 442 2490 442 1901 
C 442 1498 608 1254 1037 1043 
L 870 890 
C 736 762 659 691 640 666 
C 506 525 467 454 467 346 
C 467 205 538 134 806 6 
C 346 -326 179 -538 179 -774 
C 179 -1114 672 -1395 1286 -1395 
C 1766 -1395 2266 -1229 2598 -960 
C 2842 -762 2950 -557 2950 -314 
C 2950 83 2650 346 2176 371 
L 1350 410 
C 1005 422 851 480 851 582 
C 851 710 1062 934 1235 986 
C 1466 966 1587 954 1600 954 
C 1837 954 2093 1050 2291 1222 
C 2502 1402 2598 1626 2598 1946 
C 2598 2131 2566 2278 2477 2483 
L 3008 2483 
z
M 941 -13 
C 1158 -58 1658 -96 1984 -96 
C 2560 -96 2771 -179 2771 -410 
C 2771 -781 2285 -1030 1562 -1030 
C 992 -1030 627 -845 627 -563 
C 627 -416 685 -320 941 -13 
z
M 973 2163 
C 973 2541 1152 2765 1446 2765 
C 1645 2765 1811 2656 1914 2464 
C 2035 2240 2106 1952 2106 1696 
C 2106 1338 1926 1114 1632 1114 
C 1235 1114 973 1530 973 2144 
L 973 2163 
z
" transform="scale(0.015625)"/>
     </defs>
     <use xlink:href="#NimbusRoman-Regular-41"/>
     <use xlink:href="#NimbusRoman-Regular-62" transform="translate(72.199982 0)"/>
     <use xlink:href="#NimbusRoman-Regular-63" transform="translate(122.199966 0)"/>
     <use xlink:href="#NimbusRoman-Regular-64" transform="translate(166.59996 0)"/>
     <use xlink:href="#NimbusRoman-Regular-65" transform="translate(216.599945 0)"/>
     <use xlink:href="#NimbusRoman-Regular-66" transform="translate(260.999939 0)"/>
     <use xlink:href="#NimbusRoman-Regular-67" transform="translate(294.299927 0)"/>
    </g>
   </g>
   <g id="text_2">
    <!-- Abcdefg -->
    <g style="fill: #0d0d0d" transform="translate(175.52 102.628809) scale(0.34 -0.34)">
     <defs>
      <path id="URWBookman-DemiItalic-41" d="M 3610 4358 
L 2643 4358 
L 864 1344 
C 531 736 435 653 -77 518 
L -173 0 
L 1677 0 
L 1773 518 
L 1651 531 
C 1389 563 1280 614 1280 723 
C 1280 800 1286 813 1382 992 
L 1677 1549 
L 3098 1549 
L 3200 1056 
C 3232 928 3245 826 3245 762 
C 3245 634 3155 582 2880 544 
L 2758 531 
L 2669 518 
L 2573 0 
L 4826 0 
L 4922 518 
L 4877 531 
C 4864 531 4832 544 4774 557 
C 4608 595 4589 602 4525 666 
C 4461 736 4448 768 4352 1139 
L 3610 4358 
z
M 3002 2048 
L 1952 2048 
L 2739 3443 
L 3002 2048 
z
" transform="scale(0.015625)"/>
      <path id="URWBookman-DemiItalic-62" d="M 2099 4685 
L 1888 4685 
C 1536 4531 1101 4442 678 4442 
L 582 3917 
L 653 3910 
C 934 3891 1024 3834 1024 3693 
C 1024 3648 1024 3629 992 3450 
L 365 0 
L 1248 0 
L 1286 224 
C 1600 38 1888 -58 2157 -58 
C 3136 -58 4051 915 4051 1952 
C 4051 2746 3494 3328 2733 3328 
C 2330 3328 1984 3162 1766 2861 
L 2099 4685 
z
M 1504 704 
C 1619 1581 1754 2003 2016 2394 
C 2157 2605 2336 2714 2528 2714 
C 2803 2714 2976 2490 2976 2131 
C 2976 1632 2771 1056 2477 742 
C 2342 602 2125 506 1946 506 
C 1786 506 1626 576 1504 704 
z
" transform="scale(0.015625)"/>
      <path id="URWBookman-DemiItalic-63" d="M 3309 1094 
C 2848 723 2477 557 2106 557 
C 1683 557 1446 806 1446 1248 
C 1446 2042 1958 2829 2470 2829 
C 2650 2829 2771 2733 2771 2598 
C 2771 2560 2765 2515 2746 2464 
C 2726 2387 2720 2355 2720 2310 
C 2720 2086 2918 1926 3194 1926 
C 3539 1926 3821 2189 3821 2502 
C 3821 2963 3270 3328 2573 3328 
C 1408 3328 371 2381 371 1318 
C 371 499 979 -58 1869 -58 
C 2496 -58 3226 262 3648 723 
L 3309 1094 
z
" transform="scale(0.015625)"/>
      <path id="URWBookman-DemiItalic-64" d="M 4294 826 
C 4275 806 4275 806 4224 768 
C 4096 672 4064 659 3968 659 
C 3827 659 3731 762 3731 902 
C 3731 992 3750 1152 3782 1338 
L 4390 4685 
L 4026 4685 
C 3680 4531 3238 4442 2816 4442 
L 2720 3917 
L 2797 3910 
C 3072 3891 3162 3834 3162 3693 
C 3162 3648 3149 3546 3130 3450 
L 3072 3110 
C 2842 3245 2547 3328 2298 3328 
C 1280 3328 384 2387 384 1318 
C 384 525 922 -58 1645 -58 
C 1933 -58 2227 51 2445 224 
C 2509 282 2566 333 2701 461 
C 2784 128 3059 -58 3469 -58 
C 3834 -58 4256 141 4570 461 
L 4294 826 
z
M 2970 2573 
C 2797 1581 2675 1178 2451 890 
C 2278 672 2093 557 1907 557 
C 1626 557 1459 787 1459 1178 
C 1459 1562 1594 2054 1779 2342 
C 1965 2630 2176 2765 2445 2765 
C 2643 2765 2784 2714 2970 2573 
z
" transform="scale(0.015625)"/>
      <path id="URWBookman-DemiItalic-65" d="M 3302 1114 
C 2861 730 2483 557 2099 557 
C 1715 557 1466 794 1466 1152 
C 1466 1235 1472 1318 1485 1427 
C 1555 1421 1626 1421 1651 1421 
C 2195 1421 2675 1504 3104 1670 
C 3565 1850 3814 2157 3814 2541 
C 3814 3014 3366 3328 2688 3328 
C 1427 3328 378 2406 378 1299 
C 378 493 992 -58 1888 -58 
C 2330 -58 2726 70 3194 371 
C 3398 506 3533 608 3648 736 
L 3302 1114 
z
M 1574 1869 
C 1613 2061 1709 2253 1862 2451 
C 2054 2701 2278 2829 2509 2829 
C 2720 2829 2867 2701 2867 2522 
C 2867 2144 2323 1869 1574 1869 
z
" transform="scale(0.015625)"/>
      <path id="URWBookman-DemiItalic-66" d="M 2310 2694 
L 2918 2694 
L 3027 3270 
L 2413 3270 
L 2458 3501 
C 2547 4006 2682 4205 2944 4205 
C 3046 4205 3091 4179 3155 4090 
C 3296 3898 3405 3840 3622 3840 
C 3898 3840 4102 4013 4102 4250 
C 4102 4576 3782 4768 3258 4768 
C 2246 4768 1562 4218 1402 3270 
L 864 3270 
L 762 2694 
L 1299 2694 
L 966 870 
C 858 262 768 -58 659 -269 
C 506 -557 294 -717 64 -717 
C -70 -717 -109 -691 -262 -531 
C -390 -397 -518 -333 -672 -333 
C -979 -333 -1229 -557 -1229 -832 
C -1229 -1152 -928 -1331 -403 -1331 
C -64 -1331 250 -1274 512 -1165 
C 998 -960 1421 -570 1670 -96 
C 1843 230 1894 422 2099 1549 
L 2310 2694 
z
" transform="scale(0.015625)"/>
      <path id="URWBookman-DemiItalic-67" d="M 4282 3270 
L 3277 3270 
L 3238 3059 
C 3072 3155 2995 3200 2995 3200 
C 2835 3277 2598 3328 2387 3328 
C 1402 3328 506 2362 506 1306 
C 506 518 1037 -58 1766 -58 
C 1978 -58 2144 -13 2304 90 
C 2413 154 2464 205 2726 474 
L 2778 518 
C 2637 26 2554 -179 2406 -365 
C 2227 -602 1939 -742 1645 -742 
C 1523 -742 1414 -717 1325 -666 
C 1222 -614 1216 -602 1126 -435 
C 1037 -250 883 -154 691 -154 
C 378 -154 134 -358 134 -621 
C 134 -1030 717 -1331 1517 -1331 
C 2125 -1331 2694 -1152 3098 -838 
C 3494 -538 3648 -205 3802 634 
L 4282 3270 
z
M 3027 1971 
C 2867 1133 2483 582 2067 582 
C 1779 582 1613 806 1613 1190 
C 1613 1619 1754 2112 1978 2445 
C 2131 2675 2355 2803 2598 2803 
C 2771 2803 2880 2758 3149 2566 
L 3027 1971 
z
" transform="scale(0.015625)"/>
     </defs>
     <use xlink:href="#URWBookman-DemiItalic-41"/>
     <use xlink:href="#URWBookman-DemiItalic-62" transform="translate(71.999985 0)"/>
     <use xlink:href="#URWBookman-DemiItalic-63" transform="translate(131.999969 0)"/>
     <use xlink:href="#URWBookman-DemiItalic-64" transform="translate(187.999954 0)"/>
     <use xlink:href="#URWBookman-DemiItalic-65" transform="translate(255.999939 0)"/>
     <use xlink:href="#URWBookman-DemiItalic-66" transform="translate(311.999924 0)"/>
     <use xlink:href="#URWBookman-DemiItalic-67" transform="translate(353.999908 0)"/>
    </g>
   </g>
   <g id="text_3">
    <!-- Abcdefg -->
    <g style="fill: #0d0d0d" transform="translate(197.28 152.436111) scale(0.34 -0.34)">
     <defs>
      <path id="Z003-MediumItalic-41" d="M 147 58 
C 294 13 365 0 486 0 
C 922 0 1222 230 2061 1190 
C 2566 1190 2944 1184 3194 1165 
C 3181 1088 3168 1011 3162 934 
C 3149 870 3130 736 3110 595 
C 3098 474 3078 358 3072 333 
C 3053 224 3040 122 3040 58 
C 3040 -26 3104 -83 3187 -83 
C 3213 -83 3386 -51 3706 6 
L 4070 70 
C 4115 77 4186 90 4294 109 
L 4397 262 
C 4134 243 3974 230 3923 230 
C 3667 230 3597 294 3597 518 
C 3597 928 3846 2720 4051 3738 
L 3962 3802 
C 3770 3603 3757 3597 3622 3597 
C 3539 3597 3507 3603 3258 3642 
C 2970 3686 2803 3706 2675 3706 
C 2381 3706 2074 3558 1773 3264 
C 1434 2938 1286 2656 1286 2317 
C 1286 2163 1306 2061 1376 1875 
L 1850 2131 
C 1747 2432 1715 2579 1715 2726 
C 1715 3091 1990 3309 2458 3309 
C 2528 3309 2611 3302 2694 3296 
L 2848 3277 
C 2938 3270 3002 3264 3046 3258 
C 3149 3245 3206 3245 3379 3232 
L 2272 1798 
C 2003 1453 1587 966 1414 800 
C 1158 550 966 461 672 461 
C 563 461 506 467 390 506 
L 147 58 
z
M 2259 1453 
L 3494 3072 
L 3232 1453 
L 2259 1453 
z
" transform="scale(0.015625)"/>
      <path id="Z003-MediumItalic-62" d="M 621 -109 
L 826 64 
C 1005 -6 1139 -32 1261 -32 
C 1427 -32 1466 -13 1862 237 
C 2150 397 2150 397 2189 422 
C 2362 531 2483 666 2579 838 
C 2784 1210 2938 1766 2938 2144 
C 2938 2438 2790 2630 2560 2630 
C 2342 2630 2170 2534 1530 2080 
C 1581 2304 1581 2304 1651 2624 
C 1779 3258 1792 3296 1920 3584 
C 2042 3859 2163 3942 2458 3942 
L 2720 3942 
L 2982 4314 
C 2854 4326 2771 4333 2701 4333 
C 2464 4333 2349 4269 1811 3821 
C 1376 3469 1376 3469 1152 2477 
C 1030 1946 915 1453 787 890 
C 672 384 659 326 557 -83 
L 621 -109 
z
M 1466 1818 
C 1830 2086 2054 2202 2202 2202 
C 2330 2202 2413 2086 2413 1888 
C 2413 1632 2336 1248 2227 973 
C 2054 544 1830 333 1549 333 
C 1421 333 1299 365 1126 454 
L 1466 1818 
z
" transform="scale(0.015625)"/>
      <path id="Z003-MediumItalic-63" d="M 2451 813 
C 1965 461 1619 282 1414 282 
C 1184 282 1050 461 1050 768 
C 1050 1082 1126 1485 1248 1786 
C 1382 2125 1542 2298 1728 2298 
C 1882 2298 1965 2176 1997 1894 
L 2368 2112 
C 2374 2144 2374 2176 2374 2189 
C 2374 2464 2234 2630 2010 2630 
C 1888 2630 1830 2605 1594 2451 
C 1114 2150 1011 2054 870 1792 
C 691 1446 557 902 557 506 
C 557 128 723 -83 1024 -83 
C 1331 -83 1843 166 2438 608 
L 2451 813 
z
" transform="scale(0.015625)"/>
      <path id="Z003-MediumItalic-64" d="M 3181 838 
L 3002 723 
C 2842 614 2733 538 2701 518 
C 2566 435 2445 378 2413 378 
C 2362 378 2323 448 2323 544 
C 2323 755 2854 3072 2995 3469 
C 3136 3853 3277 4000 3507 4000 
C 3597 4000 3654 3987 3802 3949 
L 4026 4307 
C 3930 4326 3885 4333 3821 4333 
C 3667 4333 3578 4307 3437 4224 
C 3277 4134 3059 3968 2880 3802 
C 2566 3501 2547 3456 2381 2797 
C 2374 2771 2355 2682 2330 2592 
C 2214 2618 2125 2630 2067 2630 
C 1869 2630 1318 2285 1062 2003 
C 845 1754 557 851 557 410 
C 557 166 685 -83 800 -83 
C 922 -83 1216 96 1875 576 
C 1843 403 1824 237 1824 115 
C 1824 -13 1869 -83 1965 -83 
C 2067 -83 2624 256 3155 640 
L 3181 838 
z
M 1926 813 
C 1382 429 1242 346 1152 346 
C 1062 346 1018 435 1018 627 
C 1018 838 1056 1075 1133 1363 
C 1312 2010 1568 2330 1894 2330 
C 2016 2330 2099 2285 2227 2157 
L 1926 813 
z
" transform="scale(0.015625)"/>
      <path id="Z003-MediumItalic-65" d="M 2432 877 
C 1920 442 1645 282 1402 282 
C 1235 282 1107 390 1062 557 
C 1037 659 1030 730 1030 915 
C 1325 1101 1504 1229 1882 1510 
C 2234 1773 2362 1984 2362 2272 
C 2362 2496 2227 2630 1997 2630 
C 1856 2630 1760 2598 1606 2515 
C 1363 2374 1146 2202 1018 2048 
C 774 1754 557 1050 557 531 
C 557 154 755 -83 1082 -83 
C 1459 -83 1946 198 2426 691 
L 2432 877 
z
M 1050 1146 
C 1158 1837 1446 2362 1728 2362 
C 1830 2362 1901 2259 1901 2099 
C 1901 1779 1715 1574 1050 1146 
z
" transform="scale(0.015625)"/>
      <path id="Z003-MediumItalic-66" d="M -474 -1331 
C -525 -1402 -582 -1472 -634 -1549 
C -493 -1568 -435 -1574 -320 -1574 
C -109 -1574 58 -1542 160 -1485 
C 346 -1382 672 -1069 845 -845 
C 1043 -576 1274 -32 1421 557 
C 1664 1472 1786 1946 1798 1990 
C 1856 1984 1882 1984 1907 1984 
L 2240 1997 
C 2259 1997 2298 1997 2362 1990 
L 2630 2195 
C 2445 2202 2374 2202 2221 2202 
C 2080 2202 2022 2202 1850 2195 
C 2266 3827 2355 4019 2739 4019 
C 2854 4019 2944 4006 3168 3968 
L 3462 4314 
C 3334 4346 3283 4352 3155 4352 
C 2765 4352 2509 4218 2074 3795 
C 1715 3443 1632 3264 1382 2195 
C 1318 2202 1286 2202 1254 2202 
L 941 2189 
C 928 2189 896 2189 845 2195 
C 806 2170 768 2144 755 2138 
C 685 2099 672 2086 614 2061 
C 595 2048 544 2022 486 1990 
L 646 1990 
L 1094 1984 
C 1133 1984 1203 1984 1331 1990 
C 1229 1600 1190 1434 1069 870 
C 685 -896 538 -1178 -6 -1178 
C -102 -1178 -179 -1171 -346 -1146 
L -474 -1331 
z
" transform="scale(0.015625)"/>
      <path id="Z003-MediumItalic-67" d="M 2541 1402 
C 2566 1542 2598 1664 2624 1766 
C 2656 1888 2688 2010 2720 2125 
L 2752 2266 
C 2867 2298 2874 2298 3078 2624 
C 3046 2624 2963 2624 2336 2611 
C 1946 2605 1830 2586 1645 2470 
C 1338 2285 1120 2099 986 1926 
C 794 1670 563 909 563 512 
C 563 352 602 237 704 96 
C 314 -243 198 -339 -32 -538 
C -352 -819 -499 -1030 -499 -1210 
C -499 -1446 -224 -1581 269 -1581 
C 858 -1581 1318 -1414 1747 -1043 
C 2022 -806 2086 -672 2221 -38 
L 2541 1402 
z
M 1702 -352 
C 1619 -742 1562 -883 1446 -1005 
C 1306 -1171 1043 -1248 666 -1248 
C 250 -1248 26 -1139 26 -928 
C 26 -666 205 -506 1978 858 
L 1702 -352 
z
M 1216 486 
C 1101 602 1056 704 1056 858 
C 1056 1005 1088 1165 1203 1542 
C 1318 1926 1408 2093 1555 2182 
C 1670 2259 1811 2272 2451 2272 
L 2656 2272 
C 2387 2074 2355 2048 2298 1952 
C 2246 1869 2176 1626 2035 1088 
C 1926 1018 1907 998 1824 941 
C 1670 832 1523 717 1382 608 
L 1216 486 
z
" transform="scale(0.015625)"/>
     </defs>
     <use xlink:href="#Z003-MediumItalic-41"/>
     <use xlink:href="#Z003-MediumItalic-62" transform="translate(61.999985 0)"/>
     <use xlink:href="#Z003-MediumItalic-63" transform="translate(103.999969 0)"/>
     <use xlink:href="#Z003-MediumItalic-64" transform="translate(137.999954 0)"/>
     <use xlink:href="#Z003-MediumItalic-65" transform="translate(181.999939 0)"/>
     <use xlink:href="#Z003-MediumItalic-66" transform="translate(215.999924 0)"/>
     <use xlink:href="#Z003-MediumItalic-67" transform="translate(247.999908 0)"/>
    </g>
   </g>
   <g id="text_4">
    <!-- Abcdefg -->
    <g style="fill: #0d0d0d" transform="translate(181.759531 206.541226) scale(0.34 -0.34)">
     <defs>
      <path id="Ubuntu-Regular-41" d="M 64 0 
Q 410 928 698 1689 
Q 986 2451 1264 3120 
Q 1542 3789 1856 4435 
L 2304 4435 
Q 2534 3949 2748 3453 
Q 2963 2957 3174 2425 
Q 3386 1894 3613 1296 
Q 3840 698 4096 0 
L 3552 0 
Q 3437 320 3328 611 
Q 3219 902 3123 1184 
L 1011 1184 
Q 909 902 800 611 
Q 691 320 582 0 
L 64 0 
z
M 1158 1606 
L 2976 1606 
Q 2854 1926 2739 2227 
Q 2624 2528 2512 2809 
Q 2400 3091 2288 3356 
Q 2176 3622 2061 3878 
Q 1952 3622 1840 3356 
Q 1728 3091 1616 2809 
Q 1504 2528 1389 2227 
Q 1274 1926 1158 1606 
z
" transform="scale(0.015625)"/>
      <path id="Ubuntu-Regular-62" d="M 1760 -77 
Q 1478 -77 1248 -48 
Q 1018 -19 842 22 
Q 666 64 538 102 
L 538 4883 
L 1018 4966 
L 1018 3130 
Q 1133 3213 1366 3299 
Q 1600 3386 1907 3386 
Q 2387 3386 2720 3165 
Q 3053 2944 3229 2553 
Q 3405 2163 3405 1658 
Q 3405 1120 3200 733 
Q 2995 346 2624 134 
Q 2253 -77 1760 -77 
z
M 1754 352 
Q 2099 352 2358 505 
Q 2618 659 2758 950 
Q 2899 1242 2899 1658 
Q 2899 1926 2844 2163 
Q 2790 2400 2665 2579 
Q 2541 2758 2339 2857 
Q 2138 2957 1850 2957 
Q 1574 2957 1350 2864 
Q 1126 2771 1018 2682 
L 1018 435 
Q 1107 410 1289 381 
Q 1472 352 1754 352 
z
" transform="scale(0.015625)"/>
      <path id="Ubuntu-Regular-63" d="M 1933 -70 
Q 1408 -70 1056 144 
Q 704 358 525 748 
Q 346 1139 346 1651 
Q 346 2170 531 2560 
Q 717 2950 1065 3171 
Q 1414 3392 1894 3392 
Q 2157 3392 2393 3347 
Q 2630 3302 2765 3232 
L 2643 2829 
Q 2515 2886 2355 2924 
Q 2195 2963 1933 2963 
Q 1402 2963 1123 2617 
Q 845 2272 845 1651 
Q 845 1267 960 976 
Q 1075 685 1331 521 
Q 1587 358 2010 358 
Q 2259 358 2448 416 
Q 2637 474 2726 518 
L 2822 109 
Q 2701 45 2451 -12 
Q 2202 -70 1933 -70 
z
" transform="scale(0.015625)"/>
      <path id="Ubuntu-Regular-64" d="M 1984 -77 
Q 1498 -77 1126 131 
Q 755 339 550 726 
Q 346 1114 346 1651 
Q 346 2163 522 2553 
Q 698 2944 1034 3165 
Q 1370 3386 1843 3386 
Q 2150 3386 2384 3299 
Q 2618 3213 2733 3130 
L 2733 4883 
L 3206 4966 
L 3206 102 
Q 3085 64 2905 22 
Q 2726 -19 2499 -48 
Q 2272 -77 1984 -77 
z
M 1990 352 
Q 2272 352 2454 381 
Q 2637 410 2733 435 
L 2733 2682 
Q 2624 2771 2400 2864 
Q 2176 2957 1894 2957 
Q 1606 2957 1404 2857 
Q 1203 2758 1078 2579 
Q 954 2400 899 2163 
Q 845 1926 845 1658 
Q 845 1242 989 950 
Q 1133 659 1392 505 
Q 1651 352 1990 352 
z
" transform="scale(0.015625)"/>
      <path id="Ubuntu-Regular-65" d="M 1990 -70 
Q 1408 -70 1046 154 
Q 685 378 515 768 
Q 346 1158 346 1658 
Q 346 2240 557 2624 
Q 768 3008 1104 3200 
Q 1440 3392 1811 3392 
Q 2227 3392 2531 3216 
Q 2835 3040 3001 2678 
Q 3168 2317 3168 1760 
Q 3168 1715 3165 1654 
Q 3162 1594 3155 1542 
L 845 1542 
Q 870 979 1148 668 
Q 1427 358 2016 358 
Q 2342 358 2550 419 
Q 2758 480 2848 525 
L 2931 122 
Q 2842 70 2582 0 
Q 2323 -70 1990 -70 
z
M 858 1933 
L 2682 1933 
Q 2675 2259 2572 2492 
Q 2470 2726 2281 2851 
Q 2093 2976 1818 2976 
Q 1536 2976 1325 2829 
Q 1114 2682 995 2445 
Q 877 2208 858 1933 
z
" transform="scale(0.015625)"/>
      <path id="Ubuntu-Regular-66" d="M 538 0 
L 538 3654 
Q 538 4301 845 4633 
Q 1152 4966 1786 4966 
Q 2048 4966 2224 4924 
Q 2400 4883 2464 4845 
L 2368 4442 
Q 2291 4480 2153 4512 
Q 2016 4544 1811 4544 
Q 1382 4544 1200 4326 
Q 1018 4109 1018 3642 
L 1018 3315 
L 2330 3315 
L 2330 2912 
L 1018 2912 
L 1018 0 
L 538 0 
z
" transform="scale(0.015625)"/>
      <path id="Ubuntu-Regular-67" d="M 1581 -1203 
Q 1267 -1203 998 -1152 
Q 730 -1101 538 -1037 
L 634 -614 
Q 794 -678 1056 -732 
Q 1318 -787 1594 -787 
Q 1978 -787 2214 -691 
Q 2451 -595 2563 -384 
Q 2675 -173 2675 173 
L 2675 384 
Q 2586 320 2368 227 
Q 2150 134 1811 134 
Q 1421 134 1085 297 
Q 749 461 547 813 
Q 346 1165 346 1734 
Q 346 2208 534 2579 
Q 723 2950 1078 3164 
Q 1434 3379 1926 3379 
Q 2374 3379 2665 3318 
Q 2957 3258 3142 3200 
L 3142 198 
Q 3142 -550 2755 -876 
Q 2368 -1203 1581 -1203 
z
M 1830 557 
Q 2093 557 2320 633 
Q 2547 710 2669 813 
L 2669 2874 
Q 2566 2906 2400 2931 
Q 2234 2957 1933 2957 
Q 1587 2957 1344 2803 
Q 1101 2650 973 2371 
Q 845 2093 845 1728 
Q 845 1414 928 1190 
Q 1011 966 1152 825 
Q 1293 685 1469 621 
Q 1645 557 1830 557 
z
" transform="scale(0.015625)"/>
     </defs>
     <use xlink:href="#Ubuntu-Regular-41"/>
     <use xlink:href="#Ubuntu-Regular-62" transform="translate(64.999985 0)"/>
     <use xlink:href="#Ubuntu-Regular-63" transform="translate(123.499969 0)"/>
     <use xlink:href="#Ubuntu-Regular-64" transform="translate(169.999954 0)"/>
     <use xlink:href="#Ubuntu-Regular-65" transform="translate(228.499939 0)"/>
     <use xlink:href="#Ubuntu-Regular-66" transform="translate(283.699936 0)"/>
     <use xlink:href="#Ubuntu-Regular-67" transform="translate(321.799927 0)"/>
    </g>
   </g>
   <g id="text_5">
    <!-- Abcdefg -->
    <g style="fill: #0d0d0d" transform="translate(184.545938 257.078997) scale(0.34 -0.34)">
     <defs>
      <path id="C059-Italic-41" d="M 2829 4717 
L 2566 4717 
L 454 1075 
C 115 512 -147 301 -493 301 
L -525 0 
L 1197 0 
L 1235 301 
L 1082 301 
C 749 301 640 365 640 557 
C 640 653 678 774 755 909 
L 1107 1523 
L 2739 1523 
L 2886 736 
C 2906 659 2912 576 2912 525 
C 2912 346 2816 301 2451 301 
L 2349 301 
L 2317 0 
L 4237 0 
L 4275 301 
L 4115 301 
C 3757 301 3699 352 3629 691 
L 2829 4717 
z
M 2688 1824 
L 1280 1824 
L 2323 3661 
L 2688 1824 
z
" transform="scale(0.015625)"/>
      <path id="C059-Italic-62" d="M 1856 4717 
L 627 4621 
L 602 4390 
L 755 4390 
C 1018 4390 1120 4333 1120 4186 
C 1120 4128 1107 4058 1062 3910 
L 294 1325 
C 237 1120 205 954 205 819 
C 205 262 614 -96 1248 -96 
C 1747 -96 2125 58 2477 397 
C 2893 800 3123 1338 3123 1920 
C 3123 2579 2752 3008 2182 3008 
C 1811 3008 1536 2854 1178 2426 
L 1856 4717 
z
M 1971 2618 
C 2298 2618 2490 2368 2490 1952 
C 2490 1536 2368 1101 2144 736 
C 1901 333 1632 147 1299 147 
C 954 147 749 378 749 768 
C 749 1165 896 1664 1126 2035 
C 1370 2419 1651 2618 1971 2618 
z
" transform="scale(0.015625)"/>
      <path id="C059-Italic-63" d="M 2182 845 
C 1862 429 1523 211 1216 211 
C 838 211 621 486 621 973 
C 621 1434 768 1933 1018 2291 
C 1242 2618 1472 2765 1754 2765 
C 1958 2765 2163 2662 2163 2554 
C 2163 2515 2131 2483 2061 2458 
C 1888 2381 1824 2304 1824 2150 
C 1824 1965 1965 1837 2163 1837 
C 2394 1837 2566 2042 2566 2317 
C 2566 2701 2195 3008 1734 3008 
C 838 3008 32 2086 32 1056 
C 32 358 461 -96 1133 -96 
C 1613 -96 2029 173 2368 704 
L 2182 845 
z
" transform="scale(0.015625)"/>
      <path id="C059-Italic-64" d="M 3418 1011 
C 3046 410 2886 243 2675 243 
C 2573 243 2515 307 2515 422 
C 2515 506 2547 653 2611 877 
L 3750 4717 
L 2477 4621 
L 2451 4390 
L 2650 4390 
C 2912 4390 3014 4333 3014 4192 
C 3014 4128 2995 4045 2957 3910 
L 2534 2490 
C 2483 2637 2445 2707 2374 2778 
C 2240 2918 2022 3008 1798 3008 
C 877 3008 19 2022 19 960 
C 19 333 422 -96 1024 -96 
C 1459 -96 1779 83 2061 499 
C 2054 448 2054 384 2054 358 
C 2054 64 2208 -96 2490 -96 
C 2893 -96 3245 218 3610 896 
L 3418 1011 
z
M 1818 2720 
C 2131 2720 2362 2477 2362 2144 
C 2362 1798 2202 1216 1997 826 
C 1779 410 1517 205 1210 205 
C 864 205 640 480 640 896 
C 640 1261 774 1728 979 2086 
C 1222 2509 1498 2720 1818 2720 
z
" transform="scale(0.015625)"/>
      <path id="C059-Italic-65" d="M 2170 742 
C 1792 352 1517 205 1178 205 
C 794 205 557 461 557 870 
C 557 915 563 1005 570 1088 
C 1325 1267 1440 1306 1734 1434 
C 2234 1651 2502 1978 2502 2349 
C 2502 2739 2195 3008 1741 3008 
C 806 3008 -38 2061 -38 1011 
C -38 320 378 -96 1069 -96 
C 1562 -96 1978 122 2323 570 
L 2170 742 
z
M 602 1338 
C 749 2202 1139 2752 1613 2752 
C 1824 2752 1965 2605 1965 2387 
C 1965 2080 1766 1805 1414 1613 
C 1184 1478 1024 1427 602 1338 
z
" transform="scale(0.015625)"/>
      <path id="C059-Italic-66" d="M 1402 2912 
C 1549 3507 1587 3629 1715 3936 
C 1869 4320 2042 4486 2278 4486 
C 2368 4486 2432 4442 2432 4378 
C 2432 4352 2426 4326 2387 4262 
C 2342 4186 2330 4147 2330 4083 
C 2330 3923 2477 3795 2662 3795 
C 2861 3795 3008 3942 3008 4134 
C 3008 4467 2714 4710 2298 4710 
C 1894 4710 1542 4486 1293 4070 
C 1107 3770 1005 3501 845 2912 
L 288 2912 
L 205 2611 
L 774 2611 
L 512 1498 
C 288 550 -32 -410 -435 -1293 
L 269 -1178 
C 416 -781 787 442 934 1030 
L 1331 2611 
L 2138 2611 
L 2227 2912 
L 1402 2912 
z
" transform="scale(0.015625)"/>
      <path id="C059-Italic-67" d="M 2445 2765 
C 2547 2854 2605 2886 2682 2886 
C 2746 2886 2797 2854 2848 2784 
C 2950 2643 2989 2618 3091 2618 
C 3238 2618 3347 2739 3347 2899 
C 3347 3085 3168 3232 2944 3232 
C 2720 3232 2547 3149 2214 2886 
C 2016 2976 1869 3008 1664 3008 
C 954 3008 352 2502 352 1914 
C 352 1606 474 1395 749 1248 
C 454 1210 320 1165 173 1037 
C 45 934 -38 762 -38 608 
C -38 390 64 256 314 134 
C 45 77 -58 38 -192 -45 
C -384 -160 -506 -365 -506 -576 
C -506 -755 -416 -934 -275 -1043 
C -19 -1222 269 -1293 806 -1293 
C 1440 -1293 1805 -1216 2118 -1011 
C 2394 -832 2554 -557 2554 -256 
C 2554 -6 2432 198 2221 320 
C 2016 429 1811 474 1376 499 
C 806 531 762 538 672 557 
C 512 595 435 672 435 781 
C 435 934 589 1037 819 1037 
C 902 1037 998 1030 1082 1018 
C 1344 979 1382 973 1542 973 
C 1901 973 2182 1062 2406 1242 
C 2662 1440 2822 1760 2822 2054 
C 2822 2355 2694 2586 2445 2765 
z
M 1709 2765 
C 2042 2765 2253 2566 2253 2253 
C 2253 1952 2150 1626 1990 1427 
C 1875 1293 1696 1210 1498 1210 
C 1152 1210 934 1427 934 1786 
C 934 2362 1248 2765 1709 2765 
z
M 928 19 
C 1216 19 1677 -45 1824 -102 
C 1984 -173 2061 -282 2061 -442 
C 2061 -819 1658 -1024 922 -1024 
C 301 -1024 13 -870 13 -531 
C 13 -186 346 19 928 19 
z
" transform="scale(0.015625)"/>
     </defs>
     <use xlink:href="#C059-Italic-41"/>
     <use xlink:href="#C059-Italic-62" transform="translate(70.399994 0)"/>
     <use xlink:href="#C059-Italic-63" transform="translate(125.999985 0)"/>
     <use xlink:href="#C059-Italic-64" transform="translate(170.399979 0)"/>
     <use xlink:href="#C059-Italic-65" transform="translate(231.499969 0)"/>
     <use xlink:href="#C059-Italic-66" transform="translate(275.899963 0)"/>
     <use xlink:href="#C059-Italic-67" transform="translate(309.199951 0)"/>
    </g>
   </g>
   <g id="text_6">
    <!-- Abcdefg -->
    <g style="fill: #0d0d0d" transform="translate(174.598281 308.804112) scale(0.34 -0.34)">
     <defs>
      <path id="DejaVuSansMono-Bold-41" d="M 1925 3822 
L 1491 1913 
L 2363 1913 
L 1925 3822 
z
M 1363 4666 
L 2491 4666 
L 3750 0 
L 2828 0 
L 2541 1153 
L 1306 1153 
L 1025 0 
L 103 0 
L 1363 4666 
z
" transform="scale(0.015625)"/>
      <path id="DejaVuSansMono-Bold-62" d="M 2656 1741 
Q 2656 2247 2487 2534 
Q 2319 2822 2022 2822 
Q 1725 2822 1553 2534 
Q 1381 2247 1381 1741 
Q 1381 1234 1553 946 
Q 1725 659 2022 659 
Q 2319 659 2487 946 
Q 2656 1234 2656 1741 
z
M 1381 3003 
Q 1550 3294 1773 3439 
Q 1997 3584 2278 3584 
Q 2900 3584 3236 3109 
Q 3572 2634 3572 1747 
Q 3572 872 3240 390 
Q 2909 -91 2309 -91 
Q 1994 -91 1759 62 
Q 1525 216 1381 519 
L 1381 0 
L 469 0 
L 469 4863 
L 1381 4863 
L 1381 3003 
z
" transform="scale(0.015625)"/>
      <path id="DejaVuSansMono-Bold-63" d="M 3316 178 
Q 3084 44 2818 -23 
Q 2553 -91 2247 -91 
Q 1438 -91 981 396 
Q 525 884 525 1747 
Q 525 2613 984 3102 
Q 1444 3591 2253 3591 
Q 2534 3591 2795 3525 
Q 3056 3459 3316 3322 
L 3316 2484 
Q 3116 2656 2877 2748 
Q 2638 2841 2381 2841 
Q 1934 2841 1693 2556 
Q 1453 2272 1453 1747 
Q 1453 1222 1693 940 
Q 1934 659 2381 659 
Q 2647 659 2878 748 
Q 3109 838 3316 1019 
L 3316 178 
z
" transform="scale(0.015625)"/>
      <path id="DejaVuSansMono-Bold-64" d="M 2472 3003 
L 2472 4863 
L 3384 4863 
L 3384 0 
L 2472 0 
L 2472 519 
Q 2325 216 2092 62 
Q 1859 -91 1544 -91 
Q 944 -91 612 390 
Q 281 872 281 1747 
Q 281 2634 617 3109 
Q 953 3584 1575 3584 
Q 1856 3584 2079 3439 
Q 2303 3294 2472 3003 
z
M 1197 1741 
Q 1197 1234 1365 946 
Q 1534 659 1831 659 
Q 2128 659 2300 946 
Q 2472 1234 2472 1741 
Q 2472 2247 2300 2534 
Q 2128 2822 1831 2822 
Q 1534 2822 1365 2534 
Q 1197 2247 1197 1741 
z
" transform="scale(0.015625)"/>
      <path id="DejaVuSansMono-Bold-65" d="M 3444 172 
Q 3125 41 2794 -25 
Q 2463 -91 2094 -91 
Q 1216 -91 752 379 
Q 288 850 288 1734 
Q 288 2591 734 3087 
Q 1181 3584 1953 3584 
Q 2731 3584 3161 3123 
Q 3591 2663 3591 1825 
L 3591 1453 
L 1219 1453 
Q 1222 1041 1462 837 
Q 1703 634 2181 634 
Q 2497 634 2803 725 
Q 3109 816 3444 1013 
L 3444 172 
z
M 2669 2141 
Q 2663 2503 2483 2689 
Q 2303 2875 1953 2875 
Q 1638 2875 1450 2683 
Q 1263 2491 1228 2138 
L 2669 2141 
z
" transform="scale(0.015625)"/>
      <path id="DejaVuSansMono-Bold-66" d="M 2309 3806 
L 2309 3500 
L 3384 3500 
L 3384 2797 
L 2309 2797 
L 2309 0 
L 1394 0 
L 1394 2797 
L 544 2797 
L 544 3500 
L 1394 3500 
L 1394 3744 
Q 1394 4375 1656 4619 
Q 1919 4863 2631 4863 
L 3384 4863 
L 3384 4159 
L 2669 4159 
Q 2463 4159 2389 4084 
Q 2316 4009 2309 3806 
z
" transform="scale(0.015625)"/>
      <path id="DejaVuSansMono-Bold-67" d="M 2509 1806 
Q 2509 2275 2331 2558 
Q 2153 2841 1863 2841 
Q 1575 2841 1398 2559 
Q 1222 2278 1222 1806 
Q 1222 1331 1398 1050 
Q 1575 769 1863 769 
Q 2153 769 2331 1051 
Q 2509 1334 2509 1806 
z
M 3425 263 
Q 3425 -578 3045 -951 
Q 2666 -1325 1813 -1325 
Q 1525 -1325 1244 -1283 
Q 963 -1241 672 -1153 
L 672 -313 
Q 931 -456 1200 -525 
Q 1469 -594 1753 -594 
Q 2141 -594 2325 -411 
Q 2509 -228 2509 159 
L 2509 538 
Q 2375 288 2153 166 
Q 1931 44 1613 44 
Q 1013 44 659 512 
Q 306 981 306 1784 
Q 306 2616 659 3103 
Q 1013 3591 1606 3591 
Q 1906 3591 2140 3450 
Q 2375 3309 2509 3053 
L 2509 3500 
L 3425 3500 
L 3425 263 
z
" transform="scale(0.015625)"/>
     </defs>
     <use xlink:href="#DejaVuSansMono-Bold-41"/>
     <use xlink:href="#DejaVuSansMono-Bold-62" transform="translate(60.205078 0)"/>
     <use xlink:href="#DejaVuSansMono-Bold-63" transform="translate(120.410156 0)"/>
     <use xlink:href="#DejaVuSansMono-Bold-64" transform="translate(180.615234 0)"/>
     <use xlink:href="#DejaVuSansMono-Bold-65" transform="translate(240.820312 0)"/>
     <use xlink:href="#DejaVuSansMono-Bold-66" transform="translate(301.025391 0)"/>
     <use xlink:href="#DejaVuSansMono-Bold-67" transform="translate(361.230469 0)"/>
    </g>
   </g>
   <g id="text_7">
    <!-- one line of text, six of the computer's fonts -->
    <g style="fill: #808080" transform="translate(138.297813 14.798437) scale(0.1 -0.1)">
     <defs>
      <path id="DejaVuSans-6f" d="M 1959 3097 
Q 1497 3097 1228 2736 
Q 959 2375 959 1747 
Q 959 1119 1226 758 
Q 1494 397 1959 397 
Q 2419 397 2687 759 
Q 2956 1122 2956 1747 
Q 2956 2369 2687 2733 
Q 2419 3097 1959 3097 
z
M 1959 3584 
Q 2709 3584 3137 3096 
Q 3566 2609 3566 1747 
Q 3566 888 3137 398 
Q 2709 -91 1959 -91 
Q 1206 -91 779 398 
Q 353 888 353 1747 
Q 353 2609 779 3096 
Q 1206 3584 1959 3584 
z
" transform="scale(0.015625)"/>
      <path id="DejaVuSans-6e" d="M 3513 2113 
L 3513 0 
L 2938 0 
L 2938 2094 
Q 2938 2591 2744 2837 
Q 2550 3084 2163 3084 
Q 1697 3084 1428 2787 
Q 1159 2491 1159 1978 
L 1159 0 
L 581 0 
L 581 3500 
L 1159 3500 
L 1159 2956 
Q 1366 3272 1645 3428 
Q 1925 3584 2291 3584 
Q 2894 3584 3203 3211 
Q 3513 2838 3513 2113 
z
" transform="scale(0.015625)"/>
      <path id="DejaVuSans-65" d="M 3597 1894 
L 3597 1613 
L 953 1613 
Q 991 1019 1311 708 
Q 1631 397 2203 397 
Q 2534 397 2845 478 
Q 3156 559 3463 722 
L 3463 178 
Q 3153 47 2828 -22 
Q 2503 -91 2169 -91 
Q 1331 -91 842 396 
Q 353 884 353 1716 
Q 353 2575 817 3079 
Q 1281 3584 2069 3584 
Q 2775 3584 3186 3129 
Q 3597 2675 3597 1894 
z
M 3022 2063 
Q 3016 2534 2758 2815 
Q 2500 3097 2075 3097 
Q 1594 3097 1305 2825 
Q 1016 2553 972 2059 
L 3022 2063 
z
" transform="scale(0.015625)"/>
      <path id="DejaVuSans-20" transform="scale(0.015625)"/>
      <path id="DejaVuSans-6c" d="M 603 4863 
L 1178 4863 
L 1178 0 
L 603 0 
L 603 4863 
z
" transform="scale(0.015625)"/>
      <path id="DejaVuSans-69" d="M 603 3500 
L 1178 3500 
L 1178 0 
L 603 0 
L 603 3500 
z
M 603 4863 
L 1178 4863 
L 1178 4134 
L 603 4134 
L 603 4863 
z
" transform="scale(0.015625)"/>
      <path id="DejaVuSans-66" d="M 2375 4863 
L 2375 4384 
L 1825 4384 
Q 1516 4384 1395 4259 
Q 1275 4134 1275 3809 
L 1275 3500 
L 2222 3500 
L 2222 3053 
L 1275 3053 
L 1275 0 
L 697 0 
L 697 3053 
L 147 3053 
L 147 3500 
L 697 3500 
L 697 3744 
Q 697 4328 969 4595 
Q 1241 4863 1831 4863 
L 2375 4863 
z
" transform="scale(0.015625)"/>
      <path id="DejaVuSans-74" d="M 1172 4494 
L 1172 3500 
L 2356 3500 
L 2356 3053 
L 1172 3053 
L 1172 1153 
Q 1172 725 1289 603 
Q 1406 481 1766 481 
L 2356 481 
L 2356 0 
L 1766 0 
Q 1100 0 847 248 
Q 594 497 594 1153 
L 594 3053 
L 172 3053 
L 172 3500 
L 594 3500 
L 594 4494 
L 1172 4494 
z
" transform="scale(0.015625)"/>
      <path id="DejaVuSans-78" d="M 3513 3500 
L 2247 1797 
L 3578 0 
L 2900 0 
L 1881 1375 
L 863 0 
L 184 0 
L 1544 1831 
L 300 3500 
L 978 3500 
L 1906 2253 
L 2834 3500 
L 3513 3500 
z
" transform="scale(0.015625)"/>
      <path id="DejaVuSans-2c" d="M 750 794 
L 1409 794 
L 1409 256 
L 897 -744 
L 494 -744 
L 750 256 
L 750 794 
z
" transform="scale(0.015625)"/>
      <path id="DejaVuSans-73" d="M 2834 3397 
L 2834 2853 
Q 2591 2978 2328 3040 
Q 2066 3103 1784 3103 
Q 1356 3103 1142 2972 
Q 928 2841 928 2578 
Q 928 2378 1081 2264 
Q 1234 2150 1697 2047 
L 1894 2003 
Q 2506 1872 2764 1633 
Q 3022 1394 3022 966 
Q 3022 478 2636 193 
Q 2250 -91 1575 -91 
Q 1294 -91 989 -36 
Q 684 19 347 128 
L 347 722 
Q 666 556 975 473 
Q 1284 391 1588 391 
Q 1994 391 2212 530 
Q 2431 669 2431 922 
Q 2431 1156 2273 1281 
Q 2116 1406 1581 1522 
L 1381 1569 
Q 847 1681 609 1914 
Q 372 2147 372 2553 
Q 372 3047 722 3315 
Q 1072 3584 1716 3584 
Q 2034 3584 2315 3537 
Q 2597 3491 2834 3397 
z
" transform="scale(0.015625)"/>
      <path id="DejaVuSans-68" d="M 3513 2113 
L 3513 0 
L 2938 0 
L 2938 2094 
Q 2938 2591 2744 2837 
Q 2550 3084 2163 3084 
Q 1697 3084 1428 2787 
Q 1159 2491 1159 1978 
L 1159 0 
L 581 0 
L 581 4863 
L 1159 4863 
L 1159 2956 
Q 1366 3272 1645 3428 
Q 1925 3584 2291 3584 
Q 2894 3584 3203 3211 
Q 3513 2838 3513 2113 
z
" transform="scale(0.015625)"/>
      <path id="DejaVuSans-63" d="M 3122 3366 
L 3122 2828 
Q 2878 2963 2633 3030 
Q 2388 3097 2138 3097 
Q 1578 3097 1268 2742 
Q 959 2388 959 1747 
Q 959 1106 1268 751 
Q 1578 397 2138 397 
Q 2388 397 2633 464 
Q 2878 531 3122 666 
L 3122 134 
Q 2881 22 2623 -34 
Q 2366 -91 2075 -91 
Q 1284 -91 818 406 
Q 353 903 353 1747 
Q 353 2603 823 3093 
Q 1294 3584 2113 3584 
Q 2378 3584 2631 3529 
Q 2884 3475 3122 3366 
z
" transform="scale(0.015625)"/>
      <path id="DejaVuSans-6d" d="M 3328 2828 
Q 3544 3216 3844 3400 
Q 4144 3584 4550 3584 
Q 5097 3584 5394 3201 
Q 5691 2819 5691 2113 
L 5691 0 
L 5113 0 
L 5113 2094 
Q 5113 2597 4934 2840 
Q 4756 3084 4391 3084 
Q 3944 3084 3684 2787 
Q 3425 2491 3425 1978 
L 3425 0 
L 2847 0 
L 2847 2094 
Q 2847 2600 2669 2842 
Q 2491 3084 2119 3084 
Q 1678 3084 1418 2786 
Q 1159 2488 1159 1978 
L 1159 0 
L 581 0 
L 581 3500 
L 1159 3500 
L 1159 2956 
Q 1356 3278 1631 3431 
Q 1906 3584 2284 3584 
Q 2666 3584 2933 3390 
Q 3200 3197 3328 2828 
z
" transform="scale(0.015625)"/>
      <path id="DejaVuSans-70" d="M 1159 525 
L 1159 -1331 
L 581 -1331 
L 581 3500 
L 1159 3500 
L 1159 2969 
Q 1341 3281 1617 3432 
Q 1894 3584 2278 3584 
Q 2916 3584 3314 3078 
Q 3713 2572 3713 1747 
Q 3713 922 3314 415 
Q 2916 -91 2278 -91 
Q 1894 -91 1617 61 
Q 1341 213 1159 525 
z
M 3116 1747 
Q 3116 2381 2855 2742 
Q 2594 3103 2138 3103 
Q 1681 3103 1420 2742 
Q 1159 2381 1159 1747 
Q 1159 1113 1420 752 
Q 1681 391 2138 391 
Q 2594 391 2855 752 
Q 3116 1113 3116 1747 
z
" transform="scale(0.015625)"/>
      <path id="DejaVuSans-75" d="M 544 1381 
L 544 3500 
L 1119 3500 
L 1119 1403 
Q 1119 906 1312 657 
Q 1506 409 1894 409 
Q 2359 409 2629 706 
Q 2900 1003 2900 1516 
L 2900 3500 
L 3475 3500 
L 3475 0 
L 2900 0 
L 2900 538 
Q 2691 219 2414 64 
Q 2138 -91 1772 -91 
Q 1169 -91 856 284 
Q 544 659 544 1381 
z
M 1991 3584 
L 1991 3584 
z
" transform="scale(0.015625)"/>
      <path id="DejaVuSans-72" d="M 2631 2963 
Q 2534 3019 2420 3045 
Q 2306 3072 2169 3072 
Q 1681 3072 1420 2755 
Q 1159 2438 1159 1844 
L 1159 0 
L 581 0 
L 581 3500 
L 1159 3500 
L 1159 2956 
Q 1341 3275 1631 3429 
Q 1922 3584 2338 3584 
Q 2397 3584 2469 3576 
Q 2541 3569 2628 3553 
L 2631 2963 
z
" transform="scale(0.015625)"/>
      <path id="DejaVuSans-27" d="M 1147 4666 
L 1147 2931 
L 616 2931 
L 616 4666 
L 1147 4666 
z
" transform="scale(0.015625)"/>
     </defs>
     <use xlink:href="#DejaVuSans-6f"/>
     <use xlink:href="#DejaVuSans-6e" transform="translate(61.181641 0)"/>
     <use xlink:href="#DejaVuSans-65" transform="translate(124.560547 0)"/>
     <use xlink:href="#DejaVuSans-20" transform="translate(186.083984 0)"/>
     <use xlink:href="#DejaVuSans-6c" transform="translate(217.871094 0)"/>
     <use xlink:href="#DejaVuSans-69" transform="translate(245.654297 0)"/>
     <use xlink:href="#DejaVuSans-6e" transform="translate(273.4375 0)"/>
     <use xlink:href="#DejaVuSans-65" transform="translate(336.816406 0)"/>
     <use xlink:href="#DejaVuSans-20" transform="translate(398.339844 0)"/>
     <use xlink:href="#DejaVuSans-6f" transform="translate(430.126953 0)"/>
     <use xlink:href="#DejaVuSans-66" transform="translate(491.308594 0)"/>
     <use xlink:href="#DejaVuSans-20" transform="translate(526.513672 0)"/>
     <use xlink:href="#DejaVuSans-74" transform="translate(558.300781 0)"/>
     <use xlink:href="#DejaVuSans-65" transform="translate(597.509766 0)"/>
     <use xlink:href="#DejaVuSans-78" transform="translate(657.283203 0)"/>
     <use xlink:href="#DejaVuSans-74" transform="translate(716.462891 0)"/>
     <use xlink:href="#DejaVuSans-2c" transform="translate(755.671875 0)"/>
     <use xlink:href="#DejaVuSans-20" transform="translate(787.458984 0)"/>
     <use xlink:href="#DejaVuSans-73" transform="translate(819.246094 0)"/>
     <use xlink:href="#DejaVuSans-69" transform="translate(871.345703 0)"/>
     <use xlink:href="#DejaVuSans-78" transform="translate(899.128906 0)"/>
     <use xlink:href="#DejaVuSans-20" transform="translate(958.308594 0)"/>
     <use xlink:href="#DejaVuSans-6f" transform="translate(990.095703 0)"/>
     <use xlink:href="#DejaVuSans-66" transform="translate(1051.277344 0)"/>
     <use xlink:href="#DejaVuSans-20" transform="translate(1086.482422 0)"/>
     <use xlink:href="#DejaVuSans-74" transform="translate(1118.269531 0)"/>
     <use xlink:href="#DejaVuSans-68" transform="translate(1157.478516 0)"/>
     <use xlink:href="#DejaVuSans-65" transform="translate(1220.857422 0)"/>
     <use xlink:href="#DejaVuSans-20" transform="translate(1282.380859 0)"/>
     <use xlink:href="#DejaVuSans-63" transform="translate(1314.167969 0)"/>
     <use xlink:href="#DejaVuSans-6f" transform="translate(1369.148438 0)"/>
     <use xlink:href="#DejaVuSans-6d" transform="translate(1430.330078 0)"/>
     <use xlink:href="#DejaVuSans-70" transform="translate(1527.742188 0)"/>
     <use xlink:href="#DejaVuSans-75" transform="translate(1591.21875 0)"/>
     <use xlink:href="#DejaVuSans-74" transform="translate(1654.597656 0)"/>
     <use xlink:href="#DejaVuSans-65" transform="translate(1693.806641 0)"/>
     <use xlink:href="#DejaVuSans-72" transform="translate(1755.330078 0)"/>
     <use xlink:href="#DejaVuSans-27" transform="translate(1796.443359 0)"/>
     <use xlink:href="#DejaVuSans-73" transform="translate(1823.933594 0)"/>
     <use xlink:href="#DejaVuSans-20" transform="translate(1876.033203 0)"/>
     <use xlink:href="#DejaVuSans-66" transform="translate(1907.820312 0)"/>
     <use xlink:href="#DejaVuSans-6f" transform="translate(1943.025391 0)"/>
     <use xlink:href="#DejaVuSans-6e" transform="translate(2004.207031 0)"/>
     <use xlink:href="#DejaVuSans-74" transform="translate(2067.585938 0)"/>
     <use xlink:href="#DejaVuSans-73" transform="translate(2106.794922 0)"/>
    </g>
   </g>
  </g>
 </g>
</svg>
