<?xml version="1.0" encoding="utf-8" standalone="no"?>
<!DOCTYPE svg PUBLIC "-//W3C//DTD SVG 1.1//EN"
  "http://www.w3.org/Graphics/SVG/1.1/DTD/svg11.dtd">
<svg xmlns:xlink="http://www.w3.org/1999/xlink" width="348.150048pt" height="290.56035pt" viewBox="0 0 348.150048 290.56035" xmlns="http://www.w3.org/2000/svg" version="1.1">
 <metadata>
  <rdf:RDF xmlns:dc="http://purl.org/dc/elements/1.1/" xmlns:cc="http://creativecommons.org/ns#" xmlns:rdf="http://www.w3.org/1999/02/22-rdf-syntax-ns#">
   <cc:Work>
    <dc:type rdf:resource="http://purl.org/dc/dcmitype/StillImage"/>
    <dc:date>2026-07-15T08:58:13.821659</dc:date>
    <dc:format>image/svg+xml</dc:format>
    <dc:creator>
     <cc:Agent>
      <dc:title>Matplotlib v3.10.8, https://matplotlib.org/</dc:title>
     </cc:Agent>
    </dc:creator>
   </cc:Work>
  </rdf:RDF>
 </metadata>
 <defs>
  <style type="text/css">*{stroke-linejoin: round; stroke-linecap: butt}</style>
 </defs>
 <g id="figure_1">
  <g id="patch_1">
   <path d="M 0 290.56035 
L 348.150048 290.56035 
L 348.150048 0 
L 0 0 
z
" style="fill: #ffffff"/>
  </g>
  <g id="axes_1">
   <g id="patch_2">
    <path d="M 46.327125 250.3101 
L 334.730562 250.3101 
L 334.730562 26.3301 
L 46.327125 26.3301 
z
" style="fill: #ffffff"/>
   </g>
   <g id="matplotlib.axis_1">
    <g id="xtick_1">
     <g id="line2d_1"/>
     <g id="text_1">
      <!-- −7.5 -->
      <g transform="translate(47.951051 262.928225) scale(0.12 -0.12)">
       <defs>
        <path id="DejaVuSans-2212" d="M 678 2272 
L 4684 2272 
L 4684 1741 
L 678 1741 
L 678 2272 
z
" transform="scale(0.015625)"/>
        <path id="DejaVuSans-37" d="M 525 4666 
L 3525 4666 
L 3525 4397 
L 1831 0 
L 1172 0 
L 2766 4134 
L 525 4134 
L 525 4666 
z
" transform="scale(0.015625)"/>
        <path id="DejaVuSans-2e" d="M 684 794 
L 1344 794 
L 1344 0 
L 684 0 
L 684 794 
z
" transform="scale(0.015625)"/>
        <path id="DejaVuSans-35" d="M 691 4666 
L 3169 4666 
L 3169 4134 
L 1269 4134 
L 1269 2991 
Q 1406 3038 1543 3061 
Q 1681 3084 1819 3084 
Q 2600 3084 3056 2656 
Q 3513 2228 3513 1497 
Q 3513 744 3044 326 
Q 2575 -91 1722 -91 
Q 1428 -91 1123 -41 
Q 819 9 494 109 
L 494 744 
Q 775 591 1075 516 
Q 1375 441 1709 441 
Q 2250 441 2565 725 
Q 2881 1009 2881 1497 
Q 2881 1984 2565 2268 
Q 2250 2553 1709 2553 
Q 1456 2553 1204 2497 
Q 953 2441 691 2322 
L 691 4666 
z
" transform="scale(0.015625)"/>
       </defs>
       <use xlink:href="#DejaVuSans-2212"/>
       <use xlink:href="#DejaVuSans-37" transform="translate(83.789062 0)"/>
       <use xlink:href="#DejaVuSans-2e" transform="translate(147.412109 0)"/>
       <use xlink:href="#DejaVuSans-35" transform="translate(179.199219 0)"/>
      </g>
     </g>
    </g>
    <g id="xtick_2">
     <g id="line2d_2"/>
     <g id="text_2">
      <!-- −5.0 -->
      <g transform="translate(92.765623 262.928225) scale(0.12 -0.12)">
       <defs>
        <path id="DejaVuSans-30" d="M 2034 4250 
Q 1547 4250 1301 3770 
Q 1056 3291 1056 2328 
Q 1056 1369 1301 889 
Q 1547 409 2034 409 
Q 2525 409 2770 889 
Q 3016 1369 3016 2328 
Q 3016 3291 2770 3770 
Q 2525 4250 2034 4250 
z
M 2034 4750 
Q 2819 4750 3233 4129 
Q 3647 3509 3647 2328 
Q 3647 1150 3233 529 
Q 2819 -91 2034 -91 
Q 1250 -91 836 529 
Q 422 1150 422 2328 
Q 422 3509 836 4129 
Q 1250 4750 2034 4750 
z
" transform="scale(0.015625)"/>
       </defs>
       <use xlink:href="#DejaVuSans-2212"/>
       <use xlink:href="#DejaVuSans-35" transform="translate(83.789062 0)"/>
       <use xlink:href="#DejaVuSans-2e" transform="translate(147.412109 0)"/>
       <use xlink:href="#DejaVuSans-30" transform="translate(179.199219 0)"/>
      </g>
     </g>
    </g>
    <g id="xtick_3">
     <g id="line2d_3"/>
     <g id="text_3">
      <!-- −2.5 -->
      <g transform="translate(137.580196 262.928225) scale(0.12 -0.12)">
       <defs>
        <path id="DejaVuSans-32" d="M 1228 531 
L 3431 531 
L 3431 0 
L 469 0 
L 469 531 
Q 828 903 1448 1529 
Q 2069 2156 2228 2338 
Q 2531 2678 2651 2914 
Q 2772 3150 2772 3378 
Q 2772 3750 2511 3984 
Q 2250 4219 1831 4219 
Q 1534 4219 1204 4116 
Q 875 4013 500 3803 
L 500 4441 
Q 881 4594 1212 4672 
Q 1544 4750 1819 4750 
Q 2544 4750 2975 4387 
Q 3406 4025 3406 3419 
Q 3406 3131 3298 2873 
Q 3191 2616 2906 2266 
Q 2828 2175 2409 1742 
Q 1991 1309 1228 531 
z
" transform="scale(0.015625)"/>
       </defs>
       <use xlink:href="#DejaVuSans-2212"/>
       <use xlink:href="#DejaVuSans-32" transform="translate(83.789062 0)"/>
       <use xlink:href="#DejaVuSans-2e" transform="translate(147.412109 0)"/>
       <use xlink:href="#DejaVuSans-35" transform="translate(179.199219 0)"/>
      </g>
     </g>
    </g>
    <g id="xtick_4">
     <g id="line2d_4"/>
     <g id="text_4">
      <!-- 0.0 -->
      <g transform="translate(187.422581 262.928225) scale(0.12 -0.12)">
       <use xlink:href="#DejaVuSans-30"/>
       <use xlink:href="#DejaVuSans-2e" transform="translate(63.623047 0)"/>
       <use xlink:href="#DejaVuSans-30" transform="translate(95.410156 0)"/>
      </g>
     </g>
    </g>
    <g id="xtick_5">
     <g id="line2d_5"/>
     <g id="text_5">
      <!-- 2.5 -->
      <g transform="translate(232.237153 262.928225) scale(0.12 -0.12)">
       <use xlink:href="#DejaVuSans-32"/>
       <use xlink:href="#DejaVuSans-2e" transform="translate(63.623047 0)"/>
       <use xlink:href="#DejaVuSans-35" transform="translate(95.410156 0)"/>
      </g>
     </g>
    </g>
    <g id="xtick_6">
     <g id="line2d_6"/>
     <g id="text_6">
      <!-- 5.0 -->
      <g transform="translate(277.051726 262.928225) scale(0.12 -0.12)">
       <use xlink:href="#DejaVuSans-35"/>
       <use xlink:href="#DejaVuSans-2e" transform="translate(63.623047 0)"/>
       <use xlink:href="#DejaVuSans-30" transform="translate(95.410156 0)"/>
      </g>
     </g>
    </g>
    <g id="xtick_7">
     <g id="line2d_7"/>
     <g id="text_7">
      <!-- 7.5 -->
      <g transform="translate(321.866298 262.928225) scale(0.12 -0.12)">
       <use xlink:href="#DejaVuSans-37"/>
       <use xlink:href="#DejaVuSans-2e" transform="translate(63.623047 0)"/>
       <use xlink:href="#DejaVuSans-35" transform="translate(95.410156 0)"/>
      </g>
     </g>
    </g>
    <g id="text_8">
     <!-- $x_0$ -->
     <g transform="translate(182.824843 280.3656) scale(0.144 -0.144)">
      <defs>
       <path id="DejaVuSans-Oblique-78" d="M 3841 3500 
L 2234 1784 
L 3219 0 
L 2559 0 
L 1819 1388 
L 531 0 
L -166 0 
L 1556 1844 
L 641 3500 
L 1300 3500 
L 1972 2234 
L 3144 3500 
L 3841 3500 
z
" transform="scale(0.015625)"/>
      </defs>
      <use xlink:href="#DejaVuSans-Oblique-78" transform="translate(0 0.3125)"/>
      <use xlink:href="#DejaVuSans-30" transform="translate(59.179688 -16.09375) scale(0.7)"/>
     </g>
    </g>
   </g>
   <g id="matplotlib.axis_2">
    <g id="ytick_1">
     <g id="line2d_8"/>
     <g id="text_9">
      <!-- −4 -->
      <g transform="translate(25.1365 228.366793) scale(0.12 -0.12)">
       <defs>
        <path id="DejaVuSans-34" d="M 2419 4116 
L 825 1625 
L 2419 1625 
L 2419 4116 
z
M 2253 4666 
L 3047 4666 
L 3047 1625 
L 3713 1625 
L 3713 1100 
L 3047 1100 
L 3047 0 
L 2419 0 
L 2419 1100 
L 313 1100 
L 313 1709 
L 2253 4666 
z
" transform="scale(0.015625)"/>
       </defs>
       <use xlink:href="#DejaVuSans-2212"/>
       <use xlink:href="#DejaVuSans-34" transform="translate(83.789062 0)"/>
      </g>
     </g>
    </g>
    <g id="ytick_2">
     <g id="line2d_9"/>
     <g id="text_10">
      <!-- −2 -->
      <g transform="translate(25.1365 179.708348) scale(0.12 -0.12)">
       <use xlink:href="#DejaVuSans-2212"/>
       <use xlink:href="#DejaVuSans-32" transform="translate(83.789062 0)"/>
      </g>
     </g>
    </g>
    <g id="ytick_3">
     <g id="line2d_10"/>
     <g id="text_11">
      <!-- 0 -->
      <g transform="translate(35.192125 131.049903) scale(0.12 -0.12)">
       <use xlink:href="#DejaVuSans-30"/>
      </g>
     </g>
    </g>
    <g id="ytick_4">
     <g id="line2d_11"/>
     <g id="text_12">
      <!-- 2 -->
      <g transform="translate(35.192125 82.391459) scale(0.12 -0.12)">
       <use xlink:href="#DejaVuSans-32"/>
      </g>
     </g>
    </g>
    <g id="ytick_5">
     <g id="line2d_12"/>
     <g id="text_13">
      <!-- 4 -->
      <g transform="translate(35.192125 33.733014) scale(0.12 -0.12)">
       <use xlink:href="#DejaVuSans-34"/>
      </g>
     </g>
    </g>
    <g id="text_14">
     <!-- $x_1$ -->
     <g transform="translate(18.14175 146.0241) rotate(-90) scale(0.144 -0.144)">
      <defs>
       <path id="DejaVuSans-31" d="M 794 531 
L 1825 531 
L 1825 4091 
L 703 3866 
L 703 4441 
L 1819 4666 
L 2450 4666 
L 2450 531 
L 3481 531 
L 3481 0 
L 794 0 
L 794 531 
z
" transform="scale(0.015625)"/>
      </defs>
      <use xlink:href="#DejaVuSans-Oblique-78" transform="translate(0 0.3125)"/>
      <use xlink:href="#DejaVuSans-31" transform="translate(59.179688 -16.09375) scale(0.7)"/>
     </g>
    </g>
   </g>
   <g id="QuadContourSet_1">
    <path d="M 47.776389 173.211457 
L 48.50102 172.648693 
L 49.225652 172.085929 
L 50.674916 172.085929 
L 51.399547 171.523165 
L 52.124179 170.960402 
L 53.573443 170.960402 
L 54.298074 170.397638 
L 55.022706 169.834874 
L 56.47197 169.834874 
L 57.196601 169.27211 
L 57.921233 168.709346 
L 59.370497 168.709346 
L 60.81976 168.709346 
L 61.544392 168.146582 
L 62.269024 167.583819 
L 63.718287 167.583819 
L 64.442919 167.021055 
L 65.167551 166.458291 
L 66.616814 166.458291 
L 67.341446 165.895527 
L 68.066078 165.332763 
L 69.515341 165.332763 
L 70.239973 164.769999 
L 70.964605 164.207236 
L 72.413868 164.207236 
L 73.863132 164.207236 
L 74.587763 163.644472 
L 75.312395 163.081708 
L 76.761659 163.081708 
L 77.48629 162.518944 
L 78.210922 161.95618 
L 79.660186 161.95618 
L 80.384817 161.393417 
L 81.109449 160.830653 
L 82.558713 160.830653 
L 83.283344 160.267889 
L 84.007976 159.705125 
L 85.45724 159.705125 
L 86.906503 159.705125 
L 87.631135 159.142361 
L 88.355767 158.579597 
L 89.80503 158.579597 
L 90.529662 158.016834 
L 91.254294 157.45407 
L 92.703557 157.45407 
L 93.428189 156.891306 
L 94.152821 156.328542 
L 95.602084 156.328542 
L 96.326716 155.765778 
L 97.051348 155.203015 
L 98.500611 155.203015 
L 99.949875 155.203015 
L 100.674506 154.640251 
L 101.399138 154.077487 
L 102.848402 154.077487 
L 103.573033 153.514723 
L 104.297665 152.951959 
L 105.746929 152.951959 
L 106.47156 152.389195 
L 107.196192 151.826432 
L 108.645456 151.826432 
L 109.370087 151.263668 
L 110.094719 150.700904 
L 111.543983 150.700904 
L 112.993246 150.700904 
L 113.717878 150.13814 
L 114.44251 149.575376 
L 115.891773 149.575376 
L 116.616405 149.012613 
L 117.341037 148.449849 
L 118.7903 148.449849 
L 119.514932 147.887085 
L 120.239564 147.324321 
L 121.688827 147.324321 
L 122.413459 146.761557 
L 123.138091 146.198793 
L 124.587354 146.198793 
L 126.036618 146.198793 
L 126.761249 145.63603 
L 127.485881 145.073266 
L 128.935145 145.073266 
L 129.659776 144.510502 
L 130.384408 143.947738 
L 131.833672 143.947738 
L 132.558303 143.384974 
L 133.282935 142.822211 
L 134.732199 142.822211 
L 135.45683 142.259447 
L 136.181462 141.696683 
L 137.630726 141.696683 
L 138.355357 141.133919 
L 139.079989 140.571155 
L 140.529253 140.571155 
L 141.978516 140.571155 
L 142.703148 140.008391 
L 143.42778 139.445628 
L 144.877043 139.445628 
L 145.601675 138.882864 
L 146.326307 138.3201 
L 147.77557 138.3201 
L 148.500202 137.757336 
L 149.224834 137.194572 
L 150.674097 137.194572 
L 151.398729 136.631809 
L 152.123361 136.069045 
L 153.572624 136.069045 
L 155.021888 136.069045 
L 155.746519 135.506281 
L 156.471151 134.943517 
L 157.920415 134.943517 
L 158.645046 134.380753 
L 159.369678 133.817989 
L 160.818942 133.817989 
L 161.543573 133.255226 
L 162.268205 132.692462 
L 163.717469 132.692462 
L 164.4421 132.129698 
L 165.166732 131.566934 
L 166.615996 131.566934 
L 168.065259 131.566934 
L 168.789891 131.00417 
L 169.514523 130.441407 
L 170.963786 130.441407 
L 171.688418 129.878643 
L 172.41305 129.315879 
L 173.862313 129.315879 
L 174.586945 128.753115 
L 175.311577 128.190351 
L 176.76084 128.190351 
L 177.485472 127.627587 
L 178.210104 127.064824 
L 179.659367 127.064824 
L 181.108631 127.064824 
L 182.557894 127.064824 
L 184.007158 127.064824 
L 185.456421 127.064824 
L 185.697965 126.50206 
L 186.905685 125.56412 
L 187.147229 125.376532 
L 187.147229 124.251005 
L 187.147229 123.125477 
L 187.147229 121.999949 
L 187.147229 120.874422 
L 188.354948 119.936482 
L 188.596492 119.748894 
L 188.596492 118.623366 
L 188.596492 117.497839 
L 188.354948 117.216457 
L 187.268 116.372311 
L 187.268 115.246783 
L 186.905685 114.965402 
L 185.818737 114.121256 
L 185.456421 113.839874 
L 184.369473 112.995728 
L 184.369473 111.870201 
L 184.007158 111.588819 
L 182.92021 110.744673 
L 182.92021 109.619145 
L 182.92021 108.493618 
L 182.557894 108.212236 
L 181.470946 107.36809 
L 181.470946 106.242562 
L 181.470946 105.117035 
L 181.108631 104.835653 
L 180.021683 103.991507 
L 180.021683 102.865979 
L 180.021683 101.740452 
L 179.659367 101.45907 
L 178.572419 100.614924 
L 178.572419 99.489396 
L 178.210104 99.208015 
L 177.123156 98.363869 
L 177.123156 97.238341 
L 177.123156 96.112814 
L 176.76084 95.831432 
L 175.673892 94.987286 
L 175.673892 93.861758 
L 175.673892 92.736231 
L 175.311577 92.454849 
L 174.224629 91.610703 
L 174.224629 90.485175 
L 174.224629 89.359648 
L 173.862313 89.078266 
L 172.775365 88.23412 
L 172.775365 87.108592 
L 172.41305 86.827211 
L 171.326102 85.983065 
L 171.326102 84.857537 
L 171.326102 83.73201 
L 170.963786 83.450628 
L 169.876838 82.606482 
L 169.876838 81.480954 
L 169.876838 80.355427 
L 169.514523 80.074045 
L 168.427575 79.229899 
L 168.427575 78.104371 
L 168.427575 76.978844 
L 168.065259 76.697462 
L 166.978311 75.853316 
L 166.978311 74.727788 
L 166.615996 74.446407 
L 165.529048 73.602261 
L 165.529048 72.476733 
L 165.529048 71.351206 
L 165.166732 71.069824 
L 164.079784 70.225678 
L 164.079784 69.10015 
L 164.079784 67.974623 
L 163.717469 67.693241 
L 162.630521 66.849095 
L 162.630521 65.723567 
L 162.630521 64.59804 
L 162.268205 64.316658 
L 161.181257 63.472512 
L 161.181257 62.346984 
L 160.818942 62.065603 
L 159.731994 61.221457 
L 159.731994 60.095929 
L 159.731994 58.970402 
L 159.369678 58.68902 
L 158.28273 57.844874 
L 158.28273 56.719346 
L 158.28273 55.593819 
L 157.920415 55.312437 
L 156.833467 54.468291 
L 156.833467 53.342763 
L 156.471151 53.061381 
L 155.384203 52.217236 
L 155.384203 51.091708 
L 155.384203 49.96618 
L 155.021888 49.684798 
L 153.93494 48.840653 
L 153.93494 47.715125 
L 153.93494 46.589597 
L 153.572624 46.308216 
L 152.485676 45.46407 
L 152.485676 44.338542 
L 152.485676 43.213015 
L 152.123361 42.931633 
L 151.036413 42.087487 
L 151.036413 40.961959 
L 150.674097 40.680577 
L 149.587149 39.836432 
L 149.587149 38.710904 
L 149.587149 37.585376 
L 149.224834 37.303994 
L 148.137886 36.459849 
L 148.137886 35.334321 
L 148.137886 34.208793 
L 147.77557 33.927412 
L 146.688622 33.083266 
L 146.688622 31.957738 
L 146.688622 30.832211 
L 146.326307 30.550829 
L 145.239359 29.706683 
L 145.239359 28.581155 
L 144.877043 28.299773 
L 143.790095 27.455628 
L 143.790095 26.3301 
L 143.42778 26.3301 
L 141.978516 26.3301 
L 140.529253 26.3301 
L 139.079989 26.3301 
L 137.630726 26.3301 
L 136.181462 26.3301 
L 134.732199 26.3301 
L 133.282935 26.3301 
L 131.833672 26.3301 
L 130.384408 26.3301 
L 128.935145 26.3301 
L 127.485881 26.3301 
L 126.036618 26.3301 
L 124.587354 26.3301 
L 123.138091 26.3301 
L 121.688827 26.3301 
L 120.239564 26.3301 
L 118.7903 26.3301 
L 117.341037 26.3301 
L 115.891773 26.3301 
L 114.44251 26.3301 
L 112.993246 26.3301 
L 111.543983 26.3301 
L 110.094719 26.3301 
L 108.645456 26.3301 
L 107.196192 26.3301 
L 105.746929 26.3301 
L 104.297665 26.3301 
L 102.848402 26.3301 
L 101.399138 26.3301 
L 99.949875 26.3301 
L 98.500611 26.3301 
L 97.051348 26.3301 
L 95.602084 26.3301 
L 94.152821 26.3301 
L 92.703557 26.3301 
L 91.254294 26.3301 
L 89.80503 26.3301 
L 88.355767 26.3301 
L 86.906503 26.3301 
L 85.45724 26.3301 
L 84.007976 26.3301 
L 82.558713 26.3301 
L 81.109449 26.3301 
L 79.660186 26.3301 
L 78.210922 26.3301 
L 76.761659 26.3301 
L 75.312395 26.3301 
L 73.863132 26.3301 
L 72.413868 26.3301 
L 70.964605 26.3301 
L 69.515341 26.3301 
L 68.066078 26.3301 
L 66.616814 26.3301 
L 65.167551 26.3301 
L 63.718287 26.3301 
L 62.269024 26.3301 
L 60.81976 26.3301 
L 59.370497 26.3301 
L 57.921233 26.3301 
L 56.47197 26.3301 
L 55.022706 26.3301 
L 53.573443 26.3301 
L 52.124179 26.3301 
L 50.674916 26.3301 
L 49.225652 26.3301 
L 47.776389 26.3301 
L 46.327125 26.3301 
L 46.327125 27.455628 
L 46.327125 28.581155 
L 46.327125 29.706683 
L 46.327125 30.832211 
L 46.327125 31.957738 
L 46.327125 33.083266 
L 46.327125 34.208793 
L 46.327125 35.334321 
L 46.327125 36.459849 
L 46.327125 37.585376 
L 46.327125 38.710904 
L 46.327125 39.836432 
L 46.327125 40.961959 
L 46.327125 42.087487 
L 46.327125 43.213015 
L 46.327125 44.338542 
L 46.327125 45.46407 
L 46.327125 46.589597 
L 46.327125 47.715125 
L 46.327125 48.840653 
L 46.327125 49.96618 
L 46.327125 51.091708 
L 46.327125 52.217236 
L 46.327125 53.342763 
L 46.327125 54.468291 
L 46.327125 55.593819 
L 46.327125 56.719346 
L 46.327125 57.844874 
L 46.327125 58.970402 
L 46.327125 60.095929 
L 46.327125 61.221457 
L 46.327125 62.346984 
L 46.327125 63.472512 
L 46.327125 64.59804 
L 46.327125 65.723567 
L 46.327125 66.849095 
L 46.327125 67.974623 
L 46.327125 69.10015 
L 46.327125 70.225678 
L 46.327125 71.351206 
L 46.327125 72.476733 
L 46.327125 73.602261 
L 46.327125 74.727788 
L 46.327125 75.853316 
L 46.327125 76.978844 
L 46.327125 78.104371 
L 46.327125 79.229899 
L 46.327125 80.355427 
L 46.327125 81.480954 
L 46.327125 82.606482 
L 46.327125 83.73201 
L 46.327125 84.857537 
L 46.327125 85.983065 
L 46.327125 87.108592 
L 46.327125 88.23412 
L 46.327125 89.359648 
L 46.327125 90.485175 
L 46.327125 91.610703 
L 46.327125 92.736231 
L 46.327125 93.861758 
L 46.327125 94.987286 
L 46.327125 96.112814 
L 46.327125 97.238341 
L 46.327125 98.363869 
L 46.327125 99.489396 
L 46.327125 100.614924 
L 46.327125 101.740452 
L 46.327125 102.865979 
L 46.327125 103.991507 
L 46.327125 105.117035 
L 46.327125 106.242562 
L 46.327125 107.36809 
L 46.327125 108.493618 
L 46.327125 109.619145 
L 46.327125 110.744673 
L 46.327125 111.870201 
L 46.327125 112.995728 
L 46.327125 114.121256 
L 46.327125 115.246783 
L 46.327125 116.372311 
L 46.327125 117.497839 
L 46.327125 118.623366 
L 46.327125 119.748894 
L 46.327125 120.874422 
L 46.327125 121.999949 
L 46.327125 123.125477 
L 46.327125 124.251005 
L 46.327125 125.376532 
L 46.327125 126.50206 
L 46.327125 127.627587 
L 46.327125 128.753115 
L 46.327125 129.878643 
L 46.327125 131.00417 
L 46.327125 132.129698 
L 46.327125 133.255226 
L 46.327125 134.380753 
L 46.327125 135.506281 
L 46.327125 136.631809 
L 46.327125 137.757336 
L 46.327125 138.882864 
L 46.327125 140.008391 
L 46.327125 141.133919 
L 46.327125 142.259447 
L 46.327125 143.384974 
L 46.327125 144.510502 
L 46.327125 145.63603 
L 46.327125 146.761557 
L 46.327125 147.887085 
L 46.327125 149.012613 
L 46.327125 150.13814 
L 46.327125 151.263668 
L 46.327125 152.389195 
L 46.327125 153.514723 
L 46.327125 154.640251 
L 46.327125 155.765778 
L 46.327125 156.891306 
L 46.327125 158.016834 
L 46.327125 159.142361 
L 46.327125 160.267889 
L 46.327125 161.393417 
L 46.327125 162.518944 
L 46.327125 163.644472 
L 46.327125 164.769999 
L 46.327125 165.895527 
L 46.327125 167.021055 
L 46.327125 168.146582 
L 46.327125 169.27211 
L 46.327125 170.397638 
L 46.327125 171.523165 
L 46.327125 172.648693 
L 46.327125 173.211457 
z
" clip-path="url(#p90a98ed783)" style="fill: #0096ff; fill-opacity: 0.15"/>
    <path d="M 47.776389 250.3101 
L 49.225652 250.3101 
L 50.674916 250.3101 
L 52.124179 250.3101 
L 53.573443 250.3101 
L 55.022706 250.3101 
L 56.47197 250.3101 
L 57.921233 250.3101 
L 59.370497 250.3101 
L 60.81976 250.3101 
L 62.269024 250.3101 
L 63.718287 250.3101 
L 65.167551 250.3101 
L 66.616814 250.3101 
L 68.066078 250.3101 
L 69.515341 250.3101 
L 70.964605 250.3101 
L 72.413868 250.3101 
L 73.863132 250.3101 
L 75.312395 250.3101 
L 76.761659 250.3101 
L 78.210922 250.3101 
L 79.660186 250.3101 
L 81.109449 250.3101 
L 82.558713 250.3101 
L 84.007976 250.3101 
L 85.45724 250.3101 
L 86.906503 250.3101 
L 88.355767 250.3101 
L 89.80503 250.3101 
L 91.254294 250.3101 
L 92.703557 250.3101 
L 94.152821 250.3101 
L 95.602084 250.3101 
L 97.051348 250.3101 
L 98.500611 250.3101 
L 99.949875 250.3101 
L 101.399138 250.3101 
L 102.848402 250.3101 
L 104.297665 250.3101 
L 105.746929 250.3101 
L 107.196192 250.3101 
L 108.645456 250.3101 
L 110.094719 250.3101 
L 111.543983 250.3101 
L 112.993246 250.3101 
L 114.44251 250.3101 
L 115.891773 250.3101 
L 117.341037 250.3101 
L 118.7903 250.3101 
L 120.239564 250.3101 
L 121.688827 250.3101 
L 123.138091 250.3101 
L 124.587354 250.3101 
L 126.036618 250.3101 
L 127.485881 250.3101 
L 128.935145 250.3101 
L 130.384408 250.3101 
L 131.833672 250.3101 
L 133.282935 250.3101 
L 134.732199 250.3101 
L 136.181462 250.3101 
L 137.630726 250.3101 
L 139.079989 250.3101 
L 140.529253 250.3101 
L 141.978516 250.3101 
L 143.42778 250.3101 
L 144.877043 250.3101 
L 146.326307 250.3101 
L 147.77557 250.3101 
L 149.224834 250.3101 
L 150.674097 250.3101 
L 152.123361 250.3101 
L 153.572624 250.3101 
L 155.021888 250.3101 
L 156.471151 250.3101 
L 157.920415 250.3101 
L 159.369678 250.3101 
L 160.818942 250.3101 
L 162.268205 250.3101 
L 163.717469 250.3101 
L 165.166732 250.3101 
L 166.615996 250.3101 
L 168.065259 250.3101 
L 169.514523 250.3101 
L 170.963786 250.3101 
L 172.41305 250.3101 
L 173.862313 250.3101 
L 175.311577 250.3101 
L 176.76084 250.3101 
L 178.210104 250.3101 
L 179.659367 250.3101 
L 181.108631 250.3101 
L 182.557894 250.3101 
L 184.007158 250.3101 
L 185.456421 250.3101 
L 186.905685 250.3101 
L 188.354948 250.3101 
L 189.804212 250.3101 
L 191.253475 250.3101 
L 192.702739 250.3101 
L 194.152002 250.3101 
L 195.601266 250.3101 
L 197.050529 250.3101 
L 198.499793 250.3101 
L 199.949056 250.3101 
L 201.39832 250.3101 
L 202.847583 250.3101 
L 204.296847 250.3101 
L 205.74611 250.3101 
L 207.195374 250.3101 
L 208.644637 250.3101 
L 210.093901 250.3101 
L 211.543164 250.3101 
L 212.992428 250.3101 
L 214.441691 250.3101 
L 215.890955 250.3101 
L 217.340218 250.3101 
L 218.789482 250.3101 
L 220.238745 250.3101 
L 221.688009 250.3101 
L 223.137272 250.3101 
L 224.586536 250.3101 
L 226.035799 250.3101 
L 227.485063 250.3101 
L 228.934326 250.3101 
L 230.38359 250.3101 
L 231.832853 250.3101 
L 233.282117 250.3101 
L 234.73138 250.3101 
L 236.180644 250.3101 
L 237.629907 250.3101 
L 239.079171 250.3101 
L 240.528434 250.3101 
L 241.977698 250.3101 
L 243.426961 250.3101 
L 244.876225 250.3101 
L 246.325488 250.3101 
L 247.774752 250.3101 
L 249.224015 250.3101 
L 250.673279 250.3101 
L 252.122542 250.3101 
L 253.571806 250.3101 
L 255.021069 250.3101 
L 256.470333 250.3101 
L 257.919596 250.3101 
L 259.36886 250.3101 
L 260.818123 250.3101 
L 262.267387 250.3101 
L 263.71665 250.3101 
L 265.165914 250.3101 
L 266.615177 250.3101 
L 268.064441 250.3101 
L 269.513704 250.3101 
L 270.962968 250.3101 
L 272.412231 250.3101 
L 273.861495 250.3101 
L 275.310758 250.3101 
L 276.760022 250.3101 
L 278.209285 250.3101 
L 279.658549 250.3101 
L 281.107812 250.3101 
L 281.470128 250.3101 
L 281.107812 250.028718 
L 280.020865 249.184572 
L 280.020865 248.059045 
L 279.658549 247.777663 
L 278.571601 246.933517 
L 278.571601 245.807989 
L 278.209285 245.526608 
L 277.122338 244.682462 
L 276.760022 244.40108 
L 275.673074 243.556934 
L 275.673074 242.431407 
L 275.310758 242.150025 
L 274.223811 241.305879 
L 274.223811 240.180351 
L 273.861495 239.898969 
L 272.774547 239.054824 
L 272.412231 238.773442 
L 271.325284 237.929296 
L 271.325284 236.803768 
L 270.962968 236.522386 
L 269.87602 235.678241 
L 269.87602 234.552713 
L 269.513704 234.271331 
L 268.426757 233.427185 
L 268.064441 233.145804 
L 266.977493 232.301658 
L 266.977493 231.17613 
L 266.615177 230.894748 
L 265.52823 230.050603 
L 265.52823 228.925075 
L 265.165914 228.643693 
L 264.078966 227.799547 
L 263.71665 227.518165 
L 262.629703 226.67402 
L 262.629703 225.548492 
L 262.267387 225.26711 
L 261.180439 224.422964 
L 261.180439 223.297437 
L 260.818123 223.016055 
L 259.731176 222.171909 
L 259.36886 221.890527 
L 258.281912 221.046381 
L 258.281912 219.920854 
L 257.919596 219.639472 
L 256.832649 218.795326 
L 256.832649 217.669798 
L 256.470333 217.388417 
L 255.383385 216.544271 
L 255.021069 216.262889 
L 253.934122 215.418743 
L 253.934122 214.293216 
L 253.571806 214.011834 
L 252.484858 213.167688 
L 252.484858 212.04216 
L 252.122542 211.760778 
L 251.035595 210.916633 
L 250.673279 210.635251 
L 249.586331 209.791105 
L 249.586331 208.665577 
L 249.224015 208.384195 
L 248.137068 207.54005 
L 248.137068 206.414522 
L 247.774752 206.13314 
L 246.687804 205.288994 
L 246.325488 205.007613 
L 245.238541 204.163467 
L 245.238541 203.037939 
L 244.876225 202.756557 
L 243.789277 201.912412 
L 243.426961 201.63103 
L 242.340014 200.786884 
L 242.340014 199.661356 
L 241.977698 199.379974 
L 240.89075 198.535829 
L 240.89075 197.410301 
L 240.528434 197.128919 
L 239.441487 196.284773 
L 239.079171 196.003391 
L 237.992223 195.159246 
L 237.992223 194.033718 
L 237.629907 193.752336 
L 236.54296 192.90819 
L 236.54296 191.782663 
L 236.180644 191.501281 
L 235.093696 190.657135 
L 234.73138 190.375753 
L 233.644433 189.531608 
L 233.644433 188.40608 
L 233.282117 188.124698 
L 232.195169 187.280552 
L 232.195169 186.155025 
L 231.832853 185.873643 
L 230.745906 185.029497 
L 230.38359 184.748115 
L 229.296642 183.903969 
L 229.296642 182.778442 
L 228.934326 182.49706 
L 227.847379 181.652914 
L 227.847379 180.527386 
L 227.485063 180.246005 
L 226.398115 179.401859 
L 226.035799 179.120477 
L 224.948852 178.276331 
L 224.948852 177.150804 
L 224.586536 176.869422 
L 223.499588 176.025276 
L 223.499588 174.899748 
L 223.137272 174.618366 
L 222.050325 173.774221 
L 221.688009 173.492839 
L 220.601061 172.648693 
L 220.601061 171.523165 
L 220.238745 171.241783 
L 219.151798 170.397638 
L 219.151798 169.27211 
L 218.789482 168.990728 
L 217.702534 168.146582 
L 217.340218 167.865201 
L 216.253271 167.021055 
L 216.253271 165.895527 
L 215.890955 165.614145 
L 214.804007 164.769999 
L 214.804007 163.644472 
L 214.441691 163.36309 
L 213.354744 162.518944 
L 212.992428 162.237562 
L 211.90548 161.393417 
L 211.90548 160.267889 
L 211.543164 159.986507 
L 210.456217 159.142361 
L 210.456217 158.016834 
L 210.093901 157.735452 
L 209.006953 156.891306 
L 208.644637 156.609924 
L 207.55769 155.765778 
L 207.55769 154.640251 
L 207.195374 154.358869 
L 206.108426 153.514723 
L 206.108426 152.389195 
L 205.74611 152.107814 
L 204.659163 151.263668 
L 204.296847 150.982286 
L 203.209899 150.13814 
L 203.209899 149.012613 
L 202.847583 148.731231 
L 201.760636 147.887085 
L 201.760636 146.761557 
L 201.39832 146.480175 
L 200.311372 145.63603 
L 199.949056 145.354648 
L 198.862108 144.510502 
L 198.862108 143.384974 
L 198.499793 143.103592 
L 197.412845 142.259447 
L 197.412845 141.133919 
L 197.050529 140.852537 
L 195.963581 140.008391 
L 195.601266 139.72701 
L 194.514318 138.882864 
L 194.514318 137.757336 
L 194.152002 137.475954 
L 193.065054 136.631809 
L 193.065054 135.506281 
L 192.702739 135.224899 
L 191.615791 134.380753 
L 191.253475 134.099371 
L 190.166527 133.255226 
L 190.166527 132.129698 
L 189.804212 131.848316 
L 188.717264 131.00417 
L 188.717264 129.878643 
L 188.354948 129.597261 
L 187.268 128.753115 
L 186.905685 128.471733 
L 185.818737 127.627587 
L 186.181053 126.50206 
L 186.905685 125.939296 
L 187.630316 125.376532 
L 187.630316 124.251005 
L 187.630316 123.125477 
L 187.630316 121.999949 
L 187.630316 120.874422 
L 188.354948 120.311658 
L 189.07958 119.748894 
L 189.07958 118.623366 
L 189.07958 117.497839 
L 188.354948 116.653693 
L 187.992632 116.372311 
L 187.992632 115.246783 
L 186.905685 114.402638 
L 186.543369 114.121256 
L 185.456421 113.27711 
L 185.094105 112.995728 
L 185.094105 111.870201 
L 184.007158 111.026055 
L 183.644842 110.744673 
L 183.644842 109.619145 
L 183.644842 108.493618 
L 182.557894 107.649472 
L 182.195578 107.36809 
L 182.195578 106.242562 
L 182.195578 105.117035 
L 181.108631 104.272889 
L 180.746315 103.991507 
L 180.746315 102.865979 
L 180.746315 101.740452 
L 179.659367 100.896306 
L 179.297051 100.614924 
L 179.297051 99.489396 
L 178.210104 98.645251 
L 177.847788 98.363869 
L 177.847788 97.238341 
L 177.847788 96.112814 
L 176.76084 95.268668 
L 176.398524 94.987286 
L 176.398524 93.861758 
L 176.398524 92.736231 
L 175.311577 91.892085 
L 174.949261 91.610703 
L 174.949261 90.485175 
L 174.949261 89.359648 
L 173.862313 88.515502 
L 173.499997 88.23412 
L 173.499997 87.108592 
L 172.41305 86.264447 
L 172.050734 85.983065 
L 172.050734 84.857537 
L 172.050734 83.73201 
L 170.963786 82.887864 
L 170.60147 82.606482 
L 170.60147 81.480954 
L 170.60147 80.355427 
L 169.514523 79.511281 
L 169.152207 79.229899 
L 169.152207 78.104371 
L 169.152207 76.978844 
L 168.065259 76.134698 
L 167.702943 75.853316 
L 167.702943 74.727788 
L 166.615996 73.883643 
L 166.25368 73.602261 
L 166.25368 72.476733 
L 166.25368 71.351206 
L 165.166732 70.50706 
L 164.804416 70.225678 
L 164.804416 69.10015 
L 164.804416 67.974623 
L 163.717469 67.130477 
L 163.355153 66.849095 
L 163.355153 65.723567 
L 163.355153 64.59804 
L 162.268205 63.753894 
L 161.905889 63.472512 
L 161.905889 62.346984 
L 160.818942 61.502839 
L 160.456626 61.221457 
L 160.456626 60.095929 
L 160.456626 58.970402 
L 159.369678 58.126256 
L 159.007362 57.844874 
L 159.007362 56.719346 
L 159.007362 55.593819 
L 157.920415 54.749673 
L 157.558099 54.468291 
L 157.558099 53.342763 
L 156.471151 52.498618 
L 156.108835 52.217236 
L 156.108835 51.091708 
L 156.108835 49.96618 
L 155.021888 49.122035 
L 154.659572 48.840653 
L 154.659572 47.715125 
L 154.659572 46.589597 
L 153.572624 45.745452 
L 153.210308 45.46407 
L 153.210308 44.338542 
L 153.210308 43.213015 
L 152.123361 42.368869 
L 151.761045 42.087487 
L 151.761045 40.961959 
L 150.674097 40.117814 
L 150.311781 39.836432 
L 150.311781 38.710904 
L 150.311781 37.585376 
L 149.224834 36.741231 
L 148.862518 36.459849 
L 148.862518 35.334321 
L 148.862518 34.208793 
L 147.77557 33.364648 
L 147.413254 33.083266 
L 147.413254 31.957738 
L 147.413254 30.832211 
L 146.326307 29.988065 
L 145.963991 29.706683 
L 145.963991 28.581155 
L 144.877043 27.73701 
L 144.514727 27.455628 
L 144.514727 26.3301 
L 143.790095 26.3301 
L 143.790095 27.455628 
L 144.877043 28.299773 
L 145.239359 28.581155 
L 145.239359 29.706683 
L 146.326307 30.550829 
L 146.688622 30.832211 
L 146.688622 31.957738 
L 146.688622 33.083266 
L 147.77557 33.927412 
L 148.137886 34.208793 
L 148.137886 35.334321 
L 148.137886 36.459849 
L 149.224834 37.303994 
L 149.587149 37.585376 
L 149.587149 38.710904 
L 149.587149 39.836432 
L 150.674097 40.680577 
L 151.036413 40.961959 
L 151.036413 42.087487 
L 152.123361 42.931633 
L 152.485676 43.213015 
L 152.485676 44.338542 
L 152.485676 45.46407 
L 153.572624 46.308216 
L 153.93494 46.589597 
L 153.93494 47.715125 
L 153.93494 48.840653 
L 155.021888 49.684798 
L 155.384203 49.96618 
L 155.384203 51.091708 
L 155.384203 52.217236 
L 156.471151 53.061381 
L 156.833467 53.342763 
L 156.833467 54.468291 
L 157.920415 55.312437 
L 158.28273 55.593819 
L 158.28273 56.719346 
L 158.28273 57.844874 
L 159.369678 58.68902 
L 159.731994 58.970402 
L 159.731994 60.095929 
L 159.731994 61.221457 
L 160.818942 62.065603 
L 161.181257 62.346984 
L 161.181257 63.472512 
L 162.268205 64.316658 
L 162.630521 64.59804 
L 162.630521 65.723567 
L 162.630521 66.849095 
L 163.717469 67.693241 
L 164.079784 67.974623 
L 164.079784 69.10015 
L 164.079784 70.225678 
L 165.166732 71.069824 
L 165.529048 71.351206 
L 165.529048 72.476733 
L 165.529048 73.602261 
L 166.615996 74.446407 
L 166.978311 74.727788 
L 166.978311 75.853316 
L 168.065259 76.697462 
L 168.427575 76.978844 
L 168.427575 78.104371 
L 168.427575 79.229899 
L 169.514523 80.074045 
L 169.876838 80.355427 
L 169.876838 81.480954 
L 169.876838 82.606482 
L 170.963786 83.450628 
L 171.326102 83.73201 
L 171.326102 84.857537 
L 171.326102 85.983065 
L 172.41305 86.827211 
L 172.775365 87.108592 
L 172.775365 88.23412 
L 173.862313 89.078266 
L 174.224629 89.359648 
L 174.224629 90.485175 
L 174.224629 91.610703 
L 175.311577 92.454849 
L 175.673892 92.736231 
L 175.673892 93.861758 
L 175.673892 94.987286 
L 176.76084 95.831432 
L 177.123156 96.112814 
L 177.123156 97.238341 
L 177.123156 98.363869 
L 178.210104 99.208015 
L 178.572419 99.489396 
L 178.572419 100.614924 
L 179.659367 101.45907 
L 180.021683 101.740452 
L 180.021683 102.865979 
L 180.021683 103.991507 
L 181.108631 104.835653 
L 181.470946 105.117035 
L 181.470946 106.242562 
L 181.470946 107.36809 
L 182.557894 108.212236 
L 182.92021 108.493618 
L 182.92021 109.619145 
L 182.92021 110.744673 
L 184.007158 111.588819 
L 184.369473 111.870201 
L 184.369473 112.995728 
L 185.456421 113.839874 
L 185.818737 114.121256 
L 186.905685 114.965402 
L 187.268 115.246783 
L 187.268 116.372311 
L 188.354948 117.216457 
L 188.596492 117.497839 
L 188.596492 118.623366 
L 188.596492 119.748894 
L 188.354948 119.936482 
L 187.147229 120.874422 
L 187.147229 121.999949 
L 187.147229 123.125477 
L 187.147229 124.251005 
L 187.147229 125.376532 
L 186.905685 125.56412 
L 185.697965 126.50206 
L 185.456421 127.064824 
L 184.007158 127.064824 
L 182.557894 127.064824 
L 181.108631 127.064824 
L 179.659367 127.064824 
L 178.210104 127.064824 
L 177.485472 127.627587 
L 176.76084 128.190351 
L 175.311577 128.190351 
L 174.586945 128.753115 
L 173.862313 129.315879 
L 172.41305 129.315879 
L 171.688418 129.878643 
L 170.963786 130.441407 
L 169.514523 130.441407 
L 168.789891 131.00417 
L 168.065259 131.566934 
L 166.615996 131.566934 
L 165.166732 131.566934 
L 164.4421 132.129698 
L 163.717469 132.692462 
L 162.268205 132.692462 
L 161.543573 133.255226 
L 160.818942 133.817989 
L 159.369678 133.817989 
L 158.645046 134.380753 
L 157.920415 134.943517 
L 156.471151 134.943517 
L 155.746519 135.506281 
L 155.021888 136.069045 
L 153.572624 136.069045 
L 152.123361 136.069045 
L 151.398729 136.631809 
L 150.674097 137.194572 
L 149.224834 137.194572 
L 148.500202 137.757336 
L 147.77557 138.3201 
L 146.326307 138.3201 
L 145.601675 138.882864 
L 144.877043 139.445628 
L 143.42778 139.445628 
L 142.703148 140.008391 
L 141.978516 140.571155 
L 140.529253 140.571155 
L 139.079989 140.571155 
L 138.355357 141.133919 
L 137.630726 141.696683 
L 136.181462 141.696683 
L 135.45683 142.259447 
L 134.732199 142.822211 
L 133.282935 142.822211 
L 132.558303 143.384974 
L 131.833672 143.947738 
L 130.384408 143.947738 
L 129.659776 144.510502 
L 128.935145 145.073266 
L 127.485881 145.073266 
L 126.761249 145.63603 
L 126.036618 146.198793 
L 124.587354 146.198793 
L 123.138091 146.198793 
L 122.413459 146.761557 
L 121.688827 147.324321 
L 120.239564 147.324321 
L 119.514932 147.887085 
L 118.7903 148.449849 
L 117.341037 148.449849 
L 116.616405 149.012613 
L 115.891773 149.575376 
L 114.44251 149.575376 
L 113.717878 150.13814 
L 112.993246 150.700904 
L 111.543983 150.700904 
L 110.094719 150.700904 
L 109.370087 151.263668 
L 108.645456 151.826432 
L 107.196192 151.826432 
L 106.47156 152.389195 
L 105.746929 152.951959 
L 104.297665 152.951959 
L 103.573033 153.514723 
L 102.848402 154.077487 
L 101.399138 154.077487 
L 100.674506 154.640251 
L 99.949875 155.203015 
L 98.500611 155.203015 
L 97.051348 155.203015 
L 96.326716 155.765778 
L 95.602084 156.328542 
L 94.152821 156.328542 
L 93.428189 156.891306 
L 92.703557 157.45407 
L 91.254294 157.45407 
L 90.529662 158.016834 
L 89.80503 158.579597 
L 88.355767 158.579597 
L 87.631135 159.142361 
L 86.906503 159.705125 
L 85.45724 159.705125 
L 84.007976 159.705125 
L 83.283344 160.267889 
L 82.558713 160.830653 
L 81.109449 160.830653 
L 80.384817 161.393417 
L 79.660186 161.95618 
L 78.210922 161.95618 
L 77.48629 162.518944 
L 76.761659 163.081708 
L 75.312395 163.081708 
L 74.587763 163.644472 
L 73.863132 164.207236 
L 72.413868 164.207236 
L 70.964605 164.207236 
L 70.239973 164.769999 
L 69.515341 165.332763 
L 68.066078 165.332763 
L 67.341446 165.895527 
L 66.616814 166.458291 
L 65.167551 166.458291 
L 64.442919 167.021055 
L 63.718287 167.583819 
L 62.269024 167.583819 
L 61.544392 168.146582 
L 60.81976 168.709346 
L 59.370497 168.709346 
L 57.921233 168.709346 
L 57.196601 169.27211 
L 56.47197 169.834874 
L 55.022706 169.834874 
L 54.298074 170.397638 
L 53.573443 170.960402 
L 52.124179 170.960402 
L 51.399547 171.523165 
L 50.674916 172.085929 
L 49.225652 172.085929 
L 48.50102 172.648693 
L 47.776389 173.211457 
L 46.327125 173.211457 
L 46.327125 173.774221 
L 46.327125 174.899748 
L 46.327125 176.025276 
L 46.327125 177.150804 
L 46.327125 178.276331 
L 46.327125 179.401859 
L 46.327125 180.527386 
L 46.327125 181.652914 
L 46.327125 182.778442 
L 46.327125 183.903969 
L 46.327125 185.029497 
L 46.327125 186.155025 
L 46.327125 187.280552 
L 46.327125 188.40608 
L 46.327125 189.531608 
L 46.327125 190.657135 
L 46.327125 191.782663 
L 46.327125 192.90819 
L 46.327125 194.033718 
L 46.327125 195.159246 
L 46.327125 196.284773 
L 46.327125 197.410301 
L 46.327125 198.535829 
L 46.327125 199.661356 
L 46.327125 200.786884 
L 46.327125 201.912412 
L 46.327125 203.037939 
L 46.327125 204.163467 
L 46.327125 205.288994 
L 46.327125 206.414522 
L 46.327125 207.54005 
L 46.327125 208.665577 
L 46.327125 209.791105 
L 46.327125 210.916633 
L 46.327125 212.04216 
L 46.327125 213.167688 
L 46.327125 214.293216 
L 46.327125 215.418743 
L 46.327125 216.544271 
L 46.327125 217.669798 
L 46.327125 218.795326 
L 46.327125 219.920854 
L 46.327125 221.046381 
L 46.327125 222.171909 
L 46.327125 223.297437 
L 46.327125 224.422964 
L 46.327125 225.548492 
L 46.327125 226.67402 
L 46.327125 227.799547 
L 46.327125 228.925075 
L 46.327125 230.050603 
L 46.327125 231.17613 
L 46.327125 232.301658 
L 46.327125 233.427185 
L 46.327125 234.552713 
L 46.327125 235.678241 
L 46.327125 236.803768 
L 46.327125 237.929296 
L 46.327125 239.054824 
L 46.327125 240.180351 
L 46.327125 241.305879 
L 46.327125 242.431407 
L 46.327125 243.556934 
L 46.327125 244.682462 
L 46.327125 245.807989 
L 46.327125 246.933517 
L 46.327125 248.059045 
L 46.327125 249.184572 
L 46.327125 250.3101 
z
" clip-path="url(#p90a98ed783)" style="fill: #2e8b57; fill-opacity: 0.15"/>
    <path d="M 281.107812 250.028718 
L 281.470128 250.3101 
L 282.19476 250.3101 
L 281.107812 249.465954 
L 280.745496 249.184572 
L 280.745496 248.059045 
L 279.658549 247.214899 
L 279.296233 246.933517 
L 279.296233 245.807989 
L 278.209285 244.963844 
L 277.846969 244.682462 
L 276.760022 243.838316 
L 276.397706 243.556934 
L 276.397706 242.431407 
L 275.310758 241.587261 
L 274.948442 241.305879 
L 274.948442 240.180351 
L 273.861495 239.336206 
L 273.499179 239.054824 
L 272.412231 238.210678 
L 272.049915 237.929296 
L 272.049915 236.803768 
L 270.962968 235.959623 
L 270.600652 235.678241 
L 270.600652 234.552713 
L 269.513704 233.708567 
L 269.151388 233.427185 
L 268.064441 232.58304 
L 267.702125 232.301658 
L 267.702125 231.17613 
L 266.615177 230.331984 
L 266.252861 230.050603 
L 266.252861 228.925075 
L 265.165914 228.080929 
L 264.803598 227.799547 
L 263.71665 226.955402 
L 263.354334 226.67402 
L 263.354334 225.548492 
L 262.267387 224.704346 
L 261.905071 224.422964 
L 261.905071 223.297437 
L 260.818123 222.453291 
L 260.455807 222.171909 
L 259.36886 221.327763 
L 259.006544 221.046381 
L 259.006544 219.920854 
L 257.919596 219.076708 
L 257.55728 218.795326 
L 257.55728 217.669798 
L 256.470333 216.825653 
L 256.108017 216.544271 
L 255.021069 215.700125 
L 254.658753 215.418743 
L 254.658753 214.293216 
L 253.571806 213.44907 
L 253.20949 213.167688 
L 253.20949 212.04216 
L 252.122542 211.198015 
L 251.760226 210.916633 
L 250.673279 210.072487 
L 250.310963 209.791105 
L 250.310963 208.665577 
L 249.224015 207.821432 
L 248.861699 207.54005 
L 248.861699 206.414522 
L 247.774752 205.570376 
L 247.412436 205.288994 
L 246.325488 204.444849 
L 245.963172 204.163467 
L 245.963172 203.037939 
L 244.876225 202.193793 
L 244.513909 201.912412 
L 243.426961 201.068266 
L 243.064645 200.786884 
L 243.064645 199.661356 
L 241.977698 198.817211 
L 241.615382 198.535829 
L 241.615382 197.410301 
L 240.528434 196.566155 
L 240.166118 196.284773 
L 239.079171 195.440628 
L 238.716855 195.159246 
L 238.716855 194.033718 
L 237.629907 193.189572 
L 237.267591 192.90819 
L 237.267591 191.782663 
L 236.180644 190.938517 
L 235.818328 190.657135 
L 234.73138 189.812989 
L 234.369064 189.531608 
L 234.369064 188.40608 
L 233.282117 187.561934 
L 232.919801 187.280552 
L 232.919801 186.155025 
L 231.832853 185.310879 
L 231.470537 185.029497 
L 230.38359 184.185351 
L 230.021274 183.903969 
L 230.021274 182.778442 
L 228.934326 181.934296 
L 228.57201 181.652914 
L 228.57201 180.527386 
L 227.485063 179.683241 
L 227.122747 179.401859 
L 226.035799 178.557713 
L 225.673483 178.276331 
L 225.673483 177.150804 
L 224.586536 176.306658 
L 224.22422 176.025276 
L 224.22422 174.899748 
L 223.137272 174.055603 
L 222.774956 173.774221 
L 221.688009 172.930075 
L 221.325693 172.648693 
L 221.325693 171.523165 
L 220.238745 170.67902 
L 219.876429 170.397638 
L 219.876429 169.27211 
L 218.789482 168.427964 
L 218.427166 168.146582 
L 217.340218 167.302437 
L 216.977902 167.021055 
L 216.977902 165.895527 
L 215.890955 165.051381 
L 215.528639 164.769999 
L 215.528639 163.644472 
L 214.441691 162.800326 
L 214.079375 162.518944 
L 212.992428 161.674798 
L 212.630112 161.393417 
L 212.630112 160.267889 
L 211.543164 159.423743 
L 211.180848 159.142361 
L 211.180848 158.016834 
L 210.093901 157.172688 
L 209.731585 156.891306 
L 208.644637 156.04716 
L 208.282321 155.765778 
L 208.282321 154.640251 
L 207.195374 153.796105 
L 206.833058 153.514723 
L 206.833058 152.389195 
L 205.74611 151.54505 
L 205.383794 151.263668 
L 204.296847 150.419522 
L 203.934531 150.13814 
L 203.934531 149.012613 
L 202.847583 148.168467 
L 202.485267 147.887085 
L 202.485267 146.761557 
L 201.39832 145.917412 
L 201.036004 145.63603 
L 199.949056 144.791884 
L 199.58674 144.510502 
L 199.58674 143.384974 
L 198.499793 142.540829 
L 198.137477 142.259447 
L 198.137477 141.133919 
L 197.050529 140.289773 
L 196.688213 140.008391 
L 195.601266 139.164246 
L 195.23895 138.882864 
L 195.23895 137.757336 
L 194.152002 136.91319 
L 193.789686 136.631809 
L 193.789686 135.506281 
L 192.702739 134.662135 
L 192.340423 134.380753 
L 191.253475 133.536608 
L 190.891159 133.255226 
L 190.891159 132.129698 
L 189.804212 131.285552 
L 189.441896 131.00417 
L 189.441896 129.878643 
L 188.354948 129.034497 
L 187.992632 128.753115 
L 186.905685 127.908969 
L 186.543369 127.627587 
L 186.664141 126.50206 
L 186.905685 126.314472 
L 188.113404 125.376532 
L 188.113404 124.251005 
L 188.113404 123.125477 
L 188.113404 121.999949 
L 188.113404 120.874422 
L 188.354948 120.686834 
L 189.562668 119.748894 
L 189.562668 118.623366 
L 189.562668 117.497839 
L 189.804212 116.935075 
L 191.253475 116.935075 
L 192.702739 116.935075 
L 194.152002 116.935075 
L 195.601266 116.935075 
L 197.050529 116.935075 
L 198.499793 116.935075 
L 199.949056 116.935075 
L 201.39832 116.935075 
L 202.847583 116.935075 
L 204.296847 116.935075 
L 205.74611 116.935075 
L 207.195374 116.935075 
L 208.644637 116.935075 
L 210.093901 116.935075 
L 211.543164 116.935075 
L 212.992428 116.935075 
L 214.441691 116.935075 
L 215.890955 116.935075 
L 217.340218 116.935075 
L 218.789482 116.935075 
L 220.238745 116.935075 
L 221.688009 116.935075 
L 223.137272 116.935075 
L 224.586536 116.935075 
L 226.035799 116.935075 
L 227.485063 116.935075 
L 228.934326 116.935075 
L 230.38359 116.935075 
L 231.832853 116.935075 
L 233.282117 116.935075 
L 234.73138 116.935075 
L 236.180644 116.935075 
L 237.629907 116.935075 
L 239.079171 116.935075 
L 240.528434 116.935075 
L 241.977698 116.935075 
L 243.426961 116.935075 
L 244.876225 116.935075 
L 246.325488 116.935075 
L 247.774752 116.935075 
L 249.224015 116.935075 
L 250.673279 116.935075 
L 252.122542 116.935075 
L 253.571806 116.935075 
L 255.021069 116.935075 
L 256.470333 116.935075 
L 257.919596 116.935075 
L 259.36886 116.935075 
L 260.818123 116.935075 
L 262.267387 116.935075 
L 263.71665 116.935075 
L 265.165914 116.935075 
L 266.615177 116.935075 
L 268.064441 116.935075 
L 269.513704 116.935075 
L 270.962968 116.935075 
L 272.412231 116.935075 
L 273.861495 116.935075 
L 275.310758 116.935075 
L 276.760022 116.935075 
L 278.209285 116.935075 
L 279.658549 116.935075 
L 281.107812 116.935075 
L 282.557076 116.935075 
L 284.006339 116.935075 
L 285.455603 116.935075 
L 286.904866 116.935075 
L 288.35413 116.935075 
L 289.803393 116.935075 
L 291.252657 116.935075 
L 292.70192 116.935075 
L 294.151184 116.935075 
L 295.600447 116.935075 
L 297.049711 116.935075 
L 298.498974 116.935075 
L 299.948238 116.935075 
L 301.397501 116.935075 
L 302.846765 116.935075 
L 304.296028 116.935075 
L 305.745292 116.935075 
L 307.194555 116.935075 
L 308.643819 116.935075 
L 310.093082 116.935075 
L 311.542346 116.935075 
L 312.991609 116.935075 
L 314.440873 116.935075 
L 315.890136 116.935075 
L 317.3394 116.935075 
L 318.788663 116.935075 
L 320.237927 116.935075 
L 321.68719 116.935075 
L 323.136454 116.935075 
L 324.585717 116.935075 
L 326.034981 116.935075 
L 327.484244 116.935075 
L 328.933508 116.935075 
L 330.382771 116.935075 
L 331.832035 116.935075 
L 333.281298 116.935075 
L 334.730562 116.935075 
L 334.730562 116.372311 
L 334.730562 115.246783 
L 334.730562 114.121256 
L 334.730562 112.995728 
L 334.730562 111.870201 
L 334.730562 110.744673 
L 334.730562 109.619145 
L 334.730562 108.493618 
L 334.730562 107.36809 
L 334.730562 106.242562 
L 334.730562 105.117035 
L 334.730562 103.991507 
L 334.730562 102.865979 
L 334.730562 101.740452 
L 334.730562 100.614924 
L 334.730562 99.489396 
L 334.730562 98.363869 
L 334.730562 97.238341 
L 334.730562 96.112814 
L 334.730562 94.987286 
L 334.730562 93.861758 
L 334.730562 92.736231 
L 334.730562 91.610703 
L 334.730562 90.485175 
L 334.730562 89.359648 
L 334.730562 88.23412 
L 334.730562 87.108592 
L 334.730562 85.983065 
L 334.730562 84.857537 
L 334.730562 83.73201 
L 334.730562 82.606482 
L 334.730562 81.480954 
L 334.730562 80.355427 
L 334.730562 79.229899 
L 334.730562 78.104371 
L 334.730562 76.978844 
L 334.730562 75.853316 
L 334.730562 74.727788 
L 334.730562 73.602261 
L 334.730562 72.476733 
L 334.730562 71.351206 
L 334.730562 70.225678 
L 334.730562 69.10015 
L 334.730562 67.974623 
L 334.730562 66.849095 
L 334.730562 65.723567 
L 334.730562 64.59804 
L 334.730562 63.472512 
L 334.730562 62.346984 
L 334.730562 61.221457 
L 334.730562 60.095929 
L 334.730562 58.970402 
L 334.730562 57.844874 
L 334.730562 56.719346 
L 334.730562 55.593819 
L 334.730562 54.468291 
L 334.730562 53.342763 
L 334.730562 52.217236 
L 334.730562 51.091708 
L 334.730562 49.96618 
L 334.730562 48.840653 
L 334.730562 47.715125 
L 334.730562 46.589597 
L 334.730562 45.46407 
L 334.730562 44.338542 
L 334.730562 43.213015 
L 334.730562 42.087487 
L 334.730562 40.961959 
L 334.730562 39.836432 
L 334.730562 38.710904 
L 334.730562 37.585376 
L 334.730562 36.459849 
L 334.730562 35.334321 
L 334.730562 34.208793 
L 334.730562 33.083266 
L 334.730562 31.957738 
L 334.730562 30.832211 
L 334.730562 29.706683 
L 334.730562 28.581155 
L 334.730562 27.455628 
L 334.730562 26.3301 
L 333.281298 26.3301 
L 331.832035 26.3301 
L 330.382771 26.3301 
L 328.933508 26.3301 
L 327.484244 26.3301 
L 326.034981 26.3301 
L 324.585717 26.3301 
L 323.136454 26.3301 
L 321.68719 26.3301 
L 320.237927 26.3301 
L 318.788663 26.3301 
L 317.3394 26.3301 
L 315.890136 26.3301 
L 314.440873 26.3301 
L 312.991609 26.3301 
L 311.542346 26.3301 
L 310.093082 26.3301 
L 308.643819 26.3301 
L 307.194555 26.3301 
L 305.745292 26.3301 
L 304.296028 26.3301 
L 302.846765 26.3301 
L 301.397501 26.3301 
L 299.948238 26.3301 
L 298.498974 26.3301 
L 297.049711 26.3301 
L 295.600447 26.3301 
L 294.151184 26.3301 
L 292.70192 26.3301 
L 291.252657 26.3301 
L 289.803393 26.3301 
L 288.35413 26.3301 
L 286.904866 26.3301 
L 285.455603 26.3301 
L 284.006339 26.3301 
L 282.557076 26.3301 
L 281.107812 26.3301 
L 279.658549 26.3301 
L 278.209285 26.3301 
L 276.760022 26.3301 
L 275.310758 26.3301 
L 273.861495 26.3301 
L 272.412231 26.3301 
L 270.962968 26.3301 
L 269.513704 26.3301 
L 268.064441 26.3301 
L 266.615177 26.3301 
L 265.165914 26.3301 
L 263.71665 26.3301 
L 262.267387 26.3301 
L 260.818123 26.3301 
L 259.36886 26.3301 
L 257.919596 26.3301 
L 256.470333 26.3301 
L 255.021069 26.3301 
L 253.571806 26.3301 
L 252.122542 26.3301 
L 250.673279 26.3301 
L 249.224015 26.3301 
L 247.774752 26.3301 
L 246.325488 26.3301 
L 244.876225 26.3301 
L 243.426961 26.3301 
L 241.977698 26.3301 
L 240.528434 26.3301 
L 239.079171 26.3301 
L 237.629907 26.3301 
L 236.180644 26.3301 
L 234.73138 26.3301 
L 233.282117 26.3301 
L 231.832853 26.3301 
L 230.38359 26.3301 
L 228.934326 26.3301 
L 227.485063 26.3301 
L 226.035799 26.3301 
L 224.586536 26.3301 
L 223.137272 26.3301 
L 221.688009 26.3301 
L 220.238745 26.3301 
L 218.789482 26.3301 
L 217.340218 26.3301 
L 215.890955 26.3301 
L 214.441691 26.3301 
L 212.992428 26.3301 
L 211.543164 26.3301 
L 210.093901 26.3301 
L 208.644637 26.3301 
L 207.195374 26.3301 
L 205.74611 26.3301 
L 204.296847 26.3301 
L 202.847583 26.3301 
L 201.39832 26.3301 
L 199.949056 26.3301 
L 198.499793 26.3301 
L 197.050529 26.3301 
L 195.601266 26.3301 
L 194.152002 26.3301 
L 192.702739 26.3301 
L 191.253475 26.3301 
L 189.804212 26.3301 
L 188.354948 26.3301 
L 186.905685 26.3301 
L 185.456421 26.3301 
L 184.007158 26.3301 
L 182.557894 26.3301 
L 181.108631 26.3301 
L 179.659367 26.3301 
L 178.210104 26.3301 
L 176.76084 26.3301 
L 175.311577 26.3301 
L 173.862313 26.3301 
L 172.41305 26.3301 
L 170.963786 26.3301 
L 169.514523 26.3301 
L 168.065259 26.3301 
L 166.615996 26.3301 
L 165.166732 26.3301 
L 163.717469 26.3301 
L 162.268205 26.3301 
L 160.818942 26.3301 
L 159.369678 26.3301 
L 157.920415 26.3301 
L 156.471151 26.3301 
L 155.021888 26.3301 
L 153.572624 26.3301 
L 152.123361 26.3301 
L 150.674097 26.3301 
L 149.224834 26.3301 
L 147.77557 26.3301 
L 146.326307 26.3301 
L 144.877043 26.3301 
L 144.514727 26.3301 
L 144.514727 27.455628 
L 144.877043 27.73701 
L 145.963991 28.581155 
L 145.963991 29.706683 
L 146.326307 29.988065 
L 147.413254 30.832211 
L 147.413254 31.957738 
L 147.413254 33.083266 
L 147.77557 33.364648 
L 148.862518 34.208793 
L 148.862518 35.334321 
L 148.862518 36.459849 
L 149.224834 36.741231 
L 150.311781 37.585376 
L 150.311781 38.710904 
L 150.311781 39.836432 
L 150.674097 40.117814 
L 151.761045 40.961959 
L 151.761045 42.087487 
L 152.123361 42.368869 
L 153.210308 43.213015 
L 153.210308 44.338542 
L 153.210308 45.46407 
L 153.572624 45.745452 
L 154.659572 46.589597 
L 154.659572 47.715125 
L 154.659572 48.840653 
L 155.021888 49.122035 
L 156.108835 49.96618 
L 156.108835 51.091708 
L 156.108835 52.217236 
L 156.471151 52.498618 
L 157.558099 53.342763 
L 157.558099 54.468291 
L 157.920415 54.749673 
L 159.007362 55.593819 
L 159.007362 56.719346 
L 159.007362 57.844874 
L 159.369678 58.126256 
L 160.456626 58.970402 
L 160.456626 60.095929 
L 160.456626 61.221457 
L 160.818942 61.502839 
L 161.905889 62.346984 
L 161.905889 63.472512 
L 162.268205 63.753894 
L 163.355153 64.59804 
L 163.355153 65.723567 
L 163.355153 66.849095 
L 163.717469 67.130477 
L 164.804416 67.974623 
L 164.804416 69.10015 
L 164.804416 70.225678 
L 165.166732 70.50706 
L 166.25368 71.351206 
L 166.25368 72.476733 
L 166.25368 73.602261 
L 166.615996 73.883643 
L 167.702943 74.727788 
L 167.702943 75.853316 
L 168.065259 76.134698 
L 169.152207 76.978844 
L 169.152207 78.104371 
L 169.152207 79.229899 
L 169.514523 79.511281 
L 170.60147 80.355427 
L 170.60147 81.480954 
L 170.60147 82.606482 
L 170.963786 82.887864 
L 172.050734 83.73201 
L 172.050734 84.857537 
L 172.050734 85.983065 
L 172.41305 86.264447 
L 173.499997 87.108592 
L 173.499997 88.23412 
L 173.862313 88.515502 
L 174.949261 89.359648 
L 174.949261 90.485175 
L 174.949261 91.610703 
L 175.311577 91.892085 
L 176.398524 92.736231 
L 176.398524 93.861758 
L 176.398524 94.987286 
L 176.76084 95.268668 
L 177.847788 96.112814 
L 177.847788 97.238341 
L 177.847788 98.363869 
L 178.210104 98.645251 
L 179.297051 99.489396 
L 179.297051 100.614924 
L 179.659367 100.896306 
L 180.746315 101.740452 
L 180.746315 102.865979 
L 180.746315 103.991507 
L 181.108631 104.272889 
L 182.195578 105.117035 
L 182.195578 106.242562 
L 182.195578 107.36809 
L 182.557894 107.649472 
L 183.644842 108.493618 
L 183.644842 109.619145 
L 183.644842 110.744673 
L 184.007158 111.026055 
L 185.094105 111.870201 
L 185.094105 112.995728 
L 185.456421 113.27711 
L 186.543369 114.121256 
L 186.905685 114.402638 
L 187.992632 115.246783 
L 187.992632 116.372311 
L 188.354948 116.653693 
L 189.07958 117.497839 
L 189.07958 118.623366 
L 189.07958 119.748894 
L 188.354948 120.311658 
L 187.630316 120.874422 
L 187.630316 121.999949 
L 187.630316 123.125477 
L 187.630316 124.251005 
L 187.630316 125.376532 
L 186.905685 125.939296 
L 186.181053 126.50206 
L 185.818737 127.627587 
L 186.905685 128.471733 
L 187.268 128.753115 
L 188.354948 129.597261 
L 188.717264 129.878643 
L 188.717264 131.00417 
L 189.804212 131.848316 
L 190.166527 132.129698 
L 190.166527 133.255226 
L 191.253475 134.099371 
L 191.615791 134.380753 
L 192.702739 135.224899 
L 193.065054 135.506281 
L 193.065054 136.631809 
L 194.152002 137.475954 
L 194.514318 137.757336 
L 194.514318 138.882864 
L 195.601266 139.72701 
L 195.963581 140.008391 
L 197.050529 140.852537 
L 197.412845 141.133919 
L 197.412845 142.259447 
L 198.499793 143.103592 
L 198.862108 143.384974 
L 198.862108 144.510502 
L 199.949056 145.354648 
L 200.311372 145.63603 
L 201.39832 146.480175 
L 201.760636 146.761557 
L 201.760636 147.887085 
L 202.847583 148.731231 
L 203.209899 149.012613 
L 203.209899 150.13814 
L 204.296847 150.982286 
L 204.659163 151.263668 
L 205.74611 152.107814 
L 206.108426 152.389195 
L 206.108426 153.514723 
L 207.195374 154.358869 
L 207.55769 154.640251 
L 207.55769 155.765778 
L 208.644637 156.609924 
L 209.006953 156.891306 
L 210.093901 157.735452 
L 210.456217 158.016834 
L 210.456217 159.142361 
L 211.543164 159.986507 
L 211.90548 160.267889 
L 211.90548 161.393417 
L 212.992428 162.237562 
L 213.354744 162.518944 
L 214.441691 163.36309 
L 214.804007 163.644472 
L 214.804007 164.769999 
L 215.890955 165.614145 
L 216.253271 165.895527 
L 216.253271 167.021055 
L 217.340218 167.865201 
L 217.702534 168.146582 
L 218.789482 168.990728 
L 219.151798 169.27211 
L 219.151798 170.397638 
L 220.238745 171.241783 
L 220.601061 171.523165 
L 220.601061 172.648693 
L 221.688009 173.492839 
L 222.050325 173.774221 
L 223.137272 174.618366 
L 223.499588 174.899748 
L 223.499588 176.025276 
L 224.586536 176.869422 
L 224.948852 177.150804 
L 224.948852 178.276331 
L 226.035799 179.120477 
L 226.398115 179.401859 
L 227.485063 180.246005 
L 227.847379 180.527386 
L 227.847379 181.652914 
L 228.934326 182.49706 
L 229.296642 182.778442 
L 229.296642 183.903969 
L 230.38359 184.748115 
L 230.745906 185.029497 
L 231.832853 185.873643 
L 232.195169 186.155025 
L 232.195169 187.280552 
L 233.282117 188.124698 
L 233.644433 188.40608 
L 233.644433 189.531608 
L 234.73138 190.375753 
L 235.093696 190.657135 
L 236.180644 191.501281 
L 236.54296 191.782663 
L 236.54296 192.90819 
L 237.629907 193.752336 
L 237.992223 194.033718 
L 237.992223 195.159246 
L 239.079171 196.003391 
L 239.441487 196.284773 
L 240.528434 197.128919 
L 240.89075 197.410301 
L 240.89075 198.535829 
L 241.977698 199.379974 
L 242.340014 199.661356 
L 242.340014 200.786884 
L 243.426961 201.63103 
L 243.789277 201.912412 
L 244.876225 202.756557 
L 245.238541 203.037939 
L 245.238541 204.163467 
L 246.325488 205.007613 
L 246.687804 205.288994 
L 247.774752 206.13314 
L 248.137068 206.414522 
L 248.137068 207.54005 
L 249.224015 208.384195 
L 249.586331 208.665577 
L 249.586331 209.791105 
L 250.673279 210.635251 
L 251.035595 210.916633 
L 252.122542 211.760778 
L 252.484858 212.04216 
L 252.484858 213.167688 
L 253.571806 214.011834 
L 253.934122 214.293216 
L 253.934122 215.418743 
L 255.021069 216.262889 
L 255.383385 216.544271 
L 256.470333 217.388417 
L 256.832649 217.669798 
L 256.832649 218.795326 
L 257.919596 219.639472 
L 258.281912 219.920854 
L 258.281912 221.046381 
L 259.36886 221.890527 
L 259.731176 222.171909 
L 260.818123 223.016055 
L 261.180439 223.297437 
L 261.180439 224.422964 
L 262.267387 225.26711 
L 262.629703 225.548492 
L 262.629703 226.67402 
L 263.71665 227.518165 
L 264.078966 227.799547 
L 265.165914 228.643693 
L 265.52823 228.925075 
L 265.52823 230.050603 
L 266.615177 230.894748 
L 266.977493 231.17613 
L 266.977493 232.301658 
L 268.064441 233.145804 
L 268.426757 233.427185 
L 269.513704 234.271331 
L 269.87602 234.552713 
L 269.87602 235.678241 
L 270.962968 236.522386 
L 271.325284 236.803768 
L 271.325284 237.929296 
L 272.412231 238.773442 
L 272.774547 239.054824 
L 273.861495 239.898969 
L 274.223811 240.180351 
L 274.223811 241.305879 
L 275.310758 242.150025 
L 275.673074 242.431407 
L 275.673074 243.556934 
L 276.760022 244.40108 
L 277.122338 244.682462 
L 278.209285 245.526608 
L 278.571601 245.807989 
L 278.571601 246.933517 
L 279.658549 247.777663 
L 280.020865 248.059045 
L 280.020865 249.184572 
z
" clip-path="url(#p90a98ed783)" style="fill: #ff9300; fill-opacity: 0.15"/>
    <path d="M 281.107812 249.465954 
L 282.19476 250.3101 
L 282.557076 250.3101 
L 284.006339 250.3101 
L 285.455603 250.3101 
L 286.904866 250.3101 
L 288.35413 250.3101 
L 289.803393 250.3101 
L 291.252657 250.3101 
L 292.70192 250.3101 
L 294.151184 250.3101 
L 295.600447 250.3101 
L 297.049711 250.3101 
L 298.498974 250.3101 
L 299.948238 250.3101 
L 301.397501 250.3101 
L 302.846765 250.3101 
L 304.296028 250.3101 
L 305.745292 250.3101 
L 307.194555 250.3101 
L 308.643819 250.3101 
L 310.093082 250.3101 
L 311.542346 250.3101 
L 312.991609 250.3101 
L 314.440873 250.3101 
L 315.890136 250.3101 
L 317.3394 250.3101 
L 318.788663 250.3101 
L 320.237927 250.3101 
L 321.68719 250.3101 
L 323.136454 250.3101 
L 324.585717 250.3101 
L 326.034981 250.3101 
L 327.484244 250.3101 
L 328.933508 250.3101 
L 330.382771 250.3101 
L 331.832035 250.3101 
L 333.281298 250.3101 
L 334.730562 250.3101 
L 334.730562 249.184572 
L 334.730562 248.059045 
L 334.730562 246.933517 
L 334.730562 245.807989 
L 334.730562 244.682462 
L 334.730562 243.556934 
L 334.730562 242.431407 
L 334.730562 241.305879 
L 334.730562 240.180351 
L 334.730562 239.054824 
L 334.730562 237.929296 
L 334.730562 236.803768 
L 334.730562 235.678241 
L 334.730562 234.552713 
L 334.730562 233.427185 
L 334.730562 232.301658 
L 334.730562 231.17613 
L 334.730562 230.050603 
L 334.730562 228.925075 
L 334.730562 227.799547 
L 334.730562 226.67402 
L 334.730562 225.548492 
L 334.730562 224.422964 
L 334.730562 223.297437 
L 334.730562 222.171909 
L 334.730562 221.046381 
L 334.730562 219.920854 
L 334.730562 218.795326 
L 334.730562 217.669798 
L 334.730562 216.544271 
L 334.730562 215.418743 
L 334.730562 214.293216 
L 334.730562 213.167688 
L 334.730562 212.04216 
L 334.730562 210.916633 
L 334.730562 209.791105 
L 334.730562 208.665577 
L 334.730562 207.54005 
L 334.730562 206.414522 
L 334.730562 205.288994 
L 334.730562 204.163467 
L 334.730562 203.037939 
L 334.730562 201.912412 
L 334.730562 200.786884 
L 334.730562 199.661356 
L 334.730562 198.535829 
L 334.730562 197.410301 
L 334.730562 196.284773 
L 334.730562 195.159246 
L 334.730562 194.033718 
L 334.730562 192.90819 
L 334.730562 191.782663 
L 334.730562 190.657135 
L 334.730562 189.531608 
L 334.730562 188.40608 
L 334.730562 187.280552 
L 334.730562 186.155025 
L 334.730562 185.029497 
L 334.730562 183.903969 
L 334.730562 182.778442 
L 334.730562 181.652914 
L 334.730562 180.527386 
L 334.730562 179.401859 
L 334.730562 178.276331 
L 334.730562 177.150804 
L 334.730562 176.025276 
L 334.730562 174.899748 
L 334.730562 173.774221 
L 334.730562 172.648693 
L 334.730562 171.523165 
L 334.730562 170.397638 
L 334.730562 169.27211 
L 334.730562 168.146582 
L 334.730562 167.021055 
L 334.730562 165.895527 
L 334.730562 164.769999 
L 334.730562 163.644472 
L 334.730562 162.518944 
L 334.730562 161.393417 
L 334.730562 160.267889 
L 334.730562 159.142361 
L 334.730562 158.016834 
L 334.730562 156.891306 
L 334.730562 155.765778 
L 334.730562 154.640251 
L 334.730562 153.514723 
L 334.730562 152.389195 
L 334.730562 151.263668 
L 334.730562 150.13814 
L 334.730562 149.012613 
L 334.730562 147.887085 
L 334.730562 146.761557 
L 334.730562 145.63603 
L 334.730562 144.510502 
L 334.730562 143.384974 
L 334.730562 142.259447 
L 334.730562 141.133919 
L 334.730562 140.008391 
L 334.730562 138.882864 
L 334.730562 137.757336 
L 334.730562 136.631809 
L 334.730562 135.506281 
L 334.730562 134.380753 
L 334.730562 133.255226 
L 334.730562 132.129698 
L 334.730562 131.00417 
L 334.730562 129.878643 
L 334.730562 128.753115 
L 334.730562 127.627587 
L 334.730562 126.50206 
L 334.730562 125.376532 
L 334.730562 124.251005 
L 334.730562 123.125477 
L 334.730562 121.999949 
L 334.730562 120.874422 
L 334.730562 119.748894 
L 334.730562 118.623366 
L 334.730562 117.497839 
L 334.730562 116.935075 
L 333.281298 116.935075 
L 331.832035 116.935075 
L 330.382771 116.935075 
L 328.933508 116.935075 
L 327.484244 116.935075 
L 326.034981 116.935075 
L 324.585717 116.935075 
L 323.136454 116.935075 
L 321.68719 116.935075 
L 320.237927 116.935075 
L 318.788663 116.935075 
L 317.3394 116.935075 
L 315.890136 116.935075 
L 314.440873 116.935075 
L 312.991609 116.935075 
L 311.542346 116.935075 
L 310.093082 116.935075 
L 308.643819 116.935075 
L 307.194555 116.935075 
L 305.745292 116.935075 
L 304.296028 116.935075 
L 302.846765 116.935075 
L 301.397501 116.935075 
L 299.948238 116.935075 
L 298.498974 116.935075 
L 297.049711 116.935075 
L 295.600447 116.935075 
L 294.151184 116.935075 
L 292.70192 116.935075 
L 291.252657 116.935075 
L 289.803393 116.935075 
L 288.35413 116.935075 
L 286.904866 116.935075 
L 285.455603 116.935075 
L 284.006339 116.935075 
L 282.557076 116.935075 
L 281.107812 116.935075 
L 279.658549 116.935075 
L 278.209285 116.935075 
L 276.760022 116.935075 
L 275.310758 116.935075 
L 273.861495 116.935075 
L 272.412231 116.935075 
L 270.962968 116.935075 
L 269.513704 116.935075 
L 268.064441 116.935075 
L 266.615177 116.935075 
L 265.165914 116.935075 
L 263.71665 116.935075 
L 262.267387 116.935075 
L 260.818123 116.935075 
L 259.36886 116.935075 
L 257.919596 116.935075 
L 256.470333 116.935075 
L 255.021069 116.935075 
L 253.571806 116.935075 
L 252.122542 116.935075 
L 250.673279 116.935075 
L 249.224015 116.935075 
L 247.774752 116.935075 
L 246.325488 116.935075 
L 244.876225 116.935075 
L 243.426961 116.935075 
L 241.977698 116.935075 
L 240.528434 116.935075 
L 239.079171 116.935075 
L 237.629907 116.935075 
L 236.180644 116.935075 
L 234.73138 116.935075 
L 233.282117 116.935075 
L 231.832853 116.935075 
L 230.38359 116.935075 
L 228.934326 116.935075 
L 227.485063 116.935075 
L 226.035799 116.935075 
L 224.586536 116.935075 
L 223.137272 116.935075 
L 221.688009 116.935075 
L 220.238745 116.935075 
L 218.789482 116.935075 
L 217.340218 116.935075 
L 215.890955 116.935075 
L 214.441691 116.935075 
L 212.992428 116.935075 
L 211.543164 116.935075 
L 210.093901 116.935075 
L 208.644637 116.935075 
L 207.195374 116.935075 
L 205.74611 116.935075 
L 204.296847 116.935075 
L 202.847583 116.935075 
L 201.39832 116.935075 
L 199.949056 116.935075 
L 198.499793 116.935075 
L 197.050529 116.935075 
L 195.601266 116.935075 
L 194.152002 116.935075 
L 192.702739 116.935075 
L 191.253475 116.935075 
L 189.804212 116.935075 
L 189.562668 117.497839 
L 189.562668 118.623366 
L 189.562668 119.748894 
L 188.354948 120.686834 
L 188.113404 120.874422 
L 188.113404 121.999949 
L 188.113404 123.125477 
L 188.113404 124.251005 
L 188.113404 125.376532 
L 186.905685 126.314472 
L 186.664141 126.50206 
L 186.543369 127.627587 
L 186.905685 127.908969 
L 187.992632 128.753115 
L 188.354948 129.034497 
L 189.441896 129.878643 
L 189.441896 131.00417 
L 189.804212 131.285552 
L 190.891159 132.129698 
L 190.891159 133.255226 
L 191.253475 133.536608 
L 192.340423 134.380753 
L 192.702739 134.662135 
L 193.789686 135.506281 
L 193.789686 136.631809 
L 194.152002 136.91319 
L 195.23895 137.757336 
L 195.23895 138.882864 
L 195.601266 139.164246 
L 196.688213 140.008391 
L 197.050529 140.289773 
L 198.137477 141.133919 
L 198.137477 142.259447 
L 198.499793 142.540829 
L 199.58674 143.384974 
L 199.58674 144.510502 
L 199.949056 144.791884 
L 201.036004 145.63603 
L 201.39832 145.917412 
L 202.485267 146.761557 
L 202.485267 147.887085 
L 202.847583 148.168467 
L 203.934531 149.012613 
L 203.934531 150.13814 
L 204.296847 150.419522 
L 205.383794 151.263668 
L 205.74611 151.54505 
L 206.833058 152.389195 
L 206.833058 153.514723 
L 207.195374 153.796105 
L 208.282321 154.640251 
L 208.282321 155.765778 
L 208.644637 156.04716 
L 209.731585 156.891306 
L 210.093901 157.172688 
L 211.180848 158.016834 
L 211.180848 159.142361 
L 211.543164 159.423743 
L 212.630112 160.267889 
L 212.630112 161.393417 
L 212.992428 161.674798 
L 214.079375 162.518944 
L 214.441691 162.800326 
L 215.528639 163.644472 
L 215.528639 164.769999 
L 215.890955 165.051381 
L 216.977902 165.895527 
L 216.977902 167.021055 
L 217.340218 167.302437 
L 218.427166 168.146582 
L 218.789482 168.427964 
L 219.876429 169.27211 
L 219.876429 170.397638 
L 220.238745 170.67902 
L 221.325693 171.523165 
L 221.325693 172.648693 
L 221.688009 172.930075 
L 222.774956 173.774221 
L 223.137272 174.055603 
L 224.22422 174.899748 
L 224.22422 176.025276 
L 224.586536 176.306658 
L 225.673483 177.150804 
L 225.673483 178.276331 
L 226.035799 178.557713 
L 227.122747 179.401859 
L 227.485063 179.683241 
L 228.57201 180.527386 
L 228.57201 181.652914 
L 228.934326 181.934296 
L 230.021274 182.778442 
L 230.021274 183.903969 
L 230.38359 184.185351 
L 231.470537 185.029497 
L 231.832853 185.310879 
L 232.919801 186.155025 
L 232.919801 187.280552 
L 233.282117 187.561934 
L 234.369064 188.40608 
L 234.369064 189.531608 
L 234.73138 189.812989 
L 235.818328 190.657135 
L 236.180644 190.938517 
L 237.267591 191.782663 
L 237.267591 192.90819 
L 237.629907 193.189572 
L 238.716855 194.033718 
L 238.716855 195.159246 
L 239.079171 195.440628 
L 240.166118 196.284773 
L 240.528434 196.566155 
L 241.615382 197.410301 
L 241.615382 198.535829 
L 241.977698 198.817211 
L 243.064645 199.661356 
L 243.064645 200.786884 
L 243.426961 201.068266 
L 244.513909 201.912412 
L 244.876225 202.193793 
L 245.963172 203.037939 
L 245.963172 204.163467 
L 246.325488 204.444849 
L 247.412436 205.288994 
L 247.774752 205.570376 
L 248.861699 206.414522 
L 248.861699 207.54005 
L 249.224015 207.821432 
L 250.310963 208.665577 
L 250.310963 209.791105 
L 250.673279 210.072487 
L 251.760226 210.916633 
L 252.122542 211.198015 
L 253.20949 212.04216 
L 253.20949 213.167688 
L 253.571806 213.44907 
L 254.658753 214.293216 
L 254.658753 215.418743 
L 255.021069 215.700125 
L 256.108017 216.544271 
L 256.470333 216.825653 
L 257.55728 217.669798 
L 257.55728 218.795326 
L 257.919596 219.076708 
L 259.006544 219.920854 
L 259.006544 221.046381 
L 259.36886 221.327763 
L 260.455807 222.171909 
L 260.818123 222.453291 
L 261.905071 223.297437 
L 261.905071 224.422964 
L 262.267387 224.704346 
L 263.354334 225.548492 
L 263.354334 226.67402 
L 263.71665 226.955402 
L 264.803598 227.799547 
L 265.165914 228.080929 
L 266.252861 228.925075 
L 266.252861 230.050603 
L 266.615177 230.331984 
L 267.702125 231.17613 
L 267.702125 232.301658 
L 268.064441 232.58304 
L 269.151388 233.427185 
L 269.513704 233.708567 
L 270.600652 234.552713 
L 270.600652 235.678241 
L 270.962968 235.959623 
L 272.049915 236.803768 
L 272.049915 237.929296 
L 272.412231 238.210678 
L 273.499179 239.054824 
L 273.861495 239.336206 
L 274.948442 240.180351 
L 274.948442 241.305879 
L 275.310758 241.587261 
L 276.397706 242.431407 
L 276.397706 243.556934 
L 276.760022 243.838316 
L 277.846969 244.682462 
L 278.209285 244.963844 
L 279.296233 245.807989 
L 279.296233 246.933517 
L 279.658549 247.214899 
L 280.745496 248.059045 
L 280.745496 249.184572 
z
" clip-path="url(#p90a98ed783)" style="fill: #7030a0; fill-opacity: 0.15"/>
   </g>
   <g id="PathCollection_1">
    <defs>
     <path id="me42d211bec" d="M 0 3.162278 
C 0.838646 3.162278 1.643056 2.82908 2.236068 2.236068 
C 2.82908 1.643056 3.162278 0.838646 3.162278 0 
C 3.162278 -0.838646 2.82908 -1.643056 2.236068 -2.236068 
C 1.643056 -2.82908 0.838646 -3.162278 0 -3.162278 
C -0.838646 -3.162278 -1.643056 -2.82908 -2.236068 -2.236068 
C -2.82908 -1.643056 -3.162278 -0.838646 -3.162278 0 
C -3.162278 0.838646 -2.82908 1.643056 -2.236068 2.236068 
C -1.643056 2.82908 -0.838646 3.162278 0 3.162278 
z
" style="stroke: #ffffff; stroke-width: 0.5"/>
    </defs>
    <g clip-path="url(#p90a98ed783)">
     <use xlink:href="#me42d211bec" x="100.203207" y="53.03782" style="fill: #0096ff; stroke: #ffffff; stroke-width: 0.5"/>
     <use xlink:href="#me42d211bec" x="106.812007" y="43.916099" style="fill: #0096ff; stroke: #ffffff; stroke-width: 0.5"/>
     <use xlink:href="#me42d211bec" x="132.888757" y="94.005371" style="fill: #0096ff; stroke: #ffffff; stroke-width: 0.5"/>
     <use xlink:href="#me42d211bec" x="102.214878" y="64.734334" style="fill: #0096ff; stroke: #ffffff; stroke-width: 0.5"/>
     <use xlink:href="#me42d211bec" x="132.141918" y="59.332819" style="fill: #0096ff; stroke: #ffffff; stroke-width: 0.5"/>
     <use xlink:href="#me42d211bec" x="100.397719" y="124.722238" style="fill: #0096ff; stroke: #ffffff; stroke-width: 0.5"/>
     <use xlink:href="#me42d211bec" x="69.979736" y="55.016897" style="fill: #0096ff; stroke: #ffffff; stroke-width: 0.5"/>
     <use xlink:href="#me42d211bec" x="141.374332" y="86.465612" style="fill: #0096ff; stroke: #ffffff; stroke-width: 0.5"/>
     <use xlink:href="#me42d211bec" x="121.864211" y="103.251042" style="fill: #0096ff; stroke: #ffffff; stroke-width: 0.5"/>
     <use xlink:href="#me42d211bec" x="109.742688" y="104.761329" style="fill: #0096ff; stroke: #ffffff; stroke-width: 0.5"/>
     <use xlink:href="#me42d211bec" x="105.530238" y="70.441345" style="fill: #0096ff; stroke: #ffffff; stroke-width: 0.5"/>
     <use xlink:href="#me42d211bec" x="135.626312" y="75.217055" style="fill: #0096ff; stroke: #ffffff; stroke-width: 0.5"/>
     <use xlink:href="#me42d211bec" x="84.676119" y="40.659648" style="fill: #0096ff; stroke: #ffffff; stroke-width: 0.5"/>
     <use xlink:href="#me42d211bec" x="55.290039" y="38.494711" style="fill: #0096ff; stroke: #ffffff; stroke-width: 0.5"/>
     <use xlink:href="#me42d211bec" x="89.934512" y="66.384047" style="fill: #0096ff; stroke: #ffffff; stroke-width: 0.5"/>
     <use xlink:href="#me42d211bec" x="126.169975" y="90.894134" style="fill: #0096ff; stroke: #ffffff; stroke-width: 0.5"/>
     <use xlink:href="#me42d211bec" x="93.63912" y="96.69213" style="fill: #0096ff; stroke: #ffffff; stroke-width: 0.5"/>
     <use xlink:href="#me42d211bec" x="87.614321" y="109.840994" style="fill: #0096ff; stroke: #ffffff; stroke-width: 0.5"/>
     <use xlink:href="#me42d211bec" x="94.980303" y="98.579308" style="fill: #0096ff; stroke: #ffffff; stroke-width: 0.5"/>
     <use xlink:href="#me42d211bec" x="107.231735" y="89.205796" style="fill: #0096ff; stroke: #ffffff; stroke-width: 0.5"/>
     <use xlink:href="#me42d211bec" x="76.396003" y="39.268259" style="fill: #0096ff; stroke: #ffffff; stroke-width: 0.5"/>
     <use xlink:href="#me42d211bec" x="127.295221" y="124.572962" style="fill: #0096ff; stroke: #ffffff; stroke-width: 0.5"/>
     <use xlink:href="#me42d211bec" x="94.762091" y="57.174749" style="fill: #0096ff; stroke: #ffffff; stroke-width: 0.5"/>
     <use xlink:href="#me42d211bec" x="99.752411" y="51.934375" style="fill: #0096ff; stroke: #ffffff; stroke-width: 0.5"/>
     <use xlink:href="#me42d211bec" x="124.992572" y="119.203394" style="fill: #0096ff; stroke: #ffffff; stroke-width: 0.5"/>
    </g>
   </g>
   <g id="PathCollection_2">
    <defs>
     <path id="m5221bfeedd" d="M 0 3.162278 
C 0.838646 3.162278 1.643056 2.82908 2.236068 2.236068 
C 2.82908 1.643056 3.162278 0.838646 3.162278 0 
C 3.162278 -0.838646 2.82908 -1.643056 2.236068 -2.236068 
C 1.643056 -2.82908 0.838646 -3.162278 0 -3.162278 
C -0.838646 -3.162278 -1.643056 -2.82908 -2.236068 -2.236068 
C -2.82908 -1.643056 -3.162278 -0.838646 -3.162278 0 
C -3.162278 0.838646 -2.82908 1.643056 -2.236068 2.236068 
C -1.643056 2.82908 -0.838646 3.162278 0 3.162278 
z
" style="stroke: #ffffff; stroke-width: 0.5"/>
    </defs>
    <g clip-path="url(#p90a98ed783)">
     <use xlink:href="#m5221bfeedd" x="175.144715" y="218.777369" style="fill: #2e8b57; stroke: #ffffff; stroke-width: 0.5"/>
     <use xlink:href="#m5221bfeedd" x="142.159601" y="206.390859" style="fill: #2e8b57; stroke: #ffffff; stroke-width: 0.5"/>
     <use xlink:href="#m5221bfeedd" x="166.90559" y="199.279845" style="fill: #2e8b57; stroke: #ffffff; stroke-width: 0.5"/>
     <use xlink:href="#m5221bfeedd" x="183.843247" y="182.010668" style="fill: #2e8b57; stroke: #ffffff; stroke-width: 0.5"/>
     <use xlink:href="#m5221bfeedd" x="140.259997" y="175.668352" style="fill: #2e8b57; stroke: #ffffff; stroke-width: 0.5"/>
     <use xlink:href="#m5221bfeedd" x="156.45325" y="161.371807" style="fill: #2e8b57; stroke: #ffffff; stroke-width: 0.5"/>
     <use xlink:href="#m5221bfeedd" x="158.004226" y="180.420329" style="fill: #2e8b57; stroke: #ffffff; stroke-width: 0.5"/>
     <use xlink:href="#m5221bfeedd" x="191.671386" y="153.802189" style="fill: #2e8b57; stroke: #ffffff; stroke-width: 0.5"/>
     <use xlink:href="#m5221bfeedd" x="153.760178" y="200.818448" style="fill: #2e8b57; stroke: #ffffff; stroke-width: 0.5"/>
     <use xlink:href="#m5221bfeedd" x="177.481339" y="208.91205" style="fill: #2e8b57; stroke: #ffffff; stroke-width: 0.5"/>
     <use xlink:href="#m5221bfeedd" x="161.65107" y="186.097624" style="fill: #2e8b57; stroke: #ffffff; stroke-width: 0.5"/>
     <use xlink:href="#m5221bfeedd" x="132.75422" y="205.393287" style="fill: #2e8b57; stroke: #ffffff; stroke-width: 0.5"/>
     <use xlink:href="#m5221bfeedd" x="171.421901" y="187.276106" style="fill: #2e8b57; stroke: #ffffff; stroke-width: 0.5"/>
     <use xlink:href="#m5221bfeedd" x="170.985566" y="151.930551" style="fill: #2e8b57; stroke: #ffffff; stroke-width: 0.5"/>
     <use xlink:href="#m5221bfeedd" x="160.81698" y="176.757221" style="fill: #2e8b57; stroke: #ffffff; stroke-width: 0.5"/>
     <use xlink:href="#m5221bfeedd" x="155.690347" y="201.030657" style="fill: #2e8b57; stroke: #ffffff; stroke-width: 0.5"/>
     <use xlink:href="#m5221bfeedd" x="167.269656" y="238.145489" style="fill: #2e8b57; stroke: #ffffff; stroke-width: 0.5"/>
     <use xlink:href="#m5221bfeedd" x="140.403086" y="153.232581" style="fill: #2e8b57; stroke: #ffffff; stroke-width: 0.5"/>
     <use xlink:href="#m5221bfeedd" x="158.811736" y="196.937984" style="fill: #2e8b57; stroke: #ffffff; stroke-width: 0.5"/>
     <use xlink:href="#m5221bfeedd" x="176.868908" y="211.519916" style="fill: #2e8b57; stroke: #ffffff; stroke-width: 0.5"/>
     <use xlink:href="#m5221bfeedd" x="178.868734" y="189.619414" style="fill: #2e8b57; stroke: #ffffff; stroke-width: 0.5"/>
     <use xlink:href="#m5221bfeedd" x="183.374087" y="133.601132" style="fill: #2e8b57; stroke: #ffffff; stroke-width: 0.5"/>
     <use xlink:href="#m5221bfeedd" x="164.798942" y="186.341365" style="fill: #2e8b57; stroke: #ffffff; stroke-width: 0.5"/>
     <use xlink:href="#m5221bfeedd" x="179.084522" y="200.543265" style="fill: #2e8b57; stroke: #ffffff; stroke-width: 0.5"/>
     <use xlink:href="#m5221bfeedd" x="167.058444" y="164.515921" style="fill: #2e8b57; stroke: #ffffff; stroke-width: 0.5"/>
    </g>
   </g>
   <g id="PathCollection_3">
    <defs>
     <path id="m7661a48345" d="M 0 3.162278 
C 0.838646 3.162278 1.643056 2.82908 2.236068 2.236068 
C 2.82908 1.643056 3.162278 0.838646 3.162278 0 
C 3.162278 -0.838646 2.82908 -1.643056 2.236068 -2.236068 
C 1.643056 -2.82908 0.838646 -3.162278 0 -3.162278 
C -0.838646 -3.162278 -1.643056 -2.82908 -2.236068 -2.236068 
C -2.82908 -1.643056 -3.162278 -0.838646 -3.162278 0 
C -3.162278 0.838646 -2.82908 1.643056 -2.236068 2.236068 
C -1.643056 2.82908 -0.838646 3.162278 0 3.162278 
z
" style="stroke: #ffffff; stroke-width: 0.5"/>
    </defs>
    <g clip-path="url(#p90a98ed783)">
     <use xlink:href="#m7661a48345" x="225.639405" y="86.898271" style="fill: #ff9300; stroke: #ffffff; stroke-width: 0.5"/>
     <use xlink:href="#m7661a48345" x="219.000446" y="111.118644" style="fill: #ff9300; stroke: #ffffff; stroke-width: 0.5"/>
     <use xlink:href="#m7661a48345" x="197.650274" y="54.604867" style="fill: #ff9300; stroke: #ffffff; stroke-width: 0.5"/>
     <use xlink:href="#m7661a48345" x="207.54647" y="63.785172" style="fill: #ff9300; stroke: #ffffff; stroke-width: 0.5"/>
     <use xlink:href="#m7661a48345" x="231.59981" y="111.66887" style="fill: #ff9300; stroke: #ffffff; stroke-width: 0.5"/>
     <use xlink:href="#m7661a48345" x="223.37335" y="68.584477" style="fill: #ff9300; stroke: #ffffff; stroke-width: 0.5"/>
     <use xlink:href="#m7661a48345" x="242.082514" y="47.702792" style="fill: #ff9300; stroke: #ffffff; stroke-width: 0.5"/>
     <use xlink:href="#m7661a48345" x="188.47377" y="92.361723" style="fill: #ff9300; stroke: #ffffff; stroke-width: 0.5"/>
     <use xlink:href="#m7661a48345" x="222.736373" y="65.324549" style="fill: #ff9300; stroke: #ffffff; stroke-width: 0.5"/>
     <use xlink:href="#m7661a48345" x="233.197954" y="59.859598" style="fill: #ff9300; stroke: #ffffff; stroke-width: 0.5"/>
     <use xlink:href="#m7661a48345" x="221.787438" y="58.051831" style="fill: #ff9300; stroke: #ffffff; stroke-width: 0.5"/>
     <use xlink:href="#m7661a48345" x="217.724174" y="74.070161" style="fill: #ff9300; stroke: #ffffff; stroke-width: 0.5"/>
     <use xlink:href="#m7661a48345" x="204.636152" y="97.660157" style="fill: #ff9300; stroke: #ffffff; stroke-width: 0.5"/>
     <use xlink:href="#m7661a48345" x="207.302155" y="82.019287" style="fill: #ff9300; stroke: #ffffff; stroke-width: 0.5"/>
     <use xlink:href="#m7661a48345" x="223.047055" y="87.076251" style="fill: #ff9300; stroke: #ffffff; stroke-width: 0.5"/>
     <use xlink:href="#m7661a48345" x="181.114696" y="68.96602" style="fill: #ff9300; stroke: #ffffff; stroke-width: 0.5"/>
     <use xlink:href="#m7661a48345" x="222.357826" y="65.145881" style="fill: #ff9300; stroke: #ffffff; stroke-width: 0.5"/>
     <use xlink:href="#m7661a48345" x="225.289484" y="92.573269" style="fill: #ff9300; stroke: #ffffff; stroke-width: 0.5"/>
     <use xlink:href="#m7661a48345" x="228.481533" y="67.991521" style="fill: #ff9300; stroke: #ffffff; stroke-width: 0.5"/>
     <use xlink:href="#m7661a48345" x="269.035178" y="85.76633" style="fill: #ff9300; stroke: #ffffff; stroke-width: 0.5"/>
     <use xlink:href="#m7661a48345" x="203.085179" y="60.713639" style="fill: #ff9300; stroke: #ffffff; stroke-width: 0.5"/>
     <use xlink:href="#m7661a48345" x="228.978688" y="84.122299" style="fill: #ff9300; stroke: #ffffff; stroke-width: 0.5"/>
     <use xlink:href="#m7661a48345" x="197.790898" y="104.879532" style="fill: #ff9300; stroke: #ffffff; stroke-width: 0.5"/>
     <use xlink:href="#m7661a48345" x="205.101366" y="98.509783" style="fill: #ff9300; stroke: #ffffff; stroke-width: 0.5"/>
     <use xlink:href="#m7661a48345" x="246.704123" y="67.971991" style="fill: #ff9300; stroke: #ffffff; stroke-width: 0.5"/>
    </g>
   </g>
   <g id="PathCollection_4">
    <defs>
     <path id="m3396758f96" d="M 0 3.162278 
C 0.838646 3.162278 1.643056 2.82908 2.236068 2.236068 
C 2.82908 1.643056 3.162278 0.838646 3.162278 0 
C 3.162278 -0.838646 2.82908 -1.643056 2.236068 -2.236068 
C 1.643056 -2.82908 0.838646 -3.162278 0 -3.162278 
C -0.838646 -3.162278 -1.643056 -2.82908 -2.236068 -2.236068 
C -2.82908 -1.643056 -3.162278 -0.838646 -3.162278 0 
C -3.162278 0.838646 -2.82908 1.643056 -2.236068 2.236068 
C -1.643056 2.82908 -0.838646 3.162278 0 3.162278 
z
" style="stroke: #ffffff; stroke-width: 0.5"/>
    </defs>
    <g clip-path="url(#p90a98ed783)">
     <use xlink:href="#m3396758f96" x="274.645725" y="175.01727" style="fill: #7030a0; stroke: #ffffff; stroke-width: 0.5"/>
     <use xlink:href="#m3396758f96" x="270.392544" y="182.74006" style="fill: #7030a0; stroke: #ffffff; stroke-width: 0.5"/>
     <use xlink:href="#m3396758f96" x="277.690199" y="179.780739" style="fill: #7030a0; stroke: #ffffff; stroke-width: 0.5"/>
     <use xlink:href="#m3396758f96" x="272.522188" y="127.244431" style="fill: #7030a0; stroke: #ffffff; stroke-width: 0.5"/>
     <use xlink:href="#m3396758f96" x="264.404926" y="214.340761" style="fill: #7030a0; stroke: #ffffff; stroke-width: 0.5"/>
     <use xlink:href="#m3396758f96" x="325.767647" y="193.524216" style="fill: #7030a0; stroke: #ffffff; stroke-width: 0.5"/>
     <use xlink:href="#m3396758f96" x="294.395529" y="160.902545" style="fill: #7030a0; stroke: #ffffff; stroke-width: 0.5"/>
     <use xlink:href="#m3396758f96" x="279.352887" y="150.0903" style="fill: #7030a0; stroke: #ffffff; stroke-width: 0.5"/>
     <use xlink:href="#m3396758f96" x="271.44773" y="211.068739" style="fill: #7030a0; stroke: #ffffff; stroke-width: 0.5"/>
     <use xlink:href="#m3396758f96" x="270.020716" y="166.228109" style="fill: #7030a0; stroke: #ffffff; stroke-width: 0.5"/>
     <use xlink:href="#m3396758f96" x="287.648364" y="126.655665" style="fill: #7030a0; stroke: #ffffff; stroke-width: 0.5"/>
     <use xlink:href="#m3396758f96" x="275.139711" y="165.464896" style="fill: #7030a0; stroke: #ffffff; stroke-width: 0.5"/>
     <use xlink:href="#m3396758f96" x="261.610958" y="173.205958" style="fill: #7030a0; stroke: #ffffff; stroke-width: 0.5"/>
     <use xlink:href="#m3396758f96" x="285.440705" y="162.910639" style="fill: #7030a0; stroke: #ffffff; stroke-width: 0.5"/>
     <use xlink:href="#m3396758f96" x="274.08731" y="166.296987" style="fill: #7030a0; stroke: #ffffff; stroke-width: 0.5"/>
     <use xlink:href="#m3396758f96" x="279.624997" y="177.688728" style="fill: #7030a0; stroke: #ffffff; stroke-width: 0.5"/>
     <use xlink:href="#m3396758f96" x="272.502563" y="181.06722" style="fill: #7030a0; stroke: #ffffff; stroke-width: 0.5"/>
     <use xlink:href="#m3396758f96" x="290.68981" y="128.111106" style="fill: #7030a0; stroke: #ffffff; stroke-width: 0.5"/>
     <use xlink:href="#m3396758f96" x="325.730759" y="209.417903" style="fill: #7030a0; stroke: #ffffff; stroke-width: 0.5"/>
     <use xlink:href="#m3396758f96" x="297.258649" y="124.68044" style="fill: #7030a0; stroke: #ffffff; stroke-width: 0.5"/>
     <use xlink:href="#m3396758f96" x="255.749435" y="134.513695" style="fill: #7030a0; stroke: #ffffff; stroke-width: 0.5"/>
     <use xlink:href="#m3396758f96" x="324.291492" y="188.299633" style="fill: #7030a0; stroke: #ffffff; stroke-width: 0.5"/>
     <use xlink:href="#m3396758f96" x="313.638897" y="157.062712" style="fill: #7030a0; stroke: #ffffff; stroke-width: 0.5"/>
     <use xlink:href="#m3396758f96" x="282.916337" y="176.258714" style="fill: #7030a0; stroke: #ffffff; stroke-width: 0.5"/>
     <use xlink:href="#m3396758f96" x="275.420873" y="166.190158" style="fill: #7030a0; stroke: #ffffff; stroke-width: 0.5"/>
    </g>
   </g>
   <g id="patch_3">
    <path d="M 46.327125 250.3101 
L 46.327125 26.3301 
" style="fill: none; stroke: #f0f0f0; stroke-width: 3; stroke-linejoin: miter; stroke-linecap: square"/>
   </g>
   <g id="patch_4">
    <path d="M 334.730562 250.3101 
L 334.730562 26.3301 
" style="fill: none; stroke: #f0f0f0; stroke-width: 3; stroke-linejoin: miter; stroke-linecap: square"/>
   </g>
   <g id="patch_5">
    <path d="M 46.327125 250.3101 
L 334.730562 250.3101 
" style="fill: none; stroke: #f0f0f0; stroke-width: 3; stroke-linejoin: miter; stroke-linecap: square"/>
   </g>
   <g id="patch_6">
    <path d="M 46.327125 26.3301 
L 334.730562 26.3301 
" style="fill: none; stroke: #f0f0f0; stroke-width: 3; stroke-linejoin: miter; stroke-linecap: square"/>
   </g>
   <g id="text_15">
    <!-- Model decision boundary -->
    <g style="fill: #808080" transform="translate(82.310143 20.3301) scale(0.1728 -0.1728)">
     <defs>
      <path id="DejaVuSans-4d" d="M 628 4666 
L 1569 4666 
L 2759 1491 
L 3956 4666 
L 4897 4666 
L 4897 0 
L 4281 0 
L 4281 4097 
L 3078 897 
L 2444 897 
L 1241 4097 
L 1241 0 
L 628 0 
L 628 4666 
z
" transform="scale(0.015625)"/>
      <path id="DejaVuSans-6f" d="M 1959 3097 
Q 1497 3097 1228 2736 
Q 959 2375 959 1747 
Q 959 1119 1226 758 
Q 1494 397 1959 397 
Q 2419 397 2687 759 
Q 2956 1122 2956 1747 
Q 2956 2369 2687 2733 
Q 2419 3097 1959 3097 
z
M 1959 3584 
Q 2709 3584 3137 3096 
Q 3566 2609 3566 1747 
Q 3566 888 3137 398 
Q 2709 -91 1959 -91 
Q 1206 -91 779 398 
Q 353 888 353 1747 
Q 353 2609 779 3096 
Q 1206 3584 1959 3584 
z
" transform="scale(0.015625)"/>
      <path id="DejaVuSans-64" d="M 2906 2969 
L 2906 4863 
L 3481 4863 
L 3481 0 
L 2906 0 
L 2906 525 
Q 2725 213 2448 61 
Q 2172 -91 1784 -91 
Q 1150 -91 751 415 
Q 353 922 353 1747 
Q 353 2572 751 3078 
Q 1150 3584 1784 3584 
Q 2172 3584 2448 3432 
Q 2725 3281 2906 2969 
z
M 947 1747 
Q 947 1113 1208 752 
Q 1469 391 1925 391 
Q 2381 391 2643 752 
Q 2906 1113 2906 1747 
Q 2906 2381 2643 2742 
Q 2381 3103 1925 3103 
Q 1469 3103 1208 2742 
Q 947 2381 947 1747 
z
" transform="scale(0.015625)"/>
      <path id="DejaVuSans-65" d="M 3597 1894 
L 3597 1613 
L 953 1613 
Q 991 1019 1311 708 
Q 1631 397 2203 397 
Q 2534 397 2845 478 
Q 3156 559 3463 722 
L 3463 178 
Q 3153 47 2828 -22 
Q 2503 -91 2169 -91 
Q 1331 -91 842 396 
Q 353 884 353 1716 
Q 353 2575 817 3079 
Q 1281 3584 2069 3584 
Q 2775 3584 3186 3129 
Q 3597 2675 3597 1894 
z
M 3022 2063 
Q 3016 2534 2758 2815 
Q 2500 3097 2075 3097 
Q 1594 3097 1305 2825 
Q 1016 2553 972 2059 
L 3022 2063 
z
" transform="scale(0.015625)"/>
      <path id="DejaVuSans-6c" d="M 603 4863 
L 1178 4863 
L 1178 0 
L 603 0 
L 603 4863 
z
" transform="scale(0.015625)"/>
      <path id="DejaVuSans-20" transform="scale(0.015625)"/>
      <path id="DejaVuSans-63" d="M 3122 3366 
L 3122 2828 
Q 2878 2963 2633 3030 
Q 2388 3097 2138 3097 
Q 1578 3097 1268 2742 
Q 959 2388 959 1747 
Q 959 1106 1268 751 
Q 1578 397 2138 397 
Q 2388 397 2633 464 
Q 2878 531 3122 666 
L 3122 134 
Q 2881 22 2623 -34 
Q 2366 -91 2075 -91 
Q 1284 -91 818 406 
Q 353 903 353 1747 
Q 353 2603 823 3093 
Q 1294 3584 2113 3584 
Q 2378 3584 2631 3529 
Q 2884 3475 3122 3366 
z
" transform="scale(0.015625)"/>
      <path id="DejaVuSans-69" d="M 603 3500 
L 1178 3500 
L 1178 0 
L 603 0 
L 603 3500 
z
M 603 4863 
L 1178 4863 
L 1178 4134 
L 603 4134 
L 603 4863 
z
" transform="scale(0.015625)"/>
      <path id="DejaVuSans-73" d="M 2834 3397 
L 2834 2853 
Q 2591 2978 2328 3040 
Q 2066 3103 1784 3103 
Q 1356 3103 1142 2972 
Q 928 2841 928 2578 
Q 928 2378 1081 2264 
Q 1234 2150 1697 2047 
L 1894 2003 
Q 2506 1872 2764 1633 
Q 3022 1394 3022 966 
Q 3022 478 2636 193 
Q 2250 -91 1575 -91 
Q 1294 -91 989 -36 
Q 684 19 347 128 
L 347 722 
Q 666 556 975 473 
Q 1284 391 1588 391 
Q 1994 391 2212 530 
Q 2431 669 2431 922 
Q 2431 1156 2273 1281 
Q 2116 1406 1581 1522 
L 1381 1569 
Q 847 1681 609 1914 
Q 372 2147 372 2553 
Q 372 3047 722 3315 
Q 1072 3584 1716 3584 
Q 2034 3584 2315 3537 
Q 2597 3491 2834 3397 
z
" transform="scale(0.015625)"/>
      <path id="DejaVuSans-6e" d="M 3513 2113 
L 3513 0 
L 2938 0 
L 2938 2094 
Q 2938 2591 2744 2837 
Q 2550 3084 2163 3084 
Q 1697 3084 1428 2787 
Q 1159 2491 1159 1978 
L 1159 0 
L 581 0 
L 581 3500 
L 1159 3500 
L 1159 2956 
Q 1366 3272 1645 3428 
Q 1925 3584 2291 3584 
Q 2894 3584 3203 3211 
Q 3513 2838 3513 2113 
z
" transform="scale(0.015625)"/>
      <path id="DejaVuSans-62" d="M 3116 1747 
Q 3116 2381 2855 2742 
Q 2594 3103 2138 3103 
Q 1681 3103 1420 2742 
Q 1159 2381 1159 1747 
Q 1159 1113 1420 752 
Q 1681 391 2138 391 
Q 2594 391 2855 752 
Q 3116 1113 3116 1747 
z
M 1159 2969 
Q 1341 3281 1617 3432 
Q 1894 3584 2278 3584 
Q 2916 3584 3314 3078 
Q 3713 2572 3713 1747 
Q 3713 922 3314 415 
Q 2916 -91 2278 -91 
Q 1894 -91 1617 61 
Q 1341 213 1159 525 
L 1159 0 
L 581 0 
L 581 4863 
L 1159 4863 
L 1159 2969 
z
" transform="scale(0.015625)"/>
      <path id="DejaVuSans-75" d="M 544 1381 
L 544 3500 
L 1119 3500 
L 1119 1403 
Q 1119 906 1312 657 
Q 1506 409 1894 409 
Q 2359 409 2629 706 
Q 2900 1003 2900 1516 
L 2900 3500 
L 3475 3500 
L 3475 0 
L 2900 0 
L 2900 538 
Q 2691 219 2414 64 
Q 2138 -91 1772 -91 
Q 1169 -91 856 284 
Q 544 659 544 1381 
z
M 1991 3584 
L 1991 3584 
z
" transform="scale(0.015625)"/>
      <path id="DejaVuSans-61" d="M 2194 1759 
Q 1497 1759 1228 1600 
Q 959 1441 959 1056 
Q 959 750 1161 570 
Q 1363 391 1709 391 
Q 2188 391 2477 730 
Q 2766 1069 2766 1631 
L 2766 1759 
L 2194 1759 
z
M 3341 1997 
L 3341 0 
L 2766 0 
L 2766 531 
Q 2569 213 2275 61 
Q 1981 -91 1556 -91 
Q 1019 -91 701 211 
Q 384 513 384 1019 
Q 384 1609 779 1909 
Q 1175 2209 1959 2209 
L 2766 2209 
L 2766 2266 
Q 2766 2663 2505 2880 
Q 2244 3097 1772 3097 
Q 1472 3097 1187 3025 
Q 903 2953 641 2809 
L 641 3341 
Q 956 3463 1253 3523 
Q 1550 3584 1831 3584 
Q 2591 3584 2966 3190 
Q 3341 2797 3341 1997 
z
" transform="scale(0.015625)"/>
      <path id="DejaVuSans-72" d="M 2631 2963 
Q 2534 3019 2420 3045 
Q 2306 3072 2169 3072 
Q 1681 3072 1420 2755 
Q 1159 2438 1159 1844 
L 1159 0 
L 581 0 
L 581 3500 
L 1159 3500 
L 1159 2956 
Q 1341 3275 1631 3429 
Q 1922 3584 2338 3584 
Q 2397 3584 2469 3576 
Q 2541 3569 2628 3553 
L 2631 2963 
z
" transform="scale(0.015625)"/>
      <path id="DejaVuSans-79" d="M 2059 -325 
Q 1816 -950 1584 -1140 
Q 1353 -1331 966 -1331 
L 506 -1331 
L 506 -850 
L 844 -850 
Q 1081 -850 1212 -737 
Q 1344 -625 1503 -206 
L 1606 56 
L 191 3500 
L 800 3500 
L 1894 763 
L 2988 3500 
L 3597 3500 
L 2059 -325 
z
" transform="scale(0.015625)"/>
     </defs>
     <use xlink:href="#DejaVuSans-4d"/>
     <use xlink:href="#DejaVuSans-6f" transform="translate(86.279297 0)"/>
     <use xlink:href="#DejaVuSans-64" transform="translate(147.460938 0)"/>
     <use xlink:href="#DejaVuSans-65" transform="translate(210.9375 0)"/>
     <use xlink:href="#DejaVuSans-6c" transform="translate(272.460938 0)"/>
     <use xlink:href="#DejaVuSans-20" transform="translate(300.244141 0)"/>
     <use xlink:href="#DejaVuSans-64" transform="translate(332.03125 0)"/>
     <use xlink:href="#DejaVuSans-65" transform="translate(395.507812 0)"/>
     <use xlink:href="#DejaVuSans-63" transform="translate(457.03125 0)"/>
     <use xlink:href="#DejaVuSans-69" transform="translate(512.011719 0)"/>
     <use xlink:href="#DejaVuSans-73" transform="translate(539.794922 0)"/>
     <use xlink:href="#DejaVuSans-69" transform="translate(591.894531 0)"/>
     <use xlink:href="#DejaVuSans-6f" transform="translate(619.677734 0)"/>
     <use xlink:href="#DejaVuSans-6e" transform="translate(680.859375 0)"/>
     <use xlink:href="#DejaVuSans-20" transform="translate(744.238281 0)"/>
     <use xlink:href="#DejaVuSans-62" transform="translate(776.025391 0)"/>
     <use xlink:href="#DejaVuSans-6f" transform="translate(839.501953 0)"/>
     <use xlink:href="#DejaVuSans-75" transform="translate(900.683594 0)"/>
     <use xlink:href="#DejaVuSans-6e" transform="translate(964.0625 0)"/>
     <use xlink:href="#DejaVuSans-64" transform="translate(1027.441406 0)"/>
     <use xlink:href="#DejaVuSans-61" transform="translate(1090.917969 0)"/>
     <use xlink:href="#DejaVuSans-72" transform="translate(1152.197266 0)"/>
     <use xlink:href="#DejaVuSans-79" transform="translate(1193.310547 0)"/>
    </g>
   </g>
   <g id="legend_1">
    <g id="patch_7">
     <path d="M 276.039312 79.7001 
L 329.130562 79.7001 
Q 330.730562 79.7001 330.730562 78.1001 
L 330.730562 31.9301 
Q 330.730562 30.3301 329.130562 30.3301 
L 276.039312 30.3301 
Q 274.439312 30.3301 274.439312 31.9301 
L 274.439312 78.1001 
Q 274.439312 79.7001 276.039312 79.7001 
z
" style="fill: #ffffff; opacity: 0.8; stroke: #cccccc; stroke-width: 0.5; stroke-linejoin: miter"/>
    </g>
    <g id="PathCollection_5">
     <g>
      <use xlink:href="#me42d211bec" x="285.639312" y="37.50885" style="fill: #0096ff; stroke: #ffffff; stroke-width: 0.5"/>
     </g>
    </g>
    <g id="text_16">
     <!-- class 0 -->
     <g transform="translate(300.039312 39.60885) scale(0.08 -0.08)">
      <use xlink:href="#DejaVuSans-63"/>
      <use xlink:href="#DejaVuSans-6c" transform="translate(54.980469 0)"/>
      <use xlink:href="#DejaVuSans-61" transform="translate(82.763672 0)"/>
      <use xlink:href="#DejaVuSans-73" transform="translate(144.042969 0)"/>
      <use xlink:href="#DejaVuSans-73" transform="translate(196.142578 0)"/>
      <use xlink:href="#DejaVuSans-20" transform="translate(248.242188 0)"/>
      <use xlink:href="#DejaVuSans-30" transform="translate(280.029297 0)"/>
     </g>
    </g>
    <g id="PathCollection_6">
     <g>
      <use xlink:href="#m5221bfeedd" x="285.639312" y="49.25135" style="fill: #2e8b57; stroke: #ffffff; stroke-width: 0.5"/>
     </g>
    </g>
    <g id="text_17">
     <!-- class 1 -->
     <g transform="translate(300.039312 51.35135) scale(0.08 -0.08)">
      <use xlink:href="#DejaVuSans-63"/>
      <use xlink:href="#DejaVuSans-6c" transform="translate(54.980469 0)"/>
      <use xlink:href="#DejaVuSans-61" transform="translate(82.763672 0)"/>
      <use xlink:href="#DejaVuSans-73" transform="translate(144.042969 0)"/>
      <use xlink:href="#DejaVuSans-73" transform="translate(196.142578 0)"/>
      <use xlink:href="#DejaVuSans-20" transform="translate(248.242188 0)"/>
      <use xlink:href="#DejaVuSans-31" transform="translate(280.029297 0)"/>
     </g>
    </g>
    <g id="PathCollection_7">
     <g>
      <use xlink:href="#m7661a48345" x="285.639312" y="60.99385" style="fill: #ff9300; stroke: #ffffff; stroke-width: 0.5"/>
     </g>
    </g>
    <g id="text_18">
     <!-- class 2 -->
     <g transform="translate(300.039312 63.09385) scale(0.08 -0.08)">
      <use xlink:href="#DejaVuSans-63"/>
      <use xlink:href="#DejaVuSans-6c" transform="translate(54.980469 0)"/>
      <use xlink:href="#DejaVuSans-61" transform="translate(82.763672 0)"/>
      <use xlink:href="#DejaVuSans-73" transform="translate(144.042969 0)"/>
      <use xlink:href="#DejaVuSans-73" transform="translate(196.142578 0)"/>
      <use xlink:href="#DejaVuSans-20" transform="translate(248.242188 0)"/>
      <use xlink:href="#DejaVuSans-32" transform="translate(280.029297 0)"/>
     </g>
    </g>
    <g id="PathCollection_8">
     <g>
      <use xlink:href="#m3396758f96" x="285.639312" y="72.73635" style="fill: #7030a0; stroke: #ffffff; stroke-width: 0.5"/>
     </g>
    </g>
    <g id="text_19">
     <!-- class 3 -->
     <g transform="translate(300.039312 74.83635) scale(0.08 -0.08)">
      <defs>
       <path id="DejaVuSans-33" d="M 2597 2516 
Q 3050 2419 3304 2112 
Q 3559 1806 3559 1356 
Q 3559 666 3084 287 
Q 2609 -91 1734 -91 
Q 1441 -91 1130 -33 
Q 819 25 488 141 
L 488 750 
Q 750 597 1062 519 
Q 1375 441 1716 441 
Q 2309 441 2620 675 
Q 2931 909 2931 1356 
Q 2931 1769 2642 2001 
Q 2353 2234 1838 2234 
L 1294 2234 
L 1294 2753 
L 1863 2753 
Q 2328 2753 2575 2939 
Q 2822 3125 2822 3475 
Q 2822 3834 2567 4026 
Q 2313 4219 1838 4219 
Q 1578 4219 1281 4162 
Q 984 4106 628 3988 
L 628 4550 
Q 988 4650 1302 4700 
Q 1616 4750 1894 4750 
Q 2613 4750 3031 4423 
Q 3450 4097 3450 3541 
Q 3450 3153 3228 2886 
Q 3006 2619 2597 2516 
z
" transform="scale(0.015625)"/>
      </defs>
      <use xlink:href="#DejaVuSans-63"/>
      <use xlink:href="#DejaVuSans-6c" transform="translate(54.980469 0)"/>
      <use xlink:href="#DejaVuSans-61" transform="translate(82.763672 0)"/>
      <use xlink:href="#DejaVuSans-73" transform="translate(144.042969 0)"/>
      <use xlink:href="#DejaVuSans-73" transform="translate(196.142578 0)"/>
      <use xlink:href="#DejaVuSans-20" transform="translate(248.242188 0)"/>
      <use xlink:href="#DejaVuSans-33" transform="translate(280.029297 0)"/>
     </g>
    </g>
   </g>
  </g>
 </g>
 <defs>
  <clipPath id="p90a98ed783">
   <rect x="46.327125" y="26.3301" width="288.403437" height="223.98"/>
  </clipPath>
 </defs>
</svg>
