<?xml version="1.0" encoding="utf-8" standalone="no"?>
<!DOCTYPE svg PUBLIC "-//W3C//DTD SVG 1.1//EN"
  "http://www.w3.org/Graphics/SVG/1.1/DTD/svg11.dtd">
<svg xmlns:xlink="http://www.w3.org/1999/xlink" width="685.546667pt" height="362.88pt" viewBox="0 0 685.546667 362.88" xmlns="http://www.w3.org/2000/svg" version="1.1">
 <metadata>
  <rdf:RDF xmlns:dc="http://purl.org/dc/elements/1.1/" xmlns:cc="http://creativecommons.org/ns#" xmlns:rdf="http://www.w3.org/1999/02/22-rdf-syntax-ns#">
   <cc:Work>
    <dc:type rdf:resource="http://purl.org/dc/dcmitype/StillImage"/>
    <dc:date>2026-07-15T10:29:53.900808</dc:date>
    <dc:format>image/svg+xml</dc:format>
    <dc:creator>
     <cc:Agent>
      <dc:title>Matplotlib v3.10.8, https://matplotlib.org/</dc:title>
     </cc:Agent>
    </dc:creator>
   </cc:Work>
  </rdf:RDF>
 </metadata>
 <defs>
  <style type="text/css">*{stroke-linejoin: round; stroke-linecap: butt}</style>
 </defs>
 <g id="figure_1">
  <g id="patch_1">
   <path d="M 0 362.88 
L 685.546667 362.88 
L 685.546667 0 
L 0 0 
z
" style="fill: #ffffff"/>
  </g>
  <g id="axes_1">
   <g id="line2d_1">
    <path d="M 102.585569 116.946534 
L 204.424477 104.965486 
" clip-path="url(#pceac9c77f2)" style="fill: none; stroke: #d0d0d0; stroke-width: 0.7"/>
   </g>
   <g id="line2d_2">
    <path d="M 102.228999 123.196366 
L 204.950842 147.366211 
" clip-path="url(#pceac9c77f2)" style="fill: none; stroke: #d0d0d0; stroke-width: 0.7"/>
   </g>
   <g id="line2d_3">
    <path d="M 100.214577 128.219293 
L 207.924514 191.57808 
" clip-path="url(#pceac9c77f2)" style="fill: none; stroke: #d0d0d0; stroke-width: 0.7"/>
   </g>
   <g id="line2d_4">
    <path d="M 97.416948 131.834726 
L 212.054346 246.472124 
" clip-path="url(#pceac9c77f2)" style="fill: none; stroke: #d0d0d0; stroke-width: 0.7"/>
   </g>
   <g id="line2d_5">
    <path d="M 101.348317 155.200105 
L 206.250897 112.004925 
" clip-path="url(#pceac9c77f2)" style="fill: none; stroke: #d0d0d0; stroke-width: 0.7"/>
   </g>
   <g id="line2d_6">
    <path d="M 102.678152 161.018932 
L 204.287807 155.041894 
" clip-path="url(#pceac9c77f2)" style="fill: none; stroke: #d0d0d0; stroke-width: 0.7"/>
   </g>
   <g id="line2d_7">
    <path d="M 101.975095 167.178557 
L 205.325653 197.57578 
" clip-path="url(#pceac9c77f2)" style="fill: none; stroke: #d0d0d0; stroke-width: 0.7"/>
   </g>
   <g id="line2d_8">
    <path d="M 99.402065 172.500281 
L 209.123936 249.951014 
" clip-path="url(#pceac9c77f2)" style="fill: none; stroke: #d0d0d0; stroke-width: 0.7"/>
   </g>
   <g id="line2d_9">
    <path d="M 97.416948 235.347496 
L 212.054346 120.710098 
" clip-path="url(#pceac9c77f2)" style="fill: none; stroke: #d0d0d0; stroke-width: 0.7"/>
   </g>
   <g id="line2d_10">
    <path d="M 99.810473 238.308256 
L 208.521048 167.966119 
" clip-path="url(#pceac9c77f2)" style="fill: none; stroke: #d0d0d0; stroke-width: 0.7"/>
   </g>
   <g id="line2d_11">
    <path d="M 101.975095 243.025887 
L 205.325653 212.628664 
" clip-path="url(#pceac9c77f2)" style="fill: none; stroke: #d0d0d0; stroke-width: 0.7"/>
   </g>
   <g id="line2d_12">
    <path d="M 102.585569 250.235688 
L 204.424477 262.216736 
" clip-path="url(#pceac9c77f2)" style="fill: none; stroke: #d0d0d0; stroke-width: 0.7"/>
   </g>
   <g id="line2d_13">
    <path d="M 257.305501 105.729763 
L 350.801165 119.479126 
" clip-path="url(#pceac9c77f2)" style="fill: none; stroke: #d0d0d0; stroke-width: 0.7"/>
   </g>
   <g id="line2d_14">
    <path d="M 254.200256 114.860927 
L 353.906411 170.579073 
" clip-path="url(#pceac9c77f2)" style="fill: none; stroke: #d0d0d0; stroke-width: 0.7"/>
   </g>
   <g id="line2d_15">
    <path d="M 250.056143 120.426518 
L 358.050523 225.244593 
" clip-path="url(#pceac9c77f2)" style="fill: none; stroke: #d0d0d0; stroke-width: 0.7"/>
   </g>
   <g id="line2d_16">
    <path d="M 257.041375 148.09671 
L 351.065292 128.738845 
" clip-path="url(#pceac9c77f2)" style="fill: none; stroke: #d0d0d0; stroke-width: 0.7"/>
   </g>
   <g id="line2d_17">
    <path d="M 257.041375 158.854401 
L 351.065292 178.212266 
" clip-path="url(#pceac9c77f2)" style="fill: none; stroke: #d0d0d0; stroke-width: 0.7"/>
   </g>
   <g id="line2d_18">
    <path d="M 253.609552 167.492436 
L 354.497114 229.805342 
" clip-path="url(#pceac9c77f2)" style="fill: none; stroke: #d0d0d0; stroke-width: 0.7"/>
   </g>
   <g id="line2d_19">
    <path d="M 254.200256 192.090184 
L 353.906411 136.372038 
" clip-path="url(#pceac9c77f2)" style="fill: none; stroke: #d0d0d0; stroke-width: 0.7"/>
   </g>
   <g id="line2d_20">
    <path d="M 257.305501 201.221348 
L 350.801165 187.471985 
" clip-path="url(#pceac9c77f2)" style="fill: none; stroke: #d0d0d0; stroke-width: 0.7"/>
   </g>
   <g id="line2d_21">
    <path d="M 256.701236 211.927844 
L 351.405431 236.996601 
" clip-path="url(#pceac9c77f2)" style="fill: none; stroke: #d0d0d0; stroke-width: 0.7"/>
   </g>
   <g id="line2d_22">
    <path d="M 250.056143 246.755704 
L 358.050523 141.937629 
" clip-path="url(#pceac9c77f2)" style="fill: none; stroke: #d0d0d0; stroke-width: 0.7"/>
   </g>
   <g id="line2d_23">
    <path d="M 254.200256 252.321295 
L 353.906411 196.60315 
" clip-path="url(#pceac9c77f2)" style="fill: none; stroke: #d0d0d0; stroke-width: 0.7"/>
   </g>
   <g id="line2d_24">
    <path d="M 257.305501 261.452459 
L 350.801165 247.703097 
" clip-path="url(#pceac9c77f2)" style="fill: none; stroke: #d0d0d0; stroke-width: 0.7"/>
   </g>
   <g id="line2d_25">
    <path d="M 403.81886 121.793662 
L 499.845277 116.145049 
" clip-path="url(#pceac9c77f2)" style="fill: none; stroke: #d0d0d0; stroke-width: 0.7"/>
   </g>
   <g id="line2d_26">
    <path d="M 401.855769 133.516036 
L 501.586728 174.581725 
" clip-path="url(#pceac9c77f2)" style="fill: none; stroke: #d0d0d0; stroke-width: 0.7"/>
   </g>
   <g id="line2d_27">
    <path d="M 397.192119 141.007949 
L 505.723837 236.771228 
" clip-path="url(#pceac9c77f2)" style="fill: none; stroke: #d0d0d0; stroke-width: 0.7"/>
   </g>
   <g id="line2d_28">
    <path d="M 401.326044 172.233496 
L 502.056645 124.83086 
" clip-path="url(#pceac9c77f2)" style="fill: none; stroke: #d0d0d0; stroke-width: 0.7"/>
   </g>
   <g id="line2d_29">
    <path d="M 403.864889 183.591111 
L 499.804444 183.591111 
" clip-path="url(#pceac9c77f2)" style="fill: none; stroke: #d0d0d0; stroke-width: 0.7"/>
   </g>
   <g id="line2d_30">
    <path d="M 401.326044 194.948727 
L 502.056645 242.351363 
" clip-path="url(#pceac9c77f2)" style="fill: none; stroke: #d0d0d0; stroke-width: 0.7"/>
   </g>
   <g id="line2d_31">
    <path d="M 397.192119 226.174274 
L 505.723837 130.410994 
" clip-path="url(#pceac9c77f2)" style="fill: none; stroke: #d0d0d0; stroke-width: 0.7"/>
   </g>
   <g id="line2d_32">
    <path d="M 401.855769 233.666187 
L 501.586728 192.600498 
" clip-path="url(#pceac9c77f2)" style="fill: none; stroke: #d0d0d0; stroke-width: 0.7"/>
   </g>
   <g id="line2d_33">
    <path d="M 403.81886 245.38856 
L 499.845277 251.037173 
" clip-path="url(#pceac9c77f2)" style="fill: none; stroke: #d0d0d0; stroke-width: 0.7"/>
   </g>
   <g id="patch_2">
    <path d="M 552.572786 114.755556 
Q 564.983883 114.755556 576.05334 114.755556 
" style="fill: none; stroke: #2b7bbf; stroke-width: 1.2; stroke-linecap: round"/>
    <path d="M 571.25334 112.355556 
L 576.05334 114.755556 
L 571.25334 117.155556 
" style="fill: none; stroke: #2b7bbf; stroke-width: 1.2; stroke-linecap: round"/>
   </g>
   <g id="patch_3">
    <path d="M 552.572786 183.591111 
Q 564.983883 183.591111 576.05334 183.591111 
" style="fill: none; stroke: #2b7bbf; stroke-width: 1.2; stroke-linecap: round"/>
    <path d="M 571.25334 181.191111 
L 576.05334 183.591111 
L 571.25334 185.991111 
" style="fill: none; stroke: #2b7bbf; stroke-width: 1.2; stroke-linecap: round"/>
   </g>
   <g id="patch_4">
    <path d="M 552.572786 252.426667 
Q 564.983883 252.426667 576.05334 252.426667 
" style="fill: none; stroke: #2b7bbf; stroke-width: 1.2; stroke-linecap: round"/>
    <path d="M 571.25334 250.026667 
L 576.05334 252.426667 
L 571.25334 254.826667 
" style="fill: none; stroke: #2b7bbf; stroke-width: 1.2; stroke-linecap: round"/>
   </g>
   <g id="patch_5">
    <path d="M 84.64 137.127111 
C 89.432043 137.127111 94.028462 135.223212 97.416948 131.834726 
C 100.805434 128.44624 102.709333 123.849821 102.709333 119.057778 
C 102.709333 114.265735 100.805434 109.669316 97.416948 106.28083 
C 94.028462 102.892343 89.432043 100.988444 84.64 100.988444 
C 79.847957 100.988444 75.251538 102.892343 71.863052 106.28083 
C 68.474566 109.669316 66.570667 114.265735 66.570667 119.057778 
C 66.570667 123.849821 68.474566 128.44624 71.863052 131.834726 
C 75.251538 135.223212 79.847957 137.127111 84.64 137.127111 
z
" clip-path="url(#pceac9c77f2)" style="fill: #c8ced8; stroke: #ffffff; stroke-width: 1.5; stroke-linejoin: miter"/>
   </g>
   <g id="patch_6">
    <path d="M 84.64 180.149333 
C 89.432043 180.149333 94.028462 178.245434 97.416948 174.856948 
C 100.805434 171.468462 102.709333 166.872043 102.709333 162.08 
C 102.709333 157.287957 100.805434 152.691538 97.416948 149.303052 
C 94.028462 145.914566 89.432043 144.010667 84.64 144.010667 
C 79.847957 144.010667 75.251538 145.914566 71.863052 149.303052 
C 68.474566 152.691538 66.570667 157.287957 66.570667 162.08 
C 66.570667 166.872043 68.474566 171.468462 71.863052 174.856948 
C 75.251538 178.245434 79.847957 180.149333 84.64 180.149333 
z
" clip-path="url(#pceac9c77f2)" style="fill: #c8ced8; stroke: #ffffff; stroke-width: 1.5; stroke-linejoin: miter"/>
   </g>
   <g id="patch_7">
    <path d="M 84.64 266.193778 
C 89.432043 266.193778 94.028462 264.289879 97.416948 260.901393 
C 100.805434 257.512906 102.709333 252.916488 102.709333 248.124444 
C 102.709333 243.332401 100.805434 238.735983 97.416948 235.347496 
C 94.028462 231.95901 89.432043 230.055111 84.64 230.055111 
C 79.847957 230.055111 75.251538 231.95901 71.863052 235.347496 
C 68.474566 238.735983 66.570667 243.332401 66.570667 248.124444 
C 66.570667 252.916488 68.474566 257.512906 71.863052 260.901393 
C 75.251538 264.289879 79.847957 266.193778 84.64 266.193778 
z
" clip-path="url(#pceac9c77f2)" style="fill: #c8ced8; stroke: #ffffff; stroke-width: 1.5; stroke-linejoin: miter"/>
   </g>
   <g id="patch_8">
    <path d="M 230.915556 128.522667 
C 237.989524 128.522667 244.774714 125.712149 249.776765 120.710098 
C 254.778816 115.708047 257.589333 108.922857 257.589333 101.848889 
C 257.589333 94.77492 254.778816 87.989731 249.776765 82.98768 
C 244.774714 77.985629 237.989524 75.175111 230.915556 75.175111 
C 223.841587 75.175111 217.056398 77.985629 212.054346 82.98768 
C 207.052295 87.989731 204.241778 94.77492 204.241778 101.848889 
C 204.241778 108.922857 207.052295 115.708047 212.054346 120.710098 
C 217.056398 125.712149 223.841587 128.522667 230.915556 128.522667 
z
" clip-path="url(#pceac9c77f2)" style="fill: #7ed4e6; stroke: #ffffff; stroke-width: 1.5; stroke-linejoin: miter"/>
   </g>
   <g id="patch_9">
    <path d="M 230.915556 180.149333 
C 237.989524 180.149333 244.774714 177.338816 249.776765 172.336765 
C 254.778816 167.334714 257.589333 160.549524 257.589333 153.475556 
C 257.589333 146.401587 254.778816 139.616398 249.776765 134.614346 
C 244.774714 129.612295 237.989524 126.801778 230.915556 126.801778 
C 223.841587 126.801778 217.056398 129.612295 212.054346 134.614346 
C 207.052295 139.616398 204.241778 146.401587 204.241778 153.475556 
C 204.241778 160.549524 207.052295 167.334714 212.054346 172.336765 
C 217.056398 177.338816 223.841587 180.149333 230.915556 180.149333 
z
" clip-path="url(#pceac9c77f2)" style="fill: #7ed4e6; stroke: #ffffff; stroke-width: 1.5; stroke-linejoin: miter"/>
   </g>
   <g id="patch_10">
    <path d="M 230.915556 231.776 
C 237.989524 231.776 244.774714 228.965483 249.776765 223.963431 
C 254.778816 218.96138 257.589333 212.176191 257.589333 205.102222 
C 257.589333 198.028254 254.778816 191.243064 249.776765 186.241013 
C 244.774714 181.238962 237.989524 178.428444 230.915556 178.428444 
C 223.841587 178.428444 217.056398 181.238962 212.054346 186.241013 
C 207.052295 191.243064 204.241778 198.028254 204.241778 205.102222 
C 204.241778 212.176191 207.052295 218.96138 212.054346 223.963431 
C 217.056398 228.965483 223.841587 231.776 230.915556 231.776 
z
" clip-path="url(#pceac9c77f2)" style="fill: #7ed4e6; stroke: #ffffff; stroke-width: 1.5; stroke-linejoin: miter"/>
   </g>
   <g id="patch_11">
    <path d="M 230.915556 292.007111 
C 237.989524 292.007111 244.774714 289.196594 249.776765 284.194542 
C 254.778816 279.192491 257.589333 272.407302 257.589333 265.333333 
C 257.589333 258.259365 254.778816 251.474175 249.776765 246.472124 
C 244.774714 241.470073 237.989524 238.659556 230.915556 238.659556 
C 223.841587 238.659556 217.056398 241.470073 212.054346 246.472124 
C 207.052295 251.474175 204.241778 258.259365 204.241778 265.333333 
C 204.241778 272.407302 207.052295 279.192491 212.054346 284.194542 
C 217.056398 289.196594 223.841587 292.007111 230.915556 292.007111 
z
" clip-path="url(#pceac9c77f2)" style="fill: #7ed4e6; stroke: #ffffff; stroke-width: 1.5; stroke-linejoin: miter"/>
   </g>
   <g id="patch_12">
    <path d="M 377.191111 150.033778 
C 384.26508 150.033778 391.050269 147.22326 396.05232 142.221209 
C 401.054371 137.219158 403.864889 130.433969 403.864889 123.36 
C 403.864889 116.286031 401.054371 109.500842 396.05232 104.498791 
C 391.050269 99.49674 384.26508 96.686222 377.191111 96.686222 
C 370.117143 96.686222 363.331953 99.49674 358.329902 104.498791 
C 353.327851 109.500842 350.517333 116.286031 350.517333 123.36 
C 350.517333 130.433969 353.327851 137.219158 358.329902 142.221209 
C 363.331953 147.22326 370.117143 150.033778 377.191111 150.033778 
z
" clip-path="url(#pceac9c77f2)" style="fill: #7ed4e6; stroke: #ffffff; stroke-width: 1.5; stroke-linejoin: miter"/>
   </g>
   <g id="patch_13">
    <path d="M 377.191111 210.264889 
C 384.26508 210.264889 391.050269 207.454371 396.05232 202.45232 
C 401.054371 197.450269 403.864889 190.66508 403.864889 183.591111 
C 403.864889 176.517143 401.054371 169.731953 396.05232 164.729902 
C 391.050269 159.727851 384.26508 156.917333 377.191111 156.917333 
C 370.117143 156.917333 363.331953 159.727851 358.329902 164.729902 
C 353.327851 169.731953 350.517333 176.517143 350.517333 183.591111 
C 350.517333 190.66508 353.327851 197.450269 358.329902 202.45232 
C 363.331953 207.454371 370.117143 210.264889 377.191111 210.264889 
z
" clip-path="url(#pceac9c77f2)" style="fill: #7ed4e6; stroke: #ffffff; stroke-width: 1.5; stroke-linejoin: miter"/>
   </g>
   <g id="patch_14">
    <path d="M 377.191111 270.496 
C 384.26508 270.496 391.050269 267.685483 396.05232 262.683431 
C 401.054371 257.68138 403.864889 250.896191 403.864889 243.822222 
C 403.864889 236.748254 401.054371 229.963064 396.05232 224.961013 
C 391.050269 219.958962 384.26508 217.148444 377.191111 217.148444 
C 370.117143 217.148444 363.331953 219.958962 358.329902 224.961013 
C 353.327851 229.963064 350.517333 236.748254 350.517333 243.822222 
C 350.517333 250.896191 353.327851 257.68138 358.329902 262.683431 
C 363.331953 267.685483 370.117143 270.496 377.191111 270.496 
z
" clip-path="url(#pceac9c77f2)" style="fill: #7ed4e6; stroke: #ffffff; stroke-width: 1.5; stroke-linejoin: miter"/>
   </g>
   <g id="patch_15">
    <path d="M 523.466667 138.417778 
C 529.741961 138.417778 535.761081 135.924577 540.198384 131.487273 
C 544.635688 127.04997 547.128889 121.03085 547.128889 114.755556 
C 547.128889 108.480261 544.635688 102.461141 540.198384 98.023838 
C 535.761081 93.586534 529.741961 91.093333 523.466667 91.093333 
C 517.191372 91.093333 511.172252 93.586534 506.734949 98.023838 
C 502.297645 102.461141 499.804444 108.480261 499.804444 114.755556 
C 499.804444 121.03085 502.297645 127.04997 506.734949 131.487273 
C 511.172252 135.924577 517.191372 138.417778 523.466667 138.417778 
z
" clip-path="url(#pceac9c77f2)" style="fill: #f49ac9; stroke: #ffffff; stroke-width: 1.5; stroke-linejoin: miter"/>
   </g>
   <g id="patch_16">
    <path d="M 523.466667 207.253333 
C 529.741961 207.253333 535.761081 204.760132 540.198384 200.322829 
C 544.635688 195.885525 547.128889 189.866406 547.128889 183.591111 
C 547.128889 177.315816 544.635688 171.296697 540.198384 166.859393 
C 535.761081 162.42209 529.741961 159.928889 523.466667 159.928889 
C 517.191372 159.928889 511.172252 162.42209 506.734949 166.859393 
C 502.297645 171.296697 499.804444 177.315816 499.804444 183.591111 
C 499.804444 189.866406 502.297645 195.885525 506.734949 200.322829 
C 511.172252 204.760132 517.191372 207.253333 523.466667 207.253333 
z
" clip-path="url(#pceac9c77f2)" style="fill: #f49ac9; stroke: #ffffff; stroke-width: 1.5; stroke-linejoin: miter"/>
   </g>
   <g id="patch_17">
    <path d="M 523.466667 276.088889 
C 529.741961 276.088889 535.761081 273.595688 540.198384 269.158384 
C 544.635688 264.721081 547.128889 258.701961 547.128889 252.426667 
C 547.128889 246.151372 544.635688 240.132252 540.198384 235.694949 
C 535.761081 231.257645 529.741961 228.764444 523.466667 228.764444 
C 517.191372 228.764444 511.172252 231.257645 506.734949 235.694949 
C 502.297645 240.132252 499.804444 246.151372 499.804444 252.426667 
C 499.804444 258.701961 502.297645 264.721081 506.734949 269.158384 
C 511.172252 273.595688 517.191372 276.088889 523.466667 276.088889 
z
" clip-path="url(#pceac9c77f2)" style="fill: #f49ac9; stroke: #ffffff; stroke-width: 1.5; stroke-linejoin: miter"/>
   </g>
   <g id="text_1">
    <!-- $x_1$ -->
    <g transform="translate(78.22 122.369028) scale(0.12 -0.12)">
     <defs>
      <path id="DejaVuSans-Oblique-78" d="M 3841 3500 
L 2234 1784 
L 3219 0 
L 2559 0 
L 1819 1388 
L 531 0 
L -166 0 
L 1556 1844 
L 641 3500 
L 1300 3500 
L 1972 2234 
L 3144 3500 
L 3841 3500 
z
" transform="scale(0.015625)"/>
      <path id="DejaVuSans-31" d="M 794 531 
L 1825 531 
L 1825 4091 
L 703 3866 
L 703 4441 
L 1819 4666 
L 2450 4666 
L 2450 531 
L 3481 531 
L 3481 0 
L 794 0 
L 794 531 
z
" transform="scale(0.015625)"/>
     </defs>
     <use xlink:href="#DejaVuSans-Oblique-78" transform="translate(0 0.3125)"/>
     <use xlink:href="#DejaVuSans-31" transform="translate(59.179688 -16.09375) scale(0.7)"/>
    </g>
   </g>
   <g id="text_2">
    <!-- $x_2$ -->
    <g transform="translate(78.22 165.39125) scale(0.12 -0.12)">
     <defs>
      <path id="DejaVuSans-32" d="M 1228 531 
L 3431 531 
L 3431 0 
L 469 0 
L 469 531 
Q 828 903 1448 1529 
Q 2069 2156 2228 2338 
Q 2531 2678 2651 2914 
Q 2772 3150 2772 3378 
Q 2772 3750 2511 3984 
Q 2250 4219 1831 4219 
Q 1534 4219 1204 4116 
Q 875 4013 500 3803 
L 500 4441 
Q 881 4594 1212 4672 
Q 1544 4750 1819 4750 
Q 2544 4750 2975 4387 
Q 3406 4025 3406 3419 
Q 3406 3131 3298 2873 
Q 3191 2616 2906 2266 
Q 2828 2175 2409 1742 
Q 1991 1309 1228 531 
z
" transform="scale(0.015625)"/>
     </defs>
     <use xlink:href="#DejaVuSans-Oblique-78" transform="translate(0 0.3125)"/>
     <use xlink:href="#DejaVuSans-32" transform="translate(59.179688 -16.09375) scale(0.7)"/>
    </g>
   </g>
   <g id="text_3">
    <!-- $x_n$ -->
    <g transform="translate(78.22 251.435694) scale(0.12 -0.12)">
     <defs>
      <path id="DejaVuSans-Oblique-6e" d="M 3566 2113 
L 3156 0 
L 2578 0 
L 2988 2091 
Q 3016 2238 3031 2350 
Q 3047 2463 3047 2528 
Q 3047 2791 2881 2937 
Q 2716 3084 2419 3084 
Q 1956 3084 1622 2776 
Q 1288 2469 1184 1941 
L 800 0 
L 225 0 
L 903 3500 
L 1478 3500 
L 1363 2950 
Q 1603 3253 1940 3418 
Q 2278 3584 2650 3584 
Q 3113 3584 3367 3334 
Q 3622 3084 3622 2631 
Q 3622 2519 3608 2391 
Q 3594 2263 3566 2113 
z
" transform="scale(0.015625)"/>
     </defs>
     <use xlink:href="#DejaVuSans-Oblique-78" transform="translate(0 0.3125)"/>
     <use xlink:href="#DejaVuSans-Oblique-6e" transform="translate(59.179688 -16.09375) scale(0.7)"/>
    </g>
   </g>
   <g id="text_4">
    <!-- $\vdots$ -->
    <g transform="translate(76.64 209.517222) scale(0.16 -0.16)">
     <defs>
      <path id="DejaVuSans-22ee" d="M 2868 187 
L 3528 187 
L 3528 -607 
L 2868 -607 
L 2868 187 
z
M 2868 4603 
L 3528 4603 
L 3528 3809 
L 2868 3809 
L 2868 4603 
z
M 2868 2363 
L 3528 2363 
L 3528 1569 
L 2868 1569 
L 2868 2363 
z
" transform="scale(0.015625)"/>
     </defs>
     <use xlink:href="#DejaVuSans-22ee" transform="translate(0 0.078125)"/>
    </g>
   </g>
   <g id="patch_18">
    <path d="M 261.739176 50.222222 
Q 304.052079 50.222222 344.68793 50.222222 
" style="fill: none; stroke: #cc7000; stroke-width: 1.5; stroke-linecap: round"/>
    <path d="M 339.88793 47.822222 
L 344.68793 50.222222 
L 339.88793 52.622222 
" style="fill: none; stroke: #cc7000; stroke-width: 1.5; stroke-linecap: round"/>
   </g>
   <g id="text_5">
    <!-- $\vec{a}^{[1]}$ -->
    <g style="fill: #cc7000" transform="translate(294.153333 38.475694) scale(0.12 -0.12)">
     <defs>
      <path id="DejaVuSans-20d7" d="M -3009 4066 
L -3009 4378 
L -694 4378 
L -1106 4863 
L -713 4863 
L -166 4222 
L -713 3581 
L -1106 3581 
L -694 4066 
L -3009 4066 
z
" transform="scale(0.015625)"/>
      <path id="DejaVuSans-Oblique-61" d="M 3438 1997 
L 3047 0 
L 2472 0 
L 2578 531 
Q 2325 219 2001 64 
Q 1678 -91 1281 -91 
Q 834 -91 548 182 
Q 263 456 263 884 
Q 263 1497 752 1853 
Q 1241 2209 2100 2209 
L 2900 2209 
L 2931 2363 
Q 2938 2388 2941 2417 
Q 2944 2447 2944 2509 
Q 2944 2788 2717 2942 
Q 2491 3097 2081 3097 
Q 1800 3097 1504 3025 
Q 1209 2953 897 2809 
L 997 3341 
Q 1322 3463 1633 3523 
Q 1944 3584 2234 3584 
Q 2853 3584 3176 3315 
Q 3500 3047 3500 2534 
Q 3500 2431 3484 2292 
Q 3469 2153 3438 1997 
z
M 2816 1759 
L 2241 1759 
Q 1534 1759 1195 1570 
Q 856 1381 856 984 
Q 856 709 1029 553 
Q 1203 397 1509 397 
Q 1978 397 2328 733 
Q 2678 1069 2791 1631 
L 2816 1759 
z
" transform="scale(0.015625)"/>
      <path id="DejaVuSans-5b" d="M 550 4863 
L 1875 4863 
L 1875 4416 
L 1125 4416 
L 1125 -397 
L 1875 -397 
L 1875 -844 
L 550 -844 
L 550 4863 
z
" transform="scale(0.015625)"/>
      <path id="DejaVuSans-5d" d="M 1947 4863 
L 1947 -844 
L 622 -844 
L 622 -397 
L 1369 -397 
L 1369 4416 
L 622 4416 
L 622 4863 
L 1947 4863 
z
" transform="scale(0.015625)"/>
     </defs>
     <use xlink:href="#DejaVuSans-20d7" transform="translate(63.335449 13.076562)"/>
     <use xlink:href="#DejaVuSans-Oblique-61" transform="translate(0 0.529687)"/>
     <use xlink:href="#DejaVuSans-5b" transform="translate(62.236328 38.810937) scale(0.7)"/>
     <use xlink:href="#DejaVuSans-31" transform="translate(89.545898 38.810937) scale(0.7)"/>
     <use xlink:href="#DejaVuSans-5d" transform="translate(134.082031 38.810937) scale(0.7)"/>
    </g>
   </g>
   <g id="patch_19">
    <path d="M 408.014732 50.222222 
Q 450.327634 50.222222 490.963486 50.222222 
" style="fill: none; stroke: #1e6b3e; stroke-width: 1.5; stroke-linecap: round"/>
    <path d="M 486.163486 47.822222 
L 490.963486 50.222222 
L 486.163486 52.622222 
" style="fill: none; stroke: #1e6b3e; stroke-width: 1.5; stroke-linecap: round"/>
   </g>
   <g id="text_6">
    <!-- $\vec{a}^{[2]}$ -->
    <g style="fill: #1e6b3e" transform="translate(440.428889 38.475694) scale(0.12 -0.12)">
     <use xlink:href="#DejaVuSans-20d7" transform="translate(63.335449 13.076562)"/>
     <use xlink:href="#DejaVuSans-Oblique-61" transform="translate(0 0.529687)"/>
     <use xlink:href="#DejaVuSans-5b" transform="translate(62.236328 38.810937) scale(0.7)"/>
     <use xlink:href="#DejaVuSans-32" transform="translate(89.545898 38.810937) scale(0.7)"/>
     <use xlink:href="#DejaVuSans-5d" transform="translate(134.082031 38.810937) scale(0.7)"/>
    </g>
   </g>
   <g id="text_7">
    <!-- $a_1^{[3]}$ -->
    <g style="fill: #2b7bbf" transform="translate(555.528 102.210667) scale(0.11 -0.11)">
     <defs>
      <path id="DejaVuSans-33" d="M 2597 2516 
Q 3050 2419 3304 2112 
Q 3559 1806 3559 1356 
Q 3559 666 3084 287 
Q 2609 -91 1734 -91 
Q 1441 -91 1130 -33 
Q 819 25 488 141 
L 488 750 
Q 750 597 1062 519 
Q 1375 441 1716 441 
Q 2309 441 2620 675 
Q 2931 909 2931 1356 
Q 2931 1769 2642 2001 
Q 2353 2234 1838 2234 
L 1294 2234 
L 1294 2753 
L 1863 2753 
Q 2328 2753 2575 2939 
Q 2822 3125 2822 3475 
Q 2822 3834 2567 4026 
Q 2313 4219 1838 4219 
Q 1578 4219 1281 4162 
Q 984 4106 628 3988 
L 628 4550 
Q 988 4650 1302 4700 
Q 1616 4750 1894 4750 
Q 2613 4750 3031 4423 
Q 3450 4097 3450 3541 
Q 3450 3153 3228 2886 
Q 3006 2619 2597 2516 
z
" transform="scale(0.015625)"/>
     </defs>
     <use xlink:href="#DejaVuSans-Oblique-61" transform="translate(0 0.389063)"/>
     <use xlink:href="#DejaVuSans-5b" transform="translate(65.929193 45.810938) scale(0.7)"/>
     <use xlink:href="#DejaVuSans-33" transform="translate(93.238763 45.810938) scale(0.7)"/>
     <use xlink:href="#DejaVuSans-5d" transform="translate(137.774896 45.810938) scale(0.7)"/>
     <use xlink:href="#DejaVuSans-31" transform="translate(61.279297 -26.954687) scale(0.7)"/>
    </g>
   </g>
   <g id="text_8">
    <!-- car? -->
    <g transform="translate(588 118.066806) scale(0.12 -0.12)">
     <defs>
      <path id="DejaVuSans-63" d="M 3122 3366 
L 3122 2828 
Q 2878 2963 2633 3030 
Q 2388 3097 2138 3097 
Q 1578 3097 1268 2742 
Q 959 2388 959 1747 
Q 959 1106 1268 751 
Q 1578 397 2138 397 
Q 2388 397 2633 464 
Q 2878 531 3122 666 
L 3122 134 
Q 2881 22 2623 -34 
Q 2366 -91 2075 -91 
Q 1284 -91 818 406 
Q 353 903 353 1747 
Q 353 2603 823 3093 
Q 1294 3584 2113 3584 
Q 2378 3584 2631 3529 
Q 2884 3475 3122 3366 
z
" transform="scale(0.015625)"/>
      <path id="DejaVuSans-61" d="M 2194 1759 
Q 1497 1759 1228 1600 
Q 959 1441 959 1056 
Q 959 750 1161 570 
Q 1363 391 1709 391 
Q 2188 391 2477 730 
Q 2766 1069 2766 1631 
L 2766 1759 
L 2194 1759 
z
M 3341 1997 
L 3341 0 
L 2766 0 
L 2766 531 
Q 2569 213 2275 61 
Q 1981 -91 1556 -91 
Q 1019 -91 701 211 
Q 384 513 384 1019 
Q 384 1609 779 1909 
Q 1175 2209 1959 2209 
L 2766 2209 
L 2766 2266 
Q 2766 2663 2505 2880 
Q 2244 3097 1772 3097 
Q 1472 3097 1187 3025 
Q 903 2953 641 2809 
L 641 3341 
Q 956 3463 1253 3523 
Q 1550 3584 1831 3584 
Q 2591 3584 2966 3190 
Q 3341 2797 3341 1997 
z
" transform="scale(0.015625)"/>
      <path id="DejaVuSans-72" d="M 2631 2963 
Q 2534 3019 2420 3045 
Q 2306 3072 2169 3072 
Q 1681 3072 1420 2755 
Q 1159 2438 1159 1844 
L 1159 0 
L 581 0 
L 581 3500 
L 1159 3500 
L 1159 2956 
Q 1341 3275 1631 3429 
Q 1922 3584 2338 3584 
Q 2397 3584 2469 3576 
Q 2541 3569 2628 3553 
L 2631 2963 
z
" transform="scale(0.015625)"/>
      <path id="DejaVuSans-3f" d="M 1222 794 
L 1856 794 
L 1856 0 
L 1222 0 
L 1222 794 
z
M 1838 1253 
L 1241 1253 
L 1241 1734 
Q 1241 2050 1328 2253 
Q 1416 2456 1697 2725 
L 1978 3003 
Q 2156 3169 2236 3316 
Q 2316 3463 2316 3616 
Q 2316 3894 2111 4066 
Q 1906 4238 1569 4238 
Q 1322 4238 1042 4128 
Q 763 4019 459 3809 
L 459 4397 
Q 753 4575 1054 4662 
Q 1356 4750 1678 4750 
Q 2253 4750 2601 4447 
Q 2950 4144 2950 3647 
Q 2950 3409 2837 3195 
Q 2725 2981 2444 2713 
L 2169 2444 
Q 2022 2297 1961 2214 
Q 1900 2131 1875 2053 
Q 1856 1988 1847 1894 
Q 1838 1800 1838 1638 
L 1838 1253 
z
" transform="scale(0.015625)"/>
     </defs>
     <use xlink:href="#DejaVuSans-63"/>
     <use xlink:href="#DejaVuSans-61" transform="translate(54.980469 0)"/>
     <use xlink:href="#DejaVuSans-72" transform="translate(116.259766 0)"/>
     <use xlink:href="#DejaVuSans-3f" transform="translate(157.373047 0)"/>
    </g>
   </g>
   <g id="text_9">
    <!-- $a_2^{[3]}$ -->
    <g style="fill: #2b7bbf" transform="translate(555.528 171.046222) scale(0.11 -0.11)">
     <use xlink:href="#DejaVuSans-Oblique-61" transform="translate(0 0.470313)"/>
     <use xlink:href="#DejaVuSans-5b" transform="translate(65.929193 46.810938) scale(0.7)"/>
     <use xlink:href="#DejaVuSans-33" transform="translate(93.238763 46.810938) scale(0.7)"/>
     <use xlink:href="#DejaVuSans-5d" transform="translate(137.774896 46.810938) scale(0.7)"/>
     <use xlink:href="#DejaVuSans-32" transform="translate(61.279297 -26.873437) scale(0.7)"/>
    </g>
   </g>
   <g id="text_10">
    <!-- bus? -->
    <g transform="translate(588 186.902361) scale(0.12 -0.12)">
     <defs>
      <path id="DejaVuSans-62" d="M 3116 1747 
Q 3116 2381 2855 2742 
Q 2594 3103 2138 3103 
Q 1681 3103 1420 2742 
Q 1159 2381 1159 1747 
Q 1159 1113 1420 752 
Q 1681 391 2138 391 
Q 2594 391 2855 752 
Q 3116 1113 3116 1747 
z
M 1159 2969 
Q 1341 3281 1617 3432 
Q 1894 3584 2278 3584 
Q 2916 3584 3314 3078 
Q 3713 2572 3713 1747 
Q 3713 922 3314 415 
Q 2916 -91 2278 -91 
Q 1894 -91 1617 61 
Q 1341 213 1159 525 
L 1159 0 
L 581 0 
L 581 4863 
L 1159 4863 
L 1159 2969 
z
" transform="scale(0.015625)"/>
      <path id="DejaVuSans-75" d="M 544 1381 
L 544 3500 
L 1119 3500 
L 1119 1403 
Q 1119 906 1312 657 
Q 1506 409 1894 409 
Q 2359 409 2629 706 
Q 2900 1003 2900 1516 
L 2900 3500 
L 3475 3500 
L 3475 0 
L 2900 0 
L 2900 538 
Q 2691 219 2414 64 
Q 2138 -91 1772 -91 
Q 1169 -91 856 284 
Q 544 659 544 1381 
z
M 1991 3584 
L 1991 3584 
z
" transform="scale(0.015625)"/>
      <path id="DejaVuSans-73" d="M 2834 3397 
L 2834 2853 
Q 2591 2978 2328 3040 
Q 2066 3103 1784 3103 
Q 1356 3103 1142 2972 
Q 928 2841 928 2578 
Q 928 2378 1081 2264 
Q 1234 2150 1697 2047 
L 1894 2003 
Q 2506 1872 2764 1633 
Q 3022 1394 3022 966 
Q 3022 478 2636 193 
Q 2250 -91 1575 -91 
Q 1294 -91 989 -36 
Q 684 19 347 128 
L 347 722 
Q 666 556 975 473 
Q 1284 391 1588 391 
Q 1994 391 2212 530 
Q 2431 669 2431 922 
Q 2431 1156 2273 1281 
Q 2116 1406 1581 1522 
L 1381 1569 
Q 847 1681 609 1914 
Q 372 2147 372 2553 
Q 372 3047 722 3315 
Q 1072 3584 1716 3584 
Q 2034 3584 2315 3537 
Q 2597 3491 2834 3397 
z
" transform="scale(0.015625)"/>
     </defs>
     <use xlink:href="#DejaVuSans-62"/>
     <use xlink:href="#DejaVuSans-75" transform="translate(63.476562 0)"/>
     <use xlink:href="#DejaVuSans-73" transform="translate(126.855469 0)"/>
     <use xlink:href="#DejaVuSans-3f" transform="translate(178.955078 0)"/>
    </g>
   </g>
   <g id="text_11">
    <!-- $a_3^{[3]}$ -->
    <g style="fill: #2b7bbf" transform="translate(555.528 239.771778) scale(0.11 -0.11)">
     <use xlink:href="#DejaVuSans-Oblique-61" transform="translate(0 0.470313)"/>
     <use xlink:href="#DejaVuSans-5b" transform="translate(65.929193 46.810938) scale(0.7)"/>
     <use xlink:href="#DejaVuSans-33" transform="translate(93.238763 46.810938) scale(0.7)"/>
     <use xlink:href="#DejaVuSans-5d" transform="translate(137.774896 46.810938) scale(0.7)"/>
     <use xlink:href="#DejaVuSans-33" transform="translate(61.279297 -26.873437) scale(0.7)"/>
    </g>
   </g>
   <g id="text_12">
    <!-- pedestrian? -->
    <g transform="translate(588 255.737917) scale(0.12 -0.12)">
     <defs>
      <path id="DejaVuSans-70" d="M 1159 525 
L 1159 -1331 
L 581 -1331 
L 581 3500 
L 1159 3500 
L 1159 2969 
Q 1341 3281 1617 3432 
Q 1894 3584 2278 3584 
Q 2916 3584 3314 3078 
Q 3713 2572 3713 1747 
Q 3713 922 3314 415 
Q 2916 -91 2278 -91 
Q 1894 -91 1617 61 
Q 1341 213 1159 525 
z
M 3116 1747 
Q 3116 2381 2855 2742 
Q 2594 3103 2138 3103 
Q 1681 3103 1420 2742 
Q 1159 2381 1159 1747 
Q 1159 1113 1420 752 
Q 1681 391 2138 391 
Q 2594 391 2855 752 
Q 3116 1113 3116 1747 
z
" transform="scale(0.015625)"/>
      <path id="DejaVuSans-65" d="M 3597 1894 
L 3597 1613 
L 953 1613 
Q 991 1019 1311 708 
Q 1631 397 2203 397 
Q 2534 397 2845 478 
Q 3156 559 3463 722 
L 3463 178 
Q 3153 47 2828 -22 
Q 2503 -91 2169 -91 
Q 1331 -91 842 396 
Q 353 884 353 1716 
Q 353 2575 817 3079 
Q 1281 3584 2069 3584 
Q 2775 3584 3186 3129 
Q 3597 2675 3597 1894 
z
M 3022 2063 
Q 3016 2534 2758 2815 
Q 2500 3097 2075 3097 
Q 1594 3097 1305 2825 
Q 1016 2553 972 2059 
L 3022 2063 
z
" transform="scale(0.015625)"/>
      <path id="DejaVuSans-64" d="M 2906 2969 
L 2906 4863 
L 3481 4863 
L 3481 0 
L 2906 0 
L 2906 525 
Q 2725 213 2448 61 
Q 2172 -91 1784 -91 
Q 1150 -91 751 415 
Q 353 922 353 1747 
Q 353 2572 751 3078 
Q 1150 3584 1784 3584 
Q 2172 3584 2448 3432 
Q 2725 3281 2906 2969 
z
M 947 1747 
Q 947 1113 1208 752 
Q 1469 391 1925 391 
Q 2381 391 2643 752 
Q 2906 1113 2906 1747 
Q 2906 2381 2643 2742 
Q 2381 3103 1925 3103 
Q 1469 3103 1208 2742 
Q 947 2381 947 1747 
z
" transform="scale(0.015625)"/>
      <path id="DejaVuSans-74" d="M 1172 4494 
L 1172 3500 
L 2356 3500 
L 2356 3053 
L 1172 3053 
L 1172 1153 
Q 1172 725 1289 603 
Q 1406 481 1766 481 
L 2356 481 
L 2356 0 
L 1766 0 
Q 1100 0 847 248 
Q 594 497 594 1153 
L 594 3053 
L 172 3053 
L 172 3500 
L 594 3500 
L 594 4494 
L 1172 4494 
z
" transform="scale(0.015625)"/>
      <path id="DejaVuSans-69" d="M 603 3500 
L 1178 3500 
L 1178 0 
L 603 0 
L 603 3500 
z
M 603 4863 
L 1178 4863 
L 1178 4134 
L 603 4134 
L 603 4863 
z
" transform="scale(0.015625)"/>
      <path id="DejaVuSans-6e" d="M 3513 2113 
L 3513 0 
L 2938 0 
L 2938 2094 
Q 2938 2591 2744 2837 
Q 2550 3084 2163 3084 
Q 1697 3084 1428 2787 
Q 1159 2491 1159 1978 
L 1159 0 
L 581 0 
L 581 3500 
L 1159 3500 
L 1159 2956 
Q 1366 3272 1645 3428 
Q 1925 3584 2291 3584 
Q 2894 3584 3203 3211 
Q 3513 2838 3513 2113 
z
" transform="scale(0.015625)"/>
     </defs>
     <use xlink:href="#DejaVuSans-70"/>
     <use xlink:href="#DejaVuSans-65" transform="translate(63.476562 0)"/>
     <use xlink:href="#DejaVuSans-64" transform="translate(125 0)"/>
     <use xlink:href="#DejaVuSans-65" transform="translate(188.476562 0)"/>
     <use xlink:href="#DejaVuSans-73" transform="translate(250 0)"/>
     <use xlink:href="#DejaVuSans-74" transform="translate(302.099609 0)"/>
     <use xlink:href="#DejaVuSans-72" transform="translate(341.308594 0)"/>
     <use xlink:href="#DejaVuSans-69" transform="translate(382.421875 0)"/>
     <use xlink:href="#DejaVuSans-61" transform="translate(410.205078 0)"/>
     <use xlink:href="#DejaVuSans-6e" transform="translate(471.484375 0)"/>
     <use xlink:href="#DejaVuSans-3f" transform="translate(534.863281 0)"/>
    </g>
   </g>
   <g id="text_13">
    <!-- Input layer -->
    <g transform="translate(54.851484 329.620503) scale(0.11 -0.11)">
     <defs>
      <path id="DejaVuSans-49" d="M 628 4666 
L 1259 4666 
L 1259 0 
L 628 0 
L 628 4666 
z
" transform="scale(0.015625)"/>
      <path id="DejaVuSans-20" transform="scale(0.015625)"/>
      <path id="DejaVuSans-6c" d="M 603 4863 
L 1178 4863 
L 1178 0 
L 603 0 
L 603 4863 
z
" transform="scale(0.015625)"/>
      <path id="DejaVuSans-79" d="M 2059 -325 
Q 1816 -950 1584 -1140 
Q 1353 -1331 966 -1331 
L 506 -1331 
L 506 -850 
L 844 -850 
Q 1081 -850 1212 -737 
Q 1344 -625 1503 -206 
L 1606 56 
L 191 3500 
L 800 3500 
L 1894 763 
L 2988 3500 
L 3597 3500 
L 2059 -325 
z
" transform="scale(0.015625)"/>
     </defs>
     <use xlink:href="#DejaVuSans-49"/>
     <use xlink:href="#DejaVuSans-6e" transform="translate(29.492188 0)"/>
     <use xlink:href="#DejaVuSans-70" transform="translate(92.871094 0)"/>
     <use xlink:href="#DejaVuSans-75" transform="translate(156.347656 0)"/>
     <use xlink:href="#DejaVuSans-74" transform="translate(219.726562 0)"/>
     <use xlink:href="#DejaVuSans-20" transform="translate(258.935547 0)"/>
     <use xlink:href="#DejaVuSans-6c" transform="translate(290.722656 0)"/>
     <use xlink:href="#DejaVuSans-61" transform="translate(318.505859 0)"/>
     <use xlink:href="#DejaVuSans-79" transform="translate(379.785156 0)"/>
     <use xlink:href="#DejaVuSans-65" transform="translate(438.964844 0)"/>
     <use xlink:href="#DejaVuSans-72" transform="translate(500.488281 0)"/>
    </g>
    <!-- (road photo) -->
    <g transform="translate(50.371563 341.938097) scale(0.11 -0.11)">
     <defs>
      <path id="DejaVuSans-28" d="M 1984 4856 
Q 1566 4138 1362 3434 
Q 1159 2731 1159 2009 
Q 1159 1288 1364 580 
Q 1569 -128 1984 -844 
L 1484 -844 
Q 1016 -109 783 600 
Q 550 1309 550 2009 
Q 550 2706 781 3412 
Q 1013 4119 1484 4856 
L 1984 4856 
z
" transform="scale(0.015625)"/>
      <path id="DejaVuSans-6f" d="M 1959 3097 
Q 1497 3097 1228 2736 
Q 959 2375 959 1747 
Q 959 1119 1226 758 
Q 1494 397 1959 397 
Q 2419 397 2687 759 
Q 2956 1122 2956 1747 
Q 2956 2369 2687 2733 
Q 2419 3097 1959 3097 
z
M 1959 3584 
Q 2709 3584 3137 3096 
Q 3566 2609 3566 1747 
Q 3566 888 3137 398 
Q 2709 -91 1959 -91 
Q 1206 -91 779 398 
Q 353 888 353 1747 
Q 353 2609 779 3096 
Q 1206 3584 1959 3584 
z
" transform="scale(0.015625)"/>
      <path id="DejaVuSans-68" d="M 3513 2113 
L 3513 0 
L 2938 0 
L 2938 2094 
Q 2938 2591 2744 2837 
Q 2550 3084 2163 3084 
Q 1697 3084 1428 2787 
Q 1159 2491 1159 1978 
L 1159 0 
L 581 0 
L 581 4863 
L 1159 4863 
L 1159 2956 
Q 1366 3272 1645 3428 
Q 1925 3584 2291 3584 
Q 2894 3584 3203 3211 
Q 3513 2838 3513 2113 
z
" transform="scale(0.015625)"/>
      <path id="DejaVuSans-29" d="M 513 4856 
L 1013 4856 
Q 1481 4119 1714 3412 
Q 1947 2706 1947 2009 
Q 1947 1309 1714 600 
Q 1481 -109 1013 -844 
L 513 -844 
Q 928 -128 1133 580 
Q 1338 1288 1338 2009 
Q 1338 2731 1133 3434 
Q 928 4138 513 4856 
z
" transform="scale(0.015625)"/>
     </defs>
     <use xlink:href="#DejaVuSans-28"/>
     <use xlink:href="#DejaVuSans-72" transform="translate(39.013672 0)"/>
     <use xlink:href="#DejaVuSans-6f" transform="translate(77.876953 0)"/>
     <use xlink:href="#DejaVuSans-61" transform="translate(139.058594 0)"/>
     <use xlink:href="#DejaVuSans-64" transform="translate(200.337891 0)"/>
     <use xlink:href="#DejaVuSans-20" transform="translate(263.814453 0)"/>
     <use xlink:href="#DejaVuSans-70" transform="translate(295.601562 0)"/>
     <use xlink:href="#DejaVuSans-68" transform="translate(359.078125 0)"/>
     <use xlink:href="#DejaVuSans-6f" transform="translate(422.457031 0)"/>
     <use xlink:href="#DejaVuSans-74" transform="translate(483.638672 0)"/>
     <use xlink:href="#DejaVuSans-6f" transform="translate(522.847656 0)"/>
     <use xlink:href="#DejaVuSans-29" transform="translate(584.029297 0)"/>
    </g>
   </g>
   <g id="text_14">
    <!-- Hidden layer $[1]$ -->
    <g transform="translate(186.310556 329.622222) scale(0.11 -0.11)">
     <defs>
      <path id="DejaVuSans-48" d="M 628 4666 
L 1259 4666 
L 1259 2753 
L 3553 2753 
L 3553 4666 
L 4184 4666 
L 4184 0 
L 3553 0 
L 3553 2222 
L 1259 2222 
L 1259 0 
L 628 0 
L 628 4666 
z
" transform="scale(0.015625)"/>
     </defs>
     <use xlink:href="#DejaVuSans-48" transform="translate(0 0.015625)"/>
     <use xlink:href="#DejaVuSans-69" transform="translate(75.195312 0.015625)"/>
     <use xlink:href="#DejaVuSans-64" transform="translate(102.978516 0.015625)"/>
     <use xlink:href="#DejaVuSans-64" transform="translate(166.455078 0.015625)"/>
     <use xlink:href="#DejaVuSans-65" transform="translate(229.931641 0.015625)"/>
     <use xlink:href="#DejaVuSans-6e" transform="translate(291.455078 0.015625)"/>
     <use xlink:href="#DejaVuSans-20" transform="translate(354.833984 0.015625)"/>
     <use xlink:href="#DejaVuSans-6c" transform="translate(386.621094 0.015625)"/>
     <use xlink:href="#DejaVuSans-61" transform="translate(414.404297 0.015625)"/>
     <use xlink:href="#DejaVuSans-79" transform="translate(475.683594 0.015625)"/>
     <use xlink:href="#DejaVuSans-65" transform="translate(534.863281 0.015625)"/>
     <use xlink:href="#DejaVuSans-72" transform="translate(596.386719 0.015625)"/>
     <use xlink:href="#DejaVuSans-20" transform="translate(637.5 0.015625)"/>
     <use xlink:href="#DejaVuSans-5b" transform="translate(669.287109 0.015625)"/>
     <use xlink:href="#DejaVuSans-31" transform="translate(708.300781 0.015625)"/>
     <use xlink:href="#DejaVuSans-5d" transform="translate(771.923828 0.015625)"/>
    </g>
   </g>
   <g id="text_15">
    <!-- Hidden layer $[2]$ -->
    <g transform="translate(332.586111 329.622222) scale(0.11 -0.11)">
     <use xlink:href="#DejaVuSans-48" transform="translate(0 0.015625)"/>
     <use xlink:href="#DejaVuSans-69" transform="translate(75.195312 0.015625)"/>
     <use xlink:href="#DejaVuSans-64" transform="translate(102.978516 0.015625)"/>
     <use xlink:href="#DejaVuSans-64" transform="translate(166.455078 0.015625)"/>
     <use xlink:href="#DejaVuSans-65" transform="translate(229.931641 0.015625)"/>
     <use xlink:href="#DejaVuSans-6e" transform="translate(291.455078 0.015625)"/>
     <use xlink:href="#DejaVuSans-20" transform="translate(354.833984 0.015625)"/>
     <use xlink:href="#DejaVuSans-6c" transform="translate(386.621094 0.015625)"/>
     <use xlink:href="#DejaVuSans-61" transform="translate(414.404297 0.015625)"/>
     <use xlink:href="#DejaVuSans-79" transform="translate(475.683594 0.015625)"/>
     <use xlink:href="#DejaVuSans-65" transform="translate(534.863281 0.015625)"/>
     <use xlink:href="#DejaVuSans-72" transform="translate(596.386719 0.015625)"/>
     <use xlink:href="#DejaVuSans-20" transform="translate(637.5 0.015625)"/>
     <use xlink:href="#DejaVuSans-5b" transform="translate(669.287109 0.015625)"/>
     <use xlink:href="#DejaVuSans-32" transform="translate(708.300781 0.015625)"/>
     <use xlink:href="#DejaVuSans-5d" transform="translate(771.923828 0.015625)"/>
    </g>
   </g>
   <g id="text_16">
    <!-- Output layer -->
    <g transform="translate(488.814948 329.620503) scale(0.11 -0.11)">
     <defs>
      <path id="DejaVuSans-4f" d="M 2522 4238 
Q 1834 4238 1429 3725 
Q 1025 3213 1025 2328 
Q 1025 1447 1429 934 
Q 1834 422 2522 422 
Q 3209 422 3611 934 
Q 4013 1447 4013 2328 
Q 4013 3213 3611 3725 
Q 3209 4238 2522 4238 
z
M 2522 4750 
Q 3503 4750 4090 4092 
Q 4678 3434 4678 2328 
Q 4678 1225 4090 567 
Q 3503 -91 2522 -91 
Q 1538 -91 948 565 
Q 359 1222 359 2328 
Q 359 3434 948 4092 
Q 1538 4750 2522 4750 
z
" transform="scale(0.015625)"/>
     </defs>
     <use xlink:href="#DejaVuSans-4f"/>
     <use xlink:href="#DejaVuSans-75" transform="translate(78.710938 0)"/>
     <use xlink:href="#DejaVuSans-74" transform="translate(142.089844 0)"/>
     <use xlink:href="#DejaVuSans-70" transform="translate(181.298828 0)"/>
     <use xlink:href="#DejaVuSans-75" transform="translate(244.775391 0)"/>
     <use xlink:href="#DejaVuSans-74" transform="translate(308.154297 0)"/>
     <use xlink:href="#DejaVuSans-20" transform="translate(347.363281 0)"/>
     <use xlink:href="#DejaVuSans-6c" transform="translate(379.150391 0)"/>
     <use xlink:href="#DejaVuSans-61" transform="translate(406.933594 0)"/>
     <use xlink:href="#DejaVuSans-79" transform="translate(468.212891 0)"/>
     <use xlink:href="#DejaVuSans-65" transform="translate(527.392578 0)"/>
     <use xlink:href="#DejaVuSans-72" transform="translate(588.916016 0)"/>
    </g>
    <!-- (3 sigmoid units) -->
    <g transform="translate(477.032057 341.938097) scale(0.11 -0.11)">
     <defs>
      <path id="DejaVuSans-67" d="M 2906 1791 
Q 2906 2416 2648 2759 
Q 2391 3103 1925 3103 
Q 1463 3103 1205 2759 
Q 947 2416 947 1791 
Q 947 1169 1205 825 
Q 1463 481 1925 481 
Q 2391 481 2648 825 
Q 2906 1169 2906 1791 
z
M 3481 434 
Q 3481 -459 3084 -895 
Q 2688 -1331 1869 -1331 
Q 1566 -1331 1297 -1286 
Q 1028 -1241 775 -1147 
L 775 -588 
Q 1028 -725 1275 -790 
Q 1522 -856 1778 -856 
Q 2344 -856 2625 -561 
Q 2906 -266 2906 331 
L 2906 616 
Q 2728 306 2450 153 
Q 2172 0 1784 0 
Q 1141 0 747 490 
Q 353 981 353 1791 
Q 353 2603 747 3093 
Q 1141 3584 1784 3584 
Q 2172 3584 2450 3431 
Q 2728 3278 2906 2969 
L 2906 3500 
L 3481 3500 
L 3481 434 
z
" transform="scale(0.015625)"/>
      <path id="DejaVuSans-6d" d="M 3328 2828 
Q 3544 3216 3844 3400 
Q 4144 3584 4550 3584 
Q 5097 3584 5394 3201 
Q 5691 2819 5691 2113 
L 5691 0 
L 5113 0 
L 5113 2094 
Q 5113 2597 4934 2840 
Q 4756 3084 4391 3084 
Q 3944 3084 3684 2787 
Q 3425 2491 3425 1978 
L 3425 0 
L 2847 0 
L 2847 2094 
Q 2847 2600 2669 2842 
Q 2491 3084 2119 3084 
Q 1678 3084 1418 2786 
Q 1159 2488 1159 1978 
L 1159 0 
L 581 0 
L 581 3500 
L 1159 3500 
L 1159 2956 
Q 1356 3278 1631 3431 
Q 1906 3584 2284 3584 
Q 2666 3584 2933 3390 
Q 3200 3197 3328 2828 
z
" transform="scale(0.015625)"/>
     </defs>
     <use xlink:href="#DejaVuSans-28"/>
     <use xlink:href="#DejaVuSans-33" transform="translate(39.013672 0)"/>
     <use xlink:href="#DejaVuSans-20" transform="translate(102.636719 0)"/>
     <use xlink:href="#DejaVuSans-73" transform="translate(134.423828 0)"/>
     <use xlink:href="#DejaVuSans-69" transform="translate(186.523438 0)"/>
     <use xlink:href="#DejaVuSans-67" transform="translate(214.306641 0)"/>
     <use xlink:href="#DejaVuSans-6d" transform="translate(277.783203 0)"/>
     <use xlink:href="#DejaVuSans-6f" transform="translate(375.195312 0)"/>
     <use xlink:href="#DejaVuSans-69" transform="translate(436.376953 0)"/>
     <use xlink:href="#DejaVuSans-64" transform="translate(464.160156 0)"/>
     <use xlink:href="#DejaVuSans-20" transform="translate(527.636719 0)"/>
     <use xlink:href="#DejaVuSans-75" transform="translate(559.423828 0)"/>
     <use xlink:href="#DejaVuSans-6e" transform="translate(622.802734 0)"/>
     <use xlink:href="#DejaVuSans-69" transform="translate(686.181641 0)"/>
     <use xlink:href="#DejaVuSans-74" transform="translate(713.964844 0)"/>
     <use xlink:href="#DejaVuSans-73" transform="translate(753.173828 0)"/>
     <use xlink:href="#DejaVuSans-29" transform="translate(805.273438 0)"/>
    </g>
   </g>
  </g>
 </g>
 <defs>
  <clipPath id="pceac9c77f2">
   <rect x="7.2" y="7.2" width="671.146667" height="348.48"/>
  </clipPath>
 </defs>
</svg>
