<?xml version="1.0" encoding="utf-8" standalone="no"?>
<!DOCTYPE svg PUBLIC "-//W3C//DTD SVG 1.1//EN"
  "http://www.w3.org/Graphics/SVG/1.1/DTD/svg11.dtd">
<svg xmlns:xlink="http://www.w3.org/1999/xlink" width="856.067812pt" height="314.744062pt" viewBox="0 0 856.067812 314.744062" xmlns="http://www.w3.org/2000/svg" version="1.1">
 <metadata>
  <rdf:RDF xmlns:dc="http://purl.org/dc/elements/1.1/" xmlns:cc="http://creativecommons.org/ns#" xmlns:rdf="http://www.w3.org/1999/02/22-rdf-syntax-ns#">
   <cc:Work>
    <dc:type rdf:resource="http://purl.org/dc/dcmitype/StillImage"/>
    <dc:date>2026-07-14T22:18:40.945601</dc:date>
    <dc:format>image/svg+xml</dc:format>
    <dc:creator>
     <cc:Agent>
      <dc:title>Matplotlib v3.10.8, https://matplotlib.org/</dc:title>
     </cc:Agent>
    </dc:creator>
   </cc:Work>
  </rdf:RDF>
 </metadata>
 <defs>
  <style type="text/css">*{stroke-linejoin: round; stroke-linecap: butt}</style>
 </defs>
 <g id="figure_1">
  <g id="patch_1">
   <path d="M 0 314.744062 
L 856.067812 314.744062 
L 856.067812 0 
L 0 0 
z
" style="fill: #ffffff"/>
  </g>
  <g id="axes_1">
   <g id="patch_2">
    <path d="M 44.749063 276.22 
L 421.142812 276.22 
L 421.142812 22.32 
L 44.749063 22.32 
z
" style="fill: #ffffff"/>
   </g>
   <g id="FillBetweenPolyCollection_1">
    <defs>
     <path id="md7ec989ac7" d="M 61.857869 -63.914062 
L 61.857869 -64.357211 
L 63.002271 -64.39492 
L 64.146673 -64.435551 
L 65.291075 -64.479306 
L 66.435476 -64.526397 
L 67.579878 -64.577047 
L 68.72428 -64.631494 
L 69.868682 -64.689987 
L 71.013084 -64.752788 
L 72.157485 -64.820176 
L 73.301887 -64.892442 
L 74.446289 -64.969893 
L 75.590691 -65.05285 
L 76.735093 -65.141652 
L 77.879494 -65.236654 
L 79.023896 -65.338228 
L 80.168298 -65.446761 
L 81.3127 -65.562662 
L 82.457102 -65.686356 
L 83.601503 -65.818287 
L 84.745905 -65.958917 
L 85.890307 -66.10873 
L 87.034709 -66.268228 
L 88.179111 -66.437934 
L 89.323512 -66.618391 
L 90.467914 -66.810163 
L 91.612316 -67.013835 
L 92.756718 -67.230012 
L 93.90112 -67.459322 
L 95.045521 -67.702412 
L 96.189923 -67.959953 
L 97.334325 -68.232634 
L 98.478727 -68.521166 
L 99.623129 -68.826284 
L 100.76753 -69.148739 
L 101.911932 -69.489304 
L 103.056334 -69.848772 
L 104.200736 -70.227956 
L 105.345137 -70.627686 
L 106.489539 -71.048812 
L 107.633941 -71.492199 
L 108.778343 -71.958729 
L 109.922745 -72.449301 
L 111.067146 -72.964826 
L 112.211548 -73.506231 
L 113.35595 -74.074451 
L 114.500352 -74.670434 
L 115.644754 -75.295136 
L 116.789155 -75.949521 
L 117.933557 -76.634558 
L 119.077959 -77.351219 
L 120.222361 -78.100478 
L 121.366763 -78.88331 
L 122.511164 -79.700684 
L 123.655566 -80.553568 
L 124.799968 -81.442919 
L 125.94437 -82.369687 
L 127.088772 -83.334806 
L 128.233173 -84.339197 
L 129.377575 -85.383763 
L 130.521977 -86.469382 
L 131.666379 -87.596913 
L 132.810781 -88.767182 
L 133.955182 -89.980989 
L 135.099584 -91.239096 
L 136.243986 -92.54223 
L 137.388388 -93.891076 
L 138.53279 -95.286274 
L 139.677191 -96.728418 
L 140.821593 -98.218049 
L 141.965995 -99.755652 
L 143.110397 -101.341656 
L 144.254798 -102.976426 
L 145.3992 -104.660261 
L 146.543602 -106.393391 
L 147.688004 -108.175972 
L 148.832406 -110.008087 
L 149.976807 -111.889735 
L 151.121209 -113.820834 
L 152.265611 -115.801217 
L 153.410013 -117.830625 
L 154.554415 -119.908709 
L 155.698816 -122.035023 
L 156.843218 -124.209024 
L 157.98762 -126.430069 
L 159.132022 -128.697413 
L 160.276424 -131.010204 
L 161.420825 -133.367486 
L 162.565227 -135.768192 
L 163.709629 -138.211147 
L 164.854031 -140.695065 
L 165.998433 -143.218548 
L 167.142834 -145.780086 
L 168.287236 -148.378054 
L 169.431638 -151.010717 
L 170.57604 -153.676227 
L 171.720442 -156.372622 
L 172.864843 -159.097831 
L 174.009245 -161.849673 
L 175.153647 -164.625859 
L 176.298049 -167.423993 
L 177.44245 -170.241576 
L 178.586852 -173.076007 
L 179.731254 -175.924588 
L 180.875656 -178.784526 
L 182.020058 -181.652937 
L 183.164459 -184.526849 
L 184.308861 -187.40321 
L 185.453263 -190.278886 
L 186.597665 -193.150676 
L 187.742067 -196.015306 
L 188.886468 -198.869446 
L 190.03087 -201.709705 
L 191.175272 -204.532647 
L 192.319674 -207.334792 
L 193.464076 -210.112623 
L 194.608477 -212.862597 
L 195.752879 -215.581147 
L 196.897281 -218.264694 
L 198.041683 -220.909651 
L 199.186085 -223.512433 
L 200.330486 -226.069465 
L 201.474888 -228.57719 
L 202.61929 -231.032075 
L 203.763692 -233.430623 
L 204.908094 -235.769378 
L 206.052495 -238.044934 
L 207.196897 -240.253943 
L 208.341299 -242.393126 
L 209.485701 -244.459277 
L 210.630103 -246.449273 
L 211.774504 -248.360081 
L 212.918906 -250.188769 
L 214.063308 -251.932508 
L 215.20771 -253.588582 
L 216.352111 -255.154397 
L 217.496513 -256.627484 
L 218.640915 -258.00551 
L 219.785317 -259.286277 
L 220.929719 -260.467737 
L 222.07412 -261.54799 
L 223.218522 -262.525294 
L 224.362924 -263.398064 
L 225.507326 -264.164884 
L 226.651728 -264.824503 
L 227.796129 -265.375846 
L 228.940531 -265.818009 
L 230.084933 -266.150268 
L 231.229335 -266.372078 
L 232.373737 -266.483074 
L 233.518138 -266.483074 
L 234.66254 -266.372078 
L 235.806942 -266.150268 
L 236.951344 -265.818009 
L 238.095746 -265.375846 
L 239.240147 -264.824503 
L 240.384549 -264.164884 
L 241.528951 -263.398064 
L 242.673353 -262.525294 
L 243.817755 -261.54799 
L 244.962156 -260.467737 
L 246.106558 -259.286277 
L 247.25096 -258.00551 
L 248.395362 -256.627484 
L 249.539764 -255.154397 
L 250.684165 -253.588582 
L 251.828567 -251.932508 
L 252.972969 -250.188769 
L 254.117371 -248.360081 
L 255.261772 -246.449273 
L 256.406174 -244.459277 
L 257.550576 -242.393126 
L 258.694978 -240.253943 
L 259.83938 -238.044934 
L 260.983781 -235.769378 
L 262.128183 -233.430623 
L 263.272585 -231.032075 
L 264.416987 -228.57719 
L 265.561389 -226.069465 
L 266.70579 -223.512433 
L 267.850192 -220.909651 
L 268.994594 -218.264694 
L 270.138996 -215.581147 
L 271.283398 -212.862597 
L 272.427799 -210.112623 
L 273.572201 -207.334792 
L 274.716603 -204.532647 
L 275.861005 -201.709705 
L 277.005407 -198.869446 
L 278.149808 -196.015306 
L 279.29421 -193.150676 
L 280.438612 -190.278886 
L 281.583014 -187.40321 
L 282.727416 -184.526849 
L 283.871817 -181.652937 
L 285.016219 -178.784526 
L 286.160621 -175.924588 
L 287.305023 -173.076007 
L 288.449425 -170.241576 
L 289.593826 -167.423993 
L 290.738228 -164.625859 
L 291.88263 -161.849673 
L 293.027032 -159.097831 
L 294.171433 -156.372622 
L 295.315835 -153.676227 
L 296.460237 -151.010717 
L 297.604639 -148.378054 
L 298.749041 -145.780086 
L 299.893442 -143.218548 
L 301.037844 -140.695065 
L 302.182246 -138.211147 
L 303.326648 -135.768192 
L 304.47105 -133.367486 
L 305.615451 -131.010204 
L 306.759853 -128.697413 
L 307.904255 -126.430069 
L 309.048657 -124.209024 
L 310.193059 -122.035023 
L 311.33746 -119.908709 
L 312.481862 -117.830625 
L 313.626264 -115.801217 
L 314.770666 -113.820834 
L 315.915068 -111.889735 
L 317.059469 -110.008087 
L 318.203871 -108.175972 
L 319.348273 -106.393391 
L 320.492675 -104.660261 
L 321.637077 -102.976426 
L 322.781478 -101.341656 
L 323.92588 -99.755652 
L 325.070282 -98.218049 
L 326.214684 -96.728418 
L 327.359085 -95.286274 
L 328.503487 -93.891076 
L 329.647889 -92.54223 
L 330.792291 -91.239096 
L 331.936693 -89.980989 
L 333.081094 -88.767182 
L 334.225496 -87.596913 
L 335.369898 -86.469382 
L 336.5143 -85.383763 
L 337.658702 -84.339197 
L 338.803103 -83.334806 
L 339.947505 -82.369687 
L 341.091907 -81.442919 
L 342.236309 -80.553568 
L 343.380711 -79.700684 
L 344.525112 -78.88331 
L 345.669514 -78.100478 
L 346.813916 -77.351219 
L 347.958318 -76.634558 
L 349.10272 -75.949521 
L 350.247121 -75.295136 
L 351.391523 -74.670434 
L 352.535925 -74.074451 
L 353.680327 -73.506231 
L 354.824729 -72.964826 
L 355.96913 -72.449301 
L 357.113532 -71.958729 
L 358.257934 -71.492199 
L 359.402336 -71.048812 
L 360.546738 -70.627686 
L 361.691139 -70.227956 
L 362.835541 -69.848772 
L 363.979943 -69.489304 
L 365.124345 -69.148739 
L 366.268746 -68.826284 
L 367.413148 -68.521166 
L 368.55755 -68.232634 
L 369.701952 -67.959953 
L 370.846354 -67.702412 
L 371.990755 -67.459322 
L 373.135157 -67.230012 
L 374.279559 -67.013835 
L 375.423961 -66.810163 
L 376.568363 -66.618391 
L 377.712764 -66.437934 
L 378.857166 -66.268228 
L 380.001568 -66.10873 
L 381.14597 -65.958917 
L 382.290372 -65.818287 
L 383.434773 -65.686356 
L 384.579175 -65.562662 
L 385.723577 -65.446761 
L 386.867979 -65.338228 
L 388.012381 -65.236654 
L 389.156782 -65.141652 
L 390.301184 -65.05285 
L 391.445586 -64.969893 
L 392.589988 -64.892442 
L 393.73439 -64.820176 
L 394.878791 -64.752788 
L 396.023193 -64.689987 
L 397.167595 -64.631494 
L 398.311997 -64.577047 
L 399.456399 -64.526397 
L 400.6008 -64.479306 
L 401.745202 -64.435551 
L 402.889604 -64.39492 
L 404.034006 -64.357211 
L 404.034006 -63.914062 
L 404.034006 -63.914062 
L 402.889604 -63.914062 
L 401.745202 -63.914062 
L 400.6008 -63.914062 
L 399.456399 -63.914062 
L 398.311997 -63.914062 
L 397.167595 -63.914062 
L 396.023193 -63.914062 
L 394.878791 -63.914062 
L 393.73439 -63.914062 
L 392.589988 -63.914062 
L 391.445586 -63.914062 
L 390.301184 -63.914062 
L 389.156782 -63.914062 
L 388.012381 -63.914062 
L 386.867979 -63.914062 
L 385.723577 -63.914062 
L 384.579175 -63.914062 
L 383.434773 -63.914062 
L 382.290372 -63.914062 
L 381.14597 -63.914062 
L 380.001568 -63.914062 
L 378.857166 -63.914062 
L 377.712764 -63.914062 
L 376.568363 -63.914062 
L 375.423961 -63.914062 
L 374.279559 -63.914062 
L 373.135157 -63.914062 
L 371.990755 -63.914062 
L 370.846354 -63.914062 
L 369.701952 -63.914062 
L 368.55755 -63.914062 
L 367.413148 -63.914062 
L 366.268746 -63.914062 
L 365.124345 -63.914062 
L 363.979943 -63.914062 
L 362.835541 -63.914062 
L 361.691139 -63.914062 
L 360.546738 -63.914062 
L 359.402336 -63.914062 
L 358.257934 -63.914062 
L 357.113532 -63.914062 
L 355.96913 -63.914062 
L 354.824729 -63.914062 
L 353.680327 -63.914062 
L 352.535925 -63.914062 
L 351.391523 -63.914062 
L 350.247121 -63.914062 
L 349.10272 -63.914062 
L 347.958318 -63.914062 
L 346.813916 -63.914062 
L 345.669514 -63.914062 
L 344.525112 -63.914062 
L 343.380711 -63.914062 
L 342.236309 -63.914062 
L 341.091907 -63.914062 
L 339.947505 -63.914062 
L 338.803103 -63.914062 
L 337.658702 -63.914062 
L 336.5143 -63.914062 
L 335.369898 -63.914062 
L 334.225496 -63.914062 
L 333.081094 -63.914062 
L 331.936693 -63.914062 
L 330.792291 -63.914062 
L 329.647889 -63.914062 
L 328.503487 -63.914062 
L 327.359085 -63.914062 
L 326.214684 -63.914062 
L 325.070282 -63.914062 
L 323.92588 -63.914062 
L 322.781478 -63.914062 
L 321.637077 -63.914062 
L 320.492675 -63.914062 
L 319.348273 -63.914062 
L 318.203871 -63.914062 
L 317.059469 -63.914062 
L 315.915068 -63.914062 
L 314.770666 -63.914062 
L 313.626264 -63.914062 
L 312.481862 -63.914062 
L 311.33746 -63.914062 
L 310.193059 -63.914062 
L 309.048657 -63.914062 
L 307.904255 -63.914062 
L 306.759853 -63.914062 
L 305.615451 -63.914062 
L 304.47105 -63.914062 
L 303.326648 -63.914062 
L 302.182246 -63.914062 
L 301.037844 -63.914062 
L 299.893442 -63.914062 
L 298.749041 -63.914062 
L 297.604639 -63.914062 
L 296.460237 -63.914062 
L 295.315835 -63.914062 
L 294.171433 -63.914062 
L 293.027032 -63.914062 
L 291.88263 -63.914062 
L 290.738228 -63.914062 
L 289.593826 -63.914062 
L 288.449425 -63.914062 
L 287.305023 -63.914062 
L 286.160621 -63.914062 
L 285.016219 -63.914062 
L 283.871817 -63.914062 
L 282.727416 -63.914062 
L 281.583014 -63.914062 
L 280.438612 -63.914062 
L 279.29421 -63.914062 
L 278.149808 -63.914062 
L 277.005407 -63.914062 
L 275.861005 -63.914062 
L 274.716603 -63.914062 
L 273.572201 -63.914062 
L 272.427799 -63.914062 
L 271.283398 -63.914062 
L 270.138996 -63.914062 
L 268.994594 -63.914062 
L 267.850192 -63.914062 
L 266.70579 -63.914062 
L 265.561389 -63.914062 
L 264.416987 -63.914062 
L 263.272585 -63.914062 
L 262.128183 -63.914062 
L 260.983781 -63.914062 
L 259.83938 -63.914062 
L 258.694978 -63.914062 
L 257.550576 -63.914062 
L 256.406174 -63.914062 
L 255.261772 -63.914062 
L 254.117371 -63.914062 
L 252.972969 -63.914062 
L 251.828567 -63.914062 
L 250.684165 -63.914062 
L 249.539764 -63.914062 
L 248.395362 -63.914062 
L 247.25096 -63.914062 
L 246.106558 -63.914062 
L 244.962156 -63.914062 
L 243.817755 -63.914062 
L 242.673353 -63.914062 
L 241.528951 -63.914062 
L 240.384549 -63.914062 
L 239.240147 -63.914062 
L 238.095746 -63.914062 
L 236.951344 -63.914062 
L 235.806942 -63.914062 
L 234.66254 -63.914062 
L 233.518138 -63.914062 
L 232.373737 -63.914062 
L 231.229335 -63.914062 
L 230.084933 -63.914062 
L 228.940531 -63.914062 
L 227.796129 -63.914062 
L 226.651728 -63.914062 
L 225.507326 -63.914062 
L 224.362924 -63.914062 
L 223.218522 -63.914062 
L 222.07412 -63.914062 
L 220.929719 -63.914062 
L 219.785317 -63.914062 
L 218.640915 -63.914062 
L 217.496513 -63.914062 
L 216.352111 -63.914062 
L 215.20771 -63.914062 
L 214.063308 -63.914062 
L 212.918906 -63.914062 
L 211.774504 -63.914062 
L 210.630103 -63.914062 
L 209.485701 -63.914062 
L 208.341299 -63.914062 
L 207.196897 -63.914062 
L 206.052495 -63.914062 
L 204.908094 -63.914062 
L 203.763692 -63.914062 
L 202.61929 -63.914062 
L 201.474888 -63.914062 
L 200.330486 -63.914062 
L 199.186085 -63.914062 
L 198.041683 -63.914062 
L 196.897281 -63.914062 
L 195.752879 -63.914062 
L 194.608477 -63.914062 
L 193.464076 -63.914062 
L 192.319674 -63.914062 
L 191.175272 -63.914062 
L 190.03087 -63.914062 
L 188.886468 -63.914062 
L 187.742067 -63.914062 
L 186.597665 -63.914062 
L 185.453263 -63.914062 
L 184.308861 -63.914062 
L 183.164459 -63.914062 
L 182.020058 -63.914062 
L 180.875656 -63.914062 
L 179.731254 -63.914062 
L 178.586852 -63.914062 
L 177.44245 -63.914062 
L 176.298049 -63.914062 
L 175.153647 -63.914062 
L 174.009245 -63.914062 
L 172.864843 -63.914062 
L 171.720442 -63.914062 
L 170.57604 -63.914062 
L 169.431638 -63.914062 
L 168.287236 -63.914062 
L 167.142834 -63.914062 
L 165.998433 -63.914062 
L 164.854031 -63.914062 
L 163.709629 -63.914062 
L 162.565227 -63.914062 
L 161.420825 -63.914062 
L 160.276424 -63.914062 
L 159.132022 -63.914062 
L 157.98762 -63.914062 
L 156.843218 -63.914062 
L 155.698816 -63.914062 
L 154.554415 -63.914062 
L 153.410013 -63.914062 
L 152.265611 -63.914062 
L 151.121209 -63.914062 
L 149.976807 -63.914062 
L 148.832406 -63.914062 
L 147.688004 -63.914062 
L 146.543602 -63.914062 
L 145.3992 -63.914062 
L 144.254798 -63.914062 
L 143.110397 -63.914062 
L 141.965995 -63.914062 
L 140.821593 -63.914062 
L 139.677191 -63.914062 
L 138.53279 -63.914062 
L 137.388388 -63.914062 
L 136.243986 -63.914062 
L 135.099584 -63.914062 
L 133.955182 -63.914062 
L 132.810781 -63.914062 
L 131.666379 -63.914062 
L 130.521977 -63.914062 
L 129.377575 -63.914062 
L 128.233173 -63.914062 
L 127.088772 -63.914062 
L 125.94437 -63.914062 
L 124.799968 -63.914062 
L 123.655566 -63.914062 
L 122.511164 -63.914062 
L 121.366763 -63.914062 
L 120.222361 -63.914062 
L 119.077959 -63.914062 
L 117.933557 -63.914062 
L 116.789155 -63.914062 
L 115.644754 -63.914062 
L 114.500352 -63.914062 
L 113.35595 -63.914062 
L 112.211548 -63.914062 
L 111.067146 -63.914062 
L 109.922745 -63.914062 
L 108.778343 -63.914062 
L 107.633941 -63.914062 
L 106.489539 -63.914062 
L 105.345137 -63.914062 
L 104.200736 -63.914062 
L 103.056334 -63.914062 
L 101.911932 -63.914062 
L 100.76753 -63.914062 
L 99.623129 -63.914062 
L 98.478727 -63.914062 
L 97.334325 -63.914062 
L 96.189923 -63.914062 
L 95.045521 -63.914062 
L 93.90112 -63.914062 
L 92.756718 -63.914062 
L 91.612316 -63.914062 
L 90.467914 -63.914062 
L 89.323512 -63.914062 
L 88.179111 -63.914062 
L 87.034709 -63.914062 
L 85.890307 -63.914062 
L 84.745905 -63.914062 
L 83.601503 -63.914062 
L 82.457102 -63.914062 
L 81.3127 -63.914062 
L 80.168298 -63.914062 
L 79.023896 -63.914062 
L 77.879494 -63.914062 
L 76.735093 -63.914062 
L 75.590691 -63.914062 
L 74.446289 -63.914062 
L 73.301887 -63.914062 
L 72.157485 -63.914062 
L 71.013084 -63.914062 
L 69.868682 -63.914062 
L 68.72428 -63.914062 
L 67.579878 -63.914062 
L 66.435476 -63.914062 
L 65.291075 -63.914062 
L 64.146673 -63.914062 
L 63.002271 -63.914062 
L 61.857869 -63.914062 
z
" style="stroke: #4682b4; stroke-opacity: 0.15"/>
    </defs>
    <g clip-path="url(#p3d36714c1f)">
     <use xlink:href="#md7ec989ac7" x="0" y="314.744062" style="fill: #4682b4; fill-opacity: 0.15; stroke: #4682b4; stroke-opacity: 0.15"/>
    </g>
   </g>
   <g id="matplotlib.axis_1">
    <g id="xtick_1">
     <g id="line2d_1">
      <path d="M 86.299022 276.22 
L 86.299022 22.32 
" clip-path="url(#p3d36714c1f)" style="fill: none; stroke-dasharray: 2.96,1.28; stroke-dashoffset: 0; stroke: #b0b0b0; stroke-opacity: 0.4; stroke-width: 0.8"/>
     </g>
     <g id="line2d_2">
      <defs>
       <path id="m53cd497df1" d="M 0 0 
L 0 3.5 
" style="stroke: #000000; stroke-width: 0.8"/>
      </defs>
      <g>
       <use xlink:href="#m53cd497df1" x="86.299022" y="276.22" style="stroke: #000000; stroke-width: 0.8"/>
      </g>
     </g>
     <g id="text_1">
      <!-- −3 -->
      <g transform="translate(78.927928 290.818437) scale(0.1 -0.1)">
       <defs>
        <path id="DejaVuSans-2212" d="M 678 2272 
L 4684 2272 
L 4684 1741 
L 678 1741 
L 678 2272 
z
" transform="scale(0.015625)"/>
        <path id="DejaVuSans-33" d="M 2597 2516 
Q 3050 2419 3304 2112 
Q 3559 1806 3559 1356 
Q 3559 666 3084 287 
Q 2609 -91 1734 -91 
Q 1441 -91 1130 -33 
Q 819 25 488 141 
L 488 750 
Q 750 597 1062 519 
Q 1375 441 1716 441 
Q 2309 441 2620 675 
Q 2931 909 2931 1356 
Q 2931 1769 2642 2001 
Q 2353 2234 1838 2234 
L 1294 2234 
L 1294 2753 
L 1863 2753 
Q 2328 2753 2575 2939 
Q 2822 3125 2822 3475 
Q 2822 3834 2567 4026 
Q 2313 4219 1838 4219 
Q 1578 4219 1281 4162 
Q 984 4106 628 3988 
L 628 4550 
Q 988 4650 1302 4700 
Q 1616 4750 1894 4750 
Q 2613 4750 3031 4423 
Q 3450 4097 3450 3541 
Q 3450 3153 3228 2886 
Q 3006 2619 2597 2516 
z
" transform="scale(0.015625)"/>
       </defs>
       <use xlink:href="#DejaVuSans-2212"/>
       <use xlink:href="#DejaVuSans-33" transform="translate(83.789062 0)"/>
      </g>
     </g>
    </g>
    <g id="xtick_2">
     <g id="line2d_3">
      <path d="M 135.181327 276.22 
L 135.181327 22.32 
" clip-path="url(#p3d36714c1f)" style="fill: none; stroke-dasharray: 2.96,1.28; stroke-dashoffset: 0; stroke: #b0b0b0; stroke-opacity: 0.4; stroke-width: 0.8"/>
     </g>
     <g id="line2d_4">
      <g>
       <use xlink:href="#m53cd497df1" x="135.181327" y="276.22" style="stroke: #000000; stroke-width: 0.8"/>
      </g>
     </g>
     <g id="text_2">
      <!-- −2 -->
      <g transform="translate(127.810233 290.818437) scale(0.1 -0.1)">
       <defs>
        <path id="DejaVuSans-32" d="M 1228 531 
L 3431 531 
L 3431 0 
L 469 0 
L 469 531 
Q 828 903 1448 1529 
Q 2069 2156 2228 2338 
Q 2531 2678 2651 2914 
Q 2772 3150 2772 3378 
Q 2772 3750 2511 3984 
Q 2250 4219 1831 4219 
Q 1534 4219 1204 4116 
Q 875 4013 500 3803 
L 500 4441 
Q 881 4594 1212 4672 
Q 1544 4750 1819 4750 
Q 2544 4750 2975 4387 
Q 3406 4025 3406 3419 
Q 3406 3131 3298 2873 
Q 3191 2616 2906 2266 
Q 2828 2175 2409 1742 
Q 1991 1309 1228 531 
z
" transform="scale(0.015625)"/>
       </defs>
       <use xlink:href="#DejaVuSans-2212"/>
       <use xlink:href="#DejaVuSans-32" transform="translate(83.789062 0)"/>
      </g>
     </g>
    </g>
    <g id="xtick_3">
     <g id="line2d_5">
      <path d="M 184.063632 276.22 
L 184.063632 22.32 
" clip-path="url(#p3d36714c1f)" style="fill: none; stroke-dasharray: 2.96,1.28; stroke-dashoffset: 0; stroke: #b0b0b0; stroke-opacity: 0.4; stroke-width: 0.8"/>
     </g>
     <g id="line2d_6">
      <g>
       <use xlink:href="#m53cd497df1" x="184.063632" y="276.22" style="stroke: #000000; stroke-width: 0.8"/>
      </g>
     </g>
     <g id="text_3">
      <!-- −1 -->
      <g transform="translate(176.692539 290.818437) scale(0.1 -0.1)">
       <defs>
        <path id="DejaVuSans-31" d="M 794 531 
L 1825 531 
L 1825 4091 
L 703 3866 
L 703 4441 
L 1819 4666 
L 2450 4666 
L 2450 531 
L 3481 531 
L 3481 0 
L 794 0 
L 794 531 
z
" transform="scale(0.015625)"/>
       </defs>
       <use xlink:href="#DejaVuSans-2212"/>
       <use xlink:href="#DejaVuSans-31" transform="translate(83.789062 0)"/>
      </g>
     </g>
    </g>
    <g id="xtick_4">
     <g id="line2d_7">
      <path d="M 232.945937 276.22 
L 232.945937 22.32 
" clip-path="url(#p3d36714c1f)" style="fill: none; stroke-dasharray: 2.96,1.28; stroke-dashoffset: 0; stroke: #b0b0b0; stroke-opacity: 0.4; stroke-width: 0.8"/>
     </g>
     <g id="line2d_8">
      <g>
       <use xlink:href="#m53cd497df1" x="232.945937" y="276.22" style="stroke: #000000; stroke-width: 0.8"/>
      </g>
     </g>
     <g id="text_4">
      <!-- 0 -->
      <g transform="translate(229.764687 290.818437) scale(0.1 -0.1)">
       <defs>
        <path id="DejaVuSans-30" d="M 2034 4250 
Q 1547 4250 1301 3770 
Q 1056 3291 1056 2328 
Q 1056 1369 1301 889 
Q 1547 409 2034 409 
Q 2525 409 2770 889 
Q 3016 1369 3016 2328 
Q 3016 3291 2770 3770 
Q 2525 4250 2034 4250 
z
M 2034 4750 
Q 2819 4750 3233 4129 
Q 3647 3509 3647 2328 
Q 3647 1150 3233 529 
Q 2819 -91 2034 -91 
Q 1250 -91 836 529 
Q 422 1150 422 2328 
Q 422 3509 836 4129 
Q 1250 4750 2034 4750 
z
" transform="scale(0.015625)"/>
       </defs>
       <use xlink:href="#DejaVuSans-30"/>
      </g>
     </g>
    </g>
    <g id="xtick_5">
     <g id="line2d_9">
      <path d="M 281.828243 276.22 
L 281.828243 22.32 
" clip-path="url(#p3d36714c1f)" style="fill: none; stroke-dasharray: 2.96,1.28; stroke-dashoffset: 0; stroke: #b0b0b0; stroke-opacity: 0.4; stroke-width: 0.8"/>
     </g>
     <g id="line2d_10">
      <g>
       <use xlink:href="#m53cd497df1" x="281.828243" y="276.22" style="stroke: #000000; stroke-width: 0.8"/>
      </g>
     </g>
     <g id="text_5">
      <!-- 1 -->
      <g transform="translate(278.646993 290.818437) scale(0.1 -0.1)">
       <use xlink:href="#DejaVuSans-31"/>
      </g>
     </g>
    </g>
    <g id="xtick_6">
     <g id="line2d_11">
      <path d="M 330.710548 276.22 
L 330.710548 22.32 
" clip-path="url(#p3d36714c1f)" style="fill: none; stroke-dasharray: 2.96,1.28; stroke-dashoffset: 0; stroke: #b0b0b0; stroke-opacity: 0.4; stroke-width: 0.8"/>
     </g>
     <g id="line2d_12">
      <g>
       <use xlink:href="#m53cd497df1" x="330.710548" y="276.22" style="stroke: #000000; stroke-width: 0.8"/>
      </g>
     </g>
     <g id="text_6">
      <!-- 2 -->
      <g transform="translate(327.529298 290.818437) scale(0.1 -0.1)">
       <use xlink:href="#DejaVuSans-32"/>
      </g>
     </g>
    </g>
    <g id="xtick_7">
     <g id="line2d_13">
      <path d="M 379.592853 276.22 
L 379.592853 22.32 
" clip-path="url(#p3d36714c1f)" style="fill: none; stroke-dasharray: 2.96,1.28; stroke-dashoffset: 0; stroke: #b0b0b0; stroke-opacity: 0.4; stroke-width: 0.8"/>
     </g>
     <g id="line2d_14">
      <g>
       <use xlink:href="#m53cd497df1" x="379.592853" y="276.22" style="stroke: #000000; stroke-width: 0.8"/>
      </g>
     </g>
     <g id="text_7">
      <!-- 3 -->
      <g transform="translate(376.411603 290.818437) scale(0.1 -0.1)">
       <use xlink:href="#DejaVuSans-33"/>
      </g>
     </g>
    </g>
    <g id="text_8">
     <!-- $x$ -->
     <g transform="translate(229.645937 305.256406) scale(0.11 -0.11)">
      <defs>
       <path id="DejaVuSans-Oblique-78" d="M 3841 3500 
L 2234 1784 
L 3219 0 
L 2559 0 
L 1819 1388 
L 531 0 
L -166 0 
L 1556 1844 
L 641 3500 
L 1300 3500 
L 1972 2234 
L 3144 3500 
L 3841 3500 
z
" transform="scale(0.015625)"/>
      </defs>
      <use xlink:href="#DejaVuSans-Oblique-78" transform="translate(0 0.3125)"/>
     </g>
    </g>
   </g>
   <g id="matplotlib.axis_2">
    <g id="ytick_1">
     <g id="line2d_15">
      <path d="M 44.749063 250.83 
L 421.142812 250.83 
" clip-path="url(#p3d36714c1f)" style="fill: none; stroke-dasharray: 2.96,1.28; stroke-dashoffset: 0; stroke: #b0b0b0; stroke-opacity: 0.4; stroke-width: 0.8"/>
     </g>
     <g id="line2d_16">
      <defs>
       <path id="m5f2b56f9c1" d="M 0 0 
L -3.5 0 
" style="stroke: #000000; stroke-width: 0.8"/>
      </defs>
      <g>
       <use xlink:href="#m5f2b56f9c1" x="44.749063" y="250.83" style="stroke: #000000; stroke-width: 0.8"/>
      </g>
     </g>
     <g id="text_9">
      <!-- 0.0 -->
      <g transform="translate(21.845938 254.629219) scale(0.1 -0.1)">
       <defs>
        <path id="DejaVuSans-2e" d="M 684 794 
L 1344 794 
L 1344 0 
L 684 0 
L 684 794 
z
" transform="scale(0.015625)"/>
       </defs>
       <use xlink:href="#DejaVuSans-30"/>
       <use xlink:href="#DejaVuSans-2e" transform="translate(63.623047 0)"/>
       <use xlink:href="#DejaVuSans-30" transform="translate(95.410156 0)"/>
      </g>
     </g>
    </g>
    <g id="ytick_2">
     <g id="line2d_17">
      <path d="M 44.749063 200.05 
L 421.142812 200.05 
" clip-path="url(#p3d36714c1f)" style="fill: none; stroke-dasharray: 2.96,1.28; stroke-dashoffset: 0; stroke: #b0b0b0; stroke-opacity: 0.4; stroke-width: 0.8"/>
     </g>
     <g id="line2d_18">
      <g>
       <use xlink:href="#m5f2b56f9c1" x="44.749063" y="200.05" style="stroke: #000000; stroke-width: 0.8"/>
      </g>
     </g>
     <g id="text_10">
      <!-- 0.1 -->
      <g transform="translate(21.845938 203.849219) scale(0.1 -0.1)">
       <use xlink:href="#DejaVuSans-30"/>
       <use xlink:href="#DejaVuSans-2e" transform="translate(63.623047 0)"/>
       <use xlink:href="#DejaVuSans-31" transform="translate(95.410156 0)"/>
      </g>
     </g>
    </g>
    <g id="ytick_3">
     <g id="line2d_19">
      <path d="M 44.749063 149.27 
L 421.142812 149.27 
" clip-path="url(#p3d36714c1f)" style="fill: none; stroke-dasharray: 2.96,1.28; stroke-dashoffset: 0; stroke: #b0b0b0; stroke-opacity: 0.4; stroke-width: 0.8"/>
     </g>
     <g id="line2d_20">
      <g>
       <use xlink:href="#m5f2b56f9c1" x="44.749063" y="149.27" style="stroke: #000000; stroke-width: 0.8"/>
      </g>
     </g>
     <g id="text_11">
      <!-- 0.2 -->
      <g transform="translate(21.845938 153.069219) scale(0.1 -0.1)">
       <use xlink:href="#DejaVuSans-30"/>
       <use xlink:href="#DejaVuSans-2e" transform="translate(63.623047 0)"/>
       <use xlink:href="#DejaVuSans-32" transform="translate(95.410156 0)"/>
      </g>
     </g>
    </g>
    <g id="ytick_4">
     <g id="line2d_21">
      <path d="M 44.749063 98.49 
L 421.142812 98.49 
" clip-path="url(#p3d36714c1f)" style="fill: none; stroke-dasharray: 2.96,1.28; stroke-dashoffset: 0; stroke: #b0b0b0; stroke-opacity: 0.4; stroke-width: 0.8"/>
     </g>
     <g id="line2d_22">
      <g>
       <use xlink:href="#m5f2b56f9c1" x="44.749063" y="98.49" style="stroke: #000000; stroke-width: 0.8"/>
      </g>
     </g>
     <g id="text_12">
      <!-- 0.3 -->
      <g transform="translate(21.845938 102.289219) scale(0.1 -0.1)">
       <use xlink:href="#DejaVuSans-30"/>
       <use xlink:href="#DejaVuSans-2e" transform="translate(63.623047 0)"/>
       <use xlink:href="#DejaVuSans-33" transform="translate(95.410156 0)"/>
      </g>
     </g>
    </g>
    <g id="ytick_5">
     <g id="line2d_23">
      <path d="M 44.749063 47.71 
L 421.142812 47.71 
" clip-path="url(#p3d36714c1f)" style="fill: none; stroke-dasharray: 2.96,1.28; stroke-dashoffset: 0; stroke: #b0b0b0; stroke-opacity: 0.4; stroke-width: 0.8"/>
     </g>
     <g id="line2d_24">
      <g>
       <use xlink:href="#m5f2b56f9c1" x="44.749063" y="47.71" style="stroke: #000000; stroke-width: 0.8"/>
      </g>
     </g>
     <g id="text_13">
      <!-- 0.4 -->
      <g transform="translate(21.845938 51.509219) scale(0.1 -0.1)">
       <defs>
        <path id="DejaVuSans-34" d="M 2419 4116 
L 825 1625 
L 2419 1625 
L 2419 4116 
z
M 2253 4666 
L 3047 4666 
L 3047 1625 
L 3713 1625 
L 3713 1100 
L 3047 1100 
L 3047 0 
L 2419 0 
L 2419 1100 
L 313 1100 
L 313 1709 
L 2253 4666 
z
" transform="scale(0.015625)"/>
       </defs>
       <use xlink:href="#DejaVuSans-30"/>
       <use xlink:href="#DejaVuSans-2e" transform="translate(63.623047 0)"/>
       <use xlink:href="#DejaVuSans-34" transform="translate(95.410156 0)"/>
      </g>
     </g>
    </g>
    <g id="text_14">
     <!-- Density -->
     <g transform="translate(15.558281 170.179453) rotate(-90) scale(0.11 -0.11)">
      <defs>
       <path id="DejaVuSans-44" d="M 1259 4147 
L 1259 519 
L 2022 519 
Q 2988 519 3436 956 
Q 3884 1394 3884 2338 
Q 3884 3275 3436 3711 
Q 2988 4147 2022 4147 
L 1259 4147 
z
M 628 4666 
L 1925 4666 
Q 3281 4666 3915 4102 
Q 4550 3538 4550 2338 
Q 4550 1131 3912 565 
Q 3275 0 1925 0 
L 628 0 
L 628 4666 
z
" transform="scale(0.015625)"/>
       <path id="DejaVuSans-65" d="M 3597 1894 
L 3597 1613 
L 953 1613 
Q 991 1019 1311 708 
Q 1631 397 2203 397 
Q 2534 397 2845 478 
Q 3156 559 3463 722 
L 3463 178 
Q 3153 47 2828 -22 
Q 2503 -91 2169 -91 
Q 1331 -91 842 396 
Q 353 884 353 1716 
Q 353 2575 817 3079 
Q 1281 3584 2069 3584 
Q 2775 3584 3186 3129 
Q 3597 2675 3597 1894 
z
M 3022 2063 
Q 3016 2534 2758 2815 
Q 2500 3097 2075 3097 
Q 1594 3097 1305 2825 
Q 1016 2553 972 2059 
L 3022 2063 
z
" transform="scale(0.015625)"/>
       <path id="DejaVuSans-6e" d="M 3513 2113 
L 3513 0 
L 2938 0 
L 2938 2094 
Q 2938 2591 2744 2837 
Q 2550 3084 2163 3084 
Q 1697 3084 1428 2787 
Q 1159 2491 1159 1978 
L 1159 0 
L 581 0 
L 581 3500 
L 1159 3500 
L 1159 2956 
Q 1366 3272 1645 3428 
Q 1925 3584 2291 3584 
Q 2894 3584 3203 3211 
Q 3513 2838 3513 2113 
z
" transform="scale(0.015625)"/>
       <path id="DejaVuSans-73" d="M 2834 3397 
L 2834 2853 
Q 2591 2978 2328 3040 
Q 2066 3103 1784 3103 
Q 1356 3103 1142 2972 
Q 928 2841 928 2578 
Q 928 2378 1081 2264 
Q 1234 2150 1697 2047 
L 1894 2003 
Q 2506 1872 2764 1633 
Q 3022 1394 3022 966 
Q 3022 478 2636 193 
Q 2250 -91 1575 -91 
Q 1294 -91 989 -36 
Q 684 19 347 128 
L 347 722 
Q 666 556 975 473 
Q 1284 391 1588 391 
Q 1994 391 2212 530 
Q 2431 669 2431 922 
Q 2431 1156 2273 1281 
Q 2116 1406 1581 1522 
L 1381 1569 
Q 847 1681 609 1914 
Q 372 2147 372 2553 
Q 372 3047 722 3315 
Q 1072 3584 1716 3584 
Q 2034 3584 2315 3537 
Q 2597 3491 2834 3397 
z
" transform="scale(0.015625)"/>
       <path id="DejaVuSans-69" d="M 603 3500 
L 1178 3500 
L 1178 0 
L 603 0 
L 603 3500 
z
M 603 4863 
L 1178 4863 
L 1178 4134 
L 603 4134 
L 603 4863 
z
" transform="scale(0.015625)"/>
       <path id="DejaVuSans-74" d="M 1172 4494 
L 1172 3500 
L 2356 3500 
L 2356 3053 
L 1172 3053 
L 1172 1153 
Q 1172 725 1289 603 
Q 1406 481 1766 481 
L 2356 481 
L 2356 0 
L 1766 0 
Q 1100 0 847 248 
Q 594 497 594 1153 
L 594 3053 
L 172 3053 
L 172 3500 
L 594 3500 
L 594 4494 
L 1172 4494 
z
" transform="scale(0.015625)"/>
       <path id="DejaVuSans-79" d="M 2059 -325 
Q 1816 -950 1584 -1140 
Q 1353 -1331 966 -1331 
L 506 -1331 
L 506 -850 
L 844 -850 
Q 1081 -850 1212 -737 
Q 1344 -625 1503 -206 
L 1606 56 
L 191 3500 
L 800 3500 
L 1894 763 
L 2988 3500 
L 3597 3500 
L 2059 -325 
z
" transform="scale(0.015625)"/>
      </defs>
      <use xlink:href="#DejaVuSans-44"/>
      <use xlink:href="#DejaVuSans-65" transform="translate(77.001953 0)"/>
      <use xlink:href="#DejaVuSans-6e" transform="translate(138.525391 0)"/>
      <use xlink:href="#DejaVuSans-73" transform="translate(201.904297 0)"/>
      <use xlink:href="#DejaVuSans-69" transform="translate(254.003906 0)"/>
      <use xlink:href="#DejaVuSans-74" transform="translate(281.787109 0)"/>
      <use xlink:href="#DejaVuSans-79" transform="translate(320.996094 0)"/>
     </g>
    </g>
   </g>
   <g id="line2d_25">
    <path d="M 61.857869 250.386852 
L 71.013084 249.991274 
L 77.879494 249.507408 
L 83.601503 248.925776 
L 89.323512 248.125671 
L 93.90112 247.284741 
L 98.478727 246.222896 
L 103.056334 244.89529 
L 106.489539 243.695251 
L 109.922745 242.294762 
L 113.35595 240.669612 
L 116.789155 238.794541 
L 120.222361 236.643584 
L 123.655566 234.190494 
L 127.088772 231.409256 
L 130.521977 228.27468 
L 133.955182 224.763074 
L 137.388388 220.852987 
L 140.821593 216.526014 
L 144.254798 211.767636 
L 147.688004 206.56809 
L 151.121209 200.923228 
L 154.554415 194.835354 
L 157.98762 188.313993 
L 161.420825 181.376577 
L 165.998433 171.525514 
L 170.57604 161.067836 
L 176.298049 147.32007 
L 184.308861 127.340853 
L 193.464076 104.631439 
L 198.041683 93.834412 
L 201.474888 86.166873 
L 204.908094 78.974685 
L 208.341299 72.350937 
L 210.630103 68.29479 
L 212.918906 64.555293 
L 215.20771 61.15548 
L 217.496513 58.116578 
L 219.785317 55.457785 
L 222.07412 53.196072 
L 224.362924 51.345999 
L 226.651728 49.919559 
L 228.940531 48.926054 
L 231.229335 48.371985 
L 233.518138 48.260989 
L 235.806942 48.593795 
L 238.095746 49.368217 
L 240.384549 50.579179 
L 242.673353 52.218769 
L 244.962156 54.276325 
L 247.25096 56.738553 
L 249.539764 59.589666 
L 251.828567 62.811555 
L 254.117371 66.383981 
L 256.406174 70.284786 
L 259.83938 76.699129 
L 263.272585 83.711987 
L 266.70579 91.23163 
L 271.283398 101.881465 
L 277.005407 115.874617 
L 293.027032 155.646231 
L 297.604639 166.366008 
L 302.182246 176.532916 
L 306.759853 186.046649 
L 310.193059 192.70904 
L 313.626264 198.942846 
L 317.059469 204.735976 
L 320.492675 210.083802 
L 323.92588 214.98841 
L 327.359085 219.457789 
L 330.792291 223.504967 
L 334.225496 227.14715 
L 337.658702 230.404865 
L 341.091907 233.301143 
L 344.525112 235.860753 
L 347.958318 238.109505 
L 351.391523 240.073629 
L 354.824729 241.779236 
L 358.257934 243.251864 
L 361.691139 244.516106 
L 366.268746 245.917779 
L 370.846354 247.04165 
L 375.423961 247.933899 
L 381.14597 248.785145 
L 386.867979 249.405835 
L 393.73439 249.923886 
L 401.745202 250.308511 
L 404.034006 250.386852 
L 404.034006 250.386852 
" clip-path="url(#p3d36714c1f)" style="fill: none; stroke: #4682b4; stroke-width: 2.5; stroke-linecap: square"/>
   </g>
   <g id="patch_3">
    <path d="M 44.749063 276.22 
L 44.749063 22.32 
" style="fill: none; stroke: #000000; stroke-width: 0.8; stroke-linejoin: miter; stroke-linecap: square"/>
   </g>
   <g id="patch_4">
    <path d="M 421.142812 276.22 
L 421.142812 22.32 
" style="fill: none; stroke: #000000; stroke-width: 0.8; stroke-linejoin: miter; stroke-linecap: square"/>
   </g>
   <g id="patch_5">
    <path d="M 44.749062 276.22 
L 421.142812 276.22 
" style="fill: none; stroke: #000000; stroke-width: 0.8; stroke-linejoin: miter; stroke-linecap: square"/>
   </g>
   <g id="patch_6">
    <path d="M 44.749062 22.32 
L 421.142812 22.32 
" style="fill: none; stroke: #000000; stroke-width: 0.8; stroke-linejoin: miter; stroke-linecap: square"/>
   </g>
   <g id="text_15">
    <!-- PDF: sampled points cluster where density is high -->
    <g style="fill: #808080" transform="translate(83.599375 16.32) scale(0.12 -0.12)">
     <defs>
      <path id="DejaVuSans-50" d="M 1259 4147 
L 1259 2394 
L 2053 2394 
Q 2494 2394 2734 2622 
Q 2975 2850 2975 3272 
Q 2975 3691 2734 3919 
Q 2494 4147 2053 4147 
L 1259 4147 
z
M 628 4666 
L 2053 4666 
Q 2838 4666 3239 4311 
Q 3641 3956 3641 3272 
Q 3641 2581 3239 2228 
Q 2838 1875 2053 1875 
L 1259 1875 
L 1259 0 
L 628 0 
L 628 4666 
z
" transform="scale(0.015625)"/>
      <path id="DejaVuSans-46" d="M 628 4666 
L 3309 4666 
L 3309 4134 
L 1259 4134 
L 1259 2759 
L 3109 2759 
L 3109 2228 
L 1259 2228 
L 1259 0 
L 628 0 
L 628 4666 
z
" transform="scale(0.015625)"/>
      <path id="DejaVuSans-3a" d="M 750 794 
L 1409 794 
L 1409 0 
L 750 0 
L 750 794 
z
M 750 3309 
L 1409 3309 
L 1409 2516 
L 750 2516 
L 750 3309 
z
" transform="scale(0.015625)"/>
      <path id="DejaVuSans-20" transform="scale(0.015625)"/>
      <path id="DejaVuSans-61" d="M 2194 1759 
Q 1497 1759 1228 1600 
Q 959 1441 959 1056 
Q 959 750 1161 570 
Q 1363 391 1709 391 
Q 2188 391 2477 730 
Q 2766 1069 2766 1631 
L 2766 1759 
L 2194 1759 
z
M 3341 1997 
L 3341 0 
L 2766 0 
L 2766 531 
Q 2569 213 2275 61 
Q 1981 -91 1556 -91 
Q 1019 -91 701 211 
Q 384 513 384 1019 
Q 384 1609 779 1909 
Q 1175 2209 1959 2209 
L 2766 2209 
L 2766 2266 
Q 2766 2663 2505 2880 
Q 2244 3097 1772 3097 
Q 1472 3097 1187 3025 
Q 903 2953 641 2809 
L 641 3341 
Q 956 3463 1253 3523 
Q 1550 3584 1831 3584 
Q 2591 3584 2966 3190 
Q 3341 2797 3341 1997 
z
" transform="scale(0.015625)"/>
      <path id="DejaVuSans-6d" d="M 3328 2828 
Q 3544 3216 3844 3400 
Q 4144 3584 4550 3584 
Q 5097 3584 5394 3201 
Q 5691 2819 5691 2113 
L 5691 0 
L 5113 0 
L 5113 2094 
Q 5113 2597 4934 2840 
Q 4756 3084 4391 3084 
Q 3944 3084 3684 2787 
Q 3425 2491 3425 1978 
L 3425 0 
L 2847 0 
L 2847 2094 
Q 2847 2600 2669 2842 
Q 2491 3084 2119 3084 
Q 1678 3084 1418 2786 
Q 1159 2488 1159 1978 
L 1159 0 
L 581 0 
L 581 3500 
L 1159 3500 
L 1159 2956 
Q 1356 3278 1631 3431 
Q 1906 3584 2284 3584 
Q 2666 3584 2933 3390 
Q 3200 3197 3328 2828 
z
" transform="scale(0.015625)"/>
      <path id="DejaVuSans-70" d="M 1159 525 
L 1159 -1331 
L 581 -1331 
L 581 3500 
L 1159 3500 
L 1159 2969 
Q 1341 3281 1617 3432 
Q 1894 3584 2278 3584 
Q 2916 3584 3314 3078 
Q 3713 2572 3713 1747 
Q 3713 922 3314 415 
Q 2916 -91 2278 -91 
Q 1894 -91 1617 61 
Q 1341 213 1159 525 
z
M 3116 1747 
Q 3116 2381 2855 2742 
Q 2594 3103 2138 3103 
Q 1681 3103 1420 2742 
Q 1159 2381 1159 1747 
Q 1159 1113 1420 752 
Q 1681 391 2138 391 
Q 2594 391 2855 752 
Q 3116 1113 3116 1747 
z
" transform="scale(0.015625)"/>
      <path id="DejaVuSans-6c" d="M 603 4863 
L 1178 4863 
L 1178 0 
L 603 0 
L 603 4863 
z
" transform="scale(0.015625)"/>
      <path id="DejaVuSans-64" d="M 2906 2969 
L 2906 4863 
L 3481 4863 
L 3481 0 
L 2906 0 
L 2906 525 
Q 2725 213 2448 61 
Q 2172 -91 1784 -91 
Q 1150 -91 751 415 
Q 353 922 353 1747 
Q 353 2572 751 3078 
Q 1150 3584 1784 3584 
Q 2172 3584 2448 3432 
Q 2725 3281 2906 2969 
z
M 947 1747 
Q 947 1113 1208 752 
Q 1469 391 1925 391 
Q 2381 391 2643 752 
Q 2906 1113 2906 1747 
Q 2906 2381 2643 2742 
Q 2381 3103 1925 3103 
Q 1469 3103 1208 2742 
Q 947 2381 947 1747 
z
" transform="scale(0.015625)"/>
      <path id="DejaVuSans-6f" d="M 1959 3097 
Q 1497 3097 1228 2736 
Q 959 2375 959 1747 
Q 959 1119 1226 758 
Q 1494 397 1959 397 
Q 2419 397 2687 759 
Q 2956 1122 2956 1747 
Q 2956 2369 2687 2733 
Q 2419 3097 1959 3097 
z
M 1959 3584 
Q 2709 3584 3137 3096 
Q 3566 2609 3566 1747 
Q 3566 888 3137 398 
Q 2709 -91 1959 -91 
Q 1206 -91 779 398 
Q 353 888 353 1747 
Q 353 2609 779 3096 
Q 1206 3584 1959 3584 
z
" transform="scale(0.015625)"/>
      <path id="DejaVuSans-63" d="M 3122 3366 
L 3122 2828 
Q 2878 2963 2633 3030 
Q 2388 3097 2138 3097 
Q 1578 3097 1268 2742 
Q 959 2388 959 1747 
Q 959 1106 1268 751 
Q 1578 397 2138 397 
Q 2388 397 2633 464 
Q 2878 531 3122 666 
L 3122 134 
Q 2881 22 2623 -34 
Q 2366 -91 2075 -91 
Q 1284 -91 818 406 
Q 353 903 353 1747 
Q 353 2603 823 3093 
Q 1294 3584 2113 3584 
Q 2378 3584 2631 3529 
Q 2884 3475 3122 3366 
z
" transform="scale(0.015625)"/>
      <path id="DejaVuSans-75" d="M 544 1381 
L 544 3500 
L 1119 3500 
L 1119 1403 
Q 1119 906 1312 657 
Q 1506 409 1894 409 
Q 2359 409 2629 706 
Q 2900 1003 2900 1516 
L 2900 3500 
L 3475 3500 
L 3475 0 
L 2900 0 
L 2900 538 
Q 2691 219 2414 64 
Q 2138 -91 1772 -91 
Q 1169 -91 856 284 
Q 544 659 544 1381 
z
M 1991 3584 
L 1991 3584 
z
" transform="scale(0.015625)"/>
      <path id="DejaVuSans-72" d="M 2631 2963 
Q 2534 3019 2420 3045 
Q 2306 3072 2169 3072 
Q 1681 3072 1420 2755 
Q 1159 2438 1159 1844 
L 1159 0 
L 581 0 
L 581 3500 
L 1159 3500 
L 1159 2956 
Q 1341 3275 1631 3429 
Q 1922 3584 2338 3584 
Q 2397 3584 2469 3576 
Q 2541 3569 2628 3553 
L 2631 2963 
z
" transform="scale(0.015625)"/>
      <path id="DejaVuSans-77" d="M 269 3500 
L 844 3500 
L 1563 769 
L 2278 3500 
L 2956 3500 
L 3675 769 
L 4391 3500 
L 4966 3500 
L 4050 0 
L 3372 0 
L 2619 2869 
L 1863 0 
L 1184 0 
L 269 3500 
z
" transform="scale(0.015625)"/>
      <path id="DejaVuSans-68" d="M 3513 2113 
L 3513 0 
L 2938 0 
L 2938 2094 
Q 2938 2591 2744 2837 
Q 2550 3084 2163 3084 
Q 1697 3084 1428 2787 
Q 1159 2491 1159 1978 
L 1159 0 
L 581 0 
L 581 4863 
L 1159 4863 
L 1159 2956 
Q 1366 3272 1645 3428 
Q 1925 3584 2291 3584 
Q 2894 3584 3203 3211 
Q 3513 2838 3513 2113 
z
" transform="scale(0.015625)"/>
      <path id="DejaVuSans-67" d="M 2906 1791 
Q 2906 2416 2648 2759 
Q 2391 3103 1925 3103 
Q 1463 3103 1205 2759 
Q 947 2416 947 1791 
Q 947 1169 1205 825 
Q 1463 481 1925 481 
Q 2391 481 2648 825 
Q 2906 1169 2906 1791 
z
M 3481 434 
Q 3481 -459 3084 -895 
Q 2688 -1331 1869 -1331 
Q 1566 -1331 1297 -1286 
Q 1028 -1241 775 -1147 
L 775 -588 
Q 1028 -725 1275 -790 
Q 1522 -856 1778 -856 
Q 2344 -856 2625 -561 
Q 2906 -266 2906 331 
L 2906 616 
Q 2728 306 2450 153 
Q 2172 0 1784 0 
Q 1141 0 747 490 
Q 353 981 353 1791 
Q 353 2603 747 3093 
Q 1141 3584 1784 3584 
Q 2172 3584 2450 3431 
Q 2728 3278 2906 2969 
L 2906 3500 
L 3481 3500 
L 3481 434 
z
" transform="scale(0.015625)"/>
     </defs>
     <use xlink:href="#DejaVuSans-50"/>
     <use xlink:href="#DejaVuSans-44" transform="translate(60.302734 0)"/>
     <use xlink:href="#DejaVuSans-46" transform="translate(137.304688 0)"/>
     <use xlink:href="#DejaVuSans-3a" transform="translate(187.074219 0)"/>
     <use xlink:href="#DejaVuSans-20" transform="translate(220.765625 0)"/>
     <use xlink:href="#DejaVuSans-73" transform="translate(252.552734 0)"/>
     <use xlink:href="#DejaVuSans-61" transform="translate(304.652344 0)"/>
     <use xlink:href="#DejaVuSans-6d" transform="translate(365.931641 0)"/>
     <use xlink:href="#DejaVuSans-70" transform="translate(463.34375 0)"/>
     <use xlink:href="#DejaVuSans-6c" transform="translate(526.820312 0)"/>
     <use xlink:href="#DejaVuSans-65" transform="translate(554.603516 0)"/>
     <use xlink:href="#DejaVuSans-64" transform="translate(616.126953 0)"/>
     <use xlink:href="#DejaVuSans-20" transform="translate(679.603516 0)"/>
     <use xlink:href="#DejaVuSans-70" transform="translate(711.390625 0)"/>
     <use xlink:href="#DejaVuSans-6f" transform="translate(774.867188 0)"/>
     <use xlink:href="#DejaVuSans-69" transform="translate(836.048828 0)"/>
     <use xlink:href="#DejaVuSans-6e" transform="translate(863.832031 0)"/>
     <use xlink:href="#DejaVuSans-74" transform="translate(927.210938 0)"/>
     <use xlink:href="#DejaVuSans-73" transform="translate(966.419922 0)"/>
     <use xlink:href="#DejaVuSans-20" transform="translate(1018.519531 0)"/>
     <use xlink:href="#DejaVuSans-63" transform="translate(1050.306641 0)"/>
     <use xlink:href="#DejaVuSans-6c" transform="translate(1105.287109 0)"/>
     <use xlink:href="#DejaVuSans-75" transform="translate(1133.070312 0)"/>
     <use xlink:href="#DejaVuSans-73" transform="translate(1196.449219 0)"/>
     <use xlink:href="#DejaVuSans-74" transform="translate(1248.548828 0)"/>
     <use xlink:href="#DejaVuSans-65" transform="translate(1287.757812 0)"/>
     <use xlink:href="#DejaVuSans-72" transform="translate(1349.28125 0)"/>
     <use xlink:href="#DejaVuSans-20" transform="translate(1390.394531 0)"/>
     <use xlink:href="#DejaVuSans-77" transform="translate(1422.181641 0)"/>
     <use xlink:href="#DejaVuSans-68" transform="translate(1503.96875 0)"/>
     <use xlink:href="#DejaVuSans-65" transform="translate(1567.347656 0)"/>
     <use xlink:href="#DejaVuSans-72" transform="translate(1628.871094 0)"/>
     <use xlink:href="#DejaVuSans-65" transform="translate(1667.734375 0)"/>
     <use xlink:href="#DejaVuSans-20" transform="translate(1729.257812 0)"/>
     <use xlink:href="#DejaVuSans-64" transform="translate(1761.044922 0)"/>
     <use xlink:href="#DejaVuSans-65" transform="translate(1824.521484 0)"/>
     <use xlink:href="#DejaVuSans-6e" transform="translate(1886.044922 0)"/>
     <use xlink:href="#DejaVuSans-73" transform="translate(1949.423828 0)"/>
     <use xlink:href="#DejaVuSans-69" transform="translate(2001.523438 0)"/>
     <use xlink:href="#DejaVuSans-74" transform="translate(2029.306641 0)"/>
     <use xlink:href="#DejaVuSans-79" transform="translate(2068.515625 0)"/>
     <use xlink:href="#DejaVuSans-20" transform="translate(2127.695312 0)"/>
     <use xlink:href="#DejaVuSans-69" transform="translate(2159.482422 0)"/>
     <use xlink:href="#DejaVuSans-73" transform="translate(2187.265625 0)"/>
     <use xlink:href="#DejaVuSans-20" transform="translate(2239.365234 0)"/>
     <use xlink:href="#DejaVuSans-68" transform="translate(2271.152344 0)"/>
     <use xlink:href="#DejaVuSans-69" transform="translate(2334.53125 0)"/>
     <use xlink:href="#DejaVuSans-67" transform="translate(2362.314453 0)"/>
     <use xlink:href="#DejaVuSans-68" transform="translate(2425.791016 0)"/>
    </g>
   </g>
   <g id="PathCollection_1">
    <defs>
     <path id="m1010ad1f75" d="M 0 3.535534 
C 0.937635 3.535534 1.836992 3.163008 2.5 2.5 
C 3.163008 1.836992 3.535534 0.937635 3.535534 0 
C 3.535534 -0.937635 3.163008 -1.836992 2.5 -2.5 
C 1.836992 -3.163008 0.937635 -3.535534 0 -3.535534 
C -0.937635 -3.535534 -1.836992 -3.163008 -2.5 -2.5 
C -3.163008 -1.836992 -3.535534 -0.937635 -3.535534 0 
C -3.535534 0.937635 -3.163008 1.836992 -2.5 2.5 
C -1.836992 3.163008 -0.937635 3.535534 0 3.535534 
z
" style="stroke: #333333"/>
    </defs>
    <g clip-path="url(#p3d36714c1f)">
     <use xlink:href="#m1010ad1f75" x="152.541701" y="255.908" style="fill: #333333; stroke: #333333"/>
     <use xlink:href="#m1010ad1f75" x="191.805552" y="255.908" style="fill: #333333; stroke: #333333"/>
     <use xlink:href="#m1010ad1f75" x="214.110585" y="255.908" style="fill: #333333; stroke: #333333"/>
     <use xlink:href="#m1010ad1f75" x="232.945937" y="255.908" style="fill: #333333; stroke: #333333"/>
     <use xlink:href="#m1010ad1f75" x="251.78129" y="255.908" style="fill: #333333; stroke: #333333"/>
     <use xlink:href="#m1010ad1f75" x="274.086323" y="255.908" style="fill: #333333; stroke: #333333"/>
     <use xlink:href="#m1010ad1f75" x="313.350174" y="255.908" style="fill: #333333; stroke: #333333"/>
    </g>
   </g>
  </g>
  <g id="axes_2">
   <g id="patch_7">
    <path d="M 472.474062 276.22 
L 848.867813 276.22 
L 848.867813 22.32 
L 472.474062 22.32 
z
" style="fill: #ffffff"/>
   </g>
   <g id="line2d_26">
    <path d="M 829.31489 276.22 
L 829.31489 22.32 
" clip-path="url(#p8201dbd9c4)" style="fill: none; stroke: #888888; stroke-opacity: 0.3; stroke-width: 6; stroke-linecap: square"/>
   </g>
   <g id="matplotlib.axis_3">
    <g id="xtick_8">
     <g id="line2d_27">
      <path d="M 496.915215 276.22 
L 496.915215 22.32 
" clip-path="url(#p8201dbd9c4)" style="fill: none; stroke-dasharray: 2.96,1.28; stroke-dashoffset: 0; stroke: #b0b0b0; stroke-opacity: 0.4; stroke-width: 0.8"/>
     </g>
     <g id="line2d_28">
      <g>
       <use xlink:href="#m53cd497df1" x="496.915215" y="276.22" style="stroke: #000000; stroke-width: 0.8"/>
      </g>
     </g>
     <g id="text_16">
      <!-- −3 -->
      <g transform="translate(489.544121 290.818437) scale(0.1 -0.1)">
       <use xlink:href="#DejaVuSans-2212"/>
       <use xlink:href="#DejaVuSans-33" transform="translate(83.789062 0)"/>
      </g>
     </g>
    </g>
    <g id="xtick_9">
     <g id="line2d_29">
      <path d="M 545.79752 276.22 
L 545.79752 22.32 
" clip-path="url(#p8201dbd9c4)" style="fill: none; stroke-dasharray: 2.96,1.28; stroke-dashoffset: 0; stroke: #b0b0b0; stroke-opacity: 0.4; stroke-width: 0.8"/>
     </g>
     <g id="line2d_30">
      <g>
       <use xlink:href="#m53cd497df1" x="545.79752" y="276.22" style="stroke: #000000; stroke-width: 0.8"/>
      </g>
     </g>
     <g id="text_17">
      <!-- −2 -->
      <g transform="translate(538.426427 290.818437) scale(0.1 -0.1)">
       <use xlink:href="#DejaVuSans-2212"/>
       <use xlink:href="#DejaVuSans-32" transform="translate(83.789062 0)"/>
      </g>
     </g>
    </g>
    <g id="xtick_10">
     <g id="line2d_31">
      <path d="M 594.679825 276.22 
L 594.679825 22.32 
" clip-path="url(#p8201dbd9c4)" style="fill: none; stroke-dasharray: 2.96,1.28; stroke-dashoffset: 0; stroke: #b0b0b0; stroke-opacity: 0.4; stroke-width: 0.8"/>
     </g>
     <g id="line2d_32">
      <g>
       <use xlink:href="#m53cd497df1" x="594.679825" y="276.22" style="stroke: #000000; stroke-width: 0.8"/>
      </g>
     </g>
     <g id="text_18">
      <!-- −1 -->
      <g transform="translate(587.308732 290.818437) scale(0.1 -0.1)">
       <use xlink:href="#DejaVuSans-2212"/>
       <use xlink:href="#DejaVuSans-31" transform="translate(83.789062 0)"/>
      </g>
     </g>
    </g>
    <g id="xtick_11">
     <g id="line2d_33">
      <path d="M 643.562131 276.22 
L 643.562131 22.32 
" clip-path="url(#p8201dbd9c4)" style="fill: none; stroke-dasharray: 2.96,1.28; stroke-dashoffset: 0; stroke: #b0b0b0; stroke-opacity: 0.4; stroke-width: 0.8"/>
     </g>
     <g id="line2d_34">
      <g>
       <use xlink:href="#m53cd497df1" x="643.562131" y="276.22" style="stroke: #000000; stroke-width: 0.8"/>
      </g>
     </g>
     <g id="text_19">
      <!-- 0 -->
      <g transform="translate(640.380881 290.818437) scale(0.1 -0.1)">
       <use xlink:href="#DejaVuSans-30"/>
      </g>
     </g>
    </g>
    <g id="xtick_12">
     <g id="line2d_35">
      <path d="M 692.444436 276.22 
L 692.444436 22.32 
" clip-path="url(#p8201dbd9c4)" style="fill: none; stroke-dasharray: 2.96,1.28; stroke-dashoffset: 0; stroke: #b0b0b0; stroke-opacity: 0.4; stroke-width: 0.8"/>
     </g>
     <g id="line2d_36">
      <g>
       <use xlink:href="#m53cd497df1" x="692.444436" y="276.22" style="stroke: #000000; stroke-width: 0.8"/>
      </g>
     </g>
     <g id="text_20">
      <!-- 1 -->
      <g transform="translate(689.263186 290.818437) scale(0.1 -0.1)">
       <use xlink:href="#DejaVuSans-31"/>
      </g>
     </g>
    </g>
    <g id="xtick_13">
     <g id="line2d_37">
      <path d="M 741.326741 276.22 
L 741.326741 22.32 
" clip-path="url(#p8201dbd9c4)" style="fill: none; stroke-dasharray: 2.96,1.28; stroke-dashoffset: 0; stroke: #b0b0b0; stroke-opacity: 0.4; stroke-width: 0.8"/>
     </g>
     <g id="line2d_38">
      <g>
       <use xlink:href="#m53cd497df1" x="741.326741" y="276.22" style="stroke: #000000; stroke-width: 0.8"/>
      </g>
     </g>
     <g id="text_21">
      <!-- 2 -->
      <g transform="translate(738.145491 290.818437) scale(0.1 -0.1)">
       <use xlink:href="#DejaVuSans-32"/>
      </g>
     </g>
    </g>
    <g id="xtick_14">
     <g id="line2d_39">
      <path d="M 790.209046 276.22 
L 790.209046 22.32 
" clip-path="url(#p8201dbd9c4)" style="fill: none; stroke-dasharray: 2.96,1.28; stroke-dashoffset: 0; stroke: #b0b0b0; stroke-opacity: 0.4; stroke-width: 0.8"/>
     </g>
     <g id="line2d_40">
      <g>
       <use xlink:href="#m53cd497df1" x="790.209046" y="276.22" style="stroke: #000000; stroke-width: 0.8"/>
      </g>
     </g>
     <g id="text_22">
      <!-- 3 -->
      <g transform="translate(787.027796 290.818437) scale(0.1 -0.1)">
       <use xlink:href="#DejaVuSans-33"/>
      </g>
     </g>
    </g>
    <g id="xtick_15">
     <g id="line2d_41">
      <path d="M 839.091351 276.22 
L 839.091351 22.32 
" clip-path="url(#p8201dbd9c4)" style="fill: none; stroke-dasharray: 2.96,1.28; stroke-dashoffset: 0; stroke: #b0b0b0; stroke-opacity: 0.4; stroke-width: 0.8"/>
     </g>
     <g id="line2d_42">
      <g>
       <use xlink:href="#m53cd497df1" x="839.091351" y="276.22" style="stroke: #000000; stroke-width: 0.8"/>
      </g>
     </g>
     <g id="text_23">
      <!-- 4 -->
      <g transform="translate(835.910101 290.818437) scale(0.1 -0.1)">
       <use xlink:href="#DejaVuSans-34"/>
      </g>
     </g>
    </g>
    <g id="text_24">
     <!-- $x$ -->
     <g transform="translate(657.370938 305.256406) scale(0.11 -0.11)">
      <use xlink:href="#DejaVuSans-Oblique-78" transform="translate(0 0.3125)"/>
     </g>
    </g>
   </g>
   <g id="matplotlib.axis_4">
    <g id="ytick_6">
     <g id="line2d_43">
      <path d="M 472.474062 276.22 
L 848.867813 276.22 
" clip-path="url(#p8201dbd9c4)" style="fill: none; stroke-dasharray: 2.96,1.28; stroke-dashoffset: 0; stroke: #b0b0b0; stroke-opacity: 0.4; stroke-width: 0.8"/>
     </g>
     <g id="line2d_44">
      <g>
       <use xlink:href="#m5f2b56f9c1" x="472.474062" y="276.22" style="stroke: #000000; stroke-width: 0.8"/>
      </g>
     </g>
     <g id="text_25">
      <!-- 0.0 -->
      <g transform="translate(449.570937 280.019219) scale(0.1 -0.1)">
       <use xlink:href="#DejaVuSans-30"/>
       <use xlink:href="#DejaVuSans-2e" transform="translate(63.623047 0)"/>
       <use xlink:href="#DejaVuSans-30" transform="translate(95.410156 0)"/>
      </g>
     </g>
    </g>
    <g id="ytick_7">
     <g id="line2d_45">
      <path d="M 472.474062 227.858095 
L 848.867813 227.858095 
" clip-path="url(#p8201dbd9c4)" style="fill: none; stroke-dasharray: 2.96,1.28; stroke-dashoffset: 0; stroke: #b0b0b0; stroke-opacity: 0.4; stroke-width: 0.8"/>
     </g>
     <g id="line2d_46">
      <g>
       <use xlink:href="#m5f2b56f9c1" x="472.474062" y="227.858095" style="stroke: #000000; stroke-width: 0.8"/>
      </g>
     </g>
     <g id="text_26">
      <!-- 0.2 -->
      <g transform="translate(449.570937 231.657314) scale(0.1 -0.1)">
       <use xlink:href="#DejaVuSans-30"/>
       <use xlink:href="#DejaVuSans-2e" transform="translate(63.623047 0)"/>
       <use xlink:href="#DejaVuSans-32" transform="translate(95.410156 0)"/>
      </g>
     </g>
    </g>
    <g id="ytick_8">
     <g id="line2d_47">
      <path d="M 472.474062 179.49619 
L 848.867813 179.49619 
" clip-path="url(#p8201dbd9c4)" style="fill: none; stroke-dasharray: 2.96,1.28; stroke-dashoffset: 0; stroke: #b0b0b0; stroke-opacity: 0.4; stroke-width: 0.8"/>
     </g>
     <g id="line2d_48">
      <g>
       <use xlink:href="#m5f2b56f9c1" x="472.474062" y="179.49619" style="stroke: #000000; stroke-width: 0.8"/>
      </g>
     </g>
     <g id="text_27">
      <!-- 0.4 -->
      <g transform="translate(449.570937 183.295409) scale(0.1 -0.1)">
       <use xlink:href="#DejaVuSans-30"/>
       <use xlink:href="#DejaVuSans-2e" transform="translate(63.623047 0)"/>
       <use xlink:href="#DejaVuSans-34" transform="translate(95.410156 0)"/>
      </g>
     </g>
    </g>
    <g id="ytick_9">
     <g id="line2d_49">
      <path d="M 472.474062 131.134286 
L 848.867813 131.134286 
" clip-path="url(#p8201dbd9c4)" style="fill: none; stroke-dasharray: 2.96,1.28; stroke-dashoffset: 0; stroke: #b0b0b0; stroke-opacity: 0.4; stroke-width: 0.8"/>
     </g>
     <g id="line2d_50">
      <g>
       <use xlink:href="#m5f2b56f9c1" x="472.474062" y="131.134286" style="stroke: #000000; stroke-width: 0.8"/>
      </g>
     </g>
     <g id="text_28">
      <!-- 0.6 -->
      <g transform="translate(449.570937 134.933504) scale(0.1 -0.1)">
       <defs>
        <path id="DejaVuSans-36" d="M 2113 2584 
Q 1688 2584 1439 2293 
Q 1191 2003 1191 1497 
Q 1191 994 1439 701 
Q 1688 409 2113 409 
Q 2538 409 2786 701 
Q 3034 994 3034 1497 
Q 3034 2003 2786 2293 
Q 2538 2584 2113 2584 
z
M 3366 4563 
L 3366 3988 
Q 3128 4100 2886 4159 
Q 2644 4219 2406 4219 
Q 1781 4219 1451 3797 
Q 1122 3375 1075 2522 
Q 1259 2794 1537 2939 
Q 1816 3084 2150 3084 
Q 2853 3084 3261 2657 
Q 3669 2231 3669 1497 
Q 3669 778 3244 343 
Q 2819 -91 2113 -91 
Q 1303 -91 875 529 
Q 447 1150 447 2328 
Q 447 3434 972 4092 
Q 1497 4750 2381 4750 
Q 2619 4750 2861 4703 
Q 3103 4656 3366 4563 
z
" transform="scale(0.015625)"/>
       </defs>
       <use xlink:href="#DejaVuSans-30"/>
       <use xlink:href="#DejaVuSans-2e" transform="translate(63.623047 0)"/>
       <use xlink:href="#DejaVuSans-36" transform="translate(95.410156 0)"/>
      </g>
     </g>
    </g>
    <g id="ytick_10">
     <g id="line2d_51">
      <path d="M 472.474062 82.772381 
L 848.867813 82.772381 
" clip-path="url(#p8201dbd9c4)" style="fill: none; stroke-dasharray: 2.96,1.28; stroke-dashoffset: 0; stroke: #b0b0b0; stroke-opacity: 0.4; stroke-width: 0.8"/>
     </g>
     <g id="line2d_52">
      <g>
       <use xlink:href="#m5f2b56f9c1" x="472.474062" y="82.772381" style="stroke: #000000; stroke-width: 0.8"/>
      </g>
     </g>
     <g id="text_29">
      <!-- 0.8 -->
      <g transform="translate(449.570937 86.5716) scale(0.1 -0.1)">
       <defs>
        <path id="DejaVuSans-38" d="M 2034 2216 
Q 1584 2216 1326 1975 
Q 1069 1734 1069 1313 
Q 1069 891 1326 650 
Q 1584 409 2034 409 
Q 2484 409 2743 651 
Q 3003 894 3003 1313 
Q 3003 1734 2745 1975 
Q 2488 2216 2034 2216 
z
M 1403 2484 
Q 997 2584 770 2862 
Q 544 3141 544 3541 
Q 544 4100 942 4425 
Q 1341 4750 2034 4750 
Q 2731 4750 3128 4425 
Q 3525 4100 3525 3541 
Q 3525 3141 3298 2862 
Q 3072 2584 2669 2484 
Q 3125 2378 3379 2068 
Q 3634 1759 3634 1313 
Q 3634 634 3220 271 
Q 2806 -91 2034 -91 
Q 1263 -91 848 271 
Q 434 634 434 1313 
Q 434 1759 690 2068 
Q 947 2378 1403 2484 
z
M 1172 3481 
Q 1172 3119 1398 2916 
Q 1625 2713 2034 2713 
Q 2441 2713 2670 2916 
Q 2900 3119 2900 3481 
Q 2900 3844 2670 4047 
Q 2441 4250 2034 4250 
Q 1625 4250 1398 4047 
Q 1172 3844 1172 3481 
z
" transform="scale(0.015625)"/>
       </defs>
       <use xlink:href="#DejaVuSans-30"/>
       <use xlink:href="#DejaVuSans-2e" transform="translate(63.623047 0)"/>
       <use xlink:href="#DejaVuSans-38" transform="translate(95.410156 0)"/>
      </g>
     </g>
    </g>
    <g id="ytick_11">
     <g id="line2d_53">
      <path d="M 472.474062 34.410476 
L 848.867813 34.410476 
" clip-path="url(#p8201dbd9c4)" style="fill: none; stroke-dasharray: 2.96,1.28; stroke-dashoffset: 0; stroke: #b0b0b0; stroke-opacity: 0.4; stroke-width: 0.8"/>
     </g>
     <g id="line2d_54">
      <g>
       <use xlink:href="#m5f2b56f9c1" x="472.474062" y="34.410476" style="stroke: #000000; stroke-width: 0.8"/>
      </g>
     </g>
     <g id="text_30">
      <!-- 1.0 -->
      <g transform="translate(449.570937 38.209695) scale(0.1 -0.1)">
       <use xlink:href="#DejaVuSans-31"/>
       <use xlink:href="#DejaVuSans-2e" transform="translate(63.623047 0)"/>
       <use xlink:href="#DejaVuSans-30" transform="translate(95.410156 0)"/>
      </g>
     </g>
    </g>
    <g id="text_31">
     <!-- $F(x) = P(X \leq x)$ -->
     <g transform="translate(443.283281 188.155) rotate(-90) scale(0.11 -0.11)">
      <defs>
       <path id="DejaVuSans-Oblique-46" d="M 1081 4666 
L 3756 4666 
L 3653 4134 
L 1606 4134 
L 1338 2759 
L 3188 2759 
L 3084 2228 
L 1234 2228 
L 800 0 
L 172 0 
L 1081 4666 
z
" transform="scale(0.015625)"/>
       <path id="DejaVuSans-28" d="M 1984 4856 
Q 1566 4138 1362 3434 
Q 1159 2731 1159 2009 
Q 1159 1288 1364 580 
Q 1569 -128 1984 -844 
L 1484 -844 
Q 1016 -109 783 600 
Q 550 1309 550 2009 
Q 550 2706 781 3412 
Q 1013 4119 1484 4856 
L 1984 4856 
z
" transform="scale(0.015625)"/>
       <path id="DejaVuSans-29" d="M 513 4856 
L 1013 4856 
Q 1481 4119 1714 3412 
Q 1947 2706 1947 2009 
Q 1947 1309 1714 600 
Q 1481 -109 1013 -844 
L 513 -844 
Q 928 -128 1133 580 
Q 1338 1288 1338 2009 
Q 1338 2731 1133 3434 
Q 928 4138 513 4856 
z
" transform="scale(0.015625)"/>
       <path id="DejaVuSans-3d" d="M 678 2906 
L 4684 2906 
L 4684 2381 
L 678 2381 
L 678 2906 
z
M 678 1631 
L 4684 1631 
L 4684 1100 
L 678 1100 
L 678 1631 
z
" transform="scale(0.015625)"/>
       <path id="DejaVuSans-Oblique-50" d="M 1081 4666 
L 2541 4666 
Q 3178 4666 3512 4369 
Q 3847 4072 3847 3500 
Q 3847 2731 3353 2303 
Q 2859 1875 1966 1875 
L 1172 1875 
L 806 0 
L 172 0 
L 1081 4666 
z
M 1613 4147 
L 1275 2394 
L 2069 2394 
Q 2606 2394 2893 2669 
Q 3181 2944 3181 3456 
Q 3181 3784 2986 3965 
Q 2791 4147 2438 4147 
L 1613 4147 
z
" transform="scale(0.015625)"/>
       <path id="DejaVuSans-Oblique-58" d="M 878 4666 
L 1516 4666 
L 2316 2981 
L 3763 4666 
L 4500 4666 
L 2578 2438 
L 3738 0 
L 3103 0 
L 2163 1966 
L 459 0 
L -275 0 
L 1906 2509 
L 878 4666 
z
" transform="scale(0.015625)"/>
       <path id="DejaVuSans-2264" d="M 4684 3175 
L 1684 2309 
L 4684 1453 
L 4684 897 
L 678 2047 
L 678 2578 
L 4684 3725 
L 4684 3175 
z
M 678 531 
L 4684 531 
L 4684 0 
L 678 0 
L 678 531 
z
" transform="scale(0.015625)"/>
      </defs>
      <use xlink:href="#DejaVuSans-Oblique-46" transform="translate(0 0.125)"/>
      <use xlink:href="#DejaVuSans-28" transform="translate(57.519531 0.125)"/>
      <use xlink:href="#DejaVuSans-Oblique-78" transform="translate(96.533203 0.125)"/>
      <use xlink:href="#DejaVuSans-29" transform="translate(155.712891 0.125)"/>
      <use xlink:href="#DejaVuSans-3d" transform="translate(214.208984 0.125)"/>
      <use xlink:href="#DejaVuSans-Oblique-50" transform="translate(317.480469 0.125)"/>
      <use xlink:href="#DejaVuSans-28" transform="translate(377.783203 0.125)"/>
      <use xlink:href="#DejaVuSans-Oblique-58" transform="translate(416.796875 0.125)"/>
      <use xlink:href="#DejaVuSans-2264" transform="translate(504.785156 0.125)"/>
      <use xlink:href="#DejaVuSans-Oblique-78" transform="translate(608.056641 0.125)"/>
      <use xlink:href="#DejaVuSans-29" transform="translate(667.236328 0.125)"/>
     </g>
    </g>
   </g>
   <g id="line2d_55">
    <path d="M 472.474063 276.163748 
L 493.073295 275.968544 
L 505.661715 275.641305 
L 514.816929 275.199076 
L 522.827741 274.585961 
L 529.694152 273.821706 
L 535.416161 272.96273 
L 541.13817 271.850168 
L 545.715777 270.740597 
L 550.293384 269.402452 
L 554.870992 267.802726 
L 559.448599 265.906971 
L 562.881804 264.269728 
L 566.31501 262.431343 
L 569.748215 260.377258 
L 573.18142 258.093453 
L 576.614626 255.566727 
L 580.047831 252.784991 
L 583.481037 249.737572 
L 586.914242 246.415515 
L 590.347447 242.811883 
L 593.780653 238.922036 
L 597.213858 234.743895 
L 600.647063 230.278167 
L 605.224671 223.883317 
L 609.802278 217.001493 
L 614.379885 209.660226 
L 618.957492 201.897171 
L 624.679501 191.673275 
L 630.40151 180.977019 
L 638.412323 165.459491 
L 656.722751 129.653457 
L 662.44476 118.957201 
L 668.166769 108.733305 
L 672.744376 100.97025 
L 677.321984 93.628983 
L 681.899591 86.747159 
L 686.477198 80.352309 
L 689.910403 75.886581 
L 693.343609 71.70844 
L 696.776814 67.818593 
L 700.210019 64.214961 
L 703.643225 60.892904 
L 707.07643 57.845485 
L 710.509636 55.06375 
L 713.942841 52.537024 
L 717.376046 50.253218 
L 720.809252 48.199133 
L 724.242457 46.360748 
L 727.675663 44.723505 
L 732.25327 42.827751 
L 736.830877 41.228025 
L 741.408484 39.889879 
L 745.986091 38.780308 
L 750.563698 37.868294 
L 756.285707 36.962717 
L 762.007716 36.27116 
L 768.874127 35.663161 
L 776.88494 35.182221 
L 787.184556 34.809706 
L 800.917377 34.565972 
L 814.650199 34.466728 
L 814.650199 34.466728 
" clip-path="url(#p8201dbd9c4)" style="fill: none; stroke: #4682b4; stroke-width: 2.5; stroke-linecap: square"/>
   </g>
   <g id="line2d_56">
    <path d="M 563.157894 264.129524 
L 829.31489 264.129524 
" clip-path="url(#p8201dbd9c4)" style="fill: none; stroke-dasharray: 1,1.65; stroke-dashoffset: 0; stroke: #cc7000"/>
   </g>
   <g id="line2d_57">
    <path d="M 563.157894 276.22 
L 563.157894 264.129524 
" clip-path="url(#p8201dbd9c4)" style="fill: none; stroke-dasharray: 1,1.65; stroke-dashoffset: 0; stroke: #cc7000"/>
   </g>
   <g id="line2d_58">
    <path d="M 602.421745 227.858095 
L 829.31489 227.858095 
" clip-path="url(#p8201dbd9c4)" style="fill: none; stroke-dasharray: 1,1.65; stroke-dashoffset: 0; stroke: #cc7000"/>
   </g>
   <g id="line2d_59">
    <path d="M 602.421745 276.22 
L 602.421745 227.858095 
" clip-path="url(#p8201dbd9c4)" style="fill: none; stroke-dasharray: 1,1.65; stroke-dashoffset: 0; stroke: #cc7000"/>
   </g>
   <g id="line2d_60">
    <path d="M 624.726778 191.586667 
L 829.31489 191.586667 
" clip-path="url(#p8201dbd9c4)" style="fill: none; stroke-dasharray: 1,1.65; stroke-dashoffset: 0; stroke: #cc7000"/>
   </g>
   <g id="line2d_61">
    <path d="M 624.726778 276.22 
L 624.726778 191.586667 
" clip-path="url(#p8201dbd9c4)" style="fill: none; stroke-dasharray: 1,1.65; stroke-dashoffset: 0; stroke: #cc7000"/>
   </g>
   <g id="line2d_62">
    <path d="M 643.562131 155.315238 
L 829.31489 155.315238 
" clip-path="url(#p8201dbd9c4)" style="fill: none; stroke-dasharray: 1,1.65; stroke-dashoffset: 0; stroke: #cc7000"/>
   </g>
   <g id="line2d_63">
    <path d="M 643.562131 276.22 
L 643.562131 155.315238 
" clip-path="url(#p8201dbd9c4)" style="fill: none; stroke-dasharray: 1,1.65; stroke-dashoffset: 0; stroke: #cc7000"/>
   </g>
   <g id="line2d_64">
    <path d="M 662.397483 119.04381 
L 829.31489 119.04381 
" clip-path="url(#p8201dbd9c4)" style="fill: none; stroke-dasharray: 1,1.65; stroke-dashoffset: 0; stroke: #cc7000"/>
   </g>
   <g id="line2d_65">
    <path d="M 662.397483 276.22 
L 662.397483 119.04381 
" clip-path="url(#p8201dbd9c4)" style="fill: none; stroke-dasharray: 1,1.65; stroke-dashoffset: 0; stroke: #cc7000"/>
   </g>
   <g id="line2d_66">
    <path d="M 684.702517 82.772381 
L 829.31489 82.772381 
" clip-path="url(#p8201dbd9c4)" style="fill: none; stroke-dasharray: 1,1.65; stroke-dashoffset: 0; stroke: #cc7000"/>
   </g>
   <g id="line2d_67">
    <path d="M 684.702517 276.22 
L 684.702517 82.772381 
" clip-path="url(#p8201dbd9c4)" style="fill: none; stroke-dasharray: 1,1.65; stroke-dashoffset: 0; stroke: #cc7000"/>
   </g>
   <g id="line2d_68">
    <path d="M 723.966368 46.500952 
L 829.31489 46.500952 
" clip-path="url(#p8201dbd9c4)" style="fill: none; stroke-dasharray: 1,1.65; stroke-dashoffset: 0; stroke: #cc7000"/>
   </g>
   <g id="line2d_69">
    <path d="M 723.966368 276.22 
L 723.966368 46.500952 
" clip-path="url(#p8201dbd9c4)" style="fill: none; stroke-dasharray: 1,1.65; stroke-dashoffset: 0; stroke: #cc7000"/>
   </g>
   <g id="patch_8">
    <path d="M 472.474062 276.22 
L 472.474062 22.32 
" style="fill: none; stroke: #000000; stroke-width: 0.8; stroke-linejoin: miter; stroke-linecap: square"/>
   </g>
   <g id="patch_9">
    <path d="M 848.867813 276.22 
L 848.867813 22.32 
" style="fill: none; stroke: #000000; stroke-width: 0.8; stroke-linejoin: miter; stroke-linecap: square"/>
   </g>
   <g id="patch_10">
    <path d="M 472.474063 276.22 
L 848.867813 276.22 
" style="fill: none; stroke: #000000; stroke-width: 0.8; stroke-linejoin: miter; stroke-linecap: square"/>
   </g>
   <g id="patch_11">
    <path d="M 472.474063 22.32 
L 848.867813 22.32 
" style="fill: none; stroke: #000000; stroke-width: 0.8; stroke-linejoin: miter; stroke-linecap: square"/>
   </g>
   <g id="text_32">
    <!-- CDF: sample $u$ uniformly, read $x$ horizontally -->
    <g style="fill: #808080" transform="translate(526.450938 16.32) scale(0.12 -0.12)">
     <defs>
      <path id="DejaVuSans-43" d="M 4122 4306 
L 4122 3641 
Q 3803 3938 3442 4084 
Q 3081 4231 2675 4231 
Q 1875 4231 1450 3742 
Q 1025 3253 1025 2328 
Q 1025 1406 1450 917 
Q 1875 428 2675 428 
Q 3081 428 3442 575 
Q 3803 722 4122 1019 
L 4122 359 
Q 3791 134 3420 21 
Q 3050 -91 2638 -91 
Q 1578 -91 968 557 
Q 359 1206 359 2328 
Q 359 3453 968 4101 
Q 1578 4750 2638 4750 
Q 3056 4750 3426 4639 
Q 3797 4528 4122 4306 
z
" transform="scale(0.015625)"/>
      <path id="DejaVuSans-Oblique-75" d="M 428 1388 
L 838 3500 
L 1416 3500 
L 1006 1409 
Q 975 1256 961 1147 
Q 947 1038 947 966 
Q 947 700 1109 554 
Q 1272 409 1569 409 
Q 2031 409 2368 721 
Q 2706 1034 2809 1563 
L 3194 3500 
L 3769 3500 
L 3091 0 
L 2516 0 
L 2631 550 
Q 2388 244 2052 76 
Q 1716 -91 1338 -91 
Q 878 -91 622 161 
Q 366 413 366 863 
Q 366 956 381 1097 
Q 397 1238 428 1388 
z
" transform="scale(0.015625)"/>
      <path id="DejaVuSans-66" d="M 2375 4863 
L 2375 4384 
L 1825 4384 
Q 1516 4384 1395 4259 
Q 1275 4134 1275 3809 
L 1275 3500 
L 2222 3500 
L 2222 3053 
L 1275 3053 
L 1275 0 
L 697 0 
L 697 3053 
L 147 3053 
L 147 3500 
L 697 3500 
L 697 3744 
Q 697 4328 969 4595 
Q 1241 4863 1831 4863 
L 2375 4863 
z
" transform="scale(0.015625)"/>
      <path id="DejaVuSans-2c" d="M 750 794 
L 1409 794 
L 1409 256 
L 897 -744 
L 494 -744 
L 750 256 
L 750 794 
z
" transform="scale(0.015625)"/>
      <path id="DejaVuSans-7a" d="M 353 3500 
L 3084 3500 
L 3084 2975 
L 922 459 
L 3084 459 
L 3084 0 
L 275 0 
L 275 525 
L 2438 3041 
L 353 3041 
L 353 3500 
z
" transform="scale(0.015625)"/>
     </defs>
     <use xlink:href="#DejaVuSans-43" transform="translate(0 0.015625)"/>
     <use xlink:href="#DejaVuSans-44" transform="translate(69.824219 0.015625)"/>
     <use xlink:href="#DejaVuSans-46" transform="translate(146.826172 0.015625)"/>
     <use xlink:href="#DejaVuSans-3a" transform="translate(204.345703 0.015625)"/>
     <use xlink:href="#DejaVuSans-20" transform="translate(238.037109 0.015625)"/>
     <use xlink:href="#DejaVuSans-73" transform="translate(269.824219 0.015625)"/>
     <use xlink:href="#DejaVuSans-61" transform="translate(321.923828 0.015625)"/>
     <use xlink:href="#DejaVuSans-6d" transform="translate(383.203125 0.015625)"/>
     <use xlink:href="#DejaVuSans-70" transform="translate(480.615234 0.015625)"/>
     <use xlink:href="#DejaVuSans-6c" transform="translate(544.091797 0.015625)"/>
     <use xlink:href="#DejaVuSans-65" transform="translate(571.875 0.015625)"/>
     <use xlink:href="#DejaVuSans-20" transform="translate(633.398438 0.015625)"/>
     <use xlink:href="#DejaVuSans-Oblique-75" transform="translate(665.185547 0.015625)"/>
     <use xlink:href="#DejaVuSans-20" transform="translate(728.564453 0.015625)"/>
     <use xlink:href="#DejaVuSans-75" transform="translate(760.351562 0.015625)"/>
     <use xlink:href="#DejaVuSans-6e" transform="translate(823.730469 0.015625)"/>
     <use xlink:href="#DejaVuSans-69" transform="translate(887.109375 0.015625)"/>
     <use xlink:href="#DejaVuSans-66" transform="translate(914.892578 0.015625)"/>
     <use xlink:href="#DejaVuSans-6f" transform="translate(950.097656 0.015625)"/>
     <use xlink:href="#DejaVuSans-72" transform="translate(1011.279297 0.015625)"/>
     <use xlink:href="#DejaVuSans-6d" transform="translate(1052.392578 0.015625)"/>
     <use xlink:href="#DejaVuSans-6c" transform="translate(1149.804688 0.015625)"/>
     <use xlink:href="#DejaVuSans-79" transform="translate(1177.587891 0.015625)"/>
     <use xlink:href="#DejaVuSans-2c" transform="translate(1236.767578 0.015625)"/>
     <use xlink:href="#DejaVuSans-20" transform="translate(1268.554688 0.015625)"/>
     <use xlink:href="#DejaVuSans-72" transform="translate(1300.341797 0.015625)"/>
     <use xlink:href="#DejaVuSans-65" transform="translate(1341.455078 0.015625)"/>
     <use xlink:href="#DejaVuSans-61" transform="translate(1402.978516 0.015625)"/>
     <use xlink:href="#DejaVuSans-64" transform="translate(1464.257812 0.015625)"/>
     <use xlink:href="#DejaVuSans-20" transform="translate(1527.734375 0.015625)"/>
     <use xlink:href="#DejaVuSans-Oblique-78" transform="translate(1559.521484 0.015625)"/>
     <use xlink:href="#DejaVuSans-20" transform="translate(1618.701172 0.015625)"/>
     <use xlink:href="#DejaVuSans-68" transform="translate(1650.488281 0.015625)"/>
     <use xlink:href="#DejaVuSans-6f" transform="translate(1713.867188 0.015625)"/>
     <use xlink:href="#DejaVuSans-72" transform="translate(1775.048828 0.015625)"/>
     <use xlink:href="#DejaVuSans-69" transform="translate(1816.162109 0.015625)"/>
     <use xlink:href="#DejaVuSans-7a" transform="translate(1843.945312 0.015625)"/>
     <use xlink:href="#DejaVuSans-6f" transform="translate(1896.435547 0.015625)"/>
     <use xlink:href="#DejaVuSans-6e" transform="translate(1957.617188 0.015625)"/>
     <use xlink:href="#DejaVuSans-74" transform="translate(2020.996094 0.015625)"/>
     <use xlink:href="#DejaVuSans-61" transform="translate(2060.205078 0.015625)"/>
     <use xlink:href="#DejaVuSans-6c" transform="translate(2121.484375 0.015625)"/>
     <use xlink:href="#DejaVuSans-6c" transform="translate(2149.267578 0.015625)"/>
     <use xlink:href="#DejaVuSans-79" transform="translate(2177.050781 0.015625)"/>
    </g>
   </g>
   <g id="line2d_70">
    <defs>
     <path id="m2add4abe0b" d="M 0 2.5 
C 0.663008 2.5 1.29895 2.236584 1.767767 1.767767 
C 2.236584 1.29895 2.5 0.663008 2.5 0 
C 2.5 -0.663008 2.236584 -1.29895 1.767767 -1.767767 
C 1.29895 -2.236584 0.663008 -2.5 0 -2.5 
C -0.663008 -2.5 -1.29895 -2.236584 -1.767767 -1.767767 
C -2.236584 -1.29895 -2.5 -0.663008 -2.5 0 
C -2.5 0.663008 -2.236584 1.29895 -1.767767 1.767767 
C -1.29895 2.236584 -0.663008 2.5 0 2.5 
z
" style="stroke: #cc7000"/>
    </defs>
    <g clip-path="url(#p8201dbd9c4)">
     <use xlink:href="#m2add4abe0b" x="563.157894" y="264.129524" style="fill: #cc7000; stroke: #cc7000"/>
    </g>
   </g>
   <g id="line2d_71">
    <defs>
     <path id="m9fac5abac2" d="M 0 2.5 
C 0.663008 2.5 1.29895 2.236584 1.767767 1.767767 
C 2.236584 1.29895 2.5 0.663008 2.5 0 
C 2.5 -0.663008 2.236584 -1.29895 1.767767 -1.767767 
C 1.29895 -2.236584 0.663008 -2.5 0 -2.5 
C -0.663008 -2.5 -1.29895 -2.236584 -1.767767 -1.767767 
C -2.236584 -1.29895 -2.5 -0.663008 -2.5 0 
C -2.5 0.663008 -2.236584 1.29895 -1.767767 1.767767 
C -1.29895 2.236584 -0.663008 2.5 0 2.5 
z
" style="stroke: #333333"/>
    </defs>
    <g clip-path="url(#p8201dbd9c4)">
     <use xlink:href="#m9fac5abac2" x="563.157894" y="276.22" style="fill: #333333; stroke: #333333"/>
    </g>
   </g>
   <g id="line2d_72">
    <defs>
     <path id="mc5c8d69365" d="M 0 3.5 
C 0.928211 3.5 1.81853 3.131218 2.474874 2.474874 
C 3.131218 1.81853 3.5 0.928211 3.5 0 
C 3.5 -0.928211 3.131218 -1.81853 2.474874 -2.474874 
C 1.81853 -3.131218 0.928211 -3.5 0 -3.5 
C -0.928211 -3.5 -1.81853 -3.131218 -2.474874 -2.474874 
C -3.131218 -1.81853 -3.5 -0.928211 -3.5 0 
C -3.5 0.928211 -3.131218 1.81853 -2.474874 2.474874 
C -1.81853 3.131218 -0.928211 3.5 0 3.5 
z
" style="stroke: #333333"/>
    </defs>
    <g clip-path="url(#p8201dbd9c4)">
     <use xlink:href="#mc5c8d69365" x="829.31489" y="264.129524" style="fill: #333333; stroke: #333333"/>
    </g>
   </g>
   <g id="line2d_73">
    <g clip-path="url(#p8201dbd9c4)">
     <use xlink:href="#m2add4abe0b" x="602.421745" y="227.858095" style="fill: #cc7000; stroke: #cc7000"/>
    </g>
   </g>
   <g id="line2d_74">
    <g clip-path="url(#p8201dbd9c4)">
     <use xlink:href="#m9fac5abac2" x="602.421745" y="276.22" style="fill: #333333; stroke: #333333"/>
    </g>
   </g>
   <g id="line2d_75">
    <g clip-path="url(#p8201dbd9c4)">
     <use xlink:href="#mc5c8d69365" x="829.31489" y="227.858095" style="fill: #333333; stroke: #333333"/>
    </g>
   </g>
   <g id="line2d_76">
    <g clip-path="url(#p8201dbd9c4)">
     <use xlink:href="#m2add4abe0b" x="624.726778" y="191.586667" style="fill: #cc7000; stroke: #cc7000"/>
    </g>
   </g>
   <g id="line2d_77">
    <g clip-path="url(#p8201dbd9c4)">
     <use xlink:href="#m9fac5abac2" x="624.726778" y="276.22" style="fill: #333333; stroke: #333333"/>
    </g>
   </g>
   <g id="line2d_78">
    <g clip-path="url(#p8201dbd9c4)">
     <use xlink:href="#mc5c8d69365" x="829.31489" y="191.586667" style="fill: #333333; stroke: #333333"/>
    </g>
   </g>
   <g id="line2d_79">
    <g clip-path="url(#p8201dbd9c4)">
     <use xlink:href="#m2add4abe0b" x="643.562131" y="155.315238" style="fill: #cc7000; stroke: #cc7000"/>
    </g>
   </g>
   <g id="line2d_80">
    <g clip-path="url(#p8201dbd9c4)">
     <use xlink:href="#m9fac5abac2" x="643.562131" y="276.22" style="fill: #333333; stroke: #333333"/>
    </g>
   </g>
   <g id="line2d_81">
    <g clip-path="url(#p8201dbd9c4)">
     <use xlink:href="#mc5c8d69365" x="829.31489" y="155.315238" style="fill: #333333; stroke: #333333"/>
    </g>
   </g>
   <g id="line2d_82">
    <g clip-path="url(#p8201dbd9c4)">
     <use xlink:href="#m2add4abe0b" x="662.397483" y="119.04381" style="fill: #cc7000; stroke: #cc7000"/>
    </g>
   </g>
   <g id="line2d_83">
    <g clip-path="url(#p8201dbd9c4)">
     <use xlink:href="#m9fac5abac2" x="662.397483" y="276.22" style="fill: #333333; stroke: #333333"/>
    </g>
   </g>
   <g id="line2d_84">
    <g clip-path="url(#p8201dbd9c4)">
     <use xlink:href="#mc5c8d69365" x="829.31489" y="119.04381" style="fill: #333333; stroke: #333333"/>
    </g>
   </g>
   <g id="line2d_85">
    <g clip-path="url(#p8201dbd9c4)">
     <use xlink:href="#m2add4abe0b" x="684.702517" y="82.772381" style="fill: #cc7000; stroke: #cc7000"/>
    </g>
   </g>
   <g id="line2d_86">
    <g clip-path="url(#p8201dbd9c4)">
     <use xlink:href="#m9fac5abac2" x="684.702517" y="276.22" style="fill: #333333; stroke: #333333"/>
    </g>
   </g>
   <g id="line2d_87">
    <g clip-path="url(#p8201dbd9c4)">
     <use xlink:href="#mc5c8d69365" x="829.31489" y="82.772381" style="fill: #333333; stroke: #333333"/>
    </g>
   </g>
   <g id="line2d_88">
    <g clip-path="url(#p8201dbd9c4)">
     <use xlink:href="#m2add4abe0b" x="723.966368" y="46.500952" style="fill: #cc7000; stroke: #cc7000"/>
    </g>
   </g>
   <g id="line2d_89">
    <g clip-path="url(#p8201dbd9c4)">
     <use xlink:href="#m9fac5abac2" x="723.966368" y="276.22" style="fill: #333333; stroke: #333333"/>
    </g>
   </g>
   <g id="line2d_90">
    <g clip-path="url(#p8201dbd9c4)">
     <use xlink:href="#mc5c8d69365" x="829.31489" y="46.500952" style="fill: #333333; stroke: #333333"/>
    </g>
   </g>
  </g>
 </g>
 <defs>
  <clipPath id="p3d36714c1f">
   <rect x="44.749063" y="22.32" width="376.39375" height="253.9"/>
  </clipPath>
  <clipPath id="p8201dbd9c4">
   <rect x="472.474062" y="22.32" width="376.39375" height="253.9"/>
  </clipPath>
 </defs>
</svg>
