<?xml version="1.0" encoding="utf-8" standalone="no"?>
<!DOCTYPE svg PUBLIC "-//W3C//DTD SVG 1.1//EN"
  "http://www.w3.org/Graphics/SVG/1.1/DTD/svg11.dtd">
<svg xmlns:xlink="http://www.w3.org/1999/xlink" width="857.07625pt" height="316.450156pt" viewBox="0 0 857.07625 316.450156" xmlns="http://www.w3.org/2000/svg" version="1.1">
 <metadata>
  <rdf:RDF xmlns:dc="http://purl.org/dc/elements/1.1/" xmlns:cc="http://creativecommons.org/ns#" xmlns:rdf="http://www.w3.org/1999/02/22-rdf-syntax-ns#">
   <cc:Work>
    <dc:type rdf:resource="http://purl.org/dc/dcmitype/StillImage"/>
    <dc:date>2026-07-23T11:06:28.958664</dc:date>
    <dc:format>image/svg+xml</dc:format>
    <dc:creator>
     <cc:Agent>
      <dc:title>Matplotlib v3.10.8, https://matplotlib.org/</dc:title>
     </cc:Agent>
    </dc:creator>
   </cc:Work>
  </rdf:RDF>
 </metadata>
 <defs>
  <style type="text/css">*{stroke-linejoin: round; stroke-linecap: butt}</style>
 </defs>
 <g id="figure_1">
  <g id="patch_1">
   <path d="M 0 316.450156 
L 857.07625 316.450156 
L 857.07625 0 
L 0 0 
z
" style="fill: #ffffff"/>
  </g>
  <g id="axes_1">
   <g id="patch_2">
    <path d="M 45.716875 276.958281 
L 421.665313 276.958281 
L 421.665313 21.558281 
L 45.716875 21.558281 
z
" style="fill: #ffffff"/>
   </g>
   <g id="FillBetweenPolyCollection_1">
    <defs>
     <path id="m4fc2a35036" d="M 45.716875 -69.538934 
L 45.716875 -69.97596 
L 46.974228 -70.013147 
L 48.23158 -70.053218 
L 49.488933 -70.096368 
L 50.746286 -70.142809 
L 52.003638 -70.192759 
L 53.260991 -70.246453 
L 54.518343 -70.304138 
L 55.775696 -70.366072 
L 57.033049 -70.432529 
L 58.290401 -70.503796 
L 59.547754 -70.580177 
L 60.805107 -70.661988 
L 62.062459 -70.749563 
L 63.319812 -70.843253 
L 64.577165 -70.943423 
L 65.834517 -71.050457 
L 67.09187 -71.164757 
L 68.349222 -71.286742 
L 69.606575 -71.41685 
L 70.863928 -71.555537 
L 72.12128 -71.70328 
L 73.378633 -71.860575 
L 74.635986 -72.027936 
L 75.893338 -72.2059 
L 77.150691 -72.395023 
L 78.408043 -72.59588 
L 79.665396 -72.809071 
L 80.922749 -73.035212 
L 82.180101 -73.274944 
L 83.437454 -73.528927 
L 84.694807 -73.79784 
L 85.952159 -74.082387 
L 87.209512 -74.383289 
L 88.466865 -74.701288 
L 89.724217 -75.037148 
L 90.98157 -75.39165 
L 92.238922 -75.765596 
L 93.496275 -76.159803 
L 94.753628 -76.575111 
L 96.01098 -77.012372 
L 97.268333 -77.472456 
L 98.525686 -77.956251 
L 99.783038 -78.464654 
L 101.040391 -78.998578 
L 102.297744 -79.558948 
L 103.555096 -80.146697 
L 104.812449 -80.762768 
L 106.069801 -81.408112 
L 107.327154 -82.083685 
L 108.584507 -82.790444 
L 109.841859 -83.529352 
L 111.099212 -84.301368 
L 112.356565 -85.10745 
L 113.613917 -85.948551 
L 114.87127 -86.825615 
L 116.128622 -87.739578 
L 117.385975 -88.691363 
L 118.643328 -89.681878 
L 119.90068 -90.712012 
L 121.158033 -91.782633 
L 122.415386 -92.894585 
L 123.672738 -94.048687 
L 124.930091 -95.245723 
L 126.187444 -96.486449 
L 127.444796 -97.771579 
L 128.702149 -99.101789 
L 129.959501 -100.477712 
L 131.216854 -101.899931 
L 132.474207 -103.368981 
L 133.731559 -104.885342 
L 134.988912 -106.449434 
L 136.246265 -108.061618 
L 137.503617 -109.722189 
L 138.76097 -111.431374 
L 140.018323 -113.189328 
L 141.275675 -114.99613 
L 142.533028 -116.851781 
L 143.79038 -118.756201 
L 145.047733 -120.709223 
L 146.305086 -122.710593 
L 147.562438 -124.759967 
L 148.819791 -126.856904 
L 150.077144 -129.000869 
L 151.334496 -131.191229 
L 152.591849 -133.427248 
L 153.849202 -135.708086 
L 155.106554 -138.032799 
L 156.363907 -140.400337 
L 157.621259 -142.809541 
L 158.878612 -145.259142 
L 160.135965 -147.747761 
L 161.393317 -150.273909 
L 162.65067 -152.835984 
L 163.908023 -155.432275 
L 165.165375 -158.060958 
L 166.422728 -160.7201 
L 167.68008 -163.407658 
L 168.937433 -166.121481 
L 170.194786 -168.859312 
L 171.452138 -171.618787 
L 172.709491 -174.397442 
L 173.966844 -177.192714 
L 175.224196 -180.001939 
L 176.481549 -182.822365 
L 177.738902 -185.651146 
L 178.996254 -188.485353 
L 180.253607 -191.321974 
L 181.510959 -194.157921 
L 182.768312 -196.990034 
L 184.025665 -199.815087 
L 185.283017 -202.629794 
L 186.54037 -205.430813 
L 187.797723 -208.214754 
L 189.055075 -210.978185 
L 190.312428 -213.717638 
L 191.569781 -216.429619 
L 192.827133 -219.11061 
L 194.084486 -221.757081 
L 195.341838 -224.365495 
L 196.599191 -226.932318 
L 197.856544 -229.454022 
L 199.113896 -231.927101 
L 200.371249 -234.34807 
L 201.628602 -236.71348 
L 202.885954 -239.019923 
L 204.143307 -241.26404 
L 205.400659 -243.44253 
L 206.658012 -245.552158 
L 207.915365 -247.589763 
L 209.172717 -249.552266 
L 210.43007 -251.436675 
L 211.687423 -253.240098 
L 212.944775 -254.959745 
L 214.202128 -256.59294 
L 215.459481 -258.137121 
L 216.716833 -259.589857 
L 217.974186 -260.948844 
L 219.231538 -262.211916 
L 220.488891 -263.377053 
L 221.746244 -264.442382 
L 223.003596 -265.406183 
L 224.260949 -266.266895 
L 225.518302 -267.023121 
L 226.775654 -267.673627 
L 228.033007 -268.217352 
L 229.29036 -268.653406 
L 230.547712 -268.981075 
L 231.805065 -269.19982 
L 233.062417 -269.309283 
L 234.31977 -269.309283 
L 235.577123 -269.19982 
L 236.834475 -268.981075 
L 238.091828 -268.653406 
L 239.349181 -268.217352 
L 240.606533 -267.673627 
L 241.863886 -267.023121 
L 243.121239 -266.266895 
L 244.378591 -265.406183 
L 245.635944 -264.442382 
L 246.893296 -263.377053 
L 248.150649 -262.211916 
L 249.408002 -260.948844 
L 250.665354 -259.589857 
L 251.922707 -258.137121 
L 253.18006 -256.59294 
L 254.437412 -254.959745 
L 255.694765 -253.240098 
L 256.952117 -251.436675 
L 258.20947 -249.552266 
L 259.466823 -247.589763 
L 260.724175 -245.552158 
L 261.981528 -243.44253 
L 263.238881 -241.26404 
L 264.496233 -239.019923 
L 265.753586 -236.71348 
L 267.010939 -234.34807 
L 268.268291 -231.927101 
L 269.525644 -229.454022 
L 270.782996 -226.932318 
L 272.040349 -224.365495 
L 273.297702 -221.757081 
L 274.555054 -219.11061 
L 275.812407 -216.429619 
L 277.06976 -213.717638 
L 278.327112 -210.978185 
L 279.584465 -208.214754 
L 280.841818 -205.430813 
L 282.09917 -202.629794 
L 283.356523 -199.815087 
L 284.613875 -196.990034 
L 285.871228 -194.157921 
L 287.128581 -191.321974 
L 288.385933 -188.485353 
L 289.643286 -185.651146 
L 290.900639 -182.822365 
L 292.157991 -180.001939 
L 293.415344 -177.192714 
L 294.672696 -174.397442 
L 295.930049 -171.618787 
L 297.187402 -168.859312 
L 298.444754 -166.121481 
L 299.702107 -163.407658 
L 300.95946 -160.7201 
L 302.216812 -158.060958 
L 303.474165 -155.432275 
L 304.731518 -152.835984 
L 305.98887 -150.273909 
L 307.246223 -147.747761 
L 308.503575 -145.259142 
L 309.760928 -142.809541 
L 311.018281 -140.400337 
L 312.275633 -138.032799 
L 313.532986 -135.708086 
L 314.790339 -133.427248 
L 316.047691 -131.191229 
L 317.305044 -129.000869 
L 318.562397 -126.856904 
L 319.819749 -124.759967 
L 321.077102 -122.710593 
L 322.334454 -120.709223 
L 323.591807 -118.756201 
L 324.84916 -116.851781 
L 326.106512 -114.99613 
L 327.363865 -113.189328 
L 328.621218 -111.431374 
L 329.87857 -109.722189 
L 331.135923 -108.061618 
L 332.393276 -106.449434 
L 333.650628 -104.885342 
L 334.907981 -103.368981 
L 336.165333 -101.899931 
L 337.422686 -100.477712 
L 338.680039 -99.101789 
L 339.937391 -97.771579 
L 341.194744 -96.486449 
L 342.452097 -95.245723 
L 343.709449 -94.048687 
L 344.966802 -92.894585 
L 346.224154 -91.782633 
L 347.481507 -90.712012 
L 348.73886 -89.681878 
L 349.996212 -88.691363 
L 351.253565 -87.739578 
L 352.510918 -86.825615 
L 353.76827 -85.948551 
L 355.025623 -85.10745 
L 356.282976 -84.301368 
L 357.540328 -83.529352 
L 358.797681 -82.790444 
L 360.055033 -82.083685 
L 361.312386 -81.408112 
L 362.569739 -80.762768 
L 363.827091 -80.146697 
L 365.084444 -79.558948 
L 366.341797 -78.998578 
L 367.599149 -78.464654 
L 368.856502 -77.956251 
L 370.113855 -77.472456 
L 371.371207 -77.012372 
L 372.62856 -76.575111 
L 373.885912 -76.159803 
L 375.143265 -75.765596 
L 376.400618 -75.39165 
L 377.65797 -75.037148 
L 378.915323 -74.701288 
L 380.172676 -74.383289 
L 381.430028 -74.082387 
L 382.687381 -73.79784 
L 383.944733 -73.528927 
L 385.202086 -73.274944 
L 386.459439 -73.035212 
L 387.716791 -72.809071 
L 388.974144 -72.59588 
L 390.231497 -72.395023 
L 391.488849 -72.2059 
L 392.746202 -72.027936 
L 394.003555 -71.860575 
L 395.260907 -71.70328 
L 396.51826 -71.555537 
L 397.775612 -71.41685 
L 399.032965 -71.286742 
L 400.290318 -71.164757 
L 401.54767 -71.050457 
L 402.805023 -70.943423 
L 404.062376 -70.843253 
L 405.319728 -70.749563 
L 406.577081 -70.661988 
L 407.834434 -70.580177 
L 409.091786 -70.503796 
L 410.349139 -70.432529 
L 411.606491 -70.366072 
L 412.863844 -70.304138 
L 414.121197 -70.246453 
L 415.378549 -70.192759 
L 416.635902 -70.142809 
L 417.893255 -70.096368 
L 419.150607 -70.053218 
L 420.40796 -70.013147 
L 421.665313 -69.97596 
L 421.665313 -69.538934 
L 421.665313 -69.538934 
L 420.40796 -69.538934 
L 419.150607 -69.538934 
L 417.893255 -69.538934 
L 416.635902 -69.538934 
L 415.378549 -69.538934 
L 414.121197 -69.538934 
L 412.863844 -69.538934 
L 411.606491 -69.538934 
L 410.349139 -69.538934 
L 409.091786 -69.538934 
L 407.834434 -69.538934 
L 406.577081 -69.538934 
L 405.319728 -69.538934 
L 404.062376 -69.538934 
L 402.805023 -69.538934 
L 401.54767 -69.538934 
L 400.290318 -69.538934 
L 399.032965 -69.538934 
L 397.775612 -69.538934 
L 396.51826 -69.538934 
L 395.260907 -69.538934 
L 394.003555 -69.538934 
L 392.746202 -69.538934 
L 391.488849 -69.538934 
L 390.231497 -69.538934 
L 388.974144 -69.538934 
L 387.716791 -69.538934 
L 386.459439 -69.538934 
L 385.202086 -69.538934 
L 383.944733 -69.538934 
L 382.687381 -69.538934 
L 381.430028 -69.538934 
L 380.172676 -69.538934 
L 378.915323 -69.538934 
L 377.65797 -69.538934 
L 376.400618 -69.538934 
L 375.143265 -69.538934 
L 373.885912 -69.538934 
L 372.62856 -69.538934 
L 371.371207 -69.538934 
L 370.113855 -69.538934 
L 368.856502 -69.538934 
L 367.599149 -69.538934 
L 366.341797 -69.538934 
L 365.084444 -69.538934 
L 363.827091 -69.538934 
L 362.569739 -69.538934 
L 361.312386 -69.538934 
L 360.055033 -69.538934 
L 358.797681 -69.538934 
L 357.540328 -69.538934 
L 356.282976 -69.538934 
L 355.025623 -69.538934 
L 353.76827 -69.538934 
L 352.510918 -69.538934 
L 351.253565 -69.538934 
L 349.996212 -69.538934 
L 348.73886 -69.538934 
L 347.481507 -69.538934 
L 346.224154 -69.538934 
L 344.966802 -69.538934 
L 343.709449 -69.538934 
L 342.452097 -69.538934 
L 341.194744 -69.538934 
L 339.937391 -69.538934 
L 338.680039 -69.538934 
L 337.422686 -69.538934 
L 336.165333 -69.538934 
L 334.907981 -69.538934 
L 333.650628 -69.538934 
L 332.393276 -69.538934 
L 331.135923 -69.538934 
L 329.87857 -69.538934 
L 328.621218 -69.538934 
L 327.363865 -69.538934 
L 326.106512 -69.538934 
L 324.84916 -69.538934 
L 323.591807 -69.538934 
L 322.334454 -69.538934 
L 321.077102 -69.538934 
L 319.819749 -69.538934 
L 318.562397 -69.538934 
L 317.305044 -69.538934 
L 316.047691 -69.538934 
L 314.790339 -69.538934 
L 313.532986 -69.538934 
L 312.275633 -69.538934 
L 311.018281 -69.538934 
L 309.760928 -69.538934 
L 308.503575 -69.538934 
L 307.246223 -69.538934 
L 305.98887 -69.538934 
L 304.731518 -69.538934 
L 303.474165 -69.538934 
L 302.216812 -69.538934 
L 300.95946 -69.538934 
L 299.702107 -69.538934 
L 298.444754 -69.538934 
L 297.187402 -69.538934 
L 295.930049 -69.538934 
L 294.672696 -69.538934 
L 293.415344 -69.538934 
L 292.157991 -69.538934 
L 290.900639 -69.538934 
L 289.643286 -69.538934 
L 288.385933 -69.538934 
L 287.128581 -69.538934 
L 285.871228 -69.538934 
L 284.613875 -69.538934 
L 283.356523 -69.538934 
L 282.09917 -69.538934 
L 280.841818 -69.538934 
L 279.584465 -69.538934 
L 278.327112 -69.538934 
L 277.06976 -69.538934 
L 275.812407 -69.538934 
L 274.555054 -69.538934 
L 273.297702 -69.538934 
L 272.040349 -69.538934 
L 270.782996 -69.538934 
L 269.525644 -69.538934 
L 268.268291 -69.538934 
L 267.010939 -69.538934 
L 265.753586 -69.538934 
L 264.496233 -69.538934 
L 263.238881 -69.538934 
L 261.981528 -69.538934 
L 260.724175 -69.538934 
L 259.466823 -69.538934 
L 258.20947 -69.538934 
L 256.952117 -69.538934 
L 255.694765 -69.538934 
L 254.437412 -69.538934 
L 253.18006 -69.538934 
L 251.922707 -69.538934 
L 250.665354 -69.538934 
L 249.408002 -69.538934 
L 248.150649 -69.538934 
L 246.893296 -69.538934 
L 245.635944 -69.538934 
L 244.378591 -69.538934 
L 243.121239 -69.538934 
L 241.863886 -69.538934 
L 240.606533 -69.538934 
L 239.349181 -69.538934 
L 238.091828 -69.538934 
L 236.834475 -69.538934 
L 235.577123 -69.538934 
L 234.31977 -69.538934 
L 233.062417 -69.538934 
L 231.805065 -69.538934 
L 230.547712 -69.538934 
L 229.29036 -69.538934 
L 228.033007 -69.538934 
L 226.775654 -69.538934 
L 225.518302 -69.538934 
L 224.260949 -69.538934 
L 223.003596 -69.538934 
L 221.746244 -69.538934 
L 220.488891 -69.538934 
L 219.231538 -69.538934 
L 217.974186 -69.538934 
L 216.716833 -69.538934 
L 215.459481 -69.538934 
L 214.202128 -69.538934 
L 212.944775 -69.538934 
L 211.687423 -69.538934 
L 210.43007 -69.538934 
L 209.172717 -69.538934 
L 207.915365 -69.538934 
L 206.658012 -69.538934 
L 205.400659 -69.538934 
L 204.143307 -69.538934 
L 202.885954 -69.538934 
L 201.628602 -69.538934 
L 200.371249 -69.538934 
L 199.113896 -69.538934 
L 197.856544 -69.538934 
L 196.599191 -69.538934 
L 195.341838 -69.538934 
L 194.084486 -69.538934 
L 192.827133 -69.538934 
L 191.569781 -69.538934 
L 190.312428 -69.538934 
L 189.055075 -69.538934 
L 187.797723 -69.538934 
L 186.54037 -69.538934 
L 185.283017 -69.538934 
L 184.025665 -69.538934 
L 182.768312 -69.538934 
L 181.510959 -69.538934 
L 180.253607 -69.538934 
L 178.996254 -69.538934 
L 177.738902 -69.538934 
L 176.481549 -69.538934 
L 175.224196 -69.538934 
L 173.966844 -69.538934 
L 172.709491 -69.538934 
L 171.452138 -69.538934 
L 170.194786 -69.538934 
L 168.937433 -69.538934 
L 167.68008 -69.538934 
L 166.422728 -69.538934 
L 165.165375 -69.538934 
L 163.908023 -69.538934 
L 162.65067 -69.538934 
L 161.393317 -69.538934 
L 160.135965 -69.538934 
L 158.878612 -69.538934 
L 157.621259 -69.538934 
L 156.363907 -69.538934 
L 155.106554 -69.538934 
L 153.849202 -69.538934 
L 152.591849 -69.538934 
L 151.334496 -69.538934 
L 150.077144 -69.538934 
L 148.819791 -69.538934 
L 147.562438 -69.538934 
L 146.305086 -69.538934 
L 145.047733 -69.538934 
L 143.79038 -69.538934 
L 142.533028 -69.538934 
L 141.275675 -69.538934 
L 140.018323 -69.538934 
L 138.76097 -69.538934 
L 137.503617 -69.538934 
L 136.246265 -69.538934 
L 134.988912 -69.538934 
L 133.731559 -69.538934 
L 132.474207 -69.538934 
L 131.216854 -69.538934 
L 129.959501 -69.538934 
L 128.702149 -69.538934 
L 127.444796 -69.538934 
L 126.187444 -69.538934 
L 124.930091 -69.538934 
L 123.672738 -69.538934 
L 122.415386 -69.538934 
L 121.158033 -69.538934 
L 119.90068 -69.538934 
L 118.643328 -69.538934 
L 117.385975 -69.538934 
L 116.128622 -69.538934 
L 114.87127 -69.538934 
L 113.613917 -69.538934 
L 112.356565 -69.538934 
L 111.099212 -69.538934 
L 109.841859 -69.538934 
L 108.584507 -69.538934 
L 107.327154 -69.538934 
L 106.069801 -69.538934 
L 104.812449 -69.538934 
L 103.555096 -69.538934 
L 102.297744 -69.538934 
L 101.040391 -69.538934 
L 99.783038 -69.538934 
L 98.525686 -69.538934 
L 97.268333 -69.538934 
L 96.01098 -69.538934 
L 94.753628 -69.538934 
L 93.496275 -69.538934 
L 92.238922 -69.538934 
L 90.98157 -69.538934 
L 89.724217 -69.538934 
L 88.466865 -69.538934 
L 87.209512 -69.538934 
L 85.952159 -69.538934 
L 84.694807 -69.538934 
L 83.437454 -69.538934 
L 82.180101 -69.538934 
L 80.922749 -69.538934 
L 79.665396 -69.538934 
L 78.408043 -69.538934 
L 77.150691 -69.538934 
L 75.893338 -69.538934 
L 74.635986 -69.538934 
L 73.378633 -69.538934 
L 72.12128 -69.538934 
L 70.863928 -69.538934 
L 69.606575 -69.538934 
L 68.349222 -69.538934 
L 67.09187 -69.538934 
L 65.834517 -69.538934 
L 64.577165 -69.538934 
L 63.319812 -69.538934 
L 62.062459 -69.538934 
L 60.805107 -69.538934 
L 59.547754 -69.538934 
L 58.290401 -69.538934 
L 57.033049 -69.538934 
L 55.775696 -69.538934 
L 54.518343 -69.538934 
L 53.260991 -69.538934 
L 52.003638 -69.538934 
L 50.746286 -69.538934 
L 49.488933 -69.538934 
L 48.23158 -69.538934 
L 46.974228 -69.538934 
L 45.716875 -69.538934 
z
" style="stroke: #4682b4; stroke-opacity: 0.15"/>
    </defs>
    <g clip-path="url(#p1860e66b35)">
     <use xlink:href="#m4fc2a35036" x="0" y="316.450156" style="fill: #4682b4; fill-opacity: 0.15; stroke: #4682b4; stroke-opacity: 0.15"/>
    </g>
   </g>
   <g id="matplotlib.axis_1">
    <g id="xtick_1">
     <g id="line2d_1">
      <path d="M 72.570335 276.958281 
L 72.570335 21.558281 
" clip-path="url(#p1860e66b35)" style="fill: none; stroke-dasharray: 2.96,1.28; stroke-dashoffset: 0; stroke: #b0b0b0; stroke-opacity: 0.4; stroke-width: 0.8"/>
     </g>
     <g id="line2d_2">
      <defs>
       <path id="m0f6a7184e1" d="M 0 0 
L 0 3.5 
" style="stroke: #000000; stroke-width: 0.8"/>
      </defs>
      <g>
       <use xlink:href="#m0f6a7184e1" x="72.570335" y="276.958281" style="stroke: #000000; stroke-width: 0.8"/>
      </g>
     </g>
     <g id="text_1">
      <!-- −3 -->
      <g transform="translate(65.199241 291.556719) scale(0.1 -0.1)">
       <defs>
        <path id="DejaVuSans-2212" d="M 678 2272 
L 4684 2272 
L 4684 1741 
L 678 1741 
L 678 2272 
z
" transform="scale(0.015625)"/>
        <path id="DejaVuSans-33" d="M 2597 2516 
Q 3050 2419 3304 2112 
Q 3559 1806 3559 1356 
Q 3559 666 3084 287 
Q 2609 -91 1734 -91 
Q 1441 -91 1130 -33 
Q 819 25 488 141 
L 488 750 
Q 750 597 1062 519 
Q 1375 441 1716 441 
Q 2309 441 2620 675 
Q 2931 909 2931 1356 
Q 2931 1769 2642 2001 
Q 2353 2234 1838 2234 
L 1294 2234 
L 1294 2753 
L 1863 2753 
Q 2328 2753 2575 2939 
Q 2822 3125 2822 3475 
Q 2822 3834 2567 4026 
Q 2313 4219 1838 4219 
Q 1578 4219 1281 4162 
Q 984 4106 628 3988 
L 628 4550 
Q 988 4650 1302 4700 
Q 1616 4750 1894 4750 
Q 2613 4750 3031 4423 
Q 3450 4097 3450 3541 
Q 3450 3153 3228 2886 
Q 3006 2619 2597 2516 
z
" transform="scale(0.015625)"/>
       </defs>
       <use xlink:href="#DejaVuSans-2212"/>
       <use xlink:href="#DejaVuSans-33" transform="translate(83.789062 0)"/>
      </g>
     </g>
    </g>
    <g id="xtick_2">
     <g id="line2d_3">
      <path d="M 126.277254 276.958281 
L 126.277254 21.558281 
" clip-path="url(#p1860e66b35)" style="fill: none; stroke-dasharray: 2.96,1.28; stroke-dashoffset: 0; stroke: #b0b0b0; stroke-opacity: 0.4; stroke-width: 0.8"/>
     </g>
     <g id="line2d_4">
      <g>
       <use xlink:href="#m0f6a7184e1" x="126.277254" y="276.958281" style="stroke: #000000; stroke-width: 0.8"/>
      </g>
     </g>
     <g id="text_2">
      <!-- −2 -->
      <g transform="translate(118.906161 291.556719) scale(0.1 -0.1)">
       <defs>
        <path id="DejaVuSans-32" d="M 1228 531 
L 3431 531 
L 3431 0 
L 469 0 
L 469 531 
Q 828 903 1448 1529 
Q 2069 2156 2228 2338 
Q 2531 2678 2651 2914 
Q 2772 3150 2772 3378 
Q 2772 3750 2511 3984 
Q 2250 4219 1831 4219 
Q 1534 4219 1204 4116 
Q 875 4013 500 3803 
L 500 4441 
Q 881 4594 1212 4672 
Q 1544 4750 1819 4750 
Q 2544 4750 2975 4387 
Q 3406 4025 3406 3419 
Q 3406 3131 3298 2873 
Q 3191 2616 2906 2266 
Q 2828 2175 2409 1742 
Q 1991 1309 1228 531 
z
" transform="scale(0.015625)"/>
       </defs>
       <use xlink:href="#DejaVuSans-2212"/>
       <use xlink:href="#DejaVuSans-32" transform="translate(83.789062 0)"/>
      </g>
     </g>
    </g>
    <g id="xtick_3">
     <g id="line2d_5">
      <path d="M 179.984174 276.958281 
L 179.984174 21.558281 
" clip-path="url(#p1860e66b35)" style="fill: none; stroke-dasharray: 2.96,1.28; stroke-dashoffset: 0; stroke: #b0b0b0; stroke-opacity: 0.4; stroke-width: 0.8"/>
     </g>
     <g id="line2d_6">
      <g>
       <use xlink:href="#m0f6a7184e1" x="179.984174" y="276.958281" style="stroke: #000000; stroke-width: 0.8"/>
      </g>
     </g>
     <g id="text_3">
      <!-- −1 -->
      <g transform="translate(172.61308 291.556719) scale(0.1 -0.1)">
       <defs>
        <path id="DejaVuSans-31" d="M 794 531 
L 1825 531 
L 1825 4091 
L 703 3866 
L 703 4441 
L 1819 4666 
L 2450 4666 
L 2450 531 
L 3481 531 
L 3481 0 
L 794 0 
L 794 531 
z
" transform="scale(0.015625)"/>
       </defs>
       <use xlink:href="#DejaVuSans-2212"/>
       <use xlink:href="#DejaVuSans-31" transform="translate(83.789062 0)"/>
      </g>
     </g>
    </g>
    <g id="xtick_4">
     <g id="line2d_7">
      <path d="M 233.691094 276.958281 
L 233.691094 21.558281 
" clip-path="url(#p1860e66b35)" style="fill: none; stroke-dasharray: 2.96,1.28; stroke-dashoffset: 0; stroke: #b0b0b0; stroke-opacity: 0.4; stroke-width: 0.8"/>
     </g>
     <g id="line2d_8">
      <g>
       <use xlink:href="#m0f6a7184e1" x="233.691094" y="276.958281" style="stroke: #000000; stroke-width: 0.8"/>
      </g>
     </g>
     <g id="text_4">
      <!-- 0 -->
      <g transform="translate(230.509844 291.556719) scale(0.1 -0.1)">
       <defs>
        <path id="DejaVuSans-30" d="M 2034 4250 
Q 1547 4250 1301 3770 
Q 1056 3291 1056 2328 
Q 1056 1369 1301 889 
Q 1547 409 2034 409 
Q 2525 409 2770 889 
Q 3016 1369 3016 2328 
Q 3016 3291 2770 3770 
Q 2525 4250 2034 4250 
z
M 2034 4750 
Q 2819 4750 3233 4129 
Q 3647 3509 3647 2328 
Q 3647 1150 3233 529 
Q 2819 -91 2034 -91 
Q 1250 -91 836 529 
Q 422 1150 422 2328 
Q 422 3509 836 4129 
Q 1250 4750 2034 4750 
z
" transform="scale(0.015625)"/>
       </defs>
       <use xlink:href="#DejaVuSans-30"/>
      </g>
     </g>
    </g>
    <g id="xtick_5">
     <g id="line2d_9">
      <path d="M 287.398013 276.958281 
L 287.398013 21.558281 
" clip-path="url(#p1860e66b35)" style="fill: none; stroke-dasharray: 2.96,1.28; stroke-dashoffset: 0; stroke: #b0b0b0; stroke-opacity: 0.4; stroke-width: 0.8"/>
     </g>
     <g id="line2d_10">
      <g>
       <use xlink:href="#m0f6a7184e1" x="287.398013" y="276.958281" style="stroke: #000000; stroke-width: 0.8"/>
      </g>
     </g>
     <g id="text_5">
      <!-- 1 -->
      <g transform="translate(284.216763 291.556719) scale(0.1 -0.1)">
       <use xlink:href="#DejaVuSans-31"/>
      </g>
     </g>
    </g>
    <g id="xtick_6">
     <g id="line2d_11">
      <path d="M 341.104933 276.958281 
L 341.104933 21.558281 
" clip-path="url(#p1860e66b35)" style="fill: none; stroke-dasharray: 2.96,1.28; stroke-dashoffset: 0; stroke: #b0b0b0; stroke-opacity: 0.4; stroke-width: 0.8"/>
     </g>
     <g id="line2d_12">
      <g>
       <use xlink:href="#m0f6a7184e1" x="341.104933" y="276.958281" style="stroke: #000000; stroke-width: 0.8"/>
      </g>
     </g>
     <g id="text_6">
      <!-- 2 -->
      <g transform="translate(337.923683 291.556719) scale(0.1 -0.1)">
       <use xlink:href="#DejaVuSans-32"/>
      </g>
     </g>
    </g>
    <g id="xtick_7">
     <g id="line2d_13">
      <path d="M 394.811853 276.958281 
L 394.811853 21.558281 
" clip-path="url(#p1860e66b35)" style="fill: none; stroke-dasharray: 2.96,1.28; stroke-dashoffset: 0; stroke: #b0b0b0; stroke-opacity: 0.4; stroke-width: 0.8"/>
     </g>
     <g id="line2d_14">
      <g>
       <use xlink:href="#m0f6a7184e1" x="394.811853" y="276.958281" style="stroke: #000000; stroke-width: 0.8"/>
      </g>
     </g>
     <g id="text_7">
      <!-- 3 -->
      <g transform="translate(391.630603 291.556719) scale(0.1 -0.1)">
       <use xlink:href="#DejaVuSans-33"/>
      </g>
     </g>
    </g>
    <g id="text_8">
     <!-- z -->
     <g transform="translate(230.542031 306.754531) scale(0.12 -0.12)">
      <defs>
       <path id="DejaVuSans-7a" d="M 353 3500 
L 3084 3500 
L 3084 2975 
L 922 459 
L 3084 459 
L 3084 0 
L 275 0 
L 275 525 
L 2438 3041 
L 353 3041 
L 353 3500 
z
" transform="scale(0.015625)"/>
      </defs>
      <use xlink:href="#DejaVuSans-7a"/>
     </g>
    </g>
   </g>
   <g id="matplotlib.axis_2">
    <g id="ytick_1">
     <g id="line2d_15">
      <path d="M 45.716875 246.911222 
L 421.665313 246.911222 
" clip-path="url(#p1860e66b35)" style="fill: none; stroke-dasharray: 2.96,1.28; stroke-dashoffset: 0; stroke: #b0b0b0; stroke-opacity: 0.4; stroke-width: 0.8"/>
     </g>
     <g id="line2d_16">
      <defs>
       <path id="mc8e4299766" d="M 0 0 
L -3.5 0 
" style="stroke: #000000; stroke-width: 0.8"/>
      </defs>
      <g>
       <use xlink:href="#mc8e4299766" x="45.716875" y="246.911222" style="stroke: #000000; stroke-width: 0.8"/>
      </g>
     </g>
     <g id="text_9">
      <!-- 0.0 -->
      <g transform="translate(22.81375 250.710441) scale(0.1 -0.1)">
       <defs>
        <path id="DejaVuSans-2e" d="M 684 794 
L 1344 794 
L 1344 0 
L 684 0 
L 684 794 
z
" transform="scale(0.015625)"/>
       </defs>
       <use xlink:href="#DejaVuSans-30"/>
       <use xlink:href="#DejaVuSans-2e" transform="translate(63.623047 0)"/>
       <use xlink:href="#DejaVuSans-30" transform="translate(95.410156 0)"/>
      </g>
     </g>
    </g>
    <g id="ytick_2">
     <g id="line2d_17">
      <path d="M 45.716875 196.832791 
L 421.665313 196.832791 
" clip-path="url(#p1860e66b35)" style="fill: none; stroke-dasharray: 2.96,1.28; stroke-dashoffset: 0; stroke: #b0b0b0; stroke-opacity: 0.4; stroke-width: 0.8"/>
     </g>
     <g id="line2d_18">
      <g>
       <use xlink:href="#mc8e4299766" x="45.716875" y="196.832791" style="stroke: #000000; stroke-width: 0.8"/>
      </g>
     </g>
     <g id="text_10">
      <!-- 0.1 -->
      <g transform="translate(22.81375 200.63201) scale(0.1 -0.1)">
       <use xlink:href="#DejaVuSans-30"/>
       <use xlink:href="#DejaVuSans-2e" transform="translate(63.623047 0)"/>
       <use xlink:href="#DejaVuSans-31" transform="translate(95.410156 0)"/>
      </g>
     </g>
    </g>
    <g id="ytick_3">
     <g id="line2d_19">
      <path d="M 45.716875 146.75436 
L 421.665313 146.75436 
" clip-path="url(#p1860e66b35)" style="fill: none; stroke-dasharray: 2.96,1.28; stroke-dashoffset: 0; stroke: #b0b0b0; stroke-opacity: 0.4; stroke-width: 0.8"/>
     </g>
     <g id="line2d_20">
      <g>
       <use xlink:href="#mc8e4299766" x="45.716875" y="146.75436" style="stroke: #000000; stroke-width: 0.8"/>
      </g>
     </g>
     <g id="text_11">
      <!-- 0.2 -->
      <g transform="translate(22.81375 150.553578) scale(0.1 -0.1)">
       <use xlink:href="#DejaVuSans-30"/>
       <use xlink:href="#DejaVuSans-2e" transform="translate(63.623047 0)"/>
       <use xlink:href="#DejaVuSans-32" transform="translate(95.410156 0)"/>
      </g>
     </g>
    </g>
    <g id="ytick_4">
     <g id="line2d_21">
      <path d="M 45.716875 96.675928 
L 421.665313 96.675928 
" clip-path="url(#p1860e66b35)" style="fill: none; stroke-dasharray: 2.96,1.28; stroke-dashoffset: 0; stroke: #b0b0b0; stroke-opacity: 0.4; stroke-width: 0.8"/>
     </g>
     <g id="line2d_22">
      <g>
       <use xlink:href="#mc8e4299766" x="45.716875" y="96.675928" style="stroke: #000000; stroke-width: 0.8"/>
      </g>
     </g>
     <g id="text_12">
      <!-- 0.3 -->
      <g transform="translate(22.81375 100.475147) scale(0.1 -0.1)">
       <use xlink:href="#DejaVuSans-30"/>
       <use xlink:href="#DejaVuSans-2e" transform="translate(63.623047 0)"/>
       <use xlink:href="#DejaVuSans-33" transform="translate(95.410156 0)"/>
      </g>
     </g>
    </g>
    <g id="ytick_5">
     <g id="line2d_23">
      <path d="M 45.716875 46.597497 
L 421.665313 46.597497 
" clip-path="url(#p1860e66b35)" style="fill: none; stroke-dasharray: 2.96,1.28; stroke-dashoffset: 0; stroke: #b0b0b0; stroke-opacity: 0.4; stroke-width: 0.8"/>
     </g>
     <g id="line2d_24">
      <g>
       <use xlink:href="#mc8e4299766" x="45.716875" y="46.597497" style="stroke: #000000; stroke-width: 0.8"/>
      </g>
     </g>
     <g id="text_13">
      <!-- 0.4 -->
      <g transform="translate(22.81375 50.396716) scale(0.1 -0.1)">
       <defs>
        <path id="DejaVuSans-34" d="M 2419 4116 
L 825 1625 
L 2419 1625 
L 2419 4116 
z
M 2253 4666 
L 3047 4666 
L 3047 1625 
L 3713 1625 
L 3713 1100 
L 3047 1100 
L 3047 0 
L 2419 0 
L 2419 1100 
L 313 1100 
L 313 1709 
L 2253 4666 
z
" transform="scale(0.015625)"/>
       </defs>
       <use xlink:href="#DejaVuSans-30"/>
       <use xlink:href="#DejaVuSans-2e" transform="translate(63.623047 0)"/>
       <use xlink:href="#DejaVuSans-34" transform="translate(95.410156 0)"/>
      </g>
     </g>
    </g>
    <g id="text_14">
     <!-- f(z) -->
     <g transform="translate(16.318125 159.201406) rotate(-90) scale(0.12 -0.12)">
      <defs>
       <path id="DejaVuSans-66" d="M 2375 4863 
L 2375 4384 
L 1825 4384 
Q 1516 4384 1395 4259 
Q 1275 4134 1275 3809 
L 1275 3500 
L 2222 3500 
L 2222 3053 
L 1275 3053 
L 1275 0 
L 697 0 
L 697 3053 
L 147 3053 
L 147 3500 
L 697 3500 
L 697 3744 
Q 697 4328 969 4595 
Q 1241 4863 1831 4863 
L 2375 4863 
z
" transform="scale(0.015625)"/>
       <path id="DejaVuSans-28" d="M 1984 4856 
Q 1566 4138 1362 3434 
Q 1159 2731 1159 2009 
Q 1159 1288 1364 580 
Q 1569 -128 1984 -844 
L 1484 -844 
Q 1016 -109 783 600 
Q 550 1309 550 2009 
Q 550 2706 781 3412 
Q 1013 4119 1484 4856 
L 1984 4856 
z
" transform="scale(0.015625)"/>
       <path id="DejaVuSans-29" d="M 513 4856 
L 1013 4856 
Q 1481 4119 1714 3412 
Q 1947 2706 1947 2009 
Q 1947 1309 1714 600 
Q 1481 -109 1013 -844 
L 513 -844 
Q 928 -128 1133 580 
Q 1338 1288 1338 2009 
Q 1338 2731 1133 3434 
Q 928 4138 513 4856 
z
" transform="scale(0.015625)"/>
      </defs>
      <use xlink:href="#DejaVuSans-66"/>
      <use xlink:href="#DejaVuSans-28" transform="translate(35.205078 0)"/>
      <use xlink:href="#DejaVuSans-7a" transform="translate(74.21875 0)"/>
      <use xlink:href="#DejaVuSans-29" transform="translate(126.708984 0)"/>
     </g>
    </g>
   </g>
   <g id="line2d_25">
    <path d="M 45.716875 246.474197 
L 55.775696 246.084084 
L 63.319812 245.606903 
L 70.863928 244.894619 
L 77.150691 244.055134 
L 82.180101 243.175212 
L 87.209512 242.066868 
L 92.238922 240.684561 
L 96.01098 239.437785 
L 99.783038 237.985502 
L 103.555096 236.30346 
L 107.327154 234.366472 
L 111.099212 232.148788 
L 114.87127 229.624541 
L 118.643328 226.768278 
L 122.415386 223.555571 
L 126.187444 219.963707 
L 129.959501 215.972445 
L 133.731559 211.564814 
L 137.503617 206.727967 
L 141.275675 201.454026 
L 145.047733 195.740933 
L 148.819791 189.593253 
L 152.591849 183.022909 
L 156.363907 176.049819 
L 161.393317 166.176248 
L 166.422728 155.730056 
L 172.709491 142.052714 
L 184.025665 116.635069 
L 190.312428 102.732518 
L 195.341838 92.084661 
L 199.113896 84.523055 
L 202.885954 77.430233 
L 206.658012 70.897998 
L 209.172717 66.89789 
L 211.687423 63.210058 
L 214.202128 59.857217 
L 216.716833 56.860299 
L 219.231538 54.23824 
L 221.746244 52.007774 
L 224.260949 50.183261 
L 226.775654 48.776529 
L 229.29036 47.79675 
L 231.805065 47.250336 
L 234.31977 47.140873 
L 236.834475 47.469081 
L 239.349181 48.232804 
L 241.863886 49.427036 
L 244.378591 51.043973 
L 246.893296 53.073103 
L 249.408002 55.501313 
L 251.922707 58.313035 
L 254.437412 61.490411 
L 256.952117 65.013481 
L 259.466823 68.860393 
L 261.981528 73.007626 
L 265.753586 79.736676 
L 269.525644 86.996134 
L 273.297702 94.693075 
L 278.327112 105.471972 
L 285.871228 122.292235 
L 297.187402 147.590845 
L 303.474165 161.017881 
L 308.503575 171.191014 
L 312.275633 178.417357 
L 316.047691 185.258927 
L 319.819749 191.69019 
L 323.591807 197.693955 
L 327.363865 203.260828 
L 331.135923 208.388538 
L 334.907981 213.081175 
L 338.680039 217.348367 
L 342.452097 221.204433 
L 346.224154 224.667523 
L 349.996212 227.758793 
L 353.76827 230.501606 
L 357.540328 232.920804 
L 361.312386 235.042044 
L 365.084444 236.891209 
L 368.856502 238.493905 
L 372.62856 239.875046 
L 376.400618 241.058506 
L 381.430028 242.367769 
L 386.459439 243.414944 
L 391.488849 244.244256 
L 397.775612 245.033307 
L 404.062376 245.606903 
L 411.606491 246.084084 
L 421.665313 246.474197 
L 421.665313 246.474197 
" clip-path="url(#p1860e66b35)" style="fill: none; stroke: #4682b4; stroke-width: 2.5; stroke-linecap: square"/>
   </g>
   <g id="line2d_26">
    <path d="M 287.398013 276.958281 
L 287.398013 21.558281 
" clip-path="url(#p1860e66b35)" style="fill: none; stroke-dasharray: 5.55,2.4; stroke-dashoffset: 0; stroke: #cc7000; stroke-opacity: 0.8; stroke-width: 1.5"/>
   </g>
   <g id="line2d_27">
    <path d="M 179.984174 276.958281 
L 179.984174 21.558281 
" clip-path="url(#p1860e66b35)" style="fill: none; stroke-dasharray: 5.55,2.4; stroke-dashoffset: 0; stroke: #cc7000; stroke-opacity: 0.8; stroke-width: 1.5"/>
   </g>
   <g id="line2d_28">
    <defs>
     <path id="ma2bb48ab46" d="M 0 4 
C 1.060812 4 2.078319 3.578535 2.828427 2.828427 
C 3.578535 2.078319 4 1.060812 4 0 
C 4 -1.060812 3.578535 -2.078319 2.828427 -2.828427 
C 2.078319 -3.578535 1.060812 -4 0 -4 
C -1.060812 -4 -2.078319 -3.578535 -2.828427 -2.828427 
C -3.578535 -2.078319 -4 -1.060812 -4 0 
C -4 1.060812 -3.578535 2.078319 -2.828427 2.828427 
C -2.078319 3.578535 -1.060812 4 0 4 
z
" style="stroke: #cc7000"/>
    </defs>
    <g clip-path="url(#p1860e66b35)">
     <use xlink:href="#ma2bb48ab46" x="179.984174" y="125.736079" style="fill: #cc7000; stroke: #cc7000"/>
     <use xlink:href="#ma2bb48ab46" x="287.398013" y="125.736079" style="fill: #cc7000; stroke: #cc7000"/>
    </g>
   </g>
   <g id="patch_3">
    <path d="M 45.716875 276.958281 
L 45.716875 21.558281 
" style="fill: none; stroke: #000000; stroke-width: 0.8; stroke-linejoin: miter; stroke-linecap: square"/>
   </g>
   <g id="patch_4">
    <path d="M 421.665313 276.958281 
L 421.665313 21.558281 
" style="fill: none; stroke: #000000; stroke-width: 0.8; stroke-linejoin: miter; stroke-linecap: square"/>
   </g>
   <g id="patch_5">
    <path d="M 45.716875 276.958281 
L 421.665313 276.958281 
" style="fill: none; stroke: #000000; stroke-width: 0.8; stroke-linejoin: miter; stroke-linecap: square"/>
   </g>
   <g id="patch_6">
    <path d="M 45.716875 21.558281 
L 421.665313 21.558281 
" style="fill: none; stroke: #000000; stroke-width: 0.8; stroke-linejoin: miter; stroke-linecap: square"/>
   </g>
   <g id="text_15">
    <!-- $-\sqrt{W}$ -->
    <g style="fill: #cc7000" transform="translate(165.244174 261.934752) scale(0.11 -0.11)">
     <defs>
      <path id="STIXSizeOneSym-Regular-221a" d="M 6970 9933 
L 3373 -1888 
L 3104 -1888 
L 1626 2918 
Q 1555 3149 1465 3251 
Q 1376 3354 1229 3354 
Q 1011 3354 794 3181 
L 717 3309 
L 1766 4115 
L 1926 4115 
L 3379 -602 
L 3405 -602 
L 6605 9933 
L 6970 9933 
z
" transform="scale(0.015625)"/>
      <path id="DejaVuSans-Oblique-57" d="M 616 4666 
L 1228 4666 
L 1453 697 
L 3213 4666 
L 3916 4666 
L 4147 697 
L 5888 4666 
L 6528 4666 
L 4453 0 
L 3659 0 
L 3444 3891 
L 1697 0 
L 903 0 
L 616 4666 
z
" transform="scale(0.015625)"/>
     </defs>
     <use xlink:href="#DejaVuSans-2212" transform="translate(0 0.578125)"/>
     <use xlink:href="#STIXSizeOneSym-Regular-221a" transform="translate(83.789062 17.09375) scale(0.563912)"/>
     <use xlink:href="#DejaVuSans-Oblique-57" transform="translate(155.877426 0.84375)"/>
     <path d="M 143.377426 97.5 
L 143.377426 103.75 
L 267.254379 103.75 
L 267.254379 97.5 
L 143.377426 97.5 
z
"/>
    </g>
   </g>
   <g id="text_16">
    <!-- $+\sqrt{W}$ -->
    <g style="fill: #cc7000" transform="translate(272.658013 261.934752) scale(0.11 -0.11)">
     <defs>
      <path id="DejaVuSans-2b" d="M 2944 4013 
L 2944 2272 
L 4684 2272 
L 4684 1741 
L 2944 1741 
L 2944 0 
L 2419 0 
L 2419 1741 
L 678 1741 
L 678 2272 
L 2419 2272 
L 2419 4013 
L 2944 4013 
z
" transform="scale(0.015625)"/>
     </defs>
     <use xlink:href="#DejaVuSans-2b" transform="translate(0 0.578125)"/>
     <use xlink:href="#STIXSizeOneSym-Regular-221a" transform="translate(83.789062 17.09375) scale(0.563912)"/>
     <use xlink:href="#DejaVuSans-Oblique-57" transform="translate(155.877426 0.84375)"/>
     <path d="M 143.377426 97.5 
L 143.377426 103.75 
L 267.254379 103.75 
L 267.254379 97.5 
L 143.377426 97.5 
z
"/>
    </g>
   </g>
   <g id="text_17">
    <!-- Standard Normal: each W maps to two z values -->
    <g style="fill: #808080" transform="translate(102.828047 15.558281) scale(0.11 -0.11)">
     <defs>
      <path id="DejaVuSans-53" d="M 3425 4513 
L 3425 3897 
Q 3066 4069 2747 4153 
Q 2428 4238 2131 4238 
Q 1616 4238 1336 4038 
Q 1056 3838 1056 3469 
Q 1056 3159 1242 3001 
Q 1428 2844 1947 2747 
L 2328 2669 
Q 3034 2534 3370 2195 
Q 3706 1856 3706 1288 
Q 3706 609 3251 259 
Q 2797 -91 1919 -91 
Q 1588 -91 1214 -16 
Q 841 59 441 206 
L 441 856 
Q 825 641 1194 531 
Q 1563 422 1919 422 
Q 2459 422 2753 634 
Q 3047 847 3047 1241 
Q 3047 1584 2836 1778 
Q 2625 1972 2144 2069 
L 1759 2144 
Q 1053 2284 737 2584 
Q 422 2884 422 3419 
Q 422 4038 858 4394 
Q 1294 4750 2059 4750 
Q 2388 4750 2728 4690 
Q 3069 4631 3425 4513 
z
" transform="scale(0.015625)"/>
      <path id="DejaVuSans-74" d="M 1172 4494 
L 1172 3500 
L 2356 3500 
L 2356 3053 
L 1172 3053 
L 1172 1153 
Q 1172 725 1289 603 
Q 1406 481 1766 481 
L 2356 481 
L 2356 0 
L 1766 0 
Q 1100 0 847 248 
Q 594 497 594 1153 
L 594 3053 
L 172 3053 
L 172 3500 
L 594 3500 
L 594 4494 
L 1172 4494 
z
" transform="scale(0.015625)"/>
      <path id="DejaVuSans-61" d="M 2194 1759 
Q 1497 1759 1228 1600 
Q 959 1441 959 1056 
Q 959 750 1161 570 
Q 1363 391 1709 391 
Q 2188 391 2477 730 
Q 2766 1069 2766 1631 
L 2766 1759 
L 2194 1759 
z
M 3341 1997 
L 3341 0 
L 2766 0 
L 2766 531 
Q 2569 213 2275 61 
Q 1981 -91 1556 -91 
Q 1019 -91 701 211 
Q 384 513 384 1019 
Q 384 1609 779 1909 
Q 1175 2209 1959 2209 
L 2766 2209 
L 2766 2266 
Q 2766 2663 2505 2880 
Q 2244 3097 1772 3097 
Q 1472 3097 1187 3025 
Q 903 2953 641 2809 
L 641 3341 
Q 956 3463 1253 3523 
Q 1550 3584 1831 3584 
Q 2591 3584 2966 3190 
Q 3341 2797 3341 1997 
z
" transform="scale(0.015625)"/>
      <path id="DejaVuSans-6e" d="M 3513 2113 
L 3513 0 
L 2938 0 
L 2938 2094 
Q 2938 2591 2744 2837 
Q 2550 3084 2163 3084 
Q 1697 3084 1428 2787 
Q 1159 2491 1159 1978 
L 1159 0 
L 581 0 
L 581 3500 
L 1159 3500 
L 1159 2956 
Q 1366 3272 1645 3428 
Q 1925 3584 2291 3584 
Q 2894 3584 3203 3211 
Q 3513 2838 3513 2113 
z
" transform="scale(0.015625)"/>
      <path id="DejaVuSans-64" d="M 2906 2969 
L 2906 4863 
L 3481 4863 
L 3481 0 
L 2906 0 
L 2906 525 
Q 2725 213 2448 61 
Q 2172 -91 1784 -91 
Q 1150 -91 751 415 
Q 353 922 353 1747 
Q 353 2572 751 3078 
Q 1150 3584 1784 3584 
Q 2172 3584 2448 3432 
Q 2725 3281 2906 2969 
z
M 947 1747 
Q 947 1113 1208 752 
Q 1469 391 1925 391 
Q 2381 391 2643 752 
Q 2906 1113 2906 1747 
Q 2906 2381 2643 2742 
Q 2381 3103 1925 3103 
Q 1469 3103 1208 2742 
Q 947 2381 947 1747 
z
" transform="scale(0.015625)"/>
      <path id="DejaVuSans-72" d="M 2631 2963 
Q 2534 3019 2420 3045 
Q 2306 3072 2169 3072 
Q 1681 3072 1420 2755 
Q 1159 2438 1159 1844 
L 1159 0 
L 581 0 
L 581 3500 
L 1159 3500 
L 1159 2956 
Q 1341 3275 1631 3429 
Q 1922 3584 2338 3584 
Q 2397 3584 2469 3576 
Q 2541 3569 2628 3553 
L 2631 2963 
z
" transform="scale(0.015625)"/>
      <path id="DejaVuSans-20" transform="scale(0.015625)"/>
      <path id="DejaVuSans-4e" d="M 628 4666 
L 1478 4666 
L 3547 763 
L 3547 4666 
L 4159 4666 
L 4159 0 
L 3309 0 
L 1241 3903 
L 1241 0 
L 628 0 
L 628 4666 
z
" transform="scale(0.015625)"/>
      <path id="DejaVuSans-6f" d="M 1959 3097 
Q 1497 3097 1228 2736 
Q 959 2375 959 1747 
Q 959 1119 1226 758 
Q 1494 397 1959 397 
Q 2419 397 2687 759 
Q 2956 1122 2956 1747 
Q 2956 2369 2687 2733 
Q 2419 3097 1959 3097 
z
M 1959 3584 
Q 2709 3584 3137 3096 
Q 3566 2609 3566 1747 
Q 3566 888 3137 398 
Q 2709 -91 1959 -91 
Q 1206 -91 779 398 
Q 353 888 353 1747 
Q 353 2609 779 3096 
Q 1206 3584 1959 3584 
z
" transform="scale(0.015625)"/>
      <path id="DejaVuSans-6d" d="M 3328 2828 
Q 3544 3216 3844 3400 
Q 4144 3584 4550 3584 
Q 5097 3584 5394 3201 
Q 5691 2819 5691 2113 
L 5691 0 
L 5113 0 
L 5113 2094 
Q 5113 2597 4934 2840 
Q 4756 3084 4391 3084 
Q 3944 3084 3684 2787 
Q 3425 2491 3425 1978 
L 3425 0 
L 2847 0 
L 2847 2094 
Q 2847 2600 2669 2842 
Q 2491 3084 2119 3084 
Q 1678 3084 1418 2786 
Q 1159 2488 1159 1978 
L 1159 0 
L 581 0 
L 581 3500 
L 1159 3500 
L 1159 2956 
Q 1356 3278 1631 3431 
Q 1906 3584 2284 3584 
Q 2666 3584 2933 3390 
Q 3200 3197 3328 2828 
z
" transform="scale(0.015625)"/>
      <path id="DejaVuSans-6c" d="M 603 4863 
L 1178 4863 
L 1178 0 
L 603 0 
L 603 4863 
z
" transform="scale(0.015625)"/>
      <path id="DejaVuSans-3a" d="M 750 794 
L 1409 794 
L 1409 0 
L 750 0 
L 750 794 
z
M 750 3309 
L 1409 3309 
L 1409 2516 
L 750 2516 
L 750 3309 
z
" transform="scale(0.015625)"/>
      <path id="DejaVuSans-65" d="M 3597 1894 
L 3597 1613 
L 953 1613 
Q 991 1019 1311 708 
Q 1631 397 2203 397 
Q 2534 397 2845 478 
Q 3156 559 3463 722 
L 3463 178 
Q 3153 47 2828 -22 
Q 2503 -91 2169 -91 
Q 1331 -91 842 396 
Q 353 884 353 1716 
Q 353 2575 817 3079 
Q 1281 3584 2069 3584 
Q 2775 3584 3186 3129 
Q 3597 2675 3597 1894 
z
M 3022 2063 
Q 3016 2534 2758 2815 
Q 2500 3097 2075 3097 
Q 1594 3097 1305 2825 
Q 1016 2553 972 2059 
L 3022 2063 
z
" transform="scale(0.015625)"/>
      <path id="DejaVuSans-63" d="M 3122 3366 
L 3122 2828 
Q 2878 2963 2633 3030 
Q 2388 3097 2138 3097 
Q 1578 3097 1268 2742 
Q 959 2388 959 1747 
Q 959 1106 1268 751 
Q 1578 397 2138 397 
Q 2388 397 2633 464 
Q 2878 531 3122 666 
L 3122 134 
Q 2881 22 2623 -34 
Q 2366 -91 2075 -91 
Q 1284 -91 818 406 
Q 353 903 353 1747 
Q 353 2603 823 3093 
Q 1294 3584 2113 3584 
Q 2378 3584 2631 3529 
Q 2884 3475 3122 3366 
z
" transform="scale(0.015625)"/>
      <path id="DejaVuSans-68" d="M 3513 2113 
L 3513 0 
L 2938 0 
L 2938 2094 
Q 2938 2591 2744 2837 
Q 2550 3084 2163 3084 
Q 1697 3084 1428 2787 
Q 1159 2491 1159 1978 
L 1159 0 
L 581 0 
L 581 4863 
L 1159 4863 
L 1159 2956 
Q 1366 3272 1645 3428 
Q 1925 3584 2291 3584 
Q 2894 3584 3203 3211 
Q 3513 2838 3513 2113 
z
" transform="scale(0.015625)"/>
      <path id="DejaVuSans-57" d="M 213 4666 
L 850 4666 
L 1831 722 
L 2809 4666 
L 3519 4666 
L 4500 722 
L 5478 4666 
L 6119 4666 
L 4947 0 
L 4153 0 
L 3169 4050 
L 2175 0 
L 1381 0 
L 213 4666 
z
" transform="scale(0.015625)"/>
      <path id="DejaVuSans-70" d="M 1159 525 
L 1159 -1331 
L 581 -1331 
L 581 3500 
L 1159 3500 
L 1159 2969 
Q 1341 3281 1617 3432 
Q 1894 3584 2278 3584 
Q 2916 3584 3314 3078 
Q 3713 2572 3713 1747 
Q 3713 922 3314 415 
Q 2916 -91 2278 -91 
Q 1894 -91 1617 61 
Q 1341 213 1159 525 
z
M 3116 1747 
Q 3116 2381 2855 2742 
Q 2594 3103 2138 3103 
Q 1681 3103 1420 2742 
Q 1159 2381 1159 1747 
Q 1159 1113 1420 752 
Q 1681 391 2138 391 
Q 2594 391 2855 752 
Q 3116 1113 3116 1747 
z
" transform="scale(0.015625)"/>
      <path id="DejaVuSans-73" d="M 2834 3397 
L 2834 2853 
Q 2591 2978 2328 3040 
Q 2066 3103 1784 3103 
Q 1356 3103 1142 2972 
Q 928 2841 928 2578 
Q 928 2378 1081 2264 
Q 1234 2150 1697 2047 
L 1894 2003 
Q 2506 1872 2764 1633 
Q 3022 1394 3022 966 
Q 3022 478 2636 193 
Q 2250 -91 1575 -91 
Q 1294 -91 989 -36 
Q 684 19 347 128 
L 347 722 
Q 666 556 975 473 
Q 1284 391 1588 391 
Q 1994 391 2212 530 
Q 2431 669 2431 922 
Q 2431 1156 2273 1281 
Q 2116 1406 1581 1522 
L 1381 1569 
Q 847 1681 609 1914 
Q 372 2147 372 2553 
Q 372 3047 722 3315 
Q 1072 3584 1716 3584 
Q 2034 3584 2315 3537 
Q 2597 3491 2834 3397 
z
" transform="scale(0.015625)"/>
      <path id="DejaVuSans-77" d="M 269 3500 
L 844 3500 
L 1563 769 
L 2278 3500 
L 2956 3500 
L 3675 769 
L 4391 3500 
L 4966 3500 
L 4050 0 
L 3372 0 
L 2619 2869 
L 1863 0 
L 1184 0 
L 269 3500 
z
" transform="scale(0.015625)"/>
      <path id="DejaVuSans-76" d="M 191 3500 
L 800 3500 
L 1894 563 
L 2988 3500 
L 3597 3500 
L 2284 0 
L 1503 0 
L 191 3500 
z
" transform="scale(0.015625)"/>
      <path id="DejaVuSans-75" d="M 544 1381 
L 544 3500 
L 1119 3500 
L 1119 1403 
Q 1119 906 1312 657 
Q 1506 409 1894 409 
Q 2359 409 2629 706 
Q 2900 1003 2900 1516 
L 2900 3500 
L 3475 3500 
L 3475 0 
L 2900 0 
L 2900 538 
Q 2691 219 2414 64 
Q 2138 -91 1772 -91 
Q 1169 -91 856 284 
Q 544 659 544 1381 
z
M 1991 3584 
L 1991 3584 
z
" transform="scale(0.015625)"/>
     </defs>
     <use xlink:href="#DejaVuSans-53"/>
     <use xlink:href="#DejaVuSans-74" transform="translate(63.476562 0)"/>
     <use xlink:href="#DejaVuSans-61" transform="translate(102.685547 0)"/>
     <use xlink:href="#DejaVuSans-6e" transform="translate(163.964844 0)"/>
     <use xlink:href="#DejaVuSans-64" transform="translate(227.34375 0)"/>
     <use xlink:href="#DejaVuSans-61" transform="translate(290.820312 0)"/>
     <use xlink:href="#DejaVuSans-72" transform="translate(352.099609 0)"/>
     <use xlink:href="#DejaVuSans-64" transform="translate(391.462891 0)"/>
     <use xlink:href="#DejaVuSans-20" transform="translate(454.939453 0)"/>
     <use xlink:href="#DejaVuSans-4e" transform="translate(486.726562 0)"/>
     <use xlink:href="#DejaVuSans-6f" transform="translate(561.53125 0)"/>
     <use xlink:href="#DejaVuSans-72" transform="translate(622.712891 0)"/>
     <use xlink:href="#DejaVuSans-6d" transform="translate(662.076172 0)"/>
     <use xlink:href="#DejaVuSans-61" transform="translate(759.488281 0)"/>
     <use xlink:href="#DejaVuSans-6c" transform="translate(820.767578 0)"/>
     <use xlink:href="#DejaVuSans-3a" transform="translate(848.550781 0)"/>
     <use xlink:href="#DejaVuSans-20" transform="translate(882.242188 0)"/>
     <use xlink:href="#DejaVuSans-65" transform="translate(914.029297 0)"/>
     <use xlink:href="#DejaVuSans-61" transform="translate(975.552734 0)"/>
     <use xlink:href="#DejaVuSans-63" transform="translate(1036.832031 0)"/>
     <use xlink:href="#DejaVuSans-68" transform="translate(1091.8125 0)"/>
     <use xlink:href="#DejaVuSans-20" transform="translate(1155.191406 0)"/>
     <use xlink:href="#DejaVuSans-57" transform="translate(1186.978516 0)"/>
     <use xlink:href="#DejaVuSans-20" transform="translate(1285.855469 0)"/>
     <use xlink:href="#DejaVuSans-6d" transform="translate(1317.642578 0)"/>
     <use xlink:href="#DejaVuSans-61" transform="translate(1415.054688 0)"/>
     <use xlink:href="#DejaVuSans-70" transform="translate(1476.333984 0)"/>
     <use xlink:href="#DejaVuSans-73" transform="translate(1539.810547 0)"/>
     <use xlink:href="#DejaVuSans-20" transform="translate(1591.910156 0)"/>
     <use xlink:href="#DejaVuSans-74" transform="translate(1623.697266 0)"/>
     <use xlink:href="#DejaVuSans-6f" transform="translate(1662.90625 0)"/>
     <use xlink:href="#DejaVuSans-20" transform="translate(1724.087891 0)"/>
     <use xlink:href="#DejaVuSans-74" transform="translate(1755.875 0)"/>
     <use xlink:href="#DejaVuSans-77" transform="translate(1795.083984 0)"/>
     <use xlink:href="#DejaVuSans-6f" transform="translate(1876.871094 0)"/>
     <use xlink:href="#DejaVuSans-20" transform="translate(1938.052734 0)"/>
     <use xlink:href="#DejaVuSans-7a" transform="translate(1969.839844 0)"/>
     <use xlink:href="#DejaVuSans-20" transform="translate(2022.330078 0)"/>
     <use xlink:href="#DejaVuSans-76" transform="translate(2054.117188 0)"/>
     <use xlink:href="#DejaVuSans-61" transform="translate(2113.296875 0)"/>
     <use xlink:href="#DejaVuSans-6c" transform="translate(2174.576172 0)"/>
     <use xlink:href="#DejaVuSans-75" transform="translate(2202.359375 0)"/>
     <use xlink:href="#DejaVuSans-65" transform="translate(2265.738281 0)"/>
     <use xlink:href="#DejaVuSans-73" transform="translate(2327.261719 0)"/>
    </g>
   </g>
  </g>
  <g id="axes_2">
   <g id="patch_7">
    <path d="M 470.746563 276.958281 
L 846.695 276.958281 
L 846.695 21.558281 
L 470.746563 21.558281 
z
" style="fill: #ffffff"/>
   </g>
   <g id="FillBetweenPolyCollection_2">
    <path d="M 471.216498 276.958281 
L 471.216498 -398.91959 
L 472.472279 -71.058314 
L 473.72806 15.703191 
L 474.983841 60.718404 
L 476.239622 89.558343 
L 477.495403 110.13398 
L 478.751184 125.81084 
L 480.006965 138.297523 
L 481.262746 148.566646 
L 482.518527 157.218451 
L 483.774307 164.64638 
L 485.030088 171.120679 
L 486.285869 176.834051 
L 487.54165 181.928184 
L 488.797431 186.509949 
L 490.053212 190.661726 
L 491.308993 194.448204 
L 492.564774 197.921008 
L 493.820555 201.121926 
L 495.076336 204.085206 
L 496.332117 206.839232 
L 497.587898 209.407764 
L 498.843679 211.81087 
L 500.09946 214.065637 
L 501.355241 216.186725 
L 502.611022 218.186795 
L 503.866803 220.076851 
L 505.122584 221.866508 
L 506.378364 223.564219 
L 507.634145 225.177445 
L 508.889926 226.712805 
L 510.145707 228.176195 
L 511.401488 229.572889 
L 512.657269 230.907619 
L 513.91305 232.18465 
L 515.168831 233.407835 
L 516.424612 234.580667 
L 517.680393 235.706322 
L 518.936174 236.787695 
L 520.191955 237.827432 
L 521.447736 238.827958 
L 522.703517 239.7915 
L 523.959298 240.720107 
L 525.215079 241.615671 
L 526.47086 242.479937 
L 527.72664 243.314525 
L 528.982421 244.120934 
L 530.238202 244.900561 
L 531.493983 245.654703 
L 532.749764 246.38457 
L 534.005545 247.091294 
L 535.261326 247.775931 
L 536.517107 248.439471 
L 537.772888 249.082842 
L 539.028669 249.706915 
L 540.28445 250.312511 
L 541.540231 250.900398 
L 542.796012 251.471306 
L 544.051793 252.025917 
L 545.307574 252.564881 
L 546.563355 253.088808 
L 547.819136 253.598277 
L 549.074917 254.093837 
L 550.330697 254.576007 
L 551.586478 255.045282 
L 552.842259 255.502128 
L 554.09804 255.946992 
L 555.353821 256.380296 
L 556.609602 256.802444 
L 557.865383 257.21382 
L 559.121164 257.614791 
L 560.376945 258.005705 
L 561.632726 258.386896 
L 562.888507 258.758683 
L 564.144288 259.121371 
L 565.400069 259.47525 
L 566.65585 259.8206 
L 567.911631 260.157688 
L 569.167412 260.48677 
L 570.423193 260.808092 
L 571.678973 261.121888 
L 572.934754 261.428385 
L 574.190535 261.727801 
L 575.446316 262.020342 
L 576.702097 262.306211 
L 577.957878 262.5856 
L 579.213659 262.858694 
L 580.46944 263.125671 
L 581.725221 263.386705 
L 582.981002 263.64196 
L 584.236783 263.891597 
L 585.492564 264.135768 
L 586.748345 264.374623 
L 588.004126 264.608305 
L 589.259907 264.836953 
L 590.515688 265.060699 
L 591.771469 265.279674 
L 593.02725 265.494 
L 594.28303 265.703801 
L 595.538811 265.90919 
L 596.794592 266.110282 
L 598.050373 266.307186 
L 599.306154 266.500007 
L 600.561935 266.688847 
L 601.817716 266.873806 
L 603.073497 267.054979 
L 604.329278 267.232459 
L 605.585059 267.406336 
L 606.84084 267.576698 
L 608.096621 267.743629 
L 609.352402 267.907211 
L 610.608183 268.067525 
L 611.863964 268.224647 
L 613.119745 268.378652 
L 614.375526 268.529614 
L 615.631306 268.677604 
L 616.887087 268.822689 
L 618.142868 268.964937 
L 619.398649 269.104413 
L 620.65443 269.24118 
L 621.910211 269.375299 
L 623.165992 269.50683 
L 624.421773 269.635831 
L 625.677554 269.762359 
L 626.933335 269.886468 
L 628.189116 270.008211 
L 629.444897 270.127642 
L 630.700678 270.24481 
L 631.956459 270.359765 
L 633.21224 270.472555 
L 634.468021 270.583226 
L 635.723802 270.691825 
L 636.979583 270.798395 
L 638.235363 270.90298 
L 639.491144 271.005622 
L 640.746925 271.106362 
L 642.002706 271.20524 
L 643.258487 271.302296 
L 644.514268 271.397566 
L 645.770049 271.49109 
L 647.02583 271.582901 
L 648.281611 271.673037 
L 649.537392 271.761532 
L 650.793173 271.848419 
L 652.048954 271.933731 
L 653.304735 272.0175 
L 654.560516 272.099757 
L 655.816297 272.180534 
L 657.072078 272.259859 
L 658.327859 272.337763 
L 659.583639 272.414272 
L 660.83942 272.489417 
L 662.095201 272.563222 
L 663.350982 272.635716 
L 664.606763 272.706923 
L 665.862544 272.77687 
L 667.118325 272.845581 
L 668.374106 272.91308 
L 669.629887 272.97939 
L 670.885668 273.044536 
L 672.141449 273.108539 
L 673.39723 273.171422 
L 674.653011 273.233207 
L 675.908792 273.293914 
L 677.164573 273.353564 
L 678.420354 273.412177 
L 679.676135 273.469774 
L 680.931916 273.526373 
L 682.187696 273.581993 
L 683.443477 273.636654 
L 684.699258 273.690372 
L 685.955039 273.743167 
L 687.21082 273.795054 
L 688.466601 273.846052 
L 689.722382 273.896177 
L 690.978163 273.945445 
L 692.233944 273.993872 
L 693.489725 274.041474 
L 694.745506 274.088265 
L 696.001287 274.134262 
L 697.257068 274.179479 
L 698.512849 274.223929 
L 699.76863 274.267627 
L 701.024411 274.310588 
L 702.280192 274.352823 
L 703.535972 274.394348 
L 704.791753 274.435173 
L 706.047534 274.475313 
L 707.303315 274.51478 
L 708.559096 274.553585 
L 709.814877 274.591741 
L 711.070658 274.629259 
L 712.326439 274.666152 
L 713.58222 274.702429 
L 714.838001 274.738103 
L 716.093782 274.773184 
L 717.349563 274.807682 
L 718.605344 274.841608 
L 719.861125 274.874972 
L 721.116906 274.907784 
L 722.372687 274.940054 
L 723.628468 274.971791 
L 724.884249 275.003006 
L 726.140029 275.033706 
L 727.39581 275.063901 
L 728.651591 275.0936 
L 729.907372 275.122812 
L 731.163153 275.151545 
L 732.418934 275.179808 
L 733.674715 275.207608 
L 734.930496 275.234954 
L 736.186277 275.261854 
L 737.442058 275.288315 
L 738.697839 275.314345 
L 739.95362 275.339952 
L 741.209401 275.365142 
L 742.465182 275.389924 
L 743.720963 275.414303 
L 744.976744 275.438288 
L 746.232525 275.461884 
L 747.488306 275.485098 
L 748.744086 275.507938 
L 749.999867 275.530409 
L 751.255648 275.552517 
L 752.511429 275.574269 
L 753.76721 275.595672 
L 755.022991 275.61673 
L 756.278772 275.637449 
L 757.534553 275.657836 
L 758.790334 275.677897 
L 760.046115 275.697635 
L 761.301896 275.717058 
L 762.557677 275.73617 
L 763.813458 275.754977 
L 765.069239 275.773483 
L 766.32502 275.791694 
L 767.580801 275.809615 
L 768.836582 275.82725 
L 770.092362 275.844605 
L 771.348143 275.861684 
L 772.603924 275.878492 
L 773.859705 275.895032 
L 775.115486 275.911311 
L 776.371267 275.927331 
L 777.627048 275.943098 
L 778.882829 275.958615 
L 780.13861 275.973886 
L 781.394391 275.988917 
L 782.650172 276.00371 
L 783.905953 276.01827 
L 785.161734 276.0326 
L 786.417515 276.046705 
L 787.673296 276.060587 
L 788.929077 276.074252 
L 790.184858 276.087701 
L 791.440639 276.100939 
L 792.696419 276.11397 
L 793.9522 276.126796 
L 795.207981 276.139421 
L 796.463762 276.151848 
L 797.719543 276.164081 
L 798.975324 276.176122 
L 800.231105 276.187975 
L 801.486886 276.199644 
L 802.742667 276.211129 
L 803.998448 276.222436 
L 805.254229 276.233567 
L 806.51001 276.244524 
L 807.765791 276.255311 
L 809.021572 276.265929 
L 810.277353 276.276383 
L 811.533134 276.286674 
L 812.788915 276.296806 
L 814.044695 276.30678 
L 815.300476 276.316599 
L 816.556257 276.326267 
L 817.812038 276.335784 
L 819.067819 276.345154 
L 820.3236 276.35438 
L 821.579381 276.363462 
L 822.835162 276.372405 
L 824.090943 276.381209 
L 825.346724 276.389877 
L 826.602505 276.398412 
L 827.858286 276.406815 
L 829.114067 276.415088 
L 830.369848 276.423234 
L 831.625629 276.431255 
L 832.88141 276.439152 
L 834.137191 276.446928 
L 835.392972 276.454584 
L 836.648752 276.462123 
L 837.904533 276.469546 
L 839.160314 276.476856 
L 840.416095 276.484053 
L 841.671876 276.49114 
L 842.927657 276.498118 
L 844.183438 276.50499 
L 845.439219 276.511756 
L 846.695 276.518419 
L 846.695 276.958281 
L 846.695 276.958281 
L 845.439219 276.958281 
L 844.183438 276.958281 
L 842.927657 276.958281 
L 841.671876 276.958281 
L 840.416095 276.958281 
L 839.160314 276.958281 
L 837.904533 276.958281 
L 836.648752 276.958281 
L 835.392972 276.958281 
L 834.137191 276.958281 
L 832.88141 276.958281 
L 831.625629 276.958281 
L 830.369848 276.958281 
L 829.114067 276.958281 
L 827.858286 276.958281 
L 826.602505 276.958281 
L 825.346724 276.958281 
L 824.090943 276.958281 
L 822.835162 276.958281 
L 821.579381 276.958281 
L 820.3236 276.958281 
L 819.067819 276.958281 
L 817.812038 276.958281 
L 816.556257 276.958281 
L 815.300476 276.958281 
L 814.044695 276.958281 
L 812.788915 276.958281 
L 811.533134 276.958281 
L 810.277353 276.958281 
L 809.021572 276.958281 
L 807.765791 276.958281 
L 806.51001 276.958281 
L 805.254229 276.958281 
L 803.998448 276.958281 
L 802.742667 276.958281 
L 801.486886 276.958281 
L 800.231105 276.958281 
L 798.975324 276.958281 
L 797.719543 276.958281 
L 796.463762 276.958281 
L 795.207981 276.958281 
L 793.9522 276.958281 
L 792.696419 276.958281 
L 791.440639 276.958281 
L 790.184858 276.958281 
L 788.929077 276.958281 
L 787.673296 276.958281 
L 786.417515 276.958281 
L 785.161734 276.958281 
L 783.905953 276.958281 
L 782.650172 276.958281 
L 781.394391 276.958281 
L 780.13861 276.958281 
L 778.882829 276.958281 
L 777.627048 276.958281 
L 776.371267 276.958281 
L 775.115486 276.958281 
L 773.859705 276.958281 
L 772.603924 276.958281 
L 771.348143 276.958281 
L 770.092362 276.958281 
L 768.836582 276.958281 
L 767.580801 276.958281 
L 766.32502 276.958281 
L 765.069239 276.958281 
L 763.813458 276.958281 
L 762.557677 276.958281 
L 761.301896 276.958281 
L 760.046115 276.958281 
L 758.790334 276.958281 
L 757.534553 276.958281 
L 756.278772 276.958281 
L 755.022991 276.958281 
L 753.76721 276.958281 
L 752.511429 276.958281 
L 751.255648 276.958281 
L 749.999867 276.958281 
L 748.744086 276.958281 
L 747.488306 276.958281 
L 746.232525 276.958281 
L 744.976744 276.958281 
L 743.720963 276.958281 
L 742.465182 276.958281 
L 741.209401 276.958281 
L 739.95362 276.958281 
L 738.697839 276.958281 
L 737.442058 276.958281 
L 736.186277 276.958281 
L 734.930496 276.958281 
L 733.674715 276.958281 
L 732.418934 276.958281 
L 731.163153 276.958281 
L 729.907372 276.958281 
L 728.651591 276.958281 
L 727.39581 276.958281 
L 726.140029 276.958281 
L 724.884249 276.958281 
L 723.628468 276.958281 
L 722.372687 276.958281 
L 721.116906 276.958281 
L 719.861125 276.958281 
L 718.605344 276.958281 
L 717.349563 276.958281 
L 716.093782 276.958281 
L 714.838001 276.958281 
L 713.58222 276.958281 
L 712.326439 276.958281 
L 711.070658 276.958281 
L 709.814877 276.958281 
L 708.559096 276.958281 
L 707.303315 276.958281 
L 706.047534 276.958281 
L 704.791753 276.958281 
L 703.535972 276.958281 
L 702.280192 276.958281 
L 701.024411 276.958281 
L 699.76863 276.958281 
L 698.512849 276.958281 
L 697.257068 276.958281 
L 696.001287 276.958281 
L 694.745506 276.958281 
L 693.489725 276.958281 
L 692.233944 276.958281 
L 690.978163 276.958281 
L 689.722382 276.958281 
L 688.466601 276.958281 
L 687.21082 276.958281 
L 685.955039 276.958281 
L 684.699258 276.958281 
L 683.443477 276.958281 
L 682.187696 276.958281 
L 680.931916 276.958281 
L 679.676135 276.958281 
L 678.420354 276.958281 
L 677.164573 276.958281 
L 675.908792 276.958281 
L 674.653011 276.958281 
L 673.39723 276.958281 
L 672.141449 276.958281 
L 670.885668 276.958281 
L 669.629887 276.958281 
L 668.374106 276.958281 
L 667.118325 276.958281 
L 665.862544 276.958281 
L 664.606763 276.958281 
L 663.350982 276.958281 
L 662.095201 276.958281 
L 660.83942 276.958281 
L 659.583639 276.958281 
L 658.327859 276.958281 
L 657.072078 276.958281 
L 655.816297 276.958281 
L 654.560516 276.958281 
L 653.304735 276.958281 
L 652.048954 276.958281 
L 650.793173 276.958281 
L 649.537392 276.958281 
L 648.281611 276.958281 
L 647.02583 276.958281 
L 645.770049 276.958281 
L 644.514268 276.958281 
L 643.258487 276.958281 
L 642.002706 276.958281 
L 640.746925 276.958281 
L 639.491144 276.958281 
L 638.235363 276.958281 
L 636.979583 276.958281 
L 635.723802 276.958281 
L 634.468021 276.958281 
L 633.21224 276.958281 
L 631.956459 276.958281 
L 630.700678 276.958281 
L 629.444897 276.958281 
L 628.189116 276.958281 
L 626.933335 276.958281 
L 625.677554 276.958281 
L 624.421773 276.958281 
L 623.165992 276.958281 
L 621.910211 276.958281 
L 620.65443 276.958281 
L 619.398649 276.958281 
L 618.142868 276.958281 
L 616.887087 276.958281 
L 615.631306 276.958281 
L 614.375526 276.958281 
L 613.119745 276.958281 
L 611.863964 276.958281 
L 610.608183 276.958281 
L 609.352402 276.958281 
L 608.096621 276.958281 
L 606.84084 276.958281 
L 605.585059 276.958281 
L 604.329278 276.958281 
L 603.073497 276.958281 
L 601.817716 276.958281 
L 600.561935 276.958281 
L 599.306154 276.958281 
L 598.050373 276.958281 
L 596.794592 276.958281 
L 595.538811 276.958281 
L 594.28303 276.958281 
L 593.02725 276.958281 
L 591.771469 276.958281 
L 590.515688 276.958281 
L 589.259907 276.958281 
L 588.004126 276.958281 
L 586.748345 276.958281 
L 585.492564 276.958281 
L 584.236783 276.958281 
L 582.981002 276.958281 
L 581.725221 276.958281 
L 580.46944 276.958281 
L 579.213659 276.958281 
L 577.957878 276.958281 
L 576.702097 276.958281 
L 575.446316 276.958281 
L 574.190535 276.958281 
L 572.934754 276.958281 
L 571.678973 276.958281 
L 570.423193 276.958281 
L 569.167412 276.958281 
L 567.911631 276.958281 
L 566.65585 276.958281 
L 565.400069 276.958281 
L 564.144288 276.958281 
L 562.888507 276.958281 
L 561.632726 276.958281 
L 560.376945 276.958281 
L 559.121164 276.958281 
L 557.865383 276.958281 
L 556.609602 276.958281 
L 555.353821 276.958281 
L 554.09804 276.958281 
L 552.842259 276.958281 
L 551.586478 276.958281 
L 550.330697 276.958281 
L 549.074917 276.958281 
L 547.819136 276.958281 
L 546.563355 276.958281 
L 545.307574 276.958281 
L 544.051793 276.958281 
L 542.796012 276.958281 
L 541.540231 276.958281 
L 540.28445 276.958281 
L 539.028669 276.958281 
L 537.772888 276.958281 
L 536.517107 276.958281 
L 535.261326 276.958281 
L 534.005545 276.958281 
L 532.749764 276.958281 
L 531.493983 276.958281 
L 530.238202 276.958281 
L 528.982421 276.958281 
L 527.72664 276.958281 
L 526.47086 276.958281 
L 525.215079 276.958281 
L 523.959298 276.958281 
L 522.703517 276.958281 
L 521.447736 276.958281 
L 520.191955 276.958281 
L 518.936174 276.958281 
L 517.680393 276.958281 
L 516.424612 276.958281 
L 515.168831 276.958281 
L 513.91305 276.958281 
L 512.657269 276.958281 
L 511.401488 276.958281 
L 510.145707 276.958281 
L 508.889926 276.958281 
L 507.634145 276.958281 
L 506.378364 276.958281 
L 505.122584 276.958281 
L 503.866803 276.958281 
L 502.611022 276.958281 
L 501.355241 276.958281 
L 500.09946 276.958281 
L 498.843679 276.958281 
L 497.587898 276.958281 
L 496.332117 276.958281 
L 495.076336 276.958281 
L 493.820555 276.958281 
L 492.564774 276.958281 
L 491.308993 276.958281 
L 490.053212 276.958281 
L 488.797431 276.958281 
L 487.54165 276.958281 
L 486.285869 276.958281 
L 485.030088 276.958281 
L 483.774307 276.958281 
L 482.518527 276.958281 
L 481.262746 276.958281 
L 480.006965 276.958281 
L 478.751184 276.958281 
L 477.495403 276.958281 
L 476.239622 276.958281 
L 474.983841 276.958281 
L 473.72806 276.958281 
L 472.472279 276.958281 
L 471.216498 276.958281 
z
" clip-path="url(#p74aa3245fb)" style="fill: #cc7000; fill-opacity: 0.15; stroke: #cc7000; stroke-opacity: 0.15"/>
   </g>
   <g id="matplotlib.axis_3">
    <g id="xtick_8">
     <g id="line2d_29">
      <path d="M 470.746563 276.958281 
L 470.746563 21.558281 
" clip-path="url(#p74aa3245fb)" style="fill: none; stroke-dasharray: 2.96,1.28; stroke-dashoffset: 0; stroke: #b0b0b0; stroke-opacity: 0.4; stroke-width: 0.8"/>
     </g>
     <g id="line2d_30">
      <g>
       <use xlink:href="#m0f6a7184e1" x="470.746563" y="276.958281" style="stroke: #000000; stroke-width: 0.8"/>
      </g>
     </g>
     <g id="text_18">
      <!-- 0 -->
      <g transform="translate(467.565313 291.556719) scale(0.1 -0.1)">
       <use xlink:href="#DejaVuSans-30"/>
      </g>
     </g>
    </g>
    <g id="xtick_9">
     <g id="line2d_31">
      <path d="M 517.740117 276.958281 
L 517.740117 21.558281 
" clip-path="url(#p74aa3245fb)" style="fill: none; stroke-dasharray: 2.96,1.28; stroke-dashoffset: 0; stroke: #b0b0b0; stroke-opacity: 0.4; stroke-width: 0.8"/>
     </g>
     <g id="line2d_32">
      <g>
       <use xlink:href="#m0f6a7184e1" x="517.740117" y="276.958281" style="stroke: #000000; stroke-width: 0.8"/>
      </g>
     </g>
     <g id="text_19">
      <!-- 1 -->
      <g transform="translate(514.558867 291.556719) scale(0.1 -0.1)">
       <use xlink:href="#DejaVuSans-31"/>
      </g>
     </g>
    </g>
    <g id="xtick_10">
     <g id="line2d_33">
      <path d="M 564.733672 276.958281 
L 564.733672 21.558281 
" clip-path="url(#p74aa3245fb)" style="fill: none; stroke-dasharray: 2.96,1.28; stroke-dashoffset: 0; stroke: #b0b0b0; stroke-opacity: 0.4; stroke-width: 0.8"/>
     </g>
     <g id="line2d_34">
      <g>
       <use xlink:href="#m0f6a7184e1" x="564.733672" y="276.958281" style="stroke: #000000; stroke-width: 0.8"/>
      </g>
     </g>
     <g id="text_20">
      <!-- 2 -->
      <g transform="translate(561.552422 291.556719) scale(0.1 -0.1)">
       <use xlink:href="#DejaVuSans-32"/>
      </g>
     </g>
    </g>
    <g id="xtick_11">
     <g id="line2d_35">
      <path d="M 611.727227 276.958281 
L 611.727227 21.558281 
" clip-path="url(#p74aa3245fb)" style="fill: none; stroke-dasharray: 2.96,1.28; stroke-dashoffset: 0; stroke: #b0b0b0; stroke-opacity: 0.4; stroke-width: 0.8"/>
     </g>
     <g id="line2d_36">
      <g>
       <use xlink:href="#m0f6a7184e1" x="611.727227" y="276.958281" style="stroke: #000000; stroke-width: 0.8"/>
      </g>
     </g>
     <g id="text_21">
      <!-- 3 -->
      <g transform="translate(608.545977 291.556719) scale(0.1 -0.1)">
       <use xlink:href="#DejaVuSans-33"/>
      </g>
     </g>
    </g>
    <g id="xtick_12">
     <g id="line2d_37">
      <path d="M 658.720781 276.958281 
L 658.720781 21.558281 
" clip-path="url(#p74aa3245fb)" style="fill: none; stroke-dasharray: 2.96,1.28; stroke-dashoffset: 0; stroke: #b0b0b0; stroke-opacity: 0.4; stroke-width: 0.8"/>
     </g>
     <g id="line2d_38">
      <g>
       <use xlink:href="#m0f6a7184e1" x="658.720781" y="276.958281" style="stroke: #000000; stroke-width: 0.8"/>
      </g>
     </g>
     <g id="text_22">
      <!-- 4 -->
      <g transform="translate(655.539531 291.556719) scale(0.1 -0.1)">
       <use xlink:href="#DejaVuSans-34"/>
      </g>
     </g>
    </g>
    <g id="xtick_13">
     <g id="line2d_39">
      <path d="M 705.714336 276.958281 
L 705.714336 21.558281 
" clip-path="url(#p74aa3245fb)" style="fill: none; stroke-dasharray: 2.96,1.28; stroke-dashoffset: 0; stroke: #b0b0b0; stroke-opacity: 0.4; stroke-width: 0.8"/>
     </g>
     <g id="line2d_40">
      <g>
       <use xlink:href="#m0f6a7184e1" x="705.714336" y="276.958281" style="stroke: #000000; stroke-width: 0.8"/>
      </g>
     </g>
     <g id="text_23">
      <!-- 5 -->
      <g transform="translate(702.533086 291.556719) scale(0.1 -0.1)">
       <defs>
        <path id="DejaVuSans-35" d="M 691 4666 
L 3169 4666 
L 3169 4134 
L 1269 4134 
L 1269 2991 
Q 1406 3038 1543 3061 
Q 1681 3084 1819 3084 
Q 2600 3084 3056 2656 
Q 3513 2228 3513 1497 
Q 3513 744 3044 326 
Q 2575 -91 1722 -91 
Q 1428 -91 1123 -41 
Q 819 9 494 109 
L 494 744 
Q 775 591 1075 516 
Q 1375 441 1709 441 
Q 2250 441 2565 725 
Q 2881 1009 2881 1497 
Q 2881 1984 2565 2268 
Q 2250 2553 1709 2553 
Q 1456 2553 1204 2497 
Q 953 2441 691 2322 
L 691 4666 
z
" transform="scale(0.015625)"/>
       </defs>
       <use xlink:href="#DejaVuSans-35"/>
      </g>
     </g>
    </g>
    <g id="xtick_14">
     <g id="line2d_41">
      <path d="M 752.707891 276.958281 
L 752.707891 21.558281 
" clip-path="url(#p74aa3245fb)" style="fill: none; stroke-dasharray: 2.96,1.28; stroke-dashoffset: 0; stroke: #b0b0b0; stroke-opacity: 0.4; stroke-width: 0.8"/>
     </g>
     <g id="line2d_42">
      <g>
       <use xlink:href="#m0f6a7184e1" x="752.707891" y="276.958281" style="stroke: #000000; stroke-width: 0.8"/>
      </g>
     </g>
     <g id="text_24">
      <!-- 6 -->
      <g transform="translate(749.526641 291.556719) scale(0.1 -0.1)">
       <defs>
        <path id="DejaVuSans-36" d="M 2113 2584 
Q 1688 2584 1439 2293 
Q 1191 2003 1191 1497 
Q 1191 994 1439 701 
Q 1688 409 2113 409 
Q 2538 409 2786 701 
Q 3034 994 3034 1497 
Q 3034 2003 2786 2293 
Q 2538 2584 2113 2584 
z
M 3366 4563 
L 3366 3988 
Q 3128 4100 2886 4159 
Q 2644 4219 2406 4219 
Q 1781 4219 1451 3797 
Q 1122 3375 1075 2522 
Q 1259 2794 1537 2939 
Q 1816 3084 2150 3084 
Q 2853 3084 3261 2657 
Q 3669 2231 3669 1497 
Q 3669 778 3244 343 
Q 2819 -91 2113 -91 
Q 1303 -91 875 529 
Q 447 1150 447 2328 
Q 447 3434 972 4092 
Q 1497 4750 2381 4750 
Q 2619 4750 2861 4703 
Q 3103 4656 3366 4563 
z
" transform="scale(0.015625)"/>
       </defs>
       <use xlink:href="#DejaVuSans-36"/>
      </g>
     </g>
    </g>
    <g id="xtick_15">
     <g id="line2d_43">
      <path d="M 799.701445 276.958281 
L 799.701445 21.558281 
" clip-path="url(#p74aa3245fb)" style="fill: none; stroke-dasharray: 2.96,1.28; stroke-dashoffset: 0; stroke: #b0b0b0; stroke-opacity: 0.4; stroke-width: 0.8"/>
     </g>
     <g id="line2d_44">
      <g>
       <use xlink:href="#m0f6a7184e1" x="799.701445" y="276.958281" style="stroke: #000000; stroke-width: 0.8"/>
      </g>
     </g>
     <g id="text_25">
      <!-- 7 -->
      <g transform="translate(796.520195 291.556719) scale(0.1 -0.1)">
       <defs>
        <path id="DejaVuSans-37" d="M 525 4666 
L 3525 4666 
L 3525 4397 
L 1831 0 
L 1172 0 
L 2766 4134 
L 525 4134 
L 525 4666 
z
" transform="scale(0.015625)"/>
       </defs>
       <use xlink:href="#DejaVuSans-37"/>
      </g>
     </g>
    </g>
    <g id="xtick_16">
     <g id="line2d_45">
      <path d="M 846.695 276.958281 
L 846.695 21.558281 
" clip-path="url(#p74aa3245fb)" style="fill: none; stroke-dasharray: 2.96,1.28; stroke-dashoffset: 0; stroke: #b0b0b0; stroke-opacity: 0.4; stroke-width: 0.8"/>
     </g>
     <g id="line2d_46">
      <g>
       <use xlink:href="#m0f6a7184e1" x="846.695" y="276.958281" style="stroke: #000000; stroke-width: 0.8"/>
      </g>
     </g>
     <g id="text_26">
      <!-- 8 -->
      <g transform="translate(843.51375 291.556719) scale(0.1 -0.1)">
       <defs>
        <path id="DejaVuSans-38" d="M 2034 2216 
Q 1584 2216 1326 1975 
Q 1069 1734 1069 1313 
Q 1069 891 1326 650 
Q 1584 409 2034 409 
Q 2484 409 2743 651 
Q 3003 894 3003 1313 
Q 3003 1734 2745 1975 
Q 2488 2216 2034 2216 
z
M 1403 2484 
Q 997 2584 770 2862 
Q 544 3141 544 3541 
Q 544 4100 942 4425 
Q 1341 4750 2034 4750 
Q 2731 4750 3128 4425 
Q 3525 4100 3525 3541 
Q 3525 3141 3298 2862 
Q 3072 2584 2669 2484 
Q 3125 2378 3379 2068 
Q 3634 1759 3634 1313 
Q 3634 634 3220 271 
Q 2806 -91 2034 -91 
Q 1263 -91 848 271 
Q 434 634 434 1313 
Q 434 1759 690 2068 
Q 947 2378 1403 2484 
z
M 1172 3481 
Q 1172 3119 1398 2916 
Q 1625 2713 2034 2713 
Q 2441 2713 2670 2916 
Q 2900 3119 2900 3481 
Q 2900 3844 2670 4047 
Q 2441 4250 2034 4250 
Q 1625 4250 1398 4047 
Q 1172 3844 1172 3481 
z
" transform="scale(0.015625)"/>
       </defs>
       <use xlink:href="#DejaVuSans-38"/>
      </g>
     </g>
    </g>
    <g id="text_27">
     <!-- w -->
     <g transform="translate(653.813906 306.754531) scale(0.12 -0.12)">
      <use xlink:href="#DejaVuSans-77"/>
     </g>
    </g>
   </g>
   <g id="matplotlib.axis_4">
    <g id="ytick_6">
     <g id="line2d_47">
      <path d="M 470.746563 276.958281 
L 846.695 276.958281 
" clip-path="url(#p74aa3245fb)" style="fill: none; stroke-dasharray: 2.96,1.28; stroke-dashoffset: 0; stroke: #b0b0b0; stroke-opacity: 0.4; stroke-width: 0.8"/>
     </g>
     <g id="line2d_48">
      <g>
       <use xlink:href="#mc8e4299766" x="470.746563" y="276.958281" style="stroke: #000000; stroke-width: 0.8"/>
      </g>
     </g>
     <g id="text_28">
      <!-- 0.0 -->
      <g transform="translate(447.843438 280.7575) scale(0.1 -0.1)">
       <use xlink:href="#DejaVuSans-30"/>
       <use xlink:href="#DejaVuSans-2e" transform="translate(63.623047 0)"/>
       <use xlink:href="#DejaVuSans-30" transform="translate(95.410156 0)"/>
      </g>
     </g>
    </g>
    <g id="ytick_7">
     <g id="line2d_49">
      <path d="M 470.746563 242.904948 
L 846.695 242.904948 
" clip-path="url(#p74aa3245fb)" style="fill: none; stroke-dasharray: 2.96,1.28; stroke-dashoffset: 0; stroke: #b0b0b0; stroke-opacity: 0.4; stroke-width: 0.8"/>
     </g>
     <g id="line2d_50">
      <g>
       <use xlink:href="#mc8e4299766" x="470.746563" y="242.904948" style="stroke: #000000; stroke-width: 0.8"/>
      </g>
     </g>
     <g id="text_29">
      <!-- 0.2 -->
      <g transform="translate(447.843438 246.704167) scale(0.1 -0.1)">
       <use xlink:href="#DejaVuSans-30"/>
       <use xlink:href="#DejaVuSans-2e" transform="translate(63.623047 0)"/>
       <use xlink:href="#DejaVuSans-32" transform="translate(95.410156 0)"/>
      </g>
     </g>
    </g>
    <g id="ytick_8">
     <g id="line2d_51">
      <path d="M 470.746563 208.851615 
L 846.695 208.851615 
" clip-path="url(#p74aa3245fb)" style="fill: none; stroke-dasharray: 2.96,1.28; stroke-dashoffset: 0; stroke: #b0b0b0; stroke-opacity: 0.4; stroke-width: 0.8"/>
     </g>
     <g id="line2d_52">
      <g>
       <use xlink:href="#mc8e4299766" x="470.746563" y="208.851615" style="stroke: #000000; stroke-width: 0.8"/>
      </g>
     </g>
     <g id="text_30">
      <!-- 0.4 -->
      <g transform="translate(447.843438 212.650833) scale(0.1 -0.1)">
       <use xlink:href="#DejaVuSans-30"/>
       <use xlink:href="#DejaVuSans-2e" transform="translate(63.623047 0)"/>
       <use xlink:href="#DejaVuSans-34" transform="translate(95.410156 0)"/>
      </g>
     </g>
    </g>
    <g id="ytick_9">
     <g id="line2d_53">
      <path d="M 470.746563 174.798281 
L 846.695 174.798281 
" clip-path="url(#p74aa3245fb)" style="fill: none; stroke-dasharray: 2.96,1.28; stroke-dashoffset: 0; stroke: #b0b0b0; stroke-opacity: 0.4; stroke-width: 0.8"/>
     </g>
     <g id="line2d_54">
      <g>
       <use xlink:href="#mc8e4299766" x="470.746563" y="174.798281" style="stroke: #000000; stroke-width: 0.8"/>
      </g>
     </g>
     <g id="text_31">
      <!-- 0.6 -->
      <g transform="translate(447.843438 178.5975) scale(0.1 -0.1)">
       <use xlink:href="#DejaVuSans-30"/>
       <use xlink:href="#DejaVuSans-2e" transform="translate(63.623047 0)"/>
       <use xlink:href="#DejaVuSans-36" transform="translate(95.410156 0)"/>
      </g>
     </g>
    </g>
    <g id="ytick_10">
     <g id="line2d_55">
      <path d="M 470.746563 140.744948 
L 846.695 140.744948 
" clip-path="url(#p74aa3245fb)" style="fill: none; stroke-dasharray: 2.96,1.28; stroke-dashoffset: 0; stroke: #b0b0b0; stroke-opacity: 0.4; stroke-width: 0.8"/>
     </g>
     <g id="line2d_56">
      <g>
       <use xlink:href="#mc8e4299766" x="470.746563" y="140.744948" style="stroke: #000000; stroke-width: 0.8"/>
      </g>
     </g>
     <g id="text_32">
      <!-- 0.8 -->
      <g transform="translate(447.843438 144.544167) scale(0.1 -0.1)">
       <use xlink:href="#DejaVuSans-30"/>
       <use xlink:href="#DejaVuSans-2e" transform="translate(63.623047 0)"/>
       <use xlink:href="#DejaVuSans-38" transform="translate(95.410156 0)"/>
      </g>
     </g>
    </g>
    <g id="ytick_11">
     <g id="line2d_57">
      <path d="M 470.746563 106.691615 
L 846.695 106.691615 
" clip-path="url(#p74aa3245fb)" style="fill: none; stroke-dasharray: 2.96,1.28; stroke-dashoffset: 0; stroke: #b0b0b0; stroke-opacity: 0.4; stroke-width: 0.8"/>
     </g>
     <g id="line2d_58">
      <g>
       <use xlink:href="#mc8e4299766" x="470.746563" y="106.691615" style="stroke: #000000; stroke-width: 0.8"/>
      </g>
     </g>
     <g id="text_33">
      <!-- 1.0 -->
      <g transform="translate(447.843438 110.490833) scale(0.1 -0.1)">
       <use xlink:href="#DejaVuSans-31"/>
       <use xlink:href="#DejaVuSans-2e" transform="translate(63.623047 0)"/>
       <use xlink:href="#DejaVuSans-30" transform="translate(95.410156 0)"/>
      </g>
     </g>
    </g>
    <g id="ytick_12">
     <g id="line2d_59">
      <path d="M 470.746563 72.638281 
L 846.695 72.638281 
" clip-path="url(#p74aa3245fb)" style="fill: none; stroke-dasharray: 2.96,1.28; stroke-dashoffset: 0; stroke: #b0b0b0; stroke-opacity: 0.4; stroke-width: 0.8"/>
     </g>
     <g id="line2d_60">
      <g>
       <use xlink:href="#mc8e4299766" x="470.746563" y="72.638281" style="stroke: #000000; stroke-width: 0.8"/>
      </g>
     </g>
     <g id="text_34">
      <!-- 1.2 -->
      <g transform="translate(447.843438 76.4375) scale(0.1 -0.1)">
       <use xlink:href="#DejaVuSans-31"/>
       <use xlink:href="#DejaVuSans-2e" transform="translate(63.623047 0)"/>
       <use xlink:href="#DejaVuSans-32" transform="translate(95.410156 0)"/>
      </g>
     </g>
    </g>
    <g id="ytick_13">
     <g id="line2d_61">
      <path d="M 470.746563 38.584948 
L 846.695 38.584948 
" clip-path="url(#p74aa3245fb)" style="fill: none; stroke-dasharray: 2.96,1.28; stroke-dashoffset: 0; stroke: #b0b0b0; stroke-opacity: 0.4; stroke-width: 0.8"/>
     </g>
     <g id="line2d_62">
      <g>
       <use xlink:href="#mc8e4299766" x="470.746563" y="38.584948" style="stroke: #000000; stroke-width: 0.8"/>
      </g>
     </g>
     <g id="text_35">
      <!-- 1.4 -->
      <g transform="translate(447.843438 42.384167) scale(0.1 -0.1)">
       <use xlink:href="#DejaVuSans-31"/>
       <use xlink:href="#DejaVuSans-2e" transform="translate(63.623047 0)"/>
       <use xlink:href="#DejaVuSans-34" transform="translate(95.410156 0)"/>
      </g>
     </g>
    </g>
    <g id="text_36">
     <!-- f(w) -->
     <g transform="translate(441.347813 160.959219) rotate(-90) scale(0.12 -0.12)">
      <use xlink:href="#DejaVuSans-66"/>
      <use xlink:href="#DejaVuSans-28" transform="translate(35.205078 0)"/>
      <use xlink:href="#DejaVuSans-77" transform="translate(74.21875 0)"/>
      <use xlink:href="#DejaVuSans-29" transform="translate(156.005859 0)"/>
     </g>
    </g>
   </g>
   <g id="line2d_63">
    <path d="M 473.486299 -1 
L 473.72806 15.703191 
L 474.983841 60.718404 
L 476.239622 89.558343 
L 477.495403 110.13398 
L 478.751184 125.81084 
L 480.006965 138.297523 
L 481.262746 148.566646 
L 482.518527 157.218451 
L 483.774307 164.64638 
L 485.030088 171.120679 
L 486.285869 176.834051 
L 487.54165 181.928184 
L 488.797431 186.509949 
L 491.308993 194.448204 
L 493.820555 201.121926 
L 496.332117 206.839232 
L 498.843679 211.81087 
L 501.355241 216.186725 
L 503.866803 220.076851 
L 506.378364 223.564219 
L 508.889926 226.712805 
L 511.401488 229.572889 
L 513.91305 232.18465 
L 517.680393 235.706322 
L 521.447736 238.827958 
L 525.215079 241.615671 
L 528.982421 244.120934 
L 532.749764 246.38457 
L 536.517107 248.439471 
L 541.540231 250.900398 
L 546.563355 253.088808 
L 551.586478 255.045282 
L 557.865383 257.21382 
L 564.144288 259.121371 
L 570.423193 260.808092 
L 577.957878 262.5856 
L 585.492564 264.135768 
L 594.28303 265.703801 
L 603.073497 267.054979 
L 613.119745 268.378652 
L 624.421773 269.635831 
L 636.979583 270.798395 
L 650.793173 271.848419 
L 665.862544 272.77687 
L 683.443477 273.636654 
L 703.535972 274.394348 
L 727.39581 275.063901 
L 756.278772 275.637449 
L 791.440639 276.100939 
L 836.648752 276.462123 
L 846.695 276.518419 
L 846.695 276.518419 
" clip-path="url(#p74aa3245fb)" style="fill: none; stroke: #cc7000; stroke-width: 2.5; stroke-linecap: square"/>
   </g>
   <g id="patch_8">
    <path d="M 470.746563 276.958281 
L 470.746563 21.558281 
" style="fill: none; stroke: #000000; stroke-width: 0.8; stroke-linejoin: miter; stroke-linecap: square"/>
   </g>
   <g id="patch_9">
    <path d="M 846.695 276.958281 
L 846.695 21.558281 
" style="fill: none; stroke: #000000; stroke-width: 0.8; stroke-linejoin: miter; stroke-linecap: square"/>
   </g>
   <g id="patch_10">
    <path d="M 470.746563 276.958281 
L 846.695 276.958281 
" style="fill: none; stroke: #000000; stroke-width: 0.8; stroke-linejoin: miter; stroke-linecap: square"/>
   </g>
   <g id="patch_11">
    <path d="M 470.746563 21.558281 
L 846.695 21.558281 
" style="fill: none; stroke: #000000; stroke-width: 0.8; stroke-linejoin: miter; stroke-linecap: square"/>
   </g>
   <g id="text_37">
    <!-- Chi-squared distribution with k = 1 -->
    <g style="fill: #808080" transform="translate(562.613438 15.558281) scale(0.11 -0.11)">
     <defs>
      <path id="DejaVuSans-43" d="M 4122 4306 
L 4122 3641 
Q 3803 3938 3442 4084 
Q 3081 4231 2675 4231 
Q 1875 4231 1450 3742 
Q 1025 3253 1025 2328 
Q 1025 1406 1450 917 
Q 1875 428 2675 428 
Q 3081 428 3442 575 
Q 3803 722 4122 1019 
L 4122 359 
Q 3791 134 3420 21 
Q 3050 -91 2638 -91 
Q 1578 -91 968 557 
Q 359 1206 359 2328 
Q 359 3453 968 4101 
Q 1578 4750 2638 4750 
Q 3056 4750 3426 4639 
Q 3797 4528 4122 4306 
z
" transform="scale(0.015625)"/>
      <path id="DejaVuSans-69" d="M 603 3500 
L 1178 3500 
L 1178 0 
L 603 0 
L 603 3500 
z
M 603 4863 
L 1178 4863 
L 1178 4134 
L 603 4134 
L 603 4863 
z
" transform="scale(0.015625)"/>
      <path id="DejaVuSans-2d" d="M 313 2009 
L 1997 2009 
L 1997 1497 
L 313 1497 
L 313 2009 
z
" transform="scale(0.015625)"/>
      <path id="DejaVuSans-71" d="M 947 1747 
Q 947 1113 1208 752 
Q 1469 391 1925 391 
Q 2381 391 2643 752 
Q 2906 1113 2906 1747 
Q 2906 2381 2643 2742 
Q 2381 3103 1925 3103 
Q 1469 3103 1208 2742 
Q 947 2381 947 1747 
z
M 2906 525 
Q 2725 213 2448 61 
Q 2172 -91 1784 -91 
Q 1150 -91 751 415 
Q 353 922 353 1747 
Q 353 2572 751 3078 
Q 1150 3584 1784 3584 
Q 2172 3584 2448 3432 
Q 2725 3281 2906 2969 
L 2906 3500 
L 3481 3500 
L 3481 -1331 
L 2906 -1331 
L 2906 525 
z
" transform="scale(0.015625)"/>
      <path id="DejaVuSans-62" d="M 3116 1747 
Q 3116 2381 2855 2742 
Q 2594 3103 2138 3103 
Q 1681 3103 1420 2742 
Q 1159 2381 1159 1747 
Q 1159 1113 1420 752 
Q 1681 391 2138 391 
Q 2594 391 2855 752 
Q 3116 1113 3116 1747 
z
M 1159 2969 
Q 1341 3281 1617 3432 
Q 1894 3584 2278 3584 
Q 2916 3584 3314 3078 
Q 3713 2572 3713 1747 
Q 3713 922 3314 415 
Q 2916 -91 2278 -91 
Q 1894 -91 1617 61 
Q 1341 213 1159 525 
L 1159 0 
L 581 0 
L 581 4863 
L 1159 4863 
L 1159 2969 
z
" transform="scale(0.015625)"/>
      <path id="DejaVuSans-6b" d="M 581 4863 
L 1159 4863 
L 1159 1991 
L 2875 3500 
L 3609 3500 
L 1753 1863 
L 3688 0 
L 2938 0 
L 1159 1709 
L 1159 0 
L 581 0 
L 581 4863 
z
" transform="scale(0.015625)"/>
      <path id="DejaVuSans-3d" d="M 678 2906 
L 4684 2906 
L 4684 2381 
L 678 2381 
L 678 2906 
z
M 678 1631 
L 4684 1631 
L 4684 1100 
L 678 1100 
L 678 1631 
z
" transform="scale(0.015625)"/>
     </defs>
     <use xlink:href="#DejaVuSans-43"/>
     <use xlink:href="#DejaVuSans-68" transform="translate(69.824219 0)"/>
     <use xlink:href="#DejaVuSans-69" transform="translate(133.203125 0)"/>
     <use xlink:href="#DejaVuSans-2d" transform="translate(160.986328 0)"/>
     <use xlink:href="#DejaVuSans-73" transform="translate(197.070312 0)"/>
     <use xlink:href="#DejaVuSans-71" transform="translate(249.169922 0)"/>
     <use xlink:href="#DejaVuSans-75" transform="translate(312.646484 0)"/>
     <use xlink:href="#DejaVuSans-61" transform="translate(376.025391 0)"/>
     <use xlink:href="#DejaVuSans-72" transform="translate(437.304688 0)"/>
     <use xlink:href="#DejaVuSans-65" transform="translate(476.167969 0)"/>
     <use xlink:href="#DejaVuSans-64" transform="translate(537.691406 0)"/>
     <use xlink:href="#DejaVuSans-20" transform="translate(601.167969 0)"/>
     <use xlink:href="#DejaVuSans-64" transform="translate(632.955078 0)"/>
     <use xlink:href="#DejaVuSans-69" transform="translate(696.431641 0)"/>
     <use xlink:href="#DejaVuSans-73" transform="translate(724.214844 0)"/>
     <use xlink:href="#DejaVuSans-74" transform="translate(776.314453 0)"/>
     <use xlink:href="#DejaVuSans-72" transform="translate(815.523438 0)"/>
     <use xlink:href="#DejaVuSans-69" transform="translate(856.636719 0)"/>
     <use xlink:href="#DejaVuSans-62" transform="translate(884.419922 0)"/>
     <use xlink:href="#DejaVuSans-75" transform="translate(947.896484 0)"/>
     <use xlink:href="#DejaVuSans-74" transform="translate(1011.275391 0)"/>
     <use xlink:href="#DejaVuSans-69" transform="translate(1050.484375 0)"/>
     <use xlink:href="#DejaVuSans-6f" transform="translate(1078.267578 0)"/>
     <use xlink:href="#DejaVuSans-6e" transform="translate(1139.449219 0)"/>
     <use xlink:href="#DejaVuSans-20" transform="translate(1202.828125 0)"/>
     <use xlink:href="#DejaVuSans-77" transform="translate(1234.615234 0)"/>
     <use xlink:href="#DejaVuSans-69" transform="translate(1316.402344 0)"/>
     <use xlink:href="#DejaVuSans-74" transform="translate(1344.185547 0)"/>
     <use xlink:href="#DejaVuSans-68" transform="translate(1383.394531 0)"/>
     <use xlink:href="#DejaVuSans-20" transform="translate(1446.773438 0)"/>
     <use xlink:href="#DejaVuSans-6b" transform="translate(1478.560547 0)"/>
     <use xlink:href="#DejaVuSans-20" transform="translate(1536.470703 0)"/>
     <use xlink:href="#DejaVuSans-3d" transform="translate(1568.257812 0)"/>
     <use xlink:href="#DejaVuSans-20" transform="translate(1652.046875 0)"/>
     <use xlink:href="#DejaVuSans-31" transform="translate(1683.833984 0)"/>
    </g>
   </g>
  </g>
 </g>
 <defs>
  <clipPath id="p1860e66b35">
   <rect x="45.716875" y="21.558281" width="375.948438" height="255.4"/>
  </clipPath>
  <clipPath id="p74aa3245fb">
   <rect x="470.746563" y="21.558281" width="375.948438" height="255.4"/>
  </clipPath>
 </defs>
</svg>
