<?xml version="1.0" encoding="utf-8" standalone="no"?>
<!DOCTYPE svg PUBLIC "-//W3C//DTD SVG 1.1//EN"
  "http://www.w3.org/Graphics/SVG/1.1/DTD/svg11.dtd">
<svg xmlns:xlink="http://www.w3.org/1999/xlink" width="567.456875pt" height="423.717187pt" viewBox="0 0 567.456875 423.717187" xmlns="http://www.w3.org/2000/svg" version="1.1">
 <metadata>
  <rdf:RDF xmlns:dc="http://purl.org/dc/elements/1.1/" xmlns:cc="http://creativecommons.org/ns#" xmlns:rdf="http://www.w3.org/1999/02/22-rdf-syntax-ns#">
   <cc:Work>
    <dc:type rdf:resource="http://purl.org/dc/dcmitype/StillImage"/>
    <dc:date>2026-07-14T10:00:09.189777</dc:date>
    <dc:format>image/svg+xml</dc:format>
    <dc:creator>
     <cc:Agent>
      <dc:title>Matplotlib v3.10.8, https://matplotlib.org/</dc:title>
     </cc:Agent>
    </dc:creator>
   </cc:Work>
  </rdf:RDF>
 </metadata>
 <defs>
  <style type="text/css">*{stroke-linejoin: round; stroke-linecap: butt}</style>
 </defs>
 <g id="figure_1">
  <g id="patch_1">
   <path d="M 0 423.717187 
L 567.456875 423.717187 
L 567.456875 0 
L 0 0 
z
" style="fill: #ffffff"/>
  </g>
  <g id="axes_1">
   <g id="patch_2">
    <path d="M 69.038125 385.193125 
L 560.256875 385.193125 
L 560.256875 22.318125 
L 69.038125 22.318125 
z
" style="fill: #ffffff"/>
   </g>
   <g id="matplotlib.axis_1">
    <g id="xtick_1">
     <g id="line2d_1">
      <path d="M 86.704522 385.193125 
L 86.704522 22.318125 
" clip-path="url(#pbb31d5f2cf)" style="fill: none; stroke-dasharray: 2.96,1.28; stroke-dashoffset: 0; stroke: #b0b0b0; stroke-opacity: 0.4; stroke-width: 0.8"/>
     </g>
     <g id="line2d_2">
      <defs>
       <path id="m381c571fd1" d="M 0 0 
L 0 3.5 
" style="stroke: #000000; stroke-width: 0.8"/>
      </defs>
      <g>
       <use xlink:href="#m381c571fd1" x="86.704522" y="385.193125" style="stroke: #000000; stroke-width: 0.8"/>
      </g>
     </g>
     <g id="text_1">
      <!-- 0 -->
      <g transform="translate(83.523272 399.791562) scale(0.1 -0.1)">
       <defs>
        <path id="DejaVuSans-30" d="M 2034 4250 
Q 1547 4250 1301 3770 
Q 1056 3291 1056 2328 
Q 1056 1369 1301 889 
Q 1547 409 2034 409 
Q 2525 409 2770 889 
Q 3016 1369 3016 2328 
Q 3016 3291 2770 3770 
Q 2525 4250 2034 4250 
z
M 2034 4750 
Q 2819 4750 3233 4129 
Q 3647 3509 3647 2328 
Q 3647 1150 3233 529 
Q 2819 -91 2034 -91 
Q 1250 -91 836 529 
Q 422 1150 422 2328 
Q 422 3509 836 4129 
Q 1250 4750 2034 4750 
z
" transform="scale(0.015625)"/>
       </defs>
       <use xlink:href="#DejaVuSans-30"/>
      </g>
     </g>
    </g>
    <g id="xtick_2">
     <g id="line2d_3">
      <path d="M 168.574314 385.193125 
L 168.574314 22.318125 
" clip-path="url(#pbb31d5f2cf)" style="fill: none; stroke-dasharray: 2.96,1.28; stroke-dashoffset: 0; stroke: #b0b0b0; stroke-opacity: 0.4; stroke-width: 0.8"/>
     </g>
     <g id="line2d_4">
      <g>
       <use xlink:href="#m381c571fd1" x="168.574314" y="385.193125" style="stroke: #000000; stroke-width: 0.8"/>
      </g>
     </g>
     <g id="text_2">
      <!-- 50 -->
      <g transform="translate(162.211814 399.791562) scale(0.1 -0.1)">
       <defs>
        <path id="DejaVuSans-35" d="M 691 4666 
L 3169 4666 
L 3169 4134 
L 1269 4134 
L 1269 2991 
Q 1406 3038 1543 3061 
Q 1681 3084 1819 3084 
Q 2600 3084 3056 2656 
Q 3513 2228 3513 1497 
Q 3513 744 3044 326 
Q 2575 -91 1722 -91 
Q 1428 -91 1123 -41 
Q 819 9 494 109 
L 494 744 
Q 775 591 1075 516 
Q 1375 441 1709 441 
Q 2250 441 2565 725 
Q 2881 1009 2881 1497 
Q 2881 1984 2565 2268 
Q 2250 2553 1709 2553 
Q 1456 2553 1204 2497 
Q 953 2441 691 2322 
L 691 4666 
z
" transform="scale(0.015625)"/>
       </defs>
       <use xlink:href="#DejaVuSans-35"/>
       <use xlink:href="#DejaVuSans-30" transform="translate(63.623047 0)"/>
      </g>
     </g>
    </g>
    <g id="xtick_3">
     <g id="line2d_5">
      <path d="M 250.444106 385.193125 
L 250.444106 22.318125 
" clip-path="url(#pbb31d5f2cf)" style="fill: none; stroke-dasharray: 2.96,1.28; stroke-dashoffset: 0; stroke: #b0b0b0; stroke-opacity: 0.4; stroke-width: 0.8"/>
     </g>
     <g id="line2d_6">
      <g>
       <use xlink:href="#m381c571fd1" x="250.444106" y="385.193125" style="stroke: #000000; stroke-width: 0.8"/>
      </g>
     </g>
     <g id="text_3">
      <!-- 100 -->
      <g transform="translate(240.900356 399.791562) scale(0.1 -0.1)">
       <defs>
        <path id="DejaVuSans-31" d="M 794 531 
L 1825 531 
L 1825 4091 
L 703 3866 
L 703 4441 
L 1819 4666 
L 2450 4666 
L 2450 531 
L 3481 531 
L 3481 0 
L 794 0 
L 794 531 
z
" transform="scale(0.015625)"/>
       </defs>
       <use xlink:href="#DejaVuSans-31"/>
       <use xlink:href="#DejaVuSans-30" transform="translate(63.623047 0)"/>
       <use xlink:href="#DejaVuSans-30" transform="translate(127.246094 0)"/>
      </g>
     </g>
    </g>
    <g id="xtick_4">
     <g id="line2d_7">
      <path d="M 332.313897 385.193125 
L 332.313897 22.318125 
" clip-path="url(#pbb31d5f2cf)" style="fill: none; stroke-dasharray: 2.96,1.28; stroke-dashoffset: 0; stroke: #b0b0b0; stroke-opacity: 0.4; stroke-width: 0.8"/>
     </g>
     <g id="line2d_8">
      <g>
       <use xlink:href="#m381c571fd1" x="332.313897" y="385.193125" style="stroke: #000000; stroke-width: 0.8"/>
      </g>
     </g>
     <g id="text_4">
      <!-- 150 -->
      <g transform="translate(322.770147 399.791562) scale(0.1 -0.1)">
       <use xlink:href="#DejaVuSans-31"/>
       <use xlink:href="#DejaVuSans-35" transform="translate(63.623047 0)"/>
       <use xlink:href="#DejaVuSans-30" transform="translate(127.246094 0)"/>
      </g>
     </g>
    </g>
    <g id="xtick_5">
     <g id="line2d_9">
      <path d="M 414.183689 385.193125 
L 414.183689 22.318125 
" clip-path="url(#pbb31d5f2cf)" style="fill: none; stroke-dasharray: 2.96,1.28; stroke-dashoffset: 0; stroke: #b0b0b0; stroke-opacity: 0.4; stroke-width: 0.8"/>
     </g>
     <g id="line2d_10">
      <g>
       <use xlink:href="#m381c571fd1" x="414.183689" y="385.193125" style="stroke: #000000; stroke-width: 0.8"/>
      </g>
     </g>
     <g id="text_5">
      <!-- 200 -->
      <g transform="translate(404.639939 399.791562) scale(0.1 -0.1)">
       <defs>
        <path id="DejaVuSans-32" d="M 1228 531 
L 3431 531 
L 3431 0 
L 469 0 
L 469 531 
Q 828 903 1448 1529 
Q 2069 2156 2228 2338 
Q 2531 2678 2651 2914 
Q 2772 3150 2772 3378 
Q 2772 3750 2511 3984 
Q 2250 4219 1831 4219 
Q 1534 4219 1204 4116 
Q 875 4013 500 3803 
L 500 4441 
Q 881 4594 1212 4672 
Q 1544 4750 1819 4750 
Q 2544 4750 2975 4387 
Q 3406 4025 3406 3419 
Q 3406 3131 3298 2873 
Q 3191 2616 2906 2266 
Q 2828 2175 2409 1742 
Q 1991 1309 1228 531 
z
" transform="scale(0.015625)"/>
       </defs>
       <use xlink:href="#DejaVuSans-32"/>
       <use xlink:href="#DejaVuSans-30" transform="translate(63.623047 0)"/>
       <use xlink:href="#DejaVuSans-30" transform="translate(127.246094 0)"/>
      </g>
     </g>
    </g>
    <g id="xtick_6">
     <g id="line2d_11">
      <path d="M 496.053481 385.193125 
L 496.053481 22.318125 
" clip-path="url(#pbb31d5f2cf)" style="fill: none; stroke-dasharray: 2.96,1.28; stroke-dashoffset: 0; stroke: #b0b0b0; stroke-opacity: 0.4; stroke-width: 0.8"/>
     </g>
     <g id="line2d_12">
      <g>
       <use xlink:href="#m381c571fd1" x="496.053481" y="385.193125" style="stroke: #000000; stroke-width: 0.8"/>
      </g>
     </g>
     <g id="text_6">
      <!-- 250 -->
      <g transform="translate(486.509731 399.791562) scale(0.1 -0.1)">
       <use xlink:href="#DejaVuSans-32"/>
       <use xlink:href="#DejaVuSans-35" transform="translate(63.623047 0)"/>
       <use xlink:href="#DejaVuSans-30" transform="translate(127.246094 0)"/>
      </g>
     </g>
    </g>
    <g id="text_7">
     <!-- $w_1$ -->
     <g transform="translate(307.4975 414.229531) scale(0.11 -0.11)">
      <defs>
       <path id="DejaVuSans-Oblique-77" d="M 544 3500 
L 1113 3500 
L 1259 684 
L 2566 3500 
L 3231 3500 
L 3425 684 
L 4666 3500 
L 5241 3500 
L 3641 0 
L 2969 0 
L 2797 2900 
L 1459 0 
L 781 0 
L 544 3500 
z
" transform="scale(0.015625)"/>
      </defs>
      <use xlink:href="#DejaVuSans-Oblique-77" transform="translate(0 0.3125)"/>
      <use xlink:href="#DejaVuSans-31" transform="translate(81.787109 -16.09375) scale(0.7)"/>
     </g>
    </g>
   </g>
   <g id="matplotlib.axis_2">
    <g id="ytick_1">
     <g id="line2d_13">
      <path d="M 69.038125 374.03443 
L 560.256875 374.03443 
" clip-path="url(#pbb31d5f2cf)" style="fill: none; stroke-dasharray: 2.96,1.28; stroke-dashoffset: 0; stroke: #b0b0b0; stroke-opacity: 0.4; stroke-width: 0.8"/>
     </g>
     <g id="line2d_14">
      <defs>
       <path id="m809c11b998" d="M 0 0 
L -3.5 0 
" style="stroke: #000000; stroke-width: 0.8"/>
      </defs>
      <g>
       <use xlink:href="#m809c11b998" x="69.038125" y="374.03443" style="stroke: #000000; stroke-width: 0.8"/>
      </g>
     </g>
     <g id="text_8">
      <!-- −20000 -->
      <g transform="translate(21.845938 377.833649) scale(0.1 -0.1)">
       <defs>
        <path id="DejaVuSans-2212" d="M 678 2272 
L 4684 2272 
L 4684 1741 
L 678 1741 
L 678 2272 
z
" transform="scale(0.015625)"/>
       </defs>
       <use xlink:href="#DejaVuSans-2212"/>
       <use xlink:href="#DejaVuSans-32" transform="translate(83.789062 0)"/>
       <use xlink:href="#DejaVuSans-30" transform="translate(147.412109 0)"/>
       <use xlink:href="#DejaVuSans-30" transform="translate(211.035156 0)"/>
       <use xlink:href="#DejaVuSans-30" transform="translate(274.658203 0)"/>
       <use xlink:href="#DejaVuSans-30" transform="translate(338.28125 0)"/>
      </g>
     </g>
    </g>
    <g id="ytick_2">
     <g id="line2d_15">
      <path d="M 69.038125 298.435471 
L 560.256875 298.435471 
" clip-path="url(#pbb31d5f2cf)" style="fill: none; stroke-dasharray: 2.96,1.28; stroke-dashoffset: 0; stroke: #b0b0b0; stroke-opacity: 0.4; stroke-width: 0.8"/>
     </g>
     <g id="line2d_16">
      <g>
       <use xlink:href="#m809c11b998" x="69.038125" y="298.435471" style="stroke: #000000; stroke-width: 0.8"/>
      </g>
     </g>
     <g id="text_9">
      <!-- −15000 -->
      <g transform="translate(21.845938 302.23469) scale(0.1 -0.1)">
       <use xlink:href="#DejaVuSans-2212"/>
       <use xlink:href="#DejaVuSans-31" transform="translate(83.789062 0)"/>
       <use xlink:href="#DejaVuSans-35" transform="translate(147.412109 0)"/>
       <use xlink:href="#DejaVuSans-30" transform="translate(211.035156 0)"/>
       <use xlink:href="#DejaVuSans-30" transform="translate(274.658203 0)"/>
       <use xlink:href="#DejaVuSans-30" transform="translate(338.28125 0)"/>
      </g>
     </g>
    </g>
    <g id="ytick_3">
     <g id="line2d_17">
      <path d="M 69.038125 222.836513 
L 560.256875 222.836513 
" clip-path="url(#pbb31d5f2cf)" style="fill: none; stroke-dasharray: 2.96,1.28; stroke-dashoffset: 0; stroke: #b0b0b0; stroke-opacity: 0.4; stroke-width: 0.8"/>
     </g>
     <g id="line2d_18">
      <g>
       <use xlink:href="#m809c11b998" x="69.038125" y="222.836513" style="stroke: #000000; stroke-width: 0.8"/>
      </g>
     </g>
     <g id="text_10">
      <!-- −10000 -->
      <g transform="translate(21.845938 226.635732) scale(0.1 -0.1)">
       <use xlink:href="#DejaVuSans-2212"/>
       <use xlink:href="#DejaVuSans-31" transform="translate(83.789062 0)"/>
       <use xlink:href="#DejaVuSans-30" transform="translate(147.412109 0)"/>
       <use xlink:href="#DejaVuSans-30" transform="translate(211.035156 0)"/>
       <use xlink:href="#DejaVuSans-30" transform="translate(274.658203 0)"/>
       <use xlink:href="#DejaVuSans-30" transform="translate(338.28125 0)"/>
      </g>
     </g>
    </g>
    <g id="ytick_4">
     <g id="line2d_19">
      <path d="M 69.038125 147.237555 
L 560.256875 147.237555 
" clip-path="url(#pbb31d5f2cf)" style="fill: none; stroke-dasharray: 2.96,1.28; stroke-dashoffset: 0; stroke: #b0b0b0; stroke-opacity: 0.4; stroke-width: 0.8"/>
     </g>
     <g id="line2d_20">
      <g>
       <use xlink:href="#m809c11b998" x="69.038125" y="147.237555" style="stroke: #000000; stroke-width: 0.8"/>
      </g>
     </g>
     <g id="text_11">
      <!-- −5000 -->
      <g transform="translate(28.208438 151.036774) scale(0.1 -0.1)">
       <use xlink:href="#DejaVuSans-2212"/>
       <use xlink:href="#DejaVuSans-35" transform="translate(83.789062 0)"/>
       <use xlink:href="#DejaVuSans-30" transform="translate(147.412109 0)"/>
       <use xlink:href="#DejaVuSans-30" transform="translate(211.035156 0)"/>
       <use xlink:href="#DejaVuSans-30" transform="translate(274.658203 0)"/>
      </g>
     </g>
    </g>
    <g id="ytick_5">
     <g id="line2d_21">
      <path d="M 69.038125 71.638596 
L 560.256875 71.638596 
" clip-path="url(#pbb31d5f2cf)" style="fill: none; stroke-dasharray: 2.96,1.28; stroke-dashoffset: 0; stroke: #b0b0b0; stroke-opacity: 0.4; stroke-width: 0.8"/>
     </g>
     <g id="line2d_22">
      <g>
       <use xlink:href="#m809c11b998" x="69.038125" y="71.638596" style="stroke: #000000; stroke-width: 0.8"/>
      </g>
     </g>
     <g id="text_12">
      <!-- 0 -->
      <g transform="translate(55.675625 75.437815) scale(0.1 -0.1)">
       <use xlink:href="#DejaVuSans-30"/>
      </g>
     </g>
    </g>
    <g id="text_13">
     <!-- $w_2$ -->
     <g transform="translate(15.558281 210.905625) rotate(-90) scale(0.11 -0.11)">
      <use xlink:href="#DejaVuSans-Oblique-77" transform="translate(0 0.3125)"/>
      <use xlink:href="#DejaVuSans-32" transform="translate(81.787109 -16.09375) scale(0.7)"/>
     </g>
    </g>
   </g>
   <g id="QuadContourSet_1">
    <path d="M 313.826064 199.507924 
L 313.826064 199.507924 
L 313.826064 199.507924 
L 313.826064 199.507924 
L 313.826064 199.507924 
z
" clip-path="url(#pbb31d5f2cf)" style="fill: none; stroke: #440154; stroke-opacity: 0.85; stroke-width: 1.5"/>
    <path d="M 283.554329 385.193125 
L 271.11139 308.589803 
L 250.23571 176.448978 
L 242.375003 125.47657 
L 231.68246 55.033441 
L 226.79067 22.318125 
M 345.740671 22.318125 
L 358.18361 98.921447 
L 379.05929 231.062272 
L 386.919997 282.03468 
L 397.61254 352.477809 
L 402.50433 385.193125 
L 402.50433 385.193125 
" clip-path="url(#pbb31d5f2cf)" style="fill: none; stroke: #481c6e; stroke-opacity: 0.85; stroke-width: 1.5"/>
    <path d="M 258.431725 385.193125 
L 248.28197 322.084429 
L 239.896821 269.389778 
L 217.416765 125.47657 
L 207.006279 57.513359 
L 201.673007 22.318125 
M 370.863275 22.318125 
L 381.01303 85.426821 
L 389.398179 138.121472 
L 411.878235 282.03468 
L 422.288721 349.997891 
L 427.621993 385.193125 
L 427.621993 385.193125 
" clip-path="url(#pbb31d5f2cf)" style="fill: none; stroke: #453581; stroke-opacity: 0.85; stroke-width: 1.5"/>
    <path d="M 239.221896 385.193125 
L 223.14997 284.461938 
L 203.355291 158.244546 
L 185.050606 39.308928 
L 182.460631 22.318125 
M 390.073104 22.318125 
L 406.14503 123.049312 
L 425.939709 249.266704 
L 444.244394 368.202322 
L 446.834369 385.193125 
L 446.834369 385.193125 
" clip-path="url(#pbb31d5f2cf)" style="fill: none; stroke: #3d4d8a; stroke-opacity: 0.85; stroke-width: 1.5"/>
    <path d="M 223.048317 385.193125 
L 203.189374 260.189362 
L 185.158495 144.89463 
L 167.031481 27.17264 
L 166.289342 22.318125 
M 406.246683 22.318125 
L 426.105626 147.321888 
L 444.136505 262.61662 
L 462.263519 380.33861 
L 463.005658 385.193125 
L 463.005658 385.193125 
" clip-path="url(#pbb31d5f2cf)" style="fill: none; stroke: #34618d; stroke-opacity: 0.85; stroke-width: 1.5"/>
    <path d="M 208.809082 385.193125 
L 197.182147 312.113501 
L 171.329466 147.321888 
L 158.383694 63.581503 
L 152.052263 22.318125 
M 420.485918 22.318125 
L 432.112853 95.397749 
L 457.965534 260.189362 
L 470.911306 343.929747 
L 477.242737 385.193125 
L 477.242737 385.193125 
" clip-path="url(#pbb31d5f2cf)" style="fill: none; stroke: #2b748e; stroke-opacity: 0.85; stroke-width: 1.5"/>
    <path d="M 195.944084 385.193125 
L 182.073315 297.811854 
L 159.396089 153.177137 
L 139.185707 22.318125 
M 433.350916 22.318125 
L 447.221685 109.699396 
L 469.898911 254.334113 
L 490.109293 385.193125 
L 490.109293 385.193125 
" clip-path="url(#pbb31d5f2cf)" style="fill: none; stroke: #24878e; stroke-opacity: 0.85; stroke-width: 1.5"/>
    <path d="M 184.115044 385.193125 
L 171.218907 303.879998 
L 157.474256 216.498727 
L 133.895963 64.795132 
L 127.358187 22.318125 
M 445.179956 22.318125 
L 458.076093 103.631252 
L 471.820744 191.012523 
L 495.399037 342.716118 
L 501.936813 385.193125 
L 501.936813 385.193125 
" clip-path="url(#pbb31d5f2cf)" style="fill: none; stroke: #1f998a; stroke-opacity: 0.85; stroke-width: 1.5"/>
    <path d="M 173.110081 385.193125 
L 156.779324 282.03468 
L 139.466815 171.594463 
L 116.35095 22.318125 
M 456.184919 22.318125 
L 472.515676 125.47657 
L 489.828185 235.916787 
L 512.94405 385.193125 
L 512.94405 385.193125 
" clip-path="url(#pbb31d5f2cf)" style="fill: none; stroke: #25ac82; stroke-opacity: 0.85; stroke-width: 1.5"/>
    <path d="M 162.77309 385.193125 
L 148.74996 296.598225 
L 129.334518 172.808092 
L 106.948856 28.386269 
L 106.015961 22.318125 
M 466.52191 22.318125 
L 480.54504 110.913025 
L 499.960482 234.703158 
L 522.346144 379.124981 
L 523.279039 385.193125 
L 523.279039 385.193125 
" clip-path="url(#pbb31d5f2cf)" style="fill: none; stroke: #40bd72; stroke-opacity: 0.85; stroke-width: 1.5"/>
    <path d="M 152.999108 385.193125 
L 138.409853 292.957339 
L 122.603551 192.226152 
L 101.483404 56.29973 
L 96.241578 22.318125 
M 476.295892 22.318125 
L 490.885147 114.553911 
L 506.691449 215.285098 
L 527.811596 351.21152 
L 533.053422 385.193125 
L 533.053422 385.193125 
" clip-path="url(#pbb31d5f2cf)" style="fill: none; stroke: #67cc5c; stroke-opacity: 0.85; stroke-width: 1.5"/>
    <path d="M 143.704571 385.193125 
L 124.157995 261.402991 
L 103.291205 127.903827 
L 86.944901 22.318125 
M 485.590429 22.318125 
L 505.137005 146.108259 
L 526.003795 279.607423 
L 542.350099 385.193125 
L 542.350099 385.193125 
" clip-path="url(#pbb31d5f2cf)" style="fill: none; stroke: #98d83e; stroke-opacity: 0.85; stroke-width: 1.5"/>
    <path d="M 134.822218 385.193125 
L 119.483362 288.102824 
L 95.324078 133.737889 
L 78.06497 22.318125 
M 494.472782 22.318125 
L 509.811638 119.408426 
L 533.970922 273.773361 
L 551.23003 385.193125 
L 551.23003 385.193125 
" clip-path="url(#pbb31d5f2cf)" style="fill: none; stroke: #cde11d; stroke-opacity: 0.85; stroke-width: 1.5"/>
    <path d="M 126.305397 385.193125 
L 98.591456 209.216954 
L 69.547364 22.318125 
M 502.989603 22.318125 
L 530.703544 198.294296 
L 559.747636 385.193125 
L 559.747636 385.193125 
" clip-path="url(#pbb31d5f2cf)" style="fill: none; stroke: #fde725; stroke-opacity: 0.85; stroke-width: 1.5"/>
   </g>
   <g id="line2d_23">
    <path d="M 314.6475 203.755625 
" clip-path="url(#pbb31d5f2cf)" style="fill: none; stroke: #cc0000; stroke-width: 1.5; stroke-linecap: square"/>
    <defs>
     <path id="m3123ae51cb" d="M 0 -5 
L -1.12257 -1.545085 
L -4.755283 -1.545085 
L -1.816356 0.59017 
L -2.938926 4.045085 
L -0 1.90983 
L 2.938926 4.045085 
L 1.816356 0.59017 
L 4.755283 -1.545085 
L 1.12257 -1.545085 
z
" style="stroke: #cc0000; stroke-linejoin: bevel"/>
    </defs>
    <g clip-path="url(#pbb31d5f2cf)">
     <use xlink:href="#m3123ae51cb" x="314.6475" y="203.755625" style="fill: #cc0000; stroke: #cc0000; stroke-linejoin: bevel"/>
    </g>
   </g>
   <g id="patch_3">
    <path d="M 69.038125 385.193125 
L 69.038125 22.318125 
" style="fill: none; stroke: #000000; stroke-width: 0.8; stroke-linejoin: miter; stroke-linecap: square"/>
   </g>
   <g id="patch_4">
    <path d="M 560.256875 385.193125 
L 560.256875 22.318125 
" style="fill: none; stroke: #000000; stroke-width: 0.8; stroke-linejoin: miter; stroke-linecap: square"/>
   </g>
   <g id="patch_5">
    <path d="M 69.038125 385.193125 
L 560.256875 385.193125 
" style="fill: none; stroke: #000000; stroke-width: 0.8; stroke-linejoin: miter; stroke-linecap: square"/>
   </g>
   <g id="patch_6">
    <path d="M 69.038125 22.318125 
L 560.256875 22.318125 
" style="fill: none; stroke: #000000; stroke-width: 0.8; stroke-linejoin: miter; stroke-linecap: square"/>
   </g>
   <g id="text_14">
    <!-- Cost contours with unscaled features (elongated ellipses) -->
    <g style="fill: #808080" transform="translate(141.990937 16.318125) scale(0.12 -0.12)">
     <defs>
      <path id="DejaVuSans-43" d="M 4122 4306 
L 4122 3641 
Q 3803 3938 3442 4084 
Q 3081 4231 2675 4231 
Q 1875 4231 1450 3742 
Q 1025 3253 1025 2328 
Q 1025 1406 1450 917 
Q 1875 428 2675 428 
Q 3081 428 3442 575 
Q 3803 722 4122 1019 
L 4122 359 
Q 3791 134 3420 21 
Q 3050 -91 2638 -91 
Q 1578 -91 968 557 
Q 359 1206 359 2328 
Q 359 3453 968 4101 
Q 1578 4750 2638 4750 
Q 3056 4750 3426 4639 
Q 3797 4528 4122 4306 
z
" transform="scale(0.015625)"/>
      <path id="DejaVuSans-6f" d="M 1959 3097 
Q 1497 3097 1228 2736 
Q 959 2375 959 1747 
Q 959 1119 1226 758 
Q 1494 397 1959 397 
Q 2419 397 2687 759 
Q 2956 1122 2956 1747 
Q 2956 2369 2687 2733 
Q 2419 3097 1959 3097 
z
M 1959 3584 
Q 2709 3584 3137 3096 
Q 3566 2609 3566 1747 
Q 3566 888 3137 398 
Q 2709 -91 1959 -91 
Q 1206 -91 779 398 
Q 353 888 353 1747 
Q 353 2609 779 3096 
Q 1206 3584 1959 3584 
z
" transform="scale(0.015625)"/>
      <path id="DejaVuSans-73" d="M 2834 3397 
L 2834 2853 
Q 2591 2978 2328 3040 
Q 2066 3103 1784 3103 
Q 1356 3103 1142 2972 
Q 928 2841 928 2578 
Q 928 2378 1081 2264 
Q 1234 2150 1697 2047 
L 1894 2003 
Q 2506 1872 2764 1633 
Q 3022 1394 3022 966 
Q 3022 478 2636 193 
Q 2250 -91 1575 -91 
Q 1294 -91 989 -36 
Q 684 19 347 128 
L 347 722 
Q 666 556 975 473 
Q 1284 391 1588 391 
Q 1994 391 2212 530 
Q 2431 669 2431 922 
Q 2431 1156 2273 1281 
Q 2116 1406 1581 1522 
L 1381 1569 
Q 847 1681 609 1914 
Q 372 2147 372 2553 
Q 372 3047 722 3315 
Q 1072 3584 1716 3584 
Q 2034 3584 2315 3537 
Q 2597 3491 2834 3397 
z
" transform="scale(0.015625)"/>
      <path id="DejaVuSans-74" d="M 1172 4494 
L 1172 3500 
L 2356 3500 
L 2356 3053 
L 1172 3053 
L 1172 1153 
Q 1172 725 1289 603 
Q 1406 481 1766 481 
L 2356 481 
L 2356 0 
L 1766 0 
Q 1100 0 847 248 
Q 594 497 594 1153 
L 594 3053 
L 172 3053 
L 172 3500 
L 594 3500 
L 594 4494 
L 1172 4494 
z
" transform="scale(0.015625)"/>
      <path id="DejaVuSans-20" transform="scale(0.015625)"/>
      <path id="DejaVuSans-63" d="M 3122 3366 
L 3122 2828 
Q 2878 2963 2633 3030 
Q 2388 3097 2138 3097 
Q 1578 3097 1268 2742 
Q 959 2388 959 1747 
Q 959 1106 1268 751 
Q 1578 397 2138 397 
Q 2388 397 2633 464 
Q 2878 531 3122 666 
L 3122 134 
Q 2881 22 2623 -34 
Q 2366 -91 2075 -91 
Q 1284 -91 818 406 
Q 353 903 353 1747 
Q 353 2603 823 3093 
Q 1294 3584 2113 3584 
Q 2378 3584 2631 3529 
Q 2884 3475 3122 3366 
z
" transform="scale(0.015625)"/>
      <path id="DejaVuSans-6e" d="M 3513 2113 
L 3513 0 
L 2938 0 
L 2938 2094 
Q 2938 2591 2744 2837 
Q 2550 3084 2163 3084 
Q 1697 3084 1428 2787 
Q 1159 2491 1159 1978 
L 1159 0 
L 581 0 
L 581 3500 
L 1159 3500 
L 1159 2956 
Q 1366 3272 1645 3428 
Q 1925 3584 2291 3584 
Q 2894 3584 3203 3211 
Q 3513 2838 3513 2113 
z
" transform="scale(0.015625)"/>
      <path id="DejaVuSans-75" d="M 544 1381 
L 544 3500 
L 1119 3500 
L 1119 1403 
Q 1119 906 1312 657 
Q 1506 409 1894 409 
Q 2359 409 2629 706 
Q 2900 1003 2900 1516 
L 2900 3500 
L 3475 3500 
L 3475 0 
L 2900 0 
L 2900 538 
Q 2691 219 2414 64 
Q 2138 -91 1772 -91 
Q 1169 -91 856 284 
Q 544 659 544 1381 
z
M 1991 3584 
L 1991 3584 
z
" transform="scale(0.015625)"/>
      <path id="DejaVuSans-72" d="M 2631 2963 
Q 2534 3019 2420 3045 
Q 2306 3072 2169 3072 
Q 1681 3072 1420 2755 
Q 1159 2438 1159 1844 
L 1159 0 
L 581 0 
L 581 3500 
L 1159 3500 
L 1159 2956 
Q 1341 3275 1631 3429 
Q 1922 3584 2338 3584 
Q 2397 3584 2469 3576 
Q 2541 3569 2628 3553 
L 2631 2963 
z
" transform="scale(0.015625)"/>
      <path id="DejaVuSans-77" d="M 269 3500 
L 844 3500 
L 1563 769 
L 2278 3500 
L 2956 3500 
L 3675 769 
L 4391 3500 
L 4966 3500 
L 4050 0 
L 3372 0 
L 2619 2869 
L 1863 0 
L 1184 0 
L 269 3500 
z
" transform="scale(0.015625)"/>
      <path id="DejaVuSans-69" d="M 603 3500 
L 1178 3500 
L 1178 0 
L 603 0 
L 603 3500 
z
M 603 4863 
L 1178 4863 
L 1178 4134 
L 603 4134 
L 603 4863 
z
" transform="scale(0.015625)"/>
      <path id="DejaVuSans-68" d="M 3513 2113 
L 3513 0 
L 2938 0 
L 2938 2094 
Q 2938 2591 2744 2837 
Q 2550 3084 2163 3084 
Q 1697 3084 1428 2787 
Q 1159 2491 1159 1978 
L 1159 0 
L 581 0 
L 581 4863 
L 1159 4863 
L 1159 2956 
Q 1366 3272 1645 3428 
Q 1925 3584 2291 3584 
Q 2894 3584 3203 3211 
Q 3513 2838 3513 2113 
z
" transform="scale(0.015625)"/>
      <path id="DejaVuSans-61" d="M 2194 1759 
Q 1497 1759 1228 1600 
Q 959 1441 959 1056 
Q 959 750 1161 570 
Q 1363 391 1709 391 
Q 2188 391 2477 730 
Q 2766 1069 2766 1631 
L 2766 1759 
L 2194 1759 
z
M 3341 1997 
L 3341 0 
L 2766 0 
L 2766 531 
Q 2569 213 2275 61 
Q 1981 -91 1556 -91 
Q 1019 -91 701 211 
Q 384 513 384 1019 
Q 384 1609 779 1909 
Q 1175 2209 1959 2209 
L 2766 2209 
L 2766 2266 
Q 2766 2663 2505 2880 
Q 2244 3097 1772 3097 
Q 1472 3097 1187 3025 
Q 903 2953 641 2809 
L 641 3341 
Q 956 3463 1253 3523 
Q 1550 3584 1831 3584 
Q 2591 3584 2966 3190 
Q 3341 2797 3341 1997 
z
" transform="scale(0.015625)"/>
      <path id="DejaVuSans-6c" d="M 603 4863 
L 1178 4863 
L 1178 0 
L 603 0 
L 603 4863 
z
" transform="scale(0.015625)"/>
      <path id="DejaVuSans-65" d="M 3597 1894 
L 3597 1613 
L 953 1613 
Q 991 1019 1311 708 
Q 1631 397 2203 397 
Q 2534 397 2845 478 
Q 3156 559 3463 722 
L 3463 178 
Q 3153 47 2828 -22 
Q 2503 -91 2169 -91 
Q 1331 -91 842 396 
Q 353 884 353 1716 
Q 353 2575 817 3079 
Q 1281 3584 2069 3584 
Q 2775 3584 3186 3129 
Q 3597 2675 3597 1894 
z
M 3022 2063 
Q 3016 2534 2758 2815 
Q 2500 3097 2075 3097 
Q 1594 3097 1305 2825 
Q 1016 2553 972 2059 
L 3022 2063 
z
" transform="scale(0.015625)"/>
      <path id="DejaVuSans-64" d="M 2906 2969 
L 2906 4863 
L 3481 4863 
L 3481 0 
L 2906 0 
L 2906 525 
Q 2725 213 2448 61 
Q 2172 -91 1784 -91 
Q 1150 -91 751 415 
Q 353 922 353 1747 
Q 353 2572 751 3078 
Q 1150 3584 1784 3584 
Q 2172 3584 2448 3432 
Q 2725 3281 2906 2969 
z
M 947 1747 
Q 947 1113 1208 752 
Q 1469 391 1925 391 
Q 2381 391 2643 752 
Q 2906 1113 2906 1747 
Q 2906 2381 2643 2742 
Q 2381 3103 1925 3103 
Q 1469 3103 1208 2742 
Q 947 2381 947 1747 
z
" transform="scale(0.015625)"/>
      <path id="DejaVuSans-66" d="M 2375 4863 
L 2375 4384 
L 1825 4384 
Q 1516 4384 1395 4259 
Q 1275 4134 1275 3809 
L 1275 3500 
L 2222 3500 
L 2222 3053 
L 1275 3053 
L 1275 0 
L 697 0 
L 697 3053 
L 147 3053 
L 147 3500 
L 697 3500 
L 697 3744 
Q 697 4328 969 4595 
Q 1241 4863 1831 4863 
L 2375 4863 
z
" transform="scale(0.015625)"/>
      <path id="DejaVuSans-28" d="M 1984 4856 
Q 1566 4138 1362 3434 
Q 1159 2731 1159 2009 
Q 1159 1288 1364 580 
Q 1569 -128 1984 -844 
L 1484 -844 
Q 1016 -109 783 600 
Q 550 1309 550 2009 
Q 550 2706 781 3412 
Q 1013 4119 1484 4856 
L 1984 4856 
z
" transform="scale(0.015625)"/>
      <path id="DejaVuSans-67" d="M 2906 1791 
Q 2906 2416 2648 2759 
Q 2391 3103 1925 3103 
Q 1463 3103 1205 2759 
Q 947 2416 947 1791 
Q 947 1169 1205 825 
Q 1463 481 1925 481 
Q 2391 481 2648 825 
Q 2906 1169 2906 1791 
z
M 3481 434 
Q 3481 -459 3084 -895 
Q 2688 -1331 1869 -1331 
Q 1566 -1331 1297 -1286 
Q 1028 -1241 775 -1147 
L 775 -588 
Q 1028 -725 1275 -790 
Q 1522 -856 1778 -856 
Q 2344 -856 2625 -561 
Q 2906 -266 2906 331 
L 2906 616 
Q 2728 306 2450 153 
Q 2172 0 1784 0 
Q 1141 0 747 490 
Q 353 981 353 1791 
Q 353 2603 747 3093 
Q 1141 3584 1784 3584 
Q 2172 3584 2450 3431 
Q 2728 3278 2906 2969 
L 2906 3500 
L 3481 3500 
L 3481 434 
z
" transform="scale(0.015625)"/>
      <path id="DejaVuSans-70" d="M 1159 525 
L 1159 -1331 
L 581 -1331 
L 581 3500 
L 1159 3500 
L 1159 2969 
Q 1341 3281 1617 3432 
Q 1894 3584 2278 3584 
Q 2916 3584 3314 3078 
Q 3713 2572 3713 1747 
Q 3713 922 3314 415 
Q 2916 -91 2278 -91 
Q 1894 -91 1617 61 
Q 1341 213 1159 525 
z
M 3116 1747 
Q 3116 2381 2855 2742 
Q 2594 3103 2138 3103 
Q 1681 3103 1420 2742 
Q 1159 2381 1159 1747 
Q 1159 1113 1420 752 
Q 1681 391 2138 391 
Q 2594 391 2855 752 
Q 3116 1113 3116 1747 
z
" transform="scale(0.015625)"/>
      <path id="DejaVuSans-29" d="M 513 4856 
L 1013 4856 
Q 1481 4119 1714 3412 
Q 1947 2706 1947 2009 
Q 1947 1309 1714 600 
Q 1481 -109 1013 -844 
L 513 -844 
Q 928 -128 1133 580 
Q 1338 1288 1338 2009 
Q 1338 2731 1133 3434 
Q 928 4138 513 4856 
z
" transform="scale(0.015625)"/>
     </defs>
     <use xlink:href="#DejaVuSans-43"/>
     <use xlink:href="#DejaVuSans-6f" transform="translate(69.824219 0)"/>
     <use xlink:href="#DejaVuSans-73" transform="translate(131.005859 0)"/>
     <use xlink:href="#DejaVuSans-74" transform="translate(183.105469 0)"/>
     <use xlink:href="#DejaVuSans-20" transform="translate(222.314453 0)"/>
     <use xlink:href="#DejaVuSans-63" transform="translate(254.101562 0)"/>
     <use xlink:href="#DejaVuSans-6f" transform="translate(309.082031 0)"/>
     <use xlink:href="#DejaVuSans-6e" transform="translate(370.263672 0)"/>
     <use xlink:href="#DejaVuSans-74" transform="translate(433.642578 0)"/>
     <use xlink:href="#DejaVuSans-6f" transform="translate(472.851562 0)"/>
     <use xlink:href="#DejaVuSans-75" transform="translate(534.033203 0)"/>
     <use xlink:href="#DejaVuSans-72" transform="translate(597.412109 0)"/>
     <use xlink:href="#DejaVuSans-73" transform="translate(638.525391 0)"/>
     <use xlink:href="#DejaVuSans-20" transform="translate(690.625 0)"/>
     <use xlink:href="#DejaVuSans-77" transform="translate(722.412109 0)"/>
     <use xlink:href="#DejaVuSans-69" transform="translate(804.199219 0)"/>
     <use xlink:href="#DejaVuSans-74" transform="translate(831.982422 0)"/>
     <use xlink:href="#DejaVuSans-68" transform="translate(871.191406 0)"/>
     <use xlink:href="#DejaVuSans-20" transform="translate(934.570312 0)"/>
     <use xlink:href="#DejaVuSans-75" transform="translate(966.357422 0)"/>
     <use xlink:href="#DejaVuSans-6e" transform="translate(1029.736328 0)"/>
     <use xlink:href="#DejaVuSans-73" transform="translate(1093.115234 0)"/>
     <use xlink:href="#DejaVuSans-63" transform="translate(1145.214844 0)"/>
     <use xlink:href="#DejaVuSans-61" transform="translate(1200.195312 0)"/>
     <use xlink:href="#DejaVuSans-6c" transform="translate(1261.474609 0)"/>
     <use xlink:href="#DejaVuSans-65" transform="translate(1289.257812 0)"/>
     <use xlink:href="#DejaVuSans-64" transform="translate(1350.78125 0)"/>
     <use xlink:href="#DejaVuSans-20" transform="translate(1414.257812 0)"/>
     <use xlink:href="#DejaVuSans-66" transform="translate(1446.044922 0)"/>
     <use xlink:href="#DejaVuSans-65" transform="translate(1481.25 0)"/>
     <use xlink:href="#DejaVuSans-61" transform="translate(1542.773438 0)"/>
     <use xlink:href="#DejaVuSans-74" transform="translate(1604.052734 0)"/>
     <use xlink:href="#DejaVuSans-75" transform="translate(1643.261719 0)"/>
     <use xlink:href="#DejaVuSans-72" transform="translate(1706.640625 0)"/>
     <use xlink:href="#DejaVuSans-65" transform="translate(1745.503906 0)"/>
     <use xlink:href="#DejaVuSans-73" transform="translate(1807.027344 0)"/>
     <use xlink:href="#DejaVuSans-20" transform="translate(1859.126953 0)"/>
     <use xlink:href="#DejaVuSans-28" transform="translate(1890.914062 0)"/>
     <use xlink:href="#DejaVuSans-65" transform="translate(1929.927734 0)"/>
     <use xlink:href="#DejaVuSans-6c" transform="translate(1991.451172 0)"/>
     <use xlink:href="#DejaVuSans-6f" transform="translate(2019.234375 0)"/>
     <use xlink:href="#DejaVuSans-6e" transform="translate(2080.416016 0)"/>
     <use xlink:href="#DejaVuSans-67" transform="translate(2143.794922 0)"/>
     <use xlink:href="#DejaVuSans-61" transform="translate(2207.271484 0)"/>
     <use xlink:href="#DejaVuSans-74" transform="translate(2268.550781 0)"/>
     <use xlink:href="#DejaVuSans-65" transform="translate(2307.759766 0)"/>
     <use xlink:href="#DejaVuSans-64" transform="translate(2369.283203 0)"/>
     <use xlink:href="#DejaVuSans-20" transform="translate(2432.759766 0)"/>
     <use xlink:href="#DejaVuSans-65" transform="translate(2464.546875 0)"/>
     <use xlink:href="#DejaVuSans-6c" transform="translate(2526.070312 0)"/>
     <use xlink:href="#DejaVuSans-6c" transform="translate(2553.853516 0)"/>
     <use xlink:href="#DejaVuSans-69" transform="translate(2581.636719 0)"/>
     <use xlink:href="#DejaVuSans-70" transform="translate(2609.419922 0)"/>
     <use xlink:href="#DejaVuSans-73" transform="translate(2672.896484 0)"/>
     <use xlink:href="#DejaVuSans-65" transform="translate(2724.996094 0)"/>
     <use xlink:href="#DejaVuSans-73" transform="translate(2786.519531 0)"/>
     <use xlink:href="#DejaVuSans-29" transform="translate(2838.619141 0)"/>
    </g>
   </g>
   <g id="legend_1">
    <g id="patch_7">
     <path d="M 482.449062 42.728437 
L 553.956875 42.728437 
Q 555.756875 42.728437 555.756875 40.928437 
L 555.756875 28.618125 
Q 555.756875 26.818125 553.956875 26.818125 
L 482.449062 26.818125 
Q 480.649062 26.818125 480.649062 28.618125 
L 480.649062 40.928437 
Q 480.649062 42.728437 482.449062 42.728437 
z
" style="fill: #ffffff; opacity: 0.8; stroke: #cccccc; stroke-linejoin: miter"/>
    </g>
    <g id="line2d_24">
     <path d="M 484.249062 34.106719 
L 493.249062 34.106719 
L 502.249062 34.106719 
" style="fill: none; stroke: #cc0000; stroke-width: 1.5; stroke-linecap: square"/>
     <g>
      <use xlink:href="#m3123ae51cb" x="493.249062" y="34.106719" style="fill: #cc0000; stroke: #cc0000; stroke-linejoin: bevel"/>
     </g>
    </g>
    <g id="text_15">
     <!-- minimum -->
     <g transform="translate(509.449062 37.256719) scale(0.09 -0.09)">
      <defs>
       <path id="DejaVuSans-6d" d="M 3328 2828 
Q 3544 3216 3844 3400 
Q 4144 3584 4550 3584 
Q 5097 3584 5394 3201 
Q 5691 2819 5691 2113 
L 5691 0 
L 5113 0 
L 5113 2094 
Q 5113 2597 4934 2840 
Q 4756 3084 4391 3084 
Q 3944 3084 3684 2787 
Q 3425 2491 3425 1978 
L 3425 0 
L 2847 0 
L 2847 2094 
Q 2847 2600 2669 2842 
Q 2491 3084 2119 3084 
Q 1678 3084 1418 2786 
Q 1159 2488 1159 1978 
L 1159 0 
L 581 0 
L 581 3500 
L 1159 3500 
L 1159 2956 
Q 1356 3278 1631 3431 
Q 1906 3584 2284 3584 
Q 2666 3584 2933 3390 
Q 3200 3197 3328 2828 
z
" transform="scale(0.015625)"/>
      </defs>
      <use xlink:href="#DejaVuSans-6d"/>
      <use xlink:href="#DejaVuSans-69" transform="translate(97.412109 0)"/>
      <use xlink:href="#DejaVuSans-6e" transform="translate(125.195312 0)"/>
      <use xlink:href="#DejaVuSans-69" transform="translate(188.574219 0)"/>
      <use xlink:href="#DejaVuSans-6d" transform="translate(216.357422 0)"/>
      <use xlink:href="#DejaVuSans-75" transform="translate(313.769531 0)"/>
      <use xlink:href="#DejaVuSans-6d" transform="translate(377.148438 0)"/>
     </g>
    </g>
   </g>
  </g>
 </g>
 <defs>
  <clipPath id="pbb31d5f2cf">
   <rect x="69.038125" y="22.318125" width="491.21875" height="362.875"/>
  </clipPath>
 </defs>
</svg>
