<?xml version="1.0" encoding="utf-8" standalone="no"?>
<!DOCTYPE svg PUBLIC "-//W3C//DTD SVG 1.1//EN"
  "http://www.w3.org/Graphics/SVG/1.1/DTD/svg11.dtd">
<svg xmlns:xlink="http://www.w3.org/1999/xlink" width="708.751568pt" height="313.461875pt" viewBox="0 0 708.751568 313.461875" xmlns="http://www.w3.org/2000/svg" version="1.1">
 <metadata>
  <rdf:RDF xmlns:dc="http://purl.org/dc/elements/1.1/" xmlns:cc="http://creativecommons.org/ns#" xmlns:rdf="http://www.w3.org/1999/02/22-rdf-syntax-ns#">
   <cc:Work>
    <dc:type rdf:resource="http://purl.org/dc/dcmitype/StillImage"/>
    <dc:date>2026-07-08T14:40:09.422861</dc:date>
    <dc:format>image/svg+xml</dc:format>
    <dc:creator>
     <cc:Agent>
      <dc:title>Matplotlib v3.10.8, https://matplotlib.org/</dc:title>
     </cc:Agent>
    </dc:creator>
   </cc:Work>
  </rdf:RDF>
 </metadata>
 <defs>
  <style type="text/css">*{stroke-linejoin: round; stroke-linecap: butt}</style>
 </defs>
 <g id="figure_1">
  <g id="patch_1">
   <path d="M 0 313.461875 
L 708.751568 313.461875 
L 708.751568 0 
L 0 0 
z
" style="fill: #ffffff"/>
  </g>
  <g id="axes_1">
   <g id="patch_2">
    <path d="M 47.783125 273.97 
L 698.450065 273.97 
L 698.450065 22.32 
L 47.783125 22.32 
z
" style="fill: #ffffff"/>
   </g>
   <g id="matplotlib.axis_1">
    <g id="xtick_1">
     <g id="line2d_1">
      <path d="M 47.783125 273.97 
L 47.783125 22.32 
" clip-path="url(#pe8115311c8)" style="fill: none; stroke-dasharray: 2.96,1.28; stroke-dashoffset: 0; stroke: #b0b0b0; stroke-opacity: 0.4; stroke-width: 0.8"/>
     </g>
     <g id="line2d_2">
      <defs>
       <path id="m85ff1effaf" d="M 0 0 
L 0 3.5 
" style="stroke: #000000; stroke-width: 0.8"/>
      </defs>
      <g>
       <use xlink:href="#m85ff1effaf" x="47.783125" y="273.97" style="stroke: #000000; stroke-width: 0.8"/>
      </g>
     </g>
     <g id="text_1">
      <!-- 0 -->
      <g transform="translate(44.601875 288.568437) scale(0.1 -0.1)">
       <defs>
        <path id="DejaVuSans-30" d="M 2034 4250 
Q 1547 4250 1301 3770 
Q 1056 3291 1056 2328 
Q 1056 1369 1301 889 
Q 1547 409 2034 409 
Q 2525 409 2770 889 
Q 3016 1369 3016 2328 
Q 3016 3291 2770 3770 
Q 2525 4250 2034 4250 
z
M 2034 4750 
Q 2819 4750 3233 4129 
Q 3647 3509 3647 2328 
Q 3647 1150 3233 529 
Q 2819 -91 2034 -91 
Q 1250 -91 836 529 
Q 422 1150 422 2328 
Q 422 3509 836 4129 
Q 1250 4750 2034 4750 
z
" transform="scale(0.015625)"/>
       </defs>
       <use xlink:href="#DejaVuSans-30"/>
      </g>
     </g>
    </g>
    <g id="xtick_2">
     <g id="line2d_3">
      <path d="M 176.628064 273.97 
L 176.628064 22.32 
" clip-path="url(#pe8115311c8)" style="fill: none; stroke-dasharray: 2.96,1.28; stroke-dashoffset: 0; stroke: #b0b0b0; stroke-opacity: 0.4; stroke-width: 0.8"/>
     </g>
     <g id="line2d_4">
      <g>
       <use xlink:href="#m85ff1effaf" x="176.628064" y="273.97" style="stroke: #000000; stroke-width: 0.8"/>
      </g>
     </g>
     <g id="text_2">
      <!-- 20 -->
      <g transform="translate(170.265564 288.568437) scale(0.1 -0.1)">
       <defs>
        <path id="DejaVuSans-32" d="M 1228 531 
L 3431 531 
L 3431 0 
L 469 0 
L 469 531 
Q 828 903 1448 1529 
Q 2069 2156 2228 2338 
Q 2531 2678 2651 2914 
Q 2772 3150 2772 3378 
Q 2772 3750 2511 3984 
Q 2250 4219 1831 4219 
Q 1534 4219 1204 4116 
Q 875 4013 500 3803 
L 500 4441 
Q 881 4594 1212 4672 
Q 1544 4750 1819 4750 
Q 2544 4750 2975 4387 
Q 3406 4025 3406 3419 
Q 3406 3131 3298 2873 
Q 3191 2616 2906 2266 
Q 2828 2175 2409 1742 
Q 1991 1309 1228 531 
z
" transform="scale(0.015625)"/>
       </defs>
       <use xlink:href="#DejaVuSans-32"/>
       <use xlink:href="#DejaVuSans-30" transform="translate(63.623047 0)"/>
      </g>
     </g>
    </g>
    <g id="xtick_3">
     <g id="line2d_5">
      <path d="M 305.473002 273.97 
L 305.473002 22.32 
" clip-path="url(#pe8115311c8)" style="fill: none; stroke-dasharray: 2.96,1.28; stroke-dashoffset: 0; stroke: #b0b0b0; stroke-opacity: 0.4; stroke-width: 0.8"/>
     </g>
     <g id="line2d_6">
      <g>
       <use xlink:href="#m85ff1effaf" x="305.473002" y="273.97" style="stroke: #000000; stroke-width: 0.8"/>
      </g>
     </g>
     <g id="text_3">
      <!-- 40 -->
      <g transform="translate(299.110502 288.568437) scale(0.1 -0.1)">
       <defs>
        <path id="DejaVuSans-34" d="M 2419 4116 
L 825 1625 
L 2419 1625 
L 2419 4116 
z
M 2253 4666 
L 3047 4666 
L 3047 1625 
L 3713 1625 
L 3713 1100 
L 3047 1100 
L 3047 0 
L 2419 0 
L 2419 1100 
L 313 1100 
L 313 1709 
L 2253 4666 
z
" transform="scale(0.015625)"/>
       </defs>
       <use xlink:href="#DejaVuSans-34"/>
       <use xlink:href="#DejaVuSans-30" transform="translate(63.623047 0)"/>
      </g>
     </g>
    </g>
    <g id="xtick_4">
     <g id="line2d_7">
      <path d="M 434.317941 273.97 
L 434.317941 22.32 
" clip-path="url(#pe8115311c8)" style="fill: none; stroke-dasharray: 2.96,1.28; stroke-dashoffset: 0; stroke: #b0b0b0; stroke-opacity: 0.4; stroke-width: 0.8"/>
     </g>
     <g id="line2d_8">
      <g>
       <use xlink:href="#m85ff1effaf" x="434.317941" y="273.97" style="stroke: #000000; stroke-width: 0.8"/>
      </g>
     </g>
     <g id="text_4">
      <!-- 60 -->
      <g transform="translate(427.955441 288.568437) scale(0.1 -0.1)">
       <defs>
        <path id="DejaVuSans-36" d="M 2113 2584 
Q 1688 2584 1439 2293 
Q 1191 2003 1191 1497 
Q 1191 994 1439 701 
Q 1688 409 2113 409 
Q 2538 409 2786 701 
Q 3034 994 3034 1497 
Q 3034 2003 2786 2293 
Q 2538 2584 2113 2584 
z
M 3366 4563 
L 3366 3988 
Q 3128 4100 2886 4159 
Q 2644 4219 2406 4219 
Q 1781 4219 1451 3797 
Q 1122 3375 1075 2522 
Q 1259 2794 1537 2939 
Q 1816 3084 2150 3084 
Q 2853 3084 3261 2657 
Q 3669 2231 3669 1497 
Q 3669 778 3244 343 
Q 2819 -91 2113 -91 
Q 1303 -91 875 529 
Q 447 1150 447 2328 
Q 447 3434 972 4092 
Q 1497 4750 2381 4750 
Q 2619 4750 2861 4703 
Q 3103 4656 3366 4563 
z
" transform="scale(0.015625)"/>
       </defs>
       <use xlink:href="#DejaVuSans-36"/>
       <use xlink:href="#DejaVuSans-30" transform="translate(63.623047 0)"/>
      </g>
     </g>
    </g>
    <g id="xtick_5">
     <g id="line2d_9">
      <path d="M 563.162879 273.97 
L 563.162879 22.32 
" clip-path="url(#pe8115311c8)" style="fill: none; stroke-dasharray: 2.96,1.28; stroke-dashoffset: 0; stroke: #b0b0b0; stroke-opacity: 0.4; stroke-width: 0.8"/>
     </g>
     <g id="line2d_10">
      <g>
       <use xlink:href="#m85ff1effaf" x="563.162879" y="273.97" style="stroke: #000000; stroke-width: 0.8"/>
      </g>
     </g>
     <g id="text_5">
      <!-- 80 -->
      <g transform="translate(556.800379 288.568437) scale(0.1 -0.1)">
       <defs>
        <path id="DejaVuSans-38" d="M 2034 2216 
Q 1584 2216 1326 1975 
Q 1069 1734 1069 1313 
Q 1069 891 1326 650 
Q 1584 409 2034 409 
Q 2484 409 2743 651 
Q 3003 894 3003 1313 
Q 3003 1734 2745 1975 
Q 2488 2216 2034 2216 
z
M 1403 2484 
Q 997 2584 770 2862 
Q 544 3141 544 3541 
Q 544 4100 942 4425 
Q 1341 4750 2034 4750 
Q 2731 4750 3128 4425 
Q 3525 4100 3525 3541 
Q 3525 3141 3298 2862 
Q 3072 2584 2669 2484 
Q 3125 2378 3379 2068 
Q 3634 1759 3634 1313 
Q 3634 634 3220 271 
Q 2806 -91 2034 -91 
Q 1263 -91 848 271 
Q 434 634 434 1313 
Q 434 1759 690 2068 
Q 947 2378 1403 2484 
z
M 1172 3481 
Q 1172 3119 1398 2916 
Q 1625 2713 2034 2713 
Q 2441 2713 2670 2916 
Q 2900 3119 2900 3481 
Q 2900 3844 2670 4047 
Q 2441 4250 2034 4250 
Q 1625 4250 1398 4047 
Q 1172 3844 1172 3481 
z
" transform="scale(0.015625)"/>
       </defs>
       <use xlink:href="#DejaVuSans-38"/>
       <use xlink:href="#DejaVuSans-30" transform="translate(63.623047 0)"/>
      </g>
     </g>
    </g>
    <g id="xtick_6">
     <g id="line2d_11">
      <path d="M 692.007818 273.97 
L 692.007818 22.32 
" clip-path="url(#pe8115311c8)" style="fill: none; stroke-dasharray: 2.96,1.28; stroke-dashoffset: 0; stroke: #b0b0b0; stroke-opacity: 0.4; stroke-width: 0.8"/>
     </g>
     <g id="line2d_12">
      <g>
       <use xlink:href="#m85ff1effaf" x="692.007818" y="273.97" style="stroke: #000000; stroke-width: 0.8"/>
      </g>
     </g>
     <g id="text_6">
      <!-- 100 -->
      <g transform="translate(682.464068 288.568437) scale(0.1 -0.1)">
       <defs>
        <path id="DejaVuSans-31" d="M 794 531 
L 1825 531 
L 1825 4091 
L 703 3866 
L 703 4441 
L 1819 4666 
L 2450 4666 
L 2450 531 
L 3481 531 
L 3481 0 
L 794 0 
L 794 531 
z
" transform="scale(0.015625)"/>
       </defs>
       <use xlink:href="#DejaVuSans-31"/>
       <use xlink:href="#DejaVuSans-30" transform="translate(63.623047 0)"/>
       <use xlink:href="#DejaVuSans-30" transform="translate(127.246094 0)"/>
      </g>
     </g>
    </g>
    <g id="text_7">
     <!-- Number of rolls ($n$) -->
     <g transform="translate(316.416595 303.76625) scale(0.12 -0.12)">
      <defs>
       <path id="DejaVuSans-4e" d="M 628 4666 
L 1478 4666 
L 3547 763 
L 3547 4666 
L 4159 4666 
L 4159 0 
L 3309 0 
L 1241 3903 
L 1241 0 
L 628 0 
L 628 4666 
z
" transform="scale(0.015625)"/>
       <path id="DejaVuSans-75" d="M 544 1381 
L 544 3500 
L 1119 3500 
L 1119 1403 
Q 1119 906 1312 657 
Q 1506 409 1894 409 
Q 2359 409 2629 706 
Q 2900 1003 2900 1516 
L 2900 3500 
L 3475 3500 
L 3475 0 
L 2900 0 
L 2900 538 
Q 2691 219 2414 64 
Q 2138 -91 1772 -91 
Q 1169 -91 856 284 
Q 544 659 544 1381 
z
M 1991 3584 
L 1991 3584 
z
" transform="scale(0.015625)"/>
       <path id="DejaVuSans-6d" d="M 3328 2828 
Q 3544 3216 3844 3400 
Q 4144 3584 4550 3584 
Q 5097 3584 5394 3201 
Q 5691 2819 5691 2113 
L 5691 0 
L 5113 0 
L 5113 2094 
Q 5113 2597 4934 2840 
Q 4756 3084 4391 3084 
Q 3944 3084 3684 2787 
Q 3425 2491 3425 1978 
L 3425 0 
L 2847 0 
L 2847 2094 
Q 2847 2600 2669 2842 
Q 2491 3084 2119 3084 
Q 1678 3084 1418 2786 
Q 1159 2488 1159 1978 
L 1159 0 
L 581 0 
L 581 3500 
L 1159 3500 
L 1159 2956 
Q 1356 3278 1631 3431 
Q 1906 3584 2284 3584 
Q 2666 3584 2933 3390 
Q 3200 3197 3328 2828 
z
" transform="scale(0.015625)"/>
       <path id="DejaVuSans-62" d="M 3116 1747 
Q 3116 2381 2855 2742 
Q 2594 3103 2138 3103 
Q 1681 3103 1420 2742 
Q 1159 2381 1159 1747 
Q 1159 1113 1420 752 
Q 1681 391 2138 391 
Q 2594 391 2855 752 
Q 3116 1113 3116 1747 
z
M 1159 2969 
Q 1341 3281 1617 3432 
Q 1894 3584 2278 3584 
Q 2916 3584 3314 3078 
Q 3713 2572 3713 1747 
Q 3713 922 3314 415 
Q 2916 -91 2278 -91 
Q 1894 -91 1617 61 
Q 1341 213 1159 525 
L 1159 0 
L 581 0 
L 581 4863 
L 1159 4863 
L 1159 2969 
z
" transform="scale(0.015625)"/>
       <path id="DejaVuSans-65" d="M 3597 1894 
L 3597 1613 
L 953 1613 
Q 991 1019 1311 708 
Q 1631 397 2203 397 
Q 2534 397 2845 478 
Q 3156 559 3463 722 
L 3463 178 
Q 3153 47 2828 -22 
Q 2503 -91 2169 -91 
Q 1331 -91 842 396 
Q 353 884 353 1716 
Q 353 2575 817 3079 
Q 1281 3584 2069 3584 
Q 2775 3584 3186 3129 
Q 3597 2675 3597 1894 
z
M 3022 2063 
Q 3016 2534 2758 2815 
Q 2500 3097 2075 3097 
Q 1594 3097 1305 2825 
Q 1016 2553 972 2059 
L 3022 2063 
z
" transform="scale(0.015625)"/>
       <path id="DejaVuSans-72" d="M 2631 2963 
Q 2534 3019 2420 3045 
Q 2306 3072 2169 3072 
Q 1681 3072 1420 2755 
Q 1159 2438 1159 1844 
L 1159 0 
L 581 0 
L 581 3500 
L 1159 3500 
L 1159 2956 
Q 1341 3275 1631 3429 
Q 1922 3584 2338 3584 
Q 2397 3584 2469 3576 
Q 2541 3569 2628 3553 
L 2631 2963 
z
" transform="scale(0.015625)"/>
       <path id="DejaVuSans-20" transform="scale(0.015625)"/>
       <path id="DejaVuSans-6f" d="M 1959 3097 
Q 1497 3097 1228 2736 
Q 959 2375 959 1747 
Q 959 1119 1226 758 
Q 1494 397 1959 397 
Q 2419 397 2687 759 
Q 2956 1122 2956 1747 
Q 2956 2369 2687 2733 
Q 2419 3097 1959 3097 
z
M 1959 3584 
Q 2709 3584 3137 3096 
Q 3566 2609 3566 1747 
Q 3566 888 3137 398 
Q 2709 -91 1959 -91 
Q 1206 -91 779 398 
Q 353 888 353 1747 
Q 353 2609 779 3096 
Q 1206 3584 1959 3584 
z
" transform="scale(0.015625)"/>
       <path id="DejaVuSans-66" d="M 2375 4863 
L 2375 4384 
L 1825 4384 
Q 1516 4384 1395 4259 
Q 1275 4134 1275 3809 
L 1275 3500 
L 2222 3500 
L 2222 3053 
L 1275 3053 
L 1275 0 
L 697 0 
L 697 3053 
L 147 3053 
L 147 3500 
L 697 3500 
L 697 3744 
Q 697 4328 969 4595 
Q 1241 4863 1831 4863 
L 2375 4863 
z
" transform="scale(0.015625)"/>
       <path id="DejaVuSans-6c" d="M 603 4863 
L 1178 4863 
L 1178 0 
L 603 0 
L 603 4863 
z
" transform="scale(0.015625)"/>
       <path id="DejaVuSans-73" d="M 2834 3397 
L 2834 2853 
Q 2591 2978 2328 3040 
Q 2066 3103 1784 3103 
Q 1356 3103 1142 2972 
Q 928 2841 928 2578 
Q 928 2378 1081 2264 
Q 1234 2150 1697 2047 
L 1894 2003 
Q 2506 1872 2764 1633 
Q 3022 1394 3022 966 
Q 3022 478 2636 193 
Q 2250 -91 1575 -91 
Q 1294 -91 989 -36 
Q 684 19 347 128 
L 347 722 
Q 666 556 975 473 
Q 1284 391 1588 391 
Q 1994 391 2212 530 
Q 2431 669 2431 922 
Q 2431 1156 2273 1281 
Q 2116 1406 1581 1522 
L 1381 1569 
Q 847 1681 609 1914 
Q 372 2147 372 2553 
Q 372 3047 722 3315 
Q 1072 3584 1716 3584 
Q 2034 3584 2315 3537 
Q 2597 3491 2834 3397 
z
" transform="scale(0.015625)"/>
       <path id="DejaVuSans-28" d="M 1984 4856 
Q 1566 4138 1362 3434 
Q 1159 2731 1159 2009 
Q 1159 1288 1364 580 
Q 1569 -128 1984 -844 
L 1484 -844 
Q 1016 -109 783 600 
Q 550 1309 550 2009 
Q 550 2706 781 3412 
Q 1013 4119 1484 4856 
L 1984 4856 
z
" transform="scale(0.015625)"/>
       <path id="DejaVuSans-Oblique-6e" d="M 3566 2113 
L 3156 0 
L 2578 0 
L 2988 2091 
Q 3016 2238 3031 2350 
Q 3047 2463 3047 2528 
Q 3047 2791 2881 2937 
Q 2716 3084 2419 3084 
Q 1956 3084 1622 2776 
Q 1288 2469 1184 1941 
L 800 0 
L 225 0 
L 903 3500 
L 1478 3500 
L 1363 2950 
Q 1603 3253 1940 3418 
Q 2278 3584 2650 3584 
Q 3113 3584 3367 3334 
Q 3622 3084 3622 2631 
Q 3622 2519 3608 2391 
Q 3594 2263 3566 2113 
z
" transform="scale(0.015625)"/>
       <path id="DejaVuSans-29" d="M 513 4856 
L 1013 4856 
Q 1481 4119 1714 3412 
Q 1947 2706 1947 2009 
Q 1947 1309 1714 600 
Q 1481 -109 1013 -844 
L 513 -844 
Q 928 -128 1133 580 
Q 1338 1288 1338 2009 
Q 1338 2731 1133 3434 
Q 928 4138 513 4856 
z
" transform="scale(0.015625)"/>
      </defs>
      <use xlink:href="#DejaVuSans-4e" transform="translate(0 0.015625)"/>
      <use xlink:href="#DejaVuSans-75" transform="translate(74.804688 0.015625)"/>
      <use xlink:href="#DejaVuSans-6d" transform="translate(138.183594 0.015625)"/>
      <use xlink:href="#DejaVuSans-62" transform="translate(235.595703 0.015625)"/>
      <use xlink:href="#DejaVuSans-65" transform="translate(299.072266 0.015625)"/>
      <use xlink:href="#DejaVuSans-72" transform="translate(360.595703 0.015625)"/>
      <use xlink:href="#DejaVuSans-20" transform="translate(401.708984 0.015625)"/>
      <use xlink:href="#DejaVuSans-6f" transform="translate(433.496094 0.015625)"/>
      <use xlink:href="#DejaVuSans-66" transform="translate(494.677734 0.015625)"/>
      <use xlink:href="#DejaVuSans-20" transform="translate(529.882812 0.015625)"/>
      <use xlink:href="#DejaVuSans-72" transform="translate(561.669922 0.015625)"/>
      <use xlink:href="#DejaVuSans-6f" transform="translate(602.783203 0.015625)"/>
      <use xlink:href="#DejaVuSans-6c" transform="translate(663.964844 0.015625)"/>
      <use xlink:href="#DejaVuSans-6c" transform="translate(691.748047 0.015625)"/>
      <use xlink:href="#DejaVuSans-73" transform="translate(719.53125 0.015625)"/>
      <use xlink:href="#DejaVuSans-20" transform="translate(771.630859 0.015625)"/>
      <use xlink:href="#DejaVuSans-28" transform="translate(803.417969 0.015625)"/>
      <use xlink:href="#DejaVuSans-Oblique-6e" transform="translate(842.431641 0.015625)"/>
      <use xlink:href="#DejaVuSans-29" transform="translate(905.810547 0.015625)"/>
     </g>
    </g>
   </g>
   <g id="matplotlib.axis_2">
    <g id="ytick_1">
     <g id="line2d_13">
      <path d="M 47.783125 273.97 
L 698.450065 273.97 
" clip-path="url(#pe8115311c8)" style="fill: none; stroke-dasharray: 2.96,1.28; stroke-dashoffset: 0; stroke: #b0b0b0; stroke-opacity: 0.4; stroke-width: 0.8"/>
     </g>
     <g id="line2d_14">
      <defs>
       <path id="mc1fcd91423" d="M 0 0 
L -3.5 0 
" style="stroke: #000000; stroke-width: 0.8"/>
      </defs>
      <g>
       <use xlink:href="#mc1fcd91423" x="47.783125" y="273.97" style="stroke: #000000; stroke-width: 0.8"/>
      </g>
     </g>
     <g id="text_8">
      <!-- 1.0 -->
      <g transform="translate(24.88 277.769219) scale(0.1 -0.1)">
       <defs>
        <path id="DejaVuSans-2e" d="M 684 794 
L 1344 794 
L 1344 0 
L 684 0 
L 684 794 
z
" transform="scale(0.015625)"/>
       </defs>
       <use xlink:href="#DejaVuSans-31"/>
       <use xlink:href="#DejaVuSans-2e" transform="translate(63.623047 0)"/>
       <use xlink:href="#DejaVuSans-30" transform="translate(95.410156 0)"/>
      </g>
     </g>
    </g>
    <g id="ytick_2">
     <g id="line2d_15">
      <path d="M 47.783125 232.028333 
L 698.450065 232.028333 
" clip-path="url(#pe8115311c8)" style="fill: none; stroke-dasharray: 2.96,1.28; stroke-dashoffset: 0; stroke: #b0b0b0; stroke-opacity: 0.4; stroke-width: 0.8"/>
     </g>
     <g id="line2d_16">
      <g>
       <use xlink:href="#mc1fcd91423" x="47.783125" y="232.028333" style="stroke: #000000; stroke-width: 0.8"/>
      </g>
     </g>
     <g id="text_9">
      <!-- 1.5 -->
      <g transform="translate(24.88 235.827552) scale(0.1 -0.1)">
       <defs>
        <path id="DejaVuSans-35" d="M 691 4666 
L 3169 4666 
L 3169 4134 
L 1269 4134 
L 1269 2991 
Q 1406 3038 1543 3061 
Q 1681 3084 1819 3084 
Q 2600 3084 3056 2656 
Q 3513 2228 3513 1497 
Q 3513 744 3044 326 
Q 2575 -91 1722 -91 
Q 1428 -91 1123 -41 
Q 819 9 494 109 
L 494 744 
Q 775 591 1075 516 
Q 1375 441 1709 441 
Q 2250 441 2565 725 
Q 2881 1009 2881 1497 
Q 2881 1984 2565 2268 
Q 2250 2553 1709 2553 
Q 1456 2553 1204 2497 
Q 953 2441 691 2322 
L 691 4666 
z
" transform="scale(0.015625)"/>
       </defs>
       <use xlink:href="#DejaVuSans-31"/>
       <use xlink:href="#DejaVuSans-2e" transform="translate(63.623047 0)"/>
       <use xlink:href="#DejaVuSans-35" transform="translate(95.410156 0)"/>
      </g>
     </g>
    </g>
    <g id="ytick_3">
     <g id="line2d_17">
      <path d="M 47.783125 190.086667 
L 698.450065 190.086667 
" clip-path="url(#pe8115311c8)" style="fill: none; stroke-dasharray: 2.96,1.28; stroke-dashoffset: 0; stroke: #b0b0b0; stroke-opacity: 0.4; stroke-width: 0.8"/>
     </g>
     <g id="line2d_18">
      <g>
       <use xlink:href="#mc1fcd91423" x="47.783125" y="190.086667" style="stroke: #000000; stroke-width: 0.8"/>
      </g>
     </g>
     <g id="text_10">
      <!-- 2.0 -->
      <g transform="translate(24.88 193.885885) scale(0.1 -0.1)">
       <use xlink:href="#DejaVuSans-32"/>
       <use xlink:href="#DejaVuSans-2e" transform="translate(63.623047 0)"/>
       <use xlink:href="#DejaVuSans-30" transform="translate(95.410156 0)"/>
      </g>
     </g>
    </g>
    <g id="ytick_4">
     <g id="line2d_19">
      <path d="M 47.783125 148.145 
L 698.450065 148.145 
" clip-path="url(#pe8115311c8)" style="fill: none; stroke-dasharray: 2.96,1.28; stroke-dashoffset: 0; stroke: #b0b0b0; stroke-opacity: 0.4; stroke-width: 0.8"/>
     </g>
     <g id="line2d_20">
      <g>
       <use xlink:href="#mc1fcd91423" x="47.783125" y="148.145" style="stroke: #000000; stroke-width: 0.8"/>
      </g>
     </g>
     <g id="text_11">
      <!-- 2.5 -->
      <g transform="translate(24.88 151.944219) scale(0.1 -0.1)">
       <use xlink:href="#DejaVuSans-32"/>
       <use xlink:href="#DejaVuSans-2e" transform="translate(63.623047 0)"/>
       <use xlink:href="#DejaVuSans-35" transform="translate(95.410156 0)"/>
      </g>
     </g>
    </g>
    <g id="ytick_5">
     <g id="line2d_21">
      <path d="M 47.783125 106.203333 
L 698.450065 106.203333 
" clip-path="url(#pe8115311c8)" style="fill: none; stroke-dasharray: 2.96,1.28; stroke-dashoffset: 0; stroke: #b0b0b0; stroke-opacity: 0.4; stroke-width: 0.8"/>
     </g>
     <g id="line2d_22">
      <g>
       <use xlink:href="#mc1fcd91423" x="47.783125" y="106.203333" style="stroke: #000000; stroke-width: 0.8"/>
      </g>
     </g>
     <g id="text_12">
      <!-- 3.0 -->
      <g transform="translate(24.88 110.002552) scale(0.1 -0.1)">
       <defs>
        <path id="DejaVuSans-33" d="M 2597 2516 
Q 3050 2419 3304 2112 
Q 3559 1806 3559 1356 
Q 3559 666 3084 287 
Q 2609 -91 1734 -91 
Q 1441 -91 1130 -33 
Q 819 25 488 141 
L 488 750 
Q 750 597 1062 519 
Q 1375 441 1716 441 
Q 2309 441 2620 675 
Q 2931 909 2931 1356 
Q 2931 1769 2642 2001 
Q 2353 2234 1838 2234 
L 1294 2234 
L 1294 2753 
L 1863 2753 
Q 2328 2753 2575 2939 
Q 2822 3125 2822 3475 
Q 2822 3834 2567 4026 
Q 2313 4219 1838 4219 
Q 1578 4219 1281 4162 
Q 984 4106 628 3988 
L 628 4550 
Q 988 4650 1302 4700 
Q 1616 4750 1894 4750 
Q 2613 4750 3031 4423 
Q 3450 4097 3450 3541 
Q 3450 3153 3228 2886 
Q 3006 2619 2597 2516 
z
" transform="scale(0.015625)"/>
       </defs>
       <use xlink:href="#DejaVuSans-33"/>
       <use xlink:href="#DejaVuSans-2e" transform="translate(63.623047 0)"/>
       <use xlink:href="#DejaVuSans-30" transform="translate(95.410156 0)"/>
      </g>
     </g>
    </g>
    <g id="ytick_6">
     <g id="line2d_23">
      <path d="M 47.783125 64.261667 
L 698.450065 64.261667 
" clip-path="url(#pe8115311c8)" style="fill: none; stroke-dasharray: 2.96,1.28; stroke-dashoffset: 0; stroke: #b0b0b0; stroke-opacity: 0.4; stroke-width: 0.8"/>
     </g>
     <g id="line2d_24">
      <g>
       <use xlink:href="#mc1fcd91423" x="47.783125" y="64.261667" style="stroke: #000000; stroke-width: 0.8"/>
      </g>
     </g>
     <g id="text_13">
      <!-- 3.5 -->
      <g transform="translate(24.88 68.060885) scale(0.1 -0.1)">
       <use xlink:href="#DejaVuSans-33"/>
       <use xlink:href="#DejaVuSans-2e" transform="translate(63.623047 0)"/>
       <use xlink:href="#DejaVuSans-35" transform="translate(95.410156 0)"/>
      </g>
     </g>
    </g>
    <g id="ytick_7">
     <g id="line2d_25">
      <path d="M 47.783125 22.32 
L 698.450065 22.32 
" clip-path="url(#pe8115311c8)" style="fill: none; stroke-dasharray: 2.96,1.28; stroke-dashoffset: 0; stroke: #b0b0b0; stroke-opacity: 0.4; stroke-width: 0.8"/>
     </g>
     <g id="line2d_26">
      <g>
       <use xlink:href="#mc1fcd91423" x="47.783125" y="22.32" style="stroke: #000000; stroke-width: 0.8"/>
      </g>
     </g>
     <g id="text_14">
      <!-- 4.0 -->
      <g transform="translate(24.88 26.119219) scale(0.1 -0.1)">
       <use xlink:href="#DejaVuSans-34"/>
       <use xlink:href="#DejaVuSans-2e" transform="translate(63.623047 0)"/>
       <use xlink:href="#DejaVuSans-30" transform="translate(95.410156 0)"/>
      </g>
     </g>
    </g>
    <g id="text_15">
     <!-- Running average $\bar{X}_n$ -->
     <g transform="translate(18.36 208.385) rotate(-90) scale(0.12 -0.12)">
      <defs>
       <path id="DejaVuSans-52" d="M 2841 2188 
Q 3044 2119 3236 1894 
Q 3428 1669 3622 1275 
L 4263 0 
L 3584 0 
L 2988 1197 
Q 2756 1666 2539 1819 
Q 2322 1972 1947 1972 
L 1259 1972 
L 1259 0 
L 628 0 
L 628 4666 
L 2053 4666 
Q 2853 4666 3247 4331 
Q 3641 3997 3641 3322 
Q 3641 2881 3436 2590 
Q 3231 2300 2841 2188 
z
M 1259 4147 
L 1259 2491 
L 2053 2491 
Q 2509 2491 2742 2702 
Q 2975 2913 2975 3322 
Q 2975 3731 2742 3939 
Q 2509 4147 2053 4147 
L 1259 4147 
z
" transform="scale(0.015625)"/>
       <path id="DejaVuSans-6e" d="M 3513 2113 
L 3513 0 
L 2938 0 
L 2938 2094 
Q 2938 2591 2744 2837 
Q 2550 3084 2163 3084 
Q 1697 3084 1428 2787 
Q 1159 2491 1159 1978 
L 1159 0 
L 581 0 
L 581 3500 
L 1159 3500 
L 1159 2956 
Q 1366 3272 1645 3428 
Q 1925 3584 2291 3584 
Q 2894 3584 3203 3211 
Q 3513 2838 3513 2113 
z
" transform="scale(0.015625)"/>
       <path id="DejaVuSans-69" d="M 603 3500 
L 1178 3500 
L 1178 0 
L 603 0 
L 603 3500 
z
M 603 4863 
L 1178 4863 
L 1178 4134 
L 603 4134 
L 603 4863 
z
" transform="scale(0.015625)"/>
       <path id="DejaVuSans-67" d="M 2906 1791 
Q 2906 2416 2648 2759 
Q 2391 3103 1925 3103 
Q 1463 3103 1205 2759 
Q 947 2416 947 1791 
Q 947 1169 1205 825 
Q 1463 481 1925 481 
Q 2391 481 2648 825 
Q 2906 1169 2906 1791 
z
M 3481 434 
Q 3481 -459 3084 -895 
Q 2688 -1331 1869 -1331 
Q 1566 -1331 1297 -1286 
Q 1028 -1241 775 -1147 
L 775 -588 
Q 1028 -725 1275 -790 
Q 1522 -856 1778 -856 
Q 2344 -856 2625 -561 
Q 2906 -266 2906 331 
L 2906 616 
Q 2728 306 2450 153 
Q 2172 0 1784 0 
Q 1141 0 747 490 
Q 353 981 353 1791 
Q 353 2603 747 3093 
Q 1141 3584 1784 3584 
Q 2172 3584 2450 3431 
Q 2728 3278 2906 2969 
L 2906 3500 
L 3481 3500 
L 3481 434 
z
" transform="scale(0.015625)"/>
       <path id="DejaVuSans-61" d="M 2194 1759 
Q 1497 1759 1228 1600 
Q 959 1441 959 1056 
Q 959 750 1161 570 
Q 1363 391 1709 391 
Q 2188 391 2477 730 
Q 2766 1069 2766 1631 
L 2766 1759 
L 2194 1759 
z
M 3341 1997 
L 3341 0 
L 2766 0 
L 2766 531 
Q 2569 213 2275 61 
Q 1981 -91 1556 -91 
Q 1019 -91 701 211 
Q 384 513 384 1019 
Q 384 1609 779 1909 
Q 1175 2209 1959 2209 
L 2766 2209 
L 2766 2266 
Q 2766 2663 2505 2880 
Q 2244 3097 1772 3097 
Q 1472 3097 1187 3025 
Q 903 2953 641 2809 
L 641 3341 
Q 956 3463 1253 3523 
Q 1550 3584 1831 3584 
Q 2591 3584 2966 3190 
Q 3341 2797 3341 1997 
z
" transform="scale(0.015625)"/>
       <path id="DejaVuSans-76" d="M 191 3500 
L 800 3500 
L 1894 563 
L 2988 3500 
L 3597 3500 
L 2284 0 
L 1503 0 
L 191 3500 
z
" transform="scale(0.015625)"/>
       <path id="DejaVuSans-304" d="M -2518 4769 
L -650 4769 
L -650 4306 
L -2518 4306 
L -2518 4769 
z
" transform="scale(0.015625)"/>
       <path id="DejaVuSans-Oblique-58" d="M 878 4666 
L 1516 4666 
L 2316 2981 
L 3763 4666 
L 4500 4666 
L 2578 2438 
L 3738 0 
L 3103 0 
L 2163 1966 
L 459 0 
L -275 0 
L 1906 2509 
L 878 4666 
z
" transform="scale(0.015625)"/>
      </defs>
      <use xlink:href="#DejaVuSans-52" transform="translate(0 0.359375)"/>
      <use xlink:href="#DejaVuSans-75" transform="translate(69.482422 0.359375)"/>
      <use xlink:href="#DejaVuSans-6e" transform="translate(132.861328 0.359375)"/>
      <use xlink:href="#DejaVuSans-6e" transform="translate(196.240234 0.359375)"/>
      <use xlink:href="#DejaVuSans-69" transform="translate(259.619141 0.359375)"/>
      <use xlink:href="#DejaVuSans-6e" transform="translate(287.402344 0.359375)"/>
      <use xlink:href="#DejaVuSans-67" transform="translate(350.78125 0.359375)"/>
      <use xlink:href="#DejaVuSans-20" transform="translate(414.257812 0.359375)"/>
      <use xlink:href="#DejaVuSans-61" transform="translate(446.044922 0.359375)"/>
      <use xlink:href="#DejaVuSans-76" transform="translate(507.324219 0.359375)"/>
      <use xlink:href="#DejaVuSans-65" transform="translate(566.503906 0.359375)"/>
      <use xlink:href="#DejaVuSans-72" transform="translate(628.027344 0.359375)"/>
      <use xlink:href="#DejaVuSans-61" transform="translate(669.140625 0.359375)"/>
      <use xlink:href="#DejaVuSans-67" transform="translate(730.419922 0.359375)"/>
      <use xlink:href="#DejaVuSans-65" transform="translate(793.896484 0.359375)"/>
      <use xlink:href="#DejaVuSans-20" transform="translate(855.419922 0.359375)"/>
      <use xlink:href="#DejaVuSans-304" transform="translate(954.677246 18.484375)"/>
      <use xlink:href="#DejaVuSans-Oblique-58" transform="translate(887.207031 0.359375)"/>
      <use xlink:href="#DejaVuSans-Oblique-6e" transform="translate(956.669922 -16.046875) scale(0.7)"/>
     </g>
    </g>
   </g>
   <g id="line2d_27">
    <path d="M 54.225372 106.203333 
L 60.667619 64.261667 
L 67.109866 134.164444 
L 73.552113 127.174167 
L 79.99436 122.98 
L 86.436607 106.203333 
L 92.878854 130.17 
L 99.3211 148.145 
L 105.763347 143.484815 
L 112.205594 148.145 
L 118.647841 144.332121 
L 125.090088 141.154722 
L 131.532335 138.466154 
L 137.974582 136.161667 
L 144.416829 128.572222 
L 150.859076 137.659583 
L 157.301323 130.874902 
L 163.74357 124.844074 
L 170.185817 119.44807 
L 176.628064 118.785833 
L 183.070311 122.181111 
L 189.512557 129.080606 
L 195.954804 131.733043 
L 202.397051 127.174167 
L 208.839298 122.98 
L 215.281545 125.561026 
L 221.723792 127.950864 
L 228.166039 130.17 
L 234.608286 126.451034 
L 241.050533 122.98 
L 247.49278 127.850645 
L 253.935027 132.416875 
L 260.377274 129.080606 
L 266.819521 130.874902 
L 273.261768 132.566667 
L 279.704014 136.494537 
L 286.146261 133.408739 
L 292.588508 137.107719 
L 299.030755 140.617009 
L 305.473002 139.756667 
L 311.915249 138.938293 
L 318.357496 138.158889 
L 324.799743 139.366512 
L 331.24199 136.706364 
L 337.684237 134.164444 
L 344.126484 131.733043 
L 350.568731 129.405106 
L 357.010978 128.921736 
L 363.453225 130.17 
L 369.895472 131.368333 
L 376.337718 130.874902 
L 382.779965 132.01359 
L 389.222212 131.526604 
L 395.664459 129.504259 
L 402.106706 129.080606 
L 408.548953 127.174167 
L 414.9912 125.33462 
L 421.433447 127.897299 
L 427.875694 127.529605 
L 434.317941 129.970278 
L 440.760188 129.580656 
L 447.202435 129.203602 
L 453.644682 131.501481 
L 460.086929 133.727552 
L 466.529175 133.304103 
L 472.971422 134.164444 
L 479.413669 132.495124 
L 485.855916 134.575637 
L 492.298163 132.948744 
L 498.74041 133.765 
L 505.182657 134.558263 
L 511.624904 135.329491 
L 518.067151 137.228676 
L 524.509398 137.942973 
L 530.951645 139.756667 
L 537.393892 140.418904 
L 543.836139 138.885152 
L 550.278386 137.390726 
L 556.720633 136.995949 
L 563.162879 135.5625 
L 569.605126 135.200041 
L 576.047373 133.823455 
L 582.48962 135.511968 
L 588.931867 134.164444 
L 595.374114 133.83549 
L 601.816361 133.514186 
L 608.258608 134.164444 
L 614.700855 135.753144 
L 621.143102 134.478614 
L 627.585349 135.096481 
L 634.027596 133.857179 
L 640.469843 132.644819 
L 646.91209 133.262473 
L 653.354336 133.866986 
L 659.796583 134.458772 
L 666.23883 135.038229 
L 672.681077 135.605739 
L 679.123324 134.449762 
L 685.565571 135.011751 
L 692.007818 136.401333 
" clip-path="url(#pe8115311c8)" style="fill: none; stroke: #4682b4; stroke-opacity: 0.7; stroke-width: 1.2; stroke-linecap: square"/>
   </g>
   <g id="line2d_28">
    <path d="M 54.225372 106.203333 
L 60.667619 148.145 
L 67.109866 162.125556 
L 73.552113 127.174167 
L 79.99436 139.756667 
L 86.436607 148.145 
L 92.878854 154.136667 
L 99.3211 137.659583 
L 105.763347 143.484815 
L 112.205594 139.756667 
L 118.647841 129.080606 
L 125.090088 127.174167 
L 131.532335 119.108462 
L 137.974582 124.178333 
L 144.416829 122.98 
L 150.859076 116.68875 
L 157.301323 125.940588 
L 163.74357 129.504259 
L 170.185817 123.862982 
L 176.628064 131.368333 
L 183.070311 126.175556 
L 189.512557 132.893485 
L 195.954804 135.380145 
L 202.397051 134.164444 
L 208.839298 139.756667 
L 215.281545 135.239872 
L 221.723792 137.271235 
L 228.166039 142.153333 
L 234.608286 138.021149 
L 241.050533 134.164444 
L 247.49278 130.556559 
L 253.935027 135.038229 
L 260.377274 139.248283 
L 266.819521 143.210686 
L 273.261768 142.153333 
L 279.704014 145.814907 
L 286.146261 149.278559 
L 292.588508 152.559912 
L 299.030755 151.371282 
L 305.473002 154.43625 
L 311.915249 151.213902 
L 318.357496 154.136667 
L 324.799743 151.071163 
L 331.24199 148.145 
L 337.684237 145.348889 
L 344.126484 144.497899 
L 350.568731 143.683121 
L 357.010978 142.902292 
L 363.453225 145.577143 
L 369.895472 143.112 
L 376.337718 142.388301 
L 382.779965 141.692436 
L 389.222212 144.188239 
L 395.664459 143.484815 
L 402.106706 145.857273 
L 408.548953 146.647083 
L 414.9912 145.937544 
L 421.433447 146.698736 
L 427.875694 148.855876 
L 434.317941 146.746944 
L 440.760188 146.082295 
L 447.202435 148.145 
L 453.644682 146.147778 
L 460.086929 144.212969 
L 466.529175 144.918718 
L 472.971422 146.87404 
L 479.413669 145.015025 
L 485.855916 144.444265 
L 492.298163 143.890048 
L 498.74041 144.55 
L 505.182657 142.828451 
L 511.624904 144.649861 
L 518.067151 144.123196 
L 524.509398 142.477207 
L 530.951645 140.875111 
L 537.393892 141.522632 
L 543.836139 141.063939 
L 550.278386 140.617009 
L 556.720633 142.305021 
L 563.162879 141.85375 
L 569.605126 143.484815 
L 576.047373 143.030163 
L 582.48962 143.597108 
L 588.931867 143.151944 
L 595.374114 144.69098 
L 601.816361 146.194225 
L 608.258608 146.698736 
L 614.700855 146.238561 
L 621.143102 145.788727 
L 627.585349 146.280926 
L 634.027596 145.840513 
L 640.469843 145.409674 
L 646.91209 146.792043 
L 653.354336 146.360248 
L 659.796583 145.937544 
L 666.23883 146.397431 
L 672.681077 146.847835 
L 679.123324 145.577143 
L 685.565571 146.87404 
L 692.007818 146.467333 
" clip-path="url(#pe8115311c8)" style="fill: none; stroke: #2e8b57; stroke-opacity: 0.7; stroke-width: 1.2; stroke-linecap: square"/>
   </g>
   <g id="line2d_29">
    <path d="M 54.225372 106.203333 
L 60.667619 64.261667 
L 67.109866 78.242222 
L 73.552113 127.174167 
L 79.99436 106.203333 
L 86.436607 134.164444 
L 92.878854 118.186667 
L 99.3211 106.203333 
L 105.763347 115.523704 
L 112.205594 131.368333 
L 118.647841 129.080606 
L 125.090088 127.174167 
L 131.532335 138.466154 
L 137.974582 136.161667 
L 144.416829 134.164444 
L 150.859076 142.902292 
L 157.301323 135.809216 
L 163.74357 143.484815 
L 170.185817 137.107719 
L 176.628064 135.5625 
L 183.070311 134.164444 
L 189.512557 132.893485 
L 195.954804 135.380145 
L 202.397051 130.669306 
L 208.839298 133.046 
L 215.281545 135.239872 
L 221.723792 140.378025 
L 228.166039 142.153333 
L 234.608286 146.698736 
L 241.050533 150.941111 
L 247.49278 152.203871 
L 253.935027 148.145 
L 260.377274 144.332121 
L 266.819521 140.743529 
L 273.261768 137.36 
L 279.704014 134.164444 
L 286.146261 135.675856 
L 292.588508 137.107719 
L 299.030755 136.315299 
L 305.473002 133.465417 
L 311.915249 134.846423 
L 318.357496 134.164444 
L 324.799743 131.563411 
L 331.24199 134.799924 
L 337.684237 134.164444 
L 344.126484 135.380145 
L 350.568731 138.328865 
L 357.010978 141.154722 
L 363.453225 143.865238 
L 369.895472 143.112 
L 376.337718 144.033072 
L 382.779965 146.531859 
L 389.222212 144.188239 
L 395.664459 146.591605 
L 402.106706 148.907576 
L 408.548953 148.145 
L 414.9912 147.409181 
L 421.433447 148.145 
L 427.875694 146.012373 
L 434.317941 145.348889 
L 440.760188 147.457432 
L 447.202435 148.145 
L 453.644682 150.142222 
L 460.086929 152.077031 
L 466.529175 151.371282 
L 472.971422 151.957879 
L 479.413669 150.022985 
L 485.855916 148.145 
L 492.298163 147.53715 
L 498.74041 146.946667 
L 505.182657 147.554272 
L 511.624904 145.814907 
L 518.067151 144.123196 
L 524.509398 142.477207 
L 530.951645 144.230444 
L 537.393892 142.62636 
L 543.836139 144.332121 
L 550.278386 144.918718 
L 556.720633 146.552278 
L 563.162879 147.096458 
L 569.605126 145.556008 
L 576.047373 144.05313 
L 582.48962 144.607751 
L 588.931867 144.150556 
L 595.374114 144.69098 
L 601.816361 144.24345 
L 608.258608 145.734559 
L 614.700855 147.19178 
L 621.143102 148.616255 
L 627.585349 147.212963 
L 634.027596 148.605897 
L 640.469843 148.145 
L 646.91209 149.497957 
L 653.354336 149.929752 
L 659.796583 150.352456 
L 666.23883 149.018785 
L 672.681077 149.442165 
L 679.123324 149.000952 
L 685.565571 150.263266 
L 692.007818 148.983833 
" clip-path="url(#pe8115311c8)" style="fill: none; stroke: #cc7000; stroke-opacity: 0.7; stroke-width: 1.2; stroke-linecap: square"/>
   </g>
   <g id="line2d_30">
    <path d="M 54.225372 273.97 
L 60.667619 273.97 
L 67.109866 218.047778 
L 73.552113 211.0575 
L 79.99436 206.863333 
L 86.436607 218.047778 
L 92.878854 190.086667 
L 99.3211 190.086667 
L 105.763347 171.445926 
L 112.205594 173.31 
L 118.647841 159.583636 
L 125.090088 155.135278 
L 131.532335 144.918718 
L 137.974582 142.153333 
L 144.416829 139.756667 
L 150.859076 132.416875 
L 157.301323 130.874902 
L 163.74357 138.82463 
L 170.185817 137.107719 
L 176.628064 139.756667 
L 183.070311 134.164444 
L 189.512557 140.519242 
L 195.954804 135.380145 
L 202.397051 137.659583 
L 208.839298 139.756667 
L 215.281545 141.692436 
L 221.723792 140.378025 
L 228.166039 139.1575 
L 234.608286 135.128621 
L 241.050533 131.368333 
L 247.49278 135.968387 
L 253.935027 140.280937 
L 260.377274 136.706364 
L 266.819521 135.809216 
L 273.261768 137.36 
L 279.704014 134.164444 
L 286.146261 137.942973 
L 292.588508 137.107719 
L 299.030755 134.164444 
L 305.473002 131.368333 
L 311.915249 130.754553 
L 318.357496 128.172778 
L 324.799743 127.66186 
L 331.24199 129.080606 
L 337.684237 128.572222 
L 344.126484 128.085942 
L 350.568731 127.620355 
L 357.010978 125.426597 
L 363.453225 123.322381 
L 369.895472 122.98 
L 376.337718 121.006275 
L 382.779965 123.947885 
L 389.222212 126.778491 
L 395.664459 124.844074 
L 402.106706 122.98 
L 408.548953 122.680417 
L 414.9912 123.862982 
L 421.433447 122.112241 
L 427.875694 124.686102 
L 434.317941 124.378056 
L 440.760188 122.704973 
L 447.202435 125.144731 
L 453.644682 127.507037 
L 460.086929 128.484844 
L 466.529175 128.142051 
L 472.971422 127.809646 
L 479.413669 128.739154 
L 485.855916 129.641324 
L 492.298163 129.301643 
L 498.74041 128.971667 
L 505.182657 127.469531 
L 511.624904 126.00912 
L 518.067151 126.886895 
L 524.509398 125.473829 
L 530.951645 127.453778 
L 537.393892 126.070439 
L 543.836139 124.72303 
L 550.278386 126.636453 
L 556.720633 127.43962 
L 563.162879 129.27125 
L 569.605126 127.950864 
L 576.047373 128.708618 
L 582.48962 127.426827 
L 588.931867 129.171389 
L 595.374114 130.874902 
L 601.816361 129.612636 
L 608.258608 129.343563 
L 614.700855 129.080606 
L 621.143102 130.708577 
L 627.585349 132.30037 
L 634.027596 132.01359 
L 640.469843 131.733043 
L 646.91209 130.556559 
L 653.354336 129.405106 
L 659.796583 129.160877 
L 666.23883 128.047951 
L 672.681077 126.957973 
L 679.123324 127.602143 
L 685.565571 126.538687 
L 692.007818 128.013 
" clip-path="url(#pe8115311c8)" style="fill: none; stroke: #6a0dad; stroke-opacity: 0.7; stroke-width: 1.2; stroke-linecap: square"/>
   </g>
   <g id="line2d_31">
    <path d="M 54.225372 22.32 
L 60.667619 22.32 
L 67.109866 50.281111 
L 73.552113 106.203333 
L 79.99436 89.426667 
L 86.436607 78.242222 
L 92.878854 94.22 
L 99.3211 85.2325 
L 105.763347 78.242222 
L 112.205594 89.426667 
L 118.647841 90.951818 
L 125.090088 85.2325 
L 131.532335 93.298205 
L 137.974582 106.203333 
L 144.416829 106.203333 
L 150.859076 116.68875 
L 157.301323 125.940588 
L 163.74357 129.504259 
L 170.185817 123.862982 
L 176.628064 127.174167 
L 183.070311 130.17 
L 189.512557 132.893485 
L 195.954804 135.380145 
L 202.397051 134.164444 
L 208.839298 129.690667 
L 215.281545 135.239872 
L 221.723792 140.378025 
L 228.166039 136.161667 
L 234.608286 140.913678 
L 241.050533 136.960556 
L 247.49278 141.380215 
L 253.935027 142.902292 
L 260.377274 146.87404 
L 266.819521 143.210686 
L 273.261768 139.756667 
L 279.704014 136.494537 
L 286.146261 133.408739 
L 292.588508 130.485351 
L 299.030755 129.862735 
L 305.473002 129.27125 
L 311.915249 132.800488 
L 318.357496 130.17 
L 324.799743 133.514186 
L 331.24199 130.987045 
L 337.684237 128.572222 
L 344.126484 128.085942 
L 350.568731 127.620355 
L 357.010978 128.921736 
L 363.453225 128.458095 
L 369.895472 129.690667 
L 376.337718 130.874902 
L 382.779965 132.01359 
L 389.222212 133.109308 
L 395.664459 134.164444 
L 402.106706 136.706364 
L 408.548953 136.161667 
L 414.9912 137.107719 
L 421.433447 135.128621 
L 427.875694 134.638362 
L 434.317941 134.164444 
L 440.760188 135.081202 
L 447.202435 137.321344 
L 453.644682 138.158889 
L 460.086929 140.280937 
L 466.529175 138.466154 
L 472.971422 137.977323 
L 479.413669 136.251095 
L 485.855916 138.276373 
L 492.298163 140.242947 
L 498.74041 138.558333 
L 505.182657 140.46554 
L 511.624904 138.82463 
L 518.067151 138.377763 
L 524.509398 136.809414 
L 530.951645 136.401333 
L 537.393892 134.900263 
L 543.836139 136.706364 
L 550.278386 135.239872 
L 556.720633 136.995949 
L 563.162879 135.5625 
L 569.605126 134.164444 
L 576.047373 134.846423 
L 582.48962 136.52261 
L 588.931867 137.160278 
L 595.374114 138.769804 
L 601.816361 139.366512 
L 608.258608 138.985326 
L 614.700855 137.659583 
L 621.143102 139.191161 
L 627.585349 140.688704 
L 634.027596 139.387949 
L 640.469843 140.850797 
L 646.91209 142.282186 
L 653.354336 142.790745 
L 659.796583 144.171579 
L 666.23883 143.776076 
L 672.681077 143.388729 
L 679.123324 142.153333 
L 685.565571 143.484815 
L 692.007818 142.273167 
" clip-path="url(#pe8115311c8)" style="fill: none; stroke: #cc0000; stroke-opacity: 0.7; stroke-width: 1.2; stroke-linecap: square"/>
   </g>
   <g id="line2d_32">
    <path d="M 54.225372 106.203333 
L 60.667619 190.086667 
L 67.109866 218.047778 
L 73.552113 169.115833 
L 79.99436 156.533333 
L 86.436607 176.106111 
L 92.878854 154.136667 
L 99.3211 148.145 
L 105.763347 134.164444 
L 112.205594 139.756667 
L 118.647841 151.957879 
L 125.090088 155.135278 
L 131.532335 151.371282 
L 137.974582 154.136667 
L 144.416829 156.533333 
L 150.859076 153.387708 
L 157.301323 145.677843 
L 163.74357 148.145 
L 170.185817 141.522632 
L 176.628064 143.950833 
L 183.070311 138.158889 
L 189.512557 136.706364 
L 195.954804 139.027246 
L 202.397051 137.659583 
L 208.839298 139.756667 
L 215.281545 138.466154 
L 221.723792 137.271235 
L 228.166039 139.1575 
L 234.608286 140.913678 
L 241.050533 142.552778 
L 247.49278 146.792043 
L 253.935027 142.902292 
L 260.377274 146.87404 
L 266.819521 150.612157 
L 273.261768 149.343333 
L 279.704014 150.475093 
L 286.146261 147.011441 
L 292.588508 145.937544 
L 299.030755 149.220427 
L 305.473002 150.242083 
L 311.915249 149.167967 
L 318.357496 150.142222 
L 324.799743 149.120388 
L 331.24199 150.051439 
L 337.684237 152.805185 
L 344.126484 149.968551 
L 350.568731 152.606879 
L 357.010978 149.892569 
L 363.453225 150.712857 
L 369.895472 149.822667 
L 376.337718 152.256928 
L 382.779965 149.758141 
L 389.222212 152.101761 
L 395.664459 149.698395 
L 402.106706 151.957879 
L 408.548953 149.642917 
L 414.9912 147.409181 
L 421.433447 148.145 
L 427.875694 146.012373 
L 434.317941 146.746944 
L 440.760188 144.707158 
L 447.202435 144.086129 
L 453.644682 143.484815 
L 460.086929 142.902292 
L 466.529175 141.047179 
L 472.971422 141.790202 
L 479.413669 142.511045 
L 485.855916 140.743529 
L 492.298163 140.242947 
L 498.74041 139.756667 
L 505.182657 140.46554 
L 511.624904 139.989676 
L 518.067151 141.825023 
L 524.509398 142.477207 
L 530.951645 141.993556 
L 537.393892 142.62636 
L 543.836139 144.332121 
L 550.278386 144.918718 
L 556.720633 145.490464 
L 563.162879 146.047917 
L 569.605126 146.591605 
L 576.047373 148.145 
L 582.48962 146.629036 
L 588.931867 147.146389 
L 595.374114 147.651569 
L 601.816361 147.169612 
L 608.258608 147.662912 
L 614.700855 147.19178 
L 621.143102 145.788727 
L 627.585349 147.212963 
L 634.027596 148.605897 
L 640.469843 147.233225 
L 646.91209 148.595986 
L 653.354336 147.252624 
L 659.796583 145.937544 
L 666.23883 144.649861 
L 672.681077 145.983058 
L 679.123324 145.577143 
L 685.565571 144.332121 
L 692.007818 144.789667 
" clip-path="url(#pe8115311c8)" style="fill: none; stroke: #888888; stroke-opacity: 0.7; stroke-width: 1.2; stroke-linecap: square"/>
   </g>
   <g id="line2d_33">
    <path d="M 54.225372 273.97 
L 60.667619 148.145 
L 67.109866 106.203333 
L 73.552113 127.174167 
L 79.99436 122.98 
L 86.436607 120.183889 
L 92.878854 118.186667 
L 99.3211 106.203333 
L 105.763347 96.882963 
L 112.205594 89.426667 
L 118.647841 106.203333 
L 125.090088 113.193611 
L 131.532335 106.203333 
L 137.974582 112.195 
L 144.416829 117.387778 
L 150.859076 116.68875 
L 157.301323 125.940588 
L 163.74357 120.183889 
L 170.185817 119.44807 
L 176.628064 118.785833 
L 183.070311 114.192222 
L 189.512557 117.64197 
L 195.954804 117.144638 
L 202.397051 120.183889 
L 208.839298 126.335333 
L 215.281545 128.787308 
L 221.723792 134.164444 
L 228.166039 136.161667 
L 234.608286 135.128621 
L 241.050533 134.164444 
L 247.49278 138.674301 
L 253.935027 135.038229 
L 260.377274 139.248283 
L 266.819521 143.210686 
L 273.261768 144.55 
L 279.704014 145.814907 
L 286.146261 149.278559 
L 292.588508 148.145 
L 299.030755 149.220427 
L 305.473002 146.047917 
L 311.915249 147.122033 
L 318.357496 148.145 
L 324.799743 145.218837 
L 331.24199 148.145 
L 337.684237 145.348889 
L 344.126484 148.145 
L 350.568731 150.822128 
L 357.010978 153.387708 
L 363.453225 150.712857 
L 369.895472 153.178 
L 376.337718 152.256928 
L 382.779965 149.758141 
L 389.222212 148.936352 
L 395.664459 151.25179 
L 402.106706 151.957879 
L 408.548953 154.136667 
L 414.9912 153.295731 
L 421.433447 152.483793 
L 427.875694 150.277627 
L 434.317941 150.941111 
L 440.760188 148.832568 
L 447.202435 148.145 
L 453.644682 150.142222 
L 460.086929 150.766354 
L 466.529175 152.661795 
L 472.971422 154.499798 
L 479.413669 155.030945 
L 485.855916 153.079314 
L 492.298163 154.831353 
L 498.74041 154.136667 
L 505.182657 155.82446 
L 511.624904 156.300324 
L 518.067151 156.763151 
L 524.509398 157.213468 
L 530.951645 155.414889 
L 537.393892 156.974825 
L 543.836139 155.226061 
L 550.278386 153.522137 
L 556.720633 153.984979 
L 563.162879 154.43625 
L 569.605126 152.805185 
L 576.047373 154.282805 
L 582.48962 153.703534 
L 588.931867 152.139444 
L 595.374114 153.572745 
L 601.816361 153.997326 
L 608.258608 154.412146 
L 614.700855 155.770758 
L 621.143102 155.21382 
L 627.585349 155.601296 
L 634.027596 155.980256 
L 640.469843 156.350978 
L 646.91209 157.615699 
L 653.354336 156.176383 
L 659.796583 156.533333 
L 666.23883 155.135278 
L 672.681077 154.630825 
L 679.123324 154.992619 
L 685.565571 155.347104 
L 692.007818 154.855667 
" clip-path="url(#pe8115311c8)" style="fill: none; stroke: #2196f3; stroke-opacity: 0.7; stroke-width: 1.2; stroke-linecap: square"/>
   </g>
   <g id="line2d_34">
    <path d="M 54.225372 190.086667 
L 60.667619 106.203333 
L 67.109866 162.125556 
L 73.552113 127.174167 
L 79.99436 156.533333 
L 86.436607 176.106111 
L 92.878854 154.136667 
L 99.3211 137.659583 
L 105.763347 124.844074 
L 112.205594 114.591667 
L 118.647841 113.829091 
L 125.090088 120.183889 
L 131.532335 132.01359 
L 137.974582 124.178333 
L 144.416829 117.387778 
L 150.859076 111.446042 
L 157.301323 111.137647 
L 163.74357 106.203333 
L 170.185817 101.788421 
L 176.628064 97.815 
L 183.070311 102.208889 
L 189.512557 102.390455 
L 195.954804 98.90913 
L 202.397051 106.203333 
L 208.839298 112.914 
L 215.281545 119.108462 
L 221.723792 118.630494 
L 228.166039 118.186667 
L 234.608286 123.558506 
L 241.050533 120.183889 
L 247.49278 119.732903 
L 253.935027 124.552812 
L 260.377274 129.080606 
L 266.819521 125.940588 
L 273.261768 127.773333 
L 279.704014 127.174167 
L 286.146261 124.34027 
L 292.588508 128.277895 
L 299.030755 132.01359 
L 305.473002 129.27125 
L 311.915249 128.708618 
L 318.357496 130.17 
L 324.799743 131.563411 
L 331.24199 134.799924 
L 337.684237 134.164444 
L 344.126484 135.380145 
L 350.568731 134.759362 
L 357.010978 134.164444 
L 363.453225 137.017619 
L 369.895472 138.079 
L 376.337718 135.809216 
L 382.779965 138.466154 
L 389.222212 139.440126 
L 395.664459 140.378025 
L 402.106706 141.281818 
L 408.548953 142.153333 
L 414.9912 142.994269 
L 421.433447 142.359943 
L 427.875694 144.590621 
L 434.317941 143.950833 
L 440.760188 141.956885 
L 447.202435 142.733172 
L 453.644682 144.816296 
L 460.086929 145.523646 
L 466.529175 147.499744 
L 472.971422 146.87404 
L 479.413669 148.770995 
L 485.855916 146.911422 
L 492.298163 145.105749 
L 498.74041 146.946667 
L 505.182657 148.735728 
L 511.624904 150.475093 
L 518.067151 152.166804 
L 524.509398 150.412117 
L 530.951645 150.941111 
L 537.393892 152.559912 
L 543.836139 154.136667 
L 550.278386 152.446709 
L 556.720633 150.799536 
L 563.162879 150.242083 
L 569.605126 151.769588 
L 576.047373 151.213902 
L 582.48962 149.660964 
L 588.931867 148.145 
L 595.374114 148.638431 
L 601.816361 150.095775 
L 608.258608 149.591264 
L 614.700855 148.145 
L 621.143102 146.731236 
L 627.585349 146.280926 
L 634.027596 146.762308 
L 640.469843 145.409674 
L 646.91209 146.792043 
L 653.354336 145.467872 
L 659.796583 146.820526 
L 666.23883 146.397431 
L 672.681077 147.712612 
L 679.123324 147.289048 
L 685.565571 148.568653 
L 692.007818 148.145 
" clip-path="url(#pe8115311c8)" style="fill: none; stroke: #ff5722; stroke-opacity: 0.7; stroke-width: 1.2; stroke-linecap: square"/>
   </g>
   <g id="patch_3">
    <path d="M 47.783125 273.97 
L 47.783125 22.32 
" style="fill: none; stroke: #000000; stroke-width: 0.8; stroke-linejoin: miter; stroke-linecap: square"/>
   </g>
   <g id="patch_4">
    <path d="M 698.450065 273.97 
L 698.450065 22.32 
" style="fill: none; stroke: #000000; stroke-width: 0.8; stroke-linejoin: miter; stroke-linecap: square"/>
   </g>
   <g id="patch_5">
    <path d="M 47.783125 273.97 
L 698.450065 273.97 
" style="fill: none; stroke: #000000; stroke-width: 0.8; stroke-linejoin: miter; stroke-linecap: square"/>
   </g>
   <g id="patch_6">
    <path d="M 47.783125 22.32 
L 698.450065 22.32 
" style="fill: none; stroke: #000000; stroke-width: 0.8; stroke-linejoin: miter; stroke-linecap: square"/>
   </g>
   <g id="text_16">
    <!-- 8 independent simulations all converge to $\mu = 2.5$ -->
    <g style="fill: #808080" transform="translate(223.776595 16.32) scale(0.12 -0.12)">
     <defs>
      <path id="DejaVuSans-64" d="M 2906 2969 
L 2906 4863 
L 3481 4863 
L 3481 0 
L 2906 0 
L 2906 525 
Q 2725 213 2448 61 
Q 2172 -91 1784 -91 
Q 1150 -91 751 415 
Q 353 922 353 1747 
Q 353 2572 751 3078 
Q 1150 3584 1784 3584 
Q 2172 3584 2448 3432 
Q 2725 3281 2906 2969 
z
M 947 1747 
Q 947 1113 1208 752 
Q 1469 391 1925 391 
Q 2381 391 2643 752 
Q 2906 1113 2906 1747 
Q 2906 2381 2643 2742 
Q 2381 3103 1925 3103 
Q 1469 3103 1208 2742 
Q 947 2381 947 1747 
z
" transform="scale(0.015625)"/>
      <path id="DejaVuSans-70" d="M 1159 525 
L 1159 -1331 
L 581 -1331 
L 581 3500 
L 1159 3500 
L 1159 2969 
Q 1341 3281 1617 3432 
Q 1894 3584 2278 3584 
Q 2916 3584 3314 3078 
Q 3713 2572 3713 1747 
Q 3713 922 3314 415 
Q 2916 -91 2278 -91 
Q 1894 -91 1617 61 
Q 1341 213 1159 525 
z
M 3116 1747 
Q 3116 2381 2855 2742 
Q 2594 3103 2138 3103 
Q 1681 3103 1420 2742 
Q 1159 2381 1159 1747 
Q 1159 1113 1420 752 
Q 1681 391 2138 391 
Q 2594 391 2855 752 
Q 3116 1113 3116 1747 
z
" transform="scale(0.015625)"/>
      <path id="DejaVuSans-74" d="M 1172 4494 
L 1172 3500 
L 2356 3500 
L 2356 3053 
L 1172 3053 
L 1172 1153 
Q 1172 725 1289 603 
Q 1406 481 1766 481 
L 2356 481 
L 2356 0 
L 1766 0 
Q 1100 0 847 248 
Q 594 497 594 1153 
L 594 3053 
L 172 3053 
L 172 3500 
L 594 3500 
L 594 4494 
L 1172 4494 
z
" transform="scale(0.015625)"/>
      <path id="DejaVuSans-63" d="M 3122 3366 
L 3122 2828 
Q 2878 2963 2633 3030 
Q 2388 3097 2138 3097 
Q 1578 3097 1268 2742 
Q 959 2388 959 1747 
Q 959 1106 1268 751 
Q 1578 397 2138 397 
Q 2388 397 2633 464 
Q 2878 531 3122 666 
L 3122 134 
Q 2881 22 2623 -34 
Q 2366 -91 2075 -91 
Q 1284 -91 818 406 
Q 353 903 353 1747 
Q 353 2603 823 3093 
Q 1294 3584 2113 3584 
Q 2378 3584 2631 3529 
Q 2884 3475 3122 3366 
z
" transform="scale(0.015625)"/>
      <path id="DejaVuSans-Oblique-3bc" d="M -84 -1331 
L 856 3500 
L 1434 3500 
L 1009 1322 
Q 997 1256 987 1175 
Q 978 1094 978 1013 
Q 978 722 1161 565 
Q 1344 409 1684 409 
Q 2147 409 2431 671 
Q 2716 934 2816 1459 
L 3213 3500 
L 3788 3500 
L 3266 809 
Q 3253 750 3248 706 
Q 3244 663 3244 628 
Q 3244 531 3283 486 
Q 3322 441 3406 441 
Q 3438 441 3492 456 
Q 3547 472 3647 513 
L 3559 50 
Q 3422 -19 3297 -55 
Q 3172 -91 3053 -91 
Q 2847 -91 2730 40 
Q 2613 172 2613 403 
Q 2438 153 2195 31 
Q 1953 -91 1625 -91 
Q 1334 -91 1117 43 
Q 900 178 831 397 
L 494 -1331 
L -84 -1331 
z
" transform="scale(0.015625)"/>
      <path id="DejaVuSans-3d" d="M 678 2906 
L 4684 2906 
L 4684 2381 
L 678 2381 
L 678 2906 
z
M 678 1631 
L 4684 1631 
L 4684 1100 
L 678 1100 
L 678 1631 
z
" transform="scale(0.015625)"/>
     </defs>
     <use xlink:href="#DejaVuSans-38" transform="translate(0 0.015625)"/>
     <use xlink:href="#DejaVuSans-20" transform="translate(63.623047 0.015625)"/>
     <use xlink:href="#DejaVuSans-69" transform="translate(95.410156 0.015625)"/>
     <use xlink:href="#DejaVuSans-6e" transform="translate(123.193359 0.015625)"/>
     <use xlink:href="#DejaVuSans-64" transform="translate(186.572266 0.015625)"/>
     <use xlink:href="#DejaVuSans-65" transform="translate(250.048828 0.015625)"/>
     <use xlink:href="#DejaVuSans-70" transform="translate(311.572266 0.015625)"/>
     <use xlink:href="#DejaVuSans-65" transform="translate(375.048828 0.015625)"/>
     <use xlink:href="#DejaVuSans-6e" transform="translate(436.572266 0.015625)"/>
     <use xlink:href="#DejaVuSans-64" transform="translate(499.951172 0.015625)"/>
     <use xlink:href="#DejaVuSans-65" transform="translate(563.427734 0.015625)"/>
     <use xlink:href="#DejaVuSans-6e" transform="translate(624.951172 0.015625)"/>
     <use xlink:href="#DejaVuSans-74" transform="translate(688.330078 0.015625)"/>
     <use xlink:href="#DejaVuSans-20" transform="translate(727.539062 0.015625)"/>
     <use xlink:href="#DejaVuSans-73" transform="translate(759.326172 0.015625)"/>
     <use xlink:href="#DejaVuSans-69" transform="translate(811.425781 0.015625)"/>
     <use xlink:href="#DejaVuSans-6d" transform="translate(839.208984 0.015625)"/>
     <use xlink:href="#DejaVuSans-75" transform="translate(936.621094 0.015625)"/>
     <use xlink:href="#DejaVuSans-6c" transform="translate(1000 0.015625)"/>
     <use xlink:href="#DejaVuSans-61" transform="translate(1027.783203 0.015625)"/>
     <use xlink:href="#DejaVuSans-74" transform="translate(1089.0625 0.015625)"/>
     <use xlink:href="#DejaVuSans-69" transform="translate(1128.271484 0.015625)"/>
     <use xlink:href="#DejaVuSans-6f" transform="translate(1156.054688 0.015625)"/>
     <use xlink:href="#DejaVuSans-6e" transform="translate(1217.236328 0.015625)"/>
     <use xlink:href="#DejaVuSans-73" transform="translate(1280.615234 0.015625)"/>
     <use xlink:href="#DejaVuSans-20" transform="translate(1332.714844 0.015625)"/>
     <use xlink:href="#DejaVuSans-61" transform="translate(1364.501953 0.015625)"/>
     <use xlink:href="#DejaVuSans-6c" transform="translate(1425.78125 0.015625)"/>
     <use xlink:href="#DejaVuSans-6c" transform="translate(1453.564453 0.015625)"/>
     <use xlink:href="#DejaVuSans-20" transform="translate(1481.347656 0.015625)"/>
     <use xlink:href="#DejaVuSans-63" transform="translate(1513.134766 0.015625)"/>
     <use xlink:href="#DejaVuSans-6f" transform="translate(1568.115234 0.015625)"/>
     <use xlink:href="#DejaVuSans-6e" transform="translate(1629.296875 0.015625)"/>
     <use xlink:href="#DejaVuSans-76" transform="translate(1692.675781 0.015625)"/>
     <use xlink:href="#DejaVuSans-65" transform="translate(1751.855469 0.015625)"/>
     <use xlink:href="#DejaVuSans-72" transform="translate(1813.378906 0.015625)"/>
     <use xlink:href="#DejaVuSans-67" transform="translate(1854.492188 0.015625)"/>
     <use xlink:href="#DejaVuSans-65" transform="translate(1917.96875 0.015625)"/>
     <use xlink:href="#DejaVuSans-20" transform="translate(1979.492188 0.015625)"/>
     <use xlink:href="#DejaVuSans-74" transform="translate(2011.279297 0.015625)"/>
     <use xlink:href="#DejaVuSans-6f" transform="translate(2050.488281 0.015625)"/>
     <use xlink:href="#DejaVuSans-20" transform="translate(2111.669922 0.015625)"/>
     <use xlink:href="#DejaVuSans-Oblique-3bc" transform="translate(2143.457031 0.015625)"/>
     <use xlink:href="#DejaVuSans-3d" transform="translate(2226.5625 0.015625)"/>
     <use xlink:href="#DejaVuSans-32" transform="translate(2329.833984 0.015625)"/>
     <use xlink:href="#DejaVuSans-2e" transform="translate(2393.457031 0.015625)"/>
     <use xlink:href="#DejaVuSans-35" transform="translate(2425.244141 0.015625)"/>
    </g>
   </g>
   <g id="legend_1">
    <g id="patch_7">
     <path d="M 617.490065 47.288281 
L 690.750065 47.288281 
Q 692.950065 47.288281 692.950065 45.088281 
L 692.950065 30.02 
Q 692.950065 27.82 690.750065 27.82 
L 617.490065 27.82 
Q 615.290065 27.82 615.290065 30.02 
L 615.290065 45.088281 
Q 615.290065 47.288281 617.490065 47.288281 
z
" style="fill: #ffffff; opacity: 0.8; stroke: #cccccc; stroke-linejoin: miter"/>
    </g>
    <g id="line2d_35">
     <path d="M 619.690065 36.728281 
L 630.690065 36.728281 
L 641.690065 36.728281 
" style="fill: none; stroke-dasharray: 9.25,4; stroke-dashoffset: 0; stroke: #cc0000; stroke-width: 2.5"/>
    </g>
    <g id="text_17">
     <!-- $\mu = 2.5$ -->
     <g transform="translate(650.490065 40.578281) scale(0.11 -0.11)">
      <use xlink:href="#DejaVuSans-Oblique-3bc" transform="translate(0 0.78125)"/>
      <use xlink:href="#DejaVuSans-3d" transform="translate(83.105469 0.78125)"/>
      <use xlink:href="#DejaVuSans-32" transform="translate(186.376953 0.78125)"/>
      <use xlink:href="#DejaVuSans-2e" transform="translate(250 0.78125)"/>
      <use xlink:href="#DejaVuSans-35" transform="translate(281.787109 0.78125)"/>
     </g>
    </g>
   </g>
   <g id="line2d_36">
    <path d="M 47.783125 148.145 
L 698.450065 148.145 
" clip-path="url(#pe8115311c8)" style="fill: none; stroke-dasharray: 9.25,4; stroke-dashoffset: 0; stroke: #cc0000; stroke-width: 2.5"/>
   </g>
  </g>
 </g>
 <defs>
  <clipPath id="pe8115311c8">
   <rect x="47.783125" y="22.32" width="650.66694" height="251.65"/>
  </clipPath>
 </defs>
</svg>
