<?xml version="1.0" encoding="utf-8" standalone="no"?>
<!DOCTYPE svg PUBLIC "-//W3C//DTD SVG 1.1//EN"
  "http://www.w3.org/Graphics/SVG/1.1/DTD/svg11.dtd">
<svg xmlns:xlink="http://www.w3.org/1999/xlink" width="856.8pt" height="155.914717pt" viewBox="0 0 856.8 155.914717" xmlns="http://www.w3.org/2000/svg" version="1.1">
 <metadata>
  <rdf:RDF xmlns:dc="http://purl.org/dc/elements/1.1/" xmlns:cc="http://creativecommons.org/ns#" xmlns:rdf="http://www.w3.org/1999/02/22-rdf-syntax-ns#">
   <cc:Work>
    <dc:type rdf:resource="http://purl.org/dc/dcmitype/StillImage"/>
    <dc:date>2026-07-22T14:22:27.547540</dc:date>
    <dc:format>image/svg+xml</dc:format>
    <dc:creator>
     <cc:Agent>
      <dc:title>Matplotlib v3.10.8, https://matplotlib.org/</dc:title>
     </cc:Agent>
    </dc:creator>
   </cc:Work>
  </rdf:RDF>
 </metadata>
 <defs>
  <style type="text/css">*{stroke-linejoin: round; stroke-linecap: butt}</style>
 </defs>
 <g id="figure_1">
  <g id="patch_1">
   <path d="M 0 155.914717 
L 856.8 155.914717 
L 856.8 0 
L 0 0 
z
" style="fill: #ffffff"/>
  </g>
  <g id="axes_1">
   <g id="patch_2">
    <path d="M 70.777358 127.257358 
C 80.893906 127.257358 90.597468 123.238012 97.750947 116.084532 
C 104.904427 108.931053 108.923774 99.227491 108.923774 89.110943 
C 108.923774 78.994396 104.904427 69.290834 97.750947 62.137355 
C 90.597468 54.983875 80.893906 50.964528 70.777358 50.964528 
C 60.660811 50.964528 50.957249 54.983875 43.80377 62.137355 
C 36.65029 69.290834 32.630943 78.994396 32.630943 89.110943 
C 32.630943 99.227491 36.65029 108.931053 43.80377 116.084532 
C 50.957249 123.238012 60.660811 127.257358 70.777358 127.257358 
L 70.777358 127.257358 
z
" clip-path="url(#p7e653014e1)" style="fill: none; stroke-dasharray: 7.4,3.2; stroke-dashoffset: 0; stroke: #2e8b57; stroke-width: 2; stroke-linejoin: miter"/>
   </g>
   <g id="patch_3">
    <path d="M 309.192453 127.257358 
C 319.309 127.257358 329.012562 123.238012 336.166042 116.084532 
C 343.319521 108.931053 347.338868 99.227491 347.338868 89.110943 
C 347.338868 78.994396 343.319521 69.290834 336.166042 62.137355 
C 329.012562 54.983875 319.309 50.964528 309.192453 50.964528 
C 299.075905 50.964528 289.372343 54.983875 282.218864 62.137355 
C 275.065385 69.290834 271.046038 78.994396 271.046038 89.110943 
C 271.046038 99.227491 275.065385 108.931053 282.218864 116.084532 
C 289.372343 123.238012 299.075905 127.257358 309.192453 127.257358 
L 309.192453 127.257358 
z
" clip-path="url(#p7e653014e1)" style="fill: none; stroke-dasharray: 7.4,3.2; stroke-dashoffset: 0; stroke: #2e8b57; stroke-width: 2; stroke-linejoin: miter"/>
   </g>
   <g id="patch_4">
    <path d="M 468.135849 127.257358 
C 478.252397 127.257358 487.955958 123.238012 495.109438 116.084532 
C 502.262917 108.931053 506.282264 99.227491 506.282264 89.110943 
C 506.282264 78.994396 502.262917 69.290834 495.109438 62.137355 
C 487.955958 54.983875 478.252397 50.964528 468.135849 50.964528 
C 458.019302 50.964528 448.31574 54.983875 441.16226 62.137355 
C 434.008781 69.290834 429.989434 78.994396 429.989434 89.110943 
C 429.989434 99.227491 434.008781 108.931053 441.16226 116.084532 
C 448.31574 123.238012 458.019302 127.257358 468.135849 127.257358 
L 468.135849 127.257358 
z
" clip-path="url(#p7e653014e1)" style="fill: none; stroke-dasharray: 7.4,3.2; stroke-dashoffset: 0; stroke: #2e8b57; stroke-width: 2; stroke-linejoin: miter"/>
   </g>
   <g id="patch_5">
    <path d="M 706.550943 127.257358 
C 716.667491 127.257358 726.371053 123.238012 733.524532 116.084532 
C 740.678012 108.931053 744.697358 99.227491 744.697358 89.110943 
C 744.697358 78.994396 740.678012 69.290834 733.524532 62.137355 
C 726.371053 54.983875 716.667491 50.964528 706.550943 50.964528 
C 696.434396 50.964528 686.730834 54.983875 679.577355 62.137355 
C 672.423875 69.290834 668.404528 78.994396 668.404528 89.110943 
C 668.404528 99.227491 672.423875 108.931053 679.577355 116.084532 
C 686.730834 123.238012 696.434396 127.257358 706.550943 127.257358 
L 706.550943 127.257358 
z
" clip-path="url(#p7e653014e1)" style="fill: none; stroke-dasharray: 7.4,3.2; stroke-dashoffset: 0; stroke: #2e8b57; stroke-width: 2; stroke-linejoin: miter"/>
   </g>
   <g id="patch_6">
    <path d="M 127.996981 99.839623 
L 172.501132 99.839623 
Q 176.474717 99.839623 176.474717 95.866038 
L 176.474717 79.176981 
Q 176.474717 75.203396 172.501132 75.203396 
L 127.996981 75.203396 
Q 124.023396 75.203396 124.023396 79.176981 
L 124.023396 95.866038 
Q 124.023396 99.839623 127.996981 99.839623 
z
" clip-path="url(#p7e653014e1)" style="fill: #888888; opacity: 0.3; stroke: #888888; stroke-linejoin: miter"/>
   </g>
   <g id="patch_7">
    <path d="M 139.123019 81.561132 
L 164.156604 81.561132 
Q 166.540755 81.561132 166.540755 79.176981 
L 166.540755 68.050943 
Q 166.540755 65.666792 164.156604 65.666792 
L 139.123019 65.666792 
Q 136.738868 65.666792 136.738868 68.050943 
L 136.738868 79.176981 
Q 136.738868 81.561132 139.123019 81.561132 
z
" clip-path="url(#p7e653014e1)" style="fill: #888888; opacity: 0.3; stroke: #888888; stroke-linejoin: miter"/>
   </g>
   <g id="patch_8">
    <path d="M 207.468679 99.839623 
L 251.97283 99.839623 
Q 255.946415 99.839623 255.946415 95.866038 
L 255.946415 79.176981 
Q 255.946415 75.203396 251.97283 75.203396 
L 207.468679 75.203396 
Q 203.495094 75.203396 203.495094 79.176981 
L 203.495094 95.866038 
Q 203.495094 99.839623 207.468679 99.839623 
z
" clip-path="url(#p7e653014e1)" style="fill: #888888; opacity: 0.3; stroke: #888888; stroke-linejoin: miter"/>
   </g>
   <g id="patch_9">
    <path d="M 218.594717 81.561132 
L 243.628302 81.561132 
Q 246.012453 81.561132 246.012453 79.176981 
L 246.012453 68.050943 
Q 246.012453 65.666792 243.628302 65.666792 
L 218.594717 65.666792 
Q 216.210566 65.666792 216.210566 68.050943 
L 216.210566 79.176981 
Q 216.210566 81.561132 218.594717 81.561132 
z
" clip-path="url(#p7e653014e1)" style="fill: #888888; opacity: 0.3; stroke: #888888; stroke-linejoin: miter"/>
   </g>
   <g id="patch_10">
    <path d="M 366.412075 99.839623 
L 410.916226 99.839623 
Q 414.889811 99.839623 414.889811 95.866038 
L 414.889811 79.176981 
Q 414.889811 75.203396 410.916226 75.203396 
L 366.412075 75.203396 
Q 362.438491 75.203396 362.438491 79.176981 
L 362.438491 95.866038 
Q 362.438491 99.839623 366.412075 99.839623 
z
" clip-path="url(#p7e653014e1)" style="fill: #888888; opacity: 0.3; stroke: #888888; stroke-linejoin: miter"/>
   </g>
   <g id="patch_11">
    <path d="M 377.538113 81.561132 
L 402.571698 81.561132 
Q 404.955849 81.561132 404.955849 79.176981 
L 404.955849 68.050943 
Q 404.955849 65.666792 402.571698 65.666792 
L 377.538113 65.666792 
Q 375.153962 65.666792 375.153962 68.050943 
L 375.153962 79.176981 
Q 375.153962 81.561132 377.538113 81.561132 
z
" clip-path="url(#p7e653014e1)" style="fill: #888888; opacity: 0.3; stroke: #888888; stroke-linejoin: miter"/>
   </g>
   <g id="patch_12">
    <path d="M 525.355472 99.839623 
L 569.859623 99.839623 
Q 573.833208 99.839623 573.833208 95.866038 
L 573.833208 79.176981 
Q 573.833208 75.203396 569.859623 75.203396 
L 525.355472 75.203396 
Q 521.381887 75.203396 521.381887 79.176981 
L 521.381887 95.866038 
Q 521.381887 99.839623 525.355472 99.839623 
z
" clip-path="url(#p7e653014e1)" style="fill: #888888; opacity: 0.3; stroke: #888888; stroke-linejoin: miter"/>
   </g>
   <g id="patch_13">
    <path d="M 536.481509 81.561132 
L 561.515094 81.561132 
Q 563.899245 81.561132 563.899245 79.176981 
L 563.899245 68.050943 
Q 563.899245 65.666792 561.515094 65.666792 
L 536.481509 65.666792 
Q 534.097358 65.666792 534.097358 68.050943 
L 534.097358 79.176981 
Q 534.097358 81.561132 536.481509 81.561132 
z
" clip-path="url(#p7e653014e1)" style="fill: #888888; opacity: 0.3; stroke: #888888; stroke-linejoin: miter"/>
   </g>
   <g id="patch_14">
    <path d="M 604.82717 99.839623 
L 649.331321 99.839623 
Q 653.304906 99.839623 653.304906 95.866038 
L 653.304906 79.176981 
Q 653.304906 75.203396 649.331321 75.203396 
L 604.82717 75.203396 
Q 600.853585 75.203396 600.853585 79.176981 
L 600.853585 95.866038 
Q 600.853585 99.839623 604.82717 99.839623 
z
" clip-path="url(#p7e653014e1)" style="fill: #888888; opacity: 0.3; stroke: #888888; stroke-linejoin: miter"/>
   </g>
   <g id="patch_15">
    <path d="M 615.953208 81.561132 
L 640.986792 81.561132 
Q 643.370943 81.561132 643.370943 79.176981 
L 643.370943 68.050943 
Q 643.370943 65.666792 640.986792 65.666792 
L 615.953208 65.666792 
Q 613.569057 65.666792 613.569057 68.050943 
L 613.569057 79.176981 
Q 613.569057 81.561132 615.953208 81.561132 
z
" clip-path="url(#p7e653014e1)" style="fill: #888888; opacity: 0.3; stroke: #888888; stroke-linejoin: miter"/>
   </g>
   <g id="patch_16">
    <path d="M 763.770566 99.839623 
L 808.274717 99.839623 
Q 812.248302 99.839623 812.248302 95.866038 
L 812.248302 79.176981 
Q 812.248302 75.203396 808.274717 75.203396 
L 763.770566 75.203396 
Q 759.796981 75.203396 759.796981 79.176981 
L 759.796981 95.866038 
Q 759.796981 99.839623 763.770566 99.839623 
z
" clip-path="url(#p7e653014e1)" style="fill: #888888; opacity: 0.3; stroke: #888888; stroke-linejoin: miter"/>
   </g>
   <g id="patch_17">
    <path d="M 774.896604 81.561132 
L 799.930189 81.561132 
Q 802.31434 81.561132 802.31434 79.176981 
L 802.31434 68.050943 
Q 802.31434 65.666792 799.930189 65.666792 
L 774.896604 65.666792 
Q 772.512453 65.666792 772.512453 68.050943 
L 772.512453 79.176981 
Q 772.512453 81.561132 774.896604 81.561132 
z
" clip-path="url(#p7e653014e1)" style="fill: #888888; opacity: 0.3; stroke: #888888; stroke-linejoin: miter"/>
   </g>
   <g id="text_1">
    <!-- Population: $P = 4/10 = 0.40$ (40% own bicycles) -->
    <g style="fill: #808080" transform="translate(299.04 15.56) scale(0.11 -0.11)">
     <defs>
      <path id="DejaVuSans-50" d="M 1259 4147 
L 1259 2394 
L 2053 2394 
Q 2494 2394 2734 2622 
Q 2975 2850 2975 3272 
Q 2975 3691 2734 3919 
Q 2494 4147 2053 4147 
L 1259 4147 
z
M 628 4666 
L 2053 4666 
Q 2838 4666 3239 4311 
Q 3641 3956 3641 3272 
Q 3641 2581 3239 2228 
Q 2838 1875 2053 1875 
L 1259 1875 
L 1259 0 
L 628 0 
L 628 4666 
z
" transform="scale(0.015625)"/>
      <path id="DejaVuSans-6f" d="M 1959 3097 
Q 1497 3097 1228 2736 
Q 959 2375 959 1747 
Q 959 1119 1226 758 
Q 1494 397 1959 397 
Q 2419 397 2687 759 
Q 2956 1122 2956 1747 
Q 2956 2369 2687 2733 
Q 2419 3097 1959 3097 
z
M 1959 3584 
Q 2709 3584 3137 3096 
Q 3566 2609 3566 1747 
Q 3566 888 3137 398 
Q 2709 -91 1959 -91 
Q 1206 -91 779 398 
Q 353 888 353 1747 
Q 353 2609 779 3096 
Q 1206 3584 1959 3584 
z
" transform="scale(0.015625)"/>
      <path id="DejaVuSans-70" d="M 1159 525 
L 1159 -1331 
L 581 -1331 
L 581 3500 
L 1159 3500 
L 1159 2969 
Q 1341 3281 1617 3432 
Q 1894 3584 2278 3584 
Q 2916 3584 3314 3078 
Q 3713 2572 3713 1747 
Q 3713 922 3314 415 
Q 2916 -91 2278 -91 
Q 1894 -91 1617 61 
Q 1341 213 1159 525 
z
M 3116 1747 
Q 3116 2381 2855 2742 
Q 2594 3103 2138 3103 
Q 1681 3103 1420 2742 
Q 1159 2381 1159 1747 
Q 1159 1113 1420 752 
Q 1681 391 2138 391 
Q 2594 391 2855 752 
Q 3116 1113 3116 1747 
z
" transform="scale(0.015625)"/>
      <path id="DejaVuSans-75" d="M 544 1381 
L 544 3500 
L 1119 3500 
L 1119 1403 
Q 1119 906 1312 657 
Q 1506 409 1894 409 
Q 2359 409 2629 706 
Q 2900 1003 2900 1516 
L 2900 3500 
L 3475 3500 
L 3475 0 
L 2900 0 
L 2900 538 
Q 2691 219 2414 64 
Q 2138 -91 1772 -91 
Q 1169 -91 856 284 
Q 544 659 544 1381 
z
M 1991 3584 
L 1991 3584 
z
" transform="scale(0.015625)"/>
      <path id="DejaVuSans-6c" d="M 603 4863 
L 1178 4863 
L 1178 0 
L 603 0 
L 603 4863 
z
" transform="scale(0.015625)"/>
      <path id="DejaVuSans-61" d="M 2194 1759 
Q 1497 1759 1228 1600 
Q 959 1441 959 1056 
Q 959 750 1161 570 
Q 1363 391 1709 391 
Q 2188 391 2477 730 
Q 2766 1069 2766 1631 
L 2766 1759 
L 2194 1759 
z
M 3341 1997 
L 3341 0 
L 2766 0 
L 2766 531 
Q 2569 213 2275 61 
Q 1981 -91 1556 -91 
Q 1019 -91 701 211 
Q 384 513 384 1019 
Q 384 1609 779 1909 
Q 1175 2209 1959 2209 
L 2766 2209 
L 2766 2266 
Q 2766 2663 2505 2880 
Q 2244 3097 1772 3097 
Q 1472 3097 1187 3025 
Q 903 2953 641 2809 
L 641 3341 
Q 956 3463 1253 3523 
Q 1550 3584 1831 3584 
Q 2591 3584 2966 3190 
Q 3341 2797 3341 1997 
z
" transform="scale(0.015625)"/>
      <path id="DejaVuSans-74" d="M 1172 4494 
L 1172 3500 
L 2356 3500 
L 2356 3053 
L 1172 3053 
L 1172 1153 
Q 1172 725 1289 603 
Q 1406 481 1766 481 
L 2356 481 
L 2356 0 
L 1766 0 
Q 1100 0 847 248 
Q 594 497 594 1153 
L 594 3053 
L 172 3053 
L 172 3500 
L 594 3500 
L 594 4494 
L 1172 4494 
z
" transform="scale(0.015625)"/>
      <path id="DejaVuSans-69" d="M 603 3500 
L 1178 3500 
L 1178 0 
L 603 0 
L 603 3500 
z
M 603 4863 
L 1178 4863 
L 1178 4134 
L 603 4134 
L 603 4863 
z
" transform="scale(0.015625)"/>
      <path id="DejaVuSans-6e" d="M 3513 2113 
L 3513 0 
L 2938 0 
L 2938 2094 
Q 2938 2591 2744 2837 
Q 2550 3084 2163 3084 
Q 1697 3084 1428 2787 
Q 1159 2491 1159 1978 
L 1159 0 
L 581 0 
L 581 3500 
L 1159 3500 
L 1159 2956 
Q 1366 3272 1645 3428 
Q 1925 3584 2291 3584 
Q 2894 3584 3203 3211 
Q 3513 2838 3513 2113 
z
" transform="scale(0.015625)"/>
      <path id="DejaVuSans-3a" d="M 750 794 
L 1409 794 
L 1409 0 
L 750 0 
L 750 794 
z
M 750 3309 
L 1409 3309 
L 1409 2516 
L 750 2516 
L 750 3309 
z
" transform="scale(0.015625)"/>
      <path id="DejaVuSans-20" transform="scale(0.015625)"/>
      <path id="DejaVuSans-Oblique-50" d="M 1081 4666 
L 2541 4666 
Q 3178 4666 3512 4369 
Q 3847 4072 3847 3500 
Q 3847 2731 3353 2303 
Q 2859 1875 1966 1875 
L 1172 1875 
L 806 0 
L 172 0 
L 1081 4666 
z
M 1613 4147 
L 1275 2394 
L 2069 2394 
Q 2606 2394 2893 2669 
Q 3181 2944 3181 3456 
Q 3181 3784 2986 3965 
Q 2791 4147 2438 4147 
L 1613 4147 
z
" transform="scale(0.015625)"/>
      <path id="DejaVuSans-3d" d="M 678 2906 
L 4684 2906 
L 4684 2381 
L 678 2381 
L 678 2906 
z
M 678 1631 
L 4684 1631 
L 4684 1100 
L 678 1100 
L 678 1631 
z
" transform="scale(0.015625)"/>
      <path id="DejaVuSans-34" d="M 2419 4116 
L 825 1625 
L 2419 1625 
L 2419 4116 
z
M 2253 4666 
L 3047 4666 
L 3047 1625 
L 3713 1625 
L 3713 1100 
L 3047 1100 
L 3047 0 
L 2419 0 
L 2419 1100 
L 313 1100 
L 313 1709 
L 2253 4666 
z
" transform="scale(0.015625)"/>
      <path id="DejaVuSans-2f" d="M 1625 4666 
L 2156 4666 
L 531 -594 
L 0 -594 
L 1625 4666 
z
" transform="scale(0.015625)"/>
      <path id="DejaVuSans-31" d="M 794 531 
L 1825 531 
L 1825 4091 
L 703 3866 
L 703 4441 
L 1819 4666 
L 2450 4666 
L 2450 531 
L 3481 531 
L 3481 0 
L 794 0 
L 794 531 
z
" transform="scale(0.015625)"/>
      <path id="DejaVuSans-30" d="M 2034 4250 
Q 1547 4250 1301 3770 
Q 1056 3291 1056 2328 
Q 1056 1369 1301 889 
Q 1547 409 2034 409 
Q 2525 409 2770 889 
Q 3016 1369 3016 2328 
Q 3016 3291 2770 3770 
Q 2525 4250 2034 4250 
z
M 2034 4750 
Q 2819 4750 3233 4129 
Q 3647 3509 3647 2328 
Q 3647 1150 3233 529 
Q 2819 -91 2034 -91 
Q 1250 -91 836 529 
Q 422 1150 422 2328 
Q 422 3509 836 4129 
Q 1250 4750 2034 4750 
z
" transform="scale(0.015625)"/>
      <path id="DejaVuSans-2e" d="M 684 794 
L 1344 794 
L 1344 0 
L 684 0 
L 684 794 
z
" transform="scale(0.015625)"/>
      <path id="DejaVuSans-28" d="M 1984 4856 
Q 1566 4138 1362 3434 
Q 1159 2731 1159 2009 
Q 1159 1288 1364 580 
Q 1569 -128 1984 -844 
L 1484 -844 
Q 1016 -109 783 600 
Q 550 1309 550 2009 
Q 550 2706 781 3412 
Q 1013 4119 1484 4856 
L 1984 4856 
z
" transform="scale(0.015625)"/>
      <path id="DejaVuSans-25" d="M 4653 2053 
Q 4381 2053 4226 1822 
Q 4072 1591 4072 1178 
Q 4072 772 4226 539 
Q 4381 306 4653 306 
Q 4919 306 5073 539 
Q 5228 772 5228 1178 
Q 5228 1588 5073 1820 
Q 4919 2053 4653 2053 
z
M 4653 2450 
Q 5147 2450 5437 2106 
Q 5728 1763 5728 1178 
Q 5728 594 5436 251 
Q 5144 -91 4653 -91 
Q 4153 -91 3862 251 
Q 3572 594 3572 1178 
Q 3572 1766 3864 2108 
Q 4156 2450 4653 2450 
z
M 1428 4353 
Q 1159 4353 1004 4120 
Q 850 3888 850 3481 
Q 850 3069 1003 2837 
Q 1156 2606 1428 2606 
Q 1700 2606 1854 2837 
Q 2009 3069 2009 3481 
Q 2009 3884 1853 4118 
Q 1697 4353 1428 4353 
z
M 4250 4750 
L 4750 4750 
L 1831 -91 
L 1331 -91 
L 4250 4750 
z
M 1428 4750 
Q 1922 4750 2215 4408 
Q 2509 4066 2509 3481 
Q 2509 2891 2217 2550 
Q 1925 2209 1428 2209 
Q 931 2209 642 2551 
Q 353 2894 353 3481 
Q 353 4063 643 4406 
Q 934 4750 1428 4750 
z
" transform="scale(0.015625)"/>
      <path id="DejaVuSans-77" d="M 269 3500 
L 844 3500 
L 1563 769 
L 2278 3500 
L 2956 3500 
L 3675 769 
L 4391 3500 
L 4966 3500 
L 4050 0 
L 3372 0 
L 2619 2869 
L 1863 0 
L 1184 0 
L 269 3500 
z
" transform="scale(0.015625)"/>
      <path id="DejaVuSans-62" d="M 3116 1747 
Q 3116 2381 2855 2742 
Q 2594 3103 2138 3103 
Q 1681 3103 1420 2742 
Q 1159 2381 1159 1747 
Q 1159 1113 1420 752 
Q 1681 391 2138 391 
Q 2594 391 2855 752 
Q 3116 1113 3116 1747 
z
M 1159 2969 
Q 1341 3281 1617 3432 
Q 1894 3584 2278 3584 
Q 2916 3584 3314 3078 
Q 3713 2572 3713 1747 
Q 3713 922 3314 415 
Q 2916 -91 2278 -91 
Q 1894 -91 1617 61 
Q 1341 213 1159 525 
L 1159 0 
L 581 0 
L 581 4863 
L 1159 4863 
L 1159 2969 
z
" transform="scale(0.015625)"/>
      <path id="DejaVuSans-63" d="M 3122 3366 
L 3122 2828 
Q 2878 2963 2633 3030 
Q 2388 3097 2138 3097 
Q 1578 3097 1268 2742 
Q 959 2388 959 1747 
Q 959 1106 1268 751 
Q 1578 397 2138 397 
Q 2388 397 2633 464 
Q 2878 531 3122 666 
L 3122 134 
Q 2881 22 2623 -34 
Q 2366 -91 2075 -91 
Q 1284 -91 818 406 
Q 353 903 353 1747 
Q 353 2603 823 3093 
Q 1294 3584 2113 3584 
Q 2378 3584 2631 3529 
Q 2884 3475 3122 3366 
z
" transform="scale(0.015625)"/>
      <path id="DejaVuSans-79" d="M 2059 -325 
Q 1816 -950 1584 -1140 
Q 1353 -1331 966 -1331 
L 506 -1331 
L 506 -850 
L 844 -850 
Q 1081 -850 1212 -737 
Q 1344 -625 1503 -206 
L 1606 56 
L 191 3500 
L 800 3500 
L 1894 763 
L 2988 3500 
L 3597 3500 
L 2059 -325 
z
" transform="scale(0.015625)"/>
      <path id="DejaVuSans-65" d="M 3597 1894 
L 3597 1613 
L 953 1613 
Q 991 1019 1311 708 
Q 1631 397 2203 397 
Q 2534 397 2845 478 
Q 3156 559 3463 722 
L 3463 178 
Q 3153 47 2828 -22 
Q 2503 -91 2169 -91 
Q 1331 -91 842 396 
Q 353 884 353 1716 
Q 353 2575 817 3079 
Q 1281 3584 2069 3584 
Q 2775 3584 3186 3129 
Q 3597 2675 3597 1894 
z
M 3022 2063 
Q 3016 2534 2758 2815 
Q 2500 3097 2075 3097 
Q 1594 3097 1305 2825 
Q 1016 2553 972 2059 
L 3022 2063 
z
" transform="scale(0.015625)"/>
      <path id="DejaVuSans-73" d="M 2834 3397 
L 2834 2853 
Q 2591 2978 2328 3040 
Q 2066 3103 1784 3103 
Q 1356 3103 1142 2972 
Q 928 2841 928 2578 
Q 928 2378 1081 2264 
Q 1234 2150 1697 2047 
L 1894 2003 
Q 2506 1872 2764 1633 
Q 3022 1394 3022 966 
Q 3022 478 2636 193 
Q 2250 -91 1575 -91 
Q 1294 -91 989 -36 
Q 684 19 347 128 
L 347 722 
Q 666 556 975 473 
Q 1284 391 1588 391 
Q 1994 391 2212 530 
Q 2431 669 2431 922 
Q 2431 1156 2273 1281 
Q 2116 1406 1581 1522 
L 1381 1569 
Q 847 1681 609 1914 
Q 372 2147 372 2553 
Q 372 3047 722 3315 
Q 1072 3584 1716 3584 
Q 2034 3584 2315 3537 
Q 2597 3491 2834 3397 
z
" transform="scale(0.015625)"/>
      <path id="DejaVuSans-29" d="M 513 4856 
L 1013 4856 
Q 1481 4119 1714 3412 
Q 1947 2706 1947 2009 
Q 1947 1309 1714 600 
Q 1481 -109 1013 -844 
L 513 -844 
Q 928 -128 1133 580 
Q 1338 1288 1338 2009 
Q 1338 2731 1133 3434 
Q 928 4138 513 4856 
z
" transform="scale(0.015625)"/>
     </defs>
     <use xlink:href="#DejaVuSans-50" transform="translate(0 0.015625)"/>
     <use xlink:href="#DejaVuSans-6f" transform="translate(60.302734 0.015625)"/>
     <use xlink:href="#DejaVuSans-70" transform="translate(121.484375 0.015625)"/>
     <use xlink:href="#DejaVuSans-75" transform="translate(184.960938 0.015625)"/>
     <use xlink:href="#DejaVuSans-6c" transform="translate(248.339844 0.015625)"/>
     <use xlink:href="#DejaVuSans-61" transform="translate(276.123047 0.015625)"/>
     <use xlink:href="#DejaVuSans-74" transform="translate(337.402344 0.015625)"/>
     <use xlink:href="#DejaVuSans-69" transform="translate(376.611328 0.015625)"/>
     <use xlink:href="#DejaVuSans-6f" transform="translate(404.394531 0.015625)"/>
     <use xlink:href="#DejaVuSans-6e" transform="translate(465.576172 0.015625)"/>
     <use xlink:href="#DejaVuSans-3a" transform="translate(528.955078 0.015625)"/>
     <use xlink:href="#DejaVuSans-20" transform="translate(562.646484 0.015625)"/>
     <use xlink:href="#DejaVuSans-Oblique-50" transform="translate(594.433594 0.015625)"/>
     <use xlink:href="#DejaVuSans-3d" transform="translate(674.21875 0.015625)"/>
     <use xlink:href="#DejaVuSans-34" transform="translate(777.490234 0.015625)"/>
     <use xlink:href="#DejaVuSans-2f" transform="translate(841.113281 0.015625)"/>
     <use xlink:href="#DejaVuSans-31" transform="translate(874.804688 0.015625)"/>
     <use xlink:href="#DejaVuSans-30" transform="translate(938.427734 0.015625)"/>
     <use xlink:href="#DejaVuSans-3d" transform="translate(1021.533203 0.015625)"/>
     <use xlink:href="#DejaVuSans-30" transform="translate(1124.804688 0.015625)"/>
     <use xlink:href="#DejaVuSans-2e" transform="translate(1188.427734 0.015625)"/>
     <use xlink:href="#DejaVuSans-34" transform="translate(1220.214844 0.015625)"/>
     <use xlink:href="#DejaVuSans-30" transform="translate(1283.837891 0.015625)"/>
     <use xlink:href="#DejaVuSans-20" transform="translate(1347.460938 0.015625)"/>
     <use xlink:href="#DejaVuSans-28" transform="translate(1379.248047 0.015625)"/>
     <use xlink:href="#DejaVuSans-34" transform="translate(1418.261719 0.015625)"/>
     <use xlink:href="#DejaVuSans-30" transform="translate(1481.884766 0.015625)"/>
     <use xlink:href="#DejaVuSans-25" transform="translate(1545.507812 0.015625)"/>
     <use xlink:href="#DejaVuSans-20" transform="translate(1640.527344 0.015625)"/>
     <use xlink:href="#DejaVuSans-6f" transform="translate(1672.314453 0.015625)"/>
     <use xlink:href="#DejaVuSans-77" transform="translate(1733.496094 0.015625)"/>
     <use xlink:href="#DejaVuSans-6e" transform="translate(1815.283203 0.015625)"/>
     <use xlink:href="#DejaVuSans-20" transform="translate(1878.662109 0.015625)"/>
     <use xlink:href="#DejaVuSans-62" transform="translate(1910.449219 0.015625)"/>
     <use xlink:href="#DejaVuSans-69" transform="translate(1973.925781 0.015625)"/>
     <use xlink:href="#DejaVuSans-63" transform="translate(2001.708984 0.015625)"/>
     <use xlink:href="#DejaVuSans-79" transform="translate(2056.689453 0.015625)"/>
     <use xlink:href="#DejaVuSans-63" transform="translate(2115.869141 0.015625)"/>
     <use xlink:href="#DejaVuSans-6c" transform="translate(2170.849609 0.015625)"/>
     <use xlink:href="#DejaVuSans-65" transform="translate(2198.632812 0.015625)"/>
     <use xlink:href="#DejaVuSans-73" transform="translate(2260.15625 0.015625)"/>
     <use xlink:href="#DejaVuSans-29" transform="translate(2312.255859 0.015625)"/>
    </g>
   </g>
   <g id="patch_18">
    <path d="M 54.088302 103.21717 
C 56.670129 103.21717 59.146559 102.191399 60.972187 100.365771 
C 62.797814 98.540144 63.823585 96.063714 63.823585 93.481887 
C 63.823585 90.90006 62.797814 88.42363 60.972187 86.598002 
C 59.146559 84.772375 56.670129 83.746604 54.088302 83.746604 
C 51.506475 83.746604 49.030045 84.772375 47.204417 86.598002 
C 45.37879 88.42363 44.353019 90.90006 44.353019 93.481887 
C 44.353019 96.063714 45.37879 98.540144 47.204417 100.365771 
C 49.030045 102.191399 51.506475 103.21717 54.088302 103.21717 
L 54.088302 103.21717 
z
" clip-path="url(#p7e653014e1)" style="fill: none; stroke: #2e8b57; stroke-width: 1.5; stroke-linejoin: miter"/>
   </g>
   <g id="patch_19">
    <path d="M 87.466415 103.21717 
C 90.048242 103.21717 92.524672 102.191399 94.3503 100.365771 
C 96.175927 98.540144 97.201698 96.063714 97.201698 93.481887 
C 97.201698 90.90006 96.175927 88.42363 94.3503 86.598002 
C 92.524672 84.772375 90.048242 83.746604 87.466415 83.746604 
C 84.884588 83.746604 82.408158 84.772375 80.58253 86.598002 
C 78.756903 88.42363 77.731132 90.90006 77.731132 93.481887 
C 77.731132 96.063714 78.756903 98.540144 80.58253 100.365771 
C 82.408158 102.191399 84.884588 103.21717 87.466415 103.21717 
L 87.466415 103.21717 
z
" clip-path="url(#p7e653014e1)" style="fill: none; stroke: #2e8b57; stroke-width: 1.5; stroke-linejoin: miter"/>
   </g>
   <g id="patch_20">
    <path d="M 137.732264 102.263509 
C 139.060061 102.263509 140.333654 101.73597 141.272548 100.797076 
C 142.211442 99.858182 142.738981 98.584589 142.738981 97.256792 
C 142.738981 95.928996 142.211442 94.655403 141.272548 93.716509 
C 140.333654 92.777615 139.060061 92.250075 137.732264 92.250075 
C 136.404467 92.250075 135.130875 92.777615 134.191981 93.716509 
C 133.253086 94.655403 132.725547 95.928996 132.725547 97.256792 
C 132.725547 98.584589 133.253086 99.858182 134.191981 100.797076 
C 135.130875 101.73597 136.404467 102.263509 137.732264 102.263509 
z
" clip-path="url(#p7e653014e1)" style="fill: #888888; stroke: #000000; stroke-width: 0.8; stroke-linejoin: miter"/>
   </g>
   <g id="patch_21">
    <path d="M 162.765849 102.263509 
C 164.093646 102.263509 165.367238 101.73597 166.306133 100.797076 
C 167.245027 99.858182 167.772566 98.584589 167.772566 97.256792 
C 167.772566 95.928996 167.245027 94.655403 166.306133 93.716509 
C 165.367238 92.777615 164.093646 92.250075 162.765849 92.250075 
C 161.438052 92.250075 160.16446 92.777615 159.225566 93.716509 
C 158.286671 94.655403 157.759132 95.928996 157.759132 97.256792 
C 157.759132 98.584589 158.286671 99.858182 159.225566 100.797076 
C 160.16446 101.73597 161.438052 102.263509 162.765849 102.263509 
z
" clip-path="url(#p7e653014e1)" style="fill: #888888; stroke: #000000; stroke-width: 0.8; stroke-linejoin: miter"/>
   </g>
   <g id="patch_22">
    <path d="M 217.203962 102.263509 
C 218.531759 102.263509 219.805352 101.73597 220.744246 100.797076 
C 221.68314 99.858182 222.210679 98.584589 222.210679 97.256792 
C 222.210679 95.928996 221.68314 94.655403 220.744246 93.716509 
C 219.805352 92.777615 218.531759 92.250075 217.203962 92.250075 
C 215.876165 92.250075 214.602573 92.777615 213.663679 93.716509 
C 212.724785 94.655403 212.197245 95.928996 212.197245 97.256792 
C 212.197245 98.584589 212.724785 99.858182 213.663679 100.797076 
C 214.602573 101.73597 215.876165 102.263509 217.203962 102.263509 
z
" clip-path="url(#p7e653014e1)" style="fill: #888888; stroke: #000000; stroke-width: 0.8; stroke-linejoin: miter"/>
   </g>
   <g id="patch_23">
    <path d="M 242.237547 102.263509 
C 243.565344 102.263509 244.838937 101.73597 245.777831 100.797076 
C 246.716725 99.858182 247.244264 98.584589 247.244264 97.256792 
C 247.244264 95.928996 246.716725 94.655403 245.777831 93.716509 
C 244.838937 92.777615 243.565344 92.250075 242.237547 92.250075 
C 240.90975 92.250075 239.636158 92.777615 238.697264 93.716509 
C 237.758369 94.655403 237.23083 95.928996 237.23083 97.256792 
C 237.23083 98.584589 237.758369 99.858182 238.697264 100.797076 
C 239.636158 101.73597 240.90975 102.263509 242.237547 102.263509 
z
" clip-path="url(#p7e653014e1)" style="fill: #888888; stroke: #000000; stroke-width: 0.8; stroke-linejoin: miter"/>
   </g>
   <g id="patch_24">
    <path d="M 292.503396 103.21717 
C 295.085223 103.21717 297.561653 102.191399 299.387281 100.365771 
C 301.212908 98.540144 302.238679 96.063714 302.238679 93.481887 
C 302.238679 90.90006 301.212908 88.42363 299.387281 86.598002 
C 297.561653 84.772375 295.085223 83.746604 292.503396 83.746604 
C 289.921569 83.746604 287.445139 84.772375 285.619512 86.598002 
C 283.793884 88.42363 282.768113 90.90006 282.768113 93.481887 
C 282.768113 96.063714 283.793884 98.540144 285.619512 100.365771 
C 287.445139 102.191399 289.921569 103.21717 292.503396 103.21717 
L 292.503396 103.21717 
z
" clip-path="url(#p7e653014e1)" style="fill: none; stroke: #2e8b57; stroke-width: 1.5; stroke-linejoin: miter"/>
   </g>
   <g id="patch_25">
    <path d="M 325.881509 103.21717 
C 328.463337 103.21717 330.939767 102.191399 332.765394 100.365771 
C 334.591022 98.540144 335.616792 96.063714 335.616792 93.481887 
C 335.616792 90.90006 334.591022 88.42363 332.765394 86.598002 
C 330.939767 84.772375 328.463337 83.746604 325.881509 83.746604 
C 323.299682 83.746604 320.823252 84.772375 318.997625 86.598002 
C 317.171997 88.42363 316.146226 90.90006 316.146226 93.481887 
C 316.146226 96.063714 317.171997 98.540144 318.997625 100.365771 
C 320.823252 102.191399 323.299682 103.21717 325.881509 103.21717 
L 325.881509 103.21717 
z
" clip-path="url(#p7e653014e1)" style="fill: none; stroke: #2e8b57; stroke-width: 1.5; stroke-linejoin: miter"/>
   </g>
   <g id="patch_26">
    <path d="M 376.147358 102.263509 
C 377.475155 102.263509 378.748748 101.73597 379.687642 100.797076 
C 380.626536 99.858182 381.154075 98.584589 381.154075 97.256792 
C 381.154075 95.928996 380.626536 94.655403 379.687642 93.716509 
C 378.748748 92.777615 377.475155 92.250075 376.147358 92.250075 
C 374.819562 92.250075 373.545969 92.777615 372.607075 93.716509 
C 371.668181 94.655403 371.140642 95.928996 371.140642 97.256792 
C 371.140642 98.584589 371.668181 99.858182 372.607075 100.797076 
C 373.545969 101.73597 374.819562 102.263509 376.147358 102.263509 
z
" clip-path="url(#p7e653014e1)" style="fill: #888888; stroke: #000000; stroke-width: 0.8; stroke-linejoin: miter"/>
   </g>
   <g id="patch_27">
    <path d="M 401.180943 102.263509 
C 402.50874 102.263509 403.782333 101.73597 404.721227 100.797076 
C 405.660121 99.858182 406.18766 98.584589 406.18766 97.256792 
C 406.18766 95.928996 405.660121 94.655403 404.721227 93.716509 
C 403.782333 92.777615 402.50874 92.250075 401.180943 92.250075 
C 399.853147 92.250075 398.579554 92.777615 397.64066 93.716509 
C 396.701766 94.655403 396.174226 95.928996 396.174226 97.256792 
C 396.174226 98.584589 396.701766 99.858182 397.64066 100.797076 
C 398.579554 101.73597 399.853147 102.263509 401.180943 102.263509 
z
" clip-path="url(#p7e653014e1)" style="fill: #888888; stroke: #000000; stroke-width: 0.8; stroke-linejoin: miter"/>
   </g>
   <g id="patch_28">
    <path d="M 451.446792 103.21717 
C 454.02862 103.21717 456.50505 102.191399 458.330677 100.365771 
C 460.156305 98.540144 461.182075 96.063714 461.182075 93.481887 
C 461.182075 90.90006 460.156305 88.42363 458.330677 86.598002 
C 456.50505 84.772375 454.02862 83.746604 451.446792 83.746604 
C 448.864965 83.746604 446.388535 84.772375 444.562908 86.598002 
C 442.73728 88.42363 441.711509 90.90006 441.711509 93.481887 
C 441.711509 96.063714 442.73728 98.540144 444.562908 100.365771 
C 446.388535 102.191399 448.864965 103.21717 451.446792 103.21717 
L 451.446792 103.21717 
z
" clip-path="url(#p7e653014e1)" style="fill: none; stroke: #2e8b57; stroke-width: 1.5; stroke-linejoin: miter"/>
   </g>
   <g id="patch_29">
    <path d="M 484.824906 103.21717 
C 487.406733 103.21717 489.883163 102.191399 491.70879 100.365771 
C 493.534418 98.540144 494.560189 96.063714 494.560189 93.481887 
C 494.560189 90.90006 493.534418 88.42363 491.70879 86.598002 
C 489.883163 84.772375 487.406733 83.746604 484.824906 83.746604 
C 482.243078 83.746604 479.766649 84.772375 477.941021 86.598002 
C 476.115393 88.42363 475.089623 90.90006 475.089623 93.481887 
C 475.089623 96.063714 476.115393 98.540144 477.941021 100.365771 
C 479.766649 102.191399 482.243078 103.21717 484.824906 103.21717 
L 484.824906 103.21717 
z
" clip-path="url(#p7e653014e1)" style="fill: none; stroke: #2e8b57; stroke-width: 1.5; stroke-linejoin: miter"/>
   </g>
   <g id="patch_30">
    <path d="M 535.090755 102.263509 
C 536.418552 102.263509 537.692144 101.73597 538.631038 100.797076 
C 539.569932 99.858182 540.097472 98.584589 540.097472 97.256792 
C 540.097472 95.928996 539.569932 94.655403 538.631038 93.716509 
C 537.692144 92.777615 536.418552 92.250075 535.090755 92.250075 
C 533.762958 92.250075 532.489365 92.777615 531.550471 93.716509 
C 530.611577 94.655403 530.084038 95.928996 530.084038 97.256792 
C 530.084038 98.584589 530.611577 99.858182 531.550471 100.797076 
C 532.489365 101.73597 533.762958 102.263509 535.090755 102.263509 
z
" clip-path="url(#p7e653014e1)" style="fill: #888888; stroke: #000000; stroke-width: 0.8; stroke-linejoin: miter"/>
   </g>
   <g id="patch_31">
    <path d="M 560.12434 102.263509 
C 561.452136 102.263509 562.725729 101.73597 563.664623 100.797076 
C 564.603517 99.858182 565.131057 98.584589 565.131057 97.256792 
C 565.131057 95.928996 564.603517 94.655403 563.664623 93.716509 
C 562.725729 92.777615 561.452136 92.250075 560.12434 92.250075 
C 558.796543 92.250075 557.52295 92.777615 556.584056 93.716509 
C 555.645162 94.655403 555.117623 95.928996 555.117623 97.256792 
C 555.117623 98.584589 555.645162 99.858182 556.584056 100.797076 
C 557.52295 101.73597 558.796543 102.263509 560.12434 102.263509 
z
" clip-path="url(#p7e653014e1)" style="fill: #888888; stroke: #000000; stroke-width: 0.8; stroke-linejoin: miter"/>
   </g>
   <g id="patch_32">
    <path d="M 614.562453 102.263509 
C 615.89025 102.263509 617.163842 101.73597 618.102736 100.797076 
C 619.041631 99.858182 619.56917 98.584589 619.56917 97.256792 
C 619.56917 95.928996 619.041631 94.655403 618.102736 93.716509 
C 617.163842 92.777615 615.89025 92.250075 614.562453 92.250075 
C 613.234656 92.250075 611.961063 92.777615 611.022169 93.716509 
C 610.083275 94.655403 609.555736 95.928996 609.555736 97.256792 
C 609.555736 98.584589 610.083275 99.858182 611.022169 100.797076 
C 611.961063 101.73597 613.234656 102.263509 614.562453 102.263509 
z
" clip-path="url(#p7e653014e1)" style="fill: #888888; stroke: #000000; stroke-width: 0.8; stroke-linejoin: miter"/>
   </g>
   <g id="patch_33">
    <path d="M 639.596038 102.263509 
C 640.923835 102.263509 642.197427 101.73597 643.136321 100.797076 
C 644.075215 99.858182 644.602755 98.584589 644.602755 97.256792 
C 644.602755 95.928996 644.075215 94.655403 643.136321 93.716509 
C 642.197427 92.777615 640.923835 92.250075 639.596038 92.250075 
C 638.268241 92.250075 636.994648 92.777615 636.055754 93.716509 
C 635.11686 94.655403 634.589321 95.928996 634.589321 97.256792 
C 634.589321 98.584589 635.11686 99.858182 636.055754 100.797076 
C 636.994648 101.73597 638.268241 102.263509 639.596038 102.263509 
z
" clip-path="url(#p7e653014e1)" style="fill: #888888; stroke: #000000; stroke-width: 0.8; stroke-linejoin: miter"/>
   </g>
   <g id="patch_34">
    <path d="M 689.861887 103.21717 
C 692.443714 103.21717 694.920144 102.191399 696.745771 100.365771 
C 698.571399 98.540144 699.59717 96.063714 699.59717 93.481887 
C 699.59717 90.90006 698.571399 88.42363 696.745771 86.598002 
C 694.920144 84.772375 692.443714 83.746604 689.861887 83.746604 
C 687.28006 83.746604 684.80363 84.772375 682.978002 86.598002 
C 681.152375 88.42363 680.126604 90.90006 680.126604 93.481887 
C 680.126604 96.063714 681.152375 98.540144 682.978002 100.365771 
C 684.80363 102.191399 687.28006 103.21717 689.861887 103.21717 
L 689.861887 103.21717 
z
" clip-path="url(#p7e653014e1)" style="fill: none; stroke: #2e8b57; stroke-width: 1.5; stroke-linejoin: miter"/>
   </g>
   <g id="patch_35">
    <path d="M 723.24 103.21717 
C 725.821827 103.21717 728.298257 102.191399 730.123885 100.365771 
C 731.949512 98.540144 732.975283 96.063714 732.975283 93.481887 
C 732.975283 90.90006 731.949512 88.42363 730.123885 86.598002 
C 728.298257 84.772375 725.821827 83.746604 723.24 83.746604 
C 720.658173 83.746604 718.181743 84.772375 716.356115 86.598002 
C 714.530488 88.42363 713.504717 90.90006 713.504717 93.481887 
C 713.504717 96.063714 714.530488 98.540144 716.356115 100.365771 
C 718.181743 102.191399 720.658173 103.21717 723.24 103.21717 
L 723.24 103.21717 
z
" clip-path="url(#p7e653014e1)" style="fill: none; stroke: #2e8b57; stroke-width: 1.5; stroke-linejoin: miter"/>
   </g>
   <g id="patch_36">
    <path d="M 773.505849 102.263509 
C 774.833646 102.263509 776.107238 101.73597 777.046133 100.797076 
C 777.985027 99.858182 778.512566 98.584589 778.512566 97.256792 
C 778.512566 95.928996 777.985027 94.655403 777.046133 93.716509 
C 776.107238 92.777615 774.833646 92.250075 773.505849 92.250075 
C 772.178052 92.250075 770.90446 92.777615 769.965566 93.716509 
C 769.026671 94.655403 768.499132 95.928996 768.499132 97.256792 
C 768.499132 98.584589 769.026671 99.858182 769.965566 100.797076 
C 770.90446 101.73597 772.178052 102.263509 773.505849 102.263509 
z
" clip-path="url(#p7e653014e1)" style="fill: #888888; stroke: #000000; stroke-width: 0.8; stroke-linejoin: miter"/>
   </g>
   <g id="patch_37">
    <path d="M 798.539434 102.263509 
C 799.867231 102.263509 801.140823 101.73597 802.079717 100.797076 
C 803.018612 99.858182 803.546151 98.584589 803.546151 97.256792 
C 803.546151 95.928996 803.018612 94.655403 802.079717 93.716509 
C 801.140823 92.777615 799.867231 92.250075 798.539434 92.250075 
C 797.211637 92.250075 795.938045 92.777615 794.99915 93.716509 
C 794.060256 94.655403 793.532717 95.928996 793.532717 97.256792 
C 793.532717 98.584589 794.060256 99.858182 794.99915 100.797076 
C 795.938045 101.73597 797.211637 102.263509 798.539434 102.263509 
z
" clip-path="url(#p7e653014e1)" style="fill: #888888; stroke: #000000; stroke-width: 0.8; stroke-linejoin: miter"/>
   </g>
   <g id="line2d_1">
    <path d="M 54.088302 93.481887 
L 70.777358 74.011321 
L 87.466415 93.481887 
" clip-path="url(#p7e653014e1)" style="fill: none; stroke: #2e8b57; stroke-width: 1.8; stroke-linecap: square"/>
   </g>
   <g id="line2d_2">
    <path d="M 81.903396 76.79283 
L 90.247925 71.229811 
" clip-path="url(#p7e653014e1)" style="fill: none; stroke: #2e8b57; stroke-width: 1.5; stroke-linecap: square"/>
   </g>
   <g id="line2d_3">
    <path d="M 65.21434 72.620566 
L 73.558868 72.620566 
" clip-path="url(#p7e653014e1)" style="fill: none; stroke: #2e8b57; stroke-width: 2.5; stroke-linecap: square"/>
   </g>
   <g id="line2d_4">
    <path d="M 292.503396 93.481887 
L 309.192453 74.011321 
L 325.881509 93.481887 
" clip-path="url(#p7e653014e1)" style="fill: none; stroke: #2e8b57; stroke-width: 1.8; stroke-linecap: square"/>
   </g>
   <g id="line2d_5">
    <path d="M 320.318491 76.79283 
L 328.663019 71.229811 
" clip-path="url(#p7e653014e1)" style="fill: none; stroke: #2e8b57; stroke-width: 1.5; stroke-linecap: square"/>
   </g>
   <g id="line2d_6">
    <path d="M 303.629434 72.620566 
L 311.973962 72.620566 
" clip-path="url(#p7e653014e1)" style="fill: none; stroke: #2e8b57; stroke-width: 2.5; stroke-linecap: square"/>
   </g>
   <g id="line2d_7">
    <path d="M 451.446792 93.481887 
L 468.135849 74.011321 
L 484.824906 93.481887 
" clip-path="url(#p7e653014e1)" style="fill: none; stroke: #2e8b57; stroke-width: 1.8; stroke-linecap: square"/>
   </g>
   <g id="line2d_8">
    <path d="M 479.261887 76.79283 
L 487.606415 71.229811 
" clip-path="url(#p7e653014e1)" style="fill: none; stroke: #2e8b57; stroke-width: 1.5; stroke-linecap: square"/>
   </g>
   <g id="line2d_9">
    <path d="M 462.57283 72.620566 
L 470.917358 72.620566 
" clip-path="url(#p7e653014e1)" style="fill: none; stroke: #2e8b57; stroke-width: 2.5; stroke-linecap: square"/>
   </g>
   <g id="line2d_10">
    <path d="M 689.861887 93.481887 
L 706.550943 74.011321 
L 723.24 93.481887 
" clip-path="url(#p7e653014e1)" style="fill: none; stroke: #2e8b57; stroke-width: 1.8; stroke-linecap: square"/>
   </g>
   <g id="line2d_11">
    <path d="M 717.676981 76.79283 
L 726.021509 71.229811 
" clip-path="url(#p7e653014e1)" style="fill: none; stroke: #2e8b57; stroke-width: 1.5; stroke-linecap: square"/>
   </g>
   <g id="line2d_12">
    <path d="M 700.987925 72.620566 
L 709.332453 72.620566 
" clip-path="url(#p7e653014e1)" style="fill: none; stroke: #2e8b57; stroke-width: 2.5; stroke-linecap: square"/>
   </g>
  </g>
 </g>
 <defs>
  <clipPath id="p7e653014e1">
   <rect x="7.2" y="21.56" width="842.4" height="127.154717"/>
  </clipPath>
 </defs>
</svg>
