<?xml version="1.0" encoding="utf-8" standalone="no"?>
<!DOCTYPE svg PUBLIC "-//W3C//DTD SVG 1.1//EN"
  "http://www.w3.org/Graphics/SVG/1.1/DTD/svg11.dtd">
<svg xmlns:xlink="http://www.w3.org/1999/xlink" width="857.023125pt" height="281.21pt" viewBox="0 0 857.023125 281.21" xmlns="http://www.w3.org/2000/svg" version="1.1">
 <metadata>
  <rdf:RDF xmlns:dc="http://purl.org/dc/elements/1.1/" xmlns:cc="http://creativecommons.org/ns#" xmlns:rdf="http://www.w3.org/1999/02/22-rdf-syntax-ns#">
   <cc:Work>
    <dc:type rdf:resource="http://purl.org/dc/dcmitype/StillImage"/>
    <dc:date>2026-07-09T14:04:49.101639</dc:date>
    <dc:format>image/svg+xml</dc:format>
    <dc:creator>
     <cc:Agent>
      <dc:title>Matplotlib v3.10.8, https://matplotlib.org/</dc:title>
     </cc:Agent>
    </dc:creator>
   </cc:Work>
  </rdf:RDF>
 </metadata>
 <defs>
  <style type="text/css">*{stroke-linejoin: round; stroke-linecap: butt}</style>
 </defs>
 <g id="figure_1">
  <g id="patch_1">
   <path d="M -0 281.21 
L 857.023125 281.21 
L 857.023125 0 
L -0 0 
z
" style="fill: #ffffff"/>
  </g>
  <g id="axes_1">
   <g id="patch_2">
    <path d="M 52.079375 241.718125 
L 423.223125 241.718125 
L 423.223125 22.318125 
L 52.079375 22.318125 
z
" style="fill: #ffffff"/>
   </g>
   <g id="FillBetweenPolyCollection_1">
    <defs>
     <path id="m3dae40a101" d="M 75.275859 -49.464602 
L 75.275859 -49.464602 
L 76.147908 -112.041098 
L 77.019956 -136.313199 
L 77.892004 -153.851263 
L 78.764053 -167.755396 
L 79.636101 -179.254987 
L 80.508149 -188.995283 
L 81.380197 -197.36852 
L 82.252246 -204.636196 
L 83.124294 -210.984136 
L 83.996342 -216.55072 
L 84.868391 -221.442755 
L 85.740439 -225.745044 
L 86.612487 -229.526471 
L 87.484535 -232.844052 
L 88.356584 -235.745725 
L 89.228632 -238.272336 
L 90.10068 -240.459083 
L 90.972729 -242.3366 
L 91.844777 -243.931774 
L 92.716825 -245.268379 
L 93.588873 -246.36758 
L 94.460922 -247.248325 
L 95.33297 -247.927667 
L 96.205018 -248.421027 
L 97.077066 -248.742403 
L 97.949115 -248.904554 
L 98.821163 -248.919148 
L 99.693211 -248.796886 
L 100.56526 -248.547611 
L 101.437308 -248.180399 
L 102.309356 -247.703641 
L 103.181404 -247.125105 
L 104.053453 -246.452001 
L 104.925501 -245.691033 
L 105.797549 -244.848441 
L 106.669598 -243.930044 
L 107.541646 -242.941278 
L 108.413694 -241.887222 
L 109.285742 -240.772632 
L 110.157791 -239.601963 
L 111.029839 -238.379394 
L 111.901887 -237.108847 
L 112.773936 -235.794009 
L 113.645984 -234.438344 
L 114.518032 -233.045112 
L 115.39008 -231.617381 
L 116.262129 -230.158041 
L 117.134177 -228.669817 
L 118.006225 -227.155276 
L 118.878274 -225.61684 
L 119.750322 -224.056796 
L 120.62237 -222.477299 
L 121.494418 -220.880386 
L 122.366467 -219.267979 
L 123.238515 -217.641895 
L 124.110563 -216.003849 
L 124.982612 -214.355461 
L 125.85466 -212.698263 
L 126.726708 -211.033699 
L 127.598756 -209.363138 
L 128.470805 -207.68787 
L 129.342853 -206.009114 
L 130.214901 -204.328023 
L 131.08695 -202.645683 
L 131.958998 -200.963122 
L 132.831046 -199.28131 
L 133.703094 -197.601161 
L 134.575143 -195.923539 
L 135.447191 -194.249258 
L 136.319239 -192.579084 
L 137.191288 -190.91374 
L 138.063336 -189.253908 
L 138.935384 -187.600229 
L 139.807432 -185.953303 
L 140.679481 -184.313699 
L 141.551529 -182.681948 
L 142.423577 -181.058549 
L 143.295626 -179.44397 
L 144.167674 -177.83865 
L 145.039722 -176.242999 
L 145.91177 -174.657398 
L 146.783819 -173.082208 
L 147.655867 -171.517759 
L 148.527915 -169.964362 
L 149.399964 -168.422306 
L 150.272012 -166.891856 
L 151.14406 -165.37326 
L 152.016108 -163.866744 
L 152.888157 -162.372519 
L 153.760205 -160.890775 
L 154.632253 -159.421689 
L 155.504302 -157.96542 
L 156.37635 -156.522113 
L 157.248398 -155.091899 
L 158.120446 -153.674894 
L 158.992495 -152.271202 
L 159.864543 -150.880915 
L 160.736591 -149.504112 
L 161.60864 -148.140863 
L 162.480688 -146.791226 
L 163.352736 -145.455248 
L 164.224784 -144.132969 
L 165.096833 -142.824417 
L 165.968881 -141.529613 
L 166.840929 -140.248569 
L 167.712978 -138.981291 
L 168.585026 -137.727775 
L 169.457074 -136.488012 
L 170.329122 -135.261984 
L 171.201171 -134.04967 
L 172.073219 -132.851039 
L 172.945267 -131.666058 
L 173.817316 -130.494686 
L 174.689364 -129.336879 
L 175.561412 -128.192586 
L 176.43346 -127.061752 
L 177.305509 -125.94432 
L 178.177557 -124.840226 
L 179.049605 -123.749404 
L 179.921654 -122.671782 
L 180.793702 -121.607289 
L 181.66575 -120.555846 
L 182.537798 -119.517374 
L 183.409847 -118.49179 
L 184.281895 -117.479009 
L 185.153943 -116.478943 
L 186.025992 -115.491502 
L 186.89804 -114.516594 
L 187.770088 -113.554125 
L 188.642136 -112.603999 
L 189.514185 -111.666119 
L 190.386233 -110.740384 
L 191.258281 -109.826695 
L 192.13033 -108.924948 
L 193.002378 -108.035042 
L 193.874426 -107.156872 
L 194.746474 -106.290333 
L 195.618523 -105.435318 
L 196.490571 -104.59172 
L 197.362619 -103.759431 
L 198.234668 -102.938345 
L 199.106716 -102.12835 
L 199.978764 -101.329339 
L 200.850812 -100.541202 
L 201.722861 -99.763828 
L 202.594909 -98.997108 
L 203.466957 -98.240931 
L 204.339006 -97.495187 
L 205.211054 -96.759764 
L 206.083102 -96.034553 
L 206.95515 -95.319444 
L 207.827199 -94.614325 
L 208.699247 -93.919087 
L 209.571295 -93.233619 
L 210.443344 -92.557813 
L 211.315392 -91.891558 
L 212.18744 -91.234746 
L 213.059488 -90.587268 
L 213.931537 -89.949015 
L 214.803585 -89.31988 
L 215.675633 -88.699756 
L 216.547682 -88.088536 
L 217.41973 -87.486112 
L 218.291778 -86.892381 
L 219.163826 -86.307236 
L 220.035875 -85.730574 
L 220.907923 -85.162289 
L 221.779971 -84.60228 
L 222.65202 -84.050443 
L 223.524068 -83.506676 
L 224.396116 -82.970879 
L 225.268164 -82.442952 
L 226.140213 -81.922793 
L 227.012261 -81.410306 
L 227.884309 -80.90539 
L 228.756357 -80.40795 
L 229.628406 -79.917889 
L 230.500454 -79.435111 
L 231.372502 -78.95952 
L 232.244551 -78.491024 
L 233.116599 -78.029528 
L 233.988647 -77.574941 
L 234.860695 -77.127171 
L 235.732744 -76.686127 
L 236.604792 -76.251719 
L 237.47684 -75.823858 
L 238.348889 -75.402456 
L 239.220937 -74.987427 
L 240.092985 -74.578683 
L 240.965033 -74.176139 
L 241.837082 -73.77971 
L 242.70913 -73.389313 
L 243.581178 -73.004865 
L 244.453227 -72.626284 
L 245.325275 -72.253489 
L 246.197323 -71.886399 
L 247.069371 -71.524935 
L 247.94142 -71.169018 
L 248.813468 -70.818572 
L 249.685516 -70.473518 
L 250.557565 -70.133782 
L 251.429613 -69.799288 
L 252.301661 -69.469962 
L 253.173709 -69.145731 
L 254.045758 -68.826523 
L 254.917806 -68.512264 
L 255.789854 -68.202886 
L 256.661903 -67.898317 
L 257.533951 -67.59849 
L 258.405999 -67.303335 
L 259.278047 -67.012785 
L 260.150096 -66.726773 
L 261.022144 -66.445235 
L 261.894192 -66.168103 
L 262.766241 -65.895316 
L 263.638289 -65.626808 
L 264.510337 -65.362518 
L 265.382385 -65.102384 
L 266.254434 -64.846345 
L 267.126482 -64.594339 
L 267.99853 -64.346309 
L 268.870579 -64.102195 
L 269.742627 -63.86194 
L 270.614675 -63.625485 
L 271.486723 -63.392775 
L 272.358772 -63.163754 
L 273.23082 -62.938367 
L 274.102868 -62.71656 
L 274.974917 -62.498278 
L 275.846965 -62.28347 
L 276.719013 -62.072083 
L 277.591061 -61.864065 
L 278.46311 -61.659367 
L 279.335158 -61.457937 
L 280.207206 -61.259727 
L 281.079255 -61.064687 
L 281.951303 -60.87277 
L 282.823351 -60.683929 
L 283.695399 -60.498116 
L 284.567448 -60.315285 
L 285.439496 -60.135391 
L 286.311544 -59.95839 
L 287.183593 -59.784236 
L 288.055641 -59.612887 
L 288.927689 -59.444299 
L 289.799737 -59.27843 
L 290.671786 -59.115238 
L 291.543834 -58.954682 
L 292.415882 -58.796721 
L 293.287931 -58.641315 
L 294.159979 -58.488425 
L 295.032027 -58.338012 
L 295.904075 -58.190038 
L 296.776124 -58.044464 
L 297.648172 -57.901253 
L 298.52022 -57.760369 
L 299.392269 -57.621776 
L 300.264317 -57.485437 
L 301.136365 -57.351317 
L 302.008413 -57.219383 
L 302.880462 -57.089599 
L 303.75251 -56.961932 
L 304.624558 -56.836349 
L 305.496607 -56.712818 
L 306.368655 -56.591305 
L 307.240703 -56.471779 
L 308.112751 -56.354209 
L 308.9848 -56.238565 
L 309.856848 -56.124815 
L 310.728896 -56.01293 
L 311.600945 -55.902881 
L 312.472993 -55.794638 
L 313.345041 -55.688172 
L 314.217089 -55.583456 
L 315.089138 -55.480462 
L 315.961186 -55.379163 
L 316.833234 -55.279531 
L 317.705283 -55.18154 
L 318.577331 -55.085165 
L 319.449379 -54.990378 
L 320.321427 -54.897155 
L 321.193476 -54.805471 
L 322.065524 -54.715302 
L 322.937572 -54.626622 
L 323.809621 -54.539409 
L 324.681669 -54.453639 
L 325.553717 -54.369288 
L 326.425765 -54.286334 
L 327.297814 -54.204754 
L 328.169862 -54.124527 
L 329.04191 -54.045631 
L 329.913959 -53.968044 
L 330.786007 -53.891744 
L 331.658055 -53.816712 
L 332.530103 -53.742927 
L 333.402152 -53.670369 
L 334.2742 -53.599018 
L 335.146248 -53.528854 
L 336.018297 -53.459859 
L 336.890345 -53.392012 
L 337.762393 -53.325297 
L 338.634441 -53.259694 
L 339.50649 -53.195185 
L 340.378538 -53.131753 
L 341.250586 -53.069379 
L 342.122635 -53.008048 
L 342.994683 -52.947741 
L 343.866731 -52.888443 
L 344.738779 -52.830136 
L 345.610828 -52.772806 
L 346.482876 -52.716434 
L 347.354924 -52.661007 
L 348.226973 -52.606508 
L 349.099021 -52.552923 
L 349.971069 -52.500237 
L 350.843117 -52.448434 
L 351.715166 -52.3975 
L 352.587214 -52.347422 
L 353.459262 -52.298184 
L 354.331311 -52.249774 
L 355.203359 -52.202178 
L 356.075407 -52.155382 
L 356.947455 -52.109373 
L 357.819504 -52.064138 
L 358.691552 -52.019665 
L 359.5636 -51.975941 
L 360.435648 -51.932953 
L 361.307697 -51.89069 
L 362.179745 -51.84914 
L 363.051793 -51.80829 
L 363.923842 -51.768129 
L 364.79589 -51.728647 
L 365.667938 -51.68983 
L 366.539986 -51.65167 
L 367.412035 -51.614154 
L 368.284083 -51.577273 
L 369.156131 -51.541015 
L 370.02818 -51.50537 
L 370.900228 -51.470329 
L 371.772276 -51.43588 
L 372.644324 -51.402015 
L 373.516373 -51.368724 
L 374.388421 -51.335996 
L 375.260469 -51.303823 
L 376.132518 -51.272196 
L 377.004566 -51.241105 
L 377.876614 -51.210542 
L 378.748662 -51.180497 
L 379.620711 -51.150962 
L 380.492759 -51.121929 
L 381.364807 -51.093389 
L 382.236856 -51.065334 
L 383.108904 -51.037756 
L 383.980952 -51.010647 
L 384.853 -50.983999 
L 385.725049 -50.957804 
L 386.597097 -50.932055 
L 387.469145 -50.906745 
L 388.341194 -50.881865 
L 389.213242 -50.85741 
L 390.08529 -50.833371 
L 390.957338 -50.809742 
L 391.829387 -50.786515 
L 392.701435 -50.763685 
L 393.573483 -50.741244 
L 394.445532 -50.719186 
L 395.31758 -50.697505 
L 396.189628 -50.676194 
L 397.061676 -50.655247 
L 397.933725 -50.634658 
L 398.805773 -50.61442 
L 399.677821 -50.594529 
L 400.54987 -50.574977 
L 401.421918 -50.55576 
L 402.293966 -50.536872 
L 403.166014 -50.518307 
L 404.038063 -50.50006 
L 404.910111 -50.482125 
L 405.782159 -50.464497 
L 406.654208 -50.447171 
L 407.526256 -50.430142 
L 408.398304 -50.413405 
L 409.270352 -50.396955 
L 410.142401 -50.380787 
L 411.014449 -50.364896 
L 411.886497 -50.349278 
L 412.758546 -50.333928 
L 413.630594 -50.318842 
L 414.502642 -50.304014 
L 415.37469 -50.289441 
L 416.246739 -50.275119 
L 417.118787 -50.261042 
L 417.990835 -50.247208 
L 418.862884 -50.233611 
L 419.734932 -50.220248 
L 420.60698 -50.207115 
L 421.479028 -50.194208 
L 422.351077 -50.181523 
L 423.223125 -50.169056 
L 423.223125 -49.464602 
L 423.223125 -49.464602 
L 422.351077 -49.464602 
L 421.479028 -49.464602 
L 420.60698 -49.464602 
L 419.734932 -49.464602 
L 418.862884 -49.464602 
L 417.990835 -49.464602 
L 417.118787 -49.464602 
L 416.246739 -49.464602 
L 415.37469 -49.464602 
L 414.502642 -49.464602 
L 413.630594 -49.464602 
L 412.758546 -49.464602 
L 411.886497 -49.464602 
L 411.014449 -49.464602 
L 410.142401 -49.464602 
L 409.270352 -49.464602 
L 408.398304 -49.464602 
L 407.526256 -49.464602 
L 406.654208 -49.464602 
L 405.782159 -49.464602 
L 404.910111 -49.464602 
L 404.038063 -49.464602 
L 403.166014 -49.464602 
L 402.293966 -49.464602 
L 401.421918 -49.464602 
L 400.54987 -49.464602 
L 399.677821 -49.464602 
L 398.805773 -49.464602 
L 397.933725 -49.464602 
L 397.061676 -49.464602 
L 396.189628 -49.464602 
L 395.31758 -49.464602 
L 394.445532 -49.464602 
L 393.573483 -49.464602 
L 392.701435 -49.464602 
L 391.829387 -49.464602 
L 390.957338 -49.464602 
L 390.08529 -49.464602 
L 389.213242 -49.464602 
L 388.341194 -49.464602 
L 387.469145 -49.464602 
L 386.597097 -49.464602 
L 385.725049 -49.464602 
L 384.853 -49.464602 
L 383.980952 -49.464602 
L 383.108904 -49.464602 
L 382.236856 -49.464602 
L 381.364807 -49.464602 
L 380.492759 -49.464602 
L 379.620711 -49.464602 
L 378.748662 -49.464602 
L 377.876614 -49.464602 
L 377.004566 -49.464602 
L 376.132518 -49.464602 
L 375.260469 -49.464602 
L 374.388421 -49.464602 
L 373.516373 -49.464602 
L 372.644324 -49.464602 
L 371.772276 -49.464602 
L 370.900228 -49.464602 
L 370.02818 -49.464602 
L 369.156131 -49.464602 
L 368.284083 -49.464602 
L 367.412035 -49.464602 
L 366.539986 -49.464602 
L 365.667938 -49.464602 
L 364.79589 -49.464602 
L 363.923842 -49.464602 
L 363.051793 -49.464602 
L 362.179745 -49.464602 
L 361.307697 -49.464602 
L 360.435648 -49.464602 
L 359.5636 -49.464602 
L 358.691552 -49.464602 
L 357.819504 -49.464602 
L 356.947455 -49.464602 
L 356.075407 -49.464602 
L 355.203359 -49.464602 
L 354.331311 -49.464602 
L 353.459262 -49.464602 
L 352.587214 -49.464602 
L 351.715166 -49.464602 
L 350.843117 -49.464602 
L 349.971069 -49.464602 
L 349.099021 -49.464602 
L 348.226973 -49.464602 
L 347.354924 -49.464602 
L 346.482876 -49.464602 
L 345.610828 -49.464602 
L 344.738779 -49.464602 
L 343.866731 -49.464602 
L 342.994683 -49.464602 
L 342.122635 -49.464602 
L 341.250586 -49.464602 
L 340.378538 -49.464602 
L 339.50649 -49.464602 
L 338.634441 -49.464602 
L 337.762393 -49.464602 
L 336.890345 -49.464602 
L 336.018297 -49.464602 
L 335.146248 -49.464602 
L 334.2742 -49.464602 
L 333.402152 -49.464602 
L 332.530103 -49.464602 
L 331.658055 -49.464602 
L 330.786007 -49.464602 
L 329.913959 -49.464602 
L 329.04191 -49.464602 
L 328.169862 -49.464602 
L 327.297814 -49.464602 
L 326.425765 -49.464602 
L 325.553717 -49.464602 
L 324.681669 -49.464602 
L 323.809621 -49.464602 
L 322.937572 -49.464602 
L 322.065524 -49.464602 
L 321.193476 -49.464602 
L 320.321427 -49.464602 
L 319.449379 -49.464602 
L 318.577331 -49.464602 
L 317.705283 -49.464602 
L 316.833234 -49.464602 
L 315.961186 -49.464602 
L 315.089138 -49.464602 
L 314.217089 -49.464602 
L 313.345041 -49.464602 
L 312.472993 -49.464602 
L 311.600945 -49.464602 
L 310.728896 -49.464602 
L 309.856848 -49.464602 
L 308.9848 -49.464602 
L 308.112751 -49.464602 
L 307.240703 -49.464602 
L 306.368655 -49.464602 
L 305.496607 -49.464602 
L 304.624558 -49.464602 
L 303.75251 -49.464602 
L 302.880462 -49.464602 
L 302.008413 -49.464602 
L 301.136365 -49.464602 
L 300.264317 -49.464602 
L 299.392269 -49.464602 
L 298.52022 -49.464602 
L 297.648172 -49.464602 
L 296.776124 -49.464602 
L 295.904075 -49.464602 
L 295.032027 -49.464602 
L 294.159979 -49.464602 
L 293.287931 -49.464602 
L 292.415882 -49.464602 
L 291.543834 -49.464602 
L 290.671786 -49.464602 
L 289.799737 -49.464602 
L 288.927689 -49.464602 
L 288.055641 -49.464602 
L 287.183593 -49.464602 
L 286.311544 -49.464602 
L 285.439496 -49.464602 
L 284.567448 -49.464602 
L 283.695399 -49.464602 
L 282.823351 -49.464602 
L 281.951303 -49.464602 
L 281.079255 -49.464602 
L 280.207206 -49.464602 
L 279.335158 -49.464602 
L 278.46311 -49.464602 
L 277.591061 -49.464602 
L 276.719013 -49.464602 
L 275.846965 -49.464602 
L 274.974917 -49.464602 
L 274.102868 -49.464602 
L 273.23082 -49.464602 
L 272.358772 -49.464602 
L 271.486723 -49.464602 
L 270.614675 -49.464602 
L 269.742627 -49.464602 
L 268.870579 -49.464602 
L 267.99853 -49.464602 
L 267.126482 -49.464602 
L 266.254434 -49.464602 
L 265.382385 -49.464602 
L 264.510337 -49.464602 
L 263.638289 -49.464602 
L 262.766241 -49.464602 
L 261.894192 -49.464602 
L 261.022144 -49.464602 
L 260.150096 -49.464602 
L 259.278047 -49.464602 
L 258.405999 -49.464602 
L 257.533951 -49.464602 
L 256.661903 -49.464602 
L 255.789854 -49.464602 
L 254.917806 -49.464602 
L 254.045758 -49.464602 
L 253.173709 -49.464602 
L 252.301661 -49.464602 
L 251.429613 -49.464602 
L 250.557565 -49.464602 
L 249.685516 -49.464602 
L 248.813468 -49.464602 
L 247.94142 -49.464602 
L 247.069371 -49.464602 
L 246.197323 -49.464602 
L 245.325275 -49.464602 
L 244.453227 -49.464602 
L 243.581178 -49.464602 
L 242.70913 -49.464602 
L 241.837082 -49.464602 
L 240.965033 -49.464602 
L 240.092985 -49.464602 
L 239.220937 -49.464602 
L 238.348889 -49.464602 
L 237.47684 -49.464602 
L 236.604792 -49.464602 
L 235.732744 -49.464602 
L 234.860695 -49.464602 
L 233.988647 -49.464602 
L 233.116599 -49.464602 
L 232.244551 -49.464602 
L 231.372502 -49.464602 
L 230.500454 -49.464602 
L 229.628406 -49.464602 
L 228.756357 -49.464602 
L 227.884309 -49.464602 
L 227.012261 -49.464602 
L 226.140213 -49.464602 
L 225.268164 -49.464602 
L 224.396116 -49.464602 
L 223.524068 -49.464602 
L 222.65202 -49.464602 
L 221.779971 -49.464602 
L 220.907923 -49.464602 
L 220.035875 -49.464602 
L 219.163826 -49.464602 
L 218.291778 -49.464602 
L 217.41973 -49.464602 
L 216.547682 -49.464602 
L 215.675633 -49.464602 
L 214.803585 -49.464602 
L 213.931537 -49.464602 
L 213.059488 -49.464602 
L 212.18744 -49.464602 
L 211.315392 -49.464602 
L 210.443344 -49.464602 
L 209.571295 -49.464602 
L 208.699247 -49.464602 
L 207.827199 -49.464602 
L 206.95515 -49.464602 
L 206.083102 -49.464602 
L 205.211054 -49.464602 
L 204.339006 -49.464602 
L 203.466957 -49.464602 
L 202.594909 -49.464602 
L 201.722861 -49.464602 
L 200.850812 -49.464602 
L 199.978764 -49.464602 
L 199.106716 -49.464602 
L 198.234668 -49.464602 
L 197.362619 -49.464602 
L 196.490571 -49.464602 
L 195.618523 -49.464602 
L 194.746474 -49.464602 
L 193.874426 -49.464602 
L 193.002378 -49.464602 
L 192.13033 -49.464602 
L 191.258281 -49.464602 
L 190.386233 -49.464602 
L 189.514185 -49.464602 
L 188.642136 -49.464602 
L 187.770088 -49.464602 
L 186.89804 -49.464602 
L 186.025992 -49.464602 
L 185.153943 -49.464602 
L 184.281895 -49.464602 
L 183.409847 -49.464602 
L 182.537798 -49.464602 
L 181.66575 -49.464602 
L 180.793702 -49.464602 
L 179.921654 -49.464602 
L 179.049605 -49.464602 
L 178.177557 -49.464602 
L 177.305509 -49.464602 
L 176.43346 -49.464602 
L 175.561412 -49.464602 
L 174.689364 -49.464602 
L 173.817316 -49.464602 
L 172.945267 -49.464602 
L 172.073219 -49.464602 
L 171.201171 -49.464602 
L 170.329122 -49.464602 
L 169.457074 -49.464602 
L 168.585026 -49.464602 
L 167.712978 -49.464602 
L 166.840929 -49.464602 
L 165.968881 -49.464602 
L 165.096833 -49.464602 
L 164.224784 -49.464602 
L 163.352736 -49.464602 
L 162.480688 -49.464602 
L 161.60864 -49.464602 
L 160.736591 -49.464602 
L 159.864543 -49.464602 
L 158.992495 -49.464602 
L 158.120446 -49.464602 
L 157.248398 -49.464602 
L 156.37635 -49.464602 
L 155.504302 -49.464602 
L 154.632253 -49.464602 
L 153.760205 -49.464602 
L 152.888157 -49.464602 
L 152.016108 -49.464602 
L 151.14406 -49.464602 
L 150.272012 -49.464602 
L 149.399964 -49.464602 
L 148.527915 -49.464602 
L 147.655867 -49.464602 
L 146.783819 -49.464602 
L 145.91177 -49.464602 
L 145.039722 -49.464602 
L 144.167674 -49.464602 
L 143.295626 -49.464602 
L 142.423577 -49.464602 
L 141.551529 -49.464602 
L 140.679481 -49.464602 
L 139.807432 -49.464602 
L 138.935384 -49.464602 
L 138.063336 -49.464602 
L 137.191288 -49.464602 
L 136.319239 -49.464602 
L 135.447191 -49.464602 
L 134.575143 -49.464602 
L 133.703094 -49.464602 
L 132.831046 -49.464602 
L 131.958998 -49.464602 
L 131.08695 -49.464602 
L 130.214901 -49.464602 
L 129.342853 -49.464602 
L 128.470805 -49.464602 
L 127.598756 -49.464602 
L 126.726708 -49.464602 
L 125.85466 -49.464602 
L 124.982612 -49.464602 
L 124.110563 -49.464602 
L 123.238515 -49.464602 
L 122.366467 -49.464602 
L 121.494418 -49.464602 
L 120.62237 -49.464602 
L 119.750322 -49.464602 
L 118.878274 -49.464602 
L 118.006225 -49.464602 
L 117.134177 -49.464602 
L 116.262129 -49.464602 
L 115.39008 -49.464602 
L 114.518032 -49.464602 
L 113.645984 -49.464602 
L 112.773936 -49.464602 
L 111.901887 -49.464602 
L 111.029839 -49.464602 
L 110.157791 -49.464602 
L 109.285742 -49.464602 
L 108.413694 -49.464602 
L 107.541646 -49.464602 
L 106.669598 -49.464602 
L 105.797549 -49.464602 
L 104.925501 -49.464602 
L 104.053453 -49.464602 
L 103.181404 -49.464602 
L 102.309356 -49.464602 
L 101.437308 -49.464602 
L 100.56526 -49.464602 
L 99.693211 -49.464602 
L 98.821163 -49.464602 
L 97.949115 -49.464602 
L 97.077066 -49.464602 
L 96.205018 -49.464602 
L 95.33297 -49.464602 
L 94.460922 -49.464602 
L 93.588873 -49.464602 
L 92.716825 -49.464602 
L 91.844777 -49.464602 
L 90.972729 -49.464602 
L 90.10068 -49.464602 
L 89.228632 -49.464602 
L 88.356584 -49.464602 
L 87.484535 -49.464602 
L 86.612487 -49.464602 
L 85.740439 -49.464602 
L 84.868391 -49.464602 
L 83.996342 -49.464602 
L 83.124294 -49.464602 
L 82.252246 -49.464602 
L 81.380197 -49.464602 
L 80.508149 -49.464602 
L 79.636101 -49.464602 
L 78.764053 -49.464602 
L 77.892004 -49.464602 
L 77.019956 -49.464602 
L 76.147908 -49.464602 
L 75.275859 -49.464602 
z
" style="stroke: #4682b4; stroke-opacity: 0.15"/>
    </defs>
    <g clip-path="url(#p2b8b61fff8)">
     <use xlink:href="#m3dae40a101" x="0" y="281.21" style="fill: #4682b4; fill-opacity: 0.15; stroke: #4682b4; stroke-opacity: 0.15"/>
    </g>
   </g>
   <g id="matplotlib.axis_1">
    <g id="xtick_1">
     <g id="line2d_1">
      <path d="M 75.275859 241.718125 
L 75.275859 22.318125 
" clip-path="url(#p2b8b61fff8)" style="fill: none; stroke-dasharray: 2.96,1.28; stroke-dashoffset: 0; stroke: #b0b0b0; stroke-opacity: 0.4; stroke-width: 0.8"/>
     </g>
     <g id="line2d_2">
      <defs>
       <path id="m84ce82fe1e" d="M 0 0 
L 0 3.5 
" style="stroke: #000000; stroke-width: 0.8"/>
      </defs>
      <g>
       <use xlink:href="#m84ce82fe1e" x="75.275859" y="241.718125" style="stroke: #000000; stroke-width: 0.8"/>
      </g>
     </g>
     <g id="text_1">
      <!-- 0 -->
      <g transform="translate(72.094609 256.316562) scale(0.1 -0.1)">
       <defs>
        <path id="DejaVuSans-30" d="M 2034 4250 
Q 1547 4250 1301 3770 
Q 1056 3291 1056 2328 
Q 1056 1369 1301 889 
Q 1547 409 2034 409 
Q 2525 409 2770 889 
Q 3016 1369 3016 2328 
Q 3016 3291 2770 3770 
Q 2525 4250 2034 4250 
z
M 2034 4750 
Q 2819 4750 3233 4129 
Q 3647 3509 3647 2328 
Q 3647 1150 3233 529 
Q 2819 -91 2034 -91 
Q 1250 -91 836 529 
Q 422 1150 422 2328 
Q 422 3509 836 4129 
Q 1250 4750 2034 4750 
z
" transform="scale(0.015625)"/>
       </defs>
       <use xlink:href="#DejaVuSans-30"/>
      </g>
     </g>
    </g>
    <g id="xtick_2">
     <g id="line2d_3">
      <path d="M 121.668828 241.718125 
L 121.668828 22.318125 
" clip-path="url(#p2b8b61fff8)" style="fill: none; stroke-dasharray: 2.96,1.28; stroke-dashoffset: 0; stroke: #b0b0b0; stroke-opacity: 0.4; stroke-width: 0.8"/>
     </g>
     <g id="line2d_4">
      <g>
       <use xlink:href="#m84ce82fe1e" x="121.668828" y="241.718125" style="stroke: #000000; stroke-width: 0.8"/>
      </g>
     </g>
     <g id="text_2">
      <!-- 2 -->
      <g transform="translate(118.487578 256.316562) scale(0.1 -0.1)">
       <defs>
        <path id="DejaVuSans-32" d="M 1228 531 
L 3431 531 
L 3431 0 
L 469 0 
L 469 531 
Q 828 903 1448 1529 
Q 2069 2156 2228 2338 
Q 2531 2678 2651 2914 
Q 2772 3150 2772 3378 
Q 2772 3750 2511 3984 
Q 2250 4219 1831 4219 
Q 1534 4219 1204 4116 
Q 875 4013 500 3803 
L 500 4441 
Q 881 4594 1212 4672 
Q 1544 4750 1819 4750 
Q 2544 4750 2975 4387 
Q 3406 4025 3406 3419 
Q 3406 3131 3298 2873 
Q 3191 2616 2906 2266 
Q 2828 2175 2409 1742 
Q 1991 1309 1228 531 
z
" transform="scale(0.015625)"/>
       </defs>
       <use xlink:href="#DejaVuSans-32"/>
      </g>
     </g>
    </g>
    <g id="xtick_3">
     <g id="line2d_5">
      <path d="M 168.061797 241.718125 
L 168.061797 22.318125 
" clip-path="url(#p2b8b61fff8)" style="fill: none; stroke-dasharray: 2.96,1.28; stroke-dashoffset: 0; stroke: #b0b0b0; stroke-opacity: 0.4; stroke-width: 0.8"/>
     </g>
     <g id="line2d_6">
      <g>
       <use xlink:href="#m84ce82fe1e" x="168.061797" y="241.718125" style="stroke: #000000; stroke-width: 0.8"/>
      </g>
     </g>
     <g id="text_3">
      <!-- 4 -->
      <g transform="translate(164.880547 256.316562) scale(0.1 -0.1)">
       <defs>
        <path id="DejaVuSans-34" d="M 2419 4116 
L 825 1625 
L 2419 1625 
L 2419 4116 
z
M 2253 4666 
L 3047 4666 
L 3047 1625 
L 3713 1625 
L 3713 1100 
L 3047 1100 
L 3047 0 
L 2419 0 
L 2419 1100 
L 313 1100 
L 313 1709 
L 2253 4666 
z
" transform="scale(0.015625)"/>
       </defs>
       <use xlink:href="#DejaVuSans-34"/>
      </g>
     </g>
    </g>
    <g id="xtick_4">
     <g id="line2d_7">
      <path d="M 214.454766 241.718125 
L 214.454766 22.318125 
" clip-path="url(#p2b8b61fff8)" style="fill: none; stroke-dasharray: 2.96,1.28; stroke-dashoffset: 0; stroke: #b0b0b0; stroke-opacity: 0.4; stroke-width: 0.8"/>
     </g>
     <g id="line2d_8">
      <g>
       <use xlink:href="#m84ce82fe1e" x="214.454766" y="241.718125" style="stroke: #000000; stroke-width: 0.8"/>
      </g>
     </g>
     <g id="text_4">
      <!-- 6 -->
      <g transform="translate(211.273516 256.316562) scale(0.1 -0.1)">
       <defs>
        <path id="DejaVuSans-36" d="M 2113 2584 
Q 1688 2584 1439 2293 
Q 1191 2003 1191 1497 
Q 1191 994 1439 701 
Q 1688 409 2113 409 
Q 2538 409 2786 701 
Q 3034 994 3034 1497 
Q 3034 2003 2786 2293 
Q 2538 2584 2113 2584 
z
M 3366 4563 
L 3366 3988 
Q 3128 4100 2886 4159 
Q 2644 4219 2406 4219 
Q 1781 4219 1451 3797 
Q 1122 3375 1075 2522 
Q 1259 2794 1537 2939 
Q 1816 3084 2150 3084 
Q 2853 3084 3261 2657 
Q 3669 2231 3669 1497 
Q 3669 778 3244 343 
Q 2819 -91 2113 -91 
Q 1303 -91 875 529 
Q 447 1150 447 2328 
Q 447 3434 972 4092 
Q 1497 4750 2381 4750 
Q 2619 4750 2861 4703 
Q 3103 4656 3366 4563 
z
" transform="scale(0.015625)"/>
       </defs>
       <use xlink:href="#DejaVuSans-36"/>
      </g>
     </g>
    </g>
    <g id="xtick_5">
     <g id="line2d_9">
      <path d="M 260.847734 241.718125 
L 260.847734 22.318125 
" clip-path="url(#p2b8b61fff8)" style="fill: none; stroke-dasharray: 2.96,1.28; stroke-dashoffset: 0; stroke: #b0b0b0; stroke-opacity: 0.4; stroke-width: 0.8"/>
     </g>
     <g id="line2d_10">
      <g>
       <use xlink:href="#m84ce82fe1e" x="260.847734" y="241.718125" style="stroke: #000000; stroke-width: 0.8"/>
      </g>
     </g>
     <g id="text_5">
      <!-- 8 -->
      <g transform="translate(257.666484 256.316562) scale(0.1 -0.1)">
       <defs>
        <path id="DejaVuSans-38" d="M 2034 2216 
Q 1584 2216 1326 1975 
Q 1069 1734 1069 1313 
Q 1069 891 1326 650 
Q 1584 409 2034 409 
Q 2484 409 2743 651 
Q 3003 894 3003 1313 
Q 3003 1734 2745 1975 
Q 2488 2216 2034 2216 
z
M 1403 2484 
Q 997 2584 770 2862 
Q 544 3141 544 3541 
Q 544 4100 942 4425 
Q 1341 4750 2034 4750 
Q 2731 4750 3128 4425 
Q 3525 4100 3525 3541 
Q 3525 3141 3298 2862 
Q 3072 2584 2669 2484 
Q 3125 2378 3379 2068 
Q 3634 1759 3634 1313 
Q 3634 634 3220 271 
Q 2806 -91 2034 -91 
Q 1263 -91 848 271 
Q 434 634 434 1313 
Q 434 1759 690 2068 
Q 947 2378 1403 2484 
z
M 1172 3481 
Q 1172 3119 1398 2916 
Q 1625 2713 2034 2713 
Q 2441 2713 2670 2916 
Q 2900 3119 2900 3481 
Q 2900 3844 2670 4047 
Q 2441 4250 2034 4250 
Q 1625 4250 1398 4047 
Q 1172 3844 1172 3481 
z
" transform="scale(0.015625)"/>
       </defs>
       <use xlink:href="#DejaVuSans-38"/>
      </g>
     </g>
    </g>
    <g id="xtick_6">
     <g id="line2d_11">
      <path d="M 307.240703 241.718125 
L 307.240703 22.318125 
" clip-path="url(#p2b8b61fff8)" style="fill: none; stroke-dasharray: 2.96,1.28; stroke-dashoffset: 0; stroke: #b0b0b0; stroke-opacity: 0.4; stroke-width: 0.8"/>
     </g>
     <g id="line2d_12">
      <g>
       <use xlink:href="#m84ce82fe1e" x="307.240703" y="241.718125" style="stroke: #000000; stroke-width: 0.8"/>
      </g>
     </g>
     <g id="text_6">
      <!-- 10 -->
      <g transform="translate(300.878203 256.316562) scale(0.1 -0.1)">
       <defs>
        <path id="DejaVuSans-31" d="M 794 531 
L 1825 531 
L 1825 4091 
L 703 3866 
L 703 4441 
L 1819 4666 
L 2450 4666 
L 2450 531 
L 3481 531 
L 3481 0 
L 794 0 
L 794 531 
z
" transform="scale(0.015625)"/>
       </defs>
       <use xlink:href="#DejaVuSans-31"/>
       <use xlink:href="#DejaVuSans-30" transform="translate(63.623047 0)"/>
      </g>
     </g>
    </g>
    <g id="xtick_7">
     <g id="line2d_13">
      <path d="M 353.633672 241.718125 
L 353.633672 22.318125 
" clip-path="url(#p2b8b61fff8)" style="fill: none; stroke-dasharray: 2.96,1.28; stroke-dashoffset: 0; stroke: #b0b0b0; stroke-opacity: 0.4; stroke-width: 0.8"/>
     </g>
     <g id="line2d_14">
      <g>
       <use xlink:href="#m84ce82fe1e" x="353.633672" y="241.718125" style="stroke: #000000; stroke-width: 0.8"/>
      </g>
     </g>
     <g id="text_7">
      <!-- 12 -->
      <g transform="translate(347.271172 256.316562) scale(0.1 -0.1)">
       <use xlink:href="#DejaVuSans-31"/>
       <use xlink:href="#DejaVuSans-32" transform="translate(63.623047 0)"/>
      </g>
     </g>
    </g>
    <g id="xtick_8">
     <g id="line2d_15">
      <path d="M 400.026641 241.718125 
L 400.026641 22.318125 
" clip-path="url(#p2b8b61fff8)" style="fill: none; stroke-dasharray: 2.96,1.28; stroke-dashoffset: 0; stroke: #b0b0b0; stroke-opacity: 0.4; stroke-width: 0.8"/>
     </g>
     <g id="line2d_16">
      <g>
       <use xlink:href="#m84ce82fe1e" x="400.026641" y="241.718125" style="stroke: #000000; stroke-width: 0.8"/>
      </g>
     </g>
     <g id="text_8">
      <!-- 14 -->
      <g transform="translate(393.664141 256.316562) scale(0.1 -0.1)">
       <use xlink:href="#DejaVuSans-31"/>
       <use xlink:href="#DejaVuSans-34" transform="translate(63.623047 0)"/>
      </g>
     </g>
    </g>
    <g id="text_9">
     <!-- x -->
     <g transform="translate(234.1 271.514375) scale(0.12 -0.12)">
      <defs>
       <path id="DejaVuSans-78" d="M 3513 3500 
L 2247 1797 
L 3578 0 
L 2900 0 
L 1881 1375 
L 863 0 
L 184 0 
L 1544 1831 
L 300 3500 
L 978 3500 
L 1906 2253 
L 2834 3500 
L 3513 3500 
z
" transform="scale(0.015625)"/>
      </defs>
      <use xlink:href="#DejaVuSans-78"/>
     </g>
    </g>
   </g>
   <g id="matplotlib.axis_2">
    <g id="ytick_1">
     <g id="line2d_17">
      <path d="M 52.079375 231.745398 
L 423.223125 231.745398 
" clip-path="url(#p2b8b61fff8)" style="fill: none; stroke-dasharray: 2.96,1.28; stroke-dashoffset: 0; stroke: #b0b0b0; stroke-opacity: 0.4; stroke-width: 0.8"/>
     </g>
     <g id="line2d_18">
      <defs>
       <path id="m36c3b5e9b9" d="M 0 0 
L -3.5 0 
" style="stroke: #000000; stroke-width: 0.8"/>
      </defs>
      <g>
       <use xlink:href="#m36c3b5e9b9" x="52.079375" y="231.745398" style="stroke: #000000; stroke-width: 0.8"/>
      </g>
     </g>
     <g id="text_10">
      <!-- 0.00 -->
      <g transform="translate(22.81375 235.544616) scale(0.1 -0.1)">
       <defs>
        <path id="DejaVuSans-2e" d="M 684 794 
L 1344 794 
L 1344 0 
L 684 0 
L 684 794 
z
" transform="scale(0.015625)"/>
       </defs>
       <use xlink:href="#DejaVuSans-30"/>
       <use xlink:href="#DejaVuSans-2e" transform="translate(63.623047 0)"/>
       <use xlink:href="#DejaVuSans-30" transform="translate(95.410156 0)"/>
       <use xlink:href="#DejaVuSans-30" transform="translate(159.033203 0)"/>
      </g>
     </g>
    </g>
    <g id="ytick_2">
     <g id="line2d_19">
      <path d="M 52.079375 190.528488 
L 423.223125 190.528488 
" clip-path="url(#p2b8b61fff8)" style="fill: none; stroke-dasharray: 2.96,1.28; stroke-dashoffset: 0; stroke: #b0b0b0; stroke-opacity: 0.4; stroke-width: 0.8"/>
     </g>
     <g id="line2d_20">
      <g>
       <use xlink:href="#m36c3b5e9b9" x="52.079375" y="190.528488" style="stroke: #000000; stroke-width: 0.8"/>
      </g>
     </g>
     <g id="text_11">
      <!-- 0.05 -->
      <g transform="translate(22.81375 194.327707) scale(0.1 -0.1)">
       <defs>
        <path id="DejaVuSans-35" d="M 691 4666 
L 3169 4666 
L 3169 4134 
L 1269 4134 
L 1269 2991 
Q 1406 3038 1543 3061 
Q 1681 3084 1819 3084 
Q 2600 3084 3056 2656 
Q 3513 2228 3513 1497 
Q 3513 744 3044 326 
Q 2575 -91 1722 -91 
Q 1428 -91 1123 -41 
Q 819 9 494 109 
L 494 744 
Q 775 591 1075 516 
Q 1375 441 1709 441 
Q 2250 441 2565 725 
Q 2881 1009 2881 1497 
Q 2881 1984 2565 2268 
Q 2250 2553 1709 2553 
Q 1456 2553 1204 2497 
Q 953 2441 691 2322 
L 691 4666 
z
" transform="scale(0.015625)"/>
       </defs>
       <use xlink:href="#DejaVuSans-30"/>
       <use xlink:href="#DejaVuSans-2e" transform="translate(63.623047 0)"/>
       <use xlink:href="#DejaVuSans-30" transform="translate(95.410156 0)"/>
       <use xlink:href="#DejaVuSans-35" transform="translate(159.033203 0)"/>
      </g>
     </g>
    </g>
    <g id="ytick_3">
     <g id="line2d_21">
      <path d="M 52.079375 149.311579 
L 423.223125 149.311579 
" clip-path="url(#p2b8b61fff8)" style="fill: none; stroke-dasharray: 2.96,1.28; stroke-dashoffset: 0; stroke: #b0b0b0; stroke-opacity: 0.4; stroke-width: 0.8"/>
     </g>
     <g id="line2d_22">
      <g>
       <use xlink:href="#m36c3b5e9b9" x="52.079375" y="149.311579" style="stroke: #000000; stroke-width: 0.8"/>
      </g>
     </g>
     <g id="text_12">
      <!-- 0.10 -->
      <g transform="translate(22.81375 153.110797) scale(0.1 -0.1)">
       <use xlink:href="#DejaVuSans-30"/>
       <use xlink:href="#DejaVuSans-2e" transform="translate(63.623047 0)"/>
       <use xlink:href="#DejaVuSans-31" transform="translate(95.410156 0)"/>
       <use xlink:href="#DejaVuSans-30" transform="translate(159.033203 0)"/>
      </g>
     </g>
    </g>
    <g id="ytick_4">
     <g id="line2d_23">
      <path d="M 52.079375 108.094669 
L 423.223125 108.094669 
" clip-path="url(#p2b8b61fff8)" style="fill: none; stroke-dasharray: 2.96,1.28; stroke-dashoffset: 0; stroke: #b0b0b0; stroke-opacity: 0.4; stroke-width: 0.8"/>
     </g>
     <g id="line2d_24">
      <g>
       <use xlink:href="#m36c3b5e9b9" x="52.079375" y="108.094669" style="stroke: #000000; stroke-width: 0.8"/>
      </g>
     </g>
     <g id="text_13">
      <!-- 0.15 -->
      <g transform="translate(22.81375 111.893888) scale(0.1 -0.1)">
       <use xlink:href="#DejaVuSans-30"/>
       <use xlink:href="#DejaVuSans-2e" transform="translate(63.623047 0)"/>
       <use xlink:href="#DejaVuSans-31" transform="translate(95.410156 0)"/>
       <use xlink:href="#DejaVuSans-35" transform="translate(159.033203 0)"/>
      </g>
     </g>
    </g>
    <g id="ytick_5">
     <g id="line2d_25">
      <path d="M 52.079375 66.877759 
L 423.223125 66.877759 
" clip-path="url(#p2b8b61fff8)" style="fill: none; stroke-dasharray: 2.96,1.28; stroke-dashoffset: 0; stroke: #b0b0b0; stroke-opacity: 0.4; stroke-width: 0.8"/>
     </g>
     <g id="line2d_26">
      <g>
       <use xlink:href="#m36c3b5e9b9" x="52.079375" y="66.877759" style="stroke: #000000; stroke-width: 0.8"/>
      </g>
     </g>
     <g id="text_14">
      <!-- 0.20 -->
      <g transform="translate(22.81375 70.676978) scale(0.1 -0.1)">
       <use xlink:href="#DejaVuSans-30"/>
       <use xlink:href="#DejaVuSans-2e" transform="translate(63.623047 0)"/>
       <use xlink:href="#DejaVuSans-32" transform="translate(95.410156 0)"/>
       <use xlink:href="#DejaVuSans-30" transform="translate(159.033203 0)"/>
      </g>
     </g>
    </g>
    <g id="ytick_6">
     <g id="line2d_27">
      <path d="M 52.079375 25.66085 
L 423.223125 25.66085 
" clip-path="url(#p2b8b61fff8)" style="fill: none; stroke-dasharray: 2.96,1.28; stroke-dashoffset: 0; stroke: #b0b0b0; stroke-opacity: 0.4; stroke-width: 0.8"/>
     </g>
     <g id="line2d_28">
      <g>
       <use xlink:href="#m36c3b5e9b9" x="52.079375" y="25.66085" style="stroke: #000000; stroke-width: 0.8"/>
      </g>
     </g>
     <g id="text_15">
      <!-- 0.25 -->
      <g transform="translate(22.81375 29.460068) scale(0.1 -0.1)">
       <use xlink:href="#DejaVuSans-30"/>
       <use xlink:href="#DejaVuSans-2e" transform="translate(63.623047 0)"/>
       <use xlink:href="#DejaVuSans-32" transform="translate(95.410156 0)"/>
       <use xlink:href="#DejaVuSans-35" transform="translate(159.033203 0)"/>
      </g>
     </g>
    </g>
    <g id="text_16">
     <!-- f(x) -->
     <g transform="translate(16.318125 142.363438) rotate(-90) scale(0.12 -0.12)">
      <defs>
       <path id="DejaVuSans-66" d="M 2375 4863 
L 2375 4384 
L 1825 4384 
Q 1516 4384 1395 4259 
Q 1275 4134 1275 3809 
L 1275 3500 
L 2222 3500 
L 2222 3053 
L 1275 3053 
L 1275 0 
L 697 0 
L 697 3053 
L 147 3053 
L 147 3500 
L 697 3500 
L 697 3744 
Q 697 4328 969 4595 
Q 1241 4863 1831 4863 
L 2375 4863 
z
" transform="scale(0.015625)"/>
       <path id="DejaVuSans-28" d="M 1984 4856 
Q 1566 4138 1362 3434 
Q 1159 2731 1159 2009 
Q 1159 1288 1364 580 
Q 1569 -128 1984 -844 
L 1484 -844 
Q 1016 -109 783 600 
Q 550 1309 550 2009 
Q 550 2706 781 3412 
Q 1013 4119 1484 4856 
L 1984 4856 
z
" transform="scale(0.015625)"/>
       <path id="DejaVuSans-29" d="M 513 4856 
L 1013 4856 
Q 1481 4119 1714 3412 
Q 1947 2706 1947 2009 
Q 1947 1309 1714 600 
Q 1481 -109 1013 -844 
L 513 -844 
Q 928 -128 1133 580 
Q 1338 1288 1338 2009 
Q 1338 2731 1133 3434 
Q 928 4138 513 4856 
z
" transform="scale(0.015625)"/>
      </defs>
      <use xlink:href="#DejaVuSans-66"/>
      <use xlink:href="#DejaVuSans-28" transform="translate(35.205078 0)"/>
      <use xlink:href="#DejaVuSans-78" transform="translate(74.21875 0)"/>
      <use xlink:href="#DejaVuSans-29" transform="translate(133.398438 0)"/>
     </g>
    </g>
   </g>
   <g id="line2d_29">
    <path d="M 75.275859 231.745398 
L 76.147908 169.168902 
L 77.019956 144.896801 
L 77.892004 127.358737 
L 78.764053 113.454604 
L 79.636101 101.955013 
L 80.508149 92.214717 
L 81.380197 83.84148 
L 83.124294 70.225864 
L 84.868391 59.767245 
L 86.612487 51.683529 
L 88.356584 45.464275 
L 90.10068 40.750917 
L 90.972729 38.8734 
L 91.844777 37.278226 
L 92.716825 35.941621 
L 93.588873 34.84242 
L 94.460922 33.961675 
L 95.33297 33.282333 
L 96.205018 32.788973 
L 97.077066 32.467597 
L 97.949115 32.305446 
L 98.821163 32.290852 
L 99.693211 32.413114 
L 100.56526 32.662389 
L 102.309356 33.506359 
L 104.053453 34.757999 
L 105.797549 36.361559 
L 107.541646 38.268722 
L 109.285742 40.437368 
L 111.901887 44.101153 
L 114.518032 48.164888 
L 118.006225 54.054724 
L 122.366467 61.942021 
L 128.470805 73.52213 
L 142.423577 100.151451 
L 148.527915 111.245638 
L 153.760205 120.319225 
L 158.992495 128.938798 
L 164.224784 137.077031 
L 168.585026 143.482225 
L 172.945267 149.543942 
L 177.305509 155.26568 
L 181.66575 160.654154 
L 186.025992 165.718498 
L 190.386233 170.469616 
L 194.746474 174.919667 
L 199.106716 179.08165 
L 203.466957 182.969069 
L 207.827199 186.595675 
L 212.18744 189.975254 
L 217.41973 193.723888 
L 222.65202 197.159557 
L 227.884309 200.30461 
L 233.116599 203.180472 
L 238.348889 205.807544 
L 243.581178 208.205135 
L 249.685516 210.736482 
L 255.789854 213.007114 
L 261.894192 215.041897 
L 268.870579 217.107805 
L 275.846965 218.92653 
L 282.823351 220.526071 
L 290.671786 222.094762 
L 299.392269 223.588224 
L 308.112751 224.855791 
L 317.705283 226.02846 
L 328.169862 227.085473 
L 339.50649 228.014815 
L 352.587214 228.862578 
L 367.412035 229.595846 
L 384.853 230.226001 
L 405.782159 230.745503 
L 423.223125 231.040944 
L 423.223125 231.040944 
" clip-path="url(#p2b8b61fff8)" style="fill: none; stroke: #4682b4; stroke-width: 2.5; stroke-linecap: square"/>
   </g>
   <g id="patch_3">
    <path d="M 52.079375 241.718125 
L 52.079375 22.318125 
" style="fill: none; stroke: #000000; stroke-width: 0.8; stroke-linejoin: miter; stroke-linecap: square"/>
   </g>
   <g id="patch_4">
    <path d="M 423.223125 241.718125 
L 423.223125 22.318125 
" style="fill: none; stroke: #000000; stroke-width: 0.8; stroke-linejoin: miter; stroke-linecap: square"/>
   </g>
   <g id="patch_5">
    <path d="M 52.079375 241.718125 
L 423.223125 241.718125 
" style="fill: none; stroke: #000000; stroke-width: 0.8; stroke-linejoin: miter; stroke-linecap: square"/>
   </g>
   <g id="patch_6">
    <path d="M 52.079375 22.318125 
L 423.223125 22.318125 
" style="fill: none; stroke: #000000; stroke-width: 0.8; stroke-linejoin: miter; stroke-linecap: square"/>
   </g>
   <g id="text_17">
    <!-- long right tail -->
    <g style="fill: #4682b4" transform="translate(268.571953 215.258634) scale(0.1 -0.1)">
     <defs>
      <path id="DejaVuSans-Bold-6c" d="M 538 4863 
L 1656 4863 
L 1656 0 
L 538 0 
L 538 4863 
z
" transform="scale(0.015625)"/>
      <path id="DejaVuSans-Bold-6f" d="M 2203 2784 
Q 1831 2784 1636 2517 
Q 1441 2250 1441 1747 
Q 1441 1244 1636 976 
Q 1831 709 2203 709 
Q 2569 709 2762 976 
Q 2956 1244 2956 1747 
Q 2956 2250 2762 2517 
Q 2569 2784 2203 2784 
z
M 2203 3584 
Q 3106 3584 3614 3096 
Q 4122 2609 4122 1747 
Q 4122 884 3614 396 
Q 3106 -91 2203 -91 
Q 1297 -91 786 396 
Q 275 884 275 1747 
Q 275 2609 786 3096 
Q 1297 3584 2203 3584 
z
" transform="scale(0.015625)"/>
      <path id="DejaVuSans-Bold-6e" d="M 4056 2131 
L 4056 0 
L 2931 0 
L 2931 347 
L 2931 1631 
Q 2931 2084 2911 2256 
Q 2891 2428 2841 2509 
Q 2775 2619 2662 2680 
Q 2550 2741 2406 2741 
Q 2056 2741 1856 2470 
Q 1656 2200 1656 1722 
L 1656 0 
L 538 0 
L 538 3500 
L 1656 3500 
L 1656 2988 
Q 1909 3294 2193 3439 
Q 2478 3584 2822 3584 
Q 3428 3584 3742 3212 
Q 4056 2841 4056 2131 
z
" transform="scale(0.015625)"/>
      <path id="DejaVuSans-Bold-67" d="M 2919 594 
Q 2688 288 2409 144 
Q 2131 0 1766 0 
Q 1125 0 706 504 
Q 288 1009 288 1791 
Q 288 2575 706 3076 
Q 1125 3578 1766 3578 
Q 2131 3578 2409 3434 
Q 2688 3291 2919 2981 
L 2919 3500 
L 4044 3500 
L 4044 353 
Q 4044 -491 3511 -936 
Q 2978 -1381 1966 -1381 
Q 1638 -1381 1331 -1331 
Q 1025 -1281 716 -1178 
L 716 -306 
Q 1009 -475 1290 -558 
Q 1572 -641 1856 -641 
Q 2406 -641 2662 -400 
Q 2919 -159 2919 353 
L 2919 594 
z
M 2181 2772 
Q 1834 2772 1640 2515 
Q 1447 2259 1447 1791 
Q 1447 1309 1634 1061 
Q 1822 813 2181 813 
Q 2531 813 2725 1069 
Q 2919 1325 2919 1791 
Q 2919 2259 2725 2515 
Q 2531 2772 2181 2772 
z
" transform="scale(0.015625)"/>
      <path id="DejaVuSans-Bold-20" transform="scale(0.015625)"/>
      <path id="DejaVuSans-Bold-72" d="M 3138 2547 
Q 2991 2616 2845 2648 
Q 2700 2681 2553 2681 
Q 2122 2681 1889 2404 
Q 1656 2128 1656 1613 
L 1656 0 
L 538 0 
L 538 3500 
L 1656 3500 
L 1656 2925 
Q 1872 3269 2151 3426 
Q 2431 3584 2822 3584 
Q 2878 3584 2943 3579 
Q 3009 3575 3134 3559 
L 3138 2547 
z
" transform="scale(0.015625)"/>
      <path id="DejaVuSans-Bold-69" d="M 538 3500 
L 1656 3500 
L 1656 0 
L 538 0 
L 538 3500 
z
M 538 4863 
L 1656 4863 
L 1656 3950 
L 538 3950 
L 538 4863 
z
" transform="scale(0.015625)"/>
      <path id="DejaVuSans-Bold-68" d="M 4056 2131 
L 4056 0 
L 2931 0 
L 2931 347 
L 2931 1625 
Q 2931 2084 2911 2256 
Q 2891 2428 2841 2509 
Q 2775 2619 2662 2680 
Q 2550 2741 2406 2741 
Q 2056 2741 1856 2470 
Q 1656 2200 1656 1722 
L 1656 0 
L 538 0 
L 538 4863 
L 1656 4863 
L 1656 2988 
Q 1909 3294 2193 3439 
Q 2478 3584 2822 3584 
Q 3428 3584 3742 3212 
Q 4056 2841 4056 2131 
z
" transform="scale(0.015625)"/>
      <path id="DejaVuSans-Bold-74" d="M 1759 4494 
L 1759 3500 
L 2913 3500 
L 2913 2700 
L 1759 2700 
L 1759 1216 
Q 1759 972 1856 886 
Q 1953 800 2241 800 
L 2816 800 
L 2816 0 
L 1856 0 
Q 1194 0 917 276 
Q 641 553 641 1216 
L 641 2700 
L 84 2700 
L 84 3500 
L 641 3500 
L 641 4494 
L 1759 4494 
z
" transform="scale(0.015625)"/>
      <path id="DejaVuSans-Bold-61" d="M 2106 1575 
Q 1756 1575 1579 1456 
Q 1403 1338 1403 1106 
Q 1403 894 1545 773 
Q 1688 653 1941 653 
Q 2256 653 2472 879 
Q 2688 1106 2688 1447 
L 2688 1575 
L 2106 1575 
z
M 3816 1997 
L 3816 0 
L 2688 0 
L 2688 519 
Q 2463 200 2181 54 
Q 1900 -91 1497 -91 
Q 953 -91 614 226 
Q 275 544 275 1050 
Q 275 1666 698 1953 
Q 1122 2241 2028 2241 
L 2688 2241 
L 2688 2328 
Q 2688 2594 2478 2717 
Q 2269 2841 1825 2841 
Q 1466 2841 1156 2769 
Q 847 2697 581 2553 
L 581 3406 
Q 941 3494 1303 3539 
Q 1666 3584 2028 3584 
Q 2975 3584 3395 3211 
Q 3816 2838 3816 1997 
z
" transform="scale(0.015625)"/>
     </defs>
     <use xlink:href="#DejaVuSans-Bold-6c"/>
     <use xlink:href="#DejaVuSans-Bold-6f" transform="translate(34.277344 0)"/>
     <use xlink:href="#DejaVuSans-Bold-6e" transform="translate(102.978516 0)"/>
     <use xlink:href="#DejaVuSans-Bold-67" transform="translate(174.169922 0)"/>
     <use xlink:href="#DejaVuSans-Bold-20" transform="translate(245.751953 0)"/>
     <use xlink:href="#DejaVuSans-Bold-72" transform="translate(280.566406 0)"/>
     <use xlink:href="#DejaVuSans-Bold-69" transform="translate(329.882812 0)"/>
     <use xlink:href="#DejaVuSans-Bold-67" transform="translate(364.160156 0)"/>
     <use xlink:href="#DejaVuSans-Bold-68" transform="translate(435.742188 0)"/>
     <use xlink:href="#DejaVuSans-Bold-74" transform="translate(506.933594 0)"/>
     <use xlink:href="#DejaVuSans-Bold-20" transform="translate(554.736328 0)"/>
     <use xlink:href="#DejaVuSans-Bold-74" transform="translate(589.550781 0)"/>
     <use xlink:href="#DejaVuSans-Bold-61" transform="translate(637.353516 0)"/>
     <use xlink:href="#DejaVuSans-Bold-69" transform="translate(704.833984 0)"/>
     <use xlink:href="#DejaVuSans-Bold-6c" transform="translate(739.111328 0)"/>
    </g>
   </g>
   <g id="text_18">
    <!-- Positively skewed (tail to the right) -->
    <g style="fill: #808080" transform="translate(133.278438 16.318125) scale(0.12 -0.12)">
     <defs>
      <path id="DejaVuSans-50" d="M 1259 4147 
L 1259 2394 
L 2053 2394 
Q 2494 2394 2734 2622 
Q 2975 2850 2975 3272 
Q 2975 3691 2734 3919 
Q 2494 4147 2053 4147 
L 1259 4147 
z
M 628 4666 
L 2053 4666 
Q 2838 4666 3239 4311 
Q 3641 3956 3641 3272 
Q 3641 2581 3239 2228 
Q 2838 1875 2053 1875 
L 1259 1875 
L 1259 0 
L 628 0 
L 628 4666 
z
" transform="scale(0.015625)"/>
      <path id="DejaVuSans-6f" d="M 1959 3097 
Q 1497 3097 1228 2736 
Q 959 2375 959 1747 
Q 959 1119 1226 758 
Q 1494 397 1959 397 
Q 2419 397 2687 759 
Q 2956 1122 2956 1747 
Q 2956 2369 2687 2733 
Q 2419 3097 1959 3097 
z
M 1959 3584 
Q 2709 3584 3137 3096 
Q 3566 2609 3566 1747 
Q 3566 888 3137 398 
Q 2709 -91 1959 -91 
Q 1206 -91 779 398 
Q 353 888 353 1747 
Q 353 2609 779 3096 
Q 1206 3584 1959 3584 
z
" transform="scale(0.015625)"/>
      <path id="DejaVuSans-73" d="M 2834 3397 
L 2834 2853 
Q 2591 2978 2328 3040 
Q 2066 3103 1784 3103 
Q 1356 3103 1142 2972 
Q 928 2841 928 2578 
Q 928 2378 1081 2264 
Q 1234 2150 1697 2047 
L 1894 2003 
Q 2506 1872 2764 1633 
Q 3022 1394 3022 966 
Q 3022 478 2636 193 
Q 2250 -91 1575 -91 
Q 1294 -91 989 -36 
Q 684 19 347 128 
L 347 722 
Q 666 556 975 473 
Q 1284 391 1588 391 
Q 1994 391 2212 530 
Q 2431 669 2431 922 
Q 2431 1156 2273 1281 
Q 2116 1406 1581 1522 
L 1381 1569 
Q 847 1681 609 1914 
Q 372 2147 372 2553 
Q 372 3047 722 3315 
Q 1072 3584 1716 3584 
Q 2034 3584 2315 3537 
Q 2597 3491 2834 3397 
z
" transform="scale(0.015625)"/>
      <path id="DejaVuSans-69" d="M 603 3500 
L 1178 3500 
L 1178 0 
L 603 0 
L 603 3500 
z
M 603 4863 
L 1178 4863 
L 1178 4134 
L 603 4134 
L 603 4863 
z
" transform="scale(0.015625)"/>
      <path id="DejaVuSans-74" d="M 1172 4494 
L 1172 3500 
L 2356 3500 
L 2356 3053 
L 1172 3053 
L 1172 1153 
Q 1172 725 1289 603 
Q 1406 481 1766 481 
L 2356 481 
L 2356 0 
L 1766 0 
Q 1100 0 847 248 
Q 594 497 594 1153 
L 594 3053 
L 172 3053 
L 172 3500 
L 594 3500 
L 594 4494 
L 1172 4494 
z
" transform="scale(0.015625)"/>
      <path id="DejaVuSans-76" d="M 191 3500 
L 800 3500 
L 1894 563 
L 2988 3500 
L 3597 3500 
L 2284 0 
L 1503 0 
L 191 3500 
z
" transform="scale(0.015625)"/>
      <path id="DejaVuSans-65" d="M 3597 1894 
L 3597 1613 
L 953 1613 
Q 991 1019 1311 708 
Q 1631 397 2203 397 
Q 2534 397 2845 478 
Q 3156 559 3463 722 
L 3463 178 
Q 3153 47 2828 -22 
Q 2503 -91 2169 -91 
Q 1331 -91 842 396 
Q 353 884 353 1716 
Q 353 2575 817 3079 
Q 1281 3584 2069 3584 
Q 2775 3584 3186 3129 
Q 3597 2675 3597 1894 
z
M 3022 2063 
Q 3016 2534 2758 2815 
Q 2500 3097 2075 3097 
Q 1594 3097 1305 2825 
Q 1016 2553 972 2059 
L 3022 2063 
z
" transform="scale(0.015625)"/>
      <path id="DejaVuSans-6c" d="M 603 4863 
L 1178 4863 
L 1178 0 
L 603 0 
L 603 4863 
z
" transform="scale(0.015625)"/>
      <path id="DejaVuSans-79" d="M 2059 -325 
Q 1816 -950 1584 -1140 
Q 1353 -1331 966 -1331 
L 506 -1331 
L 506 -850 
L 844 -850 
Q 1081 -850 1212 -737 
Q 1344 -625 1503 -206 
L 1606 56 
L 191 3500 
L 800 3500 
L 1894 763 
L 2988 3500 
L 3597 3500 
L 2059 -325 
z
" transform="scale(0.015625)"/>
      <path id="DejaVuSans-20" transform="scale(0.015625)"/>
      <path id="DejaVuSans-6b" d="M 581 4863 
L 1159 4863 
L 1159 1991 
L 2875 3500 
L 3609 3500 
L 1753 1863 
L 3688 0 
L 2938 0 
L 1159 1709 
L 1159 0 
L 581 0 
L 581 4863 
z
" transform="scale(0.015625)"/>
      <path id="DejaVuSans-77" d="M 269 3500 
L 844 3500 
L 1563 769 
L 2278 3500 
L 2956 3500 
L 3675 769 
L 4391 3500 
L 4966 3500 
L 4050 0 
L 3372 0 
L 2619 2869 
L 1863 0 
L 1184 0 
L 269 3500 
z
" transform="scale(0.015625)"/>
      <path id="DejaVuSans-64" d="M 2906 2969 
L 2906 4863 
L 3481 4863 
L 3481 0 
L 2906 0 
L 2906 525 
Q 2725 213 2448 61 
Q 2172 -91 1784 -91 
Q 1150 -91 751 415 
Q 353 922 353 1747 
Q 353 2572 751 3078 
Q 1150 3584 1784 3584 
Q 2172 3584 2448 3432 
Q 2725 3281 2906 2969 
z
M 947 1747 
Q 947 1113 1208 752 
Q 1469 391 1925 391 
Q 2381 391 2643 752 
Q 2906 1113 2906 1747 
Q 2906 2381 2643 2742 
Q 2381 3103 1925 3103 
Q 1469 3103 1208 2742 
Q 947 2381 947 1747 
z
" transform="scale(0.015625)"/>
      <path id="DejaVuSans-61" d="M 2194 1759 
Q 1497 1759 1228 1600 
Q 959 1441 959 1056 
Q 959 750 1161 570 
Q 1363 391 1709 391 
Q 2188 391 2477 730 
Q 2766 1069 2766 1631 
L 2766 1759 
L 2194 1759 
z
M 3341 1997 
L 3341 0 
L 2766 0 
L 2766 531 
Q 2569 213 2275 61 
Q 1981 -91 1556 -91 
Q 1019 -91 701 211 
Q 384 513 384 1019 
Q 384 1609 779 1909 
Q 1175 2209 1959 2209 
L 2766 2209 
L 2766 2266 
Q 2766 2663 2505 2880 
Q 2244 3097 1772 3097 
Q 1472 3097 1187 3025 
Q 903 2953 641 2809 
L 641 3341 
Q 956 3463 1253 3523 
Q 1550 3584 1831 3584 
Q 2591 3584 2966 3190 
Q 3341 2797 3341 1997 
z
" transform="scale(0.015625)"/>
      <path id="DejaVuSans-68" d="M 3513 2113 
L 3513 0 
L 2938 0 
L 2938 2094 
Q 2938 2591 2744 2837 
Q 2550 3084 2163 3084 
Q 1697 3084 1428 2787 
Q 1159 2491 1159 1978 
L 1159 0 
L 581 0 
L 581 4863 
L 1159 4863 
L 1159 2956 
Q 1366 3272 1645 3428 
Q 1925 3584 2291 3584 
Q 2894 3584 3203 3211 
Q 3513 2838 3513 2113 
z
" transform="scale(0.015625)"/>
      <path id="DejaVuSans-72" d="M 2631 2963 
Q 2534 3019 2420 3045 
Q 2306 3072 2169 3072 
Q 1681 3072 1420 2755 
Q 1159 2438 1159 1844 
L 1159 0 
L 581 0 
L 581 3500 
L 1159 3500 
L 1159 2956 
Q 1341 3275 1631 3429 
Q 1922 3584 2338 3584 
Q 2397 3584 2469 3576 
Q 2541 3569 2628 3553 
L 2631 2963 
z
" transform="scale(0.015625)"/>
      <path id="DejaVuSans-67" d="M 2906 1791 
Q 2906 2416 2648 2759 
Q 2391 3103 1925 3103 
Q 1463 3103 1205 2759 
Q 947 2416 947 1791 
Q 947 1169 1205 825 
Q 1463 481 1925 481 
Q 2391 481 2648 825 
Q 2906 1169 2906 1791 
z
M 3481 434 
Q 3481 -459 3084 -895 
Q 2688 -1331 1869 -1331 
Q 1566 -1331 1297 -1286 
Q 1028 -1241 775 -1147 
L 775 -588 
Q 1028 -725 1275 -790 
Q 1522 -856 1778 -856 
Q 2344 -856 2625 -561 
Q 2906 -266 2906 331 
L 2906 616 
Q 2728 306 2450 153 
Q 2172 0 1784 0 
Q 1141 0 747 490 
Q 353 981 353 1791 
Q 353 2603 747 3093 
Q 1141 3584 1784 3584 
Q 2172 3584 2450 3431 
Q 2728 3278 2906 2969 
L 2906 3500 
L 3481 3500 
L 3481 434 
z
" transform="scale(0.015625)"/>
     </defs>
     <use xlink:href="#DejaVuSans-50"/>
     <use xlink:href="#DejaVuSans-6f" transform="translate(56.677734 0)"/>
     <use xlink:href="#DejaVuSans-73" transform="translate(117.859375 0)"/>
     <use xlink:href="#DejaVuSans-69" transform="translate(169.958984 0)"/>
     <use xlink:href="#DejaVuSans-74" transform="translate(197.742188 0)"/>
     <use xlink:href="#DejaVuSans-69" transform="translate(236.951172 0)"/>
     <use xlink:href="#DejaVuSans-76" transform="translate(264.734375 0)"/>
     <use xlink:href="#DejaVuSans-65" transform="translate(323.914062 0)"/>
     <use xlink:href="#DejaVuSans-6c" transform="translate(385.4375 0)"/>
     <use xlink:href="#DejaVuSans-79" transform="translate(413.220703 0)"/>
     <use xlink:href="#DejaVuSans-20" transform="translate(472.400391 0)"/>
     <use xlink:href="#DejaVuSans-73" transform="translate(504.1875 0)"/>
     <use xlink:href="#DejaVuSans-6b" transform="translate(556.287109 0)"/>
     <use xlink:href="#DejaVuSans-65" transform="translate(610.572266 0)"/>
     <use xlink:href="#DejaVuSans-77" transform="translate(672.095703 0)"/>
     <use xlink:href="#DejaVuSans-65" transform="translate(753.882812 0)"/>
     <use xlink:href="#DejaVuSans-64" transform="translate(815.40625 0)"/>
     <use xlink:href="#DejaVuSans-20" transform="translate(878.882812 0)"/>
     <use xlink:href="#DejaVuSans-28" transform="translate(910.669922 0)"/>
     <use xlink:href="#DejaVuSans-74" transform="translate(949.683594 0)"/>
     <use xlink:href="#DejaVuSans-61" transform="translate(988.892578 0)"/>
     <use xlink:href="#DejaVuSans-69" transform="translate(1050.171875 0)"/>
     <use xlink:href="#DejaVuSans-6c" transform="translate(1077.955078 0)"/>
     <use xlink:href="#DejaVuSans-20" transform="translate(1105.738281 0)"/>
     <use xlink:href="#DejaVuSans-74" transform="translate(1137.525391 0)"/>
     <use xlink:href="#DejaVuSans-6f" transform="translate(1176.734375 0)"/>
     <use xlink:href="#DejaVuSans-20" transform="translate(1237.916016 0)"/>
     <use xlink:href="#DejaVuSans-74" transform="translate(1269.703125 0)"/>
     <use xlink:href="#DejaVuSans-68" transform="translate(1308.912109 0)"/>
     <use xlink:href="#DejaVuSans-65" transform="translate(1372.291016 0)"/>
     <use xlink:href="#DejaVuSans-20" transform="translate(1433.814453 0)"/>
     <use xlink:href="#DejaVuSans-72" transform="translate(1465.601562 0)"/>
     <use xlink:href="#DejaVuSans-69" transform="translate(1506.714844 0)"/>
     <use xlink:href="#DejaVuSans-67" transform="translate(1534.498047 0)"/>
     <use xlink:href="#DejaVuSans-68" transform="translate(1597.974609 0)"/>
     <use xlink:href="#DejaVuSans-74" transform="translate(1661.353516 0)"/>
     <use xlink:href="#DejaVuSans-29" transform="translate(1700.5625 0)"/>
    </g>
   </g>
  </g>
  <g id="axes_2">
   <g id="patch_7">
    <path d="M 478.679375 241.718125 
L 849.823125 241.718125 
L 849.823125 22.318125 
L 478.679375 22.318125 
z
" style="fill: #ffffff"/>
   </g>
   <g id="FillBetweenPolyCollection_2">
    <defs>
     <path id="m03f7589b04" d="M 478.679375 -49.464602 
L 478.679375 -50.169056 
L 479.551423 -50.181523 
L 480.423472 -50.194208 
L 481.29552 -50.207115 
L 482.167568 -50.220248 
L 483.039616 -50.233611 
L 483.911665 -50.247208 
L 484.783713 -50.261042 
L 485.655761 -50.275119 
L 486.52781 -50.289441 
L 487.399858 -50.304014 
L 488.271906 -50.318842 
L 489.143954 -50.333928 
L 490.016003 -50.349278 
L 490.888051 -50.364896 
L 491.760099 -50.380787 
L 492.632148 -50.396955 
L 493.504196 -50.413405 
L 494.376244 -50.430142 
L 495.248292 -50.447171 
L 496.120341 -50.464497 
L 496.992389 -50.482125 
L 497.864437 -50.50006 
L 498.736486 -50.518307 
L 499.608534 -50.536872 
L 500.480582 -50.55576 
L 501.35263 -50.574977 
L 502.224679 -50.594529 
L 503.096727 -50.61442 
L 503.968775 -50.634658 
L 504.840824 -50.655247 
L 505.712872 -50.676194 
L 506.58492 -50.697505 
L 507.456968 -50.719186 
L 508.329017 -50.741244 
L 509.201065 -50.763685 
L 510.073113 -50.786515 
L 510.945162 -50.809742 
L 511.81721 -50.833371 
L 512.689258 -50.85741 
L 513.561306 -50.881865 
L 514.433355 -50.906745 
L 515.305403 -50.932055 
L 516.177451 -50.957804 
L 517.0495 -50.983999 
L 517.921548 -51.010647 
L 518.793596 -51.037756 
L 519.665644 -51.065334 
L 520.537693 -51.093389 
L 521.409741 -51.121929 
L 522.281789 -51.150962 
L 523.153838 -51.180497 
L 524.025886 -51.210542 
L 524.897934 -51.241105 
L 525.769982 -51.272196 
L 526.642031 -51.303823 
L 527.514079 -51.335996 
L 528.386127 -51.368724 
L 529.258176 -51.402015 
L 530.130224 -51.43588 
L 531.002272 -51.470329 
L 531.87432 -51.50537 
L 532.746369 -51.541015 
L 533.618417 -51.577273 
L 534.490465 -51.614154 
L 535.362514 -51.65167 
L 536.234562 -51.68983 
L 537.10661 -51.728647 
L 537.978658 -51.768129 
L 538.850707 -51.80829 
L 539.722755 -51.84914 
L 540.594803 -51.89069 
L 541.466852 -51.932953 
L 542.3389 -51.975941 
L 543.210948 -52.019665 
L 544.082996 -52.064138 
L 544.955045 -52.109373 
L 545.827093 -52.155382 
L 546.699141 -52.202178 
L 547.571189 -52.249774 
L 548.443238 -52.298184 
L 549.315286 -52.347422 
L 550.187334 -52.3975 
L 551.059383 -52.448434 
L 551.931431 -52.500237 
L 552.803479 -52.552923 
L 553.675527 -52.606508 
L 554.547576 -52.661007 
L 555.419624 -52.716434 
L 556.291672 -52.772806 
L 557.163721 -52.830136 
L 558.035769 -52.888443 
L 558.907817 -52.947741 
L 559.779865 -53.008048 
L 560.651914 -53.069379 
L 561.523962 -53.131753 
L 562.39601 -53.195185 
L 563.268059 -53.259694 
L 564.140107 -53.325297 
L 565.012155 -53.392012 
L 565.884203 -53.459859 
L 566.756252 -53.528854 
L 567.6283 -53.599018 
L 568.500348 -53.670369 
L 569.372397 -53.742927 
L 570.244445 -53.816712 
L 571.116493 -53.891744 
L 571.988541 -53.968044 
L 572.86059 -54.045631 
L 573.732638 -54.124527 
L 574.604686 -54.204754 
L 575.476735 -54.286334 
L 576.348783 -54.369288 
L 577.220831 -54.453639 
L 578.092879 -54.539409 
L 578.964928 -54.626622 
L 579.836976 -54.715302 
L 580.709024 -54.805471 
L 581.581073 -54.897155 
L 582.453121 -54.990378 
L 583.325169 -55.085165 
L 584.197217 -55.18154 
L 585.069266 -55.279531 
L 585.941314 -55.379163 
L 586.813362 -55.480462 
L 587.685411 -55.583456 
L 588.557459 -55.688172 
L 589.429507 -55.794638 
L 590.301555 -55.902881 
L 591.173604 -56.01293 
L 592.045652 -56.124815 
L 592.9177 -56.238565 
L 593.789749 -56.354209 
L 594.661797 -56.471779 
L 595.533845 -56.591305 
L 596.405893 -56.712818 
L 597.277942 -56.836349 
L 598.14999 -56.961932 
L 599.022038 -57.089599 
L 599.894087 -57.219383 
L 600.766135 -57.351317 
L 601.638183 -57.485437 
L 602.510231 -57.621776 
L 603.38228 -57.760369 
L 604.254328 -57.901253 
L 605.126376 -58.044464 
L 605.998425 -58.190038 
L 606.870473 -58.338012 
L 607.742521 -58.488425 
L 608.614569 -58.641315 
L 609.486618 -58.796721 
L 610.358666 -58.954682 
L 611.230714 -59.115238 
L 612.102763 -59.27843 
L 612.974811 -59.444299 
L 613.846859 -59.612887 
L 614.718907 -59.784236 
L 615.590956 -59.95839 
L 616.463004 -60.135391 
L 617.335052 -60.315285 
L 618.207101 -60.498116 
L 619.079149 -60.683929 
L 619.951197 -60.87277 
L 620.823245 -61.064687 
L 621.695294 -61.259727 
L 622.567342 -61.457937 
L 623.43939 -61.659367 
L 624.311439 -61.864065 
L 625.183487 -62.072083 
L 626.055535 -62.28347 
L 626.927583 -62.498278 
L 627.799632 -62.71656 
L 628.67168 -62.938367 
L 629.543728 -63.163754 
L 630.415777 -63.392775 
L 631.287825 -63.625485 
L 632.159873 -63.86194 
L 633.031921 -64.102195 
L 633.90397 -64.346309 
L 634.776018 -64.594339 
L 635.648066 -64.846345 
L 636.520115 -65.102384 
L 637.392163 -65.362518 
L 638.264211 -65.626808 
L 639.136259 -65.895316 
L 640.008308 -66.168103 
L 640.880356 -66.445235 
L 641.752404 -66.726773 
L 642.624453 -67.012785 
L 643.496501 -67.303335 
L 644.368549 -67.59849 
L 645.240597 -67.898317 
L 646.112646 -68.202886 
L 646.984694 -68.512264 
L 647.856742 -68.826523 
L 648.728791 -69.145731 
L 649.600839 -69.469962 
L 650.472887 -69.799288 
L 651.344935 -70.133782 
L 652.216984 -70.473518 
L 653.089032 -70.818572 
L 653.96108 -71.169018 
L 654.833129 -71.524935 
L 655.705177 -71.886399 
L 656.577225 -72.253489 
L 657.449273 -72.626284 
L 658.321322 -73.004865 
L 659.19337 -73.389313 
L 660.065418 -73.77971 
L 660.937467 -74.176139 
L 661.809515 -74.578683 
L 662.681563 -74.987427 
L 663.553611 -75.402456 
L 664.42566 -75.823858 
L 665.297708 -76.251719 
L 666.169756 -76.686127 
L 667.041805 -77.127171 
L 667.913853 -77.574941 
L 668.785901 -78.029528 
L 669.657949 -78.491024 
L 670.529998 -78.95952 
L 671.402046 -79.435111 
L 672.274094 -79.917889 
L 673.146143 -80.40795 
L 674.018191 -80.90539 
L 674.890239 -81.410306 
L 675.762287 -81.922793 
L 676.634336 -82.442952 
L 677.506384 -82.970879 
L 678.378432 -83.506676 
L 679.25048 -84.050443 
L 680.122529 -84.60228 
L 680.994577 -85.162289 
L 681.866625 -85.730574 
L 682.738674 -86.307236 
L 683.610722 -86.892381 
L 684.48277 -87.486112 
L 685.354818 -88.088536 
L 686.226867 -88.699756 
L 687.098915 -89.31988 
L 687.970963 -89.949015 
L 688.843012 -90.587268 
L 689.71506 -91.234746 
L 690.587108 -91.891558 
L 691.459156 -92.557813 
L 692.331205 -93.233619 
L 693.203253 -93.919087 
L 694.075301 -94.614325 
L 694.94735 -95.319444 
L 695.819398 -96.034553 
L 696.691446 -96.759764 
L 697.563494 -97.495187 
L 698.435543 -98.240931 
L 699.307591 -98.997108 
L 700.179639 -99.763828 
L 701.051688 -100.541202 
L 701.923736 -101.329339 
L 702.795784 -102.12835 
L 703.667832 -102.938345 
L 704.539881 -103.759431 
L 705.411929 -104.59172 
L 706.283977 -105.435318 
L 707.156026 -106.290333 
L 708.028074 -107.156872 
L 708.900122 -108.035042 
L 709.77217 -108.924948 
L 710.644219 -109.826695 
L 711.516267 -110.740384 
L 712.388315 -111.666119 
L 713.260364 -112.603999 
L 714.132412 -113.554125 
L 715.00446 -114.516594 
L 715.876508 -115.491502 
L 716.748557 -116.478943 
L 717.620605 -117.479009 
L 718.492653 -118.49179 
L 719.364702 -119.517374 
L 720.23675 -120.555846 
L 721.108798 -121.607289 
L 721.980846 -122.671782 
L 722.852895 -123.749404 
L 723.724943 -124.840226 
L 724.596991 -125.94432 
L 725.46904 -127.061752 
L 726.341088 -128.192586 
L 727.213136 -129.336879 
L 728.085184 -130.494686 
L 728.957233 -131.666058 
L 729.829281 -132.851039 
L 730.701329 -134.04967 
L 731.573378 -135.261984 
L 732.445426 -136.488012 
L 733.317474 -137.727775 
L 734.189522 -138.981291 
L 735.061571 -140.248569 
L 735.933619 -141.529613 
L 736.805667 -142.824417 
L 737.677716 -144.132969 
L 738.549764 -145.455248 
L 739.421812 -146.791226 
L 740.29386 -148.140863 
L 741.165909 -149.504112 
L 742.037957 -150.880915 
L 742.910005 -152.271202 
L 743.782054 -153.674894 
L 744.654102 -155.091899 
L 745.52615 -156.522113 
L 746.398198 -157.96542 
L 747.270247 -159.421689 
L 748.142295 -160.890775 
L 749.014343 -162.372519 
L 749.886392 -163.866744 
L 750.75844 -165.37326 
L 751.630488 -166.891856 
L 752.502536 -168.422306 
L 753.374585 -169.964362 
L 754.246633 -171.517759 
L 755.118681 -173.082208 
L 755.99073 -174.657398 
L 756.862778 -176.242999 
L 757.734826 -177.83865 
L 758.606874 -179.44397 
L 759.478923 -181.058549 
L 760.350971 -182.681948 
L 761.223019 -184.313699 
L 762.095068 -185.953303 
L 762.967116 -187.600229 
L 763.839164 -189.253908 
L 764.711212 -190.91374 
L 765.583261 -192.579084 
L 766.455309 -194.249258 
L 767.327357 -195.923539 
L 768.199406 -197.601161 
L 769.071454 -199.28131 
L 769.943502 -200.963122 
L 770.81555 -202.645683 
L 771.687599 -204.328023 
L 772.559647 -206.009114 
L 773.431695 -207.68787 
L 774.303744 -209.363138 
L 775.175792 -211.033699 
L 776.04784 -212.698263 
L 776.919888 -214.355461 
L 777.791937 -216.003849 
L 778.663985 -217.641895 
L 779.536033 -219.267979 
L 780.408082 -220.880386 
L 781.28013 -222.477299 
L 782.152178 -224.056796 
L 783.024226 -225.61684 
L 783.896275 -227.155276 
L 784.768323 -228.669817 
L 785.640371 -230.158041 
L 786.51242 -231.617381 
L 787.384468 -233.045112 
L 788.256516 -234.438344 
L 789.128564 -235.794009 
L 790.000613 -237.108847 
L 790.872661 -238.379394 
L 791.744709 -239.601963 
L 792.616758 -240.772632 
L 793.488806 -241.887222 
L 794.360854 -242.941278 
L 795.232902 -243.930044 
L 796.104951 -244.848441 
L 796.976999 -245.691033 
L 797.849047 -246.452001 
L 798.721096 -247.125105 
L 799.593144 -247.703641 
L 800.465192 -248.180399 
L 801.33724 -248.547611 
L 802.209289 -248.796886 
L 803.081337 -248.919148 
L 803.953385 -248.904554 
L 804.825434 -248.742403 
L 805.697482 -248.421027 
L 806.56953 -247.927667 
L 807.441578 -247.248325 
L 808.313627 -246.36758 
L 809.185675 -245.268379 
L 810.057723 -243.931774 
L 810.929771 -242.3366 
L 811.80182 -240.459083 
L 812.673868 -238.272336 
L 813.545916 -235.745725 
L 814.417965 -232.844052 
L 815.290013 -229.526471 
L 816.162061 -225.745044 
L 817.034109 -221.442755 
L 817.906158 -216.55072 
L 818.778206 -210.984136 
L 819.650254 -204.636196 
L 820.522303 -197.36852 
L 821.394351 -188.995283 
L 822.266399 -179.254987 
L 823.138447 -167.755396 
L 824.010496 -153.851263 
L 824.882544 -136.313199 
L 825.754592 -112.041098 
L 826.626641 -49.464602 
L 826.626641 -49.464602 
L 826.626641 -49.464602 
L 825.754592 -49.464602 
L 824.882544 -49.464602 
L 824.010496 -49.464602 
L 823.138447 -49.464602 
L 822.266399 -49.464602 
L 821.394351 -49.464602 
L 820.522303 -49.464602 
L 819.650254 -49.464602 
L 818.778206 -49.464602 
L 817.906158 -49.464602 
L 817.034109 -49.464602 
L 816.162061 -49.464602 
L 815.290013 -49.464602 
L 814.417965 -49.464602 
L 813.545916 -49.464602 
L 812.673868 -49.464602 
L 811.80182 -49.464602 
L 810.929771 -49.464602 
L 810.057723 -49.464602 
L 809.185675 -49.464602 
L 808.313627 -49.464602 
L 807.441578 -49.464602 
L 806.56953 -49.464602 
L 805.697482 -49.464602 
L 804.825434 -49.464602 
L 803.953385 -49.464602 
L 803.081337 -49.464602 
L 802.209289 -49.464602 
L 801.33724 -49.464602 
L 800.465192 -49.464602 
L 799.593144 -49.464602 
L 798.721096 -49.464602 
L 797.849047 -49.464602 
L 796.976999 -49.464602 
L 796.104951 -49.464602 
L 795.232902 -49.464602 
L 794.360854 -49.464602 
L 793.488806 -49.464602 
L 792.616758 -49.464602 
L 791.744709 -49.464602 
L 790.872661 -49.464602 
L 790.000613 -49.464602 
L 789.128564 -49.464602 
L 788.256516 -49.464602 
L 787.384468 -49.464602 
L 786.51242 -49.464602 
L 785.640371 -49.464602 
L 784.768323 -49.464602 
L 783.896275 -49.464602 
L 783.024226 -49.464602 
L 782.152178 -49.464602 
L 781.28013 -49.464602 
L 780.408082 -49.464602 
L 779.536033 -49.464602 
L 778.663985 -49.464602 
L 777.791937 -49.464602 
L 776.919888 -49.464602 
L 776.04784 -49.464602 
L 775.175792 -49.464602 
L 774.303744 -49.464602 
L 773.431695 -49.464602 
L 772.559647 -49.464602 
L 771.687599 -49.464602 
L 770.81555 -49.464602 
L 769.943502 -49.464602 
L 769.071454 -49.464602 
L 768.199406 -49.464602 
L 767.327357 -49.464602 
L 766.455309 -49.464602 
L 765.583261 -49.464602 
L 764.711212 -49.464602 
L 763.839164 -49.464602 
L 762.967116 -49.464602 
L 762.095068 -49.464602 
L 761.223019 -49.464602 
L 760.350971 -49.464602 
L 759.478923 -49.464602 
L 758.606874 -49.464602 
L 757.734826 -49.464602 
L 756.862778 -49.464602 
L 755.99073 -49.464602 
L 755.118681 -49.464602 
L 754.246633 -49.464602 
L 753.374585 -49.464602 
L 752.502536 -49.464602 
L 751.630488 -49.464602 
L 750.75844 -49.464602 
L 749.886392 -49.464602 
L 749.014343 -49.464602 
L 748.142295 -49.464602 
L 747.270247 -49.464602 
L 746.398198 -49.464602 
L 745.52615 -49.464602 
L 744.654102 -49.464602 
L 743.782054 -49.464602 
L 742.910005 -49.464602 
L 742.037957 -49.464602 
L 741.165909 -49.464602 
L 740.29386 -49.464602 
L 739.421812 -49.464602 
L 738.549764 -49.464602 
L 737.677716 -49.464602 
L 736.805667 -49.464602 
L 735.933619 -49.464602 
L 735.061571 -49.464602 
L 734.189522 -49.464602 
L 733.317474 -49.464602 
L 732.445426 -49.464602 
L 731.573378 -49.464602 
L 730.701329 -49.464602 
L 729.829281 -49.464602 
L 728.957233 -49.464602 
L 728.085184 -49.464602 
L 727.213136 -49.464602 
L 726.341088 -49.464602 
L 725.46904 -49.464602 
L 724.596991 -49.464602 
L 723.724943 -49.464602 
L 722.852895 -49.464602 
L 721.980846 -49.464602 
L 721.108798 -49.464602 
L 720.23675 -49.464602 
L 719.364702 -49.464602 
L 718.492653 -49.464602 
L 717.620605 -49.464602 
L 716.748557 -49.464602 
L 715.876508 -49.464602 
L 715.00446 -49.464602 
L 714.132412 -49.464602 
L 713.260364 -49.464602 
L 712.388315 -49.464602 
L 711.516267 -49.464602 
L 710.644219 -49.464602 
L 709.77217 -49.464602 
L 708.900122 -49.464602 
L 708.028074 -49.464602 
L 707.156026 -49.464602 
L 706.283977 -49.464602 
L 705.411929 -49.464602 
L 704.539881 -49.464602 
L 703.667832 -49.464602 
L 702.795784 -49.464602 
L 701.923736 -49.464602 
L 701.051688 -49.464602 
L 700.179639 -49.464602 
L 699.307591 -49.464602 
L 698.435543 -49.464602 
L 697.563494 -49.464602 
L 696.691446 -49.464602 
L 695.819398 -49.464602 
L 694.94735 -49.464602 
L 694.075301 -49.464602 
L 693.203253 -49.464602 
L 692.331205 -49.464602 
L 691.459156 -49.464602 
L 690.587108 -49.464602 
L 689.71506 -49.464602 
L 688.843012 -49.464602 
L 687.970963 -49.464602 
L 687.098915 -49.464602 
L 686.226867 -49.464602 
L 685.354818 -49.464602 
L 684.48277 -49.464602 
L 683.610722 -49.464602 
L 682.738674 -49.464602 
L 681.866625 -49.464602 
L 680.994577 -49.464602 
L 680.122529 -49.464602 
L 679.25048 -49.464602 
L 678.378432 -49.464602 
L 677.506384 -49.464602 
L 676.634336 -49.464602 
L 675.762287 -49.464602 
L 674.890239 -49.464602 
L 674.018191 -49.464602 
L 673.146143 -49.464602 
L 672.274094 -49.464602 
L 671.402046 -49.464602 
L 670.529998 -49.464602 
L 669.657949 -49.464602 
L 668.785901 -49.464602 
L 667.913853 -49.464602 
L 667.041805 -49.464602 
L 666.169756 -49.464602 
L 665.297708 -49.464602 
L 664.42566 -49.464602 
L 663.553611 -49.464602 
L 662.681563 -49.464602 
L 661.809515 -49.464602 
L 660.937467 -49.464602 
L 660.065418 -49.464602 
L 659.19337 -49.464602 
L 658.321322 -49.464602 
L 657.449273 -49.464602 
L 656.577225 -49.464602 
L 655.705177 -49.464602 
L 654.833129 -49.464602 
L 653.96108 -49.464602 
L 653.089032 -49.464602 
L 652.216984 -49.464602 
L 651.344935 -49.464602 
L 650.472887 -49.464602 
L 649.600839 -49.464602 
L 648.728791 -49.464602 
L 647.856742 -49.464602 
L 646.984694 -49.464602 
L 646.112646 -49.464602 
L 645.240597 -49.464602 
L 644.368549 -49.464602 
L 643.496501 -49.464602 
L 642.624453 -49.464602 
L 641.752404 -49.464602 
L 640.880356 -49.464602 
L 640.008308 -49.464602 
L 639.136259 -49.464602 
L 638.264211 -49.464602 
L 637.392163 -49.464602 
L 636.520115 -49.464602 
L 635.648066 -49.464602 
L 634.776018 -49.464602 
L 633.90397 -49.464602 
L 633.031921 -49.464602 
L 632.159873 -49.464602 
L 631.287825 -49.464602 
L 630.415777 -49.464602 
L 629.543728 -49.464602 
L 628.67168 -49.464602 
L 627.799632 -49.464602 
L 626.927583 -49.464602 
L 626.055535 -49.464602 
L 625.183487 -49.464602 
L 624.311439 -49.464602 
L 623.43939 -49.464602 
L 622.567342 -49.464602 
L 621.695294 -49.464602 
L 620.823245 -49.464602 
L 619.951197 -49.464602 
L 619.079149 -49.464602 
L 618.207101 -49.464602 
L 617.335052 -49.464602 
L 616.463004 -49.464602 
L 615.590956 -49.464602 
L 614.718907 -49.464602 
L 613.846859 -49.464602 
L 612.974811 -49.464602 
L 612.102763 -49.464602 
L 611.230714 -49.464602 
L 610.358666 -49.464602 
L 609.486618 -49.464602 
L 608.614569 -49.464602 
L 607.742521 -49.464602 
L 606.870473 -49.464602 
L 605.998425 -49.464602 
L 605.126376 -49.464602 
L 604.254328 -49.464602 
L 603.38228 -49.464602 
L 602.510231 -49.464602 
L 601.638183 -49.464602 
L 600.766135 -49.464602 
L 599.894087 -49.464602 
L 599.022038 -49.464602 
L 598.14999 -49.464602 
L 597.277942 -49.464602 
L 596.405893 -49.464602 
L 595.533845 -49.464602 
L 594.661797 -49.464602 
L 593.789749 -49.464602 
L 592.9177 -49.464602 
L 592.045652 -49.464602 
L 591.173604 -49.464602 
L 590.301555 -49.464602 
L 589.429507 -49.464602 
L 588.557459 -49.464602 
L 587.685411 -49.464602 
L 586.813362 -49.464602 
L 585.941314 -49.464602 
L 585.069266 -49.464602 
L 584.197217 -49.464602 
L 583.325169 -49.464602 
L 582.453121 -49.464602 
L 581.581073 -49.464602 
L 580.709024 -49.464602 
L 579.836976 -49.464602 
L 578.964928 -49.464602 
L 578.092879 -49.464602 
L 577.220831 -49.464602 
L 576.348783 -49.464602 
L 575.476735 -49.464602 
L 574.604686 -49.464602 
L 573.732638 -49.464602 
L 572.86059 -49.464602 
L 571.988541 -49.464602 
L 571.116493 -49.464602 
L 570.244445 -49.464602 
L 569.372397 -49.464602 
L 568.500348 -49.464602 
L 567.6283 -49.464602 
L 566.756252 -49.464602 
L 565.884203 -49.464602 
L 565.012155 -49.464602 
L 564.140107 -49.464602 
L 563.268059 -49.464602 
L 562.39601 -49.464602 
L 561.523962 -49.464602 
L 560.651914 -49.464602 
L 559.779865 -49.464602 
L 558.907817 -49.464602 
L 558.035769 -49.464602 
L 557.163721 -49.464602 
L 556.291672 -49.464602 
L 555.419624 -49.464602 
L 554.547576 -49.464602 
L 553.675527 -49.464602 
L 552.803479 -49.464602 
L 551.931431 -49.464602 
L 551.059383 -49.464602 
L 550.187334 -49.464602 
L 549.315286 -49.464602 
L 548.443238 -49.464602 
L 547.571189 -49.464602 
L 546.699141 -49.464602 
L 545.827093 -49.464602 
L 544.955045 -49.464602 
L 544.082996 -49.464602 
L 543.210948 -49.464602 
L 542.3389 -49.464602 
L 541.466852 -49.464602 
L 540.594803 -49.464602 
L 539.722755 -49.464602 
L 538.850707 -49.464602 
L 537.978658 -49.464602 
L 537.10661 -49.464602 
L 536.234562 -49.464602 
L 535.362514 -49.464602 
L 534.490465 -49.464602 
L 533.618417 -49.464602 
L 532.746369 -49.464602 
L 531.87432 -49.464602 
L 531.002272 -49.464602 
L 530.130224 -49.464602 
L 529.258176 -49.464602 
L 528.386127 -49.464602 
L 527.514079 -49.464602 
L 526.642031 -49.464602 
L 525.769982 -49.464602 
L 524.897934 -49.464602 
L 524.025886 -49.464602 
L 523.153838 -49.464602 
L 522.281789 -49.464602 
L 521.409741 -49.464602 
L 520.537693 -49.464602 
L 519.665644 -49.464602 
L 518.793596 -49.464602 
L 517.921548 -49.464602 
L 517.0495 -49.464602 
L 516.177451 -49.464602 
L 515.305403 -49.464602 
L 514.433355 -49.464602 
L 513.561306 -49.464602 
L 512.689258 -49.464602 
L 511.81721 -49.464602 
L 510.945162 -49.464602 
L 510.073113 -49.464602 
L 509.201065 -49.464602 
L 508.329017 -49.464602 
L 507.456968 -49.464602 
L 506.58492 -49.464602 
L 505.712872 -49.464602 
L 504.840824 -49.464602 
L 503.968775 -49.464602 
L 503.096727 -49.464602 
L 502.224679 -49.464602 
L 501.35263 -49.464602 
L 500.480582 -49.464602 
L 499.608534 -49.464602 
L 498.736486 -49.464602 
L 497.864437 -49.464602 
L 496.992389 -49.464602 
L 496.120341 -49.464602 
L 495.248292 -49.464602 
L 494.376244 -49.464602 
L 493.504196 -49.464602 
L 492.632148 -49.464602 
L 491.760099 -49.464602 
L 490.888051 -49.464602 
L 490.016003 -49.464602 
L 489.143954 -49.464602 
L 488.271906 -49.464602 
L 487.399858 -49.464602 
L 486.52781 -49.464602 
L 485.655761 -49.464602 
L 484.783713 -49.464602 
L 483.911665 -49.464602 
L 483.039616 -49.464602 
L 482.167568 -49.464602 
L 481.29552 -49.464602 
L 480.423472 -49.464602 
L 479.551423 -49.464602 
L 478.679375 -49.464602 
z
" style="stroke: #cc7000; stroke-opacity: 0.15"/>
    </defs>
    <g clip-path="url(#pdfbe03c3ed)">
     <use xlink:href="#m03f7589b04" x="0" y="281.21" style="fill: #cc7000; fill-opacity: 0.15; stroke: #cc7000; stroke-opacity: 0.15"/>
    </g>
   </g>
   <g id="matplotlib.axis_3">
    <g id="xtick_9">
     <g id="line2d_30">
      <path d="M 501.875859 241.718125 
L 501.875859 22.318125 
" clip-path="url(#pdfbe03c3ed)" style="fill: none; stroke-dasharray: 2.96,1.28; stroke-dashoffset: 0; stroke: #b0b0b0; stroke-opacity: 0.4; stroke-width: 0.8"/>
     </g>
     <g id="line2d_31">
      <g>
       <use xlink:href="#m84ce82fe1e" x="501.875859" y="241.718125" style="stroke: #000000; stroke-width: 0.8"/>
      </g>
     </g>
     <g id="text_19">
      <!-- −14 -->
      <g transform="translate(491.323516 256.316562) scale(0.1 -0.1)">
       <defs>
        <path id="DejaVuSans-2212" d="M 678 2272 
L 4684 2272 
L 4684 1741 
L 678 1741 
L 678 2272 
z
" transform="scale(0.015625)"/>
       </defs>
       <use xlink:href="#DejaVuSans-2212"/>
       <use xlink:href="#DejaVuSans-31" transform="translate(83.789062 0)"/>
       <use xlink:href="#DejaVuSans-34" transform="translate(147.412109 0)"/>
      </g>
     </g>
    </g>
    <g id="xtick_10">
     <g id="line2d_32">
      <path d="M 548.268828 241.718125 
L 548.268828 22.318125 
" clip-path="url(#pdfbe03c3ed)" style="fill: none; stroke-dasharray: 2.96,1.28; stroke-dashoffset: 0; stroke: #b0b0b0; stroke-opacity: 0.4; stroke-width: 0.8"/>
     </g>
     <g id="line2d_33">
      <g>
       <use xlink:href="#m84ce82fe1e" x="548.268828" y="241.718125" style="stroke: #000000; stroke-width: 0.8"/>
      </g>
     </g>
     <g id="text_20">
      <!-- −12 -->
      <g transform="translate(537.716484 256.316562) scale(0.1 -0.1)">
       <use xlink:href="#DejaVuSans-2212"/>
       <use xlink:href="#DejaVuSans-31" transform="translate(83.789062 0)"/>
       <use xlink:href="#DejaVuSans-32" transform="translate(147.412109 0)"/>
      </g>
     </g>
    </g>
    <g id="xtick_11">
     <g id="line2d_34">
      <path d="M 594.661797 241.718125 
L 594.661797 22.318125 
" clip-path="url(#pdfbe03c3ed)" style="fill: none; stroke-dasharray: 2.96,1.28; stroke-dashoffset: 0; stroke: #b0b0b0; stroke-opacity: 0.4; stroke-width: 0.8"/>
     </g>
     <g id="line2d_35">
      <g>
       <use xlink:href="#m84ce82fe1e" x="594.661797" y="241.718125" style="stroke: #000000; stroke-width: 0.8"/>
      </g>
     </g>
     <g id="text_21">
      <!-- −10 -->
      <g transform="translate(584.109453 256.316562) scale(0.1 -0.1)">
       <use xlink:href="#DejaVuSans-2212"/>
       <use xlink:href="#DejaVuSans-31" transform="translate(83.789062 0)"/>
       <use xlink:href="#DejaVuSans-30" transform="translate(147.412109 0)"/>
      </g>
     </g>
    </g>
    <g id="xtick_12">
     <g id="line2d_36">
      <path d="M 641.054766 241.718125 
L 641.054766 22.318125 
" clip-path="url(#pdfbe03c3ed)" style="fill: none; stroke-dasharray: 2.96,1.28; stroke-dashoffset: 0; stroke: #b0b0b0; stroke-opacity: 0.4; stroke-width: 0.8"/>
     </g>
     <g id="line2d_37">
      <g>
       <use xlink:href="#m84ce82fe1e" x="641.054766" y="241.718125" style="stroke: #000000; stroke-width: 0.8"/>
      </g>
     </g>
     <g id="text_22">
      <!-- −8 -->
      <g transform="translate(633.683672 256.316562) scale(0.1 -0.1)">
       <use xlink:href="#DejaVuSans-2212"/>
       <use xlink:href="#DejaVuSans-38" transform="translate(83.789062 0)"/>
      </g>
     </g>
    </g>
    <g id="xtick_13">
     <g id="line2d_38">
      <path d="M 687.447734 241.718125 
L 687.447734 22.318125 
" clip-path="url(#pdfbe03c3ed)" style="fill: none; stroke-dasharray: 2.96,1.28; stroke-dashoffset: 0; stroke: #b0b0b0; stroke-opacity: 0.4; stroke-width: 0.8"/>
     </g>
     <g id="line2d_39">
      <g>
       <use xlink:href="#m84ce82fe1e" x="687.447734" y="241.718125" style="stroke: #000000; stroke-width: 0.8"/>
      </g>
     </g>
     <g id="text_23">
      <!-- −6 -->
      <g transform="translate(680.076641 256.316562) scale(0.1 -0.1)">
       <use xlink:href="#DejaVuSans-2212"/>
       <use xlink:href="#DejaVuSans-36" transform="translate(83.789062 0)"/>
      </g>
     </g>
    </g>
    <g id="xtick_14">
     <g id="line2d_40">
      <path d="M 733.840703 241.718125 
L 733.840703 22.318125 
" clip-path="url(#pdfbe03c3ed)" style="fill: none; stroke-dasharray: 2.96,1.28; stroke-dashoffset: 0; stroke: #b0b0b0; stroke-opacity: 0.4; stroke-width: 0.8"/>
     </g>
     <g id="line2d_41">
      <g>
       <use xlink:href="#m84ce82fe1e" x="733.840703" y="241.718125" style="stroke: #000000; stroke-width: 0.8"/>
      </g>
     </g>
     <g id="text_24">
      <!-- −4 -->
      <g transform="translate(726.469609 256.316562) scale(0.1 -0.1)">
       <use xlink:href="#DejaVuSans-2212"/>
       <use xlink:href="#DejaVuSans-34" transform="translate(83.789062 0)"/>
      </g>
     </g>
    </g>
    <g id="xtick_15">
     <g id="line2d_42">
      <path d="M 780.233672 241.718125 
L 780.233672 22.318125 
" clip-path="url(#pdfbe03c3ed)" style="fill: none; stroke-dasharray: 2.96,1.28; stroke-dashoffset: 0; stroke: #b0b0b0; stroke-opacity: 0.4; stroke-width: 0.8"/>
     </g>
     <g id="line2d_43">
      <g>
       <use xlink:href="#m84ce82fe1e" x="780.233672" y="241.718125" style="stroke: #000000; stroke-width: 0.8"/>
      </g>
     </g>
     <g id="text_25">
      <!-- −2 -->
      <g transform="translate(772.862578 256.316562) scale(0.1 -0.1)">
       <use xlink:href="#DejaVuSans-2212"/>
       <use xlink:href="#DejaVuSans-32" transform="translate(83.789062 0)"/>
      </g>
     </g>
    </g>
    <g id="xtick_16">
     <g id="line2d_44">
      <path d="M 826.626641 241.718125 
L 826.626641 22.318125 
" clip-path="url(#pdfbe03c3ed)" style="fill: none; stroke-dasharray: 2.96,1.28; stroke-dashoffset: 0; stroke: #b0b0b0; stroke-opacity: 0.4; stroke-width: 0.8"/>
     </g>
     <g id="line2d_45">
      <g>
       <use xlink:href="#m84ce82fe1e" x="826.626641" y="241.718125" style="stroke: #000000; stroke-width: 0.8"/>
      </g>
     </g>
     <g id="text_26">
      <!-- 0 -->
      <g transform="translate(823.445391 256.316562) scale(0.1 -0.1)">
       <use xlink:href="#DejaVuSans-30"/>
      </g>
     </g>
    </g>
    <g id="text_27">
     <!-- x -->
     <g transform="translate(660.7 271.514375) scale(0.12 -0.12)">
      <use xlink:href="#DejaVuSans-78"/>
     </g>
    </g>
   </g>
   <g id="matplotlib.axis_4">
    <g id="ytick_7">
     <g id="line2d_46">
      <path d="M 478.679375 231.745398 
L 849.823125 231.745398 
" clip-path="url(#pdfbe03c3ed)" style="fill: none; stroke-dasharray: 2.96,1.28; stroke-dashoffset: 0; stroke: #b0b0b0; stroke-opacity: 0.4; stroke-width: 0.8"/>
     </g>
     <g id="line2d_47">
      <g>
       <use xlink:href="#m36c3b5e9b9" x="478.679375" y="231.745398" style="stroke: #000000; stroke-width: 0.8"/>
      </g>
     </g>
     <g id="text_28">
      <!-- 0.00 -->
      <g transform="translate(449.41375 235.544616) scale(0.1 -0.1)">
       <use xlink:href="#DejaVuSans-30"/>
       <use xlink:href="#DejaVuSans-2e" transform="translate(63.623047 0)"/>
       <use xlink:href="#DejaVuSans-30" transform="translate(95.410156 0)"/>
       <use xlink:href="#DejaVuSans-30" transform="translate(159.033203 0)"/>
      </g>
     </g>
    </g>
    <g id="ytick_8">
     <g id="line2d_48">
      <path d="M 478.679375 190.528488 
L 849.823125 190.528488 
" clip-path="url(#pdfbe03c3ed)" style="fill: none; stroke-dasharray: 2.96,1.28; stroke-dashoffset: 0; stroke: #b0b0b0; stroke-opacity: 0.4; stroke-width: 0.8"/>
     </g>
     <g id="line2d_49">
      <g>
       <use xlink:href="#m36c3b5e9b9" x="478.679375" y="190.528488" style="stroke: #000000; stroke-width: 0.8"/>
      </g>
     </g>
     <g id="text_29">
      <!-- 0.05 -->
      <g transform="translate(449.41375 194.327707) scale(0.1 -0.1)">
       <use xlink:href="#DejaVuSans-30"/>
       <use xlink:href="#DejaVuSans-2e" transform="translate(63.623047 0)"/>
       <use xlink:href="#DejaVuSans-30" transform="translate(95.410156 0)"/>
       <use xlink:href="#DejaVuSans-35" transform="translate(159.033203 0)"/>
      </g>
     </g>
    </g>
    <g id="ytick_9">
     <g id="line2d_50">
      <path d="M 478.679375 149.311579 
L 849.823125 149.311579 
" clip-path="url(#pdfbe03c3ed)" style="fill: none; stroke-dasharray: 2.96,1.28; stroke-dashoffset: 0; stroke: #b0b0b0; stroke-opacity: 0.4; stroke-width: 0.8"/>
     </g>
     <g id="line2d_51">
      <g>
       <use xlink:href="#m36c3b5e9b9" x="478.679375" y="149.311579" style="stroke: #000000; stroke-width: 0.8"/>
      </g>
     </g>
     <g id="text_30">
      <!-- 0.10 -->
      <g transform="translate(449.41375 153.110797) scale(0.1 -0.1)">
       <use xlink:href="#DejaVuSans-30"/>
       <use xlink:href="#DejaVuSans-2e" transform="translate(63.623047 0)"/>
       <use xlink:href="#DejaVuSans-31" transform="translate(95.410156 0)"/>
       <use xlink:href="#DejaVuSans-30" transform="translate(159.033203 0)"/>
      </g>
     </g>
    </g>
    <g id="ytick_10">
     <g id="line2d_52">
      <path d="M 478.679375 108.094669 
L 849.823125 108.094669 
" clip-path="url(#pdfbe03c3ed)" style="fill: none; stroke-dasharray: 2.96,1.28; stroke-dashoffset: 0; stroke: #b0b0b0; stroke-opacity: 0.4; stroke-width: 0.8"/>
     </g>
     <g id="line2d_53">
      <g>
       <use xlink:href="#m36c3b5e9b9" x="478.679375" y="108.094669" style="stroke: #000000; stroke-width: 0.8"/>
      </g>
     </g>
     <g id="text_31">
      <!-- 0.15 -->
      <g transform="translate(449.41375 111.893888) scale(0.1 -0.1)">
       <use xlink:href="#DejaVuSans-30"/>
       <use xlink:href="#DejaVuSans-2e" transform="translate(63.623047 0)"/>
       <use xlink:href="#DejaVuSans-31" transform="translate(95.410156 0)"/>
       <use xlink:href="#DejaVuSans-35" transform="translate(159.033203 0)"/>
      </g>
     </g>
    </g>
    <g id="ytick_11">
     <g id="line2d_54">
      <path d="M 478.679375 66.877759 
L 849.823125 66.877759 
" clip-path="url(#pdfbe03c3ed)" style="fill: none; stroke-dasharray: 2.96,1.28; stroke-dashoffset: 0; stroke: #b0b0b0; stroke-opacity: 0.4; stroke-width: 0.8"/>
     </g>
     <g id="line2d_55">
      <g>
       <use xlink:href="#m36c3b5e9b9" x="478.679375" y="66.877759" style="stroke: #000000; stroke-width: 0.8"/>
      </g>
     </g>
     <g id="text_32">
      <!-- 0.20 -->
      <g transform="translate(449.41375 70.676978) scale(0.1 -0.1)">
       <use xlink:href="#DejaVuSans-30"/>
       <use xlink:href="#DejaVuSans-2e" transform="translate(63.623047 0)"/>
       <use xlink:href="#DejaVuSans-32" transform="translate(95.410156 0)"/>
       <use xlink:href="#DejaVuSans-30" transform="translate(159.033203 0)"/>
      </g>
     </g>
    </g>
    <g id="ytick_12">
     <g id="line2d_56">
      <path d="M 478.679375 25.66085 
L 849.823125 25.66085 
" clip-path="url(#pdfbe03c3ed)" style="fill: none; stroke-dasharray: 2.96,1.28; stroke-dashoffset: 0; stroke: #b0b0b0; stroke-opacity: 0.4; stroke-width: 0.8"/>
     </g>
     <g id="line2d_57">
      <g>
       <use xlink:href="#m36c3b5e9b9" x="478.679375" y="25.66085" style="stroke: #000000; stroke-width: 0.8"/>
      </g>
     </g>
     <g id="text_33">
      <!-- 0.25 -->
      <g transform="translate(449.41375 29.460068) scale(0.1 -0.1)">
       <use xlink:href="#DejaVuSans-30"/>
       <use xlink:href="#DejaVuSans-2e" transform="translate(63.623047 0)"/>
       <use xlink:href="#DejaVuSans-32" transform="translate(95.410156 0)"/>
       <use xlink:href="#DejaVuSans-35" transform="translate(159.033203 0)"/>
      </g>
     </g>
    </g>
    <g id="text_34">
     <!-- f(x) -->
     <g transform="translate(442.918125 142.363438) rotate(-90) scale(0.12 -0.12)">
      <use xlink:href="#DejaVuSans-66"/>
      <use xlink:href="#DejaVuSans-28" transform="translate(35.205078 0)"/>
      <use xlink:href="#DejaVuSans-78" transform="translate(74.21875 0)"/>
      <use xlink:href="#DejaVuSans-29" transform="translate(133.398438 0)"/>
     </g>
    </g>
   </g>
   <g id="line2d_58">
    <path d="M 478.679375 231.040944 
L 503.968775 230.575342 
L 524.025886 229.999458 
L 541.466852 229.277047 
L 556.291672 228.437194 
L 569.372397 227.467073 
L 580.709024 226.404529 
L 591.173604 225.19707 
L 600.766135 223.858683 
L 609.486618 222.413279 
L 617.335052 220.894715 
L 625.183487 219.137917 
L 632.159873 217.34806 
L 639.136259 215.314684 
L 645.240597 213.311683 
L 651.344935 211.076218 
L 657.449273 208.583716 
L 662.681563 206.222573 
L 667.913853 203.635059 
L 673.146143 200.80205 
L 678.378432 197.703324 
L 683.610722 194.317619 
L 688.843012 190.622732 
L 693.203253 187.290913 
L 697.563494 183.714813 
L 701.923736 179.880661 
L 706.283977 175.774682 
L 710.644219 171.383305 
L 715.00446 166.693406 
L 719.364702 161.692626 
L 723.724943 156.369774 
L 728.085184 150.715314 
L 732.445426 144.721988 
L 736.805667 138.385583 
L 741.165909 131.705888 
L 746.398198 123.24458 
L 751.630488 114.318144 
L 756.862778 104.967001 
L 762.967116 93.609771 
L 772.559647 75.200886 
L 780.408082 60.329614 
L 784.768323 52.540183 
L 788.256516 46.771656 
L 790.872661 42.830606 
L 793.488806 39.322778 
L 795.232902 37.279956 
L 796.976999 35.518967 
L 798.721096 34.084895 
L 800.465192 33.029601 
L 802.209289 32.413114 
L 803.081337 32.290852 
L 803.953385 32.305446 
L 804.825434 32.467597 
L 805.697482 32.788973 
L 806.56953 33.282333 
L 807.441578 33.961675 
L 808.313627 34.84242 
L 809.185675 35.941621 
L 810.057723 37.278226 
L 810.929771 38.8734 
L 811.80182 40.750917 
L 812.673868 42.937664 
L 813.545916 45.464275 
L 814.417965 48.365948 
L 815.290013 51.683529 
L 816.162061 55.464956 
L 817.034109 59.767245 
L 817.906158 64.65928 
L 818.778206 70.225864 
L 819.650254 76.573804 
L 820.522303 83.84148 
L 821.394351 92.214717 
L 822.266399 101.955013 
L 823.138447 113.454604 
L 824.010496 127.358737 
L 824.882544 144.896801 
L 825.754592 169.168902 
L 826.626641 231.745398 
L 826.626641 231.745398 
" clip-path="url(#pdfbe03c3ed)" style="fill: none; stroke: #cc7000; stroke-width: 2.5; stroke-linecap: square"/>
   </g>
   <g id="patch_8">
    <path d="M 478.679375 241.718125 
L 478.679375 22.318125 
" style="fill: none; stroke: #000000; stroke-width: 0.8; stroke-linejoin: miter; stroke-linecap: square"/>
   </g>
   <g id="patch_9">
    <path d="M 849.823125 241.718125 
L 849.823125 22.318125 
" style="fill: none; stroke: #000000; stroke-width: 0.8; stroke-linejoin: miter; stroke-linecap: square"/>
   </g>
   <g id="patch_10">
    <path d="M 478.679375 241.718125 
L 849.823125 241.718125 
" style="fill: none; stroke: #000000; stroke-width: 0.8; stroke-linejoin: miter; stroke-linecap: square"/>
   </g>
   <g id="patch_11">
    <path d="M 478.679375 22.318125 
L 849.823125 22.318125 
" style="fill: none; stroke: #000000; stroke-width: 0.8; stroke-linejoin: miter; stroke-linecap: square"/>
   </g>
   <g id="text_35">
    <!-- long left tail -->
    <g style="fill: #cc7000" transform="translate(560.030547 215.258634) scale(0.1 -0.1)">
     <defs>
      <path id="DejaVuSans-Bold-65" d="M 4031 1759 
L 4031 1441 
L 1416 1441 
Q 1456 1047 1700 850 
Q 1944 653 2381 653 
Q 2734 653 3104 758 
Q 3475 863 3866 1075 
L 3866 213 
Q 3469 63 3072 -14 
Q 2675 -91 2278 -91 
Q 1328 -91 801 392 
Q 275 875 275 1747 
Q 275 2603 792 3093 
Q 1309 3584 2216 3584 
Q 3041 3584 3536 3087 
Q 4031 2591 4031 1759 
z
M 2881 2131 
Q 2881 2450 2695 2645 
Q 2509 2841 2209 2841 
Q 1884 2841 1681 2658 
Q 1478 2475 1428 2131 
L 2881 2131 
z
" transform="scale(0.015625)"/>
      <path id="DejaVuSans-Bold-66" d="M 2841 4863 
L 2841 4128 
L 2222 4128 
Q 1984 4128 1890 4042 
Q 1797 3956 1797 3744 
L 1797 3500 
L 2753 3500 
L 2753 2700 
L 1797 2700 
L 1797 0 
L 678 0 
L 678 2700 
L 122 2700 
L 122 3500 
L 678 3500 
L 678 3744 
Q 678 4316 997 4589 
Q 1316 4863 1984 4863 
L 2841 4863 
z
" transform="scale(0.015625)"/>
     </defs>
     <use xlink:href="#DejaVuSans-Bold-6c"/>
     <use xlink:href="#DejaVuSans-Bold-6f" transform="translate(34.277344 0)"/>
     <use xlink:href="#DejaVuSans-Bold-6e" transform="translate(102.978516 0)"/>
     <use xlink:href="#DejaVuSans-Bold-67" transform="translate(174.169922 0)"/>
     <use xlink:href="#DejaVuSans-Bold-20" transform="translate(245.751953 0)"/>
     <use xlink:href="#DejaVuSans-Bold-6c" transform="translate(280.566406 0)"/>
     <use xlink:href="#DejaVuSans-Bold-65" transform="translate(314.84375 0)"/>
     <use xlink:href="#DejaVuSans-Bold-66" transform="translate(382.666016 0)"/>
     <use xlink:href="#DejaVuSans-Bold-74" transform="translate(426.171875 0)"/>
     <use xlink:href="#DejaVuSans-Bold-20" transform="translate(473.974609 0)"/>
     <use xlink:href="#DejaVuSans-Bold-74" transform="translate(508.789062 0)"/>
     <use xlink:href="#DejaVuSans-Bold-61" transform="translate(556.591797 0)"/>
     <use xlink:href="#DejaVuSans-Bold-69" transform="translate(624.072266 0)"/>
     <use xlink:href="#DejaVuSans-Bold-6c" transform="translate(658.349609 0)"/>
    </g>
   </g>
   <g id="text_36">
    <!-- Negatively skewed (tail to the left) -->
    <g style="fill: #808080" transform="translate(560.455 16.318125) scale(0.12 -0.12)">
     <defs>
      <path id="DejaVuSans-4e" d="M 628 4666 
L 1478 4666 
L 3547 763 
L 3547 4666 
L 4159 4666 
L 4159 0 
L 3309 0 
L 1241 3903 
L 1241 0 
L 628 0 
L 628 4666 
z
" transform="scale(0.015625)"/>
     </defs>
     <use xlink:href="#DejaVuSans-4e"/>
     <use xlink:href="#DejaVuSans-65" transform="translate(74.804688 0)"/>
     <use xlink:href="#DejaVuSans-67" transform="translate(136.328125 0)"/>
     <use xlink:href="#DejaVuSans-61" transform="translate(199.804688 0)"/>
     <use xlink:href="#DejaVuSans-74" transform="translate(261.083984 0)"/>
     <use xlink:href="#DejaVuSans-69" transform="translate(300.292969 0)"/>
     <use xlink:href="#DejaVuSans-76" transform="translate(328.076172 0)"/>
     <use xlink:href="#DejaVuSans-65" transform="translate(387.255859 0)"/>
     <use xlink:href="#DejaVuSans-6c" transform="translate(448.779297 0)"/>
     <use xlink:href="#DejaVuSans-79" transform="translate(476.5625 0)"/>
     <use xlink:href="#DejaVuSans-20" transform="translate(535.742188 0)"/>
     <use xlink:href="#DejaVuSans-73" transform="translate(567.529297 0)"/>
     <use xlink:href="#DejaVuSans-6b" transform="translate(619.628906 0)"/>
     <use xlink:href="#DejaVuSans-65" transform="translate(673.914062 0)"/>
     <use xlink:href="#DejaVuSans-77" transform="translate(735.4375 0)"/>
     <use xlink:href="#DejaVuSans-65" transform="translate(817.224609 0)"/>
     <use xlink:href="#DejaVuSans-64" transform="translate(878.748047 0)"/>
     <use xlink:href="#DejaVuSans-20" transform="translate(942.224609 0)"/>
     <use xlink:href="#DejaVuSans-28" transform="translate(974.011719 0)"/>
     <use xlink:href="#DejaVuSans-74" transform="translate(1013.025391 0)"/>
     <use xlink:href="#DejaVuSans-61" transform="translate(1052.234375 0)"/>
     <use xlink:href="#DejaVuSans-69" transform="translate(1113.513672 0)"/>
     <use xlink:href="#DejaVuSans-6c" transform="translate(1141.296875 0)"/>
     <use xlink:href="#DejaVuSans-20" transform="translate(1169.080078 0)"/>
     <use xlink:href="#DejaVuSans-74" transform="translate(1200.867188 0)"/>
     <use xlink:href="#DejaVuSans-6f" transform="translate(1240.076172 0)"/>
     <use xlink:href="#DejaVuSans-20" transform="translate(1301.257812 0)"/>
     <use xlink:href="#DejaVuSans-74" transform="translate(1333.044922 0)"/>
     <use xlink:href="#DejaVuSans-68" transform="translate(1372.253906 0)"/>
     <use xlink:href="#DejaVuSans-65" transform="translate(1435.632812 0)"/>
     <use xlink:href="#DejaVuSans-20" transform="translate(1497.15625 0)"/>
     <use xlink:href="#DejaVuSans-6c" transform="translate(1528.943359 0)"/>
     <use xlink:href="#DejaVuSans-65" transform="translate(1556.726562 0)"/>
     <use xlink:href="#DejaVuSans-66" transform="translate(1618.25 0)"/>
     <use xlink:href="#DejaVuSans-74" transform="translate(1651.705078 0)"/>
     <use xlink:href="#DejaVuSans-29" transform="translate(1690.914062 0)"/>
    </g>
   </g>
  </g>
 </g>
 <defs>
  <clipPath id="p2b8b61fff8">
   <rect x="52.079375" y="22.318125" width="371.14375" height="219.4"/>
  </clipPath>
  <clipPath id="pdfbe03c3ed">
   <rect x="478.679375" y="22.318125" width="371.14375" height="219.4"/>
  </clipPath>
 </defs>
</svg>
