<?xml version="1.0" encoding="utf-8" standalone="no"?>
<!DOCTYPE svg PUBLIC "-//W3C//DTD SVG 1.1//EN"
  "http://www.w3.org/Graphics/SVG/1.1/DTD/svg11.dtd">
<svg xmlns:xlink="http://www.w3.org/1999/xlink" width="496.01855pt" height="312.545875pt" viewBox="0 0 496.01855 312.545875" xmlns="http://www.w3.org/2000/svg" version="1.1">
 <metadata>
  <rdf:RDF xmlns:dc="http://purl.org/dc/elements/1.1/" xmlns:cc="http://creativecommons.org/ns#" xmlns:rdf="http://www.w3.org/1999/02/22-rdf-syntax-ns#">
   <cc:Work>
    <dc:type rdf:resource="http://purl.org/dc/dcmitype/StillImage"/>
    <dc:date>2026-07-20T23:14:30.258780</dc:date>
    <dc:format>image/svg+xml</dc:format>
    <dc:creator>
     <cc:Agent>
      <dc:title>Matplotlib v3.10.8, https://matplotlib.org/</dc:title>
     </cc:Agent>
    </dc:creator>
   </cc:Work>
  </rdf:RDF>
 </metadata>
 <defs>
  <style type="text/css">*{stroke-linejoin: round; stroke-linecap: butt}</style>
 </defs>
 <g id="figure_1">
  <g id="patch_1">
   <path d="M 0 312.545875 
L 496.01855 312.545875 
L 496.01855 0 
L 0 0 
z
" style="fill: #ffffff"/>
  </g>
  <g id="axes_1">
   <g id="line2d_1">
    <path d="M 54.034097 288.379 
L 123.598284 257.838625 
" clip-path="url(#p4198b73508)" style="fill: none; stroke: #d0d0d0; stroke-width: 0.5"/>
   </g>
   <g id="line2d_2">
    <path d="M 54.034097 288.379 
L 123.598284 199.020125 
" clip-path="url(#p4198b73508)" style="fill: none; stroke: #d0d0d0; stroke-width: 0.5"/>
   </g>
   <g id="line2d_3">
    <path d="M 54.034097 288.379 
L 123.598284 140.201625 
" clip-path="url(#p4198b73508)" style="fill: none; stroke: #d0d0d0; stroke-width: 0.5"/>
   </g>
   <g id="line2d_4">
    <path d="M 54.034097 288.379 
L 123.598284 81.383125 
" clip-path="url(#p4198b73508)" style="fill: none; stroke: #d0d0d0; stroke-width: 0.5"/>
   </g>
   <g id="line2d_5">
    <path d="M 54.034097 254.44525 
L 123.598284 257.838625 
" clip-path="url(#p4198b73508)" style="fill: none; stroke: #d0d0d0; stroke-width: 0.5"/>
   </g>
   <g id="line2d_6">
    <path d="M 54.034097 254.44525 
L 123.598284 199.020125 
" clip-path="url(#p4198b73508)" style="fill: none; stroke: #d0d0d0; stroke-width: 0.5"/>
   </g>
   <g id="line2d_7">
    <path d="M 54.034097 254.44525 
L 123.598284 140.201625 
" clip-path="url(#p4198b73508)" style="fill: none; stroke: #d0d0d0; stroke-width: 0.5"/>
   </g>
   <g id="line2d_8">
    <path d="M 54.034097 254.44525 
L 123.598284 81.383125 
" clip-path="url(#p4198b73508)" style="fill: none; stroke: #d0d0d0; stroke-width: 0.5"/>
   </g>
   <g id="line2d_9">
    <path d="M 54.034097 220.5115 
L 123.598284 257.838625 
" clip-path="url(#p4198b73508)" style="fill: none; stroke: #d0d0d0; stroke-width: 0.5"/>
   </g>
   <g id="line2d_10">
    <path d="M 54.034097 220.5115 
L 123.598284 199.020125 
" clip-path="url(#p4198b73508)" style="fill: none; stroke: #d0d0d0; stroke-width: 0.5"/>
   </g>
   <g id="line2d_11">
    <path d="M 54.034097 220.5115 
L 123.598284 140.201625 
" clip-path="url(#p4198b73508)" style="fill: none; stroke: #d0d0d0; stroke-width: 0.5"/>
   </g>
   <g id="line2d_12">
    <path d="M 54.034097 220.5115 
L 123.598284 81.383125 
" clip-path="url(#p4198b73508)" style="fill: none; stroke: #d0d0d0; stroke-width: 0.5"/>
   </g>
   <g id="line2d_13">
    <path d="M 54.034097 186.57775 
L 123.598284 257.838625 
" clip-path="url(#p4198b73508)" style="fill: none; stroke: #d0d0d0; stroke-width: 0.5"/>
   </g>
   <g id="line2d_14">
    <path d="M 54.034097 186.57775 
L 123.598284 199.020125 
" clip-path="url(#p4198b73508)" style="fill: none; stroke: #d0d0d0; stroke-width: 0.5"/>
   </g>
   <g id="line2d_15">
    <path d="M 54.034097 186.57775 
L 123.598284 140.201625 
" clip-path="url(#p4198b73508)" style="fill: none; stroke: #d0d0d0; stroke-width: 0.5"/>
   </g>
   <g id="line2d_16">
    <path d="M 54.034097 186.57775 
L 123.598284 81.383125 
" clip-path="url(#p4198b73508)" style="fill: none; stroke: #d0d0d0; stroke-width: 0.5"/>
   </g>
   <g id="line2d_17">
    <path d="M 54.034097 152.644 
L 123.598284 257.838625 
" clip-path="url(#p4198b73508)" style="fill: none; stroke: #d0d0d0; stroke-width: 0.5"/>
   </g>
   <g id="line2d_18">
    <path d="M 54.034097 152.644 
L 123.598284 199.020125 
" clip-path="url(#p4198b73508)" style="fill: none; stroke: #d0d0d0; stroke-width: 0.5"/>
   </g>
   <g id="line2d_19">
    <path d="M 54.034097 152.644 
L 123.598284 140.201625 
" clip-path="url(#p4198b73508)" style="fill: none; stroke: #d0d0d0; stroke-width: 0.5"/>
   </g>
   <g id="line2d_20">
    <path d="M 54.034097 152.644 
L 123.598284 81.383125 
" clip-path="url(#p4198b73508)" style="fill: none; stroke: #d0d0d0; stroke-width: 0.5"/>
   </g>
   <g id="line2d_21">
    <path d="M 54.034097 118.71025 
L 123.598284 257.838625 
" clip-path="url(#p4198b73508)" style="fill: none; stroke: #d0d0d0; stroke-width: 0.5"/>
   </g>
   <g id="line2d_22">
    <path d="M 54.034097 118.71025 
L 123.598284 199.020125 
" clip-path="url(#p4198b73508)" style="fill: none; stroke: #d0d0d0; stroke-width: 0.5"/>
   </g>
   <g id="line2d_23">
    <path d="M 54.034097 118.71025 
L 123.598284 140.201625 
" clip-path="url(#p4198b73508)" style="fill: none; stroke: #d0d0d0; stroke-width: 0.5"/>
   </g>
   <g id="line2d_24">
    <path d="M 54.034097 118.71025 
L 123.598284 81.383125 
" clip-path="url(#p4198b73508)" style="fill: none; stroke: #d0d0d0; stroke-width: 0.5"/>
   </g>
   <g id="line2d_25">
    <path d="M 54.034097 84.7765 
L 123.598284 257.838625 
" clip-path="url(#p4198b73508)" style="fill: none; stroke: #d0d0d0; stroke-width: 0.5"/>
   </g>
   <g id="line2d_26">
    <path d="M 54.034097 84.7765 
L 123.598284 199.020125 
" clip-path="url(#p4198b73508)" style="fill: none; stroke: #d0d0d0; stroke-width: 0.5"/>
   </g>
   <g id="line2d_27">
    <path d="M 54.034097 84.7765 
L 123.598284 140.201625 
" clip-path="url(#p4198b73508)" style="fill: none; stroke: #d0d0d0; stroke-width: 0.5"/>
   </g>
   <g id="line2d_28">
    <path d="M 54.034097 84.7765 
L 123.598284 81.383125 
" clip-path="url(#p4198b73508)" style="fill: none; stroke: #d0d0d0; stroke-width: 0.5"/>
   </g>
   <g id="line2d_29">
    <path d="M 54.034097 50.84275 
L 123.598284 257.838625 
" clip-path="url(#p4198b73508)" style="fill: none; stroke: #d0d0d0; stroke-width: 0.5"/>
   </g>
   <g id="line2d_30">
    <path d="M 54.034097 50.84275 
L 123.598284 199.020125 
" clip-path="url(#p4198b73508)" style="fill: none; stroke: #d0d0d0; stroke-width: 0.5"/>
   </g>
   <g id="line2d_31">
    <path d="M 54.034097 50.84275 
L 123.598284 140.201625 
" clip-path="url(#p4198b73508)" style="fill: none; stroke: #d0d0d0; stroke-width: 0.5"/>
   </g>
   <g id="line2d_32">
    <path d="M 54.034097 50.84275 
L 123.598284 81.383125 
" clip-path="url(#p4198b73508)" style="fill: none; stroke: #d0d0d0; stroke-width: 0.5"/>
   </g>
   <g id="patch_2">
    <path d="M 48.265359 294.147738 
C 49.795246 294.147738 51.262679 293.539907 52.344473 292.458113 
C 53.426266 291.37632 54.034097 289.908887 54.034097 288.379 
C 54.034097 286.849113 53.426266 285.38168 52.344473 284.299887 
C 51.262679 283.218093 49.795246 282.610263 48.265359 282.610263 
C 46.735472 282.610263 45.268039 283.218093 44.186246 284.299887 
C 43.104452 285.38168 42.496622 286.849113 42.496622 288.379 
C 42.496622 289.908887 43.104452 291.37632 44.186246 292.458113 
C 45.268039 293.539907 46.735472 294.147738 48.265359 294.147738 
z
" clip-path="url(#p4198b73508)" style="fill: #c8ced8; stroke: #ffffff; stroke-linejoin: miter"/>
   </g>
   <g id="patch_3">
    <path d="M 48.265359 260.213988 
C 49.795246 260.213988 51.262679 259.606157 52.344473 258.524363 
C 53.426266 257.44257 54.034097 255.975137 54.034097 254.44525 
C 54.034097 252.915363 53.426266 251.44793 52.344473 250.366137 
C 51.262679 249.284343 49.795246 248.676513 48.265359 248.676513 
C 46.735472 248.676513 45.268039 249.284343 44.186246 250.366137 
C 43.104452 251.44793 42.496622 252.915363 42.496622 254.44525 
C 42.496622 255.975137 43.104452 257.44257 44.186246 258.524363 
C 45.268039 259.606157 46.735472 260.213988 48.265359 260.213988 
z
" clip-path="url(#p4198b73508)" style="fill: #c8ced8; stroke: #ffffff; stroke-linejoin: miter"/>
   </g>
   <g id="patch_4">
    <path d="M 48.265359 226.280238 
C 49.795246 226.280238 51.262679 225.672407 52.344473 224.590613 
C 53.426266 223.50882 54.034097 222.041387 54.034097 220.5115 
C 54.034097 218.981613 53.426266 217.51418 52.344473 216.432387 
C 51.262679 215.350593 49.795246 214.742763 48.265359 214.742763 
C 46.735472 214.742763 45.268039 215.350593 44.186246 216.432387 
C 43.104452 217.51418 42.496622 218.981613 42.496622 220.5115 
C 42.496622 222.041387 43.104452 223.50882 44.186246 224.590613 
C 45.268039 225.672407 46.735472 226.280238 48.265359 226.280238 
z
" clip-path="url(#p4198b73508)" style="fill: #c8ced8; stroke: #ffffff; stroke-linejoin: miter"/>
   </g>
   <g id="patch_5">
    <path d="M 48.265359 192.346488 
C 49.795246 192.346488 51.262679 191.738657 52.344473 190.656863 
C 53.426266 189.57507 54.034097 188.107637 54.034097 186.57775 
C 54.034097 185.047863 53.426266 183.58043 52.344473 182.498637 
C 51.262679 181.416843 49.795246 180.809013 48.265359 180.809013 
C 46.735472 180.809013 45.268039 181.416843 44.186246 182.498637 
C 43.104452 183.58043 42.496622 185.047863 42.496622 186.57775 
C 42.496622 188.107637 43.104452 189.57507 44.186246 190.656863 
C 45.268039 191.738657 46.735472 192.346488 48.265359 192.346488 
z
" clip-path="url(#p4198b73508)" style="fill: #c8ced8; stroke: #ffffff; stroke-linejoin: miter"/>
   </g>
   <g id="patch_6">
    <path d="M 48.265359 158.412738 
C 49.795246 158.412738 51.262679 157.804907 52.344473 156.723113 
C 53.426266 155.64132 54.034097 154.173887 54.034097 152.644 
C 54.034097 151.114113 53.426266 149.64668 52.344473 148.564887 
C 51.262679 147.483093 49.795246 146.875263 48.265359 146.875263 
C 46.735472 146.875263 45.268039 147.483093 44.186246 148.564887 
C 43.104452 149.64668 42.496622 151.114113 42.496622 152.644 
C 42.496622 154.173887 43.104452 155.64132 44.186246 156.723113 
C 45.268039 157.804907 46.735472 158.412738 48.265359 158.412738 
z
" clip-path="url(#p4198b73508)" style="fill: #c8ced8; stroke: #ffffff; stroke-linejoin: miter"/>
   </g>
   <g id="patch_7">
    <path d="M 48.265359 124.478988 
C 49.795246 124.478988 51.262679 123.871157 52.344473 122.789363 
C 53.426266 121.70757 54.034097 120.240137 54.034097 118.71025 
C 54.034097 117.180363 53.426266 115.71293 52.344473 114.631137 
C 51.262679 113.549343 49.795246 112.941513 48.265359 112.941513 
C 46.735472 112.941513 45.268039 113.549343 44.186246 114.631137 
C 43.104452 115.71293 42.496622 117.180363 42.496622 118.71025 
C 42.496622 120.240137 43.104452 121.70757 44.186246 122.789363 
C 45.268039 123.871157 46.735472 124.478988 48.265359 124.478988 
z
" clip-path="url(#p4198b73508)" style="fill: #c8ced8; stroke: #ffffff; stroke-linejoin: miter"/>
   </g>
   <g id="patch_8">
    <path d="M 48.265359 90.545238 
C 49.795246 90.545238 51.262679 89.937407 52.344473 88.855613 
C 53.426266 87.77382 54.034097 86.306387 54.034097 84.7765 
C 54.034097 83.246613 53.426266 81.77918 52.344473 80.697387 
C 51.262679 79.615593 49.795246 79.007763 48.265359 79.007763 
C 46.735472 79.007763 45.268039 79.615593 44.186246 80.697387 
C 43.104452 81.77918 42.496622 83.246613 42.496622 84.7765 
C 42.496622 86.306387 43.104452 87.77382 44.186246 88.855613 
C 45.268039 89.937407 46.735472 90.545238 48.265359 90.545238 
z
" clip-path="url(#p4198b73508)" style="fill: #c8ced8; stroke: #ffffff; stroke-linejoin: miter"/>
   </g>
   <g id="patch_9">
    <path d="M 48.265359 56.611488 
C 49.795246 56.611488 51.262679 56.003657 52.344473 54.921863 
C 53.426266 53.84007 54.034097 52.372637 54.034097 50.84275 
C 54.034097 49.312863 53.426266 47.84543 52.344473 46.763637 
C 51.262679 45.681843 49.795246 45.074013 48.265359 45.074013 
C 46.735472 45.074013 45.268039 45.681843 44.186246 46.763637 
C 43.104452 47.84543 42.496622 49.312863 42.496622 50.84275 
C 42.496622 52.372637 43.104452 53.84007 44.186246 54.921863 
C 45.268039 56.003657 46.735472 56.611488 48.265359 56.611488 
z
" clip-path="url(#p4198b73508)" style="fill: #c8ced8; stroke: #ffffff; stroke-linejoin: miter"/>
   </g>
   <g id="patch_10">
    <path d="M 133.099734 267.340075 
C 135.619548 267.340075 138.036497 266.338942 139.818274 264.557165 
C 141.600052 262.775387 142.601184 260.358439 142.601184 257.838625 
C 142.601184 255.318811 141.600052 252.901863 139.818274 251.120085 
C 138.036497 249.338308 135.619548 248.337175 133.099734 248.337175 
C 130.57992 248.337175 128.162972 249.338308 126.381195 251.120085 
C 124.599417 252.901863 123.598284 255.318811 123.598284 257.838625 
C 123.598284 260.358439 124.599417 262.775387 126.381195 264.557165 
C 128.162972 266.338942 130.57992 267.340075 133.099734 267.340075 
z
" clip-path="url(#p4198b73508)" style="fill: #7ed4e6; stroke: #ffffff; stroke-width: 1.2; stroke-linejoin: miter"/>
   </g>
   <g id="patch_11">
    <path d="M 133.099734 208.521575 
C 135.619548 208.521575 138.036497 207.520442 139.818274 205.738665 
C 141.600052 203.956887 142.601184 201.539939 142.601184 199.020125 
C 142.601184 196.500311 141.600052 194.083363 139.818274 192.301585 
C 138.036497 190.519808 135.619548 189.518675 133.099734 189.518675 
C 130.57992 189.518675 128.162972 190.519808 126.381195 192.301585 
C 124.599417 194.083363 123.598284 196.500311 123.598284 199.020125 
C 123.598284 201.539939 124.599417 203.956887 126.381195 205.738665 
C 128.162972 207.520442 130.57992 208.521575 133.099734 208.521575 
z
" clip-path="url(#p4198b73508)" style="fill: #7ed4e6; stroke: #ffffff; stroke-width: 1.2; stroke-linejoin: miter"/>
   </g>
   <g id="patch_12">
    <path d="M 133.099734 149.703075 
C 135.619548 149.703075 138.036497 148.701942 139.818274 146.920165 
C 141.600052 145.138387 142.601184 142.721439 142.601184 140.201625 
C 142.601184 137.681811 141.600052 135.264863 139.818274 133.483085 
C 138.036497 131.701308 135.619548 130.700175 133.099734 130.700175 
C 130.57992 130.700175 128.162972 131.701308 126.381195 133.483085 
C 124.599417 135.264863 123.598284 137.681811 123.598284 140.201625 
C 123.598284 142.721439 124.599417 145.138387 126.381195 146.920165 
C 128.162972 148.701942 130.57992 149.703075 133.099734 149.703075 
z
" clip-path="url(#p4198b73508)" style="fill: #7ed4e6; stroke: #ffffff; stroke-width: 1.2; stroke-linejoin: miter"/>
   </g>
   <g id="patch_13">
    <path d="M 133.099734 90.884575 
C 135.619548 90.884575 138.036497 89.883442 139.818274 88.101665 
C 141.600052 86.319887 142.601184 83.902939 142.601184 81.383125 
C 142.601184 78.863311 141.600052 76.446363 139.818274 74.664585 
C 138.036497 72.882808 135.619548 71.881675 133.099734 71.881675 
C 130.57992 71.881675 128.162972 72.882808 126.381195 74.664585 
C 124.599417 76.446363 123.598284 78.863311 123.598284 81.383125 
C 123.598284 83.902939 124.599417 86.319887 126.381195 88.101665 
C 128.162972 89.883442 130.57992 90.884575 133.099734 90.884575 
z
" clip-path="url(#p4198b73508)" style="fill: #7ed4e6; stroke: #ffffff; stroke-width: 1.2; stroke-linejoin: miter"/>
   </g>
   <g id="text_1">
    <!-- Dense layer -->
    <g style="fill: #808080" transform="translate(56.084688 15.558281) scale(0.11 -0.11)">
     <defs>
      <path id="DejaVuSans-44" d="M 1259 4147 
L 1259 519 
L 2022 519 
Q 2988 519 3436 956 
Q 3884 1394 3884 2338 
Q 3884 3275 3436 3711 
Q 2988 4147 2022 4147 
L 1259 4147 
z
M 628 4666 
L 1925 4666 
Q 3281 4666 3915 4102 
Q 4550 3538 4550 2338 
Q 4550 1131 3912 565 
Q 3275 0 1925 0 
L 628 0 
L 628 4666 
z
" transform="scale(0.015625)"/>
      <path id="DejaVuSans-65" d="M 3597 1894 
L 3597 1613 
L 953 1613 
Q 991 1019 1311 708 
Q 1631 397 2203 397 
Q 2534 397 2845 478 
Q 3156 559 3463 722 
L 3463 178 
Q 3153 47 2828 -22 
Q 2503 -91 2169 -91 
Q 1331 -91 842 396 
Q 353 884 353 1716 
Q 353 2575 817 3079 
Q 1281 3584 2069 3584 
Q 2775 3584 3186 3129 
Q 3597 2675 3597 1894 
z
M 3022 2063 
Q 3016 2534 2758 2815 
Q 2500 3097 2075 3097 
Q 1594 3097 1305 2825 
Q 1016 2553 972 2059 
L 3022 2063 
z
" transform="scale(0.015625)"/>
      <path id="DejaVuSans-6e" d="M 3513 2113 
L 3513 0 
L 2938 0 
L 2938 2094 
Q 2938 2591 2744 2837 
Q 2550 3084 2163 3084 
Q 1697 3084 1428 2787 
Q 1159 2491 1159 1978 
L 1159 0 
L 581 0 
L 581 3500 
L 1159 3500 
L 1159 2956 
Q 1366 3272 1645 3428 
Q 1925 3584 2291 3584 
Q 2894 3584 3203 3211 
Q 3513 2838 3513 2113 
z
" transform="scale(0.015625)"/>
      <path id="DejaVuSans-73" d="M 2834 3397 
L 2834 2853 
Q 2591 2978 2328 3040 
Q 2066 3103 1784 3103 
Q 1356 3103 1142 2972 
Q 928 2841 928 2578 
Q 928 2378 1081 2264 
Q 1234 2150 1697 2047 
L 1894 2003 
Q 2506 1872 2764 1633 
Q 3022 1394 3022 966 
Q 3022 478 2636 193 
Q 2250 -91 1575 -91 
Q 1294 -91 989 -36 
Q 684 19 347 128 
L 347 722 
Q 666 556 975 473 
Q 1284 391 1588 391 
Q 1994 391 2212 530 
Q 2431 669 2431 922 
Q 2431 1156 2273 1281 
Q 2116 1406 1581 1522 
L 1381 1569 
Q 847 1681 609 1914 
Q 372 2147 372 2553 
Q 372 3047 722 3315 
Q 1072 3584 1716 3584 
Q 2034 3584 2315 3537 
Q 2597 3491 2834 3397 
z
" transform="scale(0.015625)"/>
      <path id="DejaVuSans-20" transform="scale(0.015625)"/>
      <path id="DejaVuSans-6c" d="M 603 4863 
L 1178 4863 
L 1178 0 
L 603 0 
L 603 4863 
z
" transform="scale(0.015625)"/>
      <path id="DejaVuSans-61" d="M 2194 1759 
Q 1497 1759 1228 1600 
Q 959 1441 959 1056 
Q 959 750 1161 570 
Q 1363 391 1709 391 
Q 2188 391 2477 730 
Q 2766 1069 2766 1631 
L 2766 1759 
L 2194 1759 
z
M 3341 1997 
L 3341 0 
L 2766 0 
L 2766 531 
Q 2569 213 2275 61 
Q 1981 -91 1556 -91 
Q 1019 -91 701 211 
Q 384 513 384 1019 
Q 384 1609 779 1909 
Q 1175 2209 1959 2209 
L 2766 2209 
L 2766 2266 
Q 2766 2663 2505 2880 
Q 2244 3097 1772 3097 
Q 1472 3097 1187 3025 
Q 903 2953 641 2809 
L 641 3341 
Q 956 3463 1253 3523 
Q 1550 3584 1831 3584 
Q 2591 3584 2966 3190 
Q 3341 2797 3341 1997 
z
" transform="scale(0.015625)"/>
      <path id="DejaVuSans-79" d="M 2059 -325 
Q 1816 -950 1584 -1140 
Q 1353 -1331 966 -1331 
L 506 -1331 
L 506 -850 
L 844 -850 
Q 1081 -850 1212 -737 
Q 1344 -625 1503 -206 
L 1606 56 
L 191 3500 
L 800 3500 
L 1894 763 
L 2988 3500 
L 3597 3500 
L 2059 -325 
z
" transform="scale(0.015625)"/>
      <path id="DejaVuSans-72" d="M 2631 2963 
Q 2534 3019 2420 3045 
Q 2306 3072 2169 3072 
Q 1681 3072 1420 2755 
Q 1159 2438 1159 1844 
L 1159 0 
L 581 0 
L 581 3500 
L 1159 3500 
L 1159 2956 
Q 1341 3275 1631 3429 
Q 1922 3584 2338 3584 
Q 2397 3584 2469 3576 
Q 2541 3569 2628 3553 
L 2631 2963 
z
" transform="scale(0.015625)"/>
     </defs>
     <use xlink:href="#DejaVuSans-44"/>
     <use xlink:href="#DejaVuSans-65" transform="translate(77.001953 0)"/>
     <use xlink:href="#DejaVuSans-6e" transform="translate(138.525391 0)"/>
     <use xlink:href="#DejaVuSans-73" transform="translate(201.904297 0)"/>
     <use xlink:href="#DejaVuSans-65" transform="translate(254.003906 0)"/>
     <use xlink:href="#DejaVuSans-20" transform="translate(315.527344 0)"/>
     <use xlink:href="#DejaVuSans-6c" transform="translate(347.314453 0)"/>
     <use xlink:href="#DejaVuSans-61" transform="translate(375.097656 0)"/>
     <use xlink:href="#DejaVuSans-79" transform="translate(436.376953 0)"/>
     <use xlink:href="#DejaVuSans-65" transform="translate(495.556641 0)"/>
     <use xlink:href="#DejaVuSans-72" transform="translate(557.080078 0)"/>
    </g>
    <!-- each neuron sees every input -->
    <g style="fill: #808080" transform="translate(7.2 27.875875) scale(0.11 -0.11)">
     <defs>
      <path id="DejaVuSans-63" d="M 3122 3366 
L 3122 2828 
Q 2878 2963 2633 3030 
Q 2388 3097 2138 3097 
Q 1578 3097 1268 2742 
Q 959 2388 959 1747 
Q 959 1106 1268 751 
Q 1578 397 2138 397 
Q 2388 397 2633 464 
Q 2878 531 3122 666 
L 3122 134 
Q 2881 22 2623 -34 
Q 2366 -91 2075 -91 
Q 1284 -91 818 406 
Q 353 903 353 1747 
Q 353 2603 823 3093 
Q 1294 3584 2113 3584 
Q 2378 3584 2631 3529 
Q 2884 3475 3122 3366 
z
" transform="scale(0.015625)"/>
      <path id="DejaVuSans-68" d="M 3513 2113 
L 3513 0 
L 2938 0 
L 2938 2094 
Q 2938 2591 2744 2837 
Q 2550 3084 2163 3084 
Q 1697 3084 1428 2787 
Q 1159 2491 1159 1978 
L 1159 0 
L 581 0 
L 581 4863 
L 1159 4863 
L 1159 2956 
Q 1366 3272 1645 3428 
Q 1925 3584 2291 3584 
Q 2894 3584 3203 3211 
Q 3513 2838 3513 2113 
z
" transform="scale(0.015625)"/>
      <path id="DejaVuSans-75" d="M 544 1381 
L 544 3500 
L 1119 3500 
L 1119 1403 
Q 1119 906 1312 657 
Q 1506 409 1894 409 
Q 2359 409 2629 706 
Q 2900 1003 2900 1516 
L 2900 3500 
L 3475 3500 
L 3475 0 
L 2900 0 
L 2900 538 
Q 2691 219 2414 64 
Q 2138 -91 1772 -91 
Q 1169 -91 856 284 
Q 544 659 544 1381 
z
M 1991 3584 
L 1991 3584 
z
" transform="scale(0.015625)"/>
      <path id="DejaVuSans-6f" d="M 1959 3097 
Q 1497 3097 1228 2736 
Q 959 2375 959 1747 
Q 959 1119 1226 758 
Q 1494 397 1959 397 
Q 2419 397 2687 759 
Q 2956 1122 2956 1747 
Q 2956 2369 2687 2733 
Q 2419 3097 1959 3097 
z
M 1959 3584 
Q 2709 3584 3137 3096 
Q 3566 2609 3566 1747 
Q 3566 888 3137 398 
Q 2709 -91 1959 -91 
Q 1206 -91 779 398 
Q 353 888 353 1747 
Q 353 2609 779 3096 
Q 1206 3584 1959 3584 
z
" transform="scale(0.015625)"/>
      <path id="DejaVuSans-76" d="M 191 3500 
L 800 3500 
L 1894 563 
L 2988 3500 
L 3597 3500 
L 2284 0 
L 1503 0 
L 191 3500 
z
" transform="scale(0.015625)"/>
      <path id="DejaVuSans-69" d="M 603 3500 
L 1178 3500 
L 1178 0 
L 603 0 
L 603 3500 
z
M 603 4863 
L 1178 4863 
L 1178 4134 
L 603 4134 
L 603 4863 
z
" transform="scale(0.015625)"/>
      <path id="DejaVuSans-70" d="M 1159 525 
L 1159 -1331 
L 581 -1331 
L 581 3500 
L 1159 3500 
L 1159 2969 
Q 1341 3281 1617 3432 
Q 1894 3584 2278 3584 
Q 2916 3584 3314 3078 
Q 3713 2572 3713 1747 
Q 3713 922 3314 415 
Q 2916 -91 2278 -91 
Q 1894 -91 1617 61 
Q 1341 213 1159 525 
z
M 3116 1747 
Q 3116 2381 2855 2742 
Q 2594 3103 2138 3103 
Q 1681 3103 1420 2742 
Q 1159 2381 1159 1747 
Q 1159 1113 1420 752 
Q 1681 391 2138 391 
Q 2594 391 2855 752 
Q 3116 1113 3116 1747 
z
" transform="scale(0.015625)"/>
      <path id="DejaVuSans-74" d="M 1172 4494 
L 1172 3500 
L 2356 3500 
L 2356 3053 
L 1172 3053 
L 1172 1153 
Q 1172 725 1289 603 
Q 1406 481 1766 481 
L 2356 481 
L 2356 0 
L 1766 0 
Q 1100 0 847 248 
Q 594 497 594 1153 
L 594 3053 
L 172 3053 
L 172 3500 
L 594 3500 
L 594 4494 
L 1172 4494 
z
" transform="scale(0.015625)"/>
     </defs>
     <use xlink:href="#DejaVuSans-65"/>
     <use xlink:href="#DejaVuSans-61" transform="translate(61.523438 0)"/>
     <use xlink:href="#DejaVuSans-63" transform="translate(122.802734 0)"/>
     <use xlink:href="#DejaVuSans-68" transform="translate(177.783203 0)"/>
     <use xlink:href="#DejaVuSans-20" transform="translate(241.162109 0)"/>
     <use xlink:href="#DejaVuSans-6e" transform="translate(272.949219 0)"/>
     <use xlink:href="#DejaVuSans-65" transform="translate(336.328125 0)"/>
     <use xlink:href="#DejaVuSans-75" transform="translate(397.851562 0)"/>
     <use xlink:href="#DejaVuSans-72" transform="translate(461.230469 0)"/>
     <use xlink:href="#DejaVuSans-6f" transform="translate(500.09375 0)"/>
     <use xlink:href="#DejaVuSans-6e" transform="translate(561.275391 0)"/>
     <use xlink:href="#DejaVuSans-20" transform="translate(624.654297 0)"/>
     <use xlink:href="#DejaVuSans-73" transform="translate(656.441406 0)"/>
     <use xlink:href="#DejaVuSans-65" transform="translate(708.541016 0)"/>
     <use xlink:href="#DejaVuSans-65" transform="translate(770.064453 0)"/>
     <use xlink:href="#DejaVuSans-73" transform="translate(831.587891 0)"/>
     <use xlink:href="#DejaVuSans-20" transform="translate(883.6875 0)"/>
     <use xlink:href="#DejaVuSans-65" transform="translate(915.474609 0)"/>
     <use xlink:href="#DejaVuSans-76" transform="translate(976.998047 0)"/>
     <use xlink:href="#DejaVuSans-65" transform="translate(1036.177734 0)"/>
     <use xlink:href="#DejaVuSans-72" transform="translate(1097.701172 0)"/>
     <use xlink:href="#DejaVuSans-79" transform="translate(1138.814453 0)"/>
     <use xlink:href="#DejaVuSans-20" transform="translate(1197.994141 0)"/>
     <use xlink:href="#DejaVuSans-69" transform="translate(1229.78125 0)"/>
     <use xlink:href="#DejaVuSans-6e" transform="translate(1257.564453 0)"/>
     <use xlink:href="#DejaVuSans-70" transform="translate(1320.943359 0)"/>
     <use xlink:href="#DejaVuSans-75" transform="translate(1384.419922 0)"/>
     <use xlink:href="#DejaVuSans-74" transform="translate(1447.798828 0)"/>
    </g>
   </g>
  </g>
  <g id="axes_2">
   <g id="line2d_33">
    <path d="M 364.148897 288.379 
L 433.713084 257.838625 
" clip-path="url(#p3d17ba729e)" style="fill: none; stroke: #d0d0d0; stroke-width: 0.7"/>
   </g>
   <g id="line2d_34">
    <path d="M 364.148897 254.44525 
L 433.713084 257.838625 
" clip-path="url(#p3d17ba729e)" style="fill: none; stroke: #d0d0d0; stroke-width: 0.7"/>
   </g>
   <g id="line2d_35">
    <path d="M 364.148897 220.5115 
L 433.713084 257.838625 
" clip-path="url(#p3d17ba729e)" style="fill: none; stroke: #d0d0d0; stroke-width: 0.7"/>
   </g>
   <g id="line2d_36">
    <path d="M 364.148897 220.5115 
L 433.713084 199.020125 
" clip-path="url(#p3d17ba729e)" style="fill: none; stroke: #d0d0d0; stroke-width: 0.7"/>
   </g>
   <g id="line2d_37">
    <path d="M 364.148897 186.57775 
L 433.713084 199.020125 
" clip-path="url(#p3d17ba729e)" style="fill: none; stroke: #d0d0d0; stroke-width: 0.7"/>
   </g>
   <g id="line2d_38">
    <path d="M 364.148897 152.644 
L 433.713084 199.020125 
" clip-path="url(#p3d17ba729e)" style="fill: none; stroke: #d0d0d0; stroke-width: 0.7"/>
   </g>
   <g id="line2d_39">
    <path d="M 364.148897 152.644 
L 433.713084 140.201625 
" clip-path="url(#p3d17ba729e)" style="fill: none; stroke: #d0d0d0; stroke-width: 0.7"/>
   </g>
   <g id="line2d_40">
    <path d="M 364.148897 118.71025 
L 433.713084 140.201625 
" clip-path="url(#p3d17ba729e)" style="fill: none; stroke: #d0d0d0; stroke-width: 0.7"/>
   </g>
   <g id="line2d_41">
    <path d="M 364.148897 84.7765 
L 433.713084 140.201625 
" clip-path="url(#p3d17ba729e)" style="fill: none; stroke: #d0d0d0; stroke-width: 0.7"/>
   </g>
   <g id="line2d_42">
    <path d="M 364.148897 118.71025 
L 433.713084 81.383125 
" clip-path="url(#p3d17ba729e)" style="fill: none; stroke: #d0d0d0; stroke-width: 0.7"/>
   </g>
   <g id="line2d_43">
    <path d="M 364.148897 84.7765 
L 433.713084 81.383125 
" clip-path="url(#p3d17ba729e)" style="fill: none; stroke: #d0d0d0; stroke-width: 0.7"/>
   </g>
   <g id="line2d_44">
    <path d="M 364.148897 50.84275 
L 433.713084 81.383125 
" clip-path="url(#p3d17ba729e)" style="fill: none; stroke: #d0d0d0; stroke-width: 0.7"/>
   </g>
   <g id="patch_14">
    <path d="M 358.380159 294.147738 
C 359.910046 294.147738 361.377479 293.539907 362.459273 292.458113 
C 363.541066 291.37632 364.148897 289.908887 364.148897 288.379 
C 364.148897 286.849113 363.541066 285.38168 362.459273 284.299887 
C 361.377479 283.218093 359.910046 282.610263 358.380159 282.610263 
C 356.850272 282.610263 355.382839 283.218093 354.301046 284.299887 
C 353.219252 285.38168 352.611422 286.849113 352.611422 288.379 
C 352.611422 289.908887 353.219252 291.37632 354.301046 292.458113 
C 355.382839 293.539907 356.850272 294.147738 358.380159 294.147738 
z
" clip-path="url(#p3d17ba729e)" style="fill: #c8ced8; stroke: #ffffff; stroke-linejoin: miter"/>
   </g>
   <g id="patch_15">
    <path d="M 358.380159 260.213988 
C 359.910046 260.213988 361.377479 259.606157 362.459273 258.524363 
C 363.541066 257.44257 364.148897 255.975137 364.148897 254.44525 
C 364.148897 252.915363 363.541066 251.44793 362.459273 250.366137 
C 361.377479 249.284343 359.910046 248.676513 358.380159 248.676513 
C 356.850272 248.676513 355.382839 249.284343 354.301046 250.366137 
C 353.219252 251.44793 352.611422 252.915363 352.611422 254.44525 
C 352.611422 255.975137 353.219252 257.44257 354.301046 258.524363 
C 355.382839 259.606157 356.850272 260.213988 358.380159 260.213988 
z
" clip-path="url(#p3d17ba729e)" style="fill: #c8ced8; stroke: #ffffff; stroke-linejoin: miter"/>
   </g>
   <g id="patch_16">
    <path d="M 358.380159 226.280238 
C 359.910046 226.280238 361.377479 225.672407 362.459273 224.590613 
C 363.541066 223.50882 364.148897 222.041387 364.148897 220.5115 
C 364.148897 218.981613 363.541066 217.51418 362.459273 216.432387 
C 361.377479 215.350593 359.910046 214.742763 358.380159 214.742763 
C 356.850272 214.742763 355.382839 215.350593 354.301046 216.432387 
C 353.219252 217.51418 352.611422 218.981613 352.611422 220.5115 
C 352.611422 222.041387 353.219252 223.50882 354.301046 224.590613 
C 355.382839 225.672407 356.850272 226.280238 358.380159 226.280238 
z
" clip-path="url(#p3d17ba729e)" style="fill: #c8ced8; stroke: #ffffff; stroke-linejoin: miter"/>
   </g>
   <g id="patch_17">
    <path d="M 358.380159 192.346488 
C 359.910046 192.346488 361.377479 191.738657 362.459273 190.656863 
C 363.541066 189.57507 364.148897 188.107637 364.148897 186.57775 
C 364.148897 185.047863 363.541066 183.58043 362.459273 182.498637 
C 361.377479 181.416843 359.910046 180.809013 358.380159 180.809013 
C 356.850272 180.809013 355.382839 181.416843 354.301046 182.498637 
C 353.219252 183.58043 352.611422 185.047863 352.611422 186.57775 
C 352.611422 188.107637 353.219252 189.57507 354.301046 190.656863 
C 355.382839 191.738657 356.850272 192.346488 358.380159 192.346488 
z
" clip-path="url(#p3d17ba729e)" style="fill: #c8ced8; stroke: #ffffff; stroke-linejoin: miter"/>
   </g>
   <g id="patch_18">
    <path d="M 358.380159 158.412738 
C 359.910046 158.412738 361.377479 157.804907 362.459273 156.723113 
C 363.541066 155.64132 364.148897 154.173887 364.148897 152.644 
C 364.148897 151.114113 363.541066 149.64668 362.459273 148.564887 
C 361.377479 147.483093 359.910046 146.875263 358.380159 146.875263 
C 356.850272 146.875263 355.382839 147.483093 354.301046 148.564887 
C 353.219252 149.64668 352.611422 151.114113 352.611422 152.644 
C 352.611422 154.173887 353.219252 155.64132 354.301046 156.723113 
C 355.382839 157.804907 356.850272 158.412738 358.380159 158.412738 
z
" clip-path="url(#p3d17ba729e)" style="fill: #c8ced8; stroke: #ffffff; stroke-linejoin: miter"/>
   </g>
   <g id="patch_19">
    <path d="M 358.380159 124.478988 
C 359.910046 124.478988 361.377479 123.871157 362.459273 122.789363 
C 363.541066 121.70757 364.148897 120.240137 364.148897 118.71025 
C 364.148897 117.180363 363.541066 115.71293 362.459273 114.631137 
C 361.377479 113.549343 359.910046 112.941513 358.380159 112.941513 
C 356.850272 112.941513 355.382839 113.549343 354.301046 114.631137 
C 353.219252 115.71293 352.611422 117.180363 352.611422 118.71025 
C 352.611422 120.240137 353.219252 121.70757 354.301046 122.789363 
C 355.382839 123.871157 356.850272 124.478988 358.380159 124.478988 
z
" clip-path="url(#p3d17ba729e)" style="fill: #c8ced8; stroke: #ffffff; stroke-linejoin: miter"/>
   </g>
   <g id="patch_20">
    <path d="M 358.380159 90.545238 
C 359.910046 90.545238 361.377479 89.937407 362.459273 88.855613 
C 363.541066 87.77382 364.148897 86.306387 364.148897 84.7765 
C 364.148897 83.246613 363.541066 81.77918 362.459273 80.697387 
C 361.377479 79.615593 359.910046 79.007763 358.380159 79.007763 
C 356.850272 79.007763 355.382839 79.615593 354.301046 80.697387 
C 353.219252 81.77918 352.611422 83.246613 352.611422 84.7765 
C 352.611422 86.306387 353.219252 87.77382 354.301046 88.855613 
C 355.382839 89.937407 356.850272 90.545238 358.380159 90.545238 
z
" clip-path="url(#p3d17ba729e)" style="fill: #c8ced8; stroke: #ffffff; stroke-linejoin: miter"/>
   </g>
   <g id="patch_21">
    <path d="M 358.380159 56.611488 
C 359.910046 56.611488 361.377479 56.003657 362.459273 54.921863 
C 363.541066 53.84007 364.148897 52.372637 364.148897 50.84275 
C 364.148897 49.312863 363.541066 47.84543 362.459273 46.763637 
C 361.377479 45.681843 359.910046 45.074013 358.380159 45.074013 
C 356.850272 45.074013 355.382839 45.681843 354.301046 46.763637 
C 353.219252 47.84543 352.611422 49.312863 352.611422 50.84275 
C 352.611422 52.372637 353.219252 53.84007 354.301046 54.921863 
C 355.382839 56.003657 356.850272 56.611488 358.380159 56.611488 
z
" clip-path="url(#p3d17ba729e)" style="fill: #c8ced8; stroke: #ffffff; stroke-linejoin: miter"/>
   </g>
   <g id="patch_22">
    <path d="M 443.214534 267.340075 
C 445.734348 267.340075 448.151297 266.338942 449.933074 264.557165 
C 451.714852 262.775387 452.715984 260.358439 452.715984 257.838625 
C 452.715984 255.318811 451.714852 252.901863 449.933074 251.120085 
C 448.151297 249.338308 445.734348 248.337175 443.214534 248.337175 
C 440.69472 248.337175 438.277772 249.338308 436.495995 251.120085 
C 434.714217 252.901863 433.713084 255.318811 433.713084 257.838625 
C 433.713084 260.358439 434.714217 262.775387 436.495995 264.557165 
C 438.277772 266.338942 440.69472 267.340075 443.214534 267.340075 
z
" clip-path="url(#p3d17ba729e)" style="fill: #7ed4e6; stroke: #ffffff; stroke-width: 1.2; stroke-linejoin: miter"/>
   </g>
   <g id="patch_23">
    <path d="M 443.214534 208.521575 
C 445.734348 208.521575 448.151297 207.520442 449.933074 205.738665 
C 451.714852 203.956887 452.715984 201.539939 452.715984 199.020125 
C 452.715984 196.500311 451.714852 194.083363 449.933074 192.301585 
C 448.151297 190.519808 445.734348 189.518675 443.214534 189.518675 
C 440.69472 189.518675 438.277772 190.519808 436.495995 192.301585 
C 434.714217 194.083363 433.713084 196.500311 433.713084 199.020125 
C 433.713084 201.539939 434.714217 203.956887 436.495995 205.738665 
C 438.277772 207.520442 440.69472 208.521575 443.214534 208.521575 
z
" clip-path="url(#p3d17ba729e)" style="fill: #7ed4e6; stroke: #ffffff; stroke-width: 1.2; stroke-linejoin: miter"/>
   </g>
   <g id="patch_24">
    <path d="M 443.214534 149.703075 
C 445.734348 149.703075 448.151297 148.701942 449.933074 146.920165 
C 451.714852 145.138387 452.715984 142.721439 452.715984 140.201625 
C 452.715984 137.681811 451.714852 135.264863 449.933074 133.483085 
C 448.151297 131.701308 445.734348 130.700175 443.214534 130.700175 
C 440.69472 130.700175 438.277772 131.701308 436.495995 133.483085 
C 434.714217 135.264863 433.713084 137.681811 433.713084 140.201625 
C 433.713084 142.721439 434.714217 145.138387 436.495995 146.920165 
C 438.277772 148.701942 440.69472 149.703075 443.214534 149.703075 
z
" clip-path="url(#p3d17ba729e)" style="fill: #7ed4e6; stroke: #ffffff; stroke-width: 1.2; stroke-linejoin: miter"/>
   </g>
   <g id="patch_25">
    <path d="M 443.214534 90.884575 
C 445.734348 90.884575 448.151297 89.883442 449.933074 88.101665 
C 451.714852 86.319887 452.715984 83.902939 452.715984 81.383125 
C 452.715984 78.863311 451.714852 76.446363 449.933074 74.664585 
C 448.151297 72.882808 445.734348 71.881675 443.214534 71.881675 
C 440.69472 71.881675 438.277772 72.882808 436.495995 74.664585 
C 434.714217 76.446363 433.713084 78.863311 433.713084 81.383125 
C 433.713084 83.902939 434.714217 86.319887 436.495995 88.101665 
C 438.277772 89.883442 440.69472 90.884575 443.214534 90.884575 
z
" clip-path="url(#p3d17ba729e)" style="fill: #7ed4e6; stroke: #ffffff; stroke-width: 1.2; stroke-linejoin: miter"/>
   </g>
   <g id="text_2">
    <!-- Convolutional layer -->
    <g style="fill: #808080" transform="translate(345.794488 15.558281) scale(0.11 -0.11)">
     <defs>
      <path id="DejaVuSans-43" d="M 4122 4306 
L 4122 3641 
Q 3803 3938 3442 4084 
Q 3081 4231 2675 4231 
Q 1875 4231 1450 3742 
Q 1025 3253 1025 2328 
Q 1025 1406 1450 917 
Q 1875 428 2675 428 
Q 3081 428 3442 575 
Q 3803 722 4122 1019 
L 4122 359 
Q 3791 134 3420 21 
Q 3050 -91 2638 -91 
Q 1578 -91 968 557 
Q 359 1206 359 2328 
Q 359 3453 968 4101 
Q 1578 4750 2638 4750 
Q 3056 4750 3426 4639 
Q 3797 4528 4122 4306 
z
" transform="scale(0.015625)"/>
     </defs>
     <use xlink:href="#DejaVuSans-43"/>
     <use xlink:href="#DejaVuSans-6f" transform="translate(69.824219 0)"/>
     <use xlink:href="#DejaVuSans-6e" transform="translate(131.005859 0)"/>
     <use xlink:href="#DejaVuSans-76" transform="translate(194.384766 0)"/>
     <use xlink:href="#DejaVuSans-6f" transform="translate(253.564453 0)"/>
     <use xlink:href="#DejaVuSans-6c" transform="translate(314.746094 0)"/>
     <use xlink:href="#DejaVuSans-75" transform="translate(342.529297 0)"/>
     <use xlink:href="#DejaVuSans-74" transform="translate(405.908203 0)"/>
     <use xlink:href="#DejaVuSans-69" transform="translate(445.117188 0)"/>
     <use xlink:href="#DejaVuSans-6f" transform="translate(472.900391 0)"/>
     <use xlink:href="#DejaVuSans-6e" transform="translate(534.082031 0)"/>
     <use xlink:href="#DejaVuSans-61" transform="translate(597.460938 0)"/>
     <use xlink:href="#DejaVuSans-6c" transform="translate(658.740234 0)"/>
     <use xlink:href="#DejaVuSans-20" transform="translate(686.523438 0)"/>
     <use xlink:href="#DejaVuSans-6c" transform="translate(718.310547 0)"/>
     <use xlink:href="#DejaVuSans-61" transform="translate(746.09375 0)"/>
     <use xlink:href="#DejaVuSans-79" transform="translate(807.373047 0)"/>
     <use xlink:href="#DejaVuSans-65" transform="translate(866.552734 0)"/>
     <use xlink:href="#DejaVuSans-72" transform="translate(928.076172 0)"/>
    </g>
    <!-- each neuron sees only a window -->
    <g style="fill: #808080" transform="translate(309.382769 27.875875) scale(0.11 -0.11)">
     <defs>
      <path id="DejaVuSans-77" d="M 269 3500 
L 844 3500 
L 1563 769 
L 2278 3500 
L 2956 3500 
L 3675 769 
L 4391 3500 
L 4966 3500 
L 4050 0 
L 3372 0 
L 2619 2869 
L 1863 0 
L 1184 0 
L 269 3500 
z
" transform="scale(0.015625)"/>
      <path id="DejaVuSans-64" d="M 2906 2969 
L 2906 4863 
L 3481 4863 
L 3481 0 
L 2906 0 
L 2906 525 
Q 2725 213 2448 61 
Q 2172 -91 1784 -91 
Q 1150 -91 751 415 
Q 353 922 353 1747 
Q 353 2572 751 3078 
Q 1150 3584 1784 3584 
Q 2172 3584 2448 3432 
Q 2725 3281 2906 2969 
z
M 947 1747 
Q 947 1113 1208 752 
Q 1469 391 1925 391 
Q 2381 391 2643 752 
Q 2906 1113 2906 1747 
Q 2906 2381 2643 2742 
Q 2381 3103 1925 3103 
Q 1469 3103 1208 2742 
Q 947 2381 947 1747 
z
" transform="scale(0.015625)"/>
     </defs>
     <use xlink:href="#DejaVuSans-65"/>
     <use xlink:href="#DejaVuSans-61" transform="translate(61.523438 0)"/>
     <use xlink:href="#DejaVuSans-63" transform="translate(122.802734 0)"/>
     <use xlink:href="#DejaVuSans-68" transform="translate(177.783203 0)"/>
     <use xlink:href="#DejaVuSans-20" transform="translate(241.162109 0)"/>
     <use xlink:href="#DejaVuSans-6e" transform="translate(272.949219 0)"/>
     <use xlink:href="#DejaVuSans-65" transform="translate(336.328125 0)"/>
     <use xlink:href="#DejaVuSans-75" transform="translate(397.851562 0)"/>
     <use xlink:href="#DejaVuSans-72" transform="translate(461.230469 0)"/>
     <use xlink:href="#DejaVuSans-6f" transform="translate(500.09375 0)"/>
     <use xlink:href="#DejaVuSans-6e" transform="translate(561.275391 0)"/>
     <use xlink:href="#DejaVuSans-20" transform="translate(624.654297 0)"/>
     <use xlink:href="#DejaVuSans-73" transform="translate(656.441406 0)"/>
     <use xlink:href="#DejaVuSans-65" transform="translate(708.541016 0)"/>
     <use xlink:href="#DejaVuSans-65" transform="translate(770.064453 0)"/>
     <use xlink:href="#DejaVuSans-73" transform="translate(831.587891 0)"/>
     <use xlink:href="#DejaVuSans-20" transform="translate(883.6875 0)"/>
     <use xlink:href="#DejaVuSans-6f" transform="translate(915.474609 0)"/>
     <use xlink:href="#DejaVuSans-6e" transform="translate(976.65625 0)"/>
     <use xlink:href="#DejaVuSans-6c" transform="translate(1040.035156 0)"/>
     <use xlink:href="#DejaVuSans-79" transform="translate(1067.818359 0)"/>
     <use xlink:href="#DejaVuSans-20" transform="translate(1126.998047 0)"/>
     <use xlink:href="#DejaVuSans-61" transform="translate(1158.785156 0)"/>
     <use xlink:href="#DejaVuSans-20" transform="translate(1220.064453 0)"/>
     <use xlink:href="#DejaVuSans-77" transform="translate(1251.851562 0)"/>
     <use xlink:href="#DejaVuSans-69" transform="translate(1333.638672 0)"/>
     <use xlink:href="#DejaVuSans-6e" transform="translate(1361.421875 0)"/>
     <use xlink:href="#DejaVuSans-64" transform="translate(1424.800781 0)"/>
     <use xlink:href="#DejaVuSans-6f" transform="translate(1488.277344 0)"/>
     <use xlink:href="#DejaVuSans-77" transform="translate(1549.458984 0)"/>
    </g>
   </g>
  </g>
 </g>
 <defs>
  <clipPath id="p4198b73508">
   <rect x="24.511734" y="33.875875" width="128.94825" height="271.47"/>
  </clipPath>
  <clipPath id="p3d17ba729e">
   <rect x="334.626534" y="33.875875" width="128.94825" height="271.47"/>
  </clipPath>
 </defs>
</svg>
