<?xml version="1.0" encoding="utf-8" standalone="no"?>
<!DOCTYPE svg PUBLIC "-//W3C//DTD SVG 1.1//EN"
  "http://www.w3.org/Graphics/SVG/1.1/DTD/svg11.dtd">
<svg xmlns:xlink="http://www.w3.org/1999/xlink" width="788.586pt" height="298.344281pt" viewBox="0 0 788.586 298.344281" xmlns="http://www.w3.org/2000/svg" version="1.1">
 <metadata>
  <rdf:RDF xmlns:dc="http://purl.org/dc/elements/1.1/" xmlns:cc="http://creativecommons.org/ns#" xmlns:rdf="http://www.w3.org/1999/02/22-rdf-syntax-ns#">
   <cc:Work>
    <dc:type rdf:resource="http://purl.org/dc/dcmitype/StillImage"/>
    <dc:date>2026-07-21T10:47:18.694427</dc:date>
    <dc:format>image/svg+xml</dc:format>
    <dc:creator>
     <cc:Agent>
      <dc:title>Matplotlib v3.10.8, https://matplotlib.org/</dc:title>
     </cc:Agent>
    </dc:creator>
   </cc:Work>
  </rdf:RDF>
 </metadata>
 <defs>
  <style type="text/css">*{stroke-linejoin: round; stroke-linecap: butt}</style>
 </defs>
 <g id="figure_1">
  <g id="patch_1">
   <path d="M 0 298.344281 
L 788.586 298.344281 
L 788.586 0 
L 0 0 
z
" style="fill: #ffffff"/>
  </g>
  <g id="axes_1">
   <g id="patch_2">
    <path d="M 20.491 277.853281 
L 389.706 277.853281 
L 389.706 21.558281 
L 20.491 21.558281 
z
" style="fill: #ffffff"/>
   </g>
   <g id="matplotlib.axis_1">
    <g id="text_1">
     <!-- $w_1$ -->
     <g transform="translate(198.8585 289.147781) scale(0.096 -0.096)">
      <defs>
       <path id="DejaVuSans-Oblique-77" d="M 544 3500 
L 1113 3500 
L 1259 684 
L 2566 3500 
L 3231 3500 
L 3425 684 
L 4666 3500 
L 5241 3500 
L 3641 0 
L 2969 0 
L 2797 2900 
L 1459 0 
L 781 0 
L 544 3500 
z
" transform="scale(0.015625)"/>
       <path id="DejaVuSans-31" d="M 794 531 
L 1825 531 
L 1825 4091 
L 703 3866 
L 703 4441 
L 1819 4666 
L 2450 4666 
L 2450 531 
L 3481 531 
L 3481 0 
L 794 0 
L 794 531 
z
" transform="scale(0.015625)"/>
      </defs>
      <use xlink:href="#DejaVuSans-Oblique-77" transform="translate(0 0.3125)"/>
      <use xlink:href="#DejaVuSans-31" transform="translate(81.787109 -16.09375) scale(0.7)"/>
     </g>
    </g>
   </g>
   <g id="matplotlib.axis_2">
    <g id="text_2">
     <!-- $w_2$ -->
     <g transform="translate(14.4945 155.945781) rotate(-90) scale(0.096 -0.096)">
      <defs>
       <path id="DejaVuSans-32" d="M 1228 531 
L 3431 531 
L 3431 0 
L 469 0 
L 469 531 
Q 828 903 1448 1529 
Q 2069 2156 2228 2338 
Q 2531 2678 2651 2914 
Q 2772 3150 2772 3378 
Q 2772 3750 2511 3984 
Q 2250 4219 1831 4219 
Q 1534 4219 1204 4116 
Q 875 4013 500 3803 
L 500 4441 
Q 881 4594 1212 4672 
Q 1544 4750 1819 4750 
Q 2544 4750 2975 4387 
Q 3406 4025 3406 3419 
Q 3406 3131 3298 2873 
Q 3191 2616 2906 2266 
Q 2828 2175 2409 1742 
Q 1991 1309 1228 531 
z
" transform="scale(0.015625)"/>
      </defs>
      <use xlink:href="#DejaVuSans-Oblique-77" transform="translate(0 0.3125)"/>
      <use xlink:href="#DejaVuSans-32" transform="translate(81.787109 -16.09375) scale(0.7)"/>
     </g>
    </g>
   </g>
   <g id="QuadContourSet_1">
    <path clip-path="url(#p702f480b72)" style="fill: none; stroke: #b9c0d4; stroke-width: 0.8"/>
    <path d="M 185.617307 194.241738 
L 178.195899 193.528599 
L 170.774492 192.575149 
L 163.353085 191.35886 
L 155.931678 189.854295 
L 150.365623 188.519619 
L 144.799568 186.986172 
L 138.909859 185.123432 
L 133.667457 183.21151 
L 128.935815 181.259688 
L 124.390698 179.125508 
L 120.679995 177.164978 
L 116.757857 174.820115 
L 113.024024 172.244286 
L 109.547884 169.428013 
L 107.08733 167.092628 
L 104.792552 164.516799 
L 102.904338 161.94097 
L 101.400909 159.365141 
L 100.262013 156.789311 
L 99.487268 154.213482 
L 99.056855 151.637653 
L 98.970772 149.061824 
L 99.22902 146.485995 
L 99.831599 143.910166 
L 100.78757 141.334337 
L 102.126477 138.718316 
L 103.981829 135.939411 
L 105.883796 133.606849 
L 108.39673 131.03102 
L 111.403236 128.418524 
L 115.11394 125.681541 
L 118.841685 123.303533 
L 123.511158 120.727703 
L 128.101402 118.526028 
L 131.981216 116.86396 
L 137.378161 114.824184 
L 142.944216 112.979554 
L 148.510271 111.378936 
L 154.076327 109.981423 
L 159.642382 108.767973 
L 167.063789 107.41195 
L 174.485196 106.326987 
L 181.906603 105.496234 
L 189.32801 104.905457 
L 196.749417 104.543691 
L 204.170824 104.40455 
L 211.592231 104.488035 
L 219.013638 104.794145 
L 226.435045 105.324355 
L 233.856452 106.097814 
L 241.277859 107.116803 
L 248.699266 108.402729 
L 254.265322 109.557268 
L 259.831377 110.891943 
L 265.397432 112.42539 
L 271.287141 114.28813 
L 276.529543 116.200053 
L 281.261185 118.151874 
L 285.806302 120.286055 
L 289.517005 122.246585 
L 293.439143 124.591447 
L 297.172976 127.167276 
L 300.649116 129.98355 
L 303.10967 132.318935 
L 305.404448 134.894764 
L 307.292662 137.470593 
L 308.796091 140.046422 
L 309.934987 142.622251 
L 310.709732 145.19808 
L 311.140145 147.773909 
L 311.226228 150.349739 
L 310.96798 152.925568 
L 310.365401 155.501397 
L 309.40943 158.077226 
L 308.070523 160.693247 
L 306.215171 163.472152 
L 304.313204 165.804713 
L 301.80027 168.380543 
L 298.793764 170.993038 
L 295.08306 173.730022 
L 291.355315 176.10803 
L 286.685842 178.683859 
L 282.095598 180.885535 
L 278.215784 182.547603 
L 272.818839 184.587379 
L 267.252784 186.432008 
L 261.686729 188.032626 
L 256.120673 189.43014 
L 250.554618 190.643589 
L 243.133211 191.999612 
L 235.711804 193.084576 
L 228.290397 193.915328 
L 220.86899 194.506105 
L 213.447583 194.867871 
L 206.026176 195.007012 
L 198.604769 194.923528 
L 191.183362 194.617418 
L 185.617307 194.241738 
L 185.617307 194.241738 
" clip-path="url(#p702f480b72)" style="fill: none; stroke: #b9c0d4; stroke-width: 0.8"/>
    <path d="M 191.183362 213.503183 
L 181.906603 213.007183 
L 172.629844 212.261786 
L 165.208437 211.472343 
L 157.78703 210.510924 
L 150.365623 209.366313 
L 142.944216 208.026298 
L 135.522809 206.477556 
L 128.101402 204.705525 
L 122.315609 203.154236 
L 115.11394 200.986804 
L 109.547884 199.119852 
L 103.103673 196.714663 
L 96.950666 194.138834 
L 91.450884 191.563005 
L 86.512467 188.987176 
L 81.717608 186.196293 
L 78.006905 183.79974 
L 74.296201 181.137248 
L 70.585497 178.13629 
L 68.329429 176.10803 
L 65.758542 173.532201 
L 63.16409 170.5511 
L 61.308739 168.090726 
L 59.453387 165.198949 
L 58.375409 163.228884 
L 57.200347 160.653055 
L 56.280338 158.077226 
L 55.607356 155.501397 
L 55.183319 152.925568 
L 55.001589 150.349739 
L 55.062165 147.773909 
L 55.365049 145.19808 
L 55.912334 142.622251 
L 56.709675 140.046422 
L 57.754306 137.470593 
L 59.058622 134.894764 
L 60.626227 132.318935 
L 62.465347 129.743105 
L 65.019442 126.68769 
L 67.00329 124.591447 
L 69.735461 122.015618 
L 72.795274 119.439789 
L 76.209359 116.86396 
L 80.009441 114.28813 
L 84.23115 111.712301 
L 89.139015 109.020525 
L 94.70507 106.29254 
L 100.271126 103.84631 
L 106.460972 101.408985 
L 113.258588 99.026149 
L 118.824643 97.274909 
L 126.24605 95.186759 
L 132.26233 93.681497 
L 139.233513 92.131986 
L 146.65492 90.691044 
L 154.076327 89.449801 
L 163.353085 88.162425 
L 172.629844 87.149777 
L 181.906603 86.40438 
L 191.183362 85.908379 
L 200.460121 85.664883 
L 209.736879 85.664883 
L 219.013638 85.908379 
L 228.290397 86.40438 
L 237.567156 87.149777 
L 244.988563 87.93922 
L 252.40997 88.900639 
L 259.831377 90.045249 
L 267.252784 91.385264 
L 274.674191 92.934006 
L 282.095598 94.706038 
L 287.881391 96.257326 
L 295.08306 98.424758 
L 300.649116 100.291711 
L 307.093327 102.696899 
L 313.246334 105.272728 
L 318.746116 107.848558 
L 323.684533 110.424387 
L 328.479392 113.21527 
L 332.190095 115.611823 
L 335.900799 118.274314 
L 339.611503 121.275273 
L 341.867571 123.303533 
L 344.438458 125.879362 
L 347.03291 128.860463 
L 348.888261 131.320837 
L 350.743613 134.212613 
L 351.821591 136.182678 
L 352.996653 138.758507 
L 353.916662 141.334337 
L 354.589644 143.910166 
L 355.013681 146.485995 
L 355.195411 149.061824 
L 355.134835 151.637653 
L 354.831951 154.213482 
L 354.284666 156.789311 
L 353.487325 159.365141 
L 352.442694 161.94097 
L 351.138378 164.516799 
L 349.570773 167.092628 
L 347.731653 169.668457 
L 345.177558 172.723872 
L 343.19371 174.820115 
L 340.461539 177.395945 
L 337.401726 179.971774 
L 333.987641 182.547603 
L 330.187559 185.123432 
L 325.96585 187.699261 
L 321.057985 190.391037 
L 315.49193 193.119023 
L 309.925874 195.565253 
L 303.736028 198.002578 
L 296.938412 200.385413 
L 291.372357 202.136653 
L 283.95095 204.224803 
L 277.93467 205.730065 
L 270.963487 207.279576 
L 263.54208 208.720518 
L 256.120673 209.961762 
L 246.843915 211.249138 
L 237.567156 212.261786 
L 228.290397 213.007183 
L 219.013638 213.503183 
L 209.736879 213.746679 
L 200.460121 213.746679 
L 191.183362 213.503183 
L 191.183362 213.503183 
" clip-path="url(#p702f480b72)" style="fill: none; stroke: #b9c0d4; stroke-width: 0.8"/>
    <path d="M 183.761955 227.649281 
L 183.284221 227.624613 
L 181.906603 227.552293 
L 180.051251 227.446778 
L 178.195899 227.333147 
L 176.340548 227.211399 
L 174.485196 227.081534 
L 172.629844 226.943553 
L 170.774492 226.797455 
L 168.919141 226.64324 
L 167.063789 226.48091 
L 165.494023 226.336698 
L 165.208437 226.310017 
L 163.353085 226.128427 
L 161.497734 225.938582 
L 159.642382 225.740484 
L 157.78703 225.534131 
L 155.931678 225.319524 
L 154.076327 225.096663 
L 153.691963 225.048784 
L 152.220975 224.862388 
L 150.365623 224.618892 
L 148.510271 224.366999 
L 146.65492 224.10671 
L 144.799568 223.838024 
L 144.282934 223.760869 
L 142.944216 223.557435 
L 141.088864 223.266948 
L 139.233513 222.967917 
L 137.378161 222.660343 
L 136.278346 222.472955 
L 135.522809 222.341926 
L 133.667457 222.011467 
L 131.812106 221.672311 
L 129.956754 221.324459 
L 129.231265 221.18504 
L 128.101402 220.963963 
L 126.24605 220.592078 
L 124.390698 220.211338 
L 122.894333 219.897125 
L 122.535347 219.820348 
L 120.679995 219.414521 
L 118.824643 218.999675 
L 117.11549 218.609211 
L 116.969291 218.575181 
L 115.11394 218.134131 
L 113.258588 217.683892 
L 111.794278 217.321296 
L 111.403236 217.222603 
L 109.547884 216.744976 
L 107.692533 216.257983 
L 106.852988 216.033382 
L 105.837181 215.756297 
L 103.981829 215.240657 
L 102.232453 214.745467 
L 102.126477 214.714869 
L 100.271126 214.169437 
L 98.415774 213.614266 
L 97.901078 213.457553 
L 96.560422 213.041024 
L 94.70507 212.454645 
L 93.818316 212.169638 
L 92.849719 211.851841 
L 90.994367 211.232955 
L 89.958398 210.881723 
L 89.139015 210.598012 
L 87.283663 209.945234 
L 86.300434 209.593809 
L 85.428312 209.275319 
L 83.57296 208.587177 
L 82.826062 208.305894 
L 81.717608 207.879172 
L 79.862256 207.154094 
L 79.519085 207.01798 
L 78.006905 206.404562 
L 76.368249 205.730065 
L 76.151553 205.638795 
L 74.296201 204.846016 
L 73.364341 204.442151 
L 72.440849 204.032382 
L 70.585497 203.197538 
L 70.490582 203.154236 
L 68.730146 202.331509 
L 67.748207 201.866321 
L 66.874794 201.442203 
L 65.119647 200.578407 
L 65.019442 200.527827 
L 63.16409 199.578815 
L 62.607729 199.290492 
L 61.308739 198.599602 
L 60.200624 198.002578 
L 59.453387 197.589104 
L 57.893083 196.714663 
L 57.598035 196.544716 
L 55.742683 195.46251 
L 55.68213 195.426749 
L 53.887332 194.336492 
L 53.565913 194.138834 
L 52.03198 193.167793 
L 51.537452 192.850919 
L 50.176628 191.952535 
L 49.593613 191.563005 
L 48.321276 190.686352 
L 47.731411 190.27509 
L 46.465925 189.364316 
L 45.947996 188.987176 
L 44.610573 187.980842 
L 44.240653 187.699261 
L 42.755221 186.529573 
L 42.606787 186.411347 
L 41.045559 185.123432 
L 40.899869 184.998796 
L 39.555368 183.835517 
L 39.044518 183.376524 
L 38.132196 182.547603 
L 37.189166 181.656507 
L 36.773835 181.259688 
L 35.479756 179.971774 
L 35.333814 179.820212 
L 34.251491 178.683859 
L 33.478462 177.835349 
L 33.08245 177.395945 
L 31.974482 176.10803 
L 31.623111 175.67917 
L 30.926762 174.820115 
L 29.934979 173.532201 
L 29.767759 173.302987 
L 29.003526 172.244286 
L 28.125482 170.956372 
L 27.912407 170.6243 
L 27.305477 169.668457 
L 26.538802 168.380543 
L 26.057055 167.513464 
L 25.82565 167.092628 
L 25.168049 165.804713 
L 24.561033 164.516799 
L 24.201704 163.685097 
L 24.006612 163.228884 
L 23.505927 161.94097 
L 23.05531 160.653055 
L 22.654762 159.365141 
L 22.346352 158.231819 
L 22.304707 158.077226 
L 22.007331 156.789311 
L 21.759517 155.501397 
L 21.561266 154.213482 
L 21.412577 152.925568 
L 21.313452 151.637653 
L 21.263889 150.349739 
L 21.263889 149.061824 
L 21.313452 147.773909 
L 21.412577 146.485995 
L 21.561266 145.19808 
L 21.759517 143.910166 
L 22.007331 142.622251 
L 22.304707 141.334337 
L 22.346352 141.179744 
L 22.654762 140.046422 
L 23.05531 138.758507 
L 23.505927 137.470593 
L 24.006612 136.182678 
L 24.201704 135.726466 
L 24.561033 134.894764 
L 25.168049 133.606849 
L 25.82565 132.318935 
L 26.057055 131.898098 
L 26.538802 131.03102 
L 27.305477 129.743105 
L 27.912407 128.787263 
L 28.125482 128.455191 
L 29.003526 127.167276 
L 29.767759 126.108576 
L 29.934979 125.879362 
L 30.926762 124.591447 
L 31.623111 123.732393 
L 31.974482 123.303533 
L 33.08245 122.015618 
L 33.478462 121.576213 
L 34.251491 120.727703 
L 35.333814 119.591351 
L 35.479756 119.439789 
L 36.773835 118.151874 
L 37.189166 117.755056 
L 38.132196 116.86396 
L 39.044518 116.035039 
L 39.555368 115.576045 
L 40.899869 114.412767 
L 41.045559 114.28813 
L 42.606787 113.000216 
L 42.755221 112.881989 
L 44.240653 111.712301 
L 44.610573 111.430721 
L 45.947996 110.424387 
L 46.465925 110.047247 
L 47.731411 109.136472 
L 48.321276 108.725211 
L 49.593613 107.848558 
L 50.176628 107.459028 
L 51.537452 106.560643 
L 52.03198 106.243769 
L 53.565913 105.272728 
L 53.887332 105.075071 
L 55.68213 103.984814 
L 55.742683 103.949052 
L 57.598035 102.866846 
L 57.893083 102.696899 
L 59.453387 101.822458 
L 60.200624 101.408985 
L 61.308739 100.811961 
L 62.607729 100.12107 
L 63.16409 99.832747 
L 65.019442 98.883736 
L 65.119647 98.833156 
L 66.874794 97.96936 
L 67.748207 97.545241 
L 68.730146 97.080053 
L 70.490582 96.257326 
L 70.585497 96.214025 
L 72.440849 95.37918 
L 73.364341 94.969412 
L 74.296201 94.565546 
L 76.151553 93.772768 
L 76.368249 93.681497 
L 78.006905 93.007 
L 79.519085 92.393583 
L 79.862256 92.257469 
L 81.717608 91.532391 
L 82.826062 91.105668 
L 83.57296 90.824385 
L 85.428312 90.136243 
L 86.300434 89.817754 
L 87.283663 89.466328 
L 89.139015 88.813551 
L 89.958398 88.529839 
L 90.994367 88.178608 
L 92.849719 87.559721 
L 93.818316 87.241924 
L 94.70507 86.956918 
L 96.560422 86.370539 
L 97.901078 85.95401 
L 98.415774 85.797297 
L 100.271126 85.242125 
L 102.126477 84.696693 
L 102.232453 84.666095 
L 103.981829 84.170905 
L 105.837181 83.655266 
L 106.852988 83.378181 
L 107.692533 83.153579 
L 109.547884 82.666587 
L 111.403236 82.188959 
L 111.794278 82.090266 
L 113.258588 81.72767 
L 115.11394 81.277431 
L 116.969291 80.836381 
L 117.11549 80.802352 
L 118.824643 80.411887 
L 120.679995 79.997042 
L 122.535347 79.591214 
L 122.894333 79.514437 
L 124.390698 79.200224 
L 126.24605 78.819485 
L 128.101402 78.447599 
L 129.231265 78.226522 
L 129.956754 78.087103 
L 131.812106 77.739251 
L 133.667457 77.400096 
L 135.522809 77.069636 
L 136.278346 76.938608 
L 137.378161 76.751219 
L 139.233513 76.443645 
L 141.088864 76.144615 
L 142.944216 75.854128 
L 144.282934 75.650693 
L 144.799568 75.573538 
L 146.65492 75.304853 
L 148.510271 75.044563 
L 150.365623 74.792671 
L 152.220975 74.549174 
L 153.691963 74.362779 
L 154.076327 74.3149 
L 155.931678 74.092039 
L 157.78703 73.877432 
L 159.642382 73.671079 
L 161.497734 73.47298 
L 163.353085 73.283136 
L 165.208437 73.101545 
L 165.494023 73.074864 
L 167.063789 72.930653 
L 168.919141 72.768322 
L 170.774492 72.614108 
L 172.629844 72.46801 
L 174.485196 72.330029 
L 176.340548 72.200164 
L 178.195899 72.078416 
L 180.051251 71.964784 
L 181.906603 71.859269 
L 183.284221 71.78695 
L 183.761955 71.762282 
L 185.617307 71.674463 
L 187.472658 71.594628 
L 189.32801 71.522777 
L 191.183362 71.458909 
L 193.038714 71.403025 
L 194.894065 71.355124 
L 196.749417 71.315206 
L 198.604769 71.283272 
L 200.460121 71.259322 
L 202.315472 71.243355 
L 204.170824 71.235371 
L 206.026176 71.235371 
L 207.881528 71.243355 
L 209.736879 71.259322 
L 211.592231 71.283272 
L 213.447583 71.315206 
L 215.302935 71.355124 
L 217.158286 71.403025 
L 219.013638 71.458909 
L 220.86899 71.522777 
L 222.724342 71.594628 
L 224.579693 71.674463 
L 226.435045 71.762282 
L 226.912779 71.78695 
L 228.290397 71.859269 
L 230.145749 71.964784 
L 232.001101 72.078416 
L 233.856452 72.200164 
L 235.711804 72.330029 
L 237.567156 72.46801 
L 239.422508 72.614108 
L 241.277859 72.768322 
L 243.133211 72.930653 
L 244.702977 73.074864 
L 244.988563 73.101545 
L 246.843915 73.283136 
L 248.699266 73.47298 
L 250.554618 73.671079 
L 252.40997 73.877432 
L 254.265322 74.092039 
L 256.120673 74.3149 
L 256.505037 74.362779 
L 257.976025 74.549174 
L 259.831377 74.792671 
L 261.686729 75.044563 
L 263.54208 75.304853 
L 265.397432 75.573538 
L 265.914066 75.650693 
L 267.252784 75.854128 
L 269.108136 76.144615 
L 270.963487 76.443645 
L 272.818839 76.751219 
L 273.918654 76.938608 
L 274.674191 77.069636 
L 276.529543 77.400096 
L 278.384894 77.739251 
L 280.240246 78.087103 
L 280.965735 78.226522 
L 282.095598 78.447599 
L 283.95095 78.819485 
L 285.806302 79.200224 
L 287.302667 79.514437 
L 287.661653 79.591214 
L 289.517005 79.997042 
L 291.372357 80.411887 
L 293.08151 80.802352 
L 293.227709 80.836381 
L 295.08306 81.277431 
L 296.938412 81.72767 
L 298.402722 82.090266 
L 298.793764 82.188959 
L 300.649116 82.666587 
L 302.504467 83.153579 
L 303.344012 83.378181 
L 304.359819 83.655266 
L 306.215171 84.170905 
L 307.964547 84.666095 
L 308.070523 84.696693 
L 309.925874 85.242125 
L 311.781226 85.797297 
L 312.295922 85.95401 
L 313.636578 86.370539 
L 315.49193 86.956918 
L 316.378684 87.241924 
L 317.347281 87.559721 
L 319.202633 88.178608 
L 320.238602 88.529839 
L 321.057985 88.813551 
L 322.913337 89.466328 
L 323.896566 89.817754 
L 324.768688 90.136243 
L 326.62404 90.824385 
L 327.370938 91.105668 
L 328.479392 91.532391 
L 330.334744 92.257469 
L 330.677915 92.393583 
L 332.190095 93.007 
L 333.828751 93.681497 
L 334.045447 93.772768 
L 335.900799 94.565546 
L 336.832659 94.969412 
L 337.756151 95.37918 
L 339.611503 96.214025 
L 339.706418 96.257326 
L 341.466854 97.080053 
L 342.448793 97.545241 
L 343.322206 97.96936 
L 345.077353 98.833156 
L 345.177558 98.883736 
L 347.03291 99.832747 
L 347.589271 100.12107 
L 348.888261 100.811961 
L 349.996376 101.408985 
L 350.743613 101.822458 
L 352.303917 102.696899 
L 352.598965 102.866846 
L 354.454317 103.949052 
L 354.51487 103.984814 
L 356.309668 105.075071 
L 356.631087 105.272728 
L 358.16502 106.243769 
L 358.659548 106.560643 
L 360.020372 107.459028 
L 360.603387 107.848558 
L 361.875724 108.725211 
L 362.465589 109.136472 
L 363.731075 110.047247 
L 364.249004 110.424387 
L 365.586427 111.430721 
L 365.956347 111.712301 
L 367.441779 112.881989 
L 367.590213 113.000216 
L 369.151441 114.28813 
L 369.297131 114.412767 
L 370.641632 115.576045 
L 371.152482 116.035039 
L 372.064804 116.86396 
L 373.007834 117.755056 
L 373.423165 118.151874 
L 374.717244 119.439789 
L 374.863186 119.591351 
L 375.945509 120.727703 
L 376.718538 121.576213 
L 377.11455 122.015618 
L 378.222518 123.303533 
L 378.573889 123.732393 
L 379.270238 124.591447 
L 380.262021 125.879362 
L 380.429241 126.108576 
L 381.193474 127.167276 
L 382.071518 128.455191 
L 382.284593 128.787263 
L 382.891523 129.743105 
L 383.658198 131.03102 
L 384.139945 131.898098 
L 384.37135 132.318935 
L 385.028951 133.606849 
L 385.635967 134.894764 
L 385.995296 135.726466 
L 386.190388 136.182678 
L 386.691073 137.470593 
L 387.14169 138.758507 
L 387.542238 140.046422 
L 387.850648 141.179744 
L 387.892293 141.334337 
L 388.189669 142.622251 
L 388.437483 143.910166 
L 388.635734 145.19808 
L 388.784423 146.485995 
L 388.883548 147.773909 
L 388.933111 149.061824 
L 388.933111 150.349739 
L 388.883548 151.637653 
L 388.784423 152.925568 
L 388.635734 154.213482 
L 388.437483 155.501397 
L 388.189669 156.789311 
L 387.892293 158.077226 
L 387.850648 158.231819 
L 387.542238 159.365141 
L 387.14169 160.653055 
L 386.691073 161.94097 
L 386.190388 163.228884 
L 385.995296 163.685097 
L 385.635967 164.516799 
L 385.028951 165.804713 
L 384.37135 167.092628 
L 384.139945 167.513464 
L 383.658198 168.380543 
L 382.891523 169.668457 
L 382.284593 170.6243 
L 382.071518 170.956372 
L 381.193474 172.244286 
L 380.429241 173.302987 
L 380.262021 173.532201 
L 379.270238 174.820115 
L 378.573889 175.67917 
L 378.222518 176.10803 
L 377.11455 177.395945 
L 376.718538 177.835349 
L 375.945509 178.683859 
L 374.863186 179.820212 
L 374.717244 179.971774 
L 373.423165 181.259688 
L 373.007834 181.656507 
L 372.064804 182.547603 
L 371.152482 183.376524 
L 370.641632 183.835517 
L 369.297131 184.998796 
L 369.151441 185.123432 
L 367.590213 186.411347 
L 367.441779 186.529573 
L 365.956347 187.699261 
L 365.586427 187.980842 
L 364.249004 188.987176 
L 363.731075 189.364316 
L 362.465589 190.27509 
L 361.875724 190.686352 
L 360.603387 191.563005 
L 360.020372 191.952535 
L 358.659548 192.850919 
L 358.16502 193.167793 
L 356.631087 194.138834 
L 356.309668 194.336492 
L 354.51487 195.426749 
L 354.454317 195.46251 
L 352.598965 196.544716 
L 352.303917 196.714663 
L 350.743613 197.589104 
L 349.996376 198.002578 
L 348.888261 198.599602 
L 347.589271 199.290492 
L 347.03291 199.578815 
L 345.177558 200.527827 
L 345.077353 200.578407 
L 343.322206 201.442203 
L 342.448793 201.866321 
L 341.466854 202.331509 
L 339.706418 203.154236 
L 339.611503 203.197538 
L 337.756151 204.032382 
L 336.832659 204.442151 
L 335.900799 204.846016 
L 334.045447 205.638795 
L 333.828751 205.730065 
L 332.190095 206.404562 
L 330.677915 207.01798 
L 330.334744 207.154094 
L 328.479392 207.879172 
L 327.370938 208.305894 
L 326.62404 208.587177 
L 324.768688 209.275319 
L 323.896566 209.593809 
L 322.913337 209.945234 
L 321.057985 210.598012 
L 320.238602 210.881723 
L 319.202633 211.232955 
L 317.347281 211.851841 
L 316.378684 212.169638 
L 315.49193 212.454645 
L 313.636578 213.041024 
L 312.295922 213.457553 
L 311.781226 213.614266 
L 309.925874 214.169437 
L 308.070523 214.714869 
L 307.964547 214.745467 
L 306.215171 215.240657 
L 304.359819 215.756297 
L 303.344012 216.033382 
L 302.504467 216.257983 
L 300.649116 216.744976 
L 298.793764 217.222603 
L 298.402722 217.321296 
L 296.938412 217.683892 
L 295.08306 218.134131 
L 293.227709 218.575181 
L 293.08151 218.609211 
L 291.372357 218.999675 
L 289.517005 219.414521 
L 287.661653 219.820348 
L 287.302667 219.897125 
L 285.806302 220.211338 
L 283.95095 220.592078 
L 282.095598 220.963963 
L 280.965735 221.18504 
L 280.240246 221.324459 
L 278.384894 221.672311 
L 276.529543 222.011467 
L 274.674191 222.341926 
L 273.918654 222.472955 
L 272.818839 222.660343 
L 270.963487 222.967917 
L 269.108136 223.266948 
L 267.252784 223.557435 
L 265.914066 223.760869 
L 265.397432 223.838024 
L 263.54208 224.10671 
L 261.686729 224.366999 
L 259.831377 224.618892 
L 257.976025 224.862388 
L 256.505037 225.048784 
L 256.120673 225.096663 
L 254.265322 225.319524 
L 252.40997 225.534131 
L 250.554618 225.740484 
L 248.699266 225.938582 
L 246.843915 226.128427 
L 244.988563 226.310017 
L 244.702977 226.336698 
L 243.133211 226.48091 
L 241.277859 226.64324 
L 239.422508 226.797455 
L 237.567156 226.943553 
L 235.711804 227.081534 
L 233.856452 227.211399 
L 232.001101 227.333147 
L 230.145749 227.446778 
L 228.290397 227.552293 
L 226.912779 227.624613 
L 226.435045 227.649281 
L 224.579693 227.737099 
L 222.724342 227.816934 
L 220.86899 227.888785 
L 219.013638 227.952653 
L 217.158286 228.008538 
L 215.302935 228.056439 
L 213.447583 228.096356 
L 211.592231 228.12829 
L 209.736879 228.152241 
L 207.881528 228.168208 
L 206.026176 228.176191 
L 204.170824 228.176191 
L 202.315472 228.168208 
L 200.460121 228.152241 
L 198.604769 228.12829 
L 196.749417 228.096356 
L 194.894065 228.056439 
L 193.038714 228.008538 
L 191.183362 227.952653 
L 189.32801 227.888785 
L 187.472658 227.816934 
L 185.617307 227.737099 
L 183.761955 227.649281 
z
" clip-path="url(#p702f480b72)" style="fill: none; stroke: #b9c0d4; stroke-width: 0.8"/>
    <path d="M 389.706 194.439525 
L 385.995296 197.120604 
L 382.284593 199.608846 
L 376.718538 203.037114 
L 371.942987 205.730065 
L 367.01471 208.305894 
L 361.699548 210.881723 
L 354.454317 214.095463 
L 348.888261 216.364793 
L 341.466854 219.147621 
L 334.045447 221.684529 
L 326.62404 224.000957 
L 317.347281 226.614061 
L 308.070523 228.945301 
L 298.793764 231.013686 
L 289.517005 232.846232 
L 280.240246 234.451101 
L 270.963487 235.845573 
L 261.686729 237.03893 
L 250.554618 238.216361 
L 239.422508 239.126826 
L 230.145749 239.684661 
L 219.013638 240.122954 
L 207.881528 240.310794 
L 196.749417 240.248181 
L 185.617307 239.935114 
L 174.485196 239.371594 
L 165.208437 238.703354 
L 154.076327 237.661994 
L 142.944216 236.347103 
L 133.667457 235.034017 
L 124.390698 233.513037 
L 115.11394 231.774419 
L 105.837181 229.801466 
L 96.560422 227.57993 
L 87.161744 225.048784 
L 78.006905 222.284574 
L 70.585497 219.805963 
L 63.16409 217.085917 
L 55.742683 214.095463 
L 50.176628 211.653036 
L 44.610573 209.014936 
L 39.044518 206.15448 
L 33.677318 203.154236 
L 29.428828 200.578407 
L 24.201704 197.120604 
L 20.491 194.439525 
M 20.491 104.972038 
L 24.201704 102.290959 
L 27.912407 99.802716 
L 33.478462 96.374449 
L 38.254013 93.681497 
L 43.18229 91.105668 
L 48.497452 88.529839 
L 55.742683 85.3161 
L 61.308739 83.046769 
L 68.730146 80.263941 
L 76.151553 77.727033 
L 83.57296 75.410606 
L 92.849719 72.797501 
L 102.126477 70.466261 
L 111.403236 68.397877 
L 120.679995 66.565331 
L 129.956754 64.960461 
L 139.233513 63.565989 
L 148.510271 62.372633 
L 159.642382 61.195201 
L 170.774492 60.284736 
L 180.051251 59.726902 
L 191.183362 59.288608 
L 202.315472 59.100768 
L 213.447583 59.163382 
L 224.579693 59.476448 
L 235.711804 60.039968 
L 244.988563 60.708208 
L 256.120673 61.749569 
L 267.252784 63.06446 
L 276.529543 64.377546 
L 285.806302 65.898525 
L 295.08306 67.637143 
L 304.359819 69.610096 
L 313.636578 71.831633 
L 323.035256 74.362779 
L 332.190095 77.126989 
L 339.611503 79.605599 
L 347.03291 82.325645 
L 354.454317 85.3161 
L 360.020372 87.758526 
L 365.586427 90.396626 
L 371.152482 93.257082 
L 376.519682 96.257326 
L 380.768172 98.833156 
L 385.995296 102.290959 
L 389.706 104.972038 
L 389.706 104.972038 
" clip-path="url(#p702f480b72)" style="fill: none; stroke: #b9c0d4; stroke-width: 0.8"/>
    <path d="M 389.706 213.377048 
L 384.139945 216.209377 
L 376.718538 219.683358 
L 370.229867 222.472955 
L 363.731075 225.062077 
L 356.309668 227.791466 
L 348.888261 230.305652 
L 339.611503 233.17143 
L 330.334744 235.761294 
L 321.057985 238.099236 
L 311.781226 240.202299 
L 302.504467 242.088602 
L 293.227709 243.76996 
L 283.95095 245.258756 
L 274.674191 246.562692 
L 263.54208 247.894115 
L 252.40997 248.979997 
L 241.277859 249.829781 
L 230.145749 250.447887 
L 219.013638 250.840795 
L 207.881528 251.007236 
L 196.749417 250.951755 
L 185.617307 250.672653 
L 174.485196 250.16693 
L 163.353085 249.435366 
L 152.220975 248.467706 
L 141.088864 247.259743 
L 129.956754 245.802984 
L 120.541702 244.367502 
L 109.547884 242.440319 
L 99.826219 240.503759 
L 90.994367 238.536823 
L 81.717608 236.248287 
L 72.440849 233.710868 
L 63.16409 230.900865 
L 55.742683 228.438129 
L 48.321276 225.763677 
L 40.899869 222.855225 
L 33.956488 219.897125 
L 27.912407 217.10844 
L 22.346352 214.342903 
L 20.491 213.377048 
M 20.491 86.034515 
L 26.057055 83.202186 
L 33.478462 79.728204 
L 39.967133 76.938608 
L 46.465925 74.349485 
L 53.887332 71.620096 
L 61.308739 69.10591 
L 70.585497 66.240132 
L 79.862256 63.650268 
L 89.139015 61.312327 
L 98.415774 59.209264 
L 107.692533 57.32296 
L 116.969291 55.641602 
L 126.24605 54.152806 
L 135.522809 52.84887 
L 146.65492 51.517447 
L 157.78703 50.431566 
L 168.919141 49.581781 
L 180.051251 48.963675 
L 191.183362 48.570767 
L 202.315472 48.404327 
L 213.447583 48.459807 
L 224.579693 48.738909 
L 235.711804 49.244633 
L 246.843915 49.976196 
L 257.976025 50.943857 
L 269.108136 52.151819 
L 280.240246 53.608579 
L 289.655298 55.04406 
L 300.649116 56.971243 
L 310.370781 58.907804 
L 319.202633 60.874739 
L 328.479392 63.163276 
L 337.756151 65.700694 
L 347.03291 68.510697 
L 354.454317 70.973434 
L 361.875724 73.647886 
L 369.297131 76.556338 
L 376.240512 79.514437 
L 382.284593 82.303122 
L 387.850648 85.068659 
L 389.706 86.034515 
L 389.706 86.034515 
" clip-path="url(#p702f480b72)" style="fill: none; stroke: #b9c0d4; stroke-width: 0.8"/>
    <path d="M 389.706 227.850584 
L 382.284593 230.919456 
L 374.863186 233.758856 
L 366.706278 236.640015 
L 358.16502 239.412014 
L 348.888261 242.165743 
L 339.611503 244.675714 
L 330.334744 246.961171 
L 319.202633 249.425279 
L 309.925874 251.262475 
L 298.793764 253.22694 
L 289.517005 254.671794 
L 278.384894 256.183482 
L 267.252784 257.465798 
L 256.028034 258.534563 
L 244.988563 259.36905 
L 233.856452 260.002882 
L 222.724342 260.427585 
L 211.592231 260.648431 
L 200.460121 260.665419 
L 189.32801 260.47855 
L 178.195899 260.087823 
L 167.063789 259.489365 
L 155.931678 258.681531 
L 144.799568 257.657117 
L 133.667457 256.41231 
L 122.535347 254.939047 
L 111.403236 253.22694 
L 100.271126 251.262475 
L 90.994367 249.425279 
L 79.786294 246.943332 
L 69.395183 244.367502 
L 59.993229 241.791673 
L 51.401667 239.215844 
L 42.755221 236.389333 
L 35.333814 233.758856 
L 27.912407 230.919456 
L 20.491 227.850584 
M 20.491 71.560979 
L 27.912407 68.492107 
L 35.333814 65.652707 
L 43.490722 62.771548 
L 52.03198 59.999549 
L 61.308739 57.24582 
L 70.585497 54.735849 
L 79.862256 52.450391 
L 90.994367 49.986284 
L 100.271126 48.149087 
L 111.403236 46.184623 
L 120.679995 44.739768 
L 131.812106 43.22808 
L 142.944216 41.945764 
L 154.168966 40.877 
L 165.208437 40.042513 
L 176.340548 39.40868 
L 187.472658 38.983977 
L 198.604769 38.763132 
L 209.736879 38.746144 
L 220.86899 38.933013 
L 232.001101 39.32374 
L 243.133211 39.922197 
L 254.265322 40.730032 
L 265.397432 41.754446 
L 276.529543 42.999252 
L 287.661653 44.472516 
L 298.793764 46.184623 
L 309.925874 48.149087 
L 319.202633 49.986284 
L 330.410706 52.468231 
L 340.801817 55.04406 
L 350.203771 57.619889 
L 358.795333 60.195718 
L 367.441779 63.02223 
L 374.863186 65.652707 
L 382.284593 68.492107 
L 389.706 71.560979 
L 389.706 71.560979 
" clip-path="url(#p702f480b72)" style="fill: none; stroke: #b9c0d4; stroke-width: 0.8"/>
    <path d="M 389.706 240.034008 
L 381.196702 243.079588 
L 373.007834 245.788763 
L 363.731075 248.618293 
L 354.454317 251.215656 
L 345.177558 253.598047 
L 334.045447 256.191726 
L 322.82666 258.534563 
L 311.781226 260.588434 
L 300.649116 262.424553 
L 289.517005 264.031031 
L 278.384894 265.421322 
L 267.252784 266.602555 
L 256.120673 267.581545 
L 243.133211 268.470836 
L 232.001101 269.024613 
L 219.013638 269.427822 
L 206.026176 269.574443 
L 193.038714 269.464477 
L 180.051251 269.097924 
L 168.919141 268.576704 
L 155.931678 267.724466 
L 144.799568 266.779156 
L 133.667457 265.632353 
L 122.535347 264.277263 
L 111.403236 262.706787 
L 100.271126 260.911208 
L 89.139015 258.878648 
L 79.862256 256.995557 
L 68.730146 254.493874 
L 59.069298 252.09499 
L 49.589963 249.519161 
L 40.875082 246.943332 
L 31.623111 243.968826 
L 22.346352 240.71967 
L 20.491 240.034008 
M 20.491 59.377555 
L 29.000298 56.331975 
L 37.189166 53.622799 
L 46.465925 50.793269 
L 55.742683 48.195907 
L 65.019442 45.813515 
L 76.151553 43.219837 
L 87.37034 40.877 
L 98.415774 38.823128 
L 109.547884 36.98701 
L 120.679995 35.380532 
L 131.812106 33.99024 
L 142.944216 32.809008 
L 154.076327 31.830018 
L 167.063789 30.940727 
L 178.195899 30.38695 
L 191.183362 29.983741 
L 204.170824 29.837119 
L 217.158286 29.947085 
L 230.145749 30.313639 
L 241.277859 30.834859 
L 254.265322 31.687096 
L 265.397432 32.632406 
L 276.529543 33.77921 
L 287.661653 35.134299 
L 298.793764 36.704775 
L 309.925874 38.500354 
L 321.057985 40.532915 
L 330.334744 42.416006 
L 341.466854 44.917689 
L 351.127702 47.316573 
L 360.607037 49.892402 
L 369.321918 52.468231 
L 378.573889 55.442736 
L 387.850648 58.691893 
L 389.706 59.377555 
L 389.706 59.377555 
" clip-path="url(#p702f480b72)" style="fill: none; stroke: #b9c0d4; stroke-width: 0.8"/>
    <path d="M 389.706 250.761404 
L 381.546144 253.382904 
L 372.927738 255.958734 
L 361.875724 258.989825 
L 352.598965 261.318793 
L 341.466854 263.869092 
L 329.86487 266.26205 
L 319.202633 268.234776 
L 307.770788 270.125794 
L 296.938412 271.708568 
L 285.806302 273.134235 
L 274.674191 274.363044 
L 261.686729 275.555071 
L 248.699266 276.494272 
L 235.711804 277.183666 
L 222.724342 277.631306 
L 209.736879 277.837909 
L 196.749417 277.803475 
L 183.761955 277.528005 
L 170.774492 277.011497 
L 157.78703 276.250775 
L 144.799568 275.241639 
L 131.812106 273.976326 
L 118.824643 272.446746 
L 107.692533 270.919046 
L 96.560422 269.183828 
L 85.428312 267.230855 
L 73.929088 264.974136 
L 63.16409 262.626018 
L 53.887332 260.409521 
L 44.610573 258.003867 
L 35.333814 255.395216 
L 26.057055 252.568342 
L 20.491 250.761404 
M 20.491 48.650159 
L 28.650856 46.028658 
L 37.269262 43.452829 
L 48.321276 40.421737 
L 57.598035 38.092769 
L 68.730146 35.542471 
L 80.33213 33.149512 
L 90.994367 31.176786 
L 102.426212 29.285769 
L 113.258588 27.702995 
L 124.390698 26.277328 
L 135.522809 25.048518 
L 148.510271 23.856491 
L 161.497734 22.917291 
L 174.485196 22.227896 
L 187.472658 21.780256 
L 200.460121 21.573653 
L 213.447583 21.608087 
L 226.435045 21.883558 
L 239.422508 22.400065 
L 252.40997 23.160787 
L 265.397432 24.169923 
L 278.384894 25.435236 
L 291.372357 26.964816 
L 302.504467 28.492516 
L 313.636578 30.227735 
L 324.768688 32.180707 
L 336.267912 34.437427 
L 347.03291 36.785544 
L 356.309668 39.002042 
L 365.586427 41.407696 
L 374.863186 44.016347 
L 384.139945 46.84322 
L 389.706 48.650159 
L 389.706 48.650159 
" clip-path="url(#p702f480b72)" style="fill: none; stroke: #b9c0d4; stroke-width: 0.8"/>
    <path d="M 98.960012 277.853281 
L 87.283663 275.979475 
L 76.151553 273.983453 
L 65.019442 271.767032 
L 53.887332 269.322097 
L 42.755221 266.633647 
L 33.478462 264.194146 
L 24.201704 261.561758 
L 20.491 260.451453 
M 389.706 260.451453 
L 380.429241 263.165058 
L 371.152482 265.680023 
L 361.875724 268.009304 
L 350.743613 270.574032 
L 339.611503 272.902938 
L 328.479392 275.007707 
L 317.347281 276.900349 
L 311.236988 277.853281 
M 20.491 38.96011 
L 29.767759 36.246504 
L 39.044518 33.731539 
L 48.321276 31.402259 
L 59.453387 28.83753 
L 70.585497 26.508624 
L 81.717608 24.403856 
L 92.849719 22.511213 
L 98.960012 21.558281 
M 311.236988 21.558281 
L 322.913337 23.432087 
L 334.045447 25.428109 
L 345.177558 27.64453 
L 356.309668 30.089466 
L 367.441779 32.777916 
L 376.718538 35.217417 
L 385.995296 37.849805 
L 389.706 38.96011 
L 389.706 38.96011 
" clip-path="url(#p702f480b72)" style="fill: none; stroke: #b9c0d4; stroke-width: 0.8"/>
    <path d="M 54.994017 277.853281 
L 53.887332 277.615614 
L 52.03198 277.212246 
L 50.176628 276.803959 
L 49.105315 276.565367 
L 48.321276 276.388971 
L 46.465925 275.96658 
L 44.610573 275.539219 
L 43.487197 275.277452 
L 42.755221 275.10513 
L 40.899869 274.663322 
L 39.044518 274.216494 
L 38.112604 273.989538 
L 37.189166 273.762303 
L 35.333814 273.300674 
L 33.478462 272.833973 
L 32.957969 272.701623 
L 31.623111 272.358626 
L 29.767759 271.876759 
L 28.003621 271.413708 
L 27.912407 271.389512 
L 26.057055 270.892158 
L 24.201704 270.389623 
L 23.237591 270.125794 
L 22.346352 269.879284 
L 20.491 269.360873 
M 389.706 269.360873 
L 387.850648 269.879284 
L 386.959409 270.125794 
L 385.995296 270.389623 
L 384.139945 270.892158 
L 382.284593 271.389512 
L 382.193379 271.413708 
L 380.429241 271.876759 
L 378.573889 272.358626 
L 377.239031 272.701623 
L 376.718538 272.833973 
L 374.863186 273.300674 
L 373.007834 273.762303 
L 372.084396 273.989538 
L 371.152482 274.216494 
L 369.297131 274.663322 
L 367.441779 275.10513 
L 366.709803 275.277452 
L 365.586427 275.539219 
L 363.731075 275.96658 
L 361.875724 276.388971 
L 361.091685 276.565367 
L 360.020372 276.803959 
L 358.16502 277.212246 
L 356.309668 277.615614 
L 355.202983 277.853281 
M 20.491 30.05069 
L 22.346352 29.532278 
L 23.237591 29.285769 
L 24.201704 29.02194 
L 26.057055 28.519405 
L 27.912407 28.022051 
L 28.003621 27.997854 
L 29.767759 27.534803 
L 31.623111 27.052937 
L 32.957969 26.70994 
L 33.478462 26.57759 
L 35.333814 26.110888 
L 37.189166 25.64926 
L 38.112604 25.422025 
L 39.044518 25.195068 
L 40.899869 24.74824 
L 42.755221 24.306432 
L 43.487197 24.13411 
L 44.610573 23.872344 
L 46.465925 23.444983 
L 48.321276 23.022591 
L 49.105315 22.846196 
L 50.176628 22.607603 
L 52.03198 22.199317 
L 53.887332 21.795949 
L 54.994017 21.558281 
M 355.202983 21.558281 
L 356.309668 21.795949 
L 358.16502 22.199317 
L 360.020372 22.607603 
L 361.091685 22.846196 
L 361.875724 23.022591 
L 363.731075 23.444983 
L 365.586427 23.872344 
L 366.709803 24.13411 
L 367.441779 24.306432 
L 369.297131 24.74824 
L 371.152482 25.195068 
L 372.084396 25.422025 
L 373.007834 25.64926 
L 374.863186 26.110888 
L 376.718538 26.57759 
L 377.239031 26.70994 
L 378.573889 27.052937 
L 380.429241 27.534803 
L 382.193379 27.997854 
L 382.284593 28.022051 
L 384.139945 28.519405 
L 385.995296 29.02194 
L 386.959409 29.285769 
L 387.850648 29.532278 
L 389.706 30.05069 
" clip-path="url(#p702f480b72)" style="fill: none; stroke: #b9c0d4; stroke-width: 0.8"/>
    <path d="M 21.257694 277.853281 
L 20.491 277.65204 
M 389.706 277.65204 
L 388.939306 277.853281 
M 20.491 21.759523 
L 21.257694 21.558281 
M 388.939306 21.558281 
L 389.706 21.759523 
" clip-path="url(#p702f480b72)" style="fill: none; stroke: #b9c0d4; stroke-width: 0.8"/>
    <path clip-path="url(#p702f480b72)" style="fill: none; stroke: #b9c0d4; stroke-width: 0.8"/>
   </g>
   <g id="line2d_1">
    <path d="M 45.66475 233.001656 
L 51.244931 174.694544 
L 56.629806 157.20241 
L 61.82621 151.95477 
L 66.840741 150.380478 
L 71.679762 149.90819 
L 76.349418 149.766504 
L 80.855636 149.723998 
L 85.204136 149.711246 
L 89.400439 149.707421 
L 93.449871 149.706273 
L 97.357573 149.705929 
L 101.128505 149.705826 
L 104.767455 149.705795 
L 108.279042 149.705785 
L 111.667723 149.705782 
L 114.9378 149.705782 
" clip-path="url(#p702f480b72)" style="fill: none; stroke: #c00000; stroke-width: 1.3"/>
    <defs>
     <path id="mf41bcf4fb8" d="M 0 1.75 
C 0.464105 1.75 0.909265 1.565609 1.237437 1.237437 
C 1.565609 0.909265 1.75 0.464105 1.75 0 
C 1.75 -0.464105 1.565609 -0.909265 1.237437 -1.237437 
C 0.909265 -1.565609 0.464105 -1.75 0 -1.75 
C -0.464105 -1.75 -0.909265 -1.565609 -1.237437 -1.237437 
C -1.565609 -0.909265 -1.75 -0.464105 -1.75 0 
C -1.75 0.464105 -1.565609 0.909265 -1.237437 1.237437 
C -0.909265 1.565609 -0.464105 1.75 0 1.75 
z
" style="stroke: #c00000"/>
    </defs>
    <g clip-path="url(#p702f480b72)">
     <use xlink:href="#mf41bcf4fb8" x="45.66475" y="233.001656" style="fill: #c00000; stroke: #c00000"/>
     <use xlink:href="#mf41bcf4fb8" x="51.244931" y="174.694544" style="fill: #c00000; stroke: #c00000"/>
     <use xlink:href="#mf41bcf4fb8" x="56.629806" y="157.20241" style="fill: #c00000; stroke: #c00000"/>
     <use xlink:href="#mf41bcf4fb8" x="61.82621" y="151.95477" style="fill: #c00000; stroke: #c00000"/>
     <use xlink:href="#mf41bcf4fb8" x="66.840741" y="150.380478" style="fill: #c00000; stroke: #c00000"/>
     <use xlink:href="#mf41bcf4fb8" x="71.679762" y="149.90819" style="fill: #c00000; stroke: #c00000"/>
     <use xlink:href="#mf41bcf4fb8" x="76.349418" y="149.766504" style="fill: #c00000; stroke: #c00000"/>
     <use xlink:href="#mf41bcf4fb8" x="80.855636" y="149.723998" style="fill: #c00000; stroke: #c00000"/>
     <use xlink:href="#mf41bcf4fb8" x="85.204136" y="149.711246" style="fill: #c00000; stroke: #c00000"/>
     <use xlink:href="#mf41bcf4fb8" x="89.400439" y="149.707421" style="fill: #c00000; stroke: #c00000"/>
     <use xlink:href="#mf41bcf4fb8" x="93.449871" y="149.706273" style="fill: #c00000; stroke: #c00000"/>
     <use xlink:href="#mf41bcf4fb8" x="97.357573" y="149.705929" style="fill: #c00000; stroke: #c00000"/>
     <use xlink:href="#mf41bcf4fb8" x="101.128505" y="149.705826" style="fill: #c00000; stroke: #c00000"/>
     <use xlink:href="#mf41bcf4fb8" x="104.767455" y="149.705795" style="fill: #c00000; stroke: #c00000"/>
     <use xlink:href="#mf41bcf4fb8" x="108.279042" y="149.705785" style="fill: #c00000; stroke: #c00000"/>
     <use xlink:href="#mf41bcf4fb8" x="111.667723" y="149.705782" style="fill: #c00000; stroke: #c00000"/>
     <use xlink:href="#mf41bcf4fb8" x="114.9378" y="149.705782" style="fill: #c00000; stroke: #c00000"/>
    </g>
   </g>
   <g id="line2d_2">
    <path d="M 205.0985 149.705781 
" clip-path="url(#p702f480b72)" style="fill: none; stroke: #0e7490; stroke-width: 4"/>
    <defs>
     <path id="mdd29ee4e2d" d="M 0 -7.5 
L -1.683855 -2.317627 
L -7.132924 -2.317627 
L -2.724534 0.885255 
L -4.408389 6.067627 
L -0 2.864745 
L 4.408389 6.067627 
L 2.724534 0.885255 
L 7.132924 -2.317627 
L 1.683855 -2.317627 
z
" style="stroke: #0e7490; stroke-linejoin: bevel"/>
    </defs>
    <g clip-path="url(#p702f480b72)">
     <use xlink:href="#mdd29ee4e2d" x="205.0985" y="149.705781" style="fill: #0e7490; stroke: #0e7490; stroke-linejoin: bevel"/>
    </g>
   </g>
   <g id="patch_3">
    <path d="M 20.491 277.853281 
L 20.491 21.558281 
" style="fill: none; stroke: #f0f0f0; stroke-width: 3; stroke-linejoin: miter; stroke-linecap: square"/>
   </g>
   <g id="patch_4">
    <path d="M 389.706 277.853281 
L 389.706 21.558281 
" style="fill: none; stroke: #f0f0f0; stroke-width: 3; stroke-linejoin: miter; stroke-linecap: square"/>
   </g>
   <g id="patch_5">
    <path d="M 20.491 277.853281 
L 389.706 277.853281 
" style="fill: none; stroke: #f0f0f0; stroke-width: 3; stroke-linejoin: miter; stroke-linecap: square"/>
   </g>
   <g id="patch_6">
    <path d="M 20.491 21.558281 
L 389.706 21.558281 
" style="fill: none; stroke: #f0f0f0; stroke-width: 3; stroke-linejoin: miter; stroke-linecap: square"/>
   </g>
   <g id="text_3">
    <!-- Learning rate too small -->
    <g style="fill: #808080" transform="translate(141.268422 15.558281) scale(0.11 -0.11)">
     <defs>
      <path id="DejaVuSans-4c" d="M 628 4666 
L 1259 4666 
L 1259 531 
L 3531 531 
L 3531 0 
L 628 0 
L 628 4666 
z
" transform="scale(0.015625)"/>
      <path id="DejaVuSans-65" d="M 3597 1894 
L 3597 1613 
L 953 1613 
Q 991 1019 1311 708 
Q 1631 397 2203 397 
Q 2534 397 2845 478 
Q 3156 559 3463 722 
L 3463 178 
Q 3153 47 2828 -22 
Q 2503 -91 2169 -91 
Q 1331 -91 842 396 
Q 353 884 353 1716 
Q 353 2575 817 3079 
Q 1281 3584 2069 3584 
Q 2775 3584 3186 3129 
Q 3597 2675 3597 1894 
z
M 3022 2063 
Q 3016 2534 2758 2815 
Q 2500 3097 2075 3097 
Q 1594 3097 1305 2825 
Q 1016 2553 972 2059 
L 3022 2063 
z
" transform="scale(0.015625)"/>
      <path id="DejaVuSans-61" d="M 2194 1759 
Q 1497 1759 1228 1600 
Q 959 1441 959 1056 
Q 959 750 1161 570 
Q 1363 391 1709 391 
Q 2188 391 2477 730 
Q 2766 1069 2766 1631 
L 2766 1759 
L 2194 1759 
z
M 3341 1997 
L 3341 0 
L 2766 0 
L 2766 531 
Q 2569 213 2275 61 
Q 1981 -91 1556 -91 
Q 1019 -91 701 211 
Q 384 513 384 1019 
Q 384 1609 779 1909 
Q 1175 2209 1959 2209 
L 2766 2209 
L 2766 2266 
Q 2766 2663 2505 2880 
Q 2244 3097 1772 3097 
Q 1472 3097 1187 3025 
Q 903 2953 641 2809 
L 641 3341 
Q 956 3463 1253 3523 
Q 1550 3584 1831 3584 
Q 2591 3584 2966 3190 
Q 3341 2797 3341 1997 
z
" transform="scale(0.015625)"/>
      <path id="DejaVuSans-72" d="M 2631 2963 
Q 2534 3019 2420 3045 
Q 2306 3072 2169 3072 
Q 1681 3072 1420 2755 
Q 1159 2438 1159 1844 
L 1159 0 
L 581 0 
L 581 3500 
L 1159 3500 
L 1159 2956 
Q 1341 3275 1631 3429 
Q 1922 3584 2338 3584 
Q 2397 3584 2469 3576 
Q 2541 3569 2628 3553 
L 2631 2963 
z
" transform="scale(0.015625)"/>
      <path id="DejaVuSans-6e" d="M 3513 2113 
L 3513 0 
L 2938 0 
L 2938 2094 
Q 2938 2591 2744 2837 
Q 2550 3084 2163 3084 
Q 1697 3084 1428 2787 
Q 1159 2491 1159 1978 
L 1159 0 
L 581 0 
L 581 3500 
L 1159 3500 
L 1159 2956 
Q 1366 3272 1645 3428 
Q 1925 3584 2291 3584 
Q 2894 3584 3203 3211 
Q 3513 2838 3513 2113 
z
" transform="scale(0.015625)"/>
      <path id="DejaVuSans-69" d="M 603 3500 
L 1178 3500 
L 1178 0 
L 603 0 
L 603 3500 
z
M 603 4863 
L 1178 4863 
L 1178 4134 
L 603 4134 
L 603 4863 
z
" transform="scale(0.015625)"/>
      <path id="DejaVuSans-67" d="M 2906 1791 
Q 2906 2416 2648 2759 
Q 2391 3103 1925 3103 
Q 1463 3103 1205 2759 
Q 947 2416 947 1791 
Q 947 1169 1205 825 
Q 1463 481 1925 481 
Q 2391 481 2648 825 
Q 2906 1169 2906 1791 
z
M 3481 434 
Q 3481 -459 3084 -895 
Q 2688 -1331 1869 -1331 
Q 1566 -1331 1297 -1286 
Q 1028 -1241 775 -1147 
L 775 -588 
Q 1028 -725 1275 -790 
Q 1522 -856 1778 -856 
Q 2344 -856 2625 -561 
Q 2906 -266 2906 331 
L 2906 616 
Q 2728 306 2450 153 
Q 2172 0 1784 0 
Q 1141 0 747 490 
Q 353 981 353 1791 
Q 353 2603 747 3093 
Q 1141 3584 1784 3584 
Q 2172 3584 2450 3431 
Q 2728 3278 2906 2969 
L 2906 3500 
L 3481 3500 
L 3481 434 
z
" transform="scale(0.015625)"/>
      <path id="DejaVuSans-20" transform="scale(0.015625)"/>
      <path id="DejaVuSans-74" d="M 1172 4494 
L 1172 3500 
L 2356 3500 
L 2356 3053 
L 1172 3053 
L 1172 1153 
Q 1172 725 1289 603 
Q 1406 481 1766 481 
L 2356 481 
L 2356 0 
L 1766 0 
Q 1100 0 847 248 
Q 594 497 594 1153 
L 594 3053 
L 172 3053 
L 172 3500 
L 594 3500 
L 594 4494 
L 1172 4494 
z
" transform="scale(0.015625)"/>
      <path id="DejaVuSans-6f" d="M 1959 3097 
Q 1497 3097 1228 2736 
Q 959 2375 959 1747 
Q 959 1119 1226 758 
Q 1494 397 1959 397 
Q 2419 397 2687 759 
Q 2956 1122 2956 1747 
Q 2956 2369 2687 2733 
Q 2419 3097 1959 3097 
z
M 1959 3584 
Q 2709 3584 3137 3096 
Q 3566 2609 3566 1747 
Q 3566 888 3137 398 
Q 2709 -91 1959 -91 
Q 1206 -91 779 398 
Q 353 888 353 1747 
Q 353 2609 779 3096 
Q 1206 3584 1959 3584 
z
" transform="scale(0.015625)"/>
      <path id="DejaVuSans-73" d="M 2834 3397 
L 2834 2853 
Q 2591 2978 2328 3040 
Q 2066 3103 1784 3103 
Q 1356 3103 1142 2972 
Q 928 2841 928 2578 
Q 928 2378 1081 2264 
Q 1234 2150 1697 2047 
L 1894 2003 
Q 2506 1872 2764 1633 
Q 3022 1394 3022 966 
Q 3022 478 2636 193 
Q 2250 -91 1575 -91 
Q 1294 -91 989 -36 
Q 684 19 347 128 
L 347 722 
Q 666 556 975 473 
Q 1284 391 1588 391 
Q 1994 391 2212 530 
Q 2431 669 2431 922 
Q 2431 1156 2273 1281 
Q 2116 1406 1581 1522 
L 1381 1569 
Q 847 1681 609 1914 
Q 372 2147 372 2553 
Q 372 3047 722 3315 
Q 1072 3584 1716 3584 
Q 2034 3584 2315 3537 
Q 2597 3491 2834 3397 
z
" transform="scale(0.015625)"/>
      <path id="DejaVuSans-6d" d="M 3328 2828 
Q 3544 3216 3844 3400 
Q 4144 3584 4550 3584 
Q 5097 3584 5394 3201 
Q 5691 2819 5691 2113 
L 5691 0 
L 5113 0 
L 5113 2094 
Q 5113 2597 4934 2840 
Q 4756 3084 4391 3084 
Q 3944 3084 3684 2787 
Q 3425 2491 3425 1978 
L 3425 0 
L 2847 0 
L 2847 2094 
Q 2847 2600 2669 2842 
Q 2491 3084 2119 3084 
Q 1678 3084 1418 2786 
Q 1159 2488 1159 1978 
L 1159 0 
L 581 0 
L 581 3500 
L 1159 3500 
L 1159 2956 
Q 1356 3278 1631 3431 
Q 1906 3584 2284 3584 
Q 2666 3584 2933 3390 
Q 3200 3197 3328 2828 
z
" transform="scale(0.015625)"/>
      <path id="DejaVuSans-6c" d="M 603 4863 
L 1178 4863 
L 1178 0 
L 603 0 
L 603 4863 
z
" transform="scale(0.015625)"/>
     </defs>
     <use xlink:href="#DejaVuSans-4c"/>
     <use xlink:href="#DejaVuSans-65" transform="translate(53.962891 0)"/>
     <use xlink:href="#DejaVuSans-61" transform="translate(115.486328 0)"/>
     <use xlink:href="#DejaVuSans-72" transform="translate(176.765625 0)"/>
     <use xlink:href="#DejaVuSans-6e" transform="translate(216.128906 0)"/>
     <use xlink:href="#DejaVuSans-69" transform="translate(279.507812 0)"/>
     <use xlink:href="#DejaVuSans-6e" transform="translate(307.291016 0)"/>
     <use xlink:href="#DejaVuSans-67" transform="translate(370.669922 0)"/>
     <use xlink:href="#DejaVuSans-20" transform="translate(434.146484 0)"/>
     <use xlink:href="#DejaVuSans-72" transform="translate(465.933594 0)"/>
     <use xlink:href="#DejaVuSans-61" transform="translate(507.046875 0)"/>
     <use xlink:href="#DejaVuSans-74" transform="translate(568.326172 0)"/>
     <use xlink:href="#DejaVuSans-65" transform="translate(607.535156 0)"/>
     <use xlink:href="#DejaVuSans-20" transform="translate(669.058594 0)"/>
     <use xlink:href="#DejaVuSans-74" transform="translate(700.845703 0)"/>
     <use xlink:href="#DejaVuSans-6f" transform="translate(740.054688 0)"/>
     <use xlink:href="#DejaVuSans-6f" transform="translate(801.236328 0)"/>
     <use xlink:href="#DejaVuSans-20" transform="translate(862.417969 0)"/>
     <use xlink:href="#DejaVuSans-73" transform="translate(894.205078 0)"/>
     <use xlink:href="#DejaVuSans-6d" transform="translate(946.304688 0)"/>
     <use xlink:href="#DejaVuSans-61" transform="translate(1043.716797 0)"/>
     <use xlink:href="#DejaVuSans-6c" transform="translate(1104.996094 0)"/>
     <use xlink:href="#DejaVuSans-6c" transform="translate(1132.779297 0)"/>
    </g>
   </g>
  </g>
  <g id="axes_2">
   <g id="patch_7">
    <path d="M 412.171 277.853281 
L 781.386 277.853281 
L 781.386 21.558281 
L 412.171 21.558281 
z
" style="fill: #ffffff"/>
   </g>
   <g id="matplotlib.axis_3">
    <g id="text_4">
     <!-- $w_1$ -->
     <g transform="translate(590.5385 289.147781) scale(0.096 -0.096)">
      <use xlink:href="#DejaVuSans-Oblique-77" transform="translate(0 0.3125)"/>
      <use xlink:href="#DejaVuSans-31" transform="translate(81.787109 -16.09375) scale(0.7)"/>
     </g>
    </g>
   </g>
   <g id="matplotlib.axis_4">
    <g id="text_5">
     <!-- $w_2$ -->
     <g transform="translate(406.1745 155.945781) rotate(-90) scale(0.096 -0.096)">
      <use xlink:href="#DejaVuSans-Oblique-77" transform="translate(0 0.3125)"/>
      <use xlink:href="#DejaVuSans-32" transform="translate(81.787109 -16.09375) scale(0.7)"/>
     </g>
    </g>
   </g>
   <g id="QuadContourSet_2">
    <path clip-path="url(#p4c6c185a1d)" style="fill: none; stroke: #b9c0d4; stroke-width: 0.8"/>
    <path d="M 577.297307 194.241738 
L 569.875899 193.528599 
L 562.454492 192.575149 
L 555.033085 191.35886 
L 547.611678 189.854295 
L 542.045623 188.519619 
L 536.479568 186.986172 
L 530.589859 185.123432 
L 525.347457 183.21151 
L 520.615815 181.259688 
L 516.070698 179.125508 
L 512.359995 177.164978 
L 508.437857 174.820115 
L 504.704024 172.244286 
L 501.227884 169.428013 
L 498.76733 167.092628 
L 496.472552 164.516799 
L 494.584338 161.94097 
L 493.080909 159.365141 
L 491.942013 156.789311 
L 491.167268 154.213482 
L 490.736855 151.637653 
L 490.650772 149.061824 
L 490.90902 146.485995 
L 491.511599 143.910166 
L 492.46757 141.334337 
L 493.806477 138.718316 
L 495.661829 135.939411 
L 497.563796 133.606849 
L 500.07673 131.03102 
L 503.083236 128.418524 
L 506.79394 125.681541 
L 510.521685 123.303533 
L 515.191158 120.727703 
L 519.781402 118.526028 
L 523.661216 116.86396 
L 529.058161 114.824184 
L 534.624216 112.979554 
L 540.190271 111.378936 
L 545.756327 109.981423 
L 551.322382 108.767973 
L 558.743789 107.41195 
L 566.165196 106.326987 
L 573.586603 105.496234 
L 581.00801 104.905457 
L 588.429417 104.543691 
L 595.850824 104.40455 
L 603.272231 104.488035 
L 610.693638 104.794145 
L 618.115045 105.324355 
L 625.536452 106.097814 
L 632.957859 107.116803 
L 640.379266 108.402729 
L 645.945322 109.557268 
L 651.511377 110.891943 
L 657.077432 112.42539 
L 662.967141 114.28813 
L 668.209543 116.200053 
L 672.941185 118.151874 
L 677.486302 120.286055 
L 681.197005 122.246585 
L 685.119143 124.591447 
L 688.852976 127.167276 
L 692.329116 129.98355 
L 694.78967 132.318935 
L 697.084448 134.894764 
L 698.972662 137.470593 
L 700.476091 140.046422 
L 701.614987 142.622251 
L 702.389732 145.19808 
L 702.820145 147.773909 
L 702.906228 150.349739 
L 702.64798 152.925568 
L 702.045401 155.501397 
L 701.08943 158.077226 
L 699.750523 160.693247 
L 697.895171 163.472152 
L 695.993204 165.804713 
L 693.48027 168.380543 
L 690.473764 170.993038 
L 686.76306 173.730022 
L 683.035315 176.10803 
L 678.365842 178.683859 
L 673.775598 180.885535 
L 669.895784 182.547603 
L 664.498839 184.587379 
L 658.932784 186.432008 
L 653.366729 188.032626 
L 647.800673 189.43014 
L 642.234618 190.643589 
L 634.813211 191.999612 
L 627.391804 193.084576 
L 619.970397 193.915328 
L 612.54899 194.506105 
L 605.127583 194.867871 
L 597.706176 195.007012 
L 590.284769 194.923528 
L 582.863362 194.617418 
L 577.297307 194.241738 
L 577.297307 194.241738 
" clip-path="url(#p4c6c185a1d)" style="fill: none; stroke: #b9c0d4; stroke-width: 0.8"/>
    <path d="M 582.863362 213.503183 
L 573.586603 213.007183 
L 564.309844 212.261786 
L 556.888437 211.472343 
L 549.46703 210.510924 
L 542.045623 209.366313 
L 534.624216 208.026298 
L 527.202809 206.477556 
L 519.781402 204.705525 
L 513.995609 203.154236 
L 506.79394 200.986804 
L 501.227884 199.119852 
L 494.783673 196.714663 
L 488.630666 194.138834 
L 483.130884 191.563005 
L 478.192467 188.987176 
L 473.397608 186.196293 
L 469.686905 183.79974 
L 465.976201 181.137248 
L 462.265497 178.13629 
L 460.009429 176.10803 
L 457.438542 173.532201 
L 454.84409 170.5511 
L 452.988739 168.090726 
L 451.133387 165.198949 
L 450.055409 163.228884 
L 448.880347 160.653055 
L 447.960338 158.077226 
L 447.287356 155.501397 
L 446.863319 152.925568 
L 446.681589 150.349739 
L 446.742165 147.773909 
L 447.045049 145.19808 
L 447.592334 142.622251 
L 448.389675 140.046422 
L 449.434306 137.470593 
L 450.738622 134.894764 
L 452.306227 132.318935 
L 454.145347 129.743105 
L 456.699442 126.68769 
L 458.68329 124.591447 
L 461.415461 122.015618 
L 464.475274 119.439789 
L 467.889359 116.86396 
L 471.689441 114.28813 
L 475.91115 111.712301 
L 480.819015 109.020525 
L 486.38507 106.29254 
L 491.951126 103.84631 
L 498.140972 101.408985 
L 504.938588 99.026149 
L 510.504643 97.274909 
L 517.92605 95.186759 
L 523.94233 93.681497 
L 530.913513 92.131986 
L 538.33492 90.691044 
L 545.756327 89.449801 
L 555.033085 88.162425 
L 564.309844 87.149777 
L 573.586603 86.40438 
L 582.863362 85.908379 
L 592.140121 85.664883 
L 601.416879 85.664883 
L 610.693638 85.908379 
L 619.970397 86.40438 
L 629.247156 87.149777 
L 636.668563 87.93922 
L 644.08997 88.900639 
L 651.511377 90.045249 
L 658.932784 91.385264 
L 666.354191 92.934006 
L 673.775598 94.706038 
L 679.561391 96.257326 
L 686.76306 98.424758 
L 692.329116 100.291711 
L 698.773327 102.696899 
L 704.926334 105.272728 
L 710.426116 107.848558 
L 715.364533 110.424387 
L 720.159392 113.21527 
L 723.870095 115.611823 
L 727.580799 118.274314 
L 731.291503 121.275273 
L 733.547571 123.303533 
L 736.118458 125.879362 
L 738.71291 128.860463 
L 740.568261 131.320837 
L 742.423613 134.212613 
L 743.501591 136.182678 
L 744.676653 138.758507 
L 745.596662 141.334337 
L 746.269644 143.910166 
L 746.693681 146.485995 
L 746.875411 149.061824 
L 746.814835 151.637653 
L 746.511951 154.213482 
L 745.964666 156.789311 
L 745.167325 159.365141 
L 744.122694 161.94097 
L 742.818378 164.516799 
L 741.250773 167.092628 
L 739.411653 169.668457 
L 736.857558 172.723872 
L 734.87371 174.820115 
L 732.141539 177.395945 
L 729.081726 179.971774 
L 725.667641 182.547603 
L 721.867559 185.123432 
L 717.64585 187.699261 
L 712.737985 190.391037 
L 707.17193 193.119023 
L 701.605874 195.565253 
L 695.416028 198.002578 
L 688.618412 200.385413 
L 683.052357 202.136653 
L 675.63095 204.224803 
L 669.61467 205.730065 
L 662.643487 207.279576 
L 655.22208 208.720518 
L 647.800673 209.961762 
L 638.523915 211.249138 
L 629.247156 212.261786 
L 619.970397 213.007183 
L 610.693638 213.503183 
L 601.416879 213.746679 
L 592.140121 213.746679 
L 582.863362 213.503183 
L 582.863362 213.503183 
" clip-path="url(#p4c6c185a1d)" style="fill: none; stroke: #b9c0d4; stroke-width: 0.8"/>
    <path d="M 575.441955 227.649281 
L 574.964221 227.624613 
L 573.586603 227.552293 
L 571.731251 227.446778 
L 569.875899 227.333147 
L 568.020548 227.211399 
L 566.165196 227.081534 
L 564.309844 226.943553 
L 562.454492 226.797455 
L 560.599141 226.64324 
L 558.743789 226.48091 
L 557.174023 226.336698 
L 556.888437 226.310017 
L 555.033085 226.128427 
L 553.177734 225.938582 
L 551.322382 225.740484 
L 549.46703 225.534131 
L 547.611678 225.319524 
L 545.756327 225.096663 
L 545.371963 225.048784 
L 543.900975 224.862388 
L 542.045623 224.618892 
L 540.190271 224.366999 
L 538.33492 224.10671 
L 536.479568 223.838024 
L 535.962934 223.760869 
L 534.624216 223.557435 
L 532.768864 223.266948 
L 530.913513 222.967917 
L 529.058161 222.660343 
L 527.958346 222.472955 
L 527.202809 222.341926 
L 525.347457 222.011467 
L 523.492106 221.672311 
L 521.636754 221.324459 
L 520.911265 221.18504 
L 519.781402 220.963963 
L 517.92605 220.592078 
L 516.070698 220.211338 
L 514.574333 219.897125 
L 514.215347 219.820348 
L 512.359995 219.414521 
L 510.504643 218.999675 
L 508.79549 218.609211 
L 508.649291 218.575181 
L 506.79394 218.134131 
L 504.938588 217.683892 
L 503.474278 217.321296 
L 503.083236 217.222603 
L 501.227884 216.744976 
L 499.372533 216.257983 
L 498.532988 216.033382 
L 497.517181 215.756297 
L 495.661829 215.240657 
L 493.912453 214.745467 
L 493.806477 214.714869 
L 491.951126 214.169437 
L 490.095774 213.614266 
L 489.581078 213.457553 
L 488.240422 213.041024 
L 486.38507 212.454645 
L 485.498316 212.169638 
L 484.529719 211.851841 
L 482.674367 211.232955 
L 481.638398 210.881723 
L 480.819015 210.598012 
L 478.963663 209.945234 
L 477.980434 209.593809 
L 477.108312 209.275319 
L 475.25296 208.587177 
L 474.506062 208.305894 
L 473.397608 207.879172 
L 471.542256 207.154094 
L 471.199085 207.01798 
L 469.686905 206.404562 
L 468.048249 205.730065 
L 467.831553 205.638795 
L 465.976201 204.846016 
L 465.044341 204.442151 
L 464.120849 204.032382 
L 462.265497 203.197538 
L 462.170582 203.154236 
L 460.410146 202.331509 
L 459.428207 201.866321 
L 458.554794 201.442203 
L 456.799647 200.578407 
L 456.699442 200.527827 
L 454.84409 199.578815 
L 454.287729 199.290492 
L 452.988739 198.599602 
L 451.880624 198.002578 
L 451.133387 197.589104 
L 449.573083 196.714663 
L 449.278035 196.544716 
L 447.422683 195.46251 
L 447.36213 195.426749 
L 445.567332 194.336492 
L 445.245913 194.138834 
L 443.71198 193.167793 
L 443.217452 192.850919 
L 441.856628 191.952535 
L 441.273613 191.563005 
L 440.001276 190.686352 
L 439.411411 190.27509 
L 438.145925 189.364316 
L 437.627996 188.987176 
L 436.290573 187.980842 
L 435.920653 187.699261 
L 434.435221 186.529573 
L 434.286787 186.411347 
L 432.725559 185.123432 
L 432.579869 184.998796 
L 431.235368 183.835517 
L 430.724518 183.376524 
L 429.812196 182.547603 
L 428.869166 181.656507 
L 428.453835 181.259688 
L 427.159756 179.971774 
L 427.013814 179.820212 
L 425.931491 178.683859 
L 425.158462 177.835349 
L 424.76245 177.395945 
L 423.654482 176.10803 
L 423.303111 175.67917 
L 422.606762 174.820115 
L 421.614979 173.532201 
L 421.447759 173.302987 
L 420.683526 172.244286 
L 419.805482 170.956372 
L 419.592407 170.6243 
L 418.985477 169.668457 
L 418.218802 168.380543 
L 417.737055 167.513464 
L 417.50565 167.092628 
L 416.848049 165.804713 
L 416.241033 164.516799 
L 415.881704 163.685097 
L 415.686612 163.228884 
L 415.185927 161.94097 
L 414.73531 160.653055 
L 414.334762 159.365141 
L 414.026352 158.231819 
L 413.984707 158.077226 
L 413.687331 156.789311 
L 413.439517 155.501397 
L 413.241266 154.213482 
L 413.092577 152.925568 
L 412.993452 151.637653 
L 412.943889 150.349739 
L 412.943889 149.061824 
L 412.993452 147.773909 
L 413.092577 146.485995 
L 413.241266 145.19808 
L 413.439517 143.910166 
L 413.687331 142.622251 
L 413.984707 141.334337 
L 414.026352 141.179744 
L 414.334762 140.046422 
L 414.73531 138.758507 
L 415.185927 137.470593 
L 415.686612 136.182678 
L 415.881704 135.726466 
L 416.241033 134.894764 
L 416.848049 133.606849 
L 417.50565 132.318935 
L 417.737055 131.898098 
L 418.218802 131.03102 
L 418.985477 129.743105 
L 419.592407 128.787263 
L 419.805482 128.455191 
L 420.683526 127.167276 
L 421.447759 126.108576 
L 421.614979 125.879362 
L 422.606762 124.591447 
L 423.303111 123.732393 
L 423.654482 123.303533 
L 424.76245 122.015618 
L 425.158462 121.576213 
L 425.931491 120.727703 
L 427.013814 119.591351 
L 427.159756 119.439789 
L 428.453835 118.151874 
L 428.869166 117.755056 
L 429.812196 116.86396 
L 430.724518 116.035039 
L 431.235368 115.576045 
L 432.579869 114.412767 
L 432.725559 114.28813 
L 434.286787 113.000216 
L 434.435221 112.881989 
L 435.920653 111.712301 
L 436.290573 111.430721 
L 437.627996 110.424387 
L 438.145925 110.047247 
L 439.411411 109.136472 
L 440.001276 108.725211 
L 441.273613 107.848558 
L 441.856628 107.459028 
L 443.217452 106.560643 
L 443.71198 106.243769 
L 445.245913 105.272728 
L 445.567332 105.075071 
L 447.36213 103.984814 
L 447.422683 103.949052 
L 449.278035 102.866846 
L 449.573083 102.696899 
L 451.133387 101.822458 
L 451.880624 101.408985 
L 452.988739 100.811961 
L 454.287729 100.12107 
L 454.84409 99.832747 
L 456.699442 98.883736 
L 456.799647 98.833156 
L 458.554794 97.96936 
L 459.428207 97.545241 
L 460.410146 97.080053 
L 462.170582 96.257326 
L 462.265497 96.214025 
L 464.120849 95.37918 
L 465.044341 94.969412 
L 465.976201 94.565546 
L 467.831553 93.772768 
L 468.048249 93.681497 
L 469.686905 93.007 
L 471.199085 92.393583 
L 471.542256 92.257469 
L 473.397608 91.532391 
L 474.506062 91.105668 
L 475.25296 90.824385 
L 477.108312 90.136243 
L 477.980434 89.817754 
L 478.963663 89.466328 
L 480.819015 88.813551 
L 481.638398 88.529839 
L 482.674367 88.178608 
L 484.529719 87.559721 
L 485.498316 87.241924 
L 486.38507 86.956918 
L 488.240422 86.370539 
L 489.581078 85.95401 
L 490.095774 85.797297 
L 491.951126 85.242125 
L 493.806477 84.696693 
L 493.912453 84.666095 
L 495.661829 84.170905 
L 497.517181 83.655266 
L 498.532988 83.378181 
L 499.372533 83.153579 
L 501.227884 82.666587 
L 503.083236 82.188959 
L 503.474278 82.090266 
L 504.938588 81.72767 
L 506.79394 81.277431 
L 508.649291 80.836381 
L 508.79549 80.802352 
L 510.504643 80.411887 
L 512.359995 79.997042 
L 514.215347 79.591214 
L 514.574333 79.514437 
L 516.070698 79.200224 
L 517.92605 78.819485 
L 519.781402 78.447599 
L 520.911265 78.226522 
L 521.636754 78.087103 
L 523.492106 77.739251 
L 525.347457 77.400096 
L 527.202809 77.069636 
L 527.958346 76.938608 
L 529.058161 76.751219 
L 530.913513 76.443645 
L 532.768864 76.144615 
L 534.624216 75.854128 
L 535.962934 75.650693 
L 536.479568 75.573538 
L 538.33492 75.304853 
L 540.190271 75.044563 
L 542.045623 74.792671 
L 543.900975 74.549174 
L 545.371963 74.362779 
L 545.756327 74.3149 
L 547.611678 74.092039 
L 549.46703 73.877432 
L 551.322382 73.671079 
L 553.177734 73.47298 
L 555.033085 73.283136 
L 556.888437 73.101545 
L 557.174023 73.074864 
L 558.743789 72.930653 
L 560.599141 72.768322 
L 562.454492 72.614108 
L 564.309844 72.46801 
L 566.165196 72.330029 
L 568.020548 72.200164 
L 569.875899 72.078416 
L 571.731251 71.964784 
L 573.586603 71.859269 
L 574.964221 71.78695 
L 575.441955 71.762282 
L 577.297307 71.674463 
L 579.152658 71.594628 
L 581.00801 71.522777 
L 582.863362 71.458909 
L 584.718714 71.403025 
L 586.574065 71.355124 
L 588.429417 71.315206 
L 590.284769 71.283272 
L 592.140121 71.259322 
L 593.995472 71.243355 
L 595.850824 71.235371 
L 597.706176 71.235371 
L 599.561528 71.243355 
L 601.416879 71.259322 
L 603.272231 71.283272 
L 605.127583 71.315206 
L 606.982935 71.355124 
L 608.838286 71.403025 
L 610.693638 71.458909 
L 612.54899 71.522777 
L 614.404342 71.594628 
L 616.259693 71.674463 
L 618.115045 71.762282 
L 618.592779 71.78695 
L 619.970397 71.859269 
L 621.825749 71.964784 
L 623.681101 72.078416 
L 625.536452 72.200164 
L 627.391804 72.330029 
L 629.247156 72.46801 
L 631.102508 72.614108 
L 632.957859 72.768322 
L 634.813211 72.930653 
L 636.382977 73.074864 
L 636.668563 73.101545 
L 638.523915 73.283136 
L 640.379266 73.47298 
L 642.234618 73.671079 
L 644.08997 73.877432 
L 645.945322 74.092039 
L 647.800673 74.3149 
L 648.185037 74.362779 
L 649.656025 74.549174 
L 651.511377 74.792671 
L 653.366729 75.044563 
L 655.22208 75.304853 
L 657.077432 75.573538 
L 657.594066 75.650693 
L 658.932784 75.854128 
L 660.788136 76.144615 
L 662.643487 76.443645 
L 664.498839 76.751219 
L 665.598654 76.938608 
L 666.354191 77.069636 
L 668.209543 77.400096 
L 670.064894 77.739251 
L 671.920246 78.087103 
L 672.645735 78.226522 
L 673.775598 78.447599 
L 675.63095 78.819485 
L 677.486302 79.200224 
L 678.982667 79.514437 
L 679.341653 79.591214 
L 681.197005 79.997042 
L 683.052357 80.411887 
L 684.76151 80.802352 
L 684.907709 80.836381 
L 686.76306 81.277431 
L 688.618412 81.72767 
L 690.082722 82.090266 
L 690.473764 82.188959 
L 692.329116 82.666587 
L 694.184467 83.153579 
L 695.024012 83.378181 
L 696.039819 83.655266 
L 697.895171 84.170905 
L 699.644547 84.666095 
L 699.750523 84.696693 
L 701.605874 85.242125 
L 703.461226 85.797297 
L 703.975922 85.95401 
L 705.316578 86.370539 
L 707.17193 86.956918 
L 708.058684 87.241924 
L 709.027281 87.559721 
L 710.882633 88.178608 
L 711.918602 88.529839 
L 712.737985 88.813551 
L 714.593337 89.466328 
L 715.576566 89.817754 
L 716.448688 90.136243 
L 718.30404 90.824385 
L 719.050938 91.105668 
L 720.159392 91.532391 
L 722.014744 92.257469 
L 722.357915 92.393583 
L 723.870095 93.007 
L 725.508751 93.681497 
L 725.725447 93.772768 
L 727.580799 94.565546 
L 728.512659 94.969412 
L 729.436151 95.37918 
L 731.291503 96.214025 
L 731.386418 96.257326 
L 733.146854 97.080053 
L 734.128793 97.545241 
L 735.002206 97.96936 
L 736.757353 98.833156 
L 736.857558 98.883736 
L 738.71291 99.832747 
L 739.269271 100.12107 
L 740.568261 100.811961 
L 741.676376 101.408985 
L 742.423613 101.822458 
L 743.983917 102.696899 
L 744.278965 102.866846 
L 746.134317 103.949052 
L 746.19487 103.984814 
L 747.989668 105.075071 
L 748.311087 105.272728 
L 749.84502 106.243769 
L 750.339548 106.560643 
L 751.700372 107.459028 
L 752.283387 107.848558 
L 753.555724 108.725211 
L 754.145589 109.136472 
L 755.411075 110.047247 
L 755.929004 110.424387 
L 757.266427 111.430721 
L 757.636347 111.712301 
L 759.121779 112.881989 
L 759.270213 113.000216 
L 760.831441 114.28813 
L 760.977131 114.412767 
L 762.321632 115.576045 
L 762.832482 116.035039 
L 763.744804 116.86396 
L 764.687834 117.755056 
L 765.103165 118.151874 
L 766.397244 119.439789 
L 766.543186 119.591351 
L 767.625509 120.727703 
L 768.398538 121.576213 
L 768.79455 122.015618 
L 769.902518 123.303533 
L 770.253889 123.732393 
L 770.950238 124.591447 
L 771.942021 125.879362 
L 772.109241 126.108576 
L 772.873474 127.167276 
L 773.751518 128.455191 
L 773.964593 128.787263 
L 774.571523 129.743105 
L 775.338198 131.03102 
L 775.819945 131.898098 
L 776.05135 132.318935 
L 776.708951 133.606849 
L 777.315967 134.894764 
L 777.675296 135.726466 
L 777.870388 136.182678 
L 778.371073 137.470593 
L 778.82169 138.758507 
L 779.222238 140.046422 
L 779.530648 141.179744 
L 779.572293 141.334337 
L 779.869669 142.622251 
L 780.117483 143.910166 
L 780.315734 145.19808 
L 780.464423 146.485995 
L 780.563548 147.773909 
L 780.613111 149.061824 
L 780.613111 150.349739 
L 780.563548 151.637653 
L 780.464423 152.925568 
L 780.315734 154.213482 
L 780.117483 155.501397 
L 779.869669 156.789311 
L 779.572293 158.077226 
L 779.530648 158.231819 
L 779.222238 159.365141 
L 778.82169 160.653055 
L 778.371073 161.94097 
L 777.870388 163.228884 
L 777.675296 163.685097 
L 777.315967 164.516799 
L 776.708951 165.804713 
L 776.05135 167.092628 
L 775.819945 167.513464 
L 775.338198 168.380543 
L 774.571523 169.668457 
L 773.964593 170.6243 
L 773.751518 170.956372 
L 772.873474 172.244286 
L 772.109241 173.302987 
L 771.942021 173.532201 
L 770.950238 174.820115 
L 770.253889 175.67917 
L 769.902518 176.10803 
L 768.79455 177.395945 
L 768.398538 177.835349 
L 767.625509 178.683859 
L 766.543186 179.820212 
L 766.397244 179.971774 
L 765.103165 181.259688 
L 764.687834 181.656507 
L 763.744804 182.547603 
L 762.832482 183.376524 
L 762.321632 183.835517 
L 760.977131 184.998796 
L 760.831441 185.123432 
L 759.270213 186.411347 
L 759.121779 186.529573 
L 757.636347 187.699261 
L 757.266427 187.980842 
L 755.929004 188.987176 
L 755.411075 189.364316 
L 754.145589 190.27509 
L 753.555724 190.686352 
L 752.283387 191.563005 
L 751.700372 191.952535 
L 750.339548 192.850919 
L 749.84502 193.167793 
L 748.311087 194.138834 
L 747.989668 194.336492 
L 746.19487 195.426749 
L 746.134317 195.46251 
L 744.278965 196.544716 
L 743.983917 196.714663 
L 742.423613 197.589104 
L 741.676376 198.002578 
L 740.568261 198.599602 
L 739.269271 199.290492 
L 738.71291 199.578815 
L 736.857558 200.527827 
L 736.757353 200.578407 
L 735.002206 201.442203 
L 734.128793 201.866321 
L 733.146854 202.331509 
L 731.386418 203.154236 
L 731.291503 203.197538 
L 729.436151 204.032382 
L 728.512659 204.442151 
L 727.580799 204.846016 
L 725.725447 205.638795 
L 725.508751 205.730065 
L 723.870095 206.404562 
L 722.357915 207.01798 
L 722.014744 207.154094 
L 720.159392 207.879172 
L 719.050938 208.305894 
L 718.30404 208.587177 
L 716.448688 209.275319 
L 715.576566 209.593809 
L 714.593337 209.945234 
L 712.737985 210.598012 
L 711.918602 210.881723 
L 710.882633 211.232955 
L 709.027281 211.851841 
L 708.058684 212.169638 
L 707.17193 212.454645 
L 705.316578 213.041024 
L 703.975922 213.457553 
L 703.461226 213.614266 
L 701.605874 214.169437 
L 699.750523 214.714869 
L 699.644547 214.745467 
L 697.895171 215.240657 
L 696.039819 215.756297 
L 695.024012 216.033382 
L 694.184467 216.257983 
L 692.329116 216.744976 
L 690.473764 217.222603 
L 690.082722 217.321296 
L 688.618412 217.683892 
L 686.76306 218.134131 
L 684.907709 218.575181 
L 684.76151 218.609211 
L 683.052357 218.999675 
L 681.197005 219.414521 
L 679.341653 219.820348 
L 678.982667 219.897125 
L 677.486302 220.211338 
L 675.63095 220.592078 
L 673.775598 220.963963 
L 672.645735 221.18504 
L 671.920246 221.324459 
L 670.064894 221.672311 
L 668.209543 222.011467 
L 666.354191 222.341926 
L 665.598654 222.472955 
L 664.498839 222.660343 
L 662.643487 222.967917 
L 660.788136 223.266948 
L 658.932784 223.557435 
L 657.594066 223.760869 
L 657.077432 223.838024 
L 655.22208 224.10671 
L 653.366729 224.366999 
L 651.511377 224.618892 
L 649.656025 224.862388 
L 648.185037 225.048784 
L 647.800673 225.096663 
L 645.945322 225.319524 
L 644.08997 225.534131 
L 642.234618 225.740484 
L 640.379266 225.938582 
L 638.523915 226.128427 
L 636.668563 226.310017 
L 636.382977 226.336698 
L 634.813211 226.48091 
L 632.957859 226.64324 
L 631.102508 226.797455 
L 629.247156 226.943553 
L 627.391804 227.081534 
L 625.536452 227.211399 
L 623.681101 227.333147 
L 621.825749 227.446778 
L 619.970397 227.552293 
L 618.592779 227.624613 
L 618.115045 227.649281 
L 616.259693 227.737099 
L 614.404342 227.816934 
L 612.54899 227.888785 
L 610.693638 227.952653 
L 608.838286 228.008538 
L 606.982935 228.056439 
L 605.127583 228.096356 
L 603.272231 228.12829 
L 601.416879 228.152241 
L 599.561528 228.168208 
L 597.706176 228.176191 
L 595.850824 228.176191 
L 593.995472 228.168208 
L 592.140121 228.152241 
L 590.284769 228.12829 
L 588.429417 228.096356 
L 586.574065 228.056439 
L 584.718714 228.008538 
L 582.863362 227.952653 
L 581.00801 227.888785 
L 579.152658 227.816934 
L 577.297307 227.737099 
L 575.441955 227.649281 
z
" clip-path="url(#p4c6c185a1d)" style="fill: none; stroke: #b9c0d4; stroke-width: 0.8"/>
    <path d="M 781.386 194.439525 
L 777.675296 197.120604 
L 773.964593 199.608846 
L 768.398538 203.037114 
L 763.622987 205.730065 
L 758.69471 208.305894 
L 753.379548 210.881723 
L 746.134317 214.095463 
L 740.568261 216.364793 
L 733.146854 219.147621 
L 725.725447 221.684529 
L 718.30404 224.000957 
L 709.027281 226.614061 
L 699.750523 228.945301 
L 690.473764 231.013686 
L 681.197005 232.846232 
L 671.920246 234.451101 
L 662.643487 235.845573 
L 653.366729 237.03893 
L 642.234618 238.216361 
L 631.102508 239.126826 
L 621.825749 239.684661 
L 610.693638 240.122954 
L 599.561528 240.310794 
L 588.429417 240.248181 
L 577.297307 239.935114 
L 566.165196 239.371594 
L 556.888437 238.703354 
L 545.756327 237.661994 
L 534.624216 236.347103 
L 525.347457 235.034017 
L 516.070698 233.513037 
L 506.79394 231.774419 
L 497.517181 229.801466 
L 488.240422 227.57993 
L 478.841744 225.048784 
L 469.686905 222.284574 
L 462.265497 219.805963 
L 454.84409 217.085917 
L 447.422683 214.095463 
L 441.856628 211.653036 
L 436.290573 209.014936 
L 430.724518 206.15448 
L 425.357318 203.154236 
L 421.108828 200.578407 
L 415.881704 197.120604 
L 412.171 194.439525 
M 412.171 104.972038 
L 415.881704 102.290959 
L 419.592407 99.802716 
L 425.158462 96.374449 
L 429.934013 93.681497 
L 434.86229 91.105668 
L 440.177452 88.529839 
L 447.422683 85.3161 
L 452.988739 83.046769 
L 460.410146 80.263941 
L 467.831553 77.727033 
L 475.25296 75.410606 
L 484.529719 72.797501 
L 493.806477 70.466261 
L 503.083236 68.397877 
L 512.359995 66.565331 
L 521.636754 64.960461 
L 530.913513 63.565989 
L 540.190271 62.372633 
L 551.322382 61.195201 
L 562.454492 60.284736 
L 571.731251 59.726902 
L 582.863362 59.288608 
L 593.995472 59.100768 
L 605.127583 59.163382 
L 616.259693 59.476448 
L 627.391804 60.039968 
L 636.668563 60.708208 
L 647.800673 61.749569 
L 658.932784 63.06446 
L 668.209543 64.377546 
L 677.486302 65.898525 
L 686.76306 67.637143 
L 696.039819 69.610096 
L 705.316578 71.831633 
L 714.715256 74.362779 
L 723.870095 77.126989 
L 731.291503 79.605599 
L 738.71291 82.325645 
L 746.134317 85.3161 
L 751.700372 87.758526 
L 757.266427 90.396626 
L 762.832482 93.257082 
L 768.199682 96.257326 
L 772.448172 98.833156 
L 777.675296 102.290959 
L 781.386 104.972038 
L 781.386 104.972038 
" clip-path="url(#p4c6c185a1d)" style="fill: none; stroke: #b9c0d4; stroke-width: 0.8"/>
    <path d="M 781.386 213.377048 
L 775.819945 216.209377 
L 768.398538 219.683358 
L 761.909867 222.472955 
L 755.411075 225.062077 
L 747.989668 227.791466 
L 740.568261 230.305652 
L 731.291503 233.17143 
L 722.014744 235.761294 
L 712.737985 238.099236 
L 703.461226 240.202299 
L 694.184467 242.088602 
L 684.907709 243.76996 
L 675.63095 245.258756 
L 666.354191 246.562692 
L 655.22208 247.894115 
L 644.08997 248.979997 
L 632.957859 249.829781 
L 621.825749 250.447887 
L 610.693638 250.840795 
L 599.561528 251.007236 
L 588.429417 250.951755 
L 577.297307 250.672653 
L 566.165196 250.16693 
L 555.033085 249.435366 
L 543.900975 248.467706 
L 532.768864 247.259743 
L 521.636754 245.802984 
L 512.221702 244.367502 
L 501.227884 242.440319 
L 491.506219 240.503759 
L 482.674367 238.536823 
L 473.397608 236.248287 
L 464.120849 233.710868 
L 454.84409 230.900865 
L 447.422683 228.438129 
L 440.001276 225.763677 
L 432.579869 222.855225 
L 425.636488 219.897125 
L 419.592407 217.10844 
L 414.026352 214.342903 
L 412.171 213.377048 
M 412.171 86.034515 
L 417.737055 83.202186 
L 425.158462 79.728204 
L 431.647133 76.938608 
L 438.145925 74.349485 
L 445.567332 71.620096 
L 452.988739 69.10591 
L 462.265497 66.240132 
L 471.542256 63.650268 
L 480.819015 61.312327 
L 490.095774 59.209264 
L 499.372533 57.32296 
L 508.649291 55.641602 
L 517.92605 54.152806 
L 527.202809 52.84887 
L 538.33492 51.517447 
L 549.46703 50.431566 
L 560.599141 49.581781 
L 571.731251 48.963675 
L 582.863362 48.570767 
L 593.995472 48.404327 
L 605.127583 48.459807 
L 616.259693 48.738909 
L 627.391804 49.244633 
L 638.523915 49.976196 
L 649.656025 50.943857 
L 660.788136 52.151819 
L 671.920246 53.608579 
L 681.335298 55.04406 
L 692.329116 56.971243 
L 702.050781 58.907804 
L 710.882633 60.874739 
L 720.159392 63.163276 
L 729.436151 65.700694 
L 738.71291 68.510697 
L 746.134317 70.973434 
L 753.555724 73.647886 
L 760.977131 76.556338 
L 767.920512 79.514437 
L 773.964593 82.303122 
L 779.530648 85.068659 
L 781.386 86.034515 
L 781.386 86.034515 
" clip-path="url(#p4c6c185a1d)" style="fill: none; stroke: #b9c0d4; stroke-width: 0.8"/>
    <path d="M 781.386 227.850584 
L 773.964593 230.919456 
L 766.543186 233.758856 
L 758.386278 236.640015 
L 749.84502 239.412014 
L 740.568261 242.165743 
L 731.291503 244.675714 
L 722.014744 246.961171 
L 710.882633 249.425279 
L 701.605874 251.262475 
L 690.473764 253.22694 
L 681.197005 254.671794 
L 670.064894 256.183482 
L 658.932784 257.465798 
L 647.708034 258.534563 
L 636.668563 259.36905 
L 625.536452 260.002882 
L 614.404342 260.427585 
L 603.272231 260.648431 
L 592.140121 260.665419 
L 581.00801 260.47855 
L 569.875899 260.087823 
L 558.743789 259.489365 
L 547.611678 258.681531 
L 536.479568 257.657117 
L 525.347457 256.41231 
L 514.215347 254.939047 
L 503.083236 253.22694 
L 491.951126 251.262475 
L 482.674367 249.425279 
L 471.466294 246.943332 
L 461.075183 244.367502 
L 451.673229 241.791673 
L 443.081667 239.215844 
L 434.435221 236.389333 
L 427.013814 233.758856 
L 419.592407 230.919456 
L 412.171 227.850584 
M 412.171 71.560979 
L 419.592407 68.492107 
L 427.013814 65.652707 
L 435.170722 62.771548 
L 443.71198 59.999549 
L 452.988739 57.24582 
L 462.265497 54.735849 
L 471.542256 52.450391 
L 482.674367 49.986284 
L 491.951126 48.149087 
L 503.083236 46.184623 
L 512.359995 44.739768 
L 523.492106 43.22808 
L 534.624216 41.945764 
L 545.848966 40.877 
L 556.888437 40.042513 
L 568.020548 39.40868 
L 579.152658 38.983977 
L 590.284769 38.763132 
L 601.416879 38.746144 
L 612.54899 38.933013 
L 623.681101 39.32374 
L 634.813211 39.922197 
L 645.945322 40.730032 
L 657.077432 41.754446 
L 668.209543 42.999252 
L 679.341653 44.472516 
L 690.473764 46.184623 
L 701.605874 48.149087 
L 710.882633 49.986284 
L 722.090706 52.468231 
L 732.481817 55.04406 
L 741.883771 57.619889 
L 750.475333 60.195718 
L 759.121779 63.02223 
L 766.543186 65.652707 
L 773.964593 68.492107 
L 781.386 71.560979 
L 781.386 71.560979 
" clip-path="url(#p4c6c185a1d)" style="fill: none; stroke: #b9c0d4; stroke-width: 0.8"/>
    <path d="M 781.386 240.034008 
L 772.876702 243.079588 
L 764.687834 245.788763 
L 755.411075 248.618293 
L 746.134317 251.215656 
L 736.857558 253.598047 
L 725.725447 256.191726 
L 714.50666 258.534563 
L 703.461226 260.588434 
L 692.329116 262.424553 
L 681.197005 264.031031 
L 670.064894 265.421322 
L 658.932784 266.602555 
L 647.800673 267.581545 
L 634.813211 268.470836 
L 623.681101 269.024613 
L 610.693638 269.427822 
L 597.706176 269.574443 
L 584.718714 269.464477 
L 571.731251 269.097924 
L 560.599141 268.576704 
L 547.611678 267.724466 
L 536.479568 266.779156 
L 525.347457 265.632353 
L 514.215347 264.277263 
L 503.083236 262.706787 
L 491.951126 260.911208 
L 480.819015 258.878648 
L 471.542256 256.995557 
L 460.410146 254.493874 
L 450.749298 252.09499 
L 441.269963 249.519161 
L 432.555082 246.943332 
L 423.303111 243.968826 
L 414.026352 240.71967 
L 412.171 240.034008 
M 412.171 59.377555 
L 420.680298 56.331975 
L 428.869166 53.622799 
L 438.145925 50.793269 
L 447.422683 48.195907 
L 456.699442 45.813515 
L 467.831553 43.219837 
L 479.05034 40.877 
L 490.095774 38.823128 
L 501.227884 36.98701 
L 512.359995 35.380532 
L 523.492106 33.99024 
L 534.624216 32.809008 
L 545.756327 31.830018 
L 558.743789 30.940727 
L 569.875899 30.38695 
L 582.863362 29.983741 
L 595.850824 29.837119 
L 608.838286 29.947085 
L 621.825749 30.313639 
L 632.957859 30.834859 
L 645.945322 31.687096 
L 657.077432 32.632406 
L 668.209543 33.77921 
L 679.341653 35.134299 
L 690.473764 36.704775 
L 701.605874 38.500354 
L 712.737985 40.532915 
L 722.014744 42.416006 
L 733.146854 44.917689 
L 742.807702 47.316573 
L 752.287037 49.892402 
L 761.001918 52.468231 
L 770.253889 55.442736 
L 779.530648 58.691893 
L 781.386 59.377555 
L 781.386 59.377555 
" clip-path="url(#p4c6c185a1d)" style="fill: none; stroke: #b9c0d4; stroke-width: 0.8"/>
    <path d="M 781.386 250.761404 
L 773.226144 253.382904 
L 764.607738 255.958734 
L 753.555724 258.989825 
L 744.278965 261.318793 
L 733.146854 263.869092 
L 721.54487 266.26205 
L 710.882633 268.234776 
L 699.450788 270.125794 
L 688.618412 271.708568 
L 677.486302 273.134235 
L 666.354191 274.363044 
L 653.366729 275.555071 
L 640.379266 276.494272 
L 627.391804 277.183666 
L 614.404342 277.631306 
L 601.416879 277.837909 
L 588.429417 277.803475 
L 575.441955 277.528005 
L 562.454492 277.011497 
L 549.46703 276.250775 
L 536.479568 275.241639 
L 523.492106 273.976326 
L 510.504643 272.446746 
L 499.372533 270.919046 
L 488.240422 269.183828 
L 477.108312 267.230855 
L 465.609088 264.974136 
L 454.84409 262.626018 
L 445.567332 260.409521 
L 436.290573 258.003867 
L 427.013814 255.395216 
L 417.737055 252.568342 
L 412.171 250.761404 
M 412.171 48.650159 
L 420.330856 46.028658 
L 428.949262 43.452829 
L 440.001276 40.421737 
L 449.278035 38.092769 
L 460.410146 35.542471 
L 472.01213 33.149512 
L 482.674367 31.176786 
L 494.106212 29.285769 
L 504.938588 27.702995 
L 516.070698 26.277328 
L 527.202809 25.048518 
L 540.190271 23.856491 
L 553.177734 22.917291 
L 566.165196 22.227896 
L 579.152658 21.780256 
L 592.140121 21.573653 
L 605.127583 21.608087 
L 618.115045 21.883558 
L 631.102508 22.400065 
L 644.08997 23.160787 
L 657.077432 24.169923 
L 670.064894 25.435236 
L 683.052357 26.964816 
L 694.184467 28.492516 
L 705.316578 30.227735 
L 716.448688 32.180707 
L 727.947912 34.437427 
L 738.71291 36.785544 
L 747.989668 39.002042 
L 757.266427 41.407696 
L 766.543186 44.016347 
L 775.819945 46.84322 
L 781.386 48.650159 
L 781.386 48.650159 
" clip-path="url(#p4c6c185a1d)" style="fill: none; stroke: #b9c0d4; stroke-width: 0.8"/>
    <path d="M 490.640012 277.853281 
L 478.963663 275.979475 
L 467.831553 273.983453 
L 456.699442 271.767032 
L 445.567332 269.322097 
L 434.435221 266.633647 
L 425.158462 264.194146 
L 415.881704 261.561758 
L 412.171 260.451453 
M 781.386 260.451453 
L 772.109241 263.165058 
L 762.832482 265.680023 
L 753.555724 268.009304 
L 742.423613 270.574032 
L 731.291503 272.902938 
L 720.159392 275.007707 
L 709.027281 276.900349 
L 702.916988 277.853281 
M 412.171 38.96011 
L 421.447759 36.246504 
L 430.724518 33.731539 
L 440.001276 31.402259 
L 451.133387 28.83753 
L 462.265497 26.508624 
L 473.397608 24.403856 
L 484.529719 22.511213 
L 490.640012 21.558281 
M 702.916988 21.558281 
L 714.593337 23.432087 
L 725.725447 25.428109 
L 736.857558 27.64453 
L 747.989668 30.089466 
L 759.121779 32.777916 
L 768.398538 35.217417 
L 777.675296 37.849805 
L 781.386 38.96011 
L 781.386 38.96011 
" clip-path="url(#p4c6c185a1d)" style="fill: none; stroke: #b9c0d4; stroke-width: 0.8"/>
    <path d="M 446.674017 277.853281 
L 445.567332 277.615614 
L 443.71198 277.212246 
L 441.856628 276.803959 
L 440.785315 276.565367 
L 440.001276 276.388971 
L 438.145925 275.96658 
L 436.290573 275.539219 
L 435.167197 275.277452 
L 434.435221 275.10513 
L 432.579869 274.663322 
L 430.724518 274.216494 
L 429.792604 273.989538 
L 428.869166 273.762303 
L 427.013814 273.300674 
L 425.158462 272.833973 
L 424.637969 272.701623 
L 423.303111 272.358626 
L 421.447759 271.876759 
L 419.683621 271.413708 
L 419.592407 271.389512 
L 417.737055 270.892158 
L 415.881704 270.389623 
L 414.917591 270.125794 
L 414.026352 269.879284 
L 412.171 269.360873 
M 781.386 269.360873 
L 779.530648 269.879284 
L 778.639409 270.125794 
L 777.675296 270.389623 
L 775.819945 270.892158 
L 773.964593 271.389512 
L 773.873379 271.413708 
L 772.109241 271.876759 
L 770.253889 272.358626 
L 768.919031 272.701623 
L 768.398538 272.833973 
L 766.543186 273.300674 
L 764.687834 273.762303 
L 763.764396 273.989538 
L 762.832482 274.216494 
L 760.977131 274.663322 
L 759.121779 275.10513 
L 758.389803 275.277452 
L 757.266427 275.539219 
L 755.411075 275.96658 
L 753.555724 276.388971 
L 752.771685 276.565367 
L 751.700372 276.803959 
L 749.84502 277.212246 
L 747.989668 277.615614 
L 746.882983 277.853281 
M 412.171 30.05069 
L 414.026352 29.532278 
L 414.917591 29.285769 
L 415.881704 29.02194 
L 417.737055 28.519405 
L 419.592407 28.022051 
L 419.683621 27.997854 
L 421.447759 27.534803 
L 423.303111 27.052937 
L 424.637969 26.70994 
L 425.158462 26.57759 
L 427.013814 26.110888 
L 428.869166 25.64926 
L 429.792604 25.422025 
L 430.724518 25.195068 
L 432.579869 24.74824 
L 434.435221 24.306432 
L 435.167197 24.13411 
L 436.290573 23.872344 
L 438.145925 23.444983 
L 440.001276 23.022591 
L 440.785315 22.846196 
L 441.856628 22.607603 
L 443.71198 22.199317 
L 445.567332 21.795949 
L 446.674017 21.558281 
M 746.882983 21.558281 
L 747.989668 21.795949 
L 749.84502 22.199317 
L 751.700372 22.607603 
L 752.771685 22.846196 
L 753.555724 23.022591 
L 755.411075 23.444983 
L 757.266427 23.872344 
L 758.389803 24.13411 
L 759.121779 24.306432 
L 760.977131 24.74824 
L 762.832482 25.195068 
L 763.764396 25.422025 
L 764.687834 25.64926 
L 766.543186 26.110888 
L 768.398538 26.57759 
L 768.919031 26.70994 
L 770.253889 27.052937 
L 772.109241 27.534803 
L 773.873379 27.997854 
L 773.964593 28.022051 
L 775.819945 28.519405 
L 777.675296 29.02194 
L 778.639409 29.285769 
L 779.530648 29.532278 
L 781.386 30.05069 
" clip-path="url(#p4c6c185a1d)" style="fill: none; stroke: #b9c0d4; stroke-width: 0.8"/>
    <path d="M 412.937694 277.853281 
L 412.171 277.65204 
M 781.386 277.65204 
L 780.619306 277.853281 
M 412.171 21.759523 
L 412.937694 21.558281 
M 780.619306 21.558281 
L 781.386 21.759523 
" clip-path="url(#p4c6c185a1d)" style="fill: none; stroke: #b9c0d4; stroke-width: 0.8"/>
    <path clip-path="url(#p4c6c185a1d)" style="fill: none; stroke: #b9c0d4; stroke-width: 0.8"/>
   </g>
   <g id="line2d_3">
    <path d="M 437.34475 56.798844 
L 452.012655 227.747609 
L 465.331113 84.150646 
L 477.424272 204.772095 
L 488.404861 103.450078 
L 498.375236 188.560572 
L 507.428336 117.067757 
L 515.648551 177.121722 
L 523.112507 126.676391 
L 529.889778 169.050469 
L 536.04354 133.456244 
L 541.631157 163.355393 
L 546.704712 138.240108 
L 551.311501 159.336947 
L 555.494465 141.615602 
L 559.292596 156.501532 
L 562.741299 143.997351 
" clip-path="url(#p4c6c185a1d)" style="fill: none; stroke: #c00000; stroke-width: 1.3"/>
    <g clip-path="url(#p4c6c185a1d)">
     <use xlink:href="#mf41bcf4fb8" x="437.34475" y="56.798844" style="fill: #c00000; stroke: #c00000"/>
     <use xlink:href="#mf41bcf4fb8" x="452.012655" y="227.747609" style="fill: #c00000; stroke: #c00000"/>
     <use xlink:href="#mf41bcf4fb8" x="465.331113" y="84.150646" style="fill: #c00000; stroke: #c00000"/>
     <use xlink:href="#mf41bcf4fb8" x="477.424272" y="204.772095" style="fill: #c00000; stroke: #c00000"/>
     <use xlink:href="#mf41bcf4fb8" x="488.404861" y="103.450078" style="fill: #c00000; stroke: #c00000"/>
     <use xlink:href="#mf41bcf4fb8" x="498.375236" y="188.560572" style="fill: #c00000; stroke: #c00000"/>
     <use xlink:href="#mf41bcf4fb8" x="507.428336" y="117.067757" style="fill: #c00000; stroke: #c00000"/>
     <use xlink:href="#mf41bcf4fb8" x="515.648551" y="177.121722" style="fill: #c00000; stroke: #c00000"/>
     <use xlink:href="#mf41bcf4fb8" x="523.112507" y="126.676391" style="fill: #c00000; stroke: #c00000"/>
     <use xlink:href="#mf41bcf4fb8" x="529.889778" y="169.050469" style="fill: #c00000; stroke: #c00000"/>
     <use xlink:href="#mf41bcf4fb8" x="536.04354" y="133.456244" style="fill: #c00000; stroke: #c00000"/>
     <use xlink:href="#mf41bcf4fb8" x="541.631157" y="163.355393" style="fill: #c00000; stroke: #c00000"/>
     <use xlink:href="#mf41bcf4fb8" x="546.704712" y="138.240108" style="fill: #c00000; stroke: #c00000"/>
     <use xlink:href="#mf41bcf4fb8" x="551.311501" y="159.336947" style="fill: #c00000; stroke: #c00000"/>
     <use xlink:href="#mf41bcf4fb8" x="555.494465" y="141.615602" style="fill: #c00000; stroke: #c00000"/>
     <use xlink:href="#mf41bcf4fb8" x="559.292596" y="156.501532" style="fill: #c00000; stroke: #c00000"/>
     <use xlink:href="#mf41bcf4fb8" x="562.741299" y="143.997351" style="fill: #c00000; stroke: #c00000"/>
    </g>
   </g>
   <g id="line2d_4">
    <path d="M 596.7785 149.705781 
" clip-path="url(#p4c6c185a1d)" style="fill: none; stroke: #0e7490; stroke-width: 4"/>
    <g clip-path="url(#p4c6c185a1d)">
     <use xlink:href="#mdd29ee4e2d" x="596.7785" y="149.705781" style="fill: #0e7490; stroke: #0e7490; stroke-linejoin: bevel"/>
    </g>
   </g>
   <g id="patch_8">
    <path d="M 412.171 277.853281 
L 412.171 21.558281 
" style="fill: none; stroke: #f0f0f0; stroke-width: 3; stroke-linejoin: miter; stroke-linecap: square"/>
   </g>
   <g id="patch_9">
    <path d="M 781.386 277.853281 
L 781.386 21.558281 
" style="fill: none; stroke: #f0f0f0; stroke-width: 3; stroke-linejoin: miter; stroke-linecap: square"/>
   </g>
   <g id="patch_10">
    <path d="M 412.171 277.853281 
L 781.386 277.853281 
" style="fill: none; stroke: #f0f0f0; stroke-width: 3; stroke-linejoin: miter; stroke-linecap: square"/>
   </g>
   <g id="patch_11">
    <path d="M 412.171 21.558281 
L 781.386 21.558281 
" style="fill: none; stroke: #f0f0f0; stroke-width: 3; stroke-linejoin: miter; stroke-linecap: square"/>
   </g>
   <g id="text_6">
    <!-- Learning rate too large -->
    <g style="fill: #808080" transform="translate(533.658266 15.558281) scale(0.11 -0.11)">
     <use xlink:href="#DejaVuSans-4c"/>
     <use xlink:href="#DejaVuSans-65" transform="translate(53.962891 0)"/>
     <use xlink:href="#DejaVuSans-61" transform="translate(115.486328 0)"/>
     <use xlink:href="#DejaVuSans-72" transform="translate(176.765625 0)"/>
     <use xlink:href="#DejaVuSans-6e" transform="translate(216.128906 0)"/>
     <use xlink:href="#DejaVuSans-69" transform="translate(279.507812 0)"/>
     <use xlink:href="#DejaVuSans-6e" transform="translate(307.291016 0)"/>
     <use xlink:href="#DejaVuSans-67" transform="translate(370.669922 0)"/>
     <use xlink:href="#DejaVuSans-20" transform="translate(434.146484 0)"/>
     <use xlink:href="#DejaVuSans-72" transform="translate(465.933594 0)"/>
     <use xlink:href="#DejaVuSans-61" transform="translate(507.046875 0)"/>
     <use xlink:href="#DejaVuSans-74" transform="translate(568.326172 0)"/>
     <use xlink:href="#DejaVuSans-65" transform="translate(607.535156 0)"/>
     <use xlink:href="#DejaVuSans-20" transform="translate(669.058594 0)"/>
     <use xlink:href="#DejaVuSans-74" transform="translate(700.845703 0)"/>
     <use xlink:href="#DejaVuSans-6f" transform="translate(740.054688 0)"/>
     <use xlink:href="#DejaVuSans-6f" transform="translate(801.236328 0)"/>
     <use xlink:href="#DejaVuSans-20" transform="translate(862.417969 0)"/>
     <use xlink:href="#DejaVuSans-6c" transform="translate(894.205078 0)"/>
     <use xlink:href="#DejaVuSans-61" transform="translate(921.988281 0)"/>
     <use xlink:href="#DejaVuSans-72" transform="translate(983.267578 0)"/>
     <use xlink:href="#DejaVuSans-67" transform="translate(1022.630859 0)"/>
     <use xlink:href="#DejaVuSans-65" transform="translate(1086.107422 0)"/>
    </g>
   </g>
  </g>
 </g>
 <defs>
  <clipPath id="p702f480b72">
   <rect x="20.491" y="21.558281" width="369.215" height="256.295"/>
  </clipPath>
  <clipPath id="p4c6c185a1d">
   <rect x="412.171" y="21.558281" width="369.215" height="256.295"/>
  </clipPath>
 </defs>
</svg>
