<?xml version="1.0" encoding="utf-8" standalone="no"?>
<!DOCTYPE svg PUBLIC "-//W3C//DTD SVG 1.1//EN"
  "http://www.w3.org/Graphics/SVG/1.1/DTD/svg11.dtd">
<svg xmlns:xlink="http://www.w3.org/1999/xlink" width="780.1665pt" height="289.924781pt" viewBox="0 0 780.1665 289.924781" xmlns="http://www.w3.org/2000/svg" version="1.1">
 <metadata>
  <rdf:RDF xmlns:dc="http://purl.org/dc/elements/1.1/" xmlns:cc="http://creativecommons.org/ns#" xmlns:rdf="http://www.w3.org/1999/02/22-rdf-syntax-ns#">
   <cc:Work>
    <dc:type rdf:resource="http://purl.org/dc/dcmitype/StillImage"/>
    <dc:date>2026-07-15T16:06:05.072244</dc:date>
    <dc:format>image/svg+xml</dc:format>
    <dc:creator>
     <cc:Agent>
      <dc:title>Matplotlib v3.10.8, https://matplotlib.org/</dc:title>
     </cc:Agent>
    </dc:creator>
   </cc:Work>
  </rdf:RDF>
 </metadata>
 <defs>
  <style type="text/css">*{stroke-linejoin: round; stroke-linecap: butt}</style>
 </defs>
 <g id="figure_1">
  <g id="patch_1">
   <path d="M 0 289.924781 
L 780.1665 289.924781 
L 780.1665 0 
L 0 0 
z
" style="fill: #ffffff"/>
  </g>
  <g id="axes_1">
   <g id="patch_2">
    <path d="M 25.1365 264.788281 
L 383.4465 264.788281 
L 383.4465 21.558281 
L 25.1365 21.558281 
z
" style="fill: #ffffff"/>
   </g>
   <g id="matplotlib.axis_1">
    <g id="text_1">
     <!-- $w_1$ -->
     <g transform="translate(194.9315 279.730031) scale(0.144 -0.144)">
      <defs>
       <path id="DejaVuSans-Oblique-77" d="M 544 3500 
L 1113 3500 
L 1259 684 
L 2566 3500 
L 3231 3500 
L 3425 684 
L 4666 3500 
L 5241 3500 
L 3641 0 
L 2969 0 
L 2797 2900 
L 1459 0 
L 781 0 
L 544 3500 
z
" transform="scale(0.015625)"/>
       <path id="DejaVuSans-31" d="M 794 531 
L 1825 531 
L 1825 4091 
L 703 3866 
L 703 4441 
L 1819 4666 
L 2450 4666 
L 2450 531 
L 3481 531 
L 3481 0 
L 794 0 
L 794 531 
z
" transform="scale(0.015625)"/>
      </defs>
      <use xlink:href="#DejaVuSans-Oblique-77" transform="translate(0 0.3125)"/>
      <use xlink:href="#DejaVuSans-31" transform="translate(81.787109 -16.09375) scale(0.7)"/>
     </g>
    </g>
   </g>
   <g id="matplotlib.axis_2">
    <g id="text_2">
     <!-- $w_2$ -->
     <g transform="translate(18.14175 152.533281) rotate(-90) scale(0.144 -0.144)">
      <defs>
       <path id="DejaVuSans-32" d="M 1228 531 
L 3431 531 
L 3431 0 
L 469 0 
L 469 531 
Q 828 903 1448 1529 
Q 2069 2156 2228 2338 
Q 2531 2678 2651 2914 
Q 2772 3150 2772 3378 
Q 2772 3750 2511 3984 
Q 2250 4219 1831 4219 
Q 1534 4219 1204 4116 
Q 875 4013 500 3803 
L 500 4441 
Q 881 4594 1212 4672 
Q 1544 4750 1819 4750 
Q 2544 4750 2975 4387 
Q 3406 4025 3406 3419 
Q 3406 3131 3298 2873 
Q 3191 2616 2906 2266 
Q 2828 2175 2409 1742 
Q 1991 1309 1228 531 
z
" transform="scale(0.015625)"/>
      </defs>
      <use xlink:href="#DejaVuSans-Oblique-77" transform="translate(0 0.3125)"/>
      <use xlink:href="#DejaVuSans-32" transform="translate(81.787109 -16.09375) scale(0.7)"/>
     </g>
    </g>
   </g>
   <g id="QuadContourSet_1">
    <path clip-path="url(#p21f77746e2)" style="fill: none; stroke: #b9c0d4; stroke-width: 0.8"/>
    <path d="M 185.385696 185.438954 
L 178.183485 184.762169 
L 170.981274 183.857322 
L 163.779063 182.703035 
L 156.576852 181.275167 
L 151.175193 180.008529 
L 145.773535 178.553251 
L 140.057783 176.785467 
L 134.970219 174.971008 
L 130.378328 173.118683 
L 125.967455 171.093296 
L 122.366349 169.232706 
L 118.560054 167.007377 
L 114.936502 164.562854 
L 111.563033 161.890144 
L 109.175152 159.673809 
L 106.948152 157.229286 
L 105.115708 154.784764 
L 103.656684 152.340241 
L 102.551425 149.895718 
L 101.799563 147.451196 
L 101.381862 145.006673 
L 101.298322 142.562151 
L 101.548943 140.117628 
L 102.133724 137.673105 
L 103.061459 135.228583 
L 104.360822 132.745918 
L 106.161374 130.108671 
L 108.007166 127.895015 
L 110.445879 125.450492 
L 113.363585 122.971172 
L 116.964691 120.37371 
L 120.582335 118.116924 
L 125.113892 115.672402 
L 129.56856 113.58296 
L 133.333782 112.005618 
L 138.571324 110.069823 
L 143.972982 108.319226 
L 149.374641 106.800201 
L 154.776299 105.473928 
L 161.97851 103.97571 
L 169.180721 102.755337 
L 176.382932 101.788291 
L 184.175125 101.005266 
L 190.787354 100.551079 
L 197.989565 100.260573 
L 205.191776 100.181345 
L 212.393987 100.313393 
L 219.596198 100.656717 
L 226.79841 101.217379 
L 234.000621 102.005782 
L 241.202832 103.035438 
L 248.405043 104.322336 
L 253.806701 105.473928 
L 260.401147 107.116573 
L 266.41057 108.879729 
L 272.034214 110.783357 
L 277.213887 112.810802 
L 280.941953 114.450141 
L 285.81814 116.894663 
L 289.817756 119.212782 
L 291.901914 120.561447 
L 295.264603 123.00597 
L 298.137121 125.450492 
L 300.621073 127.946301 
L 302.601512 130.339538 
L 304.24606 132.78406 
L 305.521541 135.228583 
L 306.449276 137.673105 
L 307.034057 140.117628 
L 307.284678 142.562151 
L 307.201138 145.006673 
L 306.783437 147.451196 
L 306.022731 149.917283 
L 304.926316 152.340241 
L 303.467292 154.784764 
L 301.634848 157.229286 
L 299.407848 159.673809 
L 296.758499 162.118332 
L 293.418862 164.725159 
L 289.817756 167.133781 
L 285.81814 169.451899 
L 280.814992 171.95481 
L 275.249218 174.340945 
L 270.011676 176.27674 
L 264.610018 178.027337 
L 259.208359 179.546361 
L 253.806701 180.872634 
L 246.60449 182.370852 
L 239.402279 183.591226 
L 232.200068 184.558271 
L 224.407875 185.341296 
L 217.795646 185.795484 
L 210.593435 186.085989 
L 203.391224 186.165218 
L 196.189013 186.03317 
L 188.986802 185.689845 
L 185.385696 185.438954 
L 185.385696 185.438954 
" clip-path="url(#p21f77746e2)" style="fill: none; stroke: #b9c0d4; stroke-width: 0.8"/>
    <path d="M 190.787354 203.71852 
L 181.78459 203.247804 
L 172.781827 202.540405 
L 165.579616 201.791205 
L 156.576852 200.623128 
L 149.374641 199.491119 
L 142.17243 198.171634 
L 134.970219 196.65189 
L 127.768008 194.913119 
L 120.565796 192.931416 
L 115.164138 191.269447 
L 107.961927 188.7855 
L 102.236844 186.563558 
L 96.596899 184.119035 
L 91.539205 181.674512 
L 86.355294 178.862505 
L 82.754188 176.694487 
L 79.153083 174.301202 
L 75.551977 171.623883 
L 72.926494 169.451899 
L 70.150319 166.882713 
L 67.929805 164.562854 
L 65.871107 162.118332 
L 64.086307 159.673809 
L 62.565003 157.229286 
L 61.147555 154.443072 
L 60.285434 152.340241 
L 59.511642 149.895718 
L 58.980522 147.451196 
L 58.686584 145.006673 
L 58.627796 142.562151 
L 58.804159 140.117628 
L 59.347003 137.127003 
L 59.868777 135.228583 
L 60.761613 132.78406 
L 61.901969 130.339538 
L 63.292675 127.895015 
L 64.943486 125.450492 
L 66.864668 123.00597 
L 69.067036 120.561447 
L 71.950872 117.765183 
L 74.370029 115.672402 
L 77.50774 113.227879 
L 81.004213 110.783357 
L 84.892063 108.338834 
L 89.956399 105.497708 
L 94.000538 103.449789 
L 99.337881 101.005266 
L 105.309156 98.560744 
L 111.563033 96.278163 
L 116.964691 94.506381 
L 124.166902 92.390791 
L 131.369113 90.536556 
L 139.16288 88.782653 
L 147.574088 87.166904 
L 154.776299 85.988935 
L 163.779063 84.767185 
L 172.781827 83.806157 
L 181.78459 83.098758 
L 190.787354 82.628042 
L 199.790118 82.396958 
L 208.792882 82.396958 
L 217.795646 82.628042 
L 226.79841 83.098758 
L 235.801173 83.806157 
L 243.003384 84.555358 
L 252.006148 85.723434 
L 259.208359 86.855443 
L 266.41057 88.174928 
L 273.612781 89.694672 
L 280.814992 91.433444 
L 288.017204 93.415147 
L 293.418862 95.077115 
L 300.621073 97.561062 
L 306.346156 99.783005 
L 311.986101 102.227527 
L 317.043795 104.67205 
L 322.227706 107.484058 
L 325.828812 109.652075 
L 329.429917 112.045361 
L 333.031023 114.722679 
L 335.656506 116.894663 
L 338.432681 119.463849 
L 340.653195 121.783708 
L 342.711893 124.228231 
L 344.496693 126.672754 
L 346.017997 129.117276 
L 347.435445 131.903491 
L 348.297566 134.006321 
L 349.071358 136.450844 
L 349.602478 138.895367 
L 349.896416 141.339889 
L 349.955204 143.784412 
L 349.778841 146.228935 
L 349.235997 149.21956 
L 348.714223 151.11798 
L 347.821387 153.562502 
L 346.681031 156.007025 
L 345.290325 158.451548 
L 343.639514 160.89607 
L 341.718332 163.340593 
L 339.515964 165.785115 
L 336.632128 168.581379 
L 334.212971 170.674161 
L 331.07526 173.118683 
L 327.578787 175.563206 
L 323.690937 178.007728 
L 318.626601 180.848855 
L 314.582462 182.896774 
L 309.245119 185.341296 
L 303.273844 187.785819 
L 297.019967 190.068399 
L 291.618309 191.840181 
L 284.416098 193.955772 
L 277.213887 195.810007 
L 269.42012 197.563909 
L 261.008912 199.179659 
L 253.806701 200.357628 
L 244.803937 201.579378 
L 235.801173 202.540405 
L 226.79841 203.247804 
L 217.795646 203.71852 
L 208.792882 203.949604 
L 199.790118 203.949604 
L 190.787354 203.71852 
L 190.787354 203.71852 
" clip-path="url(#p21f77746e2)" style="fill: none; stroke: #b9c0d4; stroke-width: 0.8"/>
    <path d="M 183.585143 217.143501 
L 183.121519 217.12009 
L 181.78459 217.051457 
L 179.984038 216.951321 
L 178.183485 216.843482 
L 176.382932 216.72794 
L 174.582379 216.604695 
L 172.781827 216.473748 
L 170.981274 216.335098 
L 169.180721 216.188745 
L 167.380168 216.034689 
L 165.856767 215.897829 
L 165.579616 215.872508 
L 163.779063 215.700175 
L 161.97851 215.520007 
L 160.177957 215.332007 
L 158.377405 215.136173 
L 156.576852 214.932506 
L 154.776299 214.721006 
L 154.403287 214.675568 
L 152.975746 214.498674 
L 151.175193 214.26759 
L 149.374641 214.028538 
L 147.574088 213.781517 
L 145.773535 213.526528 
L 145.27216 213.453306 
L 143.972982 213.260242 
L 142.17243 212.984563 
L 140.371877 212.700776 
L 138.571324 212.408881 
L 137.503993 212.231045 
L 136.770771 212.106696 
L 134.970219 211.793082 
L 133.169666 211.471216 
L 131.369113 211.141096 
L 130.665052 211.008784 
L 129.56856 210.798977 
L 127.768008 210.446049 
L 125.967455 210.084718 
L 124.515286 209.786522 
L 124.166902 209.713659 
L 122.366349 209.328519 
L 120.565796 208.934821 
L 118.907124 208.564261 
L 118.765244 208.531966 
L 116.964691 208.113399 
L 115.164138 207.686112 
L 113.743078 207.342 
L 113.363585 207.248338 
L 111.563033 206.795058 
L 109.76248 206.332891 
L 108.947732 206.119739 
L 107.961927 205.856778 
L 106.161374 205.367424 
L 104.463667 204.897477 
L 104.360822 204.868439 
L 102.560269 204.350811 
L 100.759716 203.82394 
L 100.260222 203.675216 
L 98.959163 203.27992 
L 97.158611 202.723433 
L 96.298047 202.452955 
L 95.358058 202.151358 
L 93.557505 201.56402 
L 92.552134 201.230693 
L 91.756952 200.961444 
L 89.956399 200.341943 
L 89.00221 200.008432 
L 88.155847 199.706178 
L 86.355294 199.053115 
L 85.630456 198.786171 
L 84.554741 198.381201 
L 82.754188 197.693085 
L 82.421153 197.563909 
L 80.953636 196.981762 
L 79.363379 196.341648 
L 79.153083 196.255031 
L 77.35253 195.502665 
L 76.448193 195.119387 
L 75.551977 194.730507 
L 73.751425 193.93822 
L 73.659313 193.897125 
L 71.950872 193.116339 
L 70.997935 192.674864 
L 70.150319 192.272365 
L 68.447011 191.452603 
L 68.349766 191.404601 
L 66.549214 190.503967 
L 66.009284 190.230342 
L 64.748661 189.57467 
L 63.673275 189.00808 
L 62.948108 188.615684 
L 61.433889 187.785819 
L 61.147555 187.624535 
L 59.347003 186.597496 
L 59.288238 186.563558 
L 57.54645 185.528878 
L 57.234524 185.341296 
L 55.745897 184.419756 
L 55.265975 184.119035 
L 53.945344 183.266447 
L 53.379549 182.896774 
L 52.144791 182.064809 
L 51.572348 181.674512 
L 50.344239 180.810166 
L 49.841607 180.452251 
L 48.543686 179.497216 
L 48.184691 179.22999 
L 46.743133 178.119928 
L 46.599083 178.007728 
L 45.083967 176.785467 
L 44.94258 176.667184 
L 43.63779 175.563206 
L 43.142028 175.12761 
L 42.256653 174.340945 
L 41.341475 173.495273 
L 40.938411 173.118683 
L 39.682554 171.896422 
L 39.540922 171.752586 
L 38.490566 170.674161 
L 37.740369 169.868905 
L 37.356054 169.451899 
L 36.28081 168.229638 
L 35.939817 167.822639 
L 35.264035 167.007377 
L 34.301545 165.785115 
L 34.139264 165.567586 
L 33.397603 164.562854 
L 32.545493 163.340593 
L 32.338711 163.025449 
L 31.749707 162.118332 
L 31.005677 160.89607 
L 30.538158 160.073192 
L 30.313588 159.673809 
L 29.675409 158.451548 
L 29.086322 157.229286 
L 28.737606 156.439982 
L 28.548276 156.007025 
L 28.062379 154.784764 
L 27.625072 153.562502 
L 27.236354 152.340241 
L 26.937053 151.264692 
L 26.896638 151.11798 
L 26.608045 149.895718 
L 26.36755 148.673457 
L 26.175155 147.451196 
L 26.030858 146.228935 
L 25.93466 145.006673 
L 25.886561 143.784412 
L 25.886561 142.562151 
L 25.93466 141.339889 
L 26.030858 140.117628 
L 26.175155 138.895367 
L 26.36755 137.673105 
L 26.608045 136.450844 
L 26.896638 135.228583 
L 26.937053 135.08187 
L 27.236354 134.006321 
L 27.625072 132.78406 
L 28.062379 131.561799 
L 28.548276 130.339538 
L 28.737606 129.906581 
L 29.086322 129.117276 
L 29.675409 127.895015 
L 30.313588 126.672754 
L 30.538158 126.27337 
L 31.005677 125.450492 
L 31.749707 124.228231 
L 32.338711 123.321114 
L 32.545493 123.00597 
L 33.397603 121.783708 
L 34.139264 120.778977 
L 34.301545 120.561447 
L 35.264035 119.339186 
L 35.939817 118.523923 
L 36.28081 118.116924 
L 37.356054 116.894663 
L 37.740369 116.477658 
L 38.490566 115.672402 
L 39.540922 114.593976 
L 39.682554 114.450141 
L 40.938411 113.227879 
L 41.341475 112.851289 
L 42.256653 112.005618 
L 43.142028 111.218952 
L 43.63779 110.783357 
L 44.94258 109.679378 
L 45.083967 109.561095 
L 46.599083 108.338834 
L 46.743133 108.226634 
L 48.184691 107.116573 
L 48.543686 106.849346 
L 49.841607 105.894311 
L 50.344239 105.536396 
L 51.572348 104.67205 
L 52.144791 104.281753 
L 53.379549 103.449789 
L 53.945344 103.080116 
L 55.265975 102.227527 
L 55.745897 101.926807 
L 57.234524 101.005266 
L 57.54645 100.817685 
L 59.288238 99.783005 
L 59.347003 99.749066 
L 61.147555 98.722027 
L 61.433889 98.560744 
L 62.948108 97.730878 
L 63.673275 97.338482 
L 64.748661 96.771892 
L 66.009284 96.116221 
L 66.549214 95.842596 
L 68.349766 94.941961 
L 68.447011 94.89396 
L 70.150319 94.074197 
L 70.997935 93.671698 
L 71.950872 93.230224 
L 73.659313 92.449437 
L 73.751425 92.408343 
L 75.551977 91.616055 
L 76.448193 91.227176 
L 77.35253 90.843898 
L 79.153083 90.091532 
L 79.363379 90.004914 
L 80.953636 89.364801 
L 82.421153 88.782653 
L 82.754188 88.653477 
L 84.554741 87.965361 
L 85.630456 87.560392 
L 86.355294 87.293448 
L 88.155847 86.640385 
L 89.00221 86.33813 
L 89.956399 86.004619 
L 91.756952 85.385118 
L 92.552134 85.115869 
L 93.557505 84.782542 
L 95.358058 84.195204 
L 96.298047 83.893608 
L 97.158611 83.62313 
L 98.959163 83.066642 
L 100.260222 82.671347 
L 100.759716 82.522622 
L 102.560269 81.995751 
L 104.360822 81.478124 
L 104.463667 81.449085 
L 106.161374 80.979138 
L 107.961927 80.489784 
L 108.947732 80.226824 
L 109.76248 80.013672 
L 111.563033 79.551504 
L 113.363585 79.098225 
L 113.743078 79.004563 
L 115.164138 78.66045 
L 116.964691 78.233163 
L 118.765244 77.814597 
L 118.907124 77.782301 
L 120.565796 77.411742 
L 122.366349 77.018043 
L 124.166902 76.632904 
L 124.515286 76.56004 
L 125.967455 76.261845 
L 127.768008 75.900514 
L 129.56856 75.547586 
L 130.665052 75.337779 
L 131.369113 75.205467 
L 133.169666 74.875347 
L 134.970219 74.55348 
L 136.770771 74.239866 
L 137.503993 74.115517 
L 138.571324 73.937681 
L 140.371877 73.645786 
L 142.17243 73.361999 
L 143.972982 73.08632 
L 145.27216 72.893256 
L 145.773535 72.820034 
L 147.574088 72.565045 
L 149.374641 72.318024 
L 151.175193 72.078972 
L 152.975746 71.847888 
L 154.403287 71.670995 
L 154.776299 71.625557 
L 156.576852 71.414056 
L 158.377405 71.210389 
L 160.177957 71.014555 
L 161.97851 70.826555 
L 163.779063 70.646388 
L 165.579616 70.474054 
L 165.856767 70.448734 
L 167.380168 70.311874 
L 169.180721 70.157818 
L 170.981274 70.011465 
L 172.781827 69.872814 
L 174.582379 69.741867 
L 176.382932 69.618622 
L 178.183485 69.50308 
L 179.984038 69.395241 
L 181.78459 69.295105 
L 183.121519 69.226472 
L 183.585143 69.203062 
L 185.385696 69.11972 
L 187.186249 69.043955 
L 188.986802 68.975766 
L 190.787354 68.915154 
L 192.587907 68.862118 
L 194.38846 68.816659 
L 196.189013 68.778777 
L 197.989565 68.748471 
L 199.790118 68.725741 
L 201.590671 68.710588 
L 203.391224 68.703012 
L 205.191776 68.703012 
L 206.992329 68.710588 
L 208.792882 68.725741 
L 210.593435 68.748471 
L 212.393987 68.778777 
L 214.19454 68.816659 
L 215.995093 68.862118 
L 217.795646 68.915154 
L 219.596198 68.975766 
L 221.396751 69.043955 
L 223.197304 69.11972 
L 224.997857 69.203062 
L 225.461481 69.226472 
L 226.79841 69.295105 
L 228.598962 69.395241 
L 230.399515 69.50308 
L 232.200068 69.618622 
L 234.000621 69.741867 
L 235.801173 69.872814 
L 237.601726 70.011465 
L 239.402279 70.157818 
L 241.202832 70.311874 
L 242.726233 70.448734 
L 243.003384 70.474054 
L 244.803937 70.646388 
L 246.60449 70.826555 
L 248.405043 71.014555 
L 250.205595 71.210389 
L 252.006148 71.414056 
L 253.806701 71.625557 
L 254.179713 71.670995 
L 255.607254 71.847888 
L 257.407807 72.078972 
L 259.208359 72.318024 
L 261.008912 72.565045 
L 262.809465 72.820034 
L 263.31084 72.893256 
L 264.610018 73.08632 
L 266.41057 73.361999 
L 268.211123 73.645786 
L 270.011676 73.937681 
L 271.079007 74.115517 
L 271.812229 74.239866 
L 273.612781 74.55348 
L 275.413334 74.875347 
L 277.213887 75.205467 
L 277.917948 75.337779 
L 279.01444 75.547586 
L 280.814992 75.900514 
L 282.615545 76.261845 
L 284.067714 76.56004 
L 284.416098 76.632904 
L 286.216651 77.018043 
L 288.017204 77.411742 
L 289.675876 77.782301 
L 289.817756 77.814597 
L 291.618309 78.233163 
L 293.418862 78.66045 
L 294.839922 79.004563 
L 295.219415 79.098225 
L 297.019967 79.551504 
L 298.82052 80.013672 
L 299.635268 80.226824 
L 300.621073 80.489784 
L 302.421626 80.979138 
L 304.119333 81.449085 
L 304.222178 81.478124 
L 306.022731 81.995751 
L 307.823284 82.522622 
L 308.322778 82.671347 
L 309.623837 83.066642 
L 311.424389 83.62313 
L 312.284953 83.893608 
L 313.224942 84.195204 
L 315.025495 84.782542 
L 316.030866 85.115869 
L 316.826048 85.385118 
L 318.626601 86.004619 
L 319.58079 86.33813 
L 320.427153 86.640385 
L 322.227706 87.293448 
L 322.952544 87.560392 
L 324.028259 87.965361 
L 325.828812 88.653477 
L 326.161847 88.782653 
L 327.629364 89.364801 
L 329.219621 90.004914 
L 329.429917 90.091532 
L 331.23047 90.843898 
L 332.134807 91.227176 
L 333.031023 91.616055 
L 334.831575 92.408343 
L 334.923687 92.449437 
L 336.632128 93.230224 
L 337.585065 93.671698 
L 338.432681 94.074197 
L 340.135989 94.89396 
L 340.233234 94.941961 
L 342.033786 95.842596 
L 342.573716 96.116221 
L 343.834339 96.771892 
L 344.909725 97.338482 
L 345.634892 97.730878 
L 347.149111 98.560744 
L 347.435445 98.722027 
L 349.235997 99.749066 
L 349.294762 99.783005 
L 351.03655 100.817685 
L 351.348476 101.005266 
L 352.837103 101.926807 
L 353.317025 102.227527 
L 354.637656 103.080116 
L 355.203451 103.449789 
L 356.438209 104.281753 
L 357.010652 104.67205 
L 358.238761 105.536396 
L 358.741393 105.894311 
L 360.039314 106.849346 
L 360.398309 107.116573 
L 361.839867 108.226634 
L 361.983917 108.338834 
L 363.499033 109.561095 
L 363.64042 109.679378 
L 364.94521 110.783357 
L 365.440972 111.218952 
L 366.326347 112.005618 
L 367.241525 112.851289 
L 367.644589 113.227879 
L 368.900446 114.450141 
L 369.042078 114.593976 
L 370.092434 115.672402 
L 370.842631 116.477658 
L 371.226946 116.894663 
L 372.30219 118.116924 
L 372.643183 118.523923 
L 373.318965 119.339186 
L 374.281455 120.561447 
L 374.443736 120.778977 
L 375.185397 121.783708 
L 376.037507 123.00597 
L 376.244289 123.321114 
L 376.833293 124.228231 
L 377.577323 125.450492 
L 378.044842 126.27337 
L 378.269412 126.672754 
L 378.907591 127.895015 
L 379.496678 129.117276 
L 379.845394 129.906581 
L 380.034724 130.339538 
L 380.520621 131.561799 
L 380.957928 132.78406 
L 381.346646 134.006321 
L 381.645947 135.08187 
L 381.686362 135.228583 
L 381.974955 136.450844 
L 382.21545 137.673105 
L 382.407845 138.895367 
L 382.552142 140.117628 
L 382.64834 141.339889 
L 382.696439 142.562151 
L 382.696439 143.784412 
L 382.64834 145.006673 
L 382.552142 146.228935 
L 382.407845 147.451196 
L 382.21545 148.673457 
L 381.974955 149.895718 
L 381.686362 151.11798 
L 381.645947 151.264692 
L 381.346646 152.340241 
L 380.957928 153.562502 
L 380.520621 154.784764 
L 380.034724 156.007025 
L 379.845394 156.439982 
L 379.496678 157.229286 
L 378.907591 158.451548 
L 378.269412 159.673809 
L 378.044842 160.073192 
L 377.577323 160.89607 
L 376.833293 162.118332 
L 376.244289 163.025449 
L 376.037507 163.340593 
L 375.185397 164.562854 
L 374.443736 165.567586 
L 374.281455 165.785115 
L 373.318965 167.007377 
L 372.643183 167.822639 
L 372.30219 168.229638 
L 371.226946 169.451899 
L 370.842631 169.868905 
L 370.092434 170.674161 
L 369.042078 171.752586 
L 368.900446 171.896422 
L 367.644589 173.118683 
L 367.241525 173.495273 
L 366.326347 174.340945 
L 365.440972 175.12761 
L 364.94521 175.563206 
L 363.64042 176.667184 
L 363.499033 176.785467 
L 361.983917 178.007728 
L 361.839867 178.119928 
L 360.398309 179.22999 
L 360.039314 179.497216 
L 358.741393 180.452251 
L 358.238761 180.810166 
L 357.010652 181.674512 
L 356.438209 182.064809 
L 355.203451 182.896774 
L 354.637656 183.266447 
L 353.317025 184.119035 
L 352.837103 184.419756 
L 351.348476 185.341296 
L 351.03655 185.528878 
L 349.294762 186.563558 
L 349.235997 186.597496 
L 347.435445 187.624535 
L 347.149111 187.785819 
L 345.634892 188.615684 
L 344.909725 189.00808 
L 343.834339 189.57467 
L 342.573716 190.230342 
L 342.033786 190.503967 
L 340.233234 191.404601 
L 340.135989 191.452603 
L 338.432681 192.272365 
L 337.585065 192.674864 
L 336.632128 193.116339 
L 334.923687 193.897125 
L 334.831575 193.93822 
L 333.031023 194.730507 
L 332.134807 195.119387 
L 331.23047 195.502665 
L 329.429917 196.255031 
L 329.219621 196.341648 
L 327.629364 196.981762 
L 326.161847 197.563909 
L 325.828812 197.693085 
L 324.028259 198.381201 
L 322.952544 198.786171 
L 322.227706 199.053115 
L 320.427153 199.706178 
L 319.58079 200.008432 
L 318.626601 200.341943 
L 316.826048 200.961444 
L 316.030866 201.230693 
L 315.025495 201.56402 
L 313.224942 202.151358 
L 312.284953 202.452955 
L 311.424389 202.723433 
L 309.623837 203.27992 
L 308.322778 203.675216 
L 307.823284 203.82394 
L 306.022731 204.350811 
L 304.222178 204.868439 
L 304.119333 204.897477 
L 302.421626 205.367424 
L 300.621073 205.856778 
L 299.635268 206.119739 
L 298.82052 206.332891 
L 297.019967 206.795058 
L 295.219415 207.248338 
L 294.839922 207.342 
L 293.418862 207.686112 
L 291.618309 208.113399 
L 289.817756 208.531966 
L 289.675876 208.564261 
L 288.017204 208.934821 
L 286.216651 209.328519 
L 284.416098 209.713659 
L 284.067714 209.786522 
L 282.615545 210.084718 
L 280.814992 210.446049 
L 279.01444 210.798977 
L 277.917948 211.008784 
L 277.213887 211.141096 
L 275.413334 211.471216 
L 273.612781 211.793082 
L 271.812229 212.106696 
L 271.079007 212.231045 
L 270.011676 212.408881 
L 268.211123 212.700776 
L 266.41057 212.984563 
L 264.610018 213.260242 
L 263.31084 213.453306 
L 262.809465 213.526528 
L 261.008912 213.781517 
L 259.208359 214.028538 
L 257.407807 214.26759 
L 255.607254 214.498674 
L 254.179713 214.675568 
L 253.806701 214.721006 
L 252.006148 214.932506 
L 250.205595 215.136173 
L 248.405043 215.332007 
L 246.60449 215.520007 
L 244.803937 215.700175 
L 243.003384 215.872508 
L 242.726233 215.897829 
L 241.202832 216.034689 
L 239.402279 216.188745 
L 237.601726 216.335098 
L 235.801173 216.473748 
L 234.000621 216.604695 
L 232.200068 216.72794 
L 230.399515 216.843482 
L 228.598962 216.951321 
L 226.79841 217.051457 
L 225.461481 217.12009 
L 224.997857 217.143501 
L 223.197304 217.226842 
L 221.396751 217.302608 
L 219.596198 217.370796 
L 217.795646 217.431408 
L 215.995093 217.484444 
L 214.19454 217.529903 
L 212.393987 217.567786 
L 210.593435 217.598092 
L 208.792882 217.620821 
L 206.992329 217.635974 
L 205.191776 217.643551 
L 203.391224 217.643551 
L 201.590671 217.635974 
L 199.790118 217.620821 
L 197.989565 217.598092 
L 196.189013 217.567786 
L 194.38846 217.529903 
L 192.587907 217.484444 
L 190.787354 217.431408 
L 188.986802 217.370796 
L 187.186249 217.302608 
L 185.385696 217.226842 
L 183.585143 217.143501 
z
" clip-path="url(#p21f77746e2)" style="fill: none; stroke: #b9c0d4; stroke-width: 0.8"/>
    <path d="M 383.4465 185.626659 
L 378.601541 189.00808 
L 374.443736 191.653118 
L 369.042078 194.800987 
L 363.862605 197.563909 
L 358.238761 200.316425 
L 352.837103 202.755548 
L 345.634892 205.733578 
L 340.233234 207.785565 
L 333.031023 210.3066 
L 325.828812 212.606761 
L 318.626601 214.708511 
L 309.452934 217.12009 
L 300.621073 219.185975 
L 291.618309 221.058354 
L 282.615545 222.708344 
L 273.612781 224.151789 
L 264.610018 225.397939 
L 255.607254 226.455497 
L 244.803937 227.486719 
L 234.000621 228.268252 
L 223.197304 228.803046 
L 212.393987 229.100154 
L 201.590671 229.159576 
L 190.787354 228.981311 
L 179.984038 228.56536 
L 169.180721 227.908698 
L 158.377405 227.004457 
L 149.374641 226.054499 
L 140.371877 224.921975 
L 131.369113 223.598589 
L 122.000844 222.009136 
L 113.363585 220.3364 
L 104.226664 218.342352 
L 95.358058 216.161053 
L 88.155847 214.199101 
L 80.953636 212.052267 
L 73.751425 209.700008 
L 66.549214 207.118619 
L 59.347003 204.280608 
L 53.945344 201.962687 
L 48.543686 199.459068 
L 42.374871 196.341648 
L 37.740369 193.785974 
L 32.338711 190.532467 
L 28.170947 187.785819 
L 25.1365 185.626659 
M 25.1365 100.719904 
L 29.981459 97.338482 
L 34.139264 94.693444 
L 39.540922 91.545575 
L 44.720395 88.782653 
L 50.344239 86.030137 
L 55.745897 83.591014 
L 62.948108 80.612984 
L 68.349766 78.560997 
L 75.551977 76.039963 
L 82.754188 73.739801 
L 89.956399 71.638051 
L 99.130066 69.226472 
L 107.961927 67.160587 
L 116.964691 65.288208 
L 125.967455 63.638219 
L 134.970219 62.194773 
L 143.972982 60.948623 
L 152.975746 59.891065 
L 163.779063 58.859843 
L 174.582379 58.07831 
L 185.385696 57.543516 
L 196.189013 57.246408 
L 206.992329 57.186987 
L 217.795646 57.365252 
L 228.598962 57.781202 
L 239.402279 58.437864 
L 250.205595 59.342105 
L 259.208359 60.292064 
L 268.211123 61.424587 
L 277.213887 62.747974 
L 286.582156 64.337427 
L 295.219415 66.010162 
L 304.356336 68.004211 
L 313.224942 70.18551 
L 320.427153 72.147461 
L 327.629364 74.294295 
L 334.831575 76.646555 
L 342.033786 79.227943 
L 349.235997 82.065955 
L 354.637656 84.383875 
L 360.039314 86.887494 
L 366.208129 90.004914 
L 370.842631 92.560589 
L 376.244289 95.814096 
L 380.412053 98.560744 
L 383.4465 100.719904 
L 383.4465 100.719904 
" clip-path="url(#p21f77746e2)" style="fill: none; stroke: #b9c0d4; stroke-width: 0.8"/>
    <path d="M 383.4465 203.598815 
L 378.044842 206.286762 
L 370.842631 209.583652 
L 364.545607 212.231045 
L 358.238761 214.688184 
L 351.03655 217.278438 
L 343.834339 219.66446 
L 334.831575 222.384151 
L 325.828812 224.841993 
L 316.826048 227.060755 
L 306.454497 229.342703 
L 297.019967 231.180545 
L 286.350859 233.009487 
L 277.213887 234.371793 
L 266.41057 235.754292 
L 255.607254 236.900677 
L 244.803937 237.81901 
L 234.000621 238.513281 
L 223.197304 238.993224 
L 212.393987 239.258099 
L 201.590671 239.310751 
L 190.787354 239.152795 
L 179.984038 238.779916 
L 169.180721 238.193319 
L 158.377405 237.386853 
L 147.574088 236.356326 
L 136.770771 235.092774 
L 125.967455 233.586752 
L 115.164138 231.828293 
L 106.161374 230.15422 
L 96.414611 228.120442 
L 88.155847 226.199979 
L 79.153083 223.888529 
L 70.150319 221.328469 
L 62.948108 219.084634 
L 55.745897 216.649448 
L 48.543686 214.003118 
L 41.067594 211.008784 
L 34.139264 207.972219 
L 27.696438 204.897477 
L 25.1365 203.598815 
M 25.1365 82.747748 
L 30.538158 80.059801 
L 37.740369 76.76291 
L 44.037393 74.115517 
L 50.344239 71.658379 
L 57.54645 69.068125 
L 64.748661 66.682103 
L 73.751425 63.962412 
L 82.754188 61.50457 
L 91.756952 59.285808 
L 102.128503 57.003859 
L 111.563033 55.166018 
L 122.232141 53.337075 
L 131.369113 51.97477 
L 142.17243 50.592271 
L 152.975746 49.445886 
L 163.779063 48.527553 
L 174.582379 47.833282 
L 185.385696 47.353339 
L 196.189013 47.088464 
L 206.992329 47.035812 
L 217.795646 47.193768 
L 228.598962 47.566647 
L 239.402279 48.153244 
L 250.205595 48.959709 
L 261.008912 49.990237 
L 271.812229 51.253788 
L 282.615545 52.759811 
L 293.418862 54.51827 
L 302.421626 56.192342 
L 312.168389 58.22612 
L 320.427153 60.146583 
L 329.429917 62.458034 
L 338.432681 65.018093 
L 345.634892 67.261929 
L 352.837103 69.697114 
L 360.039314 72.343444 
L 367.515406 75.337779 
L 374.443736 78.374343 
L 380.886562 81.449085 
L 383.4465 82.747748 
L 383.4465 82.747748 
" clip-path="url(#p21f77746e2)" style="fill: none; stroke: #b9c0d4; stroke-width: 0.8"/>
    <path d="M 383.4465 217.334542 
L 376.244289 220.246974 
L 368.235725 223.231397 
L 360.039314 226.032817 
L 351.03655 228.848008 
L 342.033786 231.414228 
L 333.031023 233.751664 
L 324.028259 235.878378 
L 314.587341 237.898533 
L 304.222178 239.880591 
L 293.418862 241.704418 
L 282.615545 243.290124 
L 271.812229 244.651889 
L 261.008912 245.797709 
L 250.205595 246.735207 
L 239.402279 247.469237 
L 228.598962 248.003679 
L 217.795646 248.342244 
L 206.992329 248.487343 
L 196.189013 248.438976 
L 185.385696 248.197144 
L 172.902732 247.676623 
L 163.779063 247.12669 
L 152.975746 246.292888 
L 141.976909 245.2321 
L 131.369113 244.000284 
L 120.565796 242.526049 
L 109.76248 240.822262 
L 98.959163 238.877119 
L 88.155847 236.675008 
L 77.35253 234.195095 
L 67.925889 231.787226 
L 59.211998 229.342703 
L 50.344239 226.617323 
L 41.341475 223.583253 
L 33.733591 220.786874 
L 26.937053 218.084617 
L 25.1365 217.334542 
M 25.1365 69.012021 
L 32.338711 66.099589 
L 40.347275 63.115166 
L 48.543686 60.313745 
L 57.54645 57.498554 
L 66.549214 54.932334 
L 75.551977 52.594899 
L 84.554741 50.468185 
L 93.995659 48.44803 
L 104.360822 46.465971 
L 115.164138 44.642144 
L 125.967455 43.056438 
L 136.770771 41.694674 
L 147.574088 40.548854 
L 158.377405 39.611356 
L 169.180721 38.877325 
L 179.984038 38.342884 
L 190.787354 38.004319 
L 201.590671 37.85922 
L 212.393987 37.907586 
L 223.197304 38.149418 
L 235.680268 38.66994 
L 244.803937 39.219873 
L 255.607254 40.053674 
L 266.606091 41.114462 
L 277.213887 42.346278 
L 288.017204 43.820513 
L 298.82052 45.524301 
L 309.623837 47.469444 
L 320.427153 49.671554 
L 331.23047 52.151468 
L 340.657111 54.559337 
L 349.371002 57.003859 
L 358.238761 59.729239 
L 367.241525 62.76331 
L 374.849409 65.559688 
L 381.645947 68.261946 
L 383.4465 69.012021 
L 383.4465 69.012021 
" clip-path="url(#p21f77746e2)" style="fill: none; stroke: #b9c0d4; stroke-width: 0.8"/>
    <path d="M 383.4465 228.896899 
L 375.18853 231.787226 
L 367.241525 234.358297 
L 358.238761 237.043588 
L 349.235997 239.508546 
L 340.233234 241.769492 
L 329.429917 244.230954 
L 318.542484 246.454362 
L 307.823284 248.403534 
L 297.019967 250.146054 
L 286.216651 251.67064 
L 275.413334 252.990059 
L 264.610018 254.111076 
L 252.006148 255.175797 
L 239.402279 255.98459 
L 226.79841 256.543844 
L 214.19454 256.856926 
L 201.590671 256.926499 
L 188.986802 256.752565 
L 176.382932 256.335123 
L 163.779063 255.668106 
L 151.175193 254.751001 
L 138.571324 253.575471 
L 127.768008 252.356102 
L 116.964691 250.93384 
L 106.161374 249.301689 
L 95.358058 247.44969 
L 83.904242 245.2321 
L 73.751425 243.033142 
L 64.748661 240.888149 
L 55.745897 238.547706 
L 46.743133 235.996382 
L 37.740369 233.217079 
L 29.819613 230.564965 
L 25.1365 228.896899 
M 25.1365 57.449664 
L 33.39447 54.559337 
L 41.341475 51.988265 
L 50.344239 49.302974 
L 59.347003 46.838016 
L 68.349766 44.57707 
L 79.153083 42.115609 
L 90.040516 39.892201 
L 100.759716 37.943028 
L 111.563033 36.200508 
L 122.366349 34.675923 
L 133.169666 33.356503 
L 143.972982 32.235486 
L 156.576852 31.170765 
L 169.180721 30.361972 
L 181.78459 29.802718 
L 194.38846 29.489637 
L 206.992329 29.420063 
L 219.596198 29.593997 
L 232.200068 30.011439 
L 244.803937 30.678457 
L 257.407807 31.595562 
L 270.011676 32.771091 
L 280.814992 33.990461 
L 291.618309 35.412723 
L 302.421626 37.044873 
L 313.224942 38.896872 
L 324.678758 41.114462 
L 334.831575 43.31342 
L 343.834339 45.458413 
L 352.837103 47.798857 
L 361.839867 50.35018 
L 370.842631 53.129483 
L 378.763387 55.781598 
L 383.4465 57.449664 
L 383.4465 57.449664 
" clip-path="url(#p21f77746e2)" style="fill: none; stroke: #b9c0d4; stroke-width: 0.8"/>
    <path d="M 383.4465 239.07745 
L 375.527651 241.565316 
L 365.440972 244.48935 
L 356.438209 246.886416 
L 345.634892 249.516331 
L 334.831575 251.896037 
L 324.028259 254.04203 
L 313.224942 255.96653 
L 302.421626 257.681444 
L 289.817756 259.428701 
L 279.01444 260.719006 
L 266.41057 261.990542 
L 253.806701 263.017518 
L 241.202832 263.807342 
L 228.598962 264.362877 
L 215.995093 264.689662 
L 203.391224 264.787698 
L 190.787354 264.656984 
L 178.183485 264.29752 
L 165.579616 263.709307 
L 152.975746 262.88547 
L 140.371877 261.823781 
L 127.768008 260.516807 
L 115.164138 258.956803 
L 104.360822 257.410557 
L 93.557505 255.660093 
L 82.754188 253.700796 
L 71.137692 251.343407 
L 60.309615 248.898884 
L 50.344239 246.42389 
L 39.540922 243.475047 
L 30.538158 240.792278 
L 25.1365 239.07745 
M 25.1365 47.269112 
L 33.055349 44.781246 
L 43.142028 41.857213 
L 52.144791 39.460146 
L 62.948108 36.830231 
L 73.751425 34.450525 
L 84.554741 32.304532 
L 95.358058 30.380032 
L 106.161374 28.665118 
L 118.765244 26.917862 
L 129.56856 25.627557 
L 142.17243 24.35602 
L 154.776299 23.329045 
L 167.380168 22.53922 
L 179.984038 21.983685 
L 192.587907 21.6569 
L 205.191776 21.558865 
L 217.795646 21.689579 
L 230.399515 22.049043 
L 243.003384 22.637256 
L 255.607254 23.461093 
L 268.211123 24.522782 
L 280.814992 25.829755 
L 293.418862 27.389759 
L 304.222178 28.936005 
L 315.025495 30.686469 
L 325.828812 32.645767 
L 337.445308 35.003156 
L 348.273385 37.447678 
L 358.238761 39.922672 
L 369.042078 42.871515 
L 378.044842 45.554285 
L 383.4465 47.269112 
L 383.4465 47.269112 
" clip-path="url(#p21f77746e2)" style="fill: none; stroke: #b9c0d4; stroke-width: 0.8"/>
    <path d="M 101.28788 264.788281 
L 89.956399 263.009995 
L 79.153083 261.115723 
L 66.716841 258.676975 
L 57.54645 256.691986 
L 46.743133 254.140584 
L 37.740369 251.825439 
L 27.256094 248.898884 
L 25.1365 248.273536 
M 383.4465 248.273536 
L 374.443736 250.848811 
L 365.440972 253.235572 
L 354.637656 255.868093 
L 343.834339 258.263603 
L 333.031023 260.436915 
L 322.227706 262.401632 
L 309.623837 264.439461 
L 307.29512 264.788281 
M 25.1365 38.073027 
L 34.139264 35.497752 
L 43.142028 33.11099 
L 53.945344 30.478469 
L 64.748661 28.082959 
L 75.551977 25.909648 
L 86.355294 23.944931 
L 98.959163 21.907101 
L 101.28788 21.558281 
M 307.29512 21.558281 
L 318.626601 23.336567 
L 329.429917 25.230839 
L 341.866159 27.669588 
L 351.03655 29.654576 
L 361.839867 32.205979 
L 370.842631 34.521123 
L 381.326906 37.447678 
L 383.4465 38.073027 
L 383.4465 38.073027 
" clip-path="url(#p21f77746e2)" style="fill: none; stroke: #b9c0d4; stroke-width: 0.8"/>
    <path d="M 58.620448 264.788281 
L 57.54645 264.562729 
L 55.745897 264.179924 
L 53.945344 263.79245 
L 52.905673 263.56602 
L 52.144791 263.398617 
L 50.344239 262.997757 
L 48.543686 262.592181 
L 47.453489 262.343759 
L 46.743133 262.180221 
L 44.94258 261.760935 
L 43.142028 261.336884 
L 42.237638 261.121497 
L 41.341475 260.905846 
L 39.540922 260.46775 
L 37.740369 260.024839 
L 37.235249 259.899236 
L 35.939817 259.573724 
L 34.139264 259.116421 
L 32.427231 258.676975 
L 32.338711 258.654012 
L 30.538158 258.182011 
L 28.737606 257.705093 
L 27.801969 257.454713 
L 26.937053 257.22077 
L 25.1365 256.728785 
M 383.4465 256.728785 
L 381.645947 257.22077 
L 380.781031 257.454713 
L 379.845394 257.705093 
L 378.044842 258.182011 
L 376.244289 258.654012 
L 376.155769 258.676975 
L 374.443736 259.116421 
L 372.643183 259.573724 
L 371.347751 259.899236 
L 370.842631 260.024839 
L 369.042078 260.46775 
L 367.241525 260.905846 
L 366.345362 261.121497 
L 365.440972 261.336884 
L 363.64042 261.760935 
L 361.839867 262.180221 
L 361.129511 262.343759 
L 360.039314 262.592181 
L 358.238761 262.997757 
L 356.438209 263.398617 
L 355.677327 263.56602 
L 354.637656 263.79245 
L 352.837103 264.179924 
L 351.03655 264.562729 
L 349.962552 264.788281 
M 25.1365 29.617777 
L 26.937053 29.125792 
L 27.801969 28.891849 
L 28.737606 28.641469 
L 30.538158 28.164552 
L 32.338711 27.692551 
L 32.427231 27.669588 
L 34.139264 27.230142 
L 35.939817 26.772839 
L 37.235249 26.447326 
L 37.740369 26.321723 
L 39.540922 25.878813 
L 41.341475 25.440717 
L 42.237638 25.225065 
L 43.142028 25.009678 
L 44.94258 24.585627 
L 46.743133 24.166341 
L 47.453489 24.002804 
L 48.543686 23.754381 
L 50.344239 23.348805 
L 52.144791 22.947946 
L 52.905673 22.780543 
L 53.945344 22.554113 
L 55.745897 22.166639 
L 57.54645 21.783833 
L 58.620448 21.558281 
M 349.962552 21.558281 
L 351.03655 21.783833 
L 352.837103 22.166639 
L 354.637656 22.554113 
L 355.677327 22.780543 
L 356.438209 22.947946 
L 358.238761 23.348805 
L 360.039314 23.754381 
L 361.129511 24.002804 
L 361.839867 24.166341 
L 363.64042 24.585627 
L 365.440972 25.009678 
L 366.345362 25.225065 
L 367.241525 25.440717 
L 369.042078 25.878813 
L 370.842631 26.321723 
L 371.347751 26.447326 
L 372.643183 26.772839 
L 374.443736 27.230142 
L 376.155769 27.669588 
L 376.244289 27.692551 
L 378.044842 28.164552 
L 379.845394 28.641469 
L 380.781031 28.891849 
L 381.645947 29.125792 
L 383.4465 29.617777 
" clip-path="url(#p21f77746e2)" style="fill: none; stroke: #b9c0d4; stroke-width: 0.8"/>
    <path d="M 25.880549 264.788281 
L 25.1365 264.597298 
M 383.4465 264.597298 
L 382.702451 264.788281 
M 25.1365 21.749264 
L 25.880549 21.558281 
M 382.702451 21.558281 
L 383.4465 21.749264 
" clip-path="url(#p21f77746e2)" style="fill: none; stroke: #b9c0d4; stroke-width: 0.8"/>
    <path clip-path="url(#p21f77746e2)" style="fill: none; stroke: #b9c0d4; stroke-width: 0.8"/>
   </g>
   <g id="line2d_1">
    <path d="M 49.566727 222.223031 
L 54.982094 166.888206 
L 60.207924 150.287759 
L 65.250849 145.307625 
L 70.117271 143.813584 
L 74.813369 143.365372 
L 79.345104 143.230909 
L 83.718228 143.190569 
L 87.938292 143.178468 
L 92.010655 143.174837 
L 95.940484 143.173748 
L 99.73277 143.173421 
L 103.392325 143.173323 
L 106.923797 143.173294 
L 110.331666 143.173285 
L 113.62026 143.173282 
L 116.793754 143.173282 
" clip-path="url(#p21f77746e2)" style="fill: none; stroke: #c00000; stroke-width: 1.3"/>
    <defs>
     <path id="m3f15363294" d="M 0 1.75 
C 0.464105 1.75 0.909265 1.565609 1.237437 1.237437 
C 1.565609 0.909265 1.75 0.464105 1.75 0 
C 1.75 -0.464105 1.565609 -0.909265 1.237437 -1.237437 
C 0.909265 -1.565609 0.464105 -1.75 0 -1.75 
C -0.464105 -1.75 -0.909265 -1.565609 -1.237437 -1.237437 
C -1.565609 -0.909265 -1.75 -0.464105 -1.75 0 
C -1.75 0.464105 -1.565609 0.909265 -1.237437 1.237437 
C -0.909265 1.565609 -0.464105 1.75 0 1.75 
z
" style="stroke: #c00000"/>
    </defs>
    <g clip-path="url(#p21f77746e2)">
     <use xlink:href="#m3f15363294" x="49.566727" y="222.223031" style="fill: #c00000; stroke: #c00000"/>
     <use xlink:href="#m3f15363294" x="54.982094" y="166.888206" style="fill: #c00000; stroke: #c00000"/>
     <use xlink:href="#m3f15363294" x="60.207924" y="150.287759" style="fill: #c00000; stroke: #c00000"/>
     <use xlink:href="#m3f15363294" x="65.250849" y="145.307625" style="fill: #c00000; stroke: #c00000"/>
     <use xlink:href="#m3f15363294" x="70.117271" y="143.813584" style="fill: #c00000; stroke: #c00000"/>
     <use xlink:href="#m3f15363294" x="74.813369" y="143.365372" style="fill: #c00000; stroke: #c00000"/>
     <use xlink:href="#m3f15363294" x="79.345104" y="143.230909" style="fill: #c00000; stroke: #c00000"/>
     <use xlink:href="#m3f15363294" x="83.718228" y="143.190569" style="fill: #c00000; stroke: #c00000"/>
     <use xlink:href="#m3f15363294" x="87.938292" y="143.178468" style="fill: #c00000; stroke: #c00000"/>
     <use xlink:href="#m3f15363294" x="92.010655" y="143.174837" style="fill: #c00000; stroke: #c00000"/>
     <use xlink:href="#m3f15363294" x="95.940484" y="143.173748" style="fill: #c00000; stroke: #c00000"/>
     <use xlink:href="#m3f15363294" x="99.73277" y="143.173421" style="fill: #c00000; stroke: #c00000"/>
     <use xlink:href="#m3f15363294" x="103.392325" y="143.173323" style="fill: #c00000; stroke: #c00000"/>
     <use xlink:href="#m3f15363294" x="106.923797" y="143.173294" style="fill: #c00000; stroke: #c00000"/>
     <use xlink:href="#m3f15363294" x="110.331666" y="143.173285" style="fill: #c00000; stroke: #c00000"/>
     <use xlink:href="#m3f15363294" x="113.62026" y="143.173282" style="fill: #c00000; stroke: #c00000"/>
     <use xlink:href="#m3f15363294" x="116.793754" y="143.173282" style="fill: #c00000; stroke: #c00000"/>
    </g>
   </g>
   <g id="line2d_2">
    <path d="M 204.2915 143.173281 
" clip-path="url(#p21f77746e2)" style="fill: none; stroke: #0e7490; stroke-width: 4"/>
    <defs>
     <path id="m072998e621" d="M 0 -7.5 
L -1.683855 -2.317627 
L -7.132924 -2.317627 
L -2.724534 0.885255 
L -4.408389 6.067627 
L -0 2.864745 
L 4.408389 6.067627 
L 2.724534 0.885255 
L 7.132924 -2.317627 
L 1.683855 -2.317627 
z
" style="stroke: #0e7490; stroke-linejoin: bevel"/>
    </defs>
    <g clip-path="url(#p21f77746e2)">
     <use xlink:href="#m072998e621" x="204.2915" y="143.173281" style="fill: #0e7490; stroke: #0e7490; stroke-linejoin: bevel"/>
    </g>
   </g>
   <g id="patch_3">
    <path d="M 25.1365 264.788281 
L 25.1365 21.558281 
" style="fill: none; stroke: #f0f0f0; stroke-width: 3; stroke-linejoin: miter; stroke-linecap: square"/>
   </g>
   <g id="patch_4">
    <path d="M 383.4465 264.788281 
L 383.4465 21.558281 
" style="fill: none; stroke: #f0f0f0; stroke-width: 3; stroke-linejoin: miter; stroke-linecap: square"/>
   </g>
   <g id="patch_5">
    <path d="M 25.1365 264.788281 
L 383.4465 264.788281 
" style="fill: none; stroke: #f0f0f0; stroke-width: 3; stroke-linejoin: miter; stroke-linecap: square"/>
   </g>
   <g id="patch_6">
    <path d="M 25.1365 21.558281 
L 383.4465 21.558281 
" style="fill: none; stroke: #f0f0f0; stroke-width: 3; stroke-linejoin: miter; stroke-linecap: square"/>
   </g>
   <g id="text_3">
    <!-- Learning rate too small -->
    <g style="fill: #808080" transform="translate(140.461422 15.558281) scale(0.11 -0.11)">
     <defs>
      <path id="DejaVuSans-4c" d="M 628 4666 
L 1259 4666 
L 1259 531 
L 3531 531 
L 3531 0 
L 628 0 
L 628 4666 
z
" transform="scale(0.015625)"/>
      <path id="DejaVuSans-65" d="M 3597 1894 
L 3597 1613 
L 953 1613 
Q 991 1019 1311 708 
Q 1631 397 2203 397 
Q 2534 397 2845 478 
Q 3156 559 3463 722 
L 3463 178 
Q 3153 47 2828 -22 
Q 2503 -91 2169 -91 
Q 1331 -91 842 396 
Q 353 884 353 1716 
Q 353 2575 817 3079 
Q 1281 3584 2069 3584 
Q 2775 3584 3186 3129 
Q 3597 2675 3597 1894 
z
M 3022 2063 
Q 3016 2534 2758 2815 
Q 2500 3097 2075 3097 
Q 1594 3097 1305 2825 
Q 1016 2553 972 2059 
L 3022 2063 
z
" transform="scale(0.015625)"/>
      <path id="DejaVuSans-61" d="M 2194 1759 
Q 1497 1759 1228 1600 
Q 959 1441 959 1056 
Q 959 750 1161 570 
Q 1363 391 1709 391 
Q 2188 391 2477 730 
Q 2766 1069 2766 1631 
L 2766 1759 
L 2194 1759 
z
M 3341 1997 
L 3341 0 
L 2766 0 
L 2766 531 
Q 2569 213 2275 61 
Q 1981 -91 1556 -91 
Q 1019 -91 701 211 
Q 384 513 384 1019 
Q 384 1609 779 1909 
Q 1175 2209 1959 2209 
L 2766 2209 
L 2766 2266 
Q 2766 2663 2505 2880 
Q 2244 3097 1772 3097 
Q 1472 3097 1187 3025 
Q 903 2953 641 2809 
L 641 3341 
Q 956 3463 1253 3523 
Q 1550 3584 1831 3584 
Q 2591 3584 2966 3190 
Q 3341 2797 3341 1997 
z
" transform="scale(0.015625)"/>
      <path id="DejaVuSans-72" d="M 2631 2963 
Q 2534 3019 2420 3045 
Q 2306 3072 2169 3072 
Q 1681 3072 1420 2755 
Q 1159 2438 1159 1844 
L 1159 0 
L 581 0 
L 581 3500 
L 1159 3500 
L 1159 2956 
Q 1341 3275 1631 3429 
Q 1922 3584 2338 3584 
Q 2397 3584 2469 3576 
Q 2541 3569 2628 3553 
L 2631 2963 
z
" transform="scale(0.015625)"/>
      <path id="DejaVuSans-6e" d="M 3513 2113 
L 3513 0 
L 2938 0 
L 2938 2094 
Q 2938 2591 2744 2837 
Q 2550 3084 2163 3084 
Q 1697 3084 1428 2787 
Q 1159 2491 1159 1978 
L 1159 0 
L 581 0 
L 581 3500 
L 1159 3500 
L 1159 2956 
Q 1366 3272 1645 3428 
Q 1925 3584 2291 3584 
Q 2894 3584 3203 3211 
Q 3513 2838 3513 2113 
z
" transform="scale(0.015625)"/>
      <path id="DejaVuSans-69" d="M 603 3500 
L 1178 3500 
L 1178 0 
L 603 0 
L 603 3500 
z
M 603 4863 
L 1178 4863 
L 1178 4134 
L 603 4134 
L 603 4863 
z
" transform="scale(0.015625)"/>
      <path id="DejaVuSans-67" d="M 2906 1791 
Q 2906 2416 2648 2759 
Q 2391 3103 1925 3103 
Q 1463 3103 1205 2759 
Q 947 2416 947 1791 
Q 947 1169 1205 825 
Q 1463 481 1925 481 
Q 2391 481 2648 825 
Q 2906 1169 2906 1791 
z
M 3481 434 
Q 3481 -459 3084 -895 
Q 2688 -1331 1869 -1331 
Q 1566 -1331 1297 -1286 
Q 1028 -1241 775 -1147 
L 775 -588 
Q 1028 -725 1275 -790 
Q 1522 -856 1778 -856 
Q 2344 -856 2625 -561 
Q 2906 -266 2906 331 
L 2906 616 
Q 2728 306 2450 153 
Q 2172 0 1784 0 
Q 1141 0 747 490 
Q 353 981 353 1791 
Q 353 2603 747 3093 
Q 1141 3584 1784 3584 
Q 2172 3584 2450 3431 
Q 2728 3278 2906 2969 
L 2906 3500 
L 3481 3500 
L 3481 434 
z
" transform="scale(0.015625)"/>
      <path id="DejaVuSans-20" transform="scale(0.015625)"/>
      <path id="DejaVuSans-74" d="M 1172 4494 
L 1172 3500 
L 2356 3500 
L 2356 3053 
L 1172 3053 
L 1172 1153 
Q 1172 725 1289 603 
Q 1406 481 1766 481 
L 2356 481 
L 2356 0 
L 1766 0 
Q 1100 0 847 248 
Q 594 497 594 1153 
L 594 3053 
L 172 3053 
L 172 3500 
L 594 3500 
L 594 4494 
L 1172 4494 
z
" transform="scale(0.015625)"/>
      <path id="DejaVuSans-6f" d="M 1959 3097 
Q 1497 3097 1228 2736 
Q 959 2375 959 1747 
Q 959 1119 1226 758 
Q 1494 397 1959 397 
Q 2419 397 2687 759 
Q 2956 1122 2956 1747 
Q 2956 2369 2687 2733 
Q 2419 3097 1959 3097 
z
M 1959 3584 
Q 2709 3584 3137 3096 
Q 3566 2609 3566 1747 
Q 3566 888 3137 398 
Q 2709 -91 1959 -91 
Q 1206 -91 779 398 
Q 353 888 353 1747 
Q 353 2609 779 3096 
Q 1206 3584 1959 3584 
z
" transform="scale(0.015625)"/>
      <path id="DejaVuSans-73" d="M 2834 3397 
L 2834 2853 
Q 2591 2978 2328 3040 
Q 2066 3103 1784 3103 
Q 1356 3103 1142 2972 
Q 928 2841 928 2578 
Q 928 2378 1081 2264 
Q 1234 2150 1697 2047 
L 1894 2003 
Q 2506 1872 2764 1633 
Q 3022 1394 3022 966 
Q 3022 478 2636 193 
Q 2250 -91 1575 -91 
Q 1294 -91 989 -36 
Q 684 19 347 128 
L 347 722 
Q 666 556 975 473 
Q 1284 391 1588 391 
Q 1994 391 2212 530 
Q 2431 669 2431 922 
Q 2431 1156 2273 1281 
Q 2116 1406 1581 1522 
L 1381 1569 
Q 847 1681 609 1914 
Q 372 2147 372 2553 
Q 372 3047 722 3315 
Q 1072 3584 1716 3584 
Q 2034 3584 2315 3537 
Q 2597 3491 2834 3397 
z
" transform="scale(0.015625)"/>
      <path id="DejaVuSans-6d" d="M 3328 2828 
Q 3544 3216 3844 3400 
Q 4144 3584 4550 3584 
Q 5097 3584 5394 3201 
Q 5691 2819 5691 2113 
L 5691 0 
L 5113 0 
L 5113 2094 
Q 5113 2597 4934 2840 
Q 4756 3084 4391 3084 
Q 3944 3084 3684 2787 
Q 3425 2491 3425 1978 
L 3425 0 
L 2847 0 
L 2847 2094 
Q 2847 2600 2669 2842 
Q 2491 3084 2119 3084 
Q 1678 3084 1418 2786 
Q 1159 2488 1159 1978 
L 1159 0 
L 581 0 
L 581 3500 
L 1159 3500 
L 1159 2956 
Q 1356 3278 1631 3431 
Q 1906 3584 2284 3584 
Q 2666 3584 2933 3390 
Q 3200 3197 3328 2828 
z
" transform="scale(0.015625)"/>
      <path id="DejaVuSans-6c" d="M 603 4863 
L 1178 4863 
L 1178 0 
L 603 0 
L 603 4863 
z
" transform="scale(0.015625)"/>
     </defs>
     <use xlink:href="#DejaVuSans-4c"/>
     <use xlink:href="#DejaVuSans-65" transform="translate(53.962891 0)"/>
     <use xlink:href="#DejaVuSans-61" transform="translate(115.486328 0)"/>
     <use xlink:href="#DejaVuSans-72" transform="translate(176.765625 0)"/>
     <use xlink:href="#DejaVuSans-6e" transform="translate(216.128906 0)"/>
     <use xlink:href="#DejaVuSans-69" transform="translate(279.507812 0)"/>
     <use xlink:href="#DejaVuSans-6e" transform="translate(307.291016 0)"/>
     <use xlink:href="#DejaVuSans-67" transform="translate(370.669922 0)"/>
     <use xlink:href="#DejaVuSans-20" transform="translate(434.146484 0)"/>
     <use xlink:href="#DejaVuSans-72" transform="translate(465.933594 0)"/>
     <use xlink:href="#DejaVuSans-61" transform="translate(507.046875 0)"/>
     <use xlink:href="#DejaVuSans-74" transform="translate(568.326172 0)"/>
     <use xlink:href="#DejaVuSans-65" transform="translate(607.535156 0)"/>
     <use xlink:href="#DejaVuSans-20" transform="translate(669.058594 0)"/>
     <use xlink:href="#DejaVuSans-74" transform="translate(700.845703 0)"/>
     <use xlink:href="#DejaVuSans-6f" transform="translate(740.054688 0)"/>
     <use xlink:href="#DejaVuSans-6f" transform="translate(801.236328 0)"/>
     <use xlink:href="#DejaVuSans-20" transform="translate(862.417969 0)"/>
     <use xlink:href="#DejaVuSans-73" transform="translate(894.205078 0)"/>
     <use xlink:href="#DejaVuSans-6d" transform="translate(946.304688 0)"/>
     <use xlink:href="#DejaVuSans-61" transform="translate(1043.716797 0)"/>
     <use xlink:href="#DejaVuSans-6c" transform="translate(1104.996094 0)"/>
     <use xlink:href="#DejaVuSans-6c" transform="translate(1132.779297 0)"/>
    </g>
   </g>
  </g>
  <g id="axes_2">
   <g id="patch_7">
    <path d="M 414.6565 264.788281 
L 772.9665 264.788281 
L 772.9665 21.558281 
L 414.6565 21.558281 
z
" style="fill: #ffffff"/>
   </g>
   <g id="matplotlib.axis_3">
    <g id="text_4">
     <!-- $w_1$ -->
     <g transform="translate(584.4515 279.730031) scale(0.144 -0.144)">
      <use xlink:href="#DejaVuSans-Oblique-77" transform="translate(0 0.3125)"/>
      <use xlink:href="#DejaVuSans-31" transform="translate(81.787109 -16.09375) scale(0.7)"/>
     </g>
    </g>
   </g>
   <g id="matplotlib.axis_4">
    <g id="text_5">
     <!-- $w_2$ -->
     <g transform="translate(407.66175 152.533281) rotate(-90) scale(0.144 -0.144)">
      <use xlink:href="#DejaVuSans-Oblique-77" transform="translate(0 0.3125)"/>
      <use xlink:href="#DejaVuSans-32" transform="translate(81.787109 -16.09375) scale(0.7)"/>
     </g>
    </g>
   </g>
   <g id="QuadContourSet_2">
    <path clip-path="url(#pab75fae1ac)" style="fill: none; stroke: #b9c0d4; stroke-width: 0.8"/>
    <path d="M 574.905696 185.438954 
L 567.703485 184.762169 
L 560.501274 183.857322 
L 553.299063 182.703035 
L 546.096852 181.275167 
L 540.695193 180.008529 
L 535.293535 178.553251 
L 529.577783 176.785467 
L 524.490219 174.971008 
L 519.898328 173.118683 
L 515.487455 171.093296 
L 511.886349 169.232706 
L 508.080054 167.007377 
L 504.456502 164.562854 
L 501.083033 161.890144 
L 498.695152 159.673809 
L 496.468152 157.229286 
L 494.635708 154.784764 
L 493.176684 152.340241 
L 492.071425 149.895718 
L 491.319563 147.451196 
L 490.901862 145.006673 
L 490.818322 142.562151 
L 491.068943 140.117628 
L 491.653724 137.673105 
L 492.581459 135.228583 
L 493.880822 132.745918 
L 495.681374 130.108671 
L 497.527166 127.895015 
L 499.965879 125.450492 
L 502.883585 122.971172 
L 506.484691 120.37371 
L 510.102335 118.116924 
L 514.633892 115.672402 
L 519.08856 113.58296 
L 522.853782 112.005618 
L 528.091324 110.069823 
L 533.492982 108.319226 
L 538.894641 106.800201 
L 544.296299 105.473928 
L 551.49851 103.97571 
L 558.700721 102.755337 
L 565.902932 101.788291 
L 573.695125 101.005266 
L 580.307354 100.551079 
L 587.509565 100.260573 
L 594.711776 100.181345 
L 601.913987 100.313393 
L 609.116198 100.656717 
L 616.31841 101.217379 
L 623.520621 102.005782 
L 630.722832 103.035438 
L 637.925043 104.322336 
L 643.326701 105.473928 
L 649.921147 107.116573 
L 655.93057 108.879729 
L 661.554214 110.783357 
L 666.733887 112.810802 
L 670.461953 114.450141 
L 675.33814 116.894663 
L 679.337756 119.212782 
L 681.421914 120.561447 
L 684.784603 123.00597 
L 687.657121 125.450492 
L 690.141073 127.946301 
L 692.121512 130.339538 
L 693.76606 132.78406 
L 695.041541 135.228583 
L 695.969276 137.673105 
L 696.554057 140.117628 
L 696.804678 142.562151 
L 696.721138 145.006673 
L 696.303437 147.451196 
L 695.542731 149.917283 
L 694.446316 152.340241 
L 692.987292 154.784764 
L 691.154848 157.229286 
L 688.927848 159.673809 
L 686.278499 162.118332 
L 682.938862 164.725159 
L 679.337756 167.133781 
L 675.33814 169.451899 
L 670.334992 171.95481 
L 664.769218 174.340945 
L 659.531676 176.27674 
L 654.130018 178.027337 
L 648.728359 179.546361 
L 643.326701 180.872634 
L 636.12449 182.370852 
L 628.922279 183.591226 
L 621.720068 184.558271 
L 613.927875 185.341296 
L 607.315646 185.795484 
L 600.113435 186.085989 
L 592.911224 186.165218 
L 585.709013 186.03317 
L 578.506802 185.689845 
L 574.905696 185.438954 
L 574.905696 185.438954 
" clip-path="url(#pab75fae1ac)" style="fill: none; stroke: #b9c0d4; stroke-width: 0.8"/>
    <path d="M 580.307354 203.71852 
L 571.30459 203.247804 
L 562.301827 202.540405 
L 555.099616 201.791205 
L 546.096852 200.623128 
L 538.894641 199.491119 
L 531.69243 198.171634 
L 524.490219 196.65189 
L 517.288008 194.913119 
L 510.085796 192.931416 
L 504.684138 191.269447 
L 497.481927 188.7855 
L 491.756844 186.563558 
L 486.116899 184.119035 
L 481.059205 181.674512 
L 475.875294 178.862505 
L 472.274188 176.694487 
L 468.673083 174.301202 
L 465.071977 171.623883 
L 462.446494 169.451899 
L 459.670319 166.882713 
L 457.449805 164.562854 
L 455.391107 162.118332 
L 453.606307 159.673809 
L 452.085003 157.229286 
L 450.667555 154.443072 
L 449.805434 152.340241 
L 449.031642 149.895718 
L 448.500522 147.451196 
L 448.206584 145.006673 
L 448.147796 142.562151 
L 448.324159 140.117628 
L 448.867003 137.127003 
L 449.388777 135.228583 
L 450.281613 132.78406 
L 451.421969 130.339538 
L 452.812675 127.895015 
L 454.463486 125.450492 
L 456.384668 123.00597 
L 458.587036 120.561447 
L 461.470872 117.765183 
L 463.890029 115.672402 
L 467.02774 113.227879 
L 470.524213 110.783357 
L 474.412063 108.338834 
L 479.476399 105.497708 
L 483.520538 103.449789 
L 488.857881 101.005266 
L 494.829156 98.560744 
L 501.083033 96.278163 
L 506.484691 94.506381 
L 513.686902 92.390791 
L 520.889113 90.536556 
L 528.68288 88.782653 
L 537.094088 87.166904 
L 544.296299 85.988935 
L 553.299063 84.767185 
L 562.301827 83.806157 
L 571.30459 83.098758 
L 580.307354 82.628042 
L 589.310118 82.396958 
L 598.312882 82.396958 
L 607.315646 82.628042 
L 616.31841 83.098758 
L 625.321173 83.806157 
L 632.523384 84.555358 
L 641.526148 85.723434 
L 648.728359 86.855443 
L 655.93057 88.174928 
L 663.132781 89.694672 
L 670.334992 91.433444 
L 677.537204 93.415147 
L 682.938862 95.077115 
L 690.141073 97.561062 
L 695.866156 99.783005 
L 701.506101 102.227527 
L 706.563795 104.67205 
L 711.747706 107.484058 
L 715.348812 109.652075 
L 718.949917 112.045361 
L 722.551023 114.722679 
L 725.176506 116.894663 
L 727.952681 119.463849 
L 730.173195 121.783708 
L 732.231893 124.228231 
L 734.016693 126.672754 
L 735.537997 129.117276 
L 736.955445 131.903491 
L 737.817566 134.006321 
L 738.591358 136.450844 
L 739.122478 138.895367 
L 739.416416 141.339889 
L 739.475204 143.784412 
L 739.298841 146.228935 
L 738.755997 149.21956 
L 738.234223 151.11798 
L 737.341387 153.562502 
L 736.201031 156.007025 
L 734.810325 158.451548 
L 733.159514 160.89607 
L 731.238332 163.340593 
L 729.035964 165.785115 
L 726.152128 168.581379 
L 723.732971 170.674161 
L 720.59526 173.118683 
L 717.098787 175.563206 
L 713.210937 178.007728 
L 708.146601 180.848855 
L 704.102462 182.896774 
L 698.765119 185.341296 
L 692.793844 187.785819 
L 686.539967 190.068399 
L 681.138309 191.840181 
L 673.936098 193.955772 
L 666.733887 195.810007 
L 658.94012 197.563909 
L 650.528912 199.179659 
L 643.326701 200.357628 
L 634.323937 201.579378 
L 625.321173 202.540405 
L 616.31841 203.247804 
L 607.315646 203.71852 
L 598.312882 203.949604 
L 589.310118 203.949604 
L 580.307354 203.71852 
L 580.307354 203.71852 
" clip-path="url(#pab75fae1ac)" style="fill: none; stroke: #b9c0d4; stroke-width: 0.8"/>
    <path d="M 573.105143 217.143501 
L 572.641519 217.12009 
L 571.30459 217.051457 
L 569.504038 216.951321 
L 567.703485 216.843482 
L 565.902932 216.72794 
L 564.102379 216.604695 
L 562.301827 216.473748 
L 560.501274 216.335098 
L 558.700721 216.188745 
L 556.900168 216.034689 
L 555.376767 215.897829 
L 555.099616 215.872508 
L 553.299063 215.700175 
L 551.49851 215.520007 
L 549.697957 215.332007 
L 547.897405 215.136173 
L 546.096852 214.932506 
L 544.296299 214.721006 
L 543.923287 214.675568 
L 542.495746 214.498674 
L 540.695193 214.26759 
L 538.894641 214.028538 
L 537.094088 213.781517 
L 535.293535 213.526528 
L 534.79216 213.453306 
L 533.492982 213.260242 
L 531.69243 212.984563 
L 529.891877 212.700776 
L 528.091324 212.408881 
L 527.023993 212.231045 
L 526.290771 212.106696 
L 524.490219 211.793082 
L 522.689666 211.471216 
L 520.889113 211.141096 
L 520.185052 211.008784 
L 519.08856 210.798977 
L 517.288008 210.446049 
L 515.487455 210.084718 
L 514.035286 209.786522 
L 513.686902 209.713659 
L 511.886349 209.328519 
L 510.085796 208.934821 
L 508.427124 208.564261 
L 508.285244 208.531966 
L 506.484691 208.113399 
L 504.684138 207.686112 
L 503.263078 207.342 
L 502.883585 207.248338 
L 501.083033 206.795058 
L 499.28248 206.332891 
L 498.467732 206.119739 
L 497.481927 205.856778 
L 495.681374 205.367424 
L 493.983667 204.897477 
L 493.880822 204.868439 
L 492.080269 204.350811 
L 490.279716 203.82394 
L 489.780222 203.675216 
L 488.479163 203.27992 
L 486.678611 202.723433 
L 485.818047 202.452955 
L 484.878058 202.151358 
L 483.077505 201.56402 
L 482.072134 201.230693 
L 481.276952 200.961444 
L 479.476399 200.341943 
L 478.52221 200.008432 
L 477.675847 199.706178 
L 475.875294 199.053115 
L 475.150456 198.786171 
L 474.074741 198.381201 
L 472.274188 197.693085 
L 471.941153 197.563909 
L 470.473636 196.981762 
L 468.883379 196.341648 
L 468.673083 196.255031 
L 466.87253 195.502665 
L 465.968193 195.119387 
L 465.071977 194.730507 
L 463.271425 193.93822 
L 463.179313 193.897125 
L 461.470872 193.116339 
L 460.517935 192.674864 
L 459.670319 192.272365 
L 457.967011 191.452603 
L 457.869766 191.404601 
L 456.069214 190.503967 
L 455.529284 190.230342 
L 454.268661 189.57467 
L 453.193275 189.00808 
L 452.468108 188.615684 
L 450.953889 187.785819 
L 450.667555 187.624535 
L 448.867003 186.597496 
L 448.808238 186.563558 
L 447.06645 185.528878 
L 446.754524 185.341296 
L 445.265897 184.419756 
L 444.785975 184.119035 
L 443.465344 183.266447 
L 442.899549 182.896774 
L 441.664791 182.064809 
L 441.092348 181.674512 
L 439.864239 180.810166 
L 439.361607 180.452251 
L 438.063686 179.497216 
L 437.704691 179.22999 
L 436.263133 178.119928 
L 436.119083 178.007728 
L 434.603967 176.785467 
L 434.46258 176.667184 
L 433.15779 175.563206 
L 432.662028 175.12761 
L 431.776653 174.340945 
L 430.861475 173.495273 
L 430.458411 173.118683 
L 429.202554 171.896422 
L 429.060922 171.752586 
L 428.010566 170.674161 
L 427.260369 169.868905 
L 426.876054 169.451899 
L 425.80081 168.229638 
L 425.459817 167.822639 
L 424.784035 167.007377 
L 423.821545 165.785115 
L 423.659264 165.567586 
L 422.917603 164.562854 
L 422.065493 163.340593 
L 421.858711 163.025449 
L 421.269707 162.118332 
L 420.525677 160.89607 
L 420.058158 160.073192 
L 419.833588 159.673809 
L 419.195409 158.451548 
L 418.606322 157.229286 
L 418.257606 156.439982 
L 418.068276 156.007025 
L 417.582379 154.784764 
L 417.145072 153.562502 
L 416.756354 152.340241 
L 416.457053 151.264692 
L 416.416638 151.11798 
L 416.128045 149.895718 
L 415.88755 148.673457 
L 415.695155 147.451196 
L 415.550858 146.228935 
L 415.45466 145.006673 
L 415.406561 143.784412 
L 415.406561 142.562151 
L 415.45466 141.339889 
L 415.550858 140.117628 
L 415.695155 138.895367 
L 415.88755 137.673105 
L 416.128045 136.450844 
L 416.416638 135.228583 
L 416.457053 135.08187 
L 416.756354 134.006321 
L 417.145072 132.78406 
L 417.582379 131.561799 
L 418.068276 130.339538 
L 418.257606 129.906581 
L 418.606322 129.117276 
L 419.195409 127.895015 
L 419.833588 126.672754 
L 420.058158 126.27337 
L 420.525677 125.450492 
L 421.269707 124.228231 
L 421.858711 123.321114 
L 422.065493 123.00597 
L 422.917603 121.783708 
L 423.659264 120.778977 
L 423.821545 120.561447 
L 424.784035 119.339186 
L 425.459817 118.523923 
L 425.80081 118.116924 
L 426.876054 116.894663 
L 427.260369 116.477658 
L 428.010566 115.672402 
L 429.060922 114.593976 
L 429.202554 114.450141 
L 430.458411 113.227879 
L 430.861475 112.851289 
L 431.776653 112.005618 
L 432.662028 111.218952 
L 433.15779 110.783357 
L 434.46258 109.679378 
L 434.603967 109.561095 
L 436.119083 108.338834 
L 436.263133 108.226634 
L 437.704691 107.116573 
L 438.063686 106.849346 
L 439.361607 105.894311 
L 439.864239 105.536396 
L 441.092348 104.67205 
L 441.664791 104.281753 
L 442.899549 103.449789 
L 443.465344 103.080116 
L 444.785975 102.227527 
L 445.265897 101.926807 
L 446.754524 101.005266 
L 447.06645 100.817685 
L 448.808238 99.783005 
L 448.867003 99.749066 
L 450.667555 98.722027 
L 450.953889 98.560744 
L 452.468108 97.730878 
L 453.193275 97.338482 
L 454.268661 96.771892 
L 455.529284 96.116221 
L 456.069214 95.842596 
L 457.869766 94.941961 
L 457.967011 94.89396 
L 459.670319 94.074197 
L 460.517935 93.671698 
L 461.470872 93.230224 
L 463.179313 92.449437 
L 463.271425 92.408343 
L 465.071977 91.616055 
L 465.968193 91.227176 
L 466.87253 90.843898 
L 468.673083 90.091532 
L 468.883379 90.004914 
L 470.473636 89.364801 
L 471.941153 88.782653 
L 472.274188 88.653477 
L 474.074741 87.965361 
L 475.150456 87.560392 
L 475.875294 87.293448 
L 477.675847 86.640385 
L 478.52221 86.33813 
L 479.476399 86.004619 
L 481.276952 85.385118 
L 482.072134 85.115869 
L 483.077505 84.782542 
L 484.878058 84.195204 
L 485.818047 83.893608 
L 486.678611 83.62313 
L 488.479163 83.066642 
L 489.780222 82.671347 
L 490.279716 82.522622 
L 492.080269 81.995751 
L 493.880822 81.478124 
L 493.983667 81.449085 
L 495.681374 80.979138 
L 497.481927 80.489784 
L 498.467732 80.226824 
L 499.28248 80.013672 
L 501.083033 79.551504 
L 502.883585 79.098225 
L 503.263078 79.004563 
L 504.684138 78.66045 
L 506.484691 78.233163 
L 508.285244 77.814597 
L 508.427124 77.782301 
L 510.085796 77.411742 
L 511.886349 77.018043 
L 513.686902 76.632904 
L 514.035286 76.56004 
L 515.487455 76.261845 
L 517.288008 75.900514 
L 519.08856 75.547586 
L 520.185052 75.337779 
L 520.889113 75.205467 
L 522.689666 74.875347 
L 524.490219 74.55348 
L 526.290771 74.239866 
L 527.023993 74.115517 
L 528.091324 73.937681 
L 529.891877 73.645786 
L 531.69243 73.361999 
L 533.492982 73.08632 
L 534.79216 72.893256 
L 535.293535 72.820034 
L 537.094088 72.565045 
L 538.894641 72.318024 
L 540.695193 72.078972 
L 542.495746 71.847888 
L 543.923287 71.670995 
L 544.296299 71.625557 
L 546.096852 71.414056 
L 547.897405 71.210389 
L 549.697957 71.014555 
L 551.49851 70.826555 
L 553.299063 70.646388 
L 555.099616 70.474054 
L 555.376767 70.448734 
L 556.900168 70.311874 
L 558.700721 70.157818 
L 560.501274 70.011465 
L 562.301827 69.872814 
L 564.102379 69.741867 
L 565.902932 69.618622 
L 567.703485 69.50308 
L 569.504038 69.395241 
L 571.30459 69.295105 
L 572.641519 69.226472 
L 573.105143 69.203062 
L 574.905696 69.11972 
L 576.706249 69.043955 
L 578.506802 68.975766 
L 580.307354 68.915154 
L 582.107907 68.862118 
L 583.90846 68.816659 
L 585.709013 68.778777 
L 587.509565 68.748471 
L 589.310118 68.725741 
L 591.110671 68.710588 
L 592.911224 68.703012 
L 594.711776 68.703012 
L 596.512329 68.710588 
L 598.312882 68.725741 
L 600.113435 68.748471 
L 601.913987 68.778777 
L 603.71454 68.816659 
L 605.515093 68.862118 
L 607.315646 68.915154 
L 609.116198 68.975766 
L 610.916751 69.043955 
L 612.717304 69.11972 
L 614.517857 69.203062 
L 614.981481 69.226472 
L 616.31841 69.295105 
L 618.118962 69.395241 
L 619.919515 69.50308 
L 621.720068 69.618622 
L 623.520621 69.741867 
L 625.321173 69.872814 
L 627.121726 70.011465 
L 628.922279 70.157818 
L 630.722832 70.311874 
L 632.246233 70.448734 
L 632.523384 70.474054 
L 634.323937 70.646388 
L 636.12449 70.826555 
L 637.925043 71.014555 
L 639.725595 71.210389 
L 641.526148 71.414056 
L 643.326701 71.625557 
L 643.699713 71.670995 
L 645.127254 71.847888 
L 646.927807 72.078972 
L 648.728359 72.318024 
L 650.528912 72.565045 
L 652.329465 72.820034 
L 652.83084 72.893256 
L 654.130018 73.08632 
L 655.93057 73.361999 
L 657.731123 73.645786 
L 659.531676 73.937681 
L 660.599007 74.115517 
L 661.332229 74.239866 
L 663.132781 74.55348 
L 664.933334 74.875347 
L 666.733887 75.205467 
L 667.437948 75.337779 
L 668.53444 75.547586 
L 670.334992 75.900514 
L 672.135545 76.261845 
L 673.587714 76.56004 
L 673.936098 76.632904 
L 675.736651 77.018043 
L 677.537204 77.411742 
L 679.195876 77.782301 
L 679.337756 77.814597 
L 681.138309 78.233163 
L 682.938862 78.66045 
L 684.359922 79.004563 
L 684.739415 79.098225 
L 686.539967 79.551504 
L 688.34052 80.013672 
L 689.155268 80.226824 
L 690.141073 80.489784 
L 691.941626 80.979138 
L 693.639333 81.449085 
L 693.742178 81.478124 
L 695.542731 81.995751 
L 697.343284 82.522622 
L 697.842778 82.671347 
L 699.143837 83.066642 
L 700.944389 83.62313 
L 701.804953 83.893608 
L 702.744942 84.195204 
L 704.545495 84.782542 
L 705.550866 85.115869 
L 706.346048 85.385118 
L 708.146601 86.004619 
L 709.10079 86.33813 
L 709.947153 86.640385 
L 711.747706 87.293448 
L 712.472544 87.560392 
L 713.548259 87.965361 
L 715.348812 88.653477 
L 715.681847 88.782653 
L 717.149364 89.364801 
L 718.739621 90.004914 
L 718.949917 90.091532 
L 720.75047 90.843898 
L 721.654807 91.227176 
L 722.551023 91.616055 
L 724.351575 92.408343 
L 724.443687 92.449437 
L 726.152128 93.230224 
L 727.105065 93.671698 
L 727.952681 94.074197 
L 729.655989 94.89396 
L 729.753234 94.941961 
L 731.553786 95.842596 
L 732.093716 96.116221 
L 733.354339 96.771892 
L 734.429725 97.338482 
L 735.154892 97.730878 
L 736.669111 98.560744 
L 736.955445 98.722027 
L 738.755997 99.749066 
L 738.814762 99.783005 
L 740.55655 100.817685 
L 740.868476 101.005266 
L 742.357103 101.926807 
L 742.837025 102.227527 
L 744.157656 103.080116 
L 744.723451 103.449789 
L 745.958209 104.281753 
L 746.530652 104.67205 
L 747.758761 105.536396 
L 748.261393 105.894311 
L 749.559314 106.849346 
L 749.918309 107.116573 
L 751.359867 108.226634 
L 751.503917 108.338834 
L 753.019033 109.561095 
L 753.16042 109.679378 
L 754.46521 110.783357 
L 754.960972 111.218952 
L 755.846347 112.005618 
L 756.761525 112.851289 
L 757.164589 113.227879 
L 758.420446 114.450141 
L 758.562078 114.593976 
L 759.612434 115.672402 
L 760.362631 116.477658 
L 760.746946 116.894663 
L 761.82219 118.116924 
L 762.163183 118.523923 
L 762.838965 119.339186 
L 763.801455 120.561447 
L 763.963736 120.778977 
L 764.705397 121.783708 
L 765.557507 123.00597 
L 765.764289 123.321114 
L 766.353293 124.228231 
L 767.097323 125.450492 
L 767.564842 126.27337 
L 767.789412 126.672754 
L 768.427591 127.895015 
L 769.016678 129.117276 
L 769.365394 129.906581 
L 769.554724 130.339538 
L 770.040621 131.561799 
L 770.477928 132.78406 
L 770.866646 134.006321 
L 771.165947 135.08187 
L 771.206362 135.228583 
L 771.494955 136.450844 
L 771.73545 137.673105 
L 771.927845 138.895367 
L 772.072142 140.117628 
L 772.16834 141.339889 
L 772.216439 142.562151 
L 772.216439 143.784412 
L 772.16834 145.006673 
L 772.072142 146.228935 
L 771.927845 147.451196 
L 771.73545 148.673457 
L 771.494955 149.895718 
L 771.206362 151.11798 
L 771.165947 151.264692 
L 770.866646 152.340241 
L 770.477928 153.562502 
L 770.040621 154.784764 
L 769.554724 156.007025 
L 769.365394 156.439982 
L 769.016678 157.229286 
L 768.427591 158.451548 
L 767.789412 159.673809 
L 767.564842 160.073192 
L 767.097323 160.89607 
L 766.353293 162.118332 
L 765.764289 163.025449 
L 765.557507 163.340593 
L 764.705397 164.562854 
L 763.963736 165.567586 
L 763.801455 165.785115 
L 762.838965 167.007377 
L 762.163183 167.822639 
L 761.82219 168.229638 
L 760.746946 169.451899 
L 760.362631 169.868905 
L 759.612434 170.674161 
L 758.562078 171.752586 
L 758.420446 171.896422 
L 757.164589 173.118683 
L 756.761525 173.495273 
L 755.846347 174.340945 
L 754.960972 175.12761 
L 754.46521 175.563206 
L 753.16042 176.667184 
L 753.019033 176.785467 
L 751.503917 178.007728 
L 751.359867 178.119928 
L 749.918309 179.22999 
L 749.559314 179.497216 
L 748.261393 180.452251 
L 747.758761 180.810166 
L 746.530652 181.674512 
L 745.958209 182.064809 
L 744.723451 182.896774 
L 744.157656 183.266447 
L 742.837025 184.119035 
L 742.357103 184.419756 
L 740.868476 185.341296 
L 740.55655 185.528878 
L 738.814762 186.563558 
L 738.755997 186.597496 
L 736.955445 187.624535 
L 736.669111 187.785819 
L 735.154892 188.615684 
L 734.429725 189.00808 
L 733.354339 189.57467 
L 732.093716 190.230342 
L 731.553786 190.503967 
L 729.753234 191.404601 
L 729.655989 191.452603 
L 727.952681 192.272365 
L 727.105065 192.674864 
L 726.152128 193.116339 
L 724.443687 193.897125 
L 724.351575 193.93822 
L 722.551023 194.730507 
L 721.654807 195.119387 
L 720.75047 195.502665 
L 718.949917 196.255031 
L 718.739621 196.341648 
L 717.149364 196.981762 
L 715.681847 197.563909 
L 715.348812 197.693085 
L 713.548259 198.381201 
L 712.472544 198.786171 
L 711.747706 199.053115 
L 709.947153 199.706178 
L 709.10079 200.008432 
L 708.146601 200.341943 
L 706.346048 200.961444 
L 705.550866 201.230693 
L 704.545495 201.56402 
L 702.744942 202.151358 
L 701.804953 202.452955 
L 700.944389 202.723433 
L 699.143837 203.27992 
L 697.842778 203.675216 
L 697.343284 203.82394 
L 695.542731 204.350811 
L 693.742178 204.868439 
L 693.639333 204.897477 
L 691.941626 205.367424 
L 690.141073 205.856778 
L 689.155268 206.119739 
L 688.34052 206.332891 
L 686.539967 206.795058 
L 684.739415 207.248338 
L 684.359922 207.342 
L 682.938862 207.686112 
L 681.138309 208.113399 
L 679.337756 208.531966 
L 679.195876 208.564261 
L 677.537204 208.934821 
L 675.736651 209.328519 
L 673.936098 209.713659 
L 673.587714 209.786522 
L 672.135545 210.084718 
L 670.334992 210.446049 
L 668.53444 210.798977 
L 667.437948 211.008784 
L 666.733887 211.141096 
L 664.933334 211.471216 
L 663.132781 211.793082 
L 661.332229 212.106696 
L 660.599007 212.231045 
L 659.531676 212.408881 
L 657.731123 212.700776 
L 655.93057 212.984563 
L 654.130018 213.260242 
L 652.83084 213.453306 
L 652.329465 213.526528 
L 650.528912 213.781517 
L 648.728359 214.028538 
L 646.927807 214.26759 
L 645.127254 214.498674 
L 643.699713 214.675568 
L 643.326701 214.721006 
L 641.526148 214.932506 
L 639.725595 215.136173 
L 637.925043 215.332007 
L 636.12449 215.520007 
L 634.323937 215.700175 
L 632.523384 215.872508 
L 632.246233 215.897829 
L 630.722832 216.034689 
L 628.922279 216.188745 
L 627.121726 216.335098 
L 625.321173 216.473748 
L 623.520621 216.604695 
L 621.720068 216.72794 
L 619.919515 216.843482 
L 618.118962 216.951321 
L 616.31841 217.051457 
L 614.981481 217.12009 
L 614.517857 217.143501 
L 612.717304 217.226842 
L 610.916751 217.302608 
L 609.116198 217.370796 
L 607.315646 217.431408 
L 605.515093 217.484444 
L 603.71454 217.529903 
L 601.913987 217.567786 
L 600.113435 217.598092 
L 598.312882 217.620821 
L 596.512329 217.635974 
L 594.711776 217.643551 
L 592.911224 217.643551 
L 591.110671 217.635974 
L 589.310118 217.620821 
L 587.509565 217.598092 
L 585.709013 217.567786 
L 583.90846 217.529903 
L 582.107907 217.484444 
L 580.307354 217.431408 
L 578.506802 217.370796 
L 576.706249 217.302608 
L 574.905696 217.226842 
L 573.105143 217.143501 
z
" clip-path="url(#pab75fae1ac)" style="fill: none; stroke: #b9c0d4; stroke-width: 0.8"/>
    <path d="M 772.9665 185.626659 
L 768.121541 189.00808 
L 763.963736 191.653118 
L 758.562078 194.800987 
L 753.382605 197.563909 
L 747.758761 200.316425 
L 742.357103 202.755548 
L 735.154892 205.733578 
L 729.753234 207.785565 
L 722.551023 210.3066 
L 715.348812 212.606761 
L 708.146601 214.708511 
L 698.972934 217.12009 
L 690.141073 219.185975 
L 681.138309 221.058354 
L 672.135545 222.708344 
L 663.132781 224.151789 
L 654.130018 225.397939 
L 645.127254 226.455497 
L 634.323937 227.486719 
L 623.520621 228.268252 
L 612.717304 228.803046 
L 601.913987 229.100154 
L 591.110671 229.159576 
L 580.307354 228.981311 
L 569.504038 228.56536 
L 558.700721 227.908698 
L 547.897405 227.004457 
L 538.894641 226.054499 
L 529.891877 224.921975 
L 520.889113 223.598589 
L 511.520844 222.009136 
L 502.883585 220.3364 
L 493.746664 218.342352 
L 484.878058 216.161053 
L 477.675847 214.199101 
L 470.473636 212.052267 
L 463.271425 209.700008 
L 456.069214 207.118619 
L 448.867003 204.280608 
L 443.465344 201.962687 
L 438.063686 199.459068 
L 431.894871 196.341648 
L 427.260369 193.785974 
L 421.858711 190.532467 
L 417.690947 187.785819 
L 414.6565 185.626659 
M 414.6565 100.719904 
L 419.501459 97.338482 
L 423.659264 94.693444 
L 429.060922 91.545575 
L 434.240395 88.782653 
L 439.864239 86.030137 
L 445.265897 83.591014 
L 452.468108 80.612984 
L 457.869766 78.560997 
L 465.071977 76.039963 
L 472.274188 73.739801 
L 479.476399 71.638051 
L 488.650066 69.226472 
L 497.481927 67.160587 
L 506.484691 65.288208 
L 515.487455 63.638219 
L 524.490219 62.194773 
L 533.492982 60.948623 
L 542.495746 59.891065 
L 553.299063 58.859843 
L 564.102379 58.07831 
L 574.905696 57.543516 
L 585.709013 57.246408 
L 596.512329 57.186987 
L 607.315646 57.365252 
L 618.118962 57.781202 
L 628.922279 58.437864 
L 639.725595 59.342105 
L 648.728359 60.292064 
L 657.731123 61.424587 
L 666.733887 62.747974 
L 676.102156 64.337427 
L 684.739415 66.010162 
L 693.876336 68.004211 
L 702.744942 70.18551 
L 709.947153 72.147461 
L 717.149364 74.294295 
L 724.351575 76.646555 
L 731.553786 79.227943 
L 738.755997 82.065955 
L 744.157656 84.383875 
L 749.559314 86.887494 
L 755.728129 90.004914 
L 760.362631 92.560589 
L 765.764289 95.814096 
L 769.932053 98.560744 
L 772.9665 100.719904 
L 772.9665 100.719904 
" clip-path="url(#pab75fae1ac)" style="fill: none; stroke: #b9c0d4; stroke-width: 0.8"/>
    <path d="M 772.9665 203.598815 
L 767.564842 206.286762 
L 760.362631 209.583652 
L 754.065607 212.231045 
L 747.758761 214.688184 
L 740.55655 217.278438 
L 733.354339 219.66446 
L 724.351575 222.384151 
L 715.348812 224.841993 
L 706.346048 227.060755 
L 695.974497 229.342703 
L 686.539967 231.180545 
L 675.870859 233.009487 
L 666.733887 234.371793 
L 655.93057 235.754292 
L 645.127254 236.900677 
L 634.323937 237.81901 
L 623.520621 238.513281 
L 612.717304 238.993224 
L 601.913987 239.258099 
L 591.110671 239.310751 
L 580.307354 239.152795 
L 569.504038 238.779916 
L 558.700721 238.193319 
L 547.897405 237.386853 
L 537.094088 236.356326 
L 526.290771 235.092774 
L 515.487455 233.586752 
L 504.684138 231.828293 
L 495.681374 230.15422 
L 485.934611 228.120442 
L 477.675847 226.199979 
L 468.673083 223.888529 
L 459.670319 221.328469 
L 452.468108 219.084634 
L 445.265897 216.649448 
L 438.063686 214.003118 
L 430.587594 211.008784 
L 423.659264 207.972219 
L 417.216438 204.897477 
L 414.6565 203.598815 
M 414.6565 82.747748 
L 420.058158 80.059801 
L 427.260369 76.76291 
L 433.557393 74.115517 
L 439.864239 71.658379 
L 447.06645 69.068125 
L 454.268661 66.682103 
L 463.271425 63.962412 
L 472.274188 61.50457 
L 481.276952 59.285808 
L 491.648503 57.003859 
L 501.083033 55.166018 
L 511.752141 53.337075 
L 520.889113 51.97477 
L 531.69243 50.592271 
L 542.495746 49.445886 
L 553.299063 48.527553 
L 564.102379 47.833282 
L 574.905696 47.353339 
L 585.709013 47.088464 
L 596.512329 47.035812 
L 607.315646 47.193768 
L 618.118962 47.566647 
L 628.922279 48.153244 
L 639.725595 48.959709 
L 650.528912 49.990237 
L 661.332229 51.253788 
L 672.135545 52.759811 
L 682.938862 54.51827 
L 691.941626 56.192342 
L 701.688389 58.22612 
L 709.947153 60.146583 
L 718.949917 62.458034 
L 727.952681 65.018093 
L 735.154892 67.261929 
L 742.357103 69.697114 
L 749.559314 72.343444 
L 757.035406 75.337779 
L 763.963736 78.374343 
L 770.406562 81.449085 
L 772.9665 82.747748 
L 772.9665 82.747748 
" clip-path="url(#pab75fae1ac)" style="fill: none; stroke: #b9c0d4; stroke-width: 0.8"/>
    <path d="M 772.9665 217.334542 
L 765.764289 220.246974 
L 757.755725 223.231397 
L 749.559314 226.032817 
L 740.55655 228.848008 
L 731.553786 231.414228 
L 722.551023 233.751664 
L 713.548259 235.878378 
L 704.107341 237.898533 
L 693.742178 239.880591 
L 682.938862 241.704418 
L 672.135545 243.290124 
L 661.332229 244.651889 
L 650.528912 245.797709 
L 639.725595 246.735207 
L 628.922279 247.469237 
L 618.118962 248.003679 
L 607.315646 248.342244 
L 596.512329 248.487343 
L 585.709013 248.438976 
L 574.905696 248.197144 
L 562.422732 247.676623 
L 553.299063 247.12669 
L 542.495746 246.292888 
L 531.496909 245.2321 
L 520.889113 244.000284 
L 510.085796 242.526049 
L 499.28248 240.822262 
L 488.479163 238.877119 
L 477.675847 236.675008 
L 466.87253 234.195095 
L 457.445889 231.787226 
L 448.731998 229.342703 
L 439.864239 226.617323 
L 430.861475 223.583253 
L 423.253591 220.786874 
L 416.457053 218.084617 
L 414.6565 217.334542 
M 414.6565 69.012021 
L 421.858711 66.099589 
L 429.867275 63.115166 
L 438.063686 60.313745 
L 447.06645 57.498554 
L 456.069214 54.932334 
L 465.071977 52.594899 
L 474.074741 50.468185 
L 483.515659 48.44803 
L 493.880822 46.465971 
L 504.684138 44.642144 
L 515.487455 43.056438 
L 526.290771 41.694674 
L 537.094088 40.548854 
L 547.897405 39.611356 
L 558.700721 38.877325 
L 569.504038 38.342884 
L 580.307354 38.004319 
L 591.110671 37.85922 
L 601.913987 37.907586 
L 612.717304 38.149418 
L 625.200268 38.66994 
L 634.323937 39.219873 
L 645.127254 40.053674 
L 656.126091 41.114462 
L 666.733887 42.346278 
L 677.537204 43.820513 
L 688.34052 45.524301 
L 699.143837 47.469444 
L 709.947153 49.671554 
L 720.75047 52.151468 
L 730.177111 54.559337 
L 738.891002 57.003859 
L 747.758761 59.729239 
L 756.761525 62.76331 
L 764.369409 65.559688 
L 771.165947 68.261946 
L 772.9665 69.012021 
L 772.9665 69.012021 
" clip-path="url(#pab75fae1ac)" style="fill: none; stroke: #b9c0d4; stroke-width: 0.8"/>
    <path d="M 772.9665 228.896899 
L 764.70853 231.787226 
L 756.761525 234.358297 
L 747.758761 237.043588 
L 738.755997 239.508546 
L 729.753234 241.769492 
L 718.949917 244.230954 
L 708.062484 246.454362 
L 697.343284 248.403534 
L 686.539967 250.146054 
L 675.736651 251.67064 
L 664.933334 252.990059 
L 654.130018 254.111076 
L 641.526148 255.175797 
L 628.922279 255.98459 
L 616.31841 256.543844 
L 603.71454 256.856926 
L 591.110671 256.926499 
L 578.506802 256.752565 
L 565.902932 256.335123 
L 553.299063 255.668106 
L 540.695193 254.751001 
L 528.091324 253.575471 
L 517.288008 252.356102 
L 506.484691 250.93384 
L 495.681374 249.301689 
L 484.878058 247.44969 
L 473.424242 245.2321 
L 463.271425 243.033142 
L 454.268661 240.888149 
L 445.265897 238.547706 
L 436.263133 235.996382 
L 427.260369 233.217079 
L 419.339613 230.564965 
L 414.6565 228.896899 
M 414.6565 57.449664 
L 422.91447 54.559337 
L 430.861475 51.988265 
L 439.864239 49.302974 
L 448.867003 46.838016 
L 457.869766 44.57707 
L 468.673083 42.115609 
L 479.560516 39.892201 
L 490.279716 37.943028 
L 501.083033 36.200508 
L 511.886349 34.675923 
L 522.689666 33.356503 
L 533.492982 32.235486 
L 546.096852 31.170765 
L 558.700721 30.361972 
L 571.30459 29.802718 
L 583.90846 29.489637 
L 596.512329 29.420063 
L 609.116198 29.593997 
L 621.720068 30.011439 
L 634.323937 30.678457 
L 646.927807 31.595562 
L 659.531676 32.771091 
L 670.334992 33.990461 
L 681.138309 35.412723 
L 691.941626 37.044873 
L 702.744942 38.896872 
L 714.198758 41.114462 
L 724.351575 43.31342 
L 733.354339 45.458413 
L 742.357103 47.798857 
L 751.359867 50.35018 
L 760.362631 53.129483 
L 768.283387 55.781598 
L 772.9665 57.449664 
L 772.9665 57.449664 
" clip-path="url(#pab75fae1ac)" style="fill: none; stroke: #b9c0d4; stroke-width: 0.8"/>
    <path d="M 772.9665 239.07745 
L 765.047651 241.565316 
L 754.960972 244.48935 
L 745.958209 246.886416 
L 735.154892 249.516331 
L 724.351575 251.896037 
L 713.548259 254.04203 
L 702.744942 255.96653 
L 691.941626 257.681444 
L 679.337756 259.428701 
L 668.53444 260.719006 
L 655.93057 261.990542 
L 643.326701 263.017518 
L 630.722832 263.807342 
L 618.118962 264.362877 
L 605.515093 264.689662 
L 592.911224 264.787698 
L 580.307354 264.656984 
L 567.703485 264.29752 
L 555.099616 263.709307 
L 542.495746 262.88547 
L 529.891877 261.823781 
L 517.288008 260.516807 
L 504.684138 258.956803 
L 493.880822 257.410557 
L 483.077505 255.660093 
L 472.274188 253.700796 
L 460.657692 251.343407 
L 449.829615 248.898884 
L 439.864239 246.42389 
L 429.060922 243.475047 
L 420.058158 240.792278 
L 414.6565 239.07745 
M 414.6565 47.269112 
L 422.575349 44.781246 
L 432.662028 41.857213 
L 441.664791 39.460146 
L 452.468108 36.830231 
L 463.271425 34.450525 
L 474.074741 32.304532 
L 484.878058 30.380032 
L 495.681374 28.665118 
L 508.285244 26.917862 
L 519.08856 25.627557 
L 531.69243 24.35602 
L 544.296299 23.329045 
L 556.900168 22.53922 
L 569.504038 21.983685 
L 582.107907 21.6569 
L 594.711776 21.558865 
L 607.315646 21.689579 
L 619.919515 22.049043 
L 632.523384 22.637256 
L 645.127254 23.461093 
L 657.731123 24.522782 
L 670.334992 25.829755 
L 682.938862 27.389759 
L 693.742178 28.936005 
L 704.545495 30.686469 
L 715.348812 32.645767 
L 726.965308 35.003156 
L 737.793385 37.447678 
L 747.758761 39.922672 
L 758.562078 42.871515 
L 767.564842 45.554285 
L 772.9665 47.269112 
L 772.9665 47.269112 
" clip-path="url(#pab75fae1ac)" style="fill: none; stroke: #b9c0d4; stroke-width: 0.8"/>
    <path d="M 490.80788 264.788281 
L 479.476399 263.009995 
L 468.673083 261.115723 
L 456.236841 258.676975 
L 447.06645 256.691986 
L 436.263133 254.140584 
L 427.260369 251.825439 
L 416.776094 248.898884 
L 414.6565 248.273536 
M 772.9665 248.273536 
L 763.963736 250.848811 
L 754.960972 253.235572 
L 744.157656 255.868093 
L 733.354339 258.263603 
L 722.551023 260.436915 
L 711.747706 262.401632 
L 699.143837 264.439461 
L 696.81512 264.788281 
M 414.6565 38.073027 
L 423.659264 35.497752 
L 432.662028 33.11099 
L 443.465344 30.478469 
L 454.268661 28.082959 
L 465.071977 25.909648 
L 475.875294 23.944931 
L 488.479163 21.907101 
L 490.80788 21.558281 
M 696.81512 21.558281 
L 708.146601 23.336567 
L 718.949917 25.230839 
L 731.386159 27.669588 
L 740.55655 29.654576 
L 751.359867 32.205979 
L 760.362631 34.521123 
L 770.846906 37.447678 
L 772.9665 38.073027 
L 772.9665 38.073027 
" clip-path="url(#pab75fae1ac)" style="fill: none; stroke: #b9c0d4; stroke-width: 0.8"/>
    <path d="M 448.140448 264.788281 
L 447.06645 264.562729 
L 445.265897 264.179924 
L 443.465344 263.79245 
L 442.425673 263.56602 
L 441.664791 263.398617 
L 439.864239 262.997757 
L 438.063686 262.592181 
L 436.973489 262.343759 
L 436.263133 262.180221 
L 434.46258 261.760935 
L 432.662028 261.336884 
L 431.757638 261.121497 
L 430.861475 260.905846 
L 429.060922 260.46775 
L 427.260369 260.024839 
L 426.755249 259.899236 
L 425.459817 259.573724 
L 423.659264 259.116421 
L 421.947231 258.676975 
L 421.858711 258.654012 
L 420.058158 258.182011 
L 418.257606 257.705093 
L 417.321969 257.454713 
L 416.457053 257.22077 
L 414.6565 256.728785 
M 772.9665 256.728785 
L 771.165947 257.22077 
L 770.301031 257.454713 
L 769.365394 257.705093 
L 767.564842 258.182011 
L 765.764289 258.654012 
L 765.675769 258.676975 
L 763.963736 259.116421 
L 762.163183 259.573724 
L 760.867751 259.899236 
L 760.362631 260.024839 
L 758.562078 260.46775 
L 756.761525 260.905846 
L 755.865362 261.121497 
L 754.960972 261.336884 
L 753.16042 261.760935 
L 751.359867 262.180221 
L 750.649511 262.343759 
L 749.559314 262.592181 
L 747.758761 262.997757 
L 745.958209 263.398617 
L 745.197327 263.56602 
L 744.157656 263.79245 
L 742.357103 264.179924 
L 740.55655 264.562729 
L 739.482552 264.788281 
M 414.6565 29.617777 
L 416.457053 29.125792 
L 417.321969 28.891849 
L 418.257606 28.641469 
L 420.058158 28.164552 
L 421.858711 27.692551 
L 421.947231 27.669588 
L 423.659264 27.230142 
L 425.459817 26.772839 
L 426.755249 26.447326 
L 427.260369 26.321723 
L 429.060922 25.878813 
L 430.861475 25.440717 
L 431.757638 25.225065 
L 432.662028 25.009678 
L 434.46258 24.585627 
L 436.263133 24.166341 
L 436.973489 24.002804 
L 438.063686 23.754381 
L 439.864239 23.348805 
L 441.664791 22.947946 
L 442.425673 22.780543 
L 443.465344 22.554113 
L 445.265897 22.166639 
L 447.06645 21.783833 
L 448.140448 21.558281 
M 739.482552 21.558281 
L 740.55655 21.783833 
L 742.357103 22.166639 
L 744.157656 22.554113 
L 745.197327 22.780543 
L 745.958209 22.947946 
L 747.758761 23.348805 
L 749.559314 23.754381 
L 750.649511 24.002804 
L 751.359867 24.166341 
L 753.16042 24.585627 
L 754.960972 25.009678 
L 755.865362 25.225065 
L 756.761525 25.440717 
L 758.562078 25.878813 
L 760.362631 26.321723 
L 760.867751 26.447326 
L 762.163183 26.772839 
L 763.963736 27.230142 
L 765.675769 27.669588 
L 765.764289 27.692551 
L 767.564842 28.164552 
L 769.365394 28.641469 
L 770.301031 28.891849 
L 771.165947 29.125792 
L 772.9665 29.617777 
" clip-path="url(#pab75fae1ac)" style="fill: none; stroke: #b9c0d4; stroke-width: 0.8"/>
    <path d="M 415.400549 264.788281 
L 414.6565 264.597298 
M 772.9665 264.597298 
L 772.222451 264.788281 
M 414.6565 21.749264 
L 415.400549 21.558281 
M 772.222451 21.558281 
L 772.9665 21.749264 
" clip-path="url(#pab75fae1ac)" style="fill: none; stroke: #b9c0d4; stroke-width: 0.8"/>
    <path clip-path="url(#pab75fae1ac)" style="fill: none; stroke: #b9c0d4; stroke-width: 0.8"/>
   </g>
   <g id="line2d_3">
    <path d="M 439.086727 55.002406 
L 453.321406 217.236816 
L 466.246495 80.959912 
L 477.982475 195.432512 
L 488.638746 99.275528 
L 498.314639 180.047394 
L 507.10035 112.199026 
L 515.077776 169.191655 
L 522.321279 121.317847 
L 528.898379 161.531846 
L 534.870386 127.752087 
L 540.292969 156.127085 
L 545.216674 132.292086 
L 549.687398 152.313485 
L 553.746815 135.49551 
L 557.432766 149.622609 
L 560.77961 137.755846 
" clip-path="url(#pab75fae1ac)" style="fill: none; stroke: #c00000; stroke-width: 1.3"/>
    <g clip-path="url(#pab75fae1ac)">
     <use xlink:href="#m3f15363294" x="439.086727" y="55.002406" style="fill: #c00000; stroke: #c00000"/>
     <use xlink:href="#m3f15363294" x="453.321406" y="217.236816" style="fill: #c00000; stroke: #c00000"/>
     <use xlink:href="#m3f15363294" x="466.246495" y="80.959912" style="fill: #c00000; stroke: #c00000"/>
     <use xlink:href="#m3f15363294" x="477.982475" y="195.432512" style="fill: #c00000; stroke: #c00000"/>
     <use xlink:href="#m3f15363294" x="488.638746" y="99.275528" style="fill: #c00000; stroke: #c00000"/>
     <use xlink:href="#m3f15363294" x="498.314639" y="180.047394" style="fill: #c00000; stroke: #c00000"/>
     <use xlink:href="#m3f15363294" x="507.10035" y="112.199026" style="fill: #c00000; stroke: #c00000"/>
     <use xlink:href="#m3f15363294" x="515.077776" y="169.191655" style="fill: #c00000; stroke: #c00000"/>
     <use xlink:href="#m3f15363294" x="522.321279" y="121.317847" style="fill: #c00000; stroke: #c00000"/>
     <use xlink:href="#m3f15363294" x="528.898379" y="161.531846" style="fill: #c00000; stroke: #c00000"/>
     <use xlink:href="#m3f15363294" x="534.870386" y="127.752087" style="fill: #c00000; stroke: #c00000"/>
     <use xlink:href="#m3f15363294" x="540.292969" y="156.127085" style="fill: #c00000; stroke: #c00000"/>
     <use xlink:href="#m3f15363294" x="545.216674" y="132.292086" style="fill: #c00000; stroke: #c00000"/>
     <use xlink:href="#m3f15363294" x="549.687398" y="152.313485" style="fill: #c00000; stroke: #c00000"/>
     <use xlink:href="#m3f15363294" x="553.746815" y="135.49551" style="fill: #c00000; stroke: #c00000"/>
     <use xlink:href="#m3f15363294" x="557.432766" y="149.622609" style="fill: #c00000; stroke: #c00000"/>
     <use xlink:href="#m3f15363294" x="560.77961" y="137.755846" style="fill: #c00000; stroke: #c00000"/>
    </g>
   </g>
   <g id="line2d_4">
    <path d="M 593.8115 143.173281 
" clip-path="url(#pab75fae1ac)" style="fill: none; stroke: #0e7490; stroke-width: 4"/>
    <g clip-path="url(#pab75fae1ac)">
     <use xlink:href="#m072998e621" x="593.8115" y="143.173281" style="fill: #0e7490; stroke: #0e7490; stroke-linejoin: bevel"/>
    </g>
   </g>
   <g id="patch_8">
    <path d="M 414.6565 264.788281 
L 414.6565 21.558281 
" style="fill: none; stroke: #f0f0f0; stroke-width: 3; stroke-linejoin: miter; stroke-linecap: square"/>
   </g>
   <g id="patch_9">
    <path d="M 772.9665 264.788281 
L 772.9665 21.558281 
" style="fill: none; stroke: #f0f0f0; stroke-width: 3; stroke-linejoin: miter; stroke-linecap: square"/>
   </g>
   <g id="patch_10">
    <path d="M 414.6565 264.788281 
L 772.9665 264.788281 
" style="fill: none; stroke: #f0f0f0; stroke-width: 3; stroke-linejoin: miter; stroke-linecap: square"/>
   </g>
   <g id="patch_11">
    <path d="M 414.6565 21.558281 
L 772.9665 21.558281 
" style="fill: none; stroke: #f0f0f0; stroke-width: 3; stroke-linejoin: miter; stroke-linecap: square"/>
   </g>
   <g id="text_6">
    <!-- Learning rate too large -->
    <g style="fill: #808080" transform="translate(530.691266 15.558281) scale(0.11 -0.11)">
     <use xlink:href="#DejaVuSans-4c"/>
     <use xlink:href="#DejaVuSans-65" transform="translate(53.962891 0)"/>
     <use xlink:href="#DejaVuSans-61" transform="translate(115.486328 0)"/>
     <use xlink:href="#DejaVuSans-72" transform="translate(176.765625 0)"/>
     <use xlink:href="#DejaVuSans-6e" transform="translate(216.128906 0)"/>
     <use xlink:href="#DejaVuSans-69" transform="translate(279.507812 0)"/>
     <use xlink:href="#DejaVuSans-6e" transform="translate(307.291016 0)"/>
     <use xlink:href="#DejaVuSans-67" transform="translate(370.669922 0)"/>
     <use xlink:href="#DejaVuSans-20" transform="translate(434.146484 0)"/>
     <use xlink:href="#DejaVuSans-72" transform="translate(465.933594 0)"/>
     <use xlink:href="#DejaVuSans-61" transform="translate(507.046875 0)"/>
     <use xlink:href="#DejaVuSans-74" transform="translate(568.326172 0)"/>
     <use xlink:href="#DejaVuSans-65" transform="translate(607.535156 0)"/>
     <use xlink:href="#DejaVuSans-20" transform="translate(669.058594 0)"/>
     <use xlink:href="#DejaVuSans-74" transform="translate(700.845703 0)"/>
     <use xlink:href="#DejaVuSans-6f" transform="translate(740.054688 0)"/>
     <use xlink:href="#DejaVuSans-6f" transform="translate(801.236328 0)"/>
     <use xlink:href="#DejaVuSans-20" transform="translate(862.417969 0)"/>
     <use xlink:href="#DejaVuSans-6c" transform="translate(894.205078 0)"/>
     <use xlink:href="#DejaVuSans-61" transform="translate(921.988281 0)"/>
     <use xlink:href="#DejaVuSans-72" transform="translate(983.267578 0)"/>
     <use xlink:href="#DejaVuSans-67" transform="translate(1022.630859 0)"/>
     <use xlink:href="#DejaVuSans-65" transform="translate(1086.107422 0)"/>
    </g>
   </g>
  </g>
 </g>
 <defs>
  <clipPath id="p21f77746e2">
   <rect x="25.1365" y="21.558281" width="358.31" height="243.23"/>
  </clipPath>
  <clipPath id="pab75fae1ac">
   <rect x="414.6565" y="21.558281" width="358.31" height="243.23"/>
  </clipPath>
 </defs>
</svg>
