<?xml version="1.0" encoding="utf-8" standalone="no"?>
<!DOCTYPE svg PUBLIC "-//W3C//DTD SVG 1.1//EN"
  "http://www.w3.org/Graphics/SVG/1.1/DTD/svg11.dtd">
<svg xmlns:xlink="http://www.w3.org/1999/xlink" width="568.8pt" height="316.8pt" viewBox="0 0 568.8 316.8" xmlns="http://www.w3.org/2000/svg" version="1.1">
 <metadata>
  <rdf:RDF xmlns:dc="http://purl.org/dc/elements/1.1/" xmlns:cc="http://creativecommons.org/ns#" xmlns:rdf="http://www.w3.org/1999/02/22-rdf-syntax-ns#">
   <cc:Work>
    <dc:type rdf:resource="http://purl.org/dc/dcmitype/StillImage"/>
    <dc:date>2026-07-16T17:46:11.992578</dc:date>
    <dc:format>image/svg+xml</dc:format>
    <dc:creator>
     <cc:Agent>
      <dc:title>Matplotlib v3.10.8, https://matplotlib.org/</dc:title>
     </cc:Agent>
    </dc:creator>
   </cc:Work>
  </rdf:RDF>
 </metadata>
 <defs>
  <style type="text/css">*{stroke-linejoin: round; stroke-linecap: butt}</style>
 </defs>
 <g id="figure_1">
  <g id="patch_1">
   <path d="M 0 316.8 
L 568.8 316.8 
L 568.8 0 
L 0 0 
z
" style="fill: #ffffff"/>
  </g>
  <g id="axes_1">
   <g id="patch_2">
    <path d="M 7.2 309.6 
L 561.6 309.6 
L 561.6 7.2 
L 7.2 7.2 
z
" style="fill: #ffffff"/>
   </g>
   <g id="FillBetweenPolyCollection_1">
    <defs>
     <path id="m8885555889" d="M 141.423158 -59.527428 
L 141.423158 -91.382264 
L 142.379525 -92.208615 
L 143.335892 -93.05064 
L 144.292258 -93.90845 
L 145.248625 -94.782149 
L 146.204992 -95.671838 
L 147.161359 -96.57761 
L 148.117726 -97.499554 
L 149.074093 -98.43775 
L 150.030459 -99.392275 
L 150.986826 -100.363195 
L 151.943193 -101.350573 
L 152.89956 -102.354464 
L 153.855927 -103.374914 
L 154.812294 -104.411963 
L 155.76866 -105.465643 
L 156.725027 -106.535978 
L 157.681394 -107.622983 
L 158.637761 -108.726667 
L 159.594128 -109.847028 
L 160.550495 -110.984057 
L 161.506861 -112.137734 
L 162.463228 -113.308033 
L 163.419595 -114.494916 
L 164.375962 -115.698337 
L 165.332329 -116.918239 
L 166.288696 -118.154557 
L 167.245062 -119.407214 
L 168.201429 -120.676126 
L 169.157796 -121.961194 
L 170.114163 -123.262314 
L 171.07053 -124.579366 
L 172.026897 -125.912223 
L 172.983264 -127.260746 
L 173.93963 -128.624785 
L 174.895997 -130.004179 
L 175.852364 -131.398756 
L 176.808731 -132.808331 
L 177.765098 -134.23271 
L 178.721465 -135.671686 
L 179.677831 -137.125041 
L 180.634198 -138.592545 
L 181.590565 -140.073956 
L 182.546932 -141.569021 
L 183.503299 -143.077475 
L 184.459666 -144.59904 
L 185.416032 -146.133428 
L 186.372399 -147.680338 
L 187.328766 -149.239457 
L 188.285133 -150.81046 
L 189.2415 -152.39301 
L 190.197867 -153.986759 
L 191.154233 -155.591347 
L 192.1106 -157.206402 
L 193.066967 -158.831539 
L 194.023334 -160.466364 
L 194.979701 -162.110469 
L 195.936068 -163.763435 
L 196.892434 -165.424833 
L 197.848801 -167.094221 
L 198.805168 -168.771147 
L 199.761535 -170.455148 
L 200.717902 -172.145749 
L 201.674269 -173.842465 
L 202.630635 -175.544802 
L 203.587002 -177.252252 
L 204.543369 -178.9643 
L 205.499736 -180.680421 
L 206.456103 -182.400078 
L 207.41247 -184.122727 
L 208.368836 -185.847813 
L 209.325203 -187.574773 
L 210.28157 -189.303034 
L 211.237937 -191.032017 
L 212.194304 -192.761132 
L 213.150671 -194.489783 
L 214.107037 -196.217367 
L 215.063404 -197.943271 
L 216.019771 -199.666877 
L 216.976138 -201.387561 
L 217.932505 -203.104692 
L 218.888872 -204.817633 
L 219.845239 -206.525742 
L 220.801605 -208.228371 
L 221.757972 -209.924868 
L 222.714339 -211.614577 
L 223.670706 -213.296837 
L 224.627073 -214.970985 
L 225.58344 -216.636353 
L 226.539806 -218.292272 
L 227.496173 -219.938071 
L 228.45254 -221.573075 
L 229.408907 -223.19661 
L 230.365274 -224.808 
L 231.321641 -226.406569 
L 232.278007 -227.991641 
L 233.234374 -229.56254 
L 234.190741 -231.118591 
L 235.147108 -232.659122 
L 236.103475 -234.18346 
L 237.059842 -235.690938 
L 238.016208 -237.180889 
L 238.972575 -238.65265 
L 239.928942 -240.105564 
L 240.885309 -241.538975 
L 241.841676 -242.952234 
L 242.798043 -244.344697 
L 243.754409 -245.715726 
L 244.710776 -247.064689 
L 245.667143 -248.390961 
L 246.62351 -249.693922 
L 247.579877 -250.972964 
L 248.536244 -252.227484 
L 249.49261 -253.45689 
L 250.448977 -254.660596 
L 251.405344 -255.838028 
L 252.361711 -256.988621 
L 253.318078 -258.111823 
L 254.274445 -259.207089 
L 255.230811 -260.273889 
L 256.187178 -261.311702 
L 257.143545 -262.320021 
L 258.099912 -263.298351 
L 259.056279 -264.24621 
L 260.012646 -265.16313 
L 260.969012 -266.048657 
L 261.925379 -266.90235 
L 262.881746 -267.723784 
L 263.838113 -268.512548 
L 264.79448 -269.268246 
L 265.750847 -269.990499 
L 266.707214 -270.678943 
L 267.66358 -271.33323 
L 268.619947 -271.95303 
L 269.576314 -272.538027 
L 270.532681 -273.087925 
L 271.489048 -273.602444 
L 272.445415 -274.081322 
L 273.401781 -274.524313 
L 274.358148 -274.931192 
L 275.314515 -275.30175 
L 276.270882 -275.635798 
L 277.227249 -275.933163 
L 278.183616 -276.193693 
L 279.139982 -276.417254 
L 280.096349 -276.603731 
L 281.052716 -276.753028 
L 282.009083 -276.865068 
L 282.96545 -276.939794 
L 283.921817 -276.977166 
L 284.878183 -276.977166 
L 285.83455 -276.939794 
L 286.790917 -276.865068 
L 287.747284 -276.753028 
L 288.703651 -276.603731 
L 289.660018 -276.417254 
L 290.616384 -276.193693 
L 291.572751 -275.933163 
L 292.529118 -275.635798 
L 293.485485 -275.30175 
L 294.441852 -274.931192 
L 295.398219 -274.524313 
L 296.354585 -274.081322 
L 297.310952 -273.602444 
L 298.267319 -273.087925 
L 299.223686 -272.538027 
L 300.180053 -271.95303 
L 301.13642 -271.33323 
L 302.092786 -270.678943 
L 303.049153 -269.990499 
L 304.00552 -269.268246 
L 304.961887 -268.512548 
L 305.918254 -267.723784 
L 306.874621 -266.90235 
L 307.830988 -266.048657 
L 308.787354 -265.16313 
L 309.743721 -264.24621 
L 310.700088 -263.298351 
L 311.656455 -262.320021 
L 312.612822 -261.311702 
L 313.569189 -260.273889 
L 314.525555 -259.207089 
L 315.481922 -258.111823 
L 316.438289 -256.988621 
L 317.394656 -255.838028 
L 318.351023 -254.660596 
L 319.30739 -253.45689 
L 320.263756 -252.227484 
L 321.220123 -250.972964 
L 322.17649 -249.693922 
L 323.132857 -248.390961 
L 324.089224 -247.064689 
L 325.045591 -245.715726 
L 326.001957 -244.344697 
L 326.958324 -242.952234 
L 327.914691 -241.538975 
L 328.871058 -240.105564 
L 329.827425 -238.65265 
L 330.783792 -237.180889 
L 331.740158 -235.690938 
L 332.696525 -234.18346 
L 333.652892 -232.659122 
L 334.609259 -231.118591 
L 335.565626 -229.56254 
L 336.521993 -227.991641 
L 337.478359 -226.406569 
L 338.434726 -224.808 
L 339.391093 -223.19661 
L 340.34746 -221.573075 
L 341.303827 -219.938071 
L 342.260194 -218.292272 
L 343.21656 -216.636353 
L 344.172927 -214.970985 
L 345.129294 -213.296837 
L 346.085661 -211.614577 
L 347.042028 -209.924868 
L 347.998395 -208.228371 
L 348.954761 -206.525742 
L 349.911128 -204.817633 
L 350.867495 -203.104692 
L 351.823862 -201.387561 
L 352.780229 -199.666877 
L 353.736596 -197.943271 
L 354.692963 -196.217367 
L 355.649329 -194.489783 
L 356.605696 -192.761132 
L 357.562063 -191.032017 
L 358.51843 -189.303034 
L 359.474797 -187.574773 
L 360.431164 -185.847813 
L 361.38753 -184.122727 
L 362.343897 -182.400078 
L 363.300264 -180.680421 
L 364.256631 -178.9643 
L 365.212998 -177.252252 
L 366.169365 -175.544802 
L 367.125731 -173.842465 
L 368.082098 -172.145749 
L 369.038465 -170.455148 
L 369.994832 -168.771147 
L 370.951199 -167.094221 
L 371.907566 -165.424833 
L 372.863932 -163.763435 
L 373.820299 -162.110469 
L 374.776666 -160.466364 
L 375.733033 -158.831539 
L 376.6894 -157.206402 
L 377.645767 -155.591347 
L 378.602133 -153.986759 
L 379.5585 -152.39301 
L 380.514867 -150.81046 
L 381.471234 -149.239457 
L 382.427601 -147.680338 
L 383.383968 -146.133428 
L 384.340334 -144.59904 
L 385.296701 -143.077475 
L 386.253068 -141.569021 
L 387.209435 -140.073956 
L 388.165802 -138.592545 
L 389.122169 -137.125041 
L 390.078535 -135.671686 
L 391.034902 -134.23271 
L 391.991269 -132.808331 
L 392.947636 -131.398756 
L 393.904003 -130.004179 
L 394.86037 -128.624785 
L 395.816736 -127.260746 
L 396.773103 -125.912223 
L 397.72947 -124.579366 
L 398.685837 -123.262314 
L 399.642204 -121.961194 
L 400.598571 -120.676126 
L 401.554938 -119.407214 
L 402.511304 -118.154557 
L 403.467671 -116.918239 
L 404.424038 -115.698337 
L 405.380405 -114.494916 
L 406.336772 -113.308033 
L 407.293139 -112.137734 
L 408.249505 -110.984057 
L 409.205872 -109.847028 
L 410.162239 -108.726667 
L 411.118606 -107.622983 
L 412.074973 -106.535978 
L 413.03134 -105.465643 
L 413.987706 -104.411963 
L 414.944073 -103.374914 
L 415.90044 -102.354464 
L 416.856807 -101.350573 
L 417.813174 -100.363195 
L 418.769541 -99.392275 
L 419.725907 -98.43775 
L 420.682274 -97.499554 
L 421.638641 -96.57761 
L 422.595008 -95.671838 
L 423.551375 -94.782149 
L 424.507742 -93.90845 
L 425.464108 -93.05064 
L 426.420475 -92.208615 
L 427.376842 -91.382264 
L 427.376842 -59.527428 
L 427.376842 -59.527428 
L 426.420475 -59.527428 
L 425.464108 -59.527428 
L 424.507742 -59.527428 
L 423.551375 -59.527428 
L 422.595008 -59.527428 
L 421.638641 -59.527428 
L 420.682274 -59.527428 
L 419.725907 -59.527428 
L 418.769541 -59.527428 
L 417.813174 -59.527428 
L 416.856807 -59.527428 
L 415.90044 -59.527428 
L 414.944073 -59.527428 
L 413.987706 -59.527428 
L 413.03134 -59.527428 
L 412.074973 -59.527428 
L 411.118606 -59.527428 
L 410.162239 -59.527428 
L 409.205872 -59.527428 
L 408.249505 -59.527428 
L 407.293139 -59.527428 
L 406.336772 -59.527428 
L 405.380405 -59.527428 
L 404.424038 -59.527428 
L 403.467671 -59.527428 
L 402.511304 -59.527428 
L 401.554938 -59.527428 
L 400.598571 -59.527428 
L 399.642204 -59.527428 
L 398.685837 -59.527428 
L 397.72947 -59.527428 
L 396.773103 -59.527428 
L 395.816736 -59.527428 
L 394.86037 -59.527428 
L 393.904003 -59.527428 
L 392.947636 -59.527428 
L 391.991269 -59.527428 
L 391.034902 -59.527428 
L 390.078535 -59.527428 
L 389.122169 -59.527428 
L 388.165802 -59.527428 
L 387.209435 -59.527428 
L 386.253068 -59.527428 
L 385.296701 -59.527428 
L 384.340334 -59.527428 
L 383.383968 -59.527428 
L 382.427601 -59.527428 
L 381.471234 -59.527428 
L 380.514867 -59.527428 
L 379.5585 -59.527428 
L 378.602133 -59.527428 
L 377.645767 -59.527428 
L 376.6894 -59.527428 
L 375.733033 -59.527428 
L 374.776666 -59.527428 
L 373.820299 -59.527428 
L 372.863932 -59.527428 
L 371.907566 -59.527428 
L 370.951199 -59.527428 
L 369.994832 -59.527428 
L 369.038465 -59.527428 
L 368.082098 -59.527428 
L 367.125731 -59.527428 
L 366.169365 -59.527428 
L 365.212998 -59.527428 
L 364.256631 -59.527428 
L 363.300264 -59.527428 
L 362.343897 -59.527428 
L 361.38753 -59.527428 
L 360.431164 -59.527428 
L 359.474797 -59.527428 
L 358.51843 -59.527428 
L 357.562063 -59.527428 
L 356.605696 -59.527428 
L 355.649329 -59.527428 
L 354.692963 -59.527428 
L 353.736596 -59.527428 
L 352.780229 -59.527428 
L 351.823862 -59.527428 
L 350.867495 -59.527428 
L 349.911128 -59.527428 
L 348.954761 -59.527428 
L 347.998395 -59.527428 
L 347.042028 -59.527428 
L 346.085661 -59.527428 
L 345.129294 -59.527428 
L 344.172927 -59.527428 
L 343.21656 -59.527428 
L 342.260194 -59.527428 
L 341.303827 -59.527428 
L 340.34746 -59.527428 
L 339.391093 -59.527428 
L 338.434726 -59.527428 
L 337.478359 -59.527428 
L 336.521993 -59.527428 
L 335.565626 -59.527428 
L 334.609259 -59.527428 
L 333.652892 -59.527428 
L 332.696525 -59.527428 
L 331.740158 -59.527428 
L 330.783792 -59.527428 
L 329.827425 -59.527428 
L 328.871058 -59.527428 
L 327.914691 -59.527428 
L 326.958324 -59.527428 
L 326.001957 -59.527428 
L 325.045591 -59.527428 
L 324.089224 -59.527428 
L 323.132857 -59.527428 
L 322.17649 -59.527428 
L 321.220123 -59.527428 
L 320.263756 -59.527428 
L 319.30739 -59.527428 
L 318.351023 -59.527428 
L 317.394656 -59.527428 
L 316.438289 -59.527428 
L 315.481922 -59.527428 
L 314.525555 -59.527428 
L 313.569189 -59.527428 
L 312.612822 -59.527428 
L 311.656455 -59.527428 
L 310.700088 -59.527428 
L 309.743721 -59.527428 
L 308.787354 -59.527428 
L 307.830988 -59.527428 
L 306.874621 -59.527428 
L 305.918254 -59.527428 
L 304.961887 -59.527428 
L 304.00552 -59.527428 
L 303.049153 -59.527428 
L 302.092786 -59.527428 
L 301.13642 -59.527428 
L 300.180053 -59.527428 
L 299.223686 -59.527428 
L 298.267319 -59.527428 
L 297.310952 -59.527428 
L 296.354585 -59.527428 
L 295.398219 -59.527428 
L 294.441852 -59.527428 
L 293.485485 -59.527428 
L 292.529118 -59.527428 
L 291.572751 -59.527428 
L 290.616384 -59.527428 
L 289.660018 -59.527428 
L 288.703651 -59.527428 
L 287.747284 -59.527428 
L 286.790917 -59.527428 
L 285.83455 -59.527428 
L 284.878183 -59.527428 
L 283.921817 -59.527428 
L 282.96545 -59.527428 
L 282.009083 -59.527428 
L 281.052716 -59.527428 
L 280.096349 -59.527428 
L 279.139982 -59.527428 
L 278.183616 -59.527428 
L 277.227249 -59.527428 
L 276.270882 -59.527428 
L 275.314515 -59.527428 
L 274.358148 -59.527428 
L 273.401781 -59.527428 
L 272.445415 -59.527428 
L 271.489048 -59.527428 
L 270.532681 -59.527428 
L 269.576314 -59.527428 
L 268.619947 -59.527428 
L 267.66358 -59.527428 
L 266.707214 -59.527428 
L 265.750847 -59.527428 
L 264.79448 -59.527428 
L 263.838113 -59.527428 
L 262.881746 -59.527428 
L 261.925379 -59.527428 
L 260.969012 -59.527428 
L 260.012646 -59.527428 
L 259.056279 -59.527428 
L 258.099912 -59.527428 
L 257.143545 -59.527428 
L 256.187178 -59.527428 
L 255.230811 -59.527428 
L 254.274445 -59.527428 
L 253.318078 -59.527428 
L 252.361711 -59.527428 
L 251.405344 -59.527428 
L 250.448977 -59.527428 
L 249.49261 -59.527428 
L 248.536244 -59.527428 
L 247.579877 -59.527428 
L 246.62351 -59.527428 
L 245.667143 -59.527428 
L 244.710776 -59.527428 
L 243.754409 -59.527428 
L 242.798043 -59.527428 
L 241.841676 -59.527428 
L 240.885309 -59.527428 
L 239.928942 -59.527428 
L 238.972575 -59.527428 
L 238.016208 -59.527428 
L 237.059842 -59.527428 
L 236.103475 -59.527428 
L 235.147108 -59.527428 
L 234.190741 -59.527428 
L 233.234374 -59.527428 
L 232.278007 -59.527428 
L 231.321641 -59.527428 
L 230.365274 -59.527428 
L 229.408907 -59.527428 
L 228.45254 -59.527428 
L 227.496173 -59.527428 
L 226.539806 -59.527428 
L 225.58344 -59.527428 
L 224.627073 -59.527428 
L 223.670706 -59.527428 
L 222.714339 -59.527428 
L 221.757972 -59.527428 
L 220.801605 -59.527428 
L 219.845239 -59.527428 
L 218.888872 -59.527428 
L 217.932505 -59.527428 
L 216.976138 -59.527428 
L 216.019771 -59.527428 
L 215.063404 -59.527428 
L 214.107037 -59.527428 
L 213.150671 -59.527428 
L 212.194304 -59.527428 
L 211.237937 -59.527428 
L 210.28157 -59.527428 
L 209.325203 -59.527428 
L 208.368836 -59.527428 
L 207.41247 -59.527428 
L 206.456103 -59.527428 
L 205.499736 -59.527428 
L 204.543369 -59.527428 
L 203.587002 -59.527428 
L 202.630635 -59.527428 
L 201.674269 -59.527428 
L 200.717902 -59.527428 
L 199.761535 -59.527428 
L 198.805168 -59.527428 
L 197.848801 -59.527428 
L 196.892434 -59.527428 
L 195.936068 -59.527428 
L 194.979701 -59.527428 
L 194.023334 -59.527428 
L 193.066967 -59.527428 
L 192.1106 -59.527428 
L 191.154233 -59.527428 
L 190.197867 -59.527428 
L 189.2415 -59.527428 
L 188.285133 -59.527428 
L 187.328766 -59.527428 
L 186.372399 -59.527428 
L 185.416032 -59.527428 
L 184.459666 -59.527428 
L 183.503299 -59.527428 
L 182.546932 -59.527428 
L 181.590565 -59.527428 
L 180.634198 -59.527428 
L 179.677831 -59.527428 
L 178.721465 -59.527428 
L 177.765098 -59.527428 
L 176.808731 -59.527428 
L 175.852364 -59.527428 
L 174.895997 -59.527428 
L 173.93963 -59.527428 
L 172.983264 -59.527428 
L 172.026897 -59.527428 
L 171.07053 -59.527428 
L 170.114163 -59.527428 
L 169.157796 -59.527428 
L 168.201429 -59.527428 
L 167.245062 -59.527428 
L 166.288696 -59.527428 
L 165.332329 -59.527428 
L 164.375962 -59.527428 
L 163.419595 -59.527428 
L 162.463228 -59.527428 
L 161.506861 -59.527428 
L 160.550495 -59.527428 
L 159.594128 -59.527428 
L 158.637761 -59.527428 
L 157.681394 -59.527428 
L 156.725027 -59.527428 
L 155.76866 -59.527428 
L 154.812294 -59.527428 
L 153.855927 -59.527428 
L 152.89956 -59.527428 
L 151.943193 -59.527428 
L 150.986826 -59.527428 
L 150.030459 -59.527428 
L 149.074093 -59.527428 
L 148.117726 -59.527428 
L 147.161359 -59.527428 
L 146.204992 -59.527428 
L 145.248625 -59.527428 
L 144.292258 -59.527428 
L 143.335892 -59.527428 
L 142.379525 -59.527428 
L 141.423158 -59.527428 
z
" style="stroke: #a8c8e8; stroke-opacity: 0.7"/>
    </defs>
    <g clip-path="url(#p658623232b)">
     <use xlink:href="#m8885555889" x="0" y="316.8" style="fill: #a8c8e8; fill-opacity: 0.7; stroke: #a8c8e8; stroke-opacity: 0.7"/>
    </g>
   </g>
   <g id="matplotlib.axis_1"/>
   <g id="matplotlib.axis_2"/>
   <g id="line2d_1">
    <path d="M 7.2 257.113438 
L 27.198397 256.838188 
L 41.641683 256.416433 
L 52.751904 255.867727 
L 61.64008 255.21932 
L 69.417234 254.445315 
L 76.083367 253.586928 
L 82.749499 252.507881 
L 88.304609 251.408506 
L 93.859719 250.097202 
L 99.41483 248.543435 
L 104.96994 246.71462 
L 109.414028 245.030552 
L 113.858116 243.13045 
L 118.302204 240.995953 
L 122.746293 238.608691 
L 127.190381 235.950577 
L 131.634469 233.004132 
L 136.078557 229.752852 
L 140.522645 226.181602 
L 144.966733 222.277034 
L 149.410822 218.028035 
L 153.85491 213.42618 
L 158.298998 208.466186 
L 162.743086 203.146369 
L 167.187174 197.469071 
L 171.631263 191.441067 
L 176.075351 185.073921 
L 181.630461 176.663947 
L 187.185571 167.794752 
L 192.740681 158.524021 
L 199.406814 146.970252 
L 208.29499 131.085465 
L 223.849299 103.189895 
L 230.515431 91.740146 
L 236.070541 82.668756 
L 240.514629 75.814247 
L 244.958717 69.389267 
L 248.291784 64.890822 
L 251.62485 60.695494 
L 254.957916 56.827585 
L 258.290982 53.309828 
L 261.624048 50.16317 
L 264.957114 47.406561 
L 268.29018 45.056769 
L 270.512224 43.723467 
L 272.734269 42.581087 
L 274.956313 41.632774 
L 277.178357 40.881147 
L 279.400401 40.32829 
L 281.622445 39.975736 
L 283.844489 39.824467 
L 286.066533 39.874902 
L 288.288577 40.126901 
L 290.510621 40.579764 
L 292.732665 41.232232 
L 294.954709 42.082496 
L 297.176754 43.128203 
L 299.398798 44.36647 
L 301.620842 45.793891 
L 303.842886 47.406561 
L 307.175952 50.16317 
L 310.509018 53.309828 
L 313.842084 56.827585 
L 317.17515 60.695494 
L 320.508216 64.890822 
L 323.841283 69.389267 
L 328.285371 75.814247 
L 332.729459 82.668756 
L 338.284569 91.740146 
L 343.839679 101.247684 
L 351.616834 115.040402 
L 372.726253 152.797897 
L 379.392385 164.130959 
L 384.947495 173.168448 
L 390.502605 181.768169 
L 394.946693 188.298969 
L 399.390782 194.498301 
L 403.83487 200.35209 
L 408.278958 205.851208 
L 412.723046 210.991145 
L 417.167134 215.771624 
L 421.611222 220.196183 
L 426.055311 224.271735 
L 430.499399 228.008105 
L 434.943487 231.41758 
L 439.387575 234.514454 
L 443.831663 237.314601 
L 448.275752 239.835058 
L 452.71984 242.093652 
L 457.163928 244.10865 
L 461.608016 245.89845 
L 466.052104 247.481313 
L 471.607214 249.196081 
L 477.162325 250.64906 
L 482.717435 251.872054 
L 489.383567 253.077616 
L 496.049699 254.041157 
L 503.826854 254.914348 
L 512.71503 255.650056 
L 522.714228 256.225957 
L 534.935471 256.675549 
L 550.48978 256.99198 
L 561.6 257.113438 
L 561.6 257.113438 
" clip-path="url(#p658623232b)" style="fill: none; stroke: #000000; stroke-width: 2; stroke-linecap: square"/>
   </g>
   <g id="line2d_2">
    <path d="M 141.423158 309.6 
L 141.423158 7.2 
" clip-path="url(#p658623232b)" style="fill: none; stroke: #3355aa; stroke-width: 1.5; stroke-linecap: square"/>
   </g>
   <g id="line2d_3">
    <path d="M 427.376842 309.6 
L 427.376842 7.2 
" clip-path="url(#p658623232b)" style="fill: none; stroke: #3355aa; stroke-width: 1.5; stroke-linecap: square"/>
   </g>
   <g id="line2d_4">
    <path d="M 284.4 309.6 
L 284.4 7.2 
" clip-path="url(#p658623232b)" style="fill: none; stroke: #3355aa; stroke-width: 2; stroke-linecap: square"/>
   </g>
   <g id="line2d_5">
    <path d="M 7.2 257.272572 
L 561.6 257.272572 
" clip-path="url(#p658623232b)" style="fill: none; stroke: #000000; stroke-width: 0.8; stroke-linecap: square"/>
   </g>
   <g id="patch_3">
    <path d="M 282.397242 265.99381 
Q 212.910459 265.99381 143.423675 265.99381 
" style="fill: none; stroke: #8a8a2a; stroke-width: 1.5; stroke-linecap: round"/>
    <path d="M 282.397242 275.99381 
L 282.397242 275.99381 
L 282.397242 255.99381 
L 282.397242 255.99381 
" style="fill: none; stroke: #8a8a2a; stroke-width: 1.5; stroke-linecap: round"/>
    <path d="M 143.423675 255.99381 
L 143.423675 255.99381 
L 143.423675 275.99381 
L 143.423675 275.99381 
" style="fill: none; stroke: #8a8a2a; stroke-width: 1.5; stroke-linecap: round"/>
   </g>
   <g id="patch_4">
    <path d="M 425.374084 265.99381 
Q 355.887301 265.99381 286.400517 265.99381 
" style="fill: none; stroke: #8a8a2a; stroke-width: 1.5; stroke-linecap: round"/>
    <path d="M 425.374084 275.99381 
L 425.374084 275.99381 
L 425.374084 255.99381 
L 425.374084 255.99381 
" style="fill: none; stroke: #8a8a2a; stroke-width: 1.5; stroke-linecap: round"/>
    <path d="M 286.400517 255.99381 
L 286.400517 255.99381 
L 286.400517 275.99381 
L 286.400517 275.99381 
" style="fill: none; stroke: #8a8a2a; stroke-width: 1.5; stroke-linecap: round"/>
   </g>
   <g id="text_1">
    <!-- margin -->
    <g style="fill: #333333" transform="translate(195.277204 286.674105) scale(0.1 -0.1)">
     <defs>
      <path id="DejaVuSans-6d" d="M 3328 2828 
Q 3544 3216 3844 3400 
Q 4144 3584 4550 3584 
Q 5097 3584 5394 3201 
Q 5691 2819 5691 2113 
L 5691 0 
L 5113 0 
L 5113 2094 
Q 5113 2597 4934 2840 
Q 4756 3084 4391 3084 
Q 3944 3084 3684 2787 
Q 3425 2491 3425 1978 
L 3425 0 
L 2847 0 
L 2847 2094 
Q 2847 2600 2669 2842 
Q 2491 3084 2119 3084 
Q 1678 3084 1418 2786 
Q 1159 2488 1159 1978 
L 1159 0 
L 581 0 
L 581 3500 
L 1159 3500 
L 1159 2956 
Q 1356 3278 1631 3431 
Q 1906 3584 2284 3584 
Q 2666 3584 2933 3390 
Q 3200 3197 3328 2828 
z
" transform="scale(0.015625)"/>
      <path id="DejaVuSans-61" d="M 2194 1759 
Q 1497 1759 1228 1600 
Q 959 1441 959 1056 
Q 959 750 1161 570 
Q 1363 391 1709 391 
Q 2188 391 2477 730 
Q 2766 1069 2766 1631 
L 2766 1759 
L 2194 1759 
z
M 3341 1997 
L 3341 0 
L 2766 0 
L 2766 531 
Q 2569 213 2275 61 
Q 1981 -91 1556 -91 
Q 1019 -91 701 211 
Q 384 513 384 1019 
Q 384 1609 779 1909 
Q 1175 2209 1959 2209 
L 2766 2209 
L 2766 2266 
Q 2766 2663 2505 2880 
Q 2244 3097 1772 3097 
Q 1472 3097 1187 3025 
Q 903 2953 641 2809 
L 641 3341 
Q 956 3463 1253 3523 
Q 1550 3584 1831 3584 
Q 2591 3584 2966 3190 
Q 3341 2797 3341 1997 
z
" transform="scale(0.015625)"/>
      <path id="DejaVuSans-72" d="M 2631 2963 
Q 2534 3019 2420 3045 
Q 2306 3072 2169 3072 
Q 1681 3072 1420 2755 
Q 1159 2438 1159 1844 
L 1159 0 
L 581 0 
L 581 3500 
L 1159 3500 
L 1159 2956 
Q 1341 3275 1631 3429 
Q 1922 3584 2338 3584 
Q 2397 3584 2469 3576 
Q 2541 3569 2628 3553 
L 2631 2963 
z
" transform="scale(0.015625)"/>
      <path id="DejaVuSans-67" d="M 2906 1791 
Q 2906 2416 2648 2759 
Q 2391 3103 1925 3103 
Q 1463 3103 1205 2759 
Q 947 2416 947 1791 
Q 947 1169 1205 825 
Q 1463 481 1925 481 
Q 2391 481 2648 825 
Q 2906 1169 2906 1791 
z
M 3481 434 
Q 3481 -459 3084 -895 
Q 2688 -1331 1869 -1331 
Q 1566 -1331 1297 -1286 
Q 1028 -1241 775 -1147 
L 775 -588 
Q 1028 -725 1275 -790 
Q 1522 -856 1778 -856 
Q 2344 -856 2625 -561 
Q 2906 -266 2906 331 
L 2906 616 
Q 2728 306 2450 153 
Q 2172 0 1784 0 
Q 1141 0 747 490 
Q 353 981 353 1791 
Q 353 2603 747 3093 
Q 1141 3584 1784 3584 
Q 2172 3584 2450 3431 
Q 2728 3278 2906 2969 
L 2906 3500 
L 3481 3500 
L 3481 434 
z
" transform="scale(0.015625)"/>
      <path id="DejaVuSans-69" d="M 603 3500 
L 1178 3500 
L 1178 0 
L 603 0 
L 603 3500 
z
M 603 4863 
L 1178 4863 
L 1178 4134 
L 603 4134 
L 603 4863 
z
" transform="scale(0.015625)"/>
      <path id="DejaVuSans-6e" d="M 3513 2113 
L 3513 0 
L 2938 0 
L 2938 2094 
Q 2938 2591 2744 2837 
Q 2550 3084 2163 3084 
Q 1697 3084 1428 2787 
Q 1159 2491 1159 1978 
L 1159 0 
L 581 0 
L 581 3500 
L 1159 3500 
L 1159 2956 
Q 1366 3272 1645 3428 
Q 1925 3584 2291 3584 
Q 2894 3584 3203 3211 
Q 3513 2838 3513 2113 
z
" transform="scale(0.015625)"/>
     </defs>
     <use xlink:href="#DejaVuSans-6d"/>
     <use xlink:href="#DejaVuSans-61" transform="translate(97.412109 0)"/>
     <use xlink:href="#DejaVuSans-72" transform="translate(158.691406 0)"/>
     <use xlink:href="#DejaVuSans-67" transform="translate(198.054688 0)"/>
     <use xlink:href="#DejaVuSans-69" transform="translate(261.53125 0)"/>
     <use xlink:href="#DejaVuSans-6e" transform="translate(289.314453 0)"/>
    </g>
    <!-- of error -->
    <g style="fill: #333333" transform="translate(194.400641 297.871917) scale(0.1 -0.1)">
     <defs>
      <path id="DejaVuSans-6f" d="M 1959 3097 
Q 1497 3097 1228 2736 
Q 959 2375 959 1747 
Q 959 1119 1226 758 
Q 1494 397 1959 397 
Q 2419 397 2687 759 
Q 2956 1122 2956 1747 
Q 2956 2369 2687 2733 
Q 2419 3097 1959 3097 
z
M 1959 3584 
Q 2709 3584 3137 3096 
Q 3566 2609 3566 1747 
Q 3566 888 3137 398 
Q 2709 -91 1959 -91 
Q 1206 -91 779 398 
Q 353 888 353 1747 
Q 353 2609 779 3096 
Q 1206 3584 1959 3584 
z
" transform="scale(0.015625)"/>
      <path id="DejaVuSans-66" d="M 2375 4863 
L 2375 4384 
L 1825 4384 
Q 1516 4384 1395 4259 
Q 1275 4134 1275 3809 
L 1275 3500 
L 2222 3500 
L 2222 3053 
L 1275 3053 
L 1275 0 
L 697 0 
L 697 3053 
L 147 3053 
L 147 3500 
L 697 3500 
L 697 3744 
Q 697 4328 969 4595 
Q 1241 4863 1831 4863 
L 2375 4863 
z
" transform="scale(0.015625)"/>
      <path id="DejaVuSans-20" transform="scale(0.015625)"/>
      <path id="DejaVuSans-65" d="M 3597 1894 
L 3597 1613 
L 953 1613 
Q 991 1019 1311 708 
Q 1631 397 2203 397 
Q 2534 397 2845 478 
Q 3156 559 3463 722 
L 3463 178 
Q 3153 47 2828 -22 
Q 2503 -91 2169 -91 
Q 1331 -91 842 396 
Q 353 884 353 1716 
Q 353 2575 817 3079 
Q 1281 3584 2069 3584 
Q 2775 3584 3186 3129 
Q 3597 2675 3597 1894 
z
M 3022 2063 
Q 3016 2534 2758 2815 
Q 2500 3097 2075 3097 
Q 1594 3097 1305 2825 
Q 1016 2553 972 2059 
L 3022 2063 
z
" transform="scale(0.015625)"/>
     </defs>
     <use xlink:href="#DejaVuSans-6f"/>
     <use xlink:href="#DejaVuSans-66" transform="translate(61.181641 0)"/>
     <use xlink:href="#DejaVuSans-20" transform="translate(96.386719 0)"/>
     <use xlink:href="#DejaVuSans-65" transform="translate(128.173828 0)"/>
     <use xlink:href="#DejaVuSans-72" transform="translate(189.697266 0)"/>
     <use xlink:href="#DejaVuSans-72" transform="translate(229.060547 0)"/>
     <use xlink:href="#DejaVuSans-6f" transform="translate(267.923828 0)"/>
     <use xlink:href="#DejaVuSans-72" transform="translate(329.105469 0)"/>
    </g>
   </g>
   <g id="text_2">
    <!-- margin -->
    <g style="fill: #333333" transform="translate(338.254046 286.674105) scale(0.1 -0.1)">
     <use xlink:href="#DejaVuSans-6d"/>
     <use xlink:href="#DejaVuSans-61" transform="translate(97.412109 0)"/>
     <use xlink:href="#DejaVuSans-72" transform="translate(158.691406 0)"/>
     <use xlink:href="#DejaVuSans-67" transform="translate(198.054688 0)"/>
     <use xlink:href="#DejaVuSans-69" transform="translate(261.53125 0)"/>
     <use xlink:href="#DejaVuSans-6e" transform="translate(289.314453 0)"/>
    </g>
    <!-- of error -->
    <g style="fill: #333333" transform="translate(337.377484 297.871917) scale(0.1 -0.1)">
     <use xlink:href="#DejaVuSans-6f"/>
     <use xlink:href="#DejaVuSans-66" transform="translate(61.181641 0)"/>
     <use xlink:href="#DejaVuSans-20" transform="translate(96.386719 0)"/>
     <use xlink:href="#DejaVuSans-65" transform="translate(128.173828 0)"/>
     <use xlink:href="#DejaVuSans-72" transform="translate(189.697266 0)"/>
     <use xlink:href="#DejaVuSans-72" transform="translate(229.060547 0)"/>
     <use xlink:href="#DejaVuSans-6f" transform="translate(267.923828 0)"/>
     <use xlink:href="#DejaVuSans-72" transform="translate(329.105469 0)"/>
    </g>
   </g>
   <g id="text_3">
    <!-- $\mu$ -->
    <g style="fill: #333333" transform="translate(279.92 289.685042) scale(0.14 -0.14)">
     <defs>
      <path id="DejaVuSans-Oblique-3bc" d="M -84 -1331 
L 856 3500 
L 1434 3500 
L 1009 1322 
Q 997 1256 987 1175 
Q 978 1094 978 1013 
Q 978 722 1161 565 
Q 1344 409 1684 409 
Q 2147 409 2431 671 
Q 2716 934 2816 1459 
L 3213 3500 
L 3788 3500 
L 3266 809 
Q 3253 750 3248 706 
Q 3244 663 3244 628 
Q 3244 531 3283 486 
Q 3322 441 3406 441 
Q 3438 441 3492 456 
Q 3547 472 3647 513 
L 3559 50 
Q 3422 -19 3297 -55 
Q 3172 -91 3053 -91 
Q 2847 -91 2730 40 
Q 2613 172 2613 403 
Q 2438 153 2195 31 
Q 1953 -91 1625 -91 
Q 1334 -91 1117 43 
Q 900 178 831 397 
L 494 -1331 
L -84 -1331 
z
" transform="scale(0.015625)"/>
     </defs>
     <use xlink:href="#DejaVuSans-Oblique-3bc" transform="translate(0 0.3125)"/>
    </g>
   </g>
   <g id="text_4">
    <g id="patch_5">
     <path d="M 267.955 155.142006 
L 300.845 155.142006 
Q 304.745 155.142006 304.745 151.242006 
L 304.745 124.103287 
Q 304.745 120.203287 300.845 120.203287 
L 267.955 120.203287 
Q 264.055 120.203287 264.055 124.103287 
L 264.055 151.242006 
Q 264.055 155.142006 267.955 155.142006 
z
" style="fill: #f5deb3; opacity: 0.9; stroke: #cc9966; stroke-linejoin: miter"/>
    </g>
    <!-- 95% -->
    <g style="fill: #333333" transform="translate(268.841641 133.981256) scale(0.13 -0.13)">
     <defs>
      <path id="DejaVuSans-Bold-39" d="M 641 103 
L 641 966 
Q 928 831 1190 764 
Q 1453 697 1709 697 
Q 2247 697 2547 995 
Q 2847 1294 2900 1881 
Q 2688 1725 2447 1647 
Q 2206 1569 1925 1569 
Q 1209 1569 770 1986 
Q 331 2403 331 3084 
Q 331 3838 820 4291 
Q 1309 4744 2131 4744 
Q 3044 4744 3544 4128 
Q 4044 3513 4044 2388 
Q 4044 1231 3459 570 
Q 2875 -91 1856 -91 
Q 1528 -91 1228 -42 
Q 928 6 641 103 
z
M 2125 2350 
Q 2441 2350 2600 2554 
Q 2759 2759 2759 3169 
Q 2759 3575 2600 3781 
Q 2441 3988 2125 3988 
Q 1809 3988 1650 3781 
Q 1491 3575 1491 3169 
Q 1491 2759 1650 2554 
Q 1809 2350 2125 2350 
z
" transform="scale(0.015625)"/>
      <path id="DejaVuSans-Bold-35" d="M 678 4666 
L 3669 4666 
L 3669 3781 
L 1638 3781 
L 1638 3059 
Q 1775 3097 1914 3117 
Q 2053 3138 2203 3138 
Q 3056 3138 3531 2711 
Q 4006 2284 4006 1522 
Q 4006 766 3489 337 
Q 2972 -91 2053 -91 
Q 1656 -91 1267 -14 
Q 878 63 494 219 
L 494 1166 
Q 875 947 1217 837 
Q 1559 728 1863 728 
Q 2300 728 2551 942 
Q 2803 1156 2803 1522 
Q 2803 1891 2551 2103 
Q 2300 2316 1863 2316 
Q 1603 2316 1309 2248 
Q 1016 2181 678 2041 
L 678 4666 
z
" transform="scale(0.015625)"/>
      <path id="DejaVuSans-Bold-25" d="M 4959 1925 
Q 4738 1925 4616 1733 
Q 4494 1541 4494 1184 
Q 4494 825 4614 633 
Q 4734 441 4959 441 
Q 5184 441 5303 633 
Q 5422 825 5422 1184 
Q 5422 1541 5301 1733 
Q 5181 1925 4959 1925 
z
M 4959 2450 
Q 5541 2450 5875 2112 
Q 6209 1775 6209 1184 
Q 6209 594 5875 251 
Q 5541 -91 4959 -91 
Q 4378 -91 4042 251 
Q 3706 594 3706 1184 
Q 3706 1772 4042 2111 
Q 4378 2450 4959 2450 
z
M 2094 -91 
L 1403 -91 
L 4319 4750 
L 5013 4750 
L 2094 -91 
z
M 1453 4750 
Q 2034 4750 2367 4411 
Q 2700 4072 2700 3481 
Q 2700 2891 2367 2550 
Q 2034 2209 1453 2209 
Q 872 2209 539 2550 
Q 206 2891 206 3481 
Q 206 4072 539 4411 
Q 872 4750 1453 4750 
z
M 1453 4225 
Q 1228 4225 1106 4031 
Q 984 3838 984 3481 
Q 984 3122 1106 2926 
Q 1228 2731 1453 2731 
Q 1678 2731 1798 2926 
Q 1919 3122 1919 3481 
Q 1919 3838 1797 4031 
Q 1675 4225 1453 4225 
z
" transform="scale(0.015625)"/>
     </defs>
     <use xlink:href="#DejaVuSans-Bold-39"/>
     <use xlink:href="#DejaVuSans-Bold-35" transform="translate(69.580078 0)"/>
     <use xlink:href="#DejaVuSans-Bold-25" transform="translate(139.160156 0)"/>
    </g>
    <!-- $1 - \alpha$ -->
    <g style="fill: #333333" transform="translate(267.955 148.538412) scale(0.13 -0.13)">
     <defs>
      <path id="DejaVuSans-31" d="M 794 531 
L 1825 531 
L 1825 4091 
L 703 3866 
L 703 4441 
L 1819 4666 
L 2450 4666 
L 2450 531 
L 3481 531 
L 3481 0 
L 794 0 
L 794 531 
z
" transform="scale(0.015625)"/>
      <path id="DejaVuSans-2212" d="M 678 2272 
L 4684 2272 
L 4684 1741 
L 678 1741 
L 678 2272 
z
" transform="scale(0.015625)"/>
      <path id="DejaVuSans-Oblique-3b1" d="M 2619 1628 
L 2622 2350 
Q 2625 3088 2069 3091 
Q 1653 3094 1394 2747 
Q 1069 2319 959 1747 
Q 825 1059 994 731 
Q 1169 397 1547 397 
Q 1966 397 2319 1063 
L 2619 1628 
z
M 2166 3578 
Q 3141 3594 3128 2584 
Q 3128 2584 3616 3500 
L 4128 3500 
L 3119 1603 
L 3109 919 
Q 3109 766 3194 638 
Q 3291 488 3391 488 
L 3669 488 
L 3575 0 
L 3228 0 
Q 2934 0 2722 263 
Q 2622 394 2619 669 
Q 2416 334 2066 50 
Q 1900 -81 1453 -78 
Q 722 -72 456 397 
Q 184 884 353 1747 
Q 534 2675 1009 3097 
Q 1544 3569 2166 3578 
z
" transform="scale(0.015625)"/>
     </defs>
     <use xlink:href="#DejaVuSans-31" transform="translate(0 0.09375)"/>
     <use xlink:href="#DejaVuSans-2212" transform="translate(83.105469 0.09375)"/>
     <use xlink:href="#DejaVuSans-Oblique-3b1" transform="translate(186.376953 0.09375)"/>
    </g>
   </g>
   <g id="text_5">
    <g id="patch_6">
     <path d="M 50.303988 206.818015 
L 80.811801 206.818015 
Q 84.111801 206.818015 84.111801 203.518015 
L 84.111801 180.554483 
Q 84.111801 177.254483 80.811801 177.254483 
L 50.303988 177.254483 
Q 47.003988 177.254483 47.003988 180.554483 
L 47.003988 203.518015 
Q 47.003988 206.818015 50.303988 206.818015 
z
" style="fill: #f5deb3; opacity: 0.9; stroke: #cc9966; stroke-linejoin: miter"/>
    </g>
    <!-- 2.5% -->
    <g style="fill: #333333" transform="translate(50.303988 188.912765) scale(0.11 -0.11)">
     <defs>
      <path id="DejaVuSans-Bold-32" d="M 1844 884 
L 3897 884 
L 3897 0 
L 506 0 
L 506 884 
L 2209 2388 
Q 2438 2594 2547 2791 
Q 2656 2988 2656 3200 
Q 2656 3528 2436 3728 
Q 2216 3928 1850 3928 
Q 1569 3928 1234 3808 
Q 900 3688 519 3450 
L 519 4475 
Q 925 4609 1322 4679 
Q 1719 4750 2100 4750 
Q 2938 4750 3402 4381 
Q 3866 4013 3866 3353 
Q 3866 2972 3669 2642 
Q 3472 2313 2841 1759 
L 1844 884 
z
" transform="scale(0.015625)"/>
      <path id="DejaVuSans-Bold-2e" d="M 653 1209 
L 1778 1209 
L 1778 0 
L 653 0 
L 653 1209 
z
" transform="scale(0.015625)"/>
     </defs>
     <use xlink:href="#DejaVuSans-Bold-32"/>
     <use xlink:href="#DejaVuSans-Bold-2e" transform="translate(69.580078 0)"/>
     <use xlink:href="#DejaVuSans-Bold-35" transform="translate(107.568359 0)"/>
     <use xlink:href="#DejaVuSans-Bold-25" transform="translate(177.148438 0)"/>
    </g>
    <!-- $\alpha/2$ -->
    <g style="fill: #333333" transform="translate(56.757895 201.230358) scale(0.11 -0.11)">
     <defs>
      <path id="DejaVuSans-2f" d="M 1625 4666 
L 2156 4666 
L 531 -594 
L 0 -594 
L 1625 4666 
z
" transform="scale(0.015625)"/>
      <path id="DejaVuSans-32" d="M 1228 531 
L 3431 531 
L 3431 0 
L 469 0 
L 469 531 
Q 828 903 1448 1529 
Q 2069 2156 2228 2338 
Q 2531 2678 2651 2914 
Q 2772 3150 2772 3378 
Q 2772 3750 2511 3984 
Q 2250 4219 1831 4219 
Q 1534 4219 1204 4116 
Q 875 4013 500 3803 
L 500 4441 
Q 881 4594 1212 4672 
Q 1544 4750 1819 4750 
Q 2544 4750 2975 4387 
Q 3406 4025 3406 3419 
Q 3406 3131 3298 2873 
Q 3191 2616 2906 2266 
Q 2828 2175 2409 1742 
Q 1991 1309 1228 531 
z
" transform="scale(0.015625)"/>
     </defs>
     <use xlink:href="#DejaVuSans-Oblique-3b1" transform="translate(0 0.78125)"/>
     <use xlink:href="#DejaVuSans-2f" transform="translate(65.917969 0.78125)"/>
     <use xlink:href="#DejaVuSans-32" transform="translate(95.984375 0.78125)"/>
    </g>
   </g>
   <g id="text_6">
    <g id="patch_7">
     <path d="M 487.988199 206.818015 
L 518.496012 206.818015 
Q 521.796012 206.818015 521.796012 203.518015 
L 521.796012 180.554483 
Q 521.796012 177.254483 518.496012 177.254483 
L 487.988199 177.254483 
Q 484.688199 177.254483 484.688199 180.554483 
L 484.688199 203.518015 
Q 484.688199 206.818015 487.988199 206.818015 
z
" style="fill: #f5deb3; opacity: 0.9; stroke: #cc9966; stroke-linejoin: miter"/>
    </g>
    <!-- 2.5% -->
    <g style="fill: #333333" transform="translate(487.988199 188.912765) scale(0.11 -0.11)">
     <use xlink:href="#DejaVuSans-Bold-32"/>
     <use xlink:href="#DejaVuSans-Bold-2e" transform="translate(69.580078 0)"/>
     <use xlink:href="#DejaVuSans-Bold-35" transform="translate(107.568359 0)"/>
     <use xlink:href="#DejaVuSans-Bold-25" transform="translate(177.148438 0)"/>
    </g>
    <!-- $\alpha/2$ -->
    <g style="fill: #333333" transform="translate(494.442105 201.230358) scale(0.11 -0.11)">
     <use xlink:href="#DejaVuSans-Oblique-3b1" transform="translate(0 0.78125)"/>
     <use xlink:href="#DejaVuSans-2f" transform="translate(65.917969 0.78125)"/>
     <use xlink:href="#DejaVuSans-32" transform="translate(95.984375 0.78125)"/>
    </g>
   </g>
  </g>
 </g>
 <defs>
  <clipPath id="p658623232b">
   <rect x="7.2" y="7.2" width="554.4" height="302.4"/>
  </clipPath>
 </defs>
</svg>
