<?xml version="1.0" encoding="utf-8" standalone="no"?>
<!DOCTYPE svg PUBLIC "-//W3C//DTD SVG 1.1//EN"
  "http://www.w3.org/Graphics/SVG/1.1/DTD/svg11.dtd">
<svg xmlns:xlink="http://www.w3.org/1999/xlink" width="712.8pt" height="279.96pt" viewBox="0 0 712.8 279.96" xmlns="http://www.w3.org/2000/svg" version="1.1">
 <metadata>
  <rdf:RDF xmlns:dc="http://purl.org/dc/elements/1.1/" xmlns:cc="http://creativecommons.org/ns#" xmlns:rdf="http://www.w3.org/1999/02/22-rdf-syntax-ns#">
   <cc:Work>
    <dc:type rdf:resource="http://purl.org/dc/dcmitype/StillImage"/>
    <dc:date>2026-06-27T17:53:26.212790</dc:date>
    <dc:format>image/svg+xml</dc:format>
    <dc:creator>
     <cc:Agent>
      <dc:title>Matplotlib v3.10.8, https://matplotlib.org/</dc:title>
     </cc:Agent>
    </dc:creator>
   </cc:Work>
  </rdf:RDF>
 </metadata>
 <defs>
  <style type="text/css">*{stroke-linejoin: round; stroke-linecap: butt}</style>
 </defs>
 <g id="figure_1">
  <g id="patch_1">
   <path d="M 0 279.96 
L 712.8 279.96 
L 712.8 0 
L 0 0 
z
" style="fill: #ffffff"/>
  </g>
  <g id="axes_1">
   <g id="patch_2">
    <path d="M 40.457143 115.838182 
L 306.514286 115.838182 
Q 313.165714 115.838182 313.165714 109.802727 
L 313.165714 37.377273 
Q 313.165714 31.341818 306.514286 31.341818 
L 40.457143 31.341818 
Q 33.805714 31.341818 33.805714 37.377273 
L 33.805714 109.802727 
Q 33.805714 115.838182 40.457143 115.838182 
z
" clip-path="url(#pecdccde524)" style="fill: #f0f0fb; stroke: #22176f; stroke-width: 2; stroke-linejoin: miter"/>
   </g>
   <g id="patch_3">
    <path d="M 373.028571 115.838182 
L 639.085714 115.838182 
Q 645.737143 115.838182 645.737143 109.802727 
L 645.737143 37.377273 
Q 645.737143 31.341818 639.085714 31.341818 
L 373.028571 31.341818 
Q 366.377143 31.341818 366.377143 37.377273 
L 366.377143 109.802727 
Q 366.377143 115.838182 373.028571 115.838182 
z
" clip-path="url(#pecdccde524)" style="fill: #e8f4f8; stroke: #4682b4; stroke-width: 2; stroke-linejoin: miter"/>
   </g>
   <g id="patch_4">
    <path d="M 373.028571 236.547273 
L 639.085714 236.547273 
Q 645.737143 236.547273 645.737143 230.511818 
L 645.737143 158.086364 
Q 645.737143 152.050909 639.085714 152.050909 
L 373.028571 152.050909 
Q 366.377143 152.050909 366.377143 158.086364 
L 366.377143 230.511818 
Q 366.377143 236.547273 373.028571 236.547273 
z
" clip-path="url(#pecdccde524)" style="fill: #e8f8e8; stroke: #2e8b57; stroke-width: 2; stroke-linejoin: miter"/>
   </g>
   <g id="text_1">
    <!-- Population Variance $\sigma^2$ -->
    <g style="fill: #22176f" transform="translate(96.205714 65.719091) scale(0.12 -0.12)">
     <defs>
      <path id="DejaVuSans-Bold-50" d="M 588 4666 
L 2584 4666 
Q 3475 4666 3951 4270 
Q 4428 3875 4428 3144 
Q 4428 2409 3951 2014 
Q 3475 1619 2584 1619 
L 1791 1619 
L 1791 0 
L 588 0 
L 588 4666 
z
M 1791 3794 
L 1791 2491 
L 2456 2491 
Q 2806 2491 2997 2661 
Q 3188 2831 3188 3144 
Q 3188 3456 2997 3625 
Q 2806 3794 2456 3794 
L 1791 3794 
z
" transform="scale(0.015625)"/>
      <path id="DejaVuSans-Bold-6f" d="M 2203 2784 
Q 1831 2784 1636 2517 
Q 1441 2250 1441 1747 
Q 1441 1244 1636 976 
Q 1831 709 2203 709 
Q 2569 709 2762 976 
Q 2956 1244 2956 1747 
Q 2956 2250 2762 2517 
Q 2569 2784 2203 2784 
z
M 2203 3584 
Q 3106 3584 3614 3096 
Q 4122 2609 4122 1747 
Q 4122 884 3614 396 
Q 3106 -91 2203 -91 
Q 1297 -91 786 396 
Q 275 884 275 1747 
Q 275 2609 786 3096 
Q 1297 3584 2203 3584 
z
" transform="scale(0.015625)"/>
      <path id="DejaVuSans-Bold-70" d="M 1656 506 
L 1656 -1331 
L 538 -1331 
L 538 3500 
L 1656 3500 
L 1656 2988 
Q 1888 3294 2169 3439 
Q 2450 3584 2816 3584 
Q 3463 3584 3878 3070 
Q 4294 2556 4294 1747 
Q 4294 938 3878 423 
Q 3463 -91 2816 -91 
Q 2450 -91 2169 54 
Q 1888 200 1656 506 
z
M 2400 2772 
Q 2041 2772 1848 2508 
Q 1656 2244 1656 1747 
Q 1656 1250 1848 986 
Q 2041 722 2400 722 
Q 2759 722 2948 984 
Q 3138 1247 3138 1747 
Q 3138 2247 2948 2509 
Q 2759 2772 2400 2772 
z
" transform="scale(0.015625)"/>
      <path id="DejaVuSans-Bold-75" d="M 500 1363 
L 500 3500 
L 1625 3500 
L 1625 3150 
Q 1625 2866 1622 2436 
Q 1619 2006 1619 1863 
Q 1619 1441 1641 1255 
Q 1663 1069 1716 984 
Q 1784 875 1895 815 
Q 2006 756 2150 756 
Q 2500 756 2700 1025 
Q 2900 1294 2900 1772 
L 2900 3500 
L 4019 3500 
L 4019 0 
L 2900 0 
L 2900 506 
Q 2647 200 2364 54 
Q 2081 -91 1741 -91 
Q 1134 -91 817 281 
Q 500 653 500 1363 
z
" transform="scale(0.015625)"/>
      <path id="DejaVuSans-Bold-6c" d="M 538 4863 
L 1656 4863 
L 1656 0 
L 538 0 
L 538 4863 
z
" transform="scale(0.015625)"/>
      <path id="DejaVuSans-Bold-61" d="M 2106 1575 
Q 1756 1575 1579 1456 
Q 1403 1338 1403 1106 
Q 1403 894 1545 773 
Q 1688 653 1941 653 
Q 2256 653 2472 879 
Q 2688 1106 2688 1447 
L 2688 1575 
L 2106 1575 
z
M 3816 1997 
L 3816 0 
L 2688 0 
L 2688 519 
Q 2463 200 2181 54 
Q 1900 -91 1497 -91 
Q 953 -91 614 226 
Q 275 544 275 1050 
Q 275 1666 698 1953 
Q 1122 2241 2028 2241 
L 2688 2241 
L 2688 2328 
Q 2688 2594 2478 2717 
Q 2269 2841 1825 2841 
Q 1466 2841 1156 2769 
Q 847 2697 581 2553 
L 581 3406 
Q 941 3494 1303 3539 
Q 1666 3584 2028 3584 
Q 2975 3584 3395 3211 
Q 3816 2838 3816 1997 
z
" transform="scale(0.015625)"/>
      <path id="DejaVuSans-Bold-74" d="M 1759 4494 
L 1759 3500 
L 2913 3500 
L 2913 2700 
L 1759 2700 
L 1759 1216 
Q 1759 972 1856 886 
Q 1953 800 2241 800 
L 2816 800 
L 2816 0 
L 1856 0 
Q 1194 0 917 276 
Q 641 553 641 1216 
L 641 2700 
L 84 2700 
L 84 3500 
L 641 3500 
L 641 4494 
L 1759 4494 
z
" transform="scale(0.015625)"/>
      <path id="DejaVuSans-Bold-69" d="M 538 3500 
L 1656 3500 
L 1656 0 
L 538 0 
L 538 3500 
z
M 538 4863 
L 1656 4863 
L 1656 3950 
L 538 3950 
L 538 4863 
z
" transform="scale(0.015625)"/>
      <path id="DejaVuSans-Bold-6e" d="M 4056 2131 
L 4056 0 
L 2931 0 
L 2931 347 
L 2931 1631 
Q 2931 2084 2911 2256 
Q 2891 2428 2841 2509 
Q 2775 2619 2662 2680 
Q 2550 2741 2406 2741 
Q 2056 2741 1856 2470 
Q 1656 2200 1656 1722 
L 1656 0 
L 538 0 
L 538 3500 
L 1656 3500 
L 1656 2988 
Q 1909 3294 2193 3439 
Q 2478 3584 2822 3584 
Q 3428 3584 3742 3212 
Q 4056 2841 4056 2131 
z
" transform="scale(0.015625)"/>
      <path id="DejaVuSans-Bold-20" transform="scale(0.015625)"/>
      <path id="DejaVuSans-Bold-56" d="M 31 4666 
L 1241 4666 
L 2478 1222 
L 3713 4666 
L 4922 4666 
L 3194 0 
L 1759 0 
L 31 4666 
z
" transform="scale(0.015625)"/>
      <path id="DejaVuSans-Bold-72" d="M 3138 2547 
Q 2991 2616 2845 2648 
Q 2700 2681 2553 2681 
Q 2122 2681 1889 2404 
Q 1656 2128 1656 1613 
L 1656 0 
L 538 0 
L 538 3500 
L 1656 3500 
L 1656 2925 
Q 1872 3269 2151 3426 
Q 2431 3584 2822 3584 
Q 2878 3584 2943 3579 
Q 3009 3575 3134 3559 
L 3138 2547 
z
" transform="scale(0.015625)"/>
      <path id="DejaVuSans-Bold-63" d="M 3366 3391 
L 3366 2478 
Q 3138 2634 2908 2709 
Q 2678 2784 2431 2784 
Q 1963 2784 1702 2511 
Q 1441 2238 1441 1747 
Q 1441 1256 1702 982 
Q 1963 709 2431 709 
Q 2694 709 2930 787 
Q 3166 866 3366 1019 
L 3366 103 
Q 3103 6 2833 -42 
Q 2563 -91 2291 -91 
Q 1344 -91 809 395 
Q 275 881 275 1747 
Q 275 2613 809 3098 
Q 1344 3584 2291 3584 
Q 2566 3584 2833 3536 
Q 3100 3488 3366 3391 
z
" transform="scale(0.015625)"/>
      <path id="DejaVuSans-Bold-65" d="M 4031 1759 
L 4031 1441 
L 1416 1441 
Q 1456 1047 1700 850 
Q 1944 653 2381 653 
Q 2734 653 3104 758 
Q 3475 863 3866 1075 
L 3866 213 
Q 3469 63 3072 -14 
Q 2675 -91 2278 -91 
Q 1328 -91 801 392 
Q 275 875 275 1747 
Q 275 2603 792 3093 
Q 1309 3584 2216 3584 
Q 3041 3584 3536 3087 
Q 4031 2591 4031 1759 
z
M 2881 2131 
Q 2881 2450 2695 2645 
Q 2509 2841 2209 2841 
Q 1884 2841 1681 2658 
Q 1478 2475 1428 2131 
L 2881 2131 
z
" transform="scale(0.015625)"/>
      <path id="DejaVuSans-Oblique-3c3" d="M 2219 3044 
Q 1744 3044 1422 2700 
Q 1081 2341 969 1747 
Q 844 1119 1044 756 
Q 1241 397 1706 397 
Q 2166 397 2503 759 
Q 2844 1122 2966 1747 
Q 3075 2319 2881 2700 
Q 2700 3044 2219 3044 
z
M 2309 3503 
L 4219 3500 
L 4106 2925 
L 3463 2925 
Q 3706 2438 3575 1747 
Q 3406 888 2884 400 
Q 2359 -91 1609 -91 
Q 856 -91 525 400 
Q 194 888 363 1747 
Q 528 2609 1050 3097 
Q 1484 3503 2309 3503 
z
" transform="scale(0.015625)"/>
      <path id="DejaVuSans-32" d="M 1228 531 
L 3431 531 
L 3431 0 
L 469 0 
L 469 531 
Q 828 903 1448 1529 
Q 2069 2156 2228 2338 
Q 2531 2678 2651 2914 
Q 2772 3150 2772 3378 
Q 2772 3750 2511 3984 
Q 2250 4219 1831 4219 
Q 1534 4219 1204 4116 
Q 875 4013 500 3803 
L 500 4441 
Q 881 4594 1212 4672 
Q 1544 4750 1819 4750 
Q 2544 4750 2975 4387 
Q 3406 4025 3406 3419 
Q 3406 3131 3298 2873 
Q 3191 2616 2906 2266 
Q 2828 2175 2409 1742 
Q 1991 1309 1228 531 
z
" transform="scale(0.015625)"/>
     </defs>
     <use xlink:href="#DejaVuSans-Bold-50" transform="translate(0 0.765625)"/>
     <use xlink:href="#DejaVuSans-Bold-6f" transform="translate(73.291016 0.765625)"/>
     <use xlink:href="#DejaVuSans-Bold-70" transform="translate(141.992188 0.765625)"/>
     <use xlink:href="#DejaVuSans-Bold-75" transform="translate(213.574219 0.765625)"/>
     <use xlink:href="#DejaVuSans-Bold-6c" transform="translate(284.765625 0.765625)"/>
     <use xlink:href="#DejaVuSans-Bold-61" transform="translate(319.042969 0.765625)"/>
     <use xlink:href="#DejaVuSans-Bold-74" transform="translate(386.523438 0.765625)"/>
     <use xlink:href="#DejaVuSans-Bold-69" transform="translate(434.326172 0.765625)"/>
     <use xlink:href="#DejaVuSans-Bold-6f" transform="translate(468.603516 0.765625)"/>
     <use xlink:href="#DejaVuSans-Bold-6e" transform="translate(537.304688 0.765625)"/>
     <use xlink:href="#DejaVuSans-Bold-20" transform="translate(608.496094 0.765625)"/>
     <use xlink:href="#DejaVuSans-Bold-56" transform="translate(643.310547 0.765625)"/>
     <use xlink:href="#DejaVuSans-Bold-61" transform="translate(720.703125 0.765625)"/>
     <use xlink:href="#DejaVuSans-Bold-72" transform="translate(788.183594 0.765625)"/>
     <use xlink:href="#DejaVuSans-Bold-69" transform="translate(837.5 0.765625)"/>
     <use xlink:href="#DejaVuSans-Bold-61" transform="translate(871.777344 0.765625)"/>
     <use xlink:href="#DejaVuSans-Bold-6e" transform="translate(939.257812 0.765625)"/>
     <use xlink:href="#DejaVuSans-Bold-63" transform="translate(1010.449219 0.765625)"/>
     <use xlink:href="#DejaVuSans-Bold-65" transform="translate(1069.726562 0.765625)"/>
     <use xlink:href="#DejaVuSans-Bold-20" transform="translate(1137.548828 0.765625)"/>
     <use xlink:href="#DejaVuSans-Oblique-3c3" transform="translate(1172.363281 0.765625)"/>
     <use xlink:href="#DejaVuSans-32" transform="translate(1240.214896 39.046875) scale(0.7)"/>
    </g>
   </g>
   <g id="text_2">
    <!-- $\sigma^2 = \frac{1}{N}\sum(x_i - \mu)^2$ -->
    <g style="fill: #333333" transform="translate(129.925714 92.143636) scale(0.11 -0.11)">
     <defs>
      <path id="DejaVuSans-3d" d="M 678 2906 
L 4684 2906 
L 4684 2381 
L 678 2381 
L 678 2906 
z
M 678 1631 
L 4684 1631 
L 4684 1100 
L 678 1100 
L 678 1631 
z
" transform="scale(0.015625)"/>
      <path id="DejaVuSans-31" d="M 794 531 
L 1825 531 
L 1825 4091 
L 703 3866 
L 703 4441 
L 1819 4666 
L 2450 4666 
L 2450 531 
L 3481 531 
L 3481 0 
L 794 0 
L 794 531 
z
" transform="scale(0.015625)"/>
      <path id="DejaVuSans-Oblique-4e" d="M 1081 4666 
L 1931 4666 
L 3219 666 
L 4000 4666 
L 4616 4666 
L 3706 0 
L 2853 0 
L 1569 4025 
L 788 0 
L 172 0 
L 1081 4666 
z
" transform="scale(0.015625)"/>
      <path id="DejaVuSansDisplay-2211" d="M 244 6509 
L 5803 6509 
L 5803 5656 
L 1566 5656 
L 4534 2488 
L 1469 -888 
L 5919 -888 
L 5919 -1738 
L 109 -1738 
L 109 -1078 
L 3316 2463 
L 244 5728 
L 244 6509 
z
" transform="scale(0.015625)"/>
      <path id="DejaVuSans-28" d="M 1984 4856 
Q 1566 4138 1362 3434 
Q 1159 2731 1159 2009 
Q 1159 1288 1364 580 
Q 1569 -128 1984 -844 
L 1484 -844 
Q 1016 -109 783 600 
Q 550 1309 550 2009 
Q 550 2706 781 3412 
Q 1013 4119 1484 4856 
L 1984 4856 
z
" transform="scale(0.015625)"/>
      <path id="DejaVuSans-Oblique-78" d="M 3841 3500 
L 2234 1784 
L 3219 0 
L 2559 0 
L 1819 1388 
L 531 0 
L -166 0 
L 1556 1844 
L 641 3500 
L 1300 3500 
L 1972 2234 
L 3144 3500 
L 3841 3500 
z
" transform="scale(0.015625)"/>
      <path id="DejaVuSans-Oblique-69" d="M 1172 4863 
L 1747 4863 
L 1606 4134 
L 1031 4134 
L 1172 4863 
z
M 909 3500 
L 1484 3500 
L 800 0 
L 225 0 
L 909 3500 
z
" transform="scale(0.015625)"/>
      <path id="DejaVuSans-2212" d="M 678 2272 
L 4684 2272 
L 4684 1741 
L 678 1741 
L 678 2272 
z
" transform="scale(0.015625)"/>
      <path id="DejaVuSans-Oblique-3bc" d="M -84 -1331 
L 856 3500 
L 1434 3500 
L 1009 1322 
Q 997 1256 987 1175 
Q 978 1094 978 1013 
Q 978 722 1161 565 
Q 1344 409 1684 409 
Q 2147 409 2431 671 
Q 2716 934 2816 1459 
L 3213 3500 
L 3788 3500 
L 3266 809 
Q 3253 750 3248 706 
Q 3244 663 3244 628 
Q 3244 531 3283 486 
Q 3322 441 3406 441 
Q 3438 441 3492 456 
Q 3547 472 3647 513 
L 3559 50 
Q 3422 -19 3297 -55 
Q 3172 -91 3053 -91 
Q 2847 -91 2730 40 
Q 2613 172 2613 403 
Q 2438 153 2195 31 
Q 1953 -91 1625 -91 
Q 1334 -91 1117 43 
Q 900 178 831 397 
L 494 -1331 
L -84 -1331 
z
" transform="scale(0.015625)"/>
      <path id="DejaVuSans-29" d="M 513 4856 
L 1013 4856 
Q 1481 4119 1714 3412 
Q 1947 2706 1947 2009 
Q 1947 1309 1714 600 
Q 1481 -109 1013 -844 
L 513 -844 
Q 928 -128 1133 580 
Q 1338 1288 1338 2009 
Q 1338 2731 1133 3434 
Q 928 4138 513 4856 
z
" transform="scale(0.015625)"/>
     </defs>
     <use xlink:href="#DejaVuSans-Oblique-3c3" transform="translate(0 0.296875)"/>
     <use xlink:href="#DejaVuSans-32" transform="translate(67.851615 38.578125) scale(0.7)"/>
     <use xlink:href="#DejaVuSans-3d" transform="translate(134.604544 0.296875)"/>
     <use xlink:href="#DejaVuSans-31" transform="translate(241.876029 44.09375) scale(0.7)"/>
     <use xlink:href="#DejaVuSans-Oblique-4e" transform="translate(237.876029 -38.190625) scale(0.7)"/>
     <use xlink:href="#DejaVuSansDisplay-2211" transform="translate(302.73931 0.296875)"/>
     <use xlink:href="#DejaVuSans-28" transform="translate(398.002982 0.296875)"/>
     <use xlink:href="#DejaVuSans-Oblique-78" transform="translate(437.016654 0.296875)"/>
     <use xlink:href="#DejaVuSans-Oblique-69" transform="translate(496.196341 -16.109375) scale(0.7)"/>
     <use xlink:href="#DejaVuSans-2212" transform="translate(537.86138 0.296875)"/>
     <use xlink:href="#DejaVuSans-Oblique-3bc" transform="translate(641.132865 0.296875)"/>
     <use xlink:href="#DejaVuSans-29" transform="translate(704.755911 0.296875)"/>
     <use xlink:href="#DejaVuSans-32" transform="translate(744.726615 38.578125) scale(0.7)"/>
     <path d="M 237.876029 19.09375 
L 237.876029 25.34375 
L 290.23931 25.34375 
L 290.23931 19.09375 
L 237.876029 19.09375 
z
"/>
    </g>
   </g>
   <g id="text_3">
    <!-- Biased Estimate $\widehat{Var}(X)$ -->
    <g style="fill: #4682b4" transform="translate(430.337143 66.223466) scale(0.12 -0.12)">
     <defs>
      <path id="DejaVuSans-Bold-42" d="M 2456 2859 
Q 2741 2859 2887 2984 
Q 3034 3109 3034 3353 
Q 3034 3594 2887 3720 
Q 2741 3847 2456 3847 
L 1791 3847 
L 1791 2859 
L 2456 2859 
z
M 2497 819 
Q 2859 819 3042 972 
Q 3225 1125 3225 1434 
Q 3225 1738 3044 1889 
Q 2863 2041 2497 2041 
L 1791 2041 
L 1791 819 
L 2497 819 
z
M 3616 2497 
Q 4003 2384 4215 2081 
Q 4428 1778 4428 1338 
Q 4428 663 3972 331 
Q 3516 0 2584 0 
L 588 0 
L 588 4666 
L 2394 4666 
Q 3366 4666 3802 4372 
Q 4238 4078 4238 3431 
Q 4238 3091 4078 2852 
Q 3919 2613 3616 2497 
z
" transform="scale(0.015625)"/>
      <path id="DejaVuSans-Bold-73" d="M 3272 3391 
L 3272 2541 
Q 2913 2691 2578 2766 
Q 2244 2841 1947 2841 
Q 1628 2841 1473 2761 
Q 1319 2681 1319 2516 
Q 1319 2381 1436 2309 
Q 1553 2238 1856 2203 
L 2053 2175 
Q 2913 2066 3209 1816 
Q 3506 1566 3506 1031 
Q 3506 472 3093 190 
Q 2681 -91 1863 -91 
Q 1516 -91 1145 -36 
Q 775 19 384 128 
L 384 978 
Q 719 816 1070 734 
Q 1422 653 1784 653 
Q 2113 653 2278 743 
Q 2444 834 2444 1013 
Q 2444 1163 2330 1236 
Q 2216 1309 1875 1350 
L 1678 1375 
Q 931 1469 631 1722 
Q 331 1975 331 2491 
Q 331 3047 712 3315 
Q 1094 3584 1881 3584 
Q 2191 3584 2531 3537 
Q 2872 3491 3272 3391 
z
" transform="scale(0.015625)"/>
      <path id="DejaVuSans-Bold-64" d="M 2919 2988 
L 2919 4863 
L 4044 4863 
L 4044 0 
L 2919 0 
L 2919 506 
Q 2688 197 2409 53 
Q 2131 -91 1766 -91 
Q 1119 -91 703 423 
Q 288 938 288 1747 
Q 288 2556 703 3070 
Q 1119 3584 1766 3584 
Q 2128 3584 2408 3439 
Q 2688 3294 2919 2988 
z
M 2181 722 
Q 2541 722 2730 984 
Q 2919 1247 2919 1747 
Q 2919 2247 2730 2509 
Q 2541 2772 2181 2772 
Q 1825 2772 1636 2509 
Q 1447 2247 1447 1747 
Q 1447 1247 1636 984 
Q 1825 722 2181 722 
z
" transform="scale(0.015625)"/>
      <path id="DejaVuSans-Bold-45" d="M 588 4666 
L 3834 4666 
L 3834 3756 
L 1791 3756 
L 1791 2888 
L 3713 2888 
L 3713 1978 
L 1791 1978 
L 1791 909 
L 3903 909 
L 3903 0 
L 588 0 
L 588 4666 
z
" transform="scale(0.015625)"/>
      <path id="DejaVuSans-Bold-6d" d="M 3781 2919 
Q 3994 3244 4286 3414 
Q 4578 3584 4928 3584 
Q 5531 3584 5847 3212 
Q 6163 2841 6163 2131 
L 6163 0 
L 5038 0 
L 5038 1825 
Q 5041 1866 5042 1909 
Q 5044 1953 5044 2034 
Q 5044 2406 4934 2573 
Q 4825 2741 4581 2741 
Q 4263 2741 4089 2478 
Q 3916 2216 3909 1719 
L 3909 0 
L 2784 0 
L 2784 1825 
Q 2784 2406 2684 2573 
Q 2584 2741 2328 2741 
Q 2006 2741 1831 2477 
Q 1656 2213 1656 1722 
L 1656 0 
L 531 0 
L 531 3500 
L 1656 3500 
L 1656 2988 
Q 1863 3284 2130 3434 
Q 2397 3584 2719 3584 
Q 3081 3584 3359 3409 
Q 3638 3234 3781 2919 
z
" transform="scale(0.015625)"/>
      <path id="STIXSizeFourSym-Regular-302" d="M -986 3834 
L -1018 3667 
L -7027 4698 
L -13024 3667 
L -13056 3834 
L -7021 5094 
L -986 3834 
z
" transform="scale(0.015625)"/>
      <path id="DejaVuSans-Oblique-56" d="M 1319 0 
L 500 4666 
L 1119 4666 
L 1797 653 
L 4063 4666 
L 4750 4666 
L 2053 0 
L 1319 0 
z
" transform="scale(0.015625)"/>
      <path id="DejaVuSans-Oblique-61" d="M 3438 1997 
L 3047 0 
L 2472 0 
L 2578 531 
Q 2325 219 2001 64 
Q 1678 -91 1281 -91 
Q 834 -91 548 182 
Q 263 456 263 884 
Q 263 1497 752 1853 
Q 1241 2209 2100 2209 
L 2900 2209 
L 2931 2363 
Q 2938 2388 2941 2417 
Q 2944 2447 2944 2509 
Q 2944 2788 2717 2942 
Q 2491 3097 2081 3097 
Q 1800 3097 1504 3025 
Q 1209 2953 897 2809 
L 997 3341 
Q 1322 3463 1633 3523 
Q 1944 3584 2234 3584 
Q 2853 3584 3176 3315 
Q 3500 3047 3500 2534 
Q 3500 2431 3484 2292 
Q 3469 2153 3438 1997 
z
M 2816 1759 
L 2241 1759 
Q 1534 1759 1195 1570 
Q 856 1381 856 984 
Q 856 709 1029 553 
Q 1203 397 1509 397 
Q 1978 397 2328 733 
Q 2678 1069 2791 1631 
L 2816 1759 
z
" transform="scale(0.015625)"/>
      <path id="DejaVuSans-Oblique-72" d="M 2853 2969 
Q 2766 3016 2653 3041 
Q 2541 3066 2413 3066 
Q 1953 3066 1609 2717 
Q 1266 2369 1153 1784 
L 800 0 
L 225 0 
L 909 3500 
L 1484 3500 
L 1375 2956 
Q 1603 3259 1920 3421 
Q 2238 3584 2597 3584 
Q 2691 3584 2781 3573 
Q 2872 3563 2963 3538 
L 2853 2969 
z
" transform="scale(0.015625)"/>
      <path id="DejaVuSans-Oblique-58" d="M 878 4666 
L 1516 4666 
L 2316 2981 
L 3763 4666 
L 4500 4666 
L 2578 2438 
L 3738 0 
L 3103 0 
L 2163 1966 
L 459 0 
L -275 0 
L 1906 2509 
L 878 4666 
z
" transform="scale(0.015625)"/>
     </defs>
     <use xlink:href="#DejaVuSans-Bold-42" transform="translate(0 0.296875)"/>
     <use xlink:href="#DejaVuSans-Bold-69" transform="translate(76.220703 0.296875)"/>
     <use xlink:href="#DejaVuSans-Bold-61" transform="translate(110.498047 0.296875)"/>
     <use xlink:href="#DejaVuSans-Bold-73" transform="translate(177.978516 0.296875)"/>
     <use xlink:href="#DejaVuSans-Bold-65" transform="translate(237.5 0.296875)"/>
     <use xlink:href="#DejaVuSans-Bold-64" transform="translate(305.322266 0.296875)"/>
     <use xlink:href="#DejaVuSans-Bold-20" transform="translate(376.904297 0.296875)"/>
     <use xlink:href="#DejaVuSans-Bold-45" transform="translate(411.71875 0.296875)"/>
     <use xlink:href="#DejaVuSans-Bold-73" transform="translate(480.029297 0.296875)"/>
     <use xlink:href="#DejaVuSans-Bold-74" transform="translate(539.550781 0.296875)"/>
     <use xlink:href="#DejaVuSans-Bold-69" transform="translate(587.353516 0.296875)"/>
     <use xlink:href="#DejaVuSans-Bold-6d" transform="translate(621.630859 0.296875)"/>
     <use xlink:href="#DejaVuSans-Bold-61" transform="translate(725.830078 0.296875)"/>
     <use xlink:href="#DejaVuSans-Bold-74" transform="translate(793.310547 0.296875)"/>
     <use xlink:href="#DejaVuSans-Bold-65" transform="translate(841.113281 0.296875)"/>
     <use xlink:href="#DejaVuSans-Bold-20" transform="translate(908.935547 0.296875)"/>
     <use xlink:href="#STIXSizeFourSym-Regular-302" transform="translate(1150.325195 33.5625) scale(0.905655)"/>
     <use xlink:href="#DejaVuSans-Oblique-56" transform="translate(943.75 0.296875)"/>
     <use xlink:href="#DejaVuSans-Oblique-61" transform="translate(1012.158203 0.296875)"/>
     <use xlink:href="#DejaVuSans-Oblique-72" transform="translate(1073.4375 0.296875)"/>
     <use xlink:href="#DejaVuSans-28" transform="translate(1114.550781 0.296875)"/>
     <use xlink:href="#DejaVuSans-Oblique-58" transform="translate(1153.564453 0.296875)"/>
     <use xlink:href="#DejaVuSans-29" transform="translate(1222.070312 0.296875)"/>
    </g>
   </g>
   <g id="text_4">
    <!-- $\widehat{Var}(X) = \frac{1}{n}\sum(x_i - \bar{X})^2$ -->
    <g style="fill: #333333" transform="translate(451.497143 92.968636) scale(0.11 -0.11)">
     <defs>
      <path id="DejaVuSans-Oblique-6e" d="M 3566 2113 
L 3156 0 
L 2578 0 
L 2988 2091 
Q 3016 2238 3031 2350 
Q 3047 2463 3047 2528 
Q 3047 2791 2881 2937 
Q 2716 3084 2419 3084 
Q 1956 3084 1622 2776 
Q 1288 2469 1184 1941 
L 800 0 
L 225 0 
L 903 3500 
L 1478 3500 
L 1363 2950 
Q 1603 3253 1940 3418 
Q 2278 3584 2650 3584 
Q 3113 3584 3367 3334 
Q 3622 3084 3622 2631 
Q 3622 2519 3608 2391 
Q 3594 2263 3566 2113 
z
" transform="scale(0.015625)"/>
      <path id="DejaVuSans-304" d="M -2518 4769 
L -650 4769 
L -650 4306 
L -2518 4306 
L -2518 4769 
z
" transform="scale(0.015625)"/>
     </defs>
     <use xlink:href="#STIXSizeFourSym-Regular-302" transform="translate(206.575195 33.5625) scale(0.905655)"/>
     <use xlink:href="#DejaVuSans-Oblique-56" transform="translate(0 0.296875)"/>
     <use xlink:href="#DejaVuSans-Oblique-61" transform="translate(68.408203 0.296875)"/>
     <use xlink:href="#DejaVuSans-Oblique-72" transform="translate(129.6875 0.296875)"/>
     <use xlink:href="#DejaVuSans-28" transform="translate(170.800781 0.296875)"/>
     <use xlink:href="#DejaVuSans-Oblique-58" transform="translate(209.814453 0.296875)"/>
     <use xlink:href="#DejaVuSans-29" transform="translate(278.320312 0.296875)"/>
     <use xlink:href="#DejaVuSans-3d" transform="translate(336.816406 0.296875)"/>
     <use xlink:href="#DejaVuSans-31" transform="translate(440.087891 44.09375) scale(0.7)"/>
     <use xlink:href="#DejaVuSans-Oblique-6e" transform="translate(440.087891 -26.35625) scale(0.7)"/>
     <use xlink:href="#DejaVuSansDisplay-2211" transform="translate(497.124023 0.296875)"/>
     <use xlink:href="#DejaVuSans-28" transform="translate(592.387695 0.296875)"/>
     <use xlink:href="#DejaVuSans-Oblique-78" transform="translate(631.401367 0.296875)"/>
     <use xlink:href="#DejaVuSans-Oblique-69" transform="translate(690.581055 -16.109375) scale(0.7)"/>
     <use xlink:href="#DejaVuSans-2212" transform="translate(732.246094 0.296875)"/>
     <use xlink:href="#DejaVuSans-304" transform="translate(902.987793 18.421875)"/>
     <use xlink:href="#DejaVuSans-Oblique-58" transform="translate(835.517578 0.296875)"/>
     <use xlink:href="#DejaVuSans-29" transform="translate(904.023438 0.296875)"/>
     <use xlink:href="#DejaVuSans-32" transform="translate(943.994141 38.578125) scale(0.7)"/>
     <path d="M 440.087891 19.09375 
L 440.087891 25.34375 
L 484.624023 25.34375 
L 484.624023 19.09375 
L 440.087891 19.09375 
z
"/>
    </g>
   </g>
   <g id="text_5">
    <!-- Unbiased Estimate $s^2$ -->
    <g style="fill: #2e8b57" transform="translate(434.297143 185.539432) scale(0.12 -0.12)">
     <defs>
      <path id="DejaVuSans-Bold-55" d="M 588 4666 
L 1791 4666 
L 1791 1869 
Q 1791 1291 1980 1042 
Q 2169 794 2597 794 
Q 3028 794 3217 1042 
Q 3406 1291 3406 1869 
L 3406 4666 
L 4609 4666 
L 4609 1869 
Q 4609 878 4112 393 
Q 3616 -91 2597 -91 
Q 1581 -91 1084 393 
Q 588 878 588 1869 
L 588 4666 
z
" transform="scale(0.015625)"/>
      <path id="DejaVuSans-Bold-62" d="M 2400 722 
Q 2759 722 2948 984 
Q 3138 1247 3138 1747 
Q 3138 2247 2948 2509 
Q 2759 2772 2400 2772 
Q 2041 2772 1848 2508 
Q 1656 2244 1656 1747 
Q 1656 1250 1848 986 
Q 2041 722 2400 722 
z
M 1656 2988 
Q 1888 3294 2169 3439 
Q 2450 3584 2816 3584 
Q 3463 3584 3878 3070 
Q 4294 2556 4294 1747 
Q 4294 938 3878 423 
Q 3463 -91 2816 -91 
Q 2450 -91 2169 54 
Q 1888 200 1656 506 
L 1656 0 
L 538 0 
L 538 4863 
L 1656 4863 
L 1656 2988 
z
" transform="scale(0.015625)"/>
      <path id="DejaVuSans-Oblique-73" d="M 3200 3397 
L 3091 2853 
Q 2863 2978 2609 3040 
Q 2356 3103 2088 3103 
Q 1634 3103 1373 2948 
Q 1113 2794 1113 2528 
Q 1113 2219 1719 2053 
Q 1766 2041 1788 2034 
L 1972 1978 
Q 2547 1819 2739 1644 
Q 2931 1469 2931 1166 
Q 2931 609 2489 259 
Q 2047 -91 1331 -91 
Q 1053 -91 747 -37 
Q 441 16 72 128 
L 184 722 
Q 500 559 806 475 
Q 1113 391 1394 391 
Q 1816 391 2080 572 
Q 2344 753 2344 1031 
Q 2344 1331 1650 1516 
L 1591 1531 
L 1394 1581 
Q 956 1697 753 1886 
Q 550 2075 550 2369 
Q 550 2928 970 3256 
Q 1391 3584 2113 3584 
Q 2397 3584 2667 3537 
Q 2938 3491 3200 3397 
z
" transform="scale(0.015625)"/>
     </defs>
     <use xlink:href="#DejaVuSans-Bold-55" transform="translate(0 0.765625)"/>
     <use xlink:href="#DejaVuSans-Bold-6e" transform="translate(81.201172 0.765625)"/>
     <use xlink:href="#DejaVuSans-Bold-62" transform="translate(152.392578 0.765625)"/>
     <use xlink:href="#DejaVuSans-Bold-69" transform="translate(223.974609 0.765625)"/>
     <use xlink:href="#DejaVuSans-Bold-61" transform="translate(258.251953 0.765625)"/>
     <use xlink:href="#DejaVuSans-Bold-73" transform="translate(325.732422 0.765625)"/>
     <use xlink:href="#DejaVuSans-Bold-65" transform="translate(385.253906 0.765625)"/>
     <use xlink:href="#DejaVuSans-Bold-64" transform="translate(453.076172 0.765625)"/>
     <use xlink:href="#DejaVuSans-Bold-20" transform="translate(524.658203 0.765625)"/>
     <use xlink:href="#DejaVuSans-Bold-45" transform="translate(559.472656 0.765625)"/>
     <use xlink:href="#DejaVuSans-Bold-73" transform="translate(627.783203 0.765625)"/>
     <use xlink:href="#DejaVuSans-Bold-74" transform="translate(687.304688 0.765625)"/>
     <use xlink:href="#DejaVuSans-Bold-69" transform="translate(735.107422 0.765625)"/>
     <use xlink:href="#DejaVuSans-Bold-6d" transform="translate(769.384766 0.765625)"/>
     <use xlink:href="#DejaVuSans-Bold-61" transform="translate(873.583984 0.765625)"/>
     <use xlink:href="#DejaVuSans-Bold-74" transform="translate(941.064453 0.765625)"/>
     <use xlink:href="#DejaVuSans-Bold-65" transform="translate(988.867188 0.765625)"/>
     <use xlink:href="#DejaVuSans-Bold-20" transform="translate(1056.689453 0.765625)"/>
     <use xlink:href="#DejaVuSans-Oblique-73" transform="translate(1091.503906 0.765625)"/>
     <use xlink:href="#DejaVuSans-32" transform="translate(1148.253411 39.046875) scale(0.7)"/>
    </g>
   </g>
   <g id="text_6">
    <!-- $s^2 = \frac{1}{n-1}\sum(x_i - \bar{X})^2$ -->
    <g style="fill: #333333" transform="translate(456.062143 212.852727) scale(0.11 -0.11)">
     <use xlink:href="#DejaVuSans-Oblique-73" transform="translate(0 0.296875)"/>
     <use xlink:href="#DejaVuSans-32" transform="translate(56.749505 38.578125) scale(0.7)"/>
     <use xlink:href="#DejaVuSans-3d" transform="translate(123.502435 0.296875)"/>
     <use xlink:href="#DejaVuSans-31" transform="translate(291.773919 44.09375) scale(0.7)"/>
     <use xlink:href="#DejaVuSans-Oblique-6e" transform="translate(226.773919 -38.190625) scale(0.7)"/>
     <use xlink:href="#DejaVuSans-2212" transform="translate(284.776849 -38.190625) scale(0.7)"/>
     <use xlink:href="#DejaVuSans-31" transform="translate(357.066888 -38.190625) scale(0.7)"/>
     <use xlink:href="#DejaVuSansDisplay-2211" transform="translate(414.103021 0.296875)"/>
     <use xlink:href="#DejaVuSans-28" transform="translate(509.366693 0.296875)"/>
     <use xlink:href="#DejaVuSans-Oblique-78" transform="translate(548.380365 0.296875)"/>
     <use xlink:href="#DejaVuSans-Oblique-69" transform="translate(607.560052 -16.109375) scale(0.7)"/>
     <use xlink:href="#DejaVuSans-2212" transform="translate(649.225091 0.296875)"/>
     <use xlink:href="#DejaVuSans-304" transform="translate(819.96679 18.421875)"/>
     <use xlink:href="#DejaVuSans-Oblique-58" transform="translate(752.496576 0.296875)"/>
     <use xlink:href="#DejaVuSans-29" transform="translate(821.002435 0.296875)"/>
     <use xlink:href="#DejaVuSans-32" transform="translate(860.973138 38.578125) scale(0.7)"/>
     <path d="M 226.773919 19.09375 
L 226.773919 25.34375 
L 401.603021 25.34375 
L 401.603021 19.09375 
L 226.773919 19.09375 
z
"/>
    </g>
   </g>
   <g id="text_7">
    <!-- Use when you have the -->
    <g style="fill: #808080" transform="translate(120.510167 134.747685) scale(0.09 -0.09)">
     <defs>
      <path id="DejaVuSans-Oblique-55" d="M 991 4666 
L 1625 4666 
L 1075 1831 
Q 1041 1641 1027 1517 
Q 1013 1394 1013 1300 
Q 1013 869 1253 645 
Q 1494 422 1959 422 
Q 2563 422 2898 753 
Q 3234 1084 3378 1831 
L 3928 4666 
L 4563 4666 
L 4000 1753 
Q 3816 809 3300 359 
Q 2784 -91 1888 -91 
Q 1188 -91 780 261 
Q 372 613 372 1216 
Q 372 1325 387 1461 
Q 403 1597 434 1753 
L 991 4666 
z
" transform="scale(0.015625)"/>
      <path id="DejaVuSans-Oblique-65" d="M 3078 2063 
Q 3088 2113 3092 2166 
Q 3097 2219 3097 2272 
Q 3097 2653 2873 2875 
Q 2650 3097 2266 3097 
Q 1838 3097 1509 2826 
Q 1181 2556 1013 2059 
L 3078 2063 
z
M 3578 1613 
L 903 1613 
Q 884 1494 878 1425 
Q 872 1356 872 1306 
Q 872 872 1139 634 
Q 1406 397 1894 397 
Q 2269 397 2603 481 
Q 2938 566 3225 728 
L 3116 159 
Q 2806 34 2476 -28 
Q 2147 -91 1806 -91 
Q 1078 -91 686 257 
Q 294 606 294 1247 
Q 294 1794 489 2264 
Q 684 2734 1063 3103 
Q 1306 3334 1642 3459 
Q 1978 3584 2356 3584 
Q 2950 3584 3301 3228 
Q 3653 2872 3653 2272 
Q 3653 2128 3634 1964 
Q 3616 1800 3578 1613 
z
" transform="scale(0.015625)"/>
      <path id="DejaVuSans-Oblique-20" transform="scale(0.015625)"/>
      <path id="DejaVuSans-Oblique-77" d="M 544 3500 
L 1113 3500 
L 1259 684 
L 2566 3500 
L 3231 3500 
L 3425 684 
L 4666 3500 
L 5241 3500 
L 3641 0 
L 2969 0 
L 2797 2900 
L 1459 0 
L 781 0 
L 544 3500 
z
" transform="scale(0.015625)"/>
      <path id="DejaVuSans-Oblique-68" d="M 3566 2113 
L 3156 0 
L 2578 0 
L 2988 2091 
Q 3016 2238 3031 2350 
Q 3047 2463 3047 2528 
Q 3047 2791 2881 2937 
Q 2716 3084 2419 3084 
Q 1956 3084 1617 2771 
Q 1278 2459 1178 1941 
L 800 0 
L 225 0 
L 1172 4863 
L 1747 4863 
L 1375 2950 
Q 1594 3244 1934 3414 
Q 2275 3584 2650 3584 
Q 3113 3584 3367 3334 
Q 3622 3084 3622 2631 
Q 3622 2519 3608 2391 
Q 3594 2263 3566 2113 
z
" transform="scale(0.015625)"/>
      <path id="DejaVuSans-Oblique-79" d="M 1588 -325 
Q 1188 -997 936 -1164 
Q 684 -1331 294 -1331 
L -159 -1331 
L -63 -850 
L 269 -850 
Q 509 -850 678 -719 
Q 847 -588 1056 -206 
L 1234 128 
L 459 3500 
L 1069 3500 
L 1650 819 
L 3256 3500 
L 3859 3500 
L 1588 -325 
z
" transform="scale(0.015625)"/>
      <path id="DejaVuSans-Oblique-6f" d="M 1625 -91 
Q 1009 -91 651 289 
Q 294 669 294 1325 
Q 294 1706 417 2101 
Q 541 2497 738 2766 
Q 1047 3184 1428 3384 
Q 1809 3584 2291 3584 
Q 2888 3584 3255 3212 
Q 3622 2841 3622 2241 
Q 3622 1825 3500 1412 
Q 3378 1000 3181 728 
Q 2875 309 2494 109 
Q 2113 -91 1625 -91 
z
M 891 1344 
Q 891 869 1089 633 
Q 1288 397 1691 397 
Q 2269 397 2648 901 
Q 3028 1406 3028 2181 
Q 3028 2634 2825 2865 
Q 2622 3097 2228 3097 
Q 1903 3097 1650 2945 
Q 1397 2794 1197 2484 
Q 1050 2253 970 1956 
Q 891 1659 891 1344 
z
" transform="scale(0.015625)"/>
      <path id="DejaVuSans-Oblique-75" d="M 428 1388 
L 838 3500 
L 1416 3500 
L 1006 1409 
Q 975 1256 961 1147 
Q 947 1038 947 966 
Q 947 700 1109 554 
Q 1272 409 1569 409 
Q 2031 409 2368 721 
Q 2706 1034 2809 1563 
L 3194 3500 
L 3769 3500 
L 3091 0 
L 2516 0 
L 2631 550 
Q 2388 244 2052 76 
Q 1716 -91 1338 -91 
Q 878 -91 622 161 
Q 366 413 366 863 
Q 366 956 381 1097 
Q 397 1238 428 1388 
z
" transform="scale(0.015625)"/>
      <path id="DejaVuSans-Oblique-76" d="M 459 3500 
L 1069 3500 
L 1581 525 
L 3256 3500 
L 3866 3500 
L 1875 0 
L 1100 0 
L 459 3500 
z
" transform="scale(0.015625)"/>
      <path id="DejaVuSans-Oblique-74" d="M 2706 3500 
L 2619 3053 
L 1472 3053 
L 1100 1153 
Q 1081 1047 1072 975 
Q 1063 903 1063 863 
Q 1063 663 1183 572 
Q 1303 481 1569 481 
L 2150 481 
L 2053 0 
L 1503 0 
Q 991 0 739 200 
Q 488 400 488 806 
Q 488 878 497 964 
Q 506 1050 525 1153 
L 897 3053 
L 409 3053 
L 500 3500 
L 978 3500 
L 1172 4494 
L 1747 4494 
L 1556 3500 
L 2706 3500 
z
" transform="scale(0.015625)"/>
     </defs>
     <use xlink:href="#DejaVuSans-Oblique-55"/>
     <use xlink:href="#DejaVuSans-Oblique-73" transform="translate(73.193359 0)"/>
     <use xlink:href="#DejaVuSans-Oblique-65" transform="translate(125.292969 0)"/>
     <use xlink:href="#DejaVuSans-Oblique-20" transform="translate(186.816406 0)"/>
     <use xlink:href="#DejaVuSans-Oblique-77" transform="translate(218.603516 0)"/>
     <use xlink:href="#DejaVuSans-Oblique-68" transform="translate(300.390625 0)"/>
     <use xlink:href="#DejaVuSans-Oblique-65" transform="translate(363.769531 0)"/>
     <use xlink:href="#DejaVuSans-Oblique-6e" transform="translate(425.292969 0)"/>
     <use xlink:href="#DejaVuSans-Oblique-20" transform="translate(488.671875 0)"/>
     <use xlink:href="#DejaVuSans-Oblique-79" transform="translate(520.458984 0)"/>
     <use xlink:href="#DejaVuSans-Oblique-6f" transform="translate(579.638672 0)"/>
     <use xlink:href="#DejaVuSans-Oblique-75" transform="translate(640.820312 0)"/>
     <use xlink:href="#DejaVuSans-Oblique-20" transform="translate(704.199219 0)"/>
     <use xlink:href="#DejaVuSans-Oblique-68" transform="translate(735.986328 0)"/>
     <use xlink:href="#DejaVuSans-Oblique-61" transform="translate(799.365234 0)"/>
     <use xlink:href="#DejaVuSans-Oblique-76" transform="translate(860.644531 0)"/>
     <use xlink:href="#DejaVuSans-Oblique-65" transform="translate(919.824219 0)"/>
     <use xlink:href="#DejaVuSans-Oblique-20" transform="translate(981.347656 0)"/>
     <use xlink:href="#DejaVuSans-Oblique-74" transform="translate(1013.134766 0)"/>
     <use xlink:href="#DejaVuSans-Oblique-68" transform="translate(1052.34375 0)"/>
     <use xlink:href="#DejaVuSans-Oblique-65" transform="translate(1115.722656 0)"/>
    </g>
    <!-- entire population -->
    <g style="fill: #808080" transform="translate(134.855324 144.825716) scale(0.09 -0.09)">
     <defs>
      <path id="DejaVuSans-Oblique-70" d="M 3175 2156 
Q 3175 2616 2975 2859 
Q 2775 3103 2400 3103 
Q 2144 3103 1911 2972 
Q 1678 2841 1497 2591 
Q 1319 2344 1212 1994 
Q 1106 1644 1106 1300 
Q 1106 863 1306 627 
Q 1506 391 1875 391 
Q 2147 391 2380 519 
Q 2613 647 2778 891 
Q 2956 1147 3065 1494 
Q 3175 1841 3175 2156 
z
M 1394 2969 
Q 1625 3272 1939 3428 
Q 2253 3584 2638 3584 
Q 3175 3584 3472 3232 
Q 3769 2881 3769 2247 
Q 3769 1728 3584 1258 
Q 3400 788 3053 416 
Q 2822 169 2531 39 
Q 2241 -91 1919 -91 
Q 1547 -91 1294 64 
Q 1041 219 916 525 
L 556 -1331 
L -19 -1331 
L 922 3500 
L 1497 3500 
L 1394 2969 
z
" transform="scale(0.015625)"/>
      <path id="DejaVuSans-Oblique-6c" d="M 1172 4863 
L 1747 4863 
L 800 0 
L 225 0 
L 1172 4863 
z
" transform="scale(0.015625)"/>
     </defs>
     <use xlink:href="#DejaVuSans-Oblique-65"/>
     <use xlink:href="#DejaVuSans-Oblique-6e" transform="translate(61.523438 0)"/>
     <use xlink:href="#DejaVuSans-Oblique-74" transform="translate(124.902344 0)"/>
     <use xlink:href="#DejaVuSans-Oblique-69" transform="translate(164.111328 0)"/>
     <use xlink:href="#DejaVuSans-Oblique-72" transform="translate(191.894531 0)"/>
     <use xlink:href="#DejaVuSans-Oblique-65" transform="translate(233.007812 0)"/>
     <use xlink:href="#DejaVuSans-Oblique-20" transform="translate(294.53125 0)"/>
     <use xlink:href="#DejaVuSans-Oblique-70" transform="translate(326.318359 0)"/>
     <use xlink:href="#DejaVuSans-Oblique-6f" transform="translate(389.794922 0)"/>
     <use xlink:href="#DejaVuSans-Oblique-70" transform="translate(450.976562 0)"/>
     <use xlink:href="#DejaVuSans-Oblique-75" transform="translate(514.453125 0)"/>
     <use xlink:href="#DejaVuSans-Oblique-6c" transform="translate(577.832031 0)"/>
     <use xlink:href="#DejaVuSans-Oblique-61" transform="translate(605.615234 0)"/>
     <use xlink:href="#DejaVuSans-Oblique-74" transform="translate(666.894531 0)"/>
     <use xlink:href="#DejaVuSans-Oblique-69" transform="translate(706.103516 0)"/>
     <use xlink:href="#DejaVuSans-Oblique-6f" transform="translate(733.886719 0)"/>
     <use xlink:href="#DejaVuSans-Oblique-6e" transform="translate(795.068359 0)"/>
    </g>
   </g>
   <g id="text_8">
    <!-- Used in MLE -->
    <g style="fill: #808080" transform="translate(478.598002 134.747685) scale(0.09 -0.09)">
     <defs>
      <path id="DejaVuSans-Oblique-64" d="M 2675 525 
Q 2444 222 2128 65 
Q 1813 -91 1428 -91 
Q 903 -91 598 267 
Q 294 625 294 1247 
Q 294 1766 478 2236 
Q 663 2706 1013 3078 
Q 1244 3325 1534 3454 
Q 1825 3584 2144 3584 
Q 2481 3584 2739 3421 
Q 2997 3259 3138 2956 
L 3513 4863 
L 4091 4863 
L 3144 0 
L 2566 0 
L 2675 525 
z
M 891 1350 
Q 891 897 1095 644 
Q 1300 391 1663 391 
Q 1931 391 2161 520 
Q 2391 650 2566 903 
Q 2750 1166 2856 1509 
Q 2963 1853 2963 2188 
Q 2963 2622 2758 2865 
Q 2553 3109 2194 3109 
Q 1922 3109 1687 2981 
Q 1453 2853 1288 2613 
Q 1106 2353 998 2009 
Q 891 1666 891 1350 
z
" transform="scale(0.015625)"/>
      <path id="DejaVuSans-Oblique-4d" d="M 1081 4666 
L 2028 4666 
L 2572 1522 
L 4378 4666 
L 5350 4666 
L 4441 0 
L 3828 0 
L 4622 4091 
L 2791 897 
L 2175 897 
L 1581 4103 
L 788 0 
L 172 0 
L 1081 4666 
z
" transform="scale(0.015625)"/>
      <path id="DejaVuSans-Oblique-4c" d="M 1075 4666 
L 1709 4666 
L 909 525 
L 3181 525 
L 3078 0 
L 172 0 
L 1075 4666 
z
" transform="scale(0.015625)"/>
      <path id="DejaVuSans-Oblique-45" d="M 1081 4666 
L 4031 4666 
L 3928 4134 
L 1606 4134 
L 1338 2753 
L 3566 2753 
L 3463 2222 
L 1234 2222 
L 909 531 
L 3284 531 
L 3181 0 
L 172 0 
L 1081 4666 
z
" transform="scale(0.015625)"/>
     </defs>
     <use xlink:href="#DejaVuSans-Oblique-55"/>
     <use xlink:href="#DejaVuSans-Oblique-73" transform="translate(73.193359 0)"/>
     <use xlink:href="#DejaVuSans-Oblique-65" transform="translate(125.292969 0)"/>
     <use xlink:href="#DejaVuSans-Oblique-64" transform="translate(186.816406 0)"/>
     <use xlink:href="#DejaVuSans-Oblique-20" transform="translate(250.292969 0)"/>
     <use xlink:href="#DejaVuSans-Oblique-69" transform="translate(282.080078 0)"/>
     <use xlink:href="#DejaVuSans-Oblique-6e" transform="translate(309.863281 0)"/>
     <use xlink:href="#DejaVuSans-Oblique-20" transform="translate(373.242188 0)"/>
     <use xlink:href="#DejaVuSans-Oblique-4d" transform="translate(405.029297 0)"/>
     <use xlink:href="#DejaVuSans-Oblique-4c" transform="translate(491.308594 0)"/>
     <use xlink:href="#DejaVuSans-Oblique-45" transform="translate(547.021484 0)"/>
    </g>
    <!-- (slightly biased) -->
    <g style="fill: #808080" transform="translate(470.050112 144.825716) scale(0.09 -0.09)">
     <defs>
      <path id="DejaVuSans-Oblique-28" d="M 2731 4856 
Q 1903 3822 1495 2892 
Q 1088 1963 1088 1100 
Q 1088 606 1206 120 
Q 1325 -366 1563 -844 
L 1063 -844 
Q 775 -306 634 201 
Q 494 709 494 1197 
Q 494 2125 923 3036 
Q 1353 3947 2222 4856 
L 2731 4856 
z
" transform="scale(0.015625)"/>
      <path id="DejaVuSans-Oblique-67" d="M 3816 3500 
L 3219 434 
Q 3047 -456 2561 -893 
Q 2075 -1331 1253 -1331 
Q 950 -1331 690 -1286 
Q 431 -1241 206 -1147 
L 313 -588 
Q 525 -725 762 -790 
Q 1000 -856 1269 -856 
Q 1816 -856 2167 -557 
Q 2519 -259 2631 300 
L 2681 563 
Q 2441 288 2122 144 
Q 1803 0 1434 0 
Q 903 0 598 351 
Q 294 703 294 1319 
Q 294 1803 478 2267 
Q 663 2731 997 3091 
Q 1219 3328 1514 3456 
Q 1809 3584 2131 3584 
Q 2484 3584 2746 3420 
Q 3009 3256 3138 2956 
L 3238 3500 
L 3816 3500 
z
M 2950 2216 
Q 2950 2641 2750 2872 
Q 2550 3103 2181 3103 
Q 1953 3103 1747 3012 
Q 1541 2922 1394 2759 
Q 1156 2491 1023 2127 
Q 891 1763 891 1375 
Q 891 944 1092 712 
Q 1294 481 1672 481 
Q 2219 481 2584 976 
Q 2950 1472 2950 2216 
z
" transform="scale(0.015625)"/>
      <path id="DejaVuSans-Oblique-62" d="M 3169 2138 
Q 3169 2591 2961 2847 
Q 2753 3103 2388 3103 
Q 2122 3103 1889 2973 
Q 1656 2844 1484 2597 
Q 1303 2338 1198 1995 
Q 1094 1653 1094 1313 
Q 1094 881 1298 636 
Q 1503 391 1863 391 
Q 2134 391 2365 517 
Q 2597 644 2772 891 
Q 2950 1147 3059 1487 
Q 3169 1828 3169 2138 
z
M 1381 2969 
Q 1594 3256 1914 3420 
Q 2234 3584 2584 3584 
Q 3122 3584 3439 3221 
Q 3756 2859 3756 2241 
Q 3756 1734 3570 1259 
Q 3384 784 3041 416 
Q 2816 172 2522 40 
Q 2228 -91 1906 -91 
Q 1566 -91 1316 65 
Q 1066 222 909 531 
L 806 0 
L 231 0 
L 1178 4863 
L 1753 4863 
L 1381 2969 
z
" transform="scale(0.015625)"/>
      <path id="DejaVuSans-Oblique-29" d="M -397 -844 
Q 434 191 840 1120 
Q 1247 2050 1247 2913 
Q 1247 3406 1130 3892 
Q 1013 4378 775 4856 
L 1275 4856 
Q 1563 4316 1703 3812 
Q 1844 3309 1844 2822 
Q 1844 1891 1411 973 
Q 978 56 116 -844 
L -397 -844 
z
" transform="scale(0.015625)"/>
     </defs>
     <use xlink:href="#DejaVuSans-Oblique-28"/>
     <use xlink:href="#DejaVuSans-Oblique-73" transform="translate(39.013672 0)"/>
     <use xlink:href="#DejaVuSans-Oblique-6c" transform="translate(91.113281 0)"/>
     <use xlink:href="#DejaVuSans-Oblique-69" transform="translate(118.896484 0)"/>
     <use xlink:href="#DejaVuSans-Oblique-67" transform="translate(146.679688 0)"/>
     <use xlink:href="#DejaVuSans-Oblique-68" transform="translate(210.15625 0)"/>
     <use xlink:href="#DejaVuSans-Oblique-74" transform="translate(273.535156 0)"/>
     <use xlink:href="#DejaVuSans-Oblique-6c" transform="translate(312.744141 0)"/>
     <use xlink:href="#DejaVuSans-Oblique-79" transform="translate(340.527344 0)"/>
     <use xlink:href="#DejaVuSans-Oblique-20" transform="translate(399.707031 0)"/>
     <use xlink:href="#DejaVuSans-Oblique-62" transform="translate(431.494141 0)"/>
     <use xlink:href="#DejaVuSans-Oblique-69" transform="translate(494.970703 0)"/>
     <use xlink:href="#DejaVuSans-Oblique-61" transform="translate(522.753906 0)"/>
     <use xlink:href="#DejaVuSans-Oblique-73" transform="translate(584.033203 0)"/>
     <use xlink:href="#DejaVuSans-Oblique-65" transform="translate(636.132812 0)"/>
     <use xlink:href="#DejaVuSans-Oblique-64" transform="translate(697.65625 0)"/>
     <use xlink:href="#DejaVuSans-Oblique-29" transform="translate(761.132812 0)"/>
    </g>
   </g>
   <g id="text_9">
    <!-- Most common in practice -->
    <g style="fill: #808080" transform="translate(449.124408 255.456776) scale(0.09 -0.09)">
     <defs>
      <path id="DejaVuSans-Oblique-63" d="M 3431 3366 
L 3316 2797 
Q 3109 2947 2876 3022 
Q 2644 3097 2394 3097 
Q 2119 3097 1870 3000 
Q 1622 2903 1453 2725 
Q 1184 2453 1037 2087 
Q 891 1722 891 1331 
Q 891 859 1127 628 
Q 1363 397 1844 397 
Q 2081 397 2348 469 
Q 2616 541 2906 684 
L 2797 116 
Q 2547 13 2283 -39 
Q 2019 -91 1741 -91 
Q 1044 -91 669 257 
Q 294 606 294 1253 
Q 294 1797 489 2255 
Q 684 2713 1069 3078 
Q 1331 3328 1684 3456 
Q 2038 3584 2456 3584 
Q 2700 3584 2940 3529 
Q 3181 3475 3431 3366 
z
" transform="scale(0.015625)"/>
      <path id="DejaVuSans-Oblique-6d" d="M 5747 2113 
L 5338 0 
L 4763 0 
L 5166 2094 
Q 5191 2228 5203 2325 
Q 5216 2422 5216 2491 
Q 5216 2772 5059 2928 
Q 4903 3084 4622 3084 
Q 4203 3084 3875 2770 
Q 3547 2456 3450 1953 
L 3066 0 
L 2491 0 
L 2900 2094 
Q 2925 2209 2937 2307 
Q 2950 2406 2950 2484 
Q 2950 2769 2794 2926 
Q 2638 3084 2363 3084 
Q 1938 3084 1609 2770 
Q 1281 2456 1184 1953 
L 800 0 
L 225 0 
L 909 3500 
L 1484 3500 
L 1375 2956 
Q 1609 3263 1923 3423 
Q 2238 3584 2597 3584 
Q 2978 3584 3223 3384 
Q 3469 3184 3519 2828 
Q 3781 3197 4126 3390 
Q 4472 3584 4856 3584 
Q 5306 3584 5551 3325 
Q 5797 3066 5797 2591 
Q 5797 2488 5784 2364 
Q 5772 2241 5747 2113 
z
" transform="scale(0.015625)"/>
     </defs>
     <use xlink:href="#DejaVuSans-Oblique-4d"/>
     <use xlink:href="#DejaVuSans-Oblique-6f" transform="translate(86.279297 0)"/>
     <use xlink:href="#DejaVuSans-Oblique-73" transform="translate(147.460938 0)"/>
     <use xlink:href="#DejaVuSans-Oblique-74" transform="translate(199.560547 0)"/>
     <use xlink:href="#DejaVuSans-Oblique-20" transform="translate(238.769531 0)"/>
     <use xlink:href="#DejaVuSans-Oblique-63" transform="translate(270.556641 0)"/>
     <use xlink:href="#DejaVuSans-Oblique-6f" transform="translate(325.537109 0)"/>
     <use xlink:href="#DejaVuSans-Oblique-6d" transform="translate(386.71875 0)"/>
     <use xlink:href="#DejaVuSans-Oblique-6d" transform="translate(484.130859 0)"/>
     <use xlink:href="#DejaVuSans-Oblique-6f" transform="translate(581.542969 0)"/>
     <use xlink:href="#DejaVuSans-Oblique-6e" transform="translate(642.724609 0)"/>
     <use xlink:href="#DejaVuSans-Oblique-20" transform="translate(706.103516 0)"/>
     <use xlink:href="#DejaVuSans-Oblique-69" transform="translate(737.890625 0)"/>
     <use xlink:href="#DejaVuSans-Oblique-6e" transform="translate(765.673828 0)"/>
     <use xlink:href="#DejaVuSans-Oblique-20" transform="translate(829.052734 0)"/>
     <use xlink:href="#DejaVuSans-Oblique-70" transform="translate(860.839844 0)"/>
     <use xlink:href="#DejaVuSans-Oblique-72" transform="translate(924.316406 0)"/>
     <use xlink:href="#DejaVuSans-Oblique-61" transform="translate(965.429688 0)"/>
     <use xlink:href="#DejaVuSans-Oblique-63" transform="translate(1026.708984 0)"/>
     <use xlink:href="#DejaVuSans-Oblique-74" transform="translate(1081.689453 0)"/>
     <use xlink:href="#DejaVuSans-Oblique-69" transform="translate(1120.898438 0)"/>
     <use xlink:href="#DejaVuSans-Oblique-63" transform="translate(1148.681641 0)"/>
     <use xlink:href="#DejaVuSans-Oblique-65" transform="translate(1203.662109 0)"/>
    </g>
    <!-- (unbiased) -->
    <g style="fill: #808080" transform="translate(482.007455 265.534807) scale(0.09 -0.09)">
     <use xlink:href="#DejaVuSans-Oblique-28"/>
     <use xlink:href="#DejaVuSans-Oblique-75" transform="translate(39.013672 0)"/>
     <use xlink:href="#DejaVuSans-Oblique-6e" transform="translate(102.392578 0)"/>
     <use xlink:href="#DejaVuSans-Oblique-62" transform="translate(165.771484 0)"/>
     <use xlink:href="#DejaVuSans-Oblique-69" transform="translate(229.248047 0)"/>
     <use xlink:href="#DejaVuSans-Oblique-61" transform="translate(257.03125 0)"/>
     <use xlink:href="#DejaVuSans-Oblique-73" transform="translate(318.310547 0)"/>
     <use xlink:href="#DejaVuSans-Oblique-65" transform="translate(370.410156 0)"/>
     <use xlink:href="#DejaVuSans-Oblique-64" transform="translate(431.933594 0)"/>
     <use xlink:href="#DejaVuSans-Oblique-29" transform="translate(495.410156 0)"/>
    </g>
   </g>
   <g id="patch_5">
    <path d="M 506.057143 114.818888 
Q 506.057143 133.943906 506.057143 151.391873 
" style="fill: none; stroke: #808080; stroke-width: 1.5; stroke-linecap: round"/>
    <path d="M 508.057143 147.391873 
L 506.057143 151.391873 
L 504.057143 147.391873 
" style="fill: none; stroke: #808080; stroke-width: 1.5; stroke-linecap: round"/>
   </g>
   <g id="text_10">
    <!-- Bessel's -->
    <g style="fill: #808080" transform="translate(559.268571 131.67292) scale(0.08 -0.08)">
     <defs>
      <path id="DejaVuSans-Oblique-42" d="M 1081 4666 
L 2694 4666 
Q 3350 4666 3675 4422 
Q 4000 4178 4000 3688 
Q 4000 3238 3720 2911 
Q 3441 2584 2988 2516 
Q 3375 2428 3569 2181 
Q 3763 1934 3763 1522 
Q 3763 819 3242 409 
Q 2722 0 1819 0 
L 172 0 
L 1081 4666 
z
M 1234 2228 
L 903 519 
L 1919 519 
Q 2491 519 2800 781 
Q 3109 1044 3109 1522 
Q 3109 1891 2904 2059 
Q 2700 2228 2247 2228 
L 1234 2228 
z
M 1606 4147 
L 1331 2741 
L 2272 2741 
Q 2775 2741 3058 2959 
Q 3341 3178 3341 3566 
Q 3341 3869 3150 4008 
Q 2959 4147 2541 4147 
L 1606 4147 
z
" transform="scale(0.015625)"/>
      <path id="DejaVuSans-Oblique-27" d="M 1147 4666 
L 1147 2931 
L 616 2931 
L 616 4666 
L 1147 4666 
z
" transform="scale(0.015625)"/>
     </defs>
     <use xlink:href="#DejaVuSans-Oblique-42"/>
     <use xlink:href="#DejaVuSans-Oblique-65" transform="translate(68.603516 0)"/>
     <use xlink:href="#DejaVuSans-Oblique-73" transform="translate(130.126953 0)"/>
     <use xlink:href="#DejaVuSans-Oblique-73" transform="translate(182.226562 0)"/>
     <use xlink:href="#DejaVuSans-Oblique-65" transform="translate(234.326172 0)"/>
     <use xlink:href="#DejaVuSans-Oblique-6c" transform="translate(295.849609 0)"/>
     <use xlink:href="#DejaVuSans-Oblique-27" transform="translate(323.632812 0)"/>
     <use xlink:href="#DejaVuSans-Oblique-73" transform="translate(351.123047 0)"/>
    </g>
    <!-- correction -->
    <g style="fill: #808080" transform="translate(559.268571 140.63117) scale(0.08 -0.08)">
     <use xlink:href="#DejaVuSans-Oblique-63"/>
     <use xlink:href="#DejaVuSans-Oblique-6f" transform="translate(54.980469 0)"/>
     <use xlink:href="#DejaVuSans-Oblique-72" transform="translate(116.162109 0)"/>
     <use xlink:href="#DejaVuSans-Oblique-72" transform="translate(157.275391 0)"/>
     <use xlink:href="#DejaVuSans-Oblique-65" transform="translate(198.388672 0)"/>
     <use xlink:href="#DejaVuSans-Oblique-63" transform="translate(259.912109 0)"/>
     <use xlink:href="#DejaVuSans-Oblique-74" transform="translate(314.892578 0)"/>
     <use xlink:href="#DejaVuSans-Oblique-69" transform="translate(354.101562 0)"/>
     <use xlink:href="#DejaVuSans-Oblique-6f" transform="translate(381.884766 0)"/>
     <use xlink:href="#DejaVuSans-Oblique-6e" transform="translate(443.066406 0)"/>
    </g>
   </g>
  </g>
 </g>
 <defs>
  <clipPath id="pecdccde524">
   <rect x="7.2" y="7.2" width="698.4" height="265.56"/>
  </clipPath>
 </defs>
</svg>
