<?xml version="1.0" encoding="utf-8" standalone="no"?>
<!DOCTYPE svg PUBLIC "-//W3C//DTD SVG 1.1//EN"
  "http://www.w3.org/Graphics/SVG/1.1/DTD/svg11.dtd">
<svg xmlns:xlink="http://www.w3.org/1999/xlink" width="569.07625pt" height="281.21pt" viewBox="0 0 569.07625 281.21" xmlns="http://www.w3.org/2000/svg" version="1.1">
 <metadata>
  <rdf:RDF xmlns:dc="http://purl.org/dc/elements/1.1/" xmlns:cc="http://creativecommons.org/ns#" xmlns:rdf="http://www.w3.org/1999/02/22-rdf-syntax-ns#">
   <cc:Work>
    <dc:type rdf:resource="http://purl.org/dc/dcmitype/StillImage"/>
    <dc:date>2026-07-16T09:05:12.852323</dc:date>
    <dc:format>image/svg+xml</dc:format>
    <dc:creator>
     <cc:Agent>
      <dc:title>Matplotlib v3.10.8, https://matplotlib.org/</dc:title>
     </cc:Agent>
    </dc:creator>
   </cc:Work>
  </rdf:RDF>
 </metadata>
 <defs>
  <style type="text/css">*{stroke-linejoin: round; stroke-linecap: butt}</style>
 </defs>
 <g id="figure_1">
  <g id="patch_1">
   <path d="M 0 281.21 
L 569.07625 281.21 
L 569.07625 0 
L 0 0 
z
" style="fill: #ffffff"/>
  </g>
  <g id="axes_1">
   <g id="patch_2">
    <path d="M 45.716875 241.718125 
L 558.695 241.718125 
L 558.695 22.318125 
L 45.716875 22.318125 
z
" style="fill: #ffffff"/>
   </g>
   <g id="FillBetweenPolyCollection_1">
    <defs>
     <path id="mfbe14d661d" d="M 45.716875 -65.30364 
L 45.716875 -65.361213 
L 47.002534 -65.366008 
L 48.288194 -65.371175 
L 49.573853 -65.376741 
L 50.859513 -65.382734 
L 52.145172 -65.389184 
L 53.430832 -65.396123 
L 54.716491 -65.403584 
L 56.002151 -65.411604 
L 57.28781 -65.42022 
L 58.57347 -65.429474 
L 59.859129 -65.439407 
L 61.144789 -65.450066 
L 62.430448 -65.461498 
L 63.716107 -65.473754 
L 65.001767 -65.486888 
L 66.287426 -65.500956 
L 67.573086 -65.51602 
L 68.858745 -65.532141 
L 70.144405 -65.549387 
L 71.430064 -65.567829 
L 72.715724 -65.587541 
L 74.001383 -65.6086 
L 75.287043 -65.631091 
L 76.572702 -65.655098 
L 77.858362 -65.680714 
L 79.144021 -65.708035 
L 80.42968 -65.73716 
L 81.71534 -65.768197 
L 83.000999 -65.801255 
L 84.286659 -65.836452 
L 85.572318 -65.873909 
L 86.857978 -65.913754 
L 88.143637 -65.95612 
L 89.429297 -66.001148 
L 90.714956 -66.048984 
L 92.000616 -66.09978 
L 93.286275 -66.153696 
L 94.571935 -66.210898 
L 95.857594 -66.271561 
L 97.143253 -66.335865 
L 98.428913 -66.403998 
L 99.714572 -66.476157 
L 101.000232 -66.552546 
L 102.285891 -66.633377 
L 103.571551 -66.71887 
L 104.85721 -66.809255 
L 106.14287 -66.904768 
L 107.428529 -67.005657 
L 108.714189 -67.112175 
L 109.999848 -67.224587 
L 111.285508 -67.343166 
L 112.571167 -67.468194 
L 113.856826 -67.599964 
L 115.142486 -67.738776 
L 116.428145 -67.884941 
L 117.713805 -68.03878 
L 118.999464 -68.200623 
L 120.285124 -68.370809 
L 121.570783 -68.549687 
L 122.856443 -68.737617 
L 124.142102 -68.934967 
L 125.427762 -69.142115 
L 126.713421 -69.359449 
L 127.999081 -69.587366 
L 129.28474 -69.826272 
L 130.570399 -70.076583 
L 131.856059 -70.338724 
L 133.141718 -70.613127 
L 134.427378 -70.900234 
L 135.713037 -71.200495 
L 136.998697 -71.514368 
L 138.284356 -71.842319 
L 139.570016 -72.184819 
L 140.855675 -72.54235 
L 142.141335 -72.915396 
L 143.426994 -73.304451 
L 144.712654 -73.710011 
L 145.998313 -74.132578 
L 147.283972 -74.57266 
L 148.569632 -75.030767 
L 149.855291 -75.507412 
L 151.140951 -76.003111 
L 152.42661 -76.518383 
L 153.71227 -77.053744 
L 154.997929 -77.609714 
L 156.283589 -78.18681 
L 157.569248 -78.785549 
L 158.854908 -79.406442 
L 160.140567 -80.050001 
L 161.426227 -80.716731 
L 162.711886 -81.40713 
L 163.997545 -82.121692 
L 165.283205 -82.860902 
L 166.568864 -83.625235 
L 167.854524 -84.415158 
L 169.140183 -85.231126 
L 170.425843 -86.073581 
L 171.711502 -86.942949 
L 172.997162 -87.839646 
L 174.282821 -88.764067 
L 175.568481 -89.716592 
L 176.85414 -90.697579 
L 178.139799 -91.707369 
L 179.425459 -92.74628 
L 180.711118 -93.814604 
L 181.996778 -94.912612 
L 183.282437 -96.040547 
L 184.568097 -97.198626 
L 185.853756 -98.387035 
L 187.139416 -99.605932 
L 188.425075 -100.855442 
L 189.710735 -102.135657 
L 190.996394 -103.446636 
L 192.282054 -104.788401 
L 193.567713 -106.160937 
L 194.853372 -107.564192 
L 196.139032 -108.998073 
L 197.424691 -110.462447 
L 198.710351 -111.957139 
L 199.99601 -113.481931 
L 201.28167 -115.036562 
L 202.567329 -116.620724 
L 203.852989 -118.234064 
L 205.138648 -119.876182 
L 206.424308 -121.546631 
L 207.709967 -123.244914 
L 208.995627 -124.970487 
L 210.281286 -126.722753 
L 211.566945 -128.501069 
L 212.852605 -130.304737 
L 214.138264 -132.13301 
L 215.423924 -133.985092 
L 216.709583 -135.860131 
L 217.995243 -137.757227 
L 219.280902 -139.675427 
L 220.566562 -141.613728 
L 221.852221 -143.571075 
L 223.137881 -145.546363 
L 224.42354 -147.538438 
L 225.7092 -149.546094 
L 226.994859 -151.568078 
L 228.280518 -153.60309 
L 229.566178 -155.649781 
L 230.851837 -157.706758 
L 232.137497 -159.772583 
L 233.423156 -161.845775 
L 234.708816 -163.92481 
L 235.994475 -166.008125 
L 237.280135 -168.094118 
L 238.565794 -170.18115 
L 239.851454 -172.267548 
L 241.137113 -174.351604 
L 242.422773 -176.431583 
L 243.708432 -178.505718 
L 244.994091 -180.572218 
L 246.279751 -182.629266 
L 247.56541 -184.675025 
L 247.56541 -65.30364 
L 247.56541 -65.30364 
L 246.279751 -65.30364 
L 244.994091 -65.30364 
L 243.708432 -65.30364 
L 242.422773 -65.30364 
L 241.137113 -65.30364 
L 239.851454 -65.30364 
L 238.565794 -65.30364 
L 237.280135 -65.30364 
L 235.994475 -65.30364 
L 234.708816 -65.30364 
L 233.423156 -65.30364 
L 232.137497 -65.30364 
L 230.851837 -65.30364 
L 229.566178 -65.30364 
L 228.280518 -65.30364 
L 226.994859 -65.30364 
L 225.7092 -65.30364 
L 224.42354 -65.30364 
L 223.137881 -65.30364 
L 221.852221 -65.30364 
L 220.566562 -65.30364 
L 219.280902 -65.30364 
L 217.995243 -65.30364 
L 216.709583 -65.30364 
L 215.423924 -65.30364 
L 214.138264 -65.30364 
L 212.852605 -65.30364 
L 211.566945 -65.30364 
L 210.281286 -65.30364 
L 208.995627 -65.30364 
L 207.709967 -65.30364 
L 206.424308 -65.30364 
L 205.138648 -65.30364 
L 203.852989 -65.30364 
L 202.567329 -65.30364 
L 201.28167 -65.30364 
L 199.99601 -65.30364 
L 198.710351 -65.30364 
L 197.424691 -65.30364 
L 196.139032 -65.30364 
L 194.853372 -65.30364 
L 193.567713 -65.30364 
L 192.282054 -65.30364 
L 190.996394 -65.30364 
L 189.710735 -65.30364 
L 188.425075 -65.30364 
L 187.139416 -65.30364 
L 185.853756 -65.30364 
L 184.568097 -65.30364 
L 183.282437 -65.30364 
L 181.996778 -65.30364 
L 180.711118 -65.30364 
L 179.425459 -65.30364 
L 178.139799 -65.30364 
L 176.85414 -65.30364 
L 175.568481 -65.30364 
L 174.282821 -65.30364 
L 172.997162 -65.30364 
L 171.711502 -65.30364 
L 170.425843 -65.30364 
L 169.140183 -65.30364 
L 167.854524 -65.30364 
L 166.568864 -65.30364 
L 165.283205 -65.30364 
L 163.997545 -65.30364 
L 162.711886 -65.30364 
L 161.426227 -65.30364 
L 160.140567 -65.30364 
L 158.854908 -65.30364 
L 157.569248 -65.30364 
L 156.283589 -65.30364 
L 154.997929 -65.30364 
L 153.71227 -65.30364 
L 152.42661 -65.30364 
L 151.140951 -65.30364 
L 149.855291 -65.30364 
L 148.569632 -65.30364 
L 147.283972 -65.30364 
L 145.998313 -65.30364 
L 144.712654 -65.30364 
L 143.426994 -65.30364 
L 142.141335 -65.30364 
L 140.855675 -65.30364 
L 139.570016 -65.30364 
L 138.284356 -65.30364 
L 136.998697 -65.30364 
L 135.713037 -65.30364 
L 134.427378 -65.30364 
L 133.141718 -65.30364 
L 131.856059 -65.30364 
L 130.570399 -65.30364 
L 129.28474 -65.30364 
L 127.999081 -65.30364 
L 126.713421 -65.30364 
L 125.427762 -65.30364 
L 124.142102 -65.30364 
L 122.856443 -65.30364 
L 121.570783 -65.30364 
L 120.285124 -65.30364 
L 118.999464 -65.30364 
L 117.713805 -65.30364 
L 116.428145 -65.30364 
L 115.142486 -65.30364 
L 113.856826 -65.30364 
L 112.571167 -65.30364 
L 111.285508 -65.30364 
L 109.999848 -65.30364 
L 108.714189 -65.30364 
L 107.428529 -65.30364 
L 106.14287 -65.30364 
L 104.85721 -65.30364 
L 103.571551 -65.30364 
L 102.285891 -65.30364 
L 101.000232 -65.30364 
L 99.714572 -65.30364 
L 98.428913 -65.30364 
L 97.143253 -65.30364 
L 95.857594 -65.30364 
L 94.571935 -65.30364 
L 93.286275 -65.30364 
L 92.000616 -65.30364 
L 90.714956 -65.30364 
L 89.429297 -65.30364 
L 88.143637 -65.30364 
L 86.857978 -65.30364 
L 85.572318 -65.30364 
L 84.286659 -65.30364 
L 83.000999 -65.30364 
L 81.71534 -65.30364 
L 80.42968 -65.30364 
L 79.144021 -65.30364 
L 77.858362 -65.30364 
L 76.572702 -65.30364 
L 75.287043 -65.30364 
L 74.001383 -65.30364 
L 72.715724 -65.30364 
L 71.430064 -65.30364 
L 70.144405 -65.30364 
L 68.858745 -65.30364 
L 67.573086 -65.30364 
L 66.287426 -65.30364 
L 65.001767 -65.30364 
L 63.716107 -65.30364 
L 62.430448 -65.30364 
L 61.144789 -65.30364 
L 59.859129 -65.30364 
L 58.57347 -65.30364 
L 57.28781 -65.30364 
L 56.002151 -65.30364 
L 54.716491 -65.30364 
L 53.430832 -65.30364 
L 52.145172 -65.30364 
L 50.859513 -65.30364 
L 49.573853 -65.30364 
L 48.288194 -65.30364 
L 47.002534 -65.30364 
L 45.716875 -65.30364 
z
" style="stroke: #4682b4; stroke-opacity: 0.3"/>
    </defs>
    <g clip-path="url(#p7b690eb154)">
     <use xlink:href="#mfbe14d661d" x="0" y="281.21" style="fill: #4682b4; fill-opacity: 0.3; stroke: #4682b4; stroke-opacity: 0.3"/>
    </g>
   </g>
   <g id="FillBetweenPolyCollection_2">
    <defs>
     <path id="m78eb121621" d="M 248.85107 -65.30364 
L 248.85107 -186.707641 
L 250.136729 -188.725241 
L 251.422389 -190.72594 
L 252.708048 -192.707844 
L 253.993708 -194.669049 
L 255.279367 -196.607648 
L 256.565027 -198.521732 
L 257.850686 -200.409394 
L 259.136346 -202.268732 
L 260.422005 -204.097851 
L 261.707664 -205.894867 
L 262.993324 -207.657911 
L 264.278983 -209.38513 
L 265.564643 -211.074693 
L 266.850302 -212.724792 
L 268.135962 -214.333647 
L 269.421621 -215.899507 
L 270.707281 -217.420655 
L 271.99294 -218.89541 
L 273.2786 -220.322132 
L 274.564259 -221.699222 
L 275.849919 -223.025127 
L 277.135578 -224.298343 
L 278.421237 -225.517417 
L 279.706897 -226.68095 
L 280.992556 -227.7876 
L 282.278216 -228.836085 
L 283.563875 -229.825183 
L 284.849535 -230.753739 
L 286.135194 -231.62066 
L 287.420854 -232.424927 
L 288.706513 -233.165588 
L 289.992173 -233.841764 
L 291.277832 -234.45265 
L 292.563492 -234.997519 
L 293.849151 -235.475719 
L 295.13481 -235.886678 
L 296.42047 -236.229901 
L 297.706129 -236.504976 
L 298.991789 -236.711574 
L 300.277448 -236.849444 
L 301.563108 -236.91842 
L 302.848767 -236.91842 
L 304.134427 -236.849444 
L 305.420086 -236.711574 
L 306.705746 -236.504976 
L 307.991405 -236.229901 
L 309.277065 -235.886678 
L 310.562724 -235.475719 
L 311.848383 -234.997519 
L 313.134043 -234.45265 
L 314.419702 -233.841764 
L 315.705362 -233.165588 
L 316.991021 -232.424927 
L 318.276681 -231.62066 
L 319.56234 -230.753739 
L 320.848 -229.825183 
L 322.133659 -228.836085 
L 323.419319 -227.7876 
L 324.704978 -226.68095 
L 325.990638 -225.517417 
L 327.276297 -224.298343 
L 328.561956 -223.025127 
L 329.847616 -221.699222 
L 331.133275 -220.322132 
L 332.418935 -218.89541 
L 333.704594 -217.420655 
L 334.990254 -215.899507 
L 336.275913 -214.333647 
L 337.561573 -212.724792 
L 338.847232 -211.074693 
L 340.132892 -209.38513 
L 341.418551 -207.657911 
L 342.704211 -205.894867 
L 343.98987 -204.097851 
L 345.275529 -202.268732 
L 346.561189 -200.409394 
L 347.846848 -198.521732 
L 349.132508 -196.607648 
L 350.418167 -194.669049 
L 351.703827 -192.707844 
L 352.989486 -190.72594 
L 354.275146 -188.725241 
L 355.560805 -186.707641 
L 356.846465 -184.675025 
L 358.132124 -182.629266 
L 359.417784 -180.572218 
L 360.703443 -178.505718 
L 361.989102 -176.431583 
L 363.274762 -174.351604 
L 364.560421 -172.267548 
L 365.846081 -170.18115 
L 367.13174 -168.094118 
L 368.4174 -166.008125 
L 369.703059 -163.92481 
L 370.988719 -161.845775 
L 372.274378 -159.772583 
L 373.560038 -157.706758 
L 374.845697 -155.649781 
L 376.131357 -153.60309 
L 377.417016 -151.568078 
L 378.702675 -149.546094 
L 379.988335 -147.538438 
L 381.273994 -145.546363 
L 382.559654 -143.571075 
L 383.845313 -141.613728 
L 385.130973 -139.675427 
L 386.416632 -137.757227 
L 387.702292 -135.860131 
L 388.987951 -133.985092 
L 390.273611 -132.13301 
L 391.55927 -130.304737 
L 392.84493 -128.501069 
L 394.130589 -126.722753 
L 395.416248 -124.970487 
L 396.701908 -123.244914 
L 397.987567 -121.546631 
L 399.273227 -119.876182 
L 400.558886 -118.234064 
L 401.844546 -116.620724 
L 403.130205 -115.036562 
L 404.415865 -113.481931 
L 405.701524 -111.957139 
L 406.987184 -110.462447 
L 408.272843 -108.998073 
L 409.558503 -107.564192 
L 410.844162 -106.160937 
L 412.129821 -104.788401 
L 413.415481 -103.446636 
L 414.70114 -102.135657 
L 415.9868 -100.855442 
L 417.272459 -99.605932 
L 418.558119 -98.387035 
L 419.843778 -97.198626 
L 421.129438 -96.040547 
L 422.415097 -94.912612 
L 423.700757 -93.814604 
L 424.986416 -92.74628 
L 426.272076 -91.707369 
L 427.557735 -90.697579 
L 428.843394 -89.716592 
L 430.129054 -88.764067 
L 431.414713 -87.839646 
L 432.700373 -86.942949 
L 433.986032 -86.073581 
L 435.271692 -85.231126 
L 436.557351 -84.415158 
L 437.843011 -83.625235 
L 439.12867 -82.860902 
L 440.41433 -82.121692 
L 441.699989 -81.40713 
L 442.985648 -80.716731 
L 444.271308 -80.050001 
L 445.556967 -79.406442 
L 446.842627 -78.785549 
L 448.128286 -78.18681 
L 449.413946 -77.609714 
L 450.699605 -77.053744 
L 451.985265 -76.518383 
L 453.270924 -76.003111 
L 454.556584 -75.507412 
L 455.842243 -75.030767 
L 457.127903 -74.57266 
L 458.413562 -74.132578 
L 459.699221 -73.710011 
L 460.984881 -73.304451 
L 462.27054 -72.915396 
L 463.5562 -72.54235 
L 464.841859 -72.184819 
L 466.127519 -71.842319 
L 467.413178 -71.514368 
L 468.698838 -71.200495 
L 469.984497 -70.900234 
L 471.270157 -70.613127 
L 472.555816 -70.338724 
L 473.841476 -70.076583 
L 475.127135 -69.826272 
L 476.412794 -69.587366 
L 477.698454 -69.359449 
L 478.984113 -69.142115 
L 480.269773 -68.934967 
L 481.555432 -68.737617 
L 482.841092 -68.549687 
L 484.126751 -68.370809 
L 485.412411 -68.200623 
L 486.69807 -68.03878 
L 487.98373 -67.884941 
L 489.269389 -67.738776 
L 490.555049 -67.599964 
L 491.840708 -67.468194 
L 493.126367 -67.343166 
L 494.412027 -67.224587 
L 495.697686 -67.112175 
L 496.983346 -67.005657 
L 498.269005 -66.904768 
L 499.554665 -66.809255 
L 500.840324 -66.71887 
L 502.125984 -66.633377 
L 503.411643 -66.552546 
L 504.697303 -66.476157 
L 505.982962 -66.403998 
L 507.268622 -66.335865 
L 508.554281 -66.271561 
L 509.83994 -66.210898 
L 511.1256 -66.153696 
L 512.411259 -66.09978 
L 513.696919 -66.048984 
L 514.982578 -66.001148 
L 516.268238 -65.95612 
L 517.553897 -65.913754 
L 518.839557 -65.873909 
L 520.125216 -65.836452 
L 521.410876 -65.801255 
L 522.696535 -65.768197 
L 523.982195 -65.73716 
L 525.267854 -65.708035 
L 526.553513 -65.680714 
L 527.839173 -65.655098 
L 529.124832 -65.631091 
L 530.410492 -65.6086 
L 531.696151 -65.587541 
L 532.981811 -65.567829 
L 534.26747 -65.549387 
L 535.55313 -65.532141 
L 536.838789 -65.51602 
L 538.124449 -65.500956 
L 539.410108 -65.486888 
L 540.695768 -65.473754 
L 541.981427 -65.461498 
L 543.267086 -65.450066 
L 544.552746 -65.439407 
L 545.838405 -65.429474 
L 547.124065 -65.42022 
L 548.409724 -65.411604 
L 549.695384 -65.403584 
L 550.981043 -65.396123 
L 552.266703 -65.389184 
L 553.552362 -65.382734 
L 554.838022 -65.376741 
L 556.123681 -65.371175 
L 557.409341 -65.366008 
L 558.695 -65.361213 
L 558.695 -65.30364 
L 558.695 -65.30364 
L 557.409341 -65.30364 
L 556.123681 -65.30364 
L 554.838022 -65.30364 
L 553.552362 -65.30364 
L 552.266703 -65.30364 
L 550.981043 -65.30364 
L 549.695384 -65.30364 
L 548.409724 -65.30364 
L 547.124065 -65.30364 
L 545.838405 -65.30364 
L 544.552746 -65.30364 
L 543.267086 -65.30364 
L 541.981427 -65.30364 
L 540.695768 -65.30364 
L 539.410108 -65.30364 
L 538.124449 -65.30364 
L 536.838789 -65.30364 
L 535.55313 -65.30364 
L 534.26747 -65.30364 
L 532.981811 -65.30364 
L 531.696151 -65.30364 
L 530.410492 -65.30364 
L 529.124832 -65.30364 
L 527.839173 -65.30364 
L 526.553513 -65.30364 
L 525.267854 -65.30364 
L 523.982195 -65.30364 
L 522.696535 -65.30364 
L 521.410876 -65.30364 
L 520.125216 -65.30364 
L 518.839557 -65.30364 
L 517.553897 -65.30364 
L 516.268238 -65.30364 
L 514.982578 -65.30364 
L 513.696919 -65.30364 
L 512.411259 -65.30364 
L 511.1256 -65.30364 
L 509.83994 -65.30364 
L 508.554281 -65.30364 
L 507.268622 -65.30364 
L 505.982962 -65.30364 
L 504.697303 -65.30364 
L 503.411643 -65.30364 
L 502.125984 -65.30364 
L 500.840324 -65.30364 
L 499.554665 -65.30364 
L 498.269005 -65.30364 
L 496.983346 -65.30364 
L 495.697686 -65.30364 
L 494.412027 -65.30364 
L 493.126367 -65.30364 
L 491.840708 -65.30364 
L 490.555049 -65.30364 
L 489.269389 -65.30364 
L 487.98373 -65.30364 
L 486.69807 -65.30364 
L 485.412411 -65.30364 
L 484.126751 -65.30364 
L 482.841092 -65.30364 
L 481.555432 -65.30364 
L 480.269773 -65.30364 
L 478.984113 -65.30364 
L 477.698454 -65.30364 
L 476.412794 -65.30364 
L 475.127135 -65.30364 
L 473.841476 -65.30364 
L 472.555816 -65.30364 
L 471.270157 -65.30364 
L 469.984497 -65.30364 
L 468.698838 -65.30364 
L 467.413178 -65.30364 
L 466.127519 -65.30364 
L 464.841859 -65.30364 
L 463.5562 -65.30364 
L 462.27054 -65.30364 
L 460.984881 -65.30364 
L 459.699221 -65.30364 
L 458.413562 -65.30364 
L 457.127903 -65.30364 
L 455.842243 -65.30364 
L 454.556584 -65.30364 
L 453.270924 -65.30364 
L 451.985265 -65.30364 
L 450.699605 -65.30364 
L 449.413946 -65.30364 
L 448.128286 -65.30364 
L 446.842627 -65.30364 
L 445.556967 -65.30364 
L 444.271308 -65.30364 
L 442.985648 -65.30364 
L 441.699989 -65.30364 
L 440.41433 -65.30364 
L 439.12867 -65.30364 
L 437.843011 -65.30364 
L 436.557351 -65.30364 
L 435.271692 -65.30364 
L 433.986032 -65.30364 
L 432.700373 -65.30364 
L 431.414713 -65.30364 
L 430.129054 -65.30364 
L 428.843394 -65.30364 
L 427.557735 -65.30364 
L 426.272076 -65.30364 
L 424.986416 -65.30364 
L 423.700757 -65.30364 
L 422.415097 -65.30364 
L 421.129438 -65.30364 
L 419.843778 -65.30364 
L 418.558119 -65.30364 
L 417.272459 -65.30364 
L 415.9868 -65.30364 
L 414.70114 -65.30364 
L 413.415481 -65.30364 
L 412.129821 -65.30364 
L 410.844162 -65.30364 
L 409.558503 -65.30364 
L 408.272843 -65.30364 
L 406.987184 -65.30364 
L 405.701524 -65.30364 
L 404.415865 -65.30364 
L 403.130205 -65.30364 
L 401.844546 -65.30364 
L 400.558886 -65.30364 
L 399.273227 -65.30364 
L 397.987567 -65.30364 
L 396.701908 -65.30364 
L 395.416248 -65.30364 
L 394.130589 -65.30364 
L 392.84493 -65.30364 
L 391.55927 -65.30364 
L 390.273611 -65.30364 
L 388.987951 -65.30364 
L 387.702292 -65.30364 
L 386.416632 -65.30364 
L 385.130973 -65.30364 
L 383.845313 -65.30364 
L 382.559654 -65.30364 
L 381.273994 -65.30364 
L 379.988335 -65.30364 
L 378.702675 -65.30364 
L 377.417016 -65.30364 
L 376.131357 -65.30364 
L 374.845697 -65.30364 
L 373.560038 -65.30364 
L 372.274378 -65.30364 
L 370.988719 -65.30364 
L 369.703059 -65.30364 
L 368.4174 -65.30364 
L 367.13174 -65.30364 
L 365.846081 -65.30364 
L 364.560421 -65.30364 
L 363.274762 -65.30364 
L 361.989102 -65.30364 
L 360.703443 -65.30364 
L 359.417784 -65.30364 
L 358.132124 -65.30364 
L 356.846465 -65.30364 
L 355.560805 -65.30364 
L 354.275146 -65.30364 
L 352.989486 -65.30364 
L 351.703827 -65.30364 
L 350.418167 -65.30364 
L 349.132508 -65.30364 
L 347.846848 -65.30364 
L 346.561189 -65.30364 
L 345.275529 -65.30364 
L 343.98987 -65.30364 
L 342.704211 -65.30364 
L 341.418551 -65.30364 
L 340.132892 -65.30364 
L 338.847232 -65.30364 
L 337.561573 -65.30364 
L 336.275913 -65.30364 
L 334.990254 -65.30364 
L 333.704594 -65.30364 
L 332.418935 -65.30364 
L 331.133275 -65.30364 
L 329.847616 -65.30364 
L 328.561956 -65.30364 
L 327.276297 -65.30364 
L 325.990638 -65.30364 
L 324.704978 -65.30364 
L 323.419319 -65.30364 
L 322.133659 -65.30364 
L 320.848 -65.30364 
L 319.56234 -65.30364 
L 318.276681 -65.30364 
L 316.991021 -65.30364 
L 315.705362 -65.30364 
L 314.419702 -65.30364 
L 313.134043 -65.30364 
L 311.848383 -65.30364 
L 310.562724 -65.30364 
L 309.277065 -65.30364 
L 307.991405 -65.30364 
L 306.705746 -65.30364 
L 305.420086 -65.30364 
L 304.134427 -65.30364 
L 302.848767 -65.30364 
L 301.563108 -65.30364 
L 300.277448 -65.30364 
L 298.991789 -65.30364 
L 297.706129 -65.30364 
L 296.42047 -65.30364 
L 295.13481 -65.30364 
L 293.849151 -65.30364 
L 292.563492 -65.30364 
L 291.277832 -65.30364 
L 289.992173 -65.30364 
L 288.706513 -65.30364 
L 287.420854 -65.30364 
L 286.135194 -65.30364 
L 284.849535 -65.30364 
L 283.563875 -65.30364 
L 282.278216 -65.30364 
L 280.992556 -65.30364 
L 279.706897 -65.30364 
L 278.421237 -65.30364 
L 277.135578 -65.30364 
L 275.849919 -65.30364 
L 274.564259 -65.30364 
L 273.2786 -65.30364 
L 271.99294 -65.30364 
L 270.707281 -65.30364 
L 269.421621 -65.30364 
L 268.135962 -65.30364 
L 266.850302 -65.30364 
L 265.564643 -65.30364 
L 264.278983 -65.30364 
L 262.993324 -65.30364 
L 261.707664 -65.30364 
L 260.422005 -65.30364 
L 259.136346 -65.30364 
L 257.850686 -65.30364 
L 256.565027 -65.30364 
L 255.279367 -65.30364 
L 253.993708 -65.30364 
L 252.708048 -65.30364 
L 251.422389 -65.30364 
L 250.136729 -65.30364 
L 248.85107 -65.30364 
z
" style="stroke: #999999; stroke-opacity: 0.08"/>
    </defs>
    <g clip-path="url(#p7b690eb154)">
     <use xlink:href="#m78eb121621" x="0" y="281.21" style="fill: #999999; fill-opacity: 0.08; stroke: #999999; stroke-opacity: 0.08"/>
    </g>
   </g>
   <g id="matplotlib.axis_1">
    <g id="xtick_1">
     <g id="line2d_1">
      <path d="M 45.716875 241.718125 
L 45.716875 22.318125 
" clip-path="url(#p7b690eb154)" style="fill: none; stroke-dasharray: 2.96,1.28; stroke-dashoffset: 0; stroke: #b0b0b0; stroke-opacity: 0.3; stroke-width: 0.8"/>
     </g>
     <g id="line2d_2">
      <defs>
       <path id="m8b4f806fef" d="M 0 0 
L 0 3.5 
" style="stroke: #000000; stroke-width: 0.8"/>
      </defs>
      <g>
       <use xlink:href="#m8b4f806fef" x="45.716875" y="241.718125" style="stroke: #000000; stroke-width: 0.8"/>
      </g>
     </g>
     <g id="text_1">
      <!-- −4 -->
      <g transform="translate(38.345781 256.316562) scale(0.1 -0.1)">
       <defs>
        <path id="DejaVuSans-2212" d="M 678 2272 
L 4684 2272 
L 4684 1741 
L 678 1741 
L 678 2272 
z
" transform="scale(0.015625)"/>
        <path id="DejaVuSans-34" d="M 2419 4116 
L 825 1625 
L 2419 1625 
L 2419 4116 
z
M 2253 4666 
L 3047 4666 
L 3047 1625 
L 3713 1625 
L 3713 1100 
L 3047 1100 
L 3047 0 
L 2419 0 
L 2419 1100 
L 313 1100 
L 313 1709 
L 2253 4666 
z
" transform="scale(0.015625)"/>
       </defs>
       <use xlink:href="#DejaVuSans-2212"/>
       <use xlink:href="#DejaVuSans-34" transform="translate(83.789062 0)"/>
      </g>
     </g>
    </g>
    <g id="xtick_2">
     <g id="line2d_3">
      <path d="M 109.839141 241.718125 
L 109.839141 22.318125 
" clip-path="url(#p7b690eb154)" style="fill: none; stroke-dasharray: 2.96,1.28; stroke-dashoffset: 0; stroke: #b0b0b0; stroke-opacity: 0.3; stroke-width: 0.8"/>
     </g>
     <g id="line2d_4">
      <g>
       <use xlink:href="#m8b4f806fef" x="109.839141" y="241.718125" style="stroke: #000000; stroke-width: 0.8"/>
      </g>
     </g>
     <g id="text_2">
      <!-- −3 -->
      <g transform="translate(102.468047 256.316562) scale(0.1 -0.1)">
       <defs>
        <path id="DejaVuSans-33" d="M 2597 2516 
Q 3050 2419 3304 2112 
Q 3559 1806 3559 1356 
Q 3559 666 3084 287 
Q 2609 -91 1734 -91 
Q 1441 -91 1130 -33 
Q 819 25 488 141 
L 488 750 
Q 750 597 1062 519 
Q 1375 441 1716 441 
Q 2309 441 2620 675 
Q 2931 909 2931 1356 
Q 2931 1769 2642 2001 
Q 2353 2234 1838 2234 
L 1294 2234 
L 1294 2753 
L 1863 2753 
Q 2328 2753 2575 2939 
Q 2822 3125 2822 3475 
Q 2822 3834 2567 4026 
Q 2313 4219 1838 4219 
Q 1578 4219 1281 4162 
Q 984 4106 628 3988 
L 628 4550 
Q 988 4650 1302 4700 
Q 1616 4750 1894 4750 
Q 2613 4750 3031 4423 
Q 3450 4097 3450 3541 
Q 3450 3153 3228 2886 
Q 3006 2619 2597 2516 
z
" transform="scale(0.015625)"/>
       </defs>
       <use xlink:href="#DejaVuSans-2212"/>
       <use xlink:href="#DejaVuSans-33" transform="translate(83.789062 0)"/>
      </g>
     </g>
    </g>
    <g id="xtick_3">
     <g id="line2d_5">
      <path d="M 173.961406 241.718125 
L 173.961406 22.318125 
" clip-path="url(#p7b690eb154)" style="fill: none; stroke-dasharray: 2.96,1.28; stroke-dashoffset: 0; stroke: #b0b0b0; stroke-opacity: 0.3; stroke-width: 0.8"/>
     </g>
     <g id="line2d_6">
      <g>
       <use xlink:href="#m8b4f806fef" x="173.961406" y="241.718125" style="stroke: #000000; stroke-width: 0.8"/>
      </g>
     </g>
     <g id="text_3">
      <!-- −2 -->
      <g transform="translate(166.590313 256.316562) scale(0.1 -0.1)">
       <defs>
        <path id="DejaVuSans-32" d="M 1228 531 
L 3431 531 
L 3431 0 
L 469 0 
L 469 531 
Q 828 903 1448 1529 
Q 2069 2156 2228 2338 
Q 2531 2678 2651 2914 
Q 2772 3150 2772 3378 
Q 2772 3750 2511 3984 
Q 2250 4219 1831 4219 
Q 1534 4219 1204 4116 
Q 875 4013 500 3803 
L 500 4441 
Q 881 4594 1212 4672 
Q 1544 4750 1819 4750 
Q 2544 4750 2975 4387 
Q 3406 4025 3406 3419 
Q 3406 3131 3298 2873 
Q 3191 2616 2906 2266 
Q 2828 2175 2409 1742 
Q 1991 1309 1228 531 
z
" transform="scale(0.015625)"/>
       </defs>
       <use xlink:href="#DejaVuSans-2212"/>
       <use xlink:href="#DejaVuSans-32" transform="translate(83.789062 0)"/>
      </g>
     </g>
    </g>
    <g id="xtick_4">
     <g id="line2d_7">
      <path d="M 238.083672 241.718125 
L 238.083672 22.318125 
" clip-path="url(#p7b690eb154)" style="fill: none; stroke-dasharray: 2.96,1.28; stroke-dashoffset: 0; stroke: #b0b0b0; stroke-opacity: 0.3; stroke-width: 0.8"/>
     </g>
     <g id="line2d_8">
      <g>
       <use xlink:href="#m8b4f806fef" x="238.083672" y="241.718125" style="stroke: #000000; stroke-width: 0.8"/>
      </g>
     </g>
     <g id="text_4">
      <!-- −1 -->
      <g transform="translate(230.712578 256.316562) scale(0.1 -0.1)">
       <defs>
        <path id="DejaVuSans-31" d="M 794 531 
L 1825 531 
L 1825 4091 
L 703 3866 
L 703 4441 
L 1819 4666 
L 2450 4666 
L 2450 531 
L 3481 531 
L 3481 0 
L 794 0 
L 794 531 
z
" transform="scale(0.015625)"/>
       </defs>
       <use xlink:href="#DejaVuSans-2212"/>
       <use xlink:href="#DejaVuSans-31" transform="translate(83.789062 0)"/>
      </g>
     </g>
    </g>
    <g id="xtick_5">
     <g id="line2d_9">
      <path d="M 302.205938 241.718125 
L 302.205938 22.318125 
" clip-path="url(#p7b690eb154)" style="fill: none; stroke-dasharray: 2.96,1.28; stroke-dashoffset: 0; stroke: #b0b0b0; stroke-opacity: 0.3; stroke-width: 0.8"/>
     </g>
     <g id="line2d_10">
      <g>
       <use xlink:href="#m8b4f806fef" x="302.205938" y="241.718125" style="stroke: #000000; stroke-width: 0.8"/>
      </g>
     </g>
     <g id="text_5">
      <!-- 0 -->
      <g transform="translate(299.024688 256.316562) scale(0.1 -0.1)">
       <defs>
        <path id="DejaVuSans-30" d="M 2034 4250 
Q 1547 4250 1301 3770 
Q 1056 3291 1056 2328 
Q 1056 1369 1301 889 
Q 1547 409 2034 409 
Q 2525 409 2770 889 
Q 3016 1369 3016 2328 
Q 3016 3291 2770 3770 
Q 2525 4250 2034 4250 
z
M 2034 4750 
Q 2819 4750 3233 4129 
Q 3647 3509 3647 2328 
Q 3647 1150 3233 529 
Q 2819 -91 2034 -91 
Q 1250 -91 836 529 
Q 422 1150 422 2328 
Q 422 3509 836 4129 
Q 1250 4750 2034 4750 
z
" transform="scale(0.015625)"/>
       </defs>
       <use xlink:href="#DejaVuSans-30"/>
      </g>
     </g>
    </g>
    <g id="xtick_6">
     <g id="line2d_11">
      <path d="M 366.328203 241.718125 
L 366.328203 22.318125 
" clip-path="url(#p7b690eb154)" style="fill: none; stroke-dasharray: 2.96,1.28; stroke-dashoffset: 0; stroke: #b0b0b0; stroke-opacity: 0.3; stroke-width: 0.8"/>
     </g>
     <g id="line2d_12">
      <g>
       <use xlink:href="#m8b4f806fef" x="366.328203" y="241.718125" style="stroke: #000000; stroke-width: 0.8"/>
      </g>
     </g>
     <g id="text_6">
      <!-- 1 -->
      <g transform="translate(363.146953 256.316562) scale(0.1 -0.1)">
       <use xlink:href="#DejaVuSans-31"/>
      </g>
     </g>
    </g>
    <g id="xtick_7">
     <g id="line2d_13">
      <path d="M 430.450469 241.718125 
L 430.450469 22.318125 
" clip-path="url(#p7b690eb154)" style="fill: none; stroke-dasharray: 2.96,1.28; stroke-dashoffset: 0; stroke: #b0b0b0; stroke-opacity: 0.3; stroke-width: 0.8"/>
     </g>
     <g id="line2d_14">
      <g>
       <use xlink:href="#m8b4f806fef" x="430.450469" y="241.718125" style="stroke: #000000; stroke-width: 0.8"/>
      </g>
     </g>
     <g id="text_7">
      <!-- 2 -->
      <g transform="translate(427.269219 256.316562) scale(0.1 -0.1)">
       <use xlink:href="#DejaVuSans-32"/>
      </g>
     </g>
    </g>
    <g id="xtick_8">
     <g id="line2d_15">
      <path d="M 494.572734 241.718125 
L 494.572734 22.318125 
" clip-path="url(#p7b690eb154)" style="fill: none; stroke-dasharray: 2.96,1.28; stroke-dashoffset: 0; stroke: #b0b0b0; stroke-opacity: 0.3; stroke-width: 0.8"/>
     </g>
     <g id="line2d_16">
      <g>
       <use xlink:href="#m8b4f806fef" x="494.572734" y="241.718125" style="stroke: #000000; stroke-width: 0.8"/>
      </g>
     </g>
     <g id="text_8">
      <!-- 3 -->
      <g transform="translate(491.391484 256.316562) scale(0.1 -0.1)">
       <use xlink:href="#DejaVuSans-33"/>
      </g>
     </g>
    </g>
    <g id="xtick_9">
     <g id="line2d_17">
      <path d="M 558.695 241.718125 
L 558.695 22.318125 
" clip-path="url(#p7b690eb154)" style="fill: none; stroke-dasharray: 2.96,1.28; stroke-dashoffset: 0; stroke: #b0b0b0; stroke-opacity: 0.3; stroke-width: 0.8"/>
     </g>
     <g id="line2d_18">
      <g>
       <use xlink:href="#m8b4f806fef" x="558.695" y="241.718125" style="stroke: #000000; stroke-width: 0.8"/>
      </g>
     </g>
     <g id="text_9">
      <!-- 4 -->
      <g transform="translate(555.51375 256.316562) scale(0.1 -0.1)">
       <use xlink:href="#DejaVuSans-34"/>
      </g>
     </g>
    </g>
    <g id="text_10">
     <!-- x -->
     <g transform="translate(298.654688 271.514375) scale(0.12 -0.12)">
      <defs>
       <path id="DejaVuSans-78" d="M 3513 3500 
L 2247 1797 
L 3578 0 
L 2900 0 
L 1881 1375 
L 863 0 
L 184 0 
L 1544 1831 
L 300 3500 
L 978 3500 
L 1906 2253 
L 2834 3500 
L 3513 3500 
z
" transform="scale(0.015625)"/>
      </defs>
      <use xlink:href="#DejaVuSans-78"/>
     </g>
    </g>
   </g>
   <g id="matplotlib.axis_2">
    <g id="ytick_1">
     <g id="line2d_19">
      <path d="M 45.716875 215.90636 
L 558.695 215.90636 
" clip-path="url(#p7b690eb154)" style="fill: none; stroke-dasharray: 2.96,1.28; stroke-dashoffset: 0; stroke: #b0b0b0; stroke-opacity: 0.3; stroke-width: 0.8"/>
     </g>
     <g id="line2d_20">
      <defs>
       <path id="m8c47d363a7" d="M 0 0 
L -3.5 0 
" style="stroke: #000000; stroke-width: 0.8"/>
      </defs>
      <g>
       <use xlink:href="#m8c47d363a7" x="45.716875" y="215.90636" style="stroke: #000000; stroke-width: 0.8"/>
      </g>
     </g>
     <g id="text_11">
      <!-- 0.0 -->
      <g transform="translate(22.81375 219.705579) scale(0.1 -0.1)">
       <defs>
        <path id="DejaVuSans-2e" d="M 684 794 
L 1344 794 
L 1344 0 
L 684 0 
L 684 794 
z
" transform="scale(0.015625)"/>
       </defs>
       <use xlink:href="#DejaVuSans-30"/>
       <use xlink:href="#DejaVuSans-2e" transform="translate(63.623047 0)"/>
       <use xlink:href="#DejaVuSans-30" transform="translate(95.410156 0)"/>
      </g>
     </g>
    </g>
    <g id="ytick_2">
     <g id="line2d_21">
      <path d="M 45.716875 172.886752 
L 558.695 172.886752 
" clip-path="url(#p7b690eb154)" style="fill: none; stroke-dasharray: 2.96,1.28; stroke-dashoffset: 0; stroke: #b0b0b0; stroke-opacity: 0.3; stroke-width: 0.8"/>
     </g>
     <g id="line2d_22">
      <g>
       <use xlink:href="#m8c47d363a7" x="45.716875" y="172.886752" style="stroke: #000000; stroke-width: 0.8"/>
      </g>
     </g>
     <g id="text_12">
      <!-- 0.1 -->
      <g transform="translate(22.81375 176.685971) scale(0.1 -0.1)">
       <use xlink:href="#DejaVuSans-30"/>
       <use xlink:href="#DejaVuSans-2e" transform="translate(63.623047 0)"/>
       <use xlink:href="#DejaVuSans-31" transform="translate(95.410156 0)"/>
      </g>
     </g>
    </g>
    <g id="ytick_3">
     <g id="line2d_23">
      <path d="M 45.716875 129.867145 
L 558.695 129.867145 
" clip-path="url(#p7b690eb154)" style="fill: none; stroke-dasharray: 2.96,1.28; stroke-dashoffset: 0; stroke: #b0b0b0; stroke-opacity: 0.3; stroke-width: 0.8"/>
     </g>
     <g id="line2d_24">
      <g>
       <use xlink:href="#m8c47d363a7" x="45.716875" y="129.867145" style="stroke: #000000; stroke-width: 0.8"/>
      </g>
     </g>
     <g id="text_13">
      <!-- 0.2 -->
      <g transform="translate(22.81375 133.666363) scale(0.1 -0.1)">
       <use xlink:href="#DejaVuSans-30"/>
       <use xlink:href="#DejaVuSans-2e" transform="translate(63.623047 0)"/>
       <use xlink:href="#DejaVuSans-32" transform="translate(95.410156 0)"/>
      </g>
     </g>
    </g>
    <g id="ytick_4">
     <g id="line2d_25">
      <path d="M 45.716875 86.847537 
L 558.695 86.847537 
" clip-path="url(#p7b690eb154)" style="fill: none; stroke-dasharray: 2.96,1.28; stroke-dashoffset: 0; stroke: #b0b0b0; stroke-opacity: 0.3; stroke-width: 0.8"/>
     </g>
     <g id="line2d_26">
      <g>
       <use xlink:href="#m8c47d363a7" x="45.716875" y="86.847537" style="stroke: #000000; stroke-width: 0.8"/>
      </g>
     </g>
     <g id="text_14">
      <!-- 0.3 -->
      <g transform="translate(22.81375 90.646756) scale(0.1 -0.1)">
       <use xlink:href="#DejaVuSans-30"/>
       <use xlink:href="#DejaVuSans-2e" transform="translate(63.623047 0)"/>
       <use xlink:href="#DejaVuSans-33" transform="translate(95.410156 0)"/>
      </g>
     </g>
    </g>
    <g id="ytick_5">
     <g id="line2d_27">
      <path d="M 45.716875 43.827929 
L 558.695 43.827929 
" clip-path="url(#p7b690eb154)" style="fill: none; stroke-dasharray: 2.96,1.28; stroke-dashoffset: 0; stroke: #b0b0b0; stroke-opacity: 0.3; stroke-width: 0.8"/>
     </g>
     <g id="line2d_28">
      <g>
       <use xlink:href="#m8c47d363a7" x="45.716875" y="43.827929" style="stroke: #000000; stroke-width: 0.8"/>
      </g>
     </g>
     <g id="text_15">
      <!-- 0.4 -->
      <g transform="translate(22.81375 47.627148) scale(0.1 -0.1)">
       <use xlink:href="#DejaVuSans-30"/>
       <use xlink:href="#DejaVuSans-2e" transform="translate(63.623047 0)"/>
       <use xlink:href="#DejaVuSans-34" transform="translate(95.410156 0)"/>
      </g>
     </g>
    </g>
    <g id="text_16">
     <!-- f(x) -->
     <g transform="translate(16.318125 142.363438) rotate(-90) scale(0.12 -0.12)">
      <defs>
       <path id="DejaVuSans-66" d="M 2375 4863 
L 2375 4384 
L 1825 4384 
Q 1516 4384 1395 4259 
Q 1275 4134 1275 3809 
L 1275 3500 
L 2222 3500 
L 2222 3053 
L 1275 3053 
L 1275 0 
L 697 0 
L 697 3053 
L 147 3053 
L 147 3500 
L 697 3500 
L 697 3744 
Q 697 4328 969 4595 
Q 1241 4863 1831 4863 
L 2375 4863 
z
" transform="scale(0.015625)"/>
       <path id="DejaVuSans-28" d="M 1984 4856 
Q 1566 4138 1362 3434 
Q 1159 2731 1159 2009 
Q 1159 1288 1364 580 
Q 1569 -128 1984 -844 
L 1484 -844 
Q 1016 -109 783 600 
Q 550 1309 550 2009 
Q 550 2706 781 3412 
Q 1013 4119 1484 4856 
L 1984 4856 
z
" transform="scale(0.015625)"/>
       <path id="DejaVuSans-29" d="M 513 4856 
L 1013 4856 
Q 1481 4119 1714 3412 
Q 1947 2706 1947 2009 
Q 1947 1309 1714 600 
Q 1481 -109 1013 -844 
L 513 -844 
Q 928 -128 1133 580 
Q 1338 1288 1338 2009 
Q 1338 2731 1133 3434 
Q 928 4138 513 4856 
z
" transform="scale(0.015625)"/>
      </defs>
      <use xlink:href="#DejaVuSans-66"/>
      <use xlink:href="#DejaVuSans-28" transform="translate(35.205078 0)"/>
      <use xlink:href="#DejaVuSans-78" transform="translate(74.21875 0)"/>
      <use xlink:href="#DejaVuSans-29" transform="translate(133.398438 0)"/>
     </g>
    </g>
   </g>
   <g id="line2d_29">
    <path d="M 45.716875 215.848787 
L 71.430064 215.642171 
L 86.857978 215.296246 
L 98.428913 214.806002 
L 107.428529 214.204343 
L 115.142486 213.471224 
L 121.570783 212.660313 
L 127.999081 211.622634 
L 133.141718 210.596873 
L 138.284356 209.367681 
L 143.426994 207.905549 
L 148.569632 206.179233 
L 153.71227 204.156256 
L 157.569248 202.424451 
L 161.426227 200.493269 
L 165.283205 198.349098 
L 169.140183 195.978874 
L 172.997162 193.370354 
L 176.85414 190.512421 
L 180.711118 187.395396 
L 184.568097 184.011374 
L 188.425075 180.354558 
L 192.282054 176.421599 
L 196.139032 172.211927 
L 199.99601 167.728069 
L 203.852989 162.975936 
L 208.995627 156.239513 
L 214.138264 149.07699 
L 219.280902 141.534573 
L 225.7092 131.663906 
L 233.423156 119.364225 
L 250.136729 92.484759 
L 255.279367 84.602352 
L 260.422005 77.112149 
L 264.278983 71.82487 
L 268.135962 66.876353 
L 271.99294 62.31459 
L 275.849919 58.184873 
L 278.421237 55.692583 
L 280.992556 53.4224 
L 283.563875 51.384817 
L 286.135194 49.58934 
L 288.706513 48.044412 
L 291.277832 46.75735 
L 293.849151 45.734281 
L 296.42047 44.980099 
L 298.991789 44.498426 
L 301.563108 44.29158 
L 304.134427 44.360556 
L 306.705746 44.705024 
L 309.277065 45.323322 
L 311.848383 46.212481 
L 314.419702 47.368236 
L 316.991021 48.785073 
L 319.56234 50.456261 
L 322.133659 52.373915 
L 324.704978 54.52905 
L 327.276297 56.911657 
L 329.847616 59.510778 
L 333.704594 63.789345 
L 337.561573 68.485208 
L 341.418551 73.552089 
L 345.275529 78.941268 
L 350.418167 86.540951 
L 356.846465 96.534975 
L 365.846081 111.02885 
L 377.417016 129.641922 
L 383.845313 139.596272 
L 388.987951 147.224908 
L 394.130589 154.487247 
L 399.273227 161.333818 
L 404.415865 167.728069 
L 408.272843 172.211927 
L 412.129821 176.421599 
L 415.9868 180.354558 
L 419.843778 184.011374 
L 423.700757 187.395396 
L 427.557735 190.512421 
L 431.414713 193.370354 
L 435.271692 195.978874 
L 439.12867 198.349098 
L 442.985648 200.493269 
L 446.842627 202.424451 
L 450.699605 204.156256 
L 455.842243 206.179233 
L 460.984881 207.905549 
L 466.127519 209.367681 
L 471.270157 210.596873 
L 476.412794 211.622634 
L 482.841092 212.660313 
L 489.269389 213.471224 
L 496.983346 214.204343 
L 505.982962 214.806002 
L 516.268238 215.25388 
L 529.124832 215.578909 
L 547.124065 215.78978 
L 558.695 215.848787 
L 558.695 215.848787 
" clip-path="url(#p7b690eb154)" style="fill: none; stroke: #333333; stroke-width: 2.5; stroke-linecap: square"/>
   </g>
   <g id="line2d_30">
    <path d="M 248.239277 241.718125 
L 248.239277 22.318125 
" clip-path="url(#p7b690eb154)" style="fill: none; stroke-dasharray: 7.4,3.2; stroke-dashoffset: 0; stroke: #cc0000; stroke-width: 2"/>
   </g>
   <g id="patch_3">
    <path d="M 45.716875 241.718125 
L 45.716875 22.318125 
" style="fill: none; stroke: #000000; stroke-width: 0.8; stroke-linejoin: miter; stroke-linecap: square"/>
   </g>
   <g id="patch_4">
    <path d="M 558.695 241.718125 
L 558.695 22.318125 
" style="fill: none; stroke: #000000; stroke-width: 0.8; stroke-linejoin: miter; stroke-linecap: square"/>
   </g>
   <g id="patch_5">
    <path d="M 45.716875 241.718125 
L 558.695 241.718125 
" style="fill: none; stroke: #000000; stroke-width: 0.8; stroke-linejoin: miter; stroke-linecap: square"/>
   </g>
   <g id="patch_6">
    <path d="M 45.716875 22.318125 
L 558.695 22.318125 
" style="fill: none; stroke: #000000; stroke-width: 0.8; stroke-linejoin: miter; stroke-linecap: square"/>
   </g>
   <g id="text_17">
    <!-- $q(0.20) = -0.84$ -->
    <g style="fill: #cc0000" transform="translate(205.009277 228.812243) scale(0.11 -0.11)">
     <defs>
      <path id="DejaVuSans-Oblique-71" d="M 2669 525 
Q 2438 222 2123 65 
Q 1809 -91 1428 -91 
Q 897 -91 595 267 
Q 294 625 294 1253 
Q 294 1759 480 2231 
Q 666 2703 1013 3078 
Q 1238 3322 1530 3453 
Q 1822 3584 2144 3584 
Q 2531 3584 2781 3431 
Q 3031 3278 3144 2969 
L 3244 3494 
L 3822 3494 
L 2888 -1319 
L 2309 -1319 
L 2669 525 
z
M 891 1338 
Q 891 875 1084 633 
Q 1278 391 1644 391 
Q 2188 391 2572 911 
Q 2956 1431 2956 2175 
Q 2956 2625 2757 2864 
Q 2559 3103 2188 3103 
Q 1916 3103 1684 2976 
Q 1453 2850 1281 2606 
Q 1100 2350 995 2006 
Q 891 1663 891 1338 
z
" transform="scale(0.015625)"/>
      <path id="DejaVuSans-3d" d="M 678 2906 
L 4684 2906 
L 4684 2381 
L 678 2381 
L 678 2906 
z
M 678 1631 
L 4684 1631 
L 4684 1100 
L 678 1100 
L 678 1631 
z
" transform="scale(0.015625)"/>
      <path id="DejaVuSans-38" d="M 2034 2216 
Q 1584 2216 1326 1975 
Q 1069 1734 1069 1313 
Q 1069 891 1326 650 
Q 1584 409 2034 409 
Q 2484 409 2743 651 
Q 3003 894 3003 1313 
Q 3003 1734 2745 1975 
Q 2488 2216 2034 2216 
z
M 1403 2484 
Q 997 2584 770 2862 
Q 544 3141 544 3541 
Q 544 4100 942 4425 
Q 1341 4750 2034 4750 
Q 2731 4750 3128 4425 
Q 3525 4100 3525 3541 
Q 3525 3141 3298 2862 
Q 3072 2584 2669 2484 
Q 3125 2378 3379 2068 
Q 3634 1759 3634 1313 
Q 3634 634 3220 271 
Q 2806 -91 2034 -91 
Q 1263 -91 848 271 
Q 434 634 434 1313 
Q 434 1759 690 2068 
Q 947 2378 1403 2484 
z
M 1172 3481 
Q 1172 3119 1398 2916 
Q 1625 2713 2034 2713 
Q 2441 2713 2670 2916 
Q 2900 3119 2900 3481 
Q 2900 3844 2670 4047 
Q 2441 4250 2034 4250 
Q 1625 4250 1398 4047 
Q 1172 3844 1172 3481 
z
" transform="scale(0.015625)"/>
     </defs>
     <use xlink:href="#DejaVuSans-Oblique-71" transform="translate(0 0.125)"/>
     <use xlink:href="#DejaVuSans-28" transform="translate(63.476562 0.125)"/>
     <use xlink:href="#DejaVuSans-30" transform="translate(102.490234 0.125)"/>
     <use xlink:href="#DejaVuSans-2e" transform="translate(166.113281 0.125)"/>
     <use xlink:href="#DejaVuSans-32" transform="translate(192.400391 0.125)"/>
     <use xlink:href="#DejaVuSans-30" transform="translate(256.023438 0.125)"/>
     <use xlink:href="#DejaVuSans-29" transform="translate(319.646484 0.125)"/>
     <use xlink:href="#DejaVuSans-3d" transform="translate(378.142578 0.125)"/>
     <use xlink:href="#DejaVuSans-2212" transform="translate(481.414062 0.125)"/>
     <use xlink:href="#DejaVuSans-30" transform="translate(565.203125 0.125)"/>
     <use xlink:href="#DejaVuSans-2e" transform="translate(628.826172 0.125)"/>
     <use xlink:href="#DejaVuSans-38" transform="translate(657.988281 0.125)"/>
     <use xlink:href="#DejaVuSans-34" transform="translate(721.611328 0.125)"/>
    </g>
   </g>
   <g id="text_18">
    <!-- 20% -->
    <g style="fill: #4682b4" transform="translate(170.030703 172.886752) scale(0.14 -0.14)">
     <defs>
      <path id="DejaVuSans-Bold-32" d="M 1844 884 
L 3897 884 
L 3897 0 
L 506 0 
L 506 884 
L 2209 2388 
Q 2438 2594 2547 2791 
Q 2656 2988 2656 3200 
Q 2656 3528 2436 3728 
Q 2216 3928 1850 3928 
Q 1569 3928 1234 3808 
Q 900 3688 519 3450 
L 519 4475 
Q 925 4609 1322 4679 
Q 1719 4750 2100 4750 
Q 2938 4750 3402 4381 
Q 3866 4013 3866 3353 
Q 3866 2972 3669 2642 
Q 3472 2313 2841 1759 
L 1844 884 
z
" transform="scale(0.015625)"/>
      <path id="DejaVuSans-Bold-30" d="M 2944 2338 
Q 2944 3213 2780 3570 
Q 2616 3928 2228 3928 
Q 1841 3928 1675 3570 
Q 1509 3213 1509 2338 
Q 1509 1453 1675 1090 
Q 1841 728 2228 728 
Q 2613 728 2778 1090 
Q 2944 1453 2944 2338 
z
M 4147 2328 
Q 4147 1169 3647 539 
Q 3147 -91 2228 -91 
Q 1306 -91 806 539 
Q 306 1169 306 2328 
Q 306 3491 806 4120 
Q 1306 4750 2228 4750 
Q 3147 4750 3647 4120 
Q 4147 3491 4147 2328 
z
" transform="scale(0.015625)"/>
      <path id="DejaVuSans-Bold-25" d="M 4959 1925 
Q 4738 1925 4616 1733 
Q 4494 1541 4494 1184 
Q 4494 825 4614 633 
Q 4734 441 4959 441 
Q 5184 441 5303 633 
Q 5422 825 5422 1184 
Q 5422 1541 5301 1733 
Q 5181 1925 4959 1925 
z
M 4959 2450 
Q 5541 2450 5875 2112 
Q 6209 1775 6209 1184 
Q 6209 594 5875 251 
Q 5541 -91 4959 -91 
Q 4378 -91 4042 251 
Q 3706 594 3706 1184 
Q 3706 1772 4042 2111 
Q 4378 2450 4959 2450 
z
M 2094 -91 
L 1403 -91 
L 4319 4750 
L 5013 4750 
L 2094 -91 
z
M 1453 4750 
Q 2034 4750 2367 4411 
Q 2700 4072 2700 3481 
Q 2700 2891 2367 2550 
Q 2034 2209 1453 2209 
Q 872 2209 539 2550 
Q 206 2891 206 3481 
Q 206 4072 539 4411 
Q 872 4750 1453 4750 
z
M 1453 4225 
Q 1228 4225 1106 4031 
Q 984 3838 984 3481 
Q 984 3122 1106 2926 
Q 1228 2731 1453 2731 
Q 1678 2731 1798 2926 
Q 1919 3122 1919 3481 
Q 1919 3838 1797 4031 
Q 1675 4225 1453 4225 
z
" transform="scale(0.015625)"/>
     </defs>
     <use xlink:href="#DejaVuSans-Bold-32"/>
     <use xlink:href="#DejaVuSans-Bold-30" transform="translate(69.580078 0)"/>
     <use xlink:href="#DejaVuSans-Bold-25" transform="translate(139.160156 0)"/>
    </g>
   </g>
   <g id="text_19">
    <!-- 80% -->
    <g style="fill: #808080" transform="translate(349.573047 172.886752) scale(0.14 -0.14)">
     <defs>
      <path id="DejaVuSans-Bold-38" d="M 2228 2088 
Q 1891 2088 1709 1903 
Q 1528 1719 1528 1375 
Q 1528 1031 1709 848 
Q 1891 666 2228 666 
Q 2563 666 2741 848 
Q 2919 1031 2919 1375 
Q 2919 1722 2741 1905 
Q 2563 2088 2228 2088 
z
M 1350 2484 
Q 925 2613 709 2878 
Q 494 3144 494 3541 
Q 494 4131 934 4440 
Q 1375 4750 2228 4750 
Q 3075 4750 3515 4442 
Q 3956 4134 3956 3541 
Q 3956 3144 3739 2878 
Q 3522 2613 3097 2484 
Q 3572 2353 3814 2058 
Q 4056 1763 4056 1313 
Q 4056 619 3595 264 
Q 3134 -91 2228 -91 
Q 1319 -91 855 264 
Q 391 619 391 1313 
Q 391 1763 633 2058 
Q 875 2353 1350 2484 
z
M 1631 3419 
Q 1631 3141 1786 2991 
Q 1941 2841 2228 2841 
Q 2509 2841 2662 2991 
Q 2816 3141 2816 3419 
Q 2816 3697 2662 3845 
Q 2509 3994 2228 3994 
Q 1941 3994 1786 3844 
Q 1631 3694 1631 3419 
z
" transform="scale(0.015625)"/>
     </defs>
     <use xlink:href="#DejaVuSans-Bold-38"/>
     <use xlink:href="#DejaVuSans-Bold-30" transform="translate(69.580078 0)"/>
     <use xlink:href="#DejaVuSans-Bold-25" transform="translate(139.160156 0)"/>
    </g>
   </g>
   <g id="text_20">
    <!-- 20% quantile of a normal distribution -->
    <g style="fill: #808080" transform="translate(190.191563 16.318125) scale(0.12 -0.12)">
     <defs>
      <path id="DejaVuSans-25" d="M 4653 2053 
Q 4381 2053 4226 1822 
Q 4072 1591 4072 1178 
Q 4072 772 4226 539 
Q 4381 306 4653 306 
Q 4919 306 5073 539 
Q 5228 772 5228 1178 
Q 5228 1588 5073 1820 
Q 4919 2053 4653 2053 
z
M 4653 2450 
Q 5147 2450 5437 2106 
Q 5728 1763 5728 1178 
Q 5728 594 5436 251 
Q 5144 -91 4653 -91 
Q 4153 -91 3862 251 
Q 3572 594 3572 1178 
Q 3572 1766 3864 2108 
Q 4156 2450 4653 2450 
z
M 1428 4353 
Q 1159 4353 1004 4120 
Q 850 3888 850 3481 
Q 850 3069 1003 2837 
Q 1156 2606 1428 2606 
Q 1700 2606 1854 2837 
Q 2009 3069 2009 3481 
Q 2009 3884 1853 4118 
Q 1697 4353 1428 4353 
z
M 4250 4750 
L 4750 4750 
L 1831 -91 
L 1331 -91 
L 4250 4750 
z
M 1428 4750 
Q 1922 4750 2215 4408 
Q 2509 4066 2509 3481 
Q 2509 2891 2217 2550 
Q 1925 2209 1428 2209 
Q 931 2209 642 2551 
Q 353 2894 353 3481 
Q 353 4063 643 4406 
Q 934 4750 1428 4750 
z
" transform="scale(0.015625)"/>
      <path id="DejaVuSans-20" transform="scale(0.015625)"/>
      <path id="DejaVuSans-71" d="M 947 1747 
Q 947 1113 1208 752 
Q 1469 391 1925 391 
Q 2381 391 2643 752 
Q 2906 1113 2906 1747 
Q 2906 2381 2643 2742 
Q 2381 3103 1925 3103 
Q 1469 3103 1208 2742 
Q 947 2381 947 1747 
z
M 2906 525 
Q 2725 213 2448 61 
Q 2172 -91 1784 -91 
Q 1150 -91 751 415 
Q 353 922 353 1747 
Q 353 2572 751 3078 
Q 1150 3584 1784 3584 
Q 2172 3584 2448 3432 
Q 2725 3281 2906 2969 
L 2906 3500 
L 3481 3500 
L 3481 -1331 
L 2906 -1331 
L 2906 525 
z
" transform="scale(0.015625)"/>
      <path id="DejaVuSans-75" d="M 544 1381 
L 544 3500 
L 1119 3500 
L 1119 1403 
Q 1119 906 1312 657 
Q 1506 409 1894 409 
Q 2359 409 2629 706 
Q 2900 1003 2900 1516 
L 2900 3500 
L 3475 3500 
L 3475 0 
L 2900 0 
L 2900 538 
Q 2691 219 2414 64 
Q 2138 -91 1772 -91 
Q 1169 -91 856 284 
Q 544 659 544 1381 
z
M 1991 3584 
L 1991 3584 
z
" transform="scale(0.015625)"/>
      <path id="DejaVuSans-61" d="M 2194 1759 
Q 1497 1759 1228 1600 
Q 959 1441 959 1056 
Q 959 750 1161 570 
Q 1363 391 1709 391 
Q 2188 391 2477 730 
Q 2766 1069 2766 1631 
L 2766 1759 
L 2194 1759 
z
M 3341 1997 
L 3341 0 
L 2766 0 
L 2766 531 
Q 2569 213 2275 61 
Q 1981 -91 1556 -91 
Q 1019 -91 701 211 
Q 384 513 384 1019 
Q 384 1609 779 1909 
Q 1175 2209 1959 2209 
L 2766 2209 
L 2766 2266 
Q 2766 2663 2505 2880 
Q 2244 3097 1772 3097 
Q 1472 3097 1187 3025 
Q 903 2953 641 2809 
L 641 3341 
Q 956 3463 1253 3523 
Q 1550 3584 1831 3584 
Q 2591 3584 2966 3190 
Q 3341 2797 3341 1997 
z
" transform="scale(0.015625)"/>
      <path id="DejaVuSans-6e" d="M 3513 2113 
L 3513 0 
L 2938 0 
L 2938 2094 
Q 2938 2591 2744 2837 
Q 2550 3084 2163 3084 
Q 1697 3084 1428 2787 
Q 1159 2491 1159 1978 
L 1159 0 
L 581 0 
L 581 3500 
L 1159 3500 
L 1159 2956 
Q 1366 3272 1645 3428 
Q 1925 3584 2291 3584 
Q 2894 3584 3203 3211 
Q 3513 2838 3513 2113 
z
" transform="scale(0.015625)"/>
      <path id="DejaVuSans-74" d="M 1172 4494 
L 1172 3500 
L 2356 3500 
L 2356 3053 
L 1172 3053 
L 1172 1153 
Q 1172 725 1289 603 
Q 1406 481 1766 481 
L 2356 481 
L 2356 0 
L 1766 0 
Q 1100 0 847 248 
Q 594 497 594 1153 
L 594 3053 
L 172 3053 
L 172 3500 
L 594 3500 
L 594 4494 
L 1172 4494 
z
" transform="scale(0.015625)"/>
      <path id="DejaVuSans-69" d="M 603 3500 
L 1178 3500 
L 1178 0 
L 603 0 
L 603 3500 
z
M 603 4863 
L 1178 4863 
L 1178 4134 
L 603 4134 
L 603 4863 
z
" transform="scale(0.015625)"/>
      <path id="DejaVuSans-6c" d="M 603 4863 
L 1178 4863 
L 1178 0 
L 603 0 
L 603 4863 
z
" transform="scale(0.015625)"/>
      <path id="DejaVuSans-65" d="M 3597 1894 
L 3597 1613 
L 953 1613 
Q 991 1019 1311 708 
Q 1631 397 2203 397 
Q 2534 397 2845 478 
Q 3156 559 3463 722 
L 3463 178 
Q 3153 47 2828 -22 
Q 2503 -91 2169 -91 
Q 1331 -91 842 396 
Q 353 884 353 1716 
Q 353 2575 817 3079 
Q 1281 3584 2069 3584 
Q 2775 3584 3186 3129 
Q 3597 2675 3597 1894 
z
M 3022 2063 
Q 3016 2534 2758 2815 
Q 2500 3097 2075 3097 
Q 1594 3097 1305 2825 
Q 1016 2553 972 2059 
L 3022 2063 
z
" transform="scale(0.015625)"/>
      <path id="DejaVuSans-6f" d="M 1959 3097 
Q 1497 3097 1228 2736 
Q 959 2375 959 1747 
Q 959 1119 1226 758 
Q 1494 397 1959 397 
Q 2419 397 2687 759 
Q 2956 1122 2956 1747 
Q 2956 2369 2687 2733 
Q 2419 3097 1959 3097 
z
M 1959 3584 
Q 2709 3584 3137 3096 
Q 3566 2609 3566 1747 
Q 3566 888 3137 398 
Q 2709 -91 1959 -91 
Q 1206 -91 779 398 
Q 353 888 353 1747 
Q 353 2609 779 3096 
Q 1206 3584 1959 3584 
z
" transform="scale(0.015625)"/>
      <path id="DejaVuSans-72" d="M 2631 2963 
Q 2534 3019 2420 3045 
Q 2306 3072 2169 3072 
Q 1681 3072 1420 2755 
Q 1159 2438 1159 1844 
L 1159 0 
L 581 0 
L 581 3500 
L 1159 3500 
L 1159 2956 
Q 1341 3275 1631 3429 
Q 1922 3584 2338 3584 
Q 2397 3584 2469 3576 
Q 2541 3569 2628 3553 
L 2631 2963 
z
" transform="scale(0.015625)"/>
      <path id="DejaVuSans-6d" d="M 3328 2828 
Q 3544 3216 3844 3400 
Q 4144 3584 4550 3584 
Q 5097 3584 5394 3201 
Q 5691 2819 5691 2113 
L 5691 0 
L 5113 0 
L 5113 2094 
Q 5113 2597 4934 2840 
Q 4756 3084 4391 3084 
Q 3944 3084 3684 2787 
Q 3425 2491 3425 1978 
L 3425 0 
L 2847 0 
L 2847 2094 
Q 2847 2600 2669 2842 
Q 2491 3084 2119 3084 
Q 1678 3084 1418 2786 
Q 1159 2488 1159 1978 
L 1159 0 
L 581 0 
L 581 3500 
L 1159 3500 
L 1159 2956 
Q 1356 3278 1631 3431 
Q 1906 3584 2284 3584 
Q 2666 3584 2933 3390 
Q 3200 3197 3328 2828 
z
" transform="scale(0.015625)"/>
      <path id="DejaVuSans-64" d="M 2906 2969 
L 2906 4863 
L 3481 4863 
L 3481 0 
L 2906 0 
L 2906 525 
Q 2725 213 2448 61 
Q 2172 -91 1784 -91 
Q 1150 -91 751 415 
Q 353 922 353 1747 
Q 353 2572 751 3078 
Q 1150 3584 1784 3584 
Q 2172 3584 2448 3432 
Q 2725 3281 2906 2969 
z
M 947 1747 
Q 947 1113 1208 752 
Q 1469 391 1925 391 
Q 2381 391 2643 752 
Q 2906 1113 2906 1747 
Q 2906 2381 2643 2742 
Q 2381 3103 1925 3103 
Q 1469 3103 1208 2742 
Q 947 2381 947 1747 
z
" transform="scale(0.015625)"/>
      <path id="DejaVuSans-73" d="M 2834 3397 
L 2834 2853 
Q 2591 2978 2328 3040 
Q 2066 3103 1784 3103 
Q 1356 3103 1142 2972 
Q 928 2841 928 2578 
Q 928 2378 1081 2264 
Q 1234 2150 1697 2047 
L 1894 2003 
Q 2506 1872 2764 1633 
Q 3022 1394 3022 966 
Q 3022 478 2636 193 
Q 2250 -91 1575 -91 
Q 1294 -91 989 -36 
Q 684 19 347 128 
L 347 722 
Q 666 556 975 473 
Q 1284 391 1588 391 
Q 1994 391 2212 530 
Q 2431 669 2431 922 
Q 2431 1156 2273 1281 
Q 2116 1406 1581 1522 
L 1381 1569 
Q 847 1681 609 1914 
Q 372 2147 372 2553 
Q 372 3047 722 3315 
Q 1072 3584 1716 3584 
Q 2034 3584 2315 3537 
Q 2597 3491 2834 3397 
z
" transform="scale(0.015625)"/>
      <path id="DejaVuSans-62" d="M 3116 1747 
Q 3116 2381 2855 2742 
Q 2594 3103 2138 3103 
Q 1681 3103 1420 2742 
Q 1159 2381 1159 1747 
Q 1159 1113 1420 752 
Q 1681 391 2138 391 
Q 2594 391 2855 752 
Q 3116 1113 3116 1747 
z
M 1159 2969 
Q 1341 3281 1617 3432 
Q 1894 3584 2278 3584 
Q 2916 3584 3314 3078 
Q 3713 2572 3713 1747 
Q 3713 922 3314 415 
Q 2916 -91 2278 -91 
Q 1894 -91 1617 61 
Q 1341 213 1159 525 
L 1159 0 
L 581 0 
L 581 4863 
L 1159 4863 
L 1159 2969 
z
" transform="scale(0.015625)"/>
     </defs>
     <use xlink:href="#DejaVuSans-32"/>
     <use xlink:href="#DejaVuSans-30" transform="translate(63.623047 0)"/>
     <use xlink:href="#DejaVuSans-25" transform="translate(127.246094 0)"/>
     <use xlink:href="#DejaVuSans-20" transform="translate(222.265625 0)"/>
     <use xlink:href="#DejaVuSans-71" transform="translate(254.052734 0)"/>
     <use xlink:href="#DejaVuSans-75" transform="translate(317.529297 0)"/>
     <use xlink:href="#DejaVuSans-61" transform="translate(380.908203 0)"/>
     <use xlink:href="#DejaVuSans-6e" transform="translate(442.1875 0)"/>
     <use xlink:href="#DejaVuSans-74" transform="translate(505.566406 0)"/>
     <use xlink:href="#DejaVuSans-69" transform="translate(544.775391 0)"/>
     <use xlink:href="#DejaVuSans-6c" transform="translate(572.558594 0)"/>
     <use xlink:href="#DejaVuSans-65" transform="translate(600.341797 0)"/>
     <use xlink:href="#DejaVuSans-20" transform="translate(661.865234 0)"/>
     <use xlink:href="#DejaVuSans-6f" transform="translate(693.652344 0)"/>
     <use xlink:href="#DejaVuSans-66" transform="translate(754.833984 0)"/>
     <use xlink:href="#DejaVuSans-20" transform="translate(790.039062 0)"/>
     <use xlink:href="#DejaVuSans-61" transform="translate(821.826172 0)"/>
     <use xlink:href="#DejaVuSans-20" transform="translate(883.105469 0)"/>
     <use xlink:href="#DejaVuSans-6e" transform="translate(914.892578 0)"/>
     <use xlink:href="#DejaVuSans-6f" transform="translate(978.271484 0)"/>
     <use xlink:href="#DejaVuSans-72" transform="translate(1039.453125 0)"/>
     <use xlink:href="#DejaVuSans-6d" transform="translate(1078.816406 0)"/>
     <use xlink:href="#DejaVuSans-61" transform="translate(1176.228516 0)"/>
     <use xlink:href="#DejaVuSans-6c" transform="translate(1237.507812 0)"/>
     <use xlink:href="#DejaVuSans-20" transform="translate(1265.291016 0)"/>
     <use xlink:href="#DejaVuSans-64" transform="translate(1297.078125 0)"/>
     <use xlink:href="#DejaVuSans-69" transform="translate(1360.554688 0)"/>
     <use xlink:href="#DejaVuSans-73" transform="translate(1388.337891 0)"/>
     <use xlink:href="#DejaVuSans-74" transform="translate(1440.4375 0)"/>
     <use xlink:href="#DejaVuSans-72" transform="translate(1479.646484 0)"/>
     <use xlink:href="#DejaVuSans-69" transform="translate(1520.759766 0)"/>
     <use xlink:href="#DejaVuSans-62" transform="translate(1548.542969 0)"/>
     <use xlink:href="#DejaVuSans-75" transform="translate(1612.019531 0)"/>
     <use xlink:href="#DejaVuSans-74" transform="translate(1675.398438 0)"/>
     <use xlink:href="#DejaVuSans-69" transform="translate(1714.607422 0)"/>
     <use xlink:href="#DejaVuSans-6f" transform="translate(1742.390625 0)"/>
     <use xlink:href="#DejaVuSans-6e" transform="translate(1803.572266 0)"/>
    </g>
   </g>
   <g id="legend_1">
    <g id="patch_7">
     <path d="M 409.795 45.018125 
L 551.695 45.018125 
Q 553.695 45.018125 553.695 43.018125 
L 553.695 29.318125 
Q 553.695 27.318125 551.695 27.318125 
L 409.795 27.318125 
Q 407.795 27.318125 407.795 29.318125 
L 407.795 43.018125 
Q 407.795 45.018125 409.795 45.018125 
z
" style="fill: #ffffff; opacity: 0.8; stroke: #cccccc; stroke-linejoin: miter"/>
    </g>
    <g id="patch_8">
     <path d="M 411.795 38.918125 
L 431.795 38.918125 
L 431.795 31.918125 
L 411.795 31.918125 
z
" style="fill: #4682b4; fill-opacity: 0.3; stroke: #4682b4; stroke-opacity: 0.3; stroke-linejoin: miter"/>
    </g>
    <g id="text_21">
     <!-- Area = 20% (left of $q$) -->
     <g transform="translate(439.795 38.918125) scale(0.1 -0.1)">
      <defs>
       <path id="DejaVuSans-41" d="M 2188 4044 
L 1331 1722 
L 3047 1722 
L 2188 4044 
z
M 1831 4666 
L 2547 4666 
L 4325 0 
L 3669 0 
L 3244 1197 
L 1141 1197 
L 716 0 
L 50 0 
L 1831 4666 
z
" transform="scale(0.015625)"/>
      </defs>
      <use xlink:href="#DejaVuSans-41" transform="translate(0 0.015625)"/>
      <use xlink:href="#DejaVuSans-72" transform="translate(68.408203 0.015625)"/>
      <use xlink:href="#DejaVuSans-65" transform="translate(109.521484 0.015625)"/>
      <use xlink:href="#DejaVuSans-61" transform="translate(171.044922 0.015625)"/>
      <use xlink:href="#DejaVuSans-20" transform="translate(232.324219 0.015625)"/>
      <use xlink:href="#DejaVuSans-3d" transform="translate(264.111328 0.015625)"/>
      <use xlink:href="#DejaVuSans-20" transform="translate(347.900391 0.015625)"/>
      <use xlink:href="#DejaVuSans-32" transform="translate(379.6875 0.015625)"/>
      <use xlink:href="#DejaVuSans-30" transform="translate(443.310547 0.015625)"/>
      <use xlink:href="#DejaVuSans-25" transform="translate(506.933594 0.015625)"/>
      <use xlink:href="#DejaVuSans-20" transform="translate(601.953125 0.015625)"/>
      <use xlink:href="#DejaVuSans-28" transform="translate(633.740234 0.015625)"/>
      <use xlink:href="#DejaVuSans-6c" transform="translate(672.753906 0.015625)"/>
      <use xlink:href="#DejaVuSans-65" transform="translate(700.537109 0.015625)"/>
      <use xlink:href="#DejaVuSans-66" transform="translate(762.060547 0.015625)"/>
      <use xlink:href="#DejaVuSans-74" transform="translate(797.265625 0.015625)"/>
      <use xlink:href="#DejaVuSans-20" transform="translate(836.474609 0.015625)"/>
      <use xlink:href="#DejaVuSans-6f" transform="translate(868.261719 0.015625)"/>
      <use xlink:href="#DejaVuSans-66" transform="translate(929.443359 0.015625)"/>
      <use xlink:href="#DejaVuSans-20" transform="translate(964.648438 0.015625)"/>
      <use xlink:href="#DejaVuSans-Oblique-71" transform="translate(996.435547 0.015625)"/>
      <use xlink:href="#DejaVuSans-29" transform="translate(1059.912109 0.015625)"/>
     </g>
    </g>
   </g>
  </g>
 </g>
 <defs>
  <clipPath id="p7b690eb154">
   <rect x="45.716875" y="22.318125" width="512.978125" height="219.4"/>
  </clipPath>
 </defs>
</svg>
