<?xml version="1.0" encoding="utf-8" standalone="no"?>
<!DOCTYPE svg PUBLIC "-//W3C//DTD SVG 1.1//EN"
  "http://www.w3.org/Graphics/SVG/1.1/DTD/svg11.dtd">
<svg xmlns:xlink="http://www.w3.org/1999/xlink" width="716.48975pt" height="323.0635pt" viewBox="0 0 716.48975 323.0635" xmlns="http://www.w3.org/2000/svg" version="1.1">
 <metadata>
  <rdf:RDF xmlns:dc="http://purl.org/dc/elements/1.1/" xmlns:cc="http://creativecommons.org/ns#" xmlns:rdf="http://www.w3.org/1999/02/22-rdf-syntax-ns#">
   <cc:Work>
    <dc:type rdf:resource="http://purl.org/dc/dcmitype/StillImage"/>
    <dc:date>2026-07-23T15:02:43.203951</dc:date>
    <dc:format>image/svg+xml</dc:format>
    <dc:creator>
     <cc:Agent>
      <dc:title>Matplotlib v3.10.8, https://matplotlib.org/</dc:title>
     </cc:Agent>
    </dc:creator>
   </cc:Work>
  </rdf:RDF>
 </metadata>
 <defs>
  <style type="text/css">*{stroke-linejoin: round; stroke-linecap: butt}</style>
 </defs>
 <g id="figure_1">
  <g id="patch_1">
   <path d="M 0 323.0635 
L 716.48975 323.0635 
L 716.48975 0 
L 0 0 
z
" style="fill: #ffffff"/>
  </g>
  <g id="axes_1">
   <g id="patch_2">
    <path d="M 44.351 291.33 
L 348.4535 291.33 
L 348.4535 44.25 
L 44.351 44.25 
z
" style="fill: #ffffff"/>
   </g>
   <g id="matplotlib.axis_1">
    <g id="xtick_1">
     <g id="line2d_1"/>
     <g id="text_1">
      <!-- 0 -->
      <g transform="translate(55.628841 300.90875) scale(0.08 -0.08)">
       <defs>
        <path id="DejaVuSans-30" d="M 2034 4250 
Q 1547 4250 1301 3770 
Q 1056 3291 1056 2328 
Q 1056 1369 1301 889 
Q 1547 409 2034 409 
Q 2525 409 2770 889 
Q 3016 1369 3016 2328 
Q 3016 3291 2770 3770 
Q 2525 4250 2034 4250 
z
M 2034 4750 
Q 2819 4750 3233 4129 
Q 3647 3509 3647 2328 
Q 3647 1150 3233 529 
Q 2819 -91 2034 -91 
Q 1250 -91 836 529 
Q 422 1150 422 2328 
Q 422 3509 836 4129 
Q 1250 4750 2034 4750 
z
" transform="scale(0.015625)"/>
       </defs>
       <use xlink:href="#DejaVuSans-30"/>
      </g>
     </g>
    </g>
    <g id="xtick_2">
     <g id="line2d_2"/>
     <g id="text_2">
      <!-- 10 -->
      <g transform="translate(109.5036 300.90875) scale(0.08 -0.08)">
       <defs>
        <path id="DejaVuSans-31" d="M 794 531 
L 1825 531 
L 1825 4091 
L 703 3866 
L 703 4441 
L 1819 4666 
L 2450 4666 
L 2450 531 
L 3481 531 
L 3481 0 
L 794 0 
L 794 531 
z
" transform="scale(0.015625)"/>
       </defs>
       <use xlink:href="#DejaVuSans-31"/>
       <use xlink:href="#DejaVuSans-30" transform="translate(63.623047 0)"/>
      </g>
     </g>
    </g>
    <g id="xtick_3">
     <g id="line2d_3"/>
     <g id="text_3">
      <!-- 20 -->
      <g transform="translate(165.923359 300.90875) scale(0.08 -0.08)">
       <defs>
        <path id="DejaVuSans-32" d="M 1228 531 
L 3431 531 
L 3431 0 
L 469 0 
L 469 531 
Q 828 903 1448 1529 
Q 2069 2156 2228 2338 
Q 2531 2678 2651 2914 
Q 2772 3150 2772 3378 
Q 2772 3750 2511 3984 
Q 2250 4219 1831 4219 
Q 1534 4219 1204 4116 
Q 875 4013 500 3803 
L 500 4441 
Q 881 4594 1212 4672 
Q 1544 4750 1819 4750 
Q 2544 4750 2975 4387 
Q 3406 4025 3406 3419 
Q 3406 3131 3298 2873 
Q 3191 2616 2906 2266 
Q 2828 2175 2409 1742 
Q 1991 1309 1228 531 
z
" transform="scale(0.015625)"/>
       </defs>
       <use xlink:href="#DejaVuSans-32"/>
       <use xlink:href="#DejaVuSans-30" transform="translate(63.623047 0)"/>
      </g>
     </g>
    </g>
    <g id="xtick_4">
     <g id="line2d_4"/>
     <g id="text_4">
      <!-- 30 -->
      <g transform="translate(222.343117 300.90875) scale(0.08 -0.08)">
       <defs>
        <path id="DejaVuSans-33" d="M 2597 2516 
Q 3050 2419 3304 2112 
Q 3559 1806 3559 1356 
Q 3559 666 3084 287 
Q 2609 -91 1734 -91 
Q 1441 -91 1130 -33 
Q 819 25 488 141 
L 488 750 
Q 750 597 1062 519 
Q 1375 441 1716 441 
Q 2309 441 2620 675 
Q 2931 909 2931 1356 
Q 2931 1769 2642 2001 
Q 2353 2234 1838 2234 
L 1294 2234 
L 1294 2753 
L 1863 2753 
Q 2328 2753 2575 2939 
Q 2822 3125 2822 3475 
Q 2822 3834 2567 4026 
Q 2313 4219 1838 4219 
Q 1578 4219 1281 4162 
Q 984 4106 628 3988 
L 628 4550 
Q 988 4650 1302 4700 
Q 1616 4750 1894 4750 
Q 2613 4750 3031 4423 
Q 3450 4097 3450 3541 
Q 3450 3153 3228 2886 
Q 3006 2619 2597 2516 
z
" transform="scale(0.015625)"/>
       </defs>
       <use xlink:href="#DejaVuSans-33"/>
       <use xlink:href="#DejaVuSans-30" transform="translate(63.623047 0)"/>
      </g>
     </g>
    </g>
    <g id="xtick_5">
     <g id="line2d_5"/>
     <g id="text_5">
      <!-- 40 -->
      <g transform="translate(278.762876 300.90875) scale(0.08 -0.08)">
       <defs>
        <path id="DejaVuSans-34" d="M 2419 4116 
L 825 1625 
L 2419 1625 
L 2419 4116 
z
M 2253 4666 
L 3047 4666 
L 3047 1625 
L 3713 1625 
L 3713 1100 
L 3047 1100 
L 3047 0 
L 2419 0 
L 2419 1100 
L 313 1100 
L 313 1709 
L 2253 4666 
z
" transform="scale(0.015625)"/>
       </defs>
       <use xlink:href="#DejaVuSans-34"/>
       <use xlink:href="#DejaVuSans-30" transform="translate(63.623047 0)"/>
      </g>
     </g>
    </g>
    <g id="xtick_6">
     <g id="line2d_6"/>
     <g id="text_6">
      <!-- 50 -->
      <g transform="translate(335.182635 300.90875) scale(0.08 -0.08)">
       <defs>
        <path id="DejaVuSans-35" d="M 691 4666 
L 3169 4666 
L 3169 4134 
L 1269 4134 
L 1269 2991 
Q 1406 3038 1543 3061 
Q 1681 3084 1819 3084 
Q 2600 3084 3056 2656 
Q 3513 2228 3513 1497 
Q 3513 744 3044 326 
Q 2575 -91 1722 -91 
Q 1428 -91 1123 -41 
Q 819 9 494 109 
L 494 744 
Q 775 591 1075 516 
Q 1375 441 1709 441 
Q 2250 441 2565 725 
Q 2881 1009 2881 1497 
Q 2881 1984 2565 2268 
Q 2250 2553 1709 2553 
Q 1456 2553 1204 2497 
Q 953 2441 691 2322 
L 691 4666 
z
" transform="scale(0.015625)"/>
       </defs>
       <use xlink:href="#DejaVuSans-35"/>
       <use xlink:href="#DejaVuSans-30" transform="translate(63.623047 0)"/>
      </g>
     </g>
    </g>
    <g id="text_7">
     <!-- x -->
     <g transform="translate(193.56125 313.867) scale(0.096 -0.096)">
      <defs>
       <path id="DejaVuSans-78" d="M 3513 3500 
L 2247 1797 
L 3578 0 
L 2900 0 
L 1881 1375 
L 863 0 
L 184 0 
L 1544 1831 
L 300 3500 
L 978 3500 
L 1906 2253 
L 2834 3500 
L 3513 3500 
z
" transform="scale(0.015625)"/>
      </defs>
      <use xlink:href="#DejaVuSans-78"/>
     </g>
    </g>
   </g>
   <g id="matplotlib.axis_2">
    <g id="ytick_1">
     <g id="line2d_7"/>
     <g id="text_8">
      <!-- 0 -->
      <g transform="translate(35.761 283.138466) scale(0.08 -0.08)">
       <use xlink:href="#DejaVuSans-30"/>
      </g>
     </g>
    </g>
    <g id="ytick_2">
     <g id="line2d_8"/>
     <g id="text_9">
      <!-- 500 -->
      <g transform="translate(25.581 238.259882) scale(0.08 -0.08)">
       <use xlink:href="#DejaVuSans-35"/>
       <use xlink:href="#DejaVuSans-30" transform="translate(63.623047 0)"/>
       <use xlink:href="#DejaVuSans-30" transform="translate(127.246094 0)"/>
      </g>
     </g>
    </g>
    <g id="ytick_3">
     <g id="line2d_9"/>
     <g id="text_10">
      <!-- 1000 -->
      <g transform="translate(20.491 193.381298) scale(0.08 -0.08)">
       <use xlink:href="#DejaVuSans-31"/>
       <use xlink:href="#DejaVuSans-30" transform="translate(63.623047 0)"/>
       <use xlink:href="#DejaVuSans-30" transform="translate(127.246094 0)"/>
       <use xlink:href="#DejaVuSans-30" transform="translate(190.869141 0)"/>
      </g>
     </g>
    </g>
    <g id="ytick_4">
     <g id="line2d_10"/>
     <g id="text_11">
      <!-- 1500 -->
      <g transform="translate(20.491 148.502714) scale(0.08 -0.08)">
       <use xlink:href="#DejaVuSans-31"/>
       <use xlink:href="#DejaVuSans-35" transform="translate(63.623047 0)"/>
       <use xlink:href="#DejaVuSans-30" transform="translate(127.246094 0)"/>
       <use xlink:href="#DejaVuSans-30" transform="translate(190.869141 0)"/>
      </g>
     </g>
    </g>
    <g id="ytick_5">
     <g id="line2d_11"/>
     <g id="text_12">
      <!-- 2000 -->
      <g transform="translate(20.491 103.62413) scale(0.08 -0.08)">
       <use xlink:href="#DejaVuSans-32"/>
       <use xlink:href="#DejaVuSans-30" transform="translate(63.623047 0)"/>
       <use xlink:href="#DejaVuSans-30" transform="translate(127.246094 0)"/>
       <use xlink:href="#DejaVuSans-30" transform="translate(190.869141 0)"/>
      </g>
     </g>
    </g>
    <g id="ytick_6">
     <g id="line2d_12"/>
     <g id="text_13">
      <!-- 2500 -->
      <g transform="translate(20.491 58.745546) scale(0.08 -0.08)">
       <use xlink:href="#DejaVuSans-32"/>
       <use xlink:href="#DejaVuSans-35" transform="translate(63.623047 0)"/>
       <use xlink:href="#DejaVuSans-30" transform="translate(127.246094 0)"/>
       <use xlink:href="#DejaVuSans-30" transform="translate(190.869141 0)"/>
      </g>
     </g>
    </g>
    <g id="text_14">
     <!-- y -->
     <g transform="translate(14.4945 170.631) rotate(-90) scale(0.096 -0.096)">
      <defs>
       <path id="DejaVuSans-79" d="M 2059 -325 
Q 1816 -950 1584 -1140 
Q 1353 -1331 966 -1331 
L 506 -1331 
L 506 -850 
L 844 -850 
Q 1081 -850 1212 -737 
Q 1344 -625 1503 -206 
L 1606 56 
L 191 3500 
L 800 3500 
L 1894 763 
L 2988 3500 
L 3597 3500 
L 2059 -325 
z
" transform="scale(0.015625)"/>
      </defs>
      <use xlink:href="#DejaVuSans-79"/>
     </g>
    </g>
   </g>
   <g id="PathCollection_1">
    <defs>
     <path id="md730edc7e3" d="M 0 3 
C 0.795609 3 1.55874 2.683901 2.12132 2.12132 
C 2.683901 1.55874 3 0.795609 3 0 
C 3 -0.795609 2.683901 -1.55874 2.12132 -2.12132 
C 1.55874 -2.683901 0.795609 -3 0 -3 
C -0.795609 -3 -1.55874 -2.683901 -2.12132 -2.12132 
C -2.683901 -1.55874 -3 -0.795609 -3 0 
C -3 0.795609 -2.683901 1.55874 -2.12132 2.12132 
C -1.55874 2.683901 -0.795609 3 0 3 
z
" style="stroke: #ff0000; stroke-width: 0.5"/>
    </defs>
    <g clip-path="url(#pb59c59992f)">
     <use xlink:href="#md730edc7e3" x="86.528386" y="277.850478" style="fill: #ff0000; stroke: #ff0000; stroke-width: 0.5"/>
     <use xlink:href="#md730edc7e3" x="157.41475" y="244.942501" style="fill: #ff0000; stroke: #ff0000; stroke-width: 0.5"/>
     <use xlink:href="#md730edc7e3" x="129.060205" y="270.088589" style="fill: #ff0000; stroke: #ff0000; stroke-width: 0.5"/>
     <use xlink:href="#md730edc7e3" x="306.276114" y="97.095865" style="fill: #ff0000; stroke: #ff0000; stroke-width: 0.5"/>
     <use xlink:href="#md730edc7e3" x="221.212477" y="218.074783" style="fill: #ff0000; stroke: #ff0000; stroke-width: 0.5"/>
     <use xlink:href="#md730edc7e3" x="228.301114" y="208.337996" style="fill: #ff0000; stroke: #ff0000; stroke-width: 0.5"/>
     <use xlink:href="#md730edc7e3" x="299.187477" y="171.005605" style="fill: #ff0000; stroke: #ff0000; stroke-width: 0.5"/>
     <use xlink:href="#md730edc7e3" x="199.946568" y="219.459573" style="fill: #ff0000; stroke: #ff0000; stroke-width: 0.5"/>
     <use xlink:href="#md730edc7e3" x="185.769295" y="230.053713" style="fill: #ff0000; stroke: #ff0000; stroke-width: 0.5"/>
     <use xlink:href="#md730edc7e3" x="235.38975" y="213.601963" style="fill: #ff0000; stroke: #ff0000; stroke-width: 0.5"/>
     <use xlink:href="#md730edc7e3" x="100.705659" y="274.048903" style="fill: #ff0000; stroke: #ff0000; stroke-width: 0.5"/>
     <use xlink:href="#md730edc7e3" x="150.326114" y="261.881164" style="fill: #ff0000; stroke: #ff0000; stroke-width: 0.5"/>
     <use xlink:href="#md730edc7e3" x="107.794295" y="273.066885" style="fill: #ff0000; stroke: #ff0000; stroke-width: 0.5"/>
     <use xlink:href="#md730edc7e3" x="327.542023" y="55.480909" style="fill: #ff0000; stroke: #ff0000; stroke-width: 0.5"/>
     <use xlink:href="#md730edc7e3" x="65.262477" y="279.920633" style="fill: #ff0000; stroke: #ff0000; stroke-width: 0.5"/>
     <use xlink:href="#md730edc7e3" x="171.592023" y="246.004655" style="fill: #ff0000; stroke: #ff0000; stroke-width: 0.5"/>
     <use xlink:href="#md730edc7e3" x="58.173841" y="280.099091" style="fill: #ff0000; stroke: #ff0000; stroke-width: 0.5"/>
     <use xlink:href="#md730edc7e3" x="164.503386" y="253.260806" style="fill: #ff0000; stroke: #ff0000; stroke-width: 0.5"/>
     <use xlink:href="#md730edc7e3" x="93.617023" y="276.279826" style="fill: #ff0000; stroke: #ff0000; stroke-width: 0.5"/>
     <use xlink:href="#md730edc7e3" x="136.148841" y="260.093372" style="fill: #ff0000; stroke: #ff0000; stroke-width: 0.5"/>
     <use xlink:href="#md730edc7e3" x="121.971568" y="271.13114" style="fill: #ff0000; stroke: #ff0000; stroke-width: 0.5"/>
     <use xlink:href="#md730edc7e3" x="114.882932" y="272.32091" style="fill: #ff0000; stroke: #ff0000; stroke-width: 0.5"/>
     <use xlink:href="#md730edc7e3" x="143.237477" y="260.534294" style="fill: #ff0000; stroke: #ff0000; stroke-width: 0.5"/>
     <use xlink:href="#md730edc7e3" x="320.453386" y="84.027797" style="fill: #ff0000; stroke: #ff0000; stroke-width: 0.5"/>
    </g>
   </g>
   <g id="PathCollection_2">
    <defs>
     <path id="ma9eb2c1c5f" d="M 0 3 
C 0.795609 3 1.55874 2.683901 2.12132 2.12132 
C 2.683901 1.55874 3 0.795609 3 0 
C 3 -0.795609 2.683901 -1.55874 2.12132 -2.12132 
C 1.55874 -2.683901 0.795609 -3 0 -3 
C -0.795609 -3 -1.55874 -2.683901 -2.12132 -2.12132 
C -2.683901 -1.55874 -3 -0.795609 -3 0 
C -3 0.795609 -2.683901 1.55874 -2.12132 2.12132 
C -1.55874 2.683901 -0.795609 3 0 3 
z
" style="stroke: #ff9300; stroke-width: 0.5"/>
    </defs>
    <g clip-path="url(#pb59c59992f)">
     <use xlink:href="#ma9eb2c1c5f" x="292.098841" y="95.611252" style="fill: #ff9300; stroke: #ff9300; stroke-width: 0.5"/>
     <use xlink:href="#ma9eb2c1c5f" x="72.351114" y="279.648692" style="fill: #ff9300; stroke: #ff9300; stroke-width: 0.5"/>
     <use xlink:href="#ma9eb2c1c5f" x="256.655659" y="133.22955" style="fill: #ff9300; stroke: #ff9300; stroke-width: 0.5"/>
     <use xlink:href="#ma9eb2c1c5f" x="242.478386" y="206.737744" style="fill: #ff9300; stroke: #ff9300; stroke-width: 0.5"/>
     <use xlink:href="#ma9eb2c1c5f" x="192.857932" y="226.091288" style="fill: #ff9300; stroke: #ff9300; stroke-width: 0.5"/>
     <use xlink:href="#ma9eb2c1c5f" x="270.832932" y="195.042116" style="fill: #ff9300; stroke: #ff9300; stroke-width: 0.5"/>
     <use xlink:href="#ma9eb2c1c5f" x="178.680659" y="244.996398" style="fill: #ff9300; stroke: #ff9300; stroke-width: 0.5"/>
     <use xlink:href="#ma9eb2c1c5f" x="263.744295" y="186.929565" style="fill: #ff9300; stroke: #ff9300; stroke-width: 0.5"/>
    </g>
   </g>
   <g id="line2d_13">
    <path d="M 58.173841 280.099091 
L 65.262477 279.957403 
L 72.351114 279.53234 
L 79.43975 278.823902 
L 86.528386 277.832088 
L 93.617023 276.556899 
L 100.705659 274.998334 
L 107.794295 273.156395 
L 114.882932 271.031079 
L 121.971568 268.622389 
L 129.060205 265.930323 
L 136.148841 262.954882 
L 143.237477 259.696065 
L 150.326114 256.153873 
L 157.41475 252.328306 
L 164.503386 248.219363 
L 171.592023 243.827045 
L 178.680659 239.151352 
L 185.769295 234.192283 
L 192.857932 228.949839 
L 199.946568 223.424019 
L 207.035205 217.614824 
L 214.123841 211.522254 
L 221.212477 205.146308 
L 228.301114 198.486987 
L 235.38975 191.544291 
L 242.478386 184.318219 
L 249.567023 176.808772 
L 256.655659 169.01595 
L 263.744295 160.939752 
L 270.832932 152.580179 
L 277.921568 143.937231 
L 285.010205 135.010907 
L 292.098841 125.801208 
L 299.187477 116.308133 
L 306.276114 106.531683 
L 313.36475 96.471858 
L 320.453386 86.128658 
L 327.542023 75.502082 
L 334.630659 64.59213 
" clip-path="url(#pb59c59992f)" style="fill: none; stroke-dasharray: 3.7,1.6; stroke-dashoffset: 0; stroke: #ff4500"/>
   </g>
   <g id="line2d_14">
    <path d="M 58.173841 314.274691 
L 60.966334 312.183302 
L 63.758827 310.091912 
L 66.55132 308.000523 
L 69.343813 305.909133 
L 72.136306 303.817743 
L 74.9288 301.726354 
L 77.721293 299.634964 
L 80.513786 297.543575 
L 83.306279 295.452185 
L 86.098772 293.360795 
L 88.891265 291.269406 
L 91.683758 289.178016 
L 94.476251 287.086627 
L 97.268744 284.995237 
L 100.061238 282.903847 
L 102.853731 280.812458 
L 105.646224 278.721068 
L 108.438717 276.629679 
L 111.23121 274.538289 
L 114.023703 272.446899 
L 116.816196 270.35551 
L 119.608689 268.26412 
L 122.401183 266.172731 
L 125.193676 264.081341 
L 127.986169 261.989951 
L 130.778662 259.898562 
L 133.571155 257.807172 
L 136.363648 255.715783 
L 139.156141 253.624393 
L 141.948634 251.533003 
L 144.741127 249.441614 
L 147.533621 247.350224 
L 150.326114 245.258835 
L 153.118607 243.167445 
L 155.9111 241.076055 
L 158.703593 238.984666 
L 161.496086 236.893276 
L 164.288579 234.801887 
L 167.081072 232.710497 
L 169.873565 230.619108 
L 172.666059 228.527718 
L 175.458552 226.436328 
L 178.251045 224.344939 
L 181.043538 222.253549 
L 183.836031 220.16216 
L 186.628524 218.07077 
L 189.421017 215.97938 
L 192.21351 213.887991 
L 195.006003 211.796601 
L 197.798497 209.705212 
L 200.59099 207.613822 
L 203.383483 205.522432 
L 206.175976 203.431043 
L 208.968469 201.339653 
L 211.760962 199.248264 
L 214.553455 197.156874 
L 217.345948 195.065484 
L 220.138441 192.974095 
L 222.930935 190.882705 
L 225.723428 188.791316 
L 228.515921 186.699926 
L 231.308414 184.608536 
L 234.100907 182.517147 
L 236.8934 180.425757 
L 239.685893 178.334368 
L 242.478386 176.242978 
L 245.270879 174.151588 
L 248.063373 172.060199 
L 250.855866 169.968809 
L 253.648359 167.87742 
L 256.440852 165.78603 
L 259.233345 163.69464 
L 262.025838 161.603251 
L 264.818331 159.511861 
L 267.610824 157.420472 
L 270.403317 155.329082 
L 273.195811 153.237692 
L 275.988304 151.146303 
L 278.780797 149.054913 
L 281.57329 146.963524 
L 284.365783 144.872134 
L 287.158276 142.780744 
L 289.950769 140.689355 
L 292.743262 138.597965 
L 295.535756 136.506576 
L 298.328249 134.415186 
L 301.120742 132.323796 
L 303.913235 130.232407 
L 306.705728 128.141017 
L 309.498221 126.049628 
L 312.290714 123.958238 
L 315.083207 121.866848 
L 317.8757 119.775459 
L 320.668194 117.684069 
L 323.460687 115.59268 
L 326.25318 113.50129 
L 329.045673 111.4099 
L 331.838166 109.318511 
L 334.630659 107.227121 
" clip-path="url(#pb59c59992f)" style="fill: none; stroke: #0096ff; stroke-width: 0.5"/>
   </g>
   <g id="line2d_15">
    <path d="M 58.173841 275.301172 
L 60.966334 275.630894 
L 63.758827 275.911159 
L 66.55132 276.141968 
L 69.343813 276.323319 
L 72.136306 276.455214 
L 74.9288 276.537652 
L 77.721293 276.570634 
L 80.513786 276.554158 
L 83.306279 276.488226 
L 86.098772 276.372837 
L 88.891265 276.207992 
L 91.683758 275.993689 
L 94.476251 275.72993 
L 97.268744 275.416714 
L 100.061238 275.054042 
L 102.853731 274.641912 
L 105.646224 274.180326 
L 108.438717 273.669283 
L 111.23121 273.108783 
L 114.023703 272.498827 
L 116.816196 271.839414 
L 119.608689 271.130544 
L 122.401183 270.372217 
L 125.193676 269.564434 
L 127.986169 268.707193 
L 130.778662 267.800497 
L 133.571155 266.844343 
L 136.363648 265.838732 
L 139.156141 264.783665 
L 141.948634 263.679141 
L 144.741127 262.52516 
L 147.533621 261.321723 
L 150.326114 260.068829 
L 153.118607 258.766478 
L 155.9111 257.41467 
L 158.703593 256.013405 
L 161.496086 254.562684 
L 164.288579 253.062506 
L 167.081072 251.512871 
L 169.873565 249.91378 
L 172.666059 248.265232 
L 175.458552 246.567227 
L 178.251045 244.819765 
L 181.043538 243.022846 
L 183.836031 241.176471 
L 186.628524 239.280639 
L 189.421017 237.33535 
L 192.21351 235.340605 
L 195.006003 233.296402 
L 197.798497 231.202743 
L 200.59099 229.059628 
L 203.383483 226.867055 
L 206.175976 224.625026 
L 208.968469 222.33354 
L 211.760962 219.992597 
L 214.553455 217.602197 
L 217.345948 215.162341 
L 220.138441 212.673028 
L 222.930935 210.134258 
L 225.723428 207.546031 
L 228.515921 204.908348 
L 231.308414 202.221208 
L 234.100907 199.484611 
L 236.8934 196.698557 
L 239.685893 193.863047 
L 242.478386 190.97808 
L 245.270879 188.043656 
L 248.063373 185.059775 
L 250.855866 182.026438 
L 253.648359 178.943644 
L 256.440852 175.811393 
L 259.233345 172.629685 
L 262.025838 169.398521 
L 264.818331 166.1179 
L 267.610824 162.787822 
L 270.403317 159.408287 
L 273.195811 155.979296 
L 275.988304 152.500848 
L 278.780797 148.972943 
L 281.57329 145.395581 
L 284.365783 141.768763 
L 287.158276 138.092488 
L 289.950769 134.366756 
L 292.743262 130.591567 
L 295.535756 126.766922 
L 298.328249 122.892819 
L 301.120742 118.96926 
L 303.913235 114.996245 
L 306.705728 110.973772 
L 309.498221 106.901843 
L 312.290714 102.780457 
L 315.083207 98.609614 
L 317.8757 94.389315 
L 320.668194 90.119559 
L 323.460687 85.800346 
L 326.25318 81.431676 
L 329.045673 77.01355 
L 331.838166 72.545966 
L 334.630659 68.028926 
" clip-path="url(#pb59c59992f)" style="fill: none; stroke: #ff9300; stroke-width: 0.5"/>
   </g>
   <g id="line2d_16">
    <path d="M 58.173841 286.641464 
L 60.966334 285.467549 
L 63.758827 284.32858 
L 66.55132 283.222737 
L 69.343813 282.1482 
L 72.136306 281.103152 
L 74.9288 280.085773 
L 77.721293 279.094243 
L 80.513786 278.126745 
L 83.306279 277.181458 
L 86.098772 276.256565 
L 88.891265 275.350245 
L 91.683758 274.46068 
L 94.476251 273.58605 
L 97.268744 272.724538 
L 100.061238 271.874323 
L 102.853731 271.033587 
L 105.646224 270.20051 
L 108.438717 269.373274 
L 111.23121 268.55006 
L 114.023703 267.729048 
L 116.816196 266.90842 
L 119.608689 266.086356 
L 122.401183 265.261038 
L 125.193676 264.430646 
L 127.986169 263.593362 
L 130.778662 262.747365 
L 133.571155 261.890839 
L 136.363648 261.021963 
L 139.156141 260.138917 
L 141.948634 259.239885 
L 144.741127 258.323045 
L 147.533621 257.38658 
L 150.326114 256.42867 
L 153.118607 255.447496 
L 155.9111 254.441239 
L 158.703593 253.40808 
L 161.496086 252.346201 
L 164.288579 251.253781 
L 167.081072 250.129002 
L 169.873565 248.970046 
L 172.666059 247.775092 
L 175.458552 246.542322 
L 178.251045 245.269917 
L 181.043538 243.956058 
L 183.836031 242.598926 
L 186.628524 241.196702 
L 189.421017 239.747566 
L 192.21351 238.2497 
L 195.006003 236.701285 
L 197.798497 235.100502 
L 200.59099 233.445531 
L 203.383483 231.734554 
L 206.175976 229.965751 
L 208.968469 228.137304 
L 211.760962 226.247394 
L 214.553455 224.294201 
L 217.345948 222.275906 
L 220.138441 220.190691 
L 222.930935 218.036737 
L 225.723428 215.812223 
L 228.515921 213.515333 
L 231.308414 211.144245 
L 234.100907 208.697142 
L 236.8934 206.172204 
L 239.685893 203.567612 
L 242.478386 200.881548 
L 245.270879 198.112192 
L 248.063373 195.257725 
L 250.855866 192.316328 
L 253.648359 189.286182 
L 256.440852 186.165468 
L 259.233345 182.952367 
L 262.025838 179.645061 
L 264.818331 176.241729 
L 267.610824 172.740553 
L 270.403317 169.139714 
L 273.195811 165.437393 
L 275.988304 161.631771 
L 278.780797 157.721029 
L 281.57329 153.703348 
L 284.365783 149.576908 
L 287.158276 145.339891 
L 289.950769 140.990478 
L 292.743262 136.52685 
L 295.535756 131.947187 
L 298.328249 127.249671 
L 301.120742 122.432482 
L 303.913235 117.493802 
L 306.705728 112.431812 
L 309.498221 107.244692 
L 312.290714 101.930624 
L 315.083207 96.487788 
L 317.8757 90.914365 
L 320.668194 85.208537 
L 323.460687 79.368484 
L 326.25318 73.392388 
L 329.045673 67.278429 
L 331.838166 61.024788 
L 334.630659 54.629647 
" clip-path="url(#pb59c59992f)" style="fill: none; stroke: #ff40ff; stroke-width: 0.5"/>
   </g>
   <g id="line2d_17">
    <path d="M 58.173841 275.337873 
L 60.966334 277.148329 
L 63.758827 278.675392 
L 66.55132 279.934302 
L 69.343813 280.939913 
L 72.136306 281.7067 
L 74.9288 282.248752 
L 77.721293 282.579777 
L 80.513786 282.7131 
L 83.306279 282.66166 
L 86.098772 282.438016 
L 88.891265 282.054342 
L 91.683758 281.522432 
L 94.476251 280.853694 
L 97.268744 280.059153 
L 100.061238 279.149452 
L 102.853731 278.134852 
L 105.646224 277.025229 
L 108.438717 275.830076 
L 111.23121 274.558505 
L 114.023703 273.219242 
L 116.816196 271.820633 
L 119.608689 270.370639 
L 122.401183 268.876839 
L 125.193676 267.346427 
L 127.986169 265.786217 
L 130.778662 264.202637 
L 133.571155 262.601734 
L 136.363648 260.989172 
L 139.156141 259.37023 
L 141.948634 257.749805 
L 144.741127 256.132413 
L 147.533621 254.522183 
L 150.326114 252.922864 
L 153.118607 251.337822 
L 155.9111 249.770037 
L 158.703593 248.22211 
L 161.496086 246.696255 
L 164.288579 245.194306 
L 167.081072 243.717713 
L 169.873565 242.267541 
L 172.666059 240.844476 
L 175.458552 239.448818 
L 178.251045 238.080484 
L 181.043538 236.739009 
L 183.836031 235.423545 
L 186.628524 234.13286 
L 189.421017 232.86534 
L 192.21351 231.618986 
L 195.006003 230.391419 
L 197.798497 229.179875 
L 200.59099 227.981207 
L 203.383483 226.791886 
L 206.175976 225.607998 
L 208.968469 224.425248 
L 211.760962 223.238957 
L 214.553455 222.044063 
L 217.345948 220.835122 
L 220.138441 219.606304 
L 222.930935 218.351401 
L 225.723428 217.063816 
L 228.515921 215.736573 
L 231.308414 214.362312 
L 234.100907 212.933291 
L 236.8934 211.441381 
L 239.685893 209.878076 
L 242.478386 208.234481 
L 245.270879 206.501322 
L 248.063373 204.66894 
L 250.855866 202.727294 
L 253.648359 200.665959 
L 256.440852 198.474129 
L 259.233345 196.140612 
L 262.025838 193.653835 
L 264.818331 191.00184 
L 267.610824 188.17229 
L 270.403317 185.15246 
L 273.195811 181.929245 
L 275.988304 178.489157 
L 278.780797 174.818323 
L 281.57329 170.902488 
L 284.365783 166.727015 
L 287.158276 162.276883 
L 289.950769 157.536687 
L 292.743262 152.490641 
L 295.535756 147.122575 
L 298.328249 141.415935 
L 301.120742 135.353785 
L 303.913235 128.918806 
L 306.705728 122.093296 
L 309.498221 114.85917 
L 312.290714 107.197958 
L 315.083207 99.090811 
L 317.8757 90.518493 
L 320.668194 81.461386 
L 323.460687 71.899492 
L 326.25318 61.812425 
L 329.045673 51.179419 
L 331.838166 39.979325 
L 334.630659 28.19061 
" clip-path="url(#pb59c59992f)" style="fill: none; stroke: #7030a0; stroke-width: 0.5"/>
   </g>
   <g id="line2d_18">
    <path d="M 58.173841 279.702854 
L 60.966334 279.534664 
L 63.758827 279.400965 
L 66.55132 279.288759 
L 69.343813 279.186064 
L 72.136306 279.081885 
L 74.9288 278.966184 
L 77.721293 278.829843 
L 80.513786 278.664642 
L 83.306279 278.463221 
L 86.098772 278.219052 
L 88.891265 277.926408 
L 91.683758 277.580335 
L 94.476251 277.176614 
L 97.268744 276.711738 
L 100.061238 276.182875 
L 102.853731 275.587843 
L 105.646224 274.925074 
L 108.438717 274.193585 
L 111.23121 273.392949 
L 114.023703 272.523261 
L 116.816196 271.585111 
L 119.608689 270.579549 
L 122.401183 269.508057 
L 125.193676 268.372517 
L 127.986169 267.17518 
L 130.778662 265.918639 
L 133.571155 264.60579 
L 136.363648 263.23981 
L 139.156141 261.82412 
L 141.948634 260.362357 
L 144.741127 258.858344 
L 147.533621 257.316055 
L 150.326114 255.73959 
L 153.118607 254.133138 
L 155.9111 252.500954 
L 158.703593 250.847317 
L 161.496086 249.176512 
L 164.288579 247.49279 
L 167.081072 245.800339 
L 169.873565 244.103255 
L 172.666059 242.405513 
L 175.458552 240.71093 
L 178.251045 239.023139 
L 181.043538 237.345558 
L 183.836031 235.681357 
L 186.628524 234.033428 
L 189.421017 232.404356 
L 192.21351 230.796386 
L 195.006003 229.211391 
L 197.798497 227.650846 
L 200.59099 226.115793 
L 203.383483 224.60681 
L 206.175976 223.123984 
L 208.968469 221.666876 
L 211.760962 220.234493 
L 214.553455 218.825254 
L 217.345948 217.436964 
L 220.138441 216.06678 
L 222.930935 214.711178 
L 225.723428 213.365929 
L 228.515921 212.026059 
L 231.308414 210.685829 
L 234.100907 209.338693 
L 236.8934 207.977276 
L 239.685893 206.593338 
L 242.478386 205.177745 
L 245.270879 203.720439 
L 248.063373 202.210407 
L 250.855866 200.635646 
L 253.648359 198.983139 
L 256.440852 197.23882 
L 259.233345 195.387542 
L 262.025838 193.413051 
L 264.818331 191.297951 
L 267.610824 189.023674 
L 270.403317 186.57045 
L 273.195811 183.917277 
L 275.988304 181.041888 
L 278.780797 177.92072 
L 281.57329 174.528888 
L 284.365783 170.840147 
L 287.158276 166.826866 
L 289.950769 162.459997 
L 292.743262 157.709041 
L 295.535756 152.542021 
L 298.328249 146.92545 
L 301.120742 140.824297 
L 303.913235 134.201961 
L 306.705728 127.020238 
L 309.498221 119.23929 
L 312.290714 110.817613 
L 315.083207 101.712009 
L 317.8757 91.877553 
L 320.668194 81.267564 
L 323.460687 69.833572 
L 326.25318 57.525289 
L 329.045673 44.290577 
L 331.838166 30.075417 
L 334.630659 14.823881 
" clip-path="url(#pb59c59992f)" style="fill: none; stroke: #c00000; stroke-width: 0.5"/>
   </g>
   <g id="line2d_19">
    <path d="M 58.173841 282.604752 
L 60.966334 280.10159 
L 63.758827 278.178785 
L 66.55132 276.750381 
L 69.343813 275.737452 
L 72.136306 275.067773 
L 74.9288 274.675518 
L 77.721293 274.500942 
L 80.513786 274.490088 
L 83.306279 274.59449 
L 86.098772 274.770885 
L 88.891265 274.980931 
L 91.683758 275.190934 
L 94.476251 275.371575 
L 97.268744 275.497651 
L 100.061238 275.547816 
L 102.853731 275.504332 
L 105.646224 275.352826 
L 108.438717 275.082048 
L 111.23121 274.683648 
L 114.023703 274.151941 
L 116.816196 273.483697 
L 119.608689 272.677922 
L 122.401183 271.735658 
L 125.193676 270.659778 
L 127.986169 269.454794 
L 130.778662 268.126673 
L 133.571155 266.68265 
L 136.363648 265.131062 
L 139.156141 263.481168 
L 141.948634 261.743 
L 144.741127 259.927197 
L 147.533621 258.044861 
L 150.326114 256.107411 
L 153.118607 254.12645 
L 155.9111 252.113631 
L 158.703593 250.080533 
L 161.496086 248.038546 
L 164.288579 245.998756 
L 167.081072 243.971842 
L 169.873565 241.967975 
L 172.666059 239.996728 
L 175.458552 238.066986 
L 178.251045 236.186871 
L 181.043538 234.363661 
L 183.836031 232.603731 
L 186.628524 230.912484 
L 189.421017 229.294302 
L 192.21351 227.752492 
L 195.006003 226.28925 
L 197.798497 224.905619 
L 200.59099 223.601462 
L 203.383483 222.375439 
L 206.175976 221.224991 
L 208.968469 220.146324 
L 211.760962 219.13441 
L 214.553455 218.182987 
L 217.345948 217.284566 
L 220.138441 216.430446 
L 222.930935 215.610736 
L 225.723428 214.81438 
L 228.515921 214.029191 
L 231.308414 213.24189 
L 234.100907 212.438155 
L 236.8934 211.602667 
L 239.685893 210.719177 
L 242.478386 209.770561 
L 245.270879 208.738898 
L 248.063373 207.605548 
L 250.855866 206.351228 
L 253.648359 204.95611 
L 256.440852 203.399916 
L 259.233345 201.662014 
L 262.025838 199.721535 
L 264.818331 197.557484 
L 267.610824 195.148864 
L 270.403317 192.474798 
L 273.195811 189.514671 
L 275.988304 186.248265 
L 278.780797 182.655906 
L 281.57329 178.718619 
L 284.365783 174.418287 
L 287.158276 169.737816 
L 289.950769 164.661304 
L 292.743262 159.174225 
L 295.535756 153.263608 
L 298.328249 146.918231 
L 301.120742 140.128817 
L 303.913235 132.888239 
L 306.705728 125.191724 
L 309.498221 117.037076 
L 312.290714 108.424896 
L 315.083207 99.358806 
L 317.8757 89.845692 
L 320.668194 79.895938 
L 323.460687 69.523676 
L 326.25318 58.747041 
L 329.045673 47.588429 
L 331.838166 36.074766 
L 334.630659 24.237777 
" clip-path="url(#pb59c59992f)" style="fill: none; stroke: #0096ff; stroke-width: 0.5"/>
   </g>
   <g id="line2d_20">
    <path d="M 58.173841 277.900061 
L 60.966334 280.866501 
L 63.758827 282.683949 
L 66.55132 283.593679 
L 69.343813 283.803066 
L 72.136306 283.488628 
L 74.9288 282.798904 
L 77.721293 281.857179 
L 80.513786 280.764052 
L 83.306279 279.59986 
L 86.098772 278.426959 
L 88.891265 277.291856 
L 91.683758 276.227213 
L 94.476251 275.253712 
L 97.268744 274.381796 
L 100.061238 273.613276 
L 102.853731 272.942826 
L 105.646224 272.359354 
L 108.438717 271.847259 
L 111.23121 271.387578 
L 114.023703 270.95903 
L 116.816196 270.538951 
L 119.608689 270.104134 
L 122.401183 269.631577 
L 125.193676 269.099126 
L 127.986169 268.486049 
L 130.778662 267.773512 
L 133.571155 266.944981 
L 136.363648 265.986547 
L 139.156141 264.887174 
L 141.948634 263.638888 
L 144.741127 262.236893 
L 147.533621 260.679624 
L 150.326114 258.968756 
L 153.118607 257.109138 
L 155.9111 255.108703 
L 158.703593 252.978306 
L 161.496086 250.731542 
L 164.288579 248.38451 
L 167.081072 245.955552 
L 169.873565 243.464956 
L 172.666059 240.934632 
L 175.458552 238.387771 
L 178.251045 235.848476 
L 181.043538 233.341384 
L 183.836031 230.891271 
L 186.628524 228.522654 
L 189.421017 226.259385 
L 192.21351 224.124248 
L 195.006003 222.138553 
L 197.798497 220.321746 
L 200.59099 218.691024 
L 203.383483 217.260962 
L 206.175976 216.04317 
L 208.968469 215.04596 
L 211.760962 214.274044 
L 214.553455 213.728262 
L 217.345948 213.405348 
L 220.138441 213.297722 
L 222.930935 213.393337 
L 225.723428 213.67556 
L 228.515921 214.123106 
L 231.308414 214.710031 
L 234.100907 215.405768 
L 236.8934 216.175235 
L 239.685893 216.979001 
L 242.478386 217.773521 
L 245.270879 218.511448 
L 248.063373 219.142007 
L 250.855866 219.611464 
L 253.648359 219.863669 
L 256.440852 219.840686 
L 259.233345 219.483514 
L 262.025838 218.73291 
L 264.818331 217.530294 
L 267.610824 215.818775 
L 270.403317 213.544267 
L 273.195811 210.656724 
L 275.988304 207.111484 
L 278.780797 202.870733 
L 281.57329 197.905086 
L 284.365783 192.195298 
L 287.158276 185.734097 
L 289.950769 178.528156 
L 292.743262 170.600197 
L 295.535756 161.991235 
L 298.328249 152.762969 
L 301.120742 143.000315 
L 303.913235 132.814094 
L 306.705728 122.343877 
L 309.498221 111.760984 
L 312.290714 101.271647 
L 315.083207 91.120343 
L 317.8757 81.593292 
L 320.668194 73.022132 
L 323.460687 65.787776 
L 326.25318 60.324437 
L 329.045673 57.123857 
L 331.838166 56.739708 
L 334.630659 59.792199 
" clip-path="url(#pb59c59992f)" style="fill: none; stroke: #ff9300; stroke-width: 0.5"/>
   </g>
   <g id="line2d_21">
    <path d="M 58.173841 280.153276 
L 60.966334 279.933054 
L 63.758827 279.805482 
L 66.55132 279.71416 
L 69.343813 279.617917 
L 72.136306 279.488165 
L 74.9288 279.306538 
L 77.721293 279.062808 
L 80.513786 278.753043 
L 83.306279 278.378004 
L 86.098772 277.941771 
L 88.891265 277.450552 
L 91.683758 276.911699 
L 94.476251 276.332884 
L 97.268744 275.721437 
L 100.061238 275.08383 
L 102.853731 274.425287 
L 105.646224 273.749516 
L 108.438717 273.058544 
L 111.23121 272.352641 
L 114.023703 271.630335 
L 116.816196 270.888488 
L 119.608689 270.122439 
L 122.401183 269.326191 
L 125.193676 268.492644 
L 127.986169 267.613855 
L 130.778662 266.681326 
L 133.571155 265.686299 
L 136.363648 264.620071 
L 139.156141 263.474294 
L 141.948634 262.241284 
L 144.741127 260.914306 
L 147.533621 259.487849 
L 150.326114 257.957874 
L 153.118607 256.322038 
L 155.9111 254.579886 
L 158.703593 252.733006 
L 161.496086 250.78515 
L 164.288579 248.74231 
L 167.081072 246.612761 
L 169.873565 244.407044 
L 172.666059 242.137924 
L 175.458552 239.820285 
L 178.251045 237.470993 
L 181.043538 235.108703 
L 183.836031 232.753632 
L 186.628524 230.427281 
L 189.421017 228.152123 
L 192.21351 225.951246 
L 195.006003 223.84797 
L 197.798497 221.865423 
L 200.59099 220.026094 
L 203.383483 218.351362 
L 206.175976 216.861006 
L 208.968469 215.572704 
L 211.760962 214.50152 
L 214.553455 213.659396 
L 217.345948 213.054647 
L 220.138441 212.691471 
L 222.930935 212.56948 
L 225.723428 212.68326 
L 228.515921 213.021975 
L 231.308414 213.569011 
L 234.100907 214.301686 
L 236.8934 215.191024 
L 239.685893 216.201612 
L 242.478386 217.291547 
L 245.270879 218.412481 
L 248.063373 219.509791 
L 250.855866 220.522871 
L 253.648359 221.385565 
L 256.440852 222.026758 
L 259.233345 222.371136 
L 262.025838 222.340136 
L 264.818331 221.853082 
L 267.610824 220.828557 
L 270.403317 219.185992 
L 273.195811 216.847508 
L 275.988304 213.740033 
L 278.780797 209.797692 
L 281.57329 204.964506 
L 284.365783 199.197417 
L 287.158276 192.469645 
L 289.950769 184.774413 
L 292.743262 176.129052 
L 295.535756 166.579507 
L 298.328249 156.205273 
L 301.120742 145.124764 
L 303.913235 133.501166 
L 306.705728 121.548766 
L 309.498221 109.53981 
L 312.290714 97.811885 
L 315.083207 86.775873 
L 317.8757 76.92449 
L 320.668194 68.841436 
L 323.460687 63.211188 
L 326.25318 60.82945 
L 329.045673 62.614305 
L 331.838166 69.618077 
L 334.630659 83.039948 
" clip-path="url(#pb59c59992f)" style="fill: none; stroke: #ff40ff; stroke-width: 0.5"/>
   </g>
   <g id="line2d_22">
    <path d="M 58.173841 279.720282 
L 60.966334 280.169148 
L 63.758827 280.412481 
L 66.55132 280.477354 
L 69.343813 280.38955 
L 72.136306 280.173296 
L 74.9288 279.851038 
L 77.721293 279.443262 
L 80.513786 278.96834 
L 83.306279 278.442427 
L 86.098772 277.879387 
L 88.891265 277.290761 
L 91.683758 276.685763 
L 94.476251 276.071316 
L 97.268744 275.452115 
L 100.061238 274.830721 
L 102.853731 274.20768 
L 105.646224 273.581669 
L 108.438717 272.949667 
L 111.23121 272.307134 
L 114.023703 271.648225 
L 116.816196 270.966001 
L 119.608689 270.252659 
L 122.401183 269.499776 
L 125.193676 268.698542 
L 127.986169 267.840017 
L 130.778662 266.915363 
L 133.571155 265.916098 
L 136.363648 264.83432 
L 139.156141 263.662936 
L 141.948634 262.395879 
L 144.741127 261.028298 
L 147.533621 259.556742 
L 150.326114 257.979323 
L 153.118607 256.295845 
L 155.9111 254.507927 
L 158.703593 252.619079 
L 161.496086 250.634767 
L 164.288579 248.562434 
L 167.081072 246.4115 
L 169.873565 244.193319 
L 172.666059 241.921114 
L 175.458552 239.609864 
L 178.251045 237.276169 
L 181.043538 234.938072 
L 183.836031 232.614847 
L 186.628524 230.326759 
L 189.421017 228.094786 
L 192.21351 225.940309 
L 195.006003 223.884777 
L 197.798497 221.949341 
L 200.59099 220.154463 
L 203.383483 218.519505 
L 206.175976 217.062303 
L 208.968469 215.798718 
L 211.760962 214.742188 
L 214.553455 213.903269 
L 217.345948 213.28918 
L 220.138441 212.903354 
L 222.930935 212.745007 
L 225.723428 212.808723 
L 228.515921 213.084076 
L 231.308414 213.55528 
L 234.100907 214.2009 
L 236.8934 214.99361 
L 239.685893 215.900021 
L 242.478386 216.880594 
L 245.270879 217.889637 
L 248.063373 218.875412 
L 250.855866 219.780358 
L 253.648359 220.541441 
L 256.440852 221.090662 
L 259.233345 221.355716 
L 262.025838 221.260841 
L 264.818331 220.727855 
L 267.610824 219.677415 
L 270.403317 218.030507 
L 273.195811 215.710196 
L 275.988304 212.643645 
L 278.780797 208.764435 
L 281.57329 204.015209 
L 284.365783 198.350659 
L 287.158276 191.740876 
L 289.950769 184.175107 
L 292.743262 175.665927 
L 295.535756 166.253861 
L 298.328249 156.012488 
L 301.120742 145.054058 
L 303.913235 133.535635 
L 306.705728 121.665831 
L 309.498221 109.712136 
L 312.290714 98.008883 
L 315.083207 86.965904 
L 317.8757 77.077887 
L 320.668194 68.934483 
L 323.460687 63.231214 
L 326.25318 60.7812 
L 329.045673 62.527762 
L 331.838166 69.557944 
L 334.630659 83.116986 
" clip-path="url(#pb59c59992f)" style="fill: none; stroke: #7030a0; stroke-width: 0.5"/>
   </g>
   <g id="patch_3">
    <path d="M 44.351 291.33 
L 44.351 44.25 
" style="fill: none; stroke: #f0f0f0; stroke-width: 3; stroke-linejoin: miter; stroke-linecap: square"/>
   </g>
   <g id="patch_4">
    <path d="M 348.4535 291.33 
L 348.4535 44.25 
" style="fill: none; stroke: #f0f0f0; stroke-width: 3; stroke-linejoin: miter; stroke-linecap: square"/>
   </g>
   <g id="patch_5">
    <path d="M 44.351 291.33 
L 348.4535 291.33 
" style="fill: none; stroke: #f0f0f0; stroke-width: 3; stroke-linejoin: miter; stroke-linecap: square"/>
   </g>
   <g id="patch_6">
    <path d="M 44.351 44.25 
L 348.4535 44.25 
" style="fill: none; stroke: #f0f0f0; stroke-width: 3; stroke-linejoin: miter; stroke-linecap: square"/>
   </g>
   <g id="text_15">
    <!-- predictions vs data -->
    <g transform="translate(139.170688 38.25) scale(0.12 -0.12)">
     <defs>
      <path id="DejaVuSans-70" d="M 1159 525 
L 1159 -1331 
L 581 -1331 
L 581 3500 
L 1159 3500 
L 1159 2969 
Q 1341 3281 1617 3432 
Q 1894 3584 2278 3584 
Q 2916 3584 3314 3078 
Q 3713 2572 3713 1747 
Q 3713 922 3314 415 
Q 2916 -91 2278 -91 
Q 1894 -91 1617 61 
Q 1341 213 1159 525 
z
M 3116 1747 
Q 3116 2381 2855 2742 
Q 2594 3103 2138 3103 
Q 1681 3103 1420 2742 
Q 1159 2381 1159 1747 
Q 1159 1113 1420 752 
Q 1681 391 2138 391 
Q 2594 391 2855 752 
Q 3116 1113 3116 1747 
z
" transform="scale(0.015625)"/>
      <path id="DejaVuSans-72" d="M 2631 2963 
Q 2534 3019 2420 3045 
Q 2306 3072 2169 3072 
Q 1681 3072 1420 2755 
Q 1159 2438 1159 1844 
L 1159 0 
L 581 0 
L 581 3500 
L 1159 3500 
L 1159 2956 
Q 1341 3275 1631 3429 
Q 1922 3584 2338 3584 
Q 2397 3584 2469 3576 
Q 2541 3569 2628 3553 
L 2631 2963 
z
" transform="scale(0.015625)"/>
      <path id="DejaVuSans-65" d="M 3597 1894 
L 3597 1613 
L 953 1613 
Q 991 1019 1311 708 
Q 1631 397 2203 397 
Q 2534 397 2845 478 
Q 3156 559 3463 722 
L 3463 178 
Q 3153 47 2828 -22 
Q 2503 -91 2169 -91 
Q 1331 -91 842 396 
Q 353 884 353 1716 
Q 353 2575 817 3079 
Q 1281 3584 2069 3584 
Q 2775 3584 3186 3129 
Q 3597 2675 3597 1894 
z
M 3022 2063 
Q 3016 2534 2758 2815 
Q 2500 3097 2075 3097 
Q 1594 3097 1305 2825 
Q 1016 2553 972 2059 
L 3022 2063 
z
" transform="scale(0.015625)"/>
      <path id="DejaVuSans-64" d="M 2906 2969 
L 2906 4863 
L 3481 4863 
L 3481 0 
L 2906 0 
L 2906 525 
Q 2725 213 2448 61 
Q 2172 -91 1784 -91 
Q 1150 -91 751 415 
Q 353 922 353 1747 
Q 353 2572 751 3078 
Q 1150 3584 1784 3584 
Q 2172 3584 2448 3432 
Q 2725 3281 2906 2969 
z
M 947 1747 
Q 947 1113 1208 752 
Q 1469 391 1925 391 
Q 2381 391 2643 752 
Q 2906 1113 2906 1747 
Q 2906 2381 2643 2742 
Q 2381 3103 1925 3103 
Q 1469 3103 1208 2742 
Q 947 2381 947 1747 
z
" transform="scale(0.015625)"/>
      <path id="DejaVuSans-69" d="M 603 3500 
L 1178 3500 
L 1178 0 
L 603 0 
L 603 3500 
z
M 603 4863 
L 1178 4863 
L 1178 4134 
L 603 4134 
L 603 4863 
z
" transform="scale(0.015625)"/>
      <path id="DejaVuSans-63" d="M 3122 3366 
L 3122 2828 
Q 2878 2963 2633 3030 
Q 2388 3097 2138 3097 
Q 1578 3097 1268 2742 
Q 959 2388 959 1747 
Q 959 1106 1268 751 
Q 1578 397 2138 397 
Q 2388 397 2633 464 
Q 2878 531 3122 666 
L 3122 134 
Q 2881 22 2623 -34 
Q 2366 -91 2075 -91 
Q 1284 -91 818 406 
Q 353 903 353 1747 
Q 353 2603 823 3093 
Q 1294 3584 2113 3584 
Q 2378 3584 2631 3529 
Q 2884 3475 3122 3366 
z
" transform="scale(0.015625)"/>
      <path id="DejaVuSans-74" d="M 1172 4494 
L 1172 3500 
L 2356 3500 
L 2356 3053 
L 1172 3053 
L 1172 1153 
Q 1172 725 1289 603 
Q 1406 481 1766 481 
L 2356 481 
L 2356 0 
L 1766 0 
Q 1100 0 847 248 
Q 594 497 594 1153 
L 594 3053 
L 172 3053 
L 172 3500 
L 594 3500 
L 594 4494 
L 1172 4494 
z
" transform="scale(0.015625)"/>
      <path id="DejaVuSans-6f" d="M 1959 3097 
Q 1497 3097 1228 2736 
Q 959 2375 959 1747 
Q 959 1119 1226 758 
Q 1494 397 1959 397 
Q 2419 397 2687 759 
Q 2956 1122 2956 1747 
Q 2956 2369 2687 2733 
Q 2419 3097 1959 3097 
z
M 1959 3584 
Q 2709 3584 3137 3096 
Q 3566 2609 3566 1747 
Q 3566 888 3137 398 
Q 2709 -91 1959 -91 
Q 1206 -91 779 398 
Q 353 888 353 1747 
Q 353 2609 779 3096 
Q 1206 3584 1959 3584 
z
" transform="scale(0.015625)"/>
      <path id="DejaVuSans-6e" d="M 3513 2113 
L 3513 0 
L 2938 0 
L 2938 2094 
Q 2938 2591 2744 2837 
Q 2550 3084 2163 3084 
Q 1697 3084 1428 2787 
Q 1159 2491 1159 1978 
L 1159 0 
L 581 0 
L 581 3500 
L 1159 3500 
L 1159 2956 
Q 1366 3272 1645 3428 
Q 1925 3584 2291 3584 
Q 2894 3584 3203 3211 
Q 3513 2838 3513 2113 
z
" transform="scale(0.015625)"/>
      <path id="DejaVuSans-73" d="M 2834 3397 
L 2834 2853 
Q 2591 2978 2328 3040 
Q 2066 3103 1784 3103 
Q 1356 3103 1142 2972 
Q 928 2841 928 2578 
Q 928 2378 1081 2264 
Q 1234 2150 1697 2047 
L 1894 2003 
Q 2506 1872 2764 1633 
Q 3022 1394 3022 966 
Q 3022 478 2636 193 
Q 2250 -91 1575 -91 
Q 1294 -91 989 -36 
Q 684 19 347 128 
L 347 722 
Q 666 556 975 473 
Q 1284 391 1588 391 
Q 1994 391 2212 530 
Q 2431 669 2431 922 
Q 2431 1156 2273 1281 
Q 2116 1406 1581 1522 
L 1381 1569 
Q 847 1681 609 1914 
Q 372 2147 372 2553 
Q 372 3047 722 3315 
Q 1072 3584 1716 3584 
Q 2034 3584 2315 3537 
Q 2597 3491 2834 3397 
z
" transform="scale(0.015625)"/>
      <path id="DejaVuSans-20" transform="scale(0.015625)"/>
      <path id="DejaVuSans-76" d="M 191 3500 
L 800 3500 
L 1894 563 
L 2988 3500 
L 3597 3500 
L 2284 0 
L 1503 0 
L 191 3500 
z
" transform="scale(0.015625)"/>
      <path id="DejaVuSans-61" d="M 2194 1759 
Q 1497 1759 1228 1600 
Q 959 1441 959 1056 
Q 959 750 1161 570 
Q 1363 391 1709 391 
Q 2188 391 2477 730 
Q 2766 1069 2766 1631 
L 2766 1759 
L 2194 1759 
z
M 3341 1997 
L 3341 0 
L 2766 0 
L 2766 531 
Q 2569 213 2275 61 
Q 1981 -91 1556 -91 
Q 1019 -91 701 211 
Q 384 513 384 1019 
Q 384 1609 779 1909 
Q 1175 2209 1959 2209 
L 2766 2209 
L 2766 2266 
Q 2766 2663 2505 2880 
Q 2244 3097 1772 3097 
Q 1472 3097 1187 3025 
Q 903 2953 641 2809 
L 641 3341 
Q 956 3463 1253 3523 
Q 1550 3584 1831 3584 
Q 2591 3584 2966 3190 
Q 3341 2797 3341 1997 
z
" transform="scale(0.015625)"/>
     </defs>
     <use xlink:href="#DejaVuSans-70"/>
     <use xlink:href="#DejaVuSans-72" transform="translate(63.476562 0)"/>
     <use xlink:href="#DejaVuSans-65" transform="translate(102.339844 0)"/>
     <use xlink:href="#DejaVuSans-64" transform="translate(163.863281 0)"/>
     <use xlink:href="#DejaVuSans-69" transform="translate(227.339844 0)"/>
     <use xlink:href="#DejaVuSans-63" transform="translate(255.123047 0)"/>
     <use xlink:href="#DejaVuSans-74" transform="translate(310.103516 0)"/>
     <use xlink:href="#DejaVuSans-69" transform="translate(349.3125 0)"/>
     <use xlink:href="#DejaVuSans-6f" transform="translate(377.095703 0)"/>
     <use xlink:href="#DejaVuSans-6e" transform="translate(438.277344 0)"/>
     <use xlink:href="#DejaVuSans-73" transform="translate(501.65625 0)"/>
     <use xlink:href="#DejaVuSans-20" transform="translate(553.755859 0)"/>
     <use xlink:href="#DejaVuSans-76" transform="translate(585.542969 0)"/>
     <use xlink:href="#DejaVuSans-73" transform="translate(644.722656 0)"/>
     <use xlink:href="#DejaVuSans-20" transform="translate(696.822266 0)"/>
     <use xlink:href="#DejaVuSans-64" transform="translate(728.609375 0)"/>
     <use xlink:href="#DejaVuSans-61" transform="translate(792.085938 0)"/>
     <use xlink:href="#DejaVuSans-74" transform="translate(853.365234 0)"/>
     <use xlink:href="#DejaVuSans-61" transform="translate(892.574219 0)"/>
    </g>
   </g>
   <g id="legend_1">
    <g id="patch_7">
     <path d="M 49.951 121.3275 
L 147.12475 121.3275 
Q 148.72475 121.3275 148.72475 119.7275 
L 148.72475 49.85 
Q 148.72475 48.25 147.12475 48.25 
L 49.951 48.25 
Q 48.351 48.25 48.351 49.85 
L 48.351 119.7275 
Q 48.351 121.3275 49.951 121.3275 
z
" style="fill: #ffffff; stroke: #cccccc; stroke-width: 0.5; stroke-linejoin: miter"/>
    </g>
    <g id="line2d_23">
     <path d="M 51.551 54.72875 
L 59.551 54.72875 
L 67.551 54.72875 
" style="fill: none; stroke-dasharray: 3.7,1.6; stroke-dashoffset: 0; stroke: #ff4500"/>
    </g>
    <g id="text_16">
     <!-- y_ideal -->
     <g transform="translate(73.951 57.52875) scale(0.08 -0.08)">
      <defs>
       <path id="DejaVuSans-5f" d="M 3263 -1063 
L 3263 -1509 
L -63 -1509 
L -63 -1063 
L 3263 -1063 
z
" transform="scale(0.015625)"/>
       <path id="DejaVuSans-6c" d="M 603 4863 
L 1178 4863 
L 1178 0 
L 603 0 
L 603 4863 
z
" transform="scale(0.015625)"/>
      </defs>
      <use xlink:href="#DejaVuSans-79"/>
      <use xlink:href="#DejaVuSans-5f" transform="translate(59.179688 0)"/>
      <use xlink:href="#DejaVuSans-69" transform="translate(109.179688 0)"/>
      <use xlink:href="#DejaVuSans-64" transform="translate(136.962891 0)"/>
      <use xlink:href="#DejaVuSans-65" transform="translate(200.439453 0)"/>
      <use xlink:href="#DejaVuSans-61" transform="translate(261.962891 0)"/>
      <use xlink:href="#DejaVuSans-6c" transform="translate(323.242188 0)"/>
     </g>
    </g>
    <g id="PathCollection_3">
     <g>
      <use xlink:href="#md730edc7e3" x="59.551" y="67.39375" style="fill: #ff0000; stroke: #ff0000; stroke-width: 0.5"/>
     </g>
    </g>
    <g id="text_17">
     <!-- train -->
     <g transform="translate(73.951 69.49375) scale(0.08 -0.08)">
      <use xlink:href="#DejaVuSans-74"/>
      <use xlink:href="#DejaVuSans-72" transform="translate(39.208984 0)"/>
      <use xlink:href="#DejaVuSans-61" transform="translate(80.322266 0)"/>
      <use xlink:href="#DejaVuSans-69" transform="translate(141.601562 0)"/>
      <use xlink:href="#DejaVuSans-6e" transform="translate(169.384766 0)"/>
     </g>
    </g>
    <g id="PathCollection_4">
     <g>
      <use xlink:href="#ma9eb2c1c5f" x="59.551" y="79.13625" style="fill: #ff9300; stroke: #ff9300; stroke-width: 0.5"/>
     </g>
    </g>
    <g id="text_18">
     <!-- cv -->
     <g transform="translate(73.951 81.23625) scale(0.08 -0.08)">
      <use xlink:href="#DejaVuSans-63"/>
      <use xlink:href="#DejaVuSans-76" transform="translate(54.980469 0)"/>
     </g>
    </g>
    <g id="line2d_24">
     <path d="M 51.551 90.17875 
L 59.551 90.17875 
L 67.551 90.17875 
" style="fill: none; stroke: #0096ff; stroke-width: 0.5"/>
    </g>
    <g id="text_19">
     <!-- 1 -->
     <g transform="translate(73.951 92.97875) scale(0.08 -0.08)">
      <use xlink:href="#DejaVuSans-31"/>
     </g>
    </g>
    <g id="line2d_25">
     <path d="M 51.551 101.92125 
L 59.551 101.92125 
L 67.551 101.92125 
" style="fill: none; stroke: #ff9300; stroke-width: 0.5"/>
    </g>
    <g id="text_20">
     <!-- 2 -->
     <g transform="translate(73.951 104.72125) scale(0.08 -0.08)">
      <use xlink:href="#DejaVuSans-32"/>
     </g>
    </g>
    <g id="line2d_26">
     <path d="M 51.551 113.66375 
L 59.551 113.66375 
L 67.551 113.66375 
" style="fill: none; stroke: #ff40ff; stroke-width: 0.5"/>
    </g>
    <g id="text_21">
     <!-- 3 -->
     <g transform="translate(73.951 116.46375) scale(0.08 -0.08)">
      <use xlink:href="#DejaVuSans-33"/>
     </g>
    </g>
    <g id="line2d_27">
     <path d="M 118.03475 54.72875 
L 126.03475 54.72875 
L 134.03475 54.72875 
" style="fill: none; stroke: #7030a0; stroke-width: 0.5"/>
    </g>
    <g id="text_22">
     <!-- 4 -->
     <g transform="translate(140.43475 57.52875) scale(0.08 -0.08)">
      <use xlink:href="#DejaVuSans-34"/>
     </g>
    </g>
    <g id="line2d_28">
     <path d="M 118.03475 66.47125 
L 126.03475 66.47125 
L 134.03475 66.47125 
" style="fill: none; stroke: #c00000; stroke-width: 0.5"/>
    </g>
    <g id="text_23">
     <!-- 5 -->
     <g transform="translate(140.43475 69.27125) scale(0.08 -0.08)">
      <use xlink:href="#DejaVuSans-35"/>
     </g>
    </g>
    <g id="line2d_29">
     <path d="M 118.03475 78.21375 
L 126.03475 78.21375 
L 134.03475 78.21375 
" style="fill: none; stroke: #0096ff; stroke-width: 0.5"/>
    </g>
    <g id="text_24">
     <!-- 6 -->
     <g transform="translate(140.43475 81.01375) scale(0.08 -0.08)">
      <defs>
       <path id="DejaVuSans-36" d="M 2113 2584 
Q 1688 2584 1439 2293 
Q 1191 2003 1191 1497 
Q 1191 994 1439 701 
Q 1688 409 2113 409 
Q 2538 409 2786 701 
Q 3034 994 3034 1497 
Q 3034 2003 2786 2293 
Q 2538 2584 2113 2584 
z
M 3366 4563 
L 3366 3988 
Q 3128 4100 2886 4159 
Q 2644 4219 2406 4219 
Q 1781 4219 1451 3797 
Q 1122 3375 1075 2522 
Q 1259 2794 1537 2939 
Q 1816 3084 2150 3084 
Q 2853 3084 3261 2657 
Q 3669 2231 3669 1497 
Q 3669 778 3244 343 
Q 2819 -91 2113 -91 
Q 1303 -91 875 529 
Q 447 1150 447 2328 
Q 447 3434 972 4092 
Q 1497 4750 2381 4750 
Q 2619 4750 2861 4703 
Q 3103 4656 3366 4563 
z
" transform="scale(0.015625)"/>
      </defs>
      <use xlink:href="#DejaVuSans-36"/>
     </g>
    </g>
    <g id="line2d_30">
     <path d="M 118.03475 89.95625 
L 126.03475 89.95625 
L 134.03475 89.95625 
" style="fill: none; stroke: #ff9300; stroke-width: 0.5"/>
    </g>
    <g id="text_25">
     <!-- 7 -->
     <g transform="translate(140.43475 92.75625) scale(0.08 -0.08)">
      <defs>
       <path id="DejaVuSans-37" d="M 525 4666 
L 3525 4666 
L 3525 4397 
L 1831 0 
L 1172 0 
L 2766 4134 
L 525 4134 
L 525 4666 
z
" transform="scale(0.015625)"/>
      </defs>
      <use xlink:href="#DejaVuSans-37"/>
     </g>
    </g>
    <g id="line2d_31">
     <path d="M 118.03475 101.69875 
L 126.03475 101.69875 
L 134.03475 101.69875 
" style="fill: none; stroke: #ff40ff; stroke-width: 0.5"/>
    </g>
    <g id="text_26">
     <!-- 8 -->
     <g transform="translate(140.43475 104.49875) scale(0.08 -0.08)">
      <defs>
       <path id="DejaVuSans-38" d="M 2034 2216 
Q 1584 2216 1326 1975 
Q 1069 1734 1069 1313 
Q 1069 891 1326 650 
Q 1584 409 2034 409 
Q 2484 409 2743 651 
Q 3003 894 3003 1313 
Q 3003 1734 2745 1975 
Q 2488 2216 2034 2216 
z
M 1403 2484 
Q 997 2584 770 2862 
Q 544 3141 544 3541 
Q 544 4100 942 4425 
Q 1341 4750 2034 4750 
Q 2731 4750 3128 4425 
Q 3525 4100 3525 3541 
Q 3525 3141 3298 2862 
Q 3072 2584 2669 2484 
Q 3125 2378 3379 2068 
Q 3634 1759 3634 1313 
Q 3634 634 3220 271 
Q 2806 -91 2034 -91 
Q 1263 -91 848 271 
Q 434 634 434 1313 
Q 434 1759 690 2068 
Q 947 2378 1403 2484 
z
M 1172 3481 
Q 1172 3119 1398 2916 
Q 1625 2713 2034 2713 
Q 2441 2713 2670 2916 
Q 2900 3119 2900 3481 
Q 2900 3844 2670 4047 
Q 2441 4250 2034 4250 
Q 1625 4250 1398 4047 
Q 1172 3844 1172 3481 
z
" transform="scale(0.015625)"/>
      </defs>
      <use xlink:href="#DejaVuSans-38"/>
     </g>
    </g>
    <g id="line2d_32">
     <path d="M 118.03475 113.44125 
L 126.03475 113.44125 
L 134.03475 113.44125 
" style="fill: none; stroke: #7030a0; stroke-width: 0.5"/>
    </g>
    <g id="text_27">
     <!-- 9 -->
     <g transform="translate(140.43475 116.24125) scale(0.08 -0.08)">
      <defs>
       <path id="DejaVuSans-39" d="M 703 97 
L 703 672 
Q 941 559 1184 500 
Q 1428 441 1663 441 
Q 2288 441 2617 861 
Q 2947 1281 2994 2138 
Q 2813 1869 2534 1725 
Q 2256 1581 1919 1581 
Q 1219 1581 811 2004 
Q 403 2428 403 3163 
Q 403 3881 828 4315 
Q 1253 4750 1959 4750 
Q 2769 4750 3195 4129 
Q 3622 3509 3622 2328 
Q 3622 1225 3098 567 
Q 2575 -91 1691 -91 
Q 1453 -91 1209 -44 
Q 966 3 703 97 
z
M 1959 2075 
Q 2384 2075 2632 2365 
Q 2881 2656 2881 3163 
Q 2881 3666 2632 3958 
Q 2384 4250 1959 4250 
Q 1534 4250 1286 3958 
Q 1038 3666 1038 3163 
Q 1038 2656 1286 2365 
Q 1534 2075 1959 2075 
z
" transform="scale(0.015625)"/>
      </defs>
      <use xlink:href="#DejaVuSans-39"/>
     </g>
    </g>
   </g>
  </g>
  <g id="axes_2">
   <g id="patch_8">
    <path d="M 405.18725 291.33 
L 709.28975 291.33 
L 709.28975 44.25 
L 405.18725 44.25 
z
" style="fill: #ffffff"/>
   </g>
   <g id="matplotlib.axis_3">
    <g id="xtick_7">
     <g id="line2d_33"/>
     <g id="text_28">
      <!-- 1 -->
      <g transform="translate(416.465091 300.90875) scale(0.08 -0.08)">
       <use xlink:href="#DejaVuSans-31"/>
      </g>
     </g>
    </g>
    <g id="xtick_8">
     <g id="line2d_34"/>
     <g id="text_29">
      <!-- 2 -->
      <g transform="translate(451.022193 300.90875) scale(0.08 -0.08)">
       <use xlink:href="#DejaVuSans-32"/>
      </g>
     </g>
    </g>
    <g id="xtick_9">
     <g id="line2d_35"/>
     <g id="text_30">
      <!-- 3 -->
      <g transform="translate(485.579295 300.90875) scale(0.08 -0.08)">
       <use xlink:href="#DejaVuSans-33"/>
      </g>
     </g>
    </g>
    <g id="xtick_10">
     <g id="line2d_36"/>
     <g id="text_31">
      <!-- 4 -->
      <g transform="translate(520.136398 300.90875) scale(0.08 -0.08)">
       <use xlink:href="#DejaVuSans-34"/>
      </g>
     </g>
    </g>
    <g id="xtick_11">
     <g id="line2d_37"/>
     <g id="text_32">
      <!-- 5 -->
      <g transform="translate(554.6935 300.90875) scale(0.08 -0.08)">
       <use xlink:href="#DejaVuSans-35"/>
      </g>
     </g>
    </g>
    <g id="xtick_12">
     <g id="line2d_38"/>
     <g id="text_33">
      <!-- 6 -->
      <g transform="translate(589.250602 300.90875) scale(0.08 -0.08)">
       <use xlink:href="#DejaVuSans-36"/>
      </g>
     </g>
    </g>
    <g id="xtick_13">
     <g id="line2d_39"/>
     <g id="text_34">
      <!-- 7 -->
      <g transform="translate(623.807705 300.90875) scale(0.08 -0.08)">
       <use xlink:href="#DejaVuSans-37"/>
      </g>
     </g>
    </g>
    <g id="xtick_14">
     <g id="line2d_40"/>
     <g id="text_35">
      <!-- 8 -->
      <g transform="translate(658.364807 300.90875) scale(0.08 -0.08)">
       <use xlink:href="#DejaVuSans-38"/>
      </g>
     </g>
    </g>
    <g id="xtick_15">
     <g id="line2d_41"/>
     <g id="text_36">
      <!-- 9 -->
      <g transform="translate(692.921909 300.90875) scale(0.08 -0.08)">
       <use xlink:href="#DejaVuSans-39"/>
      </g>
     </g>
    </g>
    <g id="text_37">
     <!-- degree -->
     <g transform="translate(540.41825 313.867) scale(0.096 -0.096)">
      <defs>
       <path id="DejaVuSans-67" d="M 2906 1791 
Q 2906 2416 2648 2759 
Q 2391 3103 1925 3103 
Q 1463 3103 1205 2759 
Q 947 2416 947 1791 
Q 947 1169 1205 825 
Q 1463 481 1925 481 
Q 2391 481 2648 825 
Q 2906 1169 2906 1791 
z
M 3481 434 
Q 3481 -459 3084 -895 
Q 2688 -1331 1869 -1331 
Q 1566 -1331 1297 -1286 
Q 1028 -1241 775 -1147 
L 775 -588 
Q 1028 -725 1275 -790 
Q 1522 -856 1778 -856 
Q 2344 -856 2625 -561 
Q 2906 -266 2906 331 
L 2906 616 
Q 2728 306 2450 153 
Q 2172 0 1784 0 
Q 1141 0 747 490 
Q 353 981 353 1791 
Q 353 2603 747 3093 
Q 1141 3584 1784 3584 
Q 2172 3584 2450 3431 
Q 2728 3278 2906 2969 
L 2906 3500 
L 3481 3500 
L 3481 434 
z
" transform="scale(0.015625)"/>
      </defs>
      <use xlink:href="#DejaVuSans-64"/>
      <use xlink:href="#DejaVuSans-65" transform="translate(63.476562 0)"/>
      <use xlink:href="#DejaVuSans-67" transform="translate(125 0)"/>
      <use xlink:href="#DejaVuSans-72" transform="translate(188.476562 0)"/>
      <use xlink:href="#DejaVuSans-65" transform="translate(227.339844 0)"/>
      <use xlink:href="#DejaVuSans-65" transform="translate(288.863281 0)"/>
     </g>
    </g>
   </g>
   <g id="matplotlib.axis_4">
    <g id="ytick_7">
     <g id="line2d_42"/>
     <g id="text_38">
      <!-- 0 -->
      <g transform="translate(396.59725 289.967354) scale(0.08 -0.08)">
       <use xlink:href="#DejaVuSans-30"/>
      </g>
     </g>
    </g>
    <g id="ytick_8">
     <g id="line2d_43"/>
     <g id="text_39">
      <!-- 20000 -->
      <g transform="translate(376.23725 254.22227) scale(0.08 -0.08)">
       <use xlink:href="#DejaVuSans-32"/>
       <use xlink:href="#DejaVuSans-30" transform="translate(63.623047 0)"/>
       <use xlink:href="#DejaVuSans-30" transform="translate(127.246094 0)"/>
       <use xlink:href="#DejaVuSans-30" transform="translate(190.869141 0)"/>
       <use xlink:href="#DejaVuSans-30" transform="translate(254.492188 0)"/>
      </g>
     </g>
    </g>
    <g id="ytick_9">
     <g id="line2d_44"/>
     <g id="text_40">
      <!-- 40000 -->
      <g transform="translate(376.23725 218.477185) scale(0.08 -0.08)">
       <use xlink:href="#DejaVuSans-34"/>
       <use xlink:href="#DejaVuSans-30" transform="translate(63.623047 0)"/>
       <use xlink:href="#DejaVuSans-30" transform="translate(127.246094 0)"/>
       <use xlink:href="#DejaVuSans-30" transform="translate(190.869141 0)"/>
       <use xlink:href="#DejaVuSans-30" transform="translate(254.492188 0)"/>
      </g>
     </g>
    </g>
    <g id="ytick_10">
     <g id="line2d_45"/>
     <g id="text_41">
      <!-- 60000 -->
      <g transform="translate(376.23725 182.732101) scale(0.08 -0.08)">
       <use xlink:href="#DejaVuSans-36"/>
       <use xlink:href="#DejaVuSans-30" transform="translate(63.623047 0)"/>
       <use xlink:href="#DejaVuSans-30" transform="translate(127.246094 0)"/>
       <use xlink:href="#DejaVuSans-30" transform="translate(190.869141 0)"/>
       <use xlink:href="#DejaVuSans-30" transform="translate(254.492188 0)"/>
      </g>
     </g>
    </g>
    <g id="ytick_11">
     <g id="line2d_46"/>
     <g id="text_42">
      <!-- 80000 -->
      <g transform="translate(376.23725 146.987016) scale(0.08 -0.08)">
       <use xlink:href="#DejaVuSans-38"/>
       <use xlink:href="#DejaVuSans-30" transform="translate(63.623047 0)"/>
       <use xlink:href="#DejaVuSans-30" transform="translate(127.246094 0)"/>
       <use xlink:href="#DejaVuSans-30" transform="translate(190.869141 0)"/>
       <use xlink:href="#DejaVuSans-30" transform="translate(254.492188 0)"/>
      </g>
     </g>
    </g>
    <g id="ytick_12">
     <g id="line2d_47"/>
     <g id="text_43">
      <!-- 100000 -->
      <g transform="translate(371.14725 111.241932) scale(0.08 -0.08)">
       <use xlink:href="#DejaVuSans-31"/>
       <use xlink:href="#DejaVuSans-30" transform="translate(63.623047 0)"/>
       <use xlink:href="#DejaVuSans-30" transform="translate(127.246094 0)"/>
       <use xlink:href="#DejaVuSans-30" transform="translate(190.869141 0)"/>
       <use xlink:href="#DejaVuSans-30" transform="translate(254.492188 0)"/>
       <use xlink:href="#DejaVuSans-30" transform="translate(318.115234 0)"/>
      </g>
     </g>
    </g>
    <g id="ytick_13">
     <g id="line2d_48"/>
     <g id="text_44">
      <!-- 120000 -->
      <g transform="translate(371.14725 75.496847) scale(0.08 -0.08)">
       <use xlink:href="#DejaVuSans-31"/>
       <use xlink:href="#DejaVuSans-32" transform="translate(63.623047 0)"/>
       <use xlink:href="#DejaVuSans-30" transform="translate(127.246094 0)"/>
       <use xlink:href="#DejaVuSans-30" transform="translate(190.869141 0)"/>
       <use xlink:href="#DejaVuSans-30" transform="translate(254.492188 0)"/>
       <use xlink:href="#DejaVuSans-30" transform="translate(318.115234 0)"/>
      </g>
     </g>
    </g>
    <g id="text_45">
     <!-- error -->
     <g transform="translate(365.15075 179.40825) rotate(-90) scale(0.096 -0.096)">
      <use xlink:href="#DejaVuSans-65"/>
      <use xlink:href="#DejaVuSans-72" transform="translate(61.523438 0)"/>
      <use xlink:href="#DejaVuSans-72" transform="translate(100.886719 0)"/>
      <use xlink:href="#DejaVuSans-6f" transform="translate(139.75 0)"/>
      <use xlink:href="#DejaVuSans-72" transform="translate(200.931641 0)"/>
     </g>
    </g>
   </g>
   <g id="line2d_49">
    <path d="M 419.010091 227.814434 
L 453.567193 268.546302 
L 488.124295 271.88882 
L 522.681398 276.968013 
L 557.2385 278.020348 
L 591.795602 278.464676 
L 626.352705 279.76432 
L 660.909807 280.099091 
L 695.466909 280.06452 
" clip-path="url(#p52c1d5a4e6)" style="fill: none; stroke: #0096ff; stroke-width: 2"/>
    <defs>
     <path id="m0ced71aac7" d="M 0 3 
C 0.795609 3 1.55874 2.683901 2.12132 2.12132 
C 2.683901 1.55874 3 0.795609 3 0 
C 3 -0.795609 2.683901 -1.55874 2.12132 -2.12132 
C 1.55874 -2.683901 0.795609 -3 0 -3 
C -0.795609 -3 -1.55874 -2.683901 -2.12132 -2.12132 
C -2.683901 -1.55874 -3 -0.795609 -3 0 
C -3 0.795609 -2.683901 1.55874 -2.12132 2.12132 
C -1.55874 2.683901 -0.795609 3 0 3 
z
" style="stroke: #0096ff"/>
    </defs>
    <g clip-path="url(#p52c1d5a4e6)">
     <use xlink:href="#m0ced71aac7" x="419.010091" y="227.814434" style="fill: #0096ff; stroke: #0096ff"/>
     <use xlink:href="#m0ced71aac7" x="453.567193" y="268.546302" style="fill: #0096ff; stroke: #0096ff"/>
     <use xlink:href="#m0ced71aac7" x="488.124295" y="271.88882" style="fill: #0096ff; stroke: #0096ff"/>
     <use xlink:href="#m0ced71aac7" x="522.681398" y="276.968013" style="fill: #0096ff; stroke: #0096ff"/>
     <use xlink:href="#m0ced71aac7" x="557.2385" y="278.020348" style="fill: #0096ff; stroke: #0096ff"/>
     <use xlink:href="#m0ced71aac7" x="591.795602" y="278.464676" style="fill: #0096ff; stroke: #0096ff"/>
     <use xlink:href="#m0ced71aac7" x="626.352705" y="279.76432" style="fill: #0096ff; stroke: #0096ff"/>
     <use xlink:href="#m0ced71aac7" x="660.909807" y="280.099091" style="fill: #0096ff; stroke: #0096ff"/>
     <use xlink:href="#m0ced71aac7" x="695.466909" y="280.06452" style="fill: #0096ff; stroke: #0096ff"/>
    </g>
   </g>
   <g id="line2d_50">
    <path d="M 419.010091 184.917875 
L 453.567193 216.167393 
L 488.124295 210.66242 
L 522.681398 178.430717 
L 557.2385 172.628719 
L 591.795602 157.014697 
L 626.352705 79.798626 
L 660.909807 55.480909 
L 695.466909 60.80289 
" clip-path="url(#p52c1d5a4e6)" style="fill: none; stroke: #ff9300; stroke-width: 2"/>
    <defs>
     <path id="med4b47098a" d="M 0 3 
C 0.795609 3 1.55874 2.683901 2.12132 2.12132 
C 2.683901 1.55874 3 0.795609 3 0 
C 3 -0.795609 2.683901 -1.55874 2.12132 -2.12132 
C 1.55874 -2.683901 0.795609 -3 0 -3 
C -0.795609 -3 -1.55874 -2.683901 -2.12132 -2.12132 
C -2.683901 -1.55874 -3 -0.795609 -3 0 
C -3 0.795609 -2.683901 1.55874 -2.12132 2.12132 
C -1.55874 2.683901 -0.795609 3 0 3 
z
" style="stroke: #ff9300"/>
    </defs>
    <g clip-path="url(#p52c1d5a4e6)">
     <use xlink:href="#med4b47098a" x="419.010091" y="184.917875" style="fill: #ff9300; stroke: #ff9300"/>
     <use xlink:href="#med4b47098a" x="453.567193" y="216.167393" style="fill: #ff9300; stroke: #ff9300"/>
     <use xlink:href="#med4b47098a" x="488.124295" y="210.66242" style="fill: #ff9300; stroke: #ff9300"/>
     <use xlink:href="#med4b47098a" x="522.681398" y="178.430717" style="fill: #ff9300; stroke: #ff9300"/>
     <use xlink:href="#med4b47098a" x="557.2385" y="172.628719" style="fill: #ff9300; stroke: #ff9300"/>
     <use xlink:href="#med4b47098a" x="591.795602" y="157.014697" style="fill: #ff9300; stroke: #ff9300"/>
     <use xlink:href="#med4b47098a" x="626.352705" y="79.798626" style="fill: #ff9300; stroke: #ff9300"/>
     <use xlink:href="#med4b47098a" x="660.909807" y="55.480909" style="fill: #ff9300; stroke: #ff9300"/>
     <use xlink:href="#med4b47098a" x="695.466909" y="60.80289" style="fill: #ff9300; stroke: #ff9300"/>
    </g>
   </g>
   <g id="line2d_51">
    <path d="M 453.567193 291.33 
L 453.567193 44.25 
" clip-path="url(#p52c1d5a4e6)" style="fill: none; stroke: #ff40ff"/>
   </g>
   <g id="patch_9">
    <path d="M 405.18725 291.33 
L 405.18725 44.25 
" style="fill: none; stroke: #f0f0f0; stroke-width: 3; stroke-linejoin: miter; stroke-linecap: square"/>
   </g>
   <g id="patch_10">
    <path d="M 709.28975 291.33 
L 709.28975 44.25 
" style="fill: none; stroke: #f0f0f0; stroke-width: 3; stroke-linejoin: miter; stroke-linecap: square"/>
   </g>
   <g id="patch_11">
    <path d="M 405.18725 291.33 
L 709.28975 291.33 
" style="fill: none; stroke: #f0f0f0; stroke-width: 3; stroke-linejoin: miter; stroke-linecap: square"/>
   </g>
   <g id="patch_12">
    <path d="M 405.18725 44.25 
L 709.28975 44.25 
" style="fill: none; stroke: #f0f0f0; stroke-width: 3; stroke-linejoin: miter; stroke-linecap: square"/>
   </g>
   <g id="patch_13">
    <path d="M 553.241564 137.921204 
Q 504.403616 140.874008 456.681665 143.759336 
" style="fill: none; stroke: #c00000; stroke-linecap: round"/>
    <path d="M 460.795076 145.514287 
L 456.681665 143.759336 
L 460.553672 141.521578 
" style="fill: none; stroke: #c00000; stroke-linecap: round"/>
   </g>
   <g id="text_46">
    <!-- optimal degree -->
    <g transform="translate(557.2385 138.1404) scale(0.1 -0.1)">
     <defs>
      <path id="DejaVuSans-6d" d="M 3328 2828 
Q 3544 3216 3844 3400 
Q 4144 3584 4550 3584 
Q 5097 3584 5394 3201 
Q 5691 2819 5691 2113 
L 5691 0 
L 5113 0 
L 5113 2094 
Q 5113 2597 4934 2840 
Q 4756 3084 4391 3084 
Q 3944 3084 3684 2787 
Q 3425 2491 3425 1978 
L 3425 0 
L 2847 0 
L 2847 2094 
Q 2847 2600 2669 2842 
Q 2491 3084 2119 3084 
Q 1678 3084 1418 2786 
Q 1159 2488 1159 1978 
L 1159 0 
L 581 0 
L 581 3500 
L 1159 3500 
L 1159 2956 
Q 1356 3278 1631 3431 
Q 1906 3584 2284 3584 
Q 2666 3584 2933 3390 
Q 3200 3197 3328 2828 
z
" transform="scale(0.015625)"/>
     </defs>
     <use xlink:href="#DejaVuSans-6f"/>
     <use xlink:href="#DejaVuSans-70" transform="translate(61.181641 0)"/>
     <use xlink:href="#DejaVuSans-74" transform="translate(124.658203 0)"/>
     <use xlink:href="#DejaVuSans-69" transform="translate(163.867188 0)"/>
     <use xlink:href="#DejaVuSans-6d" transform="translate(191.650391 0)"/>
     <use xlink:href="#DejaVuSans-61" transform="translate(289.0625 0)"/>
     <use xlink:href="#DejaVuSans-6c" transform="translate(350.341797 0)"/>
     <use xlink:href="#DejaVuSans-20" transform="translate(378.125 0)"/>
     <use xlink:href="#DejaVuSans-64" transform="translate(409.912109 0)"/>
     <use xlink:href="#DejaVuSans-65" transform="translate(473.388672 0)"/>
     <use xlink:href="#DejaVuSans-67" transform="translate(534.912109 0)"/>
     <use xlink:href="#DejaVuSans-72" transform="translate(598.388672 0)"/>
     <use xlink:href="#DejaVuSans-65" transform="translate(637.251953 0)"/>
     <use xlink:href="#DejaVuSans-65" transform="translate(698.775391 0)"/>
    </g>
   </g>
   <g id="text_47">
    <!-- error vs degree -->
    <g transform="translate(511.19975 38.25) scale(0.12 -0.12)">
     <use xlink:href="#DejaVuSans-65"/>
     <use xlink:href="#DejaVuSans-72" transform="translate(61.523438 0)"/>
     <use xlink:href="#DejaVuSans-72" transform="translate(100.886719 0)"/>
     <use xlink:href="#DejaVuSans-6f" transform="translate(139.75 0)"/>
     <use xlink:href="#DejaVuSans-72" transform="translate(200.931641 0)"/>
     <use xlink:href="#DejaVuSans-20" transform="translate(242.044922 0)"/>
     <use xlink:href="#DejaVuSans-76" transform="translate(273.832031 0)"/>
     <use xlink:href="#DejaVuSans-73" transform="translate(333.011719 0)"/>
     <use xlink:href="#DejaVuSans-20" transform="translate(385.111328 0)"/>
     <use xlink:href="#DejaVuSans-64" transform="translate(416.898438 0)"/>
     <use xlink:href="#DejaVuSans-65" transform="translate(480.375 0)"/>
     <use xlink:href="#DejaVuSans-67" transform="translate(541.898438 0)"/>
     <use xlink:href="#DejaVuSans-72" transform="translate(605.375 0)"/>
     <use xlink:href="#DejaVuSans-65" transform="translate(644.238281 0)"/>
     <use xlink:href="#DejaVuSans-65" transform="translate(705.761719 0)"/>
    </g>
   </g>
   <g id="legend_2">
    <g id="patch_14">
     <path d="M 637.5635 180.7325 
L 703.68975 180.7325 
Q 705.28975 180.7325 705.28975 179.1325 
L 705.28975 156.4475 
Q 705.28975 154.8475 703.68975 154.8475 
L 637.5635 154.8475 
Q 635.9635 154.8475 635.9635 156.4475 
L 635.9635 179.1325 
Q 635.9635 180.7325 637.5635 180.7325 
z
" style="fill: #ffffff; stroke: #cccccc; stroke-width: 0.5; stroke-linejoin: miter"/>
    </g>
    <g id="line2d_52">
     <path d="M 639.1635 161.32625 
L 647.1635 161.32625 
L 655.1635 161.32625 
" style="fill: none; stroke: #0096ff; stroke-width: 2"/>
     <g>
      <use xlink:href="#m0ced71aac7" x="647.1635" y="161.32625" style="fill: #0096ff; stroke: #0096ff"/>
     </g>
    </g>
    <g id="text_48">
     <!-- train error -->
     <g transform="translate(661.5635 164.12625) scale(0.08 -0.08)">
      <use xlink:href="#DejaVuSans-74"/>
      <use xlink:href="#DejaVuSans-72" transform="translate(39.208984 0)"/>
      <use xlink:href="#DejaVuSans-61" transform="translate(80.322266 0)"/>
      <use xlink:href="#DejaVuSans-69" transform="translate(141.601562 0)"/>
      <use xlink:href="#DejaVuSans-6e" transform="translate(169.384766 0)"/>
      <use xlink:href="#DejaVuSans-20" transform="translate(232.763672 0)"/>
      <use xlink:href="#DejaVuSans-65" transform="translate(264.550781 0)"/>
      <use xlink:href="#DejaVuSans-72" transform="translate(326.074219 0)"/>
      <use xlink:href="#DejaVuSans-72" transform="translate(365.4375 0)"/>
      <use xlink:href="#DejaVuSans-6f" transform="translate(404.300781 0)"/>
      <use xlink:href="#DejaVuSans-72" transform="translate(465.482422 0)"/>
     </g>
    </g>
    <g id="line2d_53">
     <path d="M 639.1635 173.06875 
L 647.1635 173.06875 
L 655.1635 173.06875 
" style="fill: none; stroke: #ff9300; stroke-width: 2"/>
     <g>
      <use xlink:href="#med4b47098a" x="647.1635" y="173.06875" style="fill: #ff9300; stroke: #ff9300"/>
     </g>
    </g>
    <g id="text_49">
     <!-- cv error -->
     <g transform="translate(661.5635 175.86875) scale(0.08 -0.08)">
      <use xlink:href="#DejaVuSans-63"/>
      <use xlink:href="#DejaVuSans-76" transform="translate(54.980469 0)"/>
      <use xlink:href="#DejaVuSans-20" transform="translate(114.160156 0)"/>
      <use xlink:href="#DejaVuSans-65" transform="translate(145.947266 0)"/>
      <use xlink:href="#DejaVuSans-72" transform="translate(207.470703 0)"/>
      <use xlink:href="#DejaVuSans-72" transform="translate(246.833984 0)"/>
      <use xlink:href="#DejaVuSans-6f" transform="translate(285.697266 0)"/>
      <use xlink:href="#DejaVuSans-72" transform="translate(346.878906 0)"/>
     </g>
    </g>
   </g>
  </g>
  <g id="text_50">
   <!-- Find Optimal Degree -->
   <g transform="translate(296.246 16.318125) scale(0.12 -0.12)">
    <defs>
     <path id="DejaVuSans-46" d="M 628 4666 
L 3309 4666 
L 3309 4134 
L 1259 4134 
L 1259 2759 
L 3109 2759 
L 3109 2228 
L 1259 2228 
L 1259 0 
L 628 0 
L 628 4666 
z
" transform="scale(0.015625)"/>
     <path id="DejaVuSans-4f" d="M 2522 4238 
Q 1834 4238 1429 3725 
Q 1025 3213 1025 2328 
Q 1025 1447 1429 934 
Q 1834 422 2522 422 
Q 3209 422 3611 934 
Q 4013 1447 4013 2328 
Q 4013 3213 3611 3725 
Q 3209 4238 2522 4238 
z
M 2522 4750 
Q 3503 4750 4090 4092 
Q 4678 3434 4678 2328 
Q 4678 1225 4090 567 
Q 3503 -91 2522 -91 
Q 1538 -91 948 565 
Q 359 1222 359 2328 
Q 359 3434 948 4092 
Q 1538 4750 2522 4750 
z
" transform="scale(0.015625)"/>
     <path id="DejaVuSans-44" d="M 1259 4147 
L 1259 519 
L 2022 519 
Q 2988 519 3436 956 
Q 3884 1394 3884 2338 
Q 3884 3275 3436 3711 
Q 2988 4147 2022 4147 
L 1259 4147 
z
M 628 4666 
L 1925 4666 
Q 3281 4666 3915 4102 
Q 4550 3538 4550 2338 
Q 4550 1131 3912 565 
Q 3275 0 1925 0 
L 628 0 
L 628 4666 
z
" transform="scale(0.015625)"/>
    </defs>
    <use xlink:href="#DejaVuSans-46"/>
    <use xlink:href="#DejaVuSans-69" transform="translate(50.269531 0)"/>
    <use xlink:href="#DejaVuSans-6e" transform="translate(78.052734 0)"/>
    <use xlink:href="#DejaVuSans-64" transform="translate(141.431641 0)"/>
    <use xlink:href="#DejaVuSans-20" transform="translate(204.908203 0)"/>
    <use xlink:href="#DejaVuSans-4f" transform="translate(236.695312 0)"/>
    <use xlink:href="#DejaVuSans-70" transform="translate(315.40625 0)"/>
    <use xlink:href="#DejaVuSans-74" transform="translate(378.882812 0)"/>
    <use xlink:href="#DejaVuSans-69" transform="translate(418.091797 0)"/>
    <use xlink:href="#DejaVuSans-6d" transform="translate(445.875 0)"/>
    <use xlink:href="#DejaVuSans-61" transform="translate(543.287109 0)"/>
    <use xlink:href="#DejaVuSans-6c" transform="translate(604.566406 0)"/>
    <use xlink:href="#DejaVuSans-20" transform="translate(632.349609 0)"/>
    <use xlink:href="#DejaVuSans-44" transform="translate(664.136719 0)"/>
    <use xlink:href="#DejaVuSans-65" transform="translate(741.138672 0)"/>
    <use xlink:href="#DejaVuSans-67" transform="translate(802.662109 0)"/>
    <use xlink:href="#DejaVuSans-72" transform="translate(866.138672 0)"/>
    <use xlink:href="#DejaVuSans-65" transform="translate(905.001953 0)"/>
    <use xlink:href="#DejaVuSans-65" transform="translate(966.525391 0)"/>
   </g>
  </g>
 </g>
 <defs>
  <clipPath id="pb59c59992f">
   <rect x="44.351" y="44.25" width="304.1025" height="247.08"/>
  </clipPath>
  <clipPath id="p52c1d5a4e6">
   <rect x="405.18725" y="44.25" width="304.1025" height="247.08"/>
  </clipPath>
 </defs>
</svg>
