<?xml version="1.0" encoding="utf-8" standalone="no"?>
<!DOCTYPE svg PUBLIC "-//W3C//DTD SVG 1.1//EN"
  "http://www.w3.org/Graphics/SVG/1.1/DTD/svg11.dtd">
<svg xmlns:xlink="http://www.w3.org/1999/xlink" width="572.48975pt" height="284.9335pt" viewBox="0 0 572.48975 284.9335" xmlns="http://www.w3.org/2000/svg" version="1.1">
 <metadata>
  <rdf:RDF xmlns:dc="http://purl.org/dc/elements/1.1/" xmlns:cc="http://creativecommons.org/ns#" xmlns:rdf="http://www.w3.org/1999/02/22-rdf-syntax-ns#">
   <cc:Work>
    <dc:type rdf:resource="http://purl.org/dc/dcmitype/StillImage"/>
    <dc:date>2026-07-20T23:16:30.874966</dc:date>
    <dc:format>image/svg+xml</dc:format>
    <dc:creator>
     <cc:Agent>
      <dc:title>Matplotlib v3.10.8, https://matplotlib.org/</dc:title>
     </cc:Agent>
    </dc:creator>
   </cc:Work>
  </rdf:RDF>
 </metadata>
 <defs>
  <style type="text/css">*{stroke-linejoin: round; stroke-linecap: butt}</style>
 </defs>
 <g id="figure_1">
  <g id="patch_1">
   <path d="M 0 284.9335 
L 572.48975 284.9335 
L 572.48975 0 
L 0 0 
z
" style="fill: #ffffff"/>
  </g>
  <g id="axes_1">
   <g id="patch_2">
    <path d="M 44.351 253.2 
L 274.174871 253.2 
L 274.174871 44.97 
L 44.351 44.97 
z
" style="fill: #ffffff"/>
   </g>
   <g id="matplotlib.axis_1">
    <g id="xtick_1">
     <g id="line2d_1"/>
     <g id="text_1">
      <!-- 0 -->
      <g transform="translate(52.25254 262.77875) scale(0.08 -0.08)">
       <defs>
        <path id="DejaVuSans-30" d="M 2034 4250 
Q 1547 4250 1301 3770 
Q 1056 3291 1056 2328 
Q 1056 1369 1301 889 
Q 1547 409 2034 409 
Q 2525 409 2770 889 
Q 3016 1369 3016 2328 
Q 3016 3291 2770 3770 
Q 2525 4250 2034 4250 
z
M 2034 4750 
Q 2819 4750 3233 4129 
Q 3647 3509 3647 2328 
Q 3647 1150 3233 529 
Q 2819 -91 2034 -91 
Q 1250 -91 836 529 
Q 422 1150 422 2328 
Q 422 3509 836 4129 
Q 1250 4750 2034 4750 
z
" transform="scale(0.015625)"/>
       </defs>
       <use xlink:href="#DejaVuSans-30"/>
      </g>
     </g>
    </g>
    <g id="xtick_2">
     <g id="line2d_2"/>
     <g id="text_2">
      <!-- 10 -->
      <g transform="translate(93.468554 262.77875) scale(0.08 -0.08)">
       <defs>
        <path id="DejaVuSans-31" d="M 794 531 
L 1825 531 
L 1825 4091 
L 703 3866 
L 703 4441 
L 1819 4666 
L 2450 4666 
L 2450 531 
L 3481 531 
L 3481 0 
L 794 0 
L 794 531 
z
" transform="scale(0.015625)"/>
       </defs>
       <use xlink:href="#DejaVuSans-31"/>
       <use xlink:href="#DejaVuSans-30" transform="translate(63.623047 0)"/>
      </g>
     </g>
    </g>
    <g id="xtick_3">
     <g id="line2d_3"/>
     <g id="text_3">
      <!-- 20 -->
      <g transform="translate(137.229568 262.77875) scale(0.08 -0.08)">
       <defs>
        <path id="DejaVuSans-32" d="M 1228 531 
L 3431 531 
L 3431 0 
L 469 0 
L 469 531 
Q 828 903 1448 1529 
Q 2069 2156 2228 2338 
Q 2531 2678 2651 2914 
Q 2772 3150 2772 3378 
Q 2772 3750 2511 3984 
Q 2250 4219 1831 4219 
Q 1534 4219 1204 4116 
Q 875 4013 500 3803 
L 500 4441 
Q 881 4594 1212 4672 
Q 1544 4750 1819 4750 
Q 2544 4750 2975 4387 
Q 3406 4025 3406 3419 
Q 3406 3131 3298 2873 
Q 3191 2616 2906 2266 
Q 2828 2175 2409 1742 
Q 1991 1309 1228 531 
z
" transform="scale(0.015625)"/>
       </defs>
       <use xlink:href="#DejaVuSans-32"/>
       <use xlink:href="#DejaVuSans-30" transform="translate(63.623047 0)"/>
      </g>
     </g>
    </g>
    <g id="xtick_4">
     <g id="line2d_4"/>
     <g id="text_4">
      <!-- 30 -->
      <g transform="translate(180.990583 262.77875) scale(0.08 -0.08)">
       <defs>
        <path id="DejaVuSans-33" d="M 2597 2516 
Q 3050 2419 3304 2112 
Q 3559 1806 3559 1356 
Q 3559 666 3084 287 
Q 2609 -91 1734 -91 
Q 1441 -91 1130 -33 
Q 819 25 488 141 
L 488 750 
Q 750 597 1062 519 
Q 1375 441 1716 441 
Q 2309 441 2620 675 
Q 2931 909 2931 1356 
Q 2931 1769 2642 2001 
Q 2353 2234 1838 2234 
L 1294 2234 
L 1294 2753 
L 1863 2753 
Q 2328 2753 2575 2939 
Q 2822 3125 2822 3475 
Q 2822 3834 2567 4026 
Q 2313 4219 1838 4219 
Q 1578 4219 1281 4162 
Q 984 4106 628 3988 
L 628 4550 
Q 988 4650 1302 4700 
Q 1616 4750 1894 4750 
Q 2613 4750 3031 4423 
Q 3450 4097 3450 3541 
Q 3450 3153 3228 2886 
Q 3006 2619 2597 2516 
z
" transform="scale(0.015625)"/>
       </defs>
       <use xlink:href="#DejaVuSans-33"/>
       <use xlink:href="#DejaVuSans-30" transform="translate(63.623047 0)"/>
      </g>
     </g>
    </g>
    <g id="xtick_5">
     <g id="line2d_5"/>
     <g id="text_5">
      <!-- 40 -->
      <g transform="translate(224.751597 262.77875) scale(0.08 -0.08)">
       <defs>
        <path id="DejaVuSans-34" d="M 2419 4116 
L 825 1625 
L 2419 1625 
L 2419 4116 
z
M 2253 4666 
L 3047 4666 
L 3047 1625 
L 3713 1625 
L 3713 1100 
L 3047 1100 
L 3047 0 
L 2419 0 
L 2419 1100 
L 313 1100 
L 313 1709 
L 2253 4666 
z
" transform="scale(0.015625)"/>
       </defs>
       <use xlink:href="#DejaVuSans-34"/>
       <use xlink:href="#DejaVuSans-30" transform="translate(63.623047 0)"/>
      </g>
     </g>
    </g>
    <g id="xtick_6">
     <g id="line2d_6"/>
     <g id="text_6">
      <!-- 50 -->
      <g transform="translate(268.512612 262.77875) scale(0.08 -0.08)">
       <defs>
        <path id="DejaVuSans-35" d="M 691 4666 
L 3169 4666 
L 3169 4134 
L 1269 4134 
L 1269 2991 
Q 1406 3038 1543 3061 
Q 1681 3084 1819 3084 
Q 2600 3084 3056 2656 
Q 3513 2228 3513 1497 
Q 3513 744 3044 326 
Q 2575 -91 1722 -91 
Q 1428 -91 1123 -41 
Q 819 9 494 109 
L 494 744 
Q 775 591 1075 516 
Q 1375 441 1709 441 
Q 2250 441 2565 725 
Q 2881 1009 2881 1497 
Q 2881 1984 2565 2268 
Q 2250 2553 1709 2553 
Q 1456 2553 1204 2497 
Q 953 2441 691 2322 
L 691 4666 
z
" transform="scale(0.015625)"/>
       </defs>
       <use xlink:href="#DejaVuSans-35"/>
       <use xlink:href="#DejaVuSans-30" transform="translate(63.623047 0)"/>
      </g>
     </g>
    </g>
    <g id="text_7">
     <!-- x -->
     <g transform="translate(156.421935 275.737) scale(0.096 -0.096)">
      <defs>
       <path id="DejaVuSans-78" d="M 3513 3500 
L 2247 1797 
L 3578 0 
L 2900 0 
L 1881 1375 
L 863 0 
L 184 0 
L 1544 1831 
L 300 3500 
L 978 3500 
L 1906 2253 
L 2834 3500 
L 3513 3500 
z
" transform="scale(0.015625)"/>
      </defs>
      <use xlink:href="#DejaVuSans-78"/>
     </g>
    </g>
   </g>
   <g id="matplotlib.axis_2">
    <g id="ytick_1">
     <g id="line2d_7"/>
     <g id="text_8">
      <!-- 0 -->
      <g transform="translate(35.761 246.774375) scale(0.08 -0.08)">
       <use xlink:href="#DejaVuSans-30"/>
      </g>
     </g>
    </g>
    <g id="ytick_2">
     <g id="line2d_8"/>
     <g id="text_9">
      <!-- 500 -->
      <g transform="translate(25.581 208.952343) scale(0.08 -0.08)">
       <use xlink:href="#DejaVuSans-35"/>
       <use xlink:href="#DejaVuSans-30" transform="translate(63.623047 0)"/>
       <use xlink:href="#DejaVuSans-30" transform="translate(127.246094 0)"/>
      </g>
     </g>
    </g>
    <g id="ytick_3">
     <g id="line2d_9"/>
     <g id="text_10">
      <!-- 1000 -->
      <g transform="translate(20.491 171.130312) scale(0.08 -0.08)">
       <use xlink:href="#DejaVuSans-31"/>
       <use xlink:href="#DejaVuSans-30" transform="translate(63.623047 0)"/>
       <use xlink:href="#DejaVuSans-30" transform="translate(127.246094 0)"/>
       <use xlink:href="#DejaVuSans-30" transform="translate(190.869141 0)"/>
      </g>
     </g>
    </g>
    <g id="ytick_4">
     <g id="line2d_10"/>
     <g id="text_11">
      <!-- 1500 -->
      <g transform="translate(20.491 133.30828) scale(0.08 -0.08)">
       <use xlink:href="#DejaVuSans-31"/>
       <use xlink:href="#DejaVuSans-35" transform="translate(63.623047 0)"/>
       <use xlink:href="#DejaVuSans-30" transform="translate(127.246094 0)"/>
       <use xlink:href="#DejaVuSans-30" transform="translate(190.869141 0)"/>
      </g>
     </g>
    </g>
    <g id="ytick_5">
     <g id="line2d_11"/>
     <g id="text_12">
      <!-- 2000 -->
      <g transform="translate(20.491 95.486249) scale(0.08 -0.08)">
       <use xlink:href="#DejaVuSans-32"/>
       <use xlink:href="#DejaVuSans-30" transform="translate(63.623047 0)"/>
       <use xlink:href="#DejaVuSans-30" transform="translate(127.246094 0)"/>
       <use xlink:href="#DejaVuSans-30" transform="translate(190.869141 0)"/>
      </g>
     </g>
    </g>
    <g id="ytick_6">
     <g id="line2d_12"/>
     <g id="text_13">
      <!-- 2500 -->
      <g transform="translate(20.491 57.664217) scale(0.08 -0.08)">
       <use xlink:href="#DejaVuSans-32"/>
       <use xlink:href="#DejaVuSans-35" transform="translate(63.623047 0)"/>
       <use xlink:href="#DejaVuSans-30" transform="translate(127.246094 0)"/>
       <use xlink:href="#DejaVuSans-30" transform="translate(190.869141 0)"/>
      </g>
     </g>
    </g>
    <g id="text_14">
     <!-- y -->
     <g transform="translate(14.4945 151.926) rotate(-90) scale(0.096 -0.096)">
      <defs>
       <path id="DejaVuSans-79" d="M 2059 -325 
Q 1816 -950 1584 -1140 
Q 1353 -1331 966 -1331 
L 506 -1331 
L 506 -850 
L 844 -850 
Q 1081 -850 1212 -737 
Q 1344 -625 1503 -206 
L 1606 56 
L 191 3500 
L 800 3500 
L 1894 763 
L 2988 3500 
L 3597 3500 
L 2059 -325 
z
" transform="scale(0.015625)"/>
      </defs>
      <use xlink:href="#DejaVuSans-79"/>
     </g>
    </g>
   </g>
   <g id="PathCollection_1">
    <defs>
     <path id="ma990984ab4" d="M 0 3 
C 0.795609 3 1.55874 2.683901 2.12132 2.12132 
C 2.683901 1.55874 3 0.795609 3 0 
C 3 -0.795609 2.683901 -1.55874 2.12132 -2.12132 
C 1.55874 -2.683901 0.795609 -3 0 -3 
C -0.795609 -3 -1.55874 -2.683901 -2.12132 -2.12132 
C -2.683901 -1.55874 -3 -0.795609 -3 0 
C -3 0.795609 -2.683901 1.55874 -2.12132 2.12132 
C -1.55874 2.683901 -0.795609 3 0 3 
z
" style="stroke: #ff0000; stroke-width: 0.5"/>
    </defs>
    <g clip-path="url(#p4d433adb99)">
     <use xlink:href="#ma990984ab4" x="76.790255" y="241.839951" style="fill: #ff0000; stroke: #ff0000; stroke-width: 0.5"/>
     <use xlink:href="#ma990984ab4" x="131.772042" y="214.10631" style="fill: #ff0000; stroke: #ff0000; stroke-width: 0.5"/>
     <use xlink:href="#ma990984ab4" x="109.779327" y="235.298514" style="fill: #ff0000; stroke: #ff0000; stroke-width: 0.5"/>
     <use xlink:href="#ma990984ab4" x="247.233795" y="89.506565" style="fill: #ff0000; stroke: #ff0000; stroke-width: 0.5"/>
     <use xlink:href="#ma990984ab4" x="181.25565" y="191.463179" style="fill: #ff0000; stroke: #ff0000; stroke-width: 0.5"/>
     <use xlink:href="#ma990984ab4" x="186.753829" y="183.25737" style="fill: #ff0000; stroke: #ff0000; stroke-width: 0.5"/>
     <use xlink:href="#ma990984ab4" x="241.735616" y="151.794995" style="fill: #ff0000; stroke: #ff0000; stroke-width: 0.5"/>
     <use xlink:href="#ma990984ab4" x="164.761114" y="192.630229" style="fill: #ff0000; stroke: #ff0000; stroke-width: 0.5"/>
     <use xlink:href="#ma990984ab4" x="153.764757" y="201.558584" style="fill: #ff0000; stroke: #ff0000; stroke-width: 0.5"/>
     <use xlink:href="#ma990984ab4" x="192.252008" y="187.693649" style="fill: #ff0000; stroke: #ff0000; stroke-width: 0.5"/>
     <use xlink:href="#ma990984ab4" x="87.786612" y="238.636122" style="fill: #ff0000; stroke: #ff0000; stroke-width: 0.5"/>
     <use xlink:href="#ma990984ab4" x="126.273863" y="228.381597" style="fill: #ff0000; stroke: #ff0000; stroke-width: 0.5"/>
     <use xlink:href="#ma990984ab4" x="93.284791" y="237.808514" style="fill: #ff0000; stroke: #ff0000; stroke-width: 0.5"/>
     <use xlink:href="#ma990984ab4" x="263.728331" y="54.435" style="fill: #ff0000; stroke: #ff0000; stroke-width: 0.5"/>
     <use xlink:href="#ma990984ab4" x="60.295718" y="243.584603" style="fill: #ff0000; stroke: #ff0000; stroke-width: 0.5"/>
     <use xlink:href="#ma990984ab4" x="142.768399" y="215.001455" style="fill: #ff0000; stroke: #ff0000; stroke-width: 0.5"/>
     <use xlink:href="#ma990984ab4" x="54.79754" y="243.735" style="fill: #ff0000; stroke: #ff0000; stroke-width: 0.5"/>
     <use xlink:href="#ma990984ab4" x="137.270221" y="221.116674" style="fill: #ff0000; stroke: #ff0000; stroke-width: 0.5"/>
     <use xlink:href="#ma990984ab4" x="82.288433" y="240.516263" style="fill: #ff0000; stroke: #ff0000; stroke-width: 0.5"/>
     <use xlink:href="#ma990984ab4" x="115.277506" y="226.874911" style="fill: #ff0000; stroke: #ff0000; stroke-width: 0.5"/>
     <use xlink:href="#ma990984ab4" x="104.281148" y="236.177139" style="fill: #ff0000; stroke: #ff0000; stroke-width: 0.5"/>
     <use xlink:href="#ma990984ab4" x="98.782969" y="237.179833" style="fill: #ff0000; stroke: #ff0000; stroke-width: 0.5"/>
     <use xlink:href="#ma990984ab4" x="120.775684" y="227.246503" style="fill: #ff0000; stroke: #ff0000; stroke-width: 0.5"/>
     <use xlink:href="#ma990984ab4" x="258.230153" y="78.493275" style="fill: #ff0000; stroke: #ff0000; stroke-width: 0.5"/>
    </g>
   </g>
   <g id="PathCollection_2">
    <defs>
     <path id="m7d4d2f2d7b" d="M 0 3 
C 0.795609 3 1.55874 2.683901 2.12132 2.12132 
C 2.683901 1.55874 3 0.795609 3 0 
C 3 -0.795609 2.683901 -1.55874 2.12132 -2.12132 
C 1.55874 -2.683901 0.795609 -3 0 -3 
C -0.795609 -3 -1.55874 -2.683901 -2.12132 -2.12132 
C -2.683901 -1.55874 -3 -0.795609 -3 0 
C -3 0.795609 -2.683901 1.55874 -2.12132 2.12132 
C -1.55874 2.683901 -0.795609 3 0 3 
z
" style="stroke: #ff9300; stroke-width: 0.5"/>
    </defs>
    <g clip-path="url(#p4d433adb99)">
     <use xlink:href="#m7d4d2f2d7b" x="236.237438" y="88.255387" style="fill: #ff9300; stroke: #ff9300; stroke-width: 0.5"/>
     <use xlink:href="#m7d4d2f2d7b" x="65.793897" y="243.35542" style="fill: #ff9300; stroke: #ff9300; stroke-width: 0.5"/>
     <use xlink:href="#m7d4d2f2d7b" x="208.746544" y="119.958715" style="fill: #ff9300; stroke: #ff9300; stroke-width: 0.5"/>
     <use xlink:href="#m7d4d2f2d7b" x="197.750187" y="181.908736" style="fill: #ff9300; stroke: #ff9300; stroke-width: 0.5"/>
     <use xlink:href="#m7d4d2f2d7b" x="159.262935" y="198.219196" style="fill: #ff9300; stroke: #ff9300; stroke-width: 0.5"/>
     <use xlink:href="#m7d4d2f2d7b" x="219.742901" y="172.052088" style="fill: #ff9300; stroke: #ff9300; stroke-width: 0.5"/>
     <use xlink:href="#m7d4d2f2d7b" x="148.266578" y="214.151732" style="fill: #ff9300; stroke: #ff9300; stroke-width: 0.5"/>
     <use xlink:href="#m7d4d2f2d7b" x="214.244723" y="165.215126" style="fill: #ff9300; stroke: #ff9300; stroke-width: 0.5"/>
    </g>
   </g>
   <g id="line2d_13">
    <path d="M 54.79754 242.614172 
L 56.963489 246.11461 
L 59.129438 246.579131 
L 61.295387 245.378281 
L 63.461336 243.463689 
L 65.627286 241.460279 
L 67.793235 239.743595 
L 69.959184 238.503957 
L 72.125133 237.79907 
L 74.291082 237.596543 
L 76.457032 237.807666 
L 78.622981 238.313665 
L 80.78893 238.98554 
L 82.954879 239.698491 
L 85.120828 240.341828 
L 87.286778 240.825172 
L 89.452727 241.08166 
L 91.618676 241.068788 
L 93.784625 240.767452 
L 95.950574 240.179658 
L 98.116524 239.325326 
L 100.282473 238.238543 
L 102.448422 236.963551 
L 104.614371 235.550732 
L 106.78032 234.052768 
L 108.94627 232.52115 
L 111.112219 231.003129 
L 113.278168 229.539212 
L 115.444117 228.161234 
L 117.610066 226.89104 
L 119.776015 225.739765 
L 121.941965 224.707702 
L 124.107914 223.784701 
L 126.273863 222.951072 
L 128.439812 222.178896 
L 130.605761 221.433697 
L 132.771711 220.676383 
L 134.93766 219.865372 
L 137.103609 218.958831 
L 139.269558 217.916931 
L 141.435507 216.704042 
L 143.601457 215.290798 
L 145.767406 213.655949 
L 147.933355 211.787945 
L 150.099304 209.686193 
L 152.265253 207.361939 
L 154.431203 204.838748 
L 156.597152 202.152535 
L 158.763101 199.351162 
L 160.92905 196.49357 
L 163.094999 193.648474 
L 165.260949 190.892633 
L 167.426898 188.308732 
L 169.592847 185.982911 
L 171.758796 184.002003 
L 173.924745 182.45055 
L 176.090695 181.407649 
L 178.256644 180.943733 
L 180.422593 181.117366 
L 182.588542 181.972134 
L 184.754491 183.53376 
L 186.920441 185.807502 
L 189.08639 188.775975 
L 191.252339 192.397462 
L 193.418288 196.60484 
L 195.584237 201.30518 
L 197.750187 206.380122 
L 199.916136 211.687089 
L 202.082085 217.061382 
L 204.248034 222.319217 
L 206.413983 227.261691 
L 208.579933 231.679695 
L 210.745882 235.359717 
L 212.911831 238.090486 
L 215.07778 239.670338 
L 217.243729 239.915179 
L 219.409679 238.666837 
L 221.575628 235.801599 
L 223.741577 231.238616 
L 225.907526 224.947857 
L 228.073475 216.957185 
L 230.239425 207.358102 
L 232.405374 196.309596 
L 234.571323 184.039487 
L 236.737272 170.842542 
L 238.903221 157.074574 
L 241.069171 143.141632 
L 243.23512 129.483281 
L 245.401069 116.548871 
L 247.567018 104.76558 
L 249.732967 94.496887 
L 251.898916 85.990014 
L 254.064866 79.31074 
L 256.230815 74.263824 
L 258.396764 70.297173 
L 260.562713 66.387684 
L 262.728662 60.906556 
L 264.894612 51.461683 
L 267.060561 34.714568 
L 269.22651 6.169 
" clip-path="url(#p4d433adb99)" style="fill: none; stroke: #0096ff; stroke-width: 0.5"/>
   </g>
   <g id="line2d_14">
    <path d="M 54.79754 242.816416 
L 56.963489 242.793177 
L 59.129438 242.778795 
L 61.295387 242.76692 
L 63.461336 242.75137 
L 65.627286 242.726154 
L 67.793235 242.68548 
L 69.959184 242.623783 
L 72.125133 242.535737 
L 74.291082 242.416276 
L 76.457032 242.260611 
L 78.622981 242.06425 
L 80.78893 241.823013 
L 82.954879 241.533052 
L 85.120828 241.190868 
L 87.286778 240.793324 
L 89.452727 240.337666 
L 91.618676 239.821532 
L 93.784625 239.242969 
L 95.950574 238.600443 
L 98.116524 237.892854 
L 100.282473 237.119538 
L 102.448422 236.280281 
L 104.614371 235.375322 
L 106.78032 234.405357 
L 108.94627 233.371537 
L 111.112219 232.275473 
L 113.278168 231.119224 
L 115.444117 229.905299 
L 117.610066 228.636638 
L 119.776015 227.316609 
L 121.941965 225.948984 
L 124.107914 224.537922 
L 126.273863 223.087948 
L 128.439812 221.603926 
L 130.605761 220.091026 
L 132.771711 218.554692 
L 134.93766 217.000607 
L 137.103609 215.434646 
L 139.269558 213.862832 
L 141.435507 212.291291 
L 143.601457 210.726192 
L 145.767406 209.173696 
L 147.933355 207.639892 
L 150.099304 206.130733 
L 152.265253 204.651972 
L 154.431203 203.209087 
L 156.597152 201.80721 
L 158.763101 200.451052 
L 160.92905 199.144825 
L 163.094999 197.89216 
L 165.260949 196.69603 
L 167.426898 195.558663 
L 169.592847 194.481466 
L 171.758796 193.464941 
L 173.924745 192.508603 
L 176.090695 191.610908 
L 178.256644 190.769169 
L 180.422593 189.979493 
L 182.588542 189.236709 
L 184.754491 188.534312 
L 186.920441 187.864404 
L 189.08639 187.217655 
L 191.252339 186.583263 
L 193.418288 185.948934 
L 195.584237 185.300867 
L 197.750187 184.623764 
L 199.916136 183.900844 
L 202.082085 183.113886 
L 204.248034 182.243286 
L 206.413983 181.268139 
L 208.579933 180.166348 
L 210.745882 178.914756 
L 212.911831 177.48931 
L 215.07778 175.86526 
L 217.243729 174.017391 
L 219.409679 171.920295 
L 221.575628 169.548682 
L 223.741577 166.877742 
L 225.907526 163.883549 
L 228.073475 160.543525 
L 230.239425 156.836954 
L 232.405374 152.745559 
L 234.571323 148.254144 
L 236.737272 143.351307 
L 238.903221 138.030222 
L 241.069171 132.289505 
L 243.23512 126.13416 
L 245.401069 119.57662 
L 247.567018 112.637873 
L 249.732967 105.348698 
L 251.898916 97.751005 
L 254.064866 89.899282 
L 256.230815 81.862171 
L 258.396764 73.724161 
L 260.562713 65.587421 
L 262.728662 57.573769 
L 264.894612 49.82679 
L 267.060561 42.514111 
L 269.22651 35.829837 
" clip-path="url(#p4d433adb99)" style="fill: none; stroke: #ff9300; stroke-width: 0.5"/>
   </g>
   <g id="line2d_15">
    <path d="M 54.79754 246.45083 
L 56.963489 245.875476 
L 59.129438 245.292683 
L 61.295387 244.702336 
L 63.461336 244.104318 
L 65.627286 243.49851 
L 67.793235 242.88479 
L 69.959184 242.263033 
L 72.125133 241.633113 
L 74.291082 240.9949 
L 76.457032 240.348261 
L 78.622981 239.693062 
L 80.78893 239.029162 
L 82.954879 238.356422 
L 85.120828 237.674694 
L 87.286778 236.983831 
L 89.452727 236.283678 
L 91.618676 235.574078 
L 93.784625 234.85487 
L 95.950574 234.125886 
L 98.116524 233.386955 
L 100.282473 232.637899 
L 102.448422 231.878535 
L 104.614371 231.108671 
L 106.78032 230.32811 
L 108.94627 229.536648 
L 111.112219 228.734071 
L 113.278168 227.920154 
L 115.444117 227.094666 
L 117.610066 226.257361 
L 119.776015 225.407983 
L 121.941965 224.546263 
L 124.107914 223.671915 
L 126.273863 222.784639 
L 128.439812 221.884115 
L 130.605761 220.970007 
L 132.771711 220.041953 
L 134.93766 219.09957 
L 137.103609 218.142449 
L 139.269558 217.170152 
L 141.435507 216.182208 
L 143.601457 215.178113 
L 145.767406 214.157325 
L 147.933355 213.119258 
L 150.099304 212.063281 
L 152.265253 210.988714 
L 154.431203 209.89482 
L 156.597152 208.7808 
L 158.763101 207.645792 
L 160.92905 206.488859 
L 163.094999 205.308984 
L 165.260949 204.105063 
L 167.426898 202.875899 
L 169.592847 201.620189 
L 171.758796 200.336519 
L 173.924745 199.023351 
L 176.090695 197.679013 
L 178.256644 196.301688 
L 180.422593 194.889402 
L 182.588542 193.440006 
L 184.754491 191.951169 
L 186.920441 190.420357 
L 189.08639 188.844815 
L 191.252339 187.221557 
L 193.418288 185.547336 
L 195.584237 183.818634 
L 197.750187 182.031634 
L 199.916136 180.182196 
L 202.082085 178.265836 
L 204.248034 176.277699 
L 206.413983 174.212526 
L 208.579933 172.064631 
L 210.745882 169.827863 
L 212.911831 167.495575 
L 215.07778 165.060587 
L 217.243729 162.515149 
L 219.409679 159.850897 
L 221.575628 157.058815 
L 223.741577 154.129184 
L 225.907526 151.051537 
L 228.073475 147.814608 
L 230.239425 144.406274 
L 232.405374 140.813502 
L 234.571323 137.022288 
L 236.737272 133.017592 
L 238.903221 128.78327 
L 241.069171 124.302004 
L 243.23512 119.555228 
L 245.401069 114.523048 
L 247.567018 109.18416 
L 249.732967 103.51576 
L 251.898916 97.493458 
L 254.064866 91.091174 
L 256.230815 84.281041 
L 258.396764 77.033299 
L 260.562713 69.316179 
L 262.728662 61.095792 
L 264.894612 52.335998 
L 267.060561 42.998283 
L 269.22651 33.041621 
" clip-path="url(#p4d433adb99)" style="fill: none; stroke: #ff40ff; stroke-width: 0.5"/>
   </g>
   <g id="line2d_16">
    <path d="M 54.79754 224.486036 
L 56.963489 224.333391 
L 59.129438 224.177796 
L 61.295387 224.01916 
L 63.461336 223.857388 
L 65.627286 223.692381 
L 67.793235 223.524037 
L 69.959184 223.352248 
L 72.125133 223.176901 
L 74.291082 222.997879 
L 76.457032 222.81506 
L 78.622981 222.628314 
L 80.78893 222.437508 
L 82.954879 222.2425 
L 85.120828 222.043143 
L 87.286778 221.839283 
L 89.452727 221.630757 
L 91.618676 221.417394 
L 93.784625 221.199016 
L 95.950574 220.975435 
L 98.116524 220.746452 
L 100.282473 220.511859 
L 102.448422 220.271437 
L 104.614371 220.024955 
L 106.78032 219.772169 
L 108.94627 219.51282 
L 111.112219 219.246639 
L 113.278168 218.973337 
L 115.444117 218.692609 
L 117.610066 218.404136 
L 119.776015 218.107575 
L 121.941965 217.802566 
L 124.107914 217.488726 
L 126.273863 217.165648 
L 128.439812 216.8329 
L 130.605761 216.490023 
L 132.771711 216.136529 
L 134.93766 215.771899 
L 137.103609 215.395579 
L 139.269558 215.006979 
L 141.435507 214.605472 
L 143.601457 214.190386 
L 145.767406 213.761006 
L 147.933355 213.316568 
L 150.099304 212.856256 
L 152.265253 212.379197 
L 154.431203 211.884458 
L 156.597152 211.371042 
L 158.763101 210.837881 
L 160.92905 210.283831 
L 163.094999 209.707671 
L 165.260949 209.108089 
L 167.426898 208.483683 
L 169.592847 207.832949 
L 171.758796 207.154277 
L 173.924745 206.44594 
L 176.090695 205.70609 
L 178.256644 204.932745 
L 180.422593 204.123779 
L 182.588542 203.276916 
L 184.754491 202.389716 
L 186.920441 201.459564 
L 189.08639 200.483657 
L 191.252339 199.458994 
L 193.418288 198.382356 
L 195.584237 197.250299 
L 197.750187 196.059131 
L 199.916136 194.804901 
L 202.082085 193.483376 
L 204.248034 192.090027 
L 206.413983 190.620006 
L 208.579933 189.068129 
L 210.745882 187.428846 
L 212.911831 185.696225 
L 215.07778 183.863925 
L 217.243729 181.925167 
L 219.409679 179.87271 
L 221.575628 177.698818 
L 223.741577 175.395231 
L 225.907526 172.953134 
L 228.073475 170.363119 
L 230.239425 167.61515 
L 232.405374 164.698526 
L 234.571323 161.601841 
L 236.737272 158.312937 
L 238.903221 154.818867 
L 241.069171 151.105843 
L 243.23512 147.159187 
L 245.401069 142.963282 
L 247.567018 138.501514 
L 249.732967 133.756221 
L 251.898916 128.708627 
L 254.064866 123.338783 
L 256.230815 117.625499 
L 258.396764 111.54628 
L 260.562713 105.077248 
L 262.728662 98.193072 
L 264.894612 90.866884 
L 267.060561 83.070201 
L 269.22651 74.772838 
" clip-path="url(#p4d433adb99)" style="fill: none; stroke: #7030a0; stroke-width: 0.5"/>
   </g>
   <g id="patch_3">
    <path d="M 44.351 253.2 
L 44.351 44.97 
" style="fill: none; stroke: #f0f0f0; stroke-width: 3; stroke-linejoin: miter; stroke-linecap: square"/>
   </g>
   <g id="patch_4">
    <path d="M 274.174871 253.2 
L 274.174871 44.97 
" style="fill: none; stroke: #f0f0f0; stroke-width: 3; stroke-linejoin: miter; stroke-linecap: square"/>
   </g>
   <g id="patch_5">
    <path d="M 44.351 253.2 
L 274.174871 253.2 
" style="fill: none; stroke: #f0f0f0; stroke-width: 3; stroke-linejoin: miter; stroke-linecap: square"/>
   </g>
   <g id="patch_6">
    <path d="M 44.351 44.97 
L 274.174871 44.97 
" style="fill: none; stroke: #f0f0f0; stroke-width: 3; stroke-linejoin: miter; stroke-linecap: square"/>
   </g>
   <g id="text_15">
    <!-- predictions vs data -->
    <g transform="translate(102.031373 38.97) scale(0.12 -0.12)">
     <defs>
      <path id="DejaVuSans-70" d="M 1159 525 
L 1159 -1331 
L 581 -1331 
L 581 3500 
L 1159 3500 
L 1159 2969 
Q 1341 3281 1617 3432 
Q 1894 3584 2278 3584 
Q 2916 3584 3314 3078 
Q 3713 2572 3713 1747 
Q 3713 922 3314 415 
Q 2916 -91 2278 -91 
Q 1894 -91 1617 61 
Q 1341 213 1159 525 
z
M 3116 1747 
Q 3116 2381 2855 2742 
Q 2594 3103 2138 3103 
Q 1681 3103 1420 2742 
Q 1159 2381 1159 1747 
Q 1159 1113 1420 752 
Q 1681 391 2138 391 
Q 2594 391 2855 752 
Q 3116 1113 3116 1747 
z
" transform="scale(0.015625)"/>
      <path id="DejaVuSans-72" d="M 2631 2963 
Q 2534 3019 2420 3045 
Q 2306 3072 2169 3072 
Q 1681 3072 1420 2755 
Q 1159 2438 1159 1844 
L 1159 0 
L 581 0 
L 581 3500 
L 1159 3500 
L 1159 2956 
Q 1341 3275 1631 3429 
Q 1922 3584 2338 3584 
Q 2397 3584 2469 3576 
Q 2541 3569 2628 3553 
L 2631 2963 
z
" transform="scale(0.015625)"/>
      <path id="DejaVuSans-65" d="M 3597 1894 
L 3597 1613 
L 953 1613 
Q 991 1019 1311 708 
Q 1631 397 2203 397 
Q 2534 397 2845 478 
Q 3156 559 3463 722 
L 3463 178 
Q 3153 47 2828 -22 
Q 2503 -91 2169 -91 
Q 1331 -91 842 396 
Q 353 884 353 1716 
Q 353 2575 817 3079 
Q 1281 3584 2069 3584 
Q 2775 3584 3186 3129 
Q 3597 2675 3597 1894 
z
M 3022 2063 
Q 3016 2534 2758 2815 
Q 2500 3097 2075 3097 
Q 1594 3097 1305 2825 
Q 1016 2553 972 2059 
L 3022 2063 
z
" transform="scale(0.015625)"/>
      <path id="DejaVuSans-64" d="M 2906 2969 
L 2906 4863 
L 3481 4863 
L 3481 0 
L 2906 0 
L 2906 525 
Q 2725 213 2448 61 
Q 2172 -91 1784 -91 
Q 1150 -91 751 415 
Q 353 922 353 1747 
Q 353 2572 751 3078 
Q 1150 3584 1784 3584 
Q 2172 3584 2448 3432 
Q 2725 3281 2906 2969 
z
M 947 1747 
Q 947 1113 1208 752 
Q 1469 391 1925 391 
Q 2381 391 2643 752 
Q 2906 1113 2906 1747 
Q 2906 2381 2643 2742 
Q 2381 3103 1925 3103 
Q 1469 3103 1208 2742 
Q 947 2381 947 1747 
z
" transform="scale(0.015625)"/>
      <path id="DejaVuSans-69" d="M 603 3500 
L 1178 3500 
L 1178 0 
L 603 0 
L 603 3500 
z
M 603 4863 
L 1178 4863 
L 1178 4134 
L 603 4134 
L 603 4863 
z
" transform="scale(0.015625)"/>
      <path id="DejaVuSans-63" d="M 3122 3366 
L 3122 2828 
Q 2878 2963 2633 3030 
Q 2388 3097 2138 3097 
Q 1578 3097 1268 2742 
Q 959 2388 959 1747 
Q 959 1106 1268 751 
Q 1578 397 2138 397 
Q 2388 397 2633 464 
Q 2878 531 3122 666 
L 3122 134 
Q 2881 22 2623 -34 
Q 2366 -91 2075 -91 
Q 1284 -91 818 406 
Q 353 903 353 1747 
Q 353 2603 823 3093 
Q 1294 3584 2113 3584 
Q 2378 3584 2631 3529 
Q 2884 3475 3122 3366 
z
" transform="scale(0.015625)"/>
      <path id="DejaVuSans-74" d="M 1172 4494 
L 1172 3500 
L 2356 3500 
L 2356 3053 
L 1172 3053 
L 1172 1153 
Q 1172 725 1289 603 
Q 1406 481 1766 481 
L 2356 481 
L 2356 0 
L 1766 0 
Q 1100 0 847 248 
Q 594 497 594 1153 
L 594 3053 
L 172 3053 
L 172 3500 
L 594 3500 
L 594 4494 
L 1172 4494 
z
" transform="scale(0.015625)"/>
      <path id="DejaVuSans-6f" d="M 1959 3097 
Q 1497 3097 1228 2736 
Q 959 2375 959 1747 
Q 959 1119 1226 758 
Q 1494 397 1959 397 
Q 2419 397 2687 759 
Q 2956 1122 2956 1747 
Q 2956 2369 2687 2733 
Q 2419 3097 1959 3097 
z
M 1959 3584 
Q 2709 3584 3137 3096 
Q 3566 2609 3566 1747 
Q 3566 888 3137 398 
Q 2709 -91 1959 -91 
Q 1206 -91 779 398 
Q 353 888 353 1747 
Q 353 2609 779 3096 
Q 1206 3584 1959 3584 
z
" transform="scale(0.015625)"/>
      <path id="DejaVuSans-6e" d="M 3513 2113 
L 3513 0 
L 2938 0 
L 2938 2094 
Q 2938 2591 2744 2837 
Q 2550 3084 2163 3084 
Q 1697 3084 1428 2787 
Q 1159 2491 1159 1978 
L 1159 0 
L 581 0 
L 581 3500 
L 1159 3500 
L 1159 2956 
Q 1366 3272 1645 3428 
Q 1925 3584 2291 3584 
Q 2894 3584 3203 3211 
Q 3513 2838 3513 2113 
z
" transform="scale(0.015625)"/>
      <path id="DejaVuSans-73" d="M 2834 3397 
L 2834 2853 
Q 2591 2978 2328 3040 
Q 2066 3103 1784 3103 
Q 1356 3103 1142 2972 
Q 928 2841 928 2578 
Q 928 2378 1081 2264 
Q 1234 2150 1697 2047 
L 1894 2003 
Q 2506 1872 2764 1633 
Q 3022 1394 3022 966 
Q 3022 478 2636 193 
Q 2250 -91 1575 -91 
Q 1294 -91 989 -36 
Q 684 19 347 128 
L 347 722 
Q 666 556 975 473 
Q 1284 391 1588 391 
Q 1994 391 2212 530 
Q 2431 669 2431 922 
Q 2431 1156 2273 1281 
Q 2116 1406 1581 1522 
L 1381 1569 
Q 847 1681 609 1914 
Q 372 2147 372 2553 
Q 372 3047 722 3315 
Q 1072 3584 1716 3584 
Q 2034 3584 2315 3537 
Q 2597 3491 2834 3397 
z
" transform="scale(0.015625)"/>
      <path id="DejaVuSans-20" transform="scale(0.015625)"/>
      <path id="DejaVuSans-76" d="M 191 3500 
L 800 3500 
L 1894 563 
L 2988 3500 
L 3597 3500 
L 2284 0 
L 1503 0 
L 191 3500 
z
" transform="scale(0.015625)"/>
      <path id="DejaVuSans-61" d="M 2194 1759 
Q 1497 1759 1228 1600 
Q 959 1441 959 1056 
Q 959 750 1161 570 
Q 1363 391 1709 391 
Q 2188 391 2477 730 
Q 2766 1069 2766 1631 
L 2766 1759 
L 2194 1759 
z
M 3341 1997 
L 3341 0 
L 2766 0 
L 2766 531 
Q 2569 213 2275 61 
Q 1981 -91 1556 -91 
Q 1019 -91 701 211 
Q 384 513 384 1019 
Q 384 1609 779 1909 
Q 1175 2209 1959 2209 
L 2766 2209 
L 2766 2266 
Q 2766 2663 2505 2880 
Q 2244 3097 1772 3097 
Q 1472 3097 1187 3025 
Q 903 2953 641 2809 
L 641 3341 
Q 956 3463 1253 3523 
Q 1550 3584 1831 3584 
Q 2591 3584 2966 3190 
Q 3341 2797 3341 1997 
z
" transform="scale(0.015625)"/>
     </defs>
     <use xlink:href="#DejaVuSans-70"/>
     <use xlink:href="#DejaVuSans-72" transform="translate(63.476562 0)"/>
     <use xlink:href="#DejaVuSans-65" transform="translate(102.339844 0)"/>
     <use xlink:href="#DejaVuSans-64" transform="translate(163.863281 0)"/>
     <use xlink:href="#DejaVuSans-69" transform="translate(227.339844 0)"/>
     <use xlink:href="#DejaVuSans-63" transform="translate(255.123047 0)"/>
     <use xlink:href="#DejaVuSans-74" transform="translate(310.103516 0)"/>
     <use xlink:href="#DejaVuSans-69" transform="translate(349.3125 0)"/>
     <use xlink:href="#DejaVuSans-6f" transform="translate(377.095703 0)"/>
     <use xlink:href="#DejaVuSans-6e" transform="translate(438.277344 0)"/>
     <use xlink:href="#DejaVuSans-73" transform="translate(501.65625 0)"/>
     <use xlink:href="#DejaVuSans-20" transform="translate(553.755859 0)"/>
     <use xlink:href="#DejaVuSans-76" transform="translate(585.542969 0)"/>
     <use xlink:href="#DejaVuSans-73" transform="translate(644.722656 0)"/>
     <use xlink:href="#DejaVuSans-20" transform="translate(696.822266 0)"/>
     <use xlink:href="#DejaVuSans-64" transform="translate(728.609375 0)"/>
     <use xlink:href="#DejaVuSans-61" transform="translate(792.085938 0)"/>
     <use xlink:href="#DejaVuSans-74" transform="translate(853.365234 0)"/>
     <use xlink:href="#DejaVuSans-61" transform="translate(892.574219 0)"/>
    </g>
   </g>
   <g id="legend_1">
    <g id="patch_7">
     <path d="M 49.951 121.825 
L 118.111 121.825 
Q 119.711 121.825 119.711 120.225 
L 119.711 50.57 
Q 119.711 48.97 118.111 48.97 
L 49.951 48.97 
Q 48.351 48.97 48.351 50.57 
L 48.351 120.225 
Q 48.351 121.825 49.951 121.825 
z
" style="fill: #ffffff; opacity: 0.8; stroke: #cccccc; stroke-width: 0.5; stroke-linejoin: miter"/>
    </g>
    <g id="PathCollection_3">
     <g>
      <use xlink:href="#ma990984ab4" x="59.551" y="56.14875" style="fill: #ff0000; stroke: #ff0000; stroke-width: 0.5"/>
     </g>
    </g>
    <g id="text_16">
     <!-- train -->
     <g transform="translate(73.951 58.24875) scale(0.08 -0.08)">
      <use xlink:href="#DejaVuSans-74"/>
      <use xlink:href="#DejaVuSans-72" transform="translate(39.208984 0)"/>
      <use xlink:href="#DejaVuSans-61" transform="translate(80.322266 0)"/>
      <use xlink:href="#DejaVuSans-69" transform="translate(141.601562 0)"/>
      <use xlink:href="#DejaVuSans-6e" transform="translate(169.384766 0)"/>
     </g>
    </g>
    <g id="PathCollection_4">
     <g>
      <use xlink:href="#m7d4d2f2d7b" x="59.551" y="67.89125" style="fill: #ff9300; stroke: #ff9300; stroke-width: 0.5"/>
     </g>
    </g>
    <g id="text_17">
     <!-- cv -->
     <g transform="translate(73.951 69.99125) scale(0.08 -0.08)">
      <use xlink:href="#DejaVuSans-63"/>
      <use xlink:href="#DejaVuSans-76" transform="translate(54.980469 0)"/>
     </g>
    </g>
    <g id="line2d_17">
     <path d="M 51.551 78.93375 
L 59.551 78.93375 
L 67.551 78.93375 
" style="fill: none; stroke: #0096ff; stroke-width: 0.5"/>
    </g>
    <g id="text_18">
     <!-- $\lambda =$0.0 -->
     <g transform="translate(73.951 81.73375) scale(0.08 -0.08)">
      <defs>
       <path id="DejaVuSans-Oblique-3bb" d="M 2350 4316 
L 3125 0 
L 2516 0 
L 2038 2588 
L 328 0 
L -281 0 
L 1903 3356 
L 1794 3975 
Q 1725 4369 1391 4369 
L 1091 4369 
L 1184 4863 
L 1550 4856 
Q 2253 4847 2350 4316 
z
" transform="scale(0.015625)"/>
       <path id="DejaVuSans-3d" d="M 678 2906 
L 4684 2906 
L 4684 2381 
L 678 2381 
L 678 2906 
z
M 678 1631 
L 4684 1631 
L 4684 1100 
L 678 1100 
L 678 1631 
z
" transform="scale(0.015625)"/>
       <path id="DejaVuSans-2e" d="M 684 794 
L 1344 794 
L 1344 0 
L 684 0 
L 684 794 
z
" transform="scale(0.015625)"/>
      </defs>
      <use xlink:href="#DejaVuSans-Oblique-3bb" transform="translate(0 0.015625)"/>
      <use xlink:href="#DejaVuSans-3d" transform="translate(78.662109 0.015625)"/>
      <use xlink:href="#DejaVuSans-30" transform="translate(181.933594 0.015625)"/>
      <use xlink:href="#DejaVuSans-2e" transform="translate(245.556641 0.015625)"/>
      <use xlink:href="#DejaVuSans-30" transform="translate(277.34375 0.015625)"/>
     </g>
    </g>
    <g id="line2d_18">
     <path d="M 51.551 90.67625 
L 59.551 90.67625 
L 67.551 90.67625 
" style="fill: none; stroke: #ff9300; stroke-width: 0.5"/>
    </g>
    <g id="text_19">
     <!-- $\lambda =$0.0001 -->
     <g transform="translate(73.951 93.47625) scale(0.08 -0.08)">
      <use xlink:href="#DejaVuSans-Oblique-3bb" transform="translate(0 0.015625)"/>
      <use xlink:href="#DejaVuSans-3d" transform="translate(78.662109 0.015625)"/>
      <use xlink:href="#DejaVuSans-30" transform="translate(181.933594 0.015625)"/>
      <use xlink:href="#DejaVuSans-2e" transform="translate(245.556641 0.015625)"/>
      <use xlink:href="#DejaVuSans-30" transform="translate(277.34375 0.015625)"/>
      <use xlink:href="#DejaVuSans-30" transform="translate(340.966797 0.015625)"/>
      <use xlink:href="#DejaVuSans-30" transform="translate(404.589844 0.015625)"/>
      <use xlink:href="#DejaVuSans-31" transform="translate(468.212891 0.015625)"/>
     </g>
    </g>
    <g id="line2d_19">
     <path d="M 51.551 102.41875 
L 59.551 102.41875 
L 67.551 102.41875 
" style="fill: none; stroke: #ff40ff; stroke-width: 0.5"/>
    </g>
    <g id="text_20">
     <!-- $\lambda =$1.0 -->
     <g transform="translate(73.951 105.21875) scale(0.08 -0.08)">
      <use xlink:href="#DejaVuSans-Oblique-3bb" transform="translate(0 0.015625)"/>
      <use xlink:href="#DejaVuSans-3d" transform="translate(78.662109 0.015625)"/>
      <use xlink:href="#DejaVuSans-31" transform="translate(181.933594 0.015625)"/>
      <use xlink:href="#DejaVuSans-2e" transform="translate(245.556641 0.015625)"/>
      <use xlink:href="#DejaVuSans-30" transform="translate(277.34375 0.015625)"/>
     </g>
    </g>
    <g id="line2d_20">
     <path d="M 51.551 114.16125 
L 59.551 114.16125 
L 67.551 114.16125 
" style="fill: none; stroke: #7030a0; stroke-width: 0.5"/>
    </g>
    <g id="text_21">
     <!-- $\lambda =$100.0 -->
     <g transform="translate(73.951 116.96125) scale(0.08 -0.08)">
      <use xlink:href="#DejaVuSans-Oblique-3bb" transform="translate(0 0.015625)"/>
      <use xlink:href="#DejaVuSans-3d" transform="translate(78.662109 0.015625)"/>
      <use xlink:href="#DejaVuSans-31" transform="translate(181.933594 0.015625)"/>
      <use xlink:href="#DejaVuSans-30" transform="translate(245.556641 0.015625)"/>
      <use xlink:href="#DejaVuSans-30" transform="translate(309.179688 0.015625)"/>
      <use xlink:href="#DejaVuSans-2e" transform="translate(372.802734 0.015625)"/>
      <use xlink:href="#DejaVuSans-30" transform="translate(404.589844 0.015625)"/>
     </g>
    </g>
   </g>
  </g>
  <g id="axes_2">
   <g id="patch_8">
    <path d="M 335.465879 253.2 
L 565.28975 253.2 
L 565.28975 44.97 
L 335.465879 44.97 
z
" style="fill: #ffffff"/>
   </g>
   <g id="matplotlib.axis_3">
    <g id="xtick_7">
     <g id="line2d_21"/>
     <g id="text_22">
      <!-- $\mathdefault{10^{-6}}$ -->
      <g transform="translate(336.512419 262.77875) scale(0.08 -0.08)">
       <defs>
        <path id="DejaVuSans-2212" d="M 678 2272 
L 4684 2272 
L 4684 1741 
L 678 1741 
L 678 2272 
z
" transform="scale(0.015625)"/>
        <path id="DejaVuSans-36" d="M 2113 2584 
Q 1688 2584 1439 2293 
Q 1191 2003 1191 1497 
Q 1191 994 1439 701 
Q 1688 409 2113 409 
Q 2538 409 2786 701 
Q 3034 994 3034 1497 
Q 3034 2003 2786 2293 
Q 2538 2584 2113 2584 
z
M 3366 4563 
L 3366 3988 
Q 3128 4100 2886 4159 
Q 2644 4219 2406 4219 
Q 1781 4219 1451 3797 
Q 1122 3375 1075 2522 
Q 1259 2794 1537 2939 
Q 1816 3084 2150 3084 
Q 2853 3084 3261 2657 
Q 3669 2231 3669 1497 
Q 3669 778 3244 343 
Q 2819 -91 2113 -91 
Q 1303 -91 875 529 
Q 447 1150 447 2328 
Q 447 3434 972 4092 
Q 1497 4750 2381 4750 
Q 2619 4750 2861 4703 
Q 3103 4656 3366 4563 
z
" transform="scale(0.015625)"/>
       </defs>
       <use xlink:href="#DejaVuSans-31" transform="translate(0 0.765625)"/>
       <use xlink:href="#DejaVuSans-30" transform="translate(63.623047 0.765625)"/>
       <use xlink:href="#DejaVuSans-2212" transform="translate(128.203125 39.046875) scale(0.7)"/>
       <use xlink:href="#DejaVuSans-36" transform="translate(186.855469 39.046875) scale(0.7)"/>
      </g>
     </g>
    </g>
    <g id="xtick_8">
     <g id="line2d_22"/>
     <g id="text_23">
      <!-- $\mathdefault{10^{-5}}$ -->
      <g transform="translate(362.628768 262.77875) scale(0.08 -0.08)">
       <use xlink:href="#DejaVuSans-31" transform="translate(0 0.684375)"/>
       <use xlink:href="#DejaVuSans-30" transform="translate(63.623047 0.684375)"/>
       <use xlink:href="#DejaVuSans-2212" transform="translate(128.203125 38.965625) scale(0.7)"/>
       <use xlink:href="#DejaVuSans-35" transform="translate(186.855469 38.965625) scale(0.7)"/>
      </g>
     </g>
    </g>
    <g id="xtick_9">
     <g id="line2d_23"/>
     <g id="text_24">
      <!-- $\mathdefault{10^{-4}}$ -->
      <g transform="translate(388.745117 262.77875) scale(0.08 -0.08)">
       <use xlink:href="#DejaVuSans-31" transform="translate(0 0.684375)"/>
       <use xlink:href="#DejaVuSans-30" transform="translate(63.623047 0.684375)"/>
       <use xlink:href="#DejaVuSans-2212" transform="translate(128.203125 38.965625) scale(0.7)"/>
       <use xlink:href="#DejaVuSans-34" transform="translate(186.855469 38.965625) scale(0.7)"/>
      </g>
     </g>
    </g>
    <g id="xtick_10">
     <g id="line2d_24"/>
     <g id="text_25">
      <!-- $\mathdefault{10^{-3}}$ -->
      <g transform="translate(414.861466 262.77875) scale(0.08 -0.08)">
       <use xlink:href="#DejaVuSans-31" transform="translate(0 0.765625)"/>
       <use xlink:href="#DejaVuSans-30" transform="translate(63.623047 0.765625)"/>
       <use xlink:href="#DejaVuSans-2212" transform="translate(128.203125 39.046875) scale(0.7)"/>
       <use xlink:href="#DejaVuSans-33" transform="translate(186.855469 39.046875) scale(0.7)"/>
      </g>
     </g>
    </g>
    <g id="xtick_11">
     <g id="line2d_25"/>
     <g id="text_26">
      <!-- $\mathdefault{10^{-2}}$ -->
      <g transform="translate(440.977815 262.77875) scale(0.08 -0.08)">
       <use xlink:href="#DejaVuSans-31" transform="translate(0 0.765625)"/>
       <use xlink:href="#DejaVuSans-30" transform="translate(63.623047 0.765625)"/>
       <use xlink:href="#DejaVuSans-2212" transform="translate(128.203125 39.046875) scale(0.7)"/>
       <use xlink:href="#DejaVuSans-32" transform="translate(186.855469 39.046875) scale(0.7)"/>
      </g>
     </g>
    </g>
    <g id="xtick_12">
     <g id="line2d_26"/>
     <g id="text_27">
      <!-- $\mathdefault{10^{-1}}$ -->
      <g transform="translate(467.094164 262.77875) scale(0.08 -0.08)">
       <use xlink:href="#DejaVuSans-31" transform="translate(0 0.684375)"/>
       <use xlink:href="#DejaVuSans-30" transform="translate(63.623047 0.684375)"/>
       <use xlink:href="#DejaVuSans-2212" transform="translate(128.203125 38.965625) scale(0.7)"/>
       <use xlink:href="#DejaVuSans-31" transform="translate(186.855469 38.965625) scale(0.7)"/>
      </g>
     </g>
    </g>
    <g id="xtick_13">
     <g id="line2d_27"/>
     <g id="text_28">
      <!-- $\mathdefault{10^{0}}$ -->
      <g transform="translate(495.570512 262.77875) scale(0.08 -0.08)">
       <use xlink:href="#DejaVuSans-31" transform="translate(0 0.765625)"/>
       <use xlink:href="#DejaVuSans-30" transform="translate(63.623047 0.765625)"/>
       <use xlink:href="#DejaVuSans-30" transform="translate(128.203125 39.046875) scale(0.7)"/>
      </g>
     </g>
    </g>
    <g id="xtick_14">
     <g id="line2d_28"/>
     <g id="text_29">
      <!-- $\mathdefault{10^{1}}$ -->
      <g transform="translate(521.686861 262.77875) scale(0.08 -0.08)">
       <use xlink:href="#DejaVuSans-31" transform="translate(0 0.684375)"/>
       <use xlink:href="#DejaVuSans-30" transform="translate(63.623047 0.684375)"/>
       <use xlink:href="#DejaVuSans-31" transform="translate(128.203125 38.965625) scale(0.7)"/>
      </g>
     </g>
    </g>
    <g id="xtick_15">
     <g id="line2d_29"/>
     <g id="text_30">
      <!-- $\mathdefault{10^{2}}$ -->
      <g transform="translate(547.80321 262.77875) scale(0.08 -0.08)">
       <use xlink:href="#DejaVuSans-31" transform="translate(0 0.765625)"/>
       <use xlink:href="#DejaVuSans-30" transform="translate(63.623047 0.765625)"/>
       <use xlink:href="#DejaVuSans-32" transform="translate(128.203125 39.046875) scale(0.7)"/>
      </g>
     </g>
    </g>
    <g id="xtick_16">
     <g id="line2d_30"/>
    </g>
    <g id="xtick_17">
     <g id="line2d_31"/>
    </g>
    <g id="xtick_18">
     <g id="line2d_32"/>
    </g>
    <g id="xtick_19">
     <g id="line2d_33"/>
    </g>
    <g id="xtick_20">
     <g id="line2d_34"/>
    </g>
    <g id="xtick_21">
     <g id="line2d_35"/>
    </g>
    <g id="xtick_22">
     <g id="line2d_36"/>
    </g>
    <g id="xtick_23">
     <g id="line2d_37"/>
    </g>
    <g id="xtick_24">
     <g id="line2d_38"/>
    </g>
    <g id="xtick_25">
     <g id="line2d_39"/>
    </g>
    <g id="xtick_26">
     <g id="line2d_40"/>
    </g>
    <g id="xtick_27">
     <g id="line2d_41"/>
    </g>
    <g id="xtick_28">
     <g id="line2d_42"/>
    </g>
    <g id="xtick_29">
     <g id="line2d_43"/>
    </g>
    <g id="xtick_30">
     <g id="line2d_44"/>
    </g>
    <g id="xtick_31">
     <g id="line2d_45"/>
    </g>
    <g id="xtick_32">
     <g id="line2d_46"/>
    </g>
    <g id="xtick_33">
     <g id="line2d_47"/>
    </g>
    <g id="xtick_34">
     <g id="line2d_48"/>
    </g>
    <g id="xtick_35">
     <g id="line2d_49"/>
    </g>
    <g id="xtick_36">
     <g id="line2d_50"/>
    </g>
    <g id="xtick_37">
     <g id="line2d_51"/>
    </g>
    <g id="xtick_38">
     <g id="line2d_52"/>
    </g>
    <g id="xtick_39">
     <g id="line2d_53"/>
    </g>
    <g id="xtick_40">
     <g id="line2d_54"/>
    </g>
    <g id="xtick_41">
     <g id="line2d_55"/>
    </g>
    <g id="xtick_42">
     <g id="line2d_56"/>
    </g>
    <g id="xtick_43">
     <g id="line2d_57"/>
    </g>
    <g id="xtick_44">
     <g id="line2d_58"/>
    </g>
    <g id="xtick_45">
     <g id="line2d_59"/>
    </g>
    <g id="xtick_46">
     <g id="line2d_60"/>
    </g>
    <g id="xtick_47">
     <g id="line2d_61"/>
    </g>
    <g id="xtick_48">
     <g id="line2d_62"/>
    </g>
    <g id="xtick_49">
     <g id="line2d_63"/>
    </g>
    <g id="xtick_50">
     <g id="line2d_64"/>
    </g>
    <g id="xtick_51">
     <g id="line2d_65"/>
    </g>
    <g id="xtick_52">
     <g id="line2d_66"/>
    </g>
    <g id="xtick_53">
     <g id="line2d_67"/>
    </g>
    <g id="xtick_54">
     <g id="line2d_68"/>
    </g>
    <g id="xtick_55">
     <g id="line2d_69"/>
    </g>
    <g id="xtick_56">
     <g id="line2d_70"/>
    </g>
    <g id="xtick_57">
     <g id="line2d_71"/>
    </g>
    <g id="xtick_58">
     <g id="line2d_72"/>
    </g>
    <g id="xtick_59">
     <g id="line2d_73"/>
    </g>
    <g id="xtick_60">
     <g id="line2d_74"/>
    </g>
    <g id="xtick_61">
     <g id="line2d_75"/>
    </g>
    <g id="xtick_62">
     <g id="line2d_76"/>
    </g>
    <g id="xtick_63">
     <g id="line2d_77"/>
    </g>
    <g id="xtick_64">
     <g id="line2d_78"/>
    </g>
    <g id="xtick_65">
     <g id="line2d_79"/>
    </g>
    <g id="xtick_66">
     <g id="line2d_80"/>
    </g>
    <g id="xtick_67">
     <g id="line2d_81"/>
    </g>
    <g id="xtick_68">
     <g id="line2d_82"/>
    </g>
    <g id="xtick_69">
     <g id="line2d_83"/>
    </g>
    <g id="xtick_70">
     <g id="line2d_84"/>
    </g>
    <g id="xtick_71">
     <g id="line2d_85"/>
    </g>
    <g id="xtick_72">
     <g id="line2d_86"/>
    </g>
    <g id="xtick_73">
     <g id="line2d_87"/>
    </g>
    <g id="xtick_74">
     <g id="line2d_88"/>
    </g>
    <g id="xtick_75">
     <g id="line2d_89"/>
    </g>
    <g id="xtick_76">
     <g id="line2d_90"/>
    </g>
    <g id="xtick_77">
     <g id="line2d_91"/>
    </g>
    <g id="xtick_78">
     <g id="line2d_92"/>
    </g>
    <g id="xtick_79">
     <g id="line2d_93"/>
    </g>
    <g id="xtick_80">
     <g id="line2d_94"/>
    </g>
    <g id="xtick_81">
     <g id="line2d_95"/>
    </g>
    <g id="xtick_82">
     <g id="line2d_96"/>
    </g>
    <g id="xtick_83">
     <g id="line2d_97"/>
    </g>
    <g id="xtick_84">
     <g id="line2d_98"/>
    </g>
    <g id="xtick_85">
     <g id="line2d_99"/>
    </g>
    <g id="xtick_86">
     <g id="line2d_100"/>
    </g>
    <g id="text_31">
     <!-- regularization (lambda) -->
     <g transform="translate(393.975565 275.737) scale(0.096 -0.096)">
      <defs>
       <path id="DejaVuSans-67" d="M 2906 1791 
Q 2906 2416 2648 2759 
Q 2391 3103 1925 3103 
Q 1463 3103 1205 2759 
Q 947 2416 947 1791 
Q 947 1169 1205 825 
Q 1463 481 1925 481 
Q 2391 481 2648 825 
Q 2906 1169 2906 1791 
z
M 3481 434 
Q 3481 -459 3084 -895 
Q 2688 -1331 1869 -1331 
Q 1566 -1331 1297 -1286 
Q 1028 -1241 775 -1147 
L 775 -588 
Q 1028 -725 1275 -790 
Q 1522 -856 1778 -856 
Q 2344 -856 2625 -561 
Q 2906 -266 2906 331 
L 2906 616 
Q 2728 306 2450 153 
Q 2172 0 1784 0 
Q 1141 0 747 490 
Q 353 981 353 1791 
Q 353 2603 747 3093 
Q 1141 3584 1784 3584 
Q 2172 3584 2450 3431 
Q 2728 3278 2906 2969 
L 2906 3500 
L 3481 3500 
L 3481 434 
z
" transform="scale(0.015625)"/>
       <path id="DejaVuSans-75" d="M 544 1381 
L 544 3500 
L 1119 3500 
L 1119 1403 
Q 1119 906 1312 657 
Q 1506 409 1894 409 
Q 2359 409 2629 706 
Q 2900 1003 2900 1516 
L 2900 3500 
L 3475 3500 
L 3475 0 
L 2900 0 
L 2900 538 
Q 2691 219 2414 64 
Q 2138 -91 1772 -91 
Q 1169 -91 856 284 
Q 544 659 544 1381 
z
M 1991 3584 
L 1991 3584 
z
" transform="scale(0.015625)"/>
       <path id="DejaVuSans-6c" d="M 603 4863 
L 1178 4863 
L 1178 0 
L 603 0 
L 603 4863 
z
" transform="scale(0.015625)"/>
       <path id="DejaVuSans-7a" d="M 353 3500 
L 3084 3500 
L 3084 2975 
L 922 459 
L 3084 459 
L 3084 0 
L 275 0 
L 275 525 
L 2438 3041 
L 353 3041 
L 353 3500 
z
" transform="scale(0.015625)"/>
       <path id="DejaVuSans-28" d="M 1984 4856 
Q 1566 4138 1362 3434 
Q 1159 2731 1159 2009 
Q 1159 1288 1364 580 
Q 1569 -128 1984 -844 
L 1484 -844 
Q 1016 -109 783 600 
Q 550 1309 550 2009 
Q 550 2706 781 3412 
Q 1013 4119 1484 4856 
L 1984 4856 
z
" transform="scale(0.015625)"/>
       <path id="DejaVuSans-6d" d="M 3328 2828 
Q 3544 3216 3844 3400 
Q 4144 3584 4550 3584 
Q 5097 3584 5394 3201 
Q 5691 2819 5691 2113 
L 5691 0 
L 5113 0 
L 5113 2094 
Q 5113 2597 4934 2840 
Q 4756 3084 4391 3084 
Q 3944 3084 3684 2787 
Q 3425 2491 3425 1978 
L 3425 0 
L 2847 0 
L 2847 2094 
Q 2847 2600 2669 2842 
Q 2491 3084 2119 3084 
Q 1678 3084 1418 2786 
Q 1159 2488 1159 1978 
L 1159 0 
L 581 0 
L 581 3500 
L 1159 3500 
L 1159 2956 
Q 1356 3278 1631 3431 
Q 1906 3584 2284 3584 
Q 2666 3584 2933 3390 
Q 3200 3197 3328 2828 
z
" transform="scale(0.015625)"/>
       <path id="DejaVuSans-62" d="M 3116 1747 
Q 3116 2381 2855 2742 
Q 2594 3103 2138 3103 
Q 1681 3103 1420 2742 
Q 1159 2381 1159 1747 
Q 1159 1113 1420 752 
Q 1681 391 2138 391 
Q 2594 391 2855 752 
Q 3116 1113 3116 1747 
z
M 1159 2969 
Q 1341 3281 1617 3432 
Q 1894 3584 2278 3584 
Q 2916 3584 3314 3078 
Q 3713 2572 3713 1747 
Q 3713 922 3314 415 
Q 2916 -91 2278 -91 
Q 1894 -91 1617 61 
Q 1341 213 1159 525 
L 1159 0 
L 581 0 
L 581 4863 
L 1159 4863 
L 1159 2969 
z
" transform="scale(0.015625)"/>
       <path id="DejaVuSans-29" d="M 513 4856 
L 1013 4856 
Q 1481 4119 1714 3412 
Q 1947 2706 1947 2009 
Q 1947 1309 1714 600 
Q 1481 -109 1013 -844 
L 513 -844 
Q 928 -128 1133 580 
Q 1338 1288 1338 2009 
Q 1338 2731 1133 3434 
Q 928 4138 513 4856 
z
" transform="scale(0.015625)"/>
      </defs>
      <use xlink:href="#DejaVuSans-72"/>
      <use xlink:href="#DejaVuSans-65" transform="translate(38.863281 0)"/>
      <use xlink:href="#DejaVuSans-67" transform="translate(100.386719 0)"/>
      <use xlink:href="#DejaVuSans-75" transform="translate(163.863281 0)"/>
      <use xlink:href="#DejaVuSans-6c" transform="translate(227.242188 0)"/>
      <use xlink:href="#DejaVuSans-61" transform="translate(255.025391 0)"/>
      <use xlink:href="#DejaVuSans-72" transform="translate(316.304688 0)"/>
      <use xlink:href="#DejaVuSans-69" transform="translate(357.417969 0)"/>
      <use xlink:href="#DejaVuSans-7a" transform="translate(385.201172 0)"/>
      <use xlink:href="#DejaVuSans-61" transform="translate(437.691406 0)"/>
      <use xlink:href="#DejaVuSans-74" transform="translate(498.970703 0)"/>
      <use xlink:href="#DejaVuSans-69" transform="translate(538.179688 0)"/>
      <use xlink:href="#DejaVuSans-6f" transform="translate(565.962891 0)"/>
      <use xlink:href="#DejaVuSans-6e" transform="translate(627.144531 0)"/>
      <use xlink:href="#DejaVuSans-20" transform="translate(690.523438 0)"/>
      <use xlink:href="#DejaVuSans-28" transform="translate(722.310547 0)"/>
      <use xlink:href="#DejaVuSans-6c" transform="translate(761.324219 0)"/>
      <use xlink:href="#DejaVuSans-61" transform="translate(789.107422 0)"/>
      <use xlink:href="#DejaVuSans-6d" transform="translate(850.386719 0)"/>
      <use xlink:href="#DejaVuSans-62" transform="translate(947.798828 0)"/>
      <use xlink:href="#DejaVuSans-64" transform="translate(1011.275391 0)"/>
      <use xlink:href="#DejaVuSans-61" transform="translate(1074.751953 0)"/>
      <use xlink:href="#DejaVuSans-29" transform="translate(1136.03125 0)"/>
     </g>
    </g>
   </g>
   <g id="matplotlib.axis_4">
    <g id="ytick_7">
     <g id="line2d_101"/>
     <g id="text_32">
      <!-- 0 -->
      <g transform="translate(326.875879 248.528327) scale(0.08 -0.08)">
       <use xlink:href="#DejaVuSans-30"/>
      </g>
     </g>
    </g>
    <g id="ytick_8">
     <g id="line2d_102"/>
     <g id="text_33">
      <!-- 50000 -->
      <g transform="translate(306.515879 219.735299) scale(0.08 -0.08)">
       <use xlink:href="#DejaVuSans-35"/>
       <use xlink:href="#DejaVuSans-30" transform="translate(63.623047 0)"/>
       <use xlink:href="#DejaVuSans-30" transform="translate(127.246094 0)"/>
       <use xlink:href="#DejaVuSans-30" transform="translate(190.869141 0)"/>
       <use xlink:href="#DejaVuSans-30" transform="translate(254.492188 0)"/>
      </g>
     </g>
    </g>
    <g id="ytick_9">
     <g id="line2d_103"/>
     <g id="text_34">
      <!-- 100000 -->
      <g transform="translate(301.425879 190.942271) scale(0.08 -0.08)">
       <use xlink:href="#DejaVuSans-31"/>
       <use xlink:href="#DejaVuSans-30" transform="translate(63.623047 0)"/>
       <use xlink:href="#DejaVuSans-30" transform="translate(127.246094 0)"/>
       <use xlink:href="#DejaVuSans-30" transform="translate(190.869141 0)"/>
       <use xlink:href="#DejaVuSans-30" transform="translate(254.492188 0)"/>
       <use xlink:href="#DejaVuSans-30" transform="translate(318.115234 0)"/>
      </g>
     </g>
    </g>
    <g id="ytick_10">
     <g id="line2d_104"/>
     <g id="text_35">
      <!-- 150000 -->
      <g transform="translate(301.425879 162.149243) scale(0.08 -0.08)">
       <use xlink:href="#DejaVuSans-31"/>
       <use xlink:href="#DejaVuSans-35" transform="translate(63.623047 0)"/>
       <use xlink:href="#DejaVuSans-30" transform="translate(127.246094 0)"/>
       <use xlink:href="#DejaVuSans-30" transform="translate(190.869141 0)"/>
       <use xlink:href="#DejaVuSans-30" transform="translate(254.492188 0)"/>
       <use xlink:href="#DejaVuSans-30" transform="translate(318.115234 0)"/>
      </g>
     </g>
    </g>
    <g id="ytick_11">
     <g id="line2d_105"/>
     <g id="text_36">
      <!-- 200000 -->
      <g transform="translate(301.425879 133.356215) scale(0.08 -0.08)">
       <use xlink:href="#DejaVuSans-32"/>
       <use xlink:href="#DejaVuSans-30" transform="translate(63.623047 0)"/>
       <use xlink:href="#DejaVuSans-30" transform="translate(127.246094 0)"/>
       <use xlink:href="#DejaVuSans-30" transform="translate(190.869141 0)"/>
       <use xlink:href="#DejaVuSans-30" transform="translate(254.492188 0)"/>
       <use xlink:href="#DejaVuSans-30" transform="translate(318.115234 0)"/>
      </g>
     </g>
    </g>
    <g id="ytick_12">
     <g id="line2d_106"/>
     <g id="text_37">
      <!-- 250000 -->
      <g transform="translate(301.425879 104.563188) scale(0.08 -0.08)">
       <use xlink:href="#DejaVuSans-32"/>
       <use xlink:href="#DejaVuSans-35" transform="translate(63.623047 0)"/>
       <use xlink:href="#DejaVuSans-30" transform="translate(127.246094 0)"/>
       <use xlink:href="#DejaVuSans-30" transform="translate(190.869141 0)"/>
       <use xlink:href="#DejaVuSans-30" transform="translate(254.492188 0)"/>
       <use xlink:href="#DejaVuSans-30" transform="translate(318.115234 0)"/>
      </g>
     </g>
    </g>
    <g id="ytick_13">
     <g id="line2d_107"/>
     <g id="text_38">
      <!-- 300000 -->
      <g transform="translate(301.425879 75.77016) scale(0.08 -0.08)">
       <use xlink:href="#DejaVuSans-33"/>
       <use xlink:href="#DejaVuSans-30" transform="translate(63.623047 0)"/>
       <use xlink:href="#DejaVuSans-30" transform="translate(127.246094 0)"/>
       <use xlink:href="#DejaVuSans-30" transform="translate(190.869141 0)"/>
       <use xlink:href="#DejaVuSans-30" transform="translate(254.492188 0)"/>
       <use xlink:href="#DejaVuSans-30" transform="translate(318.115234 0)"/>
      </g>
     </g>
    </g>
    <g id="text_39">
     <!-- error -->
     <g transform="translate(295.429379 160.70325) rotate(-90) scale(0.096 -0.096)">
      <use xlink:href="#DejaVuSans-65"/>
      <use xlink:href="#DejaVuSans-72" transform="translate(61.523438 0)"/>
      <use xlink:href="#DejaVuSans-72" transform="translate(100.886719 0)"/>
      <use xlink:href="#DejaVuSans-6f" transform="translate(139.75 0)"/>
      <use xlink:href="#DejaVuSans-72" transform="translate(200.931641 0)"/>
     </g>
    </g>
   </g>
   <g id="line2d_108">
    <path d="M -1 243.251448 
L 345.912419 243.244899 
L 372.028768 243.143884 
L 398.145117 242.893682 
L 424.261466 242.631281 
L 450.377815 242.450868 
L 476.494164 242.242906 
L 502.610512 241.856097 
L 528.726861 240.452266 
L 554.84321 225.913066 
" clip-path="url(#pdd5807a594)" style="fill: none; stroke: #0096ff; stroke-width: 4"/>
   </g>
   <g id="line2d_109">
    <path d="M -1 177.560408 
L 345.912419 179.228083 
L 372.028768 188.481285 
L 398.145117 201.681776 
L 424.261466 208.492535 
L 450.377815 211.557652 
L 476.494164 212.666901 
L 502.610512 213.838845 
L 528.726861 206.270205 
L 554.84321 176.600815 
" clip-path="url(#pdd5807a594)" style="fill: none; stroke: #ff9300; stroke-width: 4"/>
   </g>
   <g id="LineCollection_1">
    <path d="M 502.610512 253.2 
L 502.610512 44.97 
" clip-path="url(#pdd5807a594)" style="fill: none; stroke: #000000"/>
   </g>
   <g id="patch_9">
    <path d="M 335.465879 253.2 
L 335.465879 44.97 
" style="fill: none; stroke: #f0f0f0; stroke-width: 3; stroke-linejoin: miter; stroke-linecap: square"/>
   </g>
   <g id="patch_10">
    <path d="M 565.28975 253.2 
L 565.28975 44.97 
" style="fill: none; stroke: #f0f0f0; stroke-width: 3; stroke-linejoin: miter; stroke-linecap: square"/>
   </g>
   <g id="patch_11">
    <path d="M 335.465879 253.2 
L 565.28975 253.2 
" style="fill: none; stroke: #f0f0f0; stroke-width: 3; stroke-linejoin: miter; stroke-linecap: square"/>
   </g>
   <g id="patch_12">
    <path d="M 335.465879 44.97 
L 565.28975 44.97 
" style="fill: none; stroke: #f0f0f0; stroke-width: 3; stroke-linejoin: miter; stroke-linecap: square"/>
   </g>
   <g id="patch_13">
    <path d="M 479.506802 152.483561 
Q 488.243961 154.67751 496.981121 156.87146 
L 497.273375 155.707593 
Q 498.970697 157.164845 500.668019 158.622097 
Q 498.483607 159.104624 496.299196 159.587151 
L 496.591449 158.423284 
Q 487.85429 156.229334 479.11713 154.035384 
L 479.506802 152.483561 
z
" style="fill: #0096ff; stroke: #f0f0f0; stroke-width: 0.5; stroke-linecap: round"/>
   </g>
   <g id="text_40">
    <!-- optimal lambda -->
    <g transform="translate(422.610512 149.109868) scale(0.08 -0.08)">
     <use xlink:href="#DejaVuSans-6f"/>
     <use xlink:href="#DejaVuSans-70" transform="translate(61.181641 0)"/>
     <use xlink:href="#DejaVuSans-74" transform="translate(124.658203 0)"/>
     <use xlink:href="#DejaVuSans-69" transform="translate(163.867188 0)"/>
     <use xlink:href="#DejaVuSans-6d" transform="translate(191.650391 0)"/>
     <use xlink:href="#DejaVuSans-61" transform="translate(289.0625 0)"/>
     <use xlink:href="#DejaVuSans-6c" transform="translate(350.341797 0)"/>
     <use xlink:href="#DejaVuSans-20" transform="translate(378.125 0)"/>
     <use xlink:href="#DejaVuSans-6c" transform="translate(409.912109 0)"/>
     <use xlink:href="#DejaVuSans-61" transform="translate(437.695312 0)"/>
     <use xlink:href="#DejaVuSans-6d" transform="translate(498.974609 0)"/>
     <use xlink:href="#DejaVuSans-62" transform="translate(596.386719 0)"/>
     <use xlink:href="#DejaVuSans-64" transform="translate(659.863281 0)"/>
     <use xlink:href="#DejaVuSans-61" transform="translate(723.339844 0)"/>
    </g>
   </g>
   <g id="text_41">
    <!-- High -->
    <g style="fill: #0096ff" transform="translate(346.957073 148.141425) scale(0.12 -0.12)">
     <defs>
      <path id="DejaVuSans-48" d="M 628 4666 
L 1259 4666 
L 1259 2753 
L 3553 2753 
L 3553 4666 
L 4184 4666 
L 4184 0 
L 3553 0 
L 3553 2222 
L 1259 2222 
L 1259 0 
L 628 0 
L 628 4666 
z
" transform="scale(0.015625)"/>
      <path id="DejaVuSans-68" d="M 3513 2113 
L 3513 0 
L 2938 0 
L 2938 2094 
Q 2938 2591 2744 2837 
Q 2550 3084 2163 3084 
Q 1697 3084 1428 2787 
Q 1159 2491 1159 1978 
L 1159 0 
L 581 0 
L 581 4863 
L 1159 4863 
L 1159 2956 
Q 1366 3272 1645 3428 
Q 1925 3584 2291 3584 
Q 2894 3584 3203 3211 
Q 3513 2838 3513 2113 
z
" transform="scale(0.015625)"/>
     </defs>
     <use xlink:href="#DejaVuSans-48"/>
     <use xlink:href="#DejaVuSans-69" transform="translate(75.195312 0)"/>
     <use xlink:href="#DejaVuSans-67" transform="translate(102.978516 0)"/>
     <use xlink:href="#DejaVuSans-68" transform="translate(166.455078 0)"/>
    </g>
    <!-- Variance -->
    <g style="fill: #0096ff" transform="translate(346.957073 161.5788) scale(0.12 -0.12)">
     <defs>
      <path id="DejaVuSans-56" d="M 1831 0 
L 50 4666 
L 709 4666 
L 2188 738 
L 3669 4666 
L 4325 4666 
L 2547 0 
L 1831 0 
z
" transform="scale(0.015625)"/>
     </defs>
     <use xlink:href="#DejaVuSans-56"/>
     <use xlink:href="#DejaVuSans-61" transform="translate(60.658203 0)"/>
     <use xlink:href="#DejaVuSans-72" transform="translate(121.9375 0)"/>
     <use xlink:href="#DejaVuSans-69" transform="translate(163.050781 0)"/>
     <use xlink:href="#DejaVuSans-61" transform="translate(190.833984 0)"/>
     <use xlink:href="#DejaVuSans-6e" transform="translate(252.113281 0)"/>
     <use xlink:href="#DejaVuSans-63" transform="translate(315.492188 0)"/>
     <use xlink:href="#DejaVuSans-65" transform="translate(370.472656 0)"/>
    </g>
   </g>
   <g id="text_42">
    <!-- High -->
    <g style="fill: #0096ff" transform="translate(526.217306 148.141425) scale(0.12 -0.12)">
     <use xlink:href="#DejaVuSans-48"/>
     <use xlink:href="#DejaVuSans-69" transform="translate(75.195312 0)"/>
     <use xlink:href="#DejaVuSans-67" transform="translate(102.978516 0)"/>
     <use xlink:href="#DejaVuSans-68" transform="translate(166.455078 0)"/>
    </g>
    <!-- Bias -->
    <g style="fill: #0096ff" transform="translate(528.626681 161.5788) scale(0.12 -0.12)">
     <defs>
      <path id="DejaVuSans-42" d="M 1259 2228 
L 1259 519 
L 2272 519 
Q 2781 519 3026 730 
Q 3272 941 3272 1375 
Q 3272 1813 3026 2020 
Q 2781 2228 2272 2228 
L 1259 2228 
z
M 1259 4147 
L 1259 2741 
L 2194 2741 
Q 2656 2741 2882 2914 
Q 3109 3088 3109 3444 
Q 3109 3797 2882 3972 
Q 2656 4147 2194 4147 
L 1259 4147 
z
M 628 4666 
L 2241 4666 
Q 2963 4666 3353 4366 
Q 3744 4066 3744 3513 
Q 3744 3084 3544 2831 
Q 3344 2578 2956 2516 
Q 3422 2416 3680 2098 
Q 3938 1781 3938 1306 
Q 3938 681 3513 340 
Q 3088 0 2303 0 
L 628 0 
L 628 4666 
z
" transform="scale(0.015625)"/>
     </defs>
     <use xlink:href="#DejaVuSans-42"/>
     <use xlink:href="#DejaVuSans-69" transform="translate(68.603516 0)"/>
     <use xlink:href="#DejaVuSans-61" transform="translate(96.386719 0)"/>
     <use xlink:href="#DejaVuSans-73" transform="translate(157.666016 0)"/>
    </g>
   </g>
   <g id="text_43">
    <!-- error vs regularization -->
    <g transform="translate(383.93344 38.97) scale(0.12 -0.12)">
     <use xlink:href="#DejaVuSans-65"/>
     <use xlink:href="#DejaVuSans-72" transform="translate(61.523438 0)"/>
     <use xlink:href="#DejaVuSans-72" transform="translate(100.886719 0)"/>
     <use xlink:href="#DejaVuSans-6f" transform="translate(139.75 0)"/>
     <use xlink:href="#DejaVuSans-72" transform="translate(200.931641 0)"/>
     <use xlink:href="#DejaVuSans-20" transform="translate(242.044922 0)"/>
     <use xlink:href="#DejaVuSans-76" transform="translate(273.832031 0)"/>
     <use xlink:href="#DejaVuSans-73" transform="translate(333.011719 0)"/>
     <use xlink:href="#DejaVuSans-20" transform="translate(385.111328 0)"/>
     <use xlink:href="#DejaVuSans-72" transform="translate(416.898438 0)"/>
     <use xlink:href="#DejaVuSans-65" transform="translate(455.761719 0)"/>
     <use xlink:href="#DejaVuSans-67" transform="translate(517.285156 0)"/>
     <use xlink:href="#DejaVuSans-75" transform="translate(580.761719 0)"/>
     <use xlink:href="#DejaVuSans-6c" transform="translate(644.140625 0)"/>
     <use xlink:href="#DejaVuSans-61" transform="translate(671.923828 0)"/>
     <use xlink:href="#DejaVuSans-72" transform="translate(733.203125 0)"/>
     <use xlink:href="#DejaVuSans-69" transform="translate(774.316406 0)"/>
     <use xlink:href="#DejaVuSans-7a" transform="translate(802.099609 0)"/>
     <use xlink:href="#DejaVuSans-61" transform="translate(854.589844 0)"/>
     <use xlink:href="#DejaVuSans-74" transform="translate(915.869141 0)"/>
     <use xlink:href="#DejaVuSans-69" transform="translate(955.078125 0)"/>
     <use xlink:href="#DejaVuSans-6f" transform="translate(982.861328 0)"/>
     <use xlink:href="#DejaVuSans-6e" transform="translate(1044.042969 0)"/>
    </g>
   </g>
   <g id="legend_2">
    <g id="patch_14">
     <path d="M 341.065879 74.855 
L 407.192129 74.855 
Q 408.792129 74.855 408.792129 73.255 
L 408.792129 50.57 
Q 408.792129 48.97 407.192129 48.97 
L 341.065879 48.97 
Q 339.465879 48.97 339.465879 50.57 
L 339.465879 73.255 
Q 339.465879 74.855 341.065879 74.855 
z
" style="fill: #ffffff; opacity: 0.8; stroke: #cccccc; stroke-width: 0.5; stroke-linejoin: miter"/>
    </g>
    <g id="line2d_110">
     <path d="M 342.665879 55.44875 
L 350.665879 55.44875 
L 358.665879 55.44875 
" style="fill: none; stroke: #0096ff; stroke-width: 4"/>
    </g>
    <g id="text_44">
     <!-- train error -->
     <g transform="translate(365.065879 58.24875) scale(0.08 -0.08)">
      <use xlink:href="#DejaVuSans-74"/>
      <use xlink:href="#DejaVuSans-72" transform="translate(39.208984 0)"/>
      <use xlink:href="#DejaVuSans-61" transform="translate(80.322266 0)"/>
      <use xlink:href="#DejaVuSans-69" transform="translate(141.601562 0)"/>
      <use xlink:href="#DejaVuSans-6e" transform="translate(169.384766 0)"/>
      <use xlink:href="#DejaVuSans-20" transform="translate(232.763672 0)"/>
      <use xlink:href="#DejaVuSans-65" transform="translate(264.550781 0)"/>
      <use xlink:href="#DejaVuSans-72" transform="translate(326.074219 0)"/>
      <use xlink:href="#DejaVuSans-72" transform="translate(365.4375 0)"/>
      <use xlink:href="#DejaVuSans-6f" transform="translate(404.300781 0)"/>
      <use xlink:href="#DejaVuSans-72" transform="translate(465.482422 0)"/>
     </g>
    </g>
    <g id="line2d_111">
     <path d="M 342.665879 67.19125 
L 350.665879 67.19125 
L 358.665879 67.19125 
" style="fill: none; stroke: #ff9300; stroke-width: 4"/>
    </g>
    <g id="text_45">
     <!-- cv error -->
     <g transform="translate(365.065879 69.99125) scale(0.08 -0.08)">
      <use xlink:href="#DejaVuSans-63"/>
      <use xlink:href="#DejaVuSans-76" transform="translate(54.980469 0)"/>
      <use xlink:href="#DejaVuSans-20" transform="translate(114.160156 0)"/>
      <use xlink:href="#DejaVuSans-65" transform="translate(145.947266 0)"/>
      <use xlink:href="#DejaVuSans-72" transform="translate(207.470703 0)"/>
      <use xlink:href="#DejaVuSans-72" transform="translate(246.833984 0)"/>
      <use xlink:href="#DejaVuSans-6f" transform="translate(285.697266 0)"/>
      <use xlink:href="#DejaVuSans-72" transform="translate(346.878906 0)"/>
     </g>
    </g>
   </g>
  </g>
  <g id="text_46">
   <!-- Tuning Regularization -->
   <g transform="translate(221.383813 16.318125) scale(0.12 -0.12)">
    <defs>
     <path id="DejaVuSans-54" d="M -19 4666 
L 3928 4666 
L 3928 4134 
L 2272 4134 
L 2272 0 
L 1638 0 
L 1638 4134 
L -19 4134 
L -19 4666 
z
" transform="scale(0.015625)"/>
     <path id="DejaVuSans-52" d="M 2841 2188 
Q 3044 2119 3236 1894 
Q 3428 1669 3622 1275 
L 4263 0 
L 3584 0 
L 2988 1197 
Q 2756 1666 2539 1819 
Q 2322 1972 1947 1972 
L 1259 1972 
L 1259 0 
L 628 0 
L 628 4666 
L 2053 4666 
Q 2853 4666 3247 4331 
Q 3641 3997 3641 3322 
Q 3641 2881 3436 2590 
Q 3231 2300 2841 2188 
z
M 1259 4147 
L 1259 2491 
L 2053 2491 
Q 2509 2491 2742 2702 
Q 2975 2913 2975 3322 
Q 2975 3731 2742 3939 
Q 2509 4147 2053 4147 
L 1259 4147 
z
" transform="scale(0.015625)"/>
    </defs>
    <use xlink:href="#DejaVuSans-54"/>
    <use xlink:href="#DejaVuSans-75" transform="translate(45.958984 0)"/>
    <use xlink:href="#DejaVuSans-6e" transform="translate(109.337891 0)"/>
    <use xlink:href="#DejaVuSans-69" transform="translate(172.716797 0)"/>
    <use xlink:href="#DejaVuSans-6e" transform="translate(200.5 0)"/>
    <use xlink:href="#DejaVuSans-67" transform="translate(263.878906 0)"/>
    <use xlink:href="#DejaVuSans-20" transform="translate(327.355469 0)"/>
    <use xlink:href="#DejaVuSans-52" transform="translate(359.142578 0)"/>
    <use xlink:href="#DejaVuSans-65" transform="translate(424.125 0)"/>
    <use xlink:href="#DejaVuSans-67" transform="translate(485.648438 0)"/>
    <use xlink:href="#DejaVuSans-75" transform="translate(549.125 0)"/>
    <use xlink:href="#DejaVuSans-6c" transform="translate(612.503906 0)"/>
    <use xlink:href="#DejaVuSans-61" transform="translate(640.287109 0)"/>
    <use xlink:href="#DejaVuSans-72" transform="translate(701.566406 0)"/>
    <use xlink:href="#DejaVuSans-69" transform="translate(742.679688 0)"/>
    <use xlink:href="#DejaVuSans-7a" transform="translate(770.462891 0)"/>
    <use xlink:href="#DejaVuSans-61" transform="translate(822.953125 0)"/>
    <use xlink:href="#DejaVuSans-74" transform="translate(884.232422 0)"/>
    <use xlink:href="#DejaVuSans-69" transform="translate(923.441406 0)"/>
    <use xlink:href="#DejaVuSans-6f" transform="translate(951.224609 0)"/>
    <use xlink:href="#DejaVuSans-6e" transform="translate(1012.40625 0)"/>
   </g>
  </g>
 </g>
 <defs>
  <clipPath id="p4d433adb99">
   <rect x="44.351" y="44.97" width="229.823871" height="208.23"/>
  </clipPath>
  <clipPath id="pdd5807a594">
   <rect x="335.465879" y="44.97" width="229.823871" height="208.23"/>
  </clipPath>
 </defs>
</svg>
