<?xml version="1.0" encoding="utf-8" standalone="no"?>
<!DOCTYPE svg PUBLIC "-//W3C//DTD SVG 1.1//EN"
  "http://www.w3.org/Graphics/SVG/1.1/DTD/svg11.dtd">
<svg xmlns:xlink="http://www.w3.org/1999/xlink" width="564.23775pt" height="280.95525pt" viewBox="0 0 564.23775 280.95525" xmlns="http://www.w3.org/2000/svg" version="1.1">
 <metadata>
  <rdf:RDF xmlns:dc="http://purl.org/dc/elements/1.1/" xmlns:cc="http://creativecommons.org/ns#" xmlns:rdf="http://www.w3.org/1999/02/22-rdf-syntax-ns#">
   <cc:Work>
    <dc:type rdf:resource="http://purl.org/dc/dcmitype/StillImage"/>
    <dc:date>2026-07-17T22:03:43.009454</dc:date>
    <dc:format>image/svg+xml</dc:format>
    <dc:creator>
     <cc:Agent>
      <dc:title>Matplotlib v3.10.8, https://matplotlib.org/</dc:title>
     </cc:Agent>
    </dc:creator>
   </cc:Work>
  </rdf:RDF>
 </metadata>
 <defs>
  <style type="text/css">*{stroke-linejoin: round; stroke-linecap: butt}</style>
 </defs>
 <g id="figure_1">
  <g id="patch_1">
   <path d="M 0 280.95525 
L 564.23775 280.95525 
L 564.23775 0 
L 0 0 
z
" style="fill: #ffffff"/>
  </g>
  <g id="axes_1">
   <g id="patch_2">
    <path d="M 59.1765 240.705 
L 267.924 240.705 
L 267.924 53.61 
L 59.1765 53.61 
z
" style="fill: #ffffff"/>
   </g>
   <g id="matplotlib.axis_1">
    <g id="xtick_1">
     <g id="line2d_1"/>
     <g id="text_1">
      <!-- 0 -->
      <g transform="translate(64.847523 253.323125) scale(0.12 -0.12)">
       <defs>
        <path id="DejaVuSans-30" d="M 2034 4250 
Q 1547 4250 1301 3770 
Q 1056 3291 1056 2328 
Q 1056 1369 1301 889 
Q 1547 409 2034 409 
Q 2525 409 2770 889 
Q 3016 1369 3016 2328 
Q 3016 3291 2770 3770 
Q 2525 4250 2034 4250 
z
M 2034 4750 
Q 2819 4750 3233 4129 
Q 3647 3509 3647 2328 
Q 3647 1150 3233 529 
Q 2819 -91 2034 -91 
Q 1250 -91 836 529 
Q 422 1150 422 2328 
Q 422 3509 836 4129 
Q 1250 4750 2034 4750 
z
" transform="scale(0.015625)"/>
       </defs>
       <use xlink:href="#DejaVuSans-30"/>
      </g>
     </g>
    </g>
    <g id="xtick_2">
     <g id="line2d_2"/>
     <g id="text_2">
      <!-- 20 -->
      <g transform="translate(140.525702 253.323125) scale(0.12 -0.12)">
       <defs>
        <path id="DejaVuSans-32" d="M 1228 531 
L 3431 531 
L 3431 0 
L 469 0 
L 469 531 
Q 828 903 1448 1529 
Q 2069 2156 2228 2338 
Q 2531 2678 2651 2914 
Q 2772 3150 2772 3378 
Q 2772 3750 2511 3984 
Q 2250 4219 1831 4219 
Q 1534 4219 1204 4116 
Q 875 4013 500 3803 
L 500 4441 
Q 881 4594 1212 4672 
Q 1544 4750 1819 4750 
Q 2544 4750 2975 4387 
Q 3406 4025 3406 3419 
Q 3406 3131 3298 2873 
Q 3191 2616 2906 2266 
Q 2828 2175 2409 1742 
Q 1991 1309 1228 531 
z
" transform="scale(0.015625)"/>
       </defs>
       <use xlink:href="#DejaVuSans-32"/>
       <use xlink:href="#DejaVuSans-30" transform="translate(63.623047 0)"/>
      </g>
     </g>
    </g>
    <g id="xtick_3">
     <g id="line2d_3"/>
     <g id="text_3">
      <!-- 40 -->
      <g transform="translate(220.021381 253.323125) scale(0.12 -0.12)">
       <defs>
        <path id="DejaVuSans-34" d="M 2419 4116 
L 825 1625 
L 2419 1625 
L 2419 4116 
z
M 2253 4666 
L 3047 4666 
L 3047 1625 
L 3713 1625 
L 3713 1100 
L 3047 1100 
L 3047 0 
L 2419 0 
L 2419 1100 
L 313 1100 
L 313 1709 
L 2253 4666 
z
" transform="scale(0.015625)"/>
       </defs>
       <use xlink:href="#DejaVuSans-34"/>
       <use xlink:href="#DejaVuSans-30" transform="translate(63.623047 0)"/>
      </g>
     </g>
    </g>
    <g id="text_4">
     <!-- x -->
     <g transform="translate(159.28875 270.7605) scale(0.144 -0.144)">
      <defs>
       <path id="DejaVuSans-78" d="M 3513 3500 
L 2247 1797 
L 3578 0 
L 2900 0 
L 1881 1375 
L 863 0 
L 184 0 
L 1544 1831 
L 300 3500 
L 978 3500 
L 1906 2253 
L 2834 3500 
L 3513 3500 
z
" transform="scale(0.015625)"/>
      </defs>
      <use xlink:href="#DejaVuSans-78"/>
     </g>
    </g>
   </g>
   <g id="matplotlib.axis_2">
    <g id="ytick_1">
     <g id="line2d_4"/>
     <g id="text_5">
      <!-- 0 -->
      <g transform="translate(48.0415 236.759744) scale(0.12 -0.12)">
       <use xlink:href="#DejaVuSans-30"/>
      </g>
     </g>
    </g>
    <g id="ytick_2">
     <g id="line2d_5"/>
     <g id="text_6">
      <!-- 500 -->
      <g transform="translate(32.7715 202.776586) scale(0.12 -0.12)">
       <defs>
        <path id="DejaVuSans-35" d="M 691 4666 
L 3169 4666 
L 3169 4134 
L 1269 4134 
L 1269 2991 
Q 1406 3038 1543 3061 
Q 1681 3084 1819 3084 
Q 2600 3084 3056 2656 
Q 3513 2228 3513 1497 
Q 3513 744 3044 326 
Q 2575 -91 1722 -91 
Q 1428 -91 1123 -41 
Q 819 9 494 109 
L 494 744 
Q 775 591 1075 516 
Q 1375 441 1709 441 
Q 2250 441 2565 725 
Q 2881 1009 2881 1497 
Q 2881 1984 2565 2268 
Q 2250 2553 1709 2553 
Q 1456 2553 1204 2497 
Q 953 2441 691 2322 
L 691 4666 
z
" transform="scale(0.015625)"/>
       </defs>
       <use xlink:href="#DejaVuSans-35"/>
       <use xlink:href="#DejaVuSans-30" transform="translate(63.623047 0)"/>
       <use xlink:href="#DejaVuSans-30" transform="translate(127.246094 0)"/>
      </g>
     </g>
    </g>
    <g id="ytick_3">
     <g id="line2d_6"/>
     <g id="text_7">
      <!-- 1000 -->
      <g transform="translate(25.1365 168.793428) scale(0.12 -0.12)">
       <defs>
        <path id="DejaVuSans-31" d="M 794 531 
L 1825 531 
L 1825 4091 
L 703 3866 
L 703 4441 
L 1819 4666 
L 2450 4666 
L 2450 531 
L 3481 531 
L 3481 0 
L 794 0 
L 794 531 
z
" transform="scale(0.015625)"/>
       </defs>
       <use xlink:href="#DejaVuSans-31"/>
       <use xlink:href="#DejaVuSans-30" transform="translate(63.623047 0)"/>
       <use xlink:href="#DejaVuSans-30" transform="translate(127.246094 0)"/>
       <use xlink:href="#DejaVuSans-30" transform="translate(190.869141 0)"/>
      </g>
     </g>
    </g>
    <g id="ytick_4">
     <g id="line2d_7"/>
     <g id="text_8">
      <!-- 1500 -->
      <g transform="translate(25.1365 134.81027) scale(0.12 -0.12)">
       <use xlink:href="#DejaVuSans-31"/>
       <use xlink:href="#DejaVuSans-35" transform="translate(63.623047 0)"/>
       <use xlink:href="#DejaVuSans-30" transform="translate(127.246094 0)"/>
       <use xlink:href="#DejaVuSans-30" transform="translate(190.869141 0)"/>
      </g>
     </g>
    </g>
    <g id="ytick_5">
     <g id="line2d_8"/>
     <g id="text_9">
      <!-- 2000 -->
      <g transform="translate(25.1365 100.827112) scale(0.12 -0.12)">
       <use xlink:href="#DejaVuSans-32"/>
       <use xlink:href="#DejaVuSans-30" transform="translate(63.623047 0)"/>
       <use xlink:href="#DejaVuSans-30" transform="translate(127.246094 0)"/>
       <use xlink:href="#DejaVuSans-30" transform="translate(190.869141 0)"/>
      </g>
     </g>
    </g>
    <g id="ytick_6">
     <g id="line2d_9"/>
     <g id="text_10">
      <!-- 2500 -->
      <g transform="translate(25.1365 66.843954) scale(0.12 -0.12)">
       <use xlink:href="#DejaVuSans-32"/>
       <use xlink:href="#DejaVuSans-35" transform="translate(63.623047 0)"/>
       <use xlink:href="#DejaVuSans-30" transform="translate(127.246094 0)"/>
       <use xlink:href="#DejaVuSans-30" transform="translate(190.869141 0)"/>
      </g>
     </g>
    </g>
    <g id="text_11">
     <!-- y -->
     <g transform="translate(18.14175 151.419) rotate(-90) scale(0.144 -0.144)">
      <defs>
       <path id="DejaVuSans-79" d="M 2059 -325 
Q 1816 -950 1584 -1140 
Q 1353 -1331 966 -1331 
L 506 -1331 
L 506 -850 
L 844 -850 
Q 1081 -850 1212 -737 
Q 1344 -625 1503 -206 
L 1606 56 
L 191 3500 
L 800 3500 
L 1894 763 
L 2988 3500 
L 3597 3500 
L 2059 -325 
z
" transform="scale(0.015625)"/>
      </defs>
      <use xlink:href="#DejaVuSans-79"/>
     </g>
    </g>
   </g>
   <g id="PathCollection_1">
    <defs>
     <path id="m10781fd79c" d="M 0 3 
C 0.795609 3 1.55874 2.683901 2.12132 2.12132 
C 2.683901 1.55874 3 0.795609 3 0 
C 3 -0.795609 2.683901 -1.55874 2.12132 -2.12132 
C 1.55874 -2.683901 0.795609 -3 0 -3 
C -0.795609 -3 -1.55874 -2.683901 -2.12132 -2.12132 
C -2.683901 -1.55874 -3 -0.795609 -3 0 
C -3 0.795609 -2.683901 1.55874 -2.12132 2.12132 
C -1.55874 2.683901 -0.795609 3 0 3 
z
" style="stroke: #ff0000; stroke-width: 0.5"/>
    </defs>
    <g clip-path="url(#p16305c1f02)">
     <use xlink:href="#m10781fd79c" x="88.64086" y="230.497978" style="fill: #ff0000; stroke: #ff0000; stroke-width: 0.5"/>
     <use xlink:href="#m10781fd79c" x="138.580453" y="205.579255" style="fill: #ff0000; stroke: #ff0000; stroke-width: 0.5"/>
     <use xlink:href="#m10781fd79c" x="118.604616" y="224.620485" style="fill: #ff0000; stroke: #ff0000; stroke-width: 0.5"/>
     <use xlink:href="#m10781fd79c" x="243.453599" y="93.626177" style="fill: #ff0000; stroke: #ff0000; stroke-width: 0.5"/>
     <use xlink:href="#m10781fd79c" x="183.526087" y="185.234364" style="fill: #ff0000; stroke: #ff0000; stroke-width: 0.5"/>
     <use xlink:href="#m10781fd79c" x="188.520047" y="177.861431" style="fill: #ff0000; stroke: #ff0000; stroke-width: 0.5"/>
     <use xlink:href="#m10781fd79c" x="238.45964" y="149.592435" style="fill: #ff0000; stroke: #ff0000; stroke-width: 0.5"/>
     <use xlink:href="#m10781fd79c" x="168.544209" y="186.28296" style="fill: #ff0000; stroke: #ff0000; stroke-width: 0.5"/>
     <use xlink:href="#m10781fd79c" x="158.556291" y="194.305102" style="fill: #ff0000; stroke: #ff0000; stroke-width: 0.5"/>
     <use xlink:href="#m10781fd79c" x="193.514006" y="181.847435" style="fill: #ff0000; stroke: #ff0000; stroke-width: 0.5"/>
     <use xlink:href="#m10781fd79c" x="98.628779" y="227.619332" style="fill: #ff0000; stroke: #ff0000; stroke-width: 0.5"/>
     <use xlink:href="#m10781fd79c" x="133.586494" y="218.405624" style="fill: #ff0000; stroke: #ff0000; stroke-width: 0.5"/>
     <use xlink:href="#m10781fd79c" x="103.622738" y="226.875724" style="fill: #ff0000; stroke: #ff0000; stroke-width: 0.5"/>
     <use xlink:href="#m10781fd79c" x="258.435477" y="62.114318" style="fill: #ff0000; stroke: #ff0000; stroke-width: 0.5"/>
     <use xlink:href="#m10781fd79c" x="73.658982" y="232.06555" style="fill: #ff0000; stroke: #ff0000; stroke-width: 0.5"/>
     <use xlink:href="#m10781fd79c" x="148.568372" y="206.383544" style="fill: #ff0000; stroke: #ff0000; stroke-width: 0.5"/>
     <use xlink:href="#m10781fd79c" x="68.665023" y="232.200682" style="fill: #ff0000; stroke: #ff0000; stroke-width: 0.5"/>
     <use xlink:href="#m10781fd79c" x="143.574413" y="211.878079" style="fill: #ff0000; stroke: #ff0000; stroke-width: 0.5"/>
     <use xlink:href="#m10781fd79c" x="93.634819" y="229.308641" style="fill: #ff0000; stroke: #ff0000; stroke-width: 0.5"/>
     <use xlink:href="#m10781fd79c" x="123.598575" y="217.051864" style="fill: #ff0000; stroke: #ff0000; stroke-width: 0.5"/>
     <use xlink:href="#m10781fd79c" x="113.610657" y="225.409931" style="fill: #ff0000; stroke: #ff0000; stroke-width: 0.5"/>
     <use xlink:href="#m10781fd79c" x="108.616697" y="226.310854" style="fill: #ff0000; stroke: #ff0000; stroke-width: 0.5"/>
     <use xlink:href="#m10781fd79c" x="128.592535" y="217.38574" style="fill: #ff0000; stroke: #ff0000; stroke-width: 0.5"/>
     <use xlink:href="#m10781fd79c" x="253.441518" y="83.730718" style="fill: #ff0000; stroke: #ff0000; stroke-width: 0.5"/>
    </g>
   </g>
   <g id="PathCollection_2">
    <defs>
     <path id="m6001f76d56" d="M 0 3 
C 0.795609 3 1.55874 2.683901 2.12132 2.12132 
C 2.683901 1.55874 3 0.795609 3 0 
C 3 -0.795609 2.683901 -1.55874 2.12132 -2.12132 
C 1.55874 -2.683901 0.795609 -3 0 -3 
C -0.795609 -3 -1.55874 -2.683901 -2.12132 -2.12132 
C -2.683901 -1.55874 -3 -0.795609 -3 0 
C -3 0.795609 -2.683901 1.55874 -2.12132 2.12132 
C -1.55874 2.683901 -0.795609 3 0 3 
z
" style="stroke: #ff9300; stroke-width: 0.5"/>
    </defs>
    <g clip-path="url(#p16305c1f02)">
     <use xlink:href="#m6001f76d56" x="233.465681" y="92.501992" style="fill: #ff9300; stroke: #ff9300; stroke-width: 0.5"/>
     <use xlink:href="#m6001f76d56" x="78.652941" y="231.859629" style="fill: #ff9300; stroke: #ff9300; stroke-width: 0.5"/>
     <use xlink:href="#m6001f76d56" x="208.495884" y="120.987484" style="fill: #ff9300; stroke: #ff9300; stroke-width: 0.5"/>
     <use xlink:href="#m6001f76d56" x="198.507965" y="176.649681" style="fill: #ff9300; stroke: #ff9300; stroke-width: 0.5"/>
     <use xlink:href="#m6001f76d56" x="163.55025" y="191.304656" style="fill: #ff9300; stroke: #ff9300; stroke-width: 0.5"/>
     <use xlink:href="#m6001f76d56" x="218.483803" y="167.793467" style="fill: #ff9300; stroke: #ff9300; stroke-width: 0.5"/>
     <use xlink:href="#m6001f76d56" x="153.562331" y="205.620067" style="fill: #ff9300; stroke: #ff9300; stroke-width: 0.5"/>
     <use xlink:href="#m6001f76d56" x="213.489843" y="161.650445" style="fill: #ff9300; stroke: #ff9300; stroke-width: 0.5"/>
    </g>
   </g>
   <g id="line2d_10">
    <path d="M 68.665023 231.193616 
L 70.63234 234.338766 
L 72.599657 234.756138 
L 74.566975 233.677173 
L 76.534292 231.956908 
L 78.501609 230.156841 
L 80.468927 228.614398 
L 82.436244 227.500581 
L 84.403561 226.867239 
L 86.370879 226.685268 
L 88.338196 226.874962 
L 90.305513 227.329603 
L 92.27283 227.933284 
L 94.240148 228.573872 
L 96.207465 229.151912 
L 98.174782 229.586197 
L 100.1421 229.816651 
L 102.109417 229.805086 
L 104.076734 229.534335 
L 106.044052 229.006201 
L 108.011369 228.238582 
L 109.978686 227.262106 
L 111.946004 226.116524 
L 113.913321 224.847103 
L 115.880638 223.501181 
L 117.847956 222.125019 
L 119.815273 220.761075 
L 121.78259 219.445743 
L 123.749907 218.207627 
L 125.717225 217.066356 
L 127.684542 216.031934 
L 129.651859 215.104623 
L 131.619177 214.275305 
L 133.586494 213.526288 
L 135.553811 212.832487 
L 137.521129 212.162924 
L 139.488446 211.482476 
L 141.455763 210.753781 
L 143.423081 209.939253 
L 145.390398 209.003104 
L 147.357715 207.913321 
L 149.325033 206.643519 
L 151.29235 205.174605 
L 153.259667 203.4962 
L 155.226984 201.607772 
L 157.194302 199.519426 
L 159.161619 197.252335 
L 161.128936 194.838768 
L 163.096254 192.32173 
L 165.063571 189.754179 
L 167.030888 187.197855 
L 168.998206 184.721728 
L 170.965523 182.400088 
L 172.93284 180.310334 
L 174.900158 178.530485 
L 176.867475 177.136502 
L 178.834792 176.199454 
L 180.80211 175.782625 
L 182.769427 175.938634 
L 184.736744 176.706645 
L 186.704061 178.109768 
L 188.671379 180.152729 
L 190.638696 182.819906 
L 192.606013 186.073819 
L 194.573331 189.854155 
L 196.540648 194.077418 
L 198.507965 198.637262 
L 200.475283 203.40558 
L 202.4426 208.234392 
L 204.409917 212.958565 
L 206.377235 217.399386 
L 208.344552 221.36897 
L 210.311869 224.675476 
L 212.279186 227.129076 
L 214.246504 228.548577 
L 216.213821 228.768566 
L 218.181138 227.646929 
L 220.148456 225.072508 
L 222.115773 220.972661 
L 224.08309 215.320403 
L 226.050408 208.140771 
L 228.017725 199.515978 
L 229.985042 189.588878 
L 231.95236 178.564165 
L 233.919677 166.706687 
L 235.886994 154.336145 
L 237.854312 141.817374 
L 239.821629 129.545323 
L 241.788946 117.923735 
L 243.756263 107.336428 
L 245.723581 98.10999 
L 247.690898 90.466551 
L 249.658215 84.465212 
L 251.625533 79.930549 
L 253.59285 76.366507 
L 255.560167 72.853825 
L 257.527485 67.929022 
L 259.494802 59.442788 
L 261.462119 44.395478 
L 263.429437 18.747237 
" clip-path="url(#p16305c1f02)" style="fill: none; stroke: #0096ff; stroke-width: 0.5"/>
   </g>
   <g id="line2d_11">
    <path d="M 68.665023 231.375333 
L 70.63234 231.354453 
L 72.599657 231.34153 
L 74.566975 231.33086 
L 76.534292 231.316889 
L 78.501609 231.294232 
L 80.468927 231.257687 
L 82.436244 231.202252 
L 84.403561 231.123142 
L 86.370879 231.015806 
L 88.338196 230.875941 
L 90.305513 230.69951 
L 92.27283 230.482758 
L 94.240148 230.222228 
L 96.207465 229.914775 
L 98.174782 229.557581 
L 100.1421 229.148172 
L 102.109417 228.684424 
L 104.076734 228.164584 
L 106.044052 227.587274 
L 108.011369 226.951504 
L 109.978686 226.256678 
L 111.946004 225.502604 
L 113.913321 224.689497 
L 115.880638 223.817982 
L 117.847956 222.889093 
L 119.815273 221.904277 
L 121.78259 220.865386 
L 123.749907 219.774672 
L 125.717225 218.634779 
L 127.684542 217.44873 
L 129.651859 216.219917 
L 131.619177 214.952075 
L 133.586494 213.649271 
L 135.553811 212.315875 
L 137.521129 210.956532 
L 139.488446 209.576134 
L 141.455763 208.179786 
L 143.423081 206.772767 
L 145.390398 205.36049 
L 147.357715 203.948457 
L 149.325033 202.542213 
L 151.29235 201.147293 
L 153.259667 199.769167 
L 155.226984 198.413186 
L 157.194302 197.084516 
L 159.161619 195.788081 
L 161.128936 194.528493 
L 163.096254 193.309983 
L 165.063571 192.136336 
L 167.030888 191.010814 
L 168.998206 189.936089 
L 170.965523 188.914163 
L 172.93284 187.9463 
L 174.900158 187.03295 
L 176.867475 186.17368 
L 178.834792 185.367098 
L 180.80211 184.610795 
L 182.769427 183.901269 
L 184.736744 183.233877 
L 186.704061 182.602772 
L 188.671379 182.000859 
L 190.638696 181.419754 
L 192.606013 180.849752 
L 194.573331 180.279805 
L 196.540648 179.697517 
L 198.507965 179.089138 
L 200.475283 178.439594 
L 202.4426 177.73251 
L 204.409917 176.950275 
L 206.377235 176.074104 
L 208.344552 175.084143 
L 210.311869 173.959585 
L 212.279186 172.678819 
L 214.246504 171.219608 
L 216.213821 169.559295 
L 218.181138 167.67505 
L 220.148456 165.544152 
L 222.115773 163.144308 
L 224.08309 160.454021 
L 226.050408 157.453004 
L 228.017725 154.122644 
L 229.985042 150.446518 
L 231.95236 146.410975 
L 233.919677 142.005767 
L 235.886994 137.224764 
L 237.854312 132.06672 
L 239.821629 126.536132 
L 241.788946 120.644171 
L 243.756263 114.409696 
L 245.723581 107.86036 
L 247.690898 101.03382 
L 249.658215 93.979034 
L 251.625533 86.757677 
L 253.59285 79.445661 
L 255.560167 72.134787 
L 257.527485 64.934508 
L 259.494802 57.973834 
L 261.462119 51.40338 
L 263.429437 45.397549 
" clip-path="url(#p16305c1f02)" style="fill: none; stroke: #ff9300; stroke-width: 0.5"/>
   </g>
   <g id="line2d_12">
    <path d="M 68.665023 234.640859 
L 70.63234 234.123903 
L 72.599657 233.600262 
L 74.566975 233.069835 
L 76.534292 232.532515 
L 78.501609 231.988195 
L 80.468927 231.436766 
L 82.436244 230.878117 
L 84.403561 230.312133 
L 86.370879 229.738697 
L 88.338196 229.157691 
L 90.305513 228.568993 
L 92.27283 227.972479 
L 94.240148 227.36802 
L 96.207465 226.755487 
L 98.174782 226.134745 
L 100.1421 225.505656 
L 102.109417 224.86808 
L 104.076734 224.22187 
L 106.044052 223.566877 
L 108.011369 222.902946 
L 109.978686 222.229918 
L 111.946004 221.547628 
L 113.913321 220.855904 
L 115.880638 220.154569 
L 117.847956 219.443439 
L 119.815273 218.722322 
L 121.78259 217.991017 
L 123.749907 217.249314 
L 125.717225 216.496994 
L 127.684542 215.733827 
L 129.651859 214.95957 
L 131.619177 214.173967 
L 133.586494 213.376748 
L 135.553811 212.567626 
L 137.521129 211.746297 
L 139.488446 210.912439 
L 141.455763 210.065707 
L 143.423081 209.205733 
L 145.390398 208.332122 
L 147.357715 207.444453 
L 149.325033 206.542272 
L 151.29235 205.625092 
L 153.259667 204.692386 
L 155.226984 203.74359 
L 157.194302 202.77809 
L 159.161619 201.795224 
L 161.128936 200.794276 
L 163.096254 199.774469 
L 165.063571 198.734962 
L 167.030888 197.674842 
L 168.998206 196.593118 
L 170.965523 195.488712 
L 172.93284 194.360454 
L 174.900158 193.207075 
L 176.867475 192.027191 
L 178.834792 190.819301 
L 180.80211 189.581773 
L 182.769427 188.312831 
L 184.736744 187.010547 
L 186.704061 185.672824 
L 188.671379 184.297386 
L 190.638696 182.88176 
L 192.606013 181.423259 
L 194.573331 179.91897 
L 196.540648 178.365728 
L 198.507965 176.760105 
L 200.475283 175.098382 
L 202.4426 173.37653 
L 204.409917 171.590185 
L 206.377235 169.734624 
L 208.344552 167.804737 
L 210.311869 165.794997 
L 212.279186 163.699432 
L 214.246504 161.511591 
L 216.213821 159.224511 
L 218.181138 156.830676 
L 220.148456 154.321986 
L 222.115773 151.689708 
L 224.08309 148.924437 
L 226.050408 146.01605 
L 228.017725 142.953657 
L 229.985042 139.725545 
L 231.95236 136.319134 
L 233.919677 132.720907 
L 235.886994 128.916362 
L 237.854312 124.889937 
L 239.821629 120.624951 
L 241.788946 116.103529 
L 243.756263 111.306529 
L 245.723581 106.213463 
L 247.690898 100.802414 
L 249.658215 95.049951 
L 251.625533 88.931035 
L 253.59285 82.418927 
L 255.560167 75.485083 
L 257.527485 68.099051 
L 259.494802 60.228362 
L 261.462119 51.838409 
L 263.429437 42.892331 
" clip-path="url(#p16305c1f02)" style="fill: none; stroke: #ff40ff; stroke-width: 0.5"/>
   </g>
   <g id="line2d_13">
    <path d="M 68.665023 214.905456 
L 70.63234 214.768304 
L 72.599657 214.628502 
L 74.566975 214.485967 
L 76.534292 214.340614 
L 78.501609 214.192356 
L 80.468927 214.041098 
L 82.436244 213.886745 
L 84.403561 213.729196 
L 86.370879 213.568344 
L 88.338196 213.404081 
L 90.305513 213.236289 
L 92.27283 213.06485 
L 94.240148 212.889635 
L 96.207465 212.710513 
L 98.174782 212.527344 
L 100.1421 212.339983 
L 102.109417 212.148276 
L 104.076734 211.952063 
L 106.044052 211.751175 
L 108.011369 211.545433 
L 109.978686 211.334651 
L 111.946004 211.118632 
L 113.913321 210.897167 
L 115.880638 210.670038 
L 117.847956 210.437013 
L 119.815273 210.197849 
L 121.78259 209.952286 
L 123.749907 209.700052 
L 125.717225 209.440858 
L 127.684542 209.174398 
L 129.651859 208.900347 
L 131.619177 208.618361 
L 133.586494 208.328075 
L 135.553811 208.0291 
L 137.521129 207.721025 
L 139.488446 207.40341 
L 141.455763 207.075789 
L 143.423081 206.737665 
L 145.390398 206.388507 
L 147.357715 206.027752 
L 149.325033 205.654797 
L 151.29235 205.268999 
L 153.259667 204.869671 
L 155.226984 204.456079 
L 157.194302 204.027441 
L 159.161619 203.582917 
L 161.128936 203.121612 
L 163.096254 202.642566 
L 165.063571 202.144751 
L 167.030888 201.62707 
L 168.998206 201.088345 
L 170.965523 200.527315 
L 172.93284 199.942629 
L 174.900158 199.332841 
L 176.867475 198.6964 
L 178.834792 198.031644 
L 180.80211 197.336791 
L 182.769427 196.609934 
L 184.736744 195.849026 
L 186.704061 195.051875 
L 188.671379 194.216132 
L 190.638696 193.339279 
L 192.606013 192.418617 
L 194.573331 191.451256 
L 196.540648 190.434101 
L 198.507965 189.363835 
L 200.475283 188.236906 
L 202.4426 187.049514 
L 204.409917 185.797588 
L 206.377235 184.476772 
L 208.344552 183.082407 
L 210.311869 181.609509 
L 212.279186 180.052746 
L 214.246504 178.406422 
L 216.213821 176.664445 
L 218.181138 174.820308 
L 220.148456 172.867063 
L 222.115773 170.797287 
L 224.08309 168.603058 
L 226.050408 166.275925 
L 228.017725 163.806871 
L 229.985042 161.186279 
L 231.95236 158.403902 
L 233.919677 155.448817 
L 235.886994 152.309389 
L 237.854312 148.973231 
L 239.821629 145.427154 
L 241.788946 141.657126 
L 243.756263 137.648221 
L 245.723581 133.384567 
L 247.690898 128.849295 
L 249.658215 124.024481 
L 251.625533 118.891086 
L 253.59285 113.428898 
L 255.560167 107.616462 
L 257.527485 101.431018 
L 259.494802 94.848426 
L 261.462119 87.843094 
L 263.429437 80.387899 
" clip-path="url(#p16305c1f02)" style="fill: none; stroke: #7030a0; stroke-width: 0.5"/>
   </g>
   <g id="patch_3">
    <path d="M 59.1765 240.705 
L 59.1765 53.61 
" style="fill: none; stroke: #f0f0f0; stroke-width: 3; stroke-linejoin: miter; stroke-linecap: square"/>
   </g>
   <g id="patch_4">
    <path d="M 267.924 240.705 
L 267.924 53.61 
" style="fill: none; stroke: #f0f0f0; stroke-width: 3; stroke-linejoin: miter; stroke-linecap: square"/>
   </g>
   <g id="patch_5">
    <path d="M 59.1765 240.705 
L 267.924 240.705 
" style="fill: none; stroke: #f0f0f0; stroke-width: 3; stroke-linejoin: miter; stroke-linecap: square"/>
   </g>
   <g id="patch_6">
    <path d="M 59.1765 53.61 
L 267.924 53.61 
" style="fill: none; stroke: #f0f0f0; stroke-width: 3; stroke-linejoin: miter; stroke-linecap: square"/>
   </g>
   <g id="text_12">
    <!-- predictions vs data -->
    <g transform="translate(106.318687 47.61) scale(0.12 -0.12)">
     <defs>
      <path id="DejaVuSans-70" d="M 1159 525 
L 1159 -1331 
L 581 -1331 
L 581 3500 
L 1159 3500 
L 1159 2969 
Q 1341 3281 1617 3432 
Q 1894 3584 2278 3584 
Q 2916 3584 3314 3078 
Q 3713 2572 3713 1747 
Q 3713 922 3314 415 
Q 2916 -91 2278 -91 
Q 1894 -91 1617 61 
Q 1341 213 1159 525 
z
M 3116 1747 
Q 3116 2381 2855 2742 
Q 2594 3103 2138 3103 
Q 1681 3103 1420 2742 
Q 1159 2381 1159 1747 
Q 1159 1113 1420 752 
Q 1681 391 2138 391 
Q 2594 391 2855 752 
Q 3116 1113 3116 1747 
z
" transform="scale(0.015625)"/>
      <path id="DejaVuSans-72" d="M 2631 2963 
Q 2534 3019 2420 3045 
Q 2306 3072 2169 3072 
Q 1681 3072 1420 2755 
Q 1159 2438 1159 1844 
L 1159 0 
L 581 0 
L 581 3500 
L 1159 3500 
L 1159 2956 
Q 1341 3275 1631 3429 
Q 1922 3584 2338 3584 
Q 2397 3584 2469 3576 
Q 2541 3569 2628 3553 
L 2631 2963 
z
" transform="scale(0.015625)"/>
      <path id="DejaVuSans-65" d="M 3597 1894 
L 3597 1613 
L 953 1613 
Q 991 1019 1311 708 
Q 1631 397 2203 397 
Q 2534 397 2845 478 
Q 3156 559 3463 722 
L 3463 178 
Q 3153 47 2828 -22 
Q 2503 -91 2169 -91 
Q 1331 -91 842 396 
Q 353 884 353 1716 
Q 353 2575 817 3079 
Q 1281 3584 2069 3584 
Q 2775 3584 3186 3129 
Q 3597 2675 3597 1894 
z
M 3022 2063 
Q 3016 2534 2758 2815 
Q 2500 3097 2075 3097 
Q 1594 3097 1305 2825 
Q 1016 2553 972 2059 
L 3022 2063 
z
" transform="scale(0.015625)"/>
      <path id="DejaVuSans-64" d="M 2906 2969 
L 2906 4863 
L 3481 4863 
L 3481 0 
L 2906 0 
L 2906 525 
Q 2725 213 2448 61 
Q 2172 -91 1784 -91 
Q 1150 -91 751 415 
Q 353 922 353 1747 
Q 353 2572 751 3078 
Q 1150 3584 1784 3584 
Q 2172 3584 2448 3432 
Q 2725 3281 2906 2969 
z
M 947 1747 
Q 947 1113 1208 752 
Q 1469 391 1925 391 
Q 2381 391 2643 752 
Q 2906 1113 2906 1747 
Q 2906 2381 2643 2742 
Q 2381 3103 1925 3103 
Q 1469 3103 1208 2742 
Q 947 2381 947 1747 
z
" transform="scale(0.015625)"/>
      <path id="DejaVuSans-69" d="M 603 3500 
L 1178 3500 
L 1178 0 
L 603 0 
L 603 3500 
z
M 603 4863 
L 1178 4863 
L 1178 4134 
L 603 4134 
L 603 4863 
z
" transform="scale(0.015625)"/>
      <path id="DejaVuSans-63" d="M 3122 3366 
L 3122 2828 
Q 2878 2963 2633 3030 
Q 2388 3097 2138 3097 
Q 1578 3097 1268 2742 
Q 959 2388 959 1747 
Q 959 1106 1268 751 
Q 1578 397 2138 397 
Q 2388 397 2633 464 
Q 2878 531 3122 666 
L 3122 134 
Q 2881 22 2623 -34 
Q 2366 -91 2075 -91 
Q 1284 -91 818 406 
Q 353 903 353 1747 
Q 353 2603 823 3093 
Q 1294 3584 2113 3584 
Q 2378 3584 2631 3529 
Q 2884 3475 3122 3366 
z
" transform="scale(0.015625)"/>
      <path id="DejaVuSans-74" d="M 1172 4494 
L 1172 3500 
L 2356 3500 
L 2356 3053 
L 1172 3053 
L 1172 1153 
Q 1172 725 1289 603 
Q 1406 481 1766 481 
L 2356 481 
L 2356 0 
L 1766 0 
Q 1100 0 847 248 
Q 594 497 594 1153 
L 594 3053 
L 172 3053 
L 172 3500 
L 594 3500 
L 594 4494 
L 1172 4494 
z
" transform="scale(0.015625)"/>
      <path id="DejaVuSans-6f" d="M 1959 3097 
Q 1497 3097 1228 2736 
Q 959 2375 959 1747 
Q 959 1119 1226 758 
Q 1494 397 1959 397 
Q 2419 397 2687 759 
Q 2956 1122 2956 1747 
Q 2956 2369 2687 2733 
Q 2419 3097 1959 3097 
z
M 1959 3584 
Q 2709 3584 3137 3096 
Q 3566 2609 3566 1747 
Q 3566 888 3137 398 
Q 2709 -91 1959 -91 
Q 1206 -91 779 398 
Q 353 888 353 1747 
Q 353 2609 779 3096 
Q 1206 3584 1959 3584 
z
" transform="scale(0.015625)"/>
      <path id="DejaVuSans-6e" d="M 3513 2113 
L 3513 0 
L 2938 0 
L 2938 2094 
Q 2938 2591 2744 2837 
Q 2550 3084 2163 3084 
Q 1697 3084 1428 2787 
Q 1159 2491 1159 1978 
L 1159 0 
L 581 0 
L 581 3500 
L 1159 3500 
L 1159 2956 
Q 1366 3272 1645 3428 
Q 1925 3584 2291 3584 
Q 2894 3584 3203 3211 
Q 3513 2838 3513 2113 
z
" transform="scale(0.015625)"/>
      <path id="DejaVuSans-73" d="M 2834 3397 
L 2834 2853 
Q 2591 2978 2328 3040 
Q 2066 3103 1784 3103 
Q 1356 3103 1142 2972 
Q 928 2841 928 2578 
Q 928 2378 1081 2264 
Q 1234 2150 1697 2047 
L 1894 2003 
Q 2506 1872 2764 1633 
Q 3022 1394 3022 966 
Q 3022 478 2636 193 
Q 2250 -91 1575 -91 
Q 1294 -91 989 -36 
Q 684 19 347 128 
L 347 722 
Q 666 556 975 473 
Q 1284 391 1588 391 
Q 1994 391 2212 530 
Q 2431 669 2431 922 
Q 2431 1156 2273 1281 
Q 2116 1406 1581 1522 
L 1381 1569 
Q 847 1681 609 1914 
Q 372 2147 372 2553 
Q 372 3047 722 3315 
Q 1072 3584 1716 3584 
Q 2034 3584 2315 3537 
Q 2597 3491 2834 3397 
z
" transform="scale(0.015625)"/>
      <path id="DejaVuSans-20" transform="scale(0.015625)"/>
      <path id="DejaVuSans-76" d="M 191 3500 
L 800 3500 
L 1894 563 
L 2988 3500 
L 3597 3500 
L 2284 0 
L 1503 0 
L 191 3500 
z
" transform="scale(0.015625)"/>
      <path id="DejaVuSans-61" d="M 2194 1759 
Q 1497 1759 1228 1600 
Q 959 1441 959 1056 
Q 959 750 1161 570 
Q 1363 391 1709 391 
Q 2188 391 2477 730 
Q 2766 1069 2766 1631 
L 2766 1759 
L 2194 1759 
z
M 3341 1997 
L 3341 0 
L 2766 0 
L 2766 531 
Q 2569 213 2275 61 
Q 1981 -91 1556 -91 
Q 1019 -91 701 211 
Q 384 513 384 1019 
Q 384 1609 779 1909 
Q 1175 2209 1959 2209 
L 2766 2209 
L 2766 2266 
Q 2766 2663 2505 2880 
Q 2244 3097 1772 3097 
Q 1472 3097 1187 3025 
Q 903 2953 641 2809 
L 641 3341 
Q 956 3463 1253 3523 
Q 1550 3584 1831 3584 
Q 2591 3584 2966 3190 
Q 3341 2797 3341 1997 
z
" transform="scale(0.015625)"/>
     </defs>
     <use xlink:href="#DejaVuSans-70"/>
     <use xlink:href="#DejaVuSans-72" transform="translate(63.476562 0)"/>
     <use xlink:href="#DejaVuSans-65" transform="translate(102.339844 0)"/>
     <use xlink:href="#DejaVuSans-64" transform="translate(163.863281 0)"/>
     <use xlink:href="#DejaVuSans-69" transform="translate(227.339844 0)"/>
     <use xlink:href="#DejaVuSans-63" transform="translate(255.123047 0)"/>
     <use xlink:href="#DejaVuSans-74" transform="translate(310.103516 0)"/>
     <use xlink:href="#DejaVuSans-69" transform="translate(349.3125 0)"/>
     <use xlink:href="#DejaVuSans-6f" transform="translate(377.095703 0)"/>
     <use xlink:href="#DejaVuSans-6e" transform="translate(438.277344 0)"/>
     <use xlink:href="#DejaVuSans-73" transform="translate(501.65625 0)"/>
     <use xlink:href="#DejaVuSans-20" transform="translate(553.755859 0)"/>
     <use xlink:href="#DejaVuSans-76" transform="translate(585.542969 0)"/>
     <use xlink:href="#DejaVuSans-73" transform="translate(644.722656 0)"/>
     <use xlink:href="#DejaVuSans-20" transform="translate(696.822266 0)"/>
     <use xlink:href="#DejaVuSans-64" transform="translate(728.609375 0)"/>
     <use xlink:href="#DejaVuSans-61" transform="translate(792.085938 0)"/>
     <use xlink:href="#DejaVuSans-74" transform="translate(853.365234 0)"/>
     <use xlink:href="#DejaVuSans-61" transform="translate(892.574219 0)"/>
    </g>
   </g>
   <g id="legend_1">
    <g id="patch_7">
     <path d="M 67.5765 168.8925 
L 169.8165 168.8925 
Q 172.2165 168.8925 172.2165 166.4925 
L 172.2165 62.01 
Q 172.2165 59.61 169.8165 59.61 
L 67.5765 59.61 
Q 65.1765 59.61 65.1765 62.01 
L 65.1765 166.4925 
Q 65.1765 168.8925 67.5765 168.8925 
z
" style="fill: #ffffff; opacity: 0.8; stroke: #cccccc; stroke-width: 0.5; stroke-linejoin: miter"/>
    </g>
    <g id="PathCollection_3">
     <g>
      <use xlink:href="#m10781fd79c" x="81.9765" y="70.378125" style="fill: #ff0000; stroke: #ff0000; stroke-width: 0.5"/>
     </g>
    </g>
    <g id="text_13">
     <!-- train -->
     <g transform="translate(103.5765 73.528125) scale(0.12 -0.12)">
      <use xlink:href="#DejaVuSans-74"/>
      <use xlink:href="#DejaVuSans-72" transform="translate(39.208984 0)"/>
      <use xlink:href="#DejaVuSans-61" transform="translate(80.322266 0)"/>
      <use xlink:href="#DejaVuSans-69" transform="translate(141.601562 0)"/>
      <use xlink:href="#DejaVuSans-6e" transform="translate(169.384766 0)"/>
     </g>
    </g>
    <g id="PathCollection_4">
     <g>
      <use xlink:href="#m6001f76d56" x="81.9765" y="87.991875" style="fill: #ff9300; stroke: #ff9300; stroke-width: 0.5"/>
     </g>
    </g>
    <g id="text_14">
     <!-- cv -->
     <g transform="translate(103.5765 91.141875) scale(0.12 -0.12)">
      <use xlink:href="#DejaVuSans-63"/>
      <use xlink:href="#DejaVuSans-76" transform="translate(54.980469 0)"/>
     </g>
    </g>
    <g id="line2d_14">
     <path d="M 69.9765 104.555625 
L 81.9765 104.555625 
L 93.9765 104.555625 
" style="fill: none; stroke: #0096ff; stroke-width: 0.5"/>
    </g>
    <g id="text_15">
     <!-- $\lambda =$0.0 -->
     <g transform="translate(103.5765 108.755625) scale(0.12 -0.12)">
      <defs>
       <path id="DejaVuSans-Oblique-3bb" d="M 2350 4316 
L 3125 0 
L 2516 0 
L 2038 2588 
L 328 0 
L -281 0 
L 1903 3356 
L 1794 3975 
Q 1725 4369 1391 4369 
L 1091 4369 
L 1184 4863 
L 1550 4856 
Q 2253 4847 2350 4316 
z
" transform="scale(0.015625)"/>
       <path id="DejaVuSans-3d" d="M 678 2906 
L 4684 2906 
L 4684 2381 
L 678 2381 
L 678 2906 
z
M 678 1631 
L 4684 1631 
L 4684 1100 
L 678 1100 
L 678 1631 
z
" transform="scale(0.015625)"/>
       <path id="DejaVuSans-2e" d="M 684 794 
L 1344 794 
L 1344 0 
L 684 0 
L 684 794 
z
" transform="scale(0.015625)"/>
      </defs>
      <use xlink:href="#DejaVuSans-Oblique-3bb" transform="translate(0 0.015625)"/>
      <use xlink:href="#DejaVuSans-3d" transform="translate(78.662109 0.015625)"/>
      <use xlink:href="#DejaVuSans-30" transform="translate(181.933594 0.015625)"/>
      <use xlink:href="#DejaVuSans-2e" transform="translate(245.556641 0.015625)"/>
      <use xlink:href="#DejaVuSans-30" transform="translate(277.34375 0.015625)"/>
     </g>
    </g>
    <g id="line2d_15">
     <path d="M 69.9765 122.169375 
L 81.9765 122.169375 
L 93.9765 122.169375 
" style="fill: none; stroke: #ff9300; stroke-width: 0.5"/>
    </g>
    <g id="text_16">
     <!-- $\lambda =$0.0001 -->
     <g transform="translate(103.5765 126.369375) scale(0.12 -0.12)">
      <use xlink:href="#DejaVuSans-Oblique-3bb" transform="translate(0 0.015625)"/>
      <use xlink:href="#DejaVuSans-3d" transform="translate(78.662109 0.015625)"/>
      <use xlink:href="#DejaVuSans-30" transform="translate(181.933594 0.015625)"/>
      <use xlink:href="#DejaVuSans-2e" transform="translate(245.556641 0.015625)"/>
      <use xlink:href="#DejaVuSans-30" transform="translate(277.34375 0.015625)"/>
      <use xlink:href="#DejaVuSans-30" transform="translate(340.966797 0.015625)"/>
      <use xlink:href="#DejaVuSans-30" transform="translate(404.589844 0.015625)"/>
      <use xlink:href="#DejaVuSans-31" transform="translate(468.212891 0.015625)"/>
     </g>
    </g>
    <g id="line2d_16">
     <path d="M 69.9765 139.783125 
L 81.9765 139.783125 
L 93.9765 139.783125 
" style="fill: none; stroke: #ff40ff; stroke-width: 0.5"/>
    </g>
    <g id="text_17">
     <!-- $\lambda =$1.0 -->
     <g transform="translate(103.5765 143.983125) scale(0.12 -0.12)">
      <use xlink:href="#DejaVuSans-Oblique-3bb" transform="translate(0 0.015625)"/>
      <use xlink:href="#DejaVuSans-3d" transform="translate(78.662109 0.015625)"/>
      <use xlink:href="#DejaVuSans-31" transform="translate(181.933594 0.015625)"/>
      <use xlink:href="#DejaVuSans-2e" transform="translate(245.556641 0.015625)"/>
      <use xlink:href="#DejaVuSans-30" transform="translate(277.34375 0.015625)"/>
     </g>
    </g>
    <g id="line2d_17">
     <path d="M 69.9765 157.396875 
L 81.9765 157.396875 
L 93.9765 157.396875 
" style="fill: none; stroke: #7030a0; stroke-width: 0.5"/>
    </g>
    <g id="text_18">
     <!-- $\lambda =$100.0 -->
     <g transform="translate(103.5765 161.596875) scale(0.12 -0.12)">
      <use xlink:href="#DejaVuSans-Oblique-3bb" transform="translate(0 0.015625)"/>
      <use xlink:href="#DejaVuSans-3d" transform="translate(78.662109 0.015625)"/>
      <use xlink:href="#DejaVuSans-31" transform="translate(181.933594 0.015625)"/>
      <use xlink:href="#DejaVuSans-30" transform="translate(245.556641 0.015625)"/>
      <use xlink:href="#DejaVuSans-30" transform="translate(309.179688 0.015625)"/>
      <use xlink:href="#DejaVuSans-2e" transform="translate(372.802734 0.015625)"/>
      <use xlink:href="#DejaVuSans-30" transform="translate(404.589844 0.015625)"/>
     </g>
    </g>
   </g>
  </g>
  <g id="axes_2">
   <g id="patch_8">
    <path d="M 348.29025 240.705 
L 557.03775 240.705 
L 557.03775 53.61 
L 348.29025 53.61 
z
" style="fill: #ffffff"/>
   </g>
   <g id="matplotlib.axis_3">
    <g id="xtick_4">
     <g id="line2d_18"/>
     <g id="text_19">
      <!-- $\mathdefault{10^{-5}}$ -->
      <g transform="translate(367.40008 253.323125) scale(0.12 -0.12)">
       <defs>
        <path id="DejaVuSans-2212" d="M 678 2272 
L 4684 2272 
L 4684 1741 
L 678 1741 
L 678 2272 
z
" transform="scale(0.015625)"/>
       </defs>
       <use xlink:href="#DejaVuSans-31" transform="translate(0 0.684375)"/>
       <use xlink:href="#DejaVuSans-30" transform="translate(63.623047 0.684375)"/>
       <use xlink:href="#DejaVuSans-2212" transform="translate(128.203125 38.965625) scale(0.7)"/>
       <use xlink:href="#DejaVuSans-35" transform="translate(186.855469 38.965625) scale(0.7)"/>
      </g>
     </g>
    </g>
    <g id="xtick_5">
     <g id="line2d_19"/>
     <g id="text_20">
      <!-- $\mathdefault{10^{-3}}$ -->
      <g transform="translate(414.842693 253.323125) scale(0.12 -0.12)">
       <defs>
        <path id="DejaVuSans-33" d="M 2597 2516 
Q 3050 2419 3304 2112 
Q 3559 1806 3559 1356 
Q 3559 666 3084 287 
Q 2609 -91 1734 -91 
Q 1441 -91 1130 -33 
Q 819 25 488 141 
L 488 750 
Q 750 597 1062 519 
Q 1375 441 1716 441 
Q 2309 441 2620 675 
Q 2931 909 2931 1356 
Q 2931 1769 2642 2001 
Q 2353 2234 1838 2234 
L 1294 2234 
L 1294 2753 
L 1863 2753 
Q 2328 2753 2575 2939 
Q 2822 3125 2822 3475 
Q 2822 3834 2567 4026 
Q 2313 4219 1838 4219 
Q 1578 4219 1281 4162 
Q 984 4106 628 3988 
L 628 4550 
Q 988 4650 1302 4700 
Q 1616 4750 1894 4750 
Q 2613 4750 3031 4423 
Q 3450 4097 3450 3541 
Q 3450 3153 3228 2886 
Q 3006 2619 2597 2516 
z
" transform="scale(0.015625)"/>
       </defs>
       <use xlink:href="#DejaVuSans-31" transform="translate(0 0.765625)"/>
       <use xlink:href="#DejaVuSans-30" transform="translate(63.623047 0.765625)"/>
       <use xlink:href="#DejaVuSans-2212" transform="translate(128.203125 39.046875) scale(0.7)"/>
       <use xlink:href="#DejaVuSans-33" transform="translate(186.855469 39.046875) scale(0.7)"/>
      </g>
     </g>
    </g>
    <g id="xtick_6">
     <g id="line2d_20"/>
     <g id="text_21">
      <!-- $\mathdefault{10^{-1}}$ -->
      <g transform="translate(462.285307 253.323125) scale(0.12 -0.12)">
       <use xlink:href="#DejaVuSans-31" transform="translate(0 0.684375)"/>
       <use xlink:href="#DejaVuSans-30" transform="translate(63.623047 0.684375)"/>
       <use xlink:href="#DejaVuSans-2212" transform="translate(128.203125 38.965625) scale(0.7)"/>
       <use xlink:href="#DejaVuSans-31" transform="translate(186.855469 38.965625) scale(0.7)"/>
      </g>
     </g>
    </g>
    <g id="xtick_7">
     <g id="line2d_21"/>
     <g id="text_22">
      <!-- $\mathdefault{10^{1}}$ -->
      <g transform="translate(513.26792 253.323125) scale(0.12 -0.12)">
       <use xlink:href="#DejaVuSans-31" transform="translate(0 0.684375)"/>
       <use xlink:href="#DejaVuSans-30" transform="translate(63.623047 0.684375)"/>
       <use xlink:href="#DejaVuSans-31" transform="translate(128.203125 38.965625) scale(0.7)"/>
      </g>
     </g>
    </g>
    <g id="text_23">
     <!-- regularization (lambda) -->
     <g transform="translate(368.060625 270.7605) scale(0.144 -0.144)">
      <defs>
       <path id="DejaVuSans-67" d="M 2906 1791 
Q 2906 2416 2648 2759 
Q 2391 3103 1925 3103 
Q 1463 3103 1205 2759 
Q 947 2416 947 1791 
Q 947 1169 1205 825 
Q 1463 481 1925 481 
Q 2391 481 2648 825 
Q 2906 1169 2906 1791 
z
M 3481 434 
Q 3481 -459 3084 -895 
Q 2688 -1331 1869 -1331 
Q 1566 -1331 1297 -1286 
Q 1028 -1241 775 -1147 
L 775 -588 
Q 1028 -725 1275 -790 
Q 1522 -856 1778 -856 
Q 2344 -856 2625 -561 
Q 2906 -266 2906 331 
L 2906 616 
Q 2728 306 2450 153 
Q 2172 0 1784 0 
Q 1141 0 747 490 
Q 353 981 353 1791 
Q 353 2603 747 3093 
Q 1141 3584 1784 3584 
Q 2172 3584 2450 3431 
Q 2728 3278 2906 2969 
L 2906 3500 
L 3481 3500 
L 3481 434 
z
" transform="scale(0.015625)"/>
       <path id="DejaVuSans-75" d="M 544 1381 
L 544 3500 
L 1119 3500 
L 1119 1403 
Q 1119 906 1312 657 
Q 1506 409 1894 409 
Q 2359 409 2629 706 
Q 2900 1003 2900 1516 
L 2900 3500 
L 3475 3500 
L 3475 0 
L 2900 0 
L 2900 538 
Q 2691 219 2414 64 
Q 2138 -91 1772 -91 
Q 1169 -91 856 284 
Q 544 659 544 1381 
z
M 1991 3584 
L 1991 3584 
z
" transform="scale(0.015625)"/>
       <path id="DejaVuSans-6c" d="M 603 4863 
L 1178 4863 
L 1178 0 
L 603 0 
L 603 4863 
z
" transform="scale(0.015625)"/>
       <path id="DejaVuSans-7a" d="M 353 3500 
L 3084 3500 
L 3084 2975 
L 922 459 
L 3084 459 
L 3084 0 
L 275 0 
L 275 525 
L 2438 3041 
L 353 3041 
L 353 3500 
z
" transform="scale(0.015625)"/>
       <path id="DejaVuSans-28" d="M 1984 4856 
Q 1566 4138 1362 3434 
Q 1159 2731 1159 2009 
Q 1159 1288 1364 580 
Q 1569 -128 1984 -844 
L 1484 -844 
Q 1016 -109 783 600 
Q 550 1309 550 2009 
Q 550 2706 781 3412 
Q 1013 4119 1484 4856 
L 1984 4856 
z
" transform="scale(0.015625)"/>
       <path id="DejaVuSans-6d" d="M 3328 2828 
Q 3544 3216 3844 3400 
Q 4144 3584 4550 3584 
Q 5097 3584 5394 3201 
Q 5691 2819 5691 2113 
L 5691 0 
L 5113 0 
L 5113 2094 
Q 5113 2597 4934 2840 
Q 4756 3084 4391 3084 
Q 3944 3084 3684 2787 
Q 3425 2491 3425 1978 
L 3425 0 
L 2847 0 
L 2847 2094 
Q 2847 2600 2669 2842 
Q 2491 3084 2119 3084 
Q 1678 3084 1418 2786 
Q 1159 2488 1159 1978 
L 1159 0 
L 581 0 
L 581 3500 
L 1159 3500 
L 1159 2956 
Q 1356 3278 1631 3431 
Q 1906 3584 2284 3584 
Q 2666 3584 2933 3390 
Q 3200 3197 3328 2828 
z
" transform="scale(0.015625)"/>
       <path id="DejaVuSans-62" d="M 3116 1747 
Q 3116 2381 2855 2742 
Q 2594 3103 2138 3103 
Q 1681 3103 1420 2742 
Q 1159 2381 1159 1747 
Q 1159 1113 1420 752 
Q 1681 391 2138 391 
Q 2594 391 2855 752 
Q 3116 1113 3116 1747 
z
M 1159 2969 
Q 1341 3281 1617 3432 
Q 1894 3584 2278 3584 
Q 2916 3584 3314 3078 
Q 3713 2572 3713 1747 
Q 3713 922 3314 415 
Q 2916 -91 2278 -91 
Q 1894 -91 1617 61 
Q 1341 213 1159 525 
L 1159 0 
L 581 0 
L 581 4863 
L 1159 4863 
L 1159 2969 
z
" transform="scale(0.015625)"/>
       <path id="DejaVuSans-29" d="M 513 4856 
L 1013 4856 
Q 1481 4119 1714 3412 
Q 1947 2706 1947 2009 
Q 1947 1309 1714 600 
Q 1481 -109 1013 -844 
L 513 -844 
Q 928 -128 1133 580 
Q 1338 1288 1338 2009 
Q 1338 2731 1133 3434 
Q 928 4138 513 4856 
z
" transform="scale(0.015625)"/>
      </defs>
      <use xlink:href="#DejaVuSans-72"/>
      <use xlink:href="#DejaVuSans-65" transform="translate(38.863281 0)"/>
      <use xlink:href="#DejaVuSans-67" transform="translate(100.386719 0)"/>
      <use xlink:href="#DejaVuSans-75" transform="translate(163.863281 0)"/>
      <use xlink:href="#DejaVuSans-6c" transform="translate(227.242188 0)"/>
      <use xlink:href="#DejaVuSans-61" transform="translate(255.025391 0)"/>
      <use xlink:href="#DejaVuSans-72" transform="translate(316.304688 0)"/>
      <use xlink:href="#DejaVuSans-69" transform="translate(357.417969 0)"/>
      <use xlink:href="#DejaVuSans-7a" transform="translate(385.201172 0)"/>
      <use xlink:href="#DejaVuSans-61" transform="translate(437.691406 0)"/>
      <use xlink:href="#DejaVuSans-74" transform="translate(498.970703 0)"/>
      <use xlink:href="#DejaVuSans-69" transform="translate(538.179688 0)"/>
      <use xlink:href="#DejaVuSans-6f" transform="translate(565.962891 0)"/>
      <use xlink:href="#DejaVuSans-6e" transform="translate(627.144531 0)"/>
      <use xlink:href="#DejaVuSans-20" transform="translate(690.523438 0)"/>
      <use xlink:href="#DejaVuSans-28" transform="translate(722.310547 0)"/>
      <use xlink:href="#DejaVuSans-6c" transform="translate(761.324219 0)"/>
      <use xlink:href="#DejaVuSans-61" transform="translate(789.107422 0)"/>
      <use xlink:href="#DejaVuSans-6d" transform="translate(850.386719 0)"/>
      <use xlink:href="#DejaVuSans-62" transform="translate(947.798828 0)"/>
      <use xlink:href="#DejaVuSans-64" transform="translate(1011.275391 0)"/>
      <use xlink:href="#DejaVuSans-61" transform="translate(1074.751953 0)"/>
      <use xlink:href="#DejaVuSans-29" transform="translate(1136.03125 0)"/>
     </g>
    </g>
   </g>
   <g id="matplotlib.axis_4">
    <g id="ytick_7">
     <g id="line2d_22"/>
     <g id="text_24">
      <!-- 0 -->
      <g transform="translate(337.15525 238.335673) scale(0.12 -0.12)">
       <use xlink:href="#DejaVuSans-30"/>
      </g>
     </g>
    </g>
    <g id="ytick_8">
     <g id="line2d_23"/>
     <g id="text_25">
      <!-- 100000 -->
      <g transform="translate(298.98025 186.594507) scale(0.12 -0.12)">
       <use xlink:href="#DejaVuSans-31"/>
       <use xlink:href="#DejaVuSans-30" transform="translate(63.623047 0)"/>
       <use xlink:href="#DejaVuSans-30" transform="translate(127.246094 0)"/>
       <use xlink:href="#DejaVuSans-30" transform="translate(190.869141 0)"/>
       <use xlink:href="#DejaVuSans-30" transform="translate(254.492188 0)"/>
       <use xlink:href="#DejaVuSans-30" transform="translate(318.115234 0)"/>
      </g>
     </g>
    </g>
    <g id="ytick_9">
     <g id="line2d_24"/>
     <g id="text_26">
      <!-- 200000 -->
      <g transform="translate(298.98025 134.85334) scale(0.12 -0.12)">
       <use xlink:href="#DejaVuSans-32"/>
       <use xlink:href="#DejaVuSans-30" transform="translate(63.623047 0)"/>
       <use xlink:href="#DejaVuSans-30" transform="translate(127.246094 0)"/>
       <use xlink:href="#DejaVuSans-30" transform="translate(190.869141 0)"/>
       <use xlink:href="#DejaVuSans-30" transform="translate(254.492188 0)"/>
       <use xlink:href="#DejaVuSans-30" transform="translate(318.115234 0)"/>
      </g>
     </g>
    </g>
    <g id="ytick_10">
     <g id="line2d_25"/>
     <g id="text_27">
      <!-- 300000 -->
      <g transform="translate(298.98025 83.112174) scale(0.12 -0.12)">
       <use xlink:href="#DejaVuSans-33"/>
       <use xlink:href="#DejaVuSans-30" transform="translate(63.623047 0)"/>
       <use xlink:href="#DejaVuSans-30" transform="translate(127.246094 0)"/>
       <use xlink:href="#DejaVuSans-30" transform="translate(190.869141 0)"/>
       <use xlink:href="#DejaVuSans-30" transform="translate(254.492188 0)"/>
       <use xlink:href="#DejaVuSans-30" transform="translate(318.115234 0)"/>
      </g>
     </g>
    </g>
    <g id="text_28">
     <!-- error -->
     <g transform="translate(291.9855 164.584875) rotate(-90) scale(0.144 -0.144)">
      <use xlink:href="#DejaVuSans-65"/>
      <use xlink:href="#DejaVuSans-72" transform="translate(61.523438 0)"/>
      <use xlink:href="#DejaVuSans-72" transform="translate(100.886719 0)"/>
      <use xlink:href="#DejaVuSans-6f" transform="translate(139.75 0)"/>
      <use xlink:href="#DejaVuSans-72" transform="translate(200.931641 0)"/>
     </g>
    </g>
   </g>
   <g id="line2d_26">
    <path d="M -1 231.767025 
L 357.778773 231.760325 
L 381.50008 231.669563 
L 405.221386 231.444756 
L 428.942693 231.208988 
L 452.664 231.046887 
L 476.385307 230.860033 
L 500.106614 230.512485 
L 523.82792 229.25114 
L 547.549227 216.187645 
" clip-path="url(#p361756ddd9)" style="fill: none; stroke: #0096ff; stroke-width: 4"/>
   </g>
   <g id="line2d_27">
    <path d="M -1 172.534984 
L 357.778773 174.24111 
L 381.50008 182.555127 
L 405.221386 194.415791 
L 428.942693 200.535269 
L 452.664 203.289281 
L 476.385307 204.285944 
L 500.106614 205.338937 
L 523.82792 198.538502 
L 547.549227 171.880506 
" clip-path="url(#p361756ddd9)" style="fill: none; stroke: #ff9300; stroke-width: 4"/>
   </g>
   <g id="LineCollection_1">
    <path d="M 500.106614 240.705 
L 500.106614 53.61 
" clip-path="url(#p361756ddd9)" style="fill: none; stroke: #000000"/>
   </g>
   <g id="patch_9">
    <path d="M 348.29025 240.705 
L 348.29025 53.61 
" style="fill: none; stroke: #f0f0f0; stroke-width: 3; stroke-linejoin: miter; stroke-linecap: square"/>
   </g>
   <g id="patch_10">
    <path d="M 557.03775 240.705 
L 557.03775 53.61 
" style="fill: none; stroke: #f0f0f0; stroke-width: 3; stroke-linejoin: miter; stroke-linecap: square"/>
   </g>
   <g id="patch_11">
    <path d="M 348.29025 240.705 
L 557.03775 240.705 
" style="fill: none; stroke: #f0f0f0; stroke-width: 3; stroke-linejoin: miter; stroke-linecap: square"/>
   </g>
   <g id="patch_12">
    <path d="M 348.29025 53.61 
L 557.03775 53.61 
" style="fill: none; stroke: #f0f0f0; stroke-width: 3; stroke-linejoin: miter; stroke-linecap: square"/>
   </g>
   <g id="patch_13">
    <path d="M 488.795574 150.297199 
Q 490.969185 151.176035 493.142796 152.054871 
L 493.817511 150.386111 
Q 496.036068 152.901087 498.254624 155.416063 
Q 494.911544 155.682354 491.568463 155.948645 
L 492.243177 154.279884 
Q 490.069566 153.401048 487.895955 152.522212 
L 488.795574 150.297199 
z
" style="fill: #0096ff; stroke: #f0f0f0; stroke-width: 0.5; stroke-linecap: round"/>
   </g>
   <g id="text_29">
    <!-- optimal lambda -->
    <g transform="translate(420.106614 146.164861) scale(0.12 -0.12)">
     <use xlink:href="#DejaVuSans-6f"/>
     <use xlink:href="#DejaVuSans-70" transform="translate(61.181641 0)"/>
     <use xlink:href="#DejaVuSans-74" transform="translate(124.658203 0)"/>
     <use xlink:href="#DejaVuSans-69" transform="translate(163.867188 0)"/>
     <use xlink:href="#DejaVuSans-6d" transform="translate(191.650391 0)"/>
     <use xlink:href="#DejaVuSans-61" transform="translate(289.0625 0)"/>
     <use xlink:href="#DejaVuSans-6c" transform="translate(350.341797 0)"/>
     <use xlink:href="#DejaVuSans-20" transform="translate(378.125 0)"/>
     <use xlink:href="#DejaVuSans-6c" transform="translate(409.912109 0)"/>
     <use xlink:href="#DejaVuSans-61" transform="translate(437.695312 0)"/>
     <use xlink:href="#DejaVuSans-6d" transform="translate(498.974609 0)"/>
     <use xlink:href="#DejaVuSans-62" transform="translate(596.386719 0)"/>
     <use xlink:href="#DejaVuSans-64" transform="translate(659.863281 0)"/>
     <use xlink:href="#DejaVuSans-61" transform="translate(723.339844 0)"/>
    </g>
   </g>
   <g id="text_30">
    <!-- High -->
    <g style="fill: #0096ff" transform="translate(358.727625 144.945825) scale(0.12 -0.12)">
     <defs>
      <path id="DejaVuSans-48" d="M 628 4666 
L 1259 4666 
L 1259 2753 
L 3553 2753 
L 3553 4666 
L 4184 4666 
L 4184 0 
L 3553 0 
L 3553 2222 
L 1259 2222 
L 1259 0 
L 628 0 
L 628 4666 
z
" transform="scale(0.015625)"/>
      <path id="DejaVuSans-68" d="M 3513 2113 
L 3513 0 
L 2938 0 
L 2938 2094 
Q 2938 2591 2744 2837 
Q 2550 3084 2163 3084 
Q 1697 3084 1428 2787 
Q 1159 2491 1159 1978 
L 1159 0 
L 581 0 
L 581 4863 
L 1159 4863 
L 1159 2956 
Q 1366 3272 1645 3428 
Q 1925 3584 2291 3584 
Q 2894 3584 3203 3211 
Q 3513 2838 3513 2113 
z
" transform="scale(0.015625)"/>
     </defs>
     <use xlink:href="#DejaVuSans-48"/>
     <use xlink:href="#DejaVuSans-69" transform="translate(75.195312 0)"/>
     <use xlink:href="#DejaVuSans-67" transform="translate(102.978516 0)"/>
     <use xlink:href="#DejaVuSans-68" transform="translate(166.455078 0)"/>
    </g>
    <!-- Variance -->
    <g style="fill: #0096ff" transform="translate(358.727625 158.3832) scale(0.12 -0.12)">
     <defs>
      <path id="DejaVuSans-56" d="M 1831 0 
L 50 4666 
L 709 4666 
L 2188 738 
L 3669 4666 
L 4325 4666 
L 2547 0 
L 1831 0 
z
" transform="scale(0.015625)"/>
     </defs>
     <use xlink:href="#DejaVuSans-56"/>
     <use xlink:href="#DejaVuSans-61" transform="translate(60.658203 0)"/>
     <use xlink:href="#DejaVuSans-72" transform="translate(121.9375 0)"/>
     <use xlink:href="#DejaVuSans-69" transform="translate(163.050781 0)"/>
     <use xlink:href="#DejaVuSans-61" transform="translate(190.833984 0)"/>
     <use xlink:href="#DejaVuSans-6e" transform="translate(252.113281 0)"/>
     <use xlink:href="#DejaVuSans-63" transform="translate(315.492188 0)"/>
     <use xlink:href="#DejaVuSans-65" transform="translate(370.472656 0)"/>
    </g>
   </g>
   <g id="text_31">
    <!-- High -->
    <g style="fill: #0096ff" transform="translate(519.019125 144.945825) scale(0.12 -0.12)">
     <use xlink:href="#DejaVuSans-48"/>
     <use xlink:href="#DejaVuSans-69" transform="translate(75.195312 0)"/>
     <use xlink:href="#DejaVuSans-67" transform="translate(102.978516 0)"/>
     <use xlink:href="#DejaVuSans-68" transform="translate(166.455078 0)"/>
    </g>
    <!-- Bias -->
    <g style="fill: #0096ff" transform="translate(521.4285 158.3832) scale(0.12 -0.12)">
     <defs>
      <path id="DejaVuSans-42" d="M 1259 2228 
L 1259 519 
L 2272 519 
Q 2781 519 3026 730 
Q 3272 941 3272 1375 
Q 3272 1813 3026 2020 
Q 2781 2228 2272 2228 
L 1259 2228 
z
M 1259 4147 
L 1259 2741 
L 2194 2741 
Q 2656 2741 2882 2914 
Q 3109 3088 3109 3444 
Q 3109 3797 2882 3972 
Q 2656 4147 2194 4147 
L 1259 4147 
z
M 628 4666 
L 2241 4666 
Q 2963 4666 3353 4366 
Q 3744 4066 3744 3513 
Q 3744 3084 3544 2831 
Q 3344 2578 2956 2516 
Q 3422 2416 3680 2098 
Q 3938 1781 3938 1306 
Q 3938 681 3513 340 
Q 3088 0 2303 0 
L 628 0 
L 628 4666 
z
" transform="scale(0.015625)"/>
     </defs>
     <use xlink:href="#DejaVuSans-42"/>
     <use xlink:href="#DejaVuSans-69" transform="translate(68.603516 0)"/>
     <use xlink:href="#DejaVuSans-61" transform="translate(96.386719 0)"/>
     <use xlink:href="#DejaVuSans-73" transform="translate(157.666016 0)"/>
    </g>
   </g>
   <g id="text_32">
    <!-- error vs regularization -->
    <g transform="translate(386.219625 47.61) scale(0.12 -0.12)">
     <use xlink:href="#DejaVuSans-65"/>
     <use xlink:href="#DejaVuSans-72" transform="translate(61.523438 0)"/>
     <use xlink:href="#DejaVuSans-72" transform="translate(100.886719 0)"/>
     <use xlink:href="#DejaVuSans-6f" transform="translate(139.75 0)"/>
     <use xlink:href="#DejaVuSans-72" transform="translate(200.931641 0)"/>
     <use xlink:href="#DejaVuSans-20" transform="translate(242.044922 0)"/>
     <use xlink:href="#DejaVuSans-76" transform="translate(273.832031 0)"/>
     <use xlink:href="#DejaVuSans-73" transform="translate(333.011719 0)"/>
     <use xlink:href="#DejaVuSans-20" transform="translate(385.111328 0)"/>
     <use xlink:href="#DejaVuSans-72" transform="translate(416.898438 0)"/>
     <use xlink:href="#DejaVuSans-65" transform="translate(455.761719 0)"/>
     <use xlink:href="#DejaVuSans-67" transform="translate(517.285156 0)"/>
     <use xlink:href="#DejaVuSans-75" transform="translate(580.761719 0)"/>
     <use xlink:href="#DejaVuSans-6c" transform="translate(644.140625 0)"/>
     <use xlink:href="#DejaVuSans-61" transform="translate(671.923828 0)"/>
     <use xlink:href="#DejaVuSans-72" transform="translate(733.203125 0)"/>
     <use xlink:href="#DejaVuSans-69" transform="translate(774.316406 0)"/>
     <use xlink:href="#DejaVuSans-7a" transform="translate(802.099609 0)"/>
     <use xlink:href="#DejaVuSans-61" transform="translate(854.589844 0)"/>
     <use xlink:href="#DejaVuSans-74" transform="translate(915.869141 0)"/>
     <use xlink:href="#DejaVuSans-69" transform="translate(955.078125 0)"/>
     <use xlink:href="#DejaVuSans-6f" transform="translate(982.861328 0)"/>
     <use xlink:href="#DejaVuSans-6e" transform="translate(1044.042969 0)"/>
    </g>
   </g>
   <g id="legend_2">
    <g id="patch_14">
     <path d="M 356.69025 98.4375 
L 455.879625 98.4375 
Q 458.279625 98.4375 458.279625 96.0375 
L 458.279625 62.01 
Q 458.279625 59.61 455.879625 59.61 
L 356.69025 59.61 
Q 354.29025 59.61 354.29025 62.01 
L 354.29025 96.0375 
Q 354.29025 98.4375 356.69025 98.4375 
z
" style="fill: #ffffff; opacity: 0.8; stroke: #cccccc; stroke-width: 0.5; stroke-linejoin: miter"/>
    </g>
    <g id="line2d_28">
     <path d="M 359.09025 69.328125 
L 371.09025 69.328125 
L 383.09025 69.328125 
" style="fill: none; stroke: #0096ff; stroke-width: 4"/>
    </g>
    <g id="text_33">
     <!-- train error -->
     <g transform="translate(392.69025 73.528125) scale(0.12 -0.12)">
      <use xlink:href="#DejaVuSans-74"/>
      <use xlink:href="#DejaVuSans-72" transform="translate(39.208984 0)"/>
      <use xlink:href="#DejaVuSans-61" transform="translate(80.322266 0)"/>
      <use xlink:href="#DejaVuSans-69" transform="translate(141.601562 0)"/>
      <use xlink:href="#DejaVuSans-6e" transform="translate(169.384766 0)"/>
      <use xlink:href="#DejaVuSans-20" transform="translate(232.763672 0)"/>
      <use xlink:href="#DejaVuSans-65" transform="translate(264.550781 0)"/>
      <use xlink:href="#DejaVuSans-72" transform="translate(326.074219 0)"/>
      <use xlink:href="#DejaVuSans-72" transform="translate(365.4375 0)"/>
      <use xlink:href="#DejaVuSans-6f" transform="translate(404.300781 0)"/>
      <use xlink:href="#DejaVuSans-72" transform="translate(465.482422 0)"/>
     </g>
    </g>
    <g id="line2d_29">
     <path d="M 359.09025 86.941875 
L 371.09025 86.941875 
L 383.09025 86.941875 
" style="fill: none; stroke: #ff9300; stroke-width: 4"/>
    </g>
    <g id="text_34">
     <!-- cv error -->
     <g transform="translate(392.69025 91.141875) scale(0.12 -0.12)">
      <use xlink:href="#DejaVuSans-63"/>
      <use xlink:href="#DejaVuSans-76" transform="translate(54.980469 0)"/>
      <use xlink:href="#DejaVuSans-20" transform="translate(114.160156 0)"/>
      <use xlink:href="#DejaVuSans-65" transform="translate(145.947266 0)"/>
      <use xlink:href="#DejaVuSans-72" transform="translate(207.470703 0)"/>
      <use xlink:href="#DejaVuSans-72" transform="translate(246.833984 0)"/>
      <use xlink:href="#DejaVuSans-6f" transform="translate(285.697266 0)"/>
      <use xlink:href="#DejaVuSans-72" transform="translate(346.878906 0)"/>
     </g>
    </g>
   </g>
  </g>
  <g id="text_35">
   <!-- Tuning Regularization -->
   <g transform="translate(217.451813 16.318125) scale(0.12 -0.12)">
    <defs>
     <path id="DejaVuSans-54" d="M -19 4666 
L 3928 4666 
L 3928 4134 
L 2272 4134 
L 2272 0 
L 1638 0 
L 1638 4134 
L -19 4134 
L -19 4666 
z
" transform="scale(0.015625)"/>
     <path id="DejaVuSans-52" d="M 2841 2188 
Q 3044 2119 3236 1894 
Q 3428 1669 3622 1275 
L 4263 0 
L 3584 0 
L 2988 1197 
Q 2756 1666 2539 1819 
Q 2322 1972 1947 1972 
L 1259 1972 
L 1259 0 
L 628 0 
L 628 4666 
L 2053 4666 
Q 2853 4666 3247 4331 
Q 3641 3997 3641 3322 
Q 3641 2881 3436 2590 
Q 3231 2300 2841 2188 
z
M 1259 4147 
L 1259 2491 
L 2053 2491 
Q 2509 2491 2742 2702 
Q 2975 2913 2975 3322 
Q 2975 3731 2742 3939 
Q 2509 4147 2053 4147 
L 1259 4147 
z
" transform="scale(0.015625)"/>
    </defs>
    <use xlink:href="#DejaVuSans-54"/>
    <use xlink:href="#DejaVuSans-75" transform="translate(45.958984 0)"/>
    <use xlink:href="#DejaVuSans-6e" transform="translate(109.337891 0)"/>
    <use xlink:href="#DejaVuSans-69" transform="translate(172.716797 0)"/>
    <use xlink:href="#DejaVuSans-6e" transform="translate(200.5 0)"/>
    <use xlink:href="#DejaVuSans-67" transform="translate(263.878906 0)"/>
    <use xlink:href="#DejaVuSans-20" transform="translate(327.355469 0)"/>
    <use xlink:href="#DejaVuSans-52" transform="translate(359.142578 0)"/>
    <use xlink:href="#DejaVuSans-65" transform="translate(424.125 0)"/>
    <use xlink:href="#DejaVuSans-67" transform="translate(485.648438 0)"/>
    <use xlink:href="#DejaVuSans-75" transform="translate(549.125 0)"/>
    <use xlink:href="#DejaVuSans-6c" transform="translate(612.503906 0)"/>
    <use xlink:href="#DejaVuSans-61" transform="translate(640.287109 0)"/>
    <use xlink:href="#DejaVuSans-72" transform="translate(701.566406 0)"/>
    <use xlink:href="#DejaVuSans-69" transform="translate(742.679688 0)"/>
    <use xlink:href="#DejaVuSans-7a" transform="translate(770.462891 0)"/>
    <use xlink:href="#DejaVuSans-61" transform="translate(822.953125 0)"/>
    <use xlink:href="#DejaVuSans-74" transform="translate(884.232422 0)"/>
    <use xlink:href="#DejaVuSans-69" transform="translate(923.441406 0)"/>
    <use xlink:href="#DejaVuSans-6f" transform="translate(951.224609 0)"/>
    <use xlink:href="#DejaVuSans-6e" transform="translate(1012.40625 0)"/>
   </g>
  </g>
 </g>
 <defs>
  <clipPath id="p16305c1f02">
   <rect x="59.1765" y="53.61" width="208.7475" height="187.095"/>
  </clipPath>
  <clipPath id="p361756ddd9">
   <rect x="348.29025" y="53.61" width="208.7475" height="187.095"/>
  </clipPath>
 </defs>
</svg>
