<?xml version="1.0" encoding="utf-8" standalone="no"?>
<!DOCTYPE svg PUBLIC "-//W3C//DTD SVG 1.1//EN"
  "http://www.w3.org/Graphics/SVG/1.1/DTD/svg11.dtd">
<svg xmlns:xlink="http://www.w3.org/1999/xlink" width="446.4pt" height="446.4pt" viewBox="0 0 446.4 446.4" xmlns="http://www.w3.org/2000/svg" version="1.1">
 <metadata>
  <rdf:RDF xmlns:dc="http://purl.org/dc/elements/1.1/" xmlns:cc="http://creativecommons.org/ns#" xmlns:rdf="http://www.w3.org/1999/02/22-rdf-syntax-ns#">
   <cc:Work>
    <dc:type rdf:resource="http://purl.org/dc/dcmitype/StillImage"/>
    <dc:date>2026-06-08T12:39:26.493165</dc:date>
    <dc:format>image/svg+xml</dc:format>
    <dc:creator>
     <cc:Agent>
      <dc:title>Matplotlib v3.10.8, https://matplotlib.org/</dc:title>
     </cc:Agent>
    </dc:creator>
   </cc:Work>
  </rdf:RDF>
 </metadata>
 <defs>
  <style type="text/css">*{stroke-linejoin: round; stroke-linecap: butt}</style>
 </defs>
 <g id="figure_1">
  <g id="patch_1">
   <path d="M 0 446.4 
L 446.4 446.4 
L 446.4 0 
L 0 0 
z
" style="fill: #ffffff"/>
  </g>
  <g id="patch_2">
   <path d="M 7.2 439.2 
L 439.2 439.2 
L 439.2 7.2 
L 7.2 7.2 
z
" style="fill: #ffffff"/>
  </g>
  <g id="axes_1">
   <g id="line2d_1">
    <path d="M 150.556621 241.630475 
L 149.642525 242.422811 
L 148.865844 243.239789 
L 148.178321 244.073429 
L 147.562826 244.920921 
L 147.009505 245.78066 
L 146.511744 246.651578 
L 146.064712 247.532901 
L 145.664686 248.424037 
L 145.308687 249.324519 
L 144.994267 250.233963 
L 144.719366 251.152054 
L 144.482226 252.078522 
L 144.281326 253.013139 
L 144.11533 253.955704 
L 143.983058 254.906046 
L 143.883458 255.86401 
L 143.815586 256.829463 
L 143.778588 257.802283 
L 143.77169 258.782364 
L 143.794183 259.769609 
L 143.845422 260.763931 
L 143.924809 261.765253 
L 144.031795 262.773505 
L 144.165871 263.788621 
L 144.326567 264.810544 
L 144.513442 265.839221 
L 144.726087 266.874606 
L 144.964121 267.916655 
L 145.227186 268.965328 
L 145.514946 270.02059 
L 145.827088 271.082409 
L 146.163314 272.150756 
L 146.523348 273.225605 
L 146.906927 274.306932 
L 147.313803 275.394717 
L 147.743744 276.48894 
L 148.196528 277.589585 
L 148.671948 278.696639 
L 149.169806 279.810087 
L 149.689915 280.92992 
L 150.2321 282.056128 
L 150.796192 283.188703 
L 151.382033 284.32764 
L 151.989473 285.472934 
L 152.618369 286.624581 
L 153.268587 287.78258 
L 153.939997 288.94693 
L 154.632479 290.117631 
L 155.345917 291.294685 
L 156.080204 292.478093 
L 156.835234 293.667861 
L 157.610911 294.863992 
L 158.407141 296.066492 
L 159.223838 297.275366 
L 160.060918 298.490624 
L 160.918304 299.712272 
L 161.795921 300.94032 
L 162.693699 302.174777 
L 163.611574 303.415654 
L 164.549484 304.662963 
L 165.50737 305.916714 
L 166.485179 307.176921 
L 167.48286 308.443598 
L 168.500365 309.716758 
L 169.537651 310.996415 
L 170.594677 312.282586 
L 171.671404 313.575287 
L 172.767798 314.874532 
L 173.883827 316.180341 
L 175.019461 317.492731 
L 176.174674 318.811719 
L 177.349443 320.137326 
L 178.543746 321.469569 
L 179.757564 322.80847 
L 180.990881 324.154048 
L 182.243682 325.506325 
L 183.515957 326.865322 
L 184.807696 328.231062 
L 186.118891 329.603566 
L 187.449537 330.982859 
L 188.799632 332.368962 
L 190.169174 333.761902 
L 191.558165 335.161701 
L 192.966608 336.568385 
L 194.394507 337.98198 
L 195.841871 339.402511 
L 197.308706 340.830005 
L 198.795026 342.264488 
L 200.300841 343.705989 
L 201.826165 345.154535 
L 203.371016 346.610153 
L 204.935411 348.072874 
L 206.519368 349.542725 
L 208.12291 351.019737 
L 209.746058 352.503939 
L 211.388838 353.995363 
L 213.051274 355.494039 
L 214.733396 356.999998 
L 216.435231 358.513272 
" clip-path="url(#p694d616808)" style="fill: none; stroke: #000000; stroke-width: 2; stroke-linecap: square"/>
   </g>
   <g id="line2d_2">
    <path d="M 160.146517 93.602335 
L 162.230696 94.008483 
L 164.316648 94.434709 
L 166.404353 94.881034 
L 168.493796 95.347474 
L 170.584959 95.834049 
L 172.677826 96.340776 
L 174.772378 96.867673 
L 176.868599 97.414756 
L 178.966472 97.982043 
L 181.065979 98.569548 
L 183.167103 99.17729 
L 185.269826 99.805282 
L 187.374131 100.453541 
L 189.480001 101.122082 
L 191.587417 101.810918 
L 193.696362 102.520065 
L 195.806819 103.249536 
L 197.918769 103.999345 
L 200.032196 104.769504 
L 202.14708 105.560028 
L 204.263405 106.370928 
L 206.381151 107.202216 
L 208.500302 108.053905 
L 210.620839 108.926005 
L 212.742744 109.818528 
L 214.865999 110.731484 
L 216.990586 111.664884 
L 219.116486 112.618738 
L 221.243681 113.593055 
L 223.372153 114.587845 
L 225.501883 115.603116 
L 227.632854 116.638877 
L 229.765046 117.695137 
L 231.898442 118.771902 
L 234.033021 119.869181 
L 236.168767 120.98698 
L 238.30566 122.125307 
L 240.443682 123.284166 
L 242.582814 124.463566 
L 244.723037 125.66351 
L 246.864332 126.884004 
L 249.006681 128.125054 
L 251.150065 129.386663 
L 253.294464 130.668835 
L 255.43986 131.971575 
L 257.586234 133.294885 
L 259.733567 134.638769 
L 261.88184 136.00323 
L 264.031033 137.388268 
L 266.181128 138.793887 
L 268.332105 140.220088 
L 270.483945 141.666871 
L 272.63663 143.134238 
L 274.790138 144.622188 
L 276.944453 146.130723 
L 279.099553 147.65984 
L 281.25542 149.20954 
L 283.412035 150.779822 
L 285.569377 152.370683 
L 287.727427 153.982122 
L 289.886167 155.614136 
L 292.045576 157.266723 
L 294.205635 158.93988 
L 296.366324 160.633603 
L 298.527624 162.347888 
L 300.689515 164.082731 
L 302.851978 165.838128 
L 305.014993 167.614073 
L 307.178539 169.410561 
L 309.342598 171.227586 
L 311.50715 173.065142 
L 313.672174 174.923223 
L 315.837652 176.801821 
L 318.003563 178.700929 
L 320.169888 180.62054 
L 322.336606 182.560645 
L 324.503698 184.521237 
L 326.671144 186.502305 
L 328.838924 188.503842 
L 331.007018 190.525836 
L 333.175407 192.568279 
L 335.344069 194.63116 
L 337.512986 196.714468 
L 339.682137 198.818192 
L 341.851502 200.94232 
L 344.021061 203.086841 
L 346.190795 205.251741 
L 348.360683 207.43701 
L 350.530705 209.642632 
L 352.700841 211.868596 
L 354.87107 214.114887 
L 357.041374 216.38149 
L 359.211732 218.668392 
L 361.382123 220.975577 
L 363.552528 223.30303 
L 365.722926 225.650735 
L 367.893298 228.018676 
L 370.063623 230.406836 
L 372.23388 232.815199 
" clip-path="url(#p694d616808)" style="fill: none; stroke: #000000; stroke-width: 2; stroke-linecap: square"/>
   </g>
   <g id="line2d_3">
    <path d="M 103.797642 274.668232 
L 150.615701 282.83036 
" clip-path="url(#p694d616808)" style="fill: none; stroke-dasharray: 5.55,2.4; stroke-dashoffset: 0; stroke: #000000; stroke-opacity: 0.5; stroke-width: 1.5"/>
   </g>
   <g id="line2d_4">
    <path d="M 150.615701 282.83036 
L 196.060195 249.206477 
" clip-path="url(#p694d616808)" style="fill: none; stroke-dasharray: 5.55,2.4; stroke-dashoffset: 0; stroke: #000000; stroke-opacity: 0.5; stroke-width: 1.5"/>
   </g>
   <g id="line2d_5">
    <path d="M 196.060195 249.206477 
L 195.305312 103.074398 
" clip-path="url(#p694d616808)" style="fill: none; stroke-dasharray: 5.55,2.4; stroke-dashoffset: 0; stroke: #000000; stroke-opacity: 0.5; stroke-width: 1.5"/>
   </g>
   <g id="line2d_6">
    <path d="M 148.775911 96.610535 
L 195.305312 103.074398 
" clip-path="url(#p694d616808)" style="fill: none; stroke-dasharray: 5.55,2.4; stroke-dashoffset: 0; stroke: #000000; stroke-opacity: 0.5; stroke-width: 1.5"/>
   </g>
   <g id="line2d_7">
    <path d="M 66.341378 301.133116 
L 178.480401 321.399285 
" clip-path="url(#p694d616808)" style="fill: none; stroke-dasharray: 5.55,2.4; stroke-dashoffset: 0; stroke: #000000; stroke-opacity: 0.5; stroke-width: 1.5"/>
   </g>
   <g id="line2d_8">
    <path d="M 178.480401 321.399285 
L 257.113243 259.371349 
" clip-path="url(#p694d616808)" style="fill: none; stroke-dasharray: 5.55,2.4; stroke-dashoffset: 0; stroke: #000000; stroke-opacity: 0.5; stroke-width: 1.5"/>
   </g>
   <g id="line2d_9">
    <path d="M 257.113243 259.371349 
L 257.668369 133.345921 
" clip-path="url(#p694d616808)" style="fill: none; stroke-dasharray: 5.55,2.4; stroke-dashoffset: 0; stroke: #000000; stroke-opacity: 0.5; stroke-width: 1.5"/>
   </g>
   <g id="line2d_10">
    <path d="M 149.036302 117.816637 
L 257.668369 133.345921 
" clip-path="url(#p694d616808)" style="fill: none; stroke-dasharray: 5.55,2.4; stroke-dashoffset: 0; stroke: #000000; stroke-opacity: 0.5; stroke-width: 1.5"/>
   </g>
   <g id="Line3DCollection_1">
    <path d="M 257.113243 259.371349 
L 196.060195 249.206477 
" clip-path="url(#p694d616808)" style="fill: none; stroke: #ff8c00; stroke-width: 4"/>
    <path d="M 257.113243 259.371349 
L 239.271586 259.811929 
" clip-path="url(#p694d616808)" style="fill: none; stroke: #ff8c00; stroke-width: 4"/>
    <path d="M 257.113243 259.371349 
L 239.282543 252.987938 
" clip-path="url(#p694d616808)" style="fill: none; stroke: #ff8c00; stroke-width: 4"/>
   </g>
   <g id="text_1">
    <!-- $t$ -->
    <g style="fill: #4169e1" transform="translate(-7.984302 362.896694) scale(0.15 -0.15)">
     <defs>
      <path id="DejaVuSans-Oblique-74" d="M 2706 3500 
L 2619 3053 
L 1472 3053 
L 1100 1153 
Q 1081 1047 1072 975 
Q 1063 903 1063 863 
Q 1063 663 1183 572 
Q 1303 481 1569 481 
L 2150 481 
L 2053 0 
L 1503 0 
Q 991 0 739 200 
Q 488 400 488 806 
Q 488 878 497 964 
Q 506 1050 525 1153 
L 897 3053 
L 409 3053 
L 500 3500 
L 978 3500 
L 1172 4494 
L 1747 4494 
L 1556 3500 
L 2706 3500 
z
" transform="scale(0.015625)"/>
     </defs>
     <use xlink:href="#DejaVuSans-Oblique-74" transform="translate(0 0.78125)"/>
    </g>
   </g>
   <g id="text_2">
    <!-- $h$ -->
    <g style="fill: #4169e1" transform="translate(444.511452 299.135809) scale(0.15 -0.15)">
     <defs>
      <path id="DejaVuSans-Oblique-68" d="M 3566 2113 
L 3156 0 
L 2578 0 
L 2988 2091 
Q 3016 2238 3031 2350 
Q 3047 2463 3047 2528 
Q 3047 2791 2881 2937 
Q 2716 3084 2419 3084 
Q 1956 3084 1617 2771 
Q 1278 2459 1178 1941 
L 800 0 
L 225 0 
L 1172 4863 
L 1747 4863 
L 1375 2950 
Q 1594 3244 1934 3414 
Q 2275 3584 2650 3584 
Q 3113 3584 3367 3334 
Q 3622 3084 3622 2631 
Q 3622 2519 3608 2391 
Q 3594 2263 3566 2113 
z
" transform="scale(0.015625)"/>
     </defs>
     <use xlink:href="#DejaVuSans-Oblique-68" transform="translate(0 0.015625)"/>
    </g>
   </g>
   <g id="text_3">
    <!-- $T$ -->
    <g style="fill: #4169e1" transform="translate(142.338819 26.967325) scale(0.15 -0.15)">
     <defs>
      <path id="DejaVuSans-Oblique-54" d="M 378 4666 
L 4325 4666 
L 4225 4134 
L 2559 4134 
L 1759 0 
L 1125 0 
L 1925 4134 
L 275 4134 
L 378 4666 
z
" transform="scale(0.015625)"/>
     </defs>
     <use xlink:href="#DejaVuSans-Oblique-54" transform="translate(0 0.09375)"/>
    </g>
   </g>
   <g id="text_4">
    <!-- $(t, h(t))$ -->
    <g transform="translate(150.511014 274.353338) scale(0.1 -0.1)">
     <defs>
      <path id="DejaVuSans-28" d="M 1984 4856 
Q 1566 4138 1362 3434 
Q 1159 2731 1159 2009 
Q 1159 1288 1364 580 
Q 1569 -128 1984 -844 
L 1484 -844 
Q 1016 -109 783 600 
Q 550 1309 550 2009 
Q 550 2706 781 3412 
Q 1013 4119 1484 4856 
L 1984 4856 
z
" transform="scale(0.015625)"/>
      <path id="DejaVuSans-2c" d="M 750 794 
L 1409 794 
L 1409 256 
L 897 -744 
L 494 -744 
L 750 256 
L 750 794 
z
" transform="scale(0.015625)"/>
      <path id="DejaVuSans-29" d="M 513 4856 
L 1013 4856 
Q 1481 4119 1714 3412 
Q 1947 2706 1947 2009 
Q 1947 1309 1714 600 
Q 1481 -109 1013 -844 
L 513 -844 
Q 928 -128 1133 580 
Q 1338 1288 1338 2009 
Q 1338 2731 1133 3434 
Q 928 4138 513 4856 
z
" transform="scale(0.015625)"/>
     </defs>
     <use xlink:href="#DejaVuSans-28" transform="translate(0 0.015625)"/>
     <use xlink:href="#DejaVuSans-Oblique-74" transform="translate(39.013672 0.015625)"/>
     <use xlink:href="#DejaVuSans-2c" transform="translate(78.222656 0.015625)"/>
     <use xlink:href="#DejaVuSans-Oblique-68" transform="translate(129.492188 0.015625)"/>
     <use xlink:href="#DejaVuSans-28" transform="translate(192.871094 0.015625)"/>
     <use xlink:href="#DejaVuSans-Oblique-74" transform="translate(231.884766 0.015625)"/>
     <use xlink:href="#DejaVuSans-29" transform="translate(271.09375 0.015625)"/>
     <use xlink:href="#DejaVuSans-29" transform="translate(310.107422 0.015625)"/>
    </g>
   </g>
   <g id="text_5">
    <!-- $(t+\Delta t, h(t+\Delta t))$ -->
    <g transform="translate(192.134085 326.210335) scale(0.09 -0.09)">
     <defs>
      <path id="DejaVuSans-2b" d="M 2944 4013 
L 2944 2272 
L 4684 2272 
L 4684 1741 
L 2944 1741 
L 2944 0 
L 2419 0 
L 2419 1741 
L 678 1741 
L 678 2272 
L 2419 2272 
L 2419 4013 
L 2944 4013 
z
" transform="scale(0.015625)"/>
      <path id="DejaVuSans-394" d="M 2188 4044 
L 906 525 
L 3472 525 
L 2188 4044 
z
M 50 0 
L 1831 4666 
L 2547 4666 
L 4325 0 
L 50 0 
z
" transform="scale(0.015625)"/>
     </defs>
     <use xlink:href="#DejaVuSans-28" transform="translate(0 0.015625)"/>
     <use xlink:href="#DejaVuSans-Oblique-74" transform="translate(39.013672 0.015625)"/>
     <use xlink:href="#DejaVuSans-2b" transform="translate(97.705078 0.015625)"/>
     <use xlink:href="#DejaVuSans-394" transform="translate(200.976562 0.015625)"/>
     <use xlink:href="#DejaVuSans-Oblique-74" transform="translate(269.384766 0.015625)"/>
     <use xlink:href="#DejaVuSans-2c" transform="translate(308.59375 0.015625)"/>
     <use xlink:href="#DejaVuSans-Oblique-68" transform="translate(359.863281 0.015625)"/>
     <use xlink:href="#DejaVuSans-28" transform="translate(423.242188 0.015625)"/>
     <use xlink:href="#DejaVuSans-Oblique-74" transform="translate(462.255859 0.015625)"/>
     <use xlink:href="#DejaVuSans-2b" transform="translate(520.947266 0.015625)"/>
     <use xlink:href="#DejaVuSans-394" transform="translate(624.21875 0.015625)"/>
     <use xlink:href="#DejaVuSans-Oblique-74" transform="translate(692.626953 0.015625)"/>
     <use xlink:href="#DejaVuSans-29" transform="translate(731.835938 0.015625)"/>
     <use xlink:href="#DejaVuSans-29" transform="translate(770.849609 0.015625)"/>
    </g>
   </g>
   <g id="text_6">
    <!-- $(h, f(h))$ -->
    <g transform="translate(206.927893 104.689006) scale(0.1 -0.1)">
     <defs>
      <path id="DejaVuSans-Oblique-66" d="M 3059 4863 
L 2969 4384 
L 2419 4384 
Q 2106 4384 1964 4261 
Q 1822 4138 1753 3809 
L 1691 3500 
L 2638 3500 
L 2553 3053 
L 1606 3053 
L 1013 0 
L 434 0 
L 1031 3053 
L 481 3053 
L 563 3500 
L 1113 3500 
L 1159 3744 
Q 1278 4363 1576 4613 
Q 1875 4863 2516 4863 
L 3059 4863 
z
" transform="scale(0.015625)"/>
     </defs>
     <use xlink:href="#DejaVuSans-28" transform="translate(0 0.015625)"/>
     <use xlink:href="#DejaVuSans-Oblique-68" transform="translate(39.013672 0.015625)"/>
     <use xlink:href="#DejaVuSans-2c" transform="translate(102.392578 0.015625)"/>
     <use xlink:href="#DejaVuSans-Oblique-66" transform="translate(153.662109 0.015625)"/>
     <use xlink:href="#DejaVuSans-28" transform="translate(188.867188 0.015625)"/>
     <use xlink:href="#DejaVuSans-Oblique-68" transform="translate(227.880859 0.015625)"/>
     <use xlink:href="#DejaVuSans-29" transform="translate(291.259766 0.015625)"/>
     <use xlink:href="#DejaVuSans-29" transform="translate(330.273438 0.015625)"/>
    </g>
   </g>
   <g id="text_7">
    <!-- $(h+\Delta h, f(h+\Delta h))$ -->
    <g transform="translate(269.52735 135.041198) scale(0.09 -0.09)">
     <use xlink:href="#DejaVuSans-28" transform="translate(0 0.015625)"/>
     <use xlink:href="#DejaVuSans-Oblique-68" transform="translate(39.013672 0.015625)"/>
     <use xlink:href="#DejaVuSans-2b" transform="translate(121.875 0.015625)"/>
     <use xlink:href="#DejaVuSans-394" transform="translate(225.146484 0.015625)"/>
     <use xlink:href="#DejaVuSans-Oblique-68" transform="translate(293.554688 0.015625)"/>
     <use xlink:href="#DejaVuSans-2c" transform="translate(356.933594 0.015625)"/>
     <use xlink:href="#DejaVuSans-Oblique-66" transform="translate(408.203125 0.015625)"/>
     <use xlink:href="#DejaVuSans-28" transform="translate(443.408203 0.015625)"/>
     <use xlink:href="#DejaVuSans-Oblique-68" transform="translate(482.421875 0.015625)"/>
     <use xlink:href="#DejaVuSans-2b" transform="translate(565.283203 0.015625)"/>
     <use xlink:href="#DejaVuSans-394" transform="translate(668.554688 0.015625)"/>
     <use xlink:href="#DejaVuSans-Oblique-68" transform="translate(736.962891 0.015625)"/>
     <use xlink:href="#DejaVuSans-29" transform="translate(800.341797 0.015625)"/>
     <use xlink:href="#DejaVuSans-29" transform="translate(839.355469 0.015625)"/>
    </g>
   </g>
   <g id="text_8">
    <!-- $\Delta t$ -->
    <g style="fill: #ff8c00" transform="translate(66.865661 284.431973) scale(0.13 -0.13)">
     <use xlink:href="#DejaVuSans-394" transform="translate(0 0.09375)"/>
     <use xlink:href="#DejaVuSans-Oblique-74" transform="translate(68.408203 0.09375)"/>
    </g>
   </g>
   <g id="text_9">
    <!-- $\Delta h$ -->
    <g style="fill: #ff8c00" transform="translate(226.408379 246.010739) scale(0.13 -0.13)">
     <use xlink:href="#DejaVuSans-394" transform="translate(0 0.015625)"/>
     <use xlink:href="#DejaVuSans-Oblique-68" transform="translate(68.408203 0.015625)"/>
    </g>
   </g>
   <g id="text_10">
    <!-- $\Delta T$ -->
    <g style="fill: #ff8c00" transform="translate(122.177209 109.3851) scale(0.13 -0.13)">
     <use xlink:href="#DejaVuSans-394" transform="translate(0 0.09375)"/>
     <use xlink:href="#DejaVuSans-Oblique-54" transform="translate(68.408203 0.09375)"/>
    </g>
   </g>
   <g id="Line3DCollection_2">
    <path d="M 149.036302 117.816637 
L 148.775911 96.610535 
" clip-path="url(#p694d616808)" style="fill: none; stroke: #ff8c00; stroke-width: 4"/>
    <path d="M 149.036302 117.816637 
L 147.843162 112.35731 
" clip-path="url(#p694d616808)" style="fill: none; stroke: #ff8c00; stroke-width: 4"/>
    <path d="M 149.036302 117.816637 
L 150.076865 111.015406 
" clip-path="url(#p694d616808)" style="fill: none; stroke: #ff8c00; stroke-width: 4"/>
   </g>
   <g id="Line3DCollection_3">
    <path d="M 148.083042 40.18371 
L 150.556621 241.630475 
" clip-path="url(#p694d616808)" style="fill: none; stroke: #4169e1; stroke-width: 2"/>
    <path d="M 148.083042 40.18371 
L 150.008482 49.211491 
" clip-path="url(#p694d616808)" style="fill: none; stroke: #4169e1; stroke-width: 2"/>
    <path d="M 148.083042 40.18371 
L 146.39843 51.199869 
" clip-path="url(#p694d616808)" style="fill: none; stroke: #4169e1; stroke-width: 2"/>
   </g>
   <g id="Path3DCollection_1">
    <defs>
     <path id="C0_0_9e23a553a2" d="M 0 2.738613 
C 0.726289 2.738613 1.422928 2.450055 1.936492 1.936492 
C 2.450055 1.422928 2.738613 0.726289 2.738613 -0 
C 2.738613 -0.726289 2.450055 -1.422928 1.936492 -1.936492 
C 1.422928 -2.450055 0.726289 -2.738613 0 -2.738613 
C -0.726289 -2.738613 -1.422928 -2.450055 -1.936492 -1.936492 
C -2.450055 -1.422928 -2.738613 -0.726289 -2.738613 0 
C -2.738613 0.726289 -2.450055 1.422928 -1.936492 1.936492 
C -1.422928 2.450055 -0.726289 2.738613 0 2.738613 
z
"/>
    </defs>
    <g clip-path="url(#p694d616808)">
     <use xlink:href="#C0_0_9e23a553a2" x="195.305312" y="103.074398" style="fill-opacity: 0.3; stroke: #000000; stroke-opacity: 0.3"/>
    </g>
    <g clip-path="url(#p694d616808)">
     <use xlink:href="#C0_0_9e23a553a2" x="257.668369" y="133.345921" style="stroke: #000000"/>
    </g>
   </g>
   <g id="Line3DCollection_4">
    <path d="M 432.39959 288.555204 
L 150.556621 241.630475 
" clip-path="url(#p694d616808)" style="fill: none; stroke: #4169e1; stroke-width: 2"/>
    <path d="M 432.39959 288.555204 
L 418.015511 288.809863 
" clip-path="url(#p694d616808)" style="fill: none; stroke: #4169e1; stroke-width: 2"/>
    <path d="M 432.39959 288.555204 
L 418.172639 283.53482 
" clip-path="url(#p694d616808)" style="fill: none; stroke: #4169e1; stroke-width: 2"/>
   </g>
   <g id="Line3DCollection_5">
    <path d="M 66.341378 301.133116 
L 103.797642 274.668232 
" clip-path="url(#p694d616808)" style="fill: none; stroke: #ff8c00; stroke-width: 4"/>
    <path d="M 66.341378 301.133116 
L 77.513543 297.286646 
" clip-path="url(#p694d616808)" style="fill: none; stroke: #ff8c00; stroke-width: 4"/>
    <path d="M 66.341378 301.133116 
L 77.323054 289.321606 
" clip-path="url(#p694d616808)" style="fill: none; stroke: #ff8c00; stroke-width: 4"/>
   </g>
   <g id="Poly3DCollection_1">
    <defs>
     <path id="m6e281ca7e1" d="M 150.556621 -204.769525 
L 383.343173 -166.01232 
L 387.558464 -339.554628 
L 148.506077 -371.764601 
z
" style="stroke: #add8e6"/>
    </defs>
    <g clip-path="url(#p694d616808)">
     <use xlink:href="#m6e281ca7e1" x="0" y="446.4" style="fill: #add8e6; fill-opacity: 0.3; stroke: #add8e6"/>
    </g>
   </g>
   <g id="Path3DCollection_2">
    <defs>
     <path id="C1_0_a8c89e27fd" d="M 0 2.738613 
C 0.726289 2.738613 1.422928 2.450055 1.936492 1.936492 
C 2.450055 1.422928 2.738613 0.726289 2.738613 -0 
C 2.738613 -0.726289 2.450055 -1.422928 1.936492 -1.936492 
C 1.422928 -2.450055 0.726289 -2.738613 0 -2.738613 
C -0.726289 -2.738613 -1.422928 -2.450055 -1.936492 -1.936492 
C -2.450055 -1.422928 -2.738613 -0.726289 -2.738613 0 
C -2.738613 0.726289 -2.450055 1.422928 -1.936492 1.936492 
C -1.422928 2.450055 -0.726289 2.738613 0 2.738613 
z
"/>
    </defs>
    <g clip-path="url(#p694d616808)">
     <use xlink:href="#C1_0_a8c89e27fd" x="150.615701" y="282.83036" style="fill-opacity: 0.3; stroke: #000000; stroke-opacity: 0.3"/>
    </g>
    <g clip-path="url(#p694d616808)">
     <use xlink:href="#C1_0_a8c89e27fd" x="178.480401" y="321.399285" style="stroke: #000000"/>
    </g>
   </g>
   <g id="Line3DCollection_6">
    <path d="M -1 348.713455 
L 150.556621 241.630475 
" clip-path="url(#p694d616808)" style="fill: none; stroke: #4169e1; stroke-width: 2"/>
    <path d="M -1 348.778765 
L 7.087067 345.843233 
" clip-path="url(#p694d616808)" style="fill: none; stroke: #4169e1; stroke-width: 2"/>
    <path d="M -1 348.646502 
L 6.891089 340.291732 
" clip-path="url(#p694d616808)" style="fill: none; stroke: #4169e1; stroke-width: 2"/>
   </g>
   <g id="Poly3DCollection_2">
    <defs>
     <path id="md3fea48a2f" d="M 150.556621 -204.769525 
L 26.634162 -117.21158 
L 277.807373 -70.092553 
L 383.343173 -166.01232 
z
" style="stroke: #ffdab9"/>
    </defs>
    <g clip-path="url(#p694d616808)">
     <use xlink:href="#md3fea48a2f" x="0" y="446.4" style="fill: #ffdab9; fill-opacity: 0.4; stroke: #ffdab9"/>
    </g>
   </g>
  </g>
 </g>
 <defs>
  <clipPath id="p694d616808">
   <rect x="7.2" y="7.2" width="432" height="432"/>
  </clipPath>
 </defs>
</svg>
