<?xml version="1.0" encoding="utf-8" standalone="no"?>
<!DOCTYPE svg PUBLIC "-//W3C//DTD SVG 1.1//EN"
  "http://www.w3.org/Graphics/SVG/1.1/DTD/svg11.dtd">
<svg xmlns:xlink="http://www.w3.org/1999/xlink" width="999.41625pt" height="386.519063pt" viewBox="0 0 999.41625 386.519063" xmlns="http://www.w3.org/2000/svg" version="1.1">
 <metadata>
  <rdf:RDF xmlns:dc="http://purl.org/dc/elements/1.1/" xmlns:cc="http://creativecommons.org/ns#" xmlns:rdf="http://www.w3.org/1999/02/22-rdf-syntax-ns#">
   <cc:Work>
    <dc:type rdf:resource="http://purl.org/dc/dcmitype/StillImage"/>
    <dc:date>2026-07-16T09:03:33.648775</dc:date>
    <dc:format>image/svg+xml</dc:format>
    <dc:creator>
     <cc:Agent>
      <dc:title>Matplotlib v3.10.8, https://matplotlib.org/</dc:title>
     </cc:Agent>
    </dc:creator>
   </cc:Work>
  </rdf:RDF>
 </metadata>
 <defs>
  <style type="text/css">*{stroke-linejoin: round; stroke-linecap: butt}</style>
 </defs>
 <g id="figure_1">
  <g id="patch_1">
   <path d="M 0 386.519063 
L 999.41625 386.519063 
L 999.41625 0 
L 0 0 
z
" style="fill: #ffffff"/>
  </g>
  <g id="axes_1">
   <g id="patch_2">
    <path d="M 43.588125 347.995 
L 490.435 347.995 
L 490.435 24.12 
L 43.588125 24.12 
z
" style="fill: #ffffff"/>
   </g>
   <g id="matplotlib.axis_1">
    <g id="xtick_1">
     <g id="line2d_1">
      <path d="M 43.588125 347.995 
L 43.588125 24.12 
" clip-path="url(#pfdd61c6516)" style="fill: none; stroke-dasharray: 2.96,1.28; stroke-dashoffset: 0; stroke: #b0b0b0; stroke-opacity: 0.4; stroke-width: 0.8"/>
     </g>
     <g id="line2d_2">
      <defs>
       <path id="m65fcc75493" d="M 0 0 
L 0 3.5 
" style="stroke: #000000; stroke-width: 0.8"/>
      </defs>
      <g>
       <use xlink:href="#m65fcc75493" x="43.588125" y="347.995" style="stroke: #000000; stroke-width: 0.8"/>
      </g>
     </g>
     <g id="text_1">
      <!-- −4 -->
      <g transform="translate(36.217031 362.593438) scale(0.1 -0.1)">
       <defs>
        <path id="DejaVuSans-2212" d="M 678 2272 
L 4684 2272 
L 4684 1741 
L 678 1741 
L 678 2272 
z
" transform="scale(0.015625)"/>
        <path id="DejaVuSans-34" d="M 2419 4116 
L 825 1625 
L 2419 1625 
L 2419 4116 
z
M 2253 4666 
L 3047 4666 
L 3047 1625 
L 3713 1625 
L 3713 1100 
L 3047 1100 
L 3047 0 
L 2419 0 
L 2419 1100 
L 313 1100 
L 313 1709 
L 2253 4666 
z
" transform="scale(0.015625)"/>
       </defs>
       <use xlink:href="#DejaVuSans-2212"/>
       <use xlink:href="#DejaVuSans-34" transform="translate(83.789062 0)"/>
      </g>
     </g>
    </g>
    <g id="xtick_2">
     <g id="line2d_3">
      <path d="M 99.443984 347.995 
L 99.443984 24.12 
" clip-path="url(#pfdd61c6516)" style="fill: none; stroke-dasharray: 2.96,1.28; stroke-dashoffset: 0; stroke: #b0b0b0; stroke-opacity: 0.4; stroke-width: 0.8"/>
     </g>
     <g id="line2d_4">
      <g>
       <use xlink:href="#m65fcc75493" x="99.443984" y="347.995" style="stroke: #000000; stroke-width: 0.8"/>
      </g>
     </g>
     <g id="text_2">
      <!-- −3 -->
      <g transform="translate(92.072891 362.593438) scale(0.1 -0.1)">
       <defs>
        <path id="DejaVuSans-33" d="M 2597 2516 
Q 3050 2419 3304 2112 
Q 3559 1806 3559 1356 
Q 3559 666 3084 287 
Q 2609 -91 1734 -91 
Q 1441 -91 1130 -33 
Q 819 25 488 141 
L 488 750 
Q 750 597 1062 519 
Q 1375 441 1716 441 
Q 2309 441 2620 675 
Q 2931 909 2931 1356 
Q 2931 1769 2642 2001 
Q 2353 2234 1838 2234 
L 1294 2234 
L 1294 2753 
L 1863 2753 
Q 2328 2753 2575 2939 
Q 2822 3125 2822 3475 
Q 2822 3834 2567 4026 
Q 2313 4219 1838 4219 
Q 1578 4219 1281 4162 
Q 984 4106 628 3988 
L 628 4550 
Q 988 4650 1302 4700 
Q 1616 4750 1894 4750 
Q 2613 4750 3031 4423 
Q 3450 4097 3450 3541 
Q 3450 3153 3228 2886 
Q 3006 2619 2597 2516 
z
" transform="scale(0.015625)"/>
       </defs>
       <use xlink:href="#DejaVuSans-2212"/>
       <use xlink:href="#DejaVuSans-33" transform="translate(83.789062 0)"/>
      </g>
     </g>
    </g>
    <g id="xtick_3">
     <g id="line2d_5">
      <path d="M 155.299844 347.995 
L 155.299844 24.12 
" clip-path="url(#pfdd61c6516)" style="fill: none; stroke-dasharray: 2.96,1.28; stroke-dashoffset: 0; stroke: #b0b0b0; stroke-opacity: 0.4; stroke-width: 0.8"/>
     </g>
     <g id="line2d_6">
      <g>
       <use xlink:href="#m65fcc75493" x="155.299844" y="347.995" style="stroke: #000000; stroke-width: 0.8"/>
      </g>
     </g>
     <g id="text_3">
      <!-- −2 -->
      <g transform="translate(147.92875 362.593438) scale(0.1 -0.1)">
       <defs>
        <path id="DejaVuSans-32" d="M 1228 531 
L 3431 531 
L 3431 0 
L 469 0 
L 469 531 
Q 828 903 1448 1529 
Q 2069 2156 2228 2338 
Q 2531 2678 2651 2914 
Q 2772 3150 2772 3378 
Q 2772 3750 2511 3984 
Q 2250 4219 1831 4219 
Q 1534 4219 1204 4116 
Q 875 4013 500 3803 
L 500 4441 
Q 881 4594 1212 4672 
Q 1544 4750 1819 4750 
Q 2544 4750 2975 4387 
Q 3406 4025 3406 3419 
Q 3406 3131 3298 2873 
Q 3191 2616 2906 2266 
Q 2828 2175 2409 1742 
Q 1991 1309 1228 531 
z
" transform="scale(0.015625)"/>
       </defs>
       <use xlink:href="#DejaVuSans-2212"/>
       <use xlink:href="#DejaVuSans-32" transform="translate(83.789062 0)"/>
      </g>
     </g>
    </g>
    <g id="xtick_4">
     <g id="line2d_7">
      <path d="M 211.155703 347.995 
L 211.155703 24.12 
" clip-path="url(#pfdd61c6516)" style="fill: none; stroke-dasharray: 2.96,1.28; stroke-dashoffset: 0; stroke: #b0b0b0; stroke-opacity: 0.4; stroke-width: 0.8"/>
     </g>
     <g id="line2d_8">
      <g>
       <use xlink:href="#m65fcc75493" x="211.155703" y="347.995" style="stroke: #000000; stroke-width: 0.8"/>
      </g>
     </g>
     <g id="text_4">
      <!-- −1 -->
      <g transform="translate(203.784609 362.593438) scale(0.1 -0.1)">
       <defs>
        <path id="DejaVuSans-31" d="M 794 531 
L 1825 531 
L 1825 4091 
L 703 3866 
L 703 4441 
L 1819 4666 
L 2450 4666 
L 2450 531 
L 3481 531 
L 3481 0 
L 794 0 
L 794 531 
z
" transform="scale(0.015625)"/>
       </defs>
       <use xlink:href="#DejaVuSans-2212"/>
       <use xlink:href="#DejaVuSans-31" transform="translate(83.789062 0)"/>
      </g>
     </g>
    </g>
    <g id="xtick_5">
     <g id="line2d_9">
      <path d="M 267.011563 347.995 
L 267.011563 24.12 
" clip-path="url(#pfdd61c6516)" style="fill: none; stroke-dasharray: 2.96,1.28; stroke-dashoffset: 0; stroke: #b0b0b0; stroke-opacity: 0.4; stroke-width: 0.8"/>
     </g>
     <g id="line2d_10">
      <g>
       <use xlink:href="#m65fcc75493" x="267.011563" y="347.995" style="stroke: #000000; stroke-width: 0.8"/>
      </g>
     </g>
     <g id="text_5">
      <!-- 0 -->
      <g transform="translate(263.830313 362.593438) scale(0.1 -0.1)">
       <defs>
        <path id="DejaVuSans-30" d="M 2034 4250 
Q 1547 4250 1301 3770 
Q 1056 3291 1056 2328 
Q 1056 1369 1301 889 
Q 1547 409 2034 409 
Q 2525 409 2770 889 
Q 3016 1369 3016 2328 
Q 3016 3291 2770 3770 
Q 2525 4250 2034 4250 
z
M 2034 4750 
Q 2819 4750 3233 4129 
Q 3647 3509 3647 2328 
Q 3647 1150 3233 529 
Q 2819 -91 2034 -91 
Q 1250 -91 836 529 
Q 422 1150 422 2328 
Q 422 3509 836 4129 
Q 1250 4750 2034 4750 
z
" transform="scale(0.015625)"/>
       </defs>
       <use xlink:href="#DejaVuSans-30"/>
      </g>
     </g>
    </g>
    <g id="xtick_6">
     <g id="line2d_11">
      <path d="M 322.867422 347.995 
L 322.867422 24.12 
" clip-path="url(#pfdd61c6516)" style="fill: none; stroke-dasharray: 2.96,1.28; stroke-dashoffset: 0; stroke: #b0b0b0; stroke-opacity: 0.4; stroke-width: 0.8"/>
     </g>
     <g id="line2d_12">
      <g>
       <use xlink:href="#m65fcc75493" x="322.867422" y="347.995" style="stroke: #000000; stroke-width: 0.8"/>
      </g>
     </g>
     <g id="text_6">
      <!-- 1 -->
      <g transform="translate(319.686172 362.593438) scale(0.1 -0.1)">
       <use xlink:href="#DejaVuSans-31"/>
      </g>
     </g>
    </g>
    <g id="xtick_7">
     <g id="line2d_13">
      <path d="M 378.723281 347.995 
L 378.723281 24.12 
" clip-path="url(#pfdd61c6516)" style="fill: none; stroke-dasharray: 2.96,1.28; stroke-dashoffset: 0; stroke: #b0b0b0; stroke-opacity: 0.4; stroke-width: 0.8"/>
     </g>
     <g id="line2d_14">
      <g>
       <use xlink:href="#m65fcc75493" x="378.723281" y="347.995" style="stroke: #000000; stroke-width: 0.8"/>
      </g>
     </g>
     <g id="text_7">
      <!-- 2 -->
      <g transform="translate(375.542031 362.593438) scale(0.1 -0.1)">
       <use xlink:href="#DejaVuSans-32"/>
      </g>
     </g>
    </g>
    <g id="xtick_8">
     <g id="line2d_15">
      <path d="M 434.579141 347.995 
L 434.579141 24.12 
" clip-path="url(#pfdd61c6516)" style="fill: none; stroke-dasharray: 2.96,1.28; stroke-dashoffset: 0; stroke: #b0b0b0; stroke-opacity: 0.4; stroke-width: 0.8"/>
     </g>
     <g id="line2d_16">
      <g>
       <use xlink:href="#m65fcc75493" x="434.579141" y="347.995" style="stroke: #000000; stroke-width: 0.8"/>
      </g>
     </g>
     <g id="text_8">
      <!-- 3 -->
      <g transform="translate(431.397891 362.593438) scale(0.1 -0.1)">
       <use xlink:href="#DejaVuSans-33"/>
      </g>
     </g>
    </g>
    <g id="xtick_9">
     <g id="line2d_17">
      <path d="M 490.435 347.995 
L 490.435 24.12 
" clip-path="url(#pfdd61c6516)" style="fill: none; stroke-dasharray: 2.96,1.28; stroke-dashoffset: 0; stroke: #b0b0b0; stroke-opacity: 0.4; stroke-width: 0.8"/>
     </g>
     <g id="line2d_18">
      <g>
       <use xlink:href="#m65fcc75493" x="490.435" y="347.995" style="stroke: #000000; stroke-width: 0.8"/>
      </g>
     </g>
     <g id="text_9">
      <!-- 4 -->
      <g transform="translate(487.25375 362.593438) scale(0.1 -0.1)">
       <use xlink:href="#DejaVuSans-34"/>
      </g>
     </g>
    </g>
    <g id="text_10">
     <!-- $x$ -->
     <g transform="translate(263.711563 377.031406) scale(0.11 -0.11)">
      <defs>
       <path id="DejaVuSans-Oblique-78" d="M 3841 3500 
L 2234 1784 
L 3219 0 
L 2559 0 
L 1819 1388 
L 531 0 
L -166 0 
L 1556 1844 
L 641 3500 
L 1300 3500 
L 1972 2234 
L 3144 3500 
L 3841 3500 
z
" transform="scale(0.015625)"/>
      </defs>
      <use xlink:href="#DejaVuSans-Oblique-78" transform="translate(0 0.3125)"/>
     </g>
    </g>
   </g>
   <g id="matplotlib.axis_2">
    <g id="ytick_1">
     <g id="line2d_19">
      <path d="M 43.588125 347.995 
L 490.435 347.995 
" clip-path="url(#pfdd61c6516)" style="fill: none; stroke-dasharray: 2.96,1.28; stroke-dashoffset: 0; stroke: #b0b0b0; stroke-opacity: 0.4; stroke-width: 0.8"/>
     </g>
     <g id="line2d_20">
      <defs>
       <path id="m66bdb75150" d="M 0 0 
L -3.5 0 
" style="stroke: #000000; stroke-width: 0.8"/>
      </defs>
      <g>
       <use xlink:href="#m66bdb75150" x="43.588125" y="347.995" style="stroke: #000000; stroke-width: 0.8"/>
      </g>
     </g>
     <g id="text_11">
      <!-- −1 -->
      <g transform="translate(21.845938 351.794219) scale(0.1 -0.1)">
       <use xlink:href="#DejaVuSans-2212"/>
       <use xlink:href="#DejaVuSans-31" transform="translate(83.789062 0)"/>
      </g>
     </g>
    </g>
    <g id="ytick_2">
     <g id="line2d_21">
      <path d="M 43.588125 315.6075 
L 490.435 315.6075 
" clip-path="url(#pfdd61c6516)" style="fill: none; stroke-dasharray: 2.96,1.28; stroke-dashoffset: 0; stroke: #b0b0b0; stroke-opacity: 0.4; stroke-width: 0.8"/>
     </g>
     <g id="line2d_22">
      <g>
       <use xlink:href="#m66bdb75150" x="43.588125" y="315.6075" style="stroke: #000000; stroke-width: 0.8"/>
      </g>
     </g>
     <g id="text_12">
      <!-- 0 -->
      <g transform="translate(30.225625 319.406719) scale(0.1 -0.1)">
       <use xlink:href="#DejaVuSans-30"/>
      </g>
     </g>
    </g>
    <g id="ytick_3">
     <g id="line2d_23">
      <path d="M 43.588125 283.22 
L 490.435 283.22 
" clip-path="url(#pfdd61c6516)" style="fill: none; stroke-dasharray: 2.96,1.28; stroke-dashoffset: 0; stroke: #b0b0b0; stroke-opacity: 0.4; stroke-width: 0.8"/>
     </g>
     <g id="line2d_24">
      <g>
       <use xlink:href="#m66bdb75150" x="43.588125" y="283.22" style="stroke: #000000; stroke-width: 0.8"/>
      </g>
     </g>
     <g id="text_13">
      <!-- 1 -->
      <g transform="translate(30.225625 287.019219) scale(0.1 -0.1)">
       <use xlink:href="#DejaVuSans-31"/>
      </g>
     </g>
    </g>
    <g id="ytick_4">
     <g id="line2d_25">
      <path d="M 43.588125 250.8325 
L 490.435 250.8325 
" clip-path="url(#pfdd61c6516)" style="fill: none; stroke-dasharray: 2.96,1.28; stroke-dashoffset: 0; stroke: #b0b0b0; stroke-opacity: 0.4; stroke-width: 0.8"/>
     </g>
     <g id="line2d_26">
      <g>
       <use xlink:href="#m66bdb75150" x="43.588125" y="250.8325" style="stroke: #000000; stroke-width: 0.8"/>
      </g>
     </g>
     <g id="text_14">
      <!-- 2 -->
      <g transform="translate(30.225625 254.631719) scale(0.1 -0.1)">
       <use xlink:href="#DejaVuSans-32"/>
      </g>
     </g>
    </g>
    <g id="ytick_5">
     <g id="line2d_27">
      <path d="M 43.588125 218.445 
L 490.435 218.445 
" clip-path="url(#pfdd61c6516)" style="fill: none; stroke-dasharray: 2.96,1.28; stroke-dashoffset: 0; stroke: #b0b0b0; stroke-opacity: 0.4; stroke-width: 0.8"/>
     </g>
     <g id="line2d_28">
      <g>
       <use xlink:href="#m66bdb75150" x="43.588125" y="218.445" style="stroke: #000000; stroke-width: 0.8"/>
      </g>
     </g>
     <g id="text_15">
      <!-- 3 -->
      <g transform="translate(30.225625 222.244219) scale(0.1 -0.1)">
       <use xlink:href="#DejaVuSans-33"/>
      </g>
     </g>
    </g>
    <g id="ytick_6">
     <g id="line2d_29">
      <path d="M 43.588125 186.0575 
L 490.435 186.0575 
" clip-path="url(#pfdd61c6516)" style="fill: none; stroke-dasharray: 2.96,1.28; stroke-dashoffset: 0; stroke: #b0b0b0; stroke-opacity: 0.4; stroke-width: 0.8"/>
     </g>
     <g id="line2d_30">
      <g>
       <use xlink:href="#m66bdb75150" x="43.588125" y="186.0575" style="stroke: #000000; stroke-width: 0.8"/>
      </g>
     </g>
     <g id="text_16">
      <!-- 4 -->
      <g transform="translate(30.225625 189.856719) scale(0.1 -0.1)">
       <use xlink:href="#DejaVuSans-34"/>
      </g>
     </g>
    </g>
    <g id="ytick_7">
     <g id="line2d_31">
      <path d="M 43.588125 153.67 
L 490.435 153.67 
" clip-path="url(#pfdd61c6516)" style="fill: none; stroke-dasharray: 2.96,1.28; stroke-dashoffset: 0; stroke: #b0b0b0; stroke-opacity: 0.4; stroke-width: 0.8"/>
     </g>
     <g id="line2d_32">
      <g>
       <use xlink:href="#m66bdb75150" x="43.588125" y="153.67" style="stroke: #000000; stroke-width: 0.8"/>
      </g>
     </g>
     <g id="text_17">
      <!-- 5 -->
      <g transform="translate(30.225625 157.469219) scale(0.1 -0.1)">
       <defs>
        <path id="DejaVuSans-35" d="M 691 4666 
L 3169 4666 
L 3169 4134 
L 1269 4134 
L 1269 2991 
Q 1406 3038 1543 3061 
Q 1681 3084 1819 3084 
Q 2600 3084 3056 2656 
Q 3513 2228 3513 1497 
Q 3513 744 3044 326 
Q 2575 -91 1722 -91 
Q 1428 -91 1123 -41 
Q 819 9 494 109 
L 494 744 
Q 775 591 1075 516 
Q 1375 441 1709 441 
Q 2250 441 2565 725 
Q 2881 1009 2881 1497 
Q 2881 1984 2565 2268 
Q 2250 2553 1709 2553 
Q 1456 2553 1204 2497 
Q 953 2441 691 2322 
L 691 4666 
z
" transform="scale(0.015625)"/>
       </defs>
       <use xlink:href="#DejaVuSans-35"/>
      </g>
     </g>
    </g>
    <g id="ytick_8">
     <g id="line2d_33">
      <path d="M 43.588125 121.2825 
L 490.435 121.2825 
" clip-path="url(#pfdd61c6516)" style="fill: none; stroke-dasharray: 2.96,1.28; stroke-dashoffset: 0; stroke: #b0b0b0; stroke-opacity: 0.4; stroke-width: 0.8"/>
     </g>
     <g id="line2d_34">
      <g>
       <use xlink:href="#m66bdb75150" x="43.588125" y="121.2825" style="stroke: #000000; stroke-width: 0.8"/>
      </g>
     </g>
     <g id="text_18">
      <!-- 6 -->
      <g transform="translate(30.225625 125.081719) scale(0.1 -0.1)">
       <defs>
        <path id="DejaVuSans-36" d="M 2113 2584 
Q 1688 2584 1439 2293 
Q 1191 2003 1191 1497 
Q 1191 994 1439 701 
Q 1688 409 2113 409 
Q 2538 409 2786 701 
Q 3034 994 3034 1497 
Q 3034 2003 2786 2293 
Q 2538 2584 2113 2584 
z
M 3366 4563 
L 3366 3988 
Q 3128 4100 2886 4159 
Q 2644 4219 2406 4219 
Q 1781 4219 1451 3797 
Q 1122 3375 1075 2522 
Q 1259 2794 1537 2939 
Q 1816 3084 2150 3084 
Q 2853 3084 3261 2657 
Q 3669 2231 3669 1497 
Q 3669 778 3244 343 
Q 2819 -91 2113 -91 
Q 1303 -91 875 529 
Q 447 1150 447 2328 
Q 447 3434 972 4092 
Q 1497 4750 2381 4750 
Q 2619 4750 2861 4703 
Q 3103 4656 3366 4563 
z
" transform="scale(0.015625)"/>
       </defs>
       <use xlink:href="#DejaVuSans-36"/>
      </g>
     </g>
    </g>
    <g id="ytick_9">
     <g id="line2d_35">
      <path d="M 43.588125 88.895 
L 490.435 88.895 
" clip-path="url(#pfdd61c6516)" style="fill: none; stroke-dasharray: 2.96,1.28; stroke-dashoffset: 0; stroke: #b0b0b0; stroke-opacity: 0.4; stroke-width: 0.8"/>
     </g>
     <g id="line2d_36">
      <g>
       <use xlink:href="#m66bdb75150" x="43.588125" y="88.895" style="stroke: #000000; stroke-width: 0.8"/>
      </g>
     </g>
     <g id="text_19">
      <!-- 7 -->
      <g transform="translate(30.225625 92.694219) scale(0.1 -0.1)">
       <defs>
        <path id="DejaVuSans-37" d="M 525 4666 
L 3525 4666 
L 3525 4397 
L 1831 0 
L 1172 0 
L 2766 4134 
L 525 4134 
L 525 4666 
z
" transform="scale(0.015625)"/>
       </defs>
       <use xlink:href="#DejaVuSans-37"/>
      </g>
     </g>
    </g>
    <g id="ytick_10">
     <g id="line2d_37">
      <path d="M 43.588125 56.5075 
L 490.435 56.5075 
" clip-path="url(#pfdd61c6516)" style="fill: none; stroke-dasharray: 2.96,1.28; stroke-dashoffset: 0; stroke: #b0b0b0; stroke-opacity: 0.4; stroke-width: 0.8"/>
     </g>
     <g id="line2d_38">
      <g>
       <use xlink:href="#m66bdb75150" x="43.588125" y="56.5075" style="stroke: #000000; stroke-width: 0.8"/>
      </g>
     </g>
     <g id="text_20">
      <!-- 8 -->
      <g transform="translate(30.225625 60.306719) scale(0.1 -0.1)">
       <defs>
        <path id="DejaVuSans-38" d="M 2034 2216 
Q 1584 2216 1326 1975 
Q 1069 1734 1069 1313 
Q 1069 891 1326 650 
Q 1584 409 2034 409 
Q 2484 409 2743 651 
Q 3003 894 3003 1313 
Q 3003 1734 2745 1975 
Q 2488 2216 2034 2216 
z
M 1403 2484 
Q 997 2584 770 2862 
Q 544 3141 544 3541 
Q 544 4100 942 4425 
Q 1341 4750 2034 4750 
Q 2731 4750 3128 4425 
Q 3525 4100 3525 3541 
Q 3525 3141 3298 2862 
Q 3072 2584 2669 2484 
Q 3125 2378 3379 2068 
Q 3634 1759 3634 1313 
Q 3634 634 3220 271 
Q 2806 -91 2034 -91 
Q 1263 -91 848 271 
Q 434 634 434 1313 
Q 434 1759 690 2068 
Q 947 2378 1403 2484 
z
M 1172 3481 
Q 1172 3119 1398 2916 
Q 1625 2713 2034 2713 
Q 2441 2713 2670 2916 
Q 2900 3119 2900 3481 
Q 2900 3844 2670 4047 
Q 2441 4250 2034 4250 
Q 1625 4250 1398 4047 
Q 1172 3844 1172 3481 
z
" transform="scale(0.015625)"/>
       </defs>
       <use xlink:href="#DejaVuSans-38"/>
      </g>
     </g>
    </g>
    <g id="ytick_11">
     <g id="line2d_39">
      <path d="M 43.588125 24.12 
L 490.435 24.12 
" clip-path="url(#pfdd61c6516)" style="fill: none; stroke-dasharray: 2.96,1.28; stroke-dashoffset: 0; stroke: #b0b0b0; stroke-opacity: 0.4; stroke-width: 0.8"/>
     </g>
     <g id="line2d_40">
      <g>
       <use xlink:href="#m66bdb75150" x="43.588125" y="24.12" style="stroke: #000000; stroke-width: 0.8"/>
      </g>
     </g>
     <g id="text_21">
      <!-- 9 -->
      <g transform="translate(30.225625 27.919219) scale(0.1 -0.1)">
       <defs>
        <path id="DejaVuSans-39" d="M 703 97 
L 703 672 
Q 941 559 1184 500 
Q 1428 441 1663 441 
Q 2288 441 2617 861 
Q 2947 1281 2994 2138 
Q 2813 1869 2534 1725 
Q 2256 1581 1919 1581 
Q 1219 1581 811 2004 
Q 403 2428 403 3163 
Q 403 3881 828 4315 
Q 1253 4750 1959 4750 
Q 2769 4750 3195 4129 
Q 3622 3509 3622 2328 
Q 3622 1225 3098 567 
Q 2575 -91 1691 -91 
Q 1453 -91 1209 -44 
Q 966 3 703 97 
z
M 1959 2075 
Q 2384 2075 2632 2365 
Q 2881 2656 2881 3163 
Q 2881 3666 2632 3958 
Q 2384 4250 1959 4250 
Q 1534 4250 1286 3958 
Q 1038 3666 1038 3163 
Q 1038 2656 1286 2365 
Q 1534 2075 1959 2075 
z
" transform="scale(0.015625)"/>
       </defs>
       <use xlink:href="#DejaVuSans-39"/>
      </g>
     </g>
    </g>
    <g id="text_22">
     <!-- $y$ -->
     <g transform="translate(15.535938 189.3575) rotate(-90) scale(0.11 -0.11)">
      <defs>
       <path id="DejaVuSans-Oblique-79" d="M 1588 -325 
Q 1188 -997 936 -1164 
Q 684 -1331 294 -1331 
L -159 -1331 
L -63 -850 
L 269 -850 
Q 509 -850 678 -719 
Q 847 -588 1056 -206 
L 1234 128 
L 459 3500 
L 1069 3500 
L 1650 819 
L 3256 3500 
L 3859 3500 
L 1588 -325 
z
" transform="scale(0.015625)"/>
      </defs>
      <use xlink:href="#DejaVuSans-Oblique-79" transform="translate(0 0.3125)"/>
     </g>
    </g>
   </g>
   <g id="line2d_41">
    <path d="M 92.375672 -1 
L 97.479205 17.244373 
L 104.21559 40.484271 
L 110.951976 62.782011 
L 117.688361 84.137593 
L 124.424746 104.551017 
L 131.161131 124.022282 
L 137.897516 142.55139 
L 144.633901 160.13834 
L 149.124824 171.339552 
L 153.615747 182.122027 
L 158.106671 192.485766 
L 162.597594 202.430767 
L 167.088518 211.957032 
L 171.579441 221.064559 
L 176.070364 229.75335 
L 180.561288 238.023404 
L 185.052211 245.874721 
L 189.543134 253.307301 
L 194.034058 260.321144 
L 198.524981 266.91625 
L 203.015905 273.092619 
L 207.506828 278.850251 
L 211.997751 284.189147 
L 216.488675 289.109306 
L 220.979598 293.610727 
L 225.470521 297.693412 
L 229.961445 301.35736 
L 234.452368 304.602571 
L 238.943291 307.429045 
L 243.434215 309.836782 
L 247.925138 311.825782 
L 252.416062 313.396046 
L 256.906985 314.547572 
L 261.397908 315.280362 
L 265.888832 315.594414 
L 270.379755 315.48973 
L 274.870678 314.966309 
L 279.361602 314.024151 
L 283.852525 312.663256 
L 288.343448 310.883624 
L 292.834372 308.685256 
L 297.325295 306.06815 
L 301.816219 303.032307 
L 306.307142 299.577728 
L 310.798065 295.704412 
L 315.288989 291.412358 
L 319.779912 286.701568 
L 324.270835 281.572041 
L 328.761759 276.023777 
L 333.252682 270.056777 
L 337.743606 263.671039 
L 342.234529 256.866564 
L 346.725452 249.643353 
L 351.216376 242.001404 
L 355.707299 233.940719 
L 360.198222 225.461297 
L 364.689146 216.563137 
L 369.180069 207.246241 
L 373.670992 197.510609 
L 378.161916 187.356239 
L 382.652839 176.783132 
L 387.143763 165.791288 
L 391.634686 154.380708 
L 396.125609 142.55139 
L 402.861994 124.022282 
L 409.598379 104.551017 
L 416.334764 84.137593 
L 423.071149 62.782011 
L 429.807535 40.484271 
L 436.54392 17.244373 
L 441.647453 -1 
L 441.647453 -1 
" clip-path="url(#pfdd61c6516)" style="fill: none; stroke: #4682b4; stroke-width: 2.5; stroke-linecap: square"/>
   </g>
   <g id="line2d_42">
    <path d="M 267.011563 347.995 
L 269.291393 345.351122 
L 271.571224 342.707245 
L 273.851055 340.063367 
L 276.130886 337.41949 
L 278.410717 334.775612 
L 280.690548 332.131735 
L 282.970379 329.487857 
L 285.25021 326.84398 
L 287.530041 324.200102 
L 289.809872 321.556224 
L 292.089703 318.912347 
L 294.369534 316.268469 
L 296.649365 313.624592 
L 298.929196 310.980714 
L 301.209027 308.336837 
L 303.488858 305.692959 
L 305.768689 303.049082 
L 308.04852 300.405204 
L 310.328351 297.761327 
L 312.608182 295.117449 
L 314.888013 292.473571 
L 317.167844 289.829694 
L 319.447675 287.185816 
L 321.727506 284.541939 
L 324.007337 281.898061 
L 326.287168 279.254184 
L 328.566999 276.610306 
L 330.84683 273.966429 
L 333.126661 271.322551 
L 335.406492 268.678673 
L 337.686323 266.034796 
L 339.966154 263.390918 
L 342.245985 260.747041 
L 344.525816 258.103163 
L 346.805647 255.459286 
L 349.085478 252.815408 
L 351.365309 250.171531 
L 353.64514 247.527653 
L 355.924971 244.883776 
L 358.204802 242.239898 
L 360.484633 239.59602 
L 362.764464 236.952143 
L 365.044295 234.308265 
L 367.324126 231.664388 
L 369.603957 229.02051 
L 371.883788 226.376633 
L 374.163619 223.732755 
L 376.44345 221.088878 
L 378.723281 218.445 
" clip-path="url(#pfdd61c6516)" style="fill: none; stroke-dasharray: 7.4,3.2; stroke-dashoffset: 0; stroke: #cc0000; stroke-width: 2"/>
   </g>
   <g id="line2d_43">
    <path d="M 43.588125 315.6075 
L 490.435 315.6075 
" clip-path="url(#pfdd61c6516)" style="fill: none; stroke: #000000; stroke-width: 0.8; stroke-linecap: square"/>
   </g>
   <g id="line2d_44">
    <path d="M 267.011563 347.995 
L 267.011563 24.12 
" clip-path="url(#pfdd61c6516)" style="fill: none; stroke: #000000; stroke-width: 0.8; stroke-linecap: square"/>
   </g>
   <g id="patch_3">
    <path d="M 43.588125 347.995 
L 43.588125 24.12 
" style="fill: none; stroke: #000000; stroke-width: 0.8; stroke-linejoin: miter; stroke-linecap: square"/>
   </g>
   <g id="patch_4">
    <path d="M 490.435 347.995 
L 490.435 24.12 
" style="fill: none; stroke: #000000; stroke-width: 0.8; stroke-linejoin: miter; stroke-linecap: square"/>
   </g>
   <g id="patch_5">
    <path d="M 43.588125 347.995 
L 490.435 347.995 
" style="fill: none; stroke: #000000; stroke-width: 0.8; stroke-linejoin: miter; stroke-linecap: square"/>
   </g>
   <g id="patch_6">
    <path d="M 43.588125 24.12 
L 490.435 24.12 
" style="fill: none; stroke: #000000; stroke-width: 0.8; stroke-linejoin: miter; stroke-linecap: square"/>
   </g>
   <g id="text_23">
    <!-- $g(x) = x^2$, slope at $x=1$ is 2 -->
    <g style="fill: #808080" transform="translate(184.151563 18.12) scale(0.12 -0.12)">
     <defs>
      <path id="DejaVuSans-Oblique-67" d="M 3816 3500 
L 3219 434 
Q 3047 -456 2561 -893 
Q 2075 -1331 1253 -1331 
Q 950 -1331 690 -1286 
Q 431 -1241 206 -1147 
L 313 -588 
Q 525 -725 762 -790 
Q 1000 -856 1269 -856 
Q 1816 -856 2167 -557 
Q 2519 -259 2631 300 
L 2681 563 
Q 2441 288 2122 144 
Q 1803 0 1434 0 
Q 903 0 598 351 
Q 294 703 294 1319 
Q 294 1803 478 2267 
Q 663 2731 997 3091 
Q 1219 3328 1514 3456 
Q 1809 3584 2131 3584 
Q 2484 3584 2746 3420 
Q 3009 3256 3138 2956 
L 3238 3500 
L 3816 3500 
z
M 2950 2216 
Q 2950 2641 2750 2872 
Q 2550 3103 2181 3103 
Q 1953 3103 1747 3012 
Q 1541 2922 1394 2759 
Q 1156 2491 1023 2127 
Q 891 1763 891 1375 
Q 891 944 1092 712 
Q 1294 481 1672 481 
Q 2219 481 2584 976 
Q 2950 1472 2950 2216 
z
" transform="scale(0.015625)"/>
      <path id="DejaVuSans-28" d="M 1984 4856 
Q 1566 4138 1362 3434 
Q 1159 2731 1159 2009 
Q 1159 1288 1364 580 
Q 1569 -128 1984 -844 
L 1484 -844 
Q 1016 -109 783 600 
Q 550 1309 550 2009 
Q 550 2706 781 3412 
Q 1013 4119 1484 4856 
L 1984 4856 
z
" transform="scale(0.015625)"/>
      <path id="DejaVuSans-29" d="M 513 4856 
L 1013 4856 
Q 1481 4119 1714 3412 
Q 1947 2706 1947 2009 
Q 1947 1309 1714 600 
Q 1481 -109 1013 -844 
L 513 -844 
Q 928 -128 1133 580 
Q 1338 1288 1338 2009 
Q 1338 2731 1133 3434 
Q 928 4138 513 4856 
z
" transform="scale(0.015625)"/>
      <path id="DejaVuSans-3d" d="M 678 2906 
L 4684 2906 
L 4684 2381 
L 678 2381 
L 678 2906 
z
M 678 1631 
L 4684 1631 
L 4684 1100 
L 678 1100 
L 678 1631 
z
" transform="scale(0.015625)"/>
      <path id="DejaVuSans-2c" d="M 750 794 
L 1409 794 
L 1409 256 
L 897 -744 
L 494 -744 
L 750 256 
L 750 794 
z
" transform="scale(0.015625)"/>
      <path id="DejaVuSans-20" transform="scale(0.015625)"/>
      <path id="DejaVuSans-73" d="M 2834 3397 
L 2834 2853 
Q 2591 2978 2328 3040 
Q 2066 3103 1784 3103 
Q 1356 3103 1142 2972 
Q 928 2841 928 2578 
Q 928 2378 1081 2264 
Q 1234 2150 1697 2047 
L 1894 2003 
Q 2506 1872 2764 1633 
Q 3022 1394 3022 966 
Q 3022 478 2636 193 
Q 2250 -91 1575 -91 
Q 1294 -91 989 -36 
Q 684 19 347 128 
L 347 722 
Q 666 556 975 473 
Q 1284 391 1588 391 
Q 1994 391 2212 530 
Q 2431 669 2431 922 
Q 2431 1156 2273 1281 
Q 2116 1406 1581 1522 
L 1381 1569 
Q 847 1681 609 1914 
Q 372 2147 372 2553 
Q 372 3047 722 3315 
Q 1072 3584 1716 3584 
Q 2034 3584 2315 3537 
Q 2597 3491 2834 3397 
z
" transform="scale(0.015625)"/>
      <path id="DejaVuSans-6c" d="M 603 4863 
L 1178 4863 
L 1178 0 
L 603 0 
L 603 4863 
z
" transform="scale(0.015625)"/>
      <path id="DejaVuSans-6f" d="M 1959 3097 
Q 1497 3097 1228 2736 
Q 959 2375 959 1747 
Q 959 1119 1226 758 
Q 1494 397 1959 397 
Q 2419 397 2687 759 
Q 2956 1122 2956 1747 
Q 2956 2369 2687 2733 
Q 2419 3097 1959 3097 
z
M 1959 3584 
Q 2709 3584 3137 3096 
Q 3566 2609 3566 1747 
Q 3566 888 3137 398 
Q 2709 -91 1959 -91 
Q 1206 -91 779 398 
Q 353 888 353 1747 
Q 353 2609 779 3096 
Q 1206 3584 1959 3584 
z
" transform="scale(0.015625)"/>
      <path id="DejaVuSans-70" d="M 1159 525 
L 1159 -1331 
L 581 -1331 
L 581 3500 
L 1159 3500 
L 1159 2969 
Q 1341 3281 1617 3432 
Q 1894 3584 2278 3584 
Q 2916 3584 3314 3078 
Q 3713 2572 3713 1747 
Q 3713 922 3314 415 
Q 2916 -91 2278 -91 
Q 1894 -91 1617 61 
Q 1341 213 1159 525 
z
M 3116 1747 
Q 3116 2381 2855 2742 
Q 2594 3103 2138 3103 
Q 1681 3103 1420 2742 
Q 1159 2381 1159 1747 
Q 1159 1113 1420 752 
Q 1681 391 2138 391 
Q 2594 391 2855 752 
Q 3116 1113 3116 1747 
z
" transform="scale(0.015625)"/>
      <path id="DejaVuSans-65" d="M 3597 1894 
L 3597 1613 
L 953 1613 
Q 991 1019 1311 708 
Q 1631 397 2203 397 
Q 2534 397 2845 478 
Q 3156 559 3463 722 
L 3463 178 
Q 3153 47 2828 -22 
Q 2503 -91 2169 -91 
Q 1331 -91 842 396 
Q 353 884 353 1716 
Q 353 2575 817 3079 
Q 1281 3584 2069 3584 
Q 2775 3584 3186 3129 
Q 3597 2675 3597 1894 
z
M 3022 2063 
Q 3016 2534 2758 2815 
Q 2500 3097 2075 3097 
Q 1594 3097 1305 2825 
Q 1016 2553 972 2059 
L 3022 2063 
z
" transform="scale(0.015625)"/>
      <path id="DejaVuSans-61" d="M 2194 1759 
Q 1497 1759 1228 1600 
Q 959 1441 959 1056 
Q 959 750 1161 570 
Q 1363 391 1709 391 
Q 2188 391 2477 730 
Q 2766 1069 2766 1631 
L 2766 1759 
L 2194 1759 
z
M 3341 1997 
L 3341 0 
L 2766 0 
L 2766 531 
Q 2569 213 2275 61 
Q 1981 -91 1556 -91 
Q 1019 -91 701 211 
Q 384 513 384 1019 
Q 384 1609 779 1909 
Q 1175 2209 1959 2209 
L 2766 2209 
L 2766 2266 
Q 2766 2663 2505 2880 
Q 2244 3097 1772 3097 
Q 1472 3097 1187 3025 
Q 903 2953 641 2809 
L 641 3341 
Q 956 3463 1253 3523 
Q 1550 3584 1831 3584 
Q 2591 3584 2966 3190 
Q 3341 2797 3341 1997 
z
" transform="scale(0.015625)"/>
      <path id="DejaVuSans-74" d="M 1172 4494 
L 1172 3500 
L 2356 3500 
L 2356 3053 
L 1172 3053 
L 1172 1153 
Q 1172 725 1289 603 
Q 1406 481 1766 481 
L 2356 481 
L 2356 0 
L 1766 0 
Q 1100 0 847 248 
Q 594 497 594 1153 
L 594 3053 
L 172 3053 
L 172 3500 
L 594 3500 
L 594 4494 
L 1172 4494 
z
" transform="scale(0.015625)"/>
      <path id="DejaVuSans-69" d="M 603 3500 
L 1178 3500 
L 1178 0 
L 603 0 
L 603 3500 
z
M 603 4863 
L 1178 4863 
L 1178 4134 
L 603 4134 
L 603 4863 
z
" transform="scale(0.015625)"/>
     </defs>
     <use xlink:href="#DejaVuSans-Oblique-67" transform="translate(0 0.765625)"/>
     <use xlink:href="#DejaVuSans-28" transform="translate(63.476562 0.765625)"/>
     <use xlink:href="#DejaVuSans-Oblique-78" transform="translate(102.490234 0.765625)"/>
     <use xlink:href="#DejaVuSans-29" transform="translate(161.669922 0.765625)"/>
     <use xlink:href="#DejaVuSans-3d" transform="translate(220.166016 0.765625)"/>
     <use xlink:href="#DejaVuSans-Oblique-78" transform="translate(323.4375 0.765625)"/>
     <use xlink:href="#DejaVuSans-32" transform="translate(387.083333 39.046875) scale(0.7)"/>
     <use xlink:href="#DejaVuSans-2c" transform="translate(434.353841 0.765625)"/>
     <use xlink:href="#DejaVuSans-20" transform="translate(466.140951 0.765625)"/>
     <use xlink:href="#DejaVuSans-73" transform="translate(497.92806 0.765625)"/>
     <use xlink:href="#DejaVuSans-6c" transform="translate(550.027669 0.765625)"/>
     <use xlink:href="#DejaVuSans-6f" transform="translate(577.810872 0.765625)"/>
     <use xlink:href="#DejaVuSans-70" transform="translate(638.992513 0.765625)"/>
     <use xlink:href="#DejaVuSans-65" transform="translate(702.469076 0.765625)"/>
     <use xlink:href="#DejaVuSans-20" transform="translate(763.992513 0.765625)"/>
     <use xlink:href="#DejaVuSans-61" transform="translate(795.779622 0.765625)"/>
     <use xlink:href="#DejaVuSans-74" transform="translate(857.058919 0.765625)"/>
     <use xlink:href="#DejaVuSans-20" transform="translate(896.267904 0.765625)"/>
     <use xlink:href="#DejaVuSans-Oblique-78" transform="translate(928.055013 0.765625)"/>
     <use xlink:href="#DejaVuSans-3d" transform="translate(1006.717122 0.765625)"/>
     <use xlink:href="#DejaVuSans-31" transform="translate(1109.988607 0.765625)"/>
     <use xlink:href="#DejaVuSans-20" transform="translate(1173.611654 0.765625)"/>
     <use xlink:href="#DejaVuSans-69" transform="translate(1205.398763 0.765625)"/>
     <use xlink:href="#DejaVuSans-73" transform="translate(1233.181966 0.765625)"/>
     <use xlink:href="#DejaVuSans-20" transform="translate(1285.281576 0.765625)"/>
     <use xlink:href="#DejaVuSans-32" transform="translate(1317.068685 0.765625)"/>
    </g>
   </g>
   <g id="line2d_45">
    <defs>
     <path id="m0ee1168345" d="M 0 5 
C 1.326016 5 2.597899 4.473168 3.535534 3.535534 
C 4.473168 2.597899 5 1.326016 5 0 
C 5 -1.326016 4.473168 -2.597899 3.535534 -3.535534 
C 2.597899 -4.473168 1.326016 -5 0 -5 
C -1.326016 -5 -2.597899 -4.473168 -3.535534 -3.535534 
C -4.473168 -2.597899 -5 -1.326016 -5 0 
C -5 1.326016 -4.473168 2.597899 -3.535534 3.535534 
C -2.597899 4.473168 -1.326016 5 0 5 
z
" style="stroke: #cc0000"/>
    </defs>
    <g clip-path="url(#pfdd61c6516)">
     <use xlink:href="#m0ee1168345" x="322.867422" y="283.22" style="fill: #cc0000; stroke: #cc0000"/>
    </g>
   </g>
   <g id="legend_1">
    <g id="patch_7">
     <path d="M 204.043594 62.998125 
L 329.979531 62.998125 
Q 331.979531 62.998125 331.979531 60.998125 
L 331.979531 31.12 
Q 331.979531 29.12 329.979531 29.12 
L 204.043594 29.12 
Q 202.043594 29.12 202.043594 31.12 
L 202.043594 60.998125 
Q 202.043594 62.998125 204.043594 62.998125 
z
" style="fill: #ffffff; opacity: 0.8; stroke: #cccccc; stroke-linejoin: miter"/>
    </g>
    <g id="line2d_46">
     <path d="M 206.043594 38.72 
L 216.043594 38.72 
L 226.043594 38.72 
" style="fill: none; stroke: #4682b4; stroke-width: 2.5; stroke-linecap: square"/>
    </g>
    <g id="text_24">
     <!-- $g(x) = x^2$ -->
     <g transform="translate(234.043594 42.22) scale(0.1 -0.1)">
      <use xlink:href="#DejaVuSans-Oblique-67" transform="translate(0 0.765625)"/>
      <use xlink:href="#DejaVuSans-28" transform="translate(63.476562 0.765625)"/>
      <use xlink:href="#DejaVuSans-Oblique-78" transform="translate(102.490234 0.765625)"/>
      <use xlink:href="#DejaVuSans-29" transform="translate(161.669922 0.765625)"/>
      <use xlink:href="#DejaVuSans-3d" transform="translate(220.166016 0.765625)"/>
      <use xlink:href="#DejaVuSans-Oblique-78" transform="translate(323.4375 0.765625)"/>
      <use xlink:href="#DejaVuSans-32" transform="translate(387.083333 39.046875) scale(0.7)"/>
     </g>
    </g>
    <g id="line2d_47">
     <path d="M 206.043594 53.418438 
L 216.043594 53.418438 
L 226.043594 53.418438 
" style="fill: none; stroke-dasharray: 7.4,3.2; stroke-dashoffset: 0; stroke: #cc0000; stroke-width: 2"/>
    </g>
    <g id="text_25">
     <!-- Tangent: slope = 2 -->
     <g transform="translate(234.043594 56.918438) scale(0.1 -0.1)">
      <defs>
       <path id="DejaVuSans-54" d="M -19 4666 
L 3928 4666 
L 3928 4134 
L 2272 4134 
L 2272 0 
L 1638 0 
L 1638 4134 
L -19 4134 
L -19 4666 
z
" transform="scale(0.015625)"/>
       <path id="DejaVuSans-6e" d="M 3513 2113 
L 3513 0 
L 2938 0 
L 2938 2094 
Q 2938 2591 2744 2837 
Q 2550 3084 2163 3084 
Q 1697 3084 1428 2787 
Q 1159 2491 1159 1978 
L 1159 0 
L 581 0 
L 581 3500 
L 1159 3500 
L 1159 2956 
Q 1366 3272 1645 3428 
Q 1925 3584 2291 3584 
Q 2894 3584 3203 3211 
Q 3513 2838 3513 2113 
z
" transform="scale(0.015625)"/>
       <path id="DejaVuSans-67" d="M 2906 1791 
Q 2906 2416 2648 2759 
Q 2391 3103 1925 3103 
Q 1463 3103 1205 2759 
Q 947 2416 947 1791 
Q 947 1169 1205 825 
Q 1463 481 1925 481 
Q 2391 481 2648 825 
Q 2906 1169 2906 1791 
z
M 3481 434 
Q 3481 -459 3084 -895 
Q 2688 -1331 1869 -1331 
Q 1566 -1331 1297 -1286 
Q 1028 -1241 775 -1147 
L 775 -588 
Q 1028 -725 1275 -790 
Q 1522 -856 1778 -856 
Q 2344 -856 2625 -561 
Q 2906 -266 2906 331 
L 2906 616 
Q 2728 306 2450 153 
Q 2172 0 1784 0 
Q 1141 0 747 490 
Q 353 981 353 1791 
Q 353 2603 747 3093 
Q 1141 3584 1784 3584 
Q 2172 3584 2450 3431 
Q 2728 3278 2906 2969 
L 2906 3500 
L 3481 3500 
L 3481 434 
z
" transform="scale(0.015625)"/>
       <path id="DejaVuSans-3a" d="M 750 794 
L 1409 794 
L 1409 0 
L 750 0 
L 750 794 
z
M 750 3309 
L 1409 3309 
L 1409 2516 
L 750 2516 
L 750 3309 
z
" transform="scale(0.015625)"/>
      </defs>
      <use xlink:href="#DejaVuSans-54"/>
      <use xlink:href="#DejaVuSans-61" transform="translate(44.583984 0)"/>
      <use xlink:href="#DejaVuSans-6e" transform="translate(105.863281 0)"/>
      <use xlink:href="#DejaVuSans-67" transform="translate(169.242188 0)"/>
      <use xlink:href="#DejaVuSans-65" transform="translate(232.71875 0)"/>
      <use xlink:href="#DejaVuSans-6e" transform="translate(294.242188 0)"/>
      <use xlink:href="#DejaVuSans-74" transform="translate(357.621094 0)"/>
      <use xlink:href="#DejaVuSans-3a" transform="translate(396.830078 0)"/>
      <use xlink:href="#DejaVuSans-20" transform="translate(430.521484 0)"/>
      <use xlink:href="#DejaVuSans-73" transform="translate(462.308594 0)"/>
      <use xlink:href="#DejaVuSans-6c" transform="translate(514.408203 0)"/>
      <use xlink:href="#DejaVuSans-6f" transform="translate(542.191406 0)"/>
      <use xlink:href="#DejaVuSans-70" transform="translate(603.373047 0)"/>
      <use xlink:href="#DejaVuSans-65" transform="translate(666.849609 0)"/>
      <use xlink:href="#DejaVuSans-20" transform="translate(728.373047 0)"/>
      <use xlink:href="#DejaVuSans-3d" transform="translate(760.160156 0)"/>
      <use xlink:href="#DejaVuSans-20" transform="translate(843.949219 0)"/>
      <use xlink:href="#DejaVuSans-32" transform="translate(875.736328 0)"/>
     </g>
    </g>
   </g>
  </g>
  <g id="axes_2">
   <g id="patch_8">
    <path d="M 542.188125 347.995 
L 989.035 347.995 
L 989.035 24.12 
L 542.188125 24.12 
z
" style="fill: #ffffff"/>
   </g>
   <g id="matplotlib.axis_3">
    <g id="xtick_10">
     <g id="line2d_48">
      <path d="M 542.188125 347.995 
L 542.188125 24.12 
" clip-path="url(#p3b6e74a14c)" style="fill: none; stroke-dasharray: 2.96,1.28; stroke-dashoffset: 0; stroke: #b0b0b0; stroke-opacity: 0.4; stroke-width: 0.8"/>
     </g>
     <g id="line2d_49">
      <g>
       <use xlink:href="#m65fcc75493" x="542.188125" y="347.995" style="stroke: #000000; stroke-width: 0.8"/>
      </g>
     </g>
     <g id="text_26">
      <!-- −4 -->
      <g transform="translate(534.817031 362.593438) scale(0.1 -0.1)">
       <use xlink:href="#DejaVuSans-2212"/>
       <use xlink:href="#DejaVuSans-34" transform="translate(83.789062 0)"/>
      </g>
     </g>
    </g>
    <g id="xtick_11">
     <g id="line2d_50">
      <path d="M 598.043984 347.995 
L 598.043984 24.12 
" clip-path="url(#p3b6e74a14c)" style="fill: none; stroke-dasharray: 2.96,1.28; stroke-dashoffset: 0; stroke: #b0b0b0; stroke-opacity: 0.4; stroke-width: 0.8"/>
     </g>
     <g id="line2d_51">
      <g>
       <use xlink:href="#m65fcc75493" x="598.043984" y="347.995" style="stroke: #000000; stroke-width: 0.8"/>
      </g>
     </g>
     <g id="text_27">
      <!-- −3 -->
      <g transform="translate(590.672891 362.593438) scale(0.1 -0.1)">
       <use xlink:href="#DejaVuSans-2212"/>
       <use xlink:href="#DejaVuSans-33" transform="translate(83.789062 0)"/>
      </g>
     </g>
    </g>
    <g id="xtick_12">
     <g id="line2d_52">
      <path d="M 653.899844 347.995 
L 653.899844 24.12 
" clip-path="url(#p3b6e74a14c)" style="fill: none; stroke-dasharray: 2.96,1.28; stroke-dashoffset: 0; stroke: #b0b0b0; stroke-opacity: 0.4; stroke-width: 0.8"/>
     </g>
     <g id="line2d_53">
      <g>
       <use xlink:href="#m65fcc75493" x="653.899844" y="347.995" style="stroke: #000000; stroke-width: 0.8"/>
      </g>
     </g>
     <g id="text_28">
      <!-- −2 -->
      <g transform="translate(646.52875 362.593438) scale(0.1 -0.1)">
       <use xlink:href="#DejaVuSans-2212"/>
       <use xlink:href="#DejaVuSans-32" transform="translate(83.789062 0)"/>
      </g>
     </g>
    </g>
    <g id="xtick_13">
     <g id="line2d_54">
      <path d="M 709.755703 347.995 
L 709.755703 24.12 
" clip-path="url(#p3b6e74a14c)" style="fill: none; stroke-dasharray: 2.96,1.28; stroke-dashoffset: 0; stroke: #b0b0b0; stroke-opacity: 0.4; stroke-width: 0.8"/>
     </g>
     <g id="line2d_55">
      <g>
       <use xlink:href="#m65fcc75493" x="709.755703" y="347.995" style="stroke: #000000; stroke-width: 0.8"/>
      </g>
     </g>
     <g id="text_29">
      <!-- −1 -->
      <g transform="translate(702.384609 362.593438) scale(0.1 -0.1)">
       <use xlink:href="#DejaVuSans-2212"/>
       <use xlink:href="#DejaVuSans-31" transform="translate(83.789062 0)"/>
      </g>
     </g>
    </g>
    <g id="xtick_14">
     <g id="line2d_56">
      <path d="M 765.611562 347.995 
L 765.611562 24.12 
" clip-path="url(#p3b6e74a14c)" style="fill: none; stroke-dasharray: 2.96,1.28; stroke-dashoffset: 0; stroke: #b0b0b0; stroke-opacity: 0.4; stroke-width: 0.8"/>
     </g>
     <g id="line2d_57">
      <g>
       <use xlink:href="#m65fcc75493" x="765.611562" y="347.995" style="stroke: #000000; stroke-width: 0.8"/>
      </g>
     </g>
     <g id="text_30">
      <!-- 0 -->
      <g transform="translate(762.430312 362.593438) scale(0.1 -0.1)">
       <use xlink:href="#DejaVuSans-30"/>
      </g>
     </g>
    </g>
    <g id="xtick_15">
     <g id="line2d_58">
      <path d="M 821.467422 347.995 
L 821.467422 24.12 
" clip-path="url(#p3b6e74a14c)" style="fill: none; stroke-dasharray: 2.96,1.28; stroke-dashoffset: 0; stroke: #b0b0b0; stroke-opacity: 0.4; stroke-width: 0.8"/>
     </g>
     <g id="line2d_59">
      <g>
       <use xlink:href="#m65fcc75493" x="821.467422" y="347.995" style="stroke: #000000; stroke-width: 0.8"/>
      </g>
     </g>
     <g id="text_31">
      <!-- 1 -->
      <g transform="translate(818.286172 362.593438) scale(0.1 -0.1)">
       <use xlink:href="#DejaVuSans-31"/>
      </g>
     </g>
    </g>
    <g id="xtick_16">
     <g id="line2d_60">
      <path d="M 877.323281 347.995 
L 877.323281 24.12 
" clip-path="url(#p3b6e74a14c)" style="fill: none; stroke-dasharray: 2.96,1.28; stroke-dashoffset: 0; stroke: #b0b0b0; stroke-opacity: 0.4; stroke-width: 0.8"/>
     </g>
     <g id="line2d_61">
      <g>
       <use xlink:href="#m65fcc75493" x="877.323281" y="347.995" style="stroke: #000000; stroke-width: 0.8"/>
      </g>
     </g>
     <g id="text_32">
      <!-- 2 -->
      <g transform="translate(874.142031 362.593438) scale(0.1 -0.1)">
       <use xlink:href="#DejaVuSans-32"/>
      </g>
     </g>
    </g>
    <g id="xtick_17">
     <g id="line2d_62">
      <path d="M 933.179141 347.995 
L 933.179141 24.12 
" clip-path="url(#p3b6e74a14c)" style="fill: none; stroke-dasharray: 2.96,1.28; stroke-dashoffset: 0; stroke: #b0b0b0; stroke-opacity: 0.4; stroke-width: 0.8"/>
     </g>
     <g id="line2d_63">
      <g>
       <use xlink:href="#m65fcc75493" x="933.179141" y="347.995" style="stroke: #000000; stroke-width: 0.8"/>
      </g>
     </g>
     <g id="text_33">
      <!-- 3 -->
      <g transform="translate(929.997891 362.593438) scale(0.1 -0.1)">
       <use xlink:href="#DejaVuSans-33"/>
      </g>
     </g>
    </g>
    <g id="xtick_18">
     <g id="line2d_64">
      <path d="M 989.035 347.995 
L 989.035 24.12 
" clip-path="url(#p3b6e74a14c)" style="fill: none; stroke-dasharray: 2.96,1.28; stroke-dashoffset: 0; stroke: #b0b0b0; stroke-opacity: 0.4; stroke-width: 0.8"/>
     </g>
     <g id="line2d_65">
      <g>
       <use xlink:href="#m65fcc75493" x="989.035" y="347.995" style="stroke: #000000; stroke-width: 0.8"/>
      </g>
     </g>
     <g id="text_34">
      <!-- 4 -->
      <g transform="translate(985.85375 362.593438) scale(0.1 -0.1)">
       <use xlink:href="#DejaVuSans-34"/>
      </g>
     </g>
    </g>
    <g id="text_35">
     <!-- $x$ -->
     <g transform="translate(762.311562 377.031406) scale(0.11 -0.11)">
      <use xlink:href="#DejaVuSans-Oblique-78" transform="translate(0 0.3125)"/>
     </g>
    </g>
   </g>
   <g id="matplotlib.axis_4">
    <g id="ytick_12">
     <g id="line2d_66">
      <path d="M 542.188125 347.995 
L 989.035 347.995 
" clip-path="url(#p3b6e74a14c)" style="fill: none; stroke-dasharray: 2.96,1.28; stroke-dashoffset: 0; stroke: #b0b0b0; stroke-opacity: 0.4; stroke-width: 0.8"/>
     </g>
     <g id="line2d_67">
      <g>
       <use xlink:href="#m66bdb75150" x="542.188125" y="347.995" style="stroke: #000000; stroke-width: 0.8"/>
      </g>
     </g>
     <g id="text_36">
      <!-- −1 -->
      <g transform="translate(520.445937 351.794219) scale(0.1 -0.1)">
       <use xlink:href="#DejaVuSans-2212"/>
       <use xlink:href="#DejaVuSans-31" transform="translate(83.789062 0)"/>
      </g>
     </g>
    </g>
    <g id="ytick_13">
     <g id="line2d_68">
      <path d="M 542.188125 315.6075 
L 989.035 315.6075 
" clip-path="url(#p3b6e74a14c)" style="fill: none; stroke-dasharray: 2.96,1.28; stroke-dashoffset: 0; stroke: #b0b0b0; stroke-opacity: 0.4; stroke-width: 0.8"/>
     </g>
     <g id="line2d_69">
      <g>
       <use xlink:href="#m66bdb75150" x="542.188125" y="315.6075" style="stroke: #000000; stroke-width: 0.8"/>
      </g>
     </g>
     <g id="text_37">
      <!-- 0 -->
      <g transform="translate(528.825625 319.406719) scale(0.1 -0.1)">
       <use xlink:href="#DejaVuSans-30"/>
      </g>
     </g>
    </g>
    <g id="ytick_14">
     <g id="line2d_70">
      <path d="M 542.188125 283.22 
L 989.035 283.22 
" clip-path="url(#p3b6e74a14c)" style="fill: none; stroke-dasharray: 2.96,1.28; stroke-dashoffset: 0; stroke: #b0b0b0; stroke-opacity: 0.4; stroke-width: 0.8"/>
     </g>
     <g id="line2d_71">
      <g>
       <use xlink:href="#m66bdb75150" x="542.188125" y="283.22" style="stroke: #000000; stroke-width: 0.8"/>
      </g>
     </g>
     <g id="text_38">
      <!-- 1 -->
      <g transform="translate(528.825625 287.019219) scale(0.1 -0.1)">
       <use xlink:href="#DejaVuSans-31"/>
      </g>
     </g>
    </g>
    <g id="ytick_15">
     <g id="line2d_72">
      <path d="M 542.188125 250.8325 
L 989.035 250.8325 
" clip-path="url(#p3b6e74a14c)" style="fill: none; stroke-dasharray: 2.96,1.28; stroke-dashoffset: 0; stroke: #b0b0b0; stroke-opacity: 0.4; stroke-width: 0.8"/>
     </g>
     <g id="line2d_73">
      <g>
       <use xlink:href="#m66bdb75150" x="542.188125" y="250.8325" style="stroke: #000000; stroke-width: 0.8"/>
      </g>
     </g>
     <g id="text_39">
      <!-- 2 -->
      <g transform="translate(528.825625 254.631719) scale(0.1 -0.1)">
       <use xlink:href="#DejaVuSans-32"/>
      </g>
     </g>
    </g>
    <g id="ytick_16">
     <g id="line2d_74">
      <path d="M 542.188125 218.445 
L 989.035 218.445 
" clip-path="url(#p3b6e74a14c)" style="fill: none; stroke-dasharray: 2.96,1.28; stroke-dashoffset: 0; stroke: #b0b0b0; stroke-opacity: 0.4; stroke-width: 0.8"/>
     </g>
     <g id="line2d_75">
      <g>
       <use xlink:href="#m66bdb75150" x="542.188125" y="218.445" style="stroke: #000000; stroke-width: 0.8"/>
      </g>
     </g>
     <g id="text_40">
      <!-- 3 -->
      <g transform="translate(528.825625 222.244219) scale(0.1 -0.1)">
       <use xlink:href="#DejaVuSans-33"/>
      </g>
     </g>
    </g>
    <g id="ytick_17">
     <g id="line2d_76">
      <path d="M 542.188125 186.0575 
L 989.035 186.0575 
" clip-path="url(#p3b6e74a14c)" style="fill: none; stroke-dasharray: 2.96,1.28; stroke-dashoffset: 0; stroke: #b0b0b0; stroke-opacity: 0.4; stroke-width: 0.8"/>
     </g>
     <g id="line2d_77">
      <g>
       <use xlink:href="#m66bdb75150" x="542.188125" y="186.0575" style="stroke: #000000; stroke-width: 0.8"/>
      </g>
     </g>
     <g id="text_41">
      <!-- 4 -->
      <g transform="translate(528.825625 189.856719) scale(0.1 -0.1)">
       <use xlink:href="#DejaVuSans-34"/>
      </g>
     </g>
    </g>
    <g id="ytick_18">
     <g id="line2d_78">
      <path d="M 542.188125 153.67 
L 989.035 153.67 
" clip-path="url(#p3b6e74a14c)" style="fill: none; stroke-dasharray: 2.96,1.28; stroke-dashoffset: 0; stroke: #b0b0b0; stroke-opacity: 0.4; stroke-width: 0.8"/>
     </g>
     <g id="line2d_79">
      <g>
       <use xlink:href="#m66bdb75150" x="542.188125" y="153.67" style="stroke: #000000; stroke-width: 0.8"/>
      </g>
     </g>
     <g id="text_42">
      <!-- 5 -->
      <g transform="translate(528.825625 157.469219) scale(0.1 -0.1)">
       <use xlink:href="#DejaVuSans-35"/>
      </g>
     </g>
    </g>
    <g id="ytick_19">
     <g id="line2d_80">
      <path d="M 542.188125 121.2825 
L 989.035 121.2825 
" clip-path="url(#p3b6e74a14c)" style="fill: none; stroke-dasharray: 2.96,1.28; stroke-dashoffset: 0; stroke: #b0b0b0; stroke-opacity: 0.4; stroke-width: 0.8"/>
     </g>
     <g id="line2d_81">
      <g>
       <use xlink:href="#m66bdb75150" x="542.188125" y="121.2825" style="stroke: #000000; stroke-width: 0.8"/>
      </g>
     </g>
     <g id="text_43">
      <!-- 6 -->
      <g transform="translate(528.825625 125.081719) scale(0.1 -0.1)">
       <use xlink:href="#DejaVuSans-36"/>
      </g>
     </g>
    </g>
    <g id="ytick_20">
     <g id="line2d_82">
      <path d="M 542.188125 88.895 
L 989.035 88.895 
" clip-path="url(#p3b6e74a14c)" style="fill: none; stroke-dasharray: 2.96,1.28; stroke-dashoffset: 0; stroke: #b0b0b0; stroke-opacity: 0.4; stroke-width: 0.8"/>
     </g>
     <g id="line2d_83">
      <g>
       <use xlink:href="#m66bdb75150" x="542.188125" y="88.895" style="stroke: #000000; stroke-width: 0.8"/>
      </g>
     </g>
     <g id="text_44">
      <!-- 7 -->
      <g transform="translate(528.825625 92.694219) scale(0.1 -0.1)">
       <use xlink:href="#DejaVuSans-37"/>
      </g>
     </g>
    </g>
    <g id="ytick_21">
     <g id="line2d_84">
      <path d="M 542.188125 56.5075 
L 989.035 56.5075 
" clip-path="url(#p3b6e74a14c)" style="fill: none; stroke-dasharray: 2.96,1.28; stroke-dashoffset: 0; stroke: #b0b0b0; stroke-opacity: 0.4; stroke-width: 0.8"/>
     </g>
     <g id="line2d_85">
      <g>
       <use xlink:href="#m66bdb75150" x="542.188125" y="56.5075" style="stroke: #000000; stroke-width: 0.8"/>
      </g>
     </g>
     <g id="text_45">
      <!-- 8 -->
      <g transform="translate(528.825625 60.306719) scale(0.1 -0.1)">
       <use xlink:href="#DejaVuSans-38"/>
      </g>
     </g>
    </g>
    <g id="ytick_22">
     <g id="line2d_86">
      <path d="M 542.188125 24.12 
L 989.035 24.12 
" clip-path="url(#p3b6e74a14c)" style="fill: none; stroke-dasharray: 2.96,1.28; stroke-dashoffset: 0; stroke: #b0b0b0; stroke-opacity: 0.4; stroke-width: 0.8"/>
     </g>
     <g id="line2d_87">
      <g>
       <use xlink:href="#m66bdb75150" x="542.188125" y="24.12" style="stroke: #000000; stroke-width: 0.8"/>
      </g>
     </g>
     <g id="text_46">
      <!-- 9 -->
      <g transform="translate(528.825625 27.919219) scale(0.1 -0.1)">
       <use xlink:href="#DejaVuSans-39"/>
      </g>
     </g>
    </g>
    <g id="text_47">
     <!-- $y$ -->
     <g transform="translate(514.135937 189.3575) rotate(-90) scale(0.11 -0.11)">
      <use xlink:href="#DejaVuSans-Oblique-79" transform="translate(0 0.3125)"/>
     </g>
    </g>
   </g>
   <g id="line2d_88">
    <path d="M 642.128418 -1 
L 645.479362 15.975077 
L 649.970286 37.958764 
L 654.461209 59.104977 
L 658.952133 79.413717 
L 663.443056 98.884983 
L 667.933979 117.518775 
L 672.424903 135.315093 
L 676.915826 152.273938 
L 681.406749 168.395308 
L 685.897673 183.679205 
L 690.388596 198.125628 
L 694.879519 211.734578 
L 699.370443 224.506053 
L 703.861366 236.440055 
L 708.35229 247.536583 
L 712.843213 257.795637 
L 717.334136 267.217217 
L 721.82506 275.801323 
L 726.315983 283.547956 
L 728.561445 287.10722 
L 730.806906 290.457115 
L 733.052368 293.597642 
L 735.29783 296.5288 
L 737.543291 299.25059 
L 739.788753 301.763011 
L 742.034215 304.066064 
L 744.279677 306.159749 
L 746.525138 308.044065 
L 748.7706 309.719012 
L 751.016062 311.184591 
L 753.261523 312.440802 
L 755.506985 313.487644 
L 757.752447 314.325118 
L 759.997908 314.953224 
L 762.24337 315.37196 
L 764.488832 315.581329 
L 766.734293 315.581329 
L 768.979755 315.37196 
L 771.225217 314.953224 
L 773.470678 314.325118 
L 775.71614 313.487644 
L 777.961602 312.440802 
L 780.207063 311.184591 
L 782.452525 309.719012 
L 784.697987 308.044065 
L 786.943448 306.159749 
L 789.18891 304.066064 
L 791.434372 301.763011 
L 793.679834 299.25059 
L 795.925295 296.5288 
L 798.170757 293.597642 
L 800.416219 290.457115 
L 802.66168 287.10722 
L 804.907142 283.547956 
L 809.398065 275.801323 
L 813.888989 267.217217 
L 818.379912 257.795637 
L 822.870835 247.536583 
L 827.361759 236.440055 
L 831.852682 224.506053 
L 836.343606 211.734578 
L 840.834529 198.125628 
L 845.325452 183.679205 
L 849.816376 168.395308 
L 854.307299 152.273938 
L 858.798222 135.315093 
L 863.289146 117.518775 
L 867.780069 98.884983 
L 872.270992 79.413717 
L 876.761916 59.104977 
L 881.252839 37.958764 
L 885.743763 15.975077 
L 889.094707 -1 
L 889.094707 -1 
" clip-path="url(#p3b6e74a14c)" style="fill: none; stroke: #4682b4; stroke-width: 2.5; stroke-linecap: square"/>
   </g>
   <g id="line2d_89">
    <path d="M 765.611562 380.3825 
L 767.891393 375.094745 
L 770.171224 369.80699 
L 772.451055 364.519235 
L 774.730886 359.23148 
L 777.010717 353.943724 
L 779.290548 348.655969 
L 781.570379 343.368214 
L 783.85021 338.080459 
L 786.130041 332.792704 
L 788.409872 327.504949 
L 790.689703 322.217194 
L 792.969534 316.929439 
L 795.249365 311.641684 
L 797.529196 306.353929 
L 799.809027 301.066173 
L 802.088858 295.778418 
L 804.368689 290.490663 
L 806.64852 285.202908 
L 808.928351 279.915153 
L 811.208182 274.627398 
L 813.488013 269.339643 
L 815.767844 264.051888 
L 818.047675 258.764133 
L 820.327506 253.476378 
L 822.607337 248.188622 
L 824.887168 242.900867 
L 827.166999 237.613112 
L 829.44683 232.325357 
L 831.726661 227.037602 
L 834.006492 221.749847 
L 836.286323 216.462092 
L 838.566154 211.174337 
L 840.845985 205.886582 
L 843.125816 200.598827 
L 845.405647 195.311071 
L 847.685478 190.023316 
L 849.965309 184.735561 
L 852.24514 179.447806 
L 854.524971 174.160051 
L 856.804802 168.872296 
L 859.084633 163.584541 
L 861.364464 158.296786 
L 863.644295 153.009031 
L 865.924126 147.721276 
L 868.203957 142.43352 
L 870.483788 137.145765 
L 872.763619 131.85801 
L 875.04345 126.570255 
L 877.323281 121.2825 
" clip-path="url(#p3b6e74a14c)" style="fill: none; stroke-dasharray: 7.4,3.2; stroke-dashoffset: 0; stroke: #cc0000; stroke-width: 2"/>
   </g>
   <g id="line2d_90">
    <path d="M 542.188125 315.6075 
L 989.035 315.6075 
" clip-path="url(#p3b6e74a14c)" style="fill: none; stroke: #000000; stroke-width: 0.8; stroke-linecap: square"/>
   </g>
   <g id="line2d_91">
    <path d="M 765.611562 347.995 
L 765.611562 24.12 
" clip-path="url(#p3b6e74a14c)" style="fill: none; stroke: #000000; stroke-width: 0.8; stroke-linecap: square"/>
   </g>
   <g id="patch_9">
    <path d="M 542.188125 347.995 
L 542.188125 24.12 
" style="fill: none; stroke: #000000; stroke-width: 0.8; stroke-linejoin: miter; stroke-linecap: square"/>
   </g>
   <g id="patch_10">
    <path d="M 989.035 347.995 
L 989.035 24.12 
" style="fill: none; stroke: #000000; stroke-width: 0.8; stroke-linejoin: miter; stroke-linecap: square"/>
   </g>
   <g id="patch_11">
    <path d="M 542.188125 347.995 
L 989.035 347.995 
" style="fill: none; stroke: #000000; stroke-width: 0.8; stroke-linejoin: miter; stroke-linecap: square"/>
   </g>
   <g id="patch_12">
    <path d="M 542.188125 24.12 
L 989.035 24.12 
" style="fill: none; stroke: #000000; stroke-width: 0.8; stroke-linejoin: miter; stroke-linecap: square"/>
   </g>
   <g id="text_48">
    <!-- $f(x) = 2x^2$, slope at $x=1$ is 4 (doubled) -->
    <g style="fill: #808080" transform="translate(649.751562 18.12) scale(0.12 -0.12)">
     <defs>
      <path id="DejaVuSans-Oblique-66" d="M 3059 4863 
L 2969 4384 
L 2419 4384 
Q 2106 4384 1964 4261 
Q 1822 4138 1753 3809 
L 1691 3500 
L 2638 3500 
L 2553 3053 
L 1606 3053 
L 1013 0 
L 434 0 
L 1031 3053 
L 481 3053 
L 563 3500 
L 1113 3500 
L 1159 3744 
Q 1278 4363 1576 4613 
Q 1875 4863 2516 4863 
L 3059 4863 
z
" transform="scale(0.015625)"/>
      <path id="DejaVuSans-64" d="M 2906 2969 
L 2906 4863 
L 3481 4863 
L 3481 0 
L 2906 0 
L 2906 525 
Q 2725 213 2448 61 
Q 2172 -91 1784 -91 
Q 1150 -91 751 415 
Q 353 922 353 1747 
Q 353 2572 751 3078 
Q 1150 3584 1784 3584 
Q 2172 3584 2448 3432 
Q 2725 3281 2906 2969 
z
M 947 1747 
Q 947 1113 1208 752 
Q 1469 391 1925 391 
Q 2381 391 2643 752 
Q 2906 1113 2906 1747 
Q 2906 2381 2643 2742 
Q 2381 3103 1925 3103 
Q 1469 3103 1208 2742 
Q 947 2381 947 1747 
z
" transform="scale(0.015625)"/>
      <path id="DejaVuSans-75" d="M 544 1381 
L 544 3500 
L 1119 3500 
L 1119 1403 
Q 1119 906 1312 657 
Q 1506 409 1894 409 
Q 2359 409 2629 706 
Q 2900 1003 2900 1516 
L 2900 3500 
L 3475 3500 
L 3475 0 
L 2900 0 
L 2900 538 
Q 2691 219 2414 64 
Q 2138 -91 1772 -91 
Q 1169 -91 856 284 
Q 544 659 544 1381 
z
M 1991 3584 
L 1991 3584 
z
" transform="scale(0.015625)"/>
      <path id="DejaVuSans-62" d="M 3116 1747 
Q 3116 2381 2855 2742 
Q 2594 3103 2138 3103 
Q 1681 3103 1420 2742 
Q 1159 2381 1159 1747 
Q 1159 1113 1420 752 
Q 1681 391 2138 391 
Q 2594 391 2855 752 
Q 3116 1113 3116 1747 
z
M 1159 2969 
Q 1341 3281 1617 3432 
Q 1894 3584 2278 3584 
Q 2916 3584 3314 3078 
Q 3713 2572 3713 1747 
Q 3713 922 3314 415 
Q 2916 -91 2278 -91 
Q 1894 -91 1617 61 
Q 1341 213 1159 525 
L 1159 0 
L 581 0 
L 581 4863 
L 1159 4863 
L 1159 2969 
z
" transform="scale(0.015625)"/>
     </defs>
     <use xlink:href="#DejaVuSans-Oblique-66" transform="translate(0 0.765625)"/>
     <use xlink:href="#DejaVuSans-28" transform="translate(35.205078 0.765625)"/>
     <use xlink:href="#DejaVuSans-Oblique-78" transform="translate(74.21875 0.765625)"/>
     <use xlink:href="#DejaVuSans-29" transform="translate(133.398438 0.765625)"/>
     <use xlink:href="#DejaVuSans-3d" transform="translate(191.894531 0.765625)"/>
     <use xlink:href="#DejaVuSans-32" transform="translate(295.166016 0.765625)"/>
     <use xlink:href="#DejaVuSans-Oblique-78" transform="translate(358.789062 0.765625)"/>
     <use xlink:href="#DejaVuSans-32" transform="translate(422.434896 39.046875) scale(0.7)"/>
     <use xlink:href="#DejaVuSans-2c" transform="translate(469.705404 0.765625)"/>
     <use xlink:href="#DejaVuSans-20" transform="translate(501.492513 0.765625)"/>
     <use xlink:href="#DejaVuSans-73" transform="translate(533.279622 0.765625)"/>
     <use xlink:href="#DejaVuSans-6c" transform="translate(585.379232 0.765625)"/>
     <use xlink:href="#DejaVuSans-6f" transform="translate(613.162435 0.765625)"/>
     <use xlink:href="#DejaVuSans-70" transform="translate(674.344076 0.765625)"/>
     <use xlink:href="#DejaVuSans-65" transform="translate(737.820638 0.765625)"/>
     <use xlink:href="#DejaVuSans-20" transform="translate(799.344076 0.765625)"/>
     <use xlink:href="#DejaVuSans-61" transform="translate(831.131185 0.765625)"/>
     <use xlink:href="#DejaVuSans-74" transform="translate(892.410482 0.765625)"/>
     <use xlink:href="#DejaVuSans-20" transform="translate(931.619466 0.765625)"/>
     <use xlink:href="#DejaVuSans-Oblique-78" transform="translate(963.406576 0.765625)"/>
     <use xlink:href="#DejaVuSans-3d" transform="translate(1042.068685 0.765625)"/>
     <use xlink:href="#DejaVuSans-31" transform="translate(1145.340169 0.765625)"/>
     <use xlink:href="#DejaVuSans-20" transform="translate(1208.963216 0.765625)"/>
     <use xlink:href="#DejaVuSans-69" transform="translate(1240.750326 0.765625)"/>
     <use xlink:href="#DejaVuSans-73" transform="translate(1268.533529 0.765625)"/>
     <use xlink:href="#DejaVuSans-20" transform="translate(1320.633138 0.765625)"/>
     <use xlink:href="#DejaVuSans-34" transform="translate(1352.420247 0.765625)"/>
     <use xlink:href="#DejaVuSans-20" transform="translate(1416.043294 0.765625)"/>
     <use xlink:href="#DejaVuSans-28" transform="translate(1447.830404 0.765625)"/>
     <use xlink:href="#DejaVuSans-64" transform="translate(1486.844076 0.765625)"/>
     <use xlink:href="#DejaVuSans-6f" transform="translate(1550.320638 0.765625)"/>
     <use xlink:href="#DejaVuSans-75" transform="translate(1611.502279 0.765625)"/>
     <use xlink:href="#DejaVuSans-62" transform="translate(1674.881185 0.765625)"/>
     <use xlink:href="#DejaVuSans-6c" transform="translate(1738.357747 0.765625)"/>
     <use xlink:href="#DejaVuSans-65" transform="translate(1766.140951 0.765625)"/>
     <use xlink:href="#DejaVuSans-64" transform="translate(1827.664388 0.765625)"/>
     <use xlink:href="#DejaVuSans-29" transform="translate(1891.140951 0.765625)"/>
    </g>
   </g>
   <g id="line2d_92">
    <g clip-path="url(#p3b6e74a14c)">
     <use xlink:href="#m0ee1168345" x="821.467422" y="250.8325" style="fill: #cc0000; stroke: #cc0000"/>
    </g>
   </g>
   <g id="legend_2">
    <g id="patch_13">
     <path d="M 702.643594 62.298125 
L 828.579531 62.298125 
Q 830.579531 62.298125 830.579531 60.298125 
L 830.579531 31.12 
Q 830.579531 29.12 828.579531 29.12 
L 702.643594 29.12 
Q 700.643594 29.12 700.643594 31.12 
L 700.643594 60.298125 
Q 700.643594 62.298125 702.643594 62.298125 
z
" style="fill: #ffffff; opacity: 0.8; stroke: #cccccc; stroke-linejoin: miter"/>
    </g>
    <g id="line2d_93">
     <path d="M 704.643594 38.040313 
L 714.643594 38.040313 
L 724.643594 38.040313 
" style="fill: none; stroke: #4682b4; stroke-width: 2.5; stroke-linecap: square"/>
    </g>
    <g id="text_49">
     <!-- $f(x) = 2x^2$ -->
     <g transform="translate(732.643594 41.540313) scale(0.1 -0.1)">
      <use xlink:href="#DejaVuSans-Oblique-66" transform="translate(0 0.765625)"/>
      <use xlink:href="#DejaVuSans-28" transform="translate(35.205078 0.765625)"/>
      <use xlink:href="#DejaVuSans-Oblique-78" transform="translate(74.21875 0.765625)"/>
      <use xlink:href="#DejaVuSans-29" transform="translate(133.398438 0.765625)"/>
      <use xlink:href="#DejaVuSans-3d" transform="translate(191.894531 0.765625)"/>
      <use xlink:href="#DejaVuSans-32" transform="translate(295.166016 0.765625)"/>
      <use xlink:href="#DejaVuSans-Oblique-78" transform="translate(358.789062 0.765625)"/>
      <use xlink:href="#DejaVuSans-32" transform="translate(422.434896 39.046875) scale(0.7)"/>
     </g>
    </g>
    <g id="line2d_94">
     <path d="M 704.643594 52.718438 
L 714.643594 52.718438 
L 724.643594 52.718438 
" style="fill: none; stroke-dasharray: 7.4,3.2; stroke-dashoffset: 0; stroke: #cc0000; stroke-width: 2"/>
    </g>
    <g id="text_50">
     <!-- Tangent: slope = 4 -->
     <g transform="translate(732.643594 56.218438) scale(0.1 -0.1)">
      <use xlink:href="#DejaVuSans-54"/>
      <use xlink:href="#DejaVuSans-61" transform="translate(44.583984 0)"/>
      <use xlink:href="#DejaVuSans-6e" transform="translate(105.863281 0)"/>
      <use xlink:href="#DejaVuSans-67" transform="translate(169.242188 0)"/>
      <use xlink:href="#DejaVuSans-65" transform="translate(232.71875 0)"/>
      <use xlink:href="#DejaVuSans-6e" transform="translate(294.242188 0)"/>
      <use xlink:href="#DejaVuSans-74" transform="translate(357.621094 0)"/>
      <use xlink:href="#DejaVuSans-3a" transform="translate(396.830078 0)"/>
      <use xlink:href="#DejaVuSans-20" transform="translate(430.521484 0)"/>
      <use xlink:href="#DejaVuSans-73" transform="translate(462.308594 0)"/>
      <use xlink:href="#DejaVuSans-6c" transform="translate(514.408203 0)"/>
      <use xlink:href="#DejaVuSans-6f" transform="translate(542.191406 0)"/>
      <use xlink:href="#DejaVuSans-70" transform="translate(603.373047 0)"/>
      <use xlink:href="#DejaVuSans-65" transform="translate(666.849609 0)"/>
      <use xlink:href="#DejaVuSans-20" transform="translate(728.373047 0)"/>
      <use xlink:href="#DejaVuSans-3d" transform="translate(760.160156 0)"/>
      <use xlink:href="#DejaVuSans-20" transform="translate(843.949219 0)"/>
      <use xlink:href="#DejaVuSans-34" transform="translate(875.736328 0)"/>
     </g>
    </g>
   </g>
  </g>
 </g>
 <defs>
  <clipPath id="pfdd61c6516">
   <rect x="43.588125" y="24.12" width="446.846875" height="323.875"/>
  </clipPath>
  <clipPath id="p3b6e74a14c">
   <rect x="542.188125" y="24.12" width="446.846875" height="323.875"/>
  </clipPath>
 </defs>
</svg>
