<?xml version="1.0" encoding="utf-8" standalone="no"?>
<!DOCTYPE svg PUBLIC "-//W3C//DTD SVG 1.1//EN"
  "http://www.w3.org/Graphics/SVG/1.1/DTD/svg11.dtd">
<svg xmlns:xlink="http://www.w3.org/1999/xlink" width="713.023125pt" height="389.21pt" viewBox="0 0 713.023125 389.21" xmlns="http://www.w3.org/2000/svg" version="1.1">
 <metadata>
  <rdf:RDF xmlns:dc="http://purl.org/dc/elements/1.1/" xmlns:cc="http://creativecommons.org/ns#" xmlns:rdf="http://www.w3.org/1999/02/22-rdf-syntax-ns#">
   <cc:Work>
    <dc:type rdf:resource="http://purl.org/dc/dcmitype/StillImage"/>
    <dc:date>2026-07-11T21:13:34.972241</dc:date>
    <dc:format>image/svg+xml</dc:format>
    <dc:creator>
     <cc:Agent>
      <dc:title>Matplotlib v3.10.8, https://matplotlib.org/</dc:title>
     </cc:Agent>
    </dc:creator>
   </cc:Work>
  </rdf:RDF>
 </metadata>
 <defs>
  <style type="text/css">*{stroke-linejoin: round; stroke-linecap: butt}</style>
 </defs>
 <g id="figure_1">
  <g id="patch_1">
   <path d="M 0 389.21 
L 713.023125 389.21 
L 713.023125 0 
L 0 0 
z
" style="fill: #ffffff"/>
  </g>
  <g id="axes_1">
   <g id="patch_2">
    <path d="M 52.079375 349.718125 
L 705.823125 349.718125 
L 705.823125 22.318125 
L 52.079375 22.318125 
z
" style="fill: #ffffff"/>
   </g>
   <g id="FillBetweenPolyCollection_1">
    <defs>
     <path id="m34cfcb042e" d="M 141.903528 -54.373693 
L 141.22625 -54.373693 
L 141.22625 -55.576264 
L 141.22625 -56.778836 
L 141.22625 -57.981407 
L 141.22625 -59.183978 
L 141.22625 -60.386549 
L 141.22625 -61.58912 
L 141.22625 -62.791691 
L 141.22625 -63.994263 
L 141.22625 -65.196834 
L 141.22625 -66.399405 
L 141.22625 -67.601976 
L 141.22625 -68.804547 
L 141.22625 -70.007118 
L 141.22625 -71.20969 
L 141.22625 -72.412261 
L 141.22625 -73.614832 
L 141.22625 -74.817403 
L 141.22625 -76.019974 
L 141.22625 -77.222545 
L 141.22625 -78.425117 
L 141.22625 -79.627688 
L 141.22625 -80.830259 
L 141.22625 -82.03283 
L 141.22625 -83.235401 
L 141.22625 -84.437972 
L 141.22625 -85.640544 
L 141.22625 -86.843115 
L 141.22625 -88.045686 
L 141.22625 -89.248257 
L 141.22625 -90.450828 
L 141.22625 -91.653399 
L 141.22625 -92.855971 
L 141.22625 -94.058542 
L 141.22625 -95.261113 
L 141.22625 -96.463684 
L 141.22625 -97.666255 
L 141.22625 -98.868826 
L 141.22625 -100.071397 
L 141.22625 -101.273969 
L 141.22625 -102.47654 
L 141.22625 -103.679111 
L 141.22625 -104.881682 
L 141.22625 -106.084253 
L 141.22625 -107.286824 
L 141.22625 -108.489396 
L 141.22625 -109.691967 
L 141.22625 -110.894538 
L 141.22625 -112.097109 
L 141.22625 -113.29968 
L 141.22625 -114.502251 
L 141.22625 -115.704823 
L 141.22625 -116.907394 
L 141.22625 -118.109965 
L 141.22625 -119.312536 
L 141.22625 -120.515107 
L 141.22625 -121.717678 
L 141.22625 -122.92025 
L 141.22625 -124.122821 
L 141.22625 -125.325392 
L 141.22625 -126.527963 
L 141.22625 -127.730534 
L 141.22625 -128.933105 
L 141.22625 -130.135677 
L 141.22625 -131.338248 
L 141.22625 -132.540819 
L 141.22625 -133.74339 
L 141.22625 -134.945961 
L 141.22625 -136.148532 
L 141.22625 -137.351104 
L 141.22625 -138.553675 
L 141.22625 -139.756246 
L 141.22625 -140.958817 
L 141.22625 -142.161388 
L 141.22625 -143.363959 
L 141.22625 -144.566531 
L 141.22625 -145.769102 
L 141.22625 -146.971673 
L 141.22625 -148.174244 
L 141.22625 -149.376815 
L 141.22625 -150.579386 
L 141.22625 -151.781958 
L 141.22625 -152.984529 
L 141.22625 -154.1871 
L 141.22625 -155.389671 
L 141.22625 -156.592242 
L 141.22625 -157.794813 
L 141.22625 -158.997385 
L 141.22625 -160.199956 
L 141.22625 -161.402527 
L 141.22625 -162.605098 
L 141.22625 -163.807669 
L 141.22625 -165.01024 
L 141.22625 -166.212812 
L 141.22625 -167.415383 
L 141.22625 -168.617954 
L 141.22625 -169.820525 
L 141.22625 -171.023096 
L 141.22625 -172.225667 
L 141.22625 -173.428239 
L 141.903528 -173.428239 
L 141.903528 -173.428239 
L 142.007027 -172.225667 
L 142.123733 -171.023096 
L 142.254895 -169.820525 
L 142.401809 -168.617954 
L 142.565812 -167.415383 
L 142.748272 -166.212812 
L 142.950572 -165.01024 
L 143.1741 -163.807669 
L 143.420228 -162.605098 
L 143.690295 -161.402527 
L 143.985586 -160.199956 
L 144.30731 -158.997385 
L 144.656575 -157.794813 
L 145.034364 -156.592242 
L 145.441509 -155.389671 
L 145.878662 -154.1871 
L 146.346269 -152.984529 
L 146.844547 -151.781958 
L 147.37345 -150.579386 
L 147.932652 -149.376815 
L 148.521522 -148.174244 
L 149.1391 -146.971673 
L 149.784086 -145.769102 
L 150.454823 -144.566531 
L 151.149291 -143.363959 
L 151.865098 -142.161388 
L 152.599484 -140.958817 
L 153.34933 -139.756246 
L 154.111165 -138.553675 
L 154.881188 -137.351104 
L 155.655292 -136.148532 
L 156.429095 -134.945961 
L 157.197974 -133.74339 
L 157.957113 -132.540819 
L 158.701543 -131.338248 
L 159.4262 -130.135677 
L 160.125976 -128.933105 
L 160.795781 -127.730534 
L 161.430601 -126.527963 
L 162.025563 -125.325392 
L 162.575994 -124.122821 
L 163.077482 -122.92025 
L 163.525939 -121.717678 
L 163.917648 -120.515107 
L 164.249323 -119.312536 
L 164.518151 -118.109965 
L 164.721829 -116.907394 
L 164.858603 -115.704823 
L 164.927289 -114.502251 
L 164.927289 -113.29968 
L 164.858603 -112.097109 
L 164.721829 -110.894538 
L 164.518151 -109.691967 
L 164.249323 -108.489396 
L 163.917648 -107.286824 
L 163.525939 -106.084253 
L 163.077482 -104.881682 
L 162.575994 -103.679111 
L 162.025563 -102.47654 
L 161.430601 -101.273969 
L 160.795781 -100.071397 
L 160.125976 -98.868826 
L 159.4262 -97.666255 
L 158.701543 -96.463684 
L 157.957113 -95.261113 
L 157.197974 -94.058542 
L 156.429095 -92.855971 
L 155.655292 -91.653399 
L 154.881188 -90.450828 
L 154.111165 -89.248257 
L 153.34933 -88.045686 
L 152.599484 -86.843115 
L 151.865098 -85.640544 
L 151.149291 -84.437972 
L 150.454823 -83.235401 
L 149.784086 -82.03283 
L 149.1391 -80.830259 
L 148.521522 -79.627688 
L 147.932652 -78.425117 
L 147.37345 -77.222545 
L 146.844547 -76.019974 
L 146.346269 -74.817403 
L 145.878662 -73.614832 
L 145.441509 -72.412261 
L 145.034364 -71.20969 
L 144.656575 -70.007118 
L 144.30731 -68.804547 
L 143.985586 -67.601976 
L 143.690295 -66.399405 
L 143.420228 -65.196834 
L 143.1741 -63.994263 
L 142.950572 -62.791691 
L 142.748272 -61.58912 
L 142.565812 -60.386549 
L 142.401809 -59.183978 
L 142.254895 -57.981407 
L 142.123733 -56.778836 
L 142.007027 -55.576264 
L 141.903528 -54.373693 
z
" style="stroke: #cc7000; stroke-opacity: 0.1"/>
    </defs>
    <g clip-path="url(#p37df7d110b)">
     <use xlink:href="#m34cfcb042e" x="0" y="389.21" style="fill: #cc7000; fill-opacity: 0.1; stroke: #cc7000; stroke-opacity: 0.1"/>
    </g>
   </g>
   <g id="FillBetweenPolyCollection_2">
    <defs>
     <path id="m189700fa5d" d="M 260.766028 -99.019148 
L 260.08875 -99.019148 
L 260.08875 -100.221719 
L 260.08875 -101.42429 
L 260.08875 -102.626861 
L 260.08875 -103.829432 
L 260.08875 -105.032004 
L 260.08875 -106.234575 
L 260.08875 -107.437146 
L 260.08875 -108.639717 
L 260.08875 -109.842288 
L 260.08875 -111.044859 
L 260.08875 -112.247431 
L 260.08875 -113.450002 
L 260.08875 -114.652573 
L 260.08875 -115.855144 
L 260.08875 -117.057715 
L 260.08875 -118.260286 
L 260.08875 -119.462858 
L 260.08875 -120.665429 
L 260.08875 -121.868 
L 260.08875 -123.070571 
L 260.08875 -124.273142 
L 260.08875 -125.475713 
L 260.08875 -126.678285 
L 260.08875 -127.880856 
L 260.08875 -129.083427 
L 260.08875 -130.285998 
L 260.08875 -131.488569 
L 260.08875 -132.69114 
L 260.08875 -133.893712 
L 260.08875 -135.096283 
L 260.08875 -136.298854 
L 260.08875 -137.501425 
L 260.08875 -138.703996 
L 260.08875 -139.906567 
L 260.08875 -141.109139 
L 260.08875 -142.31171 
L 260.08875 -143.514281 
L 260.08875 -144.716852 
L 260.08875 -145.919423 
L 260.08875 -147.121994 
L 260.08875 -148.324566 
L 260.08875 -149.527137 
L 260.08875 -150.729708 
L 260.08875 -151.932279 
L 260.08875 -153.13485 
L 260.08875 -154.337421 
L 260.08875 -155.539993 
L 260.08875 -156.742564 
L 260.08875 -157.945135 
L 260.08875 -159.147706 
L 260.08875 -160.350277 
L 260.08875 -161.552848 
L 260.08875 -162.75542 
L 260.08875 -163.957991 
L 260.08875 -165.160562 
L 260.08875 -166.363133 
L 260.08875 -167.565704 
L 260.08875 -168.768275 
L 260.08875 -169.970847 
L 260.08875 -171.173418 
L 260.08875 -172.375989 
L 260.08875 -173.57856 
L 260.08875 -174.781131 
L 260.08875 -175.983702 
L 260.08875 -177.186274 
L 260.08875 -178.388845 
L 260.08875 -179.591416 
L 260.08875 -180.793987 
L 260.08875 -181.996558 
L 260.08875 -183.199129 
L 260.08875 -184.401701 
L 260.08875 -185.604272 
L 260.08875 -186.806843 
L 260.08875 -188.009414 
L 260.08875 -189.211985 
L 260.08875 -190.414556 
L 260.08875 -191.617128 
L 260.08875 -192.819699 
L 260.08875 -194.02227 
L 260.08875 -195.224841 
L 260.08875 -196.427412 
L 260.08875 -197.629983 
L 260.08875 -198.832555 
L 260.08875 -200.035126 
L 260.08875 -201.237697 
L 260.08875 -202.440268 
L 260.08875 -203.642839 
L 260.08875 -204.84541 
L 260.08875 -206.047982 
L 260.08875 -207.250553 
L 260.08875 -208.453124 
L 260.08875 -209.655695 
L 260.08875 -210.858266 
L 260.08875 -212.060837 
L 260.08875 -213.263409 
L 260.08875 -214.46598 
L 260.08875 -215.668551 
L 260.08875 -216.871122 
L 260.08875 -218.073693 
L 260.766028 -218.073693 
L 260.766028 -218.073693 
L 260.869527 -216.871122 
L 260.986233 -215.668551 
L 261.117395 -214.46598 
L 261.264309 -213.263409 
L 261.428312 -212.060837 
L 261.610772 -210.858266 
L 261.813072 -209.655695 
L 262.0366 -208.453124 
L 262.282728 -207.250553 
L 262.552795 -206.047982 
L 262.848086 -204.84541 
L 263.16981 -203.642839 
L 263.519075 -202.440268 
L 263.896864 -201.237697 
L 264.304009 -200.035126 
L 264.741162 -198.832555 
L 265.208769 -197.629983 
L 265.707047 -196.427412 
L 266.23595 -195.224841 
L 266.795152 -194.02227 
L 267.384022 -192.819699 
L 268.0016 -191.617128 
L 268.646586 -190.414556 
L 269.317323 -189.211985 
L 270.011791 -188.009414 
L 270.727598 -186.806843 
L 271.461984 -185.604272 
L 272.21183 -184.401701 
L 272.973665 -183.199129 
L 273.743688 -181.996558 
L 274.517792 -180.793987 
L 275.291595 -179.591416 
L 276.060474 -178.388845 
L 276.819613 -177.186274 
L 277.564043 -175.983702 
L 278.2887 -174.781131 
L 278.988476 -173.57856 
L 279.658281 -172.375989 
L 280.293101 -171.173418 
L 280.888063 -169.970847 
L 281.438494 -168.768275 
L 281.939982 -167.565704 
L 282.388439 -166.363133 
L 282.780148 -165.160562 
L 283.111823 -163.957991 
L 283.380651 -162.75542 
L 283.584329 -161.552848 
L 283.721103 -160.350277 
L 283.789789 -159.147706 
L 283.789789 -157.945135 
L 283.721103 -156.742564 
L 283.584329 -155.539993 
L 283.380651 -154.337421 
L 283.111823 -153.13485 
L 282.780148 -151.932279 
L 282.388439 -150.729708 
L 281.939982 -149.527137 
L 281.438494 -148.324566 
L 280.888063 -147.121994 
L 280.293101 -145.919423 
L 279.658281 -144.716852 
L 278.988476 -143.514281 
L 278.2887 -142.31171 
L 277.564043 -141.109139 
L 276.819613 -139.906567 
L 276.060474 -138.703996 
L 275.291595 -137.501425 
L 274.517792 -136.298854 
L 273.743688 -135.096283 
L 272.973665 -133.893712 
L 272.21183 -132.69114 
L 271.461984 -131.488569 
L 270.727598 -130.285998 
L 270.011791 -129.083427 
L 269.317323 -127.880856 
L 268.646586 -126.678285 
L 268.0016 -125.475713 
L 267.384022 -124.273142 
L 266.795152 -123.070571 
L 266.23595 -121.868 
L 265.707047 -120.665429 
L 265.208769 -119.462858 
L 264.741162 -118.260286 
L 264.304009 -117.057715 
L 263.896864 -115.855144 
L 263.519075 -114.652573 
L 263.16981 -113.450002 
L 262.848086 -112.247431 
L 262.552795 -111.044859 
L 262.282728 -109.842288 
L 262.0366 -108.639717 
L 261.813072 -107.437146 
L 261.610772 -106.234575 
L 261.428312 -105.032004 
L 261.264309 -103.829432 
L 261.117395 -102.626861 
L 260.986233 -101.42429 
L 260.869527 -100.221719 
L 260.766028 -99.019148 
z
" style="stroke: #cc7000; stroke-opacity: 0.1"/>
    </defs>
    <g clip-path="url(#p37df7d110b)">
     <use xlink:href="#m189700fa5d" x="0" y="389.21" style="fill: #cc7000; fill-opacity: 0.1; stroke: #cc7000; stroke-opacity: 0.1"/>
    </g>
   </g>
   <g id="FillBetweenPolyCollection_3">
    <defs>
     <path id="mf3ea20c1b2" d="M 379.628528 -143.664602 
L 378.95125 -143.664602 
L 378.95125 -144.867173 
L 378.95125 -146.069745 
L 378.95125 -147.272316 
L 378.95125 -148.474887 
L 378.95125 -149.677458 
L 378.95125 -150.880029 
L 378.95125 -152.0826 
L 378.95125 -153.285172 
L 378.95125 -154.487743 
L 378.95125 -155.690314 
L 378.95125 -156.892885 
L 378.95125 -158.095456 
L 378.95125 -159.298027 
L 378.95125 -160.500599 
L 378.95125 -161.70317 
L 378.95125 -162.905741 
L 378.95125 -164.108312 
L 378.95125 -165.310883 
L 378.95125 -166.513454 
L 378.95125 -167.716026 
L 378.95125 -168.918597 
L 378.95125 -170.121168 
L 378.95125 -171.323739 
L 378.95125 -172.52631 
L 378.95125 -173.728881 
L 378.95125 -174.931453 
L 378.95125 -176.134024 
L 378.95125 -177.336595 
L 378.95125 -178.539166 
L 378.95125 -179.741737 
L 378.95125 -180.944308 
L 378.95125 -182.14688 
L 378.95125 -183.349451 
L 378.95125 -184.552022 
L 378.95125 -185.754593 
L 378.95125 -186.957164 
L 378.95125 -188.159735 
L 378.95125 -189.362307 
L 378.95125 -190.564878 
L 378.95125 -191.767449 
L 378.95125 -192.97002 
L 378.95125 -194.172591 
L 378.95125 -195.375162 
L 378.95125 -196.577734 
L 378.95125 -197.780305 
L 378.95125 -198.982876 
L 378.95125 -200.185447 
L 378.95125 -201.388018 
L 378.95125 -202.590589 
L 378.95125 -203.793161 
L 378.95125 -204.995732 
L 378.95125 -206.198303 
L 378.95125 -207.400874 
L 378.95125 -208.603445 
L 378.95125 -209.806016 
L 378.95125 -211.008588 
L 378.95125 -212.211159 
L 378.95125 -213.41373 
L 378.95125 -214.616301 
L 378.95125 -215.818872 
L 378.95125 -217.021443 
L 378.95125 -218.224015 
L 378.95125 -219.426586 
L 378.95125 -220.629157 
L 378.95125 -221.831728 
L 378.95125 -223.034299 
L 378.95125 -224.23687 
L 378.95125 -225.439442 
L 378.95125 -226.642013 
L 378.95125 -227.844584 
L 378.95125 -229.047155 
L 378.95125 -230.249726 
L 378.95125 -231.452297 
L 378.95125 -232.654869 
L 378.95125 -233.85744 
L 378.95125 -235.060011 
L 378.95125 -236.262582 
L 378.95125 -237.465153 
L 378.95125 -238.667724 
L 378.95125 -239.870296 
L 378.95125 -241.072867 
L 378.95125 -242.275438 
L 378.95125 -243.478009 
L 378.95125 -244.68058 
L 378.95125 -245.883151 
L 378.95125 -247.085723 
L 378.95125 -248.288294 
L 378.95125 -249.490865 
L 378.95125 -250.693436 
L 378.95125 -251.896007 
L 378.95125 -253.098578 
L 378.95125 -254.30115 
L 378.95125 -255.503721 
L 378.95125 -256.706292 
L 378.95125 -257.908863 
L 378.95125 -259.111434 
L 378.95125 -260.314005 
L 378.95125 -261.516577 
L 378.95125 -262.719148 
L 379.628528 -262.719148 
L 379.628528 -262.719148 
L 379.732027 -261.516577 
L 379.848733 -260.314005 
L 379.979895 -259.111434 
L 380.126809 -257.908863 
L 380.290812 -256.706292 
L 380.473272 -255.503721 
L 380.675572 -254.30115 
L 380.8991 -253.098578 
L 381.145228 -251.896007 
L 381.415295 -250.693436 
L 381.710586 -249.490865 
L 382.03231 -248.288294 
L 382.381575 -247.085723 
L 382.759364 -245.883151 
L 383.166509 -244.68058 
L 383.603662 -243.478009 
L 384.071269 -242.275438 
L 384.569547 -241.072867 
L 385.09845 -239.870296 
L 385.657652 -238.667724 
L 386.246522 -237.465153 
L 386.8641 -236.262582 
L 387.509086 -235.060011 
L 388.179823 -233.85744 
L 388.874291 -232.654869 
L 389.590098 -231.452297 
L 390.324484 -230.249726 
L 391.07433 -229.047155 
L 391.836165 -227.844584 
L 392.606188 -226.642013 
L 393.380292 -225.439442 
L 394.154095 -224.23687 
L 394.922974 -223.034299 
L 395.682113 -221.831728 
L 396.426543 -220.629157 
L 397.1512 -219.426586 
L 397.850976 -218.224015 
L 398.520781 -217.021443 
L 399.155601 -215.818872 
L 399.750563 -214.616301 
L 400.300994 -213.41373 
L 400.802482 -212.211159 
L 401.250939 -211.008588 
L 401.642648 -209.806016 
L 401.974323 -208.603445 
L 402.243151 -207.400874 
L 402.446829 -206.198303 
L 402.583603 -204.995732 
L 402.652289 -203.793161 
L 402.652289 -202.590589 
L 402.583603 -201.388018 
L 402.446829 -200.185447 
L 402.243151 -198.982876 
L 401.974323 -197.780305 
L 401.642648 -196.577734 
L 401.250939 -195.375162 
L 400.802482 -194.172591 
L 400.300994 -192.97002 
L 399.750563 -191.767449 
L 399.155601 -190.564878 
L 398.520781 -189.362307 
L 397.850976 -188.159735 
L 397.1512 -186.957164 
L 396.426543 -185.754593 
L 395.682113 -184.552022 
L 394.922974 -183.349451 
L 394.154095 -182.14688 
L 393.380292 -180.944308 
L 392.606188 -179.741737 
L 391.836165 -178.539166 
L 391.07433 -177.336595 
L 390.324484 -176.134024 
L 389.590098 -174.931453 
L 388.874291 -173.728881 
L 388.179823 -172.52631 
L 387.509086 -171.323739 
L 386.8641 -170.121168 
L 386.246522 -168.918597 
L 385.657652 -167.716026 
L 385.09845 -166.513454 
L 384.569547 -165.310883 
L 384.071269 -164.108312 
L 383.603662 -162.905741 
L 383.166509 -161.70317 
L 382.759364 -160.500599 
L 382.381575 -159.298027 
L 382.03231 -158.095456 
L 381.710586 -156.892885 
L 381.415295 -155.690314 
L 381.145228 -154.487743 
L 380.8991 -153.285172 
L 380.675572 -152.0826 
L 380.473272 -150.880029 
L 380.290812 -149.677458 
L 380.126809 -148.474887 
L 379.979895 -147.272316 
L 379.848733 -146.069745 
L 379.732027 -144.867173 
L 379.628528 -143.664602 
z
" style="stroke: #cc7000; stroke-opacity: 0.1"/>
    </defs>
    <g clip-path="url(#p37df7d110b)">
     <use xlink:href="#mf3ea20c1b2" x="0" y="389.21" style="fill: #cc7000; fill-opacity: 0.1; stroke: #cc7000; stroke-opacity: 0.1"/>
    </g>
   </g>
   <g id="FillBetweenPolyCollection_4">
    <defs>
     <path id="m26f380424c" d="M 498.491028 -188.310057 
L 497.81375 -188.310057 
L 497.81375 -189.512628 
L 497.81375 -190.715199 
L 497.81375 -191.91777 
L 497.81375 -193.120341 
L 497.81375 -194.322913 
L 497.81375 -195.525484 
L 497.81375 -196.728055 
L 497.81375 -197.930626 
L 497.81375 -199.133197 
L 497.81375 -200.335768 
L 497.81375 -201.53834 
L 497.81375 -202.740911 
L 497.81375 -203.943482 
L 497.81375 -205.146053 
L 497.81375 -206.348624 
L 497.81375 -207.551195 
L 497.81375 -208.753767 
L 497.81375 -209.956338 
L 497.81375 -211.158909 
L 497.81375 -212.36148 
L 497.81375 -213.564051 
L 497.81375 -214.766622 
L 497.81375 -215.969194 
L 497.81375 -217.171765 
L 497.81375 -218.374336 
L 497.81375 -219.576907 
L 497.81375 -220.779478 
L 497.81375 -221.982049 
L 497.81375 -223.184621 
L 497.81375 -224.387192 
L 497.81375 -225.589763 
L 497.81375 -226.792334 
L 497.81375 -227.994905 
L 497.81375 -229.197476 
L 497.81375 -230.400048 
L 497.81375 -231.602619 
L 497.81375 -232.80519 
L 497.81375 -234.007761 
L 497.81375 -235.210332 
L 497.81375 -236.412903 
L 497.81375 -237.615475 
L 497.81375 -238.818046 
L 497.81375 -240.020617 
L 497.81375 -241.223188 
L 497.81375 -242.425759 
L 497.81375 -243.62833 
L 497.81375 -244.830902 
L 497.81375 -246.033473 
L 497.81375 -247.236044 
L 497.81375 -248.438615 
L 497.81375 -249.641186 
L 497.81375 -250.843757 
L 497.81375 -252.046329 
L 497.81375 -253.2489 
L 497.81375 -254.451471 
L 497.81375 -255.654042 
L 497.81375 -256.856613 
L 497.81375 -258.059184 
L 497.81375 -259.261756 
L 497.81375 -260.464327 
L 497.81375 -261.666898 
L 497.81375 -262.869469 
L 497.81375 -264.07204 
L 497.81375 -265.274611 
L 497.81375 -266.477183 
L 497.81375 -267.679754 
L 497.81375 -268.882325 
L 497.81375 -270.084896 
L 497.81375 -271.287467 
L 497.81375 -272.490038 
L 497.81375 -273.69261 
L 497.81375 -274.895181 
L 497.81375 -276.097752 
L 497.81375 -277.300323 
L 497.81375 -278.502894 
L 497.81375 -279.705465 
L 497.81375 -280.908037 
L 497.81375 -282.110608 
L 497.81375 -283.313179 
L 497.81375 -284.51575 
L 497.81375 -285.718321 
L 497.81375 -286.920892 
L 497.81375 -288.123464 
L 497.81375 -289.326035 
L 497.81375 -290.528606 
L 497.81375 -291.731177 
L 497.81375 -292.933748 
L 497.81375 -294.136319 
L 497.81375 -295.338891 
L 497.81375 -296.541462 
L 497.81375 -297.744033 
L 497.81375 -298.946604 
L 497.81375 -300.149175 
L 497.81375 -301.351746 
L 497.81375 -302.554318 
L 497.81375 -303.756889 
L 497.81375 -304.95946 
L 497.81375 -306.162031 
L 497.81375 -307.364602 
L 498.491028 -307.364602 
L 498.491028 -307.364602 
L 498.594527 -306.162031 
L 498.711233 -304.95946 
L 498.842395 -303.756889 
L 498.989309 -302.554318 
L 499.153312 -301.351746 
L 499.335772 -300.149175 
L 499.538072 -298.946604 
L 499.7616 -297.744033 
L 500.007728 -296.541462 
L 500.277795 -295.338891 
L 500.573086 -294.136319 
L 500.89481 -292.933748 
L 501.244075 -291.731177 
L 501.621864 -290.528606 
L 502.029009 -289.326035 
L 502.466162 -288.123464 
L 502.933769 -286.920892 
L 503.432047 -285.718321 
L 503.96095 -284.51575 
L 504.520152 -283.313179 
L 505.109022 -282.110608 
L 505.7266 -280.908037 
L 506.371586 -279.705465 
L 507.042323 -278.502894 
L 507.736791 -277.300323 
L 508.452598 -276.097752 
L 509.186984 -274.895181 
L 509.93683 -273.69261 
L 510.698665 -272.490038 
L 511.468688 -271.287467 
L 512.242792 -270.084896 
L 513.016595 -268.882325 
L 513.785474 -267.679754 
L 514.544613 -266.477183 
L 515.289043 -265.274611 
L 516.0137 -264.07204 
L 516.713476 -262.869469 
L 517.383281 -261.666898 
L 518.018101 -260.464327 
L 518.613063 -259.261756 
L 519.163494 -258.059184 
L 519.664982 -256.856613 
L 520.113439 -255.654042 
L 520.505148 -254.451471 
L 520.836823 -253.2489 
L 521.105651 -252.046329 
L 521.309329 -250.843757 
L 521.446103 -249.641186 
L 521.514789 -248.438615 
L 521.514789 -247.236044 
L 521.446103 -246.033473 
L 521.309329 -244.830902 
L 521.105651 -243.62833 
L 520.836823 -242.425759 
L 520.505148 -241.223188 
L 520.113439 -240.020617 
L 519.664982 -238.818046 
L 519.163494 -237.615475 
L 518.613063 -236.412903 
L 518.018101 -235.210332 
L 517.383281 -234.007761 
L 516.713476 -232.80519 
L 516.0137 -231.602619 
L 515.289043 -230.400048 
L 514.544613 -229.197476 
L 513.785474 -227.994905 
L 513.016595 -226.792334 
L 512.242792 -225.589763 
L 511.468688 -224.387192 
L 510.698665 -223.184621 
L 509.93683 -221.982049 
L 509.186984 -220.779478 
L 508.452598 -219.576907 
L 507.736791 -218.374336 
L 507.042323 -217.171765 
L 506.371586 -215.969194 
L 505.7266 -214.766622 
L 505.109022 -213.564051 
L 504.520152 -212.36148 
L 503.96095 -211.158909 
L 503.432047 -209.956338 
L 502.933769 -208.753767 
L 502.466162 -207.551195 
L 502.029009 -206.348624 
L 501.621864 -205.146053 
L 501.244075 -203.943482 
L 500.89481 -202.740911 
L 500.573086 -201.53834 
L 500.277795 -200.335768 
L 500.007728 -199.133197 
L 499.7616 -197.930626 
L 499.538072 -196.728055 
L 499.335772 -195.525484 
L 499.153312 -194.322913 
L 498.989309 -193.120341 
L 498.842395 -191.91777 
L 498.711233 -190.715199 
L 498.594527 -189.512628 
L 498.491028 -188.310057 
z
" style="stroke: #cc7000; stroke-opacity: 0.1"/>
    </defs>
    <g clip-path="url(#p37df7d110b)">
     <use xlink:href="#m26f380424c" x="0" y="389.21" style="fill: #cc7000; fill-opacity: 0.1; stroke: #cc7000; stroke-opacity: 0.1"/>
    </g>
   </g>
   <g id="FillBetweenPolyCollection_5">
    <defs>
     <path id="mb5761bf806" d="M 617.353528 -232.955511 
L 616.67625 -232.955511 
L 616.67625 -234.158083 
L 616.67625 -235.360654 
L 616.67625 -236.563225 
L 616.67625 -237.765796 
L 616.67625 -238.968367 
L 616.67625 -240.170938 
L 616.67625 -241.37351 
L 616.67625 -242.576081 
L 616.67625 -243.778652 
L 616.67625 -244.981223 
L 616.67625 -246.183794 
L 616.67625 -247.386365 
L 616.67625 -248.588937 
L 616.67625 -249.791508 
L 616.67625 -250.994079 
L 616.67625 -252.19665 
L 616.67625 -253.399221 
L 616.67625 -254.601792 
L 616.67625 -255.804364 
L 616.67625 -257.006935 
L 616.67625 -258.209506 
L 616.67625 -259.412077 
L 616.67625 -260.614648 
L 616.67625 -261.817219 
L 616.67625 -263.019791 
L 616.67625 -264.222362 
L 616.67625 -265.424933 
L 616.67625 -266.627504 
L 616.67625 -267.830075 
L 616.67625 -269.032646 
L 616.67625 -270.235218 
L 616.67625 -271.437789 
L 616.67625 -272.64036 
L 616.67625 -273.842931 
L 616.67625 -275.045502 
L 616.67625 -276.248073 
L 616.67625 -277.450645 
L 616.67625 -278.653216 
L 616.67625 -279.855787 
L 616.67625 -281.058358 
L 616.67625 -282.260929 
L 616.67625 -283.4635 
L 616.67625 -284.666072 
L 616.67625 -285.868643 
L 616.67625 -287.071214 
L 616.67625 -288.273785 
L 616.67625 -289.476356 
L 616.67625 -290.678927 
L 616.67625 -291.881499 
L 616.67625 -293.08407 
L 616.67625 -294.286641 
L 616.67625 -295.489212 
L 616.67625 -296.691783 
L 616.67625 -297.894354 
L 616.67625 -299.096926 
L 616.67625 -300.299497 
L 616.67625 -301.502068 
L 616.67625 -302.704639 
L 616.67625 -303.90721 
L 616.67625 -305.109781 
L 616.67625 -306.312353 
L 616.67625 -307.514924 
L 616.67625 -308.717495 
L 616.67625 -309.920066 
L 616.67625 -311.122637 
L 616.67625 -312.325208 
L 616.67625 -313.527779 
L 616.67625 -314.730351 
L 616.67625 -315.932922 
L 616.67625 -317.135493 
L 616.67625 -318.338064 
L 616.67625 -319.540635 
L 616.67625 -320.743206 
L 616.67625 -321.945778 
L 616.67625 -323.148349 
L 616.67625 -324.35092 
L 616.67625 -325.553491 
L 616.67625 -326.756062 
L 616.67625 -327.958633 
L 616.67625 -329.161205 
L 616.67625 -330.363776 
L 616.67625 -331.566347 
L 616.67625 -332.768918 
L 616.67625 -333.971489 
L 616.67625 -335.17406 
L 616.67625 -336.376632 
L 616.67625 -337.579203 
L 616.67625 -338.781774 
L 616.67625 -339.984345 
L 616.67625 -341.186916 
L 616.67625 -342.389487 
L 616.67625 -343.592059 
L 616.67625 -344.79463 
L 616.67625 -345.997201 
L 616.67625 -347.199772 
L 616.67625 -348.402343 
L 616.67625 -349.604914 
L 616.67625 -350.807486 
L 616.67625 -352.010057 
L 617.353528 -352.010057 
L 617.353528 -352.010057 
L 617.457027 -350.807486 
L 617.573733 -349.604914 
L 617.704895 -348.402343 
L 617.851809 -347.199772 
L 618.015812 -345.997201 
L 618.198272 -344.79463 
L 618.400572 -343.592059 
L 618.6241 -342.389487 
L 618.870228 -341.186916 
L 619.140295 -339.984345 
L 619.435586 -338.781774 
L 619.75731 -337.579203 
L 620.106575 -336.376632 
L 620.484364 -335.17406 
L 620.891509 -333.971489 
L 621.328662 -332.768918 
L 621.796269 -331.566347 
L 622.294547 -330.363776 
L 622.82345 -329.161205 
L 623.382652 -327.958633 
L 623.971522 -326.756062 
L 624.5891 -325.553491 
L 625.234086 -324.35092 
L 625.904823 -323.148349 
L 626.599291 -321.945778 
L 627.315098 -320.743206 
L 628.049484 -319.540635 
L 628.79933 -318.338064 
L 629.561165 -317.135493 
L 630.331188 -315.932922 
L 631.105292 -314.730351 
L 631.879095 -313.527779 
L 632.647974 -312.325208 
L 633.407113 -311.122637 
L 634.151543 -309.920066 
L 634.8762 -308.717495 
L 635.575976 -307.514924 
L 636.245781 -306.312353 
L 636.880601 -305.109781 
L 637.475563 -303.90721 
L 638.025994 -302.704639 
L 638.527482 -301.502068 
L 638.975939 -300.299497 
L 639.367648 -299.096926 
L 639.699323 -297.894354 
L 639.968151 -296.691783 
L 640.171829 -295.489212 
L 640.308603 -294.286641 
L 640.377289 -293.08407 
L 640.377289 -291.881499 
L 640.308603 -290.678927 
L 640.171829 -289.476356 
L 639.968151 -288.273785 
L 639.699323 -287.071214 
L 639.367648 -285.868643 
L 638.975939 -284.666072 
L 638.527482 -283.4635 
L 638.025994 -282.260929 
L 637.475563 -281.058358 
L 636.880601 -279.855787 
L 636.245781 -278.653216 
L 635.575976 -277.450645 
L 634.8762 -276.248073 
L 634.151543 -275.045502 
L 633.407113 -273.842931 
L 632.647974 -272.64036 
L 631.879095 -271.437789 
L 631.105292 -270.235218 
L 630.331188 -269.032646 
L 629.561165 -267.830075 
L 628.79933 -266.627504 
L 628.049484 -265.424933 
L 627.315098 -264.222362 
L 626.599291 -263.019791 
L 625.904823 -261.817219 
L 625.234086 -260.614648 
L 624.5891 -259.412077 
L 623.971522 -258.209506 
L 623.382652 -257.006935 
L 622.82345 -255.804364 
L 622.294547 -254.601792 
L 621.796269 -253.399221 
L 621.328662 -252.19665 
L 620.891509 -250.994079 
L 620.484364 -249.791508 
L 620.106575 -248.588937 
L 619.75731 -247.386365 
L 619.435586 -246.183794 
L 619.140295 -244.981223 
L 618.870228 -243.778652 
L 618.6241 -242.576081 
L 618.400572 -241.37351 
L 618.198272 -240.170938 
L 618.015812 -238.968367 
L 617.851809 -237.765796 
L 617.704895 -236.563225 
L 617.573733 -235.360654 
L 617.457027 -234.158083 
L 617.353528 -232.955511 
z
" style="stroke: #cc7000; stroke-opacity: 0.1"/>
    </defs>
    <g clip-path="url(#p37df7d110b)">
     <use xlink:href="#mb5761bf806" x="0" y="389.21" style="fill: #cc7000; fill-opacity: 0.1; stroke: #cc7000; stroke-opacity: 0.1"/>
    </g>
   </g>
   <g id="matplotlib.axis_1">
    <g id="xtick_1">
     <g id="line2d_1">
      <path d="M 81.795 349.718125 
L 81.795 22.318125 
" clip-path="url(#p37df7d110b)" style="fill: none; stroke-dasharray: 2.96,1.28; stroke-dashoffset: 0; stroke: #b0b0b0; stroke-opacity: 0.3; stroke-width: 0.8"/>
     </g>
     <g id="line2d_2">
      <defs>
       <path id="m04b74cabc4" d="M 0 0 
L 0 3.5 
" style="stroke: #000000; stroke-width: 0.8"/>
      </defs>
      <g>
       <use xlink:href="#m04b74cabc4" x="81.795" y="349.718125" style="stroke: #000000; stroke-width: 0.8"/>
      </g>
     </g>
     <g id="text_1">
      <!-- 0 -->
      <g transform="translate(78.61375 364.316562) scale(0.1 -0.1)">
       <defs>
        <path id="DejaVuSans-30" d="M 2034 4250 
Q 1547 4250 1301 3770 
Q 1056 3291 1056 2328 
Q 1056 1369 1301 889 
Q 1547 409 2034 409 
Q 2525 409 2770 889 
Q 3016 1369 3016 2328 
Q 3016 3291 2770 3770 
Q 2525 4250 2034 4250 
z
M 2034 4750 
Q 2819 4750 3233 4129 
Q 3647 3509 3647 2328 
Q 3647 1150 3233 529 
Q 2819 -91 2034 -91 
Q 1250 -91 836 529 
Q 422 1150 422 2328 
Q 422 3509 836 4129 
Q 1250 4750 2034 4750 
z
" transform="scale(0.015625)"/>
       </defs>
       <use xlink:href="#DejaVuSans-30"/>
      </g>
     </g>
    </g>
    <g id="xtick_2">
     <g id="line2d_3">
      <path d="M 200.6575 349.718125 
L 200.6575 22.318125 
" clip-path="url(#p37df7d110b)" style="fill: none; stroke-dasharray: 2.96,1.28; stroke-dashoffset: 0; stroke: #b0b0b0; stroke-opacity: 0.3; stroke-width: 0.8"/>
     </g>
     <g id="line2d_4">
      <g>
       <use xlink:href="#m04b74cabc4" x="200.6575" y="349.718125" style="stroke: #000000; stroke-width: 0.8"/>
      </g>
     </g>
     <g id="text_2">
      <!-- 2 -->
      <g transform="translate(197.47625 364.316562) scale(0.1 -0.1)">
       <defs>
        <path id="DejaVuSans-32" d="M 1228 531 
L 3431 531 
L 3431 0 
L 469 0 
L 469 531 
Q 828 903 1448 1529 
Q 2069 2156 2228 2338 
Q 2531 2678 2651 2914 
Q 2772 3150 2772 3378 
Q 2772 3750 2511 3984 
Q 2250 4219 1831 4219 
Q 1534 4219 1204 4116 
Q 875 4013 500 3803 
L 500 4441 
Q 881 4594 1212 4672 
Q 1544 4750 1819 4750 
Q 2544 4750 2975 4387 
Q 3406 4025 3406 3419 
Q 3406 3131 3298 2873 
Q 3191 2616 2906 2266 
Q 2828 2175 2409 1742 
Q 1991 1309 1228 531 
z
" transform="scale(0.015625)"/>
       </defs>
       <use xlink:href="#DejaVuSans-32"/>
      </g>
     </g>
    </g>
    <g id="xtick_3">
     <g id="line2d_5">
      <path d="M 319.52 349.718125 
L 319.52 22.318125 
" clip-path="url(#p37df7d110b)" style="fill: none; stroke-dasharray: 2.96,1.28; stroke-dashoffset: 0; stroke: #b0b0b0; stroke-opacity: 0.3; stroke-width: 0.8"/>
     </g>
     <g id="line2d_6">
      <g>
       <use xlink:href="#m04b74cabc4" x="319.52" y="349.718125" style="stroke: #000000; stroke-width: 0.8"/>
      </g>
     </g>
     <g id="text_3">
      <!-- 4 -->
      <g transform="translate(316.33875 364.316562) scale(0.1 -0.1)">
       <defs>
        <path id="DejaVuSans-34" d="M 2419 4116 
L 825 1625 
L 2419 1625 
L 2419 4116 
z
M 2253 4666 
L 3047 4666 
L 3047 1625 
L 3713 1625 
L 3713 1100 
L 3047 1100 
L 3047 0 
L 2419 0 
L 2419 1100 
L 313 1100 
L 313 1709 
L 2253 4666 
z
" transform="scale(0.015625)"/>
       </defs>
       <use xlink:href="#DejaVuSans-34"/>
      </g>
     </g>
    </g>
    <g id="xtick_4">
     <g id="line2d_7">
      <path d="M 438.3825 349.718125 
L 438.3825 22.318125 
" clip-path="url(#p37df7d110b)" style="fill: none; stroke-dasharray: 2.96,1.28; stroke-dashoffset: 0; stroke: #b0b0b0; stroke-opacity: 0.3; stroke-width: 0.8"/>
     </g>
     <g id="line2d_8">
      <g>
       <use xlink:href="#m04b74cabc4" x="438.3825" y="349.718125" style="stroke: #000000; stroke-width: 0.8"/>
      </g>
     </g>
     <g id="text_4">
      <!-- 6 -->
      <g transform="translate(435.20125 364.316562) scale(0.1 -0.1)">
       <defs>
        <path id="DejaVuSans-36" d="M 2113 2584 
Q 1688 2584 1439 2293 
Q 1191 2003 1191 1497 
Q 1191 994 1439 701 
Q 1688 409 2113 409 
Q 2538 409 2786 701 
Q 3034 994 3034 1497 
Q 3034 2003 2786 2293 
Q 2538 2584 2113 2584 
z
M 3366 4563 
L 3366 3988 
Q 3128 4100 2886 4159 
Q 2644 4219 2406 4219 
Q 1781 4219 1451 3797 
Q 1122 3375 1075 2522 
Q 1259 2794 1537 2939 
Q 1816 3084 2150 3084 
Q 2853 3084 3261 2657 
Q 3669 2231 3669 1497 
Q 3669 778 3244 343 
Q 2819 -91 2113 -91 
Q 1303 -91 875 529 
Q 447 1150 447 2328 
Q 447 3434 972 4092 
Q 1497 4750 2381 4750 
Q 2619 4750 2861 4703 
Q 3103 4656 3366 4563 
z
" transform="scale(0.015625)"/>
       </defs>
       <use xlink:href="#DejaVuSans-36"/>
      </g>
     </g>
    </g>
    <g id="xtick_5">
     <g id="line2d_9">
      <path d="M 557.245 349.718125 
L 557.245 22.318125 
" clip-path="url(#p37df7d110b)" style="fill: none; stroke-dasharray: 2.96,1.28; stroke-dashoffset: 0; stroke: #b0b0b0; stroke-opacity: 0.3; stroke-width: 0.8"/>
     </g>
     <g id="line2d_10">
      <g>
       <use xlink:href="#m04b74cabc4" x="557.245" y="349.718125" style="stroke: #000000; stroke-width: 0.8"/>
      </g>
     </g>
     <g id="text_5">
      <!-- 8 -->
      <g transform="translate(554.06375 364.316562) scale(0.1 -0.1)">
       <defs>
        <path id="DejaVuSans-38" d="M 2034 2216 
Q 1584 2216 1326 1975 
Q 1069 1734 1069 1313 
Q 1069 891 1326 650 
Q 1584 409 2034 409 
Q 2484 409 2743 651 
Q 3003 894 3003 1313 
Q 3003 1734 2745 1975 
Q 2488 2216 2034 2216 
z
M 1403 2484 
Q 997 2584 770 2862 
Q 544 3141 544 3541 
Q 544 4100 942 4425 
Q 1341 4750 2034 4750 
Q 2731 4750 3128 4425 
Q 3525 4100 3525 3541 
Q 3525 3141 3298 2862 
Q 3072 2584 2669 2484 
Q 3125 2378 3379 2068 
Q 3634 1759 3634 1313 
Q 3634 634 3220 271 
Q 2806 -91 2034 -91 
Q 1263 -91 848 271 
Q 434 634 434 1313 
Q 434 1759 690 2068 
Q 947 2378 1403 2484 
z
M 1172 3481 
Q 1172 3119 1398 2916 
Q 1625 2713 2034 2713 
Q 2441 2713 2670 2916 
Q 2900 3119 2900 3481 
Q 2900 3844 2670 4047 
Q 2441 4250 2034 4250 
Q 1625 4250 1398 4047 
Q 1172 3844 1172 3481 
z
" transform="scale(0.015625)"/>
       </defs>
       <use xlink:href="#DejaVuSans-38"/>
      </g>
     </g>
    </g>
    <g id="xtick_6">
     <g id="line2d_11">
      <path d="M 676.1075 349.718125 
L 676.1075 22.318125 
" clip-path="url(#p37df7d110b)" style="fill: none; stroke-dasharray: 2.96,1.28; stroke-dashoffset: 0; stroke: #b0b0b0; stroke-opacity: 0.3; stroke-width: 0.8"/>
     </g>
     <g id="line2d_12">
      <g>
       <use xlink:href="#m04b74cabc4" x="676.1075" y="349.718125" style="stroke: #000000; stroke-width: 0.8"/>
      </g>
     </g>
     <g id="text_6">
      <!-- 10 -->
      <g transform="translate(669.745 364.316562) scale(0.1 -0.1)">
       <defs>
        <path id="DejaVuSans-31" d="M 794 531 
L 1825 531 
L 1825 4091 
L 703 3866 
L 703 4441 
L 1819 4666 
L 2450 4666 
L 2450 531 
L 3481 531 
L 3481 0 
L 794 0 
L 794 531 
z
" transform="scale(0.015625)"/>
       </defs>
       <use xlink:href="#DejaVuSans-31"/>
       <use xlink:href="#DejaVuSans-30" transform="translate(63.623047 0)"/>
      </g>
     </g>
    </g>
    <g id="text_7">
     <!-- x -->
     <g transform="translate(375.4 379.514375) scale(0.12 -0.12)">
      <defs>
       <path id="DejaVuSans-78" d="M 3513 3500 
L 2247 1797 
L 3578 0 
L 2900 0 
L 1881 1375 
L 863 0 
L 184 0 
L 1544 1831 
L 300 3500 
L 978 3500 
L 1906 2253 
L 2834 3500 
L 3513 3500 
z
" transform="scale(0.015625)"/>
      </defs>
      <use xlink:href="#DejaVuSans-78"/>
     </g>
    </g>
   </g>
   <g id="matplotlib.axis_2">
    <g id="ytick_1">
     <g id="line2d_13">
      <path d="M 52.079375 327.395398 
L 705.823125 327.395398 
" clip-path="url(#p37df7d110b)" style="fill: none; stroke-dasharray: 2.96,1.28; stroke-dashoffset: 0; stroke: #b0b0b0; stroke-opacity: 0.3; stroke-width: 0.8"/>
     </g>
     <g id="line2d_14">
      <defs>
       <path id="m6003c8bca4" d="M 0 0 
L -3.5 0 
" style="stroke: #000000; stroke-width: 0.8"/>
      </defs>
      <g>
       <use xlink:href="#m6003c8bca4" x="52.079375" y="327.395398" style="stroke: #000000; stroke-width: 0.8"/>
      </g>
     </g>
     <g id="text_8">
      <!-- 0.0 -->
      <g transform="translate(29.17625 331.194616) scale(0.1 -0.1)">
       <defs>
        <path id="DejaVuSans-2e" d="M 684 794 
L 1344 794 
L 1344 0 
L 684 0 
L 684 794 
z
" transform="scale(0.015625)"/>
       </defs>
       <use xlink:href="#DejaVuSans-30"/>
       <use xlink:href="#DejaVuSans-2e" transform="translate(63.623047 0)"/>
       <use xlink:href="#DejaVuSans-30" transform="translate(95.410156 0)"/>
      </g>
     </g>
    </g>
    <g id="ytick_2">
     <g id="line2d_15">
      <path d="M 52.079375 290.190852 
L 705.823125 290.190852 
" clip-path="url(#p37df7d110b)" style="fill: none; stroke-dasharray: 2.96,1.28; stroke-dashoffset: 0; stroke: #b0b0b0; stroke-opacity: 0.3; stroke-width: 0.8"/>
     </g>
     <g id="line2d_16">
      <g>
       <use xlink:href="#m6003c8bca4" x="52.079375" y="290.190852" style="stroke: #000000; stroke-width: 0.8"/>
      </g>
     </g>
     <g id="text_9">
      <!-- 2.5 -->
      <g transform="translate(29.17625 293.990071) scale(0.1 -0.1)">
       <defs>
        <path id="DejaVuSans-35" d="M 691 4666 
L 3169 4666 
L 3169 4134 
L 1269 4134 
L 1269 2991 
Q 1406 3038 1543 3061 
Q 1681 3084 1819 3084 
Q 2600 3084 3056 2656 
Q 3513 2228 3513 1497 
Q 3513 744 3044 326 
Q 2575 -91 1722 -91 
Q 1428 -91 1123 -41 
Q 819 9 494 109 
L 494 744 
Q 775 591 1075 516 
Q 1375 441 1709 441 
Q 2250 441 2565 725 
Q 2881 1009 2881 1497 
Q 2881 1984 2565 2268 
Q 2250 2553 1709 2553 
Q 1456 2553 1204 2497 
Q 953 2441 691 2322 
L 691 4666 
z
" transform="scale(0.015625)"/>
       </defs>
       <use xlink:href="#DejaVuSans-32"/>
       <use xlink:href="#DejaVuSans-2e" transform="translate(63.623047 0)"/>
       <use xlink:href="#DejaVuSans-35" transform="translate(95.410156 0)"/>
      </g>
     </g>
    </g>
    <g id="ytick_3">
     <g id="line2d_17">
      <path d="M 52.079375 252.986307 
L 705.823125 252.986307 
" clip-path="url(#p37df7d110b)" style="fill: none; stroke-dasharray: 2.96,1.28; stroke-dashoffset: 0; stroke: #b0b0b0; stroke-opacity: 0.3; stroke-width: 0.8"/>
     </g>
     <g id="line2d_18">
      <g>
       <use xlink:href="#m6003c8bca4" x="52.079375" y="252.986307" style="stroke: #000000; stroke-width: 0.8"/>
      </g>
     </g>
     <g id="text_10">
      <!-- 5.0 -->
      <g transform="translate(29.17625 256.785526) scale(0.1 -0.1)">
       <use xlink:href="#DejaVuSans-35"/>
       <use xlink:href="#DejaVuSans-2e" transform="translate(63.623047 0)"/>
       <use xlink:href="#DejaVuSans-30" transform="translate(95.410156 0)"/>
      </g>
     </g>
    </g>
    <g id="ytick_4">
     <g id="line2d_19">
      <path d="M 52.079375 215.781761 
L 705.823125 215.781761 
" clip-path="url(#p37df7d110b)" style="fill: none; stroke-dasharray: 2.96,1.28; stroke-dashoffset: 0; stroke: #b0b0b0; stroke-opacity: 0.3; stroke-width: 0.8"/>
     </g>
     <g id="line2d_20">
      <g>
       <use xlink:href="#m6003c8bca4" x="52.079375" y="215.781761" style="stroke: #000000; stroke-width: 0.8"/>
      </g>
     </g>
     <g id="text_11">
      <!-- 7.5 -->
      <g transform="translate(29.17625 219.58098) scale(0.1 -0.1)">
       <defs>
        <path id="DejaVuSans-37" d="M 525 4666 
L 3525 4666 
L 3525 4397 
L 1831 0 
L 1172 0 
L 2766 4134 
L 525 4134 
L 525 4666 
z
" transform="scale(0.015625)"/>
       </defs>
       <use xlink:href="#DejaVuSans-37"/>
       <use xlink:href="#DejaVuSans-2e" transform="translate(63.623047 0)"/>
       <use xlink:href="#DejaVuSans-35" transform="translate(95.410156 0)"/>
      </g>
     </g>
    </g>
    <g id="ytick_5">
     <g id="line2d_21">
      <path d="M 52.079375 178.577216 
L 705.823125 178.577216 
" clip-path="url(#p37df7d110b)" style="fill: none; stroke-dasharray: 2.96,1.28; stroke-dashoffset: 0; stroke: #b0b0b0; stroke-opacity: 0.3; stroke-width: 0.8"/>
     </g>
     <g id="line2d_22">
      <g>
       <use xlink:href="#m6003c8bca4" x="52.079375" y="178.577216" style="stroke: #000000; stroke-width: 0.8"/>
      </g>
     </g>
     <g id="text_12">
      <!-- 10.0 -->
      <g transform="translate(22.81375 182.376435) scale(0.1 -0.1)">
       <use xlink:href="#DejaVuSans-31"/>
       <use xlink:href="#DejaVuSans-30" transform="translate(63.623047 0)"/>
       <use xlink:href="#DejaVuSans-2e" transform="translate(127.246094 0)"/>
       <use xlink:href="#DejaVuSans-30" transform="translate(159.033203 0)"/>
      </g>
     </g>
    </g>
    <g id="ytick_6">
     <g id="line2d_23">
      <path d="M 52.079375 141.37267 
L 705.823125 141.37267 
" clip-path="url(#p37df7d110b)" style="fill: none; stroke-dasharray: 2.96,1.28; stroke-dashoffset: 0; stroke: #b0b0b0; stroke-opacity: 0.3; stroke-width: 0.8"/>
     </g>
     <g id="line2d_24">
      <g>
       <use xlink:href="#m6003c8bca4" x="52.079375" y="141.37267" style="stroke: #000000; stroke-width: 0.8"/>
      </g>
     </g>
     <g id="text_13">
      <!-- 12.5 -->
      <g transform="translate(22.81375 145.171889) scale(0.1 -0.1)">
       <use xlink:href="#DejaVuSans-31"/>
       <use xlink:href="#DejaVuSans-32" transform="translate(63.623047 0)"/>
       <use xlink:href="#DejaVuSans-2e" transform="translate(127.246094 0)"/>
       <use xlink:href="#DejaVuSans-35" transform="translate(159.033203 0)"/>
      </g>
     </g>
    </g>
    <g id="ytick_7">
     <g id="line2d_25">
      <path d="M 52.079375 104.168125 
L 705.823125 104.168125 
" clip-path="url(#p37df7d110b)" style="fill: none; stroke-dasharray: 2.96,1.28; stroke-dashoffset: 0; stroke: #b0b0b0; stroke-opacity: 0.3; stroke-width: 0.8"/>
     </g>
     <g id="line2d_26">
      <g>
       <use xlink:href="#m6003c8bca4" x="52.079375" y="104.168125" style="stroke: #000000; stroke-width: 0.8"/>
      </g>
     </g>
     <g id="text_14">
      <!-- 15.0 -->
      <g transform="translate(22.81375 107.967344) scale(0.1 -0.1)">
       <use xlink:href="#DejaVuSans-31"/>
       <use xlink:href="#DejaVuSans-35" transform="translate(63.623047 0)"/>
       <use xlink:href="#DejaVuSans-2e" transform="translate(127.246094 0)"/>
       <use xlink:href="#DejaVuSans-30" transform="translate(159.033203 0)"/>
      </g>
     </g>
    </g>
    <g id="ytick_8">
     <g id="line2d_27">
      <path d="M 52.079375 66.96358 
L 705.823125 66.96358 
" clip-path="url(#p37df7d110b)" style="fill: none; stroke-dasharray: 2.96,1.28; stroke-dashoffset: 0; stroke: #b0b0b0; stroke-opacity: 0.3; stroke-width: 0.8"/>
     </g>
     <g id="line2d_28">
      <g>
       <use xlink:href="#m6003c8bca4" x="52.079375" y="66.96358" style="stroke: #000000; stroke-width: 0.8"/>
      </g>
     </g>
     <g id="text_15">
      <!-- 17.5 -->
      <g transform="translate(22.81375 70.762798) scale(0.1 -0.1)">
       <use xlink:href="#DejaVuSans-31"/>
       <use xlink:href="#DejaVuSans-37" transform="translate(63.623047 0)"/>
       <use xlink:href="#DejaVuSans-2e" transform="translate(127.246094 0)"/>
       <use xlink:href="#DejaVuSans-35" transform="translate(159.033203 0)"/>
      </g>
     </g>
    </g>
    <g id="ytick_9">
     <g id="line2d_29">
      <path d="M 52.079375 29.759034 
L 705.823125 29.759034 
" clip-path="url(#p37df7d110b)" style="fill: none; stroke-dasharray: 2.96,1.28; stroke-dashoffset: 0; stroke: #b0b0b0; stroke-opacity: 0.3; stroke-width: 0.8"/>
     </g>
     <g id="line2d_30">
      <g>
       <use xlink:href="#m6003c8bca4" x="52.079375" y="29.759034" style="stroke: #000000; stroke-width: 0.8"/>
      </g>
     </g>
     <g id="text_16">
      <!-- 20.0 -->
      <g transform="translate(22.81375 33.558253) scale(0.1 -0.1)">
       <use xlink:href="#DejaVuSans-32"/>
       <use xlink:href="#DejaVuSans-30" transform="translate(63.623047 0)"/>
       <use xlink:href="#DejaVuSans-2e" transform="translate(127.246094 0)"/>
       <use xlink:href="#DejaVuSans-30" transform="translate(159.033203 0)"/>
      </g>
     </g>
    </g>
    <g id="text_17">
     <!-- y -->
     <g transform="translate(16.318125 189.569375) rotate(-90) scale(0.12 -0.12)">
      <defs>
       <path id="DejaVuSans-79" d="M 2059 -325 
Q 1816 -950 1584 -1140 
Q 1353 -1331 966 -1331 
L 506 -1331 
L 506 -850 
L 844 -850 
Q 1081 -850 1212 -737 
Q 1344 -625 1503 -206 
L 1606 56 
L 191 3500 
L 800 3500 
L 1894 763 
L 2988 3500 
L 3597 3500 
L 2059 -325 
z
" transform="scale(0.015625)"/>
      </defs>
      <use xlink:href="#DejaVuSans-79"/>
     </g>
    </g>
   </g>
   <g id="line2d_31">
    <path d="M 81.795 297.631761 
L 87.798157 295.37694 
L 93.801313 293.122119 
L 99.80447 290.867299 
L 105.807626 288.612478 
L 111.810783 286.357657 
L 117.813939 284.102836 
L 123.817096 281.848015 
L 129.820253 279.593194 
L 135.823409 277.338373 
L 141.826566 275.083552 
L 147.829722 272.828731 
L 153.832879 270.57391 
L 159.836035 268.319089 
L 165.839192 266.064268 
L 171.842348 263.809447 
L 177.845505 261.554626 
L 183.848662 259.299805 
L 189.851818 257.044985 
L 195.854975 254.790164 
L 201.858131 252.535343 
L 207.861288 250.280522 
L 213.864444 248.025701 
L 219.867601 245.77088 
L 225.870758 243.516059 
L 231.873914 241.261238 
L 237.877071 239.006417 
L 243.880227 236.751596 
L 249.883384 234.496775 
L 255.88654 232.241954 
L 261.889697 229.987133 
L 267.892854 227.732312 
L 273.89601 225.477491 
L 279.899167 223.22267 
L 285.902323 220.96785 
L 291.90548 218.713029 
L 297.908636 216.458208 
L 303.911793 214.203387 
L 309.914949 211.948566 
L 315.918106 209.693745 
L 321.921263 207.438924 
L 327.924419 205.184103 
L 333.927576 202.929282 
L 339.930732 200.674461 
L 345.933889 198.41964 
L 351.937045 196.164819 
L 357.940202 193.909998 
L 363.943359 191.655177 
L 369.946515 189.400356 
L 375.949672 187.145535 
L 381.952828 184.890715 
L 387.955985 182.635894 
L 393.959141 180.381073 
L 399.962298 178.126252 
L 405.965455 175.871431 
L 411.968611 173.61661 
L 417.971768 171.361789 
L 423.974924 169.106968 
L 429.978081 166.852147 
L 435.981237 164.597326 
L 441.984394 162.342505 
L 447.987551 160.087684 
L 453.990707 157.832863 
L 459.993864 155.578042 
L 465.99702 153.323221 
L 472.000177 151.0684 
L 478.003333 148.81358 
L 484.00649 146.558759 
L 490.009646 144.303938 
L 496.012803 142.049117 
L 502.01596 139.794296 
L 508.019116 137.539475 
L 514.022273 135.284654 
L 520.025429 133.029833 
L 526.028586 130.775012 
L 532.031742 128.520191 
L 538.034899 126.26537 
L 544.038056 124.010549 
L 550.041212 121.755728 
L 556.044369 119.500907 
L 562.047525 117.246086 
L 568.050682 114.991265 
L 574.053838 112.736445 
L 580.056995 110.481624 
L 586.060152 108.226803 
L 592.063308 105.971982 
L 598.066465 103.717161 
L 604.069621 101.46234 
L 610.072778 99.207519 
L 616.075934 96.952698 
L 622.079091 94.697877 
L 628.082247 92.443056 
L 634.085404 90.188235 
L 640.088561 87.933414 
L 646.091717 85.678593 
L 652.094874 83.423772 
L 658.09803 81.168951 
L 664.101187 78.914131 
L 670.104343 76.65931 
L 676.1075 74.404489 
" clip-path="url(#p37df7d110b)" style="fill: none; stroke: #4682b4; stroke-width: 2.5; stroke-linecap: square"/>
   </g>
   <g id="line2d_32">
    <path d="M 141.903528 334.836307 
L 142.007027 333.633736 
L 142.123733 332.431164 
L 142.254895 331.228593 
L 142.401809 330.026022 
L 142.565812 328.823451 
L 142.748272 327.62088 
L 142.950572 326.418309 
L 143.1741 325.215737 
L 143.420228 324.013166 
L 143.690295 322.810595 
L 143.985586 321.608024 
L 144.30731 320.405453 
L 144.656575 319.202882 
L 145.034364 318.00031 
L 145.441509 316.797739 
L 145.878662 315.595168 
L 146.346269 314.392597 
L 146.844547 313.190026 
L 147.37345 311.987455 
L 147.932652 310.784883 
L 148.521522 309.582312 
L 149.1391 308.379741 
L 149.784086 307.17717 
L 150.454823 305.974599 
L 151.149291 304.772028 
L 151.865098 303.569456 
L 152.599484 302.366885 
L 153.34933 301.164314 
L 154.111165 299.961743 
L 154.881188 298.759172 
L 155.655292 297.556601 
L 156.429095 296.354029 
L 157.197974 295.151458 
L 157.957113 293.948887 
L 158.701543 292.746316 
L 159.4262 291.543745 
L 160.125976 290.341174 
L 160.795781 289.138603 
L 161.430601 287.936031 
L 162.025563 286.73346 
L 162.575994 285.530889 
L 163.077482 284.328318 
L 163.525939 283.125747 
L 163.917648 281.923176 
L 164.249323 280.720604 
L 164.518151 279.518033 
L 164.721829 278.315462 
L 164.858603 277.112891 
L 164.927289 275.91032 
L 164.927289 274.707749 
L 164.858603 273.505177 
L 164.721829 272.302606 
L 164.518151 271.100035 
L 164.249323 269.897464 
L 163.917648 268.694893 
L 163.525939 267.492322 
L 163.077482 266.28975 
L 162.575994 265.087179 
L 162.025563 263.884608 
L 161.430601 262.682037 
L 160.795781 261.479466 
L 160.125976 260.276895 
L 159.4262 259.074323 
L 158.701543 257.871752 
L 157.957113 256.669181 
L 157.197974 255.46661 
L 156.429095 254.264039 
L 155.655292 253.061468 
L 154.881188 251.858896 
L 154.111165 250.656325 
L 153.34933 249.453754 
L 152.599484 248.251183 
L 151.865098 247.048612 
L 151.149291 245.846041 
L 150.454823 244.643469 
L 149.784086 243.440898 
L 149.1391 242.238327 
L 148.521522 241.035756 
L 147.932652 239.833185 
L 147.37345 238.630614 
L 146.844547 237.428042 
L 146.346269 236.225471 
L 145.878662 235.0229 
L 145.441509 233.820329 
L 145.034364 232.617758 
L 144.656575 231.415187 
L 144.30731 230.212615 
L 143.985586 229.010044 
L 143.690295 227.807473 
L 143.420228 226.604902 
L 143.1741 225.402331 
L 142.950572 224.19976 
L 142.748272 222.997188 
L 142.565812 221.794617 
L 142.401809 220.592046 
L 142.254895 219.389475 
L 142.123733 218.186904 
L 142.007027 216.984333 
L 141.903528 215.781761 
" clip-path="url(#p37df7d110b)" style="fill: none; stroke: #cc7000; stroke-opacity: 0.7; stroke-width: 1.2; stroke-linecap: square"/>
   </g>
   <g id="line2d_33">
    <path d="M 141.22625 275.309034 
L 141.22625 264.22102 
" clip-path="url(#p37df7d110b)" style="fill: none; stroke-dasharray: 3.7,1.6; stroke-dashoffset: 0; stroke: #808080"/>
   </g>
   <g id="line2d_34">
    <path d="M 260.766028 290.190852 
L 260.869527 288.988281 
L 260.986233 287.78571 
L 261.117395 286.583139 
L 261.264309 285.380568 
L 261.428312 284.177996 
L 261.610772 282.975425 
L 261.813072 281.772854 
L 262.0366 280.570283 
L 262.282728 279.367712 
L 262.552795 278.165141 
L 262.848086 276.962569 
L 263.16981 275.759998 
L 263.519075 274.557427 
L 263.896864 273.354856 
L 264.304009 272.152285 
L 264.741162 270.949714 
L 265.208769 269.747142 
L 265.707047 268.544571 
L 266.23595 267.342 
L 266.795152 266.139429 
L 267.384022 264.936858 
L 268.0016 263.734287 
L 268.646586 262.531715 
L 269.317323 261.329144 
L 270.011791 260.126573 
L 270.727598 258.924002 
L 271.461984 257.721431 
L 272.21183 256.51886 
L 272.973665 255.316288 
L 273.743688 254.113717 
L 274.517792 252.911146 
L 275.291595 251.708575 
L 276.060474 250.506004 
L 276.819613 249.303433 
L 277.564043 248.100861 
L 278.2887 246.89829 
L 278.988476 245.695719 
L 279.658281 244.493148 
L 280.293101 243.290577 
L 280.888063 242.088006 
L 281.438494 240.885434 
L 281.939982 239.682863 
L 282.388439 238.480292 
L 282.780148 237.277721 
L 283.111823 236.07515 
L 283.380651 234.872579 
L 283.584329 233.670007 
L 283.721103 232.467436 
L 283.789789 231.264865 
L 283.789789 230.062294 
L 283.721103 228.859723 
L 283.584329 227.657152 
L 283.380651 226.45458 
L 283.111823 225.252009 
L 282.780148 224.049438 
L 282.388439 222.846867 
L 281.939982 221.644296 
L 281.438494 220.441725 
L 280.888063 219.239153 
L 280.293101 218.036582 
L 279.658281 216.834011 
L 278.988476 215.63144 
L 278.2887 214.428869 
L 277.564043 213.226298 
L 276.819613 212.023726 
L 276.060474 210.821155 
L 275.291595 209.618584 
L 274.517792 208.416013 
L 273.743688 207.213442 
L 272.973665 206.010871 
L 272.21183 204.808299 
L 271.461984 203.605728 
L 270.727598 202.403157 
L 270.011791 201.200586 
L 269.317323 199.998015 
L 268.646586 198.795444 
L 268.0016 197.592872 
L 267.384022 196.390301 
L 266.795152 195.18773 
L 266.23595 193.985159 
L 265.707047 192.782588 
L 265.208769 191.580017 
L 264.741162 190.377445 
L 264.304009 189.174874 
L 263.896864 187.972303 
L 263.519075 186.769732 
L 263.16981 185.567161 
L 262.848086 184.36459 
L 262.552795 183.162018 
L 262.282728 181.959447 
L 262.0366 180.756876 
L 261.813072 179.554305 
L 261.610772 178.351734 
L 261.428312 177.149163 
L 261.264309 175.946591 
L 261.117395 174.74402 
L 260.986233 173.541449 
L 260.869527 172.338878 
L 260.766028 171.136307 
" clip-path="url(#p37df7d110b)" style="fill: none; stroke: #cc7000; stroke-opacity: 0.7; stroke-width: 1.2; stroke-linecap: square"/>
   </g>
   <g id="line2d_35">
    <path d="M 260.08875 230.66358 
L 260.08875 233.750016 
" clip-path="url(#p37df7d110b)" style="fill: none; stroke-dasharray: 3.7,1.6; stroke-dashoffset: 0; stroke: #808080"/>
   </g>
   <g id="line2d_36">
    <path d="M 379.628528 245.545398 
L 379.732027 244.342827 
L 379.848733 243.140255 
L 379.979895 241.937684 
L 380.126809 240.735113 
L 380.290812 239.532542 
L 380.473272 238.329971 
L 380.675572 237.1274 
L 380.8991 235.924828 
L 381.145228 234.722257 
L 381.415295 233.519686 
L 381.710586 232.317115 
L 382.03231 231.114544 
L 382.381575 229.911973 
L 382.759364 228.709401 
L 383.166509 227.50683 
L 383.603662 226.304259 
L 384.071269 225.101688 
L 384.569547 223.899117 
L 385.09845 222.696546 
L 385.657652 221.493974 
L 386.246522 220.291403 
L 386.8641 219.088832 
L 387.509086 217.886261 
L 388.179823 216.68369 
L 388.874291 215.481119 
L 389.590098 214.278547 
L 390.324484 213.075976 
L 391.07433 211.873405 
L 391.836165 210.670834 
L 392.606188 209.468263 
L 393.380292 208.265692 
L 394.154095 207.06312 
L 394.922974 205.860549 
L 395.682113 204.657978 
L 396.426543 203.455407 
L 397.1512 202.252836 
L 397.850976 201.050265 
L 398.520781 199.847693 
L 399.155601 198.645122 
L 399.750563 197.442551 
L 400.300994 196.23998 
L 400.802482 195.037409 
L 401.250939 193.834838 
L 401.642648 192.632266 
L 401.974323 191.429695 
L 402.243151 190.227124 
L 402.446829 189.024553 
L 402.583603 187.821982 
L 402.652289 186.619411 
L 402.652289 185.416839 
L 402.583603 184.214268 
L 402.446829 183.011697 
L 402.243151 181.809126 
L 401.974323 180.606555 
L 401.642648 179.403984 
L 401.250939 178.201412 
L 400.802482 176.998841 
L 400.300994 175.79627 
L 399.750563 174.593699 
L 399.155601 173.391128 
L 398.520781 172.188557 
L 397.850976 170.985985 
L 397.1512 169.783414 
L 396.426543 168.580843 
L 395.682113 167.378272 
L 394.922974 166.175701 
L 394.154095 164.97313 
L 393.380292 163.770558 
L 392.606188 162.567987 
L 391.836165 161.365416 
L 391.07433 160.162845 
L 390.324484 158.960274 
L 389.590098 157.757703 
L 388.874291 156.555131 
L 388.179823 155.35256 
L 387.509086 154.149989 
L 386.8641 152.947418 
L 386.246522 151.744847 
L 385.657652 150.542276 
L 385.09845 149.339704 
L 384.569547 148.137133 
L 384.071269 146.934562 
L 383.603662 145.731991 
L 383.166509 144.52942 
L 382.759364 143.326849 
L 382.381575 142.124277 
L 382.03231 140.921706 
L 381.710586 139.719135 
L 381.415295 138.516564 
L 381.145228 137.313993 
L 380.8991 136.111422 
L 380.675572 134.90885 
L 380.473272 133.706279 
L 380.290812 132.503708 
L 380.126809 131.301137 
L 379.979895 130.098566 
L 379.848733 128.895995 
L 379.732027 127.693423 
L 379.628528 126.490852 
" clip-path="url(#p37df7d110b)" style="fill: none; stroke: #cc7000; stroke-opacity: 0.7; stroke-width: 1.2; stroke-linecap: square"/>
   </g>
   <g id="line2d_37">
    <path d="M 378.95125 186.018125 
L 378.95125 171.55995 
" clip-path="url(#p37df7d110b)" style="fill: none; stroke-dasharray: 3.7,1.6; stroke-dashoffset: 0; stroke: #808080"/>
   </g>
   <g id="line2d_38">
    <path d="M 498.491028 200.899943 
L 498.594527 199.697372 
L 498.711233 198.494801 
L 498.842395 197.29223 
L 498.989309 196.089659 
L 499.153312 194.887087 
L 499.335772 193.684516 
L 499.538072 192.481945 
L 499.7616 191.279374 
L 500.007728 190.076803 
L 500.277795 188.874232 
L 500.573086 187.67166 
L 500.89481 186.469089 
L 501.244075 185.266518 
L 501.621864 184.063947 
L 502.029009 182.861376 
L 502.466162 181.658805 
L 502.933769 180.456233 
L 503.432047 179.253662 
L 503.96095 178.051091 
L 504.520152 176.84852 
L 505.109022 175.645949 
L 505.7266 174.443378 
L 506.371586 173.240806 
L 507.042323 172.038235 
L 507.736791 170.835664 
L 508.452598 169.633093 
L 509.186984 168.430522 
L 509.93683 167.227951 
L 510.698665 166.025379 
L 511.468688 164.822808 
L 512.242792 163.620237 
L 513.016595 162.417666 
L 513.785474 161.215095 
L 514.544613 160.012524 
L 515.289043 158.809952 
L 516.0137 157.607381 
L 516.713476 156.40481 
L 517.383281 155.202239 
L 518.018101 153.999668 
L 518.613063 152.797097 
L 519.163494 151.594525 
L 519.664982 150.391954 
L 520.113439 149.189383 
L 520.505148 147.986812 
L 520.836823 146.784241 
L 521.105651 145.58167 
L 521.309329 144.379098 
L 521.446103 143.176527 
L 521.514789 141.973956 
L 521.514789 140.771385 
L 521.446103 139.568814 
L 521.309329 138.366243 
L 521.105651 137.163671 
L 520.836823 135.9611 
L 520.505148 134.758529 
L 520.113439 133.555958 
L 519.664982 132.353387 
L 519.163494 131.150816 
L 518.613063 129.948244 
L 518.018101 128.745673 
L 517.383281 127.543102 
L 516.713476 126.340531 
L 516.0137 125.13796 
L 515.289043 123.935389 
L 514.544613 122.732817 
L 513.785474 121.530246 
L 513.016595 120.327675 
L 512.242792 119.125104 
L 511.468688 117.922533 
L 510.698665 116.719962 
L 509.93683 115.51739 
L 509.186984 114.314819 
L 508.452598 113.112248 
L 507.736791 111.909677 
L 507.042323 110.707106 
L 506.371586 109.504535 
L 505.7266 108.301963 
L 505.109022 107.099392 
L 504.520152 105.896821 
L 503.96095 104.69425 
L 503.432047 103.491679 
L 502.933769 102.289108 
L 502.466162 101.086536 
L 502.029009 99.883965 
L 501.621864 98.681394 
L 501.244075 97.478823 
L 500.89481 96.276252 
L 500.573086 95.073681 
L 500.277795 93.871109 
L 500.007728 92.668538 
L 499.7616 91.465967 
L 499.538072 90.263396 
L 499.335772 89.060825 
L 499.153312 87.858254 
L 498.989309 86.655682 
L 498.842395 85.453111 
L 498.711233 84.25054 
L 498.594527 83.047969 
L 498.491028 81.845398 
" clip-path="url(#p37df7d110b)" style="fill: none; stroke: #cc7000; stroke-opacity: 0.7; stroke-width: 1.2; stroke-linecap: square"/>
   </g>
   <g id="line2d_39">
    <path d="M 497.81375 141.37267 
L 497.81375 107.37449 
" clip-path="url(#p37df7d110b)" style="fill: none; stroke-dasharray: 3.7,1.6; stroke-dashoffset: 0; stroke: #808080"/>
   </g>
   <g id="line2d_40">
    <path d="M 617.353528 156.254489 
L 617.457027 155.051917 
L 617.573733 153.849346 
L 617.704895 152.646775 
L 617.851809 151.444204 
L 618.015812 150.241633 
L 618.198272 149.039062 
L 618.400572 147.83649 
L 618.6241 146.633919 
L 618.870228 145.431348 
L 619.140295 144.228777 
L 619.435586 143.026206 
L 619.75731 141.823635 
L 620.106575 140.621063 
L 620.484364 139.418492 
L 620.891509 138.215921 
L 621.328662 137.01335 
L 621.796269 135.810779 
L 622.294547 134.608208 
L 622.82345 133.405636 
L 623.382652 132.203065 
L 623.971522 131.000494 
L 624.5891 129.797923 
L 625.234086 128.595352 
L 625.904823 127.392781 
L 626.599291 126.190209 
L 627.315098 124.987638 
L 628.049484 123.785067 
L 628.79933 122.582496 
L 629.561165 121.379925 
L 630.331188 120.177354 
L 631.105292 118.974782 
L 631.879095 117.772211 
L 632.647974 116.56964 
L 633.407113 115.367069 
L 634.151543 114.164498 
L 634.8762 112.961927 
L 635.575976 111.759355 
L 636.245781 110.556784 
L 636.880601 109.354213 
L 637.475563 108.151642 
L 638.025994 106.949071 
L 638.527482 105.7465 
L 638.975939 104.543928 
L 639.367648 103.341357 
L 639.699323 102.138786 
L 639.968151 100.936215 
L 640.171829 99.733644 
L 640.308603 98.531073 
L 640.377289 97.328501 
L 640.377289 96.12593 
L 640.308603 94.923359 
L 640.171829 93.720788 
L 639.968151 92.518217 
L 639.699323 91.315646 
L 639.367648 90.113074 
L 638.975939 88.910503 
L 638.527482 87.707932 
L 638.025994 86.505361 
L 637.475563 85.30279 
L 636.880601 84.100219 
L 636.245781 82.897647 
L 635.575976 81.695076 
L 634.8762 80.492505 
L 634.151543 79.289934 
L 633.407113 78.087363 
L 632.647974 76.884792 
L 631.879095 75.682221 
L 631.105292 74.479649 
L 630.331188 73.277078 
L 629.561165 72.074507 
L 628.79933 70.871936 
L 628.049484 69.669365 
L 627.315098 68.466794 
L 626.599291 67.264222 
L 625.904823 66.061651 
L 625.234086 64.85908 
L 624.5891 63.656509 
L 623.971522 62.453938 
L 623.382652 61.251367 
L 622.82345 60.048795 
L 622.294547 58.846224 
L 621.796269 57.643653 
L 621.328662 56.441082 
L 620.891509 55.238511 
L 620.484364 54.03594 
L 620.106575 52.833368 
L 619.75731 51.630797 
L 619.435586 50.428226 
L 619.140295 49.225655 
L 618.870228 48.023084 
L 618.6241 46.820513 
L 618.400572 45.617941 
L 618.198272 44.41537 
L 618.015812 43.212799 
L 617.851809 42.010228 
L 617.704895 40.807657 
L 617.573733 39.605086 
L 617.457027 38.402514 
L 617.353528 37.199943 
" clip-path="url(#p37df7d110b)" style="fill: none; stroke: #cc7000; stroke-opacity: 0.7; stroke-width: 1.2; stroke-linecap: square"/>
   </g>
   <g id="line2d_41">
    <path d="M 616.67625 96.727216 
L 616.67625 101.954158 
" clip-path="url(#p37df7d110b)" style="fill: none; stroke-dasharray: 3.7,1.6; stroke-dashoffset: 0; stroke: #808080"/>
   </g>
   <g id="patch_3">
    <path d="M 52.079375 349.718125 
L 52.079375 22.318125 
" style="fill: none; stroke: #000000; stroke-width: 0.8; stroke-linejoin: miter; stroke-linecap: square"/>
   </g>
   <g id="patch_4">
    <path d="M 705.823125 349.718125 
L 705.823125 22.318125 
" style="fill: none; stroke: #000000; stroke-width: 0.8; stroke-linejoin: miter; stroke-linecap: square"/>
   </g>
   <g id="patch_5">
    <path d="M 52.079375 349.718125 
L 705.823125 349.718125 
" style="fill: none; stroke: #000000; stroke-width: 0.8; stroke-linejoin: miter; stroke-linecap: square"/>
   </g>
   <g id="patch_6">
    <path d="M 52.079375 22.318125 
L 705.823125 22.318125 
" style="fill: none; stroke: #000000; stroke-width: 0.8; stroke-linejoin: miter; stroke-linecap: square"/>
   </g>
   <g id="text_18">
    <!-- Each point is sampled from a Gaussian centered on the line -->
    <g style="fill: #808080" transform="translate(199.614062 16.318125) scale(0.12 -0.12)">
     <defs>
      <path id="DejaVuSans-45" d="M 628 4666 
L 3578 4666 
L 3578 4134 
L 1259 4134 
L 1259 2753 
L 3481 2753 
L 3481 2222 
L 1259 2222 
L 1259 531 
L 3634 531 
L 3634 0 
L 628 0 
L 628 4666 
z
" transform="scale(0.015625)"/>
      <path id="DejaVuSans-61" d="M 2194 1759 
Q 1497 1759 1228 1600 
Q 959 1441 959 1056 
Q 959 750 1161 570 
Q 1363 391 1709 391 
Q 2188 391 2477 730 
Q 2766 1069 2766 1631 
L 2766 1759 
L 2194 1759 
z
M 3341 1997 
L 3341 0 
L 2766 0 
L 2766 531 
Q 2569 213 2275 61 
Q 1981 -91 1556 -91 
Q 1019 -91 701 211 
Q 384 513 384 1019 
Q 384 1609 779 1909 
Q 1175 2209 1959 2209 
L 2766 2209 
L 2766 2266 
Q 2766 2663 2505 2880 
Q 2244 3097 1772 3097 
Q 1472 3097 1187 3025 
Q 903 2953 641 2809 
L 641 3341 
Q 956 3463 1253 3523 
Q 1550 3584 1831 3584 
Q 2591 3584 2966 3190 
Q 3341 2797 3341 1997 
z
" transform="scale(0.015625)"/>
      <path id="DejaVuSans-63" d="M 3122 3366 
L 3122 2828 
Q 2878 2963 2633 3030 
Q 2388 3097 2138 3097 
Q 1578 3097 1268 2742 
Q 959 2388 959 1747 
Q 959 1106 1268 751 
Q 1578 397 2138 397 
Q 2388 397 2633 464 
Q 2878 531 3122 666 
L 3122 134 
Q 2881 22 2623 -34 
Q 2366 -91 2075 -91 
Q 1284 -91 818 406 
Q 353 903 353 1747 
Q 353 2603 823 3093 
Q 1294 3584 2113 3584 
Q 2378 3584 2631 3529 
Q 2884 3475 3122 3366 
z
" transform="scale(0.015625)"/>
      <path id="DejaVuSans-68" d="M 3513 2113 
L 3513 0 
L 2938 0 
L 2938 2094 
Q 2938 2591 2744 2837 
Q 2550 3084 2163 3084 
Q 1697 3084 1428 2787 
Q 1159 2491 1159 1978 
L 1159 0 
L 581 0 
L 581 4863 
L 1159 4863 
L 1159 2956 
Q 1366 3272 1645 3428 
Q 1925 3584 2291 3584 
Q 2894 3584 3203 3211 
Q 3513 2838 3513 2113 
z
" transform="scale(0.015625)"/>
      <path id="DejaVuSans-20" transform="scale(0.015625)"/>
      <path id="DejaVuSans-70" d="M 1159 525 
L 1159 -1331 
L 581 -1331 
L 581 3500 
L 1159 3500 
L 1159 2969 
Q 1341 3281 1617 3432 
Q 1894 3584 2278 3584 
Q 2916 3584 3314 3078 
Q 3713 2572 3713 1747 
Q 3713 922 3314 415 
Q 2916 -91 2278 -91 
Q 1894 -91 1617 61 
Q 1341 213 1159 525 
z
M 3116 1747 
Q 3116 2381 2855 2742 
Q 2594 3103 2138 3103 
Q 1681 3103 1420 2742 
Q 1159 2381 1159 1747 
Q 1159 1113 1420 752 
Q 1681 391 2138 391 
Q 2594 391 2855 752 
Q 3116 1113 3116 1747 
z
" transform="scale(0.015625)"/>
      <path id="DejaVuSans-6f" d="M 1959 3097 
Q 1497 3097 1228 2736 
Q 959 2375 959 1747 
Q 959 1119 1226 758 
Q 1494 397 1959 397 
Q 2419 397 2687 759 
Q 2956 1122 2956 1747 
Q 2956 2369 2687 2733 
Q 2419 3097 1959 3097 
z
M 1959 3584 
Q 2709 3584 3137 3096 
Q 3566 2609 3566 1747 
Q 3566 888 3137 398 
Q 2709 -91 1959 -91 
Q 1206 -91 779 398 
Q 353 888 353 1747 
Q 353 2609 779 3096 
Q 1206 3584 1959 3584 
z
" transform="scale(0.015625)"/>
      <path id="DejaVuSans-69" d="M 603 3500 
L 1178 3500 
L 1178 0 
L 603 0 
L 603 3500 
z
M 603 4863 
L 1178 4863 
L 1178 4134 
L 603 4134 
L 603 4863 
z
" transform="scale(0.015625)"/>
      <path id="DejaVuSans-6e" d="M 3513 2113 
L 3513 0 
L 2938 0 
L 2938 2094 
Q 2938 2591 2744 2837 
Q 2550 3084 2163 3084 
Q 1697 3084 1428 2787 
Q 1159 2491 1159 1978 
L 1159 0 
L 581 0 
L 581 3500 
L 1159 3500 
L 1159 2956 
Q 1366 3272 1645 3428 
Q 1925 3584 2291 3584 
Q 2894 3584 3203 3211 
Q 3513 2838 3513 2113 
z
" transform="scale(0.015625)"/>
      <path id="DejaVuSans-74" d="M 1172 4494 
L 1172 3500 
L 2356 3500 
L 2356 3053 
L 1172 3053 
L 1172 1153 
Q 1172 725 1289 603 
Q 1406 481 1766 481 
L 2356 481 
L 2356 0 
L 1766 0 
Q 1100 0 847 248 
Q 594 497 594 1153 
L 594 3053 
L 172 3053 
L 172 3500 
L 594 3500 
L 594 4494 
L 1172 4494 
z
" transform="scale(0.015625)"/>
      <path id="DejaVuSans-73" d="M 2834 3397 
L 2834 2853 
Q 2591 2978 2328 3040 
Q 2066 3103 1784 3103 
Q 1356 3103 1142 2972 
Q 928 2841 928 2578 
Q 928 2378 1081 2264 
Q 1234 2150 1697 2047 
L 1894 2003 
Q 2506 1872 2764 1633 
Q 3022 1394 3022 966 
Q 3022 478 2636 193 
Q 2250 -91 1575 -91 
Q 1294 -91 989 -36 
Q 684 19 347 128 
L 347 722 
Q 666 556 975 473 
Q 1284 391 1588 391 
Q 1994 391 2212 530 
Q 2431 669 2431 922 
Q 2431 1156 2273 1281 
Q 2116 1406 1581 1522 
L 1381 1569 
Q 847 1681 609 1914 
Q 372 2147 372 2553 
Q 372 3047 722 3315 
Q 1072 3584 1716 3584 
Q 2034 3584 2315 3537 
Q 2597 3491 2834 3397 
z
" transform="scale(0.015625)"/>
      <path id="DejaVuSans-6d" d="M 3328 2828 
Q 3544 3216 3844 3400 
Q 4144 3584 4550 3584 
Q 5097 3584 5394 3201 
Q 5691 2819 5691 2113 
L 5691 0 
L 5113 0 
L 5113 2094 
Q 5113 2597 4934 2840 
Q 4756 3084 4391 3084 
Q 3944 3084 3684 2787 
Q 3425 2491 3425 1978 
L 3425 0 
L 2847 0 
L 2847 2094 
Q 2847 2600 2669 2842 
Q 2491 3084 2119 3084 
Q 1678 3084 1418 2786 
Q 1159 2488 1159 1978 
L 1159 0 
L 581 0 
L 581 3500 
L 1159 3500 
L 1159 2956 
Q 1356 3278 1631 3431 
Q 1906 3584 2284 3584 
Q 2666 3584 2933 3390 
Q 3200 3197 3328 2828 
z
" transform="scale(0.015625)"/>
      <path id="DejaVuSans-6c" d="M 603 4863 
L 1178 4863 
L 1178 0 
L 603 0 
L 603 4863 
z
" transform="scale(0.015625)"/>
      <path id="DejaVuSans-65" d="M 3597 1894 
L 3597 1613 
L 953 1613 
Q 991 1019 1311 708 
Q 1631 397 2203 397 
Q 2534 397 2845 478 
Q 3156 559 3463 722 
L 3463 178 
Q 3153 47 2828 -22 
Q 2503 -91 2169 -91 
Q 1331 -91 842 396 
Q 353 884 353 1716 
Q 353 2575 817 3079 
Q 1281 3584 2069 3584 
Q 2775 3584 3186 3129 
Q 3597 2675 3597 1894 
z
M 3022 2063 
Q 3016 2534 2758 2815 
Q 2500 3097 2075 3097 
Q 1594 3097 1305 2825 
Q 1016 2553 972 2059 
L 3022 2063 
z
" transform="scale(0.015625)"/>
      <path id="DejaVuSans-64" d="M 2906 2969 
L 2906 4863 
L 3481 4863 
L 3481 0 
L 2906 0 
L 2906 525 
Q 2725 213 2448 61 
Q 2172 -91 1784 -91 
Q 1150 -91 751 415 
Q 353 922 353 1747 
Q 353 2572 751 3078 
Q 1150 3584 1784 3584 
Q 2172 3584 2448 3432 
Q 2725 3281 2906 2969 
z
M 947 1747 
Q 947 1113 1208 752 
Q 1469 391 1925 391 
Q 2381 391 2643 752 
Q 2906 1113 2906 1747 
Q 2906 2381 2643 2742 
Q 2381 3103 1925 3103 
Q 1469 3103 1208 2742 
Q 947 2381 947 1747 
z
" transform="scale(0.015625)"/>
      <path id="DejaVuSans-66" d="M 2375 4863 
L 2375 4384 
L 1825 4384 
Q 1516 4384 1395 4259 
Q 1275 4134 1275 3809 
L 1275 3500 
L 2222 3500 
L 2222 3053 
L 1275 3053 
L 1275 0 
L 697 0 
L 697 3053 
L 147 3053 
L 147 3500 
L 697 3500 
L 697 3744 
Q 697 4328 969 4595 
Q 1241 4863 1831 4863 
L 2375 4863 
z
" transform="scale(0.015625)"/>
      <path id="DejaVuSans-72" d="M 2631 2963 
Q 2534 3019 2420 3045 
Q 2306 3072 2169 3072 
Q 1681 3072 1420 2755 
Q 1159 2438 1159 1844 
L 1159 0 
L 581 0 
L 581 3500 
L 1159 3500 
L 1159 2956 
Q 1341 3275 1631 3429 
Q 1922 3584 2338 3584 
Q 2397 3584 2469 3576 
Q 2541 3569 2628 3553 
L 2631 2963 
z
" transform="scale(0.015625)"/>
      <path id="DejaVuSans-47" d="M 3809 666 
L 3809 1919 
L 2778 1919 
L 2778 2438 
L 4434 2438 
L 4434 434 
Q 4069 175 3628 42 
Q 3188 -91 2688 -91 
Q 1594 -91 976 548 
Q 359 1188 359 2328 
Q 359 3472 976 4111 
Q 1594 4750 2688 4750 
Q 3144 4750 3555 4637 
Q 3966 4525 4313 4306 
L 4313 3634 
Q 3963 3931 3569 4081 
Q 3175 4231 2741 4231 
Q 1884 4231 1454 3753 
Q 1025 3275 1025 2328 
Q 1025 1384 1454 906 
Q 1884 428 2741 428 
Q 3075 428 3337 486 
Q 3600 544 3809 666 
z
" transform="scale(0.015625)"/>
      <path id="DejaVuSans-75" d="M 544 1381 
L 544 3500 
L 1119 3500 
L 1119 1403 
Q 1119 906 1312 657 
Q 1506 409 1894 409 
Q 2359 409 2629 706 
Q 2900 1003 2900 1516 
L 2900 3500 
L 3475 3500 
L 3475 0 
L 2900 0 
L 2900 538 
Q 2691 219 2414 64 
Q 2138 -91 1772 -91 
Q 1169 -91 856 284 
Q 544 659 544 1381 
z
M 1991 3584 
L 1991 3584 
z
" transform="scale(0.015625)"/>
     </defs>
     <use xlink:href="#DejaVuSans-45"/>
     <use xlink:href="#DejaVuSans-61" transform="translate(63.183594 0)"/>
     <use xlink:href="#DejaVuSans-63" transform="translate(124.462891 0)"/>
     <use xlink:href="#DejaVuSans-68" transform="translate(179.443359 0)"/>
     <use xlink:href="#DejaVuSans-20" transform="translate(242.822266 0)"/>
     <use xlink:href="#DejaVuSans-70" transform="translate(274.609375 0)"/>
     <use xlink:href="#DejaVuSans-6f" transform="translate(338.085938 0)"/>
     <use xlink:href="#DejaVuSans-69" transform="translate(399.267578 0)"/>
     <use xlink:href="#DejaVuSans-6e" transform="translate(427.050781 0)"/>
     <use xlink:href="#DejaVuSans-74" transform="translate(490.429688 0)"/>
     <use xlink:href="#DejaVuSans-20" transform="translate(529.638672 0)"/>
     <use xlink:href="#DejaVuSans-69" transform="translate(561.425781 0)"/>
     <use xlink:href="#DejaVuSans-73" transform="translate(589.208984 0)"/>
     <use xlink:href="#DejaVuSans-20" transform="translate(641.308594 0)"/>
     <use xlink:href="#DejaVuSans-73" transform="translate(673.095703 0)"/>
     <use xlink:href="#DejaVuSans-61" transform="translate(725.195312 0)"/>
     <use xlink:href="#DejaVuSans-6d" transform="translate(786.474609 0)"/>
     <use xlink:href="#DejaVuSans-70" transform="translate(883.886719 0)"/>
     <use xlink:href="#DejaVuSans-6c" transform="translate(947.363281 0)"/>
     <use xlink:href="#DejaVuSans-65" transform="translate(975.146484 0)"/>
     <use xlink:href="#DejaVuSans-64" transform="translate(1036.669922 0)"/>
     <use xlink:href="#DejaVuSans-20" transform="translate(1100.146484 0)"/>
     <use xlink:href="#DejaVuSans-66" transform="translate(1131.933594 0)"/>
     <use xlink:href="#DejaVuSans-72" transform="translate(1167.138672 0)"/>
     <use xlink:href="#DejaVuSans-6f" transform="translate(1206.001953 0)"/>
     <use xlink:href="#DejaVuSans-6d" transform="translate(1267.183594 0)"/>
     <use xlink:href="#DejaVuSans-20" transform="translate(1364.595703 0)"/>
     <use xlink:href="#DejaVuSans-61" transform="translate(1396.382812 0)"/>
     <use xlink:href="#DejaVuSans-20" transform="translate(1457.662109 0)"/>
     <use xlink:href="#DejaVuSans-47" transform="translate(1489.449219 0)"/>
     <use xlink:href="#DejaVuSans-61" transform="translate(1566.939453 0)"/>
     <use xlink:href="#DejaVuSans-75" transform="translate(1628.21875 0)"/>
     <use xlink:href="#DejaVuSans-73" transform="translate(1691.597656 0)"/>
     <use xlink:href="#DejaVuSans-73" transform="translate(1743.697266 0)"/>
     <use xlink:href="#DejaVuSans-69" transform="translate(1795.796875 0)"/>
     <use xlink:href="#DejaVuSans-61" transform="translate(1823.580078 0)"/>
     <use xlink:href="#DejaVuSans-6e" transform="translate(1884.859375 0)"/>
     <use xlink:href="#DejaVuSans-20" transform="translate(1948.238281 0)"/>
     <use xlink:href="#DejaVuSans-63" transform="translate(1980.025391 0)"/>
     <use xlink:href="#DejaVuSans-65" transform="translate(2035.005859 0)"/>
     <use xlink:href="#DejaVuSans-6e" transform="translate(2096.529297 0)"/>
     <use xlink:href="#DejaVuSans-74" transform="translate(2159.908203 0)"/>
     <use xlink:href="#DejaVuSans-65" transform="translate(2199.117188 0)"/>
     <use xlink:href="#DejaVuSans-72" transform="translate(2260.640625 0)"/>
     <use xlink:href="#DejaVuSans-65" transform="translate(2299.503906 0)"/>
     <use xlink:href="#DejaVuSans-64" transform="translate(2361.027344 0)"/>
     <use xlink:href="#DejaVuSans-20" transform="translate(2424.503906 0)"/>
     <use xlink:href="#DejaVuSans-6f" transform="translate(2456.291016 0)"/>
     <use xlink:href="#DejaVuSans-6e" transform="translate(2517.472656 0)"/>
     <use xlink:href="#DejaVuSans-20" transform="translate(2580.851562 0)"/>
     <use xlink:href="#DejaVuSans-74" transform="translate(2612.638672 0)"/>
     <use xlink:href="#DejaVuSans-68" transform="translate(2651.847656 0)"/>
     <use xlink:href="#DejaVuSans-65" transform="translate(2715.226562 0)"/>
     <use xlink:href="#DejaVuSans-20" transform="translate(2776.75 0)"/>
     <use xlink:href="#DejaVuSans-6c" transform="translate(2808.537109 0)"/>
     <use xlink:href="#DejaVuSans-69" transform="translate(2836.320312 0)"/>
     <use xlink:href="#DejaVuSans-6e" transform="translate(2864.103516 0)"/>
     <use xlink:href="#DejaVuSans-65" transform="translate(2927.482422 0)"/>
    </g>
   </g>
   <g id="PathCollection_1">
    <defs>
     <path id="me1df2d2311" d="M 0 2.738613 
C 0.726289 2.738613 1.422928 2.450055 1.936492 1.936492 
C 2.450055 1.422928 2.738613 0.726289 2.738613 0 
C 2.738613 -0.726289 2.450055 -1.422928 1.936492 -1.936492 
C 1.422928 -2.450055 0.726289 -2.738613 0 -2.738613 
C -0.726289 -2.738613 -1.422928 -2.450055 -1.936492 -1.936492 
C -2.450055 -1.422928 -2.738613 -0.726289 -2.738613 0 
C -2.738613 0.726289 -2.450055 1.422928 -1.936492 1.936492 
C -1.422928 2.450055 -0.726289 2.738613 0 2.738613 
z
" style="stroke: #4682b4"/>
    </defs>
    <g clip-path="url(#p37df7d110b)">
     <use xlink:href="#me1df2d2311" x="141.22625" y="275.309034" style="fill: #4682b4; stroke: #4682b4"/>
    </g>
   </g>
   <g id="PathCollection_2">
    <g clip-path="url(#p37df7d110b)">
     <use xlink:href="#me1df2d2311" x="260.08875" y="230.66358" style="fill: #4682b4; stroke: #4682b4"/>
    </g>
   </g>
   <g id="PathCollection_3">
    <g clip-path="url(#p37df7d110b)">
     <use xlink:href="#me1df2d2311" x="378.95125" y="186.018125" style="fill: #4682b4; stroke: #4682b4"/>
    </g>
   </g>
   <g id="PathCollection_4">
    <g clip-path="url(#p37df7d110b)">
     <use xlink:href="#me1df2d2311" x="497.81375" y="141.37267" style="fill: #4682b4; stroke: #4682b4"/>
    </g>
   </g>
   <g id="PathCollection_5">
    <g clip-path="url(#p37df7d110b)">
     <use xlink:href="#me1df2d2311" x="616.67625" y="96.727216" style="fill: #4682b4; stroke: #4682b4"/>
    </g>
   </g>
   <g id="legend_1">
    <g id="patch_7">
     <path d="M 59.779375 47.288125 
L 199.039375 47.288125 
Q 201.239375 47.288125 201.239375 45.088125 
L 201.239375 30.018125 
Q 201.239375 27.818125 199.039375 27.818125 
L 59.779375 27.818125 
Q 57.579375 27.818125 57.579375 30.018125 
L 57.579375 45.088125 
Q 57.579375 47.288125 59.779375 47.288125 
z
" style="fill: #ffffff; opacity: 0.8; stroke: #cccccc; stroke-linejoin: miter"/>
    </g>
    <g id="line2d_42">
     <path d="M 61.979375 36.728125 
L 72.979375 36.728125 
L 83.979375 36.728125 
" style="fill: none; stroke: #4682b4; stroke-width: 2.5; stroke-linecap: square"/>
    </g>
    <g id="text_19">
     <!-- $y = mx + b$ (model) -->
     <g transform="translate(92.779375 40.578125) scale(0.11 -0.11)">
      <defs>
       <path id="DejaVuSans-Oblique-79" d="M 1588 -325 
Q 1188 -997 936 -1164 
Q 684 -1331 294 -1331 
L -159 -1331 
L -63 -850 
L 269 -850 
Q 509 -850 678 -719 
Q 847 -588 1056 -206 
L 1234 128 
L 459 3500 
L 1069 3500 
L 1650 819 
L 3256 3500 
L 3859 3500 
L 1588 -325 
z
" transform="scale(0.015625)"/>
       <path id="DejaVuSans-3d" d="M 678 2906 
L 4684 2906 
L 4684 2381 
L 678 2381 
L 678 2906 
z
M 678 1631 
L 4684 1631 
L 4684 1100 
L 678 1100 
L 678 1631 
z
" transform="scale(0.015625)"/>
       <path id="DejaVuSans-Oblique-6d" d="M 5747 2113 
L 5338 0 
L 4763 0 
L 5166 2094 
Q 5191 2228 5203 2325 
Q 5216 2422 5216 2491 
Q 5216 2772 5059 2928 
Q 4903 3084 4622 3084 
Q 4203 3084 3875 2770 
Q 3547 2456 3450 1953 
L 3066 0 
L 2491 0 
L 2900 2094 
Q 2925 2209 2937 2307 
Q 2950 2406 2950 2484 
Q 2950 2769 2794 2926 
Q 2638 3084 2363 3084 
Q 1938 3084 1609 2770 
Q 1281 2456 1184 1953 
L 800 0 
L 225 0 
L 909 3500 
L 1484 3500 
L 1375 2956 
Q 1609 3263 1923 3423 
Q 2238 3584 2597 3584 
Q 2978 3584 3223 3384 
Q 3469 3184 3519 2828 
Q 3781 3197 4126 3390 
Q 4472 3584 4856 3584 
Q 5306 3584 5551 3325 
Q 5797 3066 5797 2591 
Q 5797 2488 5784 2364 
Q 5772 2241 5747 2113 
z
" transform="scale(0.015625)"/>
       <path id="DejaVuSans-Oblique-78" d="M 3841 3500 
L 2234 1784 
L 3219 0 
L 2559 0 
L 1819 1388 
L 531 0 
L -166 0 
L 1556 1844 
L 641 3500 
L 1300 3500 
L 1972 2234 
L 3144 3500 
L 3841 3500 
z
" transform="scale(0.015625)"/>
       <path id="DejaVuSans-2b" d="M 2944 4013 
L 2944 2272 
L 4684 2272 
L 4684 1741 
L 2944 1741 
L 2944 0 
L 2419 0 
L 2419 1741 
L 678 1741 
L 678 2272 
L 2419 2272 
L 2419 4013 
L 2944 4013 
z
" transform="scale(0.015625)"/>
       <path id="DejaVuSans-Oblique-62" d="M 3169 2138 
Q 3169 2591 2961 2847 
Q 2753 3103 2388 3103 
Q 2122 3103 1889 2973 
Q 1656 2844 1484 2597 
Q 1303 2338 1198 1995 
Q 1094 1653 1094 1313 
Q 1094 881 1298 636 
Q 1503 391 1863 391 
Q 2134 391 2365 517 
Q 2597 644 2772 891 
Q 2950 1147 3059 1487 
Q 3169 1828 3169 2138 
z
M 1381 2969 
Q 1594 3256 1914 3420 
Q 2234 3584 2584 3584 
Q 3122 3584 3439 3221 
Q 3756 2859 3756 2241 
Q 3756 1734 3570 1259 
Q 3384 784 3041 416 
Q 2816 172 2522 40 
Q 2228 -91 1906 -91 
Q 1566 -91 1316 65 
Q 1066 222 909 531 
L 806 0 
L 231 0 
L 1178 4863 
L 1753 4863 
L 1381 2969 
z
" transform="scale(0.015625)"/>
       <path id="DejaVuSans-28" d="M 1984 4856 
Q 1566 4138 1362 3434 
Q 1159 2731 1159 2009 
Q 1159 1288 1364 580 
Q 1569 -128 1984 -844 
L 1484 -844 
Q 1016 -109 783 600 
Q 550 1309 550 2009 
Q 550 2706 781 3412 
Q 1013 4119 1484 4856 
L 1984 4856 
z
" transform="scale(0.015625)"/>
       <path id="DejaVuSans-29" d="M 513 4856 
L 1013 4856 
Q 1481 4119 1714 3412 
Q 1947 2706 1947 2009 
Q 1947 1309 1714 600 
Q 1481 -109 1013 -844 
L 513 -844 
Q 928 -128 1133 580 
Q 1338 1288 1338 2009 
Q 1338 2731 1133 3434 
Q 928 4138 513 4856 
z
" transform="scale(0.015625)"/>
      </defs>
      <use xlink:href="#DejaVuSans-Oblique-79" transform="translate(0 0.015625)"/>
      <use xlink:href="#DejaVuSans-3d" transform="translate(78.662109 0.015625)"/>
      <use xlink:href="#DejaVuSans-Oblique-6d" transform="translate(181.933594 0.015625)"/>
      <use xlink:href="#DejaVuSans-Oblique-78" transform="translate(279.345703 0.015625)"/>
      <use xlink:href="#DejaVuSans-2b" transform="translate(358.007812 0.015625)"/>
      <use xlink:href="#DejaVuSans-Oblique-62" transform="translate(461.279297 0.015625)"/>
      <use xlink:href="#DejaVuSans-20" transform="translate(524.755859 0.015625)"/>
      <use xlink:href="#DejaVuSans-28" transform="translate(556.542969 0.015625)"/>
      <use xlink:href="#DejaVuSans-6d" transform="translate(595.556641 0.015625)"/>
      <use xlink:href="#DejaVuSans-6f" transform="translate(692.96875 0.015625)"/>
      <use xlink:href="#DejaVuSans-64" transform="translate(754.150391 0.015625)"/>
      <use xlink:href="#DejaVuSans-65" transform="translate(817.626953 0.015625)"/>
      <use xlink:href="#DejaVuSans-6c" transform="translate(879.150391 0.015625)"/>
      <use xlink:href="#DejaVuSans-29" transform="translate(906.933594 0.015625)"/>
     </g>
    </g>
   </g>
   <g id="PathCollection_6">
    <defs>
     <path id="m5f9ad63bd2" d="M 0 3.872983 
C 1.027127 3.872983 2.012324 3.464901 2.738613 2.738613 
C 3.464901 2.012324 3.872983 1.027127 3.872983 0 
C 3.872983 -1.027127 3.464901 -2.012324 2.738613 -2.738613 
C 2.012324 -3.464901 1.027127 -3.872983 0 -3.872983 
C -1.027127 -3.872983 -2.012324 -3.464901 -2.738613 -2.738613 
C -3.464901 -2.012324 -3.872983 -1.027127 -3.872983 0 
C -3.872983 1.027127 -3.464901 2.012324 -2.738613 2.738613 
C -2.012324 3.464901 -1.027127 3.872983 0 3.872983 
z
" style="stroke: #ffffff"/>
    </defs>
    <g clip-path="url(#p37df7d110b)">
     <use xlink:href="#m5f9ad63bd2" x="141.22625" y="264.22102" style="fill: #cc0000; stroke: #ffffff"/>
    </g>
   </g>
   <g id="PathCollection_7">
    <g clip-path="url(#p37df7d110b)">
     <use xlink:href="#m5f9ad63bd2" x="260.08875" y="233.750016" style="fill: #cc0000; stroke: #ffffff"/>
    </g>
   </g>
   <g id="PathCollection_8">
    <g clip-path="url(#p37df7d110b)">
     <use xlink:href="#m5f9ad63bd2" x="378.95125" y="171.55995" style="fill: #cc0000; stroke: #ffffff"/>
    </g>
   </g>
   <g id="PathCollection_9">
    <g clip-path="url(#p37df7d110b)">
     <use xlink:href="#m5f9ad63bd2" x="497.81375" y="107.37449" style="fill: #cc0000; stroke: #ffffff"/>
    </g>
   </g>
   <g id="PathCollection_10">
    <g clip-path="url(#p37df7d110b)">
     <use xlink:href="#m5f9ad63bd2" x="616.67625" y="101.954158" style="fill: #cc0000; stroke: #ffffff"/>
    </g>
   </g>
  </g>
 </g>
 <defs>
  <clipPath id="p37df7d110b">
   <rect x="52.079375" y="22.318125" width="653.74375" height="327.4"/>
  </clipPath>
 </defs>
</svg>
