<?xml version="1.0" encoding="utf-8" standalone="no"?>
<!DOCTYPE svg PUBLIC "-//W3C//DTD SVG 1.1//EN"
  "http://www.w3.org/Graphics/SVG/1.1/DTD/svg11.dtd">
<svg xmlns:xlink="http://www.w3.org/1999/xlink" width="585.314789pt" height="195.6985pt" viewBox="0 0 585.314789 195.6985" xmlns="http://www.w3.org/2000/svg" version="1.1">
 <metadata>
  <rdf:RDF xmlns:dc="http://purl.org/dc/elements/1.1/" xmlns:cc="http://creativecommons.org/ns#" xmlns:rdf="http://www.w3.org/1999/02/22-rdf-syntax-ns#">
   <cc:Work>
    <dc:type rdf:resource="http://purl.org/dc/dcmitype/StillImage"/>
    <dc:date>2026-07-23T11:02:31.790264</dc:date>
    <dc:format>image/svg+xml</dc:format>
    <dc:creator>
     <cc:Agent>
      <dc:title>Matplotlib v3.10.8, https://matplotlib.org/</dc:title>
     </cc:Agent>
    </dc:creator>
   </cc:Work>
  </rdf:RDF>
 </metadata>
 <defs>
  <style type="text/css">*{stroke-linejoin: round; stroke-linecap: butt}</style>
 </defs>
 <g id="figure_1">
  <g id="patch_1">
   <path d="M 0 195.6985 
L 585.314789 195.6985 
L 585.314789 0 
L 0 0 
z
" style="fill: #ffffff"/>
  </g>
  <g id="axes_1">
   <g id="patch_2">
    <path d="M 22.49375 177.256 
L 194.964789 177.256 
L 194.964789 36.756 
L 22.49375 36.756 
z
" style="fill: #ffffff"/>
   </g>
   <g id="matplotlib.axis_1">
    <g id="xtick_1">
     <g id="line2d_1"/>
     <g id="text_1">
      <!-- −4 -->
      <g transform="translate(40.115653 186.83475) scale(0.08 -0.08)">
       <defs>
        <path id="DejaVuSans-2212" d="M 678 2272 
L 4684 2272 
L 4684 1741 
L 678 1741 
L 678 2272 
z
" transform="scale(0.015625)"/>
        <path id="DejaVuSans-34" d="M 2419 4116 
L 825 1625 
L 2419 1625 
L 2419 4116 
z
M 2253 4666 
L 3047 4666 
L 3047 1625 
L 3713 1625 
L 3713 1100 
L 3047 1100 
L 3047 0 
L 2419 0 
L 2419 1100 
L 313 1100 
L 313 1709 
L 2253 4666 
z
" transform="scale(0.015625)"/>
       </defs>
       <use xlink:href="#DejaVuSans-2212"/>
       <use xlink:href="#DejaVuSans-34" transform="translate(83.789062 0)"/>
      </g>
     </g>
    </g>
    <g id="xtick_2">
     <g id="line2d_2"/>
     <g id="text_2">
      <!-- −2 -->
      <g transform="translate(71.474024 186.83475) scale(0.08 -0.08)">
       <defs>
        <path id="DejaVuSans-32" d="M 1228 531 
L 3431 531 
L 3431 0 
L 469 0 
L 469 531 
Q 828 903 1448 1529 
Q 2069 2156 2228 2338 
Q 2531 2678 2651 2914 
Q 2772 3150 2772 3378 
Q 2772 3750 2511 3984 
Q 2250 4219 1831 4219 
Q 1534 4219 1204 4116 
Q 875 4013 500 3803 
L 500 4441 
Q 881 4594 1212 4672 
Q 1544 4750 1819 4750 
Q 2544 4750 2975 4387 
Q 3406 4025 3406 3419 
Q 3406 3131 3298 2873 
Q 3191 2616 2906 2266 
Q 2828 2175 2409 1742 
Q 1991 1309 1228 531 
z
" transform="scale(0.015625)"/>
       </defs>
       <use xlink:href="#DejaVuSans-2212"/>
       <use xlink:href="#DejaVuSans-32" transform="translate(83.789062 0)"/>
      </g>
     </g>
    </g>
    <g id="xtick_3">
     <g id="line2d_3"/>
     <g id="text_3">
      <!-- 0 -->
      <g transform="translate(106.18427 186.83475) scale(0.08 -0.08)">
       <defs>
        <path id="DejaVuSans-30" d="M 2034 4250 
Q 1547 4250 1301 3770 
Q 1056 3291 1056 2328 
Q 1056 1369 1301 889 
Q 1547 409 2034 409 
Q 2525 409 2770 889 
Q 3016 1369 3016 2328 
Q 3016 3291 2770 3770 
Q 2525 4250 2034 4250 
z
M 2034 4750 
Q 2819 4750 3233 4129 
Q 3647 3509 3647 2328 
Q 3647 1150 3233 529 
Q 2819 -91 2034 -91 
Q 1250 -91 836 529 
Q 422 1150 422 2328 
Q 422 3509 836 4129 
Q 1250 4750 2034 4750 
z
" transform="scale(0.015625)"/>
       </defs>
       <use xlink:href="#DejaVuSans-30"/>
      </g>
     </g>
    </g>
    <g id="xtick_4">
     <g id="line2d_4"/>
     <g id="text_4">
      <!-- 2 -->
      <g transform="translate(137.542641 186.83475) scale(0.08 -0.08)">
       <use xlink:href="#DejaVuSans-32"/>
      </g>
     </g>
    </g>
    <g id="xtick_5">
     <g id="line2d_5"/>
     <g id="text_5">
      <!-- 4 -->
      <g transform="translate(168.901011 186.83475) scale(0.08 -0.08)">
       <use xlink:href="#DejaVuSans-34"/>
      </g>
     </g>
    </g>
   </g>
   <g id="matplotlib.axis_2">
    <g id="ytick_1">
     <g id="line2d_6"/>
     <g id="text_6">
      <!-- −4 -->
      <g transform="translate(7.2 161.136284) scale(0.08 -0.08)">
       <use xlink:href="#DejaVuSans-2212"/>
       <use xlink:href="#DejaVuSans-34" transform="translate(83.789062 0)"/>
      </g>
     </g>
    </g>
    <g id="ytick_2">
     <g id="line2d_7"/>
     <g id="text_7">
      <!-- −2 -->
      <g transform="translate(7.2 135.59083) scale(0.08 -0.08)">
       <use xlink:href="#DejaVuSans-2212"/>
       <use xlink:href="#DejaVuSans-32" transform="translate(83.789062 0)"/>
      </g>
     </g>
    </g>
    <g id="ytick_3">
     <g id="line2d_8"/>
     <g id="text_8">
      <!-- 0 -->
      <g transform="translate(13.90375 110.045375) scale(0.08 -0.08)">
       <use xlink:href="#DejaVuSans-30"/>
      </g>
     </g>
    </g>
    <g id="ytick_4">
     <g id="line2d_9"/>
     <g id="text_9">
      <!-- 2 -->
      <g transform="translate(13.90375 84.49992) scale(0.08 -0.08)">
       <use xlink:href="#DejaVuSans-32"/>
      </g>
     </g>
    </g>
    <g id="ytick_5">
     <g id="line2d_10"/>
     <g id="text_10">
      <!-- 4 -->
      <g transform="translate(13.90375 58.954466) scale(0.08 -0.08)">
       <use xlink:href="#DejaVuSans-34"/>
      </g>
     </g>
    </g>
   </g>
   <g id="line2d_11">
    <path d="M 30.333343 170.869636 
L 31.917099 169.579462 
L 33.500855 168.289287 
L 35.084611 166.999113 
L 36.668367 165.708938 
L 38.252123 164.418764 
L 39.835879 163.12859 
L 41.419635 161.838415 
L 43.003392 160.548241 
L 44.587148 159.258066 
L 46.170904 157.967892 
L 47.75466 156.677717 
L 49.338416 155.387543 
L 50.922172 154.097368 
L 52.505928 152.807194 
L 54.089684 151.517019 
L 55.67344 150.226845 
L 57.257196 148.93667 
L 58.840953 147.646496 
L 60.424709 146.356321 
L 62.008465 145.066147 
L 63.592221 143.775972 
L 65.175977 142.485798 
L 66.759733 141.195624 
L 68.343489 139.905449 
L 69.927245 138.615275 
L 71.511001 137.3251 
L 73.094757 136.034926 
L 74.678514 134.744751 
L 76.26227 133.454577 
L 77.846026 132.164402 
L 79.429782 130.874228 
L 81.013538 129.584053 
L 82.597294 128.293879 
L 84.18105 127.003704 
L 85.764806 125.71353 
L 87.348562 124.423355 
L 88.932318 123.133181 
L 90.516075 121.843006 
L 92.099831 120.552832 
L 93.683587 119.262657 
L 95.267343 117.972483 
L 96.851099 116.682309 
L 98.434855 115.392134 
L 100.018611 114.10196 
L 101.602367 112.811785 
L 103.186123 111.521611 
L 104.769879 110.231436 
L 106.353636 108.941262 
L 107.937392 107.651087 
L 109.521148 106.360913 
L 111.104904 105.070738 
L 112.68866 103.780564 
L 114.272416 102.490389 
L 115.856172 101.200215 
L 117.439928 99.91004 
L 119.023684 98.619866 
L 120.60744 97.329691 
L 122.191197 96.039517 
L 123.774953 94.749343 
L 125.358709 93.459168 
L 126.942465 92.168994 
L 128.526221 90.878819 
L 130.109977 89.588645 
L 131.693733 88.29847 
L 133.277489 87.008296 
L 134.861245 85.718121 
L 136.445001 84.427947 
L 138.028758 83.137772 
L 139.612514 81.847598 
L 141.19627 80.557423 
L 142.780026 79.267249 
L 144.363782 77.977074 
L 145.947538 76.6869 
L 147.531294 75.396725 
L 149.11505 74.106551 
L 150.698806 72.816376 
L 152.282563 71.526202 
L 153.866319 70.236028 
L 155.450075 68.945853 
L 157.033831 67.655679 
L 158.617587 66.365504 
L 160.201343 65.07533 
L 161.785099 63.785155 
L 163.368855 62.494981 
L 164.952611 61.204806 
L 166.536367 59.914632 
L 168.120124 58.624457 
L 169.70388 57.334283 
L 171.287636 56.044108 
L 172.871392 54.753934 
L 174.455148 53.463759 
L 176.038904 52.173585 
L 177.62266 50.88341 
L 179.206416 49.593236 
L 180.790172 48.303062 
L 182.373928 47.012887 
L 183.957685 45.722713 
L 185.541441 44.432538 
L 187.125197 43.142364 
" clip-path="url(#p07fc8b6107)" style="fill: none; stroke: #0096ff; stroke-width: 4"/>
   </g>
   <g id="line2d_12">
    <path d="M 108.72927 177.256 
L 108.72927 36.756 
" clip-path="url(#p07fc8b6107)" style="fill: none; stroke: #000000; stroke-width: 0.3"/>
   </g>
   <g id="line2d_13">
    <path d="M 22.49375 107.006 
L 194.964789 107.006 
" clip-path="url(#p07fc8b6107)" style="fill: none; stroke: #000000; stroke-width: 0.3"/>
   </g>
   <g id="patch_3">
    <path d="M 22.49375 177.256 
L 22.49375 36.756 
" style="fill: none; stroke: #f0f0f0; stroke-width: 3; stroke-linejoin: miter; stroke-linecap: square"/>
   </g>
   <g id="patch_4">
    <path d="M 194.964789 177.256 
L 194.964789 36.756 
" style="fill: none; stroke: #f0f0f0; stroke-width: 3; stroke-linejoin: miter; stroke-linecap: square"/>
   </g>
   <g id="patch_5">
    <path d="M 22.49375 177.256 
L 194.964789 177.256 
" style="fill: none; stroke: #f0f0f0; stroke-width: 3; stroke-linejoin: miter; stroke-linecap: square"/>
   </g>
   <g id="patch_6">
    <path d="M 22.49375 36.756 
L 194.964789 36.756 
" style="fill: none; stroke: #f0f0f0; stroke-width: 3; stroke-linejoin: miter; stroke-linecap: square"/>
   </g>
   <g id="text_11">
    <!-- Linear -->
    <g transform="translate(90.82737 30.756) scale(0.1152 -0.1152)">
     <defs>
      <path id="DejaVuSans-4c" d="M 628 4666 
L 1259 4666 
L 1259 531 
L 3531 531 
L 3531 0 
L 628 0 
L 628 4666 
z
" transform="scale(0.015625)"/>
      <path id="DejaVuSans-69" d="M 603 3500 
L 1178 3500 
L 1178 0 
L 603 0 
L 603 3500 
z
M 603 4863 
L 1178 4863 
L 1178 4134 
L 603 4134 
L 603 4863 
z
" transform="scale(0.015625)"/>
      <path id="DejaVuSans-6e" d="M 3513 2113 
L 3513 0 
L 2938 0 
L 2938 2094 
Q 2938 2591 2744 2837 
Q 2550 3084 2163 3084 
Q 1697 3084 1428 2787 
Q 1159 2491 1159 1978 
L 1159 0 
L 581 0 
L 581 3500 
L 1159 3500 
L 1159 2956 
Q 1366 3272 1645 3428 
Q 1925 3584 2291 3584 
Q 2894 3584 3203 3211 
Q 3513 2838 3513 2113 
z
" transform="scale(0.015625)"/>
      <path id="DejaVuSans-65" d="M 3597 1894 
L 3597 1613 
L 953 1613 
Q 991 1019 1311 708 
Q 1631 397 2203 397 
Q 2534 397 2845 478 
Q 3156 559 3463 722 
L 3463 178 
Q 3153 47 2828 -22 
Q 2503 -91 2169 -91 
Q 1331 -91 842 396 
Q 353 884 353 1716 
Q 353 2575 817 3079 
Q 1281 3584 2069 3584 
Q 2775 3584 3186 3129 
Q 3597 2675 3597 1894 
z
M 3022 2063 
Q 3016 2534 2758 2815 
Q 2500 3097 2075 3097 
Q 1594 3097 1305 2825 
Q 1016 2553 972 2059 
L 3022 2063 
z
" transform="scale(0.015625)"/>
      <path id="DejaVuSans-61" d="M 2194 1759 
Q 1497 1759 1228 1600 
Q 959 1441 959 1056 
Q 959 750 1161 570 
Q 1363 391 1709 391 
Q 2188 391 2477 730 
Q 2766 1069 2766 1631 
L 2766 1759 
L 2194 1759 
z
M 3341 1997 
L 3341 0 
L 2766 0 
L 2766 531 
Q 2569 213 2275 61 
Q 1981 -91 1556 -91 
Q 1019 -91 701 211 
Q 384 513 384 1019 
Q 384 1609 779 1909 
Q 1175 2209 1959 2209 
L 2766 2209 
L 2766 2266 
Q 2766 2663 2505 2880 
Q 2244 3097 1772 3097 
Q 1472 3097 1187 3025 
Q 903 2953 641 2809 
L 641 3341 
Q 956 3463 1253 3523 
Q 1550 3584 1831 3584 
Q 2591 3584 2966 3190 
Q 3341 2797 3341 1997 
z
" transform="scale(0.015625)"/>
      <path id="DejaVuSans-72" d="M 2631 2963 
Q 2534 3019 2420 3045 
Q 2306 3072 2169 3072 
Q 1681 3072 1420 2755 
Q 1159 2438 1159 1844 
L 1159 0 
L 581 0 
L 581 3500 
L 1159 3500 
L 1159 2956 
Q 1341 3275 1631 3429 
Q 1922 3584 2338 3584 
Q 2397 3584 2469 3576 
Q 2541 3569 2628 3553 
L 2631 2963 
z
" transform="scale(0.015625)"/>
     </defs>
     <use xlink:href="#DejaVuSans-4c"/>
     <use xlink:href="#DejaVuSans-69" transform="translate(55.712891 0)"/>
     <use xlink:href="#DejaVuSans-6e" transform="translate(83.496094 0)"/>
     <use xlink:href="#DejaVuSans-65" transform="translate(146.875 0)"/>
     <use xlink:href="#DejaVuSans-61" transform="translate(208.398438 0)"/>
     <use xlink:href="#DejaVuSans-72" transform="translate(269.677734 0)"/>
    </g>
   </g>
  </g>
  <g id="axes_2">
   <g id="patch_7">
    <path d="M 214.06875 177.256 
L 386.539789 177.256 
L 386.539789 36.756 
L 214.06875 36.756 
z
" style="fill: #ffffff"/>
   </g>
   <g id="matplotlib.axis_3">
    <g id="xtick_6">
     <g id="line2d_14"/>
     <g id="text_12">
      <!-- −4 -->
      <g transform="translate(231.690653 186.83475) scale(0.08 -0.08)">
       <use xlink:href="#DejaVuSans-2212"/>
       <use xlink:href="#DejaVuSans-34" transform="translate(83.789062 0)"/>
      </g>
     </g>
    </g>
    <g id="xtick_7">
     <g id="line2d_15"/>
     <g id="text_13">
      <!-- −2 -->
      <g transform="translate(263.049024 186.83475) scale(0.08 -0.08)">
       <use xlink:href="#DejaVuSans-2212"/>
       <use xlink:href="#DejaVuSans-32" transform="translate(83.789062 0)"/>
      </g>
     </g>
    </g>
    <g id="xtick_8">
     <g id="line2d_16"/>
     <g id="text_14">
      <!-- 0 -->
      <g transform="translate(297.75927 186.83475) scale(0.08 -0.08)">
       <use xlink:href="#DejaVuSans-30"/>
      </g>
     </g>
    </g>
    <g id="xtick_9">
     <g id="line2d_17"/>
     <g id="text_15">
      <!-- 2 -->
      <g transform="translate(329.117641 186.83475) scale(0.08 -0.08)">
       <use xlink:href="#DejaVuSans-32"/>
      </g>
     </g>
    </g>
    <g id="xtick_10">
     <g id="line2d_18"/>
     <g id="text_16">
      <!-- 4 -->
      <g transform="translate(360.476011 186.83475) scale(0.08 -0.08)">
       <use xlink:href="#DejaVuSans-34"/>
      </g>
     </g>
    </g>
   </g>
   <g id="matplotlib.axis_4">
    <g id="ytick_6">
     <g id="line2d_19"/>
     <g id="text_17">
      <!-- 0.0 -->
      <g transform="translate(197.84625 174.775469) scale(0.08 -0.08)">
       <defs>
        <path id="DejaVuSans-2e" d="M 684 794 
L 1344 794 
L 1344 0 
L 684 0 
L 684 794 
z
" transform="scale(0.015625)"/>
       </defs>
       <use xlink:href="#DejaVuSans-30"/>
       <use xlink:href="#DejaVuSans-2e" transform="translate(63.623047 0)"/>
       <use xlink:href="#DejaVuSans-30" transform="translate(95.410156 0)"/>
      </g>
     </g>
    </g>
    <g id="ytick_7">
     <g id="line2d_20"/>
     <g id="text_18">
      <!-- 0.2 -->
      <g transform="translate(197.84625 148.883431) scale(0.08 -0.08)">
       <use xlink:href="#DejaVuSans-30"/>
       <use xlink:href="#DejaVuSans-2e" transform="translate(63.623047 0)"/>
       <use xlink:href="#DejaVuSans-32" transform="translate(95.410156 0)"/>
      </g>
     </g>
    </g>
    <g id="ytick_8">
     <g id="line2d_21"/>
     <g id="text_19">
      <!-- 0.4 -->
      <g transform="translate(197.84625 122.991394) scale(0.08 -0.08)">
       <use xlink:href="#DejaVuSans-30"/>
       <use xlink:href="#DejaVuSans-2e" transform="translate(63.623047 0)"/>
       <use xlink:href="#DejaVuSans-34" transform="translate(95.410156 0)"/>
      </g>
     </g>
    </g>
    <g id="ytick_9">
     <g id="line2d_22"/>
     <g id="text_20">
      <!-- 0.6 -->
      <g transform="translate(197.84625 97.099356) scale(0.08 -0.08)">
       <defs>
        <path id="DejaVuSans-36" d="M 2113 2584 
Q 1688 2584 1439 2293 
Q 1191 2003 1191 1497 
Q 1191 994 1439 701 
Q 1688 409 2113 409 
Q 2538 409 2786 701 
Q 3034 994 3034 1497 
Q 3034 2003 2786 2293 
Q 2538 2584 2113 2584 
z
M 3366 4563 
L 3366 3988 
Q 3128 4100 2886 4159 
Q 2644 4219 2406 4219 
Q 1781 4219 1451 3797 
Q 1122 3375 1075 2522 
Q 1259 2794 1537 2939 
Q 1816 3084 2150 3084 
Q 2853 3084 3261 2657 
Q 3669 2231 3669 1497 
Q 3669 778 3244 343 
Q 2819 -91 2113 -91 
Q 1303 -91 875 529 
Q 447 1150 447 2328 
Q 447 3434 972 4092 
Q 1497 4750 2381 4750 
Q 2619 4750 2861 4703 
Q 3103 4656 3366 4563 
z
" transform="scale(0.015625)"/>
       </defs>
       <use xlink:href="#DejaVuSans-30"/>
       <use xlink:href="#DejaVuSans-2e" transform="translate(63.623047 0)"/>
       <use xlink:href="#DejaVuSans-36" transform="translate(95.410156 0)"/>
      </g>
     </g>
    </g>
    <g id="ytick_10">
     <g id="line2d_23"/>
     <g id="text_21">
      <!-- 0.8 -->
      <g transform="translate(197.84625 71.207319) scale(0.08 -0.08)">
       <defs>
        <path id="DejaVuSans-38" d="M 2034 2216 
Q 1584 2216 1326 1975 
Q 1069 1734 1069 1313 
Q 1069 891 1326 650 
Q 1584 409 2034 409 
Q 2484 409 2743 651 
Q 3003 894 3003 1313 
Q 3003 1734 2745 1975 
Q 2488 2216 2034 2216 
z
M 1403 2484 
Q 997 2584 770 2862 
Q 544 3141 544 3541 
Q 544 4100 942 4425 
Q 1341 4750 2034 4750 
Q 2731 4750 3128 4425 
Q 3525 4100 3525 3541 
Q 3525 3141 3298 2862 
Q 3072 2584 2669 2484 
Q 3125 2378 3379 2068 
Q 3634 1759 3634 1313 
Q 3634 634 3220 271 
Q 2806 -91 2034 -91 
Q 1263 -91 848 271 
Q 434 634 434 1313 
Q 434 1759 690 2068 
Q 947 2378 1403 2484 
z
M 1172 3481 
Q 1172 3119 1398 2916 
Q 1625 2713 2034 2713 
Q 2441 2713 2670 2916 
Q 2900 3119 2900 3481 
Q 2900 3844 2670 4047 
Q 2441 4250 2034 4250 
Q 1625 4250 1398 4047 
Q 1172 3844 1172 3481 
z
" transform="scale(0.015625)"/>
       </defs>
       <use xlink:href="#DejaVuSans-30"/>
       <use xlink:href="#DejaVuSans-2e" transform="translate(63.623047 0)"/>
       <use xlink:href="#DejaVuSans-38" transform="translate(95.410156 0)"/>
      </g>
     </g>
    </g>
    <g id="ytick_11">
     <g id="line2d_24"/>
     <g id="text_22">
      <!-- 1.0 -->
      <g transform="translate(197.84625 45.315281) scale(0.08 -0.08)">
       <defs>
        <path id="DejaVuSans-31" d="M 794 531 
L 1825 531 
L 1825 4091 
L 703 3866 
L 703 4441 
L 1819 4666 
L 2450 4666 
L 2450 531 
L 3481 531 
L 3481 0 
L 794 0 
L 794 531 
z
" transform="scale(0.015625)"/>
       </defs>
       <use xlink:href="#DejaVuSans-31"/>
       <use xlink:href="#DejaVuSans-2e" transform="translate(63.623047 0)"/>
       <use xlink:href="#DejaVuSans-30" transform="translate(95.410156 0)"/>
      </g>
     </g>
    </g>
   </g>
   <g id="line2d_25">
    <path d="M 221.908343 170.869636 
L 223.492099 170.778224 
L 225.075855 170.677247 
L 226.659611 170.565721 
L 228.243367 170.442568 
L 229.827123 170.3066 
L 231.410879 170.156516 
L 232.994635 169.99089 
L 234.578392 169.808158 
L 236.162148 169.606612 
L 237.745904 169.384386 
L 239.32966 169.139442 
L 240.913416 168.86956 
L 242.497172 168.572328 
L 244.080928 168.245126 
L 245.664684 167.885116 
L 247.24844 167.489231 
L 248.832196 167.054166 
L 250.415953 166.576368 
L 251.999709 166.05203 
L 253.583465 165.477092 
L 255.167221 164.847236 
L 256.750977 164.157896 
L 258.334733 163.404264 
L 259.918489 162.581315 
L 261.502245 161.683828 
L 263.086001 160.706423 
L 264.669757 159.643606 
L 266.253514 158.489831 
L 267.83727 157.239568 
L 269.421026 155.887392 
L 271.004782 154.428078 
L 272.588538 152.856723 
L 274.172294 151.16887 
L 275.75605 149.360653 
L 277.339806 147.428948 
L 278.923562 145.371535 
L 280.507318 143.187258 
L 282.091075 140.876184 
L 283.674831 138.439755 
L 285.258587 135.880917 
L 286.842343 133.204226 
L 288.426099 130.41592 
L 290.009855 127.52395 
L 291.593611 124.537959 
L 293.177367 121.469216 
L 294.761123 118.330482 
L 296.344879 115.135835 
L 297.928636 111.900435 
L 299.512392 108.640251 
L 301.096148 105.371749 
L 302.679904 102.111565 
L 304.26366 98.876165 
L 305.847416 95.681518 
L 307.431172 92.542784 
L 309.014928 89.474041 
L 310.598684 86.48805 
L 312.18244 83.59608 
L 313.766197 80.807774 
L 315.349953 78.131083 
L 316.933709 75.572245 
L 318.517465 73.135816 
L 320.101221 70.824742 
L 321.684977 68.640465 
L 323.268733 66.583052 
L 324.852489 64.651347 
L 326.436245 62.84313 
L 328.020001 61.155277 
L 329.603758 59.583922 
L 331.187514 58.124608 
L 332.77127 56.772432 
L 334.355026 55.522169 
L 335.938782 54.368394 
L 337.522538 53.305577 
L 339.106294 52.328172 
L 340.69005 51.430685 
L 342.273806 50.607736 
L 343.857563 49.854104 
L 345.441319 49.164764 
L 347.025075 48.534908 
L 348.608831 47.95997 
L 350.192587 47.435632 
L 351.776343 46.957834 
L 353.360099 46.522769 
L 354.943855 46.126884 
L 356.527611 45.766874 
L 358.111367 45.439672 
L 359.695124 45.14244 
L 361.27888 44.872558 
L 362.862636 44.627614 
L 364.446392 44.405388 
L 366.030148 44.203842 
L 367.613904 44.02111 
L 369.19766 43.855484 
L 370.781416 43.7054 
L 372.365172 43.569432 
L 373.948928 43.446279 
L 375.532685 43.334753 
L 377.116441 43.233776 
L 378.700197 43.142364 
" clip-path="url(#pd91312e0ce)" style="fill: none; stroke: #0096ff; stroke-width: 4"/>
   </g>
   <g id="line2d_26">
    <path d="M 300.30427 177.256 
L 300.30427 36.756 
" clip-path="url(#pd91312e0ce)" style="fill: none; stroke: #000000; stroke-width: 0.3"/>
   </g>
   <g id="line2d_27">
    <path d="M 214.06875 171.736094 
L 386.539789 171.736094 
" clip-path="url(#pd91312e0ce)" style="fill: none; stroke: #000000; stroke-width: 0.3"/>
   </g>
   <g id="patch_8">
    <path d="M 214.06875 177.256 
L 214.06875 36.756 
" style="fill: none; stroke: #f0f0f0; stroke-width: 3; stroke-linejoin: miter; stroke-linecap: square"/>
   </g>
   <g id="patch_9">
    <path d="M 386.539789 177.256 
L 386.539789 36.756 
" style="fill: none; stroke: #f0f0f0; stroke-width: 3; stroke-linejoin: miter; stroke-linecap: square"/>
   </g>
   <g id="patch_10">
    <path d="M 214.06875 177.256 
L 386.539789 177.256 
" style="fill: none; stroke: #f0f0f0; stroke-width: 3; stroke-linejoin: miter; stroke-linecap: square"/>
   </g>
   <g id="patch_11">
    <path d="M 214.06875 36.756 
L 386.539789 36.756 
" style="fill: none; stroke: #f0f0f0; stroke-width: 3; stroke-linejoin: miter; stroke-linecap: square"/>
   </g>
   <g id="text_23">
    <!-- Sigmoid -->
    <g transform="translate(276.99877 30.756) scale(0.1152 -0.1152)">
     <defs>
      <path id="DejaVuSans-53" d="M 3425 4513 
L 3425 3897 
Q 3066 4069 2747 4153 
Q 2428 4238 2131 4238 
Q 1616 4238 1336 4038 
Q 1056 3838 1056 3469 
Q 1056 3159 1242 3001 
Q 1428 2844 1947 2747 
L 2328 2669 
Q 3034 2534 3370 2195 
Q 3706 1856 3706 1288 
Q 3706 609 3251 259 
Q 2797 -91 1919 -91 
Q 1588 -91 1214 -16 
Q 841 59 441 206 
L 441 856 
Q 825 641 1194 531 
Q 1563 422 1919 422 
Q 2459 422 2753 634 
Q 3047 847 3047 1241 
Q 3047 1584 2836 1778 
Q 2625 1972 2144 2069 
L 1759 2144 
Q 1053 2284 737 2584 
Q 422 2884 422 3419 
Q 422 4038 858 4394 
Q 1294 4750 2059 4750 
Q 2388 4750 2728 4690 
Q 3069 4631 3425 4513 
z
" transform="scale(0.015625)"/>
      <path id="DejaVuSans-67" d="M 2906 1791 
Q 2906 2416 2648 2759 
Q 2391 3103 1925 3103 
Q 1463 3103 1205 2759 
Q 947 2416 947 1791 
Q 947 1169 1205 825 
Q 1463 481 1925 481 
Q 2391 481 2648 825 
Q 2906 1169 2906 1791 
z
M 3481 434 
Q 3481 -459 3084 -895 
Q 2688 -1331 1869 -1331 
Q 1566 -1331 1297 -1286 
Q 1028 -1241 775 -1147 
L 775 -588 
Q 1028 -725 1275 -790 
Q 1522 -856 1778 -856 
Q 2344 -856 2625 -561 
Q 2906 -266 2906 331 
L 2906 616 
Q 2728 306 2450 153 
Q 2172 0 1784 0 
Q 1141 0 747 490 
Q 353 981 353 1791 
Q 353 2603 747 3093 
Q 1141 3584 1784 3584 
Q 2172 3584 2450 3431 
Q 2728 3278 2906 2969 
L 2906 3500 
L 3481 3500 
L 3481 434 
z
" transform="scale(0.015625)"/>
      <path id="DejaVuSans-6d" d="M 3328 2828 
Q 3544 3216 3844 3400 
Q 4144 3584 4550 3584 
Q 5097 3584 5394 3201 
Q 5691 2819 5691 2113 
L 5691 0 
L 5113 0 
L 5113 2094 
Q 5113 2597 4934 2840 
Q 4756 3084 4391 3084 
Q 3944 3084 3684 2787 
Q 3425 2491 3425 1978 
L 3425 0 
L 2847 0 
L 2847 2094 
Q 2847 2600 2669 2842 
Q 2491 3084 2119 3084 
Q 1678 3084 1418 2786 
Q 1159 2488 1159 1978 
L 1159 0 
L 581 0 
L 581 3500 
L 1159 3500 
L 1159 2956 
Q 1356 3278 1631 3431 
Q 1906 3584 2284 3584 
Q 2666 3584 2933 3390 
Q 3200 3197 3328 2828 
z
" transform="scale(0.015625)"/>
      <path id="DejaVuSans-6f" d="M 1959 3097 
Q 1497 3097 1228 2736 
Q 959 2375 959 1747 
Q 959 1119 1226 758 
Q 1494 397 1959 397 
Q 2419 397 2687 759 
Q 2956 1122 2956 1747 
Q 2956 2369 2687 2733 
Q 2419 3097 1959 3097 
z
M 1959 3584 
Q 2709 3584 3137 3096 
Q 3566 2609 3566 1747 
Q 3566 888 3137 398 
Q 2709 -91 1959 -91 
Q 1206 -91 779 398 
Q 353 888 353 1747 
Q 353 2609 779 3096 
Q 1206 3584 1959 3584 
z
" transform="scale(0.015625)"/>
      <path id="DejaVuSans-64" d="M 2906 2969 
L 2906 4863 
L 3481 4863 
L 3481 0 
L 2906 0 
L 2906 525 
Q 2725 213 2448 61 
Q 2172 -91 1784 -91 
Q 1150 -91 751 415 
Q 353 922 353 1747 
Q 353 2572 751 3078 
Q 1150 3584 1784 3584 
Q 2172 3584 2448 3432 
Q 2725 3281 2906 2969 
z
M 947 1747 
Q 947 1113 1208 752 
Q 1469 391 1925 391 
Q 2381 391 2643 752 
Q 2906 1113 2906 1747 
Q 2906 2381 2643 2742 
Q 2381 3103 1925 3103 
Q 1469 3103 1208 2742 
Q 947 2381 947 1747 
z
" transform="scale(0.015625)"/>
     </defs>
     <use xlink:href="#DejaVuSans-53"/>
     <use xlink:href="#DejaVuSans-69" transform="translate(63.476562 0)"/>
     <use xlink:href="#DejaVuSans-67" transform="translate(91.259766 0)"/>
     <use xlink:href="#DejaVuSans-6d" transform="translate(154.736328 0)"/>
     <use xlink:href="#DejaVuSans-6f" transform="translate(252.148438 0)"/>
     <use xlink:href="#DejaVuSans-69" transform="translate(313.330078 0)"/>
     <use xlink:href="#DejaVuSans-64" transform="translate(341.113281 0)"/>
    </g>
   </g>
  </g>
  <g id="axes_3">
   <g id="patch_12">
    <path d="M 405.64375 177.256 
L 578.114789 177.256 
L 578.114789 36.756 
L 405.64375 36.756 
z
" style="fill: #ffffff"/>
   </g>
   <g id="matplotlib.axis_5">
    <g id="xtick_11">
     <g id="line2d_28"/>
     <g id="text_24">
      <!-- −4 -->
      <g transform="translate(423.265653 186.83475) scale(0.08 -0.08)">
       <use xlink:href="#DejaVuSans-2212"/>
       <use xlink:href="#DejaVuSans-34" transform="translate(83.789062 0)"/>
      </g>
     </g>
    </g>
    <g id="xtick_12">
     <g id="line2d_29"/>
     <g id="text_25">
      <!-- −2 -->
      <g transform="translate(454.624024 186.83475) scale(0.08 -0.08)">
       <use xlink:href="#DejaVuSans-2212"/>
       <use xlink:href="#DejaVuSans-32" transform="translate(83.789062 0)"/>
      </g>
     </g>
    </g>
    <g id="xtick_13">
     <g id="line2d_30"/>
     <g id="text_26">
      <!-- 0 -->
      <g transform="translate(489.33427 186.83475) scale(0.08 -0.08)">
       <use xlink:href="#DejaVuSans-30"/>
      </g>
     </g>
    </g>
    <g id="xtick_14">
     <g id="line2d_31"/>
     <g id="text_27">
      <!-- 2 -->
      <g transform="translate(520.692641 186.83475) scale(0.08 -0.08)">
       <use xlink:href="#DejaVuSans-32"/>
      </g>
     </g>
    </g>
    <g id="xtick_15">
     <g id="line2d_32"/>
     <g id="text_28">
      <!-- 4 -->
      <g transform="translate(552.051011 186.83475) scale(0.08 -0.08)">
       <use xlink:href="#DejaVuSans-34"/>
      </g>
     </g>
    </g>
   </g>
   <g id="matplotlib.axis_6">
    <g id="ytick_12">
     <g id="line2d_33"/>
     <g id="text_29">
      <!-- 0 -->
      <g transform="translate(397.05375 173.909011) scale(0.08 -0.08)">
       <use xlink:href="#DejaVuSans-30"/>
      </g>
     </g>
    </g>
    <g id="ytick_13">
     <g id="line2d_34"/>
     <g id="text_30">
      <!-- 1 -->
      <g transform="translate(397.05375 148.363557) scale(0.08 -0.08)">
       <use xlink:href="#DejaVuSans-31"/>
      </g>
     </g>
    </g>
    <g id="ytick_14">
     <g id="line2d_35"/>
     <g id="text_31">
      <!-- 2 -->
      <g transform="translate(397.05375 122.818102) scale(0.08 -0.08)">
       <use xlink:href="#DejaVuSans-32"/>
      </g>
     </g>
    </g>
    <g id="ytick_15">
     <g id="line2d_36"/>
     <g id="text_32">
      <!-- 3 -->
      <g transform="translate(397.05375 97.272648) scale(0.08 -0.08)">
       <defs>
        <path id="DejaVuSans-33" d="M 2597 2516 
Q 3050 2419 3304 2112 
Q 3559 1806 3559 1356 
Q 3559 666 3084 287 
Q 2609 -91 1734 -91 
Q 1441 -91 1130 -33 
Q 819 25 488 141 
L 488 750 
Q 750 597 1062 519 
Q 1375 441 1716 441 
Q 2309 441 2620 675 
Q 2931 909 2931 1356 
Q 2931 1769 2642 2001 
Q 2353 2234 1838 2234 
L 1294 2234 
L 1294 2753 
L 1863 2753 
Q 2328 2753 2575 2939 
Q 2822 3125 2822 3475 
Q 2822 3834 2567 4026 
Q 2313 4219 1838 4219 
Q 1578 4219 1281 4162 
Q 984 4106 628 3988 
L 628 4550 
Q 988 4650 1302 4700 
Q 1616 4750 1894 4750 
Q 2613 4750 3031 4423 
Q 3450 4097 3450 3541 
Q 3450 3153 3228 2886 
Q 3006 2619 2597 2516 
z
" transform="scale(0.015625)"/>
       </defs>
       <use xlink:href="#DejaVuSans-33"/>
      </g>
     </g>
    </g>
    <g id="ytick_16">
     <g id="line2d_37"/>
     <g id="text_33">
      <!-- 4 -->
      <g transform="translate(397.05375 71.727193) scale(0.08 -0.08)">
       <use xlink:href="#DejaVuSans-34"/>
      </g>
     </g>
    </g>
    <g id="ytick_17">
     <g id="line2d_38"/>
     <g id="text_34">
      <!-- 5 -->
      <g transform="translate(397.05375 46.181739) scale(0.08 -0.08)">
       <defs>
        <path id="DejaVuSans-35" d="M 691 4666 
L 3169 4666 
L 3169 4134 
L 1269 4134 
L 1269 2991 
Q 1406 3038 1543 3061 
Q 1681 3084 1819 3084 
Q 2600 3084 3056 2656 
Q 3513 2228 3513 1497 
Q 3513 744 3044 326 
Q 2575 -91 1722 -91 
Q 1428 -91 1123 -41 
Q 819 9 494 109 
L 494 744 
Q 775 591 1075 516 
Q 1375 441 1709 441 
Q 2250 441 2565 725 
Q 2881 1009 2881 1497 
Q 2881 1984 2565 2268 
Q 2250 2553 1709 2553 
Q 1456 2553 1204 2497 
Q 953 2441 691 2322 
L 691 4666 
z
" transform="scale(0.015625)"/>
       </defs>
       <use xlink:href="#DejaVuSans-35"/>
      </g>
     </g>
    </g>
   </g>
   <g id="line2d_39">
    <path d="M 413.483343 170.869636 
L 415.067099 170.869636 
L 416.650855 170.869636 
L 418.234611 170.869636 
L 419.818367 170.869636 
L 421.402123 170.869636 
L 422.985879 170.869636 
L 424.569635 170.869636 
L 426.153392 170.869636 
L 427.737148 170.869636 
L 429.320904 170.869636 
L 430.90466 170.869636 
L 432.488416 170.869636 
L 434.072172 170.869636 
L 435.655928 170.869636 
L 437.239684 170.869636 
L 438.82344 170.869636 
L 440.407196 170.869636 
L 441.990953 170.869636 
L 443.574709 170.869636 
L 445.158465 170.869636 
L 446.742221 170.869636 
L 448.325977 170.869636 
L 449.909733 170.869636 
L 451.493489 170.869636 
L 453.077245 170.869636 
L 454.661001 170.869636 
L 456.244757 170.869636 
L 457.828514 170.869636 
L 459.41227 170.869636 
L 460.996026 170.869636 
L 462.579782 170.869636 
L 464.163538 170.869636 
L 465.747294 170.869636 
L 467.33105 170.869636 
L 468.914806 170.869636 
L 470.498562 170.869636 
L 472.082318 170.869636 
L 473.666075 170.869636 
L 475.249831 170.869636 
L 476.833587 170.869636 
L 478.417343 170.869636 
L 480.001099 170.869636 
L 481.584855 170.869636 
L 483.168611 170.869636 
L 484.752367 170.869636 
L 486.336123 170.869636 
L 487.919879 170.869636 
L 489.503636 170.869636 
L 491.087392 170.869636 
L 492.671148 169.579462 
L 494.254904 166.999113 
L 495.83866 164.418764 
L 497.422416 161.838415 
L 499.006172 159.258066 
L 500.589928 156.677717 
L 502.173684 154.097368 
L 503.75744 151.517019 
L 505.341197 148.93667 
L 506.924953 146.356321 
L 508.508709 143.775972 
L 510.092465 141.195624 
L 511.676221 138.615275 
L 513.259977 136.034926 
L 514.843733 133.454577 
L 516.427489 130.874228 
L 518.011245 128.293879 
L 519.595001 125.71353 
L 521.178758 123.133181 
L 522.762514 120.552832 
L 524.34627 117.972483 
L 525.930026 115.392134 
L 527.513782 112.811785 
L 529.097538 110.231436 
L 530.681294 107.651087 
L 532.26505 105.070738 
L 533.848806 102.490389 
L 535.432563 99.91004 
L 537.016319 97.329691 
L 538.600075 94.749343 
L 540.183831 92.168994 
L 541.767587 89.588645 
L 543.351343 87.008296 
L 544.935099 84.427947 
L 546.518855 81.847598 
L 548.102611 79.267249 
L 549.686367 76.6869 
L 551.270124 74.106551 
L 552.85388 71.526202 
L 554.437636 68.945853 
L 556.021392 66.365504 
L 557.605148 63.785155 
L 559.188904 61.204806 
L 560.77266 58.624457 
L 562.356416 56.044108 
L 563.940172 53.463759 
L 565.523928 50.88341 
L 567.107685 48.303062 
L 568.691441 45.722713 
L 570.275197 43.142364 
" clip-path="url(#p86690beb7e)" style="fill: none; stroke: #0096ff; stroke-width: 4"/>
   </g>
   <g id="line2d_40">
    <path d="M 491.87927 177.256 
L 491.87927 36.756 
" clip-path="url(#p86690beb7e)" style="fill: none; stroke: #000000; stroke-width: 0.3"/>
   </g>
   <g id="line2d_41">
    <path d="M 405.64375 170.869636 
L 578.114789 170.869636 
" clip-path="url(#p86690beb7e)" style="fill: none; stroke: #000000; stroke-width: 0.3"/>
   </g>
   <g id="patch_13">
    <path d="M 405.64375 177.256 
L 405.64375 36.756 
" style="fill: none; stroke: #f0f0f0; stroke-width: 3; stroke-linejoin: miter; stroke-linecap: square"/>
   </g>
   <g id="patch_14">
    <path d="M 578.114789 177.256 
L 578.114789 36.756 
" style="fill: none; stroke: #f0f0f0; stroke-width: 3; stroke-linejoin: miter; stroke-linecap: square"/>
   </g>
   <g id="patch_15">
    <path d="M 405.64375 177.256 
L 578.114789 177.256 
" style="fill: none; stroke: #f0f0f0; stroke-width: 3; stroke-linejoin: miter; stroke-linecap: square"/>
   </g>
   <g id="patch_16">
    <path d="M 405.64375 36.756 
L 578.114789 36.756 
" style="fill: none; stroke: #f0f0f0; stroke-width: 3; stroke-linejoin: miter; stroke-linecap: square"/>
   </g>
   <g id="text_35">
    <!-- ReLU -->
    <g transform="translate(477.45497 30.756) scale(0.1152 -0.1152)">
     <defs>
      <path id="DejaVuSans-52" d="M 2841 2188 
Q 3044 2119 3236 1894 
Q 3428 1669 3622 1275 
L 4263 0 
L 3584 0 
L 2988 1197 
Q 2756 1666 2539 1819 
Q 2322 1972 1947 1972 
L 1259 1972 
L 1259 0 
L 628 0 
L 628 4666 
L 2053 4666 
Q 2853 4666 3247 4331 
Q 3641 3997 3641 3322 
Q 3641 2881 3436 2590 
Q 3231 2300 2841 2188 
z
M 1259 4147 
L 1259 2491 
L 2053 2491 
Q 2509 2491 2742 2702 
Q 2975 2913 2975 3322 
Q 2975 3731 2742 3939 
Q 2509 4147 2053 4147 
L 1259 4147 
z
" transform="scale(0.015625)"/>
      <path id="DejaVuSans-55" d="M 556 4666 
L 1191 4666 
L 1191 1831 
Q 1191 1081 1462 751 
Q 1734 422 2344 422 
Q 2950 422 3222 751 
Q 3494 1081 3494 1831 
L 3494 4666 
L 4128 4666 
L 4128 1753 
Q 4128 841 3676 375 
Q 3225 -91 2344 -91 
Q 1459 -91 1007 375 
Q 556 841 556 1753 
L 556 4666 
z
" transform="scale(0.015625)"/>
     </defs>
     <use xlink:href="#DejaVuSans-52"/>
     <use xlink:href="#DejaVuSans-65" transform="translate(64.982422 0)"/>
     <use xlink:href="#DejaVuSans-4c" transform="translate(126.505859 0)"/>
     <use xlink:href="#DejaVuSans-55" transform="translate(177.21875 0)"/>
    </g>
   </g>
  </g>
  <g id="text_36">
   <!-- Common Activation Functions -->
   <g transform="translate(195.896016 17.077969) scale(0.13 -0.13)">
    <defs>
     <path id="DejaVuSans-43" d="M 4122 4306 
L 4122 3641 
Q 3803 3938 3442 4084 
Q 3081 4231 2675 4231 
Q 1875 4231 1450 3742 
Q 1025 3253 1025 2328 
Q 1025 1406 1450 917 
Q 1875 428 2675 428 
Q 3081 428 3442 575 
Q 3803 722 4122 1019 
L 4122 359 
Q 3791 134 3420 21 
Q 3050 -91 2638 -91 
Q 1578 -91 968 557 
Q 359 1206 359 2328 
Q 359 3453 968 4101 
Q 1578 4750 2638 4750 
Q 3056 4750 3426 4639 
Q 3797 4528 4122 4306 
z
" transform="scale(0.015625)"/>
     <path id="DejaVuSans-20" transform="scale(0.015625)"/>
     <path id="DejaVuSans-41" d="M 2188 4044 
L 1331 1722 
L 3047 1722 
L 2188 4044 
z
M 1831 4666 
L 2547 4666 
L 4325 0 
L 3669 0 
L 3244 1197 
L 1141 1197 
L 716 0 
L 50 0 
L 1831 4666 
z
" transform="scale(0.015625)"/>
     <path id="DejaVuSans-63" d="M 3122 3366 
L 3122 2828 
Q 2878 2963 2633 3030 
Q 2388 3097 2138 3097 
Q 1578 3097 1268 2742 
Q 959 2388 959 1747 
Q 959 1106 1268 751 
Q 1578 397 2138 397 
Q 2388 397 2633 464 
Q 2878 531 3122 666 
L 3122 134 
Q 2881 22 2623 -34 
Q 2366 -91 2075 -91 
Q 1284 -91 818 406 
Q 353 903 353 1747 
Q 353 2603 823 3093 
Q 1294 3584 2113 3584 
Q 2378 3584 2631 3529 
Q 2884 3475 3122 3366 
z
" transform="scale(0.015625)"/>
     <path id="DejaVuSans-74" d="M 1172 4494 
L 1172 3500 
L 2356 3500 
L 2356 3053 
L 1172 3053 
L 1172 1153 
Q 1172 725 1289 603 
Q 1406 481 1766 481 
L 2356 481 
L 2356 0 
L 1766 0 
Q 1100 0 847 248 
Q 594 497 594 1153 
L 594 3053 
L 172 3053 
L 172 3500 
L 594 3500 
L 594 4494 
L 1172 4494 
z
" transform="scale(0.015625)"/>
     <path id="DejaVuSans-76" d="M 191 3500 
L 800 3500 
L 1894 563 
L 2988 3500 
L 3597 3500 
L 2284 0 
L 1503 0 
L 191 3500 
z
" transform="scale(0.015625)"/>
     <path id="DejaVuSans-46" d="M 628 4666 
L 3309 4666 
L 3309 4134 
L 1259 4134 
L 1259 2759 
L 3109 2759 
L 3109 2228 
L 1259 2228 
L 1259 0 
L 628 0 
L 628 4666 
z
" transform="scale(0.015625)"/>
     <path id="DejaVuSans-75" d="M 544 1381 
L 544 3500 
L 1119 3500 
L 1119 1403 
Q 1119 906 1312 657 
Q 1506 409 1894 409 
Q 2359 409 2629 706 
Q 2900 1003 2900 1516 
L 2900 3500 
L 3475 3500 
L 3475 0 
L 2900 0 
L 2900 538 
Q 2691 219 2414 64 
Q 2138 -91 1772 -91 
Q 1169 -91 856 284 
Q 544 659 544 1381 
z
M 1991 3584 
L 1991 3584 
z
" transform="scale(0.015625)"/>
     <path id="DejaVuSans-73" d="M 2834 3397 
L 2834 2853 
Q 2591 2978 2328 3040 
Q 2066 3103 1784 3103 
Q 1356 3103 1142 2972 
Q 928 2841 928 2578 
Q 928 2378 1081 2264 
Q 1234 2150 1697 2047 
L 1894 2003 
Q 2506 1872 2764 1633 
Q 3022 1394 3022 966 
Q 3022 478 2636 193 
Q 2250 -91 1575 -91 
Q 1294 -91 989 -36 
Q 684 19 347 128 
L 347 722 
Q 666 556 975 473 
Q 1284 391 1588 391 
Q 1994 391 2212 530 
Q 2431 669 2431 922 
Q 2431 1156 2273 1281 
Q 2116 1406 1581 1522 
L 1381 1569 
Q 847 1681 609 1914 
Q 372 2147 372 2553 
Q 372 3047 722 3315 
Q 1072 3584 1716 3584 
Q 2034 3584 2315 3537 
Q 2597 3491 2834 3397 
z
" transform="scale(0.015625)"/>
    </defs>
    <use xlink:href="#DejaVuSans-43"/>
    <use xlink:href="#DejaVuSans-6f" transform="translate(69.824219 0)"/>
    <use xlink:href="#DejaVuSans-6d" transform="translate(131.005859 0)"/>
    <use xlink:href="#DejaVuSans-6d" transform="translate(228.417969 0)"/>
    <use xlink:href="#DejaVuSans-6f" transform="translate(325.830078 0)"/>
    <use xlink:href="#DejaVuSans-6e" transform="translate(387.011719 0)"/>
    <use xlink:href="#DejaVuSans-20" transform="translate(450.390625 0)"/>
    <use xlink:href="#DejaVuSans-41" transform="translate(482.177734 0)"/>
    <use xlink:href="#DejaVuSans-63" transform="translate(548.835938 0)"/>
    <use xlink:href="#DejaVuSans-74" transform="translate(603.816406 0)"/>
    <use xlink:href="#DejaVuSans-69" transform="translate(643.025391 0)"/>
    <use xlink:href="#DejaVuSans-76" transform="translate(670.808594 0)"/>
    <use xlink:href="#DejaVuSans-61" transform="translate(729.988281 0)"/>
    <use xlink:href="#DejaVuSans-74" transform="translate(791.267578 0)"/>
    <use xlink:href="#DejaVuSans-69" transform="translate(830.476562 0)"/>
    <use xlink:href="#DejaVuSans-6f" transform="translate(858.259766 0)"/>
    <use xlink:href="#DejaVuSans-6e" transform="translate(919.441406 0)"/>
    <use xlink:href="#DejaVuSans-20" transform="translate(982.820312 0)"/>
    <use xlink:href="#DejaVuSans-46" transform="translate(1014.607422 0)"/>
    <use xlink:href="#DejaVuSans-75" transform="translate(1066.626953 0)"/>
    <use xlink:href="#DejaVuSans-6e" transform="translate(1130.005859 0)"/>
    <use xlink:href="#DejaVuSans-63" transform="translate(1193.384766 0)"/>
    <use xlink:href="#DejaVuSans-74" transform="translate(1248.365234 0)"/>
    <use xlink:href="#DejaVuSans-69" transform="translate(1287.574219 0)"/>
    <use xlink:href="#DejaVuSans-6f" transform="translate(1315.357422 0)"/>
    <use xlink:href="#DejaVuSans-6e" transform="translate(1376.539062 0)"/>
    <use xlink:href="#DejaVuSans-73" transform="translate(1439.917969 0)"/>
   </g>
  </g>
 </g>
 <defs>
  <clipPath id="p07fc8b6107">
   <rect x="22.49375" y="36.756" width="172.471039" height="140.5"/>
  </clipPath>
  <clipPath id="pd91312e0ce">
   <rect x="214.06875" y="36.756" width="172.471039" height="140.5"/>
  </clipPath>
  <clipPath id="p86690beb7e">
   <rect x="405.64375" y="36.756" width="172.471039" height="140.5"/>
  </clipPath>
 </defs>
</svg>
