<?xml version="1.0" encoding="utf-8" standalone="no"?>
<!DOCTYPE svg PUBLIC "-//W3C//DTD SVG 1.1//EN"
  "http://www.w3.org/Graphics/SVG/1.1/DTD/svg11.dtd">
<svg xmlns:xlink="http://www.w3.org/1999/xlink" width="924.12525pt" height="276.16035pt" viewBox="0 0 924.12525 276.16035" xmlns="http://www.w3.org/2000/svg" version="1.1">
 <metadata>
  <rdf:RDF xmlns:dc="http://purl.org/dc/elements/1.1/" xmlns:cc="http://creativecommons.org/ns#" xmlns:rdf="http://www.w3.org/1999/02/22-rdf-syntax-ns#">
   <cc:Work>
    <dc:type rdf:resource="http://purl.org/dc/dcmitype/StillImage"/>
    <dc:date>2026-07-16T17:44:18.464067</dc:date>
    <dc:format>image/svg+xml</dc:format>
    <dc:creator>
     <cc:Agent>
      <dc:title>Matplotlib v3.10.8, https://matplotlib.org/</dc:title>
     </cc:Agent>
    </dc:creator>
   </cc:Work>
  </rdf:RDF>
 </metadata>
 <defs>
  <style type="text/css">*{stroke-linejoin: round; stroke-linecap: butt}</style>
 </defs>
 <g id="figure_1">
  <g id="patch_1">
   <path d="M 0 276.16035 
L 924.12525 276.16035 
L 924.12525 0 
L 0 0 
z
" style="fill: #ffffff"/>
  </g>
  <g id="axes_1">
   <g id="patch_2">
    <path d="M 47.72025 235.9101 
L 302.56525 235.9101 
L 302.56525 26.3301 
L 47.72025 26.3301 
z
" style="fill: #ffffff"/>
   </g>
   <g id="matplotlib.axis_1">
    <g id="xtick_1">
     <g id="line2d_1">
      <path d="M 59.304114 235.9101 
L 59.304114 26.3301 
" clip-path="url(#pd5d75a7ea4)" style="fill: none; stroke-dasharray: 3.7,1.6; stroke-dashoffset: 0; stroke: #cbcbcb; stroke-opacity: 0.35"/>
     </g>
     <g id="line2d_2"/>
     <g id="text_1">
      <!-- −6 -->
      <g transform="translate(50.458801 248.528225) scale(0.12 -0.12)">
       <defs>
        <path id="DejaVuSans-2212" d="M 678 2272 
L 4684 2272 
L 4684 1741 
L 678 1741 
L 678 2272 
z
" transform="scale(0.015625)"/>
        <path id="DejaVuSans-36" d="M 2113 2584 
Q 1688 2584 1439 2293 
Q 1191 2003 1191 1497 
Q 1191 994 1439 701 
Q 1688 409 2113 409 
Q 2538 409 2786 701 
Q 3034 994 3034 1497 
Q 3034 2003 2786 2293 
Q 2538 2584 2113 2584 
z
M 3366 4563 
L 3366 3988 
Q 3128 4100 2886 4159 
Q 2644 4219 2406 4219 
Q 1781 4219 1451 3797 
Q 1122 3375 1075 2522 
Q 1259 2794 1537 2939 
Q 1816 3084 2150 3084 
Q 2853 3084 3261 2657 
Q 3669 2231 3669 1497 
Q 3669 778 3244 343 
Q 2819 -91 2113 -91 
Q 1303 -91 875 529 
Q 447 1150 447 2328 
Q 447 3434 972 4092 
Q 1497 4750 2381 4750 
Q 2619 4750 2861 4703 
Q 3103 4656 3366 4563 
z
" transform="scale(0.015625)"/>
       </defs>
       <use xlink:href="#DejaVuSans-2212"/>
       <use xlink:href="#DejaVuSans-36" transform="translate(83.789062 0)"/>
      </g>
     </g>
    </g>
    <g id="xtick_2">
     <g id="line2d_3">
      <path d="M 97.916992 235.9101 
L 97.916992 26.3301 
" clip-path="url(#pd5d75a7ea4)" style="fill: none; stroke-dasharray: 3.7,1.6; stroke-dashoffset: 0; stroke: #cbcbcb; stroke-opacity: 0.35"/>
     </g>
     <g id="line2d_4"/>
     <g id="text_2">
      <!-- −4 -->
      <g transform="translate(89.07168 248.528225) scale(0.12 -0.12)">
       <defs>
        <path id="DejaVuSans-34" d="M 2419 4116 
L 825 1625 
L 2419 1625 
L 2419 4116 
z
M 2253 4666 
L 3047 4666 
L 3047 1625 
L 3713 1625 
L 3713 1100 
L 3047 1100 
L 3047 0 
L 2419 0 
L 2419 1100 
L 313 1100 
L 313 1709 
L 2253 4666 
z
" transform="scale(0.015625)"/>
       </defs>
       <use xlink:href="#DejaVuSans-2212"/>
       <use xlink:href="#DejaVuSans-34" transform="translate(83.789062 0)"/>
      </g>
     </g>
    </g>
    <g id="xtick_3">
     <g id="line2d_5">
      <path d="M 136.529871 235.9101 
L 136.529871 26.3301 
" clip-path="url(#pd5d75a7ea4)" style="fill: none; stroke-dasharray: 3.7,1.6; stroke-dashoffset: 0; stroke: #cbcbcb; stroke-opacity: 0.35"/>
     </g>
     <g id="line2d_6"/>
     <g id="text_3">
      <!-- −2 -->
      <g transform="translate(127.684559 248.528225) scale(0.12 -0.12)">
       <defs>
        <path id="DejaVuSans-32" d="M 1228 531 
L 3431 531 
L 3431 0 
L 469 0 
L 469 531 
Q 828 903 1448 1529 
Q 2069 2156 2228 2338 
Q 2531 2678 2651 2914 
Q 2772 3150 2772 3378 
Q 2772 3750 2511 3984 
Q 2250 4219 1831 4219 
Q 1534 4219 1204 4116 
Q 875 4013 500 3803 
L 500 4441 
Q 881 4594 1212 4672 
Q 1544 4750 1819 4750 
Q 2544 4750 2975 4387 
Q 3406 4025 3406 3419 
Q 3406 3131 3298 2873 
Q 3191 2616 2906 2266 
Q 2828 2175 2409 1742 
Q 1991 1309 1228 531 
z
" transform="scale(0.015625)"/>
       </defs>
       <use xlink:href="#DejaVuSans-2212"/>
       <use xlink:href="#DejaVuSans-32" transform="translate(83.789062 0)"/>
      </g>
     </g>
    </g>
    <g id="xtick_4">
     <g id="line2d_7">
      <path d="M 175.14275 235.9101 
L 175.14275 26.3301 
" clip-path="url(#pd5d75a7ea4)" style="fill: none; stroke-dasharray: 3.7,1.6; stroke-dashoffset: 0; stroke: #cbcbcb; stroke-opacity: 0.35"/>
     </g>
     <g id="line2d_8"/>
     <g id="text_4">
      <!-- 0 -->
      <g transform="translate(171.32525 248.528225) scale(0.12 -0.12)">
       <defs>
        <path id="DejaVuSans-30" d="M 2034 4250 
Q 1547 4250 1301 3770 
Q 1056 3291 1056 2328 
Q 1056 1369 1301 889 
Q 1547 409 2034 409 
Q 2525 409 2770 889 
Q 3016 1369 3016 2328 
Q 3016 3291 2770 3770 
Q 2525 4250 2034 4250 
z
M 2034 4750 
Q 2819 4750 3233 4129 
Q 3647 3509 3647 2328 
Q 3647 1150 3233 529 
Q 2819 -91 2034 -91 
Q 1250 -91 836 529 
Q 422 1150 422 2328 
Q 422 3509 836 4129 
Q 1250 4750 2034 4750 
z
" transform="scale(0.015625)"/>
       </defs>
       <use xlink:href="#DejaVuSans-30"/>
      </g>
     </g>
    </g>
    <g id="xtick_5">
     <g id="line2d_9">
      <path d="M 213.755629 235.9101 
L 213.755629 26.3301 
" clip-path="url(#pd5d75a7ea4)" style="fill: none; stroke-dasharray: 3.7,1.6; stroke-dashoffset: 0; stroke: #cbcbcb; stroke-opacity: 0.35"/>
     </g>
     <g id="line2d_10"/>
     <g id="text_5">
      <!-- 2 -->
      <g transform="translate(209.938129 248.528225) scale(0.12 -0.12)">
       <use xlink:href="#DejaVuSans-32"/>
      </g>
     </g>
    </g>
    <g id="xtick_6">
     <g id="line2d_11">
      <path d="M 252.368508 235.9101 
L 252.368508 26.3301 
" clip-path="url(#pd5d75a7ea4)" style="fill: none; stroke-dasharray: 3.7,1.6; stroke-dashoffset: 0; stroke: #cbcbcb; stroke-opacity: 0.35"/>
     </g>
     <g id="line2d_12"/>
     <g id="text_6">
      <!-- 4 -->
      <g transform="translate(248.551008 248.528225) scale(0.12 -0.12)">
       <use xlink:href="#DejaVuSans-34"/>
      </g>
     </g>
    </g>
    <g id="xtick_7">
     <g id="line2d_13">
      <path d="M 290.981386 235.9101 
L 290.981386 26.3301 
" clip-path="url(#pd5d75a7ea4)" style="fill: none; stroke-dasharray: 3.7,1.6; stroke-dashoffset: 0; stroke: #cbcbcb; stroke-opacity: 0.35"/>
     </g>
     <g id="line2d_14"/>
     <g id="text_7">
      <!-- 6 -->
      <g transform="translate(287.163886 248.528225) scale(0.12 -0.12)">
       <use xlink:href="#DejaVuSans-36"/>
      </g>
     </g>
    </g>
    <g id="text_8">
     <!-- z -->
     <g transform="translate(171.363875 265.9656) scale(0.144 -0.144)">
      <defs>
       <path id="DejaVuSans-7a" d="M 353 3500 
L 3084 3500 
L 3084 2975 
L 922 459 
L 3084 459 
L 3084 0 
L 275 0 
L 275 525 
L 2438 3041 
L 353 3041 
L 353 3500 
z
" transform="scale(0.015625)"/>
      </defs>
      <use xlink:href="#DejaVuSans-7a"/>
     </g>
    </g>
   </g>
   <g id="matplotlib.axis_2">
    <g id="ytick_1">
     <g id="line2d_15">
      <path d="M 47.72025 226.85718 
L 302.56525 226.85718 
" clip-path="url(#pd5d75a7ea4)" style="fill: none; stroke-dasharray: 3.7,1.6; stroke-dashoffset: 0; stroke: #cbcbcb; stroke-opacity: 0.35"/>
     </g>
     <g id="line2d_16"/>
     <g id="text_9">
      <!-- 0.0 -->
      <g transform="translate(25.1365 231.416242) scale(0.12 -0.12)">
       <defs>
        <path id="DejaVuSans-2e" d="M 684 794 
L 1344 794 
L 1344 0 
L 684 0 
L 684 794 
z
" transform="scale(0.015625)"/>
       </defs>
       <use xlink:href="#DejaVuSans-30"/>
       <use xlink:href="#DejaVuSans-2e" transform="translate(63.623047 0)"/>
       <use xlink:href="#DejaVuSans-30" transform="translate(95.410156 0)"/>
      </g>
     </g>
    </g>
    <g id="ytick_2">
     <g id="line2d_17">
      <path d="M 47.72025 188.562348 
L 302.56525 188.562348 
" clip-path="url(#pd5d75a7ea4)" style="fill: none; stroke-dasharray: 3.7,1.6; stroke-dashoffset: 0; stroke: #cbcbcb; stroke-opacity: 0.35"/>
     </g>
     <g id="line2d_18"/>
     <g id="text_10">
      <!-- 0.2 -->
      <g transform="translate(25.1365 193.12141) scale(0.12 -0.12)">
       <use xlink:href="#DejaVuSans-30"/>
       <use xlink:href="#DejaVuSans-2e" transform="translate(63.623047 0)"/>
       <use xlink:href="#DejaVuSans-32" transform="translate(95.410156 0)"/>
      </g>
     </g>
    </g>
    <g id="ytick_3">
     <g id="line2d_19">
      <path d="M 47.72025 150.267516 
L 302.56525 150.267516 
" clip-path="url(#pd5d75a7ea4)" style="fill: none; stroke-dasharray: 3.7,1.6; stroke-dashoffset: 0; stroke: #cbcbcb; stroke-opacity: 0.35"/>
     </g>
     <g id="line2d_20"/>
     <g id="text_11">
      <!-- 0.4 -->
      <g transform="translate(25.1365 154.826578) scale(0.12 -0.12)">
       <use xlink:href="#DejaVuSans-30"/>
       <use xlink:href="#DejaVuSans-2e" transform="translate(63.623047 0)"/>
       <use xlink:href="#DejaVuSans-34" transform="translate(95.410156 0)"/>
      </g>
     </g>
    </g>
    <g id="ytick_4">
     <g id="line2d_21">
      <path d="M 47.72025 111.972684 
L 302.56525 111.972684 
" clip-path="url(#pd5d75a7ea4)" style="fill: none; stroke-dasharray: 3.7,1.6; stroke-dashoffset: 0; stroke: #cbcbcb; stroke-opacity: 0.35"/>
     </g>
     <g id="line2d_22"/>
     <g id="text_12">
      <!-- 0.6 -->
      <g transform="translate(25.1365 116.531747) scale(0.12 -0.12)">
       <use xlink:href="#DejaVuSans-30"/>
       <use xlink:href="#DejaVuSans-2e" transform="translate(63.623047 0)"/>
       <use xlink:href="#DejaVuSans-36" transform="translate(95.410156 0)"/>
      </g>
     </g>
    </g>
    <g id="ytick_5">
     <g id="line2d_23">
      <path d="M 47.72025 73.677852 
L 302.56525 73.677852 
" clip-path="url(#pd5d75a7ea4)" style="fill: none; stroke-dasharray: 3.7,1.6; stroke-dashoffset: 0; stroke: #cbcbcb; stroke-opacity: 0.35"/>
     </g>
     <g id="line2d_24"/>
     <g id="text_13">
      <!-- 0.8 -->
      <g transform="translate(25.1365 78.236915) scale(0.12 -0.12)">
       <defs>
        <path id="DejaVuSans-38" d="M 2034 2216 
Q 1584 2216 1326 1975 
Q 1069 1734 1069 1313 
Q 1069 891 1326 650 
Q 1584 409 2034 409 
Q 2484 409 2743 651 
Q 3003 894 3003 1313 
Q 3003 1734 2745 1975 
Q 2488 2216 2034 2216 
z
M 1403 2484 
Q 997 2584 770 2862 
Q 544 3141 544 3541 
Q 544 4100 942 4425 
Q 1341 4750 2034 4750 
Q 2731 4750 3128 4425 
Q 3525 4100 3525 3541 
Q 3525 3141 3298 2862 
Q 3072 2584 2669 2484 
Q 3125 2378 3379 2068 
Q 3634 1759 3634 1313 
Q 3634 634 3220 271 
Q 2806 -91 2034 -91 
Q 1263 -91 848 271 
Q 434 634 434 1313 
Q 434 1759 690 2068 
Q 947 2378 1403 2484 
z
M 1172 3481 
Q 1172 3119 1398 2916 
Q 1625 2713 2034 2713 
Q 2441 2713 2670 2916 
Q 2900 3119 2900 3481 
Q 2900 3844 2670 4047 
Q 2441 4250 2034 4250 
Q 1625 4250 1398 4047 
Q 1172 3844 1172 3481 
z
" transform="scale(0.015625)"/>
       </defs>
       <use xlink:href="#DejaVuSans-30"/>
       <use xlink:href="#DejaVuSans-2e" transform="translate(63.623047 0)"/>
       <use xlink:href="#DejaVuSans-38" transform="translate(95.410156 0)"/>
      </g>
     </g>
    </g>
    <g id="ytick_6">
     <g id="line2d_25">
      <path d="M 47.72025 35.38302 
L 302.56525 35.38302 
" clip-path="url(#pd5d75a7ea4)" style="fill: none; stroke-dasharray: 3.7,1.6; stroke-dashoffset: 0; stroke: #cbcbcb; stroke-opacity: 0.35"/>
     </g>
     <g id="line2d_26"/>
     <g id="text_14">
      <!-- 1.0 -->
      <g transform="translate(25.1365 39.942083) scale(0.12 -0.12)">
       <defs>
        <path id="DejaVuSans-31" d="M 794 531 
L 1825 531 
L 1825 4091 
L 703 3866 
L 703 4441 
L 1819 4666 
L 2450 4666 
L 2450 531 
L 3481 531 
L 3481 0 
L 794 0 
L 794 531 
z
" transform="scale(0.015625)"/>
       </defs>
       <use xlink:href="#DejaVuSans-31"/>
       <use xlink:href="#DejaVuSans-2e" transform="translate(63.623047 0)"/>
       <use xlink:href="#DejaVuSans-30" transform="translate(95.410156 0)"/>
      </g>
     </g>
    </g>
    <g id="text_15">
     <!-- g(z) -->
     <g transform="translate(18.14175 145.0881) rotate(-90) scale(0.144 -0.144)">
      <defs>
       <path id="DejaVuSans-67" d="M 2906 1791 
Q 2906 2416 2648 2759 
Q 2391 3103 1925 3103 
Q 1463 3103 1205 2759 
Q 947 2416 947 1791 
Q 947 1169 1205 825 
Q 1463 481 1925 481 
Q 2391 481 2648 825 
Q 2906 1169 2906 1791 
z
M 3481 434 
Q 3481 -459 3084 -895 
Q 2688 -1331 1869 -1331 
Q 1566 -1331 1297 -1286 
Q 1028 -1241 775 -1147 
L 775 -588 
Q 1028 -725 1275 -790 
Q 1522 -856 1778 -856 
Q 2344 -856 2625 -561 
Q 2906 -266 2906 331 
L 2906 616 
Q 2728 306 2450 153 
Q 2172 0 1784 0 
Q 1141 0 747 490 
Q 353 981 353 1791 
Q 353 2603 747 3093 
Q 1141 3584 1784 3584 
Q 2172 3584 2450 3431 
Q 2728 3278 2906 2969 
L 2906 3500 
L 3481 3500 
L 3481 434 
z
" transform="scale(0.015625)"/>
       <path id="DejaVuSans-28" d="M 1984 4856 
Q 1566 4138 1362 3434 
Q 1159 2731 1159 2009 
Q 1159 1288 1364 580 
Q 1569 -128 1984 -844 
L 1484 -844 
Q 1016 -109 783 600 
Q 550 1309 550 2009 
Q 550 2706 781 3412 
Q 1013 4119 1484 4856 
L 1984 4856 
z
" transform="scale(0.015625)"/>
       <path id="DejaVuSans-29" d="M 513 4856 
L 1013 4856 
Q 1481 4119 1714 3412 
Q 1947 2706 1947 2009 
Q 1947 1309 1714 600 
Q 1481 -109 1013 -844 
L 513 -844 
Q 928 -128 1133 580 
Q 1338 1288 1338 2009 
Q 1338 2731 1133 3434 
Q 928 4138 513 4856 
z
" transform="scale(0.015625)"/>
      </defs>
      <use xlink:href="#DejaVuSans-67"/>
      <use xlink:href="#DejaVuSans-28" transform="translate(63.476562 0)"/>
      <use xlink:href="#DejaVuSans-7a" transform="translate(102.490234 0)"/>
      <use xlink:href="#DejaVuSans-29" transform="translate(154.980469 0)"/>
     </g>
    </g>
   </g>
   <g id="line2d_27">
    <path d="M 59.304114 226.383736 
L 70.91701 225.99497 
L 80.207326 225.465979 
L 87.755709 224.807518 
L 94.142801 224.015734 
L 99.368604 223.14957 
L 104.013763 222.165758 
L 108.078276 221.099487 
L 112.14279 219.800027 
L 115.626659 218.465586 
L 119.110527 216.892449 
L 122.594396 215.043432 
L 125.49762 213.262511 
L 128.400844 211.236459 
L 131.304068 208.938875 
L 134.207292 206.342773 
L 137.110516 203.421324 
L 140.01374 200.14883 
L 142.916964 196.501924 
L 145.820188 192.461004 
L 148.723412 188.011846 
L 151.626636 183.147333 
L 154.52986 177.869168 
L 158.013729 171.007181 
L 161.497597 163.610656 
L 165.562111 154.398658 
L 170.207269 143.290961 
L 186.465323 103.82471 
L 190.529837 94.868149 
L 194.013706 87.731926 
L 197.497575 81.154924 
L 200.400799 76.124196 
L 203.304022 71.509294 
L 206.207246 67.306427 
L 209.11047 63.504005 
L 212.013694 60.084373 
L 214.916918 57.025489 
L 217.820142 54.302428 
L 220.723366 51.888685 
L 223.62659 49.757236 
L 226.529814 47.881369 
L 229.433038 46.235305 
L 232.916907 44.52911 
L 236.400776 43.079732 
L 239.884645 41.851887 
L 243.949158 40.657653 
L 248.594316 39.554271 
L 253.239475 38.677617 
L 258.465278 37.906644 
L 264.852371 37.202568 
L 272.400753 36.61755 
L 281.110425 36.171149 
L 290.981386 35.856464 
L 290.981386 35.856464 
" clip-path="url(#pd5d75a7ea4)" style="fill: none; stroke: #be1d74; stroke-width: 3"/>
   </g>
   <g id="line2d_28">
    <path d="M 47.72025 226.85718 
L 302.56525 226.85718 
" clip-path="url(#pd5d75a7ea4)" style="fill: none; stroke: #000000; stroke-width: 0.8"/>
   </g>
   <g id="line2d_29">
    <path d="M 175.14275 235.9101 
L 175.14275 26.3301 
" clip-path="url(#pd5d75a7ea4)" style="fill: none; stroke: #000000; stroke-width: 0.8"/>
   </g>
   <g id="patch_3">
    <path d="M 47.72025 235.9101 
L 47.72025 26.3301 
" style="fill: none; stroke: #f0f0f0; stroke-width: 3; stroke-linejoin: miter; stroke-linecap: square"/>
   </g>
   <g id="patch_4">
    <path d="M 302.56525 235.9101 
L 302.56525 26.3301 
" style="fill: none; stroke: #f0f0f0; stroke-width: 3; stroke-linejoin: miter; stroke-linecap: square"/>
   </g>
   <g id="patch_5">
    <path d="M 47.72025 235.9101 
L 302.56525 235.9101 
" style="fill: none; stroke: #f0f0f0; stroke-width: 3; stroke-linejoin: miter; stroke-linecap: square"/>
   </g>
   <g id="patch_6">
    <path d="M 47.72025 26.3301 
L 302.56525 26.3301 
" style="fill: none; stroke: #f0f0f0; stroke-width: 3; stroke-linejoin: miter; stroke-linecap: square"/>
   </g>
   <g id="text_16">
    <!-- $g(z) = \dfrac{1}{1 + e^{-z}}$ -->
    <g transform="translate(60.4625 61.3281) scale(0.12 -0.12)">
     <defs>
      <path id="DejaVuSans-Oblique-67" d="M 3816 3500 
L 3219 434 
Q 3047 -456 2561 -893 
Q 2075 -1331 1253 -1331 
Q 950 -1331 690 -1286 
Q 431 -1241 206 -1147 
L 313 -588 
Q 525 -725 762 -790 
Q 1000 -856 1269 -856 
Q 1816 -856 2167 -557 
Q 2519 -259 2631 300 
L 2681 563 
Q 2441 288 2122 144 
Q 1803 0 1434 0 
Q 903 0 598 351 
Q 294 703 294 1319 
Q 294 1803 478 2267 
Q 663 2731 997 3091 
Q 1219 3328 1514 3456 
Q 1809 3584 2131 3584 
Q 2484 3584 2746 3420 
Q 3009 3256 3138 2956 
L 3238 3500 
L 3816 3500 
z
M 2950 2216 
Q 2950 2641 2750 2872 
Q 2550 3103 2181 3103 
Q 1953 3103 1747 3012 
Q 1541 2922 1394 2759 
Q 1156 2491 1023 2127 
Q 891 1763 891 1375 
Q 891 944 1092 712 
Q 1294 481 1672 481 
Q 2219 481 2584 976 
Q 2950 1472 2950 2216 
z
" transform="scale(0.015625)"/>
      <path id="DejaVuSans-Oblique-7a" d="M 744 3500 
L 3475 3500 
L 3372 2975 
L 738 459 
L 2913 459 
L 2822 0 
L -19 0 
L 84 525 
L 2719 3041 
L 653 3041 
L 744 3500 
z
" transform="scale(0.015625)"/>
      <path id="DejaVuSans-3d" d="M 678 2906 
L 4684 2906 
L 4684 2381 
L 678 2381 
L 678 2906 
z
M 678 1631 
L 4684 1631 
L 4684 1100 
L 678 1100 
L 678 1631 
z
" transform="scale(0.015625)"/>
      <path id="DejaVuSans-2b" d="M 2944 4013 
L 2944 2272 
L 4684 2272 
L 4684 1741 
L 2944 1741 
L 2944 0 
L 2419 0 
L 2419 1741 
L 678 1741 
L 678 2272 
L 2419 2272 
L 2419 4013 
L 2944 4013 
z
" transform="scale(0.015625)"/>
      <path id="DejaVuSans-Oblique-65" d="M 3078 2063 
Q 3088 2113 3092 2166 
Q 3097 2219 3097 2272 
Q 3097 2653 2873 2875 
Q 2650 3097 2266 3097 
Q 1838 3097 1509 2826 
Q 1181 2556 1013 2059 
L 3078 2063 
z
M 3578 1613 
L 903 1613 
Q 884 1494 878 1425 
Q 872 1356 872 1306 
Q 872 872 1139 634 
Q 1406 397 1894 397 
Q 2269 397 2603 481 
Q 2938 566 3225 728 
L 3116 159 
Q 2806 34 2476 -28 
Q 2147 -91 1806 -91 
Q 1078 -91 686 257 
Q 294 606 294 1247 
Q 294 1794 489 2264 
Q 684 2734 1063 3103 
Q 1306 3334 1642 3459 
Q 1978 3584 2356 3584 
Q 2950 3584 3301 3228 
Q 3653 2872 3653 2272 
Q 3653 2128 3634 1964 
Q 3616 1800 3578 1613 
z
" transform="scale(0.015625)"/>
     </defs>
     <use xlink:href="#DejaVuSans-Oblique-67" transform="translate(0 0.296875)"/>
     <use xlink:href="#DejaVuSans-28" transform="translate(63.476562 0.296875)"/>
     <use xlink:href="#DejaVuSans-Oblique-7a" transform="translate(102.490234 0.296875)"/>
     <use xlink:href="#DejaVuSans-29" transform="translate(154.980469 0.296875)"/>
     <use xlink:href="#DejaVuSans-3d" transform="translate(213.476562 0.296875)"/>
     <use xlink:href="#DejaVuSans-31" transform="translate(460.748047 44.09375)"/>
     <use xlink:href="#DejaVuSans-31" transform="translate(316.748047 -63.71875)"/>
     <use xlink:href="#DejaVuSans-2b" transform="translate(399.853516 -63.71875)"/>
     <use xlink:href="#DejaVuSans-Oblique-65" transform="translate(503.125 -63.71875)"/>
     <use xlink:href="#DejaVuSans-2212" transform="translate(569.298333 -25.4375) scale(0.7)"/>
     <use xlink:href="#DejaVuSans-Oblique-7a" transform="translate(627.950677 -25.4375) scale(0.7)"/>
     <path d="M 316.748047 19.09375 
L 316.748047 25.34375 
L 667.428216 25.34375 
L 667.428216 19.09375 
L 316.748047 19.09375 
z
"/>
    </g>
   </g>
   <g id="text_17">
    <!-- Sigmoid -->
    <g style="fill: #808080" transform="translate(140.1845 20.3301) scale(0.1728 -0.1728)">
     <defs>
      <path id="DejaVuSans-53" d="M 3425 4513 
L 3425 3897 
Q 3066 4069 2747 4153 
Q 2428 4238 2131 4238 
Q 1616 4238 1336 4038 
Q 1056 3838 1056 3469 
Q 1056 3159 1242 3001 
Q 1428 2844 1947 2747 
L 2328 2669 
Q 3034 2534 3370 2195 
Q 3706 1856 3706 1288 
Q 3706 609 3251 259 
Q 2797 -91 1919 -91 
Q 1588 -91 1214 -16 
Q 841 59 441 206 
L 441 856 
Q 825 641 1194 531 
Q 1563 422 1919 422 
Q 2459 422 2753 634 
Q 3047 847 3047 1241 
Q 3047 1584 2836 1778 
Q 2625 1972 2144 2069 
L 1759 2144 
Q 1053 2284 737 2584 
Q 422 2884 422 3419 
Q 422 4038 858 4394 
Q 1294 4750 2059 4750 
Q 2388 4750 2728 4690 
Q 3069 4631 3425 4513 
z
" transform="scale(0.015625)"/>
      <path id="DejaVuSans-69" d="M 603 3500 
L 1178 3500 
L 1178 0 
L 603 0 
L 603 3500 
z
M 603 4863 
L 1178 4863 
L 1178 4134 
L 603 4134 
L 603 4863 
z
" transform="scale(0.015625)"/>
      <path id="DejaVuSans-6d" d="M 3328 2828 
Q 3544 3216 3844 3400 
Q 4144 3584 4550 3584 
Q 5097 3584 5394 3201 
Q 5691 2819 5691 2113 
L 5691 0 
L 5113 0 
L 5113 2094 
Q 5113 2597 4934 2840 
Q 4756 3084 4391 3084 
Q 3944 3084 3684 2787 
Q 3425 2491 3425 1978 
L 3425 0 
L 2847 0 
L 2847 2094 
Q 2847 2600 2669 2842 
Q 2491 3084 2119 3084 
Q 1678 3084 1418 2786 
Q 1159 2488 1159 1978 
L 1159 0 
L 581 0 
L 581 3500 
L 1159 3500 
L 1159 2956 
Q 1356 3278 1631 3431 
Q 1906 3584 2284 3584 
Q 2666 3584 2933 3390 
Q 3200 3197 3328 2828 
z
" transform="scale(0.015625)"/>
      <path id="DejaVuSans-6f" d="M 1959 3097 
Q 1497 3097 1228 2736 
Q 959 2375 959 1747 
Q 959 1119 1226 758 
Q 1494 397 1959 397 
Q 2419 397 2687 759 
Q 2956 1122 2956 1747 
Q 2956 2369 2687 2733 
Q 2419 3097 1959 3097 
z
M 1959 3584 
Q 2709 3584 3137 3096 
Q 3566 2609 3566 1747 
Q 3566 888 3137 398 
Q 2709 -91 1959 -91 
Q 1206 -91 779 398 
Q 353 888 353 1747 
Q 353 2609 779 3096 
Q 1206 3584 1959 3584 
z
" transform="scale(0.015625)"/>
      <path id="DejaVuSans-64" d="M 2906 2969 
L 2906 4863 
L 3481 4863 
L 3481 0 
L 2906 0 
L 2906 525 
Q 2725 213 2448 61 
Q 2172 -91 1784 -91 
Q 1150 -91 751 415 
Q 353 922 353 1747 
Q 353 2572 751 3078 
Q 1150 3584 1784 3584 
Q 2172 3584 2448 3432 
Q 2725 3281 2906 2969 
z
M 947 1747 
Q 947 1113 1208 752 
Q 1469 391 1925 391 
Q 2381 391 2643 752 
Q 2906 1113 2906 1747 
Q 2906 2381 2643 2742 
Q 2381 3103 1925 3103 
Q 1469 3103 1208 2742 
Q 947 2381 947 1747 
z
" transform="scale(0.015625)"/>
     </defs>
     <use xlink:href="#DejaVuSans-53"/>
     <use xlink:href="#DejaVuSans-69" transform="translate(63.476562 0)"/>
     <use xlink:href="#DejaVuSans-67" transform="translate(91.259766 0)"/>
     <use xlink:href="#DejaVuSans-6d" transform="translate(154.736328 0)"/>
     <use xlink:href="#DejaVuSans-6f" transform="translate(252.148438 0)"/>
     <use xlink:href="#DejaVuSans-69" transform="translate(313.330078 0)"/>
     <use xlink:href="#DejaVuSans-64" transform="translate(341.113281 0)"/>
    </g>
   </g>
  </g>
  <g id="axes_2">
   <g id="patch_7">
    <path d="M 354.90025 235.9101 
L 609.74525 235.9101 
L 609.74525 26.3301 
L 354.90025 26.3301 
z
" style="fill: #ffffff"/>
   </g>
   <g id="matplotlib.axis_3">
    <g id="xtick_8">
     <g id="line2d_30">
      <path d="M 366.484114 235.9101 
L 366.484114 26.3301 
" clip-path="url(#p3bf2b4a157)" style="fill: none; stroke-dasharray: 3.7,1.6; stroke-dashoffset: 0; stroke: #cbcbcb; stroke-opacity: 0.35"/>
     </g>
     <g id="line2d_31"/>
     <g id="text_18">
      <!-- −6 -->
      <g transform="translate(357.638801 248.528225) scale(0.12 -0.12)">
       <use xlink:href="#DejaVuSans-2212"/>
       <use xlink:href="#DejaVuSans-36" transform="translate(83.789062 0)"/>
      </g>
     </g>
    </g>
    <g id="xtick_9">
     <g id="line2d_32">
      <path d="M 405.096992 235.9101 
L 405.096992 26.3301 
" clip-path="url(#p3bf2b4a157)" style="fill: none; stroke-dasharray: 3.7,1.6; stroke-dashoffset: 0; stroke: #cbcbcb; stroke-opacity: 0.35"/>
     </g>
     <g id="line2d_33"/>
     <g id="text_19">
      <!-- −4 -->
      <g transform="translate(396.25168 248.528225) scale(0.12 -0.12)">
       <use xlink:href="#DejaVuSans-2212"/>
       <use xlink:href="#DejaVuSans-34" transform="translate(83.789062 0)"/>
      </g>
     </g>
    </g>
    <g id="xtick_10">
     <g id="line2d_34">
      <path d="M 443.709871 235.9101 
L 443.709871 26.3301 
" clip-path="url(#p3bf2b4a157)" style="fill: none; stroke-dasharray: 3.7,1.6; stroke-dashoffset: 0; stroke: #cbcbcb; stroke-opacity: 0.35"/>
     </g>
     <g id="line2d_35"/>
     <g id="text_20">
      <!-- −2 -->
      <g transform="translate(434.864559 248.528225) scale(0.12 -0.12)">
       <use xlink:href="#DejaVuSans-2212"/>
       <use xlink:href="#DejaVuSans-32" transform="translate(83.789062 0)"/>
      </g>
     </g>
    </g>
    <g id="xtick_11">
     <g id="line2d_36">
      <path d="M 482.32275 235.9101 
L 482.32275 26.3301 
" clip-path="url(#p3bf2b4a157)" style="fill: none; stroke-dasharray: 3.7,1.6; stroke-dashoffset: 0; stroke: #cbcbcb; stroke-opacity: 0.35"/>
     </g>
     <g id="line2d_37"/>
     <g id="text_21">
      <!-- 0 -->
      <g transform="translate(478.50525 248.528225) scale(0.12 -0.12)">
       <use xlink:href="#DejaVuSans-30"/>
      </g>
     </g>
    </g>
    <g id="xtick_12">
     <g id="line2d_38">
      <path d="M 520.935629 235.9101 
L 520.935629 26.3301 
" clip-path="url(#p3bf2b4a157)" style="fill: none; stroke-dasharray: 3.7,1.6; stroke-dashoffset: 0; stroke: #cbcbcb; stroke-opacity: 0.35"/>
     </g>
     <g id="line2d_39"/>
     <g id="text_22">
      <!-- 2 -->
      <g transform="translate(517.118129 248.528225) scale(0.12 -0.12)">
       <use xlink:href="#DejaVuSans-32"/>
      </g>
     </g>
    </g>
    <g id="xtick_13">
     <g id="line2d_40">
      <path d="M 559.548508 235.9101 
L 559.548508 26.3301 
" clip-path="url(#p3bf2b4a157)" style="fill: none; stroke-dasharray: 3.7,1.6; stroke-dashoffset: 0; stroke: #cbcbcb; stroke-opacity: 0.35"/>
     </g>
     <g id="line2d_41"/>
     <g id="text_23">
      <!-- 4 -->
      <g transform="translate(555.731008 248.528225) scale(0.12 -0.12)">
       <use xlink:href="#DejaVuSans-34"/>
      </g>
     </g>
    </g>
    <g id="xtick_14">
     <g id="line2d_42">
      <path d="M 598.161386 235.9101 
L 598.161386 26.3301 
" clip-path="url(#p3bf2b4a157)" style="fill: none; stroke-dasharray: 3.7,1.6; stroke-dashoffset: 0; stroke: #cbcbcb; stroke-opacity: 0.35"/>
     </g>
     <g id="line2d_43"/>
     <g id="text_24">
      <!-- 6 -->
      <g transform="translate(594.343886 248.528225) scale(0.12 -0.12)">
       <use xlink:href="#DejaVuSans-36"/>
      </g>
     </g>
    </g>
    <g id="text_25">
     <!-- z -->
     <g transform="translate(478.543875 265.9656) scale(0.144 -0.144)">
      <use xlink:href="#DejaVuSans-7a"/>
     </g>
    </g>
   </g>
   <g id="matplotlib.axis_4">
    <g id="ytick_7">
     <g id="line2d_44">
      <path d="M 354.90025 226.383736 
L 609.74525 226.383736 
" clip-path="url(#p3bf2b4a157)" style="fill: none; stroke-dasharray: 3.7,1.6; stroke-dashoffset: 0; stroke: #cbcbcb; stroke-opacity: 0.35"/>
     </g>
     <g id="line2d_45"/>
     <g id="text_26">
      <!-- 0 -->
      <g transform="translate(343.76525 230.942799) scale(0.12 -0.12)">
       <use xlink:href="#DejaVuSans-30"/>
      </g>
     </g>
    </g>
    <g id="ytick_8">
     <g id="line2d_46">
      <path d="M 354.90025 194.629191 
L 609.74525 194.629191 
" clip-path="url(#p3bf2b4a157)" style="fill: none; stroke-dasharray: 3.7,1.6; stroke-dashoffset: 0; stroke: #cbcbcb; stroke-opacity: 0.35"/>
     </g>
     <g id="line2d_47"/>
     <g id="text_27">
      <!-- 1 -->
      <g transform="translate(343.76525 199.188253) scale(0.12 -0.12)">
       <use xlink:href="#DejaVuSans-31"/>
      </g>
     </g>
    </g>
    <g id="ytick_9">
     <g id="line2d_48">
      <path d="M 354.90025 162.874645 
L 609.74525 162.874645 
" clip-path="url(#p3bf2b4a157)" style="fill: none; stroke-dasharray: 3.7,1.6; stroke-dashoffset: 0; stroke: #cbcbcb; stroke-opacity: 0.35"/>
     </g>
     <g id="line2d_49"/>
     <g id="text_28">
      <!-- 2 -->
      <g transform="translate(343.76525 167.433708) scale(0.12 -0.12)">
       <use xlink:href="#DejaVuSans-32"/>
      </g>
     </g>
    </g>
    <g id="ytick_10">
     <g id="line2d_50">
      <path d="M 354.90025 131.1201 
L 609.74525 131.1201 
" clip-path="url(#p3bf2b4a157)" style="fill: none; stroke-dasharray: 3.7,1.6; stroke-dashoffset: 0; stroke: #cbcbcb; stroke-opacity: 0.35"/>
     </g>
     <g id="line2d_51"/>
     <g id="text_29">
      <!-- 3 -->
      <g transform="translate(343.76525 135.679162) scale(0.12 -0.12)">
       <defs>
        <path id="DejaVuSans-33" d="M 2597 2516 
Q 3050 2419 3304 2112 
Q 3559 1806 3559 1356 
Q 3559 666 3084 287 
Q 2609 -91 1734 -91 
Q 1441 -91 1130 -33 
Q 819 25 488 141 
L 488 750 
Q 750 597 1062 519 
Q 1375 441 1716 441 
Q 2309 441 2620 675 
Q 2931 909 2931 1356 
Q 2931 1769 2642 2001 
Q 2353 2234 1838 2234 
L 1294 2234 
L 1294 2753 
L 1863 2753 
Q 2328 2753 2575 2939 
Q 2822 3125 2822 3475 
Q 2822 3834 2567 4026 
Q 2313 4219 1838 4219 
Q 1578 4219 1281 4162 
Q 984 4106 628 3988 
L 628 4550 
Q 988 4650 1302 4700 
Q 1616 4750 1894 4750 
Q 2613 4750 3031 4423 
Q 3450 4097 3450 3541 
Q 3450 3153 3228 2886 
Q 3006 2619 2597 2516 
z
" transform="scale(0.015625)"/>
       </defs>
       <use xlink:href="#DejaVuSans-33"/>
      </g>
     </g>
    </g>
    <g id="ytick_11">
     <g id="line2d_52">
      <path d="M 354.90025 99.365555 
L 609.74525 99.365555 
" clip-path="url(#p3bf2b4a157)" style="fill: none; stroke-dasharray: 3.7,1.6; stroke-dashoffset: 0; stroke: #cbcbcb; stroke-opacity: 0.35"/>
     </g>
     <g id="line2d_53"/>
     <g id="text_30">
      <!-- 4 -->
      <g transform="translate(343.76525 103.924617) scale(0.12 -0.12)">
       <use xlink:href="#DejaVuSans-34"/>
      </g>
     </g>
    </g>
    <g id="ytick_12">
     <g id="line2d_54">
      <path d="M 354.90025 67.611009 
L 609.74525 67.611009 
" clip-path="url(#p3bf2b4a157)" style="fill: none; stroke-dasharray: 3.7,1.6; stroke-dashoffset: 0; stroke: #cbcbcb; stroke-opacity: 0.35"/>
     </g>
     <g id="line2d_55"/>
     <g id="text_31">
      <!-- 5 -->
      <g transform="translate(343.76525 72.170072) scale(0.12 -0.12)">
       <defs>
        <path id="DejaVuSans-35" d="M 691 4666 
L 3169 4666 
L 3169 4134 
L 1269 4134 
L 1269 2991 
Q 1406 3038 1543 3061 
Q 1681 3084 1819 3084 
Q 2600 3084 3056 2656 
Q 3513 2228 3513 1497 
Q 3513 744 3044 326 
Q 2575 -91 1722 -91 
Q 1428 -91 1123 -41 
Q 819 9 494 109 
L 494 744 
Q 775 591 1075 516 
Q 1375 441 1709 441 
Q 2250 441 2565 725 
Q 2881 1009 2881 1497 
Q 2881 1984 2565 2268 
Q 2250 2553 1709 2553 
Q 1456 2553 1204 2497 
Q 953 2441 691 2322 
L 691 4666 
z
" transform="scale(0.015625)"/>
       </defs>
       <use xlink:href="#DejaVuSans-35"/>
      </g>
     </g>
    </g>
    <g id="ytick_13">
     <g id="line2d_56">
      <path d="M 354.90025 35.856464 
L 609.74525 35.856464 
" clip-path="url(#p3bf2b4a157)" style="fill: none; stroke-dasharray: 3.7,1.6; stroke-dashoffset: 0; stroke: #cbcbcb; stroke-opacity: 0.35"/>
     </g>
     <g id="line2d_57"/>
     <g id="text_32">
      <!-- 6 -->
      <g transform="translate(343.76525 40.415526) scale(0.12 -0.12)">
       <use xlink:href="#DejaVuSans-36"/>
      </g>
     </g>
    </g>
    <g id="text_33">
     <!-- g(z) -->
     <g transform="translate(336.7705 145.0881) rotate(-90) scale(0.144 -0.144)">
      <use xlink:href="#DejaVuSans-67"/>
      <use xlink:href="#DejaVuSans-28" transform="translate(63.476562 0)"/>
      <use xlink:href="#DejaVuSans-7a" transform="translate(102.490234 0)"/>
      <use xlink:href="#DejaVuSans-29" transform="translate(154.980469 0)"/>
     </g>
    </g>
   </g>
   <g id="line2d_58">
    <path d="M 366.484114 226.383736 
L 482.032428 226.383736 
L 482.613072 225.906224 
L 598.161386 35.856464 
L 598.161386 35.856464 
" clip-path="url(#p3bf2b4a157)" style="fill: none; stroke: #0e7490; stroke-width: 3"/>
   </g>
   <g id="line2d_59">
    <path d="M 354.90025 226.383736 
L 609.74525 226.383736 
" clip-path="url(#p3bf2b4a157)" style="fill: none; stroke: #000000; stroke-width: 0.8"/>
   </g>
   <g id="line2d_60">
    <path d="M 482.32275 235.9101 
L 482.32275 26.3301 
" clip-path="url(#p3bf2b4a157)" style="fill: none; stroke: #000000; stroke-width: 0.8"/>
   </g>
   <g id="patch_8">
    <path d="M 354.90025 235.9101 
L 354.90025 26.3301 
" style="fill: none; stroke: #f0f0f0; stroke-width: 3; stroke-linejoin: miter; stroke-linecap: square"/>
   </g>
   <g id="patch_9">
    <path d="M 609.74525 235.9101 
L 609.74525 26.3301 
" style="fill: none; stroke: #f0f0f0; stroke-width: 3; stroke-linejoin: miter; stroke-linecap: square"/>
   </g>
   <g id="patch_10">
    <path d="M 354.90025 235.9101 
L 609.74525 235.9101 
" style="fill: none; stroke: #f0f0f0; stroke-width: 3; stroke-linejoin: miter; stroke-linecap: square"/>
   </g>
   <g id="patch_11">
    <path d="M 354.90025 26.3301 
L 609.74525 26.3301 
" style="fill: none; stroke: #f0f0f0; stroke-width: 3; stroke-linejoin: miter; stroke-linecap: square"/>
   </g>
   <g id="text_34">
    <!-- $g(z) = \max(0, z)$ -->
    <g transform="translate(367.6425 56.4081) scale(0.12 -0.12)">
     <defs>
      <path id="DejaVuSans-61" d="M 2194 1759 
Q 1497 1759 1228 1600 
Q 959 1441 959 1056 
Q 959 750 1161 570 
Q 1363 391 1709 391 
Q 2188 391 2477 730 
Q 2766 1069 2766 1631 
L 2766 1759 
L 2194 1759 
z
M 3341 1997 
L 3341 0 
L 2766 0 
L 2766 531 
Q 2569 213 2275 61 
Q 1981 -91 1556 -91 
Q 1019 -91 701 211 
Q 384 513 384 1019 
Q 384 1609 779 1909 
Q 1175 2209 1959 2209 
L 2766 2209 
L 2766 2266 
Q 2766 2663 2505 2880 
Q 2244 3097 1772 3097 
Q 1472 3097 1187 3025 
Q 903 2953 641 2809 
L 641 3341 
Q 956 3463 1253 3523 
Q 1550 3584 1831 3584 
Q 2591 3584 2966 3190 
Q 3341 2797 3341 1997 
z
" transform="scale(0.015625)"/>
      <path id="DejaVuSans-78" d="M 3513 3500 
L 2247 1797 
L 3578 0 
L 2900 0 
L 1881 1375 
L 863 0 
L 184 0 
L 1544 1831 
L 300 3500 
L 978 3500 
L 1906 2253 
L 2834 3500 
L 3513 3500 
z
" transform="scale(0.015625)"/>
      <path id="DejaVuSans-2c" d="M 750 794 
L 1409 794 
L 1409 256 
L 897 -744 
L 494 -744 
L 750 256 
L 750 794 
z
" transform="scale(0.015625)"/>
     </defs>
     <use xlink:href="#DejaVuSans-Oblique-67" transform="translate(0 0.125)"/>
     <use xlink:href="#DejaVuSans-28" transform="translate(63.476562 0.125)"/>
     <use xlink:href="#DejaVuSans-Oblique-7a" transform="translate(102.490234 0.125)"/>
     <use xlink:href="#DejaVuSans-29" transform="translate(154.980469 0.125)"/>
     <use xlink:href="#DejaVuSans-3d" transform="translate(213.476562 0.125)"/>
     <use xlink:href="#DejaVuSans-6d" transform="translate(316.748047 0.125)"/>
     <use xlink:href="#DejaVuSans-61" transform="translate(414.160156 0.125)"/>
     <use xlink:href="#DejaVuSans-78" transform="translate(475.439453 0.125)"/>
     <use xlink:href="#DejaVuSans-28" transform="translate(534.619141 0.125)"/>
     <use xlink:href="#DejaVuSans-30" transform="translate(573.632812 0.125)"/>
     <use xlink:href="#DejaVuSans-2c" transform="translate(637.255859 0.125)"/>
     <use xlink:href="#DejaVuSans-Oblique-7a" transform="translate(688.525391 0.125)"/>
     <use xlink:href="#DejaVuSans-29" transform="translate(741.015625 0.125)"/>
    </g>
   </g>
   <g id="text_35">
    <!-- ReLU -->
    <g style="fill: #808080" transform="translate(460.6863 20.3301) scale(0.1728 -0.1728)">
     <defs>
      <path id="DejaVuSans-52" d="M 2841 2188 
Q 3044 2119 3236 1894 
Q 3428 1669 3622 1275 
L 4263 0 
L 3584 0 
L 2988 1197 
Q 2756 1666 2539 1819 
Q 2322 1972 1947 1972 
L 1259 1972 
L 1259 0 
L 628 0 
L 628 4666 
L 2053 4666 
Q 2853 4666 3247 4331 
Q 3641 3997 3641 3322 
Q 3641 2881 3436 2590 
Q 3231 2300 2841 2188 
z
M 1259 4147 
L 1259 2491 
L 2053 2491 
Q 2509 2491 2742 2702 
Q 2975 2913 2975 3322 
Q 2975 3731 2742 3939 
Q 2509 4147 2053 4147 
L 1259 4147 
z
" transform="scale(0.015625)"/>
      <path id="DejaVuSans-65" d="M 3597 1894 
L 3597 1613 
L 953 1613 
Q 991 1019 1311 708 
Q 1631 397 2203 397 
Q 2534 397 2845 478 
Q 3156 559 3463 722 
L 3463 178 
Q 3153 47 2828 -22 
Q 2503 -91 2169 -91 
Q 1331 -91 842 396 
Q 353 884 353 1716 
Q 353 2575 817 3079 
Q 1281 3584 2069 3584 
Q 2775 3584 3186 3129 
Q 3597 2675 3597 1894 
z
M 3022 2063 
Q 3016 2534 2758 2815 
Q 2500 3097 2075 3097 
Q 1594 3097 1305 2825 
Q 1016 2553 972 2059 
L 3022 2063 
z
" transform="scale(0.015625)"/>
      <path id="DejaVuSans-4c" d="M 628 4666 
L 1259 4666 
L 1259 531 
L 3531 531 
L 3531 0 
L 628 0 
L 628 4666 
z
" transform="scale(0.015625)"/>
      <path id="DejaVuSans-55" d="M 556 4666 
L 1191 4666 
L 1191 1831 
Q 1191 1081 1462 751 
Q 1734 422 2344 422 
Q 2950 422 3222 751 
Q 3494 1081 3494 1831 
L 3494 4666 
L 4128 4666 
L 4128 1753 
Q 4128 841 3676 375 
Q 3225 -91 2344 -91 
Q 1459 -91 1007 375 
Q 556 841 556 1753 
L 556 4666 
z
" transform="scale(0.015625)"/>
     </defs>
     <use xlink:href="#DejaVuSans-52"/>
     <use xlink:href="#DejaVuSans-65" transform="translate(64.982422 0)"/>
     <use xlink:href="#DejaVuSans-4c" transform="translate(126.505859 0)"/>
     <use xlink:href="#DejaVuSans-55" transform="translate(177.21875 0)"/>
    </g>
   </g>
  </g>
  <g id="axes_3">
   <g id="patch_12">
    <path d="M 662.08025 235.9101 
L 916.92525 235.9101 
L 916.92525 26.3301 
L 662.08025 26.3301 
z
" style="fill: #ffffff"/>
   </g>
   <g id="matplotlib.axis_5">
    <g id="xtick_15">
     <g id="line2d_61">
      <path d="M 673.664114 235.9101 
L 673.664114 26.3301 
" clip-path="url(#pc54818e255)" style="fill: none; stroke-dasharray: 3.7,1.6; stroke-dashoffset: 0; stroke: #cbcbcb; stroke-opacity: 0.35"/>
     </g>
     <g id="line2d_62"/>
     <g id="text_36">
      <!-- −6 -->
      <g transform="translate(664.818801 248.528225) scale(0.12 -0.12)">
       <use xlink:href="#DejaVuSans-2212"/>
       <use xlink:href="#DejaVuSans-36" transform="translate(83.789062 0)"/>
      </g>
     </g>
    </g>
    <g id="xtick_16">
     <g id="line2d_63">
      <path d="M 712.276992 235.9101 
L 712.276992 26.3301 
" clip-path="url(#pc54818e255)" style="fill: none; stroke-dasharray: 3.7,1.6; stroke-dashoffset: 0; stroke: #cbcbcb; stroke-opacity: 0.35"/>
     </g>
     <g id="line2d_64"/>
     <g id="text_37">
      <!-- −4 -->
      <g transform="translate(703.43168 248.528225) scale(0.12 -0.12)">
       <use xlink:href="#DejaVuSans-2212"/>
       <use xlink:href="#DejaVuSans-34" transform="translate(83.789062 0)"/>
      </g>
     </g>
    </g>
    <g id="xtick_17">
     <g id="line2d_65">
      <path d="M 750.889871 235.9101 
L 750.889871 26.3301 
" clip-path="url(#pc54818e255)" style="fill: none; stroke-dasharray: 3.7,1.6; stroke-dashoffset: 0; stroke: #cbcbcb; stroke-opacity: 0.35"/>
     </g>
     <g id="line2d_66"/>
     <g id="text_38">
      <!-- −2 -->
      <g transform="translate(742.044559 248.528225) scale(0.12 -0.12)">
       <use xlink:href="#DejaVuSans-2212"/>
       <use xlink:href="#DejaVuSans-32" transform="translate(83.789062 0)"/>
      </g>
     </g>
    </g>
    <g id="xtick_18">
     <g id="line2d_67">
      <path d="M 789.50275 235.9101 
L 789.50275 26.3301 
" clip-path="url(#pc54818e255)" style="fill: none; stroke-dasharray: 3.7,1.6; stroke-dashoffset: 0; stroke: #cbcbcb; stroke-opacity: 0.35"/>
     </g>
     <g id="line2d_68"/>
     <g id="text_39">
      <!-- 0 -->
      <g transform="translate(785.68525 248.528225) scale(0.12 -0.12)">
       <use xlink:href="#DejaVuSans-30"/>
      </g>
     </g>
    </g>
    <g id="xtick_19">
     <g id="line2d_69">
      <path d="M 828.115629 235.9101 
L 828.115629 26.3301 
" clip-path="url(#pc54818e255)" style="fill: none; stroke-dasharray: 3.7,1.6; stroke-dashoffset: 0; stroke: #cbcbcb; stroke-opacity: 0.35"/>
     </g>
     <g id="line2d_70"/>
     <g id="text_40">
      <!-- 2 -->
      <g transform="translate(824.298129 248.528225) scale(0.12 -0.12)">
       <use xlink:href="#DejaVuSans-32"/>
      </g>
     </g>
    </g>
    <g id="xtick_20">
     <g id="line2d_71">
      <path d="M 866.728508 235.9101 
L 866.728508 26.3301 
" clip-path="url(#pc54818e255)" style="fill: none; stroke-dasharray: 3.7,1.6; stroke-dashoffset: 0; stroke: #cbcbcb; stroke-opacity: 0.35"/>
     </g>
     <g id="line2d_72"/>
     <g id="text_41">
      <!-- 4 -->
      <g transform="translate(862.911008 248.528225) scale(0.12 -0.12)">
       <use xlink:href="#DejaVuSans-34"/>
      </g>
     </g>
    </g>
    <g id="xtick_21">
     <g id="line2d_73">
      <path d="M 905.341386 235.9101 
L 905.341386 26.3301 
" clip-path="url(#pc54818e255)" style="fill: none; stroke-dasharray: 3.7,1.6; stroke-dashoffset: 0; stroke: #cbcbcb; stroke-opacity: 0.35"/>
     </g>
     <g id="line2d_74"/>
     <g id="text_42">
      <!-- 6 -->
      <g transform="translate(901.523886 248.528225) scale(0.12 -0.12)">
       <use xlink:href="#DejaVuSans-36"/>
      </g>
     </g>
    </g>
    <g id="text_43">
     <!-- z -->
     <g transform="translate(785.723875 265.9656) scale(0.144 -0.144)">
      <use xlink:href="#DejaVuSans-7a"/>
     </g>
    </g>
   </g>
   <g id="matplotlib.axis_6">
    <g id="ytick_14">
     <g id="line2d_75">
      <path d="M 662.08025 226.383736 
L 916.92525 226.383736 
" clip-path="url(#pc54818e255)" style="fill: none; stroke-dasharray: 3.7,1.6; stroke-dashoffset: 0; stroke: #cbcbcb; stroke-opacity: 0.35"/>
     </g>
     <g id="line2d_76"/>
     <g id="text_44">
      <!-- −6 -->
      <g transform="translate(640.889625 230.942799) scale(0.12 -0.12)">
       <use xlink:href="#DejaVuSans-2212"/>
       <use xlink:href="#DejaVuSans-36" transform="translate(83.789062 0)"/>
      </g>
     </g>
    </g>
    <g id="ytick_15">
     <g id="line2d_77">
      <path d="M 662.08025 194.629191 
L 916.92525 194.629191 
" clip-path="url(#pc54818e255)" style="fill: none; stroke-dasharray: 3.7,1.6; stroke-dashoffset: 0; stroke: #cbcbcb; stroke-opacity: 0.35"/>
     </g>
     <g id="line2d_78"/>
     <g id="text_45">
      <!-- −4 -->
      <g transform="translate(640.889625 199.188253) scale(0.12 -0.12)">
       <use xlink:href="#DejaVuSans-2212"/>
       <use xlink:href="#DejaVuSans-34" transform="translate(83.789062 0)"/>
      </g>
     </g>
    </g>
    <g id="ytick_16">
     <g id="line2d_79">
      <path d="M 662.08025 162.874645 
L 916.92525 162.874645 
" clip-path="url(#pc54818e255)" style="fill: none; stroke-dasharray: 3.7,1.6; stroke-dashoffset: 0; stroke: #cbcbcb; stroke-opacity: 0.35"/>
     </g>
     <g id="line2d_80"/>
     <g id="text_46">
      <!-- −2 -->
      <g transform="translate(640.889625 167.433708) scale(0.12 -0.12)">
       <use xlink:href="#DejaVuSans-2212"/>
       <use xlink:href="#DejaVuSans-32" transform="translate(83.789062 0)"/>
      </g>
     </g>
    </g>
    <g id="ytick_17">
     <g id="line2d_81">
      <path d="M 662.08025 131.1201 
L 916.92525 131.1201 
" clip-path="url(#pc54818e255)" style="fill: none; stroke-dasharray: 3.7,1.6; stroke-dashoffset: 0; stroke: #cbcbcb; stroke-opacity: 0.35"/>
     </g>
     <g id="line2d_82"/>
     <g id="text_47">
      <!-- 0 -->
      <g transform="translate(650.94525 135.679163) scale(0.12 -0.12)">
       <use xlink:href="#DejaVuSans-30"/>
      </g>
     </g>
    </g>
    <g id="ytick_18">
     <g id="line2d_83">
      <path d="M 662.08025 99.365555 
L 916.92525 99.365555 
" clip-path="url(#pc54818e255)" style="fill: none; stroke-dasharray: 3.7,1.6; stroke-dashoffset: 0; stroke: #cbcbcb; stroke-opacity: 0.35"/>
     </g>
     <g id="line2d_84"/>
     <g id="text_48">
      <!-- 2 -->
      <g transform="translate(650.94525 103.924617) scale(0.12 -0.12)">
       <use xlink:href="#DejaVuSans-32"/>
      </g>
     </g>
    </g>
    <g id="ytick_19">
     <g id="line2d_85">
      <path d="M 662.08025 67.611009 
L 916.92525 67.611009 
" clip-path="url(#pc54818e255)" style="fill: none; stroke-dasharray: 3.7,1.6; stroke-dashoffset: 0; stroke: #cbcbcb; stroke-opacity: 0.35"/>
     </g>
     <g id="line2d_86"/>
     <g id="text_49">
      <!-- 4 -->
      <g transform="translate(650.94525 72.170072) scale(0.12 -0.12)">
       <use xlink:href="#DejaVuSans-34"/>
      </g>
     </g>
    </g>
    <g id="ytick_20">
     <g id="line2d_87">
      <path d="M 662.08025 35.856464 
L 916.92525 35.856464 
" clip-path="url(#pc54818e255)" style="fill: none; stroke-dasharray: 3.7,1.6; stroke-dashoffset: 0; stroke: #cbcbcb; stroke-opacity: 0.35"/>
     </g>
     <g id="line2d_88"/>
     <g id="text_50">
      <!-- 6 -->
      <g transform="translate(650.94525 40.415526) scale(0.12 -0.12)">
       <use xlink:href="#DejaVuSans-36"/>
      </g>
     </g>
    </g>
    <g id="text_51">
     <!-- g(z) -->
     <g transform="translate(633.894875 145.0881) rotate(-90) scale(0.144 -0.144)">
      <use xlink:href="#DejaVuSans-67"/>
      <use xlink:href="#DejaVuSans-28" transform="translate(63.476562 0)"/>
      <use xlink:href="#DejaVuSans-7a" transform="translate(102.490234 0)"/>
      <use xlink:href="#DejaVuSans-29" transform="translate(154.980469 0)"/>
     </g>
    </g>
   </g>
   <g id="line2d_89">
    <path d="M 673.664114 226.383736 
L 905.341386 35.856464 
L 905.341386 35.856464 
" clip-path="url(#pc54818e255)" style="fill: none; stroke: #7030a0; stroke-width: 3"/>
   </g>
   <g id="line2d_90">
    <path d="M 662.08025 131.1201 
L 916.92525 131.1201 
" clip-path="url(#pc54818e255)" style="fill: none; stroke: #000000; stroke-width: 0.8"/>
   </g>
   <g id="line2d_91">
    <path d="M 789.50275 235.9101 
L 789.50275 26.3301 
" clip-path="url(#pc54818e255)" style="fill: none; stroke: #000000; stroke-width: 0.8"/>
   </g>
   <g id="patch_13">
    <path d="M 662.08025 235.9101 
L 662.08025 26.3301 
" style="fill: none; stroke: #f0f0f0; stroke-width: 3; stroke-linejoin: miter; stroke-linecap: square"/>
   </g>
   <g id="patch_14">
    <path d="M 916.92525 235.9101 
L 916.92525 26.3301 
" style="fill: none; stroke: #f0f0f0; stroke-width: 3; stroke-linejoin: miter; stroke-linecap: square"/>
   </g>
   <g id="patch_15">
    <path d="M 662.08025 235.9101 
L 916.92525 235.9101 
" style="fill: none; stroke: #f0f0f0; stroke-width: 3; stroke-linejoin: miter; stroke-linecap: square"/>
   </g>
   <g id="patch_16">
    <path d="M 662.08025 26.3301 
L 916.92525 26.3301 
" style="fill: none; stroke: #f0f0f0; stroke-width: 3; stroke-linejoin: miter; stroke-linecap: square"/>
   </g>
   <g id="text_52">
    <!-- $g(z) = z$ -->
    <g transform="translate(674.8225 56.4081) scale(0.12 -0.12)">
     <use xlink:href="#DejaVuSans-Oblique-67" transform="translate(0 0.125)"/>
     <use xlink:href="#DejaVuSans-28" transform="translate(63.476562 0.125)"/>
     <use xlink:href="#DejaVuSans-Oblique-7a" transform="translate(102.490234 0.125)"/>
     <use xlink:href="#DejaVuSans-29" transform="translate(154.980469 0.125)"/>
     <use xlink:href="#DejaVuSans-3d" transform="translate(213.476562 0.125)"/>
     <use xlink:href="#DejaVuSans-Oblique-7a" transform="translate(316.748047 0.125)"/>
    </g>
   </g>
   <g id="text_53">
    <!-- Linear -->
    <g style="fill: #808080" transform="translate(762.6499 20.3301) scale(0.1728 -0.1728)">
     <defs>
      <path id="DejaVuSans-6e" d="M 3513 2113 
L 3513 0 
L 2938 0 
L 2938 2094 
Q 2938 2591 2744 2837 
Q 2550 3084 2163 3084 
Q 1697 3084 1428 2787 
Q 1159 2491 1159 1978 
L 1159 0 
L 581 0 
L 581 3500 
L 1159 3500 
L 1159 2956 
Q 1366 3272 1645 3428 
Q 1925 3584 2291 3584 
Q 2894 3584 3203 3211 
Q 3513 2838 3513 2113 
z
" transform="scale(0.015625)"/>
      <path id="DejaVuSans-72" d="M 2631 2963 
Q 2534 3019 2420 3045 
Q 2306 3072 2169 3072 
Q 1681 3072 1420 2755 
Q 1159 2438 1159 1844 
L 1159 0 
L 581 0 
L 581 3500 
L 1159 3500 
L 1159 2956 
Q 1341 3275 1631 3429 
Q 1922 3584 2338 3584 
Q 2397 3584 2469 3576 
Q 2541 3569 2628 3553 
L 2631 2963 
z
" transform="scale(0.015625)"/>
     </defs>
     <use xlink:href="#DejaVuSans-4c"/>
     <use xlink:href="#DejaVuSans-69" transform="translate(55.712891 0)"/>
     <use xlink:href="#DejaVuSans-6e" transform="translate(83.496094 0)"/>
     <use xlink:href="#DejaVuSans-65" transform="translate(146.875 0)"/>
     <use xlink:href="#DejaVuSans-61" transform="translate(208.398438 0)"/>
     <use xlink:href="#DejaVuSans-72" transform="translate(269.677734 0)"/>
    </g>
   </g>
  </g>
 </g>
 <defs>
  <clipPath id="pd5d75a7ea4">
   <rect x="47.72025" y="26.3301" width="254.845" height="209.58"/>
  </clipPath>
  <clipPath id="p3bf2b4a157">
   <rect x="354.90025" y="26.3301" width="254.845" height="209.58"/>
  </clipPath>
  <clipPath id="pc54818e255">
   <rect x="662.08025" y="26.3301" width="254.845" height="209.58"/>
  </clipPath>
 </defs>
</svg>
