<?xml version="1.0" encoding="utf-8" standalone="no"?>
<!DOCTYPE svg PUBLIC "-//W3C//DTD SVG 1.1//EN"
  "http://www.w3.org/Graphics/SVG/1.1/DTD/svg11.dtd">
<svg xmlns:xlink="http://www.w3.org/1999/xlink" width="999.22875pt" height="386.078437pt" viewBox="0 0 999.22875 386.078437" xmlns="http://www.w3.org/2000/svg" version="1.1">
 <metadata>
  <rdf:RDF xmlns:dc="http://purl.org/dc/elements/1.1/" xmlns:cc="http://creativecommons.org/ns#" xmlns:rdf="http://www.w3.org/1999/02/22-rdf-syntax-ns#">
   <cc:Work>
    <dc:type rdf:resource="http://purl.org/dc/dcmitype/StillImage"/>
    <dc:date>2026-07-23T11:06:14.972268</dc:date>
    <dc:format>image/svg+xml</dc:format>
    <dc:creator>
     <cc:Agent>
      <dc:title>Matplotlib v3.10.8, https://matplotlib.org/</dc:title>
     </cc:Agent>
    </dc:creator>
   </cc:Work>
  </rdf:RDF>
 </metadata>
 <defs>
  <style type="text/css">*{stroke-linejoin: round; stroke-linecap: butt}</style>
 </defs>
 <g id="figure_1">
  <g id="patch_1">
   <path d="M 0 386.078437 
L 999.22875 386.078437 
L 999.22875 0 
L 0 0 
z
" style="fill: #ffffff"/>
  </g>
  <g id="axes_1">
   <g id="patch_2">
    <path d="M 43.588125 347.554375 
L 490.30375 347.554375 
L 490.30375 23.304375 
L 43.588125 23.304375 
z
" style="fill: #ffffff"/>
   </g>
   <g id="matplotlib.axis_1">
    <g id="xtick_1">
     <g id="line2d_1">
      <path d="M 43.588125 347.554375 
L 43.588125 23.304375 
" clip-path="url(#p5e7dd568e0)" style="fill: none; stroke-dasharray: 2.96,1.28; stroke-dashoffset: 0; stroke: #b0b0b0; stroke-opacity: 0.4; stroke-width: 0.8"/>
     </g>
     <g id="line2d_2">
      <defs>
       <path id="ma98e22cd61" d="M 0 0 
L 0 3.5 
" style="stroke: #000000; stroke-width: 0.8"/>
      </defs>
      <g>
       <use xlink:href="#ma98e22cd61" x="43.588125" y="347.554375" style="stroke: #000000; stroke-width: 0.8"/>
      </g>
     </g>
     <g id="text_1">
      <!-- −2 -->
      <g transform="translate(36.217031 362.152812) scale(0.1 -0.1)">
       <defs>
        <path id="DejaVuSans-2212" d="M 678 2272 
L 4684 2272 
L 4684 1741 
L 678 1741 
L 678 2272 
z
" transform="scale(0.015625)"/>
        <path id="DejaVuSans-32" d="M 1228 531 
L 3431 531 
L 3431 0 
L 469 0 
L 469 531 
Q 828 903 1448 1529 
Q 2069 2156 2228 2338 
Q 2531 2678 2651 2914 
Q 2772 3150 2772 3378 
Q 2772 3750 2511 3984 
Q 2250 4219 1831 4219 
Q 1534 4219 1204 4116 
Q 875 4013 500 3803 
L 500 4441 
Q 881 4594 1212 4672 
Q 1544 4750 1819 4750 
Q 2544 4750 2975 4387 
Q 3406 4025 3406 3419 
Q 3406 3131 3298 2873 
Q 3191 2616 2906 2266 
Q 2828 2175 2409 1742 
Q 1991 1309 1228 531 
z
" transform="scale(0.015625)"/>
       </defs>
       <use xlink:href="#DejaVuSans-2212"/>
       <use xlink:href="#DejaVuSans-32" transform="translate(83.789062 0)"/>
      </g>
     </g>
    </g>
    <g id="xtick_2">
     <g id="line2d_3">
      <path d="M 155.267031 347.554375 
L 155.267031 23.304375 
" clip-path="url(#p5e7dd568e0)" style="fill: none; stroke-dasharray: 2.96,1.28; stroke-dashoffset: 0; stroke: #b0b0b0; stroke-opacity: 0.4; stroke-width: 0.8"/>
     </g>
     <g id="line2d_4">
      <g>
       <use xlink:href="#ma98e22cd61" x="155.267031" y="347.554375" style="stroke: #000000; stroke-width: 0.8"/>
      </g>
     </g>
     <g id="text_2">
      <!-- −1 -->
      <g transform="translate(147.895938 362.152812) scale(0.1 -0.1)">
       <defs>
        <path id="DejaVuSans-31" d="M 794 531 
L 1825 531 
L 1825 4091 
L 703 3866 
L 703 4441 
L 1819 4666 
L 2450 4666 
L 2450 531 
L 3481 531 
L 3481 0 
L 794 0 
L 794 531 
z
" transform="scale(0.015625)"/>
       </defs>
       <use xlink:href="#DejaVuSans-2212"/>
       <use xlink:href="#DejaVuSans-31" transform="translate(83.789062 0)"/>
      </g>
     </g>
    </g>
    <g id="xtick_3">
     <g id="line2d_5">
      <path d="M 266.945938 347.554375 
L 266.945938 23.304375 
" clip-path="url(#p5e7dd568e0)" style="fill: none; stroke-dasharray: 2.96,1.28; stroke-dashoffset: 0; stroke: #b0b0b0; stroke-opacity: 0.4; stroke-width: 0.8"/>
     </g>
     <g id="line2d_6">
      <g>
       <use xlink:href="#ma98e22cd61" x="266.945938" y="347.554375" style="stroke: #000000; stroke-width: 0.8"/>
      </g>
     </g>
     <g id="text_3">
      <!-- 0 -->
      <g transform="translate(263.764688 362.152812) scale(0.1 -0.1)">
       <defs>
        <path id="DejaVuSans-30" d="M 2034 4250 
Q 1547 4250 1301 3770 
Q 1056 3291 1056 2328 
Q 1056 1369 1301 889 
Q 1547 409 2034 409 
Q 2525 409 2770 889 
Q 3016 1369 3016 2328 
Q 3016 3291 2770 3770 
Q 2525 4250 2034 4250 
z
M 2034 4750 
Q 2819 4750 3233 4129 
Q 3647 3509 3647 2328 
Q 3647 1150 3233 529 
Q 2819 -91 2034 -91 
Q 1250 -91 836 529 
Q 422 1150 422 2328 
Q 422 3509 836 4129 
Q 1250 4750 2034 4750 
z
" transform="scale(0.015625)"/>
       </defs>
       <use xlink:href="#DejaVuSans-30"/>
      </g>
     </g>
    </g>
    <g id="xtick_4">
     <g id="line2d_7">
      <path d="M 378.624844 347.554375 
L 378.624844 23.304375 
" clip-path="url(#p5e7dd568e0)" style="fill: none; stroke-dasharray: 2.96,1.28; stroke-dashoffset: 0; stroke: #b0b0b0; stroke-opacity: 0.4; stroke-width: 0.8"/>
     </g>
     <g id="line2d_8">
      <g>
       <use xlink:href="#ma98e22cd61" x="378.624844" y="347.554375" style="stroke: #000000; stroke-width: 0.8"/>
      </g>
     </g>
     <g id="text_4">
      <!-- 1 -->
      <g transform="translate(375.443594 362.152812) scale(0.1 -0.1)">
       <use xlink:href="#DejaVuSans-31"/>
      </g>
     </g>
    </g>
    <g id="xtick_5">
     <g id="line2d_9">
      <path d="M 490.30375 347.554375 
L 490.30375 23.304375 
" clip-path="url(#p5e7dd568e0)" style="fill: none; stroke-dasharray: 2.96,1.28; stroke-dashoffset: 0; stroke: #b0b0b0; stroke-opacity: 0.4; stroke-width: 0.8"/>
     </g>
     <g id="line2d_10">
      <g>
       <use xlink:href="#ma98e22cd61" x="490.30375" y="347.554375" style="stroke: #000000; stroke-width: 0.8"/>
      </g>
     </g>
     <g id="text_5">
      <!-- 2 -->
      <g transform="translate(487.1225 362.152812) scale(0.1 -0.1)">
       <use xlink:href="#DejaVuSans-32"/>
      </g>
     </g>
    </g>
    <g id="text_6">
     <!-- $x$ -->
     <g transform="translate(263.645938 376.590781) scale(0.11 -0.11)">
      <defs>
       <path id="DejaVuSans-Oblique-78" d="M 3841 3500 
L 2234 1784 
L 3219 0 
L 2559 0 
L 1819 1388 
L 531 0 
L -166 0 
L 1556 1844 
L 641 3500 
L 1300 3500 
L 1972 2234 
L 3144 3500 
L 3841 3500 
z
" transform="scale(0.015625)"/>
      </defs>
      <use xlink:href="#DejaVuSans-Oblique-78" transform="translate(0 0.3125)"/>
     </g>
    </g>
   </g>
   <g id="matplotlib.axis_2">
    <g id="ytick_1">
     <g id="line2d_11">
      <path d="M 43.588125 347.554375 
L 490.30375 347.554375 
" clip-path="url(#p5e7dd568e0)" style="fill: none; stroke-dasharray: 2.96,1.28; stroke-dashoffset: 0; stroke: #b0b0b0; stroke-opacity: 0.4; stroke-width: 0.8"/>
     </g>
     <g id="line2d_12">
      <defs>
       <path id="m4f99f28540" d="M 0 0 
L -3.5 0 
" style="stroke: #000000; stroke-width: 0.8"/>
      </defs>
      <g>
       <use xlink:href="#m4f99f28540" x="43.588125" y="347.554375" style="stroke: #000000; stroke-width: 0.8"/>
      </g>
     </g>
     <g id="text_7">
      <!-- −8 -->
      <g transform="translate(21.845938 351.353594) scale(0.1 -0.1)">
       <defs>
        <path id="DejaVuSans-38" d="M 2034 2216 
Q 1584 2216 1326 1975 
Q 1069 1734 1069 1313 
Q 1069 891 1326 650 
Q 1584 409 2034 409 
Q 2484 409 2743 651 
Q 3003 894 3003 1313 
Q 3003 1734 2745 1975 
Q 2488 2216 2034 2216 
z
M 1403 2484 
Q 997 2584 770 2862 
Q 544 3141 544 3541 
Q 544 4100 942 4425 
Q 1341 4750 2034 4750 
Q 2731 4750 3128 4425 
Q 3525 4100 3525 3541 
Q 3525 3141 3298 2862 
Q 3072 2584 2669 2484 
Q 3125 2378 3379 2068 
Q 3634 1759 3634 1313 
Q 3634 634 3220 271 
Q 2806 -91 2034 -91 
Q 1263 -91 848 271 
Q 434 634 434 1313 
Q 434 1759 690 2068 
Q 947 2378 1403 2484 
z
M 1172 3481 
Q 1172 3119 1398 2916 
Q 1625 2713 2034 2713 
Q 2441 2713 2670 2916 
Q 2900 3119 2900 3481 
Q 2900 3844 2670 4047 
Q 2441 4250 2034 4250 
Q 1625 4250 1398 4047 
Q 1172 3844 1172 3481 
z
" transform="scale(0.015625)"/>
       </defs>
       <use xlink:href="#DejaVuSans-2212"/>
       <use xlink:href="#DejaVuSans-38" transform="translate(83.789062 0)"/>
      </g>
     </g>
    </g>
    <g id="ytick_2">
     <g id="line2d_13">
      <path d="M 43.588125 307.023125 
L 490.30375 307.023125 
" clip-path="url(#p5e7dd568e0)" style="fill: none; stroke-dasharray: 2.96,1.28; stroke-dashoffset: 0; stroke: #b0b0b0; stroke-opacity: 0.4; stroke-width: 0.8"/>
     </g>
     <g id="line2d_14">
      <g>
       <use xlink:href="#m4f99f28540" x="43.588125" y="307.023125" style="stroke: #000000; stroke-width: 0.8"/>
      </g>
     </g>
     <g id="text_8">
      <!-- −6 -->
      <g transform="translate(21.845938 310.822344) scale(0.1 -0.1)">
       <defs>
        <path id="DejaVuSans-36" d="M 2113 2584 
Q 1688 2584 1439 2293 
Q 1191 2003 1191 1497 
Q 1191 994 1439 701 
Q 1688 409 2113 409 
Q 2538 409 2786 701 
Q 3034 994 3034 1497 
Q 3034 2003 2786 2293 
Q 2538 2584 2113 2584 
z
M 3366 4563 
L 3366 3988 
Q 3128 4100 2886 4159 
Q 2644 4219 2406 4219 
Q 1781 4219 1451 3797 
Q 1122 3375 1075 2522 
Q 1259 2794 1537 2939 
Q 1816 3084 2150 3084 
Q 2853 3084 3261 2657 
Q 3669 2231 3669 1497 
Q 3669 778 3244 343 
Q 2819 -91 2113 -91 
Q 1303 -91 875 529 
Q 447 1150 447 2328 
Q 447 3434 972 4092 
Q 1497 4750 2381 4750 
Q 2619 4750 2861 4703 
Q 3103 4656 3366 4563 
z
" transform="scale(0.015625)"/>
       </defs>
       <use xlink:href="#DejaVuSans-2212"/>
       <use xlink:href="#DejaVuSans-36" transform="translate(83.789062 0)"/>
      </g>
     </g>
    </g>
    <g id="ytick_3">
     <g id="line2d_15">
      <path d="M 43.588125 266.491875 
L 490.30375 266.491875 
" clip-path="url(#p5e7dd568e0)" style="fill: none; stroke-dasharray: 2.96,1.28; stroke-dashoffset: 0; stroke: #b0b0b0; stroke-opacity: 0.4; stroke-width: 0.8"/>
     </g>
     <g id="line2d_16">
      <g>
       <use xlink:href="#m4f99f28540" x="43.588125" y="266.491875" style="stroke: #000000; stroke-width: 0.8"/>
      </g>
     </g>
     <g id="text_9">
      <!-- −4 -->
      <g transform="translate(21.845938 270.291094) scale(0.1 -0.1)">
       <defs>
        <path id="DejaVuSans-34" d="M 2419 4116 
L 825 1625 
L 2419 1625 
L 2419 4116 
z
M 2253 4666 
L 3047 4666 
L 3047 1625 
L 3713 1625 
L 3713 1100 
L 3047 1100 
L 3047 0 
L 2419 0 
L 2419 1100 
L 313 1100 
L 313 1709 
L 2253 4666 
z
" transform="scale(0.015625)"/>
       </defs>
       <use xlink:href="#DejaVuSans-2212"/>
       <use xlink:href="#DejaVuSans-34" transform="translate(83.789062 0)"/>
      </g>
     </g>
    </g>
    <g id="ytick_4">
     <g id="line2d_17">
      <path d="M 43.588125 225.960625 
L 490.30375 225.960625 
" clip-path="url(#p5e7dd568e0)" style="fill: none; stroke-dasharray: 2.96,1.28; stroke-dashoffset: 0; stroke: #b0b0b0; stroke-opacity: 0.4; stroke-width: 0.8"/>
     </g>
     <g id="line2d_18">
      <g>
       <use xlink:href="#m4f99f28540" x="43.588125" y="225.960625" style="stroke: #000000; stroke-width: 0.8"/>
      </g>
     </g>
     <g id="text_10">
      <!-- −2 -->
      <g transform="translate(21.845938 229.759844) scale(0.1 -0.1)">
       <use xlink:href="#DejaVuSans-2212"/>
       <use xlink:href="#DejaVuSans-32" transform="translate(83.789062 0)"/>
      </g>
     </g>
    </g>
    <g id="ytick_5">
     <g id="line2d_19">
      <path d="M 43.588125 185.429375 
L 490.30375 185.429375 
" clip-path="url(#p5e7dd568e0)" style="fill: none; stroke-dasharray: 2.96,1.28; stroke-dashoffset: 0; stroke: #b0b0b0; stroke-opacity: 0.4; stroke-width: 0.8"/>
     </g>
     <g id="line2d_20">
      <g>
       <use xlink:href="#m4f99f28540" x="43.588125" y="185.429375" style="stroke: #000000; stroke-width: 0.8"/>
      </g>
     </g>
     <g id="text_11">
      <!-- 0 -->
      <g transform="translate(30.225625 189.228594) scale(0.1 -0.1)">
       <use xlink:href="#DejaVuSans-30"/>
      </g>
     </g>
    </g>
    <g id="ytick_6">
     <g id="line2d_21">
      <path d="M 43.588125 144.898125 
L 490.30375 144.898125 
" clip-path="url(#p5e7dd568e0)" style="fill: none; stroke-dasharray: 2.96,1.28; stroke-dashoffset: 0; stroke: #b0b0b0; stroke-opacity: 0.4; stroke-width: 0.8"/>
     </g>
     <g id="line2d_22">
      <g>
       <use xlink:href="#m4f99f28540" x="43.588125" y="144.898125" style="stroke: #000000; stroke-width: 0.8"/>
      </g>
     </g>
     <g id="text_12">
      <!-- 2 -->
      <g transform="translate(30.225625 148.697344) scale(0.1 -0.1)">
       <use xlink:href="#DejaVuSans-32"/>
      </g>
     </g>
    </g>
    <g id="ytick_7">
     <g id="line2d_23">
      <path d="M 43.588125 104.366875 
L 490.30375 104.366875 
" clip-path="url(#p5e7dd568e0)" style="fill: none; stroke-dasharray: 2.96,1.28; stroke-dashoffset: 0; stroke: #b0b0b0; stroke-opacity: 0.4; stroke-width: 0.8"/>
     </g>
     <g id="line2d_24">
      <g>
       <use xlink:href="#m4f99f28540" x="43.588125" y="104.366875" style="stroke: #000000; stroke-width: 0.8"/>
      </g>
     </g>
     <g id="text_13">
      <!-- 4 -->
      <g transform="translate(30.225625 108.166094) scale(0.1 -0.1)">
       <use xlink:href="#DejaVuSans-34"/>
      </g>
     </g>
    </g>
    <g id="ytick_8">
     <g id="line2d_25">
      <path d="M 43.588125 63.835625 
L 490.30375 63.835625 
" clip-path="url(#p5e7dd568e0)" style="fill: none; stroke-dasharray: 2.96,1.28; stroke-dashoffset: 0; stroke: #b0b0b0; stroke-opacity: 0.4; stroke-width: 0.8"/>
     </g>
     <g id="line2d_26">
      <g>
       <use xlink:href="#m4f99f28540" x="43.588125" y="63.835625" style="stroke: #000000; stroke-width: 0.8"/>
      </g>
     </g>
     <g id="text_14">
      <!-- 6 -->
      <g transform="translate(30.225625 67.634844) scale(0.1 -0.1)">
       <use xlink:href="#DejaVuSans-36"/>
      </g>
     </g>
    </g>
    <g id="ytick_9">
     <g id="line2d_27">
      <path d="M 43.588125 23.304375 
L 490.30375 23.304375 
" clip-path="url(#p5e7dd568e0)" style="fill: none; stroke-dasharray: 2.96,1.28; stroke-dashoffset: 0; stroke: #b0b0b0; stroke-opacity: 0.4; stroke-width: 0.8"/>
     </g>
     <g id="line2d_28">
      <g>
       <use xlink:href="#m4f99f28540" x="43.588125" y="23.304375" style="stroke: #000000; stroke-width: 0.8"/>
      </g>
     </g>
     <g id="text_15">
      <!-- 8 -->
      <g transform="translate(30.225625 27.103594) scale(0.1 -0.1)">
       <use xlink:href="#DejaVuSans-38"/>
      </g>
     </g>
    </g>
    <g id="text_16">
     <!-- $y$ -->
     <g transform="translate(15.535938 188.729375) rotate(-90) scale(0.11 -0.11)">
      <defs>
       <path id="DejaVuSans-Oblique-79" d="M 1588 -325 
Q 1188 -997 936 -1164 
Q 684 -1331 294 -1331 
L -159 -1331 
L -63 -850 
L 269 -850 
Q 509 -850 678 -719 
Q 847 -588 1056 -206 
L 1234 128 
L 459 3500 
L 1069 3500 
L 1650 819 
L 3256 3500 
L 3859 3500 
L 1588 -325 
z
" transform="scale(0.015625)"/>
      </defs>
      <use xlink:href="#DejaVuSans-Oblique-79" transform="translate(0 0.3125)"/>
     </g>
    </g>
   </g>
   <g id="line2d_29">
    <path d="M 43.588125 347.554375 
L 48.077729 337.973187 
L 52.567334 328.777119 
L 57.056938 319.958271 
L 61.546542 311.508745 
L 66.036146 303.420639 
L 70.525751 295.686054 
L 75.015355 288.29709 
L 79.504959 281.245846 
L 83.994563 274.524424 
L 88.484168 268.124924 
L 92.973772 262.039444 
L 97.463376 256.260086 
L 101.952981 250.778949 
L 106.442585 245.588134 
L 110.932189 240.679741 
L 115.421793 236.04587 
L 119.911398 231.67862 
L 124.401002 227.570092 
L 128.890606 223.712387 
L 133.38021 220.097603 
L 137.869815 216.717842 
L 142.359419 213.565203 
L 146.849023 210.631786 
L 151.338628 207.909692 
L 155.828232 205.391021 
L 160.317836 203.067872 
L 164.80744 200.932346 
L 169.297045 198.976543 
L 173.786649 197.192563 
L 178.276253 195.572506 
L 185.01066 193.432495 
L 191.745066 191.616874 
L 198.479472 190.098981 
L 205.213879 188.852154 
L 211.948285 187.84973 
L 218.682692 187.065047 
L 225.417098 186.471443 
L 234.396307 185.931122 
L 243.375515 185.619899 
L 254.599526 185.456757 
L 292.761162 185.179067 
L 301.740371 184.816494 
L 310.719579 184.209025 
L 317.453986 183.55469 
L 324.188392 182.700389 
L 330.922798 181.61946 
L 337.657205 180.285239 
L 344.391611 178.671066 
L 351.126018 176.750278 
L 357.860424 174.496212 
L 362.350028 172.795181 
L 366.839633 170.926277 
L 371.329237 168.8816 
L 375.818841 166.65325 
L 380.308445 164.233328 
L 384.79805 161.613932 
L 389.287654 158.787165 
L 393.777258 155.745124 
L 398.266862 152.479912 
L 402.756467 148.983627 
L 407.246071 145.24837 
L 411.735675 141.26624 
L 416.22528 137.029339 
L 420.714884 132.529766 
L 425.204488 127.759621 
L 429.694092 122.711004 
L 434.183697 117.376016 
L 438.673301 111.746756 
L 443.162905 105.815325 
L 447.652509 99.573822 
L 452.142114 93.014348 
L 456.631718 86.129003 
L 461.121322 78.909887 
L 465.610927 71.3491 
L 470.100531 63.438742 
L 474.590135 55.170913 
L 479.079739 46.537714 
L 483.569344 37.531244 
L 488.058948 28.143603 
L 490.30375 23.304375 
L 490.30375 23.304375 
" clip-path="url(#p5e7dd568e0)" style="fill: none; stroke: #4682b4; stroke-width: 2.5; stroke-linecap: square"/>
   </g>
   <g id="line2d_30">
    <path d="M 266.945938 225.960625 
L 271.50426 223.47912 
L 276.062583 220.997615 
L 280.620906 218.51611 
L 285.179228 216.034605 
L 289.737551 213.553099 
L 294.295874 211.071594 
L 298.854196 208.590089 
L 303.412519 206.108584 
L 307.970842 203.627079 
L 312.529165 201.145574 
L 317.087487 198.664069 
L 321.64581 196.182564 
L 326.204133 193.701059 
L 330.762455 191.219554 
L 335.320778 188.738048 
L 339.879101 186.256543 
L 344.437423 183.775038 
L 348.995746 181.293533 
L 353.554069 178.812028 
L 358.112392 176.330523 
L 362.670714 173.849018 
L 367.229037 171.367513 
L 371.78736 168.886008 
L 376.345682 166.404503 
L 380.904005 163.922997 
L 385.462328 161.441492 
L 390.020651 158.959987 
L 394.578973 156.478482 
L 399.137296 153.996977 
L 403.695619 151.515472 
L 408.253941 149.033967 
L 412.812264 146.552462 
L 417.370587 144.070957 
L 421.928909 141.589452 
L 426.487232 139.107946 
L 431.045555 136.626441 
L 435.603878 134.144936 
L 440.1622 131.663431 
L 444.720523 129.181926 
L 449.278846 126.700421 
L 453.837168 124.218916 
L 458.395491 121.737411 
L 462.953814 119.255906 
L 467.512136 116.774401 
L 472.070459 114.292895 
L 476.628782 111.81139 
L 481.187105 109.329885 
L 485.745427 106.84838 
L 490.30375 104.366875 
" clip-path="url(#p5e7dd568e0)" style="fill: none; stroke-dasharray: 7.4,3.2; stroke-dashoffset: 0; stroke: #cc0000; stroke-width: 2"/>
   </g>
   <g id="line2d_31">
    <path d="M 177.602813 185.429375 
L 356.289062 185.429375 
" clip-path="url(#p5e7dd568e0)" style="fill: none; stroke-dasharray: 7.4,3.2; stroke-dashoffset: 0; stroke: #cc7000; stroke-width: 2"/>
   </g>
   <g id="line2d_32">
    <path d="M 43.588125 185.429375 
L 490.30375 185.429375 
" clip-path="url(#p5e7dd568e0)" style="fill: none; stroke: #000000; stroke-width: 0.8; stroke-linecap: square"/>
   </g>
   <g id="line2d_33">
    <path d="M 266.945938 347.554375 
L 266.945938 23.304375 
" clip-path="url(#p5e7dd568e0)" style="fill: none; stroke: #000000; stroke-width: 0.8; stroke-linecap: square"/>
   </g>
   <g id="patch_3">
    <path d="M 43.588125 347.554375 
L 43.588125 23.304375 
" style="fill: none; stroke: #000000; stroke-width: 0.8; stroke-linejoin: miter; stroke-linecap: square"/>
   </g>
   <g id="patch_4">
    <path d="M 490.30375 347.554375 
L 490.30375 23.304375 
" style="fill: none; stroke: #000000; stroke-width: 0.8; stroke-linejoin: miter; stroke-linecap: square"/>
   </g>
   <g id="patch_5">
    <path d="M 43.588125 347.554375 
L 490.30375 347.554375 
" style="fill: none; stroke: #000000; stroke-width: 0.8; stroke-linejoin: miter; stroke-linecap: square"/>
   </g>
   <g id="patch_6">
    <path d="M 43.588125 23.304375 
L 490.30375 23.304375 
" style="fill: none; stroke: #000000; stroke-width: 0.8; stroke-linejoin: miter; stroke-linecap: square"/>
   </g>
   <g id="text_17">
    <!-- $f(x) = x^3$ -->
    <g style="fill: #808080" transform="translate(242.525938 17.304375) scale(0.12 -0.12)">
     <defs>
      <path id="DejaVuSans-Oblique-66" d="M 3059 4863 
L 2969 4384 
L 2419 4384 
Q 2106 4384 1964 4261 
Q 1822 4138 1753 3809 
L 1691 3500 
L 2638 3500 
L 2553 3053 
L 1606 3053 
L 1013 0 
L 434 0 
L 1031 3053 
L 481 3053 
L 563 3500 
L 1113 3500 
L 1159 3744 
Q 1278 4363 1576 4613 
Q 1875 4863 2516 4863 
L 3059 4863 
z
" transform="scale(0.015625)"/>
      <path id="DejaVuSans-28" d="M 1984 4856 
Q 1566 4138 1362 3434 
Q 1159 2731 1159 2009 
Q 1159 1288 1364 580 
Q 1569 -128 1984 -844 
L 1484 -844 
Q 1016 -109 783 600 
Q 550 1309 550 2009 
Q 550 2706 781 3412 
Q 1013 4119 1484 4856 
L 1984 4856 
z
" transform="scale(0.015625)"/>
      <path id="DejaVuSans-29" d="M 513 4856 
L 1013 4856 
Q 1481 4119 1714 3412 
Q 1947 2706 1947 2009 
Q 1947 1309 1714 600 
Q 1481 -109 1013 -844 
L 513 -844 
Q 928 -128 1133 580 
Q 1338 1288 1338 2009 
Q 1338 2731 1133 3434 
Q 928 4138 513 4856 
z
" transform="scale(0.015625)"/>
      <path id="DejaVuSans-3d" d="M 678 2906 
L 4684 2906 
L 4684 2381 
L 678 2381 
L 678 2906 
z
M 678 1631 
L 4684 1631 
L 4684 1100 
L 678 1100 
L 678 1631 
z
" transform="scale(0.015625)"/>
      <path id="DejaVuSans-33" d="M 2597 2516 
Q 3050 2419 3304 2112 
Q 3559 1806 3559 1356 
Q 3559 666 3084 287 
Q 2609 -91 1734 -91 
Q 1441 -91 1130 -33 
Q 819 25 488 141 
L 488 750 
Q 750 597 1062 519 
Q 1375 441 1716 441 
Q 2309 441 2620 675 
Q 2931 909 2931 1356 
Q 2931 1769 2642 2001 
Q 2353 2234 1838 2234 
L 1294 2234 
L 1294 2753 
L 1863 2753 
Q 2328 2753 2575 2939 
Q 2822 3125 2822 3475 
Q 2822 3834 2567 4026 
Q 2313 4219 1838 4219 
Q 1578 4219 1281 4162 
Q 984 4106 628 3988 
L 628 4550 
Q 988 4650 1302 4700 
Q 1616 4750 1894 4750 
Q 2613 4750 3031 4423 
Q 3450 4097 3450 3541 
Q 3450 3153 3228 2886 
Q 3006 2619 2597 2516 
z
" transform="scale(0.015625)"/>
     </defs>
     <use xlink:href="#DejaVuSans-Oblique-66" transform="translate(0 0.765625)"/>
     <use xlink:href="#DejaVuSans-28" transform="translate(35.205078 0.765625)"/>
     <use xlink:href="#DejaVuSans-Oblique-78" transform="translate(74.21875 0.765625)"/>
     <use xlink:href="#DejaVuSans-29" transform="translate(133.398438 0.765625)"/>
     <use xlink:href="#DejaVuSans-3d" transform="translate(191.894531 0.765625)"/>
     <use xlink:href="#DejaVuSans-Oblique-78" transform="translate(295.166016 0.765625)"/>
     <use xlink:href="#DejaVuSans-33" transform="translate(358.811849 39.046875) scale(0.7)"/>
    </g>
   </g>
   <g id="line2d_34">
    <defs>
     <path id="m34a52d29b7" d="M 0 5 
C 1.326016 5 2.597899 4.473168 3.535534 3.535534 
C 4.473168 2.597899 5 1.326016 5 0 
C 5 -1.326016 4.473168 -2.597899 3.535534 -3.535534 
C 2.597899 -4.473168 1.326016 -5 0 -5 
C -1.326016 -5 -2.597899 -4.473168 -3.535534 -3.535534 
C -4.473168 -2.597899 -5 -1.326016 -5 0 
C -5 1.326016 -4.473168 2.597899 -3.535534 3.535534 
C -2.597899 4.473168 -1.326016 5 0 5 
z
" style="stroke: #cc0000"/>
    </defs>
    <g clip-path="url(#p5e7dd568e0)">
     <use xlink:href="#m34a52d29b7" x="378.624844" y="165.16375" style="fill: #cc0000; stroke: #cc0000"/>
    </g>
   </g>
   <g id="line2d_35">
    <defs>
     <path id="mc4d23c5989" d="M 0 5 
C 1.326016 5 2.597899 4.473168 3.535534 3.535534 
C 4.473168 2.597899 5 1.326016 5 0 
C 5 -1.326016 4.473168 -2.597899 3.535534 -3.535534 
C 2.597899 -4.473168 1.326016 -5 0 -5 
C -1.326016 -5 -2.597899 -4.473168 -3.535534 -3.535534 
C -4.473168 -2.597899 -5 -1.326016 -5 0 
C -5 1.326016 -4.473168 2.597899 -3.535534 3.535534 
C -2.597899 4.473168 -1.326016 5 0 5 
z
" style="stroke: #cc7000"/>
    </defs>
    <g clip-path="url(#p5e7dd568e0)">
     <use xlink:href="#mc4d23c5989" x="266.945938" y="185.429375" style="fill: #cc7000; stroke: #cc7000"/>
    </g>
   </g>
   <g id="legend_1">
    <g id="patch_7">
     <path d="M 49.888125 70.914375 
L 205.588125 70.914375 
Q 207.388125 70.914375 207.388125 69.114375 
L 207.388125 29.604375 
Q 207.388125 27.804375 205.588125 27.804375 
L 49.888125 27.804375 
Q 48.088125 27.804375 48.088125 29.604375 
L 48.088125 69.114375 
Q 48.088125 70.914375 49.888125 70.914375 
z
" style="fill: #ffffff; opacity: 0.8; stroke: #cccccc; stroke-linejoin: miter"/>
    </g>
    <g id="line2d_36">
     <path d="M 51.688125 35.832656 
L 60.688125 35.832656 
L 69.688125 35.832656 
" style="fill: none; stroke: #4682b4; stroke-width: 2.5; stroke-linecap: square"/>
    </g>
    <g id="text_18">
     <!-- $f(x) = x^3$ -->
     <g transform="translate(76.888125 38.982656) scale(0.09 -0.09)">
      <use xlink:href="#DejaVuSans-Oblique-66" transform="translate(0 0.765625)"/>
      <use xlink:href="#DejaVuSans-28" transform="translate(35.205078 0.765625)"/>
      <use xlink:href="#DejaVuSans-Oblique-78" transform="translate(74.21875 0.765625)"/>
      <use xlink:href="#DejaVuSans-29" transform="translate(133.398438 0.765625)"/>
      <use xlink:href="#DejaVuSans-3d" transform="translate(191.894531 0.765625)"/>
      <use xlink:href="#DejaVuSans-Oblique-78" transform="translate(295.166016 0.765625)"/>
      <use xlink:href="#DejaVuSans-33" transform="translate(358.811849 39.046875) scale(0.7)"/>
     </g>
    </g>
    <g id="line2d_37">
     <path d="M 51.688125 49.044375 
L 60.688125 49.044375 
L 69.688125 49.044375 
" style="fill: none; stroke-dasharray: 7.4,3.2; stroke-dashoffset: 0; stroke: #cc0000; stroke-width: 2"/>
    </g>
    <g id="text_19">
     <!-- Tangent at $x=1$ (slope = 3) -->
     <g transform="translate(76.888125 52.194375) scale(0.09 -0.09)">
      <defs>
       <path id="DejaVuSans-54" d="M -19 4666 
L 3928 4666 
L 3928 4134 
L 2272 4134 
L 2272 0 
L 1638 0 
L 1638 4134 
L -19 4134 
L -19 4666 
z
" transform="scale(0.015625)"/>
       <path id="DejaVuSans-61" d="M 2194 1759 
Q 1497 1759 1228 1600 
Q 959 1441 959 1056 
Q 959 750 1161 570 
Q 1363 391 1709 391 
Q 2188 391 2477 730 
Q 2766 1069 2766 1631 
L 2766 1759 
L 2194 1759 
z
M 3341 1997 
L 3341 0 
L 2766 0 
L 2766 531 
Q 2569 213 2275 61 
Q 1981 -91 1556 -91 
Q 1019 -91 701 211 
Q 384 513 384 1019 
Q 384 1609 779 1909 
Q 1175 2209 1959 2209 
L 2766 2209 
L 2766 2266 
Q 2766 2663 2505 2880 
Q 2244 3097 1772 3097 
Q 1472 3097 1187 3025 
Q 903 2953 641 2809 
L 641 3341 
Q 956 3463 1253 3523 
Q 1550 3584 1831 3584 
Q 2591 3584 2966 3190 
Q 3341 2797 3341 1997 
z
" transform="scale(0.015625)"/>
       <path id="DejaVuSans-6e" d="M 3513 2113 
L 3513 0 
L 2938 0 
L 2938 2094 
Q 2938 2591 2744 2837 
Q 2550 3084 2163 3084 
Q 1697 3084 1428 2787 
Q 1159 2491 1159 1978 
L 1159 0 
L 581 0 
L 581 3500 
L 1159 3500 
L 1159 2956 
Q 1366 3272 1645 3428 
Q 1925 3584 2291 3584 
Q 2894 3584 3203 3211 
Q 3513 2838 3513 2113 
z
" transform="scale(0.015625)"/>
       <path id="DejaVuSans-67" d="M 2906 1791 
Q 2906 2416 2648 2759 
Q 2391 3103 1925 3103 
Q 1463 3103 1205 2759 
Q 947 2416 947 1791 
Q 947 1169 1205 825 
Q 1463 481 1925 481 
Q 2391 481 2648 825 
Q 2906 1169 2906 1791 
z
M 3481 434 
Q 3481 -459 3084 -895 
Q 2688 -1331 1869 -1331 
Q 1566 -1331 1297 -1286 
Q 1028 -1241 775 -1147 
L 775 -588 
Q 1028 -725 1275 -790 
Q 1522 -856 1778 -856 
Q 2344 -856 2625 -561 
Q 2906 -266 2906 331 
L 2906 616 
Q 2728 306 2450 153 
Q 2172 0 1784 0 
Q 1141 0 747 490 
Q 353 981 353 1791 
Q 353 2603 747 3093 
Q 1141 3584 1784 3584 
Q 2172 3584 2450 3431 
Q 2728 3278 2906 2969 
L 2906 3500 
L 3481 3500 
L 3481 434 
z
" transform="scale(0.015625)"/>
       <path id="DejaVuSans-65" d="M 3597 1894 
L 3597 1613 
L 953 1613 
Q 991 1019 1311 708 
Q 1631 397 2203 397 
Q 2534 397 2845 478 
Q 3156 559 3463 722 
L 3463 178 
Q 3153 47 2828 -22 
Q 2503 -91 2169 -91 
Q 1331 -91 842 396 
Q 353 884 353 1716 
Q 353 2575 817 3079 
Q 1281 3584 2069 3584 
Q 2775 3584 3186 3129 
Q 3597 2675 3597 1894 
z
M 3022 2063 
Q 3016 2534 2758 2815 
Q 2500 3097 2075 3097 
Q 1594 3097 1305 2825 
Q 1016 2553 972 2059 
L 3022 2063 
z
" transform="scale(0.015625)"/>
       <path id="DejaVuSans-74" d="M 1172 4494 
L 1172 3500 
L 2356 3500 
L 2356 3053 
L 1172 3053 
L 1172 1153 
Q 1172 725 1289 603 
Q 1406 481 1766 481 
L 2356 481 
L 2356 0 
L 1766 0 
Q 1100 0 847 248 
Q 594 497 594 1153 
L 594 3053 
L 172 3053 
L 172 3500 
L 594 3500 
L 594 4494 
L 1172 4494 
z
" transform="scale(0.015625)"/>
       <path id="DejaVuSans-20" transform="scale(0.015625)"/>
       <path id="DejaVuSans-73" d="M 2834 3397 
L 2834 2853 
Q 2591 2978 2328 3040 
Q 2066 3103 1784 3103 
Q 1356 3103 1142 2972 
Q 928 2841 928 2578 
Q 928 2378 1081 2264 
Q 1234 2150 1697 2047 
L 1894 2003 
Q 2506 1872 2764 1633 
Q 3022 1394 3022 966 
Q 3022 478 2636 193 
Q 2250 -91 1575 -91 
Q 1294 -91 989 -36 
Q 684 19 347 128 
L 347 722 
Q 666 556 975 473 
Q 1284 391 1588 391 
Q 1994 391 2212 530 
Q 2431 669 2431 922 
Q 2431 1156 2273 1281 
Q 2116 1406 1581 1522 
L 1381 1569 
Q 847 1681 609 1914 
Q 372 2147 372 2553 
Q 372 3047 722 3315 
Q 1072 3584 1716 3584 
Q 2034 3584 2315 3537 
Q 2597 3491 2834 3397 
z
" transform="scale(0.015625)"/>
       <path id="DejaVuSans-6c" d="M 603 4863 
L 1178 4863 
L 1178 0 
L 603 0 
L 603 4863 
z
" transform="scale(0.015625)"/>
       <path id="DejaVuSans-6f" d="M 1959 3097 
Q 1497 3097 1228 2736 
Q 959 2375 959 1747 
Q 959 1119 1226 758 
Q 1494 397 1959 397 
Q 2419 397 2687 759 
Q 2956 1122 2956 1747 
Q 2956 2369 2687 2733 
Q 2419 3097 1959 3097 
z
M 1959 3584 
Q 2709 3584 3137 3096 
Q 3566 2609 3566 1747 
Q 3566 888 3137 398 
Q 2709 -91 1959 -91 
Q 1206 -91 779 398 
Q 353 888 353 1747 
Q 353 2609 779 3096 
Q 1206 3584 1959 3584 
z
" transform="scale(0.015625)"/>
       <path id="DejaVuSans-70" d="M 1159 525 
L 1159 -1331 
L 581 -1331 
L 581 3500 
L 1159 3500 
L 1159 2969 
Q 1341 3281 1617 3432 
Q 1894 3584 2278 3584 
Q 2916 3584 3314 3078 
Q 3713 2572 3713 1747 
Q 3713 922 3314 415 
Q 2916 -91 2278 -91 
Q 1894 -91 1617 61 
Q 1341 213 1159 525 
z
M 3116 1747 
Q 3116 2381 2855 2742 
Q 2594 3103 2138 3103 
Q 1681 3103 1420 2742 
Q 1159 2381 1159 1747 
Q 1159 1113 1420 752 
Q 1681 391 2138 391 
Q 2594 391 2855 752 
Q 3116 1113 3116 1747 
z
" transform="scale(0.015625)"/>
      </defs>
      <use xlink:href="#DejaVuSans-54" transform="translate(0 0.015625)"/>
      <use xlink:href="#DejaVuSans-61" transform="translate(61.083984 0.015625)"/>
      <use xlink:href="#DejaVuSans-6e" transform="translate(122.363281 0.015625)"/>
      <use xlink:href="#DejaVuSans-67" transform="translate(185.742188 0.015625)"/>
      <use xlink:href="#DejaVuSans-65" transform="translate(249.21875 0.015625)"/>
      <use xlink:href="#DejaVuSans-6e" transform="translate(310.742188 0.015625)"/>
      <use xlink:href="#DejaVuSans-74" transform="translate(374.121094 0.015625)"/>
      <use xlink:href="#DejaVuSans-20" transform="translate(413.330078 0.015625)"/>
      <use xlink:href="#DejaVuSans-61" transform="translate(445.117188 0.015625)"/>
      <use xlink:href="#DejaVuSans-74" transform="translate(506.396484 0.015625)"/>
      <use xlink:href="#DejaVuSans-20" transform="translate(545.605469 0.015625)"/>
      <use xlink:href="#DejaVuSans-Oblique-78" transform="translate(577.392578 0.015625)"/>
      <use xlink:href="#DejaVuSans-3d" transform="translate(656.054688 0.015625)"/>
      <use xlink:href="#DejaVuSans-31" transform="translate(759.326172 0.015625)"/>
      <use xlink:href="#DejaVuSans-20" transform="translate(822.949219 0.015625)"/>
      <use xlink:href="#DejaVuSans-28" transform="translate(854.736328 0.015625)"/>
      <use xlink:href="#DejaVuSans-73" transform="translate(893.75 0.015625)"/>
      <use xlink:href="#DejaVuSans-6c" transform="translate(945.849609 0.015625)"/>
      <use xlink:href="#DejaVuSans-6f" transform="translate(973.632812 0.015625)"/>
      <use xlink:href="#DejaVuSans-70" transform="translate(1034.814453 0.015625)"/>
      <use xlink:href="#DejaVuSans-65" transform="translate(1098.291016 0.015625)"/>
      <use xlink:href="#DejaVuSans-20" transform="translate(1159.814453 0.015625)"/>
      <use xlink:href="#DejaVuSans-3d" transform="translate(1191.601562 0.015625)"/>
      <use xlink:href="#DejaVuSans-20" transform="translate(1275.390625 0.015625)"/>
      <use xlink:href="#DejaVuSans-33" transform="translate(1307.177734 0.015625)"/>
      <use xlink:href="#DejaVuSans-29" transform="translate(1370.800781 0.015625)"/>
     </g>
    </g>
    <g id="line2d_38">
     <path d="M 51.688125 62.274375 
L 60.688125 62.274375 
L 69.688125 62.274375 
" style="fill: none; stroke-dasharray: 7.4,3.2; stroke-dashoffset: 0; stroke: #cc7000; stroke-width: 2"/>
    </g>
    <g id="text_20">
     <!-- Tangent at $x=0$ (slope = 0) -->
     <g transform="translate(76.888125 65.424375) scale(0.09 -0.09)">
      <use xlink:href="#DejaVuSans-54" transform="translate(0 0.015625)"/>
      <use xlink:href="#DejaVuSans-61" transform="translate(61.083984 0.015625)"/>
      <use xlink:href="#DejaVuSans-6e" transform="translate(122.363281 0.015625)"/>
      <use xlink:href="#DejaVuSans-67" transform="translate(185.742188 0.015625)"/>
      <use xlink:href="#DejaVuSans-65" transform="translate(249.21875 0.015625)"/>
      <use xlink:href="#DejaVuSans-6e" transform="translate(310.742188 0.015625)"/>
      <use xlink:href="#DejaVuSans-74" transform="translate(374.121094 0.015625)"/>
      <use xlink:href="#DejaVuSans-20" transform="translate(413.330078 0.015625)"/>
      <use xlink:href="#DejaVuSans-61" transform="translate(445.117188 0.015625)"/>
      <use xlink:href="#DejaVuSans-74" transform="translate(506.396484 0.015625)"/>
      <use xlink:href="#DejaVuSans-20" transform="translate(545.605469 0.015625)"/>
      <use xlink:href="#DejaVuSans-Oblique-78" transform="translate(577.392578 0.015625)"/>
      <use xlink:href="#DejaVuSans-3d" transform="translate(656.054688 0.015625)"/>
      <use xlink:href="#DejaVuSans-30" transform="translate(759.326172 0.015625)"/>
      <use xlink:href="#DejaVuSans-20" transform="translate(822.949219 0.015625)"/>
      <use xlink:href="#DejaVuSans-28" transform="translate(854.736328 0.015625)"/>
      <use xlink:href="#DejaVuSans-73" transform="translate(893.75 0.015625)"/>
      <use xlink:href="#DejaVuSans-6c" transform="translate(945.849609 0.015625)"/>
      <use xlink:href="#DejaVuSans-6f" transform="translate(973.632812 0.015625)"/>
      <use xlink:href="#DejaVuSans-70" transform="translate(1034.814453 0.015625)"/>
      <use xlink:href="#DejaVuSans-65" transform="translate(1098.291016 0.015625)"/>
      <use xlink:href="#DejaVuSans-20" transform="translate(1159.814453 0.015625)"/>
      <use xlink:href="#DejaVuSans-3d" transform="translate(1191.601562 0.015625)"/>
      <use xlink:href="#DejaVuSans-20" transform="translate(1275.390625 0.015625)"/>
      <use xlink:href="#DejaVuSans-30" transform="translate(1307.177734 0.015625)"/>
      <use xlink:href="#DejaVuSans-29" transform="translate(1370.800781 0.015625)"/>
     </g>
    </g>
   </g>
  </g>
  <g id="axes_2">
   <g id="patch_8">
    <path d="M 542.131875 347.554375 
L 988.8475 347.554375 
L 988.8475 23.304375 
L 542.131875 23.304375 
z
" style="fill: #ffffff"/>
   </g>
   <g id="matplotlib.axis_3">
    <g id="xtick_6">
     <g id="line2d_39">
      <path d="M 542.131875 347.554375 
L 542.131875 23.304375 
" clip-path="url(#p7794c3f3a3)" style="fill: none; stroke-dasharray: 2.96,1.28; stroke-dashoffset: 0; stroke: #b0b0b0; stroke-opacity: 0.4; stroke-width: 0.8"/>
     </g>
     <g id="line2d_40">
      <g>
       <use xlink:href="#ma98e22cd61" x="542.131875" y="347.554375" style="stroke: #000000; stroke-width: 0.8"/>
      </g>
     </g>
     <g id="text_21">
      <!-- −2 -->
      <g transform="translate(534.760781 362.152812) scale(0.1 -0.1)">
       <use xlink:href="#DejaVuSans-2212"/>
       <use xlink:href="#DejaVuSans-32" transform="translate(83.789062 0)"/>
      </g>
     </g>
    </g>
    <g id="xtick_7">
     <g id="line2d_41">
      <path d="M 653.810781 347.554375 
L 653.810781 23.304375 
" clip-path="url(#p7794c3f3a3)" style="fill: none; stroke-dasharray: 2.96,1.28; stroke-dashoffset: 0; stroke: #b0b0b0; stroke-opacity: 0.4; stroke-width: 0.8"/>
     </g>
     <g id="line2d_42">
      <g>
       <use xlink:href="#ma98e22cd61" x="653.810781" y="347.554375" style="stroke: #000000; stroke-width: 0.8"/>
      </g>
     </g>
     <g id="text_22">
      <!-- −1 -->
      <g transform="translate(646.439687 362.152812) scale(0.1 -0.1)">
       <use xlink:href="#DejaVuSans-2212"/>
       <use xlink:href="#DejaVuSans-31" transform="translate(83.789062 0)"/>
      </g>
     </g>
    </g>
    <g id="xtick_8">
     <g id="line2d_43">
      <path d="M 765.489688 347.554375 
L 765.489688 23.304375 
" clip-path="url(#p7794c3f3a3)" style="fill: none; stroke-dasharray: 2.96,1.28; stroke-dashoffset: 0; stroke: #b0b0b0; stroke-opacity: 0.4; stroke-width: 0.8"/>
     </g>
     <g id="line2d_44">
      <g>
       <use xlink:href="#ma98e22cd61" x="765.489688" y="347.554375" style="stroke: #000000; stroke-width: 0.8"/>
      </g>
     </g>
     <g id="text_23">
      <!-- 0 -->
      <g transform="translate(762.308438 362.152812) scale(0.1 -0.1)">
       <use xlink:href="#DejaVuSans-30"/>
      </g>
     </g>
    </g>
    <g id="xtick_9">
     <g id="line2d_45">
      <path d="M 877.168594 347.554375 
L 877.168594 23.304375 
" clip-path="url(#p7794c3f3a3)" style="fill: none; stroke-dasharray: 2.96,1.28; stroke-dashoffset: 0; stroke: #b0b0b0; stroke-opacity: 0.4; stroke-width: 0.8"/>
     </g>
     <g id="line2d_46">
      <g>
       <use xlink:href="#ma98e22cd61" x="877.168594" y="347.554375" style="stroke: #000000; stroke-width: 0.8"/>
      </g>
     </g>
     <g id="text_24">
      <!-- 1 -->
      <g transform="translate(873.987344 362.152812) scale(0.1 -0.1)">
       <use xlink:href="#DejaVuSans-31"/>
      </g>
     </g>
    </g>
    <g id="xtick_10">
     <g id="line2d_47">
      <path d="M 988.8475 347.554375 
L 988.8475 23.304375 
" clip-path="url(#p7794c3f3a3)" style="fill: none; stroke-dasharray: 2.96,1.28; stroke-dashoffset: 0; stroke: #b0b0b0; stroke-opacity: 0.4; stroke-width: 0.8"/>
     </g>
     <g id="line2d_48">
      <g>
       <use xlink:href="#ma98e22cd61" x="988.8475" y="347.554375" style="stroke: #000000; stroke-width: 0.8"/>
      </g>
     </g>
     <g id="text_25">
      <!-- 2 -->
      <g transform="translate(985.66625 362.152812) scale(0.1 -0.1)">
       <use xlink:href="#DejaVuSans-32"/>
      </g>
     </g>
    </g>
    <g id="text_26">
     <!-- $x$ -->
     <g transform="translate(762.189688 376.590781) scale(0.11 -0.11)">
      <use xlink:href="#DejaVuSans-Oblique-78" transform="translate(0 0.3125)"/>
     </g>
    </g>
   </g>
   <g id="matplotlib.axis_4">
    <g id="ytick_10">
     <g id="line2d_49">
      <path d="M 542.131875 322.612067 
L 988.8475 322.612067 
" clip-path="url(#p7794c3f3a3)" style="fill: none; stroke-dasharray: 2.96,1.28; stroke-dashoffset: 0; stroke: #b0b0b0; stroke-opacity: 0.4; stroke-width: 0.8"/>
     </g>
     <g id="line2d_50">
      <g>
       <use xlink:href="#m4f99f28540" x="542.131875" y="322.612067" style="stroke: #000000; stroke-width: 0.8"/>
      </g>
     </g>
     <g id="text_27">
      <!-- 0 -->
      <g transform="translate(528.769375 326.411286) scale(0.1 -0.1)">
       <use xlink:href="#DejaVuSans-30"/>
      </g>
     </g>
    </g>
    <g id="ytick_11">
     <g id="line2d_51">
      <path d="M 542.131875 272.727452 
L 988.8475 272.727452 
" clip-path="url(#p7794c3f3a3)" style="fill: none; stroke-dasharray: 2.96,1.28; stroke-dashoffset: 0; stroke: #b0b0b0; stroke-opacity: 0.4; stroke-width: 0.8"/>
     </g>
     <g id="line2d_52">
      <g>
       <use xlink:href="#m4f99f28540" x="542.131875" y="272.727452" style="stroke: #000000; stroke-width: 0.8"/>
      </g>
     </g>
     <g id="text_28">
      <!-- 2 -->
      <g transform="translate(528.769375 276.526671) scale(0.1 -0.1)">
       <use xlink:href="#DejaVuSans-32"/>
      </g>
     </g>
    </g>
    <g id="ytick_12">
     <g id="line2d_53">
      <path d="M 542.131875 222.842837 
L 988.8475 222.842837 
" clip-path="url(#p7794c3f3a3)" style="fill: none; stroke-dasharray: 2.96,1.28; stroke-dashoffset: 0; stroke: #b0b0b0; stroke-opacity: 0.4; stroke-width: 0.8"/>
     </g>
     <g id="line2d_54">
      <g>
       <use xlink:href="#m4f99f28540" x="542.131875" y="222.842837" style="stroke: #000000; stroke-width: 0.8"/>
      </g>
     </g>
     <g id="text_29">
      <!-- 4 -->
      <g transform="translate(528.769375 226.642055) scale(0.1 -0.1)">
       <use xlink:href="#DejaVuSans-34"/>
      </g>
     </g>
    </g>
    <g id="ytick_13">
     <g id="line2d_55">
      <path d="M 542.131875 172.958221 
L 988.8475 172.958221 
" clip-path="url(#p7794c3f3a3)" style="fill: none; stroke-dasharray: 2.96,1.28; stroke-dashoffset: 0; stroke: #b0b0b0; stroke-opacity: 0.4; stroke-width: 0.8"/>
     </g>
     <g id="line2d_56">
      <g>
       <use xlink:href="#m4f99f28540" x="542.131875" y="172.958221" style="stroke: #000000; stroke-width: 0.8"/>
      </g>
     </g>
     <g id="text_30">
      <!-- 6 -->
      <g transform="translate(528.769375 176.75744) scale(0.1 -0.1)">
       <use xlink:href="#DejaVuSans-36"/>
      </g>
     </g>
    </g>
    <g id="ytick_14">
     <g id="line2d_57">
      <path d="M 542.131875 123.073606 
L 988.8475 123.073606 
" clip-path="url(#p7794c3f3a3)" style="fill: none; stroke-dasharray: 2.96,1.28; stroke-dashoffset: 0; stroke: #b0b0b0; stroke-opacity: 0.4; stroke-width: 0.8"/>
     </g>
     <g id="line2d_58">
      <g>
       <use xlink:href="#m4f99f28540" x="542.131875" y="123.073606" style="stroke: #000000; stroke-width: 0.8"/>
      </g>
     </g>
     <g id="text_31">
      <!-- 8 -->
      <g transform="translate(528.769375 126.872825) scale(0.1 -0.1)">
       <use xlink:href="#DejaVuSans-38"/>
      </g>
     </g>
    </g>
    <g id="ytick_15">
     <g id="line2d_59">
      <path d="M 542.131875 73.18899 
L 988.8475 73.18899 
" clip-path="url(#p7794c3f3a3)" style="fill: none; stroke-dasharray: 2.96,1.28; stroke-dashoffset: 0; stroke: #b0b0b0; stroke-opacity: 0.4; stroke-width: 0.8"/>
     </g>
     <g id="line2d_60">
      <g>
       <use xlink:href="#m4f99f28540" x="542.131875" y="73.18899" style="stroke: #000000; stroke-width: 0.8"/>
      </g>
     </g>
     <g id="text_32">
      <!-- 10 -->
      <g transform="translate(522.406875 76.988209) scale(0.1 -0.1)">
       <use xlink:href="#DejaVuSans-31"/>
       <use xlink:href="#DejaVuSans-30" transform="translate(63.623047 0)"/>
      </g>
     </g>
    </g>
    <g id="ytick_16">
     <g id="line2d_61">
      <path d="M 542.131875 23.304375 
L 988.8475 23.304375 
" clip-path="url(#p7794c3f3a3)" style="fill: none; stroke-dasharray: 2.96,1.28; stroke-dashoffset: 0; stroke: #b0b0b0; stroke-opacity: 0.4; stroke-width: 0.8"/>
     </g>
     <g id="line2d_62">
      <g>
       <use xlink:href="#m4f99f28540" x="542.131875" y="23.304375" style="stroke: #000000; stroke-width: 0.8"/>
      </g>
     </g>
     <g id="text_33">
      <!-- 12 -->
      <g transform="translate(522.406875 27.103594) scale(0.1 -0.1)">
       <use xlink:href="#DejaVuSans-31"/>
       <use xlink:href="#DejaVuSans-32" transform="translate(63.623047 0)"/>
      </g>
     </g>
    </g>
    <g id="text_34">
     <!-- $f'(x)$ -->
     <g transform="translate(516.119219 196.539375) rotate(-90) scale(0.11 -0.11)">
      <defs>
       <path id="Cmsy10-30" d="M 225 347 
Q 184 359 184 409 
L 966 3316 
Q 1003 3434 1093 3506 
Q 1184 3578 1300 3578 
Q 1450 3578 1564 3479 
Q 1678 3381 1678 3231 
Q 1678 3166 1644 3084 
L 488 319 
Q 466 275 428 275 
Q 394 275 320 306 
Q 247 338 225 347 
z
" transform="scale(0.015625)"/>
      </defs>
      <use xlink:href="#DejaVuSans-Oblique-66" transform="translate(0 0.584375)"/>
      <use xlink:href="#Cmsy10-30" transform="translate(42.652786 38.865625) scale(0.7)"/>
      <use xlink:href="#DejaVuSans-28" transform="translate(64.630326 0.584375)"/>
      <use xlink:href="#DejaVuSans-Oblique-78" transform="translate(103.643997 0.584375)"/>
      <use xlink:href="#DejaVuSans-29" transform="translate(162.823685 0.584375)"/>
     </g>
    </g>
   </g>
   <g id="line2d_63">
    <path d="M 542.131875 23.304375 
L 548.866281 41.080989 
L 555.600688 58.313421 
L 562.335094 75.001671 
L 569.069501 91.145739 
L 575.803907 106.745625 
L 582.538313 121.801328 
L 589.27272 136.31285 
L 596.007126 150.28019 
L 602.741533 163.703347 
L 609.475939 176.582323 
L 616.210345 188.917116 
L 622.944752 200.707727 
L 629.679158 211.954157 
L 636.413565 222.656404 
L 643.147971 232.814469 
L 649.882378 242.428352 
L 656.616784 251.498053 
L 663.35119 260.023572 
L 667.840795 265.404928 
L 672.330399 270.544425 
L 676.820003 275.442064 
L 681.309607 280.097844 
L 685.799212 284.511765 
L 690.288816 288.683827 
L 694.77842 292.614031 
L 699.268024 296.302376 
L 703.757629 299.748863 
L 708.247233 302.95349 
L 712.736837 305.916259 
L 717.226442 308.63717 
L 721.716046 311.116221 
L 726.20565 313.353414 
L 730.695254 315.348748 
L 735.184859 317.102224 
L 739.674463 318.613841 
L 744.164067 319.883599 
L 748.653671 320.911498 
L 753.143276 321.697539 
L 757.63288 322.241721 
L 762.122484 322.544045 
L 766.612089 322.604509 
L 771.101693 322.423115 
L 775.591297 321.999862 
L 780.080901 321.334751 
L 784.570506 320.427781 
L 789.06011 319.278952 
L 793.549714 317.888265 
L 798.039318 316.255718 
L 802.528923 314.381314 
L 807.018527 312.26505 
L 811.508131 309.906928 
L 815.997736 307.306947 
L 820.48734 304.465107 
L 824.976944 301.381409 
L 829.466548 298.055852 
L 833.956153 294.488436 
L 838.445757 290.679162 
L 842.935361 286.628028 
L 847.424965 282.335037 
L 851.91457 277.800186 
L 856.404174 273.023477 
L 860.893778 268.004909 
L 865.383383 262.744482 
L 869.872987 257.242197 
L 874.362591 251.498053 
L 881.096997 242.428352 
L 887.831404 232.814469 
L 894.56581 222.656404 
L 901.300217 211.954157 
L 908.034623 200.707727 
L 914.76903 188.917116 
L 921.503436 176.582323 
L 928.237842 163.703347 
L 934.972249 150.28019 
L 941.706655 136.31285 
L 948.441062 121.801328 
L 955.175468 106.745625 
L 961.909874 91.145739 
L 968.644281 75.001671 
L 975.378687 58.313421 
L 982.113094 41.080989 
L 988.8475 23.304375 
L 988.8475 23.304375 
" clip-path="url(#p7794c3f3a3)" style="fill: none; stroke: #2e8b57; stroke-width: 2.5; stroke-linecap: square"/>
   </g>
   <g id="line2d_64">
    <path d="M 542.131875 322.612067 
L 988.8475 322.612067 
" clip-path="url(#p7794c3f3a3)" style="fill: none; stroke: #000000; stroke-width: 0.8; stroke-linecap: square"/>
   </g>
   <g id="line2d_65">
    <path d="M 765.489688 347.554375 
L 765.489688 23.304375 
" clip-path="url(#p7794c3f3a3)" style="fill: none; stroke: #000000; stroke-width: 0.8; stroke-linecap: square"/>
   </g>
   <g id="patch_9">
    <path d="M 542.131875 347.554375 
L 542.131875 23.304375 
" style="fill: none; stroke: #000000; stroke-width: 0.8; stroke-linejoin: miter; stroke-linecap: square"/>
   </g>
   <g id="patch_10">
    <path d="M 988.8475 347.554375 
L 988.8475 23.304375 
" style="fill: none; stroke: #000000; stroke-width: 0.8; stroke-linejoin: miter; stroke-linecap: square"/>
   </g>
   <g id="patch_11">
    <path d="M 542.131875 347.554375 
L 988.8475 347.554375 
" style="fill: none; stroke: #000000; stroke-width: 0.8; stroke-linejoin: miter; stroke-linecap: square"/>
   </g>
   <g id="patch_12">
    <path d="M 542.131875 23.304375 
L 988.8475 23.304375 
" style="fill: none; stroke: #000000; stroke-width: 0.8; stroke-linejoin: miter; stroke-linecap: square"/>
   </g>
   <g id="text_35">
    <!-- Derivative: $f'(x) = 3x^2$ -->
    <g style="fill: #808080" transform="translate(700.629688 17.304375) scale(0.12 -0.12)">
     <defs>
      <path id="DejaVuSans-44" d="M 1259 4147 
L 1259 519 
L 2022 519 
Q 2988 519 3436 956 
Q 3884 1394 3884 2338 
Q 3884 3275 3436 3711 
Q 2988 4147 2022 4147 
L 1259 4147 
z
M 628 4666 
L 1925 4666 
Q 3281 4666 3915 4102 
Q 4550 3538 4550 2338 
Q 4550 1131 3912 565 
Q 3275 0 1925 0 
L 628 0 
L 628 4666 
z
" transform="scale(0.015625)"/>
      <path id="DejaVuSans-72" d="M 2631 2963 
Q 2534 3019 2420 3045 
Q 2306 3072 2169 3072 
Q 1681 3072 1420 2755 
Q 1159 2438 1159 1844 
L 1159 0 
L 581 0 
L 581 3500 
L 1159 3500 
L 1159 2956 
Q 1341 3275 1631 3429 
Q 1922 3584 2338 3584 
Q 2397 3584 2469 3576 
Q 2541 3569 2628 3553 
L 2631 2963 
z
" transform="scale(0.015625)"/>
      <path id="DejaVuSans-69" d="M 603 3500 
L 1178 3500 
L 1178 0 
L 603 0 
L 603 3500 
z
M 603 4863 
L 1178 4863 
L 1178 4134 
L 603 4134 
L 603 4863 
z
" transform="scale(0.015625)"/>
      <path id="DejaVuSans-76" d="M 191 3500 
L 800 3500 
L 1894 563 
L 2988 3500 
L 3597 3500 
L 2284 0 
L 1503 0 
L 191 3500 
z
" transform="scale(0.015625)"/>
      <path id="DejaVuSans-3a" d="M 750 794 
L 1409 794 
L 1409 0 
L 750 0 
L 750 794 
z
M 750 3309 
L 1409 3309 
L 1409 2516 
L 750 2516 
L 750 3309 
z
" transform="scale(0.015625)"/>
     </defs>
     <use xlink:href="#DejaVuSans-44" transform="translate(0 0.765625)"/>
     <use xlink:href="#DejaVuSans-65" transform="translate(77.001953 0.765625)"/>
     <use xlink:href="#DejaVuSans-72" transform="translate(138.525391 0.765625)"/>
     <use xlink:href="#DejaVuSans-69" transform="translate(179.638672 0.765625)"/>
     <use xlink:href="#DejaVuSans-76" transform="translate(207.421875 0.765625)"/>
     <use xlink:href="#DejaVuSans-61" transform="translate(266.601562 0.765625)"/>
     <use xlink:href="#DejaVuSans-74" transform="translate(327.880859 0.765625)"/>
     <use xlink:href="#DejaVuSans-69" transform="translate(367.089844 0.765625)"/>
     <use xlink:href="#DejaVuSans-76" transform="translate(394.873047 0.765625)"/>
     <use xlink:href="#DejaVuSans-65" transform="translate(454.052734 0.765625)"/>
     <use xlink:href="#DejaVuSans-3a" transform="translate(515.576172 0.765625)"/>
     <use xlink:href="#DejaVuSans-20" transform="translate(549.267578 0.765625)"/>
     <use xlink:href="#DejaVuSans-Oblique-66" transform="translate(581.054688 0.765625)"/>
     <use xlink:href="#Cmsy10-30" transform="translate(623.707474 39.046875) scale(0.7)"/>
     <use xlink:href="#DejaVuSans-28" transform="translate(645.685013 0.765625)"/>
     <use xlink:href="#DejaVuSans-Oblique-78" transform="translate(684.698685 0.765625)"/>
     <use xlink:href="#DejaVuSans-29" transform="translate(743.878372 0.765625)"/>
     <use xlink:href="#DejaVuSans-3d" transform="translate(802.374466 0.765625)"/>
     <use xlink:href="#DejaVuSans-33" transform="translate(905.645951 0.765625)"/>
     <use xlink:href="#DejaVuSans-Oblique-78" transform="translate(969.268997 0.765625)"/>
     <use xlink:href="#DejaVuSans-32" transform="translate(1032.914831 39.046875) scale(0.7)"/>
    </g>
   </g>
   <g id="line2d_66">
    <g clip-path="url(#p7794c3f3a3)">
     <use xlink:href="#m34a52d29b7" x="877.168594" y="247.785144" style="fill: #cc0000; stroke: #cc0000"/>
    </g>
   </g>
   <g id="line2d_67">
    <g clip-path="url(#p7794c3f3a3)">
     <use xlink:href="#mc4d23c5989" x="765.489688" y="322.612067" style="fill: #cc7000; stroke: #cc7000"/>
    </g>
   </g>
   <g id="legend_2">
    <g id="patch_13">
     <path d="M 549.131875 342.554375 
L 631.131875 342.554375 
Q 633.131875 342.554375 633.131875 340.554375 
L 633.131875 326.054375 
Q 633.131875 324.054375 631.131875 324.054375 
L 549.131875 324.054375 
Q 547.131875 324.054375 547.131875 326.054375 
L 547.131875 340.554375 
Q 547.131875 342.554375 549.131875 342.554375 
z
" style="fill: #ffffff; opacity: 0.8; stroke: #cccccc; stroke-linejoin: miter"/>
    </g>
    <g id="line2d_68">
     <path d="M 551.131875 332.974687 
L 561.131875 332.974687 
L 571.131875 332.974687 
" style="fill: none; stroke: #2e8b57; stroke-width: 2.5; stroke-linecap: square"/>
    </g>
    <g id="text_36">
     <!-- $f'(x) = 3x^2$ -->
     <g transform="translate(579.131875 336.474687) scale(0.1 -0.1)">
      <use xlink:href="#DejaVuSans-Oblique-66" transform="translate(0 0.765625)"/>
      <use xlink:href="#Cmsy10-30" transform="translate(42.652786 39.046875) scale(0.7)"/>
      <use xlink:href="#DejaVuSans-28" transform="translate(64.630326 0.765625)"/>
      <use xlink:href="#DejaVuSans-Oblique-78" transform="translate(103.643997 0.765625)"/>
      <use xlink:href="#DejaVuSans-29" transform="translate(162.823685 0.765625)"/>
      <use xlink:href="#DejaVuSans-3d" transform="translate(221.319779 0.765625)"/>
      <use xlink:href="#DejaVuSans-33" transform="translate(324.591263 0.765625)"/>
      <use xlink:href="#DejaVuSans-Oblique-78" transform="translate(388.21431 0.765625)"/>
      <use xlink:href="#DejaVuSans-32" transform="translate(451.860143 39.046875) scale(0.7)"/>
     </g>
    </g>
   </g>
  </g>
 </g>
 <defs>
  <clipPath id="p5e7dd568e0">
   <rect x="43.588125" y="23.304375" width="446.715625" height="324.25"/>
  </clipPath>
  <clipPath id="p7794c3f3a3">
   <rect x="542.131875" y="23.304375" width="446.715625" height="324.25"/>
  </clipPath>
 </defs>
</svg>
