<?xml version="1.0" encoding="utf-8" standalone="no"?>
<!DOCTYPE svg PUBLIC "-//W3C//DTD SVG 1.1//EN"
  "http://www.w3.org/Graphics/SVG/1.1/DTD/svg11.dtd">
<svg xmlns:xlink="http://www.w3.org/1999/xlink" width="1071.369375pt" height="310.499pt" viewBox="0 0 1071.369375 310.499" xmlns="http://www.w3.org/2000/svg" version="1.1">
 <metadata>
  <rdf:RDF xmlns:dc="http://purl.org/dc/elements/1.1/" xmlns:cc="http://creativecommons.org/ns#" xmlns:rdf="http://www.w3.org/1999/02/22-rdf-syntax-ns#">
   <cc:Work>
    <dc:type rdf:resource="http://purl.org/dc/dcmitype/StillImage"/>
    <dc:date>2026-07-15T17:39:36.635405</dc:date>
    <dc:format>image/svg+xml</dc:format>
    <dc:creator>
     <cc:Agent>
      <dc:title>Matplotlib v3.10.8, https://matplotlib.org/</dc:title>
     </cc:Agent>
    </dc:creator>
   </cc:Work>
  </rdf:RDF>
 </metadata>
 <defs>
  <style type="text/css">*{stroke-linejoin: round; stroke-linecap: butt}</style>
 </defs>
 <g id="figure_1">
  <g id="patch_1">
   <path d="M 0 310.499 
L 1071.369375 310.499 
L 1071.369375 0 
L 0 0 
z
" style="fill: #ffffff"/>
  </g>
  <g id="axes_1">
   <g id="patch_2">
    <path d="M 43.588125 271.974937 
L 348.125625 271.974937 
L 348.125625 35.549937 
L 43.588125 35.549937 
z
" style="fill: #ffffff"/>
   </g>
   <g id="matplotlib.axis_1">
    <g id="xtick_1">
     <g id="line2d_1">
      <path d="M 43.588125 271.974937 
L 43.588125 35.549937 
" clip-path="url(#p8ea5868c8a)" style="fill: none; stroke-dasharray: 2.96,1.28; stroke-dashoffset: 0; stroke: #b0b0b0; stroke-opacity: 0.4; stroke-width: 0.8"/>
     </g>
     <g id="line2d_2">
      <defs>
       <path id="m27aad7c31a" d="M 0 0 
L 0 3.5 
" style="stroke: #000000; stroke-width: 0.8"/>
      </defs>
      <g>
       <use xlink:href="#m27aad7c31a" x="43.588125" y="271.974937" style="stroke: #000000; stroke-width: 0.8"/>
      </g>
     </g>
     <g id="text_1">
      <!-- −3 -->
      <g transform="translate(36.217031 286.573375) scale(0.1 -0.1)">
       <defs>
        <path id="DejaVuSans-2212" d="M 678 2272 
L 4684 2272 
L 4684 1741 
L 678 1741 
L 678 2272 
z
" transform="scale(0.015625)"/>
        <path id="DejaVuSans-33" d="M 2597 2516 
Q 3050 2419 3304 2112 
Q 3559 1806 3559 1356 
Q 3559 666 3084 287 
Q 2609 -91 1734 -91 
Q 1441 -91 1130 -33 
Q 819 25 488 141 
L 488 750 
Q 750 597 1062 519 
Q 1375 441 1716 441 
Q 2309 441 2620 675 
Q 2931 909 2931 1356 
Q 2931 1769 2642 2001 
Q 2353 2234 1838 2234 
L 1294 2234 
L 1294 2753 
L 1863 2753 
Q 2328 2753 2575 2939 
Q 2822 3125 2822 3475 
Q 2822 3834 2567 4026 
Q 2313 4219 1838 4219 
Q 1578 4219 1281 4162 
Q 984 4106 628 3988 
L 628 4550 
Q 988 4650 1302 4700 
Q 1616 4750 1894 4750 
Q 2613 4750 3031 4423 
Q 3450 4097 3450 3541 
Q 3450 3153 3228 2886 
Q 3006 2619 2597 2516 
z
" transform="scale(0.015625)"/>
       </defs>
       <use xlink:href="#DejaVuSans-2212"/>
       <use xlink:href="#DejaVuSans-33" transform="translate(83.789062 0)"/>
      </g>
     </g>
    </g>
    <g id="xtick_2">
     <g id="line2d_3">
      <path d="M 94.344375 271.974937 
L 94.344375 35.549937 
" clip-path="url(#p8ea5868c8a)" style="fill: none; stroke-dasharray: 2.96,1.28; stroke-dashoffset: 0; stroke: #b0b0b0; stroke-opacity: 0.4; stroke-width: 0.8"/>
     </g>
     <g id="line2d_4">
      <g>
       <use xlink:href="#m27aad7c31a" x="94.344375" y="271.974937" style="stroke: #000000; stroke-width: 0.8"/>
      </g>
     </g>
     <g id="text_2">
      <!-- −2 -->
      <g transform="translate(86.973281 286.573375) scale(0.1 -0.1)">
       <defs>
        <path id="DejaVuSans-32" d="M 1228 531 
L 3431 531 
L 3431 0 
L 469 0 
L 469 531 
Q 828 903 1448 1529 
Q 2069 2156 2228 2338 
Q 2531 2678 2651 2914 
Q 2772 3150 2772 3378 
Q 2772 3750 2511 3984 
Q 2250 4219 1831 4219 
Q 1534 4219 1204 4116 
Q 875 4013 500 3803 
L 500 4441 
Q 881 4594 1212 4672 
Q 1544 4750 1819 4750 
Q 2544 4750 2975 4387 
Q 3406 4025 3406 3419 
Q 3406 3131 3298 2873 
Q 3191 2616 2906 2266 
Q 2828 2175 2409 1742 
Q 1991 1309 1228 531 
z
" transform="scale(0.015625)"/>
       </defs>
       <use xlink:href="#DejaVuSans-2212"/>
       <use xlink:href="#DejaVuSans-32" transform="translate(83.789062 0)"/>
      </g>
     </g>
    </g>
    <g id="xtick_3">
     <g id="line2d_5">
      <path d="M 145.100625 271.974937 
L 145.100625 35.549937 
" clip-path="url(#p8ea5868c8a)" style="fill: none; stroke-dasharray: 2.96,1.28; stroke-dashoffset: 0; stroke: #b0b0b0; stroke-opacity: 0.4; stroke-width: 0.8"/>
     </g>
     <g id="line2d_6">
      <g>
       <use xlink:href="#m27aad7c31a" x="145.100625" y="271.974937" style="stroke: #000000; stroke-width: 0.8"/>
      </g>
     </g>
     <g id="text_3">
      <!-- −1 -->
      <g transform="translate(137.729531 286.573375) scale(0.1 -0.1)">
       <defs>
        <path id="DejaVuSans-31" d="M 794 531 
L 1825 531 
L 1825 4091 
L 703 3866 
L 703 4441 
L 1819 4666 
L 2450 4666 
L 2450 531 
L 3481 531 
L 3481 0 
L 794 0 
L 794 531 
z
" transform="scale(0.015625)"/>
       </defs>
       <use xlink:href="#DejaVuSans-2212"/>
       <use xlink:href="#DejaVuSans-31" transform="translate(83.789062 0)"/>
      </g>
     </g>
    </g>
    <g id="xtick_4">
     <g id="line2d_7">
      <path d="M 195.856875 271.974937 
L 195.856875 35.549937 
" clip-path="url(#p8ea5868c8a)" style="fill: none; stroke-dasharray: 2.96,1.28; stroke-dashoffset: 0; stroke: #b0b0b0; stroke-opacity: 0.4; stroke-width: 0.8"/>
     </g>
     <g id="line2d_8">
      <g>
       <use xlink:href="#m27aad7c31a" x="195.856875" y="271.974937" style="stroke: #000000; stroke-width: 0.8"/>
      </g>
     </g>
     <g id="text_4">
      <!-- 0 -->
      <g transform="translate(192.675625 286.573375) scale(0.1 -0.1)">
       <defs>
        <path id="DejaVuSans-30" d="M 2034 4250 
Q 1547 4250 1301 3770 
Q 1056 3291 1056 2328 
Q 1056 1369 1301 889 
Q 1547 409 2034 409 
Q 2525 409 2770 889 
Q 3016 1369 3016 2328 
Q 3016 3291 2770 3770 
Q 2525 4250 2034 4250 
z
M 2034 4750 
Q 2819 4750 3233 4129 
Q 3647 3509 3647 2328 
Q 3647 1150 3233 529 
Q 2819 -91 2034 -91 
Q 1250 -91 836 529 
Q 422 1150 422 2328 
Q 422 3509 836 4129 
Q 1250 4750 2034 4750 
z
" transform="scale(0.015625)"/>
       </defs>
       <use xlink:href="#DejaVuSans-30"/>
      </g>
     </g>
    </g>
    <g id="xtick_5">
     <g id="line2d_9">
      <path d="M 246.613125 271.974937 
L 246.613125 35.549937 
" clip-path="url(#p8ea5868c8a)" style="fill: none; stroke-dasharray: 2.96,1.28; stroke-dashoffset: 0; stroke: #b0b0b0; stroke-opacity: 0.4; stroke-width: 0.8"/>
     </g>
     <g id="line2d_10">
      <g>
       <use xlink:href="#m27aad7c31a" x="246.613125" y="271.974937" style="stroke: #000000; stroke-width: 0.8"/>
      </g>
     </g>
     <g id="text_5">
      <!-- 1 -->
      <g transform="translate(243.431875 286.573375) scale(0.1 -0.1)">
       <use xlink:href="#DejaVuSans-31"/>
      </g>
     </g>
    </g>
    <g id="xtick_6">
     <g id="line2d_11">
      <path d="M 297.369375 271.974937 
L 297.369375 35.549937 
" clip-path="url(#p8ea5868c8a)" style="fill: none; stroke-dasharray: 2.96,1.28; stroke-dashoffset: 0; stroke: #b0b0b0; stroke-opacity: 0.4; stroke-width: 0.8"/>
     </g>
     <g id="line2d_12">
      <g>
       <use xlink:href="#m27aad7c31a" x="297.369375" y="271.974937" style="stroke: #000000; stroke-width: 0.8"/>
      </g>
     </g>
     <g id="text_6">
      <!-- 2 -->
      <g transform="translate(294.188125 286.573375) scale(0.1 -0.1)">
       <use xlink:href="#DejaVuSans-32"/>
      </g>
     </g>
    </g>
    <g id="xtick_7">
     <g id="line2d_13">
      <path d="M 348.125625 271.974937 
L 348.125625 35.549937 
" clip-path="url(#p8ea5868c8a)" style="fill: none; stroke-dasharray: 2.96,1.28; stroke-dashoffset: 0; stroke: #b0b0b0; stroke-opacity: 0.4; stroke-width: 0.8"/>
     </g>
     <g id="line2d_14">
      <g>
       <use xlink:href="#m27aad7c31a" x="348.125625" y="271.974937" style="stroke: #000000; stroke-width: 0.8"/>
      </g>
     </g>
     <g id="text_7">
      <!-- 3 -->
      <g transform="translate(344.944375 286.573375) scale(0.1 -0.1)">
       <use xlink:href="#DejaVuSans-33"/>
      </g>
     </g>
    </g>
    <g id="text_8">
     <!-- $x$ -->
     <g transform="translate(192.556875 301.011344) scale(0.11 -0.11)">
      <defs>
       <path id="DejaVuSans-Oblique-78" d="M 3841 3500 
L 2234 1784 
L 3219 0 
L 2559 0 
L 1819 1388 
L 531 0 
L -166 0 
L 1556 1844 
L 641 3500 
L 1300 3500 
L 1972 2234 
L 3144 3500 
L 3841 3500 
z
" transform="scale(0.015625)"/>
      </defs>
      <use xlink:href="#DejaVuSans-Oblique-78" transform="translate(0 0.3125)"/>
     </g>
    </g>
   </g>
   <g id="matplotlib.axis_2">
    <g id="ytick_1">
     <g id="line2d_15">
      <path d="M 43.588125 271.974937 
L 348.125625 271.974937 
" clip-path="url(#p8ea5868c8a)" style="fill: none; stroke-dasharray: 2.96,1.28; stroke-dashoffset: 0; stroke: #b0b0b0; stroke-opacity: 0.4; stroke-width: 0.8"/>
     </g>
     <g id="line2d_16">
      <defs>
       <path id="m02402cd53a" d="M 0 0 
L -3.5 0 
" style="stroke: #000000; stroke-width: 0.8"/>
      </defs>
      <g>
       <use xlink:href="#m02402cd53a" x="43.588125" y="271.974937" style="stroke: #000000; stroke-width: 0.8"/>
      </g>
     </g>
     <g id="text_9">
      <!-- −1 -->
      <g transform="translate(21.845938 275.774156) scale(0.1 -0.1)">
       <use xlink:href="#DejaVuSans-2212"/>
       <use xlink:href="#DejaVuSans-31" transform="translate(83.789062 0)"/>
      </g>
     </g>
    </g>
    <g id="ytick_2">
     <g id="line2d_17">
      <path d="M 43.588125 212.868687 
L 348.125625 212.868687 
" clip-path="url(#p8ea5868c8a)" style="fill: none; stroke-dasharray: 2.96,1.28; stroke-dashoffset: 0; stroke: #b0b0b0; stroke-opacity: 0.4; stroke-width: 0.8"/>
     </g>
     <g id="line2d_18">
      <g>
       <use xlink:href="#m02402cd53a" x="43.588125" y="212.868687" style="stroke: #000000; stroke-width: 0.8"/>
      </g>
     </g>
     <g id="text_10">
      <!-- 0 -->
      <g transform="translate(30.225625 216.667906) scale(0.1 -0.1)">
       <use xlink:href="#DejaVuSans-30"/>
      </g>
     </g>
    </g>
    <g id="ytick_3">
     <g id="line2d_19">
      <path d="M 43.588125 153.762437 
L 348.125625 153.762437 
" clip-path="url(#p8ea5868c8a)" style="fill: none; stroke-dasharray: 2.96,1.28; stroke-dashoffset: 0; stroke: #b0b0b0; stroke-opacity: 0.4; stroke-width: 0.8"/>
     </g>
     <g id="line2d_20">
      <g>
       <use xlink:href="#m02402cd53a" x="43.588125" y="153.762437" style="stroke: #000000; stroke-width: 0.8"/>
      </g>
     </g>
     <g id="text_11">
      <!-- 1 -->
      <g transform="translate(30.225625 157.561656) scale(0.1 -0.1)">
       <use xlink:href="#DejaVuSans-31"/>
      </g>
     </g>
    </g>
    <g id="ytick_4">
     <g id="line2d_21">
      <path d="M 43.588125 94.656187 
L 348.125625 94.656187 
" clip-path="url(#p8ea5868c8a)" style="fill: none; stroke-dasharray: 2.96,1.28; stroke-dashoffset: 0; stroke: #b0b0b0; stroke-opacity: 0.4; stroke-width: 0.8"/>
     </g>
     <g id="line2d_22">
      <g>
       <use xlink:href="#m02402cd53a" x="43.588125" y="94.656187" style="stroke: #000000; stroke-width: 0.8"/>
      </g>
     </g>
     <g id="text_12">
      <!-- 2 -->
      <g transform="translate(30.225625 98.455406) scale(0.1 -0.1)">
       <use xlink:href="#DejaVuSans-32"/>
      </g>
     </g>
    </g>
    <g id="ytick_5">
     <g id="line2d_23">
      <path d="M 43.588125 35.549937 
L 348.125625 35.549937 
" clip-path="url(#p8ea5868c8a)" style="fill: none; stroke-dasharray: 2.96,1.28; stroke-dashoffset: 0; stroke: #b0b0b0; stroke-opacity: 0.4; stroke-width: 0.8"/>
     </g>
     <g id="line2d_24">
      <g>
       <use xlink:href="#m02402cd53a" x="43.588125" y="35.549937" style="stroke: #000000; stroke-width: 0.8"/>
      </g>
     </g>
     <g id="text_13">
      <!-- 3 -->
      <g transform="translate(30.225625 39.349156) scale(0.1 -0.1)">
       <use xlink:href="#DejaVuSans-33"/>
      </g>
     </g>
    </g>
    <g id="text_14">
     <!-- $y$ -->
     <g transform="translate(15.535938 157.062437) rotate(-90) scale(0.11 -0.11)">
      <defs>
       <path id="DejaVuSans-Oblique-79" d="M 1588 -325 
Q 1188 -997 936 -1164 
Q 684 -1331 294 -1331 
L -159 -1331 
L -63 -850 
L 269 -850 
Q 509 -850 678 -719 
Q 847 -588 1056 -206 
L 1234 128 
L 459 3500 
L 1069 3500 
L 1650 819 
L 3256 3500 
L 3859 3500 
L 1588 -325 
z
" transform="scale(0.015625)"/>
      </defs>
      <use xlink:href="#DejaVuSans-Oblique-79" transform="translate(0 0.3125)"/>
     </g>
    </g>
   </g>
   <g id="line2d_25">
    <path d="M 43.588125 35.549937 
L 195.091705 211.977639 
L 196.622045 211.977639 
L 348.125625 35.549937 
L 348.125625 35.549937 
" clip-path="url(#p8ea5868c8a)" style="fill: none; stroke: #4682b4; stroke-width: 2.5; stroke-linecap: square"/>
   </g>
   <g id="line2d_26">
    <path d="M 145.100625 153.762437 
L 147.172309 156.174937 
L 149.243992 158.587437 
L 151.315676 160.999937 
L 153.38736 163.412437 
L 155.459043 165.824937 
L 157.530727 168.237437 
L 159.602411 170.649937 
L 161.674094 173.062437 
L 163.745778 175.474937 
L 165.817462 177.887437 
L 167.889145 180.299937 
L 169.960829 182.712437 
L 172.032513 185.124937 
L 174.104196 187.537437 
L 176.17588 189.949937 
L 178.247564 192.362437 
L 180.319247 194.774937 
L 182.390931 197.187437 
L 184.462615 199.599937 
L 186.534298 202.012437 
L 188.605982 204.424937 
L 190.677666 206.837437 
L 192.749349 209.249937 
L 194.821033 211.662437 
L 196.892717 214.074937 
L 198.964401 216.487437 
L 201.036084 218.899937 
L 203.107768 221.312437 
L 205.179452 223.724937 
L 207.251135 226.137437 
L 209.322819 228.549937 
L 211.394503 230.962437 
L 213.466186 233.374937 
L 215.53787 235.787437 
L 217.609554 238.199937 
L 219.681237 240.612437 
L 221.752921 243.024937 
L 223.824605 245.437437 
L 225.896288 247.849937 
L 227.967972 250.262437 
L 230.039656 252.674937 
L 232.111339 255.087437 
L 234.183023 257.499937 
L 236.254707 259.912437 
L 238.32639 262.324937 
L 240.398074 264.737437 
L 242.469758 267.149937 
L 244.541441 269.562437 
L 246.613125 271.974937 
" clip-path="url(#p8ea5868c8a)" style="fill: none; stroke-dasharray: 3.7,1.6; stroke-dashoffset: 0; stroke: #cc0000; stroke-opacity: 0.5"/>
   </g>
   <g id="line2d_27">
    <path d="M 145.100625 195.136812 
L 147.172309 195.860562 
L 149.243992 196.584312 
L 151.315676 197.308062 
L 153.38736 198.031812 
L 155.459043 198.755562 
L 157.530727 199.479312 
L 159.602411 200.203062 
L 161.674094 200.926812 
L 163.745778 201.650562 
L 165.817462 202.374312 
L 167.889145 203.098062 
L 169.960829 203.821812 
L 172.032513 204.545562 
L 174.104196 205.269312 
L 176.17588 205.993062 
L 178.247564 206.716812 
L 180.319247 207.440562 
L 182.390931 208.164312 
L 184.462615 208.888062 
L 186.534298 209.611812 
L 188.605982 210.335562 
L 190.677666 211.059312 
L 192.749349 211.783062 
L 194.821033 212.506812 
L 196.892717 213.230562 
L 198.964401 213.954312 
L 201.036084 214.678062 
L 203.107768 215.401812 
L 205.179452 216.125562 
L 207.251135 216.849312 
L 209.322819 217.573062 
L 211.394503 218.296812 
L 213.466186 219.020562 
L 215.53787 219.744312 
L 217.609554 220.468062 
L 219.681237 221.191812 
L 221.752921 221.915562 
L 223.824605 222.639312 
L 225.896288 223.363062 
L 227.967972 224.086812 
L 230.039656 224.810562 
L 232.111339 225.534312 
L 234.183023 226.258062 
L 236.254707 226.981812 
L 238.32639 227.705562 
L 240.398074 228.429312 
L 242.469758 229.153062 
L 244.541441 229.876812 
L 246.613125 230.600562 
" clip-path="url(#p8ea5868c8a)" style="fill: none; stroke-dasharray: 3.7,1.6; stroke-dashoffset: 0; stroke: #cc0000; stroke-opacity: 0.5"/>
   </g>
   <g id="line2d_28">
    <path d="M 145.100625 230.600562 
L 147.172309 229.876812 
L 149.243992 229.153062 
L 151.315676 228.429312 
L 153.38736 227.705562 
L 155.459043 226.981812 
L 157.530727 226.258062 
L 159.602411 225.534312 
L 161.674094 224.810562 
L 163.745778 224.086812 
L 165.817462 223.363062 
L 167.889145 222.639312 
L 169.960829 221.915562 
L 172.032513 221.191812 
L 174.104196 220.468062 
L 176.17588 219.744312 
L 178.247564 219.020562 
L 180.319247 218.296812 
L 182.390931 217.573062 
L 184.462615 216.849312 
L 186.534298 216.125562 
L 188.605982 215.401812 
L 190.677666 214.678062 
L 192.749349 213.954312 
L 194.821033 213.230562 
L 196.892717 212.506812 
L 198.964401 211.783062 
L 201.036084 211.059312 
L 203.107768 210.335562 
L 205.179452 209.611812 
L 207.251135 208.888062 
L 209.322819 208.164312 
L 211.394503 207.440562 
L 213.466186 206.716812 
L 215.53787 205.993062 
L 217.609554 205.269312 
L 219.681237 204.545562 
L 221.752921 203.821812 
L 223.824605 203.098062 
L 225.896288 202.374312 
L 227.967972 201.650562 
L 230.039656 200.926812 
L 232.111339 200.203062 
L 234.183023 199.479312 
L 236.254707 198.755562 
L 238.32639 198.031812 
L 240.398074 197.308062 
L 242.469758 196.584312 
L 244.541441 195.860562 
L 246.613125 195.136812 
" clip-path="url(#p8ea5868c8a)" style="fill: none; stroke-dasharray: 3.7,1.6; stroke-dashoffset: 0; stroke: #cc0000; stroke-opacity: 0.5"/>
   </g>
   <g id="line2d_29">
    <path d="M 145.100625 271.974937 
L 147.172309 269.562437 
L 149.243992 267.149937 
L 151.315676 264.737437 
L 153.38736 262.324937 
L 155.459043 259.912437 
L 157.530727 257.499937 
L 159.602411 255.087437 
L 161.674094 252.674937 
L 163.745778 250.262437 
L 165.817462 247.849937 
L 167.889145 245.437437 
L 169.960829 243.024937 
L 172.032513 240.612437 
L 174.104196 238.199937 
L 176.17588 235.787437 
L 178.247564 233.374937 
L 180.319247 230.962437 
L 182.390931 228.549937 
L 184.462615 226.137437 
L 186.534298 223.724937 
L 188.605982 221.312437 
L 190.677666 218.899937 
L 192.749349 216.487437 
L 194.821033 214.074937 
L 196.892717 211.662437 
L 198.964401 209.249937 
L 201.036084 206.837437 
L 203.107768 204.424937 
L 205.179452 202.012437 
L 207.251135 199.599937 
L 209.322819 197.187437 
L 211.394503 194.774937 
L 213.466186 192.362437 
L 215.53787 189.949937 
L 217.609554 187.537437 
L 219.681237 185.124937 
L 221.752921 182.712437 
L 223.824605 180.299937 
L 225.896288 177.887437 
L 227.967972 175.474937 
L 230.039656 173.062437 
L 232.111339 170.649937 
L 234.183023 168.237437 
L 236.254707 165.824937 
L 238.32639 163.412437 
L 240.398074 160.999937 
L 242.469758 158.587437 
L 244.541441 156.174937 
L 246.613125 153.762437 
" clip-path="url(#p8ea5868c8a)" style="fill: none; stroke-dasharray: 3.7,1.6; stroke-dashoffset: 0; stroke: #cc0000; stroke-opacity: 0.5"/>
   </g>
   <g id="line2d_30">
    <path d="M 43.588125 212.868687 
L 348.125625 212.868687 
" clip-path="url(#p8ea5868c8a)" style="fill: none; stroke: #000000; stroke-width: 0.8; stroke-linecap: square"/>
   </g>
   <g id="line2d_31">
    <path d="M 195.856875 271.974937 
L 195.856875 35.549937 
" clip-path="url(#p8ea5868c8a)" style="fill: none; stroke: #000000; stroke-width: 0.8; stroke-linecap: square"/>
   </g>
   <g id="patch_3">
    <path d="M 43.588125 271.974937 
L 43.588125 35.549937 
" style="fill: none; stroke: #000000; stroke-width: 0.8; stroke-linejoin: miter; stroke-linecap: square"/>
   </g>
   <g id="patch_4">
    <path d="M 348.125625 271.974937 
L 348.125625 35.549937 
" style="fill: none; stroke: #000000; stroke-width: 0.8; stroke-linejoin: miter; stroke-linecap: square"/>
   </g>
   <g id="patch_5">
    <path d="M 43.588125 271.974937 
L 348.125625 271.974937 
" style="fill: none; stroke: #000000; stroke-width: 0.8; stroke-linejoin: miter; stroke-linecap: square"/>
   </g>
   <g id="patch_6">
    <path d="M 43.588125 35.549937 
L 348.125625 35.549937 
" style="fill: none; stroke: #000000; stroke-width: 0.8; stroke-linejoin: miter; stroke-linecap: square"/>
   </g>
   <g id="text_15">
    <!-- Corner: $f(x) = |x|$ -->
    <g style="fill: #808080" transform="translate(150.426875 16.88) scale(0.11 -0.11)">
     <defs>
      <path id="DejaVuSans-43" d="M 4122 4306 
L 4122 3641 
Q 3803 3938 3442 4084 
Q 3081 4231 2675 4231 
Q 1875 4231 1450 3742 
Q 1025 3253 1025 2328 
Q 1025 1406 1450 917 
Q 1875 428 2675 428 
Q 3081 428 3442 575 
Q 3803 722 4122 1019 
L 4122 359 
Q 3791 134 3420 21 
Q 3050 -91 2638 -91 
Q 1578 -91 968 557 
Q 359 1206 359 2328 
Q 359 3453 968 4101 
Q 1578 4750 2638 4750 
Q 3056 4750 3426 4639 
Q 3797 4528 4122 4306 
z
" transform="scale(0.015625)"/>
      <path id="DejaVuSans-6f" d="M 1959 3097 
Q 1497 3097 1228 2736 
Q 959 2375 959 1747 
Q 959 1119 1226 758 
Q 1494 397 1959 397 
Q 2419 397 2687 759 
Q 2956 1122 2956 1747 
Q 2956 2369 2687 2733 
Q 2419 3097 1959 3097 
z
M 1959 3584 
Q 2709 3584 3137 3096 
Q 3566 2609 3566 1747 
Q 3566 888 3137 398 
Q 2709 -91 1959 -91 
Q 1206 -91 779 398 
Q 353 888 353 1747 
Q 353 2609 779 3096 
Q 1206 3584 1959 3584 
z
" transform="scale(0.015625)"/>
      <path id="DejaVuSans-72" d="M 2631 2963 
Q 2534 3019 2420 3045 
Q 2306 3072 2169 3072 
Q 1681 3072 1420 2755 
Q 1159 2438 1159 1844 
L 1159 0 
L 581 0 
L 581 3500 
L 1159 3500 
L 1159 2956 
Q 1341 3275 1631 3429 
Q 1922 3584 2338 3584 
Q 2397 3584 2469 3576 
Q 2541 3569 2628 3553 
L 2631 2963 
z
" transform="scale(0.015625)"/>
      <path id="DejaVuSans-6e" d="M 3513 2113 
L 3513 0 
L 2938 0 
L 2938 2094 
Q 2938 2591 2744 2837 
Q 2550 3084 2163 3084 
Q 1697 3084 1428 2787 
Q 1159 2491 1159 1978 
L 1159 0 
L 581 0 
L 581 3500 
L 1159 3500 
L 1159 2956 
Q 1366 3272 1645 3428 
Q 1925 3584 2291 3584 
Q 2894 3584 3203 3211 
Q 3513 2838 3513 2113 
z
" transform="scale(0.015625)"/>
      <path id="DejaVuSans-65" d="M 3597 1894 
L 3597 1613 
L 953 1613 
Q 991 1019 1311 708 
Q 1631 397 2203 397 
Q 2534 397 2845 478 
Q 3156 559 3463 722 
L 3463 178 
Q 3153 47 2828 -22 
Q 2503 -91 2169 -91 
Q 1331 -91 842 396 
Q 353 884 353 1716 
Q 353 2575 817 3079 
Q 1281 3584 2069 3584 
Q 2775 3584 3186 3129 
Q 3597 2675 3597 1894 
z
M 3022 2063 
Q 3016 2534 2758 2815 
Q 2500 3097 2075 3097 
Q 1594 3097 1305 2825 
Q 1016 2553 972 2059 
L 3022 2063 
z
" transform="scale(0.015625)"/>
      <path id="DejaVuSans-3a" d="M 750 794 
L 1409 794 
L 1409 0 
L 750 0 
L 750 794 
z
M 750 3309 
L 1409 3309 
L 1409 2516 
L 750 2516 
L 750 3309 
z
" transform="scale(0.015625)"/>
      <path id="DejaVuSans-20" transform="scale(0.015625)"/>
      <path id="DejaVuSans-Oblique-66" d="M 3059 4863 
L 2969 4384 
L 2419 4384 
Q 2106 4384 1964 4261 
Q 1822 4138 1753 3809 
L 1691 3500 
L 2638 3500 
L 2553 3053 
L 1606 3053 
L 1013 0 
L 434 0 
L 1031 3053 
L 481 3053 
L 563 3500 
L 1113 3500 
L 1159 3744 
Q 1278 4363 1576 4613 
Q 1875 4863 2516 4863 
L 3059 4863 
z
" transform="scale(0.015625)"/>
      <path id="DejaVuSans-28" d="M 1984 4856 
Q 1566 4138 1362 3434 
Q 1159 2731 1159 2009 
Q 1159 1288 1364 580 
Q 1569 -128 1984 -844 
L 1484 -844 
Q 1016 -109 783 600 
Q 550 1309 550 2009 
Q 550 2706 781 3412 
Q 1013 4119 1484 4856 
L 1984 4856 
z
" transform="scale(0.015625)"/>
      <path id="DejaVuSans-29" d="M 513 4856 
L 1013 4856 
Q 1481 4119 1714 3412 
Q 1947 2706 1947 2009 
Q 1947 1309 1714 600 
Q 1481 -109 1013 -844 
L 513 -844 
Q 928 -128 1133 580 
Q 1338 1288 1338 2009 
Q 1338 2731 1133 3434 
Q 928 4138 513 4856 
z
" transform="scale(0.015625)"/>
      <path id="DejaVuSans-3d" d="M 678 2906 
L 4684 2906 
L 4684 2381 
L 678 2381 
L 678 2906 
z
M 678 1631 
L 4684 1631 
L 4684 1100 
L 678 1100 
L 678 1631 
z
" transform="scale(0.015625)"/>
      <path id="DejaVuSans-7c" d="M 1344 4891 
L 1344 -1509 
L 813 -1509 
L 813 4891 
L 1344 4891 
z
" transform="scale(0.015625)"/>
     </defs>
     <use xlink:href="#DejaVuSans-43" transform="translate(0 0.578125)"/>
     <use xlink:href="#DejaVuSans-6f" transform="translate(69.824219 0.578125)"/>
     <use xlink:href="#DejaVuSans-72" transform="translate(131.005859 0.578125)"/>
     <use xlink:href="#DejaVuSans-6e" transform="translate(172.119141 0.578125)"/>
     <use xlink:href="#DejaVuSans-65" transform="translate(235.498047 0.578125)"/>
     <use xlink:href="#DejaVuSans-72" transform="translate(297.021484 0.578125)"/>
     <use xlink:href="#DejaVuSans-3a" transform="translate(338.134766 0.578125)"/>
     <use xlink:href="#DejaVuSans-20" transform="translate(371.826172 0.578125)"/>
     <use xlink:href="#DejaVuSans-Oblique-66" transform="translate(403.613281 0.578125)"/>
     <use xlink:href="#DejaVuSans-28" transform="translate(438.818359 0.578125)"/>
     <use xlink:href="#DejaVuSans-Oblique-78" transform="translate(477.832031 0.578125)"/>
     <use xlink:href="#DejaVuSans-29" transform="translate(537.011719 0.578125)"/>
     <use xlink:href="#DejaVuSans-3d" transform="translate(595.507812 0.578125)"/>
     <use xlink:href="#DejaVuSans-7c" transform="translate(698.779297 0.578125)"/>
     <use xlink:href="#DejaVuSans-Oblique-78" transform="translate(732.470703 0.578125)"/>
     <use xlink:href="#DejaVuSans-7c" transform="translate(791.650391 0.578125)"/>
    </g>
    <!-- Not differentiable at $x=0$ -->
    <g style="fill: #808080" transform="translate(125.071875 29.549937) scale(0.11 -0.11)">
     <defs>
      <path id="DejaVuSans-4e" d="M 628 4666 
L 1478 4666 
L 3547 763 
L 3547 4666 
L 4159 4666 
L 4159 0 
L 3309 0 
L 1241 3903 
L 1241 0 
L 628 0 
L 628 4666 
z
" transform="scale(0.015625)"/>
      <path id="DejaVuSans-74" d="M 1172 4494 
L 1172 3500 
L 2356 3500 
L 2356 3053 
L 1172 3053 
L 1172 1153 
Q 1172 725 1289 603 
Q 1406 481 1766 481 
L 2356 481 
L 2356 0 
L 1766 0 
Q 1100 0 847 248 
Q 594 497 594 1153 
L 594 3053 
L 172 3053 
L 172 3500 
L 594 3500 
L 594 4494 
L 1172 4494 
z
" transform="scale(0.015625)"/>
      <path id="DejaVuSans-64" d="M 2906 2969 
L 2906 4863 
L 3481 4863 
L 3481 0 
L 2906 0 
L 2906 525 
Q 2725 213 2448 61 
Q 2172 -91 1784 -91 
Q 1150 -91 751 415 
Q 353 922 353 1747 
Q 353 2572 751 3078 
Q 1150 3584 1784 3584 
Q 2172 3584 2448 3432 
Q 2725 3281 2906 2969 
z
M 947 1747 
Q 947 1113 1208 752 
Q 1469 391 1925 391 
Q 2381 391 2643 752 
Q 2906 1113 2906 1747 
Q 2906 2381 2643 2742 
Q 2381 3103 1925 3103 
Q 1469 3103 1208 2742 
Q 947 2381 947 1747 
z
" transform="scale(0.015625)"/>
      <path id="DejaVuSans-69" d="M 603 3500 
L 1178 3500 
L 1178 0 
L 603 0 
L 603 3500 
z
M 603 4863 
L 1178 4863 
L 1178 4134 
L 603 4134 
L 603 4863 
z
" transform="scale(0.015625)"/>
      <path id="DejaVuSans-66" d="M 2375 4863 
L 2375 4384 
L 1825 4384 
Q 1516 4384 1395 4259 
Q 1275 4134 1275 3809 
L 1275 3500 
L 2222 3500 
L 2222 3053 
L 1275 3053 
L 1275 0 
L 697 0 
L 697 3053 
L 147 3053 
L 147 3500 
L 697 3500 
L 697 3744 
Q 697 4328 969 4595 
Q 1241 4863 1831 4863 
L 2375 4863 
z
" transform="scale(0.015625)"/>
      <path id="DejaVuSans-61" d="M 2194 1759 
Q 1497 1759 1228 1600 
Q 959 1441 959 1056 
Q 959 750 1161 570 
Q 1363 391 1709 391 
Q 2188 391 2477 730 
Q 2766 1069 2766 1631 
L 2766 1759 
L 2194 1759 
z
M 3341 1997 
L 3341 0 
L 2766 0 
L 2766 531 
Q 2569 213 2275 61 
Q 1981 -91 1556 -91 
Q 1019 -91 701 211 
Q 384 513 384 1019 
Q 384 1609 779 1909 
Q 1175 2209 1959 2209 
L 2766 2209 
L 2766 2266 
Q 2766 2663 2505 2880 
Q 2244 3097 1772 3097 
Q 1472 3097 1187 3025 
Q 903 2953 641 2809 
L 641 3341 
Q 956 3463 1253 3523 
Q 1550 3584 1831 3584 
Q 2591 3584 2966 3190 
Q 3341 2797 3341 1997 
z
" transform="scale(0.015625)"/>
      <path id="DejaVuSans-62" d="M 3116 1747 
Q 3116 2381 2855 2742 
Q 2594 3103 2138 3103 
Q 1681 3103 1420 2742 
Q 1159 2381 1159 1747 
Q 1159 1113 1420 752 
Q 1681 391 2138 391 
Q 2594 391 2855 752 
Q 3116 1113 3116 1747 
z
M 1159 2969 
Q 1341 3281 1617 3432 
Q 1894 3584 2278 3584 
Q 2916 3584 3314 3078 
Q 3713 2572 3713 1747 
Q 3713 922 3314 415 
Q 2916 -91 2278 -91 
Q 1894 -91 1617 61 
Q 1341 213 1159 525 
L 1159 0 
L 581 0 
L 581 4863 
L 1159 4863 
L 1159 2969 
z
" transform="scale(0.015625)"/>
      <path id="DejaVuSans-6c" d="M 603 4863 
L 1178 4863 
L 1178 0 
L 603 0 
L 603 4863 
z
" transform="scale(0.015625)"/>
     </defs>
     <use xlink:href="#DejaVuSans-4e" transform="translate(0 0.015625)"/>
     <use xlink:href="#DejaVuSans-6f" transform="translate(74.804688 0.015625)"/>
     <use xlink:href="#DejaVuSans-74" transform="translate(135.986328 0.015625)"/>
     <use xlink:href="#DejaVuSans-20" transform="translate(175.195312 0.015625)"/>
     <use xlink:href="#DejaVuSans-64" transform="translate(206.982422 0.015625)"/>
     <use xlink:href="#DejaVuSans-69" transform="translate(270.458984 0.015625)"/>
     <use xlink:href="#DejaVuSans-66" transform="translate(298.242188 0.015625)"/>
     <use xlink:href="#DejaVuSans-66" transform="translate(333.447266 0.015625)"/>
     <use xlink:href="#DejaVuSans-65" transform="translate(368.652344 0.015625)"/>
     <use xlink:href="#DejaVuSans-72" transform="translate(430.175781 0.015625)"/>
     <use xlink:href="#DejaVuSans-65" transform="translate(471.289062 0.015625)"/>
     <use xlink:href="#DejaVuSans-6e" transform="translate(532.8125 0.015625)"/>
     <use xlink:href="#DejaVuSans-74" transform="translate(596.191406 0.015625)"/>
     <use xlink:href="#DejaVuSans-69" transform="translate(635.400391 0.015625)"/>
     <use xlink:href="#DejaVuSans-61" transform="translate(663.183594 0.015625)"/>
     <use xlink:href="#DejaVuSans-62" transform="translate(724.462891 0.015625)"/>
     <use xlink:href="#DejaVuSans-6c" transform="translate(787.939453 0.015625)"/>
     <use xlink:href="#DejaVuSans-65" transform="translate(815.722656 0.015625)"/>
     <use xlink:href="#DejaVuSans-20" transform="translate(877.246094 0.015625)"/>
     <use xlink:href="#DejaVuSans-61" transform="translate(909.033203 0.015625)"/>
     <use xlink:href="#DejaVuSans-74" transform="translate(970.3125 0.015625)"/>
     <use xlink:href="#DejaVuSans-20" transform="translate(1009.521484 0.015625)"/>
     <use xlink:href="#DejaVuSans-Oblique-78" transform="translate(1041.308594 0.015625)"/>
     <use xlink:href="#DejaVuSans-3d" transform="translate(1119.970703 0.015625)"/>
     <use xlink:href="#DejaVuSans-30" transform="translate(1223.242188 0.015625)"/>
    </g>
   </g>
   <g id="line2d_32">
    <defs>
     <path id="md0bcac0730" d="M 0 5 
C 1.326016 5 2.597899 4.473168 3.535534 3.535534 
C 4.473168 2.597899 5 1.326016 5 0 
C 5 -1.326016 4.473168 -2.597899 3.535534 -3.535534 
C 2.597899 -4.473168 1.326016 -5 0 -5 
C -1.326016 -5 -2.597899 -4.473168 -3.535534 -3.535534 
C -4.473168 -2.597899 -5 -1.326016 -5 0 
C -5 1.326016 -4.473168 2.597899 -3.535534 3.535534 
C -2.597899 4.473168 -1.326016 5 0 5 
z
" style="stroke: #cc0000"/>
    </defs>
    <g clip-path="url(#p8ea5868c8a)">
     <use xlink:href="#md0bcac0730" x="195.856875" y="212.868687" style="fill: #cc0000; stroke: #cc0000"/>
    </g>
   </g>
  </g>
  <g id="axes_2">
   <g id="patch_7">
    <path d="M 400.019375 271.974937 
L 704.556875 271.974937 
L 704.556875 35.549937 
L 400.019375 35.549937 
z
" style="fill: #ffffff"/>
   </g>
   <g id="matplotlib.axis_3">
    <g id="xtick_8">
     <g id="line2d_33">
      <path d="M 400.019375 271.974937 
L 400.019375 35.549937 
" clip-path="url(#p4cd9521f42)" style="fill: none; stroke-dasharray: 2.96,1.28; stroke-dashoffset: 0; stroke: #b0b0b0; stroke-opacity: 0.4; stroke-width: 0.8"/>
     </g>
     <g id="line2d_34">
      <g>
       <use xlink:href="#m27aad7c31a" x="400.019375" y="271.974937" style="stroke: #000000; stroke-width: 0.8"/>
      </g>
     </g>
     <g id="text_16">
      <!-- −3 -->
      <g transform="translate(392.648281 286.573375) scale(0.1 -0.1)">
       <use xlink:href="#DejaVuSans-2212"/>
       <use xlink:href="#DejaVuSans-33" transform="translate(83.789062 0)"/>
      </g>
     </g>
    </g>
    <g id="xtick_9">
     <g id="line2d_35">
      <path d="M 450.775625 271.974937 
L 450.775625 35.549937 
" clip-path="url(#p4cd9521f42)" style="fill: none; stroke-dasharray: 2.96,1.28; stroke-dashoffset: 0; stroke: #b0b0b0; stroke-opacity: 0.4; stroke-width: 0.8"/>
     </g>
     <g id="line2d_36">
      <g>
       <use xlink:href="#m27aad7c31a" x="450.775625" y="271.974937" style="stroke: #000000; stroke-width: 0.8"/>
      </g>
     </g>
     <g id="text_17">
      <!-- −2 -->
      <g transform="translate(443.404531 286.573375) scale(0.1 -0.1)">
       <use xlink:href="#DejaVuSans-2212"/>
       <use xlink:href="#DejaVuSans-32" transform="translate(83.789062 0)"/>
      </g>
     </g>
    </g>
    <g id="xtick_10">
     <g id="line2d_37">
      <path d="M 501.531875 271.974937 
L 501.531875 35.549937 
" clip-path="url(#p4cd9521f42)" style="fill: none; stroke-dasharray: 2.96,1.28; stroke-dashoffset: 0; stroke: #b0b0b0; stroke-opacity: 0.4; stroke-width: 0.8"/>
     </g>
     <g id="line2d_38">
      <g>
       <use xlink:href="#m27aad7c31a" x="501.531875" y="271.974937" style="stroke: #000000; stroke-width: 0.8"/>
      </g>
     </g>
     <g id="text_18">
      <!-- −1 -->
      <g transform="translate(494.160781 286.573375) scale(0.1 -0.1)">
       <use xlink:href="#DejaVuSans-2212"/>
       <use xlink:href="#DejaVuSans-31" transform="translate(83.789062 0)"/>
      </g>
     </g>
    </g>
    <g id="xtick_11">
     <g id="line2d_39">
      <path d="M 552.288125 271.974937 
L 552.288125 35.549937 
" clip-path="url(#p4cd9521f42)" style="fill: none; stroke-dasharray: 2.96,1.28; stroke-dashoffset: 0; stroke: #b0b0b0; stroke-opacity: 0.4; stroke-width: 0.8"/>
     </g>
     <g id="line2d_40">
      <g>
       <use xlink:href="#m27aad7c31a" x="552.288125" y="271.974937" style="stroke: #000000; stroke-width: 0.8"/>
      </g>
     </g>
     <g id="text_19">
      <!-- 0 -->
      <g transform="translate(549.106875 286.573375) scale(0.1 -0.1)">
       <use xlink:href="#DejaVuSans-30"/>
      </g>
     </g>
    </g>
    <g id="xtick_12">
     <g id="line2d_41">
      <path d="M 603.044375 271.974937 
L 603.044375 35.549937 
" clip-path="url(#p4cd9521f42)" style="fill: none; stroke-dasharray: 2.96,1.28; stroke-dashoffset: 0; stroke: #b0b0b0; stroke-opacity: 0.4; stroke-width: 0.8"/>
     </g>
     <g id="line2d_42">
      <g>
       <use xlink:href="#m27aad7c31a" x="603.044375" y="271.974937" style="stroke: #000000; stroke-width: 0.8"/>
      </g>
     </g>
     <g id="text_20">
      <!-- 1 -->
      <g transform="translate(599.863125 286.573375) scale(0.1 -0.1)">
       <use xlink:href="#DejaVuSans-31"/>
      </g>
     </g>
    </g>
    <g id="xtick_13">
     <g id="line2d_43">
      <path d="M 653.800625 271.974937 
L 653.800625 35.549937 
" clip-path="url(#p4cd9521f42)" style="fill: none; stroke-dasharray: 2.96,1.28; stroke-dashoffset: 0; stroke: #b0b0b0; stroke-opacity: 0.4; stroke-width: 0.8"/>
     </g>
     <g id="line2d_44">
      <g>
       <use xlink:href="#m27aad7c31a" x="653.800625" y="271.974937" style="stroke: #000000; stroke-width: 0.8"/>
      </g>
     </g>
     <g id="text_21">
      <!-- 2 -->
      <g transform="translate(650.619375 286.573375) scale(0.1 -0.1)">
       <use xlink:href="#DejaVuSans-32"/>
      </g>
     </g>
    </g>
    <g id="xtick_14">
     <g id="line2d_45">
      <path d="M 704.556875 271.974937 
L 704.556875 35.549937 
" clip-path="url(#p4cd9521f42)" style="fill: none; stroke-dasharray: 2.96,1.28; stroke-dashoffset: 0; stroke: #b0b0b0; stroke-opacity: 0.4; stroke-width: 0.8"/>
     </g>
     <g id="line2d_46">
      <g>
       <use xlink:href="#m27aad7c31a" x="704.556875" y="271.974937" style="stroke: #000000; stroke-width: 0.8"/>
      </g>
     </g>
     <g id="text_22">
      <!-- 3 -->
      <g transform="translate(701.375625 286.573375) scale(0.1 -0.1)">
       <use xlink:href="#DejaVuSans-33"/>
      </g>
     </g>
    </g>
    <g id="text_23">
     <!-- $x$ -->
     <g transform="translate(548.988125 301.011344) scale(0.11 -0.11)">
      <use xlink:href="#DejaVuSans-Oblique-78" transform="translate(0 0.3125)"/>
     </g>
    </g>
   </g>
   <g id="matplotlib.axis_4">
    <g id="ytick_6">
     <g id="line2d_47">
      <path d="M 400.019375 271.974938 
L 704.556875 271.974938 
" clip-path="url(#p4cd9521f42)" style="fill: none; stroke-dasharray: 2.96,1.28; stroke-dashoffset: 0; stroke: #b0b0b0; stroke-opacity: 0.4; stroke-width: 0.8"/>
     </g>
     <g id="line2d_48">
      <g>
       <use xlink:href="#m02402cd53a" x="400.019375" y="271.974938" style="stroke: #000000; stroke-width: 0.8"/>
      </g>
     </g>
     <g id="text_24">
      <!-- −1 -->
      <g transform="translate(378.277188 275.774156) scale(0.1 -0.1)">
       <use xlink:href="#DejaVuSans-2212"/>
       <use xlink:href="#DejaVuSans-31" transform="translate(83.789062 0)"/>
      </g>
     </g>
    </g>
    <g id="ytick_7">
     <g id="line2d_49">
      <path d="M 400.019375 224.689937 
L 704.556875 224.689937 
" clip-path="url(#p4cd9521f42)" style="fill: none; stroke-dasharray: 2.96,1.28; stroke-dashoffset: 0; stroke: #b0b0b0; stroke-opacity: 0.4; stroke-width: 0.8"/>
     </g>
     <g id="line2d_50">
      <g>
       <use xlink:href="#m02402cd53a" x="400.019375" y="224.689937" style="stroke: #000000; stroke-width: 0.8"/>
      </g>
     </g>
     <g id="text_25">
      <!-- 0 -->
      <g transform="translate(386.656875 228.489156) scale(0.1 -0.1)">
       <use xlink:href="#DejaVuSans-30"/>
      </g>
     </g>
    </g>
    <g id="ytick_8">
     <g id="line2d_51">
      <path d="M 400.019375 177.404937 
L 704.556875 177.404937 
" clip-path="url(#p4cd9521f42)" style="fill: none; stroke-dasharray: 2.96,1.28; stroke-dashoffset: 0; stroke: #b0b0b0; stroke-opacity: 0.4; stroke-width: 0.8"/>
     </g>
     <g id="line2d_52">
      <g>
       <use xlink:href="#m02402cd53a" x="400.019375" y="177.404937" style="stroke: #000000; stroke-width: 0.8"/>
      </g>
     </g>
     <g id="text_26">
      <!-- 1 -->
      <g transform="translate(386.656875 181.204156) scale(0.1 -0.1)">
       <use xlink:href="#DejaVuSans-31"/>
      </g>
     </g>
    </g>
    <g id="ytick_9">
     <g id="line2d_53">
      <path d="M 400.019375 130.119937 
L 704.556875 130.119937 
" clip-path="url(#p4cd9521f42)" style="fill: none; stroke-dasharray: 2.96,1.28; stroke-dashoffset: 0; stroke: #b0b0b0; stroke-opacity: 0.4; stroke-width: 0.8"/>
     </g>
     <g id="line2d_54">
      <g>
       <use xlink:href="#m02402cd53a" x="400.019375" y="130.119937" style="stroke: #000000; stroke-width: 0.8"/>
      </g>
     </g>
     <g id="text_27">
      <!-- 2 -->
      <g transform="translate(386.656875 133.919156) scale(0.1 -0.1)">
       <use xlink:href="#DejaVuSans-32"/>
      </g>
     </g>
    </g>
    <g id="ytick_10">
     <g id="line2d_55">
      <path d="M 400.019375 82.834937 
L 704.556875 82.834937 
" clip-path="url(#p4cd9521f42)" style="fill: none; stroke-dasharray: 2.96,1.28; stroke-dashoffset: 0; stroke: #b0b0b0; stroke-opacity: 0.4; stroke-width: 0.8"/>
     </g>
     <g id="line2d_56">
      <g>
       <use xlink:href="#m02402cd53a" x="400.019375" y="82.834937" style="stroke: #000000; stroke-width: 0.8"/>
      </g>
     </g>
     <g id="text_28">
      <!-- 3 -->
      <g transform="translate(386.656875 86.634156) scale(0.1 -0.1)">
       <use xlink:href="#DejaVuSans-33"/>
      </g>
     </g>
    </g>
    <g id="ytick_11">
     <g id="line2d_57">
      <path d="M 400.019375 35.549937 
L 704.556875 35.549937 
" clip-path="url(#p4cd9521f42)" style="fill: none; stroke-dasharray: 2.96,1.28; stroke-dashoffset: 0; stroke: #b0b0b0; stroke-opacity: 0.4; stroke-width: 0.8"/>
     </g>
     <g id="line2d_58">
      <g>
       <use xlink:href="#m02402cd53a" x="400.019375" y="35.549937" style="stroke: #000000; stroke-width: 0.8"/>
      </g>
     </g>
     <g id="text_29">
      <!-- 4 -->
      <g transform="translate(386.656875 39.349156) scale(0.1 -0.1)">
       <defs>
        <path id="DejaVuSans-34" d="M 2419 4116 
L 825 1625 
L 2419 1625 
L 2419 4116 
z
M 2253 4666 
L 3047 4666 
L 3047 1625 
L 3713 1625 
L 3713 1100 
L 3047 1100 
L 3047 0 
L 2419 0 
L 2419 1100 
L 313 1100 
L 313 1709 
L 2253 4666 
z
" transform="scale(0.015625)"/>
       </defs>
       <use xlink:href="#DejaVuSans-34"/>
      </g>
     </g>
    </g>
    <g id="text_30">
     <!-- $y$ -->
     <g transform="translate(371.967188 157.062437) rotate(-90) scale(0.11 -0.11)">
      <use xlink:href="#DejaVuSans-Oblique-79" transform="translate(0 0.3125)"/>
     </g>
    </g>
   </g>
   <g id="line2d_59">
    <path d="M 400.019375 130.119937 
L 401.044754 130.119937 
L 402.070133 130.119937 
L 403.095511 130.119937 
L 404.12089 130.119937 
L 405.146269 130.119937 
L 406.171648 130.119937 
L 407.197027 130.119937 
L 408.222405 130.119937 
L 409.247784 130.119937 
L 410.273163 130.119937 
L 411.298542 130.119937 
L 412.32392 130.119937 
L 413.349299 130.119937 
L 414.374678 130.119937 
L 415.400057 130.119937 
L 416.425436 130.119937 
L 417.450814 130.119937 
L 418.476193 130.119937 
L 419.501572 130.119937 
L 420.526951 130.119937 
L 421.55233 130.119937 
L 422.577708 130.119937 
L 423.603087 130.119937 
L 424.628466 130.119937 
L 425.653845 130.119937 
L 426.679223 130.119937 
L 427.704602 130.119937 
L 428.729981 130.119937 
L 429.75536 130.119937 
L 430.780739 130.119937 
L 431.806117 130.119937 
L 432.831496 130.119937 
L 433.856875 130.119937 
L 434.882254 130.119937 
L 435.907633 130.119937 
L 436.933011 130.119937 
L 437.95839 130.119937 
L 438.983769 130.119937 
L 440.009148 130.119937 
L 441.034527 130.119937 
L 442.059905 130.119937 
L 443.085284 130.119937 
L 444.110663 130.119937 
L 445.136042 130.119937 
L 446.16142 130.119937 
L 447.186799 130.119937 
L 448.212178 130.119937 
L 449.237557 130.119937 
L 450.262936 130.119937 
L 451.288314 130.119937 
L 452.313693 130.119937 
L 453.339072 130.119937 
L 454.364451 130.119937 
L 455.38983 130.119937 
L 456.415208 130.119937 
L 457.440587 130.119937 
L 458.465966 130.119937 
L 459.491345 130.119937 
L 460.516723 130.119937 
L 461.542102 130.119937 
L 462.567481 130.119937 
L 463.59286 130.119937 
L 464.618239 130.119937 
L 465.643617 130.119937 
L 466.668996 130.119937 
L 467.694375 130.119937 
L 468.719754 130.119937 
L 469.745133 130.119937 
L 470.770511 130.119937 
L 471.79589 130.119937 
L 472.821269 130.119937 
L 473.846648 130.119937 
L 474.872027 130.119937 
L 475.897405 130.119937 
L 476.922784 130.119937 
L 477.948163 130.119937 
L 478.973542 130.119937 
L 479.99892 130.119937 
L 481.024299 130.119937 
L 482.049678 130.119937 
L 483.075057 130.119937 
L 484.100436 130.119937 
L 485.125814 130.119937 
L 486.151193 130.119937 
L 487.176572 130.119937 
L 488.201951 130.119937 
L 489.22733 130.119937 
L 490.252708 130.119937 
L 491.278087 130.119937 
L 492.303466 130.119937 
L 493.328845 130.119937 
L 494.354223 130.119937 
L 495.379602 130.119937 
L 496.404981 130.119937 
L 497.43036 130.119937 
L 498.455739 130.119937 
L 499.481117 130.119937 
L 500.506496 130.119937 
L 501.531875 130.119937 
" clip-path="url(#p4cd9521f42)" style="fill: none; stroke: #4682b4; stroke-width: 2.5; stroke-linecap: square"/>
   </g>
   <g id="line2d_60">
    <path d="M 501.531875 224.689937 
L 503.582633 222.779432 
L 505.63339 220.868927 
L 507.684148 218.958422 
L 509.734905 217.047917 
L 511.785663 215.137412 
L 513.83642 213.226907 
L 515.887178 211.316402 
L 517.937936 209.405897 
L 519.988693 207.495392 
L 522.039451 205.584887 
L 524.090208 203.674382 
L 526.140966 201.763877 
L 528.191723 199.853372 
L 530.242481 197.942867 
L 532.293239 196.032362 
L 534.343996 194.121857 
L 536.394754 192.211352 
L 538.445511 190.300847 
L 540.496269 188.390342 
L 542.547027 186.479836 
L 544.597784 184.569331 
L 546.648542 182.658826 
L 548.699299 180.748321 
L 550.750057 178.837816 
L 552.800814 176.927311 
L 554.851572 175.016806 
L 556.90233 173.106301 
L 558.953087 171.195796 
L 561.003845 169.285291 
L 563.054602 167.374786 
L 565.10536 165.464281 
L 567.156117 163.553776 
L 569.206875 161.643271 
L 571.257633 159.732766 
L 573.30839 157.822261 
L 575.359148 155.911756 
L 577.409905 154.001251 
L 579.460663 152.090746 
L 581.51142 150.180241 
L 583.562178 148.269735 
L 585.612936 146.35923 
L 587.663693 144.448725 
L 589.714451 142.53822 
L 591.765208 140.627715 
L 593.815966 138.71721 
L 595.866723 136.806705 
L 597.917481 134.8962 
L 599.968239 132.985695 
L 602.018996 131.07519 
L 604.069754 129.164685 
L 606.120511 127.25418 
L 608.171269 125.343675 
L 610.222027 123.43317 
L 612.272784 121.522665 
L 614.323542 119.61216 
L 616.374299 117.701655 
L 618.425057 115.79115 
L 620.475814 113.880645 
L 622.526572 111.97014 
L 624.57733 110.059634 
L 626.628087 108.149129 
L 628.678845 106.238624 
L 630.729602 104.328119 
L 632.78036 102.417614 
L 634.831117 100.507109 
L 636.881875 98.596604 
L 638.932633 96.686099 
L 640.98339 94.775594 
L 643.034148 92.865089 
L 645.084905 90.954584 
L 647.135663 89.044079 
L 649.18642 87.133574 
L 651.237178 85.223069 
L 653.287936 83.312564 
L 655.338693 81.402059 
L 657.389451 79.491554 
L 659.440208 77.581049 
L 661.490966 75.670544 
L 663.541723 73.760039 
L 665.592481 71.849533 
L 667.643239 69.939028 
L 669.693996 68.028523 
L 671.744754 66.118018 
L 673.795511 64.207513 
L 675.846269 62.297008 
L 677.897027 60.386503 
L 679.947784 58.475998 
L 681.998542 56.565493 
L 684.049299 54.654988 
L 686.100057 52.744483 
L 688.150814 50.833978 
L 690.201572 48.923473 
L 692.25233 47.012968 
L 694.303087 45.102463 
L 696.353845 43.191958 
L 698.404602 41.281453 
L 700.45536 39.370948 
L 702.506117 37.460443 
L 704.556875 35.549937 
" clip-path="url(#p4cd9521f42)" style="fill: none; stroke: #4682b4; stroke-width: 2.5; stroke-linecap: square"/>
   </g>
   <g id="line2d_61">
    <path d="M 400.019375 224.689937 
L 704.556875 224.689937 
" clip-path="url(#p4cd9521f42)" style="fill: none; stroke: #000000; stroke-width: 0.8; stroke-linecap: square"/>
   </g>
   <g id="line2d_62">
    <path d="M 552.288125 271.974937 
L 552.288125 35.549937 
" clip-path="url(#p4cd9521f42)" style="fill: none; stroke: #000000; stroke-width: 0.8; stroke-linecap: square"/>
   </g>
   <g id="patch_8">
    <path d="M 400.019375 271.974938 
L 400.019375 35.549937 
" style="fill: none; stroke: #000000; stroke-width: 0.8; stroke-linejoin: miter; stroke-linecap: square"/>
   </g>
   <g id="patch_9">
    <path d="M 704.556875 271.974938 
L 704.556875 35.549937 
" style="fill: none; stroke: #000000; stroke-width: 0.8; stroke-linejoin: miter; stroke-linecap: square"/>
   </g>
   <g id="patch_10">
    <path d="M 400.019375 271.974937 
L 704.556875 271.974937 
" style="fill: none; stroke: #000000; stroke-width: 0.8; stroke-linejoin: miter; stroke-linecap: square"/>
   </g>
   <g id="patch_11">
    <path d="M 400.019375 35.549937 
L 704.556875 35.549937 
" style="fill: none; stroke: #000000; stroke-width: 0.8; stroke-linejoin: miter; stroke-linecap: square"/>
   </g>
   <g id="text_31">
    <!-- Jump: piecewise function -->
    <g style="fill: #808080" transform="translate(483.428125 17.232344) scale(0.11 -0.11)">
     <defs>
      <path id="DejaVuSans-4a" d="M 628 4666 
L 1259 4666 
L 1259 325 
Q 1259 -519 939 -900 
Q 619 -1281 -91 -1281 
L -331 -1281 
L -331 -750 
L -134 -750 
Q 284 -750 456 -515 
Q 628 -281 628 325 
L 628 4666 
z
" transform="scale(0.015625)"/>
      <path id="DejaVuSans-75" d="M 544 1381 
L 544 3500 
L 1119 3500 
L 1119 1403 
Q 1119 906 1312 657 
Q 1506 409 1894 409 
Q 2359 409 2629 706 
Q 2900 1003 2900 1516 
L 2900 3500 
L 3475 3500 
L 3475 0 
L 2900 0 
L 2900 538 
Q 2691 219 2414 64 
Q 2138 -91 1772 -91 
Q 1169 -91 856 284 
Q 544 659 544 1381 
z
M 1991 3584 
L 1991 3584 
z
" transform="scale(0.015625)"/>
      <path id="DejaVuSans-6d" d="M 3328 2828 
Q 3544 3216 3844 3400 
Q 4144 3584 4550 3584 
Q 5097 3584 5394 3201 
Q 5691 2819 5691 2113 
L 5691 0 
L 5113 0 
L 5113 2094 
Q 5113 2597 4934 2840 
Q 4756 3084 4391 3084 
Q 3944 3084 3684 2787 
Q 3425 2491 3425 1978 
L 3425 0 
L 2847 0 
L 2847 2094 
Q 2847 2600 2669 2842 
Q 2491 3084 2119 3084 
Q 1678 3084 1418 2786 
Q 1159 2488 1159 1978 
L 1159 0 
L 581 0 
L 581 3500 
L 1159 3500 
L 1159 2956 
Q 1356 3278 1631 3431 
Q 1906 3584 2284 3584 
Q 2666 3584 2933 3390 
Q 3200 3197 3328 2828 
z
" transform="scale(0.015625)"/>
      <path id="DejaVuSans-70" d="M 1159 525 
L 1159 -1331 
L 581 -1331 
L 581 3500 
L 1159 3500 
L 1159 2969 
Q 1341 3281 1617 3432 
Q 1894 3584 2278 3584 
Q 2916 3584 3314 3078 
Q 3713 2572 3713 1747 
Q 3713 922 3314 415 
Q 2916 -91 2278 -91 
Q 1894 -91 1617 61 
Q 1341 213 1159 525 
z
M 3116 1747 
Q 3116 2381 2855 2742 
Q 2594 3103 2138 3103 
Q 1681 3103 1420 2742 
Q 1159 2381 1159 1747 
Q 1159 1113 1420 752 
Q 1681 391 2138 391 
Q 2594 391 2855 752 
Q 3116 1113 3116 1747 
z
" transform="scale(0.015625)"/>
      <path id="DejaVuSans-63" d="M 3122 3366 
L 3122 2828 
Q 2878 2963 2633 3030 
Q 2388 3097 2138 3097 
Q 1578 3097 1268 2742 
Q 959 2388 959 1747 
Q 959 1106 1268 751 
Q 1578 397 2138 397 
Q 2388 397 2633 464 
Q 2878 531 3122 666 
L 3122 134 
Q 2881 22 2623 -34 
Q 2366 -91 2075 -91 
Q 1284 -91 818 406 
Q 353 903 353 1747 
Q 353 2603 823 3093 
Q 1294 3584 2113 3584 
Q 2378 3584 2631 3529 
Q 2884 3475 3122 3366 
z
" transform="scale(0.015625)"/>
      <path id="DejaVuSans-77" d="M 269 3500 
L 844 3500 
L 1563 769 
L 2278 3500 
L 2956 3500 
L 3675 769 
L 4391 3500 
L 4966 3500 
L 4050 0 
L 3372 0 
L 2619 2869 
L 1863 0 
L 1184 0 
L 269 3500 
z
" transform="scale(0.015625)"/>
      <path id="DejaVuSans-73" d="M 2834 3397 
L 2834 2853 
Q 2591 2978 2328 3040 
Q 2066 3103 1784 3103 
Q 1356 3103 1142 2972 
Q 928 2841 928 2578 
Q 928 2378 1081 2264 
Q 1234 2150 1697 2047 
L 1894 2003 
Q 2506 1872 2764 1633 
Q 3022 1394 3022 966 
Q 3022 478 2636 193 
Q 2250 -91 1575 -91 
Q 1294 -91 989 -36 
Q 684 19 347 128 
L 347 722 
Q 666 556 975 473 
Q 1284 391 1588 391 
Q 1994 391 2212 530 
Q 2431 669 2431 922 
Q 2431 1156 2273 1281 
Q 2116 1406 1581 1522 
L 1381 1569 
Q 847 1681 609 1914 
Q 372 2147 372 2553 
Q 372 3047 722 3315 
Q 1072 3584 1716 3584 
Q 2034 3584 2315 3537 
Q 2597 3491 2834 3397 
z
" transform="scale(0.015625)"/>
     </defs>
     <use xlink:href="#DejaVuSans-4a"/>
     <use xlink:href="#DejaVuSans-75" transform="translate(29.492188 0)"/>
     <use xlink:href="#DejaVuSans-6d" transform="translate(92.871094 0)"/>
     <use xlink:href="#DejaVuSans-70" transform="translate(190.283203 0)"/>
     <use xlink:href="#DejaVuSans-3a" transform="translate(253.759766 0)"/>
     <use xlink:href="#DejaVuSans-20" transform="translate(287.451172 0)"/>
     <use xlink:href="#DejaVuSans-70" transform="translate(319.238281 0)"/>
     <use xlink:href="#DejaVuSans-69" transform="translate(382.714844 0)"/>
     <use xlink:href="#DejaVuSans-65" transform="translate(410.498047 0)"/>
     <use xlink:href="#DejaVuSans-63" transform="translate(472.021484 0)"/>
     <use xlink:href="#DejaVuSans-65" transform="translate(527.001953 0)"/>
     <use xlink:href="#DejaVuSans-77" transform="translate(588.525391 0)"/>
     <use xlink:href="#DejaVuSans-69" transform="translate(670.3125 0)"/>
     <use xlink:href="#DejaVuSans-73" transform="translate(698.095703 0)"/>
     <use xlink:href="#DejaVuSans-65" transform="translate(750.195312 0)"/>
     <use xlink:href="#DejaVuSans-20" transform="translate(811.71875 0)"/>
     <use xlink:href="#DejaVuSans-66" transform="translate(843.505859 0)"/>
     <use xlink:href="#DejaVuSans-75" transform="translate(878.710938 0)"/>
     <use xlink:href="#DejaVuSans-6e" transform="translate(942.089844 0)"/>
     <use xlink:href="#DejaVuSans-63" transform="translate(1005.46875 0)"/>
     <use xlink:href="#DejaVuSans-74" transform="translate(1060.449219 0)"/>
     <use xlink:href="#DejaVuSans-69" transform="translate(1099.658203 0)"/>
     <use xlink:href="#DejaVuSans-6f" transform="translate(1127.441406 0)"/>
     <use xlink:href="#DejaVuSans-6e" transform="translate(1188.623047 0)"/>
    </g>
    <!-- Not differentiable at $x=-1$ -->
    <g style="fill: #808080" transform="translate(476.883125 29.549937) scale(0.11 -0.11)">
     <use xlink:href="#DejaVuSans-4e" transform="translate(0 0.015625)"/>
     <use xlink:href="#DejaVuSans-6f" transform="translate(74.804688 0.015625)"/>
     <use xlink:href="#DejaVuSans-74" transform="translate(135.986328 0.015625)"/>
     <use xlink:href="#DejaVuSans-20" transform="translate(175.195312 0.015625)"/>
     <use xlink:href="#DejaVuSans-64" transform="translate(206.982422 0.015625)"/>
     <use xlink:href="#DejaVuSans-69" transform="translate(270.458984 0.015625)"/>
     <use xlink:href="#DejaVuSans-66" transform="translate(298.242188 0.015625)"/>
     <use xlink:href="#DejaVuSans-66" transform="translate(333.447266 0.015625)"/>
     <use xlink:href="#DejaVuSans-65" transform="translate(368.652344 0.015625)"/>
     <use xlink:href="#DejaVuSans-72" transform="translate(430.175781 0.015625)"/>
     <use xlink:href="#DejaVuSans-65" transform="translate(471.289062 0.015625)"/>
     <use xlink:href="#DejaVuSans-6e" transform="translate(532.8125 0.015625)"/>
     <use xlink:href="#DejaVuSans-74" transform="translate(596.191406 0.015625)"/>
     <use xlink:href="#DejaVuSans-69" transform="translate(635.400391 0.015625)"/>
     <use xlink:href="#DejaVuSans-61" transform="translate(663.183594 0.015625)"/>
     <use xlink:href="#DejaVuSans-62" transform="translate(724.462891 0.015625)"/>
     <use xlink:href="#DejaVuSans-6c" transform="translate(787.939453 0.015625)"/>
     <use xlink:href="#DejaVuSans-65" transform="translate(815.722656 0.015625)"/>
     <use xlink:href="#DejaVuSans-20" transform="translate(877.246094 0.015625)"/>
     <use xlink:href="#DejaVuSans-61" transform="translate(909.033203 0.015625)"/>
     <use xlink:href="#DejaVuSans-74" transform="translate(970.3125 0.015625)"/>
     <use xlink:href="#DejaVuSans-20" transform="translate(1009.521484 0.015625)"/>
     <use xlink:href="#DejaVuSans-Oblique-78" transform="translate(1041.308594 0.015625)"/>
     <use xlink:href="#DejaVuSans-3d" transform="translate(1119.970703 0.015625)"/>
     <use xlink:href="#DejaVuSans-2212" transform="translate(1223.242188 0.015625)"/>
     <use xlink:href="#DejaVuSans-31" transform="translate(1307.03125 0.015625)"/>
    </g>
   </g>
   <g id="line2d_63">
    <defs>
     <path id="m49d1e34748" d="M 0 4 
C 1.060812 4 2.078319 3.578535 2.828427 2.828427 
C 3.578535 2.078319 4 1.060812 4 0 
C 4 -1.060812 3.578535 -2.078319 2.828427 -2.828427 
C 2.078319 -3.578535 1.060812 -4 0 -4 
C -1.060812 -4 -2.078319 -3.578535 -2.828427 -2.828427 
C -3.578535 -2.078319 -4 -1.060812 -4 0 
C -4 1.060812 -3.578535 2.078319 -2.828427 2.828427 
C -2.078319 3.578535 -1.060812 4 0 4 
z
" style="stroke: #4682b4"/>
    </defs>
    <g clip-path="url(#p4cd9521f42)">
     <use xlink:href="#m49d1e34748" x="501.531875" y="130.119937" style="fill: #4682b4; stroke: #4682b4"/>
    </g>
   </g>
   <g id="line2d_64">
    <defs>
     <path id="m979bc2c44b" d="M 0 4 
C 1.060812 4 2.078319 3.578535 2.828427 2.828427 
C 3.578535 2.078319 4 1.060812 4 0 
C 4 -1.060812 3.578535 -2.078319 2.828427 -2.828427 
C 2.078319 -3.578535 1.060812 -4 0 -4 
C -1.060812 -4 -2.078319 -3.578535 -2.828427 -2.828427 
C -3.578535 -2.078319 -4 -1.060812 -4 0 
C -4 1.060812 -3.578535 2.078319 -2.828427 2.828427 
C -2.078319 3.578535 -1.060812 4 0 4 
z
" style="stroke: #4682b4"/>
    </defs>
    <g clip-path="url(#p4cd9521f42)">
     <use xlink:href="#m979bc2c44b" x="501.531875" y="224.689937" style="fill: #ffffff; stroke: #4682b4"/>
    </g>
   </g>
   <g id="line2d_65">
    <defs>
     <path id="mde42e9ae01" d="M -5 5 
L 5 5 
L 5 -5 
L -5 -5 
z
" style="stroke: #cc0000; stroke-width: 2; stroke-linejoin: miter"/>
    </defs>
    <g clip-path="url(#p4cd9521f42)">
     <use xlink:href="#mde42e9ae01" x="501.531875" y="177.404937" style="fill-opacity: 0; stroke: #cc0000; stroke-width: 2; stroke-linejoin: miter"/>
    </g>
   </g>
  </g>
  <g id="axes_3">
   <g id="patch_12">
    <path d="M 756.450625 271.974937 
L 1060.988125 271.974937 
L 1060.988125 35.549937 
L 756.450625 35.549937 
z
" style="fill: #ffffff"/>
   </g>
   <g id="matplotlib.axis_5">
    <g id="xtick_15">
     <g id="line2d_66">
      <path d="M 756.450625 271.974937 
L 756.450625 35.549937 
" clip-path="url(#p9027c04f67)" style="fill: none; stroke-dasharray: 2.96,1.28; stroke-dashoffset: 0; stroke: #b0b0b0; stroke-opacity: 0.4; stroke-width: 0.8"/>
     </g>
     <g id="line2d_67">
      <g>
       <use xlink:href="#m27aad7c31a" x="756.450625" y="271.974937" style="stroke: #000000; stroke-width: 0.8"/>
      </g>
     </g>
     <g id="text_32">
      <!-- −3 -->
      <g transform="translate(749.079531 286.573375) scale(0.1 -0.1)">
       <use xlink:href="#DejaVuSans-2212"/>
       <use xlink:href="#DejaVuSans-33" transform="translate(83.789062 0)"/>
      </g>
     </g>
    </g>
    <g id="xtick_16">
     <g id="line2d_68">
      <path d="M 807.206875 271.974937 
L 807.206875 35.549937 
" clip-path="url(#p9027c04f67)" style="fill: none; stroke-dasharray: 2.96,1.28; stroke-dashoffset: 0; stroke: #b0b0b0; stroke-opacity: 0.4; stroke-width: 0.8"/>
     </g>
     <g id="line2d_69">
      <g>
       <use xlink:href="#m27aad7c31a" x="807.206875" y="271.974937" style="stroke: #000000; stroke-width: 0.8"/>
      </g>
     </g>
     <g id="text_33">
      <!-- −2 -->
      <g transform="translate(799.835781 286.573375) scale(0.1 -0.1)">
       <use xlink:href="#DejaVuSans-2212"/>
       <use xlink:href="#DejaVuSans-32" transform="translate(83.789062 0)"/>
      </g>
     </g>
    </g>
    <g id="xtick_17">
     <g id="line2d_70">
      <path d="M 857.963125 271.974937 
L 857.963125 35.549937 
" clip-path="url(#p9027c04f67)" style="fill: none; stroke-dasharray: 2.96,1.28; stroke-dashoffset: 0; stroke: #b0b0b0; stroke-opacity: 0.4; stroke-width: 0.8"/>
     </g>
     <g id="line2d_71">
      <g>
       <use xlink:href="#m27aad7c31a" x="857.963125" y="271.974937" style="stroke: #000000; stroke-width: 0.8"/>
      </g>
     </g>
     <g id="text_34">
      <!-- −1 -->
      <g transform="translate(850.592031 286.573375) scale(0.1 -0.1)">
       <use xlink:href="#DejaVuSans-2212"/>
       <use xlink:href="#DejaVuSans-31" transform="translate(83.789062 0)"/>
      </g>
     </g>
    </g>
    <g id="xtick_18">
     <g id="line2d_72">
      <path d="M 908.719375 271.974937 
L 908.719375 35.549937 
" clip-path="url(#p9027c04f67)" style="fill: none; stroke-dasharray: 2.96,1.28; stroke-dashoffset: 0; stroke: #b0b0b0; stroke-opacity: 0.4; stroke-width: 0.8"/>
     </g>
     <g id="line2d_73">
      <g>
       <use xlink:href="#m27aad7c31a" x="908.719375" y="271.974937" style="stroke: #000000; stroke-width: 0.8"/>
      </g>
     </g>
     <g id="text_35">
      <!-- 0 -->
      <g transform="translate(905.538125 286.573375) scale(0.1 -0.1)">
       <use xlink:href="#DejaVuSans-30"/>
      </g>
     </g>
    </g>
    <g id="xtick_19">
     <g id="line2d_74">
      <path d="M 959.475625 271.974937 
L 959.475625 35.549937 
" clip-path="url(#p9027c04f67)" style="fill: none; stroke-dasharray: 2.96,1.28; stroke-dashoffset: 0; stroke: #b0b0b0; stroke-opacity: 0.4; stroke-width: 0.8"/>
     </g>
     <g id="line2d_75">
      <g>
       <use xlink:href="#m27aad7c31a" x="959.475625" y="271.974937" style="stroke: #000000; stroke-width: 0.8"/>
      </g>
     </g>
     <g id="text_36">
      <!-- 1 -->
      <g transform="translate(956.294375 286.573375) scale(0.1 -0.1)">
       <use xlink:href="#DejaVuSans-31"/>
      </g>
     </g>
    </g>
    <g id="xtick_20">
     <g id="line2d_76">
      <path d="M 1010.231875 271.974937 
L 1010.231875 35.549937 
" clip-path="url(#p9027c04f67)" style="fill: none; stroke-dasharray: 2.96,1.28; stroke-dashoffset: 0; stroke: #b0b0b0; stroke-opacity: 0.4; stroke-width: 0.8"/>
     </g>
     <g id="line2d_77">
      <g>
       <use xlink:href="#m27aad7c31a" x="1010.231875" y="271.974937" style="stroke: #000000; stroke-width: 0.8"/>
      </g>
     </g>
     <g id="text_37">
      <!-- 2 -->
      <g transform="translate(1007.050625 286.573375) scale(0.1 -0.1)">
       <use xlink:href="#DejaVuSans-32"/>
      </g>
     </g>
    </g>
    <g id="xtick_21">
     <g id="line2d_78">
      <path d="M 1060.988125 271.974937 
L 1060.988125 35.549937 
" clip-path="url(#p9027c04f67)" style="fill: none; stroke-dasharray: 2.96,1.28; stroke-dashoffset: 0; stroke: #b0b0b0; stroke-opacity: 0.4; stroke-width: 0.8"/>
     </g>
     <g id="line2d_79">
      <g>
       <use xlink:href="#m27aad7c31a" x="1060.988125" y="271.974937" style="stroke: #000000; stroke-width: 0.8"/>
      </g>
     </g>
     <g id="text_38">
      <!-- 3 -->
      <g transform="translate(1057.806875 286.573375) scale(0.1 -0.1)">
       <use xlink:href="#DejaVuSans-33"/>
      </g>
     </g>
    </g>
    <g id="text_39">
     <!-- $x$ -->
     <g transform="translate(905.419375 301.011344) scale(0.11 -0.11)">
      <use xlink:href="#DejaVuSans-Oblique-78" transform="translate(0 0.3125)"/>
     </g>
    </g>
   </g>
   <g id="matplotlib.axis_6">
    <g id="ytick_12">
     <g id="line2d_80">
      <path d="M 756.450625 271.974937 
L 1060.988125 271.974937 
" clip-path="url(#p9027c04f67)" style="fill: none; stroke-dasharray: 2.96,1.28; stroke-dashoffset: 0; stroke: #b0b0b0; stroke-opacity: 0.4; stroke-width: 0.8"/>
     </g>
     <g id="line2d_81">
      <g>
       <use xlink:href="#m02402cd53a" x="756.450625" y="271.974937" style="stroke: #000000; stroke-width: 0.8"/>
      </g>
     </g>
     <g id="text_40">
      <!-- −2 -->
      <g transform="translate(734.708438 275.774156) scale(0.1 -0.1)">
       <use xlink:href="#DejaVuSans-2212"/>
       <use xlink:href="#DejaVuSans-32" transform="translate(83.789062 0)"/>
      </g>
     </g>
    </g>
    <g id="ytick_13">
     <g id="line2d_82">
      <path d="M 756.450625 212.868687 
L 1060.988125 212.868687 
" clip-path="url(#p9027c04f67)" style="fill: none; stroke-dasharray: 2.96,1.28; stroke-dashoffset: 0; stroke: #b0b0b0; stroke-opacity: 0.4; stroke-width: 0.8"/>
     </g>
     <g id="line2d_83">
      <g>
       <use xlink:href="#m02402cd53a" x="756.450625" y="212.868687" style="stroke: #000000; stroke-width: 0.8"/>
      </g>
     </g>
     <g id="text_41">
      <!-- −1 -->
      <g transform="translate(734.708438 216.667906) scale(0.1 -0.1)">
       <use xlink:href="#DejaVuSans-2212"/>
       <use xlink:href="#DejaVuSans-31" transform="translate(83.789062 0)"/>
      </g>
     </g>
    </g>
    <g id="ytick_14">
     <g id="line2d_84">
      <path d="M 756.450625 153.762437 
L 1060.988125 153.762437 
" clip-path="url(#p9027c04f67)" style="fill: none; stroke-dasharray: 2.96,1.28; stroke-dashoffset: 0; stroke: #b0b0b0; stroke-opacity: 0.4; stroke-width: 0.8"/>
     </g>
     <g id="line2d_85">
      <g>
       <use xlink:href="#m02402cd53a" x="756.450625" y="153.762437" style="stroke: #000000; stroke-width: 0.8"/>
      </g>
     </g>
     <g id="text_42">
      <!-- 0 -->
      <g transform="translate(743.088125 157.561656) scale(0.1 -0.1)">
       <use xlink:href="#DejaVuSans-30"/>
      </g>
     </g>
    </g>
    <g id="ytick_15">
     <g id="line2d_86">
      <path d="M 756.450625 94.656187 
L 1060.988125 94.656187 
" clip-path="url(#p9027c04f67)" style="fill: none; stroke-dasharray: 2.96,1.28; stroke-dashoffset: 0; stroke: #b0b0b0; stroke-opacity: 0.4; stroke-width: 0.8"/>
     </g>
     <g id="line2d_87">
      <g>
       <use xlink:href="#m02402cd53a" x="756.450625" y="94.656187" style="stroke: #000000; stroke-width: 0.8"/>
      </g>
     </g>
     <g id="text_43">
      <!-- 1 -->
      <g transform="translate(743.088125 98.455406) scale(0.1 -0.1)">
       <use xlink:href="#DejaVuSans-31"/>
      </g>
     </g>
    </g>
    <g id="ytick_16">
     <g id="line2d_88">
      <path d="M 756.450625 35.549937 
L 1060.988125 35.549937 
" clip-path="url(#p9027c04f67)" style="fill: none; stroke-dasharray: 2.96,1.28; stroke-dashoffset: 0; stroke: #b0b0b0; stroke-opacity: 0.4; stroke-width: 0.8"/>
     </g>
     <g id="line2d_89">
      <g>
       <use xlink:href="#m02402cd53a" x="756.450625" y="35.549937" style="stroke: #000000; stroke-width: 0.8"/>
      </g>
     </g>
     <g id="text_44">
      <!-- 2 -->
      <g transform="translate(743.088125 39.349156) scale(0.1 -0.1)">
       <use xlink:href="#DejaVuSans-32"/>
      </g>
     </g>
    </g>
    <g id="text_45">
     <!-- $y$ -->
     <g transform="translate(728.398438 157.062437) rotate(-90) scale(0.11 -0.11)">
      <use xlink:href="#DejaVuSans-Oblique-79" transform="translate(0 0.3125)"/>
     </g>
    </g>
   </g>
   <g id="line2d_90">
    <path d="M 908.719375 153.762437 
L 909.484545 139.161207 
L 910.249714 135.366039 
L 911.014884 132.703819 
L 911.780053 130.584428 
L 913.310393 127.23024 
L 914.840732 124.559976 
L 916.371071 122.305039 
L 918.66658 119.430057 
L 920.962089 116.969641 
L 923.257597 114.800489 
L 926.318276 112.238479 
L 929.378954 109.958745 
L 933.204802 107.406419 
L 937.03065 105.107897 
L 941.621668 102.608514 
L 946.977855 99.971043 
L 953.099212 97.242874 
L 959.220568 94.755359 
L 966.107095 92.186662 
L 973.758791 89.563313 
L 982.175656 86.90549 
L 991.357692 84.22841 
L 1002.070066 81.345068 
L 1013.54761 78.491096 
L 1026.555493 75.498257 
L 1040.328546 72.560645 
L 1055.631938 69.527962 
L 1060.988125 68.516474 
L 1060.988125 68.516474 
" clip-path="url(#p9027c04f67)" style="fill: none; stroke: #4682b4; stroke-width: 2.5; stroke-linecap: square"/>
   </g>
   <g id="line2d_91">
    <path d="M 756.450625 239.008401 
L 772.519187 235.897665 
L 787.057409 232.864627 
L 800.065292 229.938569 
L 812.308006 226.962758 
L 823.02038 224.144524 
L 832.967585 221.30868 
L 842.14962 218.461187 
L 850.566486 215.610675 
L 858.218182 212.769516 
L 865.104708 209.955291 
L 871.226065 207.192805 
L 876.582252 204.516705 
L 881.173269 201.974639 
L 884.999117 199.630461 
L 888.824965 197.018526 
L 891.885644 194.67566 
L 894.946322 192.028487 
L 897.241831 189.772169 
L 899.53734 187.190911 
L 901.067679 185.219836 
L 902.598018 182.964899 
L 904.128357 180.294635 
L 905.658697 176.940447 
L 906.423866 174.821056 
L 907.189036 172.158836 
L 907.954205 168.363668 
L 908.719375 153.762437 
L 908.719375 153.762437 
" clip-path="url(#p9027c04f67)" style="fill: none; stroke: #4682b4; stroke-width: 2.5; stroke-linecap: square"/>
   </g>
   <g id="line2d_92">
    <path d="M 908.719375 242.421812 
L 908.719375 65.103062 
" clip-path="url(#p9027c04f67)" style="fill: none; stroke-dasharray: 7.4,3.2; stroke-dashoffset: 0; stroke: #cc0000; stroke-width: 2"/>
   </g>
   <g id="line2d_93">
    <path d="M 756.450625 153.762437 
L 1060.988125 153.762437 
" clip-path="url(#p9027c04f67)" style="fill: none; stroke: #000000; stroke-width: 0.8; stroke-linecap: square"/>
   </g>
   <g id="line2d_94">
    <path d="M 908.719375 271.974937 
L 908.719375 35.549937 
" clip-path="url(#p9027c04f67)" style="fill: none; stroke: #000000; stroke-width: 0.8; stroke-linecap: square"/>
   </g>
   <g id="patch_13">
    <path d="M 756.450625 271.974937 
L 756.450625 35.549937 
" style="fill: none; stroke: #000000; stroke-width: 0.8; stroke-linejoin: miter; stroke-linecap: square"/>
   </g>
   <g id="patch_14">
    <path d="M 1060.988125 271.974937 
L 1060.988125 35.549937 
" style="fill: none; stroke: #000000; stroke-width: 0.8; stroke-linejoin: miter; stroke-linecap: square"/>
   </g>
   <g id="patch_15">
    <path d="M 756.450625 271.974937 
L 1060.988125 271.974937 
" style="fill: none; stroke: #000000; stroke-width: 0.8; stroke-linejoin: miter; stroke-linecap: square"/>
   </g>
   <g id="patch_16">
    <path d="M 756.450625 35.549937 
L 1060.988125 35.549937 
" style="fill: none; stroke: #000000; stroke-width: 0.8; stroke-linejoin: miter; stroke-linecap: square"/>
   </g>
   <g id="text_46">
    <!-- Vertical tangent: $f(x) = x^{1/3}$ -->
    <g style="fill: #808080" transform="translate(834.689375 17.21) scale(0.11 -0.11)">
     <defs>
      <path id="DejaVuSans-56" d="M 1831 0 
L 50 4666 
L 709 4666 
L 2188 738 
L 3669 4666 
L 4325 4666 
L 2547 0 
L 1831 0 
z
" transform="scale(0.015625)"/>
      <path id="DejaVuSans-67" d="M 2906 1791 
Q 2906 2416 2648 2759 
Q 2391 3103 1925 3103 
Q 1463 3103 1205 2759 
Q 947 2416 947 1791 
Q 947 1169 1205 825 
Q 1463 481 1925 481 
Q 2391 481 2648 825 
Q 2906 1169 2906 1791 
z
M 3481 434 
Q 3481 -459 3084 -895 
Q 2688 -1331 1869 -1331 
Q 1566 -1331 1297 -1286 
Q 1028 -1241 775 -1147 
L 775 -588 
Q 1028 -725 1275 -790 
Q 1522 -856 1778 -856 
Q 2344 -856 2625 -561 
Q 2906 -266 2906 331 
L 2906 616 
Q 2728 306 2450 153 
Q 2172 0 1784 0 
Q 1141 0 747 490 
Q 353 981 353 1791 
Q 353 2603 747 3093 
Q 1141 3584 1784 3584 
Q 2172 3584 2450 3431 
Q 2728 3278 2906 2969 
L 2906 3500 
L 3481 3500 
L 3481 434 
z
" transform="scale(0.015625)"/>
      <path id="DejaVuSans-2f" d="M 1625 4666 
L 2156 4666 
L 531 -594 
L 0 -594 
L 1625 4666 
z
" transform="scale(0.015625)"/>
     </defs>
     <use xlink:href="#DejaVuSans-56" transform="translate(0 0.765625)"/>
     <use xlink:href="#DejaVuSans-65" transform="translate(68.408203 0.765625)"/>
     <use xlink:href="#DejaVuSans-72" transform="translate(129.931641 0.765625)"/>
     <use xlink:href="#DejaVuSans-74" transform="translate(171.044922 0.765625)"/>
     <use xlink:href="#DejaVuSans-69" transform="translate(210.253906 0.765625)"/>
     <use xlink:href="#DejaVuSans-63" transform="translate(238.037109 0.765625)"/>
     <use xlink:href="#DejaVuSans-61" transform="translate(293.017578 0.765625)"/>
     <use xlink:href="#DejaVuSans-6c" transform="translate(354.296875 0.765625)"/>
     <use xlink:href="#DejaVuSans-20" transform="translate(382.080078 0.765625)"/>
     <use xlink:href="#DejaVuSans-74" transform="translate(413.867188 0.765625)"/>
     <use xlink:href="#DejaVuSans-61" transform="translate(453.076172 0.765625)"/>
     <use xlink:href="#DejaVuSans-6e" transform="translate(514.355469 0.765625)"/>
     <use xlink:href="#DejaVuSans-67" transform="translate(577.734375 0.765625)"/>
     <use xlink:href="#DejaVuSans-65" transform="translate(641.210938 0.765625)"/>
     <use xlink:href="#DejaVuSans-6e" transform="translate(702.734375 0.765625)"/>
     <use xlink:href="#DejaVuSans-74" transform="translate(766.113281 0.765625)"/>
     <use xlink:href="#DejaVuSans-3a" transform="translate(805.322266 0.765625)"/>
     <use xlink:href="#DejaVuSans-20" transform="translate(839.013672 0.765625)"/>
     <use xlink:href="#DejaVuSans-Oblique-66" transform="translate(870.800781 0.765625)"/>
     <use xlink:href="#DejaVuSans-28" transform="translate(906.005859 0.765625)"/>
     <use xlink:href="#DejaVuSans-Oblique-78" transform="translate(945.019531 0.765625)"/>
     <use xlink:href="#DejaVuSans-29" transform="translate(1004.199219 0.765625)"/>
     <use xlink:href="#DejaVuSans-3d" transform="translate(1062.695312 0.765625)"/>
     <use xlink:href="#DejaVuSans-Oblique-78" transform="translate(1165.966797 0.765625)"/>
     <use xlink:href="#DejaVuSans-31" transform="translate(1229.61263 39.046875) scale(0.7)"/>
     <use xlink:href="#DejaVuSans-2f" transform="translate(1274.148763 39.046875) scale(0.7)"/>
     <use xlink:href="#DejaVuSans-33" transform="translate(1297.732747 39.046875) scale(0.7)"/>
    </g>
    <!-- Not differentiable at $x=0$ -->
    <g style="fill: #808080" transform="translate(837.934375 29.549937) scale(0.11 -0.11)">
     <use xlink:href="#DejaVuSans-4e" transform="translate(0 0.015625)"/>
     <use xlink:href="#DejaVuSans-6f" transform="translate(74.804688 0.015625)"/>
     <use xlink:href="#DejaVuSans-74" transform="translate(135.986328 0.015625)"/>
     <use xlink:href="#DejaVuSans-20" transform="translate(175.195312 0.015625)"/>
     <use xlink:href="#DejaVuSans-64" transform="translate(206.982422 0.015625)"/>
     <use xlink:href="#DejaVuSans-69" transform="translate(270.458984 0.015625)"/>
     <use xlink:href="#DejaVuSans-66" transform="translate(298.242188 0.015625)"/>
     <use xlink:href="#DejaVuSans-66" transform="translate(333.447266 0.015625)"/>
     <use xlink:href="#DejaVuSans-65" transform="translate(368.652344 0.015625)"/>
     <use xlink:href="#DejaVuSans-72" transform="translate(430.175781 0.015625)"/>
     <use xlink:href="#DejaVuSans-65" transform="translate(471.289062 0.015625)"/>
     <use xlink:href="#DejaVuSans-6e" transform="translate(532.8125 0.015625)"/>
     <use xlink:href="#DejaVuSans-74" transform="translate(596.191406 0.015625)"/>
     <use xlink:href="#DejaVuSans-69" transform="translate(635.400391 0.015625)"/>
     <use xlink:href="#DejaVuSans-61" transform="translate(663.183594 0.015625)"/>
     <use xlink:href="#DejaVuSans-62" transform="translate(724.462891 0.015625)"/>
     <use xlink:href="#DejaVuSans-6c" transform="translate(787.939453 0.015625)"/>
     <use xlink:href="#DejaVuSans-65" transform="translate(815.722656 0.015625)"/>
     <use xlink:href="#DejaVuSans-20" transform="translate(877.246094 0.015625)"/>
     <use xlink:href="#DejaVuSans-61" transform="translate(909.033203 0.015625)"/>
     <use xlink:href="#DejaVuSans-74" transform="translate(970.3125 0.015625)"/>
     <use xlink:href="#DejaVuSans-20" transform="translate(1009.521484 0.015625)"/>
     <use xlink:href="#DejaVuSans-Oblique-78" transform="translate(1041.308594 0.015625)"/>
     <use xlink:href="#DejaVuSans-3d" transform="translate(1119.970703 0.015625)"/>
     <use xlink:href="#DejaVuSans-30" transform="translate(1223.242188 0.015625)"/>
    </g>
   </g>
   <g id="line2d_95">
    <g clip-path="url(#p9027c04f67)">
     <use xlink:href="#md0bcac0730" x="908.719375" y="153.762437" style="fill: #cc0000; stroke: #cc0000"/>
    </g>
   </g>
  </g>
 </g>
 <defs>
  <clipPath id="p8ea5868c8a">
   <rect x="43.588125" y="35.549937" width="304.5375" height="236.425"/>
  </clipPath>
  <clipPath id="p4cd9521f42">
   <rect x="400.019375" y="35.549937" width="304.5375" height="236.425"/>
  </clipPath>
  <clipPath id="p9027c04f67">
   <rect x="756.450625" y="35.549937" width="304.5375" height="236.425"/>
  </clipPath>
 </defs>
</svg>
