<?xml version="1.0" encoding="utf-8" standalone="no"?>
<!DOCTYPE svg PUBLIC "-//W3C//DTD SVG 1.1//EN"
  "http://www.w3.org/Graphics/SVG/1.1/DTD/svg11.dtd">
<svg xmlns:xlink="http://www.w3.org/1999/xlink" width="999.3225pt" height="386.142187pt" viewBox="0 0 999.3225 386.142187" xmlns="http://www.w3.org/2000/svg" version="1.1">
 <metadata>
  <rdf:RDF xmlns:dc="http://purl.org/dc/elements/1.1/" xmlns:cc="http://creativecommons.org/ns#" xmlns:rdf="http://www.w3.org/1999/02/22-rdf-syntax-ns#">
   <cc:Work>
    <dc:type rdf:resource="http://purl.org/dc/dcmitype/StillImage"/>
    <dc:date>2026-06-14T20:52:33.948643</dc:date>
    <dc:format>image/svg+xml</dc:format>
    <dc:creator>
     <cc:Agent>
      <dc:title>Matplotlib v3.10.8, https://matplotlib.org/</dc:title>
     </cc:Agent>
    </dc:creator>
   </cc:Work>
  </rdf:RDF>
 </metadata>
 <defs>
  <style type="text/css">*{stroke-linejoin: round; stroke-linecap: butt}</style>
 </defs>
 <g id="figure_1">
  <g id="patch_1">
   <path d="M 0 386.142187 
L 999.3225 386.142187 
L 999.3225 0 
L 0 0 
z
" style="fill: #ffffff"/>
  </g>
  <g id="axes_1">
   <g id="patch_2">
    <path d="M 43.588125 347.618125 
L 493.585 347.618125 
L 493.585 22.318125 
L 43.588125 22.318125 
z
" style="fill: #ffffff"/>
   </g>
   <g id="matplotlib.axis_1">
    <g id="xtick_1">
     <g id="line2d_1">
      <path d="M 70.058529 347.618125 
L 70.058529 22.318125 
" clip-path="url(#p4f60acc0d2)" style="fill: none; stroke-dasharray: 2.96,1.28; stroke-dashoffset: 0; stroke: #b0b0b0; stroke-opacity: 0.4; stroke-width: 0.8"/>
     </g>
     <g id="line2d_2">
      <defs>
       <path id="m1312ae4344" d="M 0 0 
L 0 3.5 
" style="stroke: #000000; stroke-width: 0.8"/>
      </defs>
      <g>
       <use xlink:href="#m1312ae4344" x="70.058529" y="347.618125" style="stroke: #000000; stroke-width: 0.8"/>
      </g>
     </g>
     <g id="text_1">
      <!-- 0 -->
      <g transform="translate(66.877279 362.216563) scale(0.1 -0.1)">
       <defs>
        <path id="DejaVuSans-30" d="M 2034 4250 
Q 1547 4250 1301 3770 
Q 1056 3291 1056 2328 
Q 1056 1369 1301 889 
Q 1547 409 2034 409 
Q 2525 409 2770 889 
Q 3016 1369 3016 2328 
Q 3016 3291 2770 3770 
Q 2525 4250 2034 4250 
z
M 2034 4750 
Q 2819 4750 3233 4129 
Q 3647 3509 3647 2328 
Q 3647 1150 3233 529 
Q 2819 -91 2034 -91 
Q 1250 -91 836 529 
Q 422 1150 422 2328 
Q 422 3509 836 4129 
Q 1250 4750 2034 4750 
z
" transform="scale(0.015625)"/>
       </defs>
       <use xlink:href="#DejaVuSans-30"/>
      </g>
     </g>
    </g>
    <g id="xtick_2">
     <g id="line2d_3">
      <path d="M 122.999338 347.618125 
L 122.999338 22.318125 
" clip-path="url(#p4f60acc0d2)" style="fill: none; stroke-dasharray: 2.96,1.28; stroke-dashoffset: 0; stroke: #b0b0b0; stroke-opacity: 0.4; stroke-width: 0.8"/>
     </g>
     <g id="line2d_4">
      <g>
       <use xlink:href="#m1312ae4344" x="122.999338" y="347.618125" style="stroke: #000000; stroke-width: 0.8"/>
      </g>
     </g>
     <g id="text_2">
      <!-- 1 -->
      <g transform="translate(119.818088 362.216563) scale(0.1 -0.1)">
       <defs>
        <path id="DejaVuSans-31" d="M 794 531 
L 1825 531 
L 1825 4091 
L 703 3866 
L 703 4441 
L 1819 4666 
L 2450 4666 
L 2450 531 
L 3481 531 
L 3481 0 
L 794 0 
L 794 531 
z
" transform="scale(0.015625)"/>
       </defs>
       <use xlink:href="#DejaVuSans-31"/>
      </g>
     </g>
    </g>
    <g id="xtick_3">
     <g id="line2d_5">
      <path d="M 175.940147 347.618125 
L 175.940147 22.318125 
" clip-path="url(#p4f60acc0d2)" style="fill: none; stroke-dasharray: 2.96,1.28; stroke-dashoffset: 0; stroke: #b0b0b0; stroke-opacity: 0.4; stroke-width: 0.8"/>
     </g>
     <g id="line2d_6">
      <g>
       <use xlink:href="#m1312ae4344" x="175.940147" y="347.618125" style="stroke: #000000; stroke-width: 0.8"/>
      </g>
     </g>
     <g id="text_3">
      <!-- 2 -->
      <g transform="translate(172.758897 362.216563) scale(0.1 -0.1)">
       <defs>
        <path id="DejaVuSans-32" d="M 1228 531 
L 3431 531 
L 3431 0 
L 469 0 
L 469 531 
Q 828 903 1448 1529 
Q 2069 2156 2228 2338 
Q 2531 2678 2651 2914 
Q 2772 3150 2772 3378 
Q 2772 3750 2511 3984 
Q 2250 4219 1831 4219 
Q 1534 4219 1204 4116 
Q 875 4013 500 3803 
L 500 4441 
Q 881 4594 1212 4672 
Q 1544 4750 1819 4750 
Q 2544 4750 2975 4387 
Q 3406 4025 3406 3419 
Q 3406 3131 3298 2873 
Q 3191 2616 2906 2266 
Q 2828 2175 2409 1742 
Q 1991 1309 1228 531 
z
" transform="scale(0.015625)"/>
       </defs>
       <use xlink:href="#DejaVuSans-32"/>
      </g>
     </g>
    </g>
    <g id="xtick_4">
     <g id="line2d_7">
      <path d="M 228.880956 347.618125 
L 228.880956 22.318125 
" clip-path="url(#p4f60acc0d2)" style="fill: none; stroke-dasharray: 2.96,1.28; stroke-dashoffset: 0; stroke: #b0b0b0; stroke-opacity: 0.4; stroke-width: 0.8"/>
     </g>
     <g id="line2d_8">
      <g>
       <use xlink:href="#m1312ae4344" x="228.880956" y="347.618125" style="stroke: #000000; stroke-width: 0.8"/>
      </g>
     </g>
     <g id="text_4">
      <!-- 3 -->
      <g transform="translate(225.699706 362.216563) scale(0.1 -0.1)">
       <defs>
        <path id="DejaVuSans-33" d="M 2597 2516 
Q 3050 2419 3304 2112 
Q 3559 1806 3559 1356 
Q 3559 666 3084 287 
Q 2609 -91 1734 -91 
Q 1441 -91 1130 -33 
Q 819 25 488 141 
L 488 750 
Q 750 597 1062 519 
Q 1375 441 1716 441 
Q 2309 441 2620 675 
Q 2931 909 2931 1356 
Q 2931 1769 2642 2001 
Q 2353 2234 1838 2234 
L 1294 2234 
L 1294 2753 
L 1863 2753 
Q 2328 2753 2575 2939 
Q 2822 3125 2822 3475 
Q 2822 3834 2567 4026 
Q 2313 4219 1838 4219 
Q 1578 4219 1281 4162 
Q 984 4106 628 3988 
L 628 4550 
Q 988 4650 1302 4700 
Q 1616 4750 1894 4750 
Q 2613 4750 3031 4423 
Q 3450 4097 3450 3541 
Q 3450 3153 3228 2886 
Q 3006 2619 2597 2516 
z
" transform="scale(0.015625)"/>
       </defs>
       <use xlink:href="#DejaVuSans-33"/>
      </g>
     </g>
    </g>
    <g id="xtick_5">
     <g id="line2d_9">
      <path d="M 281.821765 347.618125 
L 281.821765 22.318125 
" clip-path="url(#p4f60acc0d2)" style="fill: none; stroke-dasharray: 2.96,1.28; stroke-dashoffset: 0; stroke: #b0b0b0; stroke-opacity: 0.4; stroke-width: 0.8"/>
     </g>
     <g id="line2d_10">
      <g>
       <use xlink:href="#m1312ae4344" x="281.821765" y="347.618125" style="stroke: #000000; stroke-width: 0.8"/>
      </g>
     </g>
     <g id="text_5">
      <!-- 4 -->
      <g transform="translate(278.640515 362.216563) scale(0.1 -0.1)">
       <defs>
        <path id="DejaVuSans-34" d="M 2419 4116 
L 825 1625 
L 2419 1625 
L 2419 4116 
z
M 2253 4666 
L 3047 4666 
L 3047 1625 
L 3713 1625 
L 3713 1100 
L 3047 1100 
L 3047 0 
L 2419 0 
L 2419 1100 
L 313 1100 
L 313 1709 
L 2253 4666 
z
" transform="scale(0.015625)"/>
       </defs>
       <use xlink:href="#DejaVuSans-34"/>
      </g>
     </g>
    </g>
    <g id="xtick_6">
     <g id="line2d_11">
      <path d="M 334.762574 347.618125 
L 334.762574 22.318125 
" clip-path="url(#p4f60acc0d2)" style="fill: none; stroke-dasharray: 2.96,1.28; stroke-dashoffset: 0; stroke: #b0b0b0; stroke-opacity: 0.4; stroke-width: 0.8"/>
     </g>
     <g id="line2d_12">
      <g>
       <use xlink:href="#m1312ae4344" x="334.762574" y="347.618125" style="stroke: #000000; stroke-width: 0.8"/>
      </g>
     </g>
     <g id="text_6">
      <!-- 5 -->
      <g transform="translate(331.581324 362.216563) scale(0.1 -0.1)">
       <defs>
        <path id="DejaVuSans-35" d="M 691 4666 
L 3169 4666 
L 3169 4134 
L 1269 4134 
L 1269 2991 
Q 1406 3038 1543 3061 
Q 1681 3084 1819 3084 
Q 2600 3084 3056 2656 
Q 3513 2228 3513 1497 
Q 3513 744 3044 326 
Q 2575 -91 1722 -91 
Q 1428 -91 1123 -41 
Q 819 9 494 109 
L 494 744 
Q 775 591 1075 516 
Q 1375 441 1709 441 
Q 2250 441 2565 725 
Q 2881 1009 2881 1497 
Q 2881 1984 2565 2268 
Q 2250 2553 1709 2553 
Q 1456 2553 1204 2497 
Q 953 2441 691 2322 
L 691 4666 
z
" transform="scale(0.015625)"/>
       </defs>
       <use xlink:href="#DejaVuSans-35"/>
      </g>
     </g>
    </g>
    <g id="xtick_7">
     <g id="line2d_13">
      <path d="M 387.703382 347.618125 
L 387.703382 22.318125 
" clip-path="url(#p4f60acc0d2)" style="fill: none; stroke-dasharray: 2.96,1.28; stroke-dashoffset: 0; stroke: #b0b0b0; stroke-opacity: 0.4; stroke-width: 0.8"/>
     </g>
     <g id="line2d_14">
      <g>
       <use xlink:href="#m1312ae4344" x="387.703382" y="347.618125" style="stroke: #000000; stroke-width: 0.8"/>
      </g>
     </g>
     <g id="text_7">
      <!-- 6 -->
      <g transform="translate(384.522132 362.216563) scale(0.1 -0.1)">
       <defs>
        <path id="DejaVuSans-36" d="M 2113 2584 
Q 1688 2584 1439 2293 
Q 1191 2003 1191 1497 
Q 1191 994 1439 701 
Q 1688 409 2113 409 
Q 2538 409 2786 701 
Q 3034 994 3034 1497 
Q 3034 2003 2786 2293 
Q 2538 2584 2113 2584 
z
M 3366 4563 
L 3366 3988 
Q 3128 4100 2886 4159 
Q 2644 4219 2406 4219 
Q 1781 4219 1451 3797 
Q 1122 3375 1075 2522 
Q 1259 2794 1537 2939 
Q 1816 3084 2150 3084 
Q 2853 3084 3261 2657 
Q 3669 2231 3669 1497 
Q 3669 778 3244 343 
Q 2819 -91 2113 -91 
Q 1303 -91 875 529 
Q 447 1150 447 2328 
Q 447 3434 972 4092 
Q 1497 4750 2381 4750 
Q 2619 4750 2861 4703 
Q 3103 4656 3366 4563 
z
" transform="scale(0.015625)"/>
       </defs>
       <use xlink:href="#DejaVuSans-36"/>
      </g>
     </g>
    </g>
    <g id="xtick_8">
     <g id="line2d_15">
      <path d="M 440.644191 347.618125 
L 440.644191 22.318125 
" clip-path="url(#p4f60acc0d2)" style="fill: none; stroke-dasharray: 2.96,1.28; stroke-dashoffset: 0; stroke: #b0b0b0; stroke-opacity: 0.4; stroke-width: 0.8"/>
     </g>
     <g id="line2d_16">
      <g>
       <use xlink:href="#m1312ae4344" x="440.644191" y="347.618125" style="stroke: #000000; stroke-width: 0.8"/>
      </g>
     </g>
     <g id="text_8">
      <!-- 7 -->
      <g transform="translate(437.462941 362.216563) scale(0.1 -0.1)">
       <defs>
        <path id="DejaVuSans-37" d="M 525 4666 
L 3525 4666 
L 3525 4397 
L 1831 0 
L 1172 0 
L 2766 4134 
L 525 4134 
L 525 4666 
z
" transform="scale(0.015625)"/>
       </defs>
       <use xlink:href="#DejaVuSans-37"/>
      </g>
     </g>
    </g>
    <g id="xtick_9">
     <g id="line2d_17">
      <path d="M 493.585 347.618125 
L 493.585 22.318125 
" clip-path="url(#p4f60acc0d2)" style="fill: none; stroke-dasharray: 2.96,1.28; stroke-dashoffset: 0; stroke: #b0b0b0; stroke-opacity: 0.4; stroke-width: 0.8"/>
     </g>
     <g id="line2d_18">
      <g>
       <use xlink:href="#m1312ae4344" x="493.585" y="347.618125" style="stroke: #000000; stroke-width: 0.8"/>
      </g>
     </g>
     <g id="text_9">
      <!-- 8 -->
      <g transform="translate(490.40375 362.216563) scale(0.1 -0.1)">
       <defs>
        <path id="DejaVuSans-38" d="M 2034 2216 
Q 1584 2216 1326 1975 
Q 1069 1734 1069 1313 
Q 1069 891 1326 650 
Q 1584 409 2034 409 
Q 2484 409 2743 651 
Q 3003 894 3003 1313 
Q 3003 1734 2745 1975 
Q 2488 2216 2034 2216 
z
M 1403 2484 
Q 997 2584 770 2862 
Q 544 3141 544 3541 
Q 544 4100 942 4425 
Q 1341 4750 2034 4750 
Q 2731 4750 3128 4425 
Q 3525 4100 3525 3541 
Q 3525 3141 3298 2862 
Q 3072 2584 2669 2484 
Q 3125 2378 3379 2068 
Q 3634 1759 3634 1313 
Q 3634 634 3220 271 
Q 2806 -91 2034 -91 
Q 1263 -91 848 271 
Q 434 634 434 1313 
Q 434 1759 690 2068 
Q 947 2378 1403 2484 
z
M 1172 3481 
Q 1172 3119 1398 2916 
Q 1625 2713 2034 2713 
Q 2441 2713 2670 2916 
Q 2900 3119 2900 3481 
Q 2900 3844 2670 4047 
Q 2441 4250 2034 4250 
Q 1625 4250 1398 4047 
Q 1172 3844 1172 3481 
z
" transform="scale(0.015625)"/>
       </defs>
       <use xlink:href="#DejaVuSans-38"/>
      </g>
     </g>
    </g>
    <g id="text_10">
     <!-- $x$ -->
     <g transform="translate(265.286563 376.654531) scale(0.11 -0.11)">
      <defs>
       <path id="DejaVuSans-Oblique-78" d="M 3841 3500 
L 2234 1784 
L 3219 0 
L 2559 0 
L 1819 1388 
L 531 0 
L -166 0 
L 1556 1844 
L 641 3500 
L 1300 3500 
L 1972 2234 
L 3144 3500 
L 3841 3500 
z
" transform="scale(0.015625)"/>
      </defs>
      <use xlink:href="#DejaVuSans-Oblique-78" transform="translate(0 0.3125)"/>
     </g>
    </g>
   </g>
   <g id="matplotlib.axis_2">
    <g id="ytick_1">
     <g id="line2d_19">
      <path d="M 43.588125 347.618125 
L 493.585 347.618125 
" clip-path="url(#p4f60acc0d2)" style="fill: none; stroke-dasharray: 2.96,1.28; stroke-dashoffset: 0; stroke: #b0b0b0; stroke-opacity: 0.4; stroke-width: 0.8"/>
     </g>
     <g id="line2d_20">
      <defs>
       <path id="m00be61943a" d="M 0 0 
L -3.5 0 
" style="stroke: #000000; stroke-width: 0.8"/>
      </defs>
      <g>
       <use xlink:href="#m00be61943a" x="43.588125" y="347.618125" style="stroke: #000000; stroke-width: 0.8"/>
      </g>
     </g>
     <g id="text_11">
      <!-- −3 -->
      <g transform="translate(21.845938 351.417344) scale(0.1 -0.1)">
       <defs>
        <path id="DejaVuSans-2212" d="M 678 2272 
L 4684 2272 
L 4684 1741 
L 678 1741 
L 678 2272 
z
" transform="scale(0.015625)"/>
       </defs>
       <use xlink:href="#DejaVuSans-2212"/>
       <use xlink:href="#DejaVuSans-33" transform="translate(83.789062 0)"/>
      </g>
     </g>
    </g>
    <g id="ytick_2">
     <g id="line2d_21">
      <path d="M 43.588125 293.401458 
L 493.585 293.401458 
" clip-path="url(#p4f60acc0d2)" style="fill: none; stroke-dasharray: 2.96,1.28; stroke-dashoffset: 0; stroke: #b0b0b0; stroke-opacity: 0.4; stroke-width: 0.8"/>
     </g>
     <g id="line2d_22">
      <g>
       <use xlink:href="#m00be61943a" x="43.588125" y="293.401458" style="stroke: #000000; stroke-width: 0.8"/>
      </g>
     </g>
     <g id="text_12">
      <!-- −2 -->
      <g transform="translate(21.845938 297.200677) scale(0.1 -0.1)">
       <use xlink:href="#DejaVuSans-2212"/>
       <use xlink:href="#DejaVuSans-32" transform="translate(83.789062 0)"/>
      </g>
     </g>
    </g>
    <g id="ytick_3">
     <g id="line2d_23">
      <path d="M 43.588125 239.184792 
L 493.585 239.184792 
" clip-path="url(#p4f60acc0d2)" style="fill: none; stroke-dasharray: 2.96,1.28; stroke-dashoffset: 0; stroke: #b0b0b0; stroke-opacity: 0.4; stroke-width: 0.8"/>
     </g>
     <g id="line2d_24">
      <g>
       <use xlink:href="#m00be61943a" x="43.588125" y="239.184792" style="stroke: #000000; stroke-width: 0.8"/>
      </g>
     </g>
     <g id="text_13">
      <!-- −1 -->
      <g transform="translate(21.845938 242.98401) scale(0.1 -0.1)">
       <use xlink:href="#DejaVuSans-2212"/>
       <use xlink:href="#DejaVuSans-31" transform="translate(83.789062 0)"/>
      </g>
     </g>
    </g>
    <g id="ytick_4">
     <g id="line2d_25">
      <path d="M 43.588125 184.968125 
L 493.585 184.968125 
" clip-path="url(#p4f60acc0d2)" style="fill: none; stroke-dasharray: 2.96,1.28; stroke-dashoffset: 0; stroke: #b0b0b0; stroke-opacity: 0.4; stroke-width: 0.8"/>
     </g>
     <g id="line2d_26">
      <g>
       <use xlink:href="#m00be61943a" x="43.588125" y="184.968125" style="stroke: #000000; stroke-width: 0.8"/>
      </g>
     </g>
     <g id="text_14">
      <!-- 0 -->
      <g transform="translate(30.225625 188.767344) scale(0.1 -0.1)">
       <use xlink:href="#DejaVuSans-30"/>
      </g>
     </g>
    </g>
    <g id="ytick_5">
     <g id="line2d_27">
      <path d="M 43.588125 130.751458 
L 493.585 130.751458 
" clip-path="url(#p4f60acc0d2)" style="fill: none; stroke-dasharray: 2.96,1.28; stroke-dashoffset: 0; stroke: #b0b0b0; stroke-opacity: 0.4; stroke-width: 0.8"/>
     </g>
     <g id="line2d_28">
      <g>
       <use xlink:href="#m00be61943a" x="43.588125" y="130.751458" style="stroke: #000000; stroke-width: 0.8"/>
      </g>
     </g>
     <g id="text_15">
      <!-- 1 -->
      <g transform="translate(30.225625 134.550677) scale(0.1 -0.1)">
       <use xlink:href="#DejaVuSans-31"/>
      </g>
     </g>
    </g>
    <g id="ytick_6">
     <g id="line2d_29">
      <path d="M 43.588125 76.534792 
L 493.585 76.534792 
" clip-path="url(#p4f60acc0d2)" style="fill: none; stroke-dasharray: 2.96,1.28; stroke-dashoffset: 0; stroke: #b0b0b0; stroke-opacity: 0.4; stroke-width: 0.8"/>
     </g>
     <g id="line2d_30">
      <g>
       <use xlink:href="#m00be61943a" x="43.588125" y="76.534792" style="stroke: #000000; stroke-width: 0.8"/>
      </g>
     </g>
     <g id="text_16">
      <!-- 2 -->
      <g transform="translate(30.225625 80.33401) scale(0.1 -0.1)">
       <use xlink:href="#DejaVuSans-32"/>
      </g>
     </g>
    </g>
    <g id="ytick_7">
     <g id="line2d_31">
      <path d="M 43.588125 22.318125 
L 493.585 22.318125 
" clip-path="url(#p4f60acc0d2)" style="fill: none; stroke-dasharray: 2.96,1.28; stroke-dashoffset: 0; stroke: #b0b0b0; stroke-opacity: 0.4; stroke-width: 0.8"/>
     </g>
     <g id="line2d_32">
      <g>
       <use xlink:href="#m00be61943a" x="43.588125" y="22.318125" style="stroke: #000000; stroke-width: 0.8"/>
      </g>
     </g>
     <g id="text_17">
      <!-- 3 -->
      <g transform="translate(30.225625 26.117344) scale(0.1 -0.1)">
       <use xlink:href="#DejaVuSans-33"/>
      </g>
     </g>
    </g>
    <g id="text_18">
     <!-- $y$ -->
     <g transform="translate(15.535938 188.268125) rotate(-90) scale(0.11 -0.11)">
      <defs>
       <path id="DejaVuSans-Oblique-79" d="M 1588 -325 
Q 1188 -997 936 -1164 
Q 684 -1331 294 -1331 
L -159 -1331 
L -63 -850 
L 269 -850 
Q 509 -850 678 -719 
Q 847 -588 1056 -206 
L 1234 128 
L 459 3500 
L 1069 3500 
L 1650 819 
L 3256 3500 
L 3859 3500 
L 1588 -325 
z
" transform="scale(0.015625)"/>
      </defs>
      <use xlink:href="#DejaVuSans-Oblique-79" transform="translate(0 0.3125)"/>
     </g>
    </g>
   </g>
   <g id="line2d_33">
    <path d="M 75.35261 309.806613 
L 77.454281 291.681099 
L 79.555951 278.120715 
L 81.657621 267.282453 
L 83.759291 258.254041 
L 85.860962 250.51665 
L 87.962632 243.746831 
L 90.064302 237.729269 
L 92.165973 232.313378 
L 94.267643 227.389702 
L 96.369313 222.876179 
L 98.470984 218.709699 
L 100.572654 214.840684 
L 102.674324 211.229475 
L 106.877665 204.657275 
L 111.081005 198.796322 
L 115.284346 193.507596 
L 119.487687 188.689232 
L 123.691027 184.264354 
L 127.894368 180.17352 
L 132.097708 176.369815 
L 136.301049 172.815564 
L 140.50439 169.48005 
L 146.8094 164.832583 
L 153.114411 160.552236 
L 159.419422 156.58523 
L 165.724433 152.888802 
L 172.029444 149.428387 
L 178.334455 146.175647 
L 186.741136 142.121614 
L 195.147817 138.349745 
L 203.554499 134.823303 
L 211.96118 131.512292 
L 222.469531 127.639077 
L 232.977883 124.024209 
L 243.486234 120.635368 
L 256.096256 116.829973 
L 268.706278 113.274246 
L 281.3163 109.937432 
L 296.027992 106.287522 
L 310.739684 102.867904 
L 327.553046 99.206903 
L 344.366409 95.777553 
L 363.281441 92.162278 
L 382.196474 88.773079 
L 403.213177 85.240236 
L 424.22988 81.923583 
L 447.348253 78.495325 
L 472.568297 74.987183 
L 493.585 72.227736 
L 493.585 72.227736 
" clip-path="url(#p4f60acc0d2)" style="fill: none; stroke: #4682b4; stroke-width: 2.5; stroke-linecap: square"/>
   </g>
   <g id="line2d_34">
    <path d="M 80.646691 228.341458 
L 83.131668 225.796594 
L 85.616645 223.25173 
L 88.101621 220.706866 
L 90.586598 218.162003 
L 93.071575 215.617139 
L 95.556552 213.072275 
L 98.041528 210.527411 
L 100.526505 207.982547 
L 103.011482 205.437683 
L 105.496459 202.892819 
L 107.981435 200.347955 
L 110.466412 197.803091 
L 112.951389 195.258227 
L 115.436366 192.713363 
L 117.921342 190.168499 
L 120.406319 187.623635 
L 122.891296 185.078771 
L 125.376273 182.533907 
L 127.861249 179.989043 
L 130.346226 177.444179 
L 132.831203 174.899315 
L 135.316179 172.354452 
L 137.801156 169.809588 
L 140.286133 167.264724 
L 142.77111 164.71986 
L 145.256086 162.174996 
L 147.741063 159.630132 
L 150.22604 157.085268 
L 152.711017 154.540404 
L 155.195993 151.99554 
L 157.68097 149.450676 
L 160.165947 146.905812 
L 162.650924 144.360948 
L 165.1359 141.816084 
L 167.620877 139.27122 
L 170.105854 136.726356 
L 172.590831 134.181492 
L 175.075807 131.636628 
L 177.560784 129.091764 
L 180.045761 126.546901 
L 182.530738 124.002037 
L 185.015714 121.457173 
L 187.500691 118.912309 
L 189.985668 116.367445 
L 192.470645 113.822581 
L 194.955621 111.277717 
L 197.440598 108.732853 
L 199.925575 106.187989 
L 202.410551 103.643125 
" clip-path="url(#p4f60acc0d2)" style="fill: none; stroke-dasharray: 7.4,3.2; stroke-dashoffset: 0; stroke: #cc7000; stroke-width: 2"/>
   </g>
   <g id="line2d_35">
    <path d="M 302.418709 98.547075 
L 308.901257 97.648615 
L 315.383805 96.750154 
L 321.866353 95.851694 
L 328.348901 94.953233 
L 334.831449 94.054773 
L 341.313997 93.156312 
L 347.796545 92.257852 
L 354.279093 91.359391 
L 360.761641 90.46093 
L 367.244189 89.56247 
L 373.726737 88.664009 
L 380.209285 87.765549 
L 386.691834 86.867088 
L 393.174382 85.968628 
L 399.65693 85.070167 
L 406.139478 84.171706 
L 412.622026 83.273246 
L 419.104574 82.374785 
L 425.587122 81.476325 
L 432.06967 80.577864 
L 438.552218 79.679404 
L 445.034766 78.780943 
L 451.517314 77.882483 
L 457.999862 76.984022 
L 464.48241 76.085561 
L 470.964958 75.187101 
L 477.447506 74.28864 
L 483.930054 73.39018 
L 490.412602 72.491719 
L 496.89515 71.593259 
L 503.377698 70.694798 
L 509.860246 69.796337 
L 516.342794 68.897877 
L 522.825342 67.999416 
L 529.30789 67.100956 
L 535.790438 66.202495 
L 542.272986 65.304035 
L 548.755534 64.405574 
L 555.238082 63.507113 
L 561.72063 62.608653 
L 568.203178 61.710192 
L 574.685726 60.811732 
L 581.168274 59.913271 
L 587.650822 59.014811 
L 594.13337 58.11635 
L 600.615918 57.21789 
L 607.098466 56.319429 
L 613.581014 55.420968 
L 620.063562 54.522508 
" clip-path="url(#p4f60acc0d2)" style="fill: none; stroke-dasharray: 7.4,3.2; stroke-dashoffset: 0; stroke: #cc0000; stroke-width: 2"/>
   </g>
   <g id="line2d_36">
    <path d="M 43.588125 184.968125 
L 493.585 184.968125 
" clip-path="url(#p4f60acc0d2)" style="fill: none; stroke: #000000; stroke-width: 0.8; stroke-linecap: square"/>
   </g>
   <g id="line2d_37">
    <path d="M 70.058529 347.618125 
L 70.058529 22.318125 
" clip-path="url(#p4f60acc0d2)" style="fill: none; stroke: #000000; stroke-width: 0.8; stroke-linecap: square"/>
   </g>
   <g id="patch_3">
    <path d="M 43.588125 347.618125 
L 43.588125 22.318125 
" style="fill: none; stroke: #000000; stroke-width: 0.8; stroke-linejoin: miter; stroke-linecap: square"/>
   </g>
   <g id="patch_4">
    <path d="M 493.585 347.618125 
L 493.585 22.318125 
" style="fill: none; stroke: #000000; stroke-width: 0.8; stroke-linejoin: miter; stroke-linecap: square"/>
   </g>
   <g id="patch_5">
    <path d="M 43.588125 347.618125 
L 493.585 347.618125 
" style="fill: none; stroke: #000000; stroke-width: 0.8; stroke-linejoin: miter; stroke-linecap: square"/>
   </g>
   <g id="patch_6">
    <path d="M 43.588125 22.318125 
L 493.585 22.318125 
" style="fill: none; stroke: #000000; stroke-width: 0.8; stroke-linejoin: miter; stroke-linecap: square"/>
   </g>
   <g id="text_19">
    <!-- $f(x) = \ln(x)$ -->
    <g style="fill: #808080" transform="translate(237.146563 16.318125) scale(0.12 -0.12)">
     <defs>
      <path id="DejaVuSans-Oblique-66" d="M 3059 4863 
L 2969 4384 
L 2419 4384 
Q 2106 4384 1964 4261 
Q 1822 4138 1753 3809 
L 1691 3500 
L 2638 3500 
L 2553 3053 
L 1606 3053 
L 1013 0 
L 434 0 
L 1031 3053 
L 481 3053 
L 563 3500 
L 1113 3500 
L 1159 3744 
Q 1278 4363 1576 4613 
Q 1875 4863 2516 4863 
L 3059 4863 
z
" transform="scale(0.015625)"/>
      <path id="DejaVuSans-28" d="M 1984 4856 
Q 1566 4138 1362 3434 
Q 1159 2731 1159 2009 
Q 1159 1288 1364 580 
Q 1569 -128 1984 -844 
L 1484 -844 
Q 1016 -109 783 600 
Q 550 1309 550 2009 
Q 550 2706 781 3412 
Q 1013 4119 1484 4856 
L 1984 4856 
z
" transform="scale(0.015625)"/>
      <path id="DejaVuSans-29" d="M 513 4856 
L 1013 4856 
Q 1481 4119 1714 3412 
Q 1947 2706 1947 2009 
Q 1947 1309 1714 600 
Q 1481 -109 1013 -844 
L 513 -844 
Q 928 -128 1133 580 
Q 1338 1288 1338 2009 
Q 1338 2731 1133 3434 
Q 928 4138 513 4856 
z
" transform="scale(0.015625)"/>
      <path id="DejaVuSans-3d" d="M 678 2906 
L 4684 2906 
L 4684 2381 
L 678 2381 
L 678 2906 
z
M 678 1631 
L 4684 1631 
L 4684 1100 
L 678 1100 
L 678 1631 
z
" transform="scale(0.015625)"/>
      <path id="DejaVuSans-6c" d="M 603 4863 
L 1178 4863 
L 1178 0 
L 603 0 
L 603 4863 
z
" transform="scale(0.015625)"/>
      <path id="DejaVuSans-6e" d="M 3513 2113 
L 3513 0 
L 2938 0 
L 2938 2094 
Q 2938 2591 2744 2837 
Q 2550 3084 2163 3084 
Q 1697 3084 1428 2787 
Q 1159 2491 1159 1978 
L 1159 0 
L 581 0 
L 581 3500 
L 1159 3500 
L 1159 2956 
Q 1366 3272 1645 3428 
Q 1925 3584 2291 3584 
Q 2894 3584 3203 3211 
Q 3513 2838 3513 2113 
z
" transform="scale(0.015625)"/>
     </defs>
     <use xlink:href="#DejaVuSans-Oblique-66" transform="translate(0 0.015625)"/>
     <use xlink:href="#DejaVuSans-28" transform="translate(35.205078 0.015625)"/>
     <use xlink:href="#DejaVuSans-Oblique-78" transform="translate(74.21875 0.015625)"/>
     <use xlink:href="#DejaVuSans-29" transform="translate(133.398438 0.015625)"/>
     <use xlink:href="#DejaVuSans-3d" transform="translate(191.894531 0.015625)"/>
     <use xlink:href="#DejaVuSans-6c" transform="translate(295.166016 0.015625)"/>
     <use xlink:href="#DejaVuSans-6e" transform="translate(322.949219 0.015625)"/>
     <use xlink:href="#DejaVuSans-28" transform="translate(386.328125 0.015625)"/>
     <use xlink:href="#DejaVuSans-Oblique-78" transform="translate(425.341797 0.015625)"/>
     <use xlink:href="#DejaVuSans-29" transform="translate(484.521484 0.015625)"/>
    </g>
   </g>
   <g id="line2d_38">
    <defs>
     <path id="mc26d2c3930" d="M 0 5 
C 1.326016 5 2.597899 4.473168 3.535534 3.535534 
C 4.473168 2.597899 5 1.326016 5 0 
C 5 -1.326016 4.473168 -2.597899 3.535534 -3.535534 
C 2.597899 -4.473168 1.326016 -5 0 -5 
C -1.326016 -5 -2.597899 -4.473168 -3.535534 -3.535534 
C -4.473168 -2.597899 -5 -1.326016 -5 0 
C -5 1.326016 -4.473168 2.597899 -3.535534 3.535534 
C -2.597899 4.473168 -1.326016 5 0 5 
z
" style="stroke: #cc7000"/>
    </defs>
    <g clip-path="url(#p4f60acc0d2)">
     <use xlink:href="#mc26d2c3930" x="122.999338" y="184.968125" style="fill: #cc7000; stroke: #cc7000"/>
    </g>
   </g>
   <g id="line2d_39">
    <defs>
     <path id="m2f854ce45a" d="M 0 5 
C 1.326016 5 2.597899 4.473168 3.535534 3.535534 
C 4.473168 2.597899 5 1.326016 5 0 
C 5 -1.326016 4.473168 -2.597899 3.535534 -3.535534 
C 2.597899 -4.473168 1.326016 -5 0 -5 
C -1.326016 -5 -2.597899 -4.473168 -3.535534 -3.535534 
C -4.473168 -2.597899 -5 -1.326016 -5 0 
C -5 1.326016 -4.473168 2.597899 -3.535534 3.535534 
C -2.597899 4.473168 -1.326016 5 0 5 
z
" style="stroke: #cc0000"/>
    </defs>
    <g clip-path="url(#p4f60acc0d2)">
     <use xlink:href="#m2f854ce45a" x="461.241136" y="76.534792" style="fill: #cc0000; stroke: #cc0000"/>
    </g>
   </g>
   <g id="legend_1">
    <g id="patch_7">
     <path d="M 313.855 343.118125 
L 487.285 343.118125 
Q 489.085 343.118125 489.085 341.318125 
L 489.085 301.197812 
Q 489.085 299.397812 487.285 299.397812 
L 313.855 299.397812 
Q 312.055 299.397812 312.055 301.197812 
L 312.055 341.318125 
Q 312.055 343.118125 313.855 343.118125 
z
" style="fill: #ffffff; opacity: 0.8; stroke: #cccccc; stroke-linejoin: miter"/>
    </g>
    <g id="line2d_40">
     <path d="M 315.655 306.686406 
L 324.655 306.686406 
L 333.655 306.686406 
" style="fill: none; stroke: #4682b4; stroke-width: 2.5; stroke-linecap: square"/>
    </g>
    <g id="text_20">
     <!-- $f(x) = \ln(x)$ -->
     <g transform="translate(340.855 309.836406) scale(0.09 -0.09)">
      <use xlink:href="#DejaVuSans-Oblique-66" transform="translate(0 0.015625)"/>
      <use xlink:href="#DejaVuSans-28" transform="translate(35.205078 0.015625)"/>
      <use xlink:href="#DejaVuSans-Oblique-78" transform="translate(74.21875 0.015625)"/>
      <use xlink:href="#DejaVuSans-29" transform="translate(133.398438 0.015625)"/>
      <use xlink:href="#DejaVuSans-3d" transform="translate(191.894531 0.015625)"/>
      <use xlink:href="#DejaVuSans-6c" transform="translate(295.166016 0.015625)"/>
      <use xlink:href="#DejaVuSans-6e" transform="translate(322.949219 0.015625)"/>
      <use xlink:href="#DejaVuSans-28" transform="translate(386.328125 0.015625)"/>
      <use xlink:href="#DejaVuSans-Oblique-78" transform="translate(425.341797 0.015625)"/>
      <use xlink:href="#DejaVuSans-29" transform="translate(484.521484 0.015625)"/>
     </g>
    </g>
    <g id="line2d_41">
     <path d="M 315.655 319.898125 
L 324.655 319.898125 
L 333.655 319.898125 
" style="fill: none; stroke-dasharray: 7.4,3.2; stroke-dashoffset: 0; stroke: #cc7000; stroke-width: 2"/>
    </g>
    <g id="text_21">
     <!-- Tangent at $x=1$ (slope = 1) -->
     <g transform="translate(340.855 323.048125) scale(0.09 -0.09)">
      <defs>
       <path id="DejaVuSans-54" d="M -19 4666 
L 3928 4666 
L 3928 4134 
L 2272 4134 
L 2272 0 
L 1638 0 
L 1638 4134 
L -19 4134 
L -19 4666 
z
" transform="scale(0.015625)"/>
       <path id="DejaVuSans-61" d="M 2194 1759 
Q 1497 1759 1228 1600 
Q 959 1441 959 1056 
Q 959 750 1161 570 
Q 1363 391 1709 391 
Q 2188 391 2477 730 
Q 2766 1069 2766 1631 
L 2766 1759 
L 2194 1759 
z
M 3341 1997 
L 3341 0 
L 2766 0 
L 2766 531 
Q 2569 213 2275 61 
Q 1981 -91 1556 -91 
Q 1019 -91 701 211 
Q 384 513 384 1019 
Q 384 1609 779 1909 
Q 1175 2209 1959 2209 
L 2766 2209 
L 2766 2266 
Q 2766 2663 2505 2880 
Q 2244 3097 1772 3097 
Q 1472 3097 1187 3025 
Q 903 2953 641 2809 
L 641 3341 
Q 956 3463 1253 3523 
Q 1550 3584 1831 3584 
Q 2591 3584 2966 3190 
Q 3341 2797 3341 1997 
z
" transform="scale(0.015625)"/>
       <path id="DejaVuSans-67" d="M 2906 1791 
Q 2906 2416 2648 2759 
Q 2391 3103 1925 3103 
Q 1463 3103 1205 2759 
Q 947 2416 947 1791 
Q 947 1169 1205 825 
Q 1463 481 1925 481 
Q 2391 481 2648 825 
Q 2906 1169 2906 1791 
z
M 3481 434 
Q 3481 -459 3084 -895 
Q 2688 -1331 1869 -1331 
Q 1566 -1331 1297 -1286 
Q 1028 -1241 775 -1147 
L 775 -588 
Q 1028 -725 1275 -790 
Q 1522 -856 1778 -856 
Q 2344 -856 2625 -561 
Q 2906 -266 2906 331 
L 2906 616 
Q 2728 306 2450 153 
Q 2172 0 1784 0 
Q 1141 0 747 490 
Q 353 981 353 1791 
Q 353 2603 747 3093 
Q 1141 3584 1784 3584 
Q 2172 3584 2450 3431 
Q 2728 3278 2906 2969 
L 2906 3500 
L 3481 3500 
L 3481 434 
z
" transform="scale(0.015625)"/>
       <path id="DejaVuSans-65" d="M 3597 1894 
L 3597 1613 
L 953 1613 
Q 991 1019 1311 708 
Q 1631 397 2203 397 
Q 2534 397 2845 478 
Q 3156 559 3463 722 
L 3463 178 
Q 3153 47 2828 -22 
Q 2503 -91 2169 -91 
Q 1331 -91 842 396 
Q 353 884 353 1716 
Q 353 2575 817 3079 
Q 1281 3584 2069 3584 
Q 2775 3584 3186 3129 
Q 3597 2675 3597 1894 
z
M 3022 2063 
Q 3016 2534 2758 2815 
Q 2500 3097 2075 3097 
Q 1594 3097 1305 2825 
Q 1016 2553 972 2059 
L 3022 2063 
z
" transform="scale(0.015625)"/>
       <path id="DejaVuSans-74" d="M 1172 4494 
L 1172 3500 
L 2356 3500 
L 2356 3053 
L 1172 3053 
L 1172 1153 
Q 1172 725 1289 603 
Q 1406 481 1766 481 
L 2356 481 
L 2356 0 
L 1766 0 
Q 1100 0 847 248 
Q 594 497 594 1153 
L 594 3053 
L 172 3053 
L 172 3500 
L 594 3500 
L 594 4494 
L 1172 4494 
z
" transform="scale(0.015625)"/>
       <path id="DejaVuSans-20" transform="scale(0.015625)"/>
       <path id="DejaVuSans-73" d="M 2834 3397 
L 2834 2853 
Q 2591 2978 2328 3040 
Q 2066 3103 1784 3103 
Q 1356 3103 1142 2972 
Q 928 2841 928 2578 
Q 928 2378 1081 2264 
Q 1234 2150 1697 2047 
L 1894 2003 
Q 2506 1872 2764 1633 
Q 3022 1394 3022 966 
Q 3022 478 2636 193 
Q 2250 -91 1575 -91 
Q 1294 -91 989 -36 
Q 684 19 347 128 
L 347 722 
Q 666 556 975 473 
Q 1284 391 1588 391 
Q 1994 391 2212 530 
Q 2431 669 2431 922 
Q 2431 1156 2273 1281 
Q 2116 1406 1581 1522 
L 1381 1569 
Q 847 1681 609 1914 
Q 372 2147 372 2553 
Q 372 3047 722 3315 
Q 1072 3584 1716 3584 
Q 2034 3584 2315 3537 
Q 2597 3491 2834 3397 
z
" transform="scale(0.015625)"/>
       <path id="DejaVuSans-6f" d="M 1959 3097 
Q 1497 3097 1228 2736 
Q 959 2375 959 1747 
Q 959 1119 1226 758 
Q 1494 397 1959 397 
Q 2419 397 2687 759 
Q 2956 1122 2956 1747 
Q 2956 2369 2687 2733 
Q 2419 3097 1959 3097 
z
M 1959 3584 
Q 2709 3584 3137 3096 
Q 3566 2609 3566 1747 
Q 3566 888 3137 398 
Q 2709 -91 1959 -91 
Q 1206 -91 779 398 
Q 353 888 353 1747 
Q 353 2609 779 3096 
Q 1206 3584 1959 3584 
z
" transform="scale(0.015625)"/>
       <path id="DejaVuSans-70" d="M 1159 525 
L 1159 -1331 
L 581 -1331 
L 581 3500 
L 1159 3500 
L 1159 2969 
Q 1341 3281 1617 3432 
Q 1894 3584 2278 3584 
Q 2916 3584 3314 3078 
Q 3713 2572 3713 1747 
Q 3713 922 3314 415 
Q 2916 -91 2278 -91 
Q 1894 -91 1617 61 
Q 1341 213 1159 525 
z
M 3116 1747 
Q 3116 2381 2855 2742 
Q 2594 3103 2138 3103 
Q 1681 3103 1420 2742 
Q 1159 2381 1159 1747 
Q 1159 1113 1420 752 
Q 1681 391 2138 391 
Q 2594 391 2855 752 
Q 3116 1113 3116 1747 
z
" transform="scale(0.015625)"/>
      </defs>
      <use xlink:href="#DejaVuSans-54" transform="translate(0 0.015625)"/>
      <use xlink:href="#DejaVuSans-61" transform="translate(61.083984 0.015625)"/>
      <use xlink:href="#DejaVuSans-6e" transform="translate(122.363281 0.015625)"/>
      <use xlink:href="#DejaVuSans-67" transform="translate(185.742188 0.015625)"/>
      <use xlink:href="#DejaVuSans-65" transform="translate(249.21875 0.015625)"/>
      <use xlink:href="#DejaVuSans-6e" transform="translate(310.742188 0.015625)"/>
      <use xlink:href="#DejaVuSans-74" transform="translate(374.121094 0.015625)"/>
      <use xlink:href="#DejaVuSans-20" transform="translate(413.330078 0.015625)"/>
      <use xlink:href="#DejaVuSans-61" transform="translate(445.117188 0.015625)"/>
      <use xlink:href="#DejaVuSans-74" transform="translate(506.396484 0.015625)"/>
      <use xlink:href="#DejaVuSans-20" transform="translate(545.605469 0.015625)"/>
      <use xlink:href="#DejaVuSans-Oblique-78" transform="translate(577.392578 0.015625)"/>
      <use xlink:href="#DejaVuSans-3d" transform="translate(656.054688 0.015625)"/>
      <use xlink:href="#DejaVuSans-31" transform="translate(759.326172 0.015625)"/>
      <use xlink:href="#DejaVuSans-20" transform="translate(822.949219 0.015625)"/>
      <use xlink:href="#DejaVuSans-28" transform="translate(854.736328 0.015625)"/>
      <use xlink:href="#DejaVuSans-73" transform="translate(893.75 0.015625)"/>
      <use xlink:href="#DejaVuSans-6c" transform="translate(945.849609 0.015625)"/>
      <use xlink:href="#DejaVuSans-6f" transform="translate(973.632812 0.015625)"/>
      <use xlink:href="#DejaVuSans-70" transform="translate(1034.814453 0.015625)"/>
      <use xlink:href="#DejaVuSans-65" transform="translate(1098.291016 0.015625)"/>
      <use xlink:href="#DejaVuSans-20" transform="translate(1159.814453 0.015625)"/>
      <use xlink:href="#DejaVuSans-3d" transform="translate(1191.601562 0.015625)"/>
      <use xlink:href="#DejaVuSans-20" transform="translate(1275.390625 0.015625)"/>
      <use xlink:href="#DejaVuSans-31" transform="translate(1307.177734 0.015625)"/>
      <use xlink:href="#DejaVuSans-29" transform="translate(1370.800781 0.015625)"/>
     </g>
    </g>
    <g id="line2d_42">
     <path d="M 315.655 334.478125 
L 324.655 334.478125 
L 333.655 334.478125 
" style="fill: none; stroke-dasharray: 7.4,3.2; stroke-dashoffset: 0; stroke: #cc0000; stroke-width: 2"/>
    </g>
    <g id="text_22">
     <!-- Tangent at $x=e^2$ (slope = $1/e^2$) -->
     <g transform="translate(340.855 337.628125) scale(0.09 -0.09)">
      <defs>
       <path id="DejaVuSans-Oblique-65" d="M 3078 2063 
Q 3088 2113 3092 2166 
Q 3097 2219 3097 2272 
Q 3097 2653 2873 2875 
Q 2650 3097 2266 3097 
Q 1838 3097 1509 2826 
Q 1181 2556 1013 2059 
L 3078 2063 
z
M 3578 1613 
L 903 1613 
Q 884 1494 878 1425 
Q 872 1356 872 1306 
Q 872 872 1139 634 
Q 1406 397 1894 397 
Q 2269 397 2603 481 
Q 2938 566 3225 728 
L 3116 159 
Q 2806 34 2476 -28 
Q 2147 -91 1806 -91 
Q 1078 -91 686 257 
Q 294 606 294 1247 
Q 294 1794 489 2264 
Q 684 2734 1063 3103 
Q 1306 3334 1642 3459 
Q 1978 3584 2356 3584 
Q 2950 3584 3301 3228 
Q 3653 2872 3653 2272 
Q 3653 2128 3634 1964 
Q 3616 1800 3578 1613 
z
" transform="scale(0.015625)"/>
       <path id="DejaVuSans-2f" d="M 1625 4666 
L 2156 4666 
L 531 -594 
L 0 -594 
L 1625 4666 
z
" transform="scale(0.015625)"/>
      </defs>
      <use xlink:href="#DejaVuSans-54" transform="translate(0 0.765625)"/>
      <use xlink:href="#DejaVuSans-61" transform="translate(61.083984 0.765625)"/>
      <use xlink:href="#DejaVuSans-6e" transform="translate(122.363281 0.765625)"/>
      <use xlink:href="#DejaVuSans-67" transform="translate(185.742188 0.765625)"/>
      <use xlink:href="#DejaVuSans-65" transform="translate(249.21875 0.765625)"/>
      <use xlink:href="#DejaVuSans-6e" transform="translate(310.742188 0.765625)"/>
      <use xlink:href="#DejaVuSans-74" transform="translate(374.121094 0.765625)"/>
      <use xlink:href="#DejaVuSans-20" transform="translate(413.330078 0.765625)"/>
      <use xlink:href="#DejaVuSans-61" transform="translate(445.117188 0.765625)"/>
      <use xlink:href="#DejaVuSans-74" transform="translate(506.396484 0.765625)"/>
      <use xlink:href="#DejaVuSans-20" transform="translate(545.605469 0.765625)"/>
      <use xlink:href="#DejaVuSans-Oblique-78" transform="translate(577.392578 0.765625)"/>
      <use xlink:href="#DejaVuSans-3d" transform="translate(656.054688 0.765625)"/>
      <use xlink:href="#DejaVuSans-Oblique-65" transform="translate(759.326172 0.765625)"/>
      <use xlink:href="#DejaVuSans-32" transform="translate(825.499505 39.046875) scale(0.7)"/>
      <use xlink:href="#DejaVuSans-20" transform="translate(872.770013 0.765625)"/>
      <use xlink:href="#DejaVuSans-28" transform="translate(904.557122 0.765625)"/>
      <use xlink:href="#DejaVuSans-73" transform="translate(943.570794 0.765625)"/>
      <use xlink:href="#DejaVuSans-6c" transform="translate(995.670404 0.765625)"/>
      <use xlink:href="#DejaVuSans-6f" transform="translate(1023.453607 0.765625)"/>
      <use xlink:href="#DejaVuSans-70" transform="translate(1084.635247 0.765625)"/>
      <use xlink:href="#DejaVuSans-65" transform="translate(1148.11181 0.765625)"/>
      <use xlink:href="#DejaVuSans-20" transform="translate(1209.635247 0.765625)"/>
      <use xlink:href="#DejaVuSans-3d" transform="translate(1241.422357 0.765625)"/>
      <use xlink:href="#DejaVuSans-20" transform="translate(1325.211419 0.765625)"/>
      <use xlink:href="#DejaVuSans-31" transform="translate(1356.998529 0.765625)"/>
      <use xlink:href="#DejaVuSans-2f" transform="translate(1420.621576 0.765625)"/>
      <use xlink:href="#DejaVuSans-Oblique-65" transform="translate(1454.312982 0.765625)"/>
      <use xlink:href="#DejaVuSans-32" transform="translate(1520.486315 39.046875) scale(0.7)"/>
      <use xlink:href="#DejaVuSans-29" transform="translate(1567.756823 0.765625)"/>
     </g>
    </g>
   </g>
  </g>
  <g id="axes_2">
   <g id="patch_8">
    <path d="M 538.944375 347.618125 
L 988.94125 347.618125 
L 988.94125 22.318125 
L 538.944375 22.318125 
z
" style="fill: #ffffff"/>
   </g>
   <g id="matplotlib.axis_3">
    <g id="xtick_10">
     <g id="line2d_43">
      <path d="M 565.414779 347.618125 
L 565.414779 22.318125 
" clip-path="url(#pc3cec20add)" style="fill: none; stroke-dasharray: 2.96,1.28; stroke-dashoffset: 0; stroke: #b0b0b0; stroke-opacity: 0.4; stroke-width: 0.8"/>
     </g>
     <g id="line2d_44">
      <g>
       <use xlink:href="#m1312ae4344" x="565.414779" y="347.618125" style="stroke: #000000; stroke-width: 0.8"/>
      </g>
     </g>
     <g id="text_23">
      <!-- 0 -->
      <g transform="translate(562.233529 362.216563) scale(0.1 -0.1)">
       <use xlink:href="#DejaVuSans-30"/>
      </g>
     </g>
    </g>
    <g id="xtick_11">
     <g id="line2d_45">
      <path d="M 618.355588 347.618125 
L 618.355588 22.318125 
" clip-path="url(#pc3cec20add)" style="fill: none; stroke-dasharray: 2.96,1.28; stroke-dashoffset: 0; stroke: #b0b0b0; stroke-opacity: 0.4; stroke-width: 0.8"/>
     </g>
     <g id="line2d_46">
      <g>
       <use xlink:href="#m1312ae4344" x="618.355588" y="347.618125" style="stroke: #000000; stroke-width: 0.8"/>
      </g>
     </g>
     <g id="text_24">
      <!-- 1 -->
      <g transform="translate(615.174338 362.216563) scale(0.1 -0.1)">
       <use xlink:href="#DejaVuSans-31"/>
      </g>
     </g>
    </g>
    <g id="xtick_12">
     <g id="line2d_47">
      <path d="M 671.296397 347.618125 
L 671.296397 22.318125 
" clip-path="url(#pc3cec20add)" style="fill: none; stroke-dasharray: 2.96,1.28; stroke-dashoffset: 0; stroke: #b0b0b0; stroke-opacity: 0.4; stroke-width: 0.8"/>
     </g>
     <g id="line2d_48">
      <g>
       <use xlink:href="#m1312ae4344" x="671.296397" y="347.618125" style="stroke: #000000; stroke-width: 0.8"/>
      </g>
     </g>
     <g id="text_25">
      <!-- 2 -->
      <g transform="translate(668.115147 362.216563) scale(0.1 -0.1)">
       <use xlink:href="#DejaVuSans-32"/>
      </g>
     </g>
    </g>
    <g id="xtick_13">
     <g id="line2d_49">
      <path d="M 724.237206 347.618125 
L 724.237206 22.318125 
" clip-path="url(#pc3cec20add)" style="fill: none; stroke-dasharray: 2.96,1.28; stroke-dashoffset: 0; stroke: #b0b0b0; stroke-opacity: 0.4; stroke-width: 0.8"/>
     </g>
     <g id="line2d_50">
      <g>
       <use xlink:href="#m1312ae4344" x="724.237206" y="347.618125" style="stroke: #000000; stroke-width: 0.8"/>
      </g>
     </g>
     <g id="text_26">
      <!-- 3 -->
      <g transform="translate(721.055956 362.216563) scale(0.1 -0.1)">
       <use xlink:href="#DejaVuSans-33"/>
      </g>
     </g>
    </g>
    <g id="xtick_14">
     <g id="line2d_51">
      <path d="M 777.178015 347.618125 
L 777.178015 22.318125 
" clip-path="url(#pc3cec20add)" style="fill: none; stroke-dasharray: 2.96,1.28; stroke-dashoffset: 0; stroke: #b0b0b0; stroke-opacity: 0.4; stroke-width: 0.8"/>
     </g>
     <g id="line2d_52">
      <g>
       <use xlink:href="#m1312ae4344" x="777.178015" y="347.618125" style="stroke: #000000; stroke-width: 0.8"/>
      </g>
     </g>
     <g id="text_27">
      <!-- 4 -->
      <g transform="translate(773.996765 362.216563) scale(0.1 -0.1)">
       <use xlink:href="#DejaVuSans-34"/>
      </g>
     </g>
    </g>
    <g id="xtick_15">
     <g id="line2d_53">
      <path d="M 830.118824 347.618125 
L 830.118824 22.318125 
" clip-path="url(#pc3cec20add)" style="fill: none; stroke-dasharray: 2.96,1.28; stroke-dashoffset: 0; stroke: #b0b0b0; stroke-opacity: 0.4; stroke-width: 0.8"/>
     </g>
     <g id="line2d_54">
      <g>
       <use xlink:href="#m1312ae4344" x="830.118824" y="347.618125" style="stroke: #000000; stroke-width: 0.8"/>
      </g>
     </g>
     <g id="text_28">
      <!-- 5 -->
      <g transform="translate(826.937574 362.216563) scale(0.1 -0.1)">
       <use xlink:href="#DejaVuSans-35"/>
      </g>
     </g>
    </g>
    <g id="xtick_16">
     <g id="line2d_55">
      <path d="M 883.059632 347.618125 
L 883.059632 22.318125 
" clip-path="url(#pc3cec20add)" style="fill: none; stroke-dasharray: 2.96,1.28; stroke-dashoffset: 0; stroke: #b0b0b0; stroke-opacity: 0.4; stroke-width: 0.8"/>
     </g>
     <g id="line2d_56">
      <g>
       <use xlink:href="#m1312ae4344" x="883.059632" y="347.618125" style="stroke: #000000; stroke-width: 0.8"/>
      </g>
     </g>
     <g id="text_29">
      <!-- 6 -->
      <g transform="translate(879.878382 362.216563) scale(0.1 -0.1)">
       <use xlink:href="#DejaVuSans-36"/>
      </g>
     </g>
    </g>
    <g id="xtick_17">
     <g id="line2d_57">
      <path d="M 936.000441 347.618125 
L 936.000441 22.318125 
" clip-path="url(#pc3cec20add)" style="fill: none; stroke-dasharray: 2.96,1.28; stroke-dashoffset: 0; stroke: #b0b0b0; stroke-opacity: 0.4; stroke-width: 0.8"/>
     </g>
     <g id="line2d_58">
      <g>
       <use xlink:href="#m1312ae4344" x="936.000441" y="347.618125" style="stroke: #000000; stroke-width: 0.8"/>
      </g>
     </g>
     <g id="text_30">
      <!-- 7 -->
      <g transform="translate(932.819191 362.216563) scale(0.1 -0.1)">
       <use xlink:href="#DejaVuSans-37"/>
      </g>
     </g>
    </g>
    <g id="xtick_18">
     <g id="line2d_59">
      <path d="M 988.94125 347.618125 
L 988.94125 22.318125 
" clip-path="url(#pc3cec20add)" style="fill: none; stroke-dasharray: 2.96,1.28; stroke-dashoffset: 0; stroke: #b0b0b0; stroke-opacity: 0.4; stroke-width: 0.8"/>
     </g>
     <g id="line2d_60">
      <g>
       <use xlink:href="#m1312ae4344" x="988.94125" y="347.618125" style="stroke: #000000; stroke-width: 0.8"/>
      </g>
     </g>
     <g id="text_31">
      <!-- 8 -->
      <g transform="translate(985.76 362.216563) scale(0.1 -0.1)">
       <use xlink:href="#DejaVuSans-38"/>
      </g>
     </g>
    </g>
    <g id="text_32">
     <!-- $x$ -->
     <g transform="translate(760.642813 376.654531) scale(0.11 -0.11)">
      <use xlink:href="#DejaVuSans-Oblique-78" transform="translate(0 0.3125)"/>
     </g>
    </g>
   </g>
   <g id="matplotlib.axis_4">
    <g id="ytick_8">
     <g id="line2d_61">
      <path d="M 538.944375 301.146696 
L 988.94125 301.146696 
" clip-path="url(#pc3cec20add)" style="fill: none; stroke-dasharray: 2.96,1.28; stroke-dashoffset: 0; stroke: #b0b0b0; stroke-opacity: 0.4; stroke-width: 0.8"/>
     </g>
     <g id="line2d_62">
      <g>
       <use xlink:href="#m00be61943a" x="538.944375" y="301.146696" style="stroke: #000000; stroke-width: 0.8"/>
      </g>
     </g>
     <g id="text_33">
      <!-- 0 -->
      <g transform="translate(525.581875 304.945915) scale(0.1 -0.1)">
       <use xlink:href="#DejaVuSans-30"/>
      </g>
     </g>
    </g>
    <g id="ytick_9">
     <g id="line2d_63">
      <path d="M 538.944375 208.203839 
L 988.94125 208.203839 
" clip-path="url(#pc3cec20add)" style="fill: none; stroke-dasharray: 2.96,1.28; stroke-dashoffset: 0; stroke: #b0b0b0; stroke-opacity: 0.4; stroke-width: 0.8"/>
     </g>
     <g id="line2d_64">
      <g>
       <use xlink:href="#m00be61943a" x="538.944375" y="208.203839" style="stroke: #000000; stroke-width: 0.8"/>
      </g>
     </g>
     <g id="text_34">
      <!-- 1 -->
      <g transform="translate(525.581875 212.003058) scale(0.1 -0.1)">
       <use xlink:href="#DejaVuSans-31"/>
      </g>
     </g>
    </g>
    <g id="ytick_10">
     <g id="line2d_65">
      <path d="M 538.944375 115.260982 
L 988.94125 115.260982 
" clip-path="url(#pc3cec20add)" style="fill: none; stroke-dasharray: 2.96,1.28; stroke-dashoffset: 0; stroke: #b0b0b0; stroke-opacity: 0.4; stroke-width: 0.8"/>
     </g>
     <g id="line2d_66">
      <g>
       <use xlink:href="#m00be61943a" x="538.944375" y="115.260982" style="stroke: #000000; stroke-width: 0.8"/>
      </g>
     </g>
     <g id="text_35">
      <!-- 2 -->
      <g transform="translate(525.581875 119.060201) scale(0.1 -0.1)">
       <use xlink:href="#DejaVuSans-32"/>
      </g>
     </g>
    </g>
    <g id="ytick_11">
     <g id="line2d_67">
      <path d="M 538.944375 22.318125 
L 988.94125 22.318125 
" clip-path="url(#pc3cec20add)" style="fill: none; stroke-dasharray: 2.96,1.28; stroke-dashoffset: 0; stroke: #b0b0b0; stroke-opacity: 0.4; stroke-width: 0.8"/>
     </g>
     <g id="line2d_68">
      <g>
       <use xlink:href="#m00be61943a" x="538.944375" y="22.318125" style="stroke: #000000; stroke-width: 0.8"/>
      </g>
     </g>
     <g id="text_36">
      <!-- 3 -->
      <g transform="translate(525.581875 26.117344) scale(0.1 -0.1)">
       <use xlink:href="#DejaVuSans-33"/>
      </g>
     </g>
    </g>
    <g id="text_37">
     <!-- $f'(x)$ -->
     <g transform="translate(519.294219 196.078125) rotate(-90) scale(0.11 -0.11)">
      <defs>
       <path id="Cmsy10-30" d="M 225 347 
Q 184 359 184 409 
L 966 3316 
Q 1003 3434 1093 3506 
Q 1184 3578 1300 3578 
Q 1450 3578 1564 3479 
Q 1678 3381 1678 3231 
Q 1678 3166 1644 3084 
L 488 319 
Q 466 275 428 275 
Q 394 275 320 306 
Q 247 338 225 347 
z
" transform="scale(0.015625)"/>
      </defs>
      <use xlink:href="#DejaVuSans-Oblique-66" transform="translate(0 0.584375)"/>
      <use xlink:href="#Cmsy10-30" transform="translate(42.652786 38.865625) scale(0.7)"/>
      <use xlink:href="#DejaVuSans-28" transform="translate(64.630326 0.584375)"/>
      <use xlink:href="#DejaVuSans-Oblique-78" transform="translate(103.643997 0.584375)"/>
      <use xlink:href="#DejaVuSans-29" transform="translate(162.823685 0.584375)"/>
     </g>
    </g>
   </g>
   <g id="line2d_69">
    <path d="M 581.701036 -1 
L 581.709375 -0.82275 
L 583.797744 33.482028 
L 585.886112 60.787651 
L 587.974481 83.037869 
L 590.062849 101.517678 
L 592.151218 117.110591 
L 594.239587 130.444079 
L 596.327955 141.976055 
L 598.416324 152.048522 
L 600.504692 160.922067 
L 602.593061 168.798728 
L 604.68143 175.83756 
L 606.769798 182.16549 
L 608.858167 187.88504 
L 610.946535 193.079921 
L 613.034904 197.819163 
L 615.123273 202.160191 
L 617.211641 206.151172 
L 619.30001 209.832806 
L 621.388378 213.239717 
L 623.476747 216.401548 
L 625.565115 219.343828 
L 629.741853 224.655263 
L 633.91859 229.319013 
L 638.095327 233.446738 
L 642.272064 237.125829 
L 646.448801 240.425657 
L 650.625539 243.401993 
L 654.802276 246.100183 
L 658.979013 248.557477 
L 663.15575 250.804757 
L 667.332487 252.867843 
L 673.597593 255.663779 
L 679.862699 258.153604 
L 686.127805 260.384981 
L 692.39291 262.396165 
L 698.658016 264.218218 
L 707.01149 266.396807 
L 715.364965 268.332665 
L 723.718439 270.064218 
L 734.160282 271.987578 
L 744.602125 273.686777 
L 757.132337 275.481493 
L 769.662548 277.056005 
L 784.281128 278.665077 
L 800.988077 280.259482 
L 819.783394 281.80284 
L 840.66708 283.270479 
L 863.639135 284.647474 
L 888.699558 285.926462 
L 917.936718 287.188785 
L 951.350615 288.397245 
L 988.94125 289.528839 
L 988.94125 289.528839 
" clip-path="url(#pc3cec20add)" style="fill: none; stroke: #2e8b57; stroke-width: 2.5; stroke-linecap: square"/>
   </g>
   <g id="line2d_70">
    <path d="M 538.944375 301.146696 
L 988.94125 301.146696 
" clip-path="url(#pc3cec20add)" style="fill: none; stroke: #000000; stroke-width: 0.8; stroke-linecap: square"/>
   </g>
   <g id="line2d_71">
    <path d="M 565.414779 347.618125 
L 565.414779 22.318125 
" clip-path="url(#pc3cec20add)" style="fill: none; stroke: #000000; stroke-width: 0.8; stroke-linecap: square"/>
   </g>
   <g id="patch_9">
    <path d="M 538.944375 347.618125 
L 538.944375 22.318125 
" style="fill: none; stroke: #000000; stroke-width: 0.8; stroke-linejoin: miter; stroke-linecap: square"/>
   </g>
   <g id="patch_10">
    <path d="M 988.94125 347.618125 
L 988.94125 22.318125 
" style="fill: none; stroke: #000000; stroke-width: 0.8; stroke-linejoin: miter; stroke-linecap: square"/>
   </g>
   <g id="patch_11">
    <path d="M 538.944375 347.618125 
L 988.94125 347.618125 
" style="fill: none; stroke: #000000; stroke-width: 0.8; stroke-linejoin: miter; stroke-linecap: square"/>
   </g>
   <g id="patch_12">
    <path d="M 538.944375 22.318125 
L 988.94125 22.318125 
" style="fill: none; stroke: #000000; stroke-width: 0.8; stroke-linejoin: miter; stroke-linecap: square"/>
   </g>
   <g id="text_38">
    <!-- Derivative: $f'(x) = 1/x$ -->
    <g style="fill: #808080" transform="translate(700.162813 16.318125) scale(0.12 -0.12)">
     <defs>
      <path id="DejaVuSans-44" d="M 1259 4147 
L 1259 519 
L 2022 519 
Q 2988 519 3436 956 
Q 3884 1394 3884 2338 
Q 3884 3275 3436 3711 
Q 2988 4147 2022 4147 
L 1259 4147 
z
M 628 4666 
L 1925 4666 
Q 3281 4666 3915 4102 
Q 4550 3538 4550 2338 
Q 4550 1131 3912 565 
Q 3275 0 1925 0 
L 628 0 
L 628 4666 
z
" transform="scale(0.015625)"/>
      <path id="DejaVuSans-72" d="M 2631 2963 
Q 2534 3019 2420 3045 
Q 2306 3072 2169 3072 
Q 1681 3072 1420 2755 
Q 1159 2438 1159 1844 
L 1159 0 
L 581 0 
L 581 3500 
L 1159 3500 
L 1159 2956 
Q 1341 3275 1631 3429 
Q 1922 3584 2338 3584 
Q 2397 3584 2469 3576 
Q 2541 3569 2628 3553 
L 2631 2963 
z
" transform="scale(0.015625)"/>
      <path id="DejaVuSans-69" d="M 603 3500 
L 1178 3500 
L 1178 0 
L 603 0 
L 603 3500 
z
M 603 4863 
L 1178 4863 
L 1178 4134 
L 603 4134 
L 603 4863 
z
" transform="scale(0.015625)"/>
      <path id="DejaVuSans-76" d="M 191 3500 
L 800 3500 
L 1894 563 
L 2988 3500 
L 3597 3500 
L 2284 0 
L 1503 0 
L 191 3500 
z
" transform="scale(0.015625)"/>
      <path id="DejaVuSans-3a" d="M 750 794 
L 1409 794 
L 1409 0 
L 750 0 
L 750 794 
z
M 750 3309 
L 1409 3309 
L 1409 2516 
L 750 2516 
L 750 3309 
z
" transform="scale(0.015625)"/>
     </defs>
     <use xlink:href="#DejaVuSans-44" transform="translate(0 0.584375)"/>
     <use xlink:href="#DejaVuSans-65" transform="translate(77.001953 0.584375)"/>
     <use xlink:href="#DejaVuSans-72" transform="translate(138.525391 0.584375)"/>
     <use xlink:href="#DejaVuSans-69" transform="translate(179.638672 0.584375)"/>
     <use xlink:href="#DejaVuSans-76" transform="translate(207.421875 0.584375)"/>
     <use xlink:href="#DejaVuSans-61" transform="translate(266.601562 0.584375)"/>
     <use xlink:href="#DejaVuSans-74" transform="translate(327.880859 0.584375)"/>
     <use xlink:href="#DejaVuSans-69" transform="translate(367.089844 0.584375)"/>
     <use xlink:href="#DejaVuSans-76" transform="translate(394.873047 0.584375)"/>
     <use xlink:href="#DejaVuSans-65" transform="translate(454.052734 0.584375)"/>
     <use xlink:href="#DejaVuSans-3a" transform="translate(515.576172 0.584375)"/>
     <use xlink:href="#DejaVuSans-20" transform="translate(549.267578 0.584375)"/>
     <use xlink:href="#DejaVuSans-Oblique-66" transform="translate(581.054688 0.584375)"/>
     <use xlink:href="#Cmsy10-30" transform="translate(623.707474 38.865625) scale(0.7)"/>
     <use xlink:href="#DejaVuSans-28" transform="translate(645.685013 0.584375)"/>
     <use xlink:href="#DejaVuSans-Oblique-78" transform="translate(684.698685 0.584375)"/>
     <use xlink:href="#DejaVuSans-29" transform="translate(743.878372 0.584375)"/>
     <use xlink:href="#DejaVuSans-3d" transform="translate(802.374466 0.584375)"/>
     <use xlink:href="#DejaVuSans-31" transform="translate(905.645951 0.584375)"/>
     <use xlink:href="#DejaVuSans-2f" transform="translate(969.268997 0.584375)"/>
     <use xlink:href="#DejaVuSans-Oblique-78" transform="translate(1002.960404 0.584375)"/>
    </g>
   </g>
   <g id="line2d_72">
    <g clip-path="url(#pc3cec20add)">
     <use xlink:href="#mc26d2c3930" x="618.355588" y="208.203839" style="fill: #cc7000; stroke: #cc7000"/>
    </g>
   </g>
   <g id="line2d_73">
    <g clip-path="url(#pc3cec20add)">
     <use xlink:href="#m2f854ce45a" x="956.597386" y="288.568249" style="fill: #cc0000; stroke: #cc0000"/>
    </g>
   </g>
   <g id="legend_2">
    <g id="patch_13">
     <path d="M 901.74125 44.99625 
L 981.94125 44.99625 
Q 983.94125 44.99625 983.94125 42.99625 
L 983.94125 29.318125 
Q 983.94125 27.318125 981.94125 27.318125 
L 901.74125 27.318125 
Q 899.74125 27.318125 899.74125 29.318125 
L 899.74125 42.99625 
Q 899.74125 44.99625 901.74125 44.99625 
z
" style="fill: #ffffff; opacity: 0.8; stroke: #cccccc; stroke-linejoin: miter"/>
    </g>
    <g id="line2d_74">
     <path d="M 903.74125 35.416563 
L 913.74125 35.416563 
L 923.74125 35.416563 
" style="fill: none; stroke: #2e8b57; stroke-width: 2.5; stroke-linecap: square"/>
    </g>
    <g id="text_39">
     <!-- $f'(x) = 1/x$ -->
     <g transform="translate(931.74125 38.916563) scale(0.1 -0.1)">
      <use xlink:href="#DejaVuSans-Oblique-66" transform="translate(0 0.584375)"/>
      <use xlink:href="#Cmsy10-30" transform="translate(42.652786 38.865625) scale(0.7)"/>
      <use xlink:href="#DejaVuSans-28" transform="translate(64.630326 0.584375)"/>
      <use xlink:href="#DejaVuSans-Oblique-78" transform="translate(103.643997 0.584375)"/>
      <use xlink:href="#DejaVuSans-29" transform="translate(162.823685 0.584375)"/>
      <use xlink:href="#DejaVuSans-3d" transform="translate(221.319779 0.584375)"/>
      <use xlink:href="#DejaVuSans-31" transform="translate(324.591263 0.584375)"/>
      <use xlink:href="#DejaVuSans-2f" transform="translate(388.21431 0.584375)"/>
      <use xlink:href="#DejaVuSans-Oblique-78" transform="translate(421.905716 0.584375)"/>
     </g>
    </g>
   </g>
  </g>
 </g>
 <defs>
  <clipPath id="p4f60acc0d2">
   <rect x="43.588125" y="22.318125" width="449.996875" height="325.3"/>
  </clipPath>
  <clipPath id="pc3cec20add">
   <rect x="538.944375" y="22.318125" width="449.996875" height="325.3"/>
  </clipPath>
 </defs>
</svg>
