<?xml version="1.0" encoding="utf-8" standalone="no"?>
<!DOCTYPE svg PUBLIC "-//W3C//DTD SVG 1.1//EN"
  "http://www.w3.org/Graphics/SVG/1.1/DTD/svg11.dtd">
<svg xmlns:xlink="http://www.w3.org/1999/xlink" width="857.023125pt" height="281.21pt" viewBox="0 0 857.023125 281.21" xmlns="http://www.w3.org/2000/svg" version="1.1">
 <metadata>
  <rdf:RDF xmlns:dc="http://purl.org/dc/elements/1.1/" xmlns:cc="http://creativecommons.org/ns#" xmlns:rdf="http://www.w3.org/1999/02/22-rdf-syntax-ns#">
   <cc:Work>
    <dc:type rdf:resource="http://purl.org/dc/dcmitype/StillImage"/>
    <dc:date>2026-07-15T23:00:37.822335</dc:date>
    <dc:format>image/svg+xml</dc:format>
    <dc:creator>
     <cc:Agent>
      <dc:title>Matplotlib v3.10.8, https://matplotlib.org/</dc:title>
     </cc:Agent>
    </dc:creator>
   </cc:Work>
  </rdf:RDF>
 </metadata>
 <defs>
  <style type="text/css">*{stroke-linejoin: round; stroke-linecap: butt}</style>
 </defs>
 <g id="figure_1">
  <g id="patch_1">
   <path d="M -0 281.21 
L 857.023125 281.21 
L 857.023125 0 
L -0 0 
z
" style="fill: #ffffff"/>
  </g>
  <g id="axes_1">
   <g id="patch_2">
    <path d="M 52.079375 241.718125 
L 426.410625 241.718125 
L 426.410625 22.318125 
L 52.079375 22.318125 
z
" style="fill: #ffffff"/>
   </g>
   <g id="FillBetweenPolyCollection_1">
    <defs>
     <path id="m8e27364606" d="M 69.094432 -49.464602 
L 69.094432 -49.531518 
L 70.232563 -49.53905 
L 71.370694 -49.547371 
L 72.508824 -49.556555 
L 73.646955 -49.566686 
L 74.785086 -49.577852 
L 75.923217 -49.59015 
L 77.061348 -49.603683 
L 78.199479 -49.618565 
L 79.33761 -49.634917 
L 80.475741 -49.652871 
L 81.613872 -49.672569 
L 82.752003 -49.694163 
L 83.890133 -49.717819 
L 85.028264 -49.743711 
L 86.166395 -49.772032 
L 87.304526 -49.802984 
L 88.442657 -49.836785 
L 89.580788 -49.87367 
L 90.718919 -49.913889 
L 91.85705 -49.957708 
L 92.995181 -50.005415 
L 94.133311 -50.057312 
L 95.271442 -50.113724 
L 96.409573 -50.174997 
L 97.547704 -50.241497 
L 98.685835 -50.313615 
L 99.823966 -50.391763 
L 100.962097 -50.476379 
L 102.100228 -50.567928 
L 103.238359 -50.6669 
L 104.376489 -50.773812 
L 105.51462 -50.88921 
L 106.652751 -51.013671 
L 107.790882 -51.147801 
L 108.929013 -51.292235 
L 110.067144 -51.447643 
L 111.205275 -51.614726 
L 112.343406 -51.794218 
L 113.481537 -51.986888 
L 114.619667 -52.193538 
L 115.757798 -52.415007 
L 116.895929 -52.652166 
L 118.03406 -52.905924 
L 119.172191 -53.177224 
L 120.310322 -53.467047 
L 121.448453 -53.776406 
L 122.586584 -54.106353 
L 123.724715 -54.457971 
L 124.862845 -54.832382 
L 126.000976 -55.230736 
L 127.139107 -55.654221 
L 128.277238 -56.104054 
L 129.415369 -56.581481 
L 130.5535 -57.08778 
L 131.691631 -57.624254 
L 132.829762 -58.192232 
L 133.967893 -58.793066 
L 135.106023 -59.428127 
L 136.244154 -60.098806 
L 137.382285 -60.806508 
L 138.520416 -61.552651 
L 139.658547 -62.338661 
L 140.796678 -63.165968 
L 141.934809 -64.036004 
L 143.07294 -64.950198 
L 144.211071 -65.90997 
L 145.349202 -66.916729 
L 146.487332 -67.971866 
L 147.625463 -69.076751 
L 148.763594 -70.232726 
L 149.901725 -71.441097 
L 151.039856 -72.703134 
L 152.177987 -74.020061 
L 153.316118 -75.39305 
L 154.454249 -76.823216 
L 155.59238 -78.311608 
L 156.73051 -79.859207 
L 157.868641 -81.466915 
L 159.006772 -83.135549 
L 160.144903 -84.865835 
L 161.283034 -86.658402 
L 162.421165 -88.513772 
L 163.559296 -90.432357 
L 164.697427 -92.414449 
L 165.835558 -94.460215 
L 166.973688 -96.569691 
L 168.111819 -98.742773 
L 169.24995 -100.979214 
L 170.388081 -103.278616 
L 171.526212 -105.640424 
L 172.664343 -108.063923 
L 173.802474 -110.548232 
L 174.940605 -113.092296 
L 176.078736 -115.694888 
L 177.216866 -118.354601 
L 178.354997 -121.069845 
L 179.493128 -123.838847 
L 180.631259 -126.659645 
L 181.76939 -129.53009 
L 182.907521 -132.447844 
L 184.045652 -135.410379 
L 185.183783 -138.414977 
L 186.321914 -141.458733 
L 187.460044 -144.538557 
L 188.598175 -147.651174 
L 189.736306 -150.79313 
L 190.874437 -153.960796 
L 192.012568 -157.15037 
L 193.150699 -160.357885 
L 194.28883 -163.579219 
L 195.426961 -166.810094 
L 196.565092 -170.046091 
L 197.703222 -173.282656 
L 198.841353 -176.515109 
L 199.979484 -179.738658 
L 201.117615 -182.948402 
L 202.255746 -186.139353 
L 203.393877 -189.306438 
L 204.532008 -192.44452 
L 205.670139 -195.548406 
L 206.80827 -198.612863 
L 207.946401 -201.632632 
L 209.084531 -204.602442 
L 210.222662 -207.517027 
L 211.360793 -210.371137 
L 212.498924 -213.159561 
L 213.637055 -215.877132 
L 214.775186 -218.518754 
L 215.913317 -221.079411 
L 217.051448 -223.554182 
L 218.189579 -225.938262 
L 219.327709 -228.226974 
L 220.46584 -230.415784 
L 221.603971 -232.500316 
L 222.742102 -234.476368 
L 223.880233 -236.339927 
L 225.018364 -238.087178 
L 226.156495 -239.714522 
L 227.294626 -241.218584 
L 228.432757 -242.59623 
L 229.570887 -243.844571 
L 230.709018 -244.96098 
L 231.847149 -245.943096 
L 232.98528 -246.788836 
L 234.123411 -247.4964 
L 235.261542 -248.064277 
L 236.399673 -248.491253 
L 237.537804 -248.776414 
L 238.675935 -248.919148 
L 239.814065 -248.919148 
L 240.952196 -248.776414 
L 242.090327 -248.491253 
L 243.228458 -248.064277 
L 244.366589 -247.4964 
L 245.50472 -246.788836 
L 246.642851 -245.943096 
L 247.780982 -244.96098 
L 248.919113 -243.844571 
L 250.057243 -242.59623 
L 251.195374 -241.218584 
L 252.333505 -239.714522 
L 253.471636 -238.087178 
L 254.609767 -236.339927 
L 255.747898 -234.476368 
L 256.886029 -232.500316 
L 258.02416 -230.415784 
L 259.162291 -228.226974 
L 260.300421 -225.938262 
L 261.438552 -223.554182 
L 262.576683 -221.079411 
L 263.714814 -218.518754 
L 264.852945 -215.877132 
L 265.991076 -213.159561 
L 267.129207 -210.371137 
L 268.267338 -207.517027 
L 269.405469 -204.602442 
L 270.543599 -201.632632 
L 271.68173 -198.612863 
L 272.819861 -195.548406 
L 273.957992 -192.44452 
L 275.096123 -189.306438 
L 276.234254 -186.139353 
L 277.372385 -182.948402 
L 278.510516 -179.738658 
L 279.648647 -176.515109 
L 280.786778 -173.282656 
L 280.786778 -49.464602 
L 280.786778 -49.464602 
L 279.648647 -49.464602 
L 278.510516 -49.464602 
L 277.372385 -49.464602 
L 276.234254 -49.464602 
L 275.096123 -49.464602 
L 273.957992 -49.464602 
L 272.819861 -49.464602 
L 271.68173 -49.464602 
L 270.543599 -49.464602 
L 269.405469 -49.464602 
L 268.267338 -49.464602 
L 267.129207 -49.464602 
L 265.991076 -49.464602 
L 264.852945 -49.464602 
L 263.714814 -49.464602 
L 262.576683 -49.464602 
L 261.438552 -49.464602 
L 260.300421 -49.464602 
L 259.162291 -49.464602 
L 258.02416 -49.464602 
L 256.886029 -49.464602 
L 255.747898 -49.464602 
L 254.609767 -49.464602 
L 253.471636 -49.464602 
L 252.333505 -49.464602 
L 251.195374 -49.464602 
L 250.057243 -49.464602 
L 248.919113 -49.464602 
L 247.780982 -49.464602 
L 246.642851 -49.464602 
L 245.50472 -49.464602 
L 244.366589 -49.464602 
L 243.228458 -49.464602 
L 242.090327 -49.464602 
L 240.952196 -49.464602 
L 239.814065 -49.464602 
L 238.675935 -49.464602 
L 237.537804 -49.464602 
L 236.399673 -49.464602 
L 235.261542 -49.464602 
L 234.123411 -49.464602 
L 232.98528 -49.464602 
L 231.847149 -49.464602 
L 230.709018 -49.464602 
L 229.570887 -49.464602 
L 228.432757 -49.464602 
L 227.294626 -49.464602 
L 226.156495 -49.464602 
L 225.018364 -49.464602 
L 223.880233 -49.464602 
L 222.742102 -49.464602 
L 221.603971 -49.464602 
L 220.46584 -49.464602 
L 219.327709 -49.464602 
L 218.189579 -49.464602 
L 217.051448 -49.464602 
L 215.913317 -49.464602 
L 214.775186 -49.464602 
L 213.637055 -49.464602 
L 212.498924 -49.464602 
L 211.360793 -49.464602 
L 210.222662 -49.464602 
L 209.084531 -49.464602 
L 207.946401 -49.464602 
L 206.80827 -49.464602 
L 205.670139 -49.464602 
L 204.532008 -49.464602 
L 203.393877 -49.464602 
L 202.255746 -49.464602 
L 201.117615 -49.464602 
L 199.979484 -49.464602 
L 198.841353 -49.464602 
L 197.703222 -49.464602 
L 196.565092 -49.464602 
L 195.426961 -49.464602 
L 194.28883 -49.464602 
L 193.150699 -49.464602 
L 192.012568 -49.464602 
L 190.874437 -49.464602 
L 189.736306 -49.464602 
L 188.598175 -49.464602 
L 187.460044 -49.464602 
L 186.321914 -49.464602 
L 185.183783 -49.464602 
L 184.045652 -49.464602 
L 182.907521 -49.464602 
L 181.76939 -49.464602 
L 180.631259 -49.464602 
L 179.493128 -49.464602 
L 178.354997 -49.464602 
L 177.216866 -49.464602 
L 176.078736 -49.464602 
L 174.940605 -49.464602 
L 173.802474 -49.464602 
L 172.664343 -49.464602 
L 171.526212 -49.464602 
L 170.388081 -49.464602 
L 169.24995 -49.464602 
L 168.111819 -49.464602 
L 166.973688 -49.464602 
L 165.835558 -49.464602 
L 164.697427 -49.464602 
L 163.559296 -49.464602 
L 162.421165 -49.464602 
L 161.283034 -49.464602 
L 160.144903 -49.464602 
L 159.006772 -49.464602 
L 157.868641 -49.464602 
L 156.73051 -49.464602 
L 155.59238 -49.464602 
L 154.454249 -49.464602 
L 153.316118 -49.464602 
L 152.177987 -49.464602 
L 151.039856 -49.464602 
L 149.901725 -49.464602 
L 148.763594 -49.464602 
L 147.625463 -49.464602 
L 146.487332 -49.464602 
L 145.349202 -49.464602 
L 144.211071 -49.464602 
L 143.07294 -49.464602 
L 141.934809 -49.464602 
L 140.796678 -49.464602 
L 139.658547 -49.464602 
L 138.520416 -49.464602 
L 137.382285 -49.464602 
L 136.244154 -49.464602 
L 135.106023 -49.464602 
L 133.967893 -49.464602 
L 132.829762 -49.464602 
L 131.691631 -49.464602 
L 130.5535 -49.464602 
L 129.415369 -49.464602 
L 128.277238 -49.464602 
L 127.139107 -49.464602 
L 126.000976 -49.464602 
L 124.862845 -49.464602 
L 123.724715 -49.464602 
L 122.586584 -49.464602 
L 121.448453 -49.464602 
L 120.310322 -49.464602 
L 119.172191 -49.464602 
L 118.03406 -49.464602 
L 116.895929 -49.464602 
L 115.757798 -49.464602 
L 114.619667 -49.464602 
L 113.481537 -49.464602 
L 112.343406 -49.464602 
L 111.205275 -49.464602 
L 110.067144 -49.464602 
L 108.929013 -49.464602 
L 107.790882 -49.464602 
L 106.652751 -49.464602 
L 105.51462 -49.464602 
L 104.376489 -49.464602 
L 103.238359 -49.464602 
L 102.100228 -49.464602 
L 100.962097 -49.464602 
L 99.823966 -49.464602 
L 98.685835 -49.464602 
L 97.547704 -49.464602 
L 96.409573 -49.464602 
L 95.271442 -49.464602 
L 94.133311 -49.464602 
L 92.995181 -49.464602 
L 91.85705 -49.464602 
L 90.718919 -49.464602 
L 89.580788 -49.464602 
L 88.442657 -49.464602 
L 87.304526 -49.464602 
L 86.166395 -49.464602 
L 85.028264 -49.464602 
L 83.890133 -49.464602 
L 82.752003 -49.464602 
L 81.613872 -49.464602 
L 80.475741 -49.464602 
L 79.33761 -49.464602 
L 78.199479 -49.464602 
L 77.061348 -49.464602 
L 75.923217 -49.464602 
L 74.785086 -49.464602 
L 73.646955 -49.464602 
L 72.508824 -49.464602 
L 71.370694 -49.464602 
L 70.232563 -49.464602 
L 69.094432 -49.464602 
z
" style="stroke: #4682b4; stroke-opacity: 0.3"/>
    </defs>
    <g clip-path="url(#p474da41687)">
     <use xlink:href="#m8e27364606" x="0" y="281.21" style="fill: #4682b4; fill-opacity: 0.3; stroke: #4682b4; stroke-opacity: 0.3"/>
    </g>
   </g>
   <g id="matplotlib.axis_1">
    <g id="xtick_1">
     <g id="line2d_1">
      <path d="M 69.094432 241.718125 
L 69.094432 22.318125 
" clip-path="url(#p474da41687)" style="fill: none; stroke-dasharray: 2.96,1.28; stroke-dashoffset: 0; stroke: #b0b0b0; stroke-opacity: 0.4; stroke-width: 0.8"/>
     </g>
     <g id="line2d_2">
      <defs>
       <path id="me0d08cfa45" d="M 0 0 
L 0 3.5 
" style="stroke: #000000; stroke-width: 0.8"/>
      </defs>
      <g>
       <use xlink:href="#me0d08cfa45" x="69.094432" y="241.718125" style="stroke: #000000; stroke-width: 0.8"/>
      </g>
     </g>
     <g id="text_1">
      <!-- −4 -->
      <g transform="translate(61.723338 256.316562) scale(0.1 -0.1)">
       <defs>
        <path id="DejaVuSans-2212" d="M 678 2272 
L 4684 2272 
L 4684 1741 
L 678 1741 
L 678 2272 
z
" transform="scale(0.015625)"/>
        <path id="DejaVuSans-34" d="M 2419 4116 
L 825 1625 
L 2419 1625 
L 2419 4116 
z
M 2253 4666 
L 3047 4666 
L 3047 1625 
L 3713 1625 
L 3713 1100 
L 3047 1100 
L 3047 0 
L 2419 0 
L 2419 1100 
L 313 1100 
L 313 1709 
L 2253 4666 
z
" transform="scale(0.015625)"/>
       </defs>
       <use xlink:href="#DejaVuSans-2212"/>
       <use xlink:href="#DejaVuSans-34" transform="translate(83.789062 0)"/>
      </g>
     </g>
    </g>
    <g id="xtick_2">
     <g id="line2d_3">
      <path d="M 111.632074 241.718125 
L 111.632074 22.318125 
" clip-path="url(#p474da41687)" style="fill: none; stroke-dasharray: 2.96,1.28; stroke-dashoffset: 0; stroke: #b0b0b0; stroke-opacity: 0.4; stroke-width: 0.8"/>
     </g>
     <g id="line2d_4">
      <g>
       <use xlink:href="#me0d08cfa45" x="111.632074" y="241.718125" style="stroke: #000000; stroke-width: 0.8"/>
      </g>
     </g>
     <g id="text_2">
      <!-- −3 -->
      <g transform="translate(104.26098 256.316562) scale(0.1 -0.1)">
       <defs>
        <path id="DejaVuSans-33" d="M 2597 2516 
Q 3050 2419 3304 2112 
Q 3559 1806 3559 1356 
Q 3559 666 3084 287 
Q 2609 -91 1734 -91 
Q 1441 -91 1130 -33 
Q 819 25 488 141 
L 488 750 
Q 750 597 1062 519 
Q 1375 441 1716 441 
Q 2309 441 2620 675 
Q 2931 909 2931 1356 
Q 2931 1769 2642 2001 
Q 2353 2234 1838 2234 
L 1294 2234 
L 1294 2753 
L 1863 2753 
Q 2328 2753 2575 2939 
Q 2822 3125 2822 3475 
Q 2822 3834 2567 4026 
Q 2313 4219 1838 4219 
Q 1578 4219 1281 4162 
Q 984 4106 628 3988 
L 628 4550 
Q 988 4650 1302 4700 
Q 1616 4750 1894 4750 
Q 2613 4750 3031 4423 
Q 3450 4097 3450 3541 
Q 3450 3153 3228 2886 
Q 3006 2619 2597 2516 
z
" transform="scale(0.015625)"/>
       </defs>
       <use xlink:href="#DejaVuSans-2212"/>
       <use xlink:href="#DejaVuSans-33" transform="translate(83.789062 0)"/>
      </g>
     </g>
    </g>
    <g id="xtick_3">
     <g id="line2d_5">
      <path d="M 154.169716 241.718125 
L 154.169716 22.318125 
" clip-path="url(#p474da41687)" style="fill: none; stroke-dasharray: 2.96,1.28; stroke-dashoffset: 0; stroke: #b0b0b0; stroke-opacity: 0.4; stroke-width: 0.8"/>
     </g>
     <g id="line2d_6">
      <g>
       <use xlink:href="#me0d08cfa45" x="154.169716" y="241.718125" style="stroke: #000000; stroke-width: 0.8"/>
      </g>
     </g>
     <g id="text_3">
      <!-- −2 -->
      <g transform="translate(146.798622 256.316562) scale(0.1 -0.1)">
       <defs>
        <path id="DejaVuSans-32" d="M 1228 531 
L 3431 531 
L 3431 0 
L 469 0 
L 469 531 
Q 828 903 1448 1529 
Q 2069 2156 2228 2338 
Q 2531 2678 2651 2914 
Q 2772 3150 2772 3378 
Q 2772 3750 2511 3984 
Q 2250 4219 1831 4219 
Q 1534 4219 1204 4116 
Q 875 4013 500 3803 
L 500 4441 
Q 881 4594 1212 4672 
Q 1544 4750 1819 4750 
Q 2544 4750 2975 4387 
Q 3406 4025 3406 3419 
Q 3406 3131 3298 2873 
Q 3191 2616 2906 2266 
Q 2828 2175 2409 1742 
Q 1991 1309 1228 531 
z
" transform="scale(0.015625)"/>
       </defs>
       <use xlink:href="#DejaVuSans-2212"/>
       <use xlink:href="#DejaVuSans-32" transform="translate(83.789062 0)"/>
      </g>
     </g>
    </g>
    <g id="xtick_4">
     <g id="line2d_7">
      <path d="M 196.707358 241.718125 
L 196.707358 22.318125 
" clip-path="url(#p474da41687)" style="fill: none; stroke-dasharray: 2.96,1.28; stroke-dashoffset: 0; stroke: #b0b0b0; stroke-opacity: 0.4; stroke-width: 0.8"/>
     </g>
     <g id="line2d_8">
      <g>
       <use xlink:href="#me0d08cfa45" x="196.707358" y="241.718125" style="stroke: #000000; stroke-width: 0.8"/>
      </g>
     </g>
     <g id="text_4">
      <!-- −1 -->
      <g transform="translate(189.336264 256.316562) scale(0.1 -0.1)">
       <defs>
        <path id="DejaVuSans-31" d="M 794 531 
L 1825 531 
L 1825 4091 
L 703 3866 
L 703 4441 
L 1819 4666 
L 2450 4666 
L 2450 531 
L 3481 531 
L 3481 0 
L 794 0 
L 794 531 
z
" transform="scale(0.015625)"/>
       </defs>
       <use xlink:href="#DejaVuSans-2212"/>
       <use xlink:href="#DejaVuSans-31" transform="translate(83.789062 0)"/>
      </g>
     </g>
    </g>
    <g id="xtick_5">
     <g id="line2d_9">
      <path d="M 239.245 241.718125 
L 239.245 22.318125 
" clip-path="url(#p474da41687)" style="fill: none; stroke-dasharray: 2.96,1.28; stroke-dashoffset: 0; stroke: #b0b0b0; stroke-opacity: 0.4; stroke-width: 0.8"/>
     </g>
     <g id="line2d_10">
      <g>
       <use xlink:href="#me0d08cfa45" x="239.245" y="241.718125" style="stroke: #000000; stroke-width: 0.8"/>
      </g>
     </g>
     <g id="text_5">
      <!-- 0 -->
      <g transform="translate(236.06375 256.316562) scale(0.1 -0.1)">
       <defs>
        <path id="DejaVuSans-30" d="M 2034 4250 
Q 1547 4250 1301 3770 
Q 1056 3291 1056 2328 
Q 1056 1369 1301 889 
Q 1547 409 2034 409 
Q 2525 409 2770 889 
Q 3016 1369 3016 2328 
Q 3016 3291 2770 3770 
Q 2525 4250 2034 4250 
z
M 2034 4750 
Q 2819 4750 3233 4129 
Q 3647 3509 3647 2328 
Q 3647 1150 3233 529 
Q 2819 -91 2034 -91 
Q 1250 -91 836 529 
Q 422 1150 422 2328 
Q 422 3509 836 4129 
Q 1250 4750 2034 4750 
z
" transform="scale(0.015625)"/>
       </defs>
       <use xlink:href="#DejaVuSans-30"/>
      </g>
     </g>
    </g>
    <g id="xtick_6">
     <g id="line2d_11">
      <path d="M 281.782642 241.718125 
L 281.782642 22.318125 
" clip-path="url(#p474da41687)" style="fill: none; stroke-dasharray: 2.96,1.28; stroke-dashoffset: 0; stroke: #b0b0b0; stroke-opacity: 0.4; stroke-width: 0.8"/>
     </g>
     <g id="line2d_12">
      <g>
       <use xlink:href="#me0d08cfa45" x="281.782642" y="241.718125" style="stroke: #000000; stroke-width: 0.8"/>
      </g>
     </g>
     <g id="text_6">
      <!-- 1 -->
      <g transform="translate(278.601392 256.316562) scale(0.1 -0.1)">
       <use xlink:href="#DejaVuSans-31"/>
      </g>
     </g>
    </g>
    <g id="xtick_7">
     <g id="line2d_13">
      <path d="M 324.320284 241.718125 
L 324.320284 22.318125 
" clip-path="url(#p474da41687)" style="fill: none; stroke-dasharray: 2.96,1.28; stroke-dashoffset: 0; stroke: #b0b0b0; stroke-opacity: 0.4; stroke-width: 0.8"/>
     </g>
     <g id="line2d_14">
      <g>
       <use xlink:href="#me0d08cfa45" x="324.320284" y="241.718125" style="stroke: #000000; stroke-width: 0.8"/>
      </g>
     </g>
     <g id="text_7">
      <!-- 2 -->
      <g transform="translate(321.139034 256.316562) scale(0.1 -0.1)">
       <use xlink:href="#DejaVuSans-32"/>
      </g>
     </g>
    </g>
    <g id="xtick_8">
     <g id="line2d_15">
      <path d="M 366.857926 241.718125 
L 366.857926 22.318125 
" clip-path="url(#p474da41687)" style="fill: none; stroke-dasharray: 2.96,1.28; stroke-dashoffset: 0; stroke: #b0b0b0; stroke-opacity: 0.4; stroke-width: 0.8"/>
     </g>
     <g id="line2d_16">
      <g>
       <use xlink:href="#me0d08cfa45" x="366.857926" y="241.718125" style="stroke: #000000; stroke-width: 0.8"/>
      </g>
     </g>
     <g id="text_8">
      <!-- 3 -->
      <g transform="translate(363.676676 256.316562) scale(0.1 -0.1)">
       <use xlink:href="#DejaVuSans-33"/>
      </g>
     </g>
    </g>
    <g id="xtick_9">
     <g id="line2d_17">
      <path d="M 409.395568 241.718125 
L 409.395568 22.318125 
" clip-path="url(#p474da41687)" style="fill: none; stroke-dasharray: 2.96,1.28; stroke-dashoffset: 0; stroke: #b0b0b0; stroke-opacity: 0.4; stroke-width: 0.8"/>
     </g>
     <g id="line2d_18">
      <g>
       <use xlink:href="#me0d08cfa45" x="409.395568" y="241.718125" style="stroke: #000000; stroke-width: 0.8"/>
      </g>
     </g>
     <g id="text_9">
      <!-- 4 -->
      <g transform="translate(406.214318 256.316562) scale(0.1 -0.1)">
       <use xlink:href="#DejaVuSans-34"/>
      </g>
     </g>
    </g>
    <g id="text_10">
     <!-- x -->
     <g transform="translate(235.69375 271.514375) scale(0.12 -0.12)">
      <defs>
       <path id="DejaVuSans-78" d="M 3513 3500 
L 2247 1797 
L 3578 0 
L 2900 0 
L 1881 1375 
L 863 0 
L 184 0 
L 1544 1831 
L 300 3500 
L 978 3500 
L 1906 2253 
L 2834 3500 
L 3513 3500 
z
" transform="scale(0.015625)"/>
      </defs>
      <use xlink:href="#DejaVuSans-78"/>
     </g>
    </g>
   </g>
   <g id="matplotlib.axis_2">
    <g id="ytick_1">
     <g id="line2d_19">
      <path d="M 52.079375 231.745398 
L 426.410625 231.745398 
" clip-path="url(#p474da41687)" style="fill: none; stroke-dasharray: 2.96,1.28; stroke-dashoffset: 0; stroke: #b0b0b0; stroke-opacity: 0.4; stroke-width: 0.8"/>
     </g>
     <g id="line2d_20">
      <defs>
       <path id="m8068a3a7a9" d="M 0 0 
L -3.5 0 
" style="stroke: #000000; stroke-width: 0.8"/>
      </defs>
      <g>
       <use xlink:href="#m8068a3a7a9" x="52.079375" y="231.745398" style="stroke: #000000; stroke-width: 0.8"/>
      </g>
     </g>
     <g id="text_11">
      <!-- 0.00 -->
      <g transform="translate(22.81375 235.544616) scale(0.1 -0.1)">
       <defs>
        <path id="DejaVuSans-2e" d="M 684 794 
L 1344 794 
L 1344 0 
L 684 0 
L 684 794 
z
" transform="scale(0.015625)"/>
       </defs>
       <use xlink:href="#DejaVuSans-30"/>
       <use xlink:href="#DejaVuSans-2e" transform="translate(63.623047 0)"/>
       <use xlink:href="#DejaVuSans-30" transform="translate(95.410156 0)"/>
       <use xlink:href="#DejaVuSans-30" transform="translate(159.033203 0)"/>
      </g>
     </g>
    </g>
    <g id="ytick_2">
     <g id="line2d_21">
      <path d="M 52.079375 206.745241 
L 426.410625 206.745241 
" clip-path="url(#p474da41687)" style="fill: none; stroke-dasharray: 2.96,1.28; stroke-dashoffset: 0; stroke: #b0b0b0; stroke-opacity: 0.4; stroke-width: 0.8"/>
     </g>
     <g id="line2d_22">
      <g>
       <use xlink:href="#m8068a3a7a9" x="52.079375" y="206.745241" style="stroke: #000000; stroke-width: 0.8"/>
      </g>
     </g>
     <g id="text_12">
      <!-- 0.05 -->
      <g transform="translate(22.81375 210.544459) scale(0.1 -0.1)">
       <defs>
        <path id="DejaVuSans-35" d="M 691 4666 
L 3169 4666 
L 3169 4134 
L 1269 4134 
L 1269 2991 
Q 1406 3038 1543 3061 
Q 1681 3084 1819 3084 
Q 2600 3084 3056 2656 
Q 3513 2228 3513 1497 
Q 3513 744 3044 326 
Q 2575 -91 1722 -91 
Q 1428 -91 1123 -41 
Q 819 9 494 109 
L 494 744 
Q 775 591 1075 516 
Q 1375 441 1709 441 
Q 2250 441 2565 725 
Q 2881 1009 2881 1497 
Q 2881 1984 2565 2268 
Q 2250 2553 1709 2553 
Q 1456 2553 1204 2497 
Q 953 2441 691 2322 
L 691 4666 
z
" transform="scale(0.015625)"/>
       </defs>
       <use xlink:href="#DejaVuSans-30"/>
       <use xlink:href="#DejaVuSans-2e" transform="translate(63.623047 0)"/>
       <use xlink:href="#DejaVuSans-30" transform="translate(95.410156 0)"/>
       <use xlink:href="#DejaVuSans-35" transform="translate(159.033203 0)"/>
      </g>
     </g>
    </g>
    <g id="ytick_3">
     <g id="line2d_23">
      <path d="M 52.079375 181.745083 
L 426.410625 181.745083 
" clip-path="url(#p474da41687)" style="fill: none; stroke-dasharray: 2.96,1.28; stroke-dashoffset: 0; stroke: #b0b0b0; stroke-opacity: 0.4; stroke-width: 0.8"/>
     </g>
     <g id="line2d_24">
      <g>
       <use xlink:href="#m8068a3a7a9" x="52.079375" y="181.745083" style="stroke: #000000; stroke-width: 0.8"/>
      </g>
     </g>
     <g id="text_13">
      <!-- 0.10 -->
      <g transform="translate(22.81375 185.544302) scale(0.1 -0.1)">
       <use xlink:href="#DejaVuSans-30"/>
       <use xlink:href="#DejaVuSans-2e" transform="translate(63.623047 0)"/>
       <use xlink:href="#DejaVuSans-31" transform="translate(95.410156 0)"/>
       <use xlink:href="#DejaVuSans-30" transform="translate(159.033203 0)"/>
      </g>
     </g>
    </g>
    <g id="ytick_4">
     <g id="line2d_25">
      <path d="M 52.079375 156.744926 
L 426.410625 156.744926 
" clip-path="url(#p474da41687)" style="fill: none; stroke-dasharray: 2.96,1.28; stroke-dashoffset: 0; stroke: #b0b0b0; stroke-opacity: 0.4; stroke-width: 0.8"/>
     </g>
     <g id="line2d_26">
      <g>
       <use xlink:href="#m8068a3a7a9" x="52.079375" y="156.744926" style="stroke: #000000; stroke-width: 0.8"/>
      </g>
     </g>
     <g id="text_14">
      <!-- 0.15 -->
      <g transform="translate(22.81375 160.544145) scale(0.1 -0.1)">
       <use xlink:href="#DejaVuSans-30"/>
       <use xlink:href="#DejaVuSans-2e" transform="translate(63.623047 0)"/>
       <use xlink:href="#DejaVuSans-31" transform="translate(95.410156 0)"/>
       <use xlink:href="#DejaVuSans-35" transform="translate(159.033203 0)"/>
      </g>
     </g>
    </g>
    <g id="ytick_5">
     <g id="line2d_27">
      <path d="M 52.079375 131.744769 
L 426.410625 131.744769 
" clip-path="url(#p474da41687)" style="fill: none; stroke-dasharray: 2.96,1.28; stroke-dashoffset: 0; stroke: #b0b0b0; stroke-opacity: 0.4; stroke-width: 0.8"/>
     </g>
     <g id="line2d_28">
      <g>
       <use xlink:href="#m8068a3a7a9" x="52.079375" y="131.744769" style="stroke: #000000; stroke-width: 0.8"/>
      </g>
     </g>
     <g id="text_15">
      <!-- 0.20 -->
      <g transform="translate(22.81375 135.543988) scale(0.1 -0.1)">
       <use xlink:href="#DejaVuSans-30"/>
       <use xlink:href="#DejaVuSans-2e" transform="translate(63.623047 0)"/>
       <use xlink:href="#DejaVuSans-32" transform="translate(95.410156 0)"/>
       <use xlink:href="#DejaVuSans-30" transform="translate(159.033203 0)"/>
      </g>
     </g>
    </g>
    <g id="ytick_6">
     <g id="line2d_29">
      <path d="M 52.079375 106.744612 
L 426.410625 106.744612 
" clip-path="url(#p474da41687)" style="fill: none; stroke-dasharray: 2.96,1.28; stroke-dashoffset: 0; stroke: #b0b0b0; stroke-opacity: 0.4; stroke-width: 0.8"/>
     </g>
     <g id="line2d_30">
      <g>
       <use xlink:href="#m8068a3a7a9" x="52.079375" y="106.744612" style="stroke: #000000; stroke-width: 0.8"/>
      </g>
     </g>
     <g id="text_16">
      <!-- 0.25 -->
      <g transform="translate(22.81375 110.543831) scale(0.1 -0.1)">
       <use xlink:href="#DejaVuSans-30"/>
       <use xlink:href="#DejaVuSans-2e" transform="translate(63.623047 0)"/>
       <use xlink:href="#DejaVuSans-32" transform="translate(95.410156 0)"/>
       <use xlink:href="#DejaVuSans-35" transform="translate(159.033203 0)"/>
      </g>
     </g>
    </g>
    <g id="ytick_7">
     <g id="line2d_31">
      <path d="M 52.079375 81.744455 
L 426.410625 81.744455 
" clip-path="url(#p474da41687)" style="fill: none; stroke-dasharray: 2.96,1.28; stroke-dashoffset: 0; stroke: #b0b0b0; stroke-opacity: 0.4; stroke-width: 0.8"/>
     </g>
     <g id="line2d_32">
      <g>
       <use xlink:href="#m8068a3a7a9" x="52.079375" y="81.744455" style="stroke: #000000; stroke-width: 0.8"/>
      </g>
     </g>
     <g id="text_17">
      <!-- 0.30 -->
      <g transform="translate(22.81375 85.543673) scale(0.1 -0.1)">
       <use xlink:href="#DejaVuSans-30"/>
       <use xlink:href="#DejaVuSans-2e" transform="translate(63.623047 0)"/>
       <use xlink:href="#DejaVuSans-33" transform="translate(95.410156 0)"/>
       <use xlink:href="#DejaVuSans-30" transform="translate(159.033203 0)"/>
      </g>
     </g>
    </g>
    <g id="ytick_8">
     <g id="line2d_33">
      <path d="M 52.079375 56.744297 
L 426.410625 56.744297 
" clip-path="url(#p474da41687)" style="fill: none; stroke-dasharray: 2.96,1.28; stroke-dashoffset: 0; stroke: #b0b0b0; stroke-opacity: 0.4; stroke-width: 0.8"/>
     </g>
     <g id="line2d_34">
      <g>
       <use xlink:href="#m8068a3a7a9" x="52.079375" y="56.744297" style="stroke: #000000; stroke-width: 0.8"/>
      </g>
     </g>
     <g id="text_18">
      <!-- 0.35 -->
      <g transform="translate(22.81375 60.543516) scale(0.1 -0.1)">
       <use xlink:href="#DejaVuSans-30"/>
       <use xlink:href="#DejaVuSans-2e" transform="translate(63.623047 0)"/>
       <use xlink:href="#DejaVuSans-33" transform="translate(95.410156 0)"/>
       <use xlink:href="#DejaVuSans-35" transform="translate(159.033203 0)"/>
      </g>
     </g>
    </g>
    <g id="ytick_9">
     <g id="line2d_35">
      <path d="M 52.079375 31.74414 
L 426.410625 31.74414 
" clip-path="url(#p474da41687)" style="fill: none; stroke-dasharray: 2.96,1.28; stroke-dashoffset: 0; stroke: #b0b0b0; stroke-opacity: 0.4; stroke-width: 0.8"/>
     </g>
     <g id="line2d_36">
      <g>
       <use xlink:href="#m8068a3a7a9" x="52.079375" y="31.74414" style="stroke: #000000; stroke-width: 0.8"/>
      </g>
     </g>
     <g id="text_19">
      <!-- 0.40 -->
      <g transform="translate(22.81375 35.543359) scale(0.1 -0.1)">
       <use xlink:href="#DejaVuSans-30"/>
       <use xlink:href="#DejaVuSans-2e" transform="translate(63.623047 0)"/>
       <use xlink:href="#DejaVuSans-34" transform="translate(95.410156 0)"/>
       <use xlink:href="#DejaVuSans-30" transform="translate(159.033203 0)"/>
      </g>
     </g>
    </g>
    <g id="text_20">
     <!-- f(x) -->
     <g transform="translate(16.318125 142.363438) rotate(-90) scale(0.12 -0.12)">
      <defs>
       <path id="DejaVuSans-66" d="M 2375 4863 
L 2375 4384 
L 1825 4384 
Q 1516 4384 1395 4259 
Q 1275 4134 1275 3809 
L 1275 3500 
L 2222 3500 
L 2222 3053 
L 1275 3053 
L 1275 0 
L 697 0 
L 697 3053 
L 147 3053 
L 147 3500 
L 697 3500 
L 697 3744 
Q 697 4328 969 4595 
Q 1241 4863 1831 4863 
L 2375 4863 
z
" transform="scale(0.015625)"/>
       <path id="DejaVuSans-28" d="M 1984 4856 
Q 1566 4138 1362 3434 
Q 1159 2731 1159 2009 
Q 1159 1288 1364 580 
Q 1569 -128 1984 -844 
L 1484 -844 
Q 1016 -109 783 600 
Q 550 1309 550 2009 
Q 550 2706 781 3412 
Q 1013 4119 1484 4856 
L 1984 4856 
z
" transform="scale(0.015625)"/>
       <path id="DejaVuSans-29" d="M 513 4856 
L 1013 4856 
Q 1481 4119 1714 3412 
Q 1947 2706 1947 2009 
Q 1947 1309 1714 600 
Q 1481 -109 1013 -844 
L 513 -844 
Q 928 -128 1133 580 
Q 1338 1288 1338 2009 
Q 1338 2731 1133 3434 
Q 928 4138 513 4856 
z
" transform="scale(0.015625)"/>
      </defs>
      <use xlink:href="#DejaVuSans-66"/>
      <use xlink:href="#DejaVuSans-28" transform="translate(35.205078 0)"/>
      <use xlink:href="#DejaVuSans-78" transform="translate(74.21875 0)"/>
      <use xlink:href="#DejaVuSans-29" transform="translate(133.398438 0)"/>
     </g>
    </g>
   </g>
   <g id="line2d_37">
    <path d="M 69.094432 231.678482 
L 85.028264 231.466289 
L 94.133311 231.152688 
L 100.962097 230.733621 
L 106.652751 230.196329 
L 112.343406 229.415782 
L 116.895929 228.557834 
L 121.448453 227.433594 
L 124.862845 226.377618 
L 128.277238 225.105946 
L 131.691631 223.585746 
L 135.106023 221.781873 
L 138.520416 219.657349 
L 141.934809 217.173996 
L 145.349202 214.293271 
L 148.763594 210.977274 
L 151.039856 208.506866 
L 154.454249 204.386784 
L 157.868641 199.743085 
L 161.283034 194.551598 
L 164.697427 188.795551 
L 168.111819 182.467227 
L 171.526212 175.569576 
L 174.940605 168.117704 
L 178.354997 160.140155 
L 181.76939 151.67991 
L 186.321914 139.751267 
L 192.012568 124.05963 
L 206.80827 82.597137 
L 210.222662 73.692973 
L 213.637055 65.332868 
L 217.051448 57.655818 
L 219.327709 52.983026 
L 221.603971 48.709684 
L 223.880233 44.870073 
L 226.156495 41.495478 
L 228.432757 38.61377 
L 230.709018 36.24902 
L 232.98528 34.421164 
L 234.123411 33.7136 
L 235.261542 33.145723 
L 236.399673 32.718747 
L 237.537804 32.433586 
L 238.675935 32.290852 
L 239.814065 32.290852 
L 240.952196 32.433586 
L 242.090327 32.718747 
L 243.228458 33.145723 
L 244.366589 33.7136 
L 245.50472 34.421164 
L 247.780982 36.24902 
L 250.057243 38.61377 
L 252.333505 41.495478 
L 254.609767 44.870073 
L 256.886029 48.709684 
L 259.162291 52.983026 
L 261.438552 57.655818 
L 264.852945 65.332868 
L 268.267338 73.692973 
L 271.68173 82.597137 
L 276.234254 95.070647 
L 294.444348 145.799621 
L 298.996872 157.371153 
L 302.411264 165.515112 
L 305.825657 173.146077 
L 309.24005 180.230786 
L 312.654442 186.749785 
L 316.068835 192.696228 
L 319.483228 198.074451 
L 322.89762 202.898392 
L 326.312013 207.189939 
L 329.726406 210.977274 
L 333.140798 214.293271 
L 336.555191 217.173996 
L 339.969584 219.657349 
L 343.383977 221.781873 
L 346.798369 223.585746 
L 350.212762 225.105946 
L 353.627155 226.377618 
L 357.041547 227.433594 
L 361.594071 228.557834 
L 366.146594 229.415782 
L 370.699118 230.062199 
L 376.389772 230.642072 
L 383.218558 231.096276 
L 392.323605 231.437968 
L 404.843045 231.643314 
L 409.395568 231.678482 
L 409.395568 231.678482 
" clip-path="url(#p474da41687)" style="fill: none; stroke: #333333; stroke-width: 2.5; stroke-linecap: square"/>
   </g>
   <g id="line2d_38">
    <path d="M 281.782642 241.718125 
L 281.782642 22.318125 
" clip-path="url(#p474da41687)" style="fill: none; stroke-dasharray: 5.55,2.4; stroke-dashoffset: 0; stroke: #333333; stroke-opacity: 0.5; stroke-width: 1.5"/>
   </g>
   <g id="patch_3">
    <path d="M 52.079375 241.718125 
L 52.079375 22.318125 
" style="fill: none; stroke: #000000; stroke-width: 0.8; stroke-linejoin: miter; stroke-linecap: square"/>
   </g>
   <g id="patch_4">
    <path d="M 426.410625 241.718125 
L 426.410625 22.318125 
" style="fill: none; stroke: #000000; stroke-width: 0.8; stroke-linejoin: miter; stroke-linecap: square"/>
   </g>
   <g id="patch_5">
    <path d="M 52.079375 241.718125 
L 426.410625 241.718125 
" style="fill: none; stroke: #000000; stroke-width: 0.8; stroke-linejoin: miter; stroke-linecap: square"/>
   </g>
   <g id="patch_6">
    <path d="M 52.079375 22.318125 
L 426.410625 22.318125 
" style="fill: none; stroke: #000000; stroke-width: 0.8; stroke-linejoin: miter; stroke-linecap: square"/>
   </g>
   <g id="text_21">
    <!-- Area = F(1) -->
    <g style="fill: #4682b4" transform="translate(203.784609 156.744926) scale(0.11 -0.11)">
     <defs>
      <path id="DejaVuSans-Bold-41" d="M 3419 850 
L 1538 850 
L 1241 0 
L 31 0 
L 1759 4666 
L 3194 4666 
L 4922 0 
L 3713 0 
L 3419 850 
z
M 1838 1716 
L 3116 1716 
L 2478 3572 
L 1838 1716 
z
" transform="scale(0.015625)"/>
      <path id="DejaVuSans-Bold-72" d="M 3138 2547 
Q 2991 2616 2845 2648 
Q 2700 2681 2553 2681 
Q 2122 2681 1889 2404 
Q 1656 2128 1656 1613 
L 1656 0 
L 538 0 
L 538 3500 
L 1656 3500 
L 1656 2925 
Q 1872 3269 2151 3426 
Q 2431 3584 2822 3584 
Q 2878 3584 2943 3579 
Q 3009 3575 3134 3559 
L 3138 2547 
z
" transform="scale(0.015625)"/>
      <path id="DejaVuSans-Bold-65" d="M 4031 1759 
L 4031 1441 
L 1416 1441 
Q 1456 1047 1700 850 
Q 1944 653 2381 653 
Q 2734 653 3104 758 
Q 3475 863 3866 1075 
L 3866 213 
Q 3469 63 3072 -14 
Q 2675 -91 2278 -91 
Q 1328 -91 801 392 
Q 275 875 275 1747 
Q 275 2603 792 3093 
Q 1309 3584 2216 3584 
Q 3041 3584 3536 3087 
Q 4031 2591 4031 1759 
z
M 2881 2131 
Q 2881 2450 2695 2645 
Q 2509 2841 2209 2841 
Q 1884 2841 1681 2658 
Q 1478 2475 1428 2131 
L 2881 2131 
z
" transform="scale(0.015625)"/>
      <path id="DejaVuSans-Bold-61" d="M 2106 1575 
Q 1756 1575 1579 1456 
Q 1403 1338 1403 1106 
Q 1403 894 1545 773 
Q 1688 653 1941 653 
Q 2256 653 2472 879 
Q 2688 1106 2688 1447 
L 2688 1575 
L 2106 1575 
z
M 3816 1997 
L 3816 0 
L 2688 0 
L 2688 519 
Q 2463 200 2181 54 
Q 1900 -91 1497 -91 
Q 953 -91 614 226 
Q 275 544 275 1050 
Q 275 1666 698 1953 
Q 1122 2241 2028 2241 
L 2688 2241 
L 2688 2328 
Q 2688 2594 2478 2717 
Q 2269 2841 1825 2841 
Q 1466 2841 1156 2769 
Q 847 2697 581 2553 
L 581 3406 
Q 941 3494 1303 3539 
Q 1666 3584 2028 3584 
Q 2975 3584 3395 3211 
Q 3816 2838 3816 1997 
z
" transform="scale(0.015625)"/>
      <path id="DejaVuSans-Bold-20" transform="scale(0.015625)"/>
      <path id="DejaVuSans-Bold-3d" d="M 678 3084 
L 4684 3084 
L 4684 2350 
L 678 2350 
L 678 3084 
z
M 678 1663 
L 4684 1663 
L 4684 922 
L 678 922 
L 678 1663 
z
" transform="scale(0.015625)"/>
      <path id="DejaVuSans-Bold-46" d="M 588 4666 
L 3834 4666 
L 3834 3756 
L 1791 3756 
L 1791 2888 
L 3713 2888 
L 3713 1978 
L 1791 1978 
L 1791 0 
L 588 0 
L 588 4666 
z
" transform="scale(0.015625)"/>
      <path id="DejaVuSans-Bold-28" d="M 2413 -844 
L 1484 -844 
Q 1006 -72 778 623 
Q 550 1319 550 2003 
Q 550 2688 779 3389 
Q 1009 4091 1484 4856 
L 2413 4856 
Q 2013 4116 1813 3408 
Q 1613 2700 1613 2009 
Q 1613 1319 1811 609 
Q 2009 -100 2413 -844 
z
" transform="scale(0.015625)"/>
      <path id="DejaVuSans-Bold-31" d="M 750 831 
L 1813 831 
L 1813 3847 
L 722 3622 
L 722 4441 
L 1806 4666 
L 2950 4666 
L 2950 831 
L 4013 831 
L 4013 0 
L 750 0 
L 750 831 
z
" transform="scale(0.015625)"/>
      <path id="DejaVuSans-Bold-29" d="M 513 -844 
Q 913 -100 1113 609 
Q 1313 1319 1313 2009 
Q 1313 2700 1113 3408 
Q 913 4116 513 4856 
L 1441 4856 
Q 1916 4091 2145 3389 
Q 2375 2688 2375 2003 
Q 2375 1319 2147 623 
Q 1919 -72 1441 -844 
L 513 -844 
z
" transform="scale(0.015625)"/>
     </defs>
     <use xlink:href="#DejaVuSans-Bold-41"/>
     <use xlink:href="#DejaVuSans-Bold-72" transform="translate(77.392578 0)"/>
     <use xlink:href="#DejaVuSans-Bold-65" transform="translate(126.708984 0)"/>
     <use xlink:href="#DejaVuSans-Bold-61" transform="translate(194.53125 0)"/>
     <use xlink:href="#DejaVuSans-Bold-20" transform="translate(262.011719 0)"/>
     <use xlink:href="#DejaVuSans-Bold-3d" transform="translate(296.826172 0)"/>
     <use xlink:href="#DejaVuSans-Bold-20" transform="translate(380.615234 0)"/>
     <use xlink:href="#DejaVuSans-Bold-46" transform="translate(415.429688 0)"/>
     <use xlink:href="#DejaVuSans-Bold-28" transform="translate(483.740234 0)"/>
     <use xlink:href="#DejaVuSans-Bold-31" transform="translate(529.443359 0)"/>
     <use xlink:href="#DejaVuSans-Bold-29" transform="translate(599.023438 0)"/>
    </g>
   </g>
   <g id="text_22">
    <!-- PDF: N(0, 1) -->
    <g style="fill: #808080" transform="translate(203.47375 16.318125) scale(0.12 -0.12)">
     <defs>
      <path id="DejaVuSans-50" d="M 1259 4147 
L 1259 2394 
L 2053 2394 
Q 2494 2394 2734 2622 
Q 2975 2850 2975 3272 
Q 2975 3691 2734 3919 
Q 2494 4147 2053 4147 
L 1259 4147 
z
M 628 4666 
L 2053 4666 
Q 2838 4666 3239 4311 
Q 3641 3956 3641 3272 
Q 3641 2581 3239 2228 
Q 2838 1875 2053 1875 
L 1259 1875 
L 1259 0 
L 628 0 
L 628 4666 
z
" transform="scale(0.015625)"/>
      <path id="DejaVuSans-44" d="M 1259 4147 
L 1259 519 
L 2022 519 
Q 2988 519 3436 956 
Q 3884 1394 3884 2338 
Q 3884 3275 3436 3711 
Q 2988 4147 2022 4147 
L 1259 4147 
z
M 628 4666 
L 1925 4666 
Q 3281 4666 3915 4102 
Q 4550 3538 4550 2338 
Q 4550 1131 3912 565 
Q 3275 0 1925 0 
L 628 0 
L 628 4666 
z
" transform="scale(0.015625)"/>
      <path id="DejaVuSans-46" d="M 628 4666 
L 3309 4666 
L 3309 4134 
L 1259 4134 
L 1259 2759 
L 3109 2759 
L 3109 2228 
L 1259 2228 
L 1259 0 
L 628 0 
L 628 4666 
z
" transform="scale(0.015625)"/>
      <path id="DejaVuSans-3a" d="M 750 794 
L 1409 794 
L 1409 0 
L 750 0 
L 750 794 
z
M 750 3309 
L 1409 3309 
L 1409 2516 
L 750 2516 
L 750 3309 
z
" transform="scale(0.015625)"/>
      <path id="DejaVuSans-20" transform="scale(0.015625)"/>
      <path id="DejaVuSans-4e" d="M 628 4666 
L 1478 4666 
L 3547 763 
L 3547 4666 
L 4159 4666 
L 4159 0 
L 3309 0 
L 1241 3903 
L 1241 0 
L 628 0 
L 628 4666 
z
" transform="scale(0.015625)"/>
      <path id="DejaVuSans-2c" d="M 750 794 
L 1409 794 
L 1409 256 
L 897 -744 
L 494 -744 
L 750 256 
L 750 794 
z
" transform="scale(0.015625)"/>
     </defs>
     <use xlink:href="#DejaVuSans-50"/>
     <use xlink:href="#DejaVuSans-44" transform="translate(60.302734 0)"/>
     <use xlink:href="#DejaVuSans-46" transform="translate(137.304688 0)"/>
     <use xlink:href="#DejaVuSans-3a" transform="translate(187.074219 0)"/>
     <use xlink:href="#DejaVuSans-20" transform="translate(220.765625 0)"/>
     <use xlink:href="#DejaVuSans-4e" transform="translate(252.552734 0)"/>
     <use xlink:href="#DejaVuSans-28" transform="translate(327.357422 0)"/>
     <use xlink:href="#DejaVuSans-30" transform="translate(366.371094 0)"/>
     <use xlink:href="#DejaVuSans-2c" transform="translate(429.994141 0)"/>
     <use xlink:href="#DejaVuSans-20" transform="translate(461.78125 0)"/>
     <use xlink:href="#DejaVuSans-31" transform="translate(493.568359 0)"/>
     <use xlink:href="#DejaVuSans-29" transform="translate(557.191406 0)"/>
    </g>
   </g>
  </g>
  <g id="axes_2">
   <g id="patch_7">
    <path d="M 475.491875 241.718125 
L 849.823125 241.718125 
L 849.823125 22.318125 
L 475.491875 22.318125 
z
" style="fill: #ffffff"/>
   </g>
   <g id="matplotlib.axis_3">
    <g id="xtick_10">
     <g id="line2d_39">
      <path d="M 492.506932 241.718125 
L 492.506932 22.318125 
" clip-path="url(#p79c46f47f2)" style="fill: none; stroke-dasharray: 2.96,1.28; stroke-dashoffset: 0; stroke: #b0b0b0; stroke-opacity: 0.4; stroke-width: 0.8"/>
     </g>
     <g id="line2d_40">
      <g>
       <use xlink:href="#me0d08cfa45" x="492.506932" y="241.718125" style="stroke: #000000; stroke-width: 0.8"/>
      </g>
     </g>
     <g id="text_23">
      <!-- −4 -->
      <g transform="translate(485.135838 256.316562) scale(0.1 -0.1)">
       <use xlink:href="#DejaVuSans-2212"/>
       <use xlink:href="#DejaVuSans-34" transform="translate(83.789062 0)"/>
      </g>
     </g>
    </g>
    <g id="xtick_11">
     <g id="line2d_41">
      <path d="M 535.044574 241.718125 
L 535.044574 22.318125 
" clip-path="url(#p79c46f47f2)" style="fill: none; stroke-dasharray: 2.96,1.28; stroke-dashoffset: 0; stroke: #b0b0b0; stroke-opacity: 0.4; stroke-width: 0.8"/>
     </g>
     <g id="line2d_42">
      <g>
       <use xlink:href="#me0d08cfa45" x="535.044574" y="241.718125" style="stroke: #000000; stroke-width: 0.8"/>
      </g>
     </g>
     <g id="text_24">
      <!-- −3 -->
      <g transform="translate(527.67348 256.316562) scale(0.1 -0.1)">
       <use xlink:href="#DejaVuSans-2212"/>
       <use xlink:href="#DejaVuSans-33" transform="translate(83.789062 0)"/>
      </g>
     </g>
    </g>
    <g id="xtick_12">
     <g id="line2d_43">
      <path d="M 577.582216 241.718125 
L 577.582216 22.318125 
" clip-path="url(#p79c46f47f2)" style="fill: none; stroke-dasharray: 2.96,1.28; stroke-dashoffset: 0; stroke: #b0b0b0; stroke-opacity: 0.4; stroke-width: 0.8"/>
     </g>
     <g id="line2d_44">
      <g>
       <use xlink:href="#me0d08cfa45" x="577.582216" y="241.718125" style="stroke: #000000; stroke-width: 0.8"/>
      </g>
     </g>
     <g id="text_25">
      <!-- −2 -->
      <g transform="translate(570.211122 256.316562) scale(0.1 -0.1)">
       <use xlink:href="#DejaVuSans-2212"/>
       <use xlink:href="#DejaVuSans-32" transform="translate(83.789062 0)"/>
      </g>
     </g>
    </g>
    <g id="xtick_13">
     <g id="line2d_45">
      <path d="M 620.119858 241.718125 
L 620.119858 22.318125 
" clip-path="url(#p79c46f47f2)" style="fill: none; stroke-dasharray: 2.96,1.28; stroke-dashoffset: 0; stroke: #b0b0b0; stroke-opacity: 0.4; stroke-width: 0.8"/>
     </g>
     <g id="line2d_46">
      <g>
       <use xlink:href="#me0d08cfa45" x="620.119858" y="241.718125" style="stroke: #000000; stroke-width: 0.8"/>
      </g>
     </g>
     <g id="text_26">
      <!-- −1 -->
      <g transform="translate(612.748764 256.316562) scale(0.1 -0.1)">
       <use xlink:href="#DejaVuSans-2212"/>
       <use xlink:href="#DejaVuSans-31" transform="translate(83.789062 0)"/>
      </g>
     </g>
    </g>
    <g id="xtick_14">
     <g id="line2d_47">
      <path d="M 662.6575 241.718125 
L 662.6575 22.318125 
" clip-path="url(#p79c46f47f2)" style="fill: none; stroke-dasharray: 2.96,1.28; stroke-dashoffset: 0; stroke: #b0b0b0; stroke-opacity: 0.4; stroke-width: 0.8"/>
     </g>
     <g id="line2d_48">
      <g>
       <use xlink:href="#me0d08cfa45" x="662.6575" y="241.718125" style="stroke: #000000; stroke-width: 0.8"/>
      </g>
     </g>
     <g id="text_27">
      <!-- 0 -->
      <g transform="translate(659.47625 256.316562) scale(0.1 -0.1)">
       <use xlink:href="#DejaVuSans-30"/>
      </g>
     </g>
    </g>
    <g id="xtick_15">
     <g id="line2d_49">
      <path d="M 705.195142 241.718125 
L 705.195142 22.318125 
" clip-path="url(#p79c46f47f2)" style="fill: none; stroke-dasharray: 2.96,1.28; stroke-dashoffset: 0; stroke: #b0b0b0; stroke-opacity: 0.4; stroke-width: 0.8"/>
     </g>
     <g id="line2d_50">
      <g>
       <use xlink:href="#me0d08cfa45" x="705.195142" y="241.718125" style="stroke: #000000; stroke-width: 0.8"/>
      </g>
     </g>
     <g id="text_28">
      <!-- 1 -->
      <g transform="translate(702.013892 256.316562) scale(0.1 -0.1)">
       <use xlink:href="#DejaVuSans-31"/>
      </g>
     </g>
    </g>
    <g id="xtick_16">
     <g id="line2d_51">
      <path d="M 747.732784 241.718125 
L 747.732784 22.318125 
" clip-path="url(#p79c46f47f2)" style="fill: none; stroke-dasharray: 2.96,1.28; stroke-dashoffset: 0; stroke: #b0b0b0; stroke-opacity: 0.4; stroke-width: 0.8"/>
     </g>
     <g id="line2d_52">
      <g>
       <use xlink:href="#me0d08cfa45" x="747.732784" y="241.718125" style="stroke: #000000; stroke-width: 0.8"/>
      </g>
     </g>
     <g id="text_29">
      <!-- 2 -->
      <g transform="translate(744.551534 256.316562) scale(0.1 -0.1)">
       <use xlink:href="#DejaVuSans-32"/>
      </g>
     </g>
    </g>
    <g id="xtick_17">
     <g id="line2d_53">
      <path d="M 790.270426 241.718125 
L 790.270426 22.318125 
" clip-path="url(#p79c46f47f2)" style="fill: none; stroke-dasharray: 2.96,1.28; stroke-dashoffset: 0; stroke: #b0b0b0; stroke-opacity: 0.4; stroke-width: 0.8"/>
     </g>
     <g id="line2d_54">
      <g>
       <use xlink:href="#me0d08cfa45" x="790.270426" y="241.718125" style="stroke: #000000; stroke-width: 0.8"/>
      </g>
     </g>
     <g id="text_30">
      <!-- 3 -->
      <g transform="translate(787.089176 256.316562) scale(0.1 -0.1)">
       <use xlink:href="#DejaVuSans-33"/>
      </g>
     </g>
    </g>
    <g id="xtick_18">
     <g id="line2d_55">
      <path d="M 832.808068 241.718125 
L 832.808068 22.318125 
" clip-path="url(#p79c46f47f2)" style="fill: none; stroke-dasharray: 2.96,1.28; stroke-dashoffset: 0; stroke: #b0b0b0; stroke-opacity: 0.4; stroke-width: 0.8"/>
     </g>
     <g id="line2d_56">
      <g>
       <use xlink:href="#me0d08cfa45" x="832.808068" y="241.718125" style="stroke: #000000; stroke-width: 0.8"/>
      </g>
     </g>
     <g id="text_31">
      <!-- 4 -->
      <g transform="translate(829.626818 256.316562) scale(0.1 -0.1)">
       <use xlink:href="#DejaVuSans-34"/>
      </g>
     </g>
    </g>
    <g id="text_32">
     <!-- x -->
     <g transform="translate(659.10625 271.514375) scale(0.12 -0.12)">
      <use xlink:href="#DejaVuSans-78"/>
     </g>
    </g>
   </g>
   <g id="matplotlib.axis_4">
    <g id="ytick_10">
     <g id="line2d_57">
      <path d="M 475.491875 231.745398 
L 849.823125 231.745398 
" clip-path="url(#p79c46f47f2)" style="fill: none; stroke-dasharray: 2.96,1.28; stroke-dashoffset: 0; stroke: #b0b0b0; stroke-opacity: 0.4; stroke-width: 0.8"/>
     </g>
     <g id="line2d_58">
      <g>
       <use xlink:href="#m8068a3a7a9" x="475.491875" y="231.745398" style="stroke: #000000; stroke-width: 0.8"/>
      </g>
     </g>
     <g id="text_33">
      <!-- 0.0 -->
      <g transform="translate(452.58875 235.544616) scale(0.1 -0.1)">
       <use xlink:href="#DejaVuSans-30"/>
       <use xlink:href="#DejaVuSans-2e" transform="translate(63.623047 0)"/>
       <use xlink:href="#DejaVuSans-30" transform="translate(95.410156 0)"/>
      </g>
     </g>
    </g>
    <g id="ytick_11">
     <g id="line2d_59">
      <path d="M 475.491875 191.854489 
L 849.823125 191.854489 
" clip-path="url(#p79c46f47f2)" style="fill: none; stroke-dasharray: 2.96,1.28; stroke-dashoffset: 0; stroke: #b0b0b0; stroke-opacity: 0.4; stroke-width: 0.8"/>
     </g>
     <g id="line2d_60">
      <g>
       <use xlink:href="#m8068a3a7a9" x="475.491875" y="191.854489" style="stroke: #000000; stroke-width: 0.8"/>
      </g>
     </g>
     <g id="text_34">
      <!-- 0.2 -->
      <g transform="translate(452.58875 195.653707) scale(0.1 -0.1)">
       <use xlink:href="#DejaVuSans-30"/>
       <use xlink:href="#DejaVuSans-2e" transform="translate(63.623047 0)"/>
       <use xlink:href="#DejaVuSans-32" transform="translate(95.410156 0)"/>
      </g>
     </g>
    </g>
    <g id="ytick_12">
     <g id="line2d_61">
      <path d="M 475.491875 151.96358 
L 849.823125 151.96358 
" clip-path="url(#p79c46f47f2)" style="fill: none; stroke-dasharray: 2.96,1.28; stroke-dashoffset: 0; stroke: #b0b0b0; stroke-opacity: 0.4; stroke-width: 0.8"/>
     </g>
     <g id="line2d_62">
      <g>
       <use xlink:href="#m8068a3a7a9" x="475.491875" y="151.96358" style="stroke: #000000; stroke-width: 0.8"/>
      </g>
     </g>
     <g id="text_35">
      <!-- 0.4 -->
      <g transform="translate(452.58875 155.762798) scale(0.1 -0.1)">
       <use xlink:href="#DejaVuSans-30"/>
       <use xlink:href="#DejaVuSans-2e" transform="translate(63.623047 0)"/>
       <use xlink:href="#DejaVuSans-34" transform="translate(95.410156 0)"/>
      </g>
     </g>
    </g>
    <g id="ytick_13">
     <g id="line2d_63">
      <path d="M 475.491875 112.07267 
L 849.823125 112.07267 
" clip-path="url(#p79c46f47f2)" style="fill: none; stroke-dasharray: 2.96,1.28; stroke-dashoffset: 0; stroke: #b0b0b0; stroke-opacity: 0.4; stroke-width: 0.8"/>
     </g>
     <g id="line2d_64">
      <g>
       <use xlink:href="#m8068a3a7a9" x="475.491875" y="112.07267" style="stroke: #000000; stroke-width: 0.8"/>
      </g>
     </g>
     <g id="text_36">
      <!-- 0.6 -->
      <g transform="translate(452.58875 115.871889) scale(0.1 -0.1)">
       <defs>
        <path id="DejaVuSans-36" d="M 2113 2584 
Q 1688 2584 1439 2293 
Q 1191 2003 1191 1497 
Q 1191 994 1439 701 
Q 1688 409 2113 409 
Q 2538 409 2786 701 
Q 3034 994 3034 1497 
Q 3034 2003 2786 2293 
Q 2538 2584 2113 2584 
z
M 3366 4563 
L 3366 3988 
Q 3128 4100 2886 4159 
Q 2644 4219 2406 4219 
Q 1781 4219 1451 3797 
Q 1122 3375 1075 2522 
Q 1259 2794 1537 2939 
Q 1816 3084 2150 3084 
Q 2853 3084 3261 2657 
Q 3669 2231 3669 1497 
Q 3669 778 3244 343 
Q 2819 -91 2113 -91 
Q 1303 -91 875 529 
Q 447 1150 447 2328 
Q 447 3434 972 4092 
Q 1497 4750 2381 4750 
Q 2619 4750 2861 4703 
Q 3103 4656 3366 4563 
z
" transform="scale(0.015625)"/>
       </defs>
       <use xlink:href="#DejaVuSans-30"/>
       <use xlink:href="#DejaVuSans-2e" transform="translate(63.623047 0)"/>
       <use xlink:href="#DejaVuSans-36" transform="translate(95.410156 0)"/>
      </g>
     </g>
    </g>
    <g id="ytick_14">
     <g id="line2d_65">
      <path d="M 475.491875 72.181761 
L 849.823125 72.181761 
" clip-path="url(#p79c46f47f2)" style="fill: none; stroke-dasharray: 2.96,1.28; stroke-dashoffset: 0; stroke: #b0b0b0; stroke-opacity: 0.4; stroke-width: 0.8"/>
     </g>
     <g id="line2d_66">
      <g>
       <use xlink:href="#m8068a3a7a9" x="475.491875" y="72.181761" style="stroke: #000000; stroke-width: 0.8"/>
      </g>
     </g>
     <g id="text_37">
      <!-- 0.8 -->
      <g transform="translate(452.58875 75.98098) scale(0.1 -0.1)">
       <defs>
        <path id="DejaVuSans-38" d="M 2034 2216 
Q 1584 2216 1326 1975 
Q 1069 1734 1069 1313 
Q 1069 891 1326 650 
Q 1584 409 2034 409 
Q 2484 409 2743 651 
Q 3003 894 3003 1313 
Q 3003 1734 2745 1975 
Q 2488 2216 2034 2216 
z
M 1403 2484 
Q 997 2584 770 2862 
Q 544 3141 544 3541 
Q 544 4100 942 4425 
Q 1341 4750 2034 4750 
Q 2731 4750 3128 4425 
Q 3525 4100 3525 3541 
Q 3525 3141 3298 2862 
Q 3072 2584 2669 2484 
Q 3125 2378 3379 2068 
Q 3634 1759 3634 1313 
Q 3634 634 3220 271 
Q 2806 -91 2034 -91 
Q 1263 -91 848 271 
Q 434 634 434 1313 
Q 434 1759 690 2068 
Q 947 2378 1403 2484 
z
M 1172 3481 
Q 1172 3119 1398 2916 
Q 1625 2713 2034 2713 
Q 2441 2713 2670 2916 
Q 2900 3119 2900 3481 
Q 2900 3844 2670 4047 
Q 2441 4250 2034 4250 
Q 1625 4250 1398 4047 
Q 1172 3844 1172 3481 
z
" transform="scale(0.015625)"/>
       </defs>
       <use xlink:href="#DejaVuSans-30"/>
       <use xlink:href="#DejaVuSans-2e" transform="translate(63.623047 0)"/>
       <use xlink:href="#DejaVuSans-38" transform="translate(95.410156 0)"/>
      </g>
     </g>
    </g>
    <g id="ytick_15">
     <g id="line2d_67">
      <path d="M 475.491875 32.290852 
L 849.823125 32.290852 
" clip-path="url(#p79c46f47f2)" style="fill: none; stroke-dasharray: 2.96,1.28; stroke-dashoffset: 0; stroke: #b0b0b0; stroke-opacity: 0.4; stroke-width: 0.8"/>
     </g>
     <g id="line2d_68">
      <g>
       <use xlink:href="#m8068a3a7a9" x="475.491875" y="32.290852" style="stroke: #000000; stroke-width: 0.8"/>
      </g>
     </g>
     <g id="text_38">
      <!-- 1.0 -->
      <g transform="translate(452.58875 36.090071) scale(0.1 -0.1)">
       <use xlink:href="#DejaVuSans-31"/>
       <use xlink:href="#DejaVuSans-2e" transform="translate(63.623047 0)"/>
       <use xlink:href="#DejaVuSans-30" transform="translate(95.410156 0)"/>
      </g>
     </g>
    </g>
    <g id="text_39">
     <!-- F(x) -->
     <g transform="translate(446.093125 143.702188) rotate(-90) scale(0.12 -0.12)">
      <use xlink:href="#DejaVuSans-46"/>
      <use xlink:href="#DejaVuSans-28" transform="translate(57.519531 0)"/>
      <use xlink:href="#DejaVuSans-78" transform="translate(96.533203 0)"/>
      <use xlink:href="#DejaVuSans-29" transform="translate(155.712891 0)"/>
     </g>
    </g>
   </g>
   <g id="line2d_69">
    <path d="M 492.506932 231.739081 
L 526.650859 231.607067 
L 540.308429 231.34407 
L 549.413476 230.971215 
L 557.380393 230.416359 
L 563.071047 229.82813 
L 568.761702 229.023933 
L 573.314225 228.185191 
L 577.866749 227.135265 
L 582.419272 225.835938 
L 586.971796 224.24626 
L 590.386188 222.837776 
L 593.800581 221.223616 
L 597.214974 219.385618 
L 600.629366 217.306177 
L 604.043759 214.968677 
L 607.458152 212.357959 
L 610.872544 209.460803 
L 614.286937 206.26642 
L 617.70133 202.766923 
L 621.115722 198.957778 
L 624.530115 194.838198 
L 627.944508 190.411482 
L 631.358901 185.685263 
L 635.911424 178.939355 
L 640.463948 171.724342 
L 645.016471 164.0954 
L 650.707126 154.081873 
L 657.535911 141.575465 
L 675.746005 107.915686 
L 681.43666 97.998324 
L 685.989183 90.466964 
L 690.541707 83.364584 
L 695.09423 76.742958 
L 698.508623 72.11545 
L 701.923016 67.790482 
L 705.337408 63.774222 
L 708.751801 60.068573 
L 712.166194 56.671459 
L 715.580586 53.577181 
L 718.994979 50.776833 
L 722.409372 48.258762 
L 725.823764 46.009048 
L 729.238157 44.011993 
L 732.65255 42.250599 
L 736.066942 40.707031 
L 739.481335 39.363032 
L 744.033859 37.849898 
L 748.586382 36.616667 
L 753.138906 35.622998 
L 757.691429 34.831464 
L 763.382084 34.074944 
L 770.210869 33.433473 
L 778.177785 32.950369 
L 787.282833 32.629145 
L 799.802272 32.416886 
L 821.426759 32.309764 
L 832.808068 32.297169 
L 832.808068 32.297169 
" clip-path="url(#p79c46f47f2)" style="fill: none; stroke: #cc0000; stroke-width: 2.5; stroke-linecap: square"/>
   </g>
   <g id="line2d_70">
    <path d="M 475.491875 231.745398 
L 849.823125 231.745398 
" clip-path="url(#p79c46f47f2)" style="fill: none; stroke-dasharray: 5.55,2.4; stroke-dashoffset: 0; stroke: #808080; stroke-opacity: 0.4; stroke-width: 1.5"/>
   </g>
   <g id="line2d_71">
    <path d="M 475.491875 32.290852 
L 849.823125 32.290852 
" clip-path="url(#p79c46f47f2)" style="fill: none; stroke-dasharray: 5.55,2.4; stroke-dashoffset: 0; stroke: #808080; stroke-opacity: 0.4; stroke-width: 1.5"/>
   </g>
   <g id="line2d_72">
    <defs>
     <path id="m5c61817023" d="M 0 4 
C 1.060812 4 2.078319 3.578535 2.828427 2.828427 
C 3.578535 2.078319 4 1.060812 4 0 
C 4 -1.060812 3.578535 -2.078319 2.828427 -2.828427 
C 2.078319 -3.578535 1.060812 -4 0 -4 
C -1.060812 -4 -2.078319 -3.578535 -2.828427 -2.828427 
C -3.578535 -2.078319 -4 -1.060812 -4 0 
C -4 1.060812 -3.578535 2.078319 -2.828427 2.828427 
C -2.078319 3.578535 -1.060812 4 0 4 
z
" style="stroke: #cc0000"/>
    </defs>
    <g clip-path="url(#p79c46f47f2)">
     <use xlink:href="#m5c61817023" x="705.195142" y="63.935364" style="fill: #cc0000; stroke: #cc0000"/>
    </g>
   </g>
   <g id="line2d_73">
    <path d="M 705.195142 241.718125 
L 705.195142 22.318125 
" clip-path="url(#p79c46f47f2)" style="fill: none; stroke-dasharray: 5.55,2.4; stroke-dashoffset: 0; stroke: #333333; stroke-opacity: 0.5; stroke-width: 1.5"/>
   </g>
   <g id="patch_8">
    <path d="M 475.491875 241.718125 
L 475.491875 22.318125 
" style="fill: none; stroke: #000000; stroke-width: 0.8; stroke-linejoin: miter; stroke-linecap: square"/>
   </g>
   <g id="patch_9">
    <path d="M 849.823125 241.718125 
L 849.823125 22.318125 
" style="fill: none; stroke: #000000; stroke-width: 0.8; stroke-linejoin: miter; stroke-linecap: square"/>
   </g>
   <g id="patch_10">
    <path d="M 475.491875 241.718125 
L 849.823125 241.718125 
" style="fill: none; stroke: #000000; stroke-width: 0.8; stroke-linejoin: miter; stroke-linecap: square"/>
   </g>
   <g id="patch_11">
    <path d="M 475.491875 22.318125 
L 849.823125 22.318125 
" style="fill: none; stroke: #000000; stroke-width: 0.8; stroke-linejoin: miter; stroke-linecap: square"/>
   </g>
   <g id="text_40">
    <!-- F(1) ≈ 0.841 -->
    <g style="fill: #cc0000" transform="translate(713.70267 73.908091) scale(0.11 -0.11)">
     <defs>
      <path id="DejaVuSans-Bold-2248" d="M 4684 3309 
L 4684 2547 
Q 4353 2297 4073 2189 
Q 3794 2081 3494 2081 
Q 3159 2081 2713 2263 
Q 2669 2281 2644 2291 
Q 2622 2300 2575 2319 
Q 2091 2509 1797 2509 
Q 1522 2509 1253 2389 
Q 984 2269 678 2009 
L 678 2772 
Q 1006 3016 1286 3123 
Q 1566 3231 1869 3231 
Q 2213 3231 2672 3047 
Q 2703 3034 2719 3028 
Q 2744 3019 2788 3000 
Q 3272 2809 3566 2809 
Q 3834 2809 4098 2926 
Q 4363 3044 4684 3309 
z
M 4684 2003 
L 4684 1241 
Q 4353 991 4073 883 
Q 3794 775 3494 775 
Q 3159 775 2713 956 
Q 2669 975 2641 988 
Q 2622 994 2575 1013 
Q 2091 1203 1797 1203 
Q 1522 1203 1253 1084 
Q 984 966 678 703 
L 678 1466 
Q 1013 1716 1291 1823 
Q 1569 1931 1869 1931 
Q 2203 1931 2650 1750 
Q 2697 1731 2719 1722 
Q 2744 1713 2788 1697 
Q 3272 1503 3566 1503 
Q 3834 1503 4098 1620 
Q 4363 1738 4684 2003 
z
" transform="scale(0.015625)"/>
      <path id="DejaVuSans-Bold-30" d="M 2944 2338 
Q 2944 3213 2780 3570 
Q 2616 3928 2228 3928 
Q 1841 3928 1675 3570 
Q 1509 3213 1509 2338 
Q 1509 1453 1675 1090 
Q 1841 728 2228 728 
Q 2613 728 2778 1090 
Q 2944 1453 2944 2338 
z
M 4147 2328 
Q 4147 1169 3647 539 
Q 3147 -91 2228 -91 
Q 1306 -91 806 539 
Q 306 1169 306 2328 
Q 306 3491 806 4120 
Q 1306 4750 2228 4750 
Q 3147 4750 3647 4120 
Q 4147 3491 4147 2328 
z
" transform="scale(0.015625)"/>
      <path id="DejaVuSans-Bold-2e" d="M 653 1209 
L 1778 1209 
L 1778 0 
L 653 0 
L 653 1209 
z
" transform="scale(0.015625)"/>
      <path id="DejaVuSans-Bold-38" d="M 2228 2088 
Q 1891 2088 1709 1903 
Q 1528 1719 1528 1375 
Q 1528 1031 1709 848 
Q 1891 666 2228 666 
Q 2563 666 2741 848 
Q 2919 1031 2919 1375 
Q 2919 1722 2741 1905 
Q 2563 2088 2228 2088 
z
M 1350 2484 
Q 925 2613 709 2878 
Q 494 3144 494 3541 
Q 494 4131 934 4440 
Q 1375 4750 2228 4750 
Q 3075 4750 3515 4442 
Q 3956 4134 3956 3541 
Q 3956 3144 3739 2878 
Q 3522 2613 3097 2484 
Q 3572 2353 3814 2058 
Q 4056 1763 4056 1313 
Q 4056 619 3595 264 
Q 3134 -91 2228 -91 
Q 1319 -91 855 264 
Q 391 619 391 1313 
Q 391 1763 633 2058 
Q 875 2353 1350 2484 
z
M 1631 3419 
Q 1631 3141 1786 2991 
Q 1941 2841 2228 2841 
Q 2509 2841 2662 2991 
Q 2816 3141 2816 3419 
Q 2816 3697 2662 3845 
Q 2509 3994 2228 3994 
Q 1941 3994 1786 3844 
Q 1631 3694 1631 3419 
z
" transform="scale(0.015625)"/>
      <path id="DejaVuSans-Bold-34" d="M 2356 3675 
L 1038 1722 
L 2356 1722 
L 2356 3675 
z
M 2156 4666 
L 3494 4666 
L 3494 1722 
L 4159 1722 
L 4159 850 
L 3494 850 
L 3494 0 
L 2356 0 
L 2356 850 
L 288 850 
L 288 1881 
L 2156 4666 
z
" transform="scale(0.015625)"/>
     </defs>
     <use xlink:href="#DejaVuSans-Bold-46"/>
     <use xlink:href="#DejaVuSans-Bold-28" transform="translate(68.310547 0)"/>
     <use xlink:href="#DejaVuSans-Bold-31" transform="translate(114.013672 0)"/>
     <use xlink:href="#DejaVuSans-Bold-29" transform="translate(183.59375 0)"/>
     <use xlink:href="#DejaVuSans-Bold-20" transform="translate(229.296875 0)"/>
     <use xlink:href="#DejaVuSans-Bold-2248" transform="translate(264.111328 0)"/>
     <use xlink:href="#DejaVuSans-Bold-20" transform="translate(347.900391 0)"/>
     <use xlink:href="#DejaVuSans-Bold-30" transform="translate(382.714844 0)"/>
     <use xlink:href="#DejaVuSans-Bold-2e" transform="translate(452.294922 0)"/>
     <use xlink:href="#DejaVuSans-Bold-38" transform="translate(490.283203 0)"/>
     <use xlink:href="#DejaVuSans-Bold-34" transform="translate(559.863281 0)"/>
     <use xlink:href="#DejaVuSans-Bold-31" transform="translate(629.443359 0)"/>
    </g>
   </g>
   <g id="text_41">
    <!-- CDF: N(0, 1) -->
    <g style="fill: #808080" transform="translate(626.314375 16.318125) scale(0.12 -0.12)">
     <defs>
      <path id="DejaVuSans-43" d="M 4122 4306 
L 4122 3641 
Q 3803 3938 3442 4084 
Q 3081 4231 2675 4231 
Q 1875 4231 1450 3742 
Q 1025 3253 1025 2328 
Q 1025 1406 1450 917 
Q 1875 428 2675 428 
Q 3081 428 3442 575 
Q 3803 722 4122 1019 
L 4122 359 
Q 3791 134 3420 21 
Q 3050 -91 2638 -91 
Q 1578 -91 968 557 
Q 359 1206 359 2328 
Q 359 3453 968 4101 
Q 1578 4750 2638 4750 
Q 3056 4750 3426 4639 
Q 3797 4528 4122 4306 
z
" transform="scale(0.015625)"/>
     </defs>
     <use xlink:href="#DejaVuSans-43"/>
     <use xlink:href="#DejaVuSans-44" transform="translate(69.824219 0)"/>
     <use xlink:href="#DejaVuSans-46" transform="translate(146.826172 0)"/>
     <use xlink:href="#DejaVuSans-3a" transform="translate(196.595703 0)"/>
     <use xlink:href="#DejaVuSans-20" transform="translate(230.287109 0)"/>
     <use xlink:href="#DejaVuSans-4e" transform="translate(262.074219 0)"/>
     <use xlink:href="#DejaVuSans-28" transform="translate(336.878906 0)"/>
     <use xlink:href="#DejaVuSans-30" transform="translate(375.892578 0)"/>
     <use xlink:href="#DejaVuSans-2c" transform="translate(439.515625 0)"/>
     <use xlink:href="#DejaVuSans-20" transform="translate(471.302734 0)"/>
     <use xlink:href="#DejaVuSans-31" transform="translate(503.089844 0)"/>
     <use xlink:href="#DejaVuSans-29" transform="translate(566.712891 0)"/>
    </g>
   </g>
  </g>
 </g>
 <defs>
  <clipPath id="p474da41687">
   <rect x="52.079375" y="22.318125" width="374.33125" height="219.4"/>
  </clipPath>
  <clipPath id="p79c46f47f2">
   <rect x="475.491875" y="22.318125" width="374.33125" height="219.4"/>
  </clipPath>
 </defs>
</svg>
