<?xml version="1.0" encoding="utf-8" standalone="no"?>
<!DOCTYPE svg PUBLIC "-//W3C//DTD SVG 1.1//EN"
  "http://www.w3.org/Graphics/SVG/1.1/DTD/svg11.dtd">
<svg xmlns:xlink="http://www.w3.org/1999/xlink" width="1072.055312pt" height="244.242187pt" viewBox="0 0 1072.055312 244.242187" xmlns="http://www.w3.org/2000/svg" version="1.1">
 <metadata>
  <rdf:RDF xmlns:dc="http://purl.org/dc/elements/1.1/" xmlns:cc="http://creativecommons.org/ns#" xmlns:rdf="http://www.w3.org/1999/02/22-rdf-syntax-ns#">
   <cc:Work>
    <dc:type rdf:resource="http://purl.org/dc/dcmitype/StillImage"/>
    <dc:date>2026-07-14T22:19:10.965209</dc:date>
    <dc:format>image/svg+xml</dc:format>
    <dc:creator>
     <cc:Agent>
      <dc:title>Matplotlib v3.10.8, https://matplotlib.org/</dc:title>
     </cc:Agent>
    </dc:creator>
   </cc:Work>
  </rdf:RDF>
 </metadata>
 <defs>
  <style type="text/css">*{stroke-linejoin: round; stroke-linecap: butt}</style>
 </defs>
 <g id="figure_1">
  <g id="patch_1">
   <path d="M 0 244.242187 
L 1072.055312 244.242187 
L 1072.055312 0 
L 0 0 
z
" style="fill: #ffffff"/>
  </g>
  <g id="axes_1">
   <g id="patch_2">
    <path d="M 51.111563 205.718125 
L 347.805312 205.718125 
L 347.805312 22.318125 
L 51.111563 22.318125 
z
" style="fill: #ffffff"/>
   </g>
   <g id="patch_3">
    <path d="M 64.597642 205.718125 
L 101.80062 205.718125 
L 101.80062 190.420742 
L 64.597642 190.420742 
z
" clip-path="url(#p4fea240ab5)" style="fill: #4682b4; opacity: 0.7"/>
   </g>
   <g id="patch_4">
    <path d="M 111.101365 205.718125 
L 148.304343 205.718125 
L 148.304343 129.23121 
L 111.101365 129.23121 
z
" clip-path="url(#p4fea240ab5)" style="fill: #4682b4; opacity: 0.7"/>
   </g>
   <g id="patch_5">
    <path d="M 157.605087 205.718125 
L 194.808065 205.718125 
L 194.808065 52.744295 
L 157.605087 52.744295 
z
" clip-path="url(#p4fea240ab5)" style="fill: #4682b4; opacity: 0.7"/>
   </g>
   <g id="patch_6">
    <path d="M 204.10881 205.718125 
L 241.311788 205.718125 
L 241.311788 52.744295 
L 204.10881 52.744295 
z
" clip-path="url(#p4fea240ab5)" style="fill: #4682b4; opacity: 0.7"/>
   </g>
   <g id="patch_7">
    <path d="M 250.612532 205.718125 
L 287.81551 205.718125 
L 287.81551 129.23121 
L 250.612532 129.23121 
z
" clip-path="url(#p4fea240ab5)" style="fill: #4682b4; opacity: 0.7"/>
   </g>
   <g id="patch_8">
    <path d="M 297.116255 205.718125 
L 334.319233 205.718125 
L 334.319233 190.420742 
L 297.116255 190.420742 
z
" clip-path="url(#p4fea240ab5)" style="fill: #4682b4; opacity: 0.7"/>
   </g>
   <g id="matplotlib.axis_1">
    <g id="xtick_1">
     <g id="line2d_1">
      <defs>
       <path id="m5e0dc4ca91" d="M 0 0 
L 0 3.5 
" style="stroke: #000000; stroke-width: 0.8"/>
      </defs>
      <g>
       <use xlink:href="#m5e0dc4ca91" x="83.199131" y="205.718125" style="stroke: #000000; stroke-width: 0.8"/>
      </g>
     </g>
     <g id="text_1">
      <!-- 0 -->
      <g transform="translate(80.017881 220.316562) scale(0.1 -0.1)">
       <defs>
        <path id="DejaVuSans-30" d="M 2034 4250 
Q 1547 4250 1301 3770 
Q 1056 3291 1056 2328 
Q 1056 1369 1301 889 
Q 1547 409 2034 409 
Q 2525 409 2770 889 
Q 3016 1369 3016 2328 
Q 3016 3291 2770 3770 
Q 2525 4250 2034 4250 
z
M 2034 4750 
Q 2819 4750 3233 4129 
Q 3647 3509 3647 2328 
Q 3647 1150 3233 529 
Q 2819 -91 2034 -91 
Q 1250 -91 836 529 
Q 422 1150 422 2328 
Q 422 3509 836 4129 
Q 1250 4750 2034 4750 
z
" transform="scale(0.015625)"/>
       </defs>
       <use xlink:href="#DejaVuSans-30"/>
      </g>
     </g>
    </g>
    <g id="xtick_2">
     <g id="line2d_2">
      <g>
       <use xlink:href="#m5e0dc4ca91" x="129.702854" y="205.718125" style="stroke: #000000; stroke-width: 0.8"/>
      </g>
     </g>
     <g id="text_2">
      <!-- 1 -->
      <g transform="translate(126.521604 220.316562) scale(0.1 -0.1)">
       <defs>
        <path id="DejaVuSans-31" d="M 794 531 
L 1825 531 
L 1825 4091 
L 703 3866 
L 703 4441 
L 1819 4666 
L 2450 4666 
L 2450 531 
L 3481 531 
L 3481 0 
L 794 0 
L 794 531 
z
" transform="scale(0.015625)"/>
       </defs>
       <use xlink:href="#DejaVuSans-31"/>
      </g>
     </g>
    </g>
    <g id="xtick_3">
     <g id="line2d_3">
      <g>
       <use xlink:href="#m5e0dc4ca91" x="176.206576" y="205.718125" style="stroke: #000000; stroke-width: 0.8"/>
      </g>
     </g>
     <g id="text_3">
      <!-- 2 -->
      <g transform="translate(173.025326 220.316562) scale(0.1 -0.1)">
       <defs>
        <path id="DejaVuSans-32" d="M 1228 531 
L 3431 531 
L 3431 0 
L 469 0 
L 469 531 
Q 828 903 1448 1529 
Q 2069 2156 2228 2338 
Q 2531 2678 2651 2914 
Q 2772 3150 2772 3378 
Q 2772 3750 2511 3984 
Q 2250 4219 1831 4219 
Q 1534 4219 1204 4116 
Q 875 4013 500 3803 
L 500 4441 
Q 881 4594 1212 4672 
Q 1544 4750 1819 4750 
Q 2544 4750 2975 4387 
Q 3406 4025 3406 3419 
Q 3406 3131 3298 2873 
Q 3191 2616 2906 2266 
Q 2828 2175 2409 1742 
Q 1991 1309 1228 531 
z
" transform="scale(0.015625)"/>
       </defs>
       <use xlink:href="#DejaVuSans-32"/>
      </g>
     </g>
    </g>
    <g id="xtick_4">
     <g id="line2d_4">
      <g>
       <use xlink:href="#m5e0dc4ca91" x="222.710299" y="205.718125" style="stroke: #000000; stroke-width: 0.8"/>
      </g>
     </g>
     <g id="text_4">
      <!-- 3 -->
      <g transform="translate(219.529049 220.316562) scale(0.1 -0.1)">
       <defs>
        <path id="DejaVuSans-33" d="M 2597 2516 
Q 3050 2419 3304 2112 
Q 3559 1806 3559 1356 
Q 3559 666 3084 287 
Q 2609 -91 1734 -91 
Q 1441 -91 1130 -33 
Q 819 25 488 141 
L 488 750 
Q 750 597 1062 519 
Q 1375 441 1716 441 
Q 2309 441 2620 675 
Q 2931 909 2931 1356 
Q 2931 1769 2642 2001 
Q 2353 2234 1838 2234 
L 1294 2234 
L 1294 2753 
L 1863 2753 
Q 2328 2753 2575 2939 
Q 2822 3125 2822 3475 
Q 2822 3834 2567 4026 
Q 2313 4219 1838 4219 
Q 1578 4219 1281 4162 
Q 984 4106 628 3988 
L 628 4550 
Q 988 4650 1302 4700 
Q 1616 4750 1894 4750 
Q 2613 4750 3031 4423 
Q 3450 4097 3450 3541 
Q 3450 3153 3228 2886 
Q 3006 2619 2597 2516 
z
" transform="scale(0.015625)"/>
       </defs>
       <use xlink:href="#DejaVuSans-33"/>
      </g>
     </g>
    </g>
    <g id="xtick_5">
     <g id="line2d_5">
      <g>
       <use xlink:href="#m5e0dc4ca91" x="269.214021" y="205.718125" style="stroke: #000000; stroke-width: 0.8"/>
      </g>
     </g>
     <g id="text_5">
      <!-- 4 -->
      <g transform="translate(266.032771 220.316562) scale(0.1 -0.1)">
       <defs>
        <path id="DejaVuSans-34" d="M 2419 4116 
L 825 1625 
L 2419 1625 
L 2419 4116 
z
M 2253 4666 
L 3047 4666 
L 3047 1625 
L 3713 1625 
L 3713 1100 
L 3047 1100 
L 3047 0 
L 2419 0 
L 2419 1100 
L 313 1100 
L 313 1709 
L 2253 4666 
z
" transform="scale(0.015625)"/>
       </defs>
       <use xlink:href="#DejaVuSans-34"/>
      </g>
     </g>
    </g>
    <g id="xtick_6">
     <g id="line2d_6">
      <g>
       <use xlink:href="#m5e0dc4ca91" x="315.717744" y="205.718125" style="stroke: #000000; stroke-width: 0.8"/>
      </g>
     </g>
     <g id="text_6">
      <!-- 5 -->
      <g transform="translate(312.536494 220.316562) scale(0.1 -0.1)">
       <defs>
        <path id="DejaVuSans-35" d="M 691 4666 
L 3169 4666 
L 3169 4134 
L 1269 4134 
L 1269 2991 
Q 1406 3038 1543 3061 
Q 1681 3084 1819 3084 
Q 2600 3084 3056 2656 
Q 3513 2228 3513 1497 
Q 3513 744 3044 326 
Q 2575 -91 1722 -91 
Q 1428 -91 1123 -41 
Q 819 9 494 109 
L 494 744 
Q 775 591 1075 516 
Q 1375 441 1709 441 
Q 2250 441 2565 725 
Q 2881 1009 2881 1497 
Q 2881 1984 2565 2268 
Q 2250 2553 1709 2553 
Q 1456 2553 1204 2497 
Q 953 2441 691 2322 
L 691 4666 
z
" transform="scale(0.015625)"/>
       </defs>
       <use xlink:href="#DejaVuSans-35"/>
      </g>
     </g>
    </g>
    <g id="text_7">
     <!-- Number of heads -->
     <g transform="translate(151.969375 234.754531) scale(0.11 -0.11)">
      <defs>
       <path id="DejaVuSans-4e" d="M 628 4666 
L 1478 4666 
L 3547 763 
L 3547 4666 
L 4159 4666 
L 4159 0 
L 3309 0 
L 1241 3903 
L 1241 0 
L 628 0 
L 628 4666 
z
" transform="scale(0.015625)"/>
       <path id="DejaVuSans-75" d="M 544 1381 
L 544 3500 
L 1119 3500 
L 1119 1403 
Q 1119 906 1312 657 
Q 1506 409 1894 409 
Q 2359 409 2629 706 
Q 2900 1003 2900 1516 
L 2900 3500 
L 3475 3500 
L 3475 0 
L 2900 0 
L 2900 538 
Q 2691 219 2414 64 
Q 2138 -91 1772 -91 
Q 1169 -91 856 284 
Q 544 659 544 1381 
z
M 1991 3584 
L 1991 3584 
z
" transform="scale(0.015625)"/>
       <path id="DejaVuSans-6d" d="M 3328 2828 
Q 3544 3216 3844 3400 
Q 4144 3584 4550 3584 
Q 5097 3584 5394 3201 
Q 5691 2819 5691 2113 
L 5691 0 
L 5113 0 
L 5113 2094 
Q 5113 2597 4934 2840 
Q 4756 3084 4391 3084 
Q 3944 3084 3684 2787 
Q 3425 2491 3425 1978 
L 3425 0 
L 2847 0 
L 2847 2094 
Q 2847 2600 2669 2842 
Q 2491 3084 2119 3084 
Q 1678 3084 1418 2786 
Q 1159 2488 1159 1978 
L 1159 0 
L 581 0 
L 581 3500 
L 1159 3500 
L 1159 2956 
Q 1356 3278 1631 3431 
Q 1906 3584 2284 3584 
Q 2666 3584 2933 3390 
Q 3200 3197 3328 2828 
z
" transform="scale(0.015625)"/>
       <path id="DejaVuSans-62" d="M 3116 1747 
Q 3116 2381 2855 2742 
Q 2594 3103 2138 3103 
Q 1681 3103 1420 2742 
Q 1159 2381 1159 1747 
Q 1159 1113 1420 752 
Q 1681 391 2138 391 
Q 2594 391 2855 752 
Q 3116 1113 3116 1747 
z
M 1159 2969 
Q 1341 3281 1617 3432 
Q 1894 3584 2278 3584 
Q 2916 3584 3314 3078 
Q 3713 2572 3713 1747 
Q 3713 922 3314 415 
Q 2916 -91 2278 -91 
Q 1894 -91 1617 61 
Q 1341 213 1159 525 
L 1159 0 
L 581 0 
L 581 4863 
L 1159 4863 
L 1159 2969 
z
" transform="scale(0.015625)"/>
       <path id="DejaVuSans-65" d="M 3597 1894 
L 3597 1613 
L 953 1613 
Q 991 1019 1311 708 
Q 1631 397 2203 397 
Q 2534 397 2845 478 
Q 3156 559 3463 722 
L 3463 178 
Q 3153 47 2828 -22 
Q 2503 -91 2169 -91 
Q 1331 -91 842 396 
Q 353 884 353 1716 
Q 353 2575 817 3079 
Q 1281 3584 2069 3584 
Q 2775 3584 3186 3129 
Q 3597 2675 3597 1894 
z
M 3022 2063 
Q 3016 2534 2758 2815 
Q 2500 3097 2075 3097 
Q 1594 3097 1305 2825 
Q 1016 2553 972 2059 
L 3022 2063 
z
" transform="scale(0.015625)"/>
       <path id="DejaVuSans-72" d="M 2631 2963 
Q 2534 3019 2420 3045 
Q 2306 3072 2169 3072 
Q 1681 3072 1420 2755 
Q 1159 2438 1159 1844 
L 1159 0 
L 581 0 
L 581 3500 
L 1159 3500 
L 1159 2956 
Q 1341 3275 1631 3429 
Q 1922 3584 2338 3584 
Q 2397 3584 2469 3576 
Q 2541 3569 2628 3553 
L 2631 2963 
z
" transform="scale(0.015625)"/>
       <path id="DejaVuSans-20" transform="scale(0.015625)"/>
       <path id="DejaVuSans-6f" d="M 1959 3097 
Q 1497 3097 1228 2736 
Q 959 2375 959 1747 
Q 959 1119 1226 758 
Q 1494 397 1959 397 
Q 2419 397 2687 759 
Q 2956 1122 2956 1747 
Q 2956 2369 2687 2733 
Q 2419 3097 1959 3097 
z
M 1959 3584 
Q 2709 3584 3137 3096 
Q 3566 2609 3566 1747 
Q 3566 888 3137 398 
Q 2709 -91 1959 -91 
Q 1206 -91 779 398 
Q 353 888 353 1747 
Q 353 2609 779 3096 
Q 1206 3584 1959 3584 
z
" transform="scale(0.015625)"/>
       <path id="DejaVuSans-66" d="M 2375 4863 
L 2375 4384 
L 1825 4384 
Q 1516 4384 1395 4259 
Q 1275 4134 1275 3809 
L 1275 3500 
L 2222 3500 
L 2222 3053 
L 1275 3053 
L 1275 0 
L 697 0 
L 697 3053 
L 147 3053 
L 147 3500 
L 697 3500 
L 697 3744 
Q 697 4328 969 4595 
Q 1241 4863 1831 4863 
L 2375 4863 
z
" transform="scale(0.015625)"/>
       <path id="DejaVuSans-68" d="M 3513 2113 
L 3513 0 
L 2938 0 
L 2938 2094 
Q 2938 2591 2744 2837 
Q 2550 3084 2163 3084 
Q 1697 3084 1428 2787 
Q 1159 2491 1159 1978 
L 1159 0 
L 581 0 
L 581 4863 
L 1159 4863 
L 1159 2956 
Q 1366 3272 1645 3428 
Q 1925 3584 2291 3584 
Q 2894 3584 3203 3211 
Q 3513 2838 3513 2113 
z
" transform="scale(0.015625)"/>
       <path id="DejaVuSans-61" d="M 2194 1759 
Q 1497 1759 1228 1600 
Q 959 1441 959 1056 
Q 959 750 1161 570 
Q 1363 391 1709 391 
Q 2188 391 2477 730 
Q 2766 1069 2766 1631 
L 2766 1759 
L 2194 1759 
z
M 3341 1997 
L 3341 0 
L 2766 0 
L 2766 531 
Q 2569 213 2275 61 
Q 1981 -91 1556 -91 
Q 1019 -91 701 211 
Q 384 513 384 1019 
Q 384 1609 779 1909 
Q 1175 2209 1959 2209 
L 2766 2209 
L 2766 2266 
Q 2766 2663 2505 2880 
Q 2244 3097 1772 3097 
Q 1472 3097 1187 3025 
Q 903 2953 641 2809 
L 641 3341 
Q 956 3463 1253 3523 
Q 1550 3584 1831 3584 
Q 2591 3584 2966 3190 
Q 3341 2797 3341 1997 
z
" transform="scale(0.015625)"/>
       <path id="DejaVuSans-64" d="M 2906 2969 
L 2906 4863 
L 3481 4863 
L 3481 0 
L 2906 0 
L 2906 525 
Q 2725 213 2448 61 
Q 2172 -91 1784 -91 
Q 1150 -91 751 415 
Q 353 922 353 1747 
Q 353 2572 751 3078 
Q 1150 3584 1784 3584 
Q 2172 3584 2448 3432 
Q 2725 3281 2906 2969 
z
M 947 1747 
Q 947 1113 1208 752 
Q 1469 391 1925 391 
Q 2381 391 2643 752 
Q 2906 1113 2906 1747 
Q 2906 2381 2643 2742 
Q 2381 3103 1925 3103 
Q 1469 3103 1208 2742 
Q 947 2381 947 1747 
z
" transform="scale(0.015625)"/>
       <path id="DejaVuSans-73" d="M 2834 3397 
L 2834 2853 
Q 2591 2978 2328 3040 
Q 2066 3103 1784 3103 
Q 1356 3103 1142 2972 
Q 928 2841 928 2578 
Q 928 2378 1081 2264 
Q 1234 2150 1697 2047 
L 1894 2003 
Q 2506 1872 2764 1633 
Q 3022 1394 3022 966 
Q 3022 478 2636 193 
Q 2250 -91 1575 -91 
Q 1294 -91 989 -36 
Q 684 19 347 128 
L 347 722 
Q 666 556 975 473 
Q 1284 391 1588 391 
Q 1994 391 2212 530 
Q 2431 669 2431 922 
Q 2431 1156 2273 1281 
Q 2116 1406 1581 1522 
L 1381 1569 
Q 847 1681 609 1914 
Q 372 2147 372 2553 
Q 372 3047 722 3315 
Q 1072 3584 1716 3584 
Q 2034 3584 2315 3537 
Q 2597 3491 2834 3397 
z
" transform="scale(0.015625)"/>
      </defs>
      <use xlink:href="#DejaVuSans-4e"/>
      <use xlink:href="#DejaVuSans-75" transform="translate(74.804688 0)"/>
      <use xlink:href="#DejaVuSans-6d" transform="translate(138.183594 0)"/>
      <use xlink:href="#DejaVuSans-62" transform="translate(235.595703 0)"/>
      <use xlink:href="#DejaVuSans-65" transform="translate(299.072266 0)"/>
      <use xlink:href="#DejaVuSans-72" transform="translate(360.595703 0)"/>
      <use xlink:href="#DejaVuSans-20" transform="translate(401.708984 0)"/>
      <use xlink:href="#DejaVuSans-6f" transform="translate(433.496094 0)"/>
      <use xlink:href="#DejaVuSans-66" transform="translate(494.677734 0)"/>
      <use xlink:href="#DejaVuSans-20" transform="translate(529.882812 0)"/>
      <use xlink:href="#DejaVuSans-68" transform="translate(561.669922 0)"/>
      <use xlink:href="#DejaVuSans-65" transform="translate(625.048828 0)"/>
      <use xlink:href="#DejaVuSans-61" transform="translate(686.572266 0)"/>
      <use xlink:href="#DejaVuSans-64" transform="translate(747.851562 0)"/>
      <use xlink:href="#DejaVuSans-73" transform="translate(811.328125 0)"/>
     </g>
    </g>
   </g>
   <g id="matplotlib.axis_2">
    <g id="ytick_1">
     <g id="line2d_7">
      <path d="M 51.111563 205.718125 
L 347.805312 205.718125 
" clip-path="url(#p4fea240ab5)" style="fill: none; stroke-dasharray: 2.96,1.28; stroke-dashoffset: 0; stroke: #b0b0b0; stroke-opacity: 0.4; stroke-width: 0.8"/>
     </g>
     <g id="line2d_8">
      <defs>
       <path id="mef1b6ffb09" d="M 0 0 
L -3.5 0 
" style="stroke: #000000; stroke-width: 0.8"/>
      </defs>
      <g>
       <use xlink:href="#mef1b6ffb09" x="51.111563" y="205.718125" style="stroke: #000000; stroke-width: 0.8"/>
      </g>
     </g>
     <g id="text_8">
      <!-- 0.00 -->
      <g transform="translate(21.845938 209.517344) scale(0.1 -0.1)">
       <defs>
        <path id="DejaVuSans-2e" d="M 684 794 
L 1344 794 
L 1344 0 
L 684 0 
L 684 794 
z
" transform="scale(0.015625)"/>
       </defs>
       <use xlink:href="#DejaVuSans-30"/>
       <use xlink:href="#DejaVuSans-2e" transform="translate(63.623047 0)"/>
       <use xlink:href="#DejaVuSans-30" transform="translate(95.410156 0)"/>
       <use xlink:href="#DejaVuSans-30" transform="translate(159.033203 0)"/>
      </g>
     </g>
    </g>
    <g id="ytick_2">
     <g id="line2d_9">
      <path d="M 51.111563 181.242312 
L 347.805312 181.242312 
" clip-path="url(#p4fea240ab5)" style="fill: none; stroke-dasharray: 2.96,1.28; stroke-dashoffset: 0; stroke: #b0b0b0; stroke-opacity: 0.4; stroke-width: 0.8"/>
     </g>
     <g id="line2d_10">
      <g>
       <use xlink:href="#mef1b6ffb09" x="51.111563" y="181.242312" style="stroke: #000000; stroke-width: 0.8"/>
      </g>
     </g>
     <g id="text_9">
      <!-- 0.05 -->
      <g transform="translate(21.845938 185.041531) scale(0.1 -0.1)">
       <use xlink:href="#DejaVuSans-30"/>
       <use xlink:href="#DejaVuSans-2e" transform="translate(63.623047 0)"/>
       <use xlink:href="#DejaVuSans-30" transform="translate(95.410156 0)"/>
       <use xlink:href="#DejaVuSans-35" transform="translate(159.033203 0)"/>
      </g>
     </g>
    </g>
    <g id="ytick_3">
     <g id="line2d_11">
      <path d="M 51.111563 156.7665 
L 347.805312 156.7665 
" clip-path="url(#p4fea240ab5)" style="fill: none; stroke-dasharray: 2.96,1.28; stroke-dashoffset: 0; stroke: #b0b0b0; stroke-opacity: 0.4; stroke-width: 0.8"/>
     </g>
     <g id="line2d_12">
      <g>
       <use xlink:href="#mef1b6ffb09" x="51.111563" y="156.7665" style="stroke: #000000; stroke-width: 0.8"/>
      </g>
     </g>
     <g id="text_10">
      <!-- 0.10 -->
      <g transform="translate(21.845938 160.565718) scale(0.1 -0.1)">
       <use xlink:href="#DejaVuSans-30"/>
       <use xlink:href="#DejaVuSans-2e" transform="translate(63.623047 0)"/>
       <use xlink:href="#DejaVuSans-31" transform="translate(95.410156 0)"/>
       <use xlink:href="#DejaVuSans-30" transform="translate(159.033203 0)"/>
      </g>
     </g>
    </g>
    <g id="ytick_4">
     <g id="line2d_13">
      <path d="M 51.111563 132.290687 
L 347.805312 132.290687 
" clip-path="url(#p4fea240ab5)" style="fill: none; stroke-dasharray: 2.96,1.28; stroke-dashoffset: 0; stroke: #b0b0b0; stroke-opacity: 0.4; stroke-width: 0.8"/>
     </g>
     <g id="line2d_14">
      <g>
       <use xlink:href="#mef1b6ffb09" x="51.111563" y="132.290687" style="stroke: #000000; stroke-width: 0.8"/>
      </g>
     </g>
     <g id="text_11">
      <!-- 0.15 -->
      <g transform="translate(21.845938 136.089906) scale(0.1 -0.1)">
       <use xlink:href="#DejaVuSans-30"/>
       <use xlink:href="#DejaVuSans-2e" transform="translate(63.623047 0)"/>
       <use xlink:href="#DejaVuSans-31" transform="translate(95.410156 0)"/>
       <use xlink:href="#DejaVuSans-35" transform="translate(159.033203 0)"/>
      </g>
     </g>
    </g>
    <g id="ytick_5">
     <g id="line2d_15">
      <path d="M 51.111563 107.814874 
L 347.805312 107.814874 
" clip-path="url(#p4fea240ab5)" style="fill: none; stroke-dasharray: 2.96,1.28; stroke-dashoffset: 0; stroke: #b0b0b0; stroke-opacity: 0.4; stroke-width: 0.8"/>
     </g>
     <g id="line2d_16">
      <g>
       <use xlink:href="#mef1b6ffb09" x="51.111563" y="107.814874" style="stroke: #000000; stroke-width: 0.8"/>
      </g>
     </g>
     <g id="text_12">
      <!-- 0.20 -->
      <g transform="translate(21.845938 111.614093) scale(0.1 -0.1)">
       <use xlink:href="#DejaVuSans-30"/>
       <use xlink:href="#DejaVuSans-2e" transform="translate(63.623047 0)"/>
       <use xlink:href="#DejaVuSans-32" transform="translate(95.410156 0)"/>
       <use xlink:href="#DejaVuSans-30" transform="translate(159.033203 0)"/>
      </g>
     </g>
    </g>
    <g id="ytick_6">
     <g id="line2d_17">
      <path d="M 51.111563 83.339061 
L 347.805312 83.339061 
" clip-path="url(#p4fea240ab5)" style="fill: none; stroke-dasharray: 2.96,1.28; stroke-dashoffset: 0; stroke: #b0b0b0; stroke-opacity: 0.4; stroke-width: 0.8"/>
     </g>
     <g id="line2d_18">
      <g>
       <use xlink:href="#mef1b6ffb09" x="51.111563" y="83.339061" style="stroke: #000000; stroke-width: 0.8"/>
      </g>
     </g>
     <g id="text_13">
      <!-- 0.25 -->
      <g transform="translate(21.845938 87.13828) scale(0.1 -0.1)">
       <use xlink:href="#DejaVuSans-30"/>
       <use xlink:href="#DejaVuSans-2e" transform="translate(63.623047 0)"/>
       <use xlink:href="#DejaVuSans-32" transform="translate(95.410156 0)"/>
       <use xlink:href="#DejaVuSans-35" transform="translate(159.033203 0)"/>
      </g>
     </g>
    </g>
    <g id="ytick_7">
     <g id="line2d_19">
      <path d="M 51.111563 58.863249 
L 347.805312 58.863249 
" clip-path="url(#p4fea240ab5)" style="fill: none; stroke-dasharray: 2.96,1.28; stroke-dashoffset: 0; stroke: #b0b0b0; stroke-opacity: 0.4; stroke-width: 0.8"/>
     </g>
     <g id="line2d_20">
      <g>
       <use xlink:href="#mef1b6ffb09" x="51.111563" y="58.863249" style="stroke: #000000; stroke-width: 0.8"/>
      </g>
     </g>
     <g id="text_14">
      <!-- 0.30 -->
      <g transform="translate(21.845938 62.662467) scale(0.1 -0.1)">
       <use xlink:href="#DejaVuSans-30"/>
       <use xlink:href="#DejaVuSans-2e" transform="translate(63.623047 0)"/>
       <use xlink:href="#DejaVuSans-33" transform="translate(95.410156 0)"/>
       <use xlink:href="#DejaVuSans-30" transform="translate(159.033203 0)"/>
      </g>
     </g>
    </g>
    <g id="ytick_8">
     <g id="line2d_21">
      <path d="M 51.111563 34.387436 
L 347.805312 34.387436 
" clip-path="url(#p4fea240ab5)" style="fill: none; stroke-dasharray: 2.96,1.28; stroke-dashoffset: 0; stroke: #b0b0b0; stroke-opacity: 0.4; stroke-width: 0.8"/>
     </g>
     <g id="line2d_22">
      <g>
       <use xlink:href="#mef1b6ffb09" x="51.111563" y="34.387436" style="stroke: #000000; stroke-width: 0.8"/>
      </g>
     </g>
     <g id="text_15">
      <!-- 0.35 -->
      <g transform="translate(21.845938 38.186655) scale(0.1 -0.1)">
       <use xlink:href="#DejaVuSans-30"/>
       <use xlink:href="#DejaVuSans-2e" transform="translate(63.623047 0)"/>
       <use xlink:href="#DejaVuSans-33" transform="translate(95.410156 0)"/>
       <use xlink:href="#DejaVuSans-35" transform="translate(159.033203 0)"/>
      </g>
     </g>
    </g>
    <g id="text_16">
     <!-- Probability -->
     <g transform="translate(15.558281 143.089922) rotate(-90) scale(0.11 -0.11)">
      <defs>
       <path id="DejaVuSans-50" d="M 1259 4147 
L 1259 2394 
L 2053 2394 
Q 2494 2394 2734 2622 
Q 2975 2850 2975 3272 
Q 2975 3691 2734 3919 
Q 2494 4147 2053 4147 
L 1259 4147 
z
M 628 4666 
L 2053 4666 
Q 2838 4666 3239 4311 
Q 3641 3956 3641 3272 
Q 3641 2581 3239 2228 
Q 2838 1875 2053 1875 
L 1259 1875 
L 1259 0 
L 628 0 
L 628 4666 
z
" transform="scale(0.015625)"/>
       <path id="DejaVuSans-69" d="M 603 3500 
L 1178 3500 
L 1178 0 
L 603 0 
L 603 3500 
z
M 603 4863 
L 1178 4863 
L 1178 4134 
L 603 4134 
L 603 4863 
z
" transform="scale(0.015625)"/>
       <path id="DejaVuSans-6c" d="M 603 4863 
L 1178 4863 
L 1178 0 
L 603 0 
L 603 4863 
z
" transform="scale(0.015625)"/>
       <path id="DejaVuSans-74" d="M 1172 4494 
L 1172 3500 
L 2356 3500 
L 2356 3053 
L 1172 3053 
L 1172 1153 
Q 1172 725 1289 603 
Q 1406 481 1766 481 
L 2356 481 
L 2356 0 
L 1766 0 
Q 1100 0 847 248 
Q 594 497 594 1153 
L 594 3053 
L 172 3053 
L 172 3500 
L 594 3500 
L 594 4494 
L 1172 4494 
z
" transform="scale(0.015625)"/>
       <path id="DejaVuSans-79" d="M 2059 -325 
Q 1816 -950 1584 -1140 
Q 1353 -1331 966 -1331 
L 506 -1331 
L 506 -850 
L 844 -850 
Q 1081 -850 1212 -737 
Q 1344 -625 1503 -206 
L 1606 56 
L 191 3500 
L 800 3500 
L 1894 763 
L 2988 3500 
L 3597 3500 
L 2059 -325 
z
" transform="scale(0.015625)"/>
      </defs>
      <use xlink:href="#DejaVuSans-50"/>
      <use xlink:href="#DejaVuSans-72" transform="translate(58.552734 0)"/>
      <use xlink:href="#DejaVuSans-6f" transform="translate(97.416016 0)"/>
      <use xlink:href="#DejaVuSans-62" transform="translate(158.597656 0)"/>
      <use xlink:href="#DejaVuSans-61" transform="translate(222.074219 0)"/>
      <use xlink:href="#DejaVuSans-62" transform="translate(283.353516 0)"/>
      <use xlink:href="#DejaVuSans-69" transform="translate(346.830078 0)"/>
      <use xlink:href="#DejaVuSans-6c" transform="translate(374.613281 0)"/>
      <use xlink:href="#DejaVuSans-69" transform="translate(402.396484 0)"/>
      <use xlink:href="#DejaVuSans-74" transform="translate(430.179688 0)"/>
      <use xlink:href="#DejaVuSans-79" transform="translate(469.388672 0)"/>
     </g>
    </g>
   </g>
   <g id="line2d_23">
    <path d="M 83.199131 191.380211 
L 86.309748 189.357183 
L 89.420365 187.115418 
L 92.530982 184.642062 
L 95.641599 181.925173 
L 98.752216 178.954025 
L 101.862832 175.719422 
L 104.973449 172.214038 
L 108.084066 168.432742 
L 111.972337 163.31444 
L 115.860608 157.762486 
L 119.74888 151.786084 
L 123.637151 145.403155 
L 128.303076 137.246149 
L 132.969001 128.609498 
L 138.412581 118.044128 
L 146.189123 102.375177 
L 157.076282 80.423452 
L 162.519862 70.006365 
L 166.408133 63.000471 
L 170.296404 56.469959 
L 173.407021 51.652686 
L 176.517638 47.248165 
L 179.628255 43.300123 
L 181.961217 40.66284 
L 184.29418 38.320114 
L 186.627143 36.285614 
L 188.960105 34.571323 
L 191.293068 33.187409 
L 193.626031 32.142135 
L 195.958993 31.44177 
L 197.514302 31.168644 
L 199.06961 31.051458 
L 200.624919 31.090529 
L 202.180227 31.28575 
L 203.735536 31.636599 
L 206.068498 32.452505 
L 208.401461 33.611455 
L 210.734424 35.106508 
L 213.067386 36.928758 
L 215.400349 39.067417 
L 217.733312 41.509927 
L 220.066274 44.242083 
L 223.176891 48.308149 
L 226.287508 52.820089 
L 229.398125 57.733344 
L 233.286396 64.366772 
L 237.174667 71.45586 
L 241.840593 80.423452 
L 248.839481 94.457243 
L 262.059602 121.107886 
L 267.503182 131.536748 
L 272.169107 140.022129 
L 276.835033 148.003579 
L 280.723304 154.226635 
L 284.611575 160.034903 
L 288.499846 165.414039 
L 292.388117 170.358104 
L 296.276388 174.868703 
L 299.387005 178.170394 
L 302.497622 181.206611 
L 305.608239 183.986113 
L 308.718856 186.519275 
L 311.829473 188.817763 
L 315.717744 191.380211 
L 315.717744 191.380211 
" clip-path="url(#p4fea240ab5)" style="fill: none; stroke: #cc7000; stroke-width: 2.5; stroke-linecap: square"/>
   </g>
   <g id="patch_9">
    <path d="M 51.111563 205.718125 
L 51.111563 22.318125 
" style="fill: none; stroke: #000000; stroke-width: 0.8; stroke-linejoin: miter; stroke-linecap: square"/>
   </g>
   <g id="patch_10">
    <path d="M 347.805312 205.718125 
L 347.805312 22.318125 
" style="fill: none; stroke: #000000; stroke-width: 0.8; stroke-linejoin: miter; stroke-linecap: square"/>
   </g>
   <g id="patch_11">
    <path d="M 51.111562 205.718125 
L 347.805312 205.718125 
" style="fill: none; stroke: #000000; stroke-width: 0.8; stroke-linejoin: miter; stroke-linecap: square"/>
   </g>
   <g id="patch_12">
    <path d="M 51.111562 22.318125 
L 347.805312 22.318125 
" style="fill: none; stroke: #000000; stroke-width: 0.8; stroke-linejoin: miter; stroke-linecap: square"/>
   </g>
   <g id="text_17">
    <!-- Binomial(n=5, p=0.5) -->
    <g style="fill: #808080" transform="translate(133.824062 16.318125) scale(0.12 -0.12)">
     <defs>
      <path id="DejaVuSans-42" d="M 1259 2228 
L 1259 519 
L 2272 519 
Q 2781 519 3026 730 
Q 3272 941 3272 1375 
Q 3272 1813 3026 2020 
Q 2781 2228 2272 2228 
L 1259 2228 
z
M 1259 4147 
L 1259 2741 
L 2194 2741 
Q 2656 2741 2882 2914 
Q 3109 3088 3109 3444 
Q 3109 3797 2882 3972 
Q 2656 4147 2194 4147 
L 1259 4147 
z
M 628 4666 
L 2241 4666 
Q 2963 4666 3353 4366 
Q 3744 4066 3744 3513 
Q 3744 3084 3544 2831 
Q 3344 2578 2956 2516 
Q 3422 2416 3680 2098 
Q 3938 1781 3938 1306 
Q 3938 681 3513 340 
Q 3088 0 2303 0 
L 628 0 
L 628 4666 
z
" transform="scale(0.015625)"/>
      <path id="DejaVuSans-6e" d="M 3513 2113 
L 3513 0 
L 2938 0 
L 2938 2094 
Q 2938 2591 2744 2837 
Q 2550 3084 2163 3084 
Q 1697 3084 1428 2787 
Q 1159 2491 1159 1978 
L 1159 0 
L 581 0 
L 581 3500 
L 1159 3500 
L 1159 2956 
Q 1366 3272 1645 3428 
Q 1925 3584 2291 3584 
Q 2894 3584 3203 3211 
Q 3513 2838 3513 2113 
z
" transform="scale(0.015625)"/>
      <path id="DejaVuSans-28" d="M 1984 4856 
Q 1566 4138 1362 3434 
Q 1159 2731 1159 2009 
Q 1159 1288 1364 580 
Q 1569 -128 1984 -844 
L 1484 -844 
Q 1016 -109 783 600 
Q 550 1309 550 2009 
Q 550 2706 781 3412 
Q 1013 4119 1484 4856 
L 1984 4856 
z
" transform="scale(0.015625)"/>
      <path id="DejaVuSans-3d" d="M 678 2906 
L 4684 2906 
L 4684 2381 
L 678 2381 
L 678 2906 
z
M 678 1631 
L 4684 1631 
L 4684 1100 
L 678 1100 
L 678 1631 
z
" transform="scale(0.015625)"/>
      <path id="DejaVuSans-2c" d="M 750 794 
L 1409 794 
L 1409 256 
L 897 -744 
L 494 -744 
L 750 256 
L 750 794 
z
" transform="scale(0.015625)"/>
      <path id="DejaVuSans-70" d="M 1159 525 
L 1159 -1331 
L 581 -1331 
L 581 3500 
L 1159 3500 
L 1159 2969 
Q 1341 3281 1617 3432 
Q 1894 3584 2278 3584 
Q 2916 3584 3314 3078 
Q 3713 2572 3713 1747 
Q 3713 922 3314 415 
Q 2916 -91 2278 -91 
Q 1894 -91 1617 61 
Q 1341 213 1159 525 
z
M 3116 1747 
Q 3116 2381 2855 2742 
Q 2594 3103 2138 3103 
Q 1681 3103 1420 2742 
Q 1159 2381 1159 1747 
Q 1159 1113 1420 752 
Q 1681 391 2138 391 
Q 2594 391 2855 752 
Q 3116 1113 3116 1747 
z
" transform="scale(0.015625)"/>
      <path id="DejaVuSans-29" d="M 513 4856 
L 1013 4856 
Q 1481 4119 1714 3412 
Q 1947 2706 1947 2009 
Q 1947 1309 1714 600 
Q 1481 -109 1013 -844 
L 513 -844 
Q 928 -128 1133 580 
Q 1338 1288 1338 2009 
Q 1338 2731 1133 3434 
Q 928 4138 513 4856 
z
" transform="scale(0.015625)"/>
     </defs>
     <use xlink:href="#DejaVuSans-42"/>
     <use xlink:href="#DejaVuSans-69" transform="translate(68.603516 0)"/>
     <use xlink:href="#DejaVuSans-6e" transform="translate(96.386719 0)"/>
     <use xlink:href="#DejaVuSans-6f" transform="translate(159.765625 0)"/>
     <use xlink:href="#DejaVuSans-6d" transform="translate(220.947266 0)"/>
     <use xlink:href="#DejaVuSans-69" transform="translate(318.359375 0)"/>
     <use xlink:href="#DejaVuSans-61" transform="translate(346.142578 0)"/>
     <use xlink:href="#DejaVuSans-6c" transform="translate(407.421875 0)"/>
     <use xlink:href="#DejaVuSans-28" transform="translate(435.205078 0)"/>
     <use xlink:href="#DejaVuSans-6e" transform="translate(474.21875 0)"/>
     <use xlink:href="#DejaVuSans-3d" transform="translate(537.597656 0)"/>
     <use xlink:href="#DejaVuSans-35" transform="translate(621.386719 0)"/>
     <use xlink:href="#DejaVuSans-2c" transform="translate(685.009766 0)"/>
     <use xlink:href="#DejaVuSans-20" transform="translate(716.796875 0)"/>
     <use xlink:href="#DejaVuSans-70" transform="translate(748.583984 0)"/>
     <use xlink:href="#DejaVuSans-3d" transform="translate(812.060547 0)"/>
     <use xlink:href="#DejaVuSans-30" transform="translate(895.849609 0)"/>
     <use xlink:href="#DejaVuSans-2e" transform="translate(959.472656 0)"/>
     <use xlink:href="#DejaVuSans-35" transform="translate(991.259766 0)"/>
     <use xlink:href="#DejaVuSans-29" transform="translate(1054.882812 0)"/>
    </g>
   </g>
  </g>
  <g id="axes_2">
   <g id="patch_13">
    <path d="M 409.636563 205.718125 
L 706.330313 205.718125 
L 706.330313 22.318125 
L 409.636563 22.318125 
z
" style="fill: #ffffff"/>
   </g>
   <g id="patch_14">
    <path d="M 423.122642 205.718125 
L 433.496549 205.718125 
L 433.496549 205.717191 
L 423.122642 205.717191 
z
" clip-path="url(#p6113277a23)" style="fill: #4682b4; opacity: 0.7"/>
   </g>
   <g id="patch_15">
    <path d="M 436.090026 205.718125 
L 446.463934 205.718125 
L 446.463934 205.69945 
L 436.090026 205.69945 
z
" clip-path="url(#p6113277a23)" style="fill: #4682b4; opacity: 0.7"/>
   </g>
   <g id="patch_16">
    <path d="M 449.05741 205.718125 
L 459.431318 205.718125 
L 459.431318 205.540711 
L 449.05741 205.540711 
z
" clip-path="url(#p6113277a23)" style="fill: #4682b4; opacity: 0.7"/>
   </g>
   <g id="patch_17">
    <path d="M 462.024795 205.718125 
L 472.398702 205.718125 
L 472.398702 204.653643 
L 462.024795 204.653643 
z
" clip-path="url(#p6113277a23)" style="fill: #4682b4; opacity: 0.7"/>
   </g>
   <g id="patch_18">
    <path d="M 474.992179 205.718125 
L 485.366086 205.718125 
L 485.366086 201.194075 
L 474.992179 201.194075 
z
" clip-path="url(#p6113277a23)" style="fill: #4682b4; opacity: 0.7"/>
   </g>
   <g id="patch_19">
    <path d="M 487.959563 205.718125 
L 498.33347 205.718125 
L 498.33347 191.241164 
L 487.959563 191.241164 
z
" clip-path="url(#p6113277a23)" style="fill: #4682b4; opacity: 0.7"/>
   </g>
   <g id="patch_20">
    <path d="M 500.926947 205.718125 
L 511.300854 205.718125 
L 511.300854 169.525723 
L 500.926947 169.525723 
z
" clip-path="url(#p6113277a23)" style="fill: #4682b4; opacity: 0.7"/>
   </g>
   <g id="patch_21">
    <path d="M 513.894331 205.718125 
L 524.268239 205.718125 
L 524.268239 133.333322 
L 513.894331 133.333322 
z
" clip-path="url(#p6113277a23)" style="fill: #4682b4; opacity: 0.7"/>
   </g>
   <g id="patch_22">
    <path d="M 526.861715 205.718125 
L 537.235623 205.718125 
L 537.235623 88.09282 
L 526.861715 88.09282 
z
" clip-path="url(#p6113277a23)" style="fill: #4682b4; opacity: 0.7"/>
   </g>
   <g id="patch_23">
    <path d="M 539.8291 205.718125 
L 550.203007 205.718125 
L 550.203007 48.884385 
L 539.8291 48.884385 
z
" clip-path="url(#p6113277a23)" style="fill: #4682b4; opacity: 0.7"/>
   </g>
   <g id="patch_24">
    <path d="M 552.796484 205.718125 
L 563.170391 205.718125 
L 563.170391 33.201011 
L 552.796484 33.201011 
z
" clip-path="url(#p6113277a23)" style="fill: #4682b4; opacity: 0.7"/>
   </g>
   <g id="patch_25">
    <path d="M 565.763868 205.718125 
L 576.137775 205.718125 
L 576.137775 48.884385 
L 565.763868 48.884385 
z
" clip-path="url(#p6113277a23)" style="fill: #4682b4; opacity: 0.7"/>
   </g>
   <g id="patch_26">
    <path d="M 578.731252 205.718125 
L 589.10516 205.718125 
L 589.10516 88.09282 
L 578.731252 88.09282 
z
" clip-path="url(#p6113277a23)" style="fill: #4682b4; opacity: 0.7"/>
   </g>
   <g id="patch_27">
    <path d="M 591.698636 205.718125 
L 602.072544 205.718125 
L 602.072544 133.333322 
L 591.698636 133.333322 
z
" clip-path="url(#p6113277a23)" style="fill: #4682b4; opacity: 0.7"/>
   </g>
   <g id="patch_28">
    <path d="M 604.666021 205.718125 
L 615.039928 205.718125 
L 615.039928 169.525723 
L 604.666021 169.525723 
z
" clip-path="url(#p6113277a23)" style="fill: #4682b4; opacity: 0.7"/>
   </g>
   <g id="patch_29">
    <path d="M 617.633405 205.718125 
L 628.007312 205.718125 
L 628.007312 191.241164 
L 617.633405 191.241164 
z
" clip-path="url(#p6113277a23)" style="fill: #4682b4; opacity: 0.7"/>
   </g>
   <g id="patch_30">
    <path d="M 630.600789 205.718125 
L 640.974696 205.718125 
L 640.974696 201.194075 
L 630.600789 201.194075 
z
" clip-path="url(#p6113277a23)" style="fill: #4682b4; opacity: 0.7"/>
   </g>
   <g id="patch_31">
    <path d="M 643.568173 205.718125 
L 653.94208 205.718125 
L 653.94208 204.653643 
L 643.568173 204.653643 
z
" clip-path="url(#p6113277a23)" style="fill: #4682b4; opacity: 0.7"/>
   </g>
   <g id="patch_32">
    <path d="M 656.535557 205.718125 
L 666.909465 205.718125 
L 666.909465 205.540711 
L 656.535557 205.540711 
z
" clip-path="url(#p6113277a23)" style="fill: #4682b4; opacity: 0.7"/>
   </g>
   <g id="patch_33">
    <path d="M 669.502941 205.718125 
L 679.876849 205.718125 
L 679.876849 205.69945 
L 669.502941 205.69945 
z
" clip-path="url(#p6113277a23)" style="fill: #4682b4; opacity: 0.7"/>
   </g>
   <g id="patch_34">
    <path d="M 682.470326 205.718125 
L 692.844233 205.718125 
L 692.844233 205.717191 
L 682.470326 205.717191 
z
" clip-path="url(#p6113277a23)" style="fill: #4682b4; opacity: 0.7"/>
   </g>
   <g id="matplotlib.axis_3">
    <g id="xtick_7">
     <g id="line2d_24">
      <g>
       <use xlink:href="#m5e0dc4ca91" x="428.309596" y="205.718125" style="stroke: #000000; stroke-width: 0.8"/>
      </g>
     </g>
     <g id="text_18">
      <!-- 0 -->
      <g transform="translate(425.128346 220.316562) scale(0.1 -0.1)">
       <use xlink:href="#DejaVuSans-30"/>
      </g>
     </g>
    </g>
    <g id="xtick_8">
     <g id="line2d_25">
      <g>
       <use xlink:href="#m5e0dc4ca91" x="493.146517" y="205.718125" style="stroke: #000000; stroke-width: 0.8"/>
      </g>
     </g>
     <g id="text_19">
      <!-- 5 -->
      <g transform="translate(489.965267 220.316562) scale(0.1 -0.1)">
       <use xlink:href="#DejaVuSans-35"/>
      </g>
     </g>
    </g>
    <g id="xtick_9">
     <g id="line2d_26">
      <g>
       <use xlink:href="#m5e0dc4ca91" x="557.983438" y="205.718125" style="stroke: #000000; stroke-width: 0.8"/>
      </g>
     </g>
     <g id="text_20">
      <!-- 10 -->
      <g transform="translate(551.620938 220.316562) scale(0.1 -0.1)">
       <use xlink:href="#DejaVuSans-31"/>
       <use xlink:href="#DejaVuSans-30" transform="translate(63.623047 0)"/>
      </g>
     </g>
    </g>
    <g id="xtick_10">
     <g id="line2d_27">
      <g>
       <use xlink:href="#m5e0dc4ca91" x="622.820358" y="205.718125" style="stroke: #000000; stroke-width: 0.8"/>
      </g>
     </g>
     <g id="text_21">
      <!-- 15 -->
      <g transform="translate(616.457858 220.316562) scale(0.1 -0.1)">
       <use xlink:href="#DejaVuSans-31"/>
       <use xlink:href="#DejaVuSans-35" transform="translate(63.623047 0)"/>
      </g>
     </g>
    </g>
    <g id="xtick_11">
     <g id="line2d_28">
      <g>
       <use xlink:href="#m5e0dc4ca91" x="687.657279" y="205.718125" style="stroke: #000000; stroke-width: 0.8"/>
      </g>
     </g>
     <g id="text_22">
      <!-- 20 -->
      <g transform="translate(681.294779 220.316562) scale(0.1 -0.1)">
       <use xlink:href="#DejaVuSans-32"/>
       <use xlink:href="#DejaVuSans-30" transform="translate(63.623047 0)"/>
      </g>
     </g>
    </g>
    <g id="text_23">
     <!-- Number of heads -->
     <g transform="translate(510.494375 234.754531) scale(0.11 -0.11)">
      <use xlink:href="#DejaVuSans-4e"/>
      <use xlink:href="#DejaVuSans-75" transform="translate(74.804688 0)"/>
      <use xlink:href="#DejaVuSans-6d" transform="translate(138.183594 0)"/>
      <use xlink:href="#DejaVuSans-62" transform="translate(235.595703 0)"/>
      <use xlink:href="#DejaVuSans-65" transform="translate(299.072266 0)"/>
      <use xlink:href="#DejaVuSans-72" transform="translate(360.595703 0)"/>
      <use xlink:href="#DejaVuSans-20" transform="translate(401.708984 0)"/>
      <use xlink:href="#DejaVuSans-6f" transform="translate(433.496094 0)"/>
      <use xlink:href="#DejaVuSans-66" transform="translate(494.677734 0)"/>
      <use xlink:href="#DejaVuSans-20" transform="translate(529.882812 0)"/>
      <use xlink:href="#DejaVuSans-68" transform="translate(561.669922 0)"/>
      <use xlink:href="#DejaVuSans-65" transform="translate(625.048828 0)"/>
      <use xlink:href="#DejaVuSans-61" transform="translate(686.572266 0)"/>
      <use xlink:href="#DejaVuSans-64" transform="translate(747.851562 0)"/>
      <use xlink:href="#DejaVuSans-73" transform="translate(811.328125 0)"/>
     </g>
    </g>
   </g>
   <g id="matplotlib.axis_4">
    <g id="ytick_9">
     <g id="line2d_29">
      <path d="M 409.636563 205.718125 
L 706.330313 205.718125 
" clip-path="url(#p6113277a23)" style="fill: none; stroke-dasharray: 2.96,1.28; stroke-dashoffset: 0; stroke: #b0b0b0; stroke-opacity: 0.4; stroke-width: 0.8"/>
     </g>
     <g id="line2d_30">
      <g>
       <use xlink:href="#mef1b6ffb09" x="409.636563" y="205.718125" style="stroke: #000000; stroke-width: 0.8"/>
      </g>
     </g>
     <g id="text_24">
      <!-- 0.000 -->
      <g transform="translate(374.008438 209.517344) scale(0.1 -0.1)">
       <use xlink:href="#DejaVuSans-30"/>
       <use xlink:href="#DejaVuSans-2e" transform="translate(63.623047 0)"/>
       <use xlink:href="#DejaVuSans-30" transform="translate(95.410156 0)"/>
       <use xlink:href="#DejaVuSans-30" transform="translate(159.033203 0)"/>
       <use xlink:href="#DejaVuSans-30" transform="translate(222.65625 0)"/>
      </g>
     </g>
    </g>
    <g id="ytick_10">
     <g id="line2d_31">
      <path d="M 409.636563 181.240259 
L 706.330313 181.240259 
" clip-path="url(#p6113277a23)" style="fill: none; stroke-dasharray: 2.96,1.28; stroke-dashoffset: 0; stroke: #b0b0b0; stroke-opacity: 0.4; stroke-width: 0.8"/>
     </g>
     <g id="line2d_32">
      <g>
       <use xlink:href="#mef1b6ffb09" x="409.636563" y="181.240259" style="stroke: #000000; stroke-width: 0.8"/>
      </g>
     </g>
     <g id="text_25">
      <!-- 0.025 -->
      <g transform="translate(374.008438 185.039478) scale(0.1 -0.1)">
       <use xlink:href="#DejaVuSans-30"/>
       <use xlink:href="#DejaVuSans-2e" transform="translate(63.623047 0)"/>
       <use xlink:href="#DejaVuSans-30" transform="translate(95.410156 0)"/>
       <use xlink:href="#DejaVuSans-32" transform="translate(159.033203 0)"/>
       <use xlink:href="#DejaVuSans-35" transform="translate(222.65625 0)"/>
      </g>
     </g>
    </g>
    <g id="ytick_11">
     <g id="line2d_33">
      <path d="M 409.636563 156.762393 
L 706.330313 156.762393 
" clip-path="url(#p6113277a23)" style="fill: none; stroke-dasharray: 2.96,1.28; stroke-dashoffset: 0; stroke: #b0b0b0; stroke-opacity: 0.4; stroke-width: 0.8"/>
     </g>
     <g id="line2d_34">
      <g>
       <use xlink:href="#mef1b6ffb09" x="409.636563" y="156.762393" style="stroke: #000000; stroke-width: 0.8"/>
      </g>
     </g>
     <g id="text_26">
      <!-- 0.050 -->
      <g transform="translate(374.008438 160.561611) scale(0.1 -0.1)">
       <use xlink:href="#DejaVuSans-30"/>
       <use xlink:href="#DejaVuSans-2e" transform="translate(63.623047 0)"/>
       <use xlink:href="#DejaVuSans-30" transform="translate(95.410156 0)"/>
       <use xlink:href="#DejaVuSans-35" transform="translate(159.033203 0)"/>
       <use xlink:href="#DejaVuSans-30" transform="translate(222.65625 0)"/>
      </g>
     </g>
    </g>
    <g id="ytick_12">
     <g id="line2d_35">
      <path d="M 409.636563 132.284527 
L 706.330313 132.284527 
" clip-path="url(#p6113277a23)" style="fill: none; stroke-dasharray: 2.96,1.28; stroke-dashoffset: 0; stroke: #b0b0b0; stroke-opacity: 0.4; stroke-width: 0.8"/>
     </g>
     <g id="line2d_36">
      <g>
       <use xlink:href="#mef1b6ffb09" x="409.636563" y="132.284527" style="stroke: #000000; stroke-width: 0.8"/>
      </g>
     </g>
     <g id="text_27">
      <!-- 0.075 -->
      <g transform="translate(374.008438 136.083745) scale(0.1 -0.1)">
       <defs>
        <path id="DejaVuSans-37" d="M 525 4666 
L 3525 4666 
L 3525 4397 
L 1831 0 
L 1172 0 
L 2766 4134 
L 525 4134 
L 525 4666 
z
" transform="scale(0.015625)"/>
       </defs>
       <use xlink:href="#DejaVuSans-30"/>
       <use xlink:href="#DejaVuSans-2e" transform="translate(63.623047 0)"/>
       <use xlink:href="#DejaVuSans-30" transform="translate(95.410156 0)"/>
       <use xlink:href="#DejaVuSans-37" transform="translate(159.033203 0)"/>
       <use xlink:href="#DejaVuSans-35" transform="translate(222.65625 0)"/>
      </g>
     </g>
    </g>
    <g id="ytick_13">
     <g id="line2d_37">
      <path d="M 409.636563 107.80666 
L 706.330313 107.80666 
" clip-path="url(#p6113277a23)" style="fill: none; stroke-dasharray: 2.96,1.28; stroke-dashoffset: 0; stroke: #b0b0b0; stroke-opacity: 0.4; stroke-width: 0.8"/>
     </g>
     <g id="line2d_38">
      <g>
       <use xlink:href="#mef1b6ffb09" x="409.636563" y="107.80666" style="stroke: #000000; stroke-width: 0.8"/>
      </g>
     </g>
     <g id="text_28">
      <!-- 0.100 -->
      <g transform="translate(374.008438 111.605879) scale(0.1 -0.1)">
       <use xlink:href="#DejaVuSans-30"/>
       <use xlink:href="#DejaVuSans-2e" transform="translate(63.623047 0)"/>
       <use xlink:href="#DejaVuSans-31" transform="translate(95.410156 0)"/>
       <use xlink:href="#DejaVuSans-30" transform="translate(159.033203 0)"/>
       <use xlink:href="#DejaVuSans-30" transform="translate(222.65625 0)"/>
      </g>
     </g>
    </g>
    <g id="ytick_14">
     <g id="line2d_39">
      <path d="M 409.636563 83.328794 
L 706.330313 83.328794 
" clip-path="url(#p6113277a23)" style="fill: none; stroke-dasharray: 2.96,1.28; stroke-dashoffset: 0; stroke: #b0b0b0; stroke-opacity: 0.4; stroke-width: 0.8"/>
     </g>
     <g id="line2d_40">
      <g>
       <use xlink:href="#mef1b6ffb09" x="409.636563" y="83.328794" style="stroke: #000000; stroke-width: 0.8"/>
      </g>
     </g>
     <g id="text_29">
      <!-- 0.125 -->
      <g transform="translate(374.008438 87.128013) scale(0.1 -0.1)">
       <use xlink:href="#DejaVuSans-30"/>
       <use xlink:href="#DejaVuSans-2e" transform="translate(63.623047 0)"/>
       <use xlink:href="#DejaVuSans-31" transform="translate(95.410156 0)"/>
       <use xlink:href="#DejaVuSans-32" transform="translate(159.033203 0)"/>
       <use xlink:href="#DejaVuSans-35" transform="translate(222.65625 0)"/>
      </g>
     </g>
    </g>
    <g id="ytick_15">
     <g id="line2d_41">
      <path d="M 409.636563 58.850928 
L 706.330313 58.850928 
" clip-path="url(#p6113277a23)" style="fill: none; stroke-dasharray: 2.96,1.28; stroke-dashoffset: 0; stroke: #b0b0b0; stroke-opacity: 0.4; stroke-width: 0.8"/>
     </g>
     <g id="line2d_42">
      <g>
       <use xlink:href="#mef1b6ffb09" x="409.636563" y="58.850928" style="stroke: #000000; stroke-width: 0.8"/>
      </g>
     </g>
     <g id="text_30">
      <!-- 0.150 -->
      <g transform="translate(374.008438 62.650147) scale(0.1 -0.1)">
       <use xlink:href="#DejaVuSans-30"/>
       <use xlink:href="#DejaVuSans-2e" transform="translate(63.623047 0)"/>
       <use xlink:href="#DejaVuSans-31" transform="translate(95.410156 0)"/>
       <use xlink:href="#DejaVuSans-35" transform="translate(159.033203 0)"/>
       <use xlink:href="#DejaVuSans-30" transform="translate(222.65625 0)"/>
      </g>
     </g>
    </g>
    <g id="ytick_16">
     <g id="line2d_43">
      <path d="M 409.636563 34.373062 
L 706.330313 34.373062 
" clip-path="url(#p6113277a23)" style="fill: none; stroke-dasharray: 2.96,1.28; stroke-dashoffset: 0; stroke: #b0b0b0; stroke-opacity: 0.4; stroke-width: 0.8"/>
     </g>
     <g id="line2d_44">
      <g>
       <use xlink:href="#mef1b6ffb09" x="409.636563" y="34.373062" style="stroke: #000000; stroke-width: 0.8"/>
      </g>
     </g>
     <g id="text_31">
      <!-- 0.175 -->
      <g transform="translate(374.008438 38.172281) scale(0.1 -0.1)">
       <use xlink:href="#DejaVuSans-30"/>
       <use xlink:href="#DejaVuSans-2e" transform="translate(63.623047 0)"/>
       <use xlink:href="#DejaVuSans-31" transform="translate(95.410156 0)"/>
       <use xlink:href="#DejaVuSans-37" transform="translate(159.033203 0)"/>
       <use xlink:href="#DejaVuSans-35" transform="translate(222.65625 0)"/>
      </g>
     </g>
    </g>
    <g id="text_32">
     <!-- Probability -->
     <g transform="translate(367.720781 143.089922) rotate(-90) scale(0.11 -0.11)">
      <use xlink:href="#DejaVuSans-50"/>
      <use xlink:href="#DejaVuSans-72" transform="translate(58.552734 0)"/>
      <use xlink:href="#DejaVuSans-6f" transform="translate(97.416016 0)"/>
      <use xlink:href="#DejaVuSans-62" transform="translate(158.597656 0)"/>
      <use xlink:href="#DejaVuSans-61" transform="translate(222.074219 0)"/>
      <use xlink:href="#DejaVuSans-62" transform="translate(283.353516 0)"/>
      <use xlink:href="#DejaVuSans-69" transform="translate(346.830078 0)"/>
      <use xlink:href="#DejaVuSans-6c" transform="translate(374.613281 0)"/>
      <use xlink:href="#DejaVuSans-69" transform="translate(402.396484 0)"/>
      <use xlink:href="#DejaVuSans-74" transform="translate(430.179688 0)"/>
      <use xlink:href="#DejaVuSans-79" transform="translate(469.388672 0)"/>
     </g>
    </g>
   </g>
   <g id="line2d_45">
    <path d="M 428.309596 205.710194 
L 448.259418 205.582352 
L 456.933253 205.315414 
L 463.004938 204.900796 
L 467.341856 204.398922 
L 470.81139 203.814206 
L 474.280924 203.009386 
L 476.883075 202.222495 
L 479.485226 201.243194 
L 482.087376 200.035494 
L 484.689527 198.559741 
L 487.291678 196.773073 
L 489.893828 194.630127 
L 492.495979 192.084048 
L 495.09813 189.0878 
L 497.70028 185.595803 
L 500.302431 181.565863 
L 502.904582 176.961369 
L 505.506732 171.753694 
L 508.108883 165.924715 
L 510.711034 159.46934 
L 513.313184 152.397912 
L 515.915335 144.738355 
L 519.384869 133.695287 
L 522.854403 121.861639 
L 528.058705 103.15824 
L 534.997773 78.132342 
L 538.467307 66.438484 
L 541.069458 58.36102 
L 543.671609 51.065645 
L 545.406376 46.715499 
L 547.141143 42.827084 
L 548.87591 39.439816 
L 550.610677 36.588575 
L 552.345444 34.303101 
L 554.080211 32.607481 
L 554.947595 31.986742 
L 555.814979 31.519728 
L 556.682362 31.207688 
L 557.549746 31.051458 
L 558.417129 31.051458 
L 559.284513 31.207688 
L 560.151896 31.519728 
L 561.01928 31.986742 
L 561.886664 32.607481 
L 562.754047 33.380287 
L 564.488814 35.373473 
L 566.223581 37.945206 
L 567.958348 41.068513 
L 569.693116 44.711013 
L 571.427883 48.835479 
L 573.16265 53.40047 
L 575.7648 60.974795 
L 578.366951 69.27576 
L 581.836485 81.177976 
L 587.90817 103.15824 
L 593.979855 124.882464 
L 597.449389 136.537886 
L 600.918924 147.354386 
L 603.521074 154.822164 
L 606.123225 161.690435 
L 608.725376 167.937352 
L 611.327526 173.557969 
L 613.929677 178.561998 
L 616.531828 182.971348 
L 619.133978 186.817583 
L 621.736129 190.139431 
L 624.33828 192.98045 
L 626.94043 195.386903 
L 629.542581 197.405933 
L 632.144732 199.084029 
L 634.746882 200.465815 
L 637.349033 201.59315 
L 639.951184 202.504504 
L 643.420718 203.443106 
L 646.890252 204.130466 
L 651.22717 204.725629 
L 656.431471 205.16976 
L 662.503156 205.454622 
L 672.044375 205.641891 
L 687.657279 205.710194 
L 687.657279 205.710194 
" clip-path="url(#p6113277a23)" style="fill: none; stroke: #cc7000; stroke-width: 2.5; stroke-linecap: square"/>
   </g>
   <g id="patch_35">
    <path d="M 409.636563 205.718125 
L 409.636563 22.318125 
" style="fill: none; stroke: #000000; stroke-width: 0.8; stroke-linejoin: miter; stroke-linecap: square"/>
   </g>
   <g id="patch_36">
    <path d="M 706.330313 205.718125 
L 706.330313 22.318125 
" style="fill: none; stroke: #000000; stroke-width: 0.8; stroke-linejoin: miter; stroke-linecap: square"/>
   </g>
   <g id="patch_37">
    <path d="M 409.636563 205.718125 
L 706.330313 205.718125 
" style="fill: none; stroke: #000000; stroke-width: 0.8; stroke-linejoin: miter; stroke-linecap: square"/>
   </g>
   <g id="patch_38">
    <path d="M 409.636563 22.318125 
L 706.330313 22.318125 
" style="fill: none; stroke: #000000; stroke-width: 0.8; stroke-linejoin: miter; stroke-linecap: square"/>
   </g>
   <g id="text_33">
    <!-- Binomial(n=20, p=0.5) -->
    <g style="fill: #808080" transform="translate(488.531563 16.318125) scale(0.12 -0.12)">
     <use xlink:href="#DejaVuSans-42"/>
     <use xlink:href="#DejaVuSans-69" transform="translate(68.603516 0)"/>
     <use xlink:href="#DejaVuSans-6e" transform="translate(96.386719 0)"/>
     <use xlink:href="#DejaVuSans-6f" transform="translate(159.765625 0)"/>
     <use xlink:href="#DejaVuSans-6d" transform="translate(220.947266 0)"/>
     <use xlink:href="#DejaVuSans-69" transform="translate(318.359375 0)"/>
     <use xlink:href="#DejaVuSans-61" transform="translate(346.142578 0)"/>
     <use xlink:href="#DejaVuSans-6c" transform="translate(407.421875 0)"/>
     <use xlink:href="#DejaVuSans-28" transform="translate(435.205078 0)"/>
     <use xlink:href="#DejaVuSans-6e" transform="translate(474.21875 0)"/>
     <use xlink:href="#DejaVuSans-3d" transform="translate(537.597656 0)"/>
     <use xlink:href="#DejaVuSans-32" transform="translate(621.386719 0)"/>
     <use xlink:href="#DejaVuSans-30" transform="translate(685.009766 0)"/>
     <use xlink:href="#DejaVuSans-2c" transform="translate(748.632812 0)"/>
     <use xlink:href="#DejaVuSans-20" transform="translate(780.419922 0)"/>
     <use xlink:href="#DejaVuSans-70" transform="translate(812.207031 0)"/>
     <use xlink:href="#DejaVuSans-3d" transform="translate(875.683594 0)"/>
     <use xlink:href="#DejaVuSans-30" transform="translate(959.472656 0)"/>
     <use xlink:href="#DejaVuSans-2e" transform="translate(1023.095703 0)"/>
     <use xlink:href="#DejaVuSans-35" transform="translate(1054.882812 0)"/>
     <use xlink:href="#DejaVuSans-29" transform="translate(1118.505859 0)"/>
    </g>
   </g>
  </g>
  <g id="axes_3">
   <g id="patch_39">
    <path d="M 768.161563 205.718125 
L 1064.855313 205.718125 
L 1064.855313 22.318125 
L 768.161563 22.318125 
z
" style="fill: #ffffff"/>
   </g>
   <g id="patch_40">
    <path d="M 781.647642 205.718125 
L 783.78829 205.718125 
L 783.78829 205.718125 
L 781.647642 205.718125 
z
" clip-path="url(#pcef7f42efe)" style="fill: #4682b4; opacity: 0.7"/>
   </g>
   <g id="patch_41">
    <path d="M 784.323451 205.718125 
L 786.464099 205.718125 
L 786.464099 205.718125 
L 784.323451 205.718125 
z
" clip-path="url(#pcef7f42efe)" style="fill: #4682b4; opacity: 0.7"/>
   </g>
   <g id="patch_42">
    <path d="M 786.999261 205.718125 
L 789.139908 205.718125 
L 789.139908 205.718125 
L 786.999261 205.718125 
z
" clip-path="url(#pcef7f42efe)" style="fill: #4682b4; opacity: 0.7"/>
   </g>
   <g id="patch_43">
    <path d="M 789.67507 205.718125 
L 791.815718 205.718125 
L 791.815718 205.718125 
L 789.67507 205.718125 
z
" clip-path="url(#pcef7f42efe)" style="fill: #4682b4; opacity: 0.7"/>
   </g>
   <g id="patch_44">
    <path d="M 792.35088 205.718125 
L 794.491527 205.718125 
L 794.491527 205.718125 
L 792.35088 205.718125 
z
" clip-path="url(#pcef7f42efe)" style="fill: #4682b4; opacity: 0.7"/>
   </g>
   <g id="patch_45">
    <path d="M 795.026689 205.718125 
L 797.167337 205.718125 
L 797.167337 205.718125 
L 795.026689 205.718125 
z
" clip-path="url(#pcef7f42efe)" style="fill: #4682b4; opacity: 0.7"/>
   </g>
   <g id="patch_46">
    <path d="M 797.702499 205.718125 
L 799.843146 205.718125 
L 799.843146 205.718125 
L 797.702499 205.718125 
z
" clip-path="url(#pcef7f42efe)" style="fill: #4682b4; opacity: 0.7"/>
   </g>
   <g id="patch_47">
    <path d="M 800.378308 205.718125 
L 802.518956 205.718125 
L 802.518956 205.718125 
L 800.378308 205.718125 
z
" clip-path="url(#pcef7f42efe)" style="fill: #4682b4; opacity: 0.7"/>
   </g>
   <g id="patch_48">
    <path d="M 803.054118 205.718125 
L 805.194765 205.718125 
L 805.194765 205.718125 
L 803.054118 205.718125 
z
" clip-path="url(#pcef7f42efe)" style="fill: #4682b4; opacity: 0.7"/>
   </g>
   <g id="patch_49">
    <path d="M 805.729927 205.718125 
L 807.870574 205.718125 
L 807.870574 205.718125 
L 805.729927 205.718125 
z
" clip-path="url(#pcef7f42efe)" style="fill: #4682b4; opacity: 0.7"/>
   </g>
   <g id="patch_50">
    <path d="M 808.405736 205.718125 
L 810.546384 205.718125 
L 810.546384 205.718125 
L 808.405736 205.718125 
z
" clip-path="url(#pcef7f42efe)" style="fill: #4682b4; opacity: 0.7"/>
   </g>
   <g id="patch_51">
    <path d="M 811.081546 205.718125 
L 813.222193 205.718125 
L 813.222193 205.718125 
L 811.081546 205.718125 
z
" clip-path="url(#pcef7f42efe)" style="fill: #4682b4; opacity: 0.7"/>
   </g>
   <g id="patch_52">
    <path d="M 813.757355 205.718125 
L 815.898003 205.718125 
L 815.898003 205.718125 
L 813.757355 205.718125 
z
" clip-path="url(#pcef7f42efe)" style="fill: #4682b4; opacity: 0.7"/>
   </g>
   <g id="patch_53">
    <path d="M 816.433165 205.718125 
L 818.573812 205.718125 
L 818.573812 205.718125 
L 816.433165 205.718125 
z
" clip-path="url(#pcef7f42efe)" style="fill: #4682b4; opacity: 0.7"/>
   </g>
   <g id="patch_54">
    <path d="M 819.108974 205.718125 
L 821.249622 205.718125 
L 821.249622 205.718125 
L 819.108974 205.718125 
z
" clip-path="url(#pcef7f42efe)" style="fill: #4682b4; opacity: 0.7"/>
   </g>
   <g id="patch_55">
    <path d="M 821.784784 205.718125 
L 823.925431 205.718125 
L 823.925431 205.718125 
L 821.784784 205.718125 
z
" clip-path="url(#pcef7f42efe)" style="fill: #4682b4; opacity: 0.7"/>
   </g>
   <g id="patch_56">
    <path d="M 824.460593 205.718125 
L 826.601241 205.718125 
L 826.601241 205.718125 
L 824.460593 205.718125 
z
" clip-path="url(#pcef7f42efe)" style="fill: #4682b4; opacity: 0.7"/>
   </g>
   <g id="patch_57">
    <path d="M 827.136402 205.718125 
L 829.27705 205.718125 
L 829.27705 205.718125 
L 827.136402 205.718125 
z
" clip-path="url(#pcef7f42efe)" style="fill: #4682b4; opacity: 0.7"/>
   </g>
   <g id="patch_58">
    <path d="M 829.812212 205.718125 
L 831.952859 205.718125 
L 831.952859 205.718125 
L 829.812212 205.718125 
z
" clip-path="url(#pcef7f42efe)" style="fill: #4682b4; opacity: 0.7"/>
   </g>
   <g id="patch_59">
    <path d="M 832.488021 205.718125 
L 834.628669 205.718125 
L 834.628669 205.718125 
L 832.488021 205.718125 
z
" clip-path="url(#pcef7f42efe)" style="fill: #4682b4; opacity: 0.7"/>
   </g>
   <g id="patch_60">
    <path d="M 835.163831 205.718125 
L 837.304478 205.718125 
L 837.304478 205.718124 
L 835.163831 205.718124 
z
" clip-path="url(#pcef7f42efe)" style="fill: #4682b4; opacity: 0.7"/>
   </g>
   <g id="patch_61">
    <path d="M 837.83964 205.718125 
L 839.980288 205.718125 
L 839.980288 205.718121 
L 837.83964 205.718121 
z
" clip-path="url(#pcef7f42efe)" style="fill: #4682b4; opacity: 0.7"/>
   </g>
   <g id="patch_62">
    <path d="M 840.51545 205.718125 
L 842.656097 205.718125 
L 842.656097 205.718112 
L 840.51545 205.718112 
z
" clip-path="url(#pcef7f42efe)" style="fill: #4682b4; opacity: 0.7"/>
   </g>
   <g id="patch_63">
    <path d="M 843.191259 205.718125 
L 845.331907 205.718125 
L 845.331907 205.718082 
L 843.191259 205.718082 
z
" clip-path="url(#pcef7f42efe)" style="fill: #4682b4; opacity: 0.7"/>
   </g>
   <g id="patch_64">
    <path d="M 845.867068 205.718125 
L 848.007716 205.718125 
L 848.007716 205.717987 
L 845.867068 205.717987 
z
" clip-path="url(#pcef7f42efe)" style="fill: #4682b4; opacity: 0.7"/>
   </g>
   <g id="patch_65">
    <path d="M 848.542878 205.718125 
L 850.683525 205.718125 
L 850.683525 205.717706 
L 848.542878 205.717706 
z
" clip-path="url(#pcef7f42efe)" style="fill: #4682b4; opacity: 0.7"/>
   </g>
   <g id="patch_66">
    <path d="M 851.218687 205.718125 
L 853.359335 205.718125 
L 853.359335 205.716916 
L 851.218687 205.716916 
z
" clip-path="url(#pcef7f42efe)" style="fill: #4682b4; opacity: 0.7"/>
   </g>
   <g id="patch_67">
    <path d="M 853.894497 205.718125 
L 856.035144 205.718125 
L 856.035144 205.714812 
L 853.894497 205.714812 
z
" clip-path="url(#pcef7f42efe)" style="fill: #4682b4; opacity: 0.7"/>
   </g>
   <g id="patch_68">
    <path d="M 856.570306 205.718125 
L 858.710954 205.718125 
L 858.710954 205.709488 
L 856.570306 205.709488 
z
" clip-path="url(#pcef7f42efe)" style="fill: #4682b4; opacity: 0.7"/>
   </g>
   <g id="patch_69">
    <path d="M 859.246116 205.718125 
L 861.386763 205.718125 
L 861.386763 205.696681 
L 859.246116 205.696681 
z
" clip-path="url(#pcef7f42efe)" style="fill: #4682b4; opacity: 0.7"/>
   </g>
   <g id="patch_70">
    <path d="M 861.921925 205.718125 
L 864.062573 205.718125 
L 864.062573 205.667373 
L 861.921925 205.667373 
z
" clip-path="url(#pcef7f42efe)" style="fill: #4682b4; opacity: 0.7"/>
   </g>
   <g id="patch_71">
    <path d="M 864.597734 205.718125 
L 866.738382 205.718125 
L 866.738382 205.603524 
L 864.597734 205.603524 
z
" clip-path="url(#pcef7f42efe)" style="fill: #4682b4; opacity: 0.7"/>
   </g>
   <g id="patch_72">
    <path d="M 867.273544 205.718125 
L 869.414191 205.718125 
L 869.414191 205.471017 
L 867.273544 205.471017 
z
" clip-path="url(#pcef7f42efe)" style="fill: #4682b4; opacity: 0.7"/>
   </g>
   <g id="patch_73">
    <path d="M 869.949353 205.718125 
L 872.090001 205.718125 
L 872.090001 205.208932 
L 869.949353 205.208932 
z
" clip-path="url(#pcef7f42efe)" style="fill: #4682b4; opacity: 0.7"/>
   </g>
   <g id="patch_74">
    <path d="M 872.625163 205.718125 
L 874.76581 205.718125 
L 874.76581 204.714716 
L 872.625163 204.714716 
z
" clip-path="url(#pcef7f42efe)" style="fill: #4682b4; opacity: 0.7"/>
   </g>
   <g id="patch_75">
    <path d="M 875.300972 205.718125 
L 877.44162 205.718125 
L 877.44162 203.825982 
L 875.300972 203.825982 
z
" clip-path="url(#pcef7f42efe)" style="fill: #4682b4; opacity: 0.7"/>
   </g>
   <g id="patch_76">
    <path d="M 877.976782 205.718125 
L 880.117429 205.718125 
L 880.117429 202.301755 
L 877.976782 202.301755 
z
" clip-path="url(#pcef7f42efe)" style="fill: #4682b4; opacity: 0.7"/>
   </g>
   <g id="patch_77">
    <path d="M 880.652591 205.718125 
L 882.793239 205.718125 
L 882.793239 199.808728 
L 880.652591 199.808728 
z
" clip-path="url(#pcef7f42efe)" style="fill: #4682b4; opacity: 0.7"/>
   </g>
   <g id="patch_78">
    <path d="M 883.328401 205.718125 
L 885.469048 205.718125 
L 885.469048 195.920967 
L 883.328401 195.920967 
z
" clip-path="url(#pcef7f42efe)" style="fill: #4682b4; opacity: 0.7"/>
   </g>
   <g id="patch_79">
    <path d="M 886.00421 205.718125 
L 888.144858 205.718125 
L 888.144858 190.143156 
L 886.00421 190.143156 
z
" clip-path="url(#pcef7f42efe)" style="fill: #4682b4; opacity: 0.7"/>
   </g>
   <g id="patch_80">
    <path d="M 888.680019 205.718125 
L 890.820667 205.718125 
L 890.820667 181.966297 
L 888.680019 181.966297 
z
" clip-path="url(#pcef7f42efe)" style="fill: #4682b4; opacity: 0.7"/>
   </g>
   <g id="patch_81">
    <path d="M 891.355829 205.718125 
L 893.496476 205.718125 
L 893.496476 170.959353 
L 891.355829 170.959353 
z
" clip-path="url(#pcef7f42efe)" style="fill: #4682b4; opacity: 0.7"/>
   </g>
   <g id="patch_82">
    <path d="M 894.031638 205.718125 
L 896.172286 205.718125 
L 896.172286 156.890326 
L 894.031638 156.890326 
z
" clip-path="url(#pcef7f42efe)" style="fill: #4682b4; opacity: 0.7"/>
   </g>
   <g id="patch_83">
    <path d="M 896.707448 205.718125 
L 898.848095 205.718125 
L 898.848095 139.857373 
L 896.707448 139.857373 
z
" clip-path="url(#pcef7f42efe)" style="fill: #4682b4; opacity: 0.7"/>
   </g>
   <g id="patch_84">
    <path d="M 899.383257 205.718125 
L 901.523905 205.718125 
L 901.523905 120.398514 
L 899.383257 120.398514 
z
" clip-path="url(#pcef7f42efe)" style="fill: #4682b4; opacity: 0.7"/>
   </g>
   <g id="patch_85">
    <path d="M 902.059067 205.718125 
L 904.199714 205.718125 
L 904.199714 99.54261 
L 902.059067 99.54261 
z
" clip-path="url(#pcef7f42efe)" style="fill: #4682b4; opacity: 0.7"/>
   </g>
   <g id="patch_86">
    <path d="M 904.734876 205.718125 
L 906.875524 205.718125 
L 906.875524 78.769139 
L 904.734876 78.769139 
z
" clip-path="url(#pcef7f42efe)" style="fill: #4682b4; opacity: 0.7"/>
   </g>
   <g id="patch_87">
    <path d="M 907.410685 205.718125 
L 909.551333 205.718125 
L 909.551333 59.861843 
L 907.410685 59.861843 
z
" clip-path="url(#pcef7f42efe)" style="fill: #4682b4; opacity: 0.7"/>
   </g>
   <g id="patch_88">
    <path d="M 910.086495 205.718125 
L 912.227142 205.718125 
L 912.227142 44.668481 
L 910.086495 44.668481 
z
" clip-path="url(#pcef7f42efe)" style="fill: #4682b4; opacity: 0.7"/>
   </g>
   <g id="patch_89">
    <path d="M 912.762304 205.718125 
L 914.902952 205.718125 
L 914.902952 34.808298 
L 912.762304 34.808298 
z
" clip-path="url(#pcef7f42efe)" style="fill: #4682b4; opacity: 0.7"/>
   </g>
   <g id="patch_90">
    <path d="M 915.438114 205.718125 
L 917.578761 205.718125 
L 917.578761 31.390102 
L 915.438114 31.390102 
z
" clip-path="url(#pcef7f42efe)" style="fill: #4682b4; opacity: 0.7"/>
   </g>
   <g id="patch_91">
    <path d="M 918.113923 205.718125 
L 920.254571 205.718125 
L 920.254571 34.808298 
L 918.113923 34.808298 
z
" clip-path="url(#pcef7f42efe)" style="fill: #4682b4; opacity: 0.7"/>
   </g>
   <g id="patch_92">
    <path d="M 920.789733 205.718125 
L 922.93038 205.718125 
L 922.93038 44.668481 
L 920.789733 44.668481 
z
" clip-path="url(#pcef7f42efe)" style="fill: #4682b4; opacity: 0.7"/>
   </g>
   <g id="patch_93">
    <path d="M 923.465542 205.718125 
L 925.60619 205.718125 
L 925.60619 59.861843 
L 923.465542 59.861843 
z
" clip-path="url(#pcef7f42efe)" style="fill: #4682b4; opacity: 0.7"/>
   </g>
   <g id="patch_94">
    <path d="M 926.141351 205.718125 
L 928.281999 205.718125 
L 928.281999 78.769139 
L 926.141351 78.769139 
z
" clip-path="url(#pcef7f42efe)" style="fill: #4682b4; opacity: 0.7"/>
   </g>
   <g id="patch_95">
    <path d="M 928.817161 205.718125 
L 930.957808 205.718125 
L 930.957808 99.54261 
L 928.817161 99.54261 
z
" clip-path="url(#pcef7f42efe)" style="fill: #4682b4; opacity: 0.7"/>
   </g>
   <g id="patch_96">
    <path d="M 931.49297 205.718125 
L 933.633618 205.718125 
L 933.633618 120.398514 
L 931.49297 120.398514 
z
" clip-path="url(#pcef7f42efe)" style="fill: #4682b4; opacity: 0.7"/>
   </g>
   <g id="patch_97">
    <path d="M 934.16878 205.718125 
L 936.309427 205.718125 
L 936.309427 139.857373 
L 934.16878 139.857373 
z
" clip-path="url(#pcef7f42efe)" style="fill: #4682b4; opacity: 0.7"/>
   </g>
   <g id="patch_98">
    <path d="M 936.844589 205.718125 
L 938.985237 205.718125 
L 938.985237 156.890326 
L 936.844589 156.890326 
z
" clip-path="url(#pcef7f42efe)" style="fill: #4682b4; opacity: 0.7"/>
   </g>
   <g id="patch_99">
    <path d="M 939.520399 205.718125 
L 941.661046 205.718125 
L 941.661046 170.959353 
L 939.520399 170.959353 
z
" clip-path="url(#pcef7f42efe)" style="fill: #4682b4; opacity: 0.7"/>
   </g>
   <g id="patch_100">
    <path d="M 942.196208 205.718125 
L 944.336856 205.718125 
L 944.336856 181.966297 
L 942.196208 181.966297 
z
" clip-path="url(#pcef7f42efe)" style="fill: #4682b4; opacity: 0.7"/>
   </g>
   <g id="patch_101">
    <path d="M 944.872017 205.718125 
L 947.012665 205.718125 
L 947.012665 190.143156 
L 944.872017 190.143156 
z
" clip-path="url(#pcef7f42efe)" style="fill: #4682b4; opacity: 0.7"/>
   </g>
   <g id="patch_102">
    <path d="M 947.547827 205.718125 
L 949.688474 205.718125 
L 949.688474 195.920967 
L 947.547827 195.920967 
z
" clip-path="url(#pcef7f42efe)" style="fill: #4682b4; opacity: 0.7"/>
   </g>
   <g id="patch_103">
    <path d="M 950.223636 205.718125 
L 952.364284 205.718125 
L 952.364284 199.808728 
L 950.223636 199.808728 
z
" clip-path="url(#pcef7f42efe)" style="fill: #4682b4; opacity: 0.7"/>
   </g>
   <g id="patch_104">
    <path d="M 952.899446 205.718125 
L 955.040093 205.718125 
L 955.040093 202.301755 
L 952.899446 202.301755 
z
" clip-path="url(#pcef7f42efe)" style="fill: #4682b4; opacity: 0.7"/>
   </g>
   <g id="patch_105">
    <path d="M 955.575255 205.718125 
L 957.715903 205.718125 
L 957.715903 203.825982 
L 955.575255 203.825982 
z
" clip-path="url(#pcef7f42efe)" style="fill: #4682b4; opacity: 0.7"/>
   </g>
   <g id="patch_106">
    <path d="M 958.251065 205.718125 
L 960.391712 205.718125 
L 960.391712 204.714716 
L 958.251065 204.714716 
z
" clip-path="url(#pcef7f42efe)" style="fill: #4682b4; opacity: 0.7"/>
   </g>
   <g id="patch_107">
    <path d="M 960.926874 205.718125 
L 963.067522 205.718125 
L 963.067522 205.208932 
L 960.926874 205.208932 
z
" clip-path="url(#pcef7f42efe)" style="fill: #4682b4; opacity: 0.7"/>
   </g>
   <g id="patch_108">
    <path d="M 963.602684 205.718125 
L 965.743331 205.718125 
L 965.743331 205.471017 
L 963.602684 205.471017 
z
" clip-path="url(#pcef7f42efe)" style="fill: #4682b4; opacity: 0.7"/>
   </g>
   <g id="patch_109">
    <path d="M 966.278493 205.718125 
L 968.419141 205.718125 
L 968.419141 205.603524 
L 966.278493 205.603524 
z
" clip-path="url(#pcef7f42efe)" style="fill: #4682b4; opacity: 0.7"/>
   </g>
   <g id="patch_110">
    <path d="M 968.954302 205.718125 
L 971.09495 205.718125 
L 971.09495 205.667373 
L 968.954302 205.667373 
z
" clip-path="url(#pcef7f42efe)" style="fill: #4682b4; opacity: 0.7"/>
   </g>
   <g id="patch_111">
    <path d="M 971.630112 205.718125 
L 973.770759 205.718125 
L 973.770759 205.696681 
L 971.630112 205.696681 
z
" clip-path="url(#pcef7f42efe)" style="fill: #4682b4; opacity: 0.7"/>
   </g>
   <g id="patch_112">
    <path d="M 974.305921 205.718125 
L 976.446569 205.718125 
L 976.446569 205.709488 
L 974.305921 205.709488 
z
" clip-path="url(#pcef7f42efe)" style="fill: #4682b4; opacity: 0.7"/>
   </g>
   <g id="patch_113">
    <path d="M 976.981731 205.718125 
L 979.122378 205.718125 
L 979.122378 205.714812 
L 976.981731 205.714812 
z
" clip-path="url(#pcef7f42efe)" style="fill: #4682b4; opacity: 0.7"/>
   </g>
   <g id="patch_114">
    <path d="M 979.65754 205.718125 
L 981.798188 205.718125 
L 981.798188 205.716916 
L 979.65754 205.716916 
z
" clip-path="url(#pcef7f42efe)" style="fill: #4682b4; opacity: 0.7"/>
   </g>
   <g id="patch_115">
    <path d="M 982.33335 205.718125 
L 984.473997 205.718125 
L 984.473997 205.717706 
L 982.33335 205.717706 
z
" clip-path="url(#pcef7f42efe)" style="fill: #4682b4; opacity: 0.7"/>
   </g>
   <g id="patch_116">
    <path d="M 985.009159 205.718125 
L 987.149807 205.718125 
L 987.149807 205.717987 
L 985.009159 205.717987 
z
" clip-path="url(#pcef7f42efe)" style="fill: #4682b4; opacity: 0.7"/>
   </g>
   <g id="patch_117">
    <path d="M 987.684968 205.718125 
L 989.825616 205.718125 
L 989.825616 205.718082 
L 987.684968 205.718082 
z
" clip-path="url(#pcef7f42efe)" style="fill: #4682b4; opacity: 0.7"/>
   </g>
   <g id="patch_118">
    <path d="M 990.360778 205.718125 
L 992.501425 205.718125 
L 992.501425 205.718112 
L 990.360778 205.718112 
z
" clip-path="url(#pcef7f42efe)" style="fill: #4682b4; opacity: 0.7"/>
   </g>
   <g id="patch_119">
    <path d="M 993.036587 205.718125 
L 995.177235 205.718125 
L 995.177235 205.718121 
L 993.036587 205.718121 
z
" clip-path="url(#pcef7f42efe)" style="fill: #4682b4; opacity: 0.7"/>
   </g>
   <g id="patch_120">
    <path d="M 995.712397 205.718125 
L 997.853044 205.718125 
L 997.853044 205.718124 
L 995.712397 205.718124 
z
" clip-path="url(#pcef7f42efe)" style="fill: #4682b4; opacity: 0.7"/>
   </g>
   <g id="patch_121">
    <path d="M 998.388206 205.718125 
L 1000.528854 205.718125 
L 1000.528854 205.718125 
L 998.388206 205.718125 
z
" clip-path="url(#pcef7f42efe)" style="fill: #4682b4; opacity: 0.7"/>
   </g>
   <g id="patch_122">
    <path d="M 1001.064016 205.718125 
L 1003.204663 205.718125 
L 1003.204663 205.718125 
L 1001.064016 205.718125 
z
" clip-path="url(#pcef7f42efe)" style="fill: #4682b4; opacity: 0.7"/>
   </g>
   <g id="patch_123">
    <path d="M 1003.739825 205.718125 
L 1005.880473 205.718125 
L 1005.880473 205.718125 
L 1003.739825 205.718125 
z
" clip-path="url(#pcef7f42efe)" style="fill: #4682b4; opacity: 0.7"/>
   </g>
   <g id="patch_124">
    <path d="M 1006.415634 205.718125 
L 1008.556282 205.718125 
L 1008.556282 205.718125 
L 1006.415634 205.718125 
z
" clip-path="url(#pcef7f42efe)" style="fill: #4682b4; opacity: 0.7"/>
   </g>
   <g id="patch_125">
    <path d="M 1009.091444 205.718125 
L 1011.232091 205.718125 
L 1011.232091 205.718125 
L 1009.091444 205.718125 
z
" clip-path="url(#pcef7f42efe)" style="fill: #4682b4; opacity: 0.7"/>
   </g>
   <g id="patch_126">
    <path d="M 1011.767253 205.718125 
L 1013.907901 205.718125 
L 1013.907901 205.718125 
L 1011.767253 205.718125 
z
" clip-path="url(#pcef7f42efe)" style="fill: #4682b4; opacity: 0.7"/>
   </g>
   <g id="patch_127">
    <path d="M 1014.443063 205.718125 
L 1016.58371 205.718125 
L 1016.58371 205.718125 
L 1014.443063 205.718125 
z
" clip-path="url(#pcef7f42efe)" style="fill: #4682b4; opacity: 0.7"/>
   </g>
   <g id="patch_128">
    <path d="M 1017.118872 205.718125 
L 1019.25952 205.718125 
L 1019.25952 205.718125 
L 1017.118872 205.718125 
z
" clip-path="url(#pcef7f42efe)" style="fill: #4682b4; opacity: 0.7"/>
   </g>
   <g id="patch_129">
    <path d="M 1019.794682 205.718125 
L 1021.935329 205.718125 
L 1021.935329 205.718125 
L 1019.794682 205.718125 
z
" clip-path="url(#pcef7f42efe)" style="fill: #4682b4; opacity: 0.7"/>
   </g>
   <g id="patch_130">
    <path d="M 1022.470491 205.718125 
L 1024.611139 205.718125 
L 1024.611139 205.718125 
L 1022.470491 205.718125 
z
" clip-path="url(#pcef7f42efe)" style="fill: #4682b4; opacity: 0.7"/>
   </g>
   <g id="patch_131">
    <path d="M 1025.146301 205.718125 
L 1027.286948 205.718125 
L 1027.286948 205.718125 
L 1025.146301 205.718125 
z
" clip-path="url(#pcef7f42efe)" style="fill: #4682b4; opacity: 0.7"/>
   </g>
   <g id="patch_132">
    <path d="M 1027.82211 205.718125 
L 1029.962757 205.718125 
L 1029.962757 205.718125 
L 1027.82211 205.718125 
z
" clip-path="url(#pcef7f42efe)" style="fill: #4682b4; opacity: 0.7"/>
   </g>
   <g id="patch_133">
    <path d="M 1030.497919 205.718125 
L 1032.638567 205.718125 
L 1032.638567 205.718125 
L 1030.497919 205.718125 
z
" clip-path="url(#pcef7f42efe)" style="fill: #4682b4; opacity: 0.7"/>
   </g>
   <g id="patch_134">
    <path d="M 1033.173729 205.718125 
L 1035.314376 205.718125 
L 1035.314376 205.718125 
L 1033.173729 205.718125 
z
" clip-path="url(#pcef7f42efe)" style="fill: #4682b4; opacity: 0.7"/>
   </g>
   <g id="patch_135">
    <path d="M 1035.849538 205.718125 
L 1037.990186 205.718125 
L 1037.990186 205.718125 
L 1035.849538 205.718125 
z
" clip-path="url(#pcef7f42efe)" style="fill: #4682b4; opacity: 0.7"/>
   </g>
   <g id="patch_136">
    <path d="M 1038.525348 205.718125 
L 1040.665995 205.718125 
L 1040.665995 205.718125 
L 1038.525348 205.718125 
z
" clip-path="url(#pcef7f42efe)" style="fill: #4682b4; opacity: 0.7"/>
   </g>
   <g id="patch_137">
    <path d="M 1041.201157 205.718125 
L 1043.341805 205.718125 
L 1043.341805 205.718125 
L 1041.201157 205.718125 
z
" clip-path="url(#pcef7f42efe)" style="fill: #4682b4; opacity: 0.7"/>
   </g>
   <g id="patch_138">
    <path d="M 1043.876967 205.718125 
L 1046.017614 205.718125 
L 1046.017614 205.718125 
L 1043.876967 205.718125 
z
" clip-path="url(#pcef7f42efe)" style="fill: #4682b4; opacity: 0.7"/>
   </g>
   <g id="patch_139">
    <path d="M 1046.552776 205.718125 
L 1048.693424 205.718125 
L 1048.693424 205.718125 
L 1046.552776 205.718125 
z
" clip-path="url(#pcef7f42efe)" style="fill: #4682b4; opacity: 0.7"/>
   </g>
   <g id="patch_140">
    <path d="M 1049.228585 205.718125 
L 1051.369233 205.718125 
L 1051.369233 205.718125 
L 1049.228585 205.718125 
z
" clip-path="url(#pcef7f42efe)" style="fill: #4682b4; opacity: 0.7"/>
   </g>
   <g id="matplotlib.axis_5">
    <g id="xtick_12">
     <g id="line2d_46">
      <g>
       <use xlink:href="#m5e0dc4ca91" x="782.717966" y="205.718125" style="stroke: #000000; stroke-width: 0.8"/>
      </g>
     </g>
     <g id="text_34">
      <!-- 0 -->
      <g transform="translate(779.536716 220.316562) scale(0.1 -0.1)">
       <use xlink:href="#DejaVuSans-30"/>
      </g>
     </g>
    </g>
    <g id="xtick_13">
     <g id="line2d_47">
      <g>
       <use xlink:href="#m5e0dc4ca91" x="836.234154" y="205.718125" style="stroke: #000000; stroke-width: 0.8"/>
      </g>
     </g>
     <g id="text_35">
      <!-- 20 -->
      <g transform="translate(829.871654 220.316562) scale(0.1 -0.1)">
       <use xlink:href="#DejaVuSans-32"/>
       <use xlink:href="#DejaVuSans-30" transform="translate(63.623047 0)"/>
      </g>
     </g>
    </g>
    <g id="xtick_14">
     <g id="line2d_48">
      <g>
       <use xlink:href="#m5e0dc4ca91" x="889.750343" y="205.718125" style="stroke: #000000; stroke-width: 0.8"/>
      </g>
     </g>
     <g id="text_36">
      <!-- 40 -->
      <g transform="translate(883.387843 220.316562) scale(0.1 -0.1)">
       <use xlink:href="#DejaVuSans-34"/>
       <use xlink:href="#DejaVuSans-30" transform="translate(63.623047 0)"/>
      </g>
     </g>
    </g>
    <g id="xtick_15">
     <g id="line2d_49">
      <g>
       <use xlink:href="#m5e0dc4ca91" x="943.266532" y="205.718125" style="stroke: #000000; stroke-width: 0.8"/>
      </g>
     </g>
     <g id="text_37">
      <!-- 60 -->
      <g transform="translate(936.904032 220.316562) scale(0.1 -0.1)">
       <defs>
        <path id="DejaVuSans-36" d="M 2113 2584 
Q 1688 2584 1439 2293 
Q 1191 2003 1191 1497 
Q 1191 994 1439 701 
Q 1688 409 2113 409 
Q 2538 409 2786 701 
Q 3034 994 3034 1497 
Q 3034 2003 2786 2293 
Q 2538 2584 2113 2584 
z
M 3366 4563 
L 3366 3988 
Q 3128 4100 2886 4159 
Q 2644 4219 2406 4219 
Q 1781 4219 1451 3797 
Q 1122 3375 1075 2522 
Q 1259 2794 1537 2939 
Q 1816 3084 2150 3084 
Q 2853 3084 3261 2657 
Q 3669 2231 3669 1497 
Q 3669 778 3244 343 
Q 2819 -91 2113 -91 
Q 1303 -91 875 529 
Q 447 1150 447 2328 
Q 447 3434 972 4092 
Q 1497 4750 2381 4750 
Q 2619 4750 2861 4703 
Q 3103 4656 3366 4563 
z
" transform="scale(0.015625)"/>
       </defs>
       <use xlink:href="#DejaVuSans-36"/>
       <use xlink:href="#DejaVuSans-30" transform="translate(63.623047 0)"/>
      </g>
     </g>
    </g>
    <g id="xtick_16">
     <g id="line2d_50">
      <g>
       <use xlink:href="#m5e0dc4ca91" x="996.782721" y="205.718125" style="stroke: #000000; stroke-width: 0.8"/>
      </g>
     </g>
     <g id="text_38">
      <!-- 80 -->
      <g transform="translate(990.420221 220.316562) scale(0.1 -0.1)">
       <defs>
        <path id="DejaVuSans-38" d="M 2034 2216 
Q 1584 2216 1326 1975 
Q 1069 1734 1069 1313 
Q 1069 891 1326 650 
Q 1584 409 2034 409 
Q 2484 409 2743 651 
Q 3003 894 3003 1313 
Q 3003 1734 2745 1975 
Q 2488 2216 2034 2216 
z
M 1403 2484 
Q 997 2584 770 2862 
Q 544 3141 544 3541 
Q 544 4100 942 4425 
Q 1341 4750 2034 4750 
Q 2731 4750 3128 4425 
Q 3525 4100 3525 3541 
Q 3525 3141 3298 2862 
Q 3072 2584 2669 2484 
Q 3125 2378 3379 2068 
Q 3634 1759 3634 1313 
Q 3634 634 3220 271 
Q 2806 -91 2034 -91 
Q 1263 -91 848 271 
Q 434 634 434 1313 
Q 434 1759 690 2068 
Q 947 2378 1403 2484 
z
M 1172 3481 
Q 1172 3119 1398 2916 
Q 1625 2713 2034 2713 
Q 2441 2713 2670 2916 
Q 2900 3119 2900 3481 
Q 2900 3844 2670 4047 
Q 2441 4250 2034 4250 
Q 1625 4250 1398 4047 
Q 1172 3844 1172 3481 
z
" transform="scale(0.015625)"/>
       </defs>
       <use xlink:href="#DejaVuSans-38"/>
       <use xlink:href="#DejaVuSans-30" transform="translate(63.623047 0)"/>
      </g>
     </g>
    </g>
    <g id="xtick_17">
     <g id="line2d_51">
      <g>
       <use xlink:href="#m5e0dc4ca91" x="1050.298909" y="205.718125" style="stroke: #000000; stroke-width: 0.8"/>
      </g>
     </g>
     <g id="text_39">
      <!-- 100 -->
      <g transform="translate(1040.755159 220.316562) scale(0.1 -0.1)">
       <use xlink:href="#DejaVuSans-31"/>
       <use xlink:href="#DejaVuSans-30" transform="translate(63.623047 0)"/>
       <use xlink:href="#DejaVuSans-30" transform="translate(127.246094 0)"/>
      </g>
     </g>
    </g>
    <g id="text_40">
     <!-- Number of heads -->
     <g transform="translate(869.019375 234.754531) scale(0.11 -0.11)">
      <use xlink:href="#DejaVuSans-4e"/>
      <use xlink:href="#DejaVuSans-75" transform="translate(74.804688 0)"/>
      <use xlink:href="#DejaVuSans-6d" transform="translate(138.183594 0)"/>
      <use xlink:href="#DejaVuSans-62" transform="translate(235.595703 0)"/>
      <use xlink:href="#DejaVuSans-65" transform="translate(299.072266 0)"/>
      <use xlink:href="#DejaVuSans-72" transform="translate(360.595703 0)"/>
      <use xlink:href="#DejaVuSans-20" transform="translate(401.708984 0)"/>
      <use xlink:href="#DejaVuSans-6f" transform="translate(433.496094 0)"/>
      <use xlink:href="#DejaVuSans-66" transform="translate(494.677734 0)"/>
      <use xlink:href="#DejaVuSans-20" transform="translate(529.882812 0)"/>
      <use xlink:href="#DejaVuSans-68" transform="translate(561.669922 0)"/>
      <use xlink:href="#DejaVuSans-65" transform="translate(625.048828 0)"/>
      <use xlink:href="#DejaVuSans-61" transform="translate(686.572266 0)"/>
      <use xlink:href="#DejaVuSans-64" transform="translate(747.851562 0)"/>
      <use xlink:href="#DejaVuSans-73" transform="translate(811.328125 0)"/>
     </g>
    </g>
   </g>
   <g id="matplotlib.axis_6">
    <g id="ytick_17">
     <g id="line2d_52">
      <path d="M 768.161563 205.718125 
L 1064.855313 205.718125 
" clip-path="url(#pcef7f42efe)" style="fill: none; stroke-dasharray: 2.96,1.28; stroke-dashoffset: 0; stroke: #b0b0b0; stroke-opacity: 0.4; stroke-width: 0.8"/>
     </g>
     <g id="line2d_53">
      <g>
       <use xlink:href="#mef1b6ffb09" x="768.161563" y="205.718125" style="stroke: #000000; stroke-width: 0.8"/>
      </g>
     </g>
     <g id="text_41">
      <!-- 0.00 -->
      <g transform="translate(738.895938 209.517344) scale(0.1 -0.1)">
       <use xlink:href="#DejaVuSans-30"/>
       <use xlink:href="#DejaVuSans-2e" transform="translate(63.623047 0)"/>
       <use xlink:href="#DejaVuSans-30" transform="translate(95.410156 0)"/>
       <use xlink:href="#DejaVuSans-30" transform="translate(159.033203 0)"/>
      </g>
     </g>
    </g>
    <g id="ytick_18">
     <g id="line2d_54">
      <path d="M 768.161563 183.814658 
L 1064.855313 183.814658 
" clip-path="url(#pcef7f42efe)" style="fill: none; stroke-dasharray: 2.96,1.28; stroke-dashoffset: 0; stroke: #b0b0b0; stroke-opacity: 0.4; stroke-width: 0.8"/>
     </g>
     <g id="line2d_55">
      <g>
       <use xlink:href="#mef1b6ffb09" x="768.161563" y="183.814658" style="stroke: #000000; stroke-width: 0.8"/>
      </g>
     </g>
     <g id="text_42">
      <!-- 0.01 -->
      <g transform="translate(738.895938 187.613877) scale(0.1 -0.1)">
       <use xlink:href="#DejaVuSans-30"/>
       <use xlink:href="#DejaVuSans-2e" transform="translate(63.623047 0)"/>
       <use xlink:href="#DejaVuSans-30" transform="translate(95.410156 0)"/>
       <use xlink:href="#DejaVuSans-31" transform="translate(159.033203 0)"/>
      </g>
     </g>
    </g>
    <g id="ytick_19">
     <g id="line2d_56">
      <path d="M 768.161563 161.911191 
L 1064.855313 161.911191 
" clip-path="url(#pcef7f42efe)" style="fill: none; stroke-dasharray: 2.96,1.28; stroke-dashoffset: 0; stroke: #b0b0b0; stroke-opacity: 0.4; stroke-width: 0.8"/>
     </g>
     <g id="line2d_57">
      <g>
       <use xlink:href="#mef1b6ffb09" x="768.161563" y="161.911191" style="stroke: #000000; stroke-width: 0.8"/>
      </g>
     </g>
     <g id="text_43">
      <!-- 0.02 -->
      <g transform="translate(738.895938 165.71041) scale(0.1 -0.1)">
       <use xlink:href="#DejaVuSans-30"/>
       <use xlink:href="#DejaVuSans-2e" transform="translate(63.623047 0)"/>
       <use xlink:href="#DejaVuSans-30" transform="translate(95.410156 0)"/>
       <use xlink:href="#DejaVuSans-32" transform="translate(159.033203 0)"/>
      </g>
     </g>
    </g>
    <g id="ytick_20">
     <g id="line2d_58">
      <path d="M 768.161563 140.007724 
L 1064.855313 140.007724 
" clip-path="url(#pcef7f42efe)" style="fill: none; stroke-dasharray: 2.96,1.28; stroke-dashoffset: 0; stroke: #b0b0b0; stroke-opacity: 0.4; stroke-width: 0.8"/>
     </g>
     <g id="line2d_59">
      <g>
       <use xlink:href="#mef1b6ffb09" x="768.161563" y="140.007724" style="stroke: #000000; stroke-width: 0.8"/>
      </g>
     </g>
     <g id="text_44">
      <!-- 0.03 -->
      <g transform="translate(738.895938 143.806943) scale(0.1 -0.1)">
       <use xlink:href="#DejaVuSans-30"/>
       <use xlink:href="#DejaVuSans-2e" transform="translate(63.623047 0)"/>
       <use xlink:href="#DejaVuSans-30" transform="translate(95.410156 0)"/>
       <use xlink:href="#DejaVuSans-33" transform="translate(159.033203 0)"/>
      </g>
     </g>
    </g>
    <g id="ytick_21">
     <g id="line2d_60">
      <path d="M 768.161563 118.104257 
L 1064.855313 118.104257 
" clip-path="url(#pcef7f42efe)" style="fill: none; stroke-dasharray: 2.96,1.28; stroke-dashoffset: 0; stroke: #b0b0b0; stroke-opacity: 0.4; stroke-width: 0.8"/>
     </g>
     <g id="line2d_61">
      <g>
       <use xlink:href="#mef1b6ffb09" x="768.161563" y="118.104257" style="stroke: #000000; stroke-width: 0.8"/>
      </g>
     </g>
     <g id="text_45">
      <!-- 0.04 -->
      <g transform="translate(738.895938 121.903476) scale(0.1 -0.1)">
       <use xlink:href="#DejaVuSans-30"/>
       <use xlink:href="#DejaVuSans-2e" transform="translate(63.623047 0)"/>
       <use xlink:href="#DejaVuSans-30" transform="translate(95.410156 0)"/>
       <use xlink:href="#DejaVuSans-34" transform="translate(159.033203 0)"/>
      </g>
     </g>
    </g>
    <g id="ytick_22">
     <g id="line2d_62">
      <path d="M 768.161563 96.20079 
L 1064.855313 96.20079 
" clip-path="url(#pcef7f42efe)" style="fill: none; stroke-dasharray: 2.96,1.28; stroke-dashoffset: 0; stroke: #b0b0b0; stroke-opacity: 0.4; stroke-width: 0.8"/>
     </g>
     <g id="line2d_63">
      <g>
       <use xlink:href="#mef1b6ffb09" x="768.161563" y="96.20079" style="stroke: #000000; stroke-width: 0.8"/>
      </g>
     </g>
     <g id="text_46">
      <!-- 0.05 -->
      <g transform="translate(738.895938 100.000009) scale(0.1 -0.1)">
       <use xlink:href="#DejaVuSans-30"/>
       <use xlink:href="#DejaVuSans-2e" transform="translate(63.623047 0)"/>
       <use xlink:href="#DejaVuSans-30" transform="translate(95.410156 0)"/>
       <use xlink:href="#DejaVuSans-35" transform="translate(159.033203 0)"/>
      </g>
     </g>
    </g>
    <g id="ytick_23">
     <g id="line2d_64">
      <path d="M 768.161563 74.297323 
L 1064.855313 74.297323 
" clip-path="url(#pcef7f42efe)" style="fill: none; stroke-dasharray: 2.96,1.28; stroke-dashoffset: 0; stroke: #b0b0b0; stroke-opacity: 0.4; stroke-width: 0.8"/>
     </g>
     <g id="line2d_65">
      <g>
       <use xlink:href="#mef1b6ffb09" x="768.161563" y="74.297323" style="stroke: #000000; stroke-width: 0.8"/>
      </g>
     </g>
     <g id="text_47">
      <!-- 0.06 -->
      <g transform="translate(738.895938 78.096542) scale(0.1 -0.1)">
       <use xlink:href="#DejaVuSans-30"/>
       <use xlink:href="#DejaVuSans-2e" transform="translate(63.623047 0)"/>
       <use xlink:href="#DejaVuSans-30" transform="translate(95.410156 0)"/>
       <use xlink:href="#DejaVuSans-36" transform="translate(159.033203 0)"/>
      </g>
     </g>
    </g>
    <g id="ytick_24">
     <g id="line2d_66">
      <path d="M 768.161563 52.393856 
L 1064.855313 52.393856 
" clip-path="url(#pcef7f42efe)" style="fill: none; stroke-dasharray: 2.96,1.28; stroke-dashoffset: 0; stroke: #b0b0b0; stroke-opacity: 0.4; stroke-width: 0.8"/>
     </g>
     <g id="line2d_67">
      <g>
       <use xlink:href="#mef1b6ffb09" x="768.161563" y="52.393856" style="stroke: #000000; stroke-width: 0.8"/>
      </g>
     </g>
     <g id="text_48">
      <!-- 0.07 -->
      <g transform="translate(738.895938 56.193075) scale(0.1 -0.1)">
       <use xlink:href="#DejaVuSans-30"/>
       <use xlink:href="#DejaVuSans-2e" transform="translate(63.623047 0)"/>
       <use xlink:href="#DejaVuSans-30" transform="translate(95.410156 0)"/>
       <use xlink:href="#DejaVuSans-37" transform="translate(159.033203 0)"/>
      </g>
     </g>
    </g>
    <g id="ytick_25">
     <g id="line2d_68">
      <path d="M 768.161563 30.490389 
L 1064.855313 30.490389 
" clip-path="url(#pcef7f42efe)" style="fill: none; stroke-dasharray: 2.96,1.28; stroke-dashoffset: 0; stroke: #b0b0b0; stroke-opacity: 0.4; stroke-width: 0.8"/>
     </g>
     <g id="line2d_69">
      <g>
       <use xlink:href="#mef1b6ffb09" x="768.161563" y="30.490389" style="stroke: #000000; stroke-width: 0.8"/>
      </g>
     </g>
     <g id="text_49">
      <!-- 0.08 -->
      <g transform="translate(738.895938 34.289608) scale(0.1 -0.1)">
       <use xlink:href="#DejaVuSans-30"/>
       <use xlink:href="#DejaVuSans-2e" transform="translate(63.623047 0)"/>
       <use xlink:href="#DejaVuSans-30" transform="translate(95.410156 0)"/>
       <use xlink:href="#DejaVuSans-38" transform="translate(159.033203 0)"/>
      </g>
     </g>
    </g>
    <g id="text_50">
     <!-- Probability -->
     <g transform="translate(732.608281 143.089922) rotate(-90) scale(0.11 -0.11)">
      <use xlink:href="#DejaVuSans-50"/>
      <use xlink:href="#DejaVuSans-72" transform="translate(58.552734 0)"/>
      <use xlink:href="#DejaVuSans-6f" transform="translate(97.416016 0)"/>
      <use xlink:href="#DejaVuSans-62" transform="translate(158.597656 0)"/>
      <use xlink:href="#DejaVuSans-61" transform="translate(222.074219 0)"/>
      <use xlink:href="#DejaVuSans-62" transform="translate(283.353516 0)"/>
      <use xlink:href="#DejaVuSans-69" transform="translate(346.830078 0)"/>
      <use xlink:href="#DejaVuSans-6c" transform="translate(374.613281 0)"/>
      <use xlink:href="#DejaVuSans-69" transform="translate(402.396484 0)"/>
      <use xlink:href="#DejaVuSans-74" transform="translate(430.179688 0)"/>
      <use xlink:href="#DejaVuSans-79" transform="translate(469.388672 0)"/>
     </g>
    </g>
   </g>
   <g id="line2d_70">
    <path d="M 782.717966 205.718125 
L 865.050564 205.61092 
L 869.525161 205.351201 
L 872.20992 204.990554 
L 873.999759 204.595179 
L 875.789598 204.015691 
L 877.579437 203.182945 
L 879.369276 202.009825 
L 881.159116 200.390074 
L 882.948955 198.198617 
L 884.738794 195.29404 
L 886.528633 191.523827 
L 888.318472 186.732828 
L 890.108311 180.775144 
L 891.89815 173.529178 
L 893.687989 164.91507 
L 895.477828 154.91317 
L 897.267667 143.581604 
L 899.057506 131.070624 
L 901.742265 110.669834 
L 907.111782 69.15361 
L 908.901621 57.036486 
L 910.69146 46.715499 
L 911.58638 42.38921 
L 912.4813 38.694183 
L 913.376219 35.678065 
L 914.271139 33.380287 
L 915.166058 31.83121 
L 916.060978 31.051458 
L 916.955897 31.051458 
L 917.850817 31.83121 
L 918.745736 33.380287 
L 919.640656 35.678065 
L 920.535575 38.694183 
L 921.430495 42.38921 
L 922.325415 46.715499 
L 924.115254 57.036486 
L 925.905093 69.15361 
L 928.589851 89.470209 
L 933.959369 131.070624 
L 935.749208 143.581604 
L 937.539047 154.91317 
L 939.328886 164.91507 
L 941.118725 173.529178 
L 942.908564 180.775144 
L 944.698403 186.732828 
L 946.488242 191.523827 
L 948.278081 195.29404 
L 950.06792 198.198617 
L 951.857759 200.390074 
L 953.647599 202.009825 
L 955.437438 203.182945 
L 957.227277 204.015691 
L 959.017116 204.595179 
L 961.701874 205.136398 
L 964.386633 205.428664 
L 968.861231 205.635423 
L 976.915507 205.711582 
L 1037.770036 205.718125 
L 1050.298909 205.718125 
L 1050.298909 205.718125 
" clip-path="url(#pcef7f42efe)" style="fill: none; stroke: #cc7000; stroke-width: 2.5; stroke-linecap: square"/>
   </g>
   <g id="patch_141">
    <path d="M 768.161563 205.718125 
L 768.161563 22.318125 
" style="fill: none; stroke: #000000; stroke-width: 0.8; stroke-linejoin: miter; stroke-linecap: square"/>
   </g>
   <g id="patch_142">
    <path d="M 1064.855313 205.718125 
L 1064.855313 22.318125 
" style="fill: none; stroke: #000000; stroke-width: 0.8; stroke-linejoin: miter; stroke-linecap: square"/>
   </g>
   <g id="patch_143">
    <path d="M 768.161563 205.718125 
L 1064.855313 205.718125 
" style="fill: none; stroke: #000000; stroke-width: 0.8; stroke-linejoin: miter; stroke-linecap: square"/>
   </g>
   <g id="patch_144">
    <path d="M 768.161563 22.318125 
L 1064.855313 22.318125 
" style="fill: none; stroke: #000000; stroke-width: 0.8; stroke-linejoin: miter; stroke-linecap: square"/>
   </g>
   <g id="text_51">
    <!-- Binomial(n=100, p=0.5) -->
    <g style="fill: #808080" transform="translate(843.239063 16.318125) scale(0.12 -0.12)">
     <use xlink:href="#DejaVuSans-42"/>
     <use xlink:href="#DejaVuSans-69" transform="translate(68.603516 0)"/>
     <use xlink:href="#DejaVuSans-6e" transform="translate(96.386719 0)"/>
     <use xlink:href="#DejaVuSans-6f" transform="translate(159.765625 0)"/>
     <use xlink:href="#DejaVuSans-6d" transform="translate(220.947266 0)"/>
     <use xlink:href="#DejaVuSans-69" transform="translate(318.359375 0)"/>
     <use xlink:href="#DejaVuSans-61" transform="translate(346.142578 0)"/>
     <use xlink:href="#DejaVuSans-6c" transform="translate(407.421875 0)"/>
     <use xlink:href="#DejaVuSans-28" transform="translate(435.205078 0)"/>
     <use xlink:href="#DejaVuSans-6e" transform="translate(474.21875 0)"/>
     <use xlink:href="#DejaVuSans-3d" transform="translate(537.597656 0)"/>
     <use xlink:href="#DejaVuSans-31" transform="translate(621.386719 0)"/>
     <use xlink:href="#DejaVuSans-30" transform="translate(685.009766 0)"/>
     <use xlink:href="#DejaVuSans-30" transform="translate(748.632812 0)"/>
     <use xlink:href="#DejaVuSans-2c" transform="translate(812.255859 0)"/>
     <use xlink:href="#DejaVuSans-20" transform="translate(844.042969 0)"/>
     <use xlink:href="#DejaVuSans-70" transform="translate(875.830078 0)"/>
     <use xlink:href="#DejaVuSans-3d" transform="translate(939.306641 0)"/>
     <use xlink:href="#DejaVuSans-30" transform="translate(1023.095703 0)"/>
     <use xlink:href="#DejaVuSans-2e" transform="translate(1086.71875 0)"/>
     <use xlink:href="#DejaVuSans-35" transform="translate(1118.505859 0)"/>
     <use xlink:href="#DejaVuSans-29" transform="translate(1182.128906 0)"/>
    </g>
   </g>
  </g>
 </g>
 <defs>
  <clipPath id="p4fea240ab5">
   <rect x="51.111563" y="22.318125" width="296.69375" height="183.4"/>
  </clipPath>
  <clipPath id="p6113277a23">
   <rect x="409.636563" y="22.318125" width="296.69375" height="183.4"/>
  </clipPath>
  <clipPath id="pcef7f42efe">
   <rect x="768.161563" y="22.318125" width="296.69375" height="183.4"/>
  </clipPath>
 </defs>
</svg>
