<?xml version="1.0" encoding="utf-8" standalone="no"?>
<!DOCTYPE svg PUBLIC "-//W3C//DTD SVG 1.1//EN"
  "http://www.w3.org/Graphics/SVG/1.1/DTD/svg11.dtd">
<svg xmlns:xlink="http://www.w3.org/1999/xlink" width="640.077188pt" height="349.26625pt" viewBox="0 0 640.077188 349.26625" xmlns="http://www.w3.org/2000/svg" version="1.1">
 <metadata>
  <rdf:RDF xmlns:dc="http://purl.org/dc/elements/1.1/" xmlns:cc="http://creativecommons.org/ns#" xmlns:rdf="http://www.w3.org/1999/02/22-rdf-syntax-ns#">
   <cc:Work>
    <dc:type rdf:resource="http://purl.org/dc/dcmitype/StillImage"/>
    <dc:date>2026-06-24T22:50:03.355191</dc:date>
    <dc:format>image/svg+xml</dc:format>
    <dc:creator>
     <cc:Agent>
      <dc:title>Matplotlib v3.10.8, https://matplotlib.org/</dc:title>
     </cc:Agent>
    </dc:creator>
   </cc:Work>
  </rdf:RDF>
 </metadata>
 <defs>
  <style type="text/css">*{stroke-linejoin: round; stroke-linecap: butt}</style>
 </defs>
 <g id="figure_1">
  <g id="patch_1">
   <path d="M 0 349.26625 
L 640.077188 349.26625 
L 640.077188 0 
L 0 0 
z
" style="fill: #ffffff"/>
  </g>
  <g id="axes_1">
   <g id="patch_2">
    <path d="M 41.570938 310.718125 
L 632.877187 310.718125 
L 632.877187 22.318125 
L 41.570938 22.318125 
z
" style="fill: #ffffff"/>
   </g>
   <g id="matplotlib.axis_1">
    <g id="xtick_1">
     <g id="line2d_1">
      <path d="M 128.176398 310.718125 
L 128.176398 22.318125 
" clip-path="url(#p8d23842259)" style="fill: none; stroke-dasharray: 2.96,1.28; stroke-dashoffset: 0; stroke: #b0b0b0; stroke-opacity: 0.4; stroke-width: 0.8"/>
     </g>
     <g id="line2d_2">
      <defs>
       <path id="mea028ca868" d="M 0 0 
L 0 3.5 
" style="stroke: #000000; stroke-width: 0.8"/>
      </defs>
      <g>
       <use xlink:href="#mea028ca868" x="128.176398" y="310.718125" style="stroke: #000000; stroke-width: 0.8"/>
      </g>
     </g>
     <g id="text_1">
      <!-- 0 -->
      <g transform="translate(124.995148 325.316562) scale(0.1 -0.1)">
       <defs>
        <path id="DejaVuSans-30" d="M 2034 4250 
Q 1547 4250 1301 3770 
Q 1056 3291 1056 2328 
Q 1056 1369 1301 889 
Q 1547 409 2034 409 
Q 2525 409 2770 889 
Q 3016 1369 3016 2328 
Q 3016 3291 2770 3770 
Q 2525 4250 2034 4250 
z
M 2034 4750 
Q 2819 4750 3233 4129 
Q 3647 3509 3647 2328 
Q 3647 1150 3233 529 
Q 2819 -91 2034 -91 
Q 1250 -91 836 529 
Q 422 1150 422 2328 
Q 422 3509 836 4129 
Q 1250 4750 2034 4750 
z
" transform="scale(0.015625)"/>
       </defs>
       <use xlink:href="#DejaVuSans-30"/>
      </g>
     </g>
    </g>
    <g id="xtick_2">
     <g id="line2d_3">
      <path d="M 247.632206 310.718125 
L 247.632206 22.318125 
" clip-path="url(#p8d23842259)" style="fill: none; stroke-dasharray: 2.96,1.28; stroke-dashoffset: 0; stroke: #b0b0b0; stroke-opacity: 0.4; stroke-width: 0.8"/>
     </g>
     <g id="line2d_4">
      <g>
       <use xlink:href="#mea028ca868" x="247.632206" y="310.718125" style="stroke: #000000; stroke-width: 0.8"/>
      </g>
     </g>
     <g id="text_2">
      <!-- 2 -->
      <g transform="translate(244.450956 325.316562) scale(0.1 -0.1)">
       <defs>
        <path id="DejaVuSans-32" d="M 1228 531 
L 3431 531 
L 3431 0 
L 469 0 
L 469 531 
Q 828 903 1448 1529 
Q 2069 2156 2228 2338 
Q 2531 2678 2651 2914 
Q 2772 3150 2772 3378 
Q 2772 3750 2511 3984 
Q 2250 4219 1831 4219 
Q 1534 4219 1204 4116 
Q 875 4013 500 3803 
L 500 4441 
Q 881 4594 1212 4672 
Q 1544 4750 1819 4750 
Q 2544 4750 2975 4387 
Q 3406 4025 3406 3419 
Q 3406 3131 3298 2873 
Q 3191 2616 2906 2266 
Q 2828 2175 2409 1742 
Q 1991 1309 1228 531 
z
" transform="scale(0.015625)"/>
       </defs>
       <use xlink:href="#DejaVuSans-32"/>
      </g>
     </g>
    </g>
    <g id="xtick_3">
     <g id="line2d_5">
      <path d="M 367.088015 310.718125 
L 367.088015 22.318125 
" clip-path="url(#p8d23842259)" style="fill: none; stroke-dasharray: 2.96,1.28; stroke-dashoffset: 0; stroke: #b0b0b0; stroke-opacity: 0.4; stroke-width: 0.8"/>
     </g>
     <g id="line2d_6">
      <g>
       <use xlink:href="#mea028ca868" x="367.088015" y="310.718125" style="stroke: #000000; stroke-width: 0.8"/>
      </g>
     </g>
     <g id="text_3">
      <!-- 4 -->
      <g transform="translate(363.906765 325.316562) scale(0.1 -0.1)">
       <defs>
        <path id="DejaVuSans-34" d="M 2419 4116 
L 825 1625 
L 2419 1625 
L 2419 4116 
z
M 2253 4666 
L 3047 4666 
L 3047 1625 
L 3713 1625 
L 3713 1100 
L 3047 1100 
L 3047 0 
L 2419 0 
L 2419 1100 
L 313 1100 
L 313 1709 
L 2253 4666 
z
" transform="scale(0.015625)"/>
       </defs>
       <use xlink:href="#DejaVuSans-34"/>
      </g>
     </g>
    </g>
    <g id="xtick_4">
     <g id="line2d_7">
      <path d="M 486.543823 310.718125 
L 486.543823 22.318125 
" clip-path="url(#p8d23842259)" style="fill: none; stroke-dasharray: 2.96,1.28; stroke-dashoffset: 0; stroke: #b0b0b0; stroke-opacity: 0.4; stroke-width: 0.8"/>
     </g>
     <g id="line2d_8">
      <g>
       <use xlink:href="#mea028ca868" x="486.543823" y="310.718125" style="stroke: #000000; stroke-width: 0.8"/>
      </g>
     </g>
     <g id="text_4">
      <!-- 6 -->
      <g transform="translate(483.362573 325.316562) scale(0.1 -0.1)">
       <defs>
        <path id="DejaVuSans-36" d="M 2113 2584 
Q 1688 2584 1439 2293 
Q 1191 2003 1191 1497 
Q 1191 994 1439 701 
Q 1688 409 2113 409 
Q 2538 409 2786 701 
Q 3034 994 3034 1497 
Q 3034 2003 2786 2293 
Q 2538 2584 2113 2584 
z
M 3366 4563 
L 3366 3988 
Q 3128 4100 2886 4159 
Q 2644 4219 2406 4219 
Q 1781 4219 1451 3797 
Q 1122 3375 1075 2522 
Q 1259 2794 1537 2939 
Q 1816 3084 2150 3084 
Q 2853 3084 3261 2657 
Q 3669 2231 3669 1497 
Q 3669 778 3244 343 
Q 2819 -91 2113 -91 
Q 1303 -91 875 529 
Q 447 1150 447 2328 
Q 447 3434 972 4092 
Q 1497 4750 2381 4750 
Q 2619 4750 2861 4703 
Q 3103 4656 3366 4563 
z
" transform="scale(0.015625)"/>
       </defs>
       <use xlink:href="#DejaVuSans-36"/>
      </g>
     </g>
    </g>
    <g id="xtick_5">
     <g id="line2d_9">
      <path d="M 605.999631 310.718125 
L 605.999631 22.318125 
" clip-path="url(#p8d23842259)" style="fill: none; stroke-dasharray: 2.96,1.28; stroke-dashoffset: 0; stroke: #b0b0b0; stroke-opacity: 0.4; stroke-width: 0.8"/>
     </g>
     <g id="line2d_10">
      <g>
       <use xlink:href="#mea028ca868" x="605.999631" y="310.718125" style="stroke: #000000; stroke-width: 0.8"/>
      </g>
     </g>
     <g id="text_5">
      <!-- 8 -->
      <g transform="translate(602.818381 325.316562) scale(0.1 -0.1)">
       <defs>
        <path id="DejaVuSans-38" d="M 2034 2216 
Q 1584 2216 1326 1975 
Q 1069 1734 1069 1313 
Q 1069 891 1326 650 
Q 1584 409 2034 409 
Q 2484 409 2743 651 
Q 3003 894 3003 1313 
Q 3003 1734 2745 1975 
Q 2488 2216 2034 2216 
z
M 1403 2484 
Q 997 2584 770 2862 
Q 544 3141 544 3541 
Q 544 4100 942 4425 
Q 1341 4750 2034 4750 
Q 2731 4750 3128 4425 
Q 3525 4100 3525 3541 
Q 3525 3141 3298 2862 
Q 3072 2584 2669 2484 
Q 3125 2378 3379 2068 
Q 3634 1759 3634 1313 
Q 3634 634 3220 271 
Q 2806 -91 2034 -91 
Q 1263 -91 848 271 
Q 434 634 434 1313 
Q 434 1759 690 2068 
Q 947 2378 1403 2484 
z
M 1172 3481 
Q 1172 3119 1398 2916 
Q 1625 2713 2034 2713 
Q 2441 2713 2670 2916 
Q 2900 3119 2900 3481 
Q 2900 3844 2670 4047 
Q 2441 4250 2034 4250 
Q 1625 4250 1398 4047 
Q 1172 3844 1172 3481 
z
" transform="scale(0.015625)"/>
       </defs>
       <use xlink:href="#DejaVuSans-38"/>
      </g>
     </g>
    </g>
    <g id="text_6">
     <!-- House position $x$ -->
     <g transform="translate(291.409063 339.75625) scale(0.11 -0.11)">
      <defs>
       <path id="DejaVuSans-48" d="M 628 4666 
L 1259 4666 
L 1259 2753 
L 3553 2753 
L 3553 4666 
L 4184 4666 
L 4184 0 
L 3553 0 
L 3553 2222 
L 1259 2222 
L 1259 0 
L 628 0 
L 628 4666 
z
" transform="scale(0.015625)"/>
       <path id="DejaVuSans-6f" d="M 1959 3097 
Q 1497 3097 1228 2736 
Q 959 2375 959 1747 
Q 959 1119 1226 758 
Q 1494 397 1959 397 
Q 2419 397 2687 759 
Q 2956 1122 2956 1747 
Q 2956 2369 2687 2733 
Q 2419 3097 1959 3097 
z
M 1959 3584 
Q 2709 3584 3137 3096 
Q 3566 2609 3566 1747 
Q 3566 888 3137 398 
Q 2709 -91 1959 -91 
Q 1206 -91 779 398 
Q 353 888 353 1747 
Q 353 2609 779 3096 
Q 1206 3584 1959 3584 
z
" transform="scale(0.015625)"/>
       <path id="DejaVuSans-75" d="M 544 1381 
L 544 3500 
L 1119 3500 
L 1119 1403 
Q 1119 906 1312 657 
Q 1506 409 1894 409 
Q 2359 409 2629 706 
Q 2900 1003 2900 1516 
L 2900 3500 
L 3475 3500 
L 3475 0 
L 2900 0 
L 2900 538 
Q 2691 219 2414 64 
Q 2138 -91 1772 -91 
Q 1169 -91 856 284 
Q 544 659 544 1381 
z
M 1991 3584 
L 1991 3584 
z
" transform="scale(0.015625)"/>
       <path id="DejaVuSans-73" d="M 2834 3397 
L 2834 2853 
Q 2591 2978 2328 3040 
Q 2066 3103 1784 3103 
Q 1356 3103 1142 2972 
Q 928 2841 928 2578 
Q 928 2378 1081 2264 
Q 1234 2150 1697 2047 
L 1894 2003 
Q 2506 1872 2764 1633 
Q 3022 1394 3022 966 
Q 3022 478 2636 193 
Q 2250 -91 1575 -91 
Q 1294 -91 989 -36 
Q 684 19 347 128 
L 347 722 
Q 666 556 975 473 
Q 1284 391 1588 391 
Q 1994 391 2212 530 
Q 2431 669 2431 922 
Q 2431 1156 2273 1281 
Q 2116 1406 1581 1522 
L 1381 1569 
Q 847 1681 609 1914 
Q 372 2147 372 2553 
Q 372 3047 722 3315 
Q 1072 3584 1716 3584 
Q 2034 3584 2315 3537 
Q 2597 3491 2834 3397 
z
" transform="scale(0.015625)"/>
       <path id="DejaVuSans-65" d="M 3597 1894 
L 3597 1613 
L 953 1613 
Q 991 1019 1311 708 
Q 1631 397 2203 397 
Q 2534 397 2845 478 
Q 3156 559 3463 722 
L 3463 178 
Q 3153 47 2828 -22 
Q 2503 -91 2169 -91 
Q 1331 -91 842 396 
Q 353 884 353 1716 
Q 353 2575 817 3079 
Q 1281 3584 2069 3584 
Q 2775 3584 3186 3129 
Q 3597 2675 3597 1894 
z
M 3022 2063 
Q 3016 2534 2758 2815 
Q 2500 3097 2075 3097 
Q 1594 3097 1305 2825 
Q 1016 2553 972 2059 
L 3022 2063 
z
" transform="scale(0.015625)"/>
       <path id="DejaVuSans-20" transform="scale(0.015625)"/>
       <path id="DejaVuSans-70" d="M 1159 525 
L 1159 -1331 
L 581 -1331 
L 581 3500 
L 1159 3500 
L 1159 2969 
Q 1341 3281 1617 3432 
Q 1894 3584 2278 3584 
Q 2916 3584 3314 3078 
Q 3713 2572 3713 1747 
Q 3713 922 3314 415 
Q 2916 -91 2278 -91 
Q 1894 -91 1617 61 
Q 1341 213 1159 525 
z
M 3116 1747 
Q 3116 2381 2855 2742 
Q 2594 3103 2138 3103 
Q 1681 3103 1420 2742 
Q 1159 2381 1159 1747 
Q 1159 1113 1420 752 
Q 1681 391 2138 391 
Q 2594 391 2855 752 
Q 3116 1113 3116 1747 
z
" transform="scale(0.015625)"/>
       <path id="DejaVuSans-69" d="M 603 3500 
L 1178 3500 
L 1178 0 
L 603 0 
L 603 3500 
z
M 603 4863 
L 1178 4863 
L 1178 4134 
L 603 4134 
L 603 4863 
z
" transform="scale(0.015625)"/>
       <path id="DejaVuSans-74" d="M 1172 4494 
L 1172 3500 
L 2356 3500 
L 2356 3053 
L 1172 3053 
L 1172 1153 
Q 1172 725 1289 603 
Q 1406 481 1766 481 
L 2356 481 
L 2356 0 
L 1766 0 
Q 1100 0 847 248 
Q 594 497 594 1153 
L 594 3053 
L 172 3053 
L 172 3500 
L 594 3500 
L 594 4494 
L 1172 4494 
z
" transform="scale(0.015625)"/>
       <path id="DejaVuSans-6e" d="M 3513 2113 
L 3513 0 
L 2938 0 
L 2938 2094 
Q 2938 2591 2744 2837 
Q 2550 3084 2163 3084 
Q 1697 3084 1428 2787 
Q 1159 2491 1159 1978 
L 1159 0 
L 581 0 
L 581 3500 
L 1159 3500 
L 1159 2956 
Q 1366 3272 1645 3428 
Q 1925 3584 2291 3584 
Q 2894 3584 3203 3211 
Q 3513 2838 3513 2113 
z
" transform="scale(0.015625)"/>
       <path id="DejaVuSans-Oblique-78" d="M 3841 3500 
L 2234 1784 
L 3219 0 
L 2559 0 
L 1819 1388 
L 531 0 
L -166 0 
L 1556 1844 
L 641 3500 
L 1300 3500 
L 1972 2234 
L 3144 3500 
L 3841 3500 
z
" transform="scale(0.015625)"/>
      </defs>
      <use xlink:href="#DejaVuSans-48" transform="translate(0 0.015625)"/>
      <use xlink:href="#DejaVuSans-6f" transform="translate(75.195312 0.015625)"/>
      <use xlink:href="#DejaVuSans-75" transform="translate(136.376953 0.015625)"/>
      <use xlink:href="#DejaVuSans-73" transform="translate(199.755859 0.015625)"/>
      <use xlink:href="#DejaVuSans-65" transform="translate(251.855469 0.015625)"/>
      <use xlink:href="#DejaVuSans-20" transform="translate(313.378906 0.015625)"/>
      <use xlink:href="#DejaVuSans-70" transform="translate(345.166016 0.015625)"/>
      <use xlink:href="#DejaVuSans-6f" transform="translate(408.642578 0.015625)"/>
      <use xlink:href="#DejaVuSans-73" transform="translate(469.824219 0.015625)"/>
      <use xlink:href="#DejaVuSans-69" transform="translate(521.923828 0.015625)"/>
      <use xlink:href="#DejaVuSans-74" transform="translate(549.707031 0.015625)"/>
      <use xlink:href="#DejaVuSans-69" transform="translate(588.916016 0.015625)"/>
      <use xlink:href="#DejaVuSans-6f" transform="translate(616.699219 0.015625)"/>
      <use xlink:href="#DejaVuSans-6e" transform="translate(677.880859 0.015625)"/>
      <use xlink:href="#DejaVuSans-20" transform="translate(741.259766 0.015625)"/>
      <use xlink:href="#DejaVuSans-Oblique-78" transform="translate(773.046875 0.015625)"/>
     </g>
    </g>
   </g>
   <g id="matplotlib.axis_2">
    <g id="ytick_1">
     <g id="line2d_11">
      <path d="M 41.570938 310.718125 
L 632.877187 310.718125 
" clip-path="url(#p8d23842259)" style="fill: none; stroke-dasharray: 2.96,1.28; stroke-dashoffset: 0; stroke: #b0b0b0; stroke-opacity: 0.4; stroke-width: 0.8"/>
     </g>
     <g id="line2d_12">
      <defs>
       <path id="md7dedc58b2" d="M 0 0 
L -3.5 0 
" style="stroke: #000000; stroke-width: 0.8"/>
      </defs>
      <g>
       <use xlink:href="#md7dedc58b2" x="41.570938" y="310.718125" style="stroke: #000000; stroke-width: 0.8"/>
      </g>
     </g>
     <g id="text_7">
      <!-- 0 -->
      <g transform="translate(28.208438 314.517344) scale(0.1 -0.1)">
       <use xlink:href="#DejaVuSans-30"/>
      </g>
     </g>
    </g>
    <g id="ytick_2">
     <g id="line2d_13">
      <path d="M 41.570938 253.038125 
L 632.877187 253.038125 
" clip-path="url(#p8d23842259)" style="fill: none; stroke-dasharray: 2.96,1.28; stroke-dashoffset: 0; stroke: #b0b0b0; stroke-opacity: 0.4; stroke-width: 0.8"/>
     </g>
     <g id="line2d_14">
      <g>
       <use xlink:href="#md7dedc58b2" x="41.570938" y="253.038125" style="stroke: #000000; stroke-width: 0.8"/>
      </g>
     </g>
     <g id="text_8">
      <!-- 10 -->
      <g transform="translate(21.845938 256.837344) scale(0.1 -0.1)">
       <defs>
        <path id="DejaVuSans-31" d="M 794 531 
L 1825 531 
L 1825 4091 
L 703 3866 
L 703 4441 
L 1819 4666 
L 2450 4666 
L 2450 531 
L 3481 531 
L 3481 0 
L 794 0 
L 794 531 
z
" transform="scale(0.015625)"/>
       </defs>
       <use xlink:href="#DejaVuSans-31"/>
       <use xlink:href="#DejaVuSans-30" transform="translate(63.623047 0)"/>
      </g>
     </g>
    </g>
    <g id="ytick_3">
     <g id="line2d_15">
      <path d="M 41.570938 195.358125 
L 632.877187 195.358125 
" clip-path="url(#p8d23842259)" style="fill: none; stroke-dasharray: 2.96,1.28; stroke-dashoffset: 0; stroke: #b0b0b0; stroke-opacity: 0.4; stroke-width: 0.8"/>
     </g>
     <g id="line2d_16">
      <g>
       <use xlink:href="#md7dedc58b2" x="41.570938" y="195.358125" style="stroke: #000000; stroke-width: 0.8"/>
      </g>
     </g>
     <g id="text_9">
      <!-- 20 -->
      <g transform="translate(21.845938 199.157344) scale(0.1 -0.1)">
       <use xlink:href="#DejaVuSans-32"/>
       <use xlink:href="#DejaVuSans-30" transform="translate(63.623047 0)"/>
      </g>
     </g>
    </g>
    <g id="ytick_4">
     <g id="line2d_17">
      <path d="M 41.570938 137.678125 
L 632.877187 137.678125 
" clip-path="url(#p8d23842259)" style="fill: none; stroke-dasharray: 2.96,1.28; stroke-dashoffset: 0; stroke: #b0b0b0; stroke-opacity: 0.4; stroke-width: 0.8"/>
     </g>
     <g id="line2d_18">
      <g>
       <use xlink:href="#md7dedc58b2" x="41.570938" y="137.678125" style="stroke: #000000; stroke-width: 0.8"/>
      </g>
     </g>
     <g id="text_10">
      <!-- 30 -->
      <g transform="translate(21.845938 141.477344) scale(0.1 -0.1)">
       <defs>
        <path id="DejaVuSans-33" d="M 2597 2516 
Q 3050 2419 3304 2112 
Q 3559 1806 3559 1356 
Q 3559 666 3084 287 
Q 2609 -91 1734 -91 
Q 1441 -91 1130 -33 
Q 819 25 488 141 
L 488 750 
Q 750 597 1062 519 
Q 1375 441 1716 441 
Q 2309 441 2620 675 
Q 2931 909 2931 1356 
Q 2931 1769 2642 2001 
Q 2353 2234 1838 2234 
L 1294 2234 
L 1294 2753 
L 1863 2753 
Q 2328 2753 2575 2939 
Q 2822 3125 2822 3475 
Q 2822 3834 2567 4026 
Q 2313 4219 1838 4219 
Q 1578 4219 1281 4162 
Q 984 4106 628 3988 
L 628 4550 
Q 988 4650 1302 4700 
Q 1616 4750 1894 4750 
Q 2613 4750 3031 4423 
Q 3450 4097 3450 3541 
Q 3450 3153 3228 2886 
Q 3006 2619 2597 2516 
z
" transform="scale(0.015625)"/>
       </defs>
       <use xlink:href="#DejaVuSans-33"/>
       <use xlink:href="#DejaVuSans-30" transform="translate(63.623047 0)"/>
      </g>
     </g>
    </g>
    <g id="ytick_5">
     <g id="line2d_19">
      <path d="M 41.570938 79.998125 
L 632.877187 79.998125 
" clip-path="url(#p8d23842259)" style="fill: none; stroke-dasharray: 2.96,1.28; stroke-dashoffset: 0; stroke: #b0b0b0; stroke-opacity: 0.4; stroke-width: 0.8"/>
     </g>
     <g id="line2d_20">
      <g>
       <use xlink:href="#md7dedc58b2" x="41.570938" y="79.998125" style="stroke: #000000; stroke-width: 0.8"/>
      </g>
     </g>
     <g id="text_11">
      <!-- 40 -->
      <g transform="translate(21.845938 83.797344) scale(0.1 -0.1)">
       <use xlink:href="#DejaVuSans-34"/>
       <use xlink:href="#DejaVuSans-30" transform="translate(63.623047 0)"/>
      </g>
     </g>
    </g>
    <g id="ytick_6">
     <g id="line2d_21">
      <path d="M 41.570938 22.318125 
L 632.877187 22.318125 
" clip-path="url(#p8d23842259)" style="fill: none; stroke-dasharray: 2.96,1.28; stroke-dashoffset: 0; stroke: #b0b0b0; stroke-opacity: 0.4; stroke-width: 0.8"/>
     </g>
     <g id="line2d_22">
      <g>
       <use xlink:href="#md7dedc58b2" x="41.570938" y="22.318125" style="stroke: #000000; stroke-width: 0.8"/>
      </g>
     </g>
     <g id="text_12">
      <!-- 50 -->
      <g transform="translate(21.845938 26.117344) scale(0.1 -0.1)">
       <defs>
        <path id="DejaVuSans-35" d="M 691 4666 
L 3169 4666 
L 3169 4134 
L 1269 4134 
L 1269 2991 
Q 1406 3038 1543 3061 
Q 1681 3084 1819 3084 
Q 2600 3084 3056 2656 
Q 3513 2228 3513 1497 
Q 3513 744 3044 326 
Q 2575 -91 1722 -91 
Q 1428 -91 1123 -41 
Q 819 9 494 109 
L 494 744 
Q 775 591 1075 516 
Q 1375 441 1709 441 
Q 2250 441 2565 725 
Q 2881 1009 2881 1497 
Q 2881 1984 2565 2268 
Q 2250 2553 1709 2553 
Q 1456 2553 1204 2497 
Q 953 2441 691 2322 
L 691 4666 
z
" transform="scale(0.015625)"/>
       </defs>
       <use xlink:href="#DejaVuSans-35"/>
       <use xlink:href="#DejaVuSans-30" transform="translate(63.623047 0)"/>
      </g>
     </g>
    </g>
    <g id="text_13">
     <!-- Cost -->
     <g transform="translate(15.558281 178.745312) rotate(-90) scale(0.11 -0.11)">
      <defs>
       <path id="DejaVuSans-43" d="M 4122 4306 
L 4122 3641 
Q 3803 3938 3442 4084 
Q 3081 4231 2675 4231 
Q 1875 4231 1450 3742 
Q 1025 3253 1025 2328 
Q 1025 1406 1450 917 
Q 1875 428 2675 428 
Q 3081 428 3442 575 
Q 3803 722 4122 1019 
L 4122 359 
Q 3791 134 3420 21 
Q 3050 -91 2638 -91 
Q 1578 -91 968 557 
Q 359 1206 359 2328 
Q 359 3453 968 4101 
Q 1578 4750 2638 4750 
Q 3056 4750 3426 4639 
Q 3797 4528 4122 4306 
z
" transform="scale(0.015625)"/>
      </defs>
      <use xlink:href="#DejaVuSans-43"/>
      <use xlink:href="#DejaVuSans-6f" transform="translate(69.824219 0)"/>
      <use xlink:href="#DejaVuSans-73" transform="translate(131.005859 0)"/>
      <use xlink:href="#DejaVuSans-74" transform="translate(183.105469 0)"/>
     </g>
    </g>
   </g>
   <g id="line2d_23">
    <path d="M 68.448494 287.646125 
L 77.437644 290.98785 
L 86.426793 294.068276 
L 95.415943 296.887403 
L 104.405092 299.445231 
L 113.394242 301.741759 
L 122.383391 303.776989 
L 131.37254 305.550919 
L 140.36169 307.063551 
L 149.350839 308.314883 
L 158.339989 309.304916 
L 167.329138 310.03365 
L 176.318288 310.501085 
L 185.307437 310.707221 
L 194.296586 310.652058 
L 203.285736 310.335596 
L 212.274885 309.757835 
L 221.264035 308.918774 
L 230.253184 307.818415 
L 239.242334 306.456756 
L 248.231483 304.833799 
L 257.220633 302.949542 
L 266.209782 300.803986 
L 275.198931 298.397131 
L 284.188081 295.728977 
L 293.17723 292.799524 
L 302.16638 289.608772 
L 311.155529 286.15672 
L 320.144679 282.44337 
L 329.133828 278.46872 
L 338.122977 274.232772 
L 347.112127 269.735524 
L 356.101276 264.976977 
L 365.090426 259.957131 
L 374.079575 254.675986 
L 383.068725 249.133542 
L 392.057874 243.329799 
L 401.047024 237.264757 
L 410.036173 230.938416 
L 419.025322 224.350775 
L 428.014472 217.501836 
L 437.003621 210.391597 
L 445.992771 203.02006 
L 454.98192 195.387223 
L 463.97107 187.493087 
L 472.960219 179.337652 
L 481.949368 170.920918 
L 490.938518 162.242885 
L 499.927667 153.303553 
L 510.714647 142.231439 
L 521.501626 130.783055 
L 532.288605 118.9584 
L 543.075585 106.757475 
L 553.862564 94.180278 
L 564.649543 81.226811 
L 575.436523 67.897074 
L 586.223502 54.191065 
L 597.010481 40.108786 
L 605.999631 28.086125 
L 605.999631 28.086125 
" clip-path="url(#p8d23842259)" style="fill: none; stroke-dasharray: 5.55,2.4; stroke-dashoffset: 0; stroke: #4682b4; stroke-opacity: 0.5; stroke-width: 1.5"/>
   </g>
   <g id="line2d_24">
    <path d="M 68.448494 28.086125 
L 79.235474 42.481963 
L 90.022453 56.50153 
L 100.809432 70.144827 
L 111.596412 83.411852 
L 122.383391 96.302608 
L 133.17037 108.817092 
L 143.95735 120.955306 
L 154.744329 132.717249 
L 165.531308 144.102921 
L 176.318288 155.112323 
L 187.105267 165.745454 
L 196.094416 174.318967 
L 205.083566 182.631182 
L 214.072715 190.682097 
L 223.061865 198.471713 
L 232.051014 206.00003 
L 241.040164 213.267049 
L 250.029313 220.272767 
L 259.018462 227.017187 
L 268.007612 233.500308 
L 276.996761 239.72213 
L 285.985911 245.682652 
L 294.97506 251.381876 
L 303.96421 256.8198 
L 312.953359 261.996426 
L 321.942508 266.911752 
L 330.931658 271.565779 
L 339.920807 275.958507 
L 348.909957 280.089936 
L 357.899106 283.960066 
L 366.888256 287.568897 
L 375.877405 290.916428 
L 384.866555 294.002661 
L 393.855704 296.827594 
L 402.844853 299.391229 
L 411.834003 301.693564 
L 420.823152 303.7346 
L 429.812302 305.514337 
L 438.801451 307.032776 
L 447.790601 308.289914 
L 456.77975 309.285754 
L 465.768899 310.020295 
L 474.758049 310.493537 
L 483.747198 310.705479 
L 492.736348 310.656123 
L 501.725497 310.345467 
L 510.714647 309.773513 
L 519.703796 308.940259 
L 528.692946 307.845706 
L 537.682095 306.489854 
L 546.671244 304.872703 
L 555.660394 302.994253 
L 564.649543 300.854504 
L 573.638693 298.453455 
L 582.627842 295.791108 
L 591.616992 292.867461 
L 600.606141 289.682516 
L 605.999631 287.646125 
L 605.999631 287.646125 
" clip-path="url(#p8d23842259)" style="fill: none; stroke-dasharray: 5.55,2.4; stroke-dashoffset: 0; stroke: #cc7000; stroke-opacity: 0.5; stroke-width: 1.5"/>
   </g>
   <g id="line2d_25">
    <path d="M 166.918236 -1 
L 176.318288 12.204818 
L 187.105267 27.004798 
L 197.892246 41.428508 
L 208.679226 55.475947 
L 219.466205 69.147116 
L 230.253184 82.442013 
L 241.040164 95.36064 
L 251.827143 107.902997 
L 262.614122 120.069083 
L 273.401101 131.858897 
L 284.188081 143.272442 
L 294.97506 154.309715 
L 305.762039 164.970718 
L 314.751189 173.567458 
L 323.740338 181.902899 
L 332.729488 189.977041 
L 341.718637 197.789884 
L 350.707787 205.341428 
L 359.696936 212.631672 
L 368.686086 219.660618 
L 377.675235 226.428264 
L 386.664384 232.934612 
L 395.653534 239.17966 
L 404.642683 245.163409 
L 413.631833 250.885859 
L 422.620982 256.34701 
L 431.610132 261.546862 
L 440.599281 266.485415 
L 449.58843 271.162669 
L 458.57758 275.578623 
L 467.566729 279.733279 
L 476.555879 283.626635 
L 485.545028 287.258693 
L 494.534178 290.629451 
L 503.523327 293.73891 
L 512.512477 296.58707 
L 521.501626 299.173931 
L 530.490775 301.499493 
L 539.479925 303.563756 
L 548.469074 305.36672 
L 557.458224 306.908384 
L 566.447373 308.18875 
L 575.436523 309.207816 
L 584.425672 309.965584 
L 593.414821 310.462052 
L 602.403971 310.697221 
L 605.999631 310.718125 
L 605.999631 310.718125 
" clip-path="url(#p8d23842259)" style="fill: none; stroke-dasharray: 5.55,2.4; stroke-dashoffset: 0; stroke: #2e8b57; stroke-opacity: 0.5; stroke-width: 1.5"/>
   </g>
   <g id="line2d_26">
    <path d="M 244.206779 -1 
L 250.029313 9.153103 
L 257.220633 21.235573 
L 264.411952 32.816348 
L 271.603272 43.89543 
L 278.794591 54.472817 
L 285.985911 64.54851 
L 291.3794 71.776043 
L 296.77289 78.721372 
L 302.16638 85.384499 
L 307.559869 91.765423 
L 312.953359 97.864144 
L 318.346849 103.680662 
L 323.740338 109.214976 
L 329.133828 114.467088 
L 334.527318 119.436997 
L 339.920807 124.124702 
L 345.314297 128.530205 
L 350.707787 132.653505 
L 356.101276 136.494601 
L 361.494766 140.053495 
L 366.888256 143.330186 
L 372.281745 146.324673 
L 377.675235 149.036958 
L 383.068725 151.467039 
L 388.462214 153.614918 
L 393.855704 155.480593 
L 399.249194 157.064066 
L 404.642683 158.365335 
L 410.036173 159.384402 
L 415.429663 160.121265 
L 420.823152 160.575926 
L 426.216642 160.748383 
L 431.610132 160.638637 
L 437.003621 160.246689 
L 442.397111 159.572537 
L 447.790601 158.616182 
L 453.18409 157.377625 
L 458.57758 155.856864 
L 463.97107 154.0539 
L 469.364559 151.968734 
L 474.758049 149.601364 
L 480.151539 146.951791 
L 485.545028 144.020015 
L 490.938518 140.806036 
L 496.332008 137.309855 
L 501.725497 133.53147 
L 507.118987 129.470882 
L 512.512477 125.128091 
L 517.905966 120.503097 
L 523.299456 115.5959 
L 528.692946 110.4065 
L 534.086435 104.934897 
L 539.479925 99.181091 
L 544.873415 93.145082 
L 550.266904 86.82687 
L 555.660394 80.226455 
L 561.053883 73.343837 
L 566.447373 66.179016 
L 571.840863 58.731992 
L 579.032182 48.363644 
L 586.223502 37.493602 
L 593.414821 26.121866 
L 600.606141 14.248435 
L 605.999631 5.014125 
L 605.999631 5.014125 
" clip-path="url(#p8d23842259)" style="fill: none; stroke: #000000; stroke-width: 2.5; stroke-linecap: square"/>
   </g>
   <g id="line2d_27">
    <path d="M 187.904302 310.718125 
L 187.904302 22.318125 
" clip-path="url(#p8d23842259)" style="fill: none; stroke-dasharray: 1.5,2.475; stroke-dashoffset: 0; stroke: #4682b4; stroke-opacity: 0.5; stroke-width: 1.5"/>
   </g>
   <g id="line2d_28">
    <path d="M 486.543823 310.718125 
L 486.543823 22.318125 
" clip-path="url(#p8d23842259)" style="fill: none; stroke-dasharray: 1.5,2.475; stroke-dashoffset: 0; stroke: #cc7000; stroke-opacity: 0.5; stroke-width: 1.5"/>
   </g>
   <g id="line2d_29">
    <path d="M 605.999631 310.718125 
L 605.999631 22.318125 
" clip-path="url(#p8d23842259)" style="fill: none; stroke-dasharray: 1.5,2.475; stroke-dashoffset: 0; stroke: #2e8b57; stroke-opacity: 0.5; stroke-width: 1.5"/>
   </g>
   <g id="line2d_30">
    <path d="M 379.033595 160.750125 
L 380.983894 160.750125 
L 382.934193 160.750125 
L 384.884492 160.750125 
L 386.834791 160.750125 
L 388.78509 160.750125 
L 390.735389 160.750125 
L 392.685688 160.750125 
L 394.635987 160.750125 
L 396.586285 160.750125 
L 398.536584 160.750125 
L 400.486883 160.750125 
L 402.437182 160.750125 
L 404.387481 160.750125 
L 406.33778 160.750125 
L 408.288079 160.750125 
L 410.238378 160.750125 
L 412.188677 160.750125 
L 414.138976 160.750125 
L 416.089275 160.750125 
L 418.039573 160.750125 
L 419.989872 160.750125 
L 421.940171 160.750125 
L 423.89047 160.750125 
L 425.840769 160.750125 
L 427.791068 160.750125 
L 429.741367 160.750125 
L 431.691666 160.750125 
L 433.641965 160.750125 
L 435.592264 160.750125 
L 437.542563 160.750125 
L 439.492861 160.750125 
L 441.44316 160.750125 
L 443.393459 160.750125 
L 445.343758 160.750125 
L 447.294057 160.750125 
L 449.244356 160.750125 
L 451.194655 160.750125 
L 453.144954 160.750125 
L 455.095253 160.750125 
L 457.045552 160.750125 
L 458.995851 160.750125 
L 460.946149 160.750125 
L 462.896448 160.750125 
L 464.846747 160.750125 
L 466.797046 160.750125 
L 468.747345 160.750125 
L 470.697644 160.750125 
L 472.647943 160.750125 
L 474.598242 160.750125 
" clip-path="url(#p8d23842259)" style="fill: none; stroke: #cc0000; stroke-opacity: 0.7; stroke-width: 2; stroke-linecap: square"/>
   </g>
   <g id="patch_3">
    <path d="M 41.570938 310.718125 
L 41.570938 22.318125 
" style="fill: none; stroke: #000000; stroke-width: 0.8; stroke-linejoin: miter; stroke-linecap: square"/>
   </g>
   <g id="patch_4">
    <path d="M 632.877187 310.718125 
L 632.877187 22.318125 
" style="fill: none; stroke: #000000; stroke-width: 0.8; stroke-linejoin: miter; stroke-linecap: square"/>
   </g>
   <g id="patch_5">
    <path d="M 41.570937 310.718125 
L 632.877187 310.718125 
" style="fill: none; stroke: #000000; stroke-width: 0.8; stroke-linejoin: miter; stroke-linecap: square"/>
   </g>
   <g id="patch_6">
    <path d="M 41.570937 22.318125 
L 632.877187 22.318125 
" style="fill: none; stroke: #000000; stroke-width: 0.8; stroke-linejoin: miter; stroke-linecap: square"/>
   </g>
   <g id="patch_7">
    <path d="M 426.815919 120.685839 
Q 426.815919 139.717842 426.815919 157.631811 
" style="fill: none; stroke: #2e8b57; stroke-linecap: round"/>
    <path d="M 428.815919 153.631811 
L 426.815919 157.631811 
L 424.815919 153.631811 
" style="fill: none; stroke: #2e8b57; stroke-linecap: round"/>
   </g>
   <g id="text_14">
    <!-- Minimum at $x = 5$ -->
    <g style="fill: #2e8b57" transform="translate(379.315919 103.408312) scale(0.1 -0.1)">
     <defs>
      <path id="DejaVuSans-Bold-4d" d="M 588 4666 
L 2119 4666 
L 3181 2169 
L 4250 4666 
L 5778 4666 
L 5778 0 
L 4641 0 
L 4641 3413 
L 3566 897 
L 2803 897 
L 1728 3413 
L 1728 0 
L 588 0 
L 588 4666 
z
" transform="scale(0.015625)"/>
      <path id="DejaVuSans-Bold-69" d="M 538 3500 
L 1656 3500 
L 1656 0 
L 538 0 
L 538 3500 
z
M 538 4863 
L 1656 4863 
L 1656 3950 
L 538 3950 
L 538 4863 
z
" transform="scale(0.015625)"/>
      <path id="DejaVuSans-Bold-6e" d="M 4056 2131 
L 4056 0 
L 2931 0 
L 2931 347 
L 2931 1631 
Q 2931 2084 2911 2256 
Q 2891 2428 2841 2509 
Q 2775 2619 2662 2680 
Q 2550 2741 2406 2741 
Q 2056 2741 1856 2470 
Q 1656 2200 1656 1722 
L 1656 0 
L 538 0 
L 538 3500 
L 1656 3500 
L 1656 2988 
Q 1909 3294 2193 3439 
Q 2478 3584 2822 3584 
Q 3428 3584 3742 3212 
Q 4056 2841 4056 2131 
z
" transform="scale(0.015625)"/>
      <path id="DejaVuSans-Bold-6d" d="M 3781 2919 
Q 3994 3244 4286 3414 
Q 4578 3584 4928 3584 
Q 5531 3584 5847 3212 
Q 6163 2841 6163 2131 
L 6163 0 
L 5038 0 
L 5038 1825 
Q 5041 1866 5042 1909 
Q 5044 1953 5044 2034 
Q 5044 2406 4934 2573 
Q 4825 2741 4581 2741 
Q 4263 2741 4089 2478 
Q 3916 2216 3909 1719 
L 3909 0 
L 2784 0 
L 2784 1825 
Q 2784 2406 2684 2573 
Q 2584 2741 2328 2741 
Q 2006 2741 1831 2477 
Q 1656 2213 1656 1722 
L 1656 0 
L 531 0 
L 531 3500 
L 1656 3500 
L 1656 2988 
Q 1863 3284 2130 3434 
Q 2397 3584 2719 3584 
Q 3081 3584 3359 3409 
Q 3638 3234 3781 2919 
z
" transform="scale(0.015625)"/>
      <path id="DejaVuSans-Bold-75" d="M 500 1363 
L 500 3500 
L 1625 3500 
L 1625 3150 
Q 1625 2866 1622 2436 
Q 1619 2006 1619 1863 
Q 1619 1441 1641 1255 
Q 1663 1069 1716 984 
Q 1784 875 1895 815 
Q 2006 756 2150 756 
Q 2500 756 2700 1025 
Q 2900 1294 2900 1772 
L 2900 3500 
L 4019 3500 
L 4019 0 
L 2900 0 
L 2900 506 
Q 2647 200 2364 54 
Q 2081 -91 1741 -91 
Q 1134 -91 817 281 
Q 500 653 500 1363 
z
" transform="scale(0.015625)"/>
      <path id="DejaVuSans-Bold-20" transform="scale(0.015625)"/>
      <path id="DejaVuSans-Bold-61" d="M 2106 1575 
Q 1756 1575 1579 1456 
Q 1403 1338 1403 1106 
Q 1403 894 1545 773 
Q 1688 653 1941 653 
Q 2256 653 2472 879 
Q 2688 1106 2688 1447 
L 2688 1575 
L 2106 1575 
z
M 3816 1997 
L 3816 0 
L 2688 0 
L 2688 519 
Q 2463 200 2181 54 
Q 1900 -91 1497 -91 
Q 953 -91 614 226 
Q 275 544 275 1050 
Q 275 1666 698 1953 
Q 1122 2241 2028 2241 
L 2688 2241 
L 2688 2328 
Q 2688 2594 2478 2717 
Q 2269 2841 1825 2841 
Q 1466 2841 1156 2769 
Q 847 2697 581 2553 
L 581 3406 
Q 941 3494 1303 3539 
Q 1666 3584 2028 3584 
Q 2975 3584 3395 3211 
Q 3816 2838 3816 1997 
z
" transform="scale(0.015625)"/>
      <path id="DejaVuSans-Bold-74" d="M 1759 4494 
L 1759 3500 
L 2913 3500 
L 2913 2700 
L 1759 2700 
L 1759 1216 
Q 1759 972 1856 886 
Q 1953 800 2241 800 
L 2816 800 
L 2816 0 
L 1856 0 
Q 1194 0 917 276 
Q 641 553 641 1216 
L 641 2700 
L 84 2700 
L 84 3500 
L 641 3500 
L 641 4494 
L 1759 4494 
z
" transform="scale(0.015625)"/>
      <path id="DejaVuSans-3d" d="M 678 2906 
L 4684 2906 
L 4684 2381 
L 678 2381 
L 678 2906 
z
M 678 1631 
L 4684 1631 
L 4684 1100 
L 678 1100 
L 678 1631 
z
" transform="scale(0.015625)"/>
     </defs>
     <use xlink:href="#DejaVuSans-Bold-4d" transform="translate(0 0.015625)"/>
     <use xlink:href="#DejaVuSans-Bold-69" transform="translate(99.511719 0.015625)"/>
     <use xlink:href="#DejaVuSans-Bold-6e" transform="translate(133.789062 0.015625)"/>
     <use xlink:href="#DejaVuSans-Bold-69" transform="translate(204.980469 0.015625)"/>
     <use xlink:href="#DejaVuSans-Bold-6d" transform="translate(239.257812 0.015625)"/>
     <use xlink:href="#DejaVuSans-Bold-75" transform="translate(343.457031 0.015625)"/>
     <use xlink:href="#DejaVuSans-Bold-6d" transform="translate(414.648438 0.015625)"/>
     <use xlink:href="#DejaVuSans-Bold-20" transform="translate(518.847656 0.015625)"/>
     <use xlink:href="#DejaVuSans-Bold-61" transform="translate(553.662109 0.015625)"/>
     <use xlink:href="#DejaVuSans-Bold-74" transform="translate(621.142578 0.015625)"/>
     <use xlink:href="#DejaVuSans-Bold-20" transform="translate(668.945312 0.015625)"/>
     <use xlink:href="#DejaVuSans-Oblique-78" transform="translate(703.759766 0.015625)"/>
     <use xlink:href="#DejaVuSans-3d" transform="translate(782.421875 0.015625)"/>
     <use xlink:href="#DejaVuSans-35" transform="translate(885.693359 0.015625)"/>
    </g>
    <!-- (the mean) -->
    <g style="fill: #2e8b57" transform="translate(395.6292 114.606125) scale(0.1 -0.1)">
     <defs>
      <path id="DejaVuSans-Bold-28" d="M 2413 -844 
L 1484 -844 
Q 1006 -72 778 623 
Q 550 1319 550 2003 
Q 550 2688 779 3389 
Q 1009 4091 1484 4856 
L 2413 4856 
Q 2013 4116 1813 3408 
Q 1613 2700 1613 2009 
Q 1613 1319 1811 609 
Q 2009 -100 2413 -844 
z
" transform="scale(0.015625)"/>
      <path id="DejaVuSans-Bold-68" d="M 4056 2131 
L 4056 0 
L 2931 0 
L 2931 347 
L 2931 1625 
Q 2931 2084 2911 2256 
Q 2891 2428 2841 2509 
Q 2775 2619 2662 2680 
Q 2550 2741 2406 2741 
Q 2056 2741 1856 2470 
Q 1656 2200 1656 1722 
L 1656 0 
L 538 0 
L 538 4863 
L 1656 4863 
L 1656 2988 
Q 1909 3294 2193 3439 
Q 2478 3584 2822 3584 
Q 3428 3584 3742 3212 
Q 4056 2841 4056 2131 
z
" transform="scale(0.015625)"/>
      <path id="DejaVuSans-Bold-65" d="M 4031 1759 
L 4031 1441 
L 1416 1441 
Q 1456 1047 1700 850 
Q 1944 653 2381 653 
Q 2734 653 3104 758 
Q 3475 863 3866 1075 
L 3866 213 
Q 3469 63 3072 -14 
Q 2675 -91 2278 -91 
Q 1328 -91 801 392 
Q 275 875 275 1747 
Q 275 2603 792 3093 
Q 1309 3584 2216 3584 
Q 3041 3584 3536 3087 
Q 4031 2591 4031 1759 
z
M 2881 2131 
Q 2881 2450 2695 2645 
Q 2509 2841 2209 2841 
Q 1884 2841 1681 2658 
Q 1478 2475 1428 2131 
L 2881 2131 
z
" transform="scale(0.015625)"/>
      <path id="DejaVuSans-Bold-29" d="M 513 -844 
Q 913 -100 1113 609 
Q 1313 1319 1313 2009 
Q 1313 2700 1113 3408 
Q 913 4116 513 4856 
L 1441 4856 
Q 1916 4091 2145 3389 
Q 2375 2688 2375 2003 
Q 2375 1319 2147 623 
Q 1919 -72 1441 -844 
L 513 -844 
z
" transform="scale(0.015625)"/>
     </defs>
     <use xlink:href="#DejaVuSans-Bold-28"/>
     <use xlink:href="#DejaVuSans-Bold-74" transform="translate(45.703125 0)"/>
     <use xlink:href="#DejaVuSans-Bold-68" transform="translate(93.505859 0)"/>
     <use xlink:href="#DejaVuSans-Bold-65" transform="translate(164.697266 0)"/>
     <use xlink:href="#DejaVuSans-Bold-20" transform="translate(232.519531 0)"/>
     <use xlink:href="#DejaVuSans-Bold-6d" transform="translate(267.333984 0)"/>
     <use xlink:href="#DejaVuSans-Bold-65" transform="translate(371.533203 0)"/>
     <use xlink:href="#DejaVuSans-Bold-61" transform="translate(439.355469 0)"/>
     <use xlink:href="#DejaVuSans-Bold-6e" transform="translate(506.835938 0)"/>
     <use xlink:href="#DejaVuSans-Bold-29" transform="translate(578.027344 0)"/>
    </g>
   </g>
   <g id="text_15">
    <!-- Individual parabolas sum to the total cost curve -->
    <g style="fill: #808080" transform="translate(193.45375 16.318125) scale(0.12 -0.12)">
     <defs>
      <path id="DejaVuSans-49" d="M 628 4666 
L 1259 4666 
L 1259 0 
L 628 0 
L 628 4666 
z
" transform="scale(0.015625)"/>
      <path id="DejaVuSans-64" d="M 2906 2969 
L 2906 4863 
L 3481 4863 
L 3481 0 
L 2906 0 
L 2906 525 
Q 2725 213 2448 61 
Q 2172 -91 1784 -91 
Q 1150 -91 751 415 
Q 353 922 353 1747 
Q 353 2572 751 3078 
Q 1150 3584 1784 3584 
Q 2172 3584 2448 3432 
Q 2725 3281 2906 2969 
z
M 947 1747 
Q 947 1113 1208 752 
Q 1469 391 1925 391 
Q 2381 391 2643 752 
Q 2906 1113 2906 1747 
Q 2906 2381 2643 2742 
Q 2381 3103 1925 3103 
Q 1469 3103 1208 2742 
Q 947 2381 947 1747 
z
" transform="scale(0.015625)"/>
      <path id="DejaVuSans-76" d="M 191 3500 
L 800 3500 
L 1894 563 
L 2988 3500 
L 3597 3500 
L 2284 0 
L 1503 0 
L 191 3500 
z
" transform="scale(0.015625)"/>
      <path id="DejaVuSans-61" d="M 2194 1759 
Q 1497 1759 1228 1600 
Q 959 1441 959 1056 
Q 959 750 1161 570 
Q 1363 391 1709 391 
Q 2188 391 2477 730 
Q 2766 1069 2766 1631 
L 2766 1759 
L 2194 1759 
z
M 3341 1997 
L 3341 0 
L 2766 0 
L 2766 531 
Q 2569 213 2275 61 
Q 1981 -91 1556 -91 
Q 1019 -91 701 211 
Q 384 513 384 1019 
Q 384 1609 779 1909 
Q 1175 2209 1959 2209 
L 2766 2209 
L 2766 2266 
Q 2766 2663 2505 2880 
Q 2244 3097 1772 3097 
Q 1472 3097 1187 3025 
Q 903 2953 641 2809 
L 641 3341 
Q 956 3463 1253 3523 
Q 1550 3584 1831 3584 
Q 2591 3584 2966 3190 
Q 3341 2797 3341 1997 
z
" transform="scale(0.015625)"/>
      <path id="DejaVuSans-6c" d="M 603 4863 
L 1178 4863 
L 1178 0 
L 603 0 
L 603 4863 
z
" transform="scale(0.015625)"/>
      <path id="DejaVuSans-72" d="M 2631 2963 
Q 2534 3019 2420 3045 
Q 2306 3072 2169 3072 
Q 1681 3072 1420 2755 
Q 1159 2438 1159 1844 
L 1159 0 
L 581 0 
L 581 3500 
L 1159 3500 
L 1159 2956 
Q 1341 3275 1631 3429 
Q 1922 3584 2338 3584 
Q 2397 3584 2469 3576 
Q 2541 3569 2628 3553 
L 2631 2963 
z
" transform="scale(0.015625)"/>
      <path id="DejaVuSans-62" d="M 3116 1747 
Q 3116 2381 2855 2742 
Q 2594 3103 2138 3103 
Q 1681 3103 1420 2742 
Q 1159 2381 1159 1747 
Q 1159 1113 1420 752 
Q 1681 391 2138 391 
Q 2594 391 2855 752 
Q 3116 1113 3116 1747 
z
M 1159 2969 
Q 1341 3281 1617 3432 
Q 1894 3584 2278 3584 
Q 2916 3584 3314 3078 
Q 3713 2572 3713 1747 
Q 3713 922 3314 415 
Q 2916 -91 2278 -91 
Q 1894 -91 1617 61 
Q 1341 213 1159 525 
L 1159 0 
L 581 0 
L 581 4863 
L 1159 4863 
L 1159 2969 
z
" transform="scale(0.015625)"/>
      <path id="DejaVuSans-6d" d="M 3328 2828 
Q 3544 3216 3844 3400 
Q 4144 3584 4550 3584 
Q 5097 3584 5394 3201 
Q 5691 2819 5691 2113 
L 5691 0 
L 5113 0 
L 5113 2094 
Q 5113 2597 4934 2840 
Q 4756 3084 4391 3084 
Q 3944 3084 3684 2787 
Q 3425 2491 3425 1978 
L 3425 0 
L 2847 0 
L 2847 2094 
Q 2847 2600 2669 2842 
Q 2491 3084 2119 3084 
Q 1678 3084 1418 2786 
Q 1159 2488 1159 1978 
L 1159 0 
L 581 0 
L 581 3500 
L 1159 3500 
L 1159 2956 
Q 1356 3278 1631 3431 
Q 1906 3584 2284 3584 
Q 2666 3584 2933 3390 
Q 3200 3197 3328 2828 
z
" transform="scale(0.015625)"/>
      <path id="DejaVuSans-68" d="M 3513 2113 
L 3513 0 
L 2938 0 
L 2938 2094 
Q 2938 2591 2744 2837 
Q 2550 3084 2163 3084 
Q 1697 3084 1428 2787 
Q 1159 2491 1159 1978 
L 1159 0 
L 581 0 
L 581 4863 
L 1159 4863 
L 1159 2956 
Q 1366 3272 1645 3428 
Q 1925 3584 2291 3584 
Q 2894 3584 3203 3211 
Q 3513 2838 3513 2113 
z
" transform="scale(0.015625)"/>
      <path id="DejaVuSans-63" d="M 3122 3366 
L 3122 2828 
Q 2878 2963 2633 3030 
Q 2388 3097 2138 3097 
Q 1578 3097 1268 2742 
Q 959 2388 959 1747 
Q 959 1106 1268 751 
Q 1578 397 2138 397 
Q 2388 397 2633 464 
Q 2878 531 3122 666 
L 3122 134 
Q 2881 22 2623 -34 
Q 2366 -91 2075 -91 
Q 1284 -91 818 406 
Q 353 903 353 1747 
Q 353 2603 823 3093 
Q 1294 3584 2113 3584 
Q 2378 3584 2631 3529 
Q 2884 3475 3122 3366 
z
" transform="scale(0.015625)"/>
     </defs>
     <use xlink:href="#DejaVuSans-49"/>
     <use xlink:href="#DejaVuSans-6e" transform="translate(29.492188 0)"/>
     <use xlink:href="#DejaVuSans-64" transform="translate(92.871094 0)"/>
     <use xlink:href="#DejaVuSans-69" transform="translate(156.347656 0)"/>
     <use xlink:href="#DejaVuSans-76" transform="translate(184.130859 0)"/>
     <use xlink:href="#DejaVuSans-69" transform="translate(243.310547 0)"/>
     <use xlink:href="#DejaVuSans-64" transform="translate(271.09375 0)"/>
     <use xlink:href="#DejaVuSans-75" transform="translate(334.570312 0)"/>
     <use xlink:href="#DejaVuSans-61" transform="translate(397.949219 0)"/>
     <use xlink:href="#DejaVuSans-6c" transform="translate(459.228516 0)"/>
     <use xlink:href="#DejaVuSans-20" transform="translate(487.011719 0)"/>
     <use xlink:href="#DejaVuSans-70" transform="translate(518.798828 0)"/>
     <use xlink:href="#DejaVuSans-61" transform="translate(582.275391 0)"/>
     <use xlink:href="#DejaVuSans-72" transform="translate(643.554688 0)"/>
     <use xlink:href="#DejaVuSans-61" transform="translate(684.667969 0)"/>
     <use xlink:href="#DejaVuSans-62" transform="translate(745.947266 0)"/>
     <use xlink:href="#DejaVuSans-6f" transform="translate(809.423828 0)"/>
     <use xlink:href="#DejaVuSans-6c" transform="translate(870.605469 0)"/>
     <use xlink:href="#DejaVuSans-61" transform="translate(898.388672 0)"/>
     <use xlink:href="#DejaVuSans-73" transform="translate(959.667969 0)"/>
     <use xlink:href="#DejaVuSans-20" transform="translate(1011.767578 0)"/>
     <use xlink:href="#DejaVuSans-73" transform="translate(1043.554688 0)"/>
     <use xlink:href="#DejaVuSans-75" transform="translate(1095.654297 0)"/>
     <use xlink:href="#DejaVuSans-6d" transform="translate(1159.033203 0)"/>
     <use xlink:href="#DejaVuSans-20" transform="translate(1256.445312 0)"/>
     <use xlink:href="#DejaVuSans-74" transform="translate(1288.232422 0)"/>
     <use xlink:href="#DejaVuSans-6f" transform="translate(1327.441406 0)"/>
     <use xlink:href="#DejaVuSans-20" transform="translate(1388.623047 0)"/>
     <use xlink:href="#DejaVuSans-74" transform="translate(1420.410156 0)"/>
     <use xlink:href="#DejaVuSans-68" transform="translate(1459.619141 0)"/>
     <use xlink:href="#DejaVuSans-65" transform="translate(1522.998047 0)"/>
     <use xlink:href="#DejaVuSans-20" transform="translate(1584.521484 0)"/>
     <use xlink:href="#DejaVuSans-74" transform="translate(1616.308594 0)"/>
     <use xlink:href="#DejaVuSans-6f" transform="translate(1655.517578 0)"/>
     <use xlink:href="#DejaVuSans-74" transform="translate(1716.699219 0)"/>
     <use xlink:href="#DejaVuSans-61" transform="translate(1755.908203 0)"/>
     <use xlink:href="#DejaVuSans-6c" transform="translate(1817.1875 0)"/>
     <use xlink:href="#DejaVuSans-20" transform="translate(1844.970703 0)"/>
     <use xlink:href="#DejaVuSans-63" transform="translate(1876.757812 0)"/>
     <use xlink:href="#DejaVuSans-6f" transform="translate(1931.738281 0)"/>
     <use xlink:href="#DejaVuSans-73" transform="translate(1992.919922 0)"/>
     <use xlink:href="#DejaVuSans-74" transform="translate(2045.019531 0)"/>
     <use xlink:href="#DejaVuSans-20" transform="translate(2084.228516 0)"/>
     <use xlink:href="#DejaVuSans-63" transform="translate(2116.015625 0)"/>
     <use xlink:href="#DejaVuSans-75" transform="translate(2170.996094 0)"/>
     <use xlink:href="#DejaVuSans-72" transform="translate(2234.375 0)"/>
     <use xlink:href="#DejaVuSans-76" transform="translate(2275.488281 0)"/>
     <use xlink:href="#DejaVuSans-65" transform="translate(2334.667969 0)"/>
    </g>
   </g>
   <g id="line2d_31">
    <defs>
     <path id="mcfab7538af" d="M 0 -8 
L -1.796112 -2.472136 
L -7.608452 -2.472136 
L -2.90617 0.944272 
L -4.702282 6.472136 
L -0 3.055728 
L 4.702282 6.472136 
L 2.90617 0.944272 
L 7.608452 -2.472136 
L 1.796112 -2.472136 
z
" style="stroke: #2e8b57; stroke-linejoin: bevel"/>
    </defs>
    <g clip-path="url(#p8d23842259)">
     <use xlink:href="#mcfab7538af" x="426.815919" y="160.750125" style="fill: #2e8b57; stroke: #2e8b57; stroke-linejoin: bevel"/>
    </g>
   </g>
   <g id="legend_1">
    <g id="patch_8">
     <path d="M 47.870938 195.398281 
L 124.370938 195.398281 
Q 126.170938 195.398281 126.170938 193.598281 
L 126.170938 139.437969 
Q 126.170938 137.637969 124.370938 137.637969 
L 47.870938 137.637969 
Q 46.070938 137.637969 46.070938 139.437969 
L 46.070938 193.598281 
Q 46.070938 195.398281 47.870938 195.398281 
z
" style="fill: #ffffff; opacity: 0.8; stroke: #cccccc; stroke-linejoin: miter"/>
    </g>
    <g id="line2d_32">
     <path d="M 49.670938 145.66625 
L 58.670938 145.66625 
L 67.670938 145.66625 
" style="fill: none; stroke-dasharray: 5.55,2.4; stroke-dashoffset: 0; stroke: #4682b4; stroke-opacity: 0.5; stroke-width: 1.5"/>
    </g>
    <g id="text_16">
     <!-- $(x-1)^2$ -->
     <g transform="translate(74.870938 148.81625) scale(0.09 -0.09)">
      <defs>
       <path id="DejaVuSans-28" d="M 1984 4856 
Q 1566 4138 1362 3434 
Q 1159 2731 1159 2009 
Q 1159 1288 1364 580 
Q 1569 -128 1984 -844 
L 1484 -844 
Q 1016 -109 783 600 
Q 550 1309 550 2009 
Q 550 2706 781 3412 
Q 1013 4119 1484 4856 
L 1984 4856 
z
" transform="scale(0.015625)"/>
       <path id="DejaVuSans-2212" d="M 678 2272 
L 4684 2272 
L 4684 1741 
L 678 1741 
L 678 2272 
z
" transform="scale(0.015625)"/>
       <path id="DejaVuSans-29" d="M 513 4856 
L 1013 4856 
Q 1481 4119 1714 3412 
Q 1947 2706 1947 2009 
Q 1947 1309 1714 600 
Q 1481 -109 1013 -844 
L 513 -844 
Q 928 -128 1133 580 
Q 1338 1288 1338 2009 
Q 1338 2731 1133 3434 
Q 928 4138 513 4856 
z
" transform="scale(0.015625)"/>
      </defs>
      <use xlink:href="#DejaVuSans-28" transform="translate(0 0.765625)"/>
      <use xlink:href="#DejaVuSans-Oblique-78" transform="translate(39.013672 0.765625)"/>
      <use xlink:href="#DejaVuSans-2212" transform="translate(117.675781 0.765625)"/>
      <use xlink:href="#DejaVuSans-31" transform="translate(220.947266 0.765625)"/>
      <use xlink:href="#DejaVuSans-29" transform="translate(284.570312 0.765625)"/>
      <use xlink:href="#DejaVuSans-32" transform="translate(324.541016 39.046875) scale(0.7)"/>
     </g>
    </g>
    <g id="line2d_33">
     <path d="M 49.670938 159.61625 
L 58.670938 159.61625 
L 67.670938 159.61625 
" style="fill: none; stroke-dasharray: 5.55,2.4; stroke-dashoffset: 0; stroke: #cc7000; stroke-opacity: 0.5; stroke-width: 1.5"/>
    </g>
    <g id="text_17">
     <!-- $(x-6)^2$ -->
     <g transform="translate(74.870938 162.76625) scale(0.09 -0.09)">
      <use xlink:href="#DejaVuSans-28" transform="translate(0 0.765625)"/>
      <use xlink:href="#DejaVuSans-Oblique-78" transform="translate(39.013672 0.765625)"/>
      <use xlink:href="#DejaVuSans-2212" transform="translate(117.675781 0.765625)"/>
      <use xlink:href="#DejaVuSans-36" transform="translate(220.947266 0.765625)"/>
      <use xlink:href="#DejaVuSans-29" transform="translate(284.570312 0.765625)"/>
      <use xlink:href="#DejaVuSans-32" transform="translate(324.541016 39.046875) scale(0.7)"/>
     </g>
    </g>
    <g id="line2d_34">
     <path d="M 49.670938 173.56625 
L 58.670938 173.56625 
L 67.670938 173.56625 
" style="fill: none; stroke-dasharray: 5.55,2.4; stroke-dashoffset: 0; stroke: #2e8b57; stroke-opacity: 0.5; stroke-width: 1.5"/>
    </g>
    <g id="text_18">
     <!-- $(x-8)^2$ -->
     <g transform="translate(74.870938 176.71625) scale(0.09 -0.09)">
      <use xlink:href="#DejaVuSans-28" transform="translate(0 0.765625)"/>
      <use xlink:href="#DejaVuSans-Oblique-78" transform="translate(39.013672 0.765625)"/>
      <use xlink:href="#DejaVuSans-2212" transform="translate(117.675781 0.765625)"/>
      <use xlink:href="#DejaVuSans-38" transform="translate(220.947266 0.765625)"/>
      <use xlink:href="#DejaVuSans-29" transform="translate(284.570312 0.765625)"/>
      <use xlink:href="#DejaVuSans-32" transform="translate(324.541016 39.046875) scale(0.7)"/>
     </g>
    </g>
    <g id="line2d_35">
     <path d="M 49.670938 186.776562 
L 58.670938 186.776562 
L 67.670938 186.776562 
" style="fill: none; stroke: #000000; stroke-width: 2.5; stroke-linecap: square"/>
    </g>
    <g id="text_19">
     <!-- $C(x)$ (sum) -->
     <g transform="translate(74.870938 189.926562) scale(0.09 -0.09)">
      <defs>
       <path id="DejaVuSans-Oblique-43" d="M 4447 4306 
L 4319 3641 
Q 4019 3944 3683 4091 
Q 3347 4238 2956 4238 
Q 2422 4238 2017 3981 
Q 1613 3725 1319 3200 
Q 1131 2863 1032 2486 
Q 934 2109 934 1728 
Q 934 1091 1264 756 
Q 1594 422 2222 422 
Q 2656 422 3056 561 
Q 3456 700 3834 978 
L 3688 231 
Q 3316 72 2936 -9 
Q 2556 -91 2175 -91 
Q 1278 -91 773 396 
Q 269 884 269 1753 
Q 269 2309 461 2846 
Q 653 3384 1013 3828 
Q 1394 4300 1883 4525 
Q 2372 4750 3022 4750 
Q 3422 4750 3780 4639 
Q 4138 4528 4447 4306 
z
" transform="scale(0.015625)"/>
      </defs>
      <use xlink:href="#DejaVuSans-Oblique-43" transform="translate(0 0.125)"/>
      <use xlink:href="#DejaVuSans-28" transform="translate(69.824219 0.125)"/>
      <use xlink:href="#DejaVuSans-Oblique-78" transform="translate(108.837891 0.125)"/>
      <use xlink:href="#DejaVuSans-29" transform="translate(168.017578 0.125)"/>
      <use xlink:href="#DejaVuSans-20" transform="translate(207.03125 0.125)"/>
      <use xlink:href="#DejaVuSans-28" transform="translate(238.818359 0.125)"/>
      <use xlink:href="#DejaVuSans-73" transform="translate(277.832031 0.125)"/>
      <use xlink:href="#DejaVuSans-75" transform="translate(329.931641 0.125)"/>
      <use xlink:href="#DejaVuSans-6d" transform="translate(393.310547 0.125)"/>
      <use xlink:href="#DejaVuSans-29" transform="translate(490.722656 0.125)"/>
     </g>
    </g>
   </g>
  </g>
 </g>
 <defs>
  <clipPath id="p8d23842259">
   <rect x="41.570938" y="22.318125" width="591.30625" height="288.4"/>
  </clipPath>
 </defs>
</svg>
