<?xml version="1.0" encoding="utf-8" standalone="no"?>
<!DOCTYPE svg PUBLIC "-//W3C//DTD SVG 1.1//EN"
  "http://www.w3.org/Graphics/SVG/1.1/DTD/svg11.dtd">
<svg xmlns:xlink="http://www.w3.org/1999/xlink" width="637.827188pt" height="352.242187pt" viewBox="0 0 637.827188 352.242187" xmlns="http://www.w3.org/2000/svg" version="1.1">
 <metadata>
  <rdf:RDF xmlns:dc="http://purl.org/dc/elements/1.1/" xmlns:cc="http://creativecommons.org/ns#" xmlns:rdf="http://www.w3.org/1999/02/22-rdf-syntax-ns#">
   <cc:Work>
    <dc:type rdf:resource="http://purl.org/dc/dcmitype/StillImage"/>
    <dc:date>2026-06-20T20:22:20.218463</dc:date>
    <dc:format>image/svg+xml</dc:format>
    <dc:creator>
     <cc:Agent>
      <dc:title>Matplotlib v3.10.8, https://matplotlib.org/</dc:title>
     </cc:Agent>
    </dc:creator>
   </cc:Work>
  </rdf:RDF>
 </metadata>
 <defs>
  <style type="text/css">*{stroke-linejoin: round; stroke-linecap: butt}</style>
 </defs>
 <g id="figure_1">
  <g id="patch_1">
   <path d="M 0 352.242187 
L 637.827188 352.242187 
L 637.827188 0 
L 0 0 
z
" style="fill: #ffffff"/>
  </g>
  <g id="axes_1">
   <g id="patch_2">
    <path d="M 41.570937 313.718125 
L 630.627187 313.718125 
L 630.627187 22.318125 
L 41.570937 22.318125 
z
" style="fill: #ffffff"/>
   </g>
   <g id="matplotlib.axis_1">
    <g id="xtick_1">
     <g id="line2d_1">
      <path d="M 83.646384 313.718125 
L 83.646384 22.318125 
" clip-path="url(#p39e97c9c57)" style="fill: none; stroke-dasharray: 2.96,1.28; stroke-dashoffset: 0; stroke: #b0b0b0; stroke-opacity: 0.4; stroke-width: 0.8"/>
     </g>
     <g id="line2d_2">
      <defs>
       <path id="mae9061953c" d="M 0 0 
L 0 3.5 
" style="stroke: #000000; stroke-width: 0.8"/>
      </defs>
      <g>
       <use xlink:href="#mae9061953c" x="83.646384" y="313.718125" style="stroke: #000000; stroke-width: 0.8"/>
      </g>
     </g>
     <g id="text_1">
      <!-- −1 -->
      <g transform="translate(76.27529 328.316562) scale(0.1 -0.1)">
       <defs>
        <path id="DejaVuSans-2212" d="M 678 2272 
L 4684 2272 
L 4684 1741 
L 678 1741 
L 678 2272 
z
" transform="scale(0.015625)"/>
        <path id="DejaVuSans-31" d="M 794 531 
L 1825 531 
L 1825 4091 
L 703 3866 
L 703 4441 
L 1819 4666 
L 2450 4666 
L 2450 531 
L 3481 531 
L 3481 0 
L 794 0 
L 794 531 
z
" transform="scale(0.015625)"/>
       </defs>
       <use xlink:href="#DejaVuSans-2212"/>
       <use xlink:href="#DejaVuSans-31" transform="translate(83.789062 0)"/>
      </g>
     </g>
    </g>
    <g id="xtick_2">
     <g id="line2d_3">
      <path d="M 167.797277 313.718125 
L 167.797277 22.318125 
" clip-path="url(#p39e97c9c57)" style="fill: none; stroke-dasharray: 2.96,1.28; stroke-dashoffset: 0; stroke: #b0b0b0; stroke-opacity: 0.4; stroke-width: 0.8"/>
     </g>
     <g id="line2d_4">
      <g>
       <use xlink:href="#mae9061953c" x="167.797277" y="313.718125" style="stroke: #000000; stroke-width: 0.8"/>
      </g>
     </g>
     <g id="text_2">
      <!-- 0 -->
      <g transform="translate(164.616027 328.316562) scale(0.1 -0.1)">
       <defs>
        <path id="DejaVuSans-30" d="M 2034 4250 
Q 1547 4250 1301 3770 
Q 1056 3291 1056 2328 
Q 1056 1369 1301 889 
Q 1547 409 2034 409 
Q 2525 409 2770 889 
Q 3016 1369 3016 2328 
Q 3016 3291 2770 3770 
Q 2525 4250 2034 4250 
z
M 2034 4750 
Q 2819 4750 3233 4129 
Q 3647 3509 3647 2328 
Q 3647 1150 3233 529 
Q 2819 -91 2034 -91 
Q 1250 -91 836 529 
Q 422 1150 422 2328 
Q 422 3509 836 4129 
Q 1250 4750 2034 4750 
z
" transform="scale(0.015625)"/>
       </defs>
       <use xlink:href="#DejaVuSans-30"/>
      </g>
     </g>
    </g>
    <g id="xtick_3">
     <g id="line2d_5">
      <path d="M 251.94817 313.718125 
L 251.94817 22.318125 
" clip-path="url(#p39e97c9c57)" style="fill: none; stroke-dasharray: 2.96,1.28; stroke-dashoffset: 0; stroke: #b0b0b0; stroke-opacity: 0.4; stroke-width: 0.8"/>
     </g>
     <g id="line2d_6">
      <g>
       <use xlink:href="#mae9061953c" x="251.94817" y="313.718125" style="stroke: #000000; stroke-width: 0.8"/>
      </g>
     </g>
     <g id="text_3">
      <!-- 1 -->
      <g transform="translate(248.76692 328.316562) scale(0.1 -0.1)">
       <use xlink:href="#DejaVuSans-31"/>
      </g>
     </g>
    </g>
    <g id="xtick_4">
     <g id="line2d_7">
      <path d="M 336.099062 313.718125 
L 336.099062 22.318125 
" clip-path="url(#p39e97c9c57)" style="fill: none; stroke-dasharray: 2.96,1.28; stroke-dashoffset: 0; stroke: #b0b0b0; stroke-opacity: 0.4; stroke-width: 0.8"/>
     </g>
     <g id="line2d_8">
      <g>
       <use xlink:href="#mae9061953c" x="336.099062" y="313.718125" style="stroke: #000000; stroke-width: 0.8"/>
      </g>
     </g>
     <g id="text_4">
      <!-- 2 -->
      <g transform="translate(332.917812 328.316562) scale(0.1 -0.1)">
       <defs>
        <path id="DejaVuSans-32" d="M 1228 531 
L 3431 531 
L 3431 0 
L 469 0 
L 469 531 
Q 828 903 1448 1529 
Q 2069 2156 2228 2338 
Q 2531 2678 2651 2914 
Q 2772 3150 2772 3378 
Q 2772 3750 2511 3984 
Q 2250 4219 1831 4219 
Q 1534 4219 1204 4116 
Q 875 4013 500 3803 
L 500 4441 
Q 881 4594 1212 4672 
Q 1544 4750 1819 4750 
Q 2544 4750 2975 4387 
Q 3406 4025 3406 3419 
Q 3406 3131 3298 2873 
Q 3191 2616 2906 2266 
Q 2828 2175 2409 1742 
Q 1991 1309 1228 531 
z
" transform="scale(0.015625)"/>
       </defs>
       <use xlink:href="#DejaVuSans-32"/>
      </g>
     </g>
    </g>
    <g id="xtick_5">
     <g id="line2d_9">
      <path d="M 420.249955 313.718125 
L 420.249955 22.318125 
" clip-path="url(#p39e97c9c57)" style="fill: none; stroke-dasharray: 2.96,1.28; stroke-dashoffset: 0; stroke: #b0b0b0; stroke-opacity: 0.4; stroke-width: 0.8"/>
     </g>
     <g id="line2d_10">
      <g>
       <use xlink:href="#mae9061953c" x="420.249955" y="313.718125" style="stroke: #000000; stroke-width: 0.8"/>
      </g>
     </g>
     <g id="text_5">
      <!-- 3 -->
      <g transform="translate(417.068705 328.316562) scale(0.1 -0.1)">
       <defs>
        <path id="DejaVuSans-33" d="M 2597 2516 
Q 3050 2419 3304 2112 
Q 3559 1806 3559 1356 
Q 3559 666 3084 287 
Q 2609 -91 1734 -91 
Q 1441 -91 1130 -33 
Q 819 25 488 141 
L 488 750 
Q 750 597 1062 519 
Q 1375 441 1716 441 
Q 2309 441 2620 675 
Q 2931 909 2931 1356 
Q 2931 1769 2642 2001 
Q 2353 2234 1838 2234 
L 1294 2234 
L 1294 2753 
L 1863 2753 
Q 2328 2753 2575 2939 
Q 2822 3125 2822 3475 
Q 2822 3834 2567 4026 
Q 2313 4219 1838 4219 
Q 1578 4219 1281 4162 
Q 984 4106 628 3988 
L 628 4550 
Q 988 4650 1302 4700 
Q 1616 4750 1894 4750 
Q 2613 4750 3031 4423 
Q 3450 4097 3450 3541 
Q 3450 3153 3228 2886 
Q 3006 2619 2597 2516 
z
" transform="scale(0.015625)"/>
       </defs>
       <use xlink:href="#DejaVuSans-33"/>
      </g>
     </g>
    </g>
    <g id="xtick_6">
     <g id="line2d_11">
      <path d="M 504.400848 313.718125 
L 504.400848 22.318125 
" clip-path="url(#p39e97c9c57)" style="fill: none; stroke-dasharray: 2.96,1.28; stroke-dashoffset: 0; stroke: #b0b0b0; stroke-opacity: 0.4; stroke-width: 0.8"/>
     </g>
     <g id="line2d_12">
      <g>
       <use xlink:href="#mae9061953c" x="504.400848" y="313.718125" style="stroke: #000000; stroke-width: 0.8"/>
      </g>
     </g>
     <g id="text_6">
      <!-- 4 -->
      <g transform="translate(501.219598 328.316562) scale(0.1 -0.1)">
       <defs>
        <path id="DejaVuSans-34" d="M 2419 4116 
L 825 1625 
L 2419 1625 
L 2419 4116 
z
M 2253 4666 
L 3047 4666 
L 3047 1625 
L 3713 1625 
L 3713 1100 
L 3047 1100 
L 3047 0 
L 2419 0 
L 2419 1100 
L 313 1100 
L 313 1709 
L 2253 4666 
z
" transform="scale(0.015625)"/>
       </defs>
       <use xlink:href="#DejaVuSans-34"/>
      </g>
     </g>
    </g>
    <g id="xtick_7">
     <g id="line2d_13">
      <path d="M 588.551741 313.718125 
L 588.551741 22.318125 
" clip-path="url(#p39e97c9c57)" style="fill: none; stroke-dasharray: 2.96,1.28; stroke-dashoffset: 0; stroke: #b0b0b0; stroke-opacity: 0.4; stroke-width: 0.8"/>
     </g>
     <g id="line2d_14">
      <g>
       <use xlink:href="#mae9061953c" x="588.551741" y="313.718125" style="stroke: #000000; stroke-width: 0.8"/>
      </g>
     </g>
     <g id="text_7">
      <!-- 5 -->
      <g transform="translate(585.370491 328.316562) scale(0.1 -0.1)">
       <defs>
        <path id="DejaVuSans-35" d="M 691 4666 
L 3169 4666 
L 3169 4134 
L 1269 4134 
L 1269 2991 
Q 1406 3038 1543 3061 
Q 1681 3084 1819 3084 
Q 2600 3084 3056 2656 
Q 3513 2228 3513 1497 
Q 3513 744 3044 326 
Q 2575 -91 1722 -91 
Q 1428 -91 1123 -41 
Q 819 9 494 109 
L 494 744 
Q 775 591 1075 516 
Q 1375 441 1709 441 
Q 2250 441 2565 725 
Q 2881 1009 2881 1497 
Q 2881 1984 2565 2268 
Q 2250 2553 1709 2553 
Q 1456 2553 1204 2497 
Q 953 2441 691 2322 
L 691 4666 
z
" transform="scale(0.015625)"/>
       </defs>
       <use xlink:href="#DejaVuSans-35"/>
      </g>
     </g>
    </g>
    <g id="text_8">
     <!-- Position on bench (m) -->
     <g transform="translate(276.073438 342.754531) scale(0.11 -0.11)">
      <defs>
       <path id="DejaVuSans-50" d="M 1259 4147 
L 1259 2394 
L 2053 2394 
Q 2494 2394 2734 2622 
Q 2975 2850 2975 3272 
Q 2975 3691 2734 3919 
Q 2494 4147 2053 4147 
L 1259 4147 
z
M 628 4666 
L 2053 4666 
Q 2838 4666 3239 4311 
Q 3641 3956 3641 3272 
Q 3641 2581 3239 2228 
Q 2838 1875 2053 1875 
L 1259 1875 
L 1259 0 
L 628 0 
L 628 4666 
z
" transform="scale(0.015625)"/>
       <path id="DejaVuSans-6f" d="M 1959 3097 
Q 1497 3097 1228 2736 
Q 959 2375 959 1747 
Q 959 1119 1226 758 
Q 1494 397 1959 397 
Q 2419 397 2687 759 
Q 2956 1122 2956 1747 
Q 2956 2369 2687 2733 
Q 2419 3097 1959 3097 
z
M 1959 3584 
Q 2709 3584 3137 3096 
Q 3566 2609 3566 1747 
Q 3566 888 3137 398 
Q 2709 -91 1959 -91 
Q 1206 -91 779 398 
Q 353 888 353 1747 
Q 353 2609 779 3096 
Q 1206 3584 1959 3584 
z
" transform="scale(0.015625)"/>
       <path id="DejaVuSans-73" d="M 2834 3397 
L 2834 2853 
Q 2591 2978 2328 3040 
Q 2066 3103 1784 3103 
Q 1356 3103 1142 2972 
Q 928 2841 928 2578 
Q 928 2378 1081 2264 
Q 1234 2150 1697 2047 
L 1894 2003 
Q 2506 1872 2764 1633 
Q 3022 1394 3022 966 
Q 3022 478 2636 193 
Q 2250 -91 1575 -91 
Q 1294 -91 989 -36 
Q 684 19 347 128 
L 347 722 
Q 666 556 975 473 
Q 1284 391 1588 391 
Q 1994 391 2212 530 
Q 2431 669 2431 922 
Q 2431 1156 2273 1281 
Q 2116 1406 1581 1522 
L 1381 1569 
Q 847 1681 609 1914 
Q 372 2147 372 2553 
Q 372 3047 722 3315 
Q 1072 3584 1716 3584 
Q 2034 3584 2315 3537 
Q 2597 3491 2834 3397 
z
" transform="scale(0.015625)"/>
       <path id="DejaVuSans-69" d="M 603 3500 
L 1178 3500 
L 1178 0 
L 603 0 
L 603 3500 
z
M 603 4863 
L 1178 4863 
L 1178 4134 
L 603 4134 
L 603 4863 
z
" transform="scale(0.015625)"/>
       <path id="DejaVuSans-74" d="M 1172 4494 
L 1172 3500 
L 2356 3500 
L 2356 3053 
L 1172 3053 
L 1172 1153 
Q 1172 725 1289 603 
Q 1406 481 1766 481 
L 2356 481 
L 2356 0 
L 1766 0 
Q 1100 0 847 248 
Q 594 497 594 1153 
L 594 3053 
L 172 3053 
L 172 3500 
L 594 3500 
L 594 4494 
L 1172 4494 
z
" transform="scale(0.015625)"/>
       <path id="DejaVuSans-6e" d="M 3513 2113 
L 3513 0 
L 2938 0 
L 2938 2094 
Q 2938 2591 2744 2837 
Q 2550 3084 2163 3084 
Q 1697 3084 1428 2787 
Q 1159 2491 1159 1978 
L 1159 0 
L 581 0 
L 581 3500 
L 1159 3500 
L 1159 2956 
Q 1366 3272 1645 3428 
Q 1925 3584 2291 3584 
Q 2894 3584 3203 3211 
Q 3513 2838 3513 2113 
z
" transform="scale(0.015625)"/>
       <path id="DejaVuSans-20" transform="scale(0.015625)"/>
       <path id="DejaVuSans-62" d="M 3116 1747 
Q 3116 2381 2855 2742 
Q 2594 3103 2138 3103 
Q 1681 3103 1420 2742 
Q 1159 2381 1159 1747 
Q 1159 1113 1420 752 
Q 1681 391 2138 391 
Q 2594 391 2855 752 
Q 3116 1113 3116 1747 
z
M 1159 2969 
Q 1341 3281 1617 3432 
Q 1894 3584 2278 3584 
Q 2916 3584 3314 3078 
Q 3713 2572 3713 1747 
Q 3713 922 3314 415 
Q 2916 -91 2278 -91 
Q 1894 -91 1617 61 
Q 1341 213 1159 525 
L 1159 0 
L 581 0 
L 581 4863 
L 1159 4863 
L 1159 2969 
z
" transform="scale(0.015625)"/>
       <path id="DejaVuSans-65" d="M 3597 1894 
L 3597 1613 
L 953 1613 
Q 991 1019 1311 708 
Q 1631 397 2203 397 
Q 2534 397 2845 478 
Q 3156 559 3463 722 
L 3463 178 
Q 3153 47 2828 -22 
Q 2503 -91 2169 -91 
Q 1331 -91 842 396 
Q 353 884 353 1716 
Q 353 2575 817 3079 
Q 1281 3584 2069 3584 
Q 2775 3584 3186 3129 
Q 3597 2675 3597 1894 
z
M 3022 2063 
Q 3016 2534 2758 2815 
Q 2500 3097 2075 3097 
Q 1594 3097 1305 2825 
Q 1016 2553 972 2059 
L 3022 2063 
z
" transform="scale(0.015625)"/>
       <path id="DejaVuSans-63" d="M 3122 3366 
L 3122 2828 
Q 2878 2963 2633 3030 
Q 2388 3097 2138 3097 
Q 1578 3097 1268 2742 
Q 959 2388 959 1747 
Q 959 1106 1268 751 
Q 1578 397 2138 397 
Q 2388 397 2633 464 
Q 2878 531 3122 666 
L 3122 134 
Q 2881 22 2623 -34 
Q 2366 -91 2075 -91 
Q 1284 -91 818 406 
Q 353 903 353 1747 
Q 353 2603 823 3093 
Q 1294 3584 2113 3584 
Q 2378 3584 2631 3529 
Q 2884 3475 3122 3366 
z
" transform="scale(0.015625)"/>
       <path id="DejaVuSans-68" d="M 3513 2113 
L 3513 0 
L 2938 0 
L 2938 2094 
Q 2938 2591 2744 2837 
Q 2550 3084 2163 3084 
Q 1697 3084 1428 2787 
Q 1159 2491 1159 1978 
L 1159 0 
L 581 0 
L 581 4863 
L 1159 4863 
L 1159 2956 
Q 1366 3272 1645 3428 
Q 1925 3584 2291 3584 
Q 2894 3584 3203 3211 
Q 3513 2838 3513 2113 
z
" transform="scale(0.015625)"/>
       <path id="DejaVuSans-28" d="M 1984 4856 
Q 1566 4138 1362 3434 
Q 1159 2731 1159 2009 
Q 1159 1288 1364 580 
Q 1569 -128 1984 -844 
L 1484 -844 
Q 1016 -109 783 600 
Q 550 1309 550 2009 
Q 550 2706 781 3412 
Q 1013 4119 1484 4856 
L 1984 4856 
z
" transform="scale(0.015625)"/>
       <path id="DejaVuSans-6d" d="M 3328 2828 
Q 3544 3216 3844 3400 
Q 4144 3584 4550 3584 
Q 5097 3584 5394 3201 
Q 5691 2819 5691 2113 
L 5691 0 
L 5113 0 
L 5113 2094 
Q 5113 2597 4934 2840 
Q 4756 3084 4391 3084 
Q 3944 3084 3684 2787 
Q 3425 2491 3425 1978 
L 3425 0 
L 2847 0 
L 2847 2094 
Q 2847 2600 2669 2842 
Q 2491 3084 2119 3084 
Q 1678 3084 1418 2786 
Q 1159 2488 1159 1978 
L 1159 0 
L 581 0 
L 581 3500 
L 1159 3500 
L 1159 2956 
Q 1356 3278 1631 3431 
Q 1906 3584 2284 3584 
Q 2666 3584 2933 3390 
Q 3200 3197 3328 2828 
z
" transform="scale(0.015625)"/>
       <path id="DejaVuSans-29" d="M 513 4856 
L 1013 4856 
Q 1481 4119 1714 3412 
Q 1947 2706 1947 2009 
Q 1947 1309 1714 600 
Q 1481 -109 1013 -844 
L 513 -844 
Q 928 -128 1133 580 
Q 1338 1288 1338 2009 
Q 1338 2731 1133 3434 
Q 928 4138 513 4856 
z
" transform="scale(0.015625)"/>
      </defs>
      <use xlink:href="#DejaVuSans-50"/>
      <use xlink:href="#DejaVuSans-6f" transform="translate(56.677734 0)"/>
      <use xlink:href="#DejaVuSans-73" transform="translate(117.859375 0)"/>
      <use xlink:href="#DejaVuSans-69" transform="translate(169.958984 0)"/>
      <use xlink:href="#DejaVuSans-74" transform="translate(197.742188 0)"/>
      <use xlink:href="#DejaVuSans-69" transform="translate(236.951172 0)"/>
      <use xlink:href="#DejaVuSans-6f" transform="translate(264.734375 0)"/>
      <use xlink:href="#DejaVuSans-6e" transform="translate(325.916016 0)"/>
      <use xlink:href="#DejaVuSans-20" transform="translate(389.294922 0)"/>
      <use xlink:href="#DejaVuSans-6f" transform="translate(421.082031 0)"/>
      <use xlink:href="#DejaVuSans-6e" transform="translate(482.263672 0)"/>
      <use xlink:href="#DejaVuSans-20" transform="translate(545.642578 0)"/>
      <use xlink:href="#DejaVuSans-62" transform="translate(577.429688 0)"/>
      <use xlink:href="#DejaVuSans-65" transform="translate(640.90625 0)"/>
      <use xlink:href="#DejaVuSans-6e" transform="translate(702.429688 0)"/>
      <use xlink:href="#DejaVuSans-63" transform="translate(765.808594 0)"/>
      <use xlink:href="#DejaVuSans-68" transform="translate(820.789062 0)"/>
      <use xlink:href="#DejaVuSans-20" transform="translate(884.167969 0)"/>
      <use xlink:href="#DejaVuSans-28" transform="translate(915.955078 0)"/>
      <use xlink:href="#DejaVuSans-6d" transform="translate(954.96875 0)"/>
      <use xlink:href="#DejaVuSans-29" transform="translate(1052.380859 0)"/>
     </g>
    </g>
   </g>
   <g id="matplotlib.axis_2">
    <g id="ytick_1">
     <g id="line2d_15">
      <path d="M 41.570937 282.496696 
L 630.627187 282.496696 
" clip-path="url(#p39e97c9c57)" style="fill: none; stroke-dasharray: 2.96,1.28; stroke-dashoffset: 0; stroke: #b0b0b0; stroke-opacity: 0.4; stroke-width: 0.8"/>
     </g>
     <g id="line2d_16">
      <defs>
       <path id="md8147212d5" d="M 0 0 
L -3.5 0 
" style="stroke: #000000; stroke-width: 0.8"/>
      </defs>
      <g>
       <use xlink:href="#md8147212d5" x="41.570937" y="282.496696" style="stroke: #000000; stroke-width: 0.8"/>
      </g>
     </g>
     <g id="text_9">
      <!-- 70 -->
      <g transform="translate(21.845937 286.295915) scale(0.1 -0.1)">
       <defs>
        <path id="DejaVuSans-37" d="M 525 4666 
L 3525 4666 
L 3525 4397 
L 1831 0 
L 1172 0 
L 2766 4134 
L 525 4134 
L 525 4666 
z
" transform="scale(0.015625)"/>
       </defs>
       <use xlink:href="#DejaVuSans-37"/>
       <use xlink:href="#DejaVuSans-30" transform="translate(63.623047 0)"/>
      </g>
     </g>
    </g>
    <g id="ytick_2">
     <g id="line2d_17">
      <path d="M 41.570937 230.460982 
L 630.627187 230.460982 
" clip-path="url(#p39e97c9c57)" style="fill: none; stroke-dasharray: 2.96,1.28; stroke-dashoffset: 0; stroke: #b0b0b0; stroke-opacity: 0.4; stroke-width: 0.8"/>
     </g>
     <g id="line2d_18">
      <g>
       <use xlink:href="#md8147212d5" x="41.570937" y="230.460982" style="stroke: #000000; stroke-width: 0.8"/>
      </g>
     </g>
     <g id="text_10">
      <!-- 75 -->
      <g transform="translate(21.845937 234.260201) scale(0.1 -0.1)">
       <use xlink:href="#DejaVuSans-37"/>
       <use xlink:href="#DejaVuSans-35" transform="translate(63.623047 0)"/>
      </g>
     </g>
    </g>
    <g id="ytick_3">
     <g id="line2d_19">
      <path d="M 41.570937 178.425268 
L 630.627187 178.425268 
" clip-path="url(#p39e97c9c57)" style="fill: none; stroke-dasharray: 2.96,1.28; stroke-dashoffset: 0; stroke: #b0b0b0; stroke-opacity: 0.4; stroke-width: 0.8"/>
     </g>
     <g id="line2d_20">
      <g>
       <use xlink:href="#md8147212d5" x="41.570937" y="178.425268" style="stroke: #000000; stroke-width: 0.8"/>
      </g>
     </g>
     <g id="text_11">
      <!-- 80 -->
      <g transform="translate(21.845937 182.224487) scale(0.1 -0.1)">
       <defs>
        <path id="DejaVuSans-38" d="M 2034 2216 
Q 1584 2216 1326 1975 
Q 1069 1734 1069 1313 
Q 1069 891 1326 650 
Q 1584 409 2034 409 
Q 2484 409 2743 651 
Q 3003 894 3003 1313 
Q 3003 1734 2745 1975 
Q 2488 2216 2034 2216 
z
M 1403 2484 
Q 997 2584 770 2862 
Q 544 3141 544 3541 
Q 544 4100 942 4425 
Q 1341 4750 2034 4750 
Q 2731 4750 3128 4425 
Q 3525 4100 3525 3541 
Q 3525 3141 3298 2862 
Q 3072 2584 2669 2484 
Q 3125 2378 3379 2068 
Q 3634 1759 3634 1313 
Q 3634 634 3220 271 
Q 2806 -91 2034 -91 
Q 1263 -91 848 271 
Q 434 634 434 1313 
Q 434 1759 690 2068 
Q 947 2378 1403 2484 
z
M 1172 3481 
Q 1172 3119 1398 2916 
Q 1625 2713 2034 2713 
Q 2441 2713 2670 2916 
Q 2900 3119 2900 3481 
Q 2900 3844 2670 4047 
Q 2441 4250 2034 4250 
Q 1625 4250 1398 4047 
Q 1172 3844 1172 3481 
z
" transform="scale(0.015625)"/>
       </defs>
       <use xlink:href="#DejaVuSans-38"/>
       <use xlink:href="#DejaVuSans-30" transform="translate(63.623047 0)"/>
      </g>
     </g>
    </g>
    <g id="ytick_4">
     <g id="line2d_21">
      <path d="M 41.570937 126.389554 
L 630.627187 126.389554 
" clip-path="url(#p39e97c9c57)" style="fill: none; stroke-dasharray: 2.96,1.28; stroke-dashoffset: 0; stroke: #b0b0b0; stroke-opacity: 0.4; stroke-width: 0.8"/>
     </g>
     <g id="line2d_22">
      <g>
       <use xlink:href="#md8147212d5" x="41.570937" y="126.389554" style="stroke: #000000; stroke-width: 0.8"/>
      </g>
     </g>
     <g id="text_12">
      <!-- 85 -->
      <g transform="translate(21.845937 130.188772) scale(0.1 -0.1)">
       <use xlink:href="#DejaVuSans-38"/>
       <use xlink:href="#DejaVuSans-35" transform="translate(63.623047 0)"/>
      </g>
     </g>
    </g>
    <g id="ytick_5">
     <g id="line2d_23">
      <path d="M 41.570937 74.353839 
L 630.627187 74.353839 
" clip-path="url(#p39e97c9c57)" style="fill: none; stroke-dasharray: 2.96,1.28; stroke-dashoffset: 0; stroke: #b0b0b0; stroke-opacity: 0.4; stroke-width: 0.8"/>
     </g>
     <g id="line2d_24">
      <g>
       <use xlink:href="#md8147212d5" x="41.570937" y="74.353839" style="stroke: #000000; stroke-width: 0.8"/>
      </g>
     </g>
     <g id="text_13">
      <!-- 90 -->
      <g transform="translate(21.845937 78.153058) scale(0.1 -0.1)">
       <defs>
        <path id="DejaVuSans-39" d="M 703 97 
L 703 672 
Q 941 559 1184 500 
Q 1428 441 1663 441 
Q 2288 441 2617 861 
Q 2947 1281 2994 2138 
Q 2813 1869 2534 1725 
Q 2256 1581 1919 1581 
Q 1219 1581 811 2004 
Q 403 2428 403 3163 
Q 403 3881 828 4315 
Q 1253 4750 1959 4750 
Q 2769 4750 3195 4129 
Q 3622 3509 3622 2328 
Q 3622 1225 3098 567 
Q 2575 -91 1691 -91 
Q 1453 -91 1209 -44 
Q 966 3 703 97 
z
M 1959 2075 
Q 2384 2075 2632 2365 
Q 2881 2656 2881 3163 
Q 2881 3666 2632 3958 
Q 2384 4250 1959 4250 
Q 1534 4250 1286 3958 
Q 1038 3666 1038 3163 
Q 1038 2656 1286 2365 
Q 1534 2075 1959 2075 
z
" transform="scale(0.015625)"/>
       </defs>
       <use xlink:href="#DejaVuSans-39"/>
       <use xlink:href="#DejaVuSans-30" transform="translate(63.623047 0)"/>
      </g>
     </g>
    </g>
    <g id="ytick_6">
     <g id="line2d_25">
      <path d="M 41.570937 22.318125 
L 630.627187 22.318125 
" clip-path="url(#p39e97c9c57)" style="fill: none; stroke-dasharray: 2.96,1.28; stroke-dashoffset: 0; stroke: #b0b0b0; stroke-opacity: 0.4; stroke-width: 0.8"/>
     </g>
     <g id="line2d_26">
      <g>
       <use xlink:href="#md8147212d5" x="41.570937" y="22.318125" style="stroke: #000000; stroke-width: 0.8"/>
      </g>
     </g>
     <g id="text_14">
      <!-- 95 -->
      <g transform="translate(21.845937 26.117344) scale(0.1 -0.1)">
       <use xlink:href="#DejaVuSans-39"/>
       <use xlink:href="#DejaVuSans-35" transform="translate(63.623047 0)"/>
      </g>
     </g>
    </g>
    <g id="text_15">
     <!-- $T(x)$ -->
     <g transform="translate(15.558281 178.963125) rotate(-90) scale(0.11 -0.11)">
      <defs>
       <path id="DejaVuSans-Oblique-54" d="M 378 4666 
L 4325 4666 
L 4225 4134 
L 2559 4134 
L 1759 0 
L 1125 0 
L 1925 4134 
L 275 4134 
L 378 4666 
z
" transform="scale(0.015625)"/>
       <path id="DejaVuSans-Oblique-78" d="M 3841 3500 
L 2234 1784 
L 3219 0 
L 2559 0 
L 1819 1388 
L 531 0 
L -166 0 
L 1556 1844 
L 641 3500 
L 1300 3500 
L 1972 2234 
L 3144 3500 
L 3841 3500 
z
" transform="scale(0.015625)"/>
      </defs>
      <use xlink:href="#DejaVuSans-Oblique-54" transform="translate(0 0.125)"/>
      <use xlink:href="#DejaVuSans-28" transform="translate(61.083984 0.125)"/>
      <use xlink:href="#DejaVuSans-Oblique-78" transform="translate(100.097656 0.125)"/>
      <use xlink:href="#DejaVuSans-29" transform="translate(159.277344 0.125)"/>
     </g>
    </g>
   </g>
   <g id="line2d_27">
    <path d="M 41.570937 60.206277 
L 49.451289 62.530471 
L 57.33164 65.094634 
L 65.211991 67.8933 
L 73.092342 70.920639 
L 80.972693 74.170457 
L 88.853045 77.636195 
L 96.733396 81.310933 
L 104.613747 85.187384 
L 114.464186 90.304921 
L 124.314625 95.709917 
L 134.165064 101.385746 
L 144.015503 107.314893 
L 153.865942 113.478952 
L 165.686468 121.158684 
L 177.506995 129.113839 
L 191.29761 138.693672 
L 207.058312 149.960236 
L 224.789102 162.92374 
L 283.891736 206.413572 
L 297.682351 216.166761 
L 309.502877 224.269147 
L 321.323404 232.073306 
L 331.173843 238.306254 
L 341.024282 244.255691 
L 348.904633 248.786839 
L 356.784984 253.094484 
L 364.665335 257.159335 
L 372.545687 260.961739 
L 380.426038 264.481675 
L 388.306389 267.698763 
L 394.216652 269.900369 
L 400.126916 271.911074 
L 406.037179 273.721876 
L 411.947443 275.32366 
L 417.857706 276.707193 
L 423.767969 277.863128 
L 429.678233 278.782004 
L 435.588496 279.454243 
L 441.498759 279.870153 
L 447.409023 280.019928 
L 453.319286 279.893643 
L 459.22955 279.481263 
L 465.139813 278.772635 
L 471.050076 277.75749 
L 476.96034 276.425445 
L 482.870603 274.766004 
L 488.780866 272.768553 
L 494.69113 270.422363 
L 498.631305 268.659144 
L 502.571481 266.732871 
L 506.511657 264.640282 
L 510.451832 262.378089 
L 514.392008 259.942983 
L 518.332183 257.331632 
L 522.272359 254.54068 
L 526.212534 251.566751 
L 532.122798 246.75533 
L 538.033061 241.51298 
L 543.943325 235.828015 
L 549.853588 229.688631 
L 555.763851 223.082911 
L 561.674115 215.998823 
L 567.584378 208.424218 
L 573.494642 200.346834 
L 579.404905 191.754293 
L 585.315168 182.634101 
L 591.225432 172.973651 
L 597.135695 162.760219 
L 603.045958 151.980967 
L 608.956222 140.622941 
L 614.866485 128.673072 
L 620.776749 116.118177 
L 626.687012 102.944957 
L 630.627187 93.812676 
L 630.627187 93.812676 
" clip-path="url(#p39e97c9c57)" style="fill: none; stroke: #4682b4; stroke-width: 2.5; stroke-linecap: square"/>
   </g>
   <g id="line2d_28">
    <path d="M 117.306741 88.935102 
L 119.367579 90.307551 
L 121.428417 91.679999 
L 123.489256 93.052447 
L 125.550094 94.424896 
L 127.610932 95.797344 
L 129.67177 97.169792 
L 131.732608 98.54224 
L 133.793447 99.914689 
L 135.854285 101.287137 
L 137.915123 102.659585 
L 139.975961 104.032034 
L 142.036799 105.404482 
L 144.097638 106.77693 
L 146.158476 108.149378 
L 148.219314 109.521827 
L 150.280152 110.894275 
L 152.34099 112.266723 
L 154.401829 113.639172 
L 156.462667 115.01162 
L 158.523505 116.384068 
L 160.584343 117.756516 
L 162.645181 119.128965 
L 164.706019 120.501413 
L 166.766858 121.873861 
L 168.827696 123.24631 
L 170.888534 124.618758 
L 172.949372 125.991206 
L 175.01021 127.363654 
L 177.071049 128.736103 
L 179.131887 130.108551 
L 181.192725 131.480999 
L 183.253563 132.853448 
L 185.314401 134.225896 
L 187.37524 135.598344 
L 189.436078 136.970792 
L 191.496916 138.343241 
L 193.557754 139.715689 
L 195.618592 141.088137 
L 197.679431 142.460586 
L 199.740269 143.833034 
L 201.801107 145.205482 
L 203.861945 146.57793 
L 205.922783 147.950379 
L 207.983622 149.322827 
L 210.04446 150.695275 
L 212.105298 152.067724 
L 214.166136 153.440172 
L 216.226974 154.81262 
L 218.287812 156.185068 
" clip-path="url(#p39e97c9c57)" style="fill: none; stroke-dasharray: 7.4,3.2; stroke-dashoffset: 0; stroke: #cc0000; stroke-opacity: 0.8; stroke-width: 2"/>
   </g>
   <g id="line2d_29">
    <path d="M 243.53308 178.137565 
L 245.593919 179.585315 
L 247.654757 181.033066 
L 249.715595 182.480816 
L 251.776433 183.928567 
L 253.837271 185.376317 
L 255.89811 186.824068 
L 257.958948 188.271818 
L 260.019786 189.719568 
L 262.080624 191.167319 
L 264.141462 192.615069 
L 266.2023 194.06282 
L 268.263139 195.51057 
L 270.323977 196.958321 
L 272.384815 198.406071 
L 274.445653 199.853821 
L 276.506491 201.301572 
L 278.56733 202.749322 
L 280.628168 204.197073 
L 282.689006 205.644823 
L 284.749844 207.092574 
L 286.810682 208.540324 
L 288.871521 209.988074 
L 290.932359 211.435825 
L 292.993197 212.883575 
L 295.054035 214.331326 
L 297.114873 215.779076 
L 299.175712 217.226827 
L 301.23655 218.674577 
L 303.297388 220.122328 
L 305.358226 221.570078 
L 307.419064 223.017828 
L 309.479903 224.465579 
L 311.540741 225.913329 
L 313.601579 227.36108 
L 315.662417 228.80883 
L 317.723255 230.256581 
L 319.784093 231.704331 
L 321.844932 233.152081 
L 323.90577 234.599832 
L 325.966608 236.047582 
L 328.027446 237.495333 
L 330.088284 238.943083 
L 332.149123 240.390834 
L 334.209961 241.838584 
L 336.270799 243.286334 
L 338.331637 244.734085 
L 340.392475 246.181835 
L 342.453314 247.629586 
L 344.514152 249.077336 
" clip-path="url(#p39e97c9c57)" style="fill: none; stroke-dasharray: 7.4,3.2; stroke-dashoffset: 0; stroke: #cc0000; stroke-opacity: 0.8; stroke-width: 2"/>
   </g>
   <g id="line2d_30">
    <path d="M 397.205312 280.020253 
L 399.26615 280.020253 
L 401.326988 280.020253 
L 403.387827 280.020253 
L 405.448665 280.020253 
L 407.509503 280.020253 
L 409.570341 280.020253 
L 411.631179 280.020253 
L 413.692018 280.020253 
L 415.752856 280.020253 
L 417.813694 280.020253 
L 419.874532 280.020253 
L 421.93537 280.020253 
L 423.996208 280.020253 
L 426.057047 280.020253 
L 428.117885 280.020253 
L 430.178723 280.020253 
L 432.239561 280.020253 
L 434.300399 280.020253 
L 436.361238 280.020253 
L 438.422076 280.020253 
L 440.482914 280.020253 
L 442.543752 280.020253 
L 444.60459 280.020253 
L 446.665429 280.020253 
L 448.726267 280.020253 
L 450.787105 280.020253 
L 452.847943 280.020253 
L 454.908781 280.020253 
L 456.96962 280.020253 
L 459.030458 280.020253 
L 461.091296 280.020253 
L 463.152134 280.020253 
L 465.212972 280.020253 
L 467.273811 280.020253 
L 469.334649 280.020253 
L 471.395487 280.020253 
L 473.456325 280.020253 
L 475.517163 280.020253 
L 477.578001 280.020253 
L 479.63884 280.020253 
L 481.699678 280.020253 
L 483.760516 280.020253 
L 485.821354 280.020253 
L 487.882192 280.020253 
L 489.943031 280.020253 
L 492.003869 280.020253 
L 494.064707 280.020253 
L 496.125545 280.020253 
L 498.186383 280.020253 
" clip-path="url(#p39e97c9c57)" style="fill: none; stroke-dasharray: 7.4,3.2; stroke-dashoffset: 0; stroke: #2e8b57; stroke-opacity: 0.8; stroke-width: 2"/>
   </g>
   <g id="line2d_31">
    <path d="M 453.910312 292.51864 
L 455.971151 291.427356 
L 458.031989 290.336073 
L 460.092827 289.244789 
L 462.153665 288.153506 
L 464.214503 287.062222 
L 466.275342 285.970939 
L 468.33618 284.879655 
L 470.397018 283.788372 
L 472.457856 282.697088 
L 474.518694 281.605805 
L 476.579533 280.514521 
L 478.640371 279.423238 
L 480.701209 278.331954 
L 482.762047 277.240671 
L 484.822885 276.149387 
L 486.883724 275.058104 
L 488.944562 273.96682 
L 491.0054 272.875537 
L 493.066238 271.784253 
L 495.127076 270.69297 
L 497.187915 269.601686 
L 499.248753 268.510403 
L 501.309591 267.41912 
L 503.370429 266.327836 
L 505.431267 265.236553 
L 507.492106 264.145269 
L 509.552944 263.053986 
L 511.613782 261.962702 
L 513.67462 260.871419 
L 515.735458 259.780135 
L 517.796296 258.688852 
L 519.857135 257.597568 
L 521.917973 256.506285 
L 523.978811 255.415001 
L 526.039649 254.323718 
L 528.100487 253.232434 
L 530.161326 252.141151 
L 532.222164 251.049867 
L 534.283002 249.958584 
L 536.34384 248.8673 
L 538.404678 247.776017 
L 540.465517 246.684733 
L 542.526355 245.59345 
L 544.587193 244.502166 
L 546.648031 243.410883 
L 548.708869 242.319599 
L 550.769708 241.228316 
L 552.830546 240.137032 
L 554.891384 239.045749 
" clip-path="url(#p39e97c9c57)" style="fill: none; stroke-dasharray: 7.4,3.2; stroke-dashoffset: 0; stroke: #cc7000; stroke-opacity: 0.8; stroke-width: 2"/>
   </g>
   <g id="line2d_32">
    <path d="M 538.061205 260.157381 
L 540.122044 256.780002 
L 542.182882 253.402622 
L 544.24372 250.025243 
L 546.304558 246.647864 
L 548.365396 243.270484 
L 550.426235 239.893105 
L 552.487073 236.515725 
L 554.547911 233.138346 
L 556.608749 229.760966 
L 558.669587 226.383587 
L 560.730425 223.006208 
L 562.791264 219.628828 
L 564.852102 216.251449 
L 566.91294 212.874069 
L 568.973778 209.49669 
L 571.034616 206.11931 
L 573.095455 202.741931 
L 575.156293 199.364551 
L 577.217131 195.987172 
L 579.277969 192.609793 
L 581.338807 189.232413 
L 583.399646 185.855034 
L 585.460484 182.477654 
L 587.521322 179.100275 
L 589.58216 175.722895 
L 591.642998 172.345516 
L 593.703837 168.968137 
L 595.764675 165.590757 
L 597.825513 162.213378 
L 599.886351 158.835998 
L 601.947189 155.458619 
L 604.008028 152.081239 
L 606.068866 148.70386 
L 608.129704 145.32648 
L 610.190542 141.949101 
L 612.25138 138.571722 
L 614.312218 135.194342 
L 616.373057 131.816963 
L 618.433895 128.439583 
L 620.494733 125.062204 
L 622.555571 121.684824 
L 624.616409 118.307445 
L 626.677248 114.930066 
L 628.738086 111.552686 
L 630.798924 108.175307 
L 632.859762 104.797927 
L 634.9206 101.420548 
L 636.981439 98.043168 
L 638.827188 95.018285 
" clip-path="url(#p39e97c9c57)" style="fill: none; stroke-dasharray: 7.4,3.2; stroke-dashoffset: 0; stroke: #cc7000; stroke-opacity: 0.8; stroke-width: 2"/>
   </g>
   <g id="patch_3">
    <path d="M 41.570937 313.718125 
L 41.570937 22.318125 
" style="fill: none; stroke: #000000; stroke-width: 0.8; stroke-linejoin: miter; stroke-linecap: square"/>
   </g>
   <g id="patch_4">
    <path d="M 630.627187 313.718125 
L 630.627187 22.318125 
" style="fill: none; stroke: #000000; stroke-width: 0.8; stroke-linejoin: miter; stroke-linecap: square"/>
   </g>
   <g id="patch_5">
    <path d="M 41.570937 313.718125 
L 630.627187 313.718125 
" style="fill: none; stroke: #000000; stroke-width: 0.8; stroke-linejoin: miter; stroke-linecap: square"/>
   </g>
   <g id="patch_6">
    <path d="M 41.570937 22.318125 
L 630.627187 22.318125 
" style="fill: none; stroke: #000000; stroke-width: 0.8; stroke-linejoin: miter; stroke-linecap: square"/>
   </g>
   <g id="text_16">
    <!-- slope &lt; 0 -->
    <g style="fill: #cc0000" transform="translate(144.176496 158.985085) scale(0.09 -0.09)">
     <defs>
      <path id="DejaVuSans-Bold-73" d="M 3272 3391 
L 3272 2541 
Q 2913 2691 2578 2766 
Q 2244 2841 1947 2841 
Q 1628 2841 1473 2761 
Q 1319 2681 1319 2516 
Q 1319 2381 1436 2309 
Q 1553 2238 1856 2203 
L 2053 2175 
Q 2913 2066 3209 1816 
Q 3506 1566 3506 1031 
Q 3506 472 3093 190 
Q 2681 -91 1863 -91 
Q 1516 -91 1145 -36 
Q 775 19 384 128 
L 384 978 
Q 719 816 1070 734 
Q 1422 653 1784 653 
Q 2113 653 2278 743 
Q 2444 834 2444 1013 
Q 2444 1163 2330 1236 
Q 2216 1309 1875 1350 
L 1678 1375 
Q 931 1469 631 1722 
Q 331 1975 331 2491 
Q 331 3047 712 3315 
Q 1094 3584 1881 3584 
Q 2191 3584 2531 3537 
Q 2872 3491 3272 3391 
z
" transform="scale(0.015625)"/>
      <path id="DejaVuSans-Bold-6c" d="M 538 4863 
L 1656 4863 
L 1656 0 
L 538 0 
L 538 4863 
z
" transform="scale(0.015625)"/>
      <path id="DejaVuSans-Bold-6f" d="M 2203 2784 
Q 1831 2784 1636 2517 
Q 1441 2250 1441 1747 
Q 1441 1244 1636 976 
Q 1831 709 2203 709 
Q 2569 709 2762 976 
Q 2956 1244 2956 1747 
Q 2956 2250 2762 2517 
Q 2569 2784 2203 2784 
z
M 2203 3584 
Q 3106 3584 3614 3096 
Q 4122 2609 4122 1747 
Q 4122 884 3614 396 
Q 3106 -91 2203 -91 
Q 1297 -91 786 396 
Q 275 884 275 1747 
Q 275 2609 786 3096 
Q 1297 3584 2203 3584 
z
" transform="scale(0.015625)"/>
      <path id="DejaVuSans-Bold-70" d="M 1656 506 
L 1656 -1331 
L 538 -1331 
L 538 3500 
L 1656 3500 
L 1656 2988 
Q 1888 3294 2169 3439 
Q 2450 3584 2816 3584 
Q 3463 3584 3878 3070 
Q 4294 2556 4294 1747 
Q 4294 938 3878 423 
Q 3463 -91 2816 -91 
Q 2450 -91 2169 54 
Q 1888 200 1656 506 
z
M 2400 2772 
Q 2041 2772 1848 2508 
Q 1656 2244 1656 1747 
Q 1656 1250 1848 986 
Q 2041 722 2400 722 
Q 2759 722 2948 984 
Q 3138 1247 3138 1747 
Q 3138 2247 2948 2509 
Q 2759 2772 2400 2772 
z
" transform="scale(0.015625)"/>
      <path id="DejaVuSans-Bold-65" d="M 4031 1759 
L 4031 1441 
L 1416 1441 
Q 1456 1047 1700 850 
Q 1944 653 2381 653 
Q 2734 653 3104 758 
Q 3475 863 3866 1075 
L 3866 213 
Q 3469 63 3072 -14 
Q 2675 -91 2278 -91 
Q 1328 -91 801 392 
Q 275 875 275 1747 
Q 275 2603 792 3093 
Q 1309 3584 2216 3584 
Q 3041 3584 3536 3087 
Q 4031 2591 4031 1759 
z
M 2881 2131 
Q 2881 2450 2695 2645 
Q 2509 2841 2209 2841 
Q 1884 2841 1681 2658 
Q 1478 2475 1428 2131 
L 2881 2131 
z
" transform="scale(0.015625)"/>
      <path id="DejaVuSans-Bold-20" transform="scale(0.015625)"/>
      <path id="DejaVuSans-Bold-3c" d="M 4684 3041 
L 1672 2003 
L 4684 972 
L 4684 191 
L 678 1638 
L 678 2375 
L 4684 3822 
L 4684 3041 
z
" transform="scale(0.015625)"/>
      <path id="DejaVuSans-Bold-30" d="M 2944 2338 
Q 2944 3213 2780 3570 
Q 2616 3928 2228 3928 
Q 1841 3928 1675 3570 
Q 1509 3213 1509 2338 
Q 1509 1453 1675 1090 
Q 1841 728 2228 728 
Q 2613 728 2778 1090 
Q 2944 1453 2944 2338 
z
M 4147 2328 
Q 4147 1169 3647 539 
Q 3147 -91 2228 -91 
Q 1306 -91 806 539 
Q 306 1169 306 2328 
Q 306 3491 806 4120 
Q 1306 4750 2228 4750 
Q 3147 4750 3647 4120 
Q 4147 3491 4147 2328 
z
" transform="scale(0.015625)"/>
     </defs>
     <use xlink:href="#DejaVuSans-Bold-73"/>
     <use xlink:href="#DejaVuSans-Bold-6c" transform="translate(59.521484 0)"/>
     <use xlink:href="#DejaVuSans-Bold-6f" transform="translate(93.798828 0)"/>
     <use xlink:href="#DejaVuSans-Bold-70" transform="translate(162.5 0)"/>
     <use xlink:href="#DejaVuSans-Bold-65" transform="translate(234.082031 0)"/>
     <use xlink:href="#DejaVuSans-Bold-20" transform="translate(301.904297 0)"/>
     <use xlink:href="#DejaVuSans-Bold-3c" transform="translate(336.71875 0)"/>
     <use xlink:href="#DejaVuSans-Bold-20" transform="translate(420.507812 0)"/>
     <use xlink:href="#DejaVuSans-Bold-30" transform="translate(455.322266 0)"/>
    </g>
   </g>
   <g id="text_17">
    <!-- slope &lt; 0 -->
    <g style="fill: #cc0000" transform="translate(270.402835 250.032451) scale(0.09 -0.09)">
     <use xlink:href="#DejaVuSans-Bold-73"/>
     <use xlink:href="#DejaVuSans-Bold-6c" transform="translate(59.521484 0)"/>
     <use xlink:href="#DejaVuSans-Bold-6f" transform="translate(93.798828 0)"/>
     <use xlink:href="#DejaVuSans-Bold-70" transform="translate(162.5 0)"/>
     <use xlink:href="#DejaVuSans-Bold-65" transform="translate(234.082031 0)"/>
     <use xlink:href="#DejaVuSans-Bold-20" transform="translate(301.904297 0)"/>
     <use xlink:href="#DejaVuSans-Bold-3c" transform="translate(336.71875 0)"/>
     <use xlink:href="#DejaVuSans-Bold-20" transform="translate(420.507812 0)"/>
     <use xlink:href="#DejaVuSans-Bold-30" transform="translate(455.322266 0)"/>
    </g>
   </g>
   <g id="text_18">
    <!-- slope = 0 -->
    <g style="fill: #2e8b57" transform="translate(424.075066 254.002396) scale(0.09 -0.09)">
     <defs>
      <path id="DejaVuSans-Bold-3d" d="M 678 3084 
L 4684 3084 
L 4684 2350 
L 678 2350 
L 678 3084 
z
M 678 1663 
L 4684 1663 
L 4684 922 
L 678 922 
L 678 1663 
z
" transform="scale(0.015625)"/>
     </defs>
     <use xlink:href="#DejaVuSans-Bold-73"/>
     <use xlink:href="#DejaVuSans-Bold-6c" transform="translate(59.521484 0)"/>
     <use xlink:href="#DejaVuSans-Bold-6f" transform="translate(93.798828 0)"/>
     <use xlink:href="#DejaVuSans-Bold-70" transform="translate(162.5 0)"/>
     <use xlink:href="#DejaVuSans-Bold-65" transform="translate(234.082031 0)"/>
     <use xlink:href="#DejaVuSans-Bold-20" transform="translate(301.904297 0)"/>
     <use xlink:href="#DejaVuSans-Bold-3d" transform="translate(336.71875 0)"/>
     <use xlink:href="#DejaVuSans-Bold-20" transform="translate(420.507812 0)"/>
     <use xlink:href="#DejaVuSans-Bold-30" transform="translate(455.322266 0)"/>
    </g>
   </g>
   <g id="text_19">
    <!-- slope &gt; 0 -->
    <g style="fill: #cc7000" transform="translate(480.780067 239.764337) scale(0.09 -0.09)">
     <defs>
      <path id="DejaVuSans-Bold-3e" d="M 678 3041 
L 678 3822 
L 4684 2375 
L 4684 1638 
L 678 191 
L 678 972 
L 3694 2003 
L 678 3041 
z
" transform="scale(0.015625)"/>
     </defs>
     <use xlink:href="#DejaVuSans-Bold-73"/>
     <use xlink:href="#DejaVuSans-Bold-6c" transform="translate(59.521484 0)"/>
     <use xlink:href="#DejaVuSans-Bold-6f" transform="translate(93.798828 0)"/>
     <use xlink:href="#DejaVuSans-Bold-70" transform="translate(162.5 0)"/>
     <use xlink:href="#DejaVuSans-Bold-65" transform="translate(234.082031 0)"/>
     <use xlink:href="#DejaVuSans-Bold-20" transform="translate(301.904297 0)"/>
     <use xlink:href="#DejaVuSans-Bold-3e" transform="translate(336.71875 0)"/>
     <use xlink:href="#DejaVuSans-Bold-20" transform="translate(420.507812 0)"/>
     <use xlink:href="#DejaVuSans-Bold-30" transform="translate(455.322266 0)"/>
    </g>
   </g>
   <g id="text_20">
    <!-- slope &gt; 0 -->
    <g style="fill: #cc7000" transform="translate(564.93096 151.393728) scale(0.09 -0.09)">
     <use xlink:href="#DejaVuSans-Bold-73"/>
     <use xlink:href="#DejaVuSans-Bold-6c" transform="translate(59.521484 0)"/>
     <use xlink:href="#DejaVuSans-Bold-6f" transform="translate(93.798828 0)"/>
     <use xlink:href="#DejaVuSans-Bold-70" transform="translate(162.5 0)"/>
     <use xlink:href="#DejaVuSans-Bold-65" transform="translate(234.082031 0)"/>
     <use xlink:href="#DejaVuSans-Bold-20" transform="translate(301.904297 0)"/>
     <use xlink:href="#DejaVuSans-Bold-3e" transform="translate(336.71875 0)"/>
     <use xlink:href="#DejaVuSans-Bold-20" transform="translate(420.507812 0)"/>
     <use xlink:href="#DejaVuSans-Bold-30" transform="translate(455.322266 0)"/>
    </g>
   </g>
   <g id="text_21">
    <!-- Slope of the tangent tells you which way to go -->
    <g style="fill: #808080" transform="translate(196.526875 16.318125) scale(0.12 -0.12)">
     <defs>
      <path id="DejaVuSans-53" d="M 3425 4513 
L 3425 3897 
Q 3066 4069 2747 4153 
Q 2428 4238 2131 4238 
Q 1616 4238 1336 4038 
Q 1056 3838 1056 3469 
Q 1056 3159 1242 3001 
Q 1428 2844 1947 2747 
L 2328 2669 
Q 3034 2534 3370 2195 
Q 3706 1856 3706 1288 
Q 3706 609 3251 259 
Q 2797 -91 1919 -91 
Q 1588 -91 1214 -16 
Q 841 59 441 206 
L 441 856 
Q 825 641 1194 531 
Q 1563 422 1919 422 
Q 2459 422 2753 634 
Q 3047 847 3047 1241 
Q 3047 1584 2836 1778 
Q 2625 1972 2144 2069 
L 1759 2144 
Q 1053 2284 737 2584 
Q 422 2884 422 3419 
Q 422 4038 858 4394 
Q 1294 4750 2059 4750 
Q 2388 4750 2728 4690 
Q 3069 4631 3425 4513 
z
" transform="scale(0.015625)"/>
      <path id="DejaVuSans-6c" d="M 603 4863 
L 1178 4863 
L 1178 0 
L 603 0 
L 603 4863 
z
" transform="scale(0.015625)"/>
      <path id="DejaVuSans-70" d="M 1159 525 
L 1159 -1331 
L 581 -1331 
L 581 3500 
L 1159 3500 
L 1159 2969 
Q 1341 3281 1617 3432 
Q 1894 3584 2278 3584 
Q 2916 3584 3314 3078 
Q 3713 2572 3713 1747 
Q 3713 922 3314 415 
Q 2916 -91 2278 -91 
Q 1894 -91 1617 61 
Q 1341 213 1159 525 
z
M 3116 1747 
Q 3116 2381 2855 2742 
Q 2594 3103 2138 3103 
Q 1681 3103 1420 2742 
Q 1159 2381 1159 1747 
Q 1159 1113 1420 752 
Q 1681 391 2138 391 
Q 2594 391 2855 752 
Q 3116 1113 3116 1747 
z
" transform="scale(0.015625)"/>
      <path id="DejaVuSans-66" d="M 2375 4863 
L 2375 4384 
L 1825 4384 
Q 1516 4384 1395 4259 
Q 1275 4134 1275 3809 
L 1275 3500 
L 2222 3500 
L 2222 3053 
L 1275 3053 
L 1275 0 
L 697 0 
L 697 3053 
L 147 3053 
L 147 3500 
L 697 3500 
L 697 3744 
Q 697 4328 969 4595 
Q 1241 4863 1831 4863 
L 2375 4863 
z
" transform="scale(0.015625)"/>
      <path id="DejaVuSans-61" d="M 2194 1759 
Q 1497 1759 1228 1600 
Q 959 1441 959 1056 
Q 959 750 1161 570 
Q 1363 391 1709 391 
Q 2188 391 2477 730 
Q 2766 1069 2766 1631 
L 2766 1759 
L 2194 1759 
z
M 3341 1997 
L 3341 0 
L 2766 0 
L 2766 531 
Q 2569 213 2275 61 
Q 1981 -91 1556 -91 
Q 1019 -91 701 211 
Q 384 513 384 1019 
Q 384 1609 779 1909 
Q 1175 2209 1959 2209 
L 2766 2209 
L 2766 2266 
Q 2766 2663 2505 2880 
Q 2244 3097 1772 3097 
Q 1472 3097 1187 3025 
Q 903 2953 641 2809 
L 641 3341 
Q 956 3463 1253 3523 
Q 1550 3584 1831 3584 
Q 2591 3584 2966 3190 
Q 3341 2797 3341 1997 
z
" transform="scale(0.015625)"/>
      <path id="DejaVuSans-67" d="M 2906 1791 
Q 2906 2416 2648 2759 
Q 2391 3103 1925 3103 
Q 1463 3103 1205 2759 
Q 947 2416 947 1791 
Q 947 1169 1205 825 
Q 1463 481 1925 481 
Q 2391 481 2648 825 
Q 2906 1169 2906 1791 
z
M 3481 434 
Q 3481 -459 3084 -895 
Q 2688 -1331 1869 -1331 
Q 1566 -1331 1297 -1286 
Q 1028 -1241 775 -1147 
L 775 -588 
Q 1028 -725 1275 -790 
Q 1522 -856 1778 -856 
Q 2344 -856 2625 -561 
Q 2906 -266 2906 331 
L 2906 616 
Q 2728 306 2450 153 
Q 2172 0 1784 0 
Q 1141 0 747 490 
Q 353 981 353 1791 
Q 353 2603 747 3093 
Q 1141 3584 1784 3584 
Q 2172 3584 2450 3431 
Q 2728 3278 2906 2969 
L 2906 3500 
L 3481 3500 
L 3481 434 
z
" transform="scale(0.015625)"/>
      <path id="DejaVuSans-79" d="M 2059 -325 
Q 1816 -950 1584 -1140 
Q 1353 -1331 966 -1331 
L 506 -1331 
L 506 -850 
L 844 -850 
Q 1081 -850 1212 -737 
Q 1344 -625 1503 -206 
L 1606 56 
L 191 3500 
L 800 3500 
L 1894 763 
L 2988 3500 
L 3597 3500 
L 2059 -325 
z
" transform="scale(0.015625)"/>
      <path id="DejaVuSans-75" d="M 544 1381 
L 544 3500 
L 1119 3500 
L 1119 1403 
Q 1119 906 1312 657 
Q 1506 409 1894 409 
Q 2359 409 2629 706 
Q 2900 1003 2900 1516 
L 2900 3500 
L 3475 3500 
L 3475 0 
L 2900 0 
L 2900 538 
Q 2691 219 2414 64 
Q 2138 -91 1772 -91 
Q 1169 -91 856 284 
Q 544 659 544 1381 
z
M 1991 3584 
L 1991 3584 
z
" transform="scale(0.015625)"/>
      <path id="DejaVuSans-77" d="M 269 3500 
L 844 3500 
L 1563 769 
L 2278 3500 
L 2956 3500 
L 3675 769 
L 4391 3500 
L 4966 3500 
L 4050 0 
L 3372 0 
L 2619 2869 
L 1863 0 
L 1184 0 
L 269 3500 
z
" transform="scale(0.015625)"/>
     </defs>
     <use xlink:href="#DejaVuSans-53"/>
     <use xlink:href="#DejaVuSans-6c" transform="translate(63.476562 0)"/>
     <use xlink:href="#DejaVuSans-6f" transform="translate(91.259766 0)"/>
     <use xlink:href="#DejaVuSans-70" transform="translate(152.441406 0)"/>
     <use xlink:href="#DejaVuSans-65" transform="translate(215.917969 0)"/>
     <use xlink:href="#DejaVuSans-20" transform="translate(277.441406 0)"/>
     <use xlink:href="#DejaVuSans-6f" transform="translate(309.228516 0)"/>
     <use xlink:href="#DejaVuSans-66" transform="translate(370.410156 0)"/>
     <use xlink:href="#DejaVuSans-20" transform="translate(405.615234 0)"/>
     <use xlink:href="#DejaVuSans-74" transform="translate(437.402344 0)"/>
     <use xlink:href="#DejaVuSans-68" transform="translate(476.611328 0)"/>
     <use xlink:href="#DejaVuSans-65" transform="translate(539.990234 0)"/>
     <use xlink:href="#DejaVuSans-20" transform="translate(601.513672 0)"/>
     <use xlink:href="#DejaVuSans-74" transform="translate(633.300781 0)"/>
     <use xlink:href="#DejaVuSans-61" transform="translate(672.509766 0)"/>
     <use xlink:href="#DejaVuSans-6e" transform="translate(733.789062 0)"/>
     <use xlink:href="#DejaVuSans-67" transform="translate(797.167969 0)"/>
     <use xlink:href="#DejaVuSans-65" transform="translate(860.644531 0)"/>
     <use xlink:href="#DejaVuSans-6e" transform="translate(922.167969 0)"/>
     <use xlink:href="#DejaVuSans-74" transform="translate(985.546875 0)"/>
     <use xlink:href="#DejaVuSans-20" transform="translate(1024.755859 0)"/>
     <use xlink:href="#DejaVuSans-74" transform="translate(1056.542969 0)"/>
     <use xlink:href="#DejaVuSans-65" transform="translate(1095.751953 0)"/>
     <use xlink:href="#DejaVuSans-6c" transform="translate(1157.275391 0)"/>
     <use xlink:href="#DejaVuSans-6c" transform="translate(1185.058594 0)"/>
     <use xlink:href="#DejaVuSans-73" transform="translate(1212.841797 0)"/>
     <use xlink:href="#DejaVuSans-20" transform="translate(1264.941406 0)"/>
     <use xlink:href="#DejaVuSans-79" transform="translate(1296.728516 0)"/>
     <use xlink:href="#DejaVuSans-6f" transform="translate(1355.908203 0)"/>
     <use xlink:href="#DejaVuSans-75" transform="translate(1417.089844 0)"/>
     <use xlink:href="#DejaVuSans-20" transform="translate(1480.46875 0)"/>
     <use xlink:href="#DejaVuSans-77" transform="translate(1512.255859 0)"/>
     <use xlink:href="#DejaVuSans-68" transform="translate(1594.042969 0)"/>
     <use xlink:href="#DejaVuSans-69" transform="translate(1657.421875 0)"/>
     <use xlink:href="#DejaVuSans-63" transform="translate(1685.205078 0)"/>
     <use xlink:href="#DejaVuSans-68" transform="translate(1740.185547 0)"/>
     <use xlink:href="#DejaVuSans-20" transform="translate(1803.564453 0)"/>
     <use xlink:href="#DejaVuSans-77" transform="translate(1835.351562 0)"/>
     <use xlink:href="#DejaVuSans-61" transform="translate(1917.138672 0)"/>
     <use xlink:href="#DejaVuSans-79" transform="translate(1978.417969 0)"/>
     <use xlink:href="#DejaVuSans-20" transform="translate(2037.597656 0)"/>
     <use xlink:href="#DejaVuSans-74" transform="translate(2069.384766 0)"/>
     <use xlink:href="#DejaVuSans-6f" transform="translate(2108.59375 0)"/>
     <use xlink:href="#DejaVuSans-20" transform="translate(2169.775391 0)"/>
     <use xlink:href="#DejaVuSans-67" transform="translate(2201.5625 0)"/>
     <use xlink:href="#DejaVuSans-6f" transform="translate(2265.039062 0)"/>
    </g>
   </g>
   <g id="line2d_33">
    <defs>
     <path id="m85577272e0" d="M 0 4 
C 1.060812 4 2.078319 3.578535 2.828427 2.828427 
C 3.578535 2.078319 4 1.060812 4 0 
C 4 -1.060812 3.578535 -2.078319 2.828427 -2.828427 
C 2.078319 -3.578535 1.060812 -4 0 -4 
C -1.060812 -4 -2.078319 -3.578535 -2.828427 -2.828427 
C -3.578535 -2.078319 -4 -1.060812 -4 0 
C -4 1.060812 -3.578535 2.078319 -2.828427 2.828427 
C -2.078319 3.578535 -1.060812 4 0 4 
z
" style="stroke: #cc0000"/>
    </defs>
    <g clip-path="url(#p39e97c9c57)">
     <use xlink:href="#m85577272e0" x="167.797277" y="122.560085" style="fill: #cc0000; stroke: #cc0000"/>
    </g>
   </g>
   <g id="line2d_34">
    <g clip-path="url(#p39e97c9c57)">
     <use xlink:href="#m85577272e0" x="294.023616" y="213.607451" style="fill: #cc0000; stroke: #cc0000"/>
    </g>
   </g>
   <g id="line2d_35">
    <defs>
     <path id="maa2538bf35" d="M 0 4 
C 1.060812 4 2.078319 3.578535 2.828427 2.828427 
C 3.578535 2.078319 4 1.060812 4 0 
C 4 -1.060812 3.578535 -2.078319 2.828427 -2.828427 
C 2.078319 -3.578535 1.060812 -4 0 -4 
C -1.060812 -4 -2.078319 -3.578535 -2.828427 -2.828427 
C -3.578535 -2.078319 -4 -1.060812 -4 0 
C -4 1.060812 -3.578535 2.078319 -2.828427 2.828427 
C -2.078319 3.578535 -1.060812 4 0 4 
z
" style="stroke: #2e8b57"/>
    </defs>
    <g clip-path="url(#p39e97c9c57)">
     <use xlink:href="#maa2538bf35" x="447.695848" y="280.020253" style="fill: #2e8b57; stroke: #2e8b57"/>
    </g>
   </g>
   <g id="line2d_36">
    <defs>
     <path id="m37a0b60ea6" d="M 0 4 
C 1.060812 4 2.078319 3.578535 2.828427 2.828427 
C 3.578535 2.078319 4 1.060812 4 0 
C 4 -1.060812 3.578535 -2.078319 2.828427 -2.828427 
C 2.078319 -3.578535 1.060812 -4 0 -4 
C -1.060812 -4 -2.078319 -3.578535 -2.828427 -2.828427 
C -3.578535 -2.078319 -4 -1.060812 -4 0 
C -4 1.060812 -3.578535 2.078319 -2.828427 2.828427 
C -2.078319 3.578535 -1.060812 4 0 4 
z
" style="stroke: #cc7000"/>
    </defs>
    <g clip-path="url(#p39e97c9c57)">
     <use xlink:href="#m37a0b60ea6" x="504.400848" y="265.782194" style="fill: #cc7000; stroke: #cc7000"/>
    </g>
   </g>
   <g id="line2d_37">
    <g clip-path="url(#p39e97c9c57)">
     <use xlink:href="#m37a0b60ea6" x="588.551741" y="177.411585" style="fill: #cc7000; stroke: #cc7000"/>
    </g>
   </g>
  </g>
 </g>
 <defs>
  <clipPath id="p39e97c9c57">
   <rect x="41.570937" y="22.318125" width="589.05625" height="291.4"/>
  </clipPath>
 </defs>
</svg>
