<?xml version="1.0" encoding="utf-8" standalone="no"?>
<!DOCTYPE svg PUBLIC "-//W3C//DTD SVG 1.1//EN"
  "http://www.w3.org/Graphics/SVG/1.1/DTD/svg11.dtd">
<svg xmlns:xlink="http://www.w3.org/1999/xlink" width="498.213811pt" height="405.995274pt" viewBox="0 0 498.213811 405.995274" xmlns="http://www.w3.org/2000/svg" version="1.1">
 <metadata>
  <rdf:RDF xmlns:dc="http://purl.org/dc/elements/1.1/" xmlns:cc="http://creativecommons.org/ns#" xmlns:rdf="http://www.w3.org/1999/02/22-rdf-syntax-ns#">
   <cc:Work>
    <dc:type rdf:resource="http://purl.org/dc/dcmitype/StillImage"/>
    <dc:date>2026-07-16T08:11:00.546839</dc:date>
    <dc:format>image/svg+xml</dc:format>
    <dc:creator>
     <cc:Agent>
      <dc:title>Matplotlib v3.10.8, https://matplotlib.org/</dc:title>
     </cc:Agent>
    </dc:creator>
   </cc:Work>
  </rdf:RDF>
 </metadata>
 <defs>
  <style type="text/css">*{stroke-linejoin: round; stroke-linecap: butt}</style>
 </defs>
 <g id="figure_1">
  <g id="patch_1">
   <path d="M 0 405.995274 
L 498.213811 405.995274 
L 498.213811 0 
L 0 0 
z
" style="fill: #ffffff"/>
  </g>
  <g id="axes_1">
   <g id="patch_2">
    <path d="M 64.620588 365.745024 
L 404.035512 365.745024 
L 404.035512 26.3301 
L 64.620588 26.3301 
z
" style="fill: #ffffff"/>
   </g>
   <g id="matplotlib.axis_1">
    <g id="xtick_1">
     <g id="line2d_1">
      <path d="M 64.620588 365.745024 
L 64.620588 26.3301 
" clip-path="url(#p782732f462)" style="fill: none; stroke-dasharray: 3.7,1.6; stroke-dashoffset: 0; stroke: #cbcbcb; stroke-opacity: 0.35"/>
     </g>
     <g id="line2d_2"/>
     <g id="text_1">
      <!-- −1.5 -->
      <g transform="translate(50.0509 378.363149) scale(0.12 -0.12)">
       <defs>
        <path id="DejaVuSans-2212" d="M 678 2272 
L 4684 2272 
L 4684 1741 
L 678 1741 
L 678 2272 
z
" transform="scale(0.015625)"/>
        <path id="DejaVuSans-31" d="M 794 531 
L 1825 531 
L 1825 4091 
L 703 3866 
L 703 4441 
L 1819 4666 
L 2450 4666 
L 2450 531 
L 3481 531 
L 3481 0 
L 794 0 
L 794 531 
z
" transform="scale(0.015625)"/>
        <path id="DejaVuSans-2e" d="M 684 794 
L 1344 794 
L 1344 0 
L 684 0 
L 684 794 
z
" transform="scale(0.015625)"/>
        <path id="DejaVuSans-35" d="M 691 4666 
L 3169 4666 
L 3169 4134 
L 1269 4134 
L 1269 2991 
Q 1406 3038 1543 3061 
Q 1681 3084 1819 3084 
Q 2600 3084 3056 2656 
Q 3513 2228 3513 1497 
Q 3513 744 3044 326 
Q 2575 -91 1722 -91 
Q 1428 -91 1123 -41 
Q 819 9 494 109 
L 494 744 
Q 775 591 1075 516 
Q 1375 441 1709 441 
Q 2250 441 2565 725 
Q 2881 1009 2881 1497 
Q 2881 1984 2565 2268 
Q 2250 2553 1709 2553 
Q 1456 2553 1204 2497 
Q 953 2441 691 2322 
L 691 4666 
z
" transform="scale(0.015625)"/>
       </defs>
       <use xlink:href="#DejaVuSans-2212"/>
       <use xlink:href="#DejaVuSans-31" transform="translate(83.789062 0)"/>
       <use xlink:href="#DejaVuSans-2e" transform="translate(147.412109 0)"/>
       <use xlink:href="#DejaVuSans-35" transform="translate(179.199219 0)"/>
      </g>
     </g>
    </g>
    <g id="xtick_2">
     <g id="line2d_3">
      <path d="M 121.189742 365.745024 
L 121.189742 26.3301 
" clip-path="url(#p782732f462)" style="fill: none; stroke-dasharray: 3.7,1.6; stroke-dashoffset: 0; stroke: #cbcbcb; stroke-opacity: 0.35"/>
     </g>
     <g id="line2d_4"/>
     <g id="text_2">
      <!-- −1.0 -->
      <g transform="translate(106.620054 378.363149) scale(0.12 -0.12)">
       <defs>
        <path id="DejaVuSans-30" d="M 2034 4250 
Q 1547 4250 1301 3770 
Q 1056 3291 1056 2328 
Q 1056 1369 1301 889 
Q 1547 409 2034 409 
Q 2525 409 2770 889 
Q 3016 1369 3016 2328 
Q 3016 3291 2770 3770 
Q 2525 4250 2034 4250 
z
M 2034 4750 
Q 2819 4750 3233 4129 
Q 3647 3509 3647 2328 
Q 3647 1150 3233 529 
Q 2819 -91 2034 -91 
Q 1250 -91 836 529 
Q 422 1150 422 2328 
Q 422 3509 836 4129 
Q 1250 4750 2034 4750 
z
" transform="scale(0.015625)"/>
       </defs>
       <use xlink:href="#DejaVuSans-2212"/>
       <use xlink:href="#DejaVuSans-31" transform="translate(83.789062 0)"/>
       <use xlink:href="#DejaVuSans-2e" transform="translate(147.412109 0)"/>
       <use xlink:href="#DejaVuSans-30" transform="translate(179.199219 0)"/>
      </g>
     </g>
    </g>
    <g id="xtick_3">
     <g id="line2d_5">
      <path d="M 177.758896 365.745024 
L 177.758896 26.3301 
" clip-path="url(#p782732f462)" style="fill: none; stroke-dasharray: 3.7,1.6; stroke-dashoffset: 0; stroke: #cbcbcb; stroke-opacity: 0.35"/>
     </g>
     <g id="line2d_6"/>
     <g id="text_3">
      <!-- −0.5 -->
      <g transform="translate(163.189208 378.363149) scale(0.12 -0.12)">
       <use xlink:href="#DejaVuSans-2212"/>
       <use xlink:href="#DejaVuSans-30" transform="translate(83.789062 0)"/>
       <use xlink:href="#DejaVuSans-2e" transform="translate(147.412109 0)"/>
       <use xlink:href="#DejaVuSans-35" transform="translate(179.199219 0)"/>
      </g>
     </g>
    </g>
    <g id="xtick_4">
     <g id="line2d_7">
      <path d="M 234.32805 365.745024 
L 234.32805 26.3301 
" clip-path="url(#p782732f462)" style="fill: none; stroke-dasharray: 3.7,1.6; stroke-dashoffset: 0; stroke: #cbcbcb; stroke-opacity: 0.35"/>
     </g>
     <g id="line2d_8"/>
     <g id="text_4">
      <!-- 0.0 -->
      <g transform="translate(224.786175 378.363149) scale(0.12 -0.12)">
       <use xlink:href="#DejaVuSans-30"/>
       <use xlink:href="#DejaVuSans-2e" transform="translate(63.623047 0)"/>
       <use xlink:href="#DejaVuSans-30" transform="translate(95.410156 0)"/>
      </g>
     </g>
    </g>
    <g id="xtick_5">
     <g id="line2d_9">
      <path d="M 290.897204 365.745024 
L 290.897204 26.3301 
" clip-path="url(#p782732f462)" style="fill: none; stroke-dasharray: 3.7,1.6; stroke-dashoffset: 0; stroke: #cbcbcb; stroke-opacity: 0.35"/>
     </g>
     <g id="line2d_10"/>
     <g id="text_5">
      <!-- 0.5 -->
      <g transform="translate(281.355329 378.363149) scale(0.12 -0.12)">
       <use xlink:href="#DejaVuSans-30"/>
       <use xlink:href="#DejaVuSans-2e" transform="translate(63.623047 0)"/>
       <use xlink:href="#DejaVuSans-35" transform="translate(95.410156 0)"/>
      </g>
     </g>
    </g>
    <g id="xtick_6">
     <g id="line2d_11">
      <path d="M 347.466358 365.745024 
L 347.466358 26.3301 
" clip-path="url(#p782732f462)" style="fill: none; stroke-dasharray: 3.7,1.6; stroke-dashoffset: 0; stroke: #cbcbcb; stroke-opacity: 0.35"/>
     </g>
     <g id="line2d_12"/>
     <g id="text_6">
      <!-- 1.0 -->
      <g transform="translate(337.924483 378.363149) scale(0.12 -0.12)">
       <use xlink:href="#DejaVuSans-31"/>
       <use xlink:href="#DejaVuSans-2e" transform="translate(63.623047 0)"/>
       <use xlink:href="#DejaVuSans-30" transform="translate(95.410156 0)"/>
      </g>
     </g>
    </g>
    <g id="xtick_7">
     <g id="line2d_13">
      <path d="M 404.035512 365.745024 
L 404.035512 26.3301 
" clip-path="url(#p782732f462)" style="fill: none; stroke-dasharray: 3.7,1.6; stroke-dashoffset: 0; stroke: #cbcbcb; stroke-opacity: 0.35"/>
     </g>
     <g id="line2d_14"/>
     <g id="text_7">
      <!-- 1.5 -->
      <g transform="translate(394.493637 378.363149) scale(0.12 -0.12)">
       <use xlink:href="#DejaVuSans-31"/>
       <use xlink:href="#DejaVuSans-2e" transform="translate(63.623047 0)"/>
       <use xlink:href="#DejaVuSans-35" transform="translate(95.410156 0)"/>
      </g>
     </g>
    </g>
    <g id="text_8">
     <!-- $x_1$ -->
     <g transform="translate(226.62405 395.800524) scale(0.144 -0.144)">
      <defs>
       <path id="DejaVuSans-Oblique-78" d="M 3841 3500 
L 2234 1784 
L 3219 0 
L 2559 0 
L 1819 1388 
L 531 0 
L -166 0 
L 1556 1844 
L 641 3500 
L 1300 3500 
L 1972 2234 
L 3144 3500 
L 3841 3500 
z
" transform="scale(0.015625)"/>
      </defs>
      <use xlink:href="#DejaVuSans-Oblique-78" transform="translate(0 0.3125)"/>
      <use xlink:href="#DejaVuSans-31" transform="translate(59.179688 -16.09375) scale(0.7)"/>
     </g>
    </g>
   </g>
   <g id="matplotlib.axis_2">
    <g id="ytick_1">
     <g id="line2d_15">
      <path d="M 64.620588 365.745024 
L 404.035512 365.745024 
" clip-path="url(#p782732f462)" style="fill: none; stroke-dasharray: 3.7,1.6; stroke-dashoffset: 0; stroke: #cbcbcb; stroke-opacity: 0.35"/>
     </g>
     <g id="line2d_16"/>
     <g id="text_9">
      <!-- −1.5 -->
      <g transform="translate(31.981213 370.304087) scale(0.12 -0.12)">
       <use xlink:href="#DejaVuSans-2212"/>
       <use xlink:href="#DejaVuSans-31" transform="translate(83.789062 0)"/>
       <use xlink:href="#DejaVuSans-2e" transform="translate(147.412109 0)"/>
       <use xlink:href="#DejaVuSans-35" transform="translate(179.199219 0)"/>
      </g>
     </g>
    </g>
    <g id="ytick_2">
     <g id="line2d_17">
      <path d="M 64.620588 309.17587 
L 404.035512 309.17587 
" clip-path="url(#p782732f462)" style="fill: none; stroke-dasharray: 3.7,1.6; stroke-dashoffset: 0; stroke: #cbcbcb; stroke-opacity: 0.35"/>
     </g>
     <g id="line2d_18"/>
     <g id="text_10">
      <!-- −1.0 -->
      <g transform="translate(31.981213 313.734933) scale(0.12 -0.12)">
       <use xlink:href="#DejaVuSans-2212"/>
       <use xlink:href="#DejaVuSans-31" transform="translate(83.789062 0)"/>
       <use xlink:href="#DejaVuSans-2e" transform="translate(147.412109 0)"/>
       <use xlink:href="#DejaVuSans-30" transform="translate(179.199219 0)"/>
      </g>
     </g>
    </g>
    <g id="ytick_3">
     <g id="line2d_19">
      <path d="M 64.620588 252.606716 
L 404.035512 252.606716 
" clip-path="url(#p782732f462)" style="fill: none; stroke-dasharray: 3.7,1.6; stroke-dashoffset: 0; stroke: #cbcbcb; stroke-opacity: 0.35"/>
     </g>
     <g id="line2d_20"/>
     <g id="text_11">
      <!-- −0.5 -->
      <g transform="translate(31.981213 257.165779) scale(0.12 -0.12)">
       <use xlink:href="#DejaVuSans-2212"/>
       <use xlink:href="#DejaVuSans-30" transform="translate(83.789062 0)"/>
       <use xlink:href="#DejaVuSans-2e" transform="translate(147.412109 0)"/>
       <use xlink:href="#DejaVuSans-35" transform="translate(179.199219 0)"/>
      </g>
     </g>
    </g>
    <g id="ytick_4">
     <g id="line2d_21">
      <path d="M 64.620588 196.037562 
L 404.035512 196.037562 
" clip-path="url(#p782732f462)" style="fill: none; stroke-dasharray: 3.7,1.6; stroke-dashoffset: 0; stroke: #cbcbcb; stroke-opacity: 0.35"/>
     </g>
     <g id="line2d_22"/>
     <g id="text_12">
      <!-- 0.0 -->
      <g transform="translate(42.036838 200.596625) scale(0.12 -0.12)">
       <use xlink:href="#DejaVuSans-30"/>
       <use xlink:href="#DejaVuSans-2e" transform="translate(63.623047 0)"/>
       <use xlink:href="#DejaVuSans-30" transform="translate(95.410156 0)"/>
      </g>
     </g>
    </g>
    <g id="ytick_5">
     <g id="line2d_23">
      <path d="M 64.620588 139.468408 
L 404.035512 139.468408 
" clip-path="url(#p782732f462)" style="fill: none; stroke-dasharray: 3.7,1.6; stroke-dashoffset: 0; stroke: #cbcbcb; stroke-opacity: 0.35"/>
     </g>
     <g id="line2d_24"/>
     <g id="text_13">
      <!-- 0.5 -->
      <g transform="translate(42.036838 144.027471) scale(0.12 -0.12)">
       <use xlink:href="#DejaVuSans-30"/>
       <use xlink:href="#DejaVuSans-2e" transform="translate(63.623047 0)"/>
       <use xlink:href="#DejaVuSans-35" transform="translate(95.410156 0)"/>
      </g>
     </g>
    </g>
    <g id="ytick_6">
     <g id="line2d_25">
      <path d="M 64.620588 82.899254 
L 404.035512 82.899254 
" clip-path="url(#p782732f462)" style="fill: none; stroke-dasharray: 3.7,1.6; stroke-dashoffset: 0; stroke: #cbcbcb; stroke-opacity: 0.35"/>
     </g>
     <g id="line2d_26"/>
     <g id="text_14">
      <!-- 1.0 -->
      <g transform="translate(42.036838 87.458317) scale(0.12 -0.12)">
       <use xlink:href="#DejaVuSans-31"/>
       <use xlink:href="#DejaVuSans-2e" transform="translate(63.623047 0)"/>
       <use xlink:href="#DejaVuSans-30" transform="translate(95.410156 0)"/>
      </g>
     </g>
    </g>
    <g id="ytick_7">
     <g id="line2d_27">
      <path d="M 64.620588 26.3301 
L 404.035512 26.3301 
" clip-path="url(#p782732f462)" style="fill: none; stroke-dasharray: 3.7,1.6; stroke-dashoffset: 0; stroke: #cbcbcb; stroke-opacity: 0.35"/>
     </g>
     <g id="line2d_28"/>
     <g id="text_15">
      <!-- 1.5 -->
      <g transform="translate(42.036838 30.889162) scale(0.12 -0.12)">
       <use xlink:href="#DejaVuSans-31"/>
       <use xlink:href="#DejaVuSans-2e" transform="translate(63.623047 0)"/>
       <use xlink:href="#DejaVuSans-35" transform="translate(95.410156 0)"/>
      </g>
     </g>
    </g>
    <g id="text_16">
     <!-- $x_2$ -->
     <g transform="translate(24.986463 203.741562) rotate(-90) scale(0.144 -0.144)">
      <defs>
       <path id="DejaVuSans-32" d="M 1228 531 
L 3431 531 
L 3431 0 
L 469 0 
L 469 531 
Q 828 903 1448 1529 
Q 2069 2156 2228 2338 
Q 2531 2678 2651 2914 
Q 2772 3150 2772 3378 
Q 2772 3750 2511 3984 
Q 2250 4219 1831 4219 
Q 1534 4219 1204 4116 
Q 875 4013 500 3803 
L 500 4441 
Q 881 4594 1212 4672 
Q 1544 4750 1819 4750 
Q 2544 4750 2975 4387 
Q 3406 4025 3406 3419 
Q 3406 3131 3298 2873 
Q 3191 2616 2906 2266 
Q 2828 2175 2409 1742 
Q 1991 1309 1228 531 
z
" transform="scale(0.015625)"/>
      </defs>
      <use xlink:href="#DejaVuSans-Oblique-78" transform="translate(0 0.3125)"/>
      <use xlink:href="#DejaVuSans-32" transform="translate(59.179688 -16.09375) scale(0.7)"/>
     </g>
    </g>
   </g>
   <g id="PathCollection_1">
    <defs>
     <path id="m910fe2291f" d="M -4.472136 4.472136 
L 4.472136 -4.472136 
M -4.472136 -4.472136 
L 4.472136 4.472136 
" style="stroke: #ff0000; stroke-width: 4"/>
    </defs>
    <g clip-path="url(#p782732f462)">
     <use xlink:href="#m910fe2291f" x="370.09402" y="196.037562" style="fill: #ff0000; stroke: #ff0000; stroke-width: 4"/>
     <use xlink:href="#m910fe2291f" x="234.32805" y="71.585423" style="fill: #ff0000; stroke: #ff0000; stroke-width: 4"/>
     <use xlink:href="#m910fe2291f" x="109.875911" y="173.4099" style="fill: #ff0000; stroke: #ff0000; stroke-width: 4"/>
    </g>
   </g>
   <g id="PathCollection_2">
    <defs>
     <path id="C0_0_7dc13f463a" d="M 0 5 
C 1.326016 5 2.597899 4.473168 3.535534 3.535534 
C 4.473168 2.597899 5 1.326016 5 -0 
C 5 -1.326016 4.473168 -2.597899 3.535534 -3.535534 
C 2.597899 -4.473168 1.326016 -5 0 -5 
C -1.326016 -5 -2.597899 -4.473168 -3.535534 -3.535534 
C -4.473168 -2.597899 -5 -1.326016 -5 0 
C -5 1.326016 -4.473168 2.597899 -3.535534 3.535534 
C -2.597899 4.473168 -1.326016 5 0 5 
z
"/>
    </defs>
    <g clip-path="url(#p782732f462)">
     <use xlink:href="#C0_0_7dc13f463a" x="234.32805" y="196.037562" style="fill: none; stroke: #0096ff; stroke-width: 2"/>
    </g>
    <g clip-path="url(#p782732f462)">
     <use xlink:href="#C0_0_7dc13f463a" x="279.583373" y="150.782239" style="fill: none; stroke: #0096ff; stroke-width: 2"/>
    </g>
    <g clip-path="url(#p782732f462)">
     <use xlink:href="#C0_0_7dc13f463a" x="256.955712" y="218.665224" style="fill: none; stroke: #0096ff; stroke-width: 2"/>
    </g>
   </g>
   <g id="QuadContourSet_1">
    <path d="M 66.326191 365.745024 
L 68.031793 365.745024 
L 69.737396 365.745024 
L 71.442998 365.745024 
L 73.148601 365.745024 
L 74.854204 365.745024 
L 76.559806 365.745024 
L 78.265409 365.745024 
L 79.971012 365.745024 
L 81.676614 365.745024 
L 83.382217 365.745024 
L 85.08782 365.745024 
L 86.793422 365.745024 
L 88.499025 365.745024 
L 90.204627 365.745024 
L 91.91023 365.745024 
L 93.615833 365.745024 
L 95.321435 365.745024 
L 97.027038 365.745024 
L 98.732641 365.745024 
L 100.438243 365.745024 
L 102.143846 365.745024 
L 103.849448 365.745024 
L 105.555051 365.745024 
L 107.260654 365.745024 
L 108.966256 365.745024 
L 110.671859 365.745024 
L 112.377462 365.745024 
L 114.083064 365.745024 
L 115.788667 365.745024 
L 117.49427 365.745024 
L 119.199872 365.745024 
L 120.905475 365.745024 
L 122.611077 365.745024 
L 124.31668 365.745024 
L 126.022283 365.745024 
L 127.727885 365.745024 
L 129.433488 365.745024 
L 131.139091 365.745024 
L 132.844693 365.745024 
L 134.550296 365.745024 
L 136.255899 365.745024 
L 137.961501 365.745024 
L 139.667104 365.745024 
L 141.372706 365.745024 
L 143.078309 365.745024 
L 144.783912 365.745024 
L 146.489514 365.745024 
L 148.195117 365.745024 
L 149.90072 365.745024 
L 151.606322 365.745024 
L 153.311925 365.745024 
L 155.017528 365.745024 
L 156.72313 365.745024 
L 158.428733 365.745024 
L 160.134335 365.745024 
L 161.839938 365.745024 
L 163.545541 365.745024 
L 165.251143 365.745024 
L 166.956746 365.745024 
L 168.662349 365.745024 
L 170.367951 365.745024 
L 172.073554 365.745024 
L 173.779156 365.745024 
L 175.484759 365.745024 
L 177.190362 365.745024 
L 178.895964 365.745024 
L 180.601567 365.745024 
L 182.30717 365.745024 
L 184.012772 365.745024 
L 185.718375 365.745024 
L 187.423978 365.745024 
L 189.12958 365.745024 
L 190.835183 365.745024 
L 192.540785 365.745024 
L 194.246388 365.745024 
L 195.951991 365.745024 
L 197.657593 365.745024 
L 199.363196 365.745024 
L 201.068799 365.745024 
L 202.774401 365.745024 
L 204.480004 365.745024 
L 206.185607 365.745024 
L 207.891209 365.745024 
L 209.596812 365.745024 
L 211.302414 365.745024 
L 213.008017 365.745024 
L 214.71362 365.745024 
L 216.419222 365.745024 
L 218.124825 365.745024 
L 219.830428 365.745024 
L 221.53603 365.745024 
L 223.241633 365.745024 
L 224.947236 365.745024 
L 226.652838 365.745024 
L 228.358441 365.745024 
L 230.064043 365.745024 
L 231.769646 365.745024 
L 233.475249 365.745024 
L 235.180851 365.745024 
L 236.886454 365.745024 
L 238.592057 365.745024 
L 240.297659 365.745024 
L 242.003262 365.745024 
L 243.708864 365.745024 
L 245.414467 365.745024 
L 247.12007 365.745024 
L 248.825672 365.745024 
L 250.531275 365.745024 
L 252.236878 365.745024 
L 253.94248 365.745024 
L 255.648083 365.745024 
L 257.353686 365.745024 
L 259.059288 365.745024 
L 260.764891 365.745024 
L 262.470493 365.745024 
L 264.176096 365.745024 
L 265.881699 365.745024 
L 267.587301 365.745024 
L 269.292904 365.745024 
L 270.998507 365.745024 
L 272.704109 365.745024 
L 274.409712 365.745024 
L 276.115315 365.745024 
L 277.820917 365.745024 
L 279.52652 365.745024 
L 281.232122 365.745024 
L 282.937725 365.745024 
L 284.643328 365.745024 
L 286.34893 365.745024 
L 288.054533 365.745024 
L 289.760136 365.745024 
L 291.465738 365.745024 
L 293.171341 365.745024 
L 294.876944 365.745024 
L 296.582546 365.745024 
L 298.288149 365.745024 
L 299.993751 365.745024 
L 301.699354 365.745024 
L 303.404957 365.745024 
L 305.110559 365.745024 
L 306.816162 365.745024 
L 308.521765 365.745024 
L 310.227367 365.745024 
L 311.93297 365.745024 
L 313.638572 365.745024 
L 315.344175 365.745024 
L 317.049778 365.745024 
L 318.75538 365.745024 
L 320.460983 365.745024 
L 322.166586 365.745024 
L 323.872188 365.745024 
L 325.577791 365.745024 
L 327.283394 365.745024 
L 328.988996 365.745024 
L 330.694599 365.745024 
L 332.400201 365.745024 
L 334.105804 365.745024 
L 335.811407 365.745024 
L 337.517009 365.745024 
L 339.222612 365.745024 
L 340.928215 365.745024 
L 342.633817 365.745024 
L 344.33942 365.745024 
L 346.045023 365.745024 
L 347.750625 365.745024 
L 349.456228 365.745024 
L 351.16183 365.745024 
L 352.867433 365.745024 
L 354.573036 365.745024 
L 356.278638 365.745024 
L 357.984241 365.745024 
L 359.689844 365.745024 
L 361.395446 365.745024 
L 363.101049 365.745024 
L 364.806652 365.745024 
L 366.512254 365.745024 
L 368.217857 365.745024 
L 369.923459 365.745024 
L 371.629062 365.745024 
L 373.334665 365.745024 
L 375.040267 365.745024 
L 376.74587 365.745024 
L 378.451473 365.745024 
L 380.157075 365.745024 
L 381.862678 365.745024 
L 383.56828 365.745024 
L 385.273883 365.745024 
L 386.979486 365.745024 
L 388.685088 365.745024 
L 390.390691 365.745024 
L 392.096294 365.745024 
L 393.801896 365.745024 
L 395.507499 365.745024 
L 397.213102 365.745024 
L 398.918704 365.745024 
L 400.624307 365.745024 
L 402.329909 365.745024 
L 404.035512 365.745024 
L 404.035512 364.039422 
L 404.035512 362.333819 
L 404.035512 360.628216 
L 404.035512 358.922614 
L 404.035512 357.217011 
L 404.035512 355.511408 
L 404.035512 353.805806 
L 404.035512 352.100203 
L 404.035512 350.394601 
L 404.035512 348.688998 
L 404.035512 346.983395 
L 404.035512 345.277793 
L 404.035512 343.57219 
L 404.035512 341.866587 
L 404.035512 340.160985 
L 404.035512 338.455382 
L 404.035512 336.749779 
L 404.035512 335.044177 
L 404.035512 333.338574 
L 404.035512 331.632972 
L 404.035512 329.927369 
L 404.035512 328.221766 
L 404.035512 326.516164 
L 404.035512 324.810561 
L 404.035512 323.104958 
L 404.035512 321.399356 
L 404.035512 319.693753 
L 404.035512 317.98815 
L 404.035512 316.282548 
L 404.035512 314.576945 
L 404.035512 312.871343 
L 404.035512 311.16574 
L 404.035512 309.460137 
L 404.035512 307.754535 
L 404.035512 306.048932 
L 404.035512 304.343329 
L 404.035512 302.637727 
L 404.035512 300.932124 
L 404.035512 299.226521 
L 404.035512 297.520919 
L 404.035512 295.815316 
L 404.035512 294.109714 
L 404.035512 292.404111 
L 404.035512 290.698508 
L 404.035512 288.992906 
L 404.035512 287.287303 
L 404.035512 285.5817 
L 404.035512 283.876098 
L 404.035512 282.170495 
L 404.035512 280.464893 
L 404.035512 278.75929 
L 404.035512 277.053687 
L 404.035512 275.348085 
L 404.035512 273.642482 
L 404.035512 271.936879 
L 404.035512 270.231277 
L 404.035512 268.525674 
L 404.035512 266.820071 
L 404.035512 265.114469 
L 404.035512 263.408866 
L 404.035512 261.703264 
L 404.035512 259.997661 
L 404.035512 258.292058 
L 404.035512 256.586456 
L 404.035512 254.880853 
L 404.035512 253.17525 
L 404.035512 251.469648 
L 404.035512 249.764045 
L 404.035512 248.058442 
L 404.035512 246.35284 
L 404.035512 244.647237 
L 404.035512 242.941635 
L 404.035512 241.236032 
L 404.035512 239.530429 
L 404.035512 237.824827 
L 404.035512 236.119224 
L 404.035512 234.413621 
L 404.035512 232.708019 
L 404.035512 231.002416 
L 404.035512 229.296813 
L 404.035512 227.591211 
L 404.035512 225.885608 
L 404.035512 224.180006 
L 404.035512 222.474403 
L 404.035512 220.7688 
L 404.035512 219.063198 
L 404.035512 217.357595 
L 404.035512 215.651992 
L 404.035512 213.94639 
L 404.035512 212.240787 
L 404.035512 210.535185 
L 404.035512 208.829582 
L 404.035512 207.123979 
L 404.035512 205.418377 
L 404.035512 203.712774 
L 404.035512 202.007171 
L 404.035512 200.301569 
L 404.035512 198.595966 
L 404.035512 196.890363 
L 404.035512 195.184761 
L 404.035512 193.479158 
L 404.035512 191.773556 
L 404.035512 190.067953 
L 404.035512 188.36235 
L 404.035512 186.656748 
L 404.035512 184.951145 
L 404.035512 183.245542 
L 404.035512 181.53994 
L 404.035512 179.834337 
L 404.035512 178.128734 
L 404.035512 176.423132 
L 404.035512 174.717529 
L 404.035512 173.011927 
L 404.035512 171.306324 
L 404.035512 169.600721 
L 404.035512 167.895119 
L 404.035512 166.189516 
L 404.035512 164.483913 
L 404.035512 162.778311 
L 404.035512 161.072708 
L 404.035512 159.367105 
L 404.035512 157.661503 
L 404.035512 155.9559 
L 404.035512 154.250298 
L 404.035512 152.544695 
L 404.035512 150.839092 
L 404.035512 149.13349 
L 404.035512 147.427887 
L 404.035512 145.722284 
L 404.035512 144.016682 
L 404.035512 142.311079 
L 404.035512 140.605476 
L 404.035512 138.899874 
L 404.035512 137.194271 
L 404.035512 135.488669 
L 404.035512 133.783066 
L 404.035512 132.077463 
L 404.035512 130.371861 
L 404.035512 128.666258 
L 404.035512 126.960655 
L 404.035512 125.255053 
L 404.035512 123.54945 
L 404.035512 121.843848 
L 404.035512 120.138245 
L 404.035512 118.432642 
L 404.035512 116.72704 
L 404.035512 115.021437 
L 404.035512 113.315834 
L 404.035512 111.610232 
L 404.035512 109.904629 
L 404.035512 108.199026 
L 404.035512 106.493424 
L 404.035512 104.787821 
L 404.035512 103.082219 
L 404.035512 101.376616 
L 404.035512 99.671013 
L 404.035512 97.965411 
L 404.035512 96.259808 
L 404.035512 94.554205 
L 404.035512 92.848603 
L 404.035512 91.143 
L 404.035512 89.437397 
L 404.035512 87.731795 
L 404.035512 86.026192 
L 404.035512 84.32059 
L 404.035512 82.614987 
L 404.035512 80.909384 
L 404.035512 79.203782 
L 404.035512 77.498179 
L 404.035512 75.792576 
L 404.035512 74.086974 
L 404.035512 72.381371 
L 404.035512 70.675768 
L 404.035512 68.970166 
L 404.035512 67.264563 
L 404.035512 65.558961 
L 404.035512 63.853358 
L 404.035512 62.147755 
L 404.035512 60.442153 
L 404.035512 58.73655 
L 404.035512 57.030947 
L 404.035512 55.325345 
L 404.035512 53.619742 
L 404.035512 51.91414 
L 404.035512 50.208537 
L 404.035512 48.502934 
L 404.035512 46.797332 
L 404.035512 45.091729 
L 404.035512 43.386126 
L 404.035512 41.680524 
L 404.035512 39.974921 
L 404.035512 38.269318 
L 404.035512 36.563716 
L 404.035512 34.858113 
L 404.035512 33.152511 
L 404.035512 31.446908 
L 404.035512 29.741305 
L 404.035512 28.035703 
L 404.035512 26.3301 
L 402.329909 26.3301 
L 400.624307 26.3301 
L 398.918704 26.3301 
L 397.213102 26.3301 
L 395.507499 26.3301 
L 393.801896 26.3301 
L 392.096294 26.3301 
L 390.390691 26.3301 
L 388.685088 26.3301 
L 386.979486 26.3301 
L 385.273883 26.3301 
L 383.56828 26.3301 
L 381.862678 26.3301 
L 380.157075 26.3301 
L 378.451473 26.3301 
L 376.74587 26.3301 
L 375.040267 26.3301 
L 373.334665 26.3301 
L 371.629062 26.3301 
L 369.923459 26.3301 
L 368.217857 26.3301 
L 366.512254 26.3301 
L 364.806652 26.3301 
L 363.101049 26.3301 
L 361.395446 26.3301 
L 359.689844 26.3301 
L 357.984241 26.3301 
L 356.278638 26.3301 
L 354.573036 26.3301 
L 352.867433 26.3301 
L 351.16183 26.3301 
L 349.456228 26.3301 
L 347.750625 26.3301 
L 346.045023 26.3301 
L 344.33942 26.3301 
L 342.633817 26.3301 
L 340.928215 26.3301 
L 339.222612 26.3301 
L 337.517009 26.3301 
L 335.811407 26.3301 
L 334.105804 26.3301 
L 332.400201 26.3301 
L 330.694599 26.3301 
L 328.988996 26.3301 
L 327.283394 26.3301 
L 325.577791 26.3301 
L 323.872188 26.3301 
L 322.166586 26.3301 
L 320.460983 26.3301 
L 318.75538 26.3301 
L 317.049778 26.3301 
L 315.344175 26.3301 
L 313.638572 26.3301 
L 311.93297 26.3301 
L 310.227367 26.3301 
L 308.521765 26.3301 
L 306.816162 26.3301 
L 305.110559 26.3301 
L 303.404957 26.3301 
L 301.699354 26.3301 
L 299.993751 26.3301 
L 298.288149 26.3301 
L 296.582546 26.3301 
L 294.876944 26.3301 
L 293.171341 26.3301 
L 291.465738 26.3301 
L 289.760136 26.3301 
L 288.054533 26.3301 
L 286.34893 26.3301 
L 284.643328 26.3301 
L 282.937725 26.3301 
L 281.232122 26.3301 
L 279.52652 26.3301 
L 277.820917 26.3301 
L 276.115315 26.3301 
L 274.409712 26.3301 
L 272.704109 26.3301 
L 270.998507 26.3301 
L 269.292904 26.3301 
L 267.587301 26.3301 
L 265.881699 26.3301 
L 264.176096 26.3301 
L 262.470493 26.3301 
L 260.764891 26.3301 
L 259.059288 26.3301 
L 257.353686 26.3301 
L 255.648083 26.3301 
L 253.94248 26.3301 
L 252.236878 26.3301 
L 250.531275 26.3301 
L 248.825672 26.3301 
L 247.12007 26.3301 
L 245.414467 26.3301 
L 243.708864 26.3301 
L 242.003262 26.3301 
L 240.297659 26.3301 
L 238.592057 26.3301 
L 236.886454 26.3301 
L 235.180851 26.3301 
L 233.475249 26.3301 
L 231.769646 26.3301 
L 230.064043 26.3301 
L 228.358441 26.3301 
L 226.652838 26.3301 
L 224.947236 26.3301 
L 223.241633 26.3301 
L 221.53603 26.3301 
L 219.830428 26.3301 
L 218.124825 26.3301 
L 216.419222 26.3301 
L 214.71362 26.3301 
L 213.008017 26.3301 
L 211.302414 26.3301 
L 209.596812 26.3301 
L 207.891209 26.3301 
L 206.185607 26.3301 
L 204.480004 26.3301 
L 202.774401 26.3301 
L 201.068799 26.3301 
L 199.363196 26.3301 
L 197.657593 26.3301 
L 195.951991 26.3301 
L 194.246388 26.3301 
L 192.540785 26.3301 
L 190.835183 26.3301 
L 189.12958 26.3301 
L 187.423978 26.3301 
L 185.718375 26.3301 
L 184.012772 26.3301 
L 182.30717 26.3301 
L 180.601567 26.3301 
L 178.895964 26.3301 
L 177.190362 26.3301 
L 175.484759 26.3301 
L 173.779156 26.3301 
L 172.073554 26.3301 
L 170.367951 26.3301 
L 168.662349 26.3301 
L 166.956746 26.3301 
L 165.251143 26.3301 
L 163.545541 26.3301 
L 161.839938 26.3301 
L 160.134335 26.3301 
L 158.428733 26.3301 
L 156.72313 26.3301 
L 155.017528 26.3301 
L 153.311925 26.3301 
L 151.606322 26.3301 
L 149.90072 26.3301 
L 148.195117 26.3301 
L 146.489514 26.3301 
L 144.783912 26.3301 
L 143.078309 26.3301 
L 141.372706 26.3301 
L 139.667104 26.3301 
L 137.961501 26.3301 
L 136.255899 26.3301 
L 134.550296 26.3301 
L 132.844693 26.3301 
L 131.139091 26.3301 
L 129.433488 26.3301 
L 127.727885 26.3301 
L 126.022283 26.3301 
L 124.31668 26.3301 
L 122.611077 26.3301 
L 120.905475 26.3301 
L 119.199872 26.3301 
L 117.49427 26.3301 
L 115.788667 26.3301 
L 114.083064 26.3301 
L 112.377462 26.3301 
L 110.671859 26.3301 
L 108.966256 26.3301 
L 107.260654 26.3301 
L 105.555051 26.3301 
L 103.849448 26.3301 
L 102.143846 26.3301 
L 100.438243 26.3301 
L 98.732641 26.3301 
L 97.027038 26.3301 
L 95.321435 26.3301 
L 93.615833 26.3301 
L 91.91023 26.3301 
L 90.204627 26.3301 
L 88.499025 26.3301 
L 86.793422 26.3301 
L 85.08782 26.3301 
L 83.382217 26.3301 
L 81.676614 26.3301 
L 79.971012 26.3301 
L 78.265409 26.3301 
L 76.559806 26.3301 
L 74.854204 26.3301 
L 73.148601 26.3301 
L 71.442998 26.3301 
L 69.737396 26.3301 
L 68.031793 26.3301 
L 66.326191 26.3301 
L 64.620588 26.3301 
L 64.620588 28.035703 
L 64.620588 29.741305 
L 64.620588 31.446908 
L 64.620588 33.152511 
L 64.620588 34.858113 
L 64.620588 36.563716 
L 64.620588 38.269318 
L 64.620588 39.974921 
L 64.620588 41.680524 
L 64.620588 43.386126 
L 64.620588 45.091729 
L 64.620588 46.797332 
L 64.620588 48.502934 
L 64.620588 50.208537 
L 64.620588 51.91414 
L 64.620588 53.619742 
L 64.620588 55.325345 
L 64.620588 57.030947 
L 64.620588 58.73655 
L 64.620588 60.442153 
L 64.620588 62.147755 
L 64.620588 63.853358 
L 64.620588 65.558961 
L 64.620588 67.264563 
L 64.620588 68.970166 
L 64.620588 70.675768 
L 64.620588 72.381371 
L 64.620588 74.086974 
L 64.620588 75.792576 
L 64.620588 77.498179 
L 64.620588 79.203782 
L 64.620588 80.909384 
L 64.620588 82.614987 
L 64.620588 84.32059 
L 64.620588 86.026192 
L 64.620588 87.731795 
L 64.620588 89.437397 
L 64.620588 91.143 
L 64.620588 92.848603 
L 64.620588 94.554205 
L 64.620588 96.259808 
L 64.620588 97.965411 
L 64.620588 99.671013 
L 64.620588 101.376616 
L 64.620588 103.082219 
L 64.620588 104.787821 
L 64.620588 106.493424 
L 64.620588 108.199026 
L 64.620588 109.904629 
L 64.620588 111.610232 
L 64.620588 113.315834 
L 64.620588 115.021437 
L 64.620588 116.72704 
L 64.620588 118.432642 
L 64.620588 120.138245 
L 64.620588 121.843848 
L 64.620588 123.54945 
L 64.620588 125.255053 
L 64.620588 126.960655 
L 64.620588 128.666258 
L 64.620588 130.371861 
L 64.620588 132.077463 
L 64.620588 133.783066 
L 64.620588 135.488669 
L 64.620588 137.194271 
L 64.620588 138.899874 
L 64.620588 140.605476 
L 64.620588 142.311079 
L 64.620588 144.016682 
L 64.620588 145.722284 
L 64.620588 147.427887 
L 64.620588 149.13349 
L 64.620588 150.839092 
L 64.620588 152.544695 
L 64.620588 154.250298 
L 64.620588 155.9559 
L 64.620588 157.661503 
L 64.620588 159.367105 
L 64.620588 161.072708 
L 64.620588 162.778311 
L 64.620588 164.483913 
L 64.620588 166.189516 
L 64.620588 167.895119 
L 64.620588 169.600721 
L 64.620588 171.306324 
L 64.620588 173.011927 
L 64.620588 174.717529 
L 64.620588 176.423132 
L 64.620588 178.128734 
L 64.620588 179.834337 
L 64.620588 181.53994 
L 64.620588 183.245542 
L 64.620588 184.951145 
L 64.620588 186.656748 
L 64.620588 188.36235 
L 64.620588 190.067953 
L 64.620588 191.773556 
L 64.620588 193.479158 
L 64.620588 195.184761 
L 64.620588 196.890363 
L 64.620588 198.595966 
L 64.620588 200.301569 
L 64.620588 202.007171 
L 64.620588 203.712774 
L 64.620588 205.418377 
L 64.620588 207.123979 
L 64.620588 208.829582 
L 64.620588 210.535185 
L 64.620588 212.240787 
L 64.620588 213.94639 
L 64.620588 215.651992 
L 64.620588 217.357595 
L 64.620588 219.063198 
L 64.620588 220.7688 
L 64.620588 222.474403 
L 64.620588 224.180006 
L 64.620588 225.885608 
L 64.620588 227.591211 
L 64.620588 229.296813 
L 64.620588 231.002416 
L 64.620588 232.708019 
L 64.620588 234.413621 
L 64.620588 236.119224 
L 64.620588 237.824827 
L 64.620588 239.530429 
L 64.620588 241.236032 
L 64.620588 242.941635 
L 64.620588 244.647237 
L 64.620588 246.35284 
L 64.620588 248.058442 
L 64.620588 249.764045 
L 64.620588 251.469648 
L 64.620588 253.17525 
L 64.620588 254.880853 
L 64.620588 256.586456 
L 64.620588 258.292058 
L 64.620588 259.997661 
L 64.620588 261.703264 
L 64.620588 263.408866 
L 64.620588 265.114469 
L 64.620588 266.820071 
L 64.620588 268.525674 
L 64.620588 270.231277 
L 64.620588 271.936879 
L 64.620588 273.642482 
L 64.620588 275.348085 
L 64.620588 277.053687 
L 64.620588 278.75929 
L 64.620588 280.464893 
L 64.620588 282.170495 
L 64.620588 283.876098 
L 64.620588 285.5817 
L 64.620588 287.287303 
L 64.620588 288.992906 
L 64.620588 290.698508 
L 64.620588 292.404111 
L 64.620588 294.109714 
L 64.620588 295.815316 
L 64.620588 297.520919 
L 64.620588 299.226521 
L 64.620588 300.932124 
L 64.620588 302.637727 
L 64.620588 304.343329 
L 64.620588 306.048932 
L 64.620588 307.754535 
L 64.620588 309.460137 
L 64.620588 311.16574 
L 64.620588 312.871343 
L 64.620588 314.576945 
L 64.620588 316.282548 
L 64.620588 317.98815 
L 64.620588 319.693753 
L 64.620588 321.399356 
L 64.620588 323.104958 
L 64.620588 324.810561 
L 64.620588 326.516164 
L 64.620588 328.221766 
L 64.620588 329.927369 
L 64.620588 331.632972 
L 64.620588 333.338574 
L 64.620588 335.044177 
L 64.620588 336.749779 
L 64.620588 338.455382 
L 64.620588 340.160985 
L 64.620588 341.866587 
L 64.620588 343.57219 
L 64.620588 345.277793 
L 64.620588 346.983395 
L 64.620588 348.688998 
L 64.620588 350.394601 
L 64.620588 352.100203 
L 64.620588 353.805806 
L 64.620588 355.511408 
L 64.620588 357.217011 
L 64.620588 358.922614 
L 64.620588 360.628216 
L 64.620588 362.333819 
L 64.620588 364.039422 
L 64.620588 365.745024 
z
M 216.452387 307.754535 
L 216.419222 307.749432 
L 214.71362 307.460792 
L 213.008017 307.145911 
L 211.302414 306.804791 
L 209.596812 306.43743 
L 207.913319 306.048932 
L 207.891209 306.04375 
L 206.185607 305.617349 
L 204.480004 305.164299 
L 202.774401 304.684598 
L 201.624865 304.343329 
L 201.068799 304.175627 
L 199.363196 303.634166 
L 197.657593 303.065631 
L 196.43223 302.637727 
L 195.951991 302.467319 
L 194.246388 301.834596 
L 192.540785 301.174362 
L 191.940034 300.932124 
L 190.835183 300.479316 
L 189.12958 299.752338 
L 187.941624 299.226521 
L 187.423978 298.99358 
L 185.718375 298.197632 
L 184.318278 297.520919 
L 184.012772 297.370755 
L 182.30717 296.5035 
L 180.997401 295.815316 
L 180.601567 295.60375 
L 178.895964 294.662727 
L 177.924001 294.109714 
L 177.190362 293.684975 
L 175.484759 292.667598 
L 175.055651 292.404111 
L 173.779156 291.606302 
L 172.367033 290.698508 
L 172.073554 290.506413 
L 170.367951 289.359007 
L 169.838067 288.992906 
L 168.662349 288.165548 
L 167.446317 287.287303 
L 166.956746 286.927053 
L 165.251143 285.639805 
L 165.176032 285.5817 
L 163.545541 284.296121 
L 163.025512 283.876098 
L 161.839938 282.899742 
L 160.975017 282.170495 
L 160.134335 281.447509 
L 159.017726 280.464893 
L 158.428733 279.936001 
L 157.147425 278.75929 
L 156.72313 278.361513 
L 155.358442 277.053687 
L 155.017528 276.720026 
L 153.645586 275.348085 
L 153.311925 275.00717 
L 152.004099 273.642482 
L 151.606322 273.218187 
L 150.429611 271.936879 
L 149.90072 271.347887 
L 148.918103 270.231277 
L 148.195117 269.390595 
L 147.46587 268.525674 
L 146.489514 267.3401 
L 146.069491 266.820071 
L 144.783912 265.18958 
L 144.725807 265.114469 
L 143.43856 263.408866 
L 143.078309 262.919295 
L 142.200064 261.703264 
L 141.372706 260.527545 
L 141.006605 259.997661 
L 139.859199 258.292058 
L 139.667104 257.998579 
L 138.75931 256.586456 
L 137.961501 255.309961 
L 137.698014 254.880853 
L 136.680637 253.17525 
L 136.255899 252.441612 
L 135.702885 251.469648 
L 134.761863 249.764045 
L 134.550296 249.368211 
L 133.862113 248.058442 
L 132.994857 246.35284 
L 132.844693 246.047334 
L 132.16798 244.647237 
L 131.372032 242.941635 
L 131.139091 242.423988 
L 130.613274 241.236032 
L 129.886296 239.530429 
L 129.433488 238.425578 
L 129.19125 237.824827 
L 128.531016 236.119224 
L 127.898293 234.413621 
L 127.727885 233.933382 
L 127.299981 232.708019 
L 126.731446 231.002416 
L 126.189985 229.296813 
L 126.022283 228.740747 
L 125.681014 227.591211 
L 125.201313 225.885608 
L 124.748263 224.180006 
L 124.321862 222.474403 
L 124.31668 222.452293 
L 123.928182 220.7688 
L 123.560821 219.063198 
L 123.219701 217.357595 
L 122.90482 215.651992 
L 122.61618 213.94639 
L 122.611077 213.913225 
L 122.357678 212.240787 
L 122.125096 210.535185 
L 121.918356 208.829582 
L 121.737459 207.123979 
L 121.582404 205.418377 
L 121.453191 203.712774 
L 121.349822 202.007171 
L 121.272294 200.301569 
L 121.220609 198.595966 
L 121.194767 196.890363 
L 121.194767 195.184761 
L 121.220609 193.479158 
L 121.272294 191.773556 
L 121.349822 190.067953 
L 121.453191 188.36235 
L 121.582404 186.656748 
L 121.737459 184.951145 
L 121.918356 183.245542 
L 122.125096 181.53994 
L 122.357678 179.834337 
L 122.611077 178.161899 
L 122.61618 178.128734 
L 122.90482 176.423132 
L 123.219701 174.717529 
L 123.560821 173.011927 
L 123.928182 171.306324 
L 124.31668 169.622831 
L 124.321862 169.600721 
L 124.748263 167.895119 
L 125.201313 166.189516 
L 125.681014 164.483913 
L 126.022283 163.334377 
L 126.189985 162.778311 
L 126.731446 161.072708 
L 127.299981 159.367105 
L 127.727885 158.141742 
L 127.898293 157.661503 
L 128.531016 155.9559 
L 129.19125 154.250298 
L 129.433488 153.649546 
L 129.886296 152.544695 
L 130.613274 150.839092 
L 131.139091 149.651137 
L 131.372032 149.13349 
L 132.16798 147.427887 
L 132.844693 146.02779 
L 132.994857 145.722284 
L 133.862113 144.016682 
L 134.550296 142.706913 
L 134.761863 142.311079 
L 135.702885 140.605476 
L 136.255899 139.633513 
L 136.680637 138.899874 
L 137.698014 137.194271 
L 137.961501 136.765163 
L 138.75931 135.488669 
L 139.667104 134.076545 
L 139.859199 133.783066 
L 141.006605 132.077463 
L 141.372706 131.547579 
L 142.200064 130.371861 
L 143.078309 129.155829 
L 143.43856 128.666258 
L 144.725807 126.960655 
L 144.783912 126.885544 
L 146.069491 125.255053 
L 146.489514 124.735024 
L 147.46587 123.54945 
L 148.195117 122.684529 
L 148.918103 121.843848 
L 149.90072 120.727238 
L 150.429611 120.138245 
L 151.606322 118.856937 
L 152.004099 118.432642 
L 153.311925 117.067954 
L 153.645586 116.72704 
L 155.017528 115.355098 
L 155.358442 115.021437 
L 156.72313 113.713611 
L 157.147425 113.315834 
L 158.428733 112.139123 
L 159.017726 111.610232 
L 160.134335 110.627615 
L 160.975017 109.904629 
L 161.839938 109.175382 
L 163.025512 108.199026 
L 163.545541 107.779004 
L 165.176032 106.493424 
L 165.251143 106.435319 
L 166.956746 105.148072 
L 167.446317 104.787821 
L 168.662349 103.909576 
L 169.838067 103.082219 
L 170.367951 102.716117 
L 172.073554 101.568712 
L 172.367033 101.376616 
L 173.779156 100.468822 
L 175.055651 99.671013 
L 175.484759 99.407526 
L 177.190362 98.390149 
L 177.924001 97.965411 
L 178.895964 97.412397 
L 180.601567 96.471375 
L 180.997401 96.259808 
L 182.30717 95.571625 
L 184.012772 94.704369 
L 184.318278 94.554205 
L 185.718375 93.877492 
L 187.423978 93.081544 
L 187.941624 92.848603 
L 189.12958 92.322786 
L 190.835183 91.595808 
L 191.940034 91.143 
L 192.540785 90.900762 
L 194.246388 90.240528 
L 195.951991 89.607805 
L 196.43223 89.437397 
L 197.657593 89.009493 
L 199.363196 88.440959 
L 201.068799 87.899497 
L 201.624865 87.731795 
L 202.774401 87.390526 
L 204.480004 86.910826 
L 206.185607 86.457775 
L 207.891209 86.031374 
L 207.913319 86.026192 
L 209.596812 85.637694 
L 211.302414 85.270333 
L 213.008017 84.929213 
L 214.71362 84.614332 
L 216.419222 84.325692 
L 216.452387 84.32059 
L 218.124825 84.06719 
L 219.830428 83.834608 
L 221.53603 83.627868 
L 223.241633 83.446971 
L 224.947236 83.291916 
L 226.652838 83.162704 
L 228.358441 83.059334 
L 230.064043 82.981806 
L 231.769646 82.930121 
L 233.475249 82.904279 
L 235.180851 82.904279 
L 236.886454 82.930121 
L 238.592057 82.981806 
L 240.297659 83.059334 
L 242.003262 83.162704 
L 243.708864 83.291916 
L 245.414467 83.446971 
L 247.12007 83.627868 
L 248.825672 83.834608 
L 250.531275 84.06719 
L 252.203713 84.32059 
L 252.236878 84.325692 
L 253.94248 84.614332 
L 255.648083 84.929213 
L 257.353686 85.270333 
L 259.059288 85.637694 
L 260.742781 86.026192 
L 260.764891 86.031374 
L 262.470493 86.457775 
L 264.176096 86.910826 
L 265.881699 87.390526 
L 267.031235 87.731795 
L 267.587301 87.899497 
L 269.292904 88.440959 
L 270.998507 89.009493 
L 272.22387 89.437397 
L 272.704109 89.607805 
L 274.409712 90.240528 
L 276.115315 90.900762 
L 276.716066 91.143 
L 277.820917 91.595808 
L 279.52652 92.322786 
L 280.714476 92.848603 
L 281.232122 93.081544 
L 282.937725 93.877492 
L 284.337822 94.554205 
L 284.643328 94.704369 
L 286.34893 95.571625 
L 287.658699 96.259808 
L 288.054533 96.471375 
L 289.760136 97.412397 
L 290.732099 97.965411 
L 291.465738 98.390149 
L 293.171341 99.407526 
L 293.600449 99.671013 
L 294.876944 100.468822 
L 296.289067 101.376616 
L 296.582546 101.568712 
L 298.288149 102.716117 
L 298.818033 103.082219 
L 299.993751 103.909576 
L 301.209783 104.787821 
L 301.699354 105.148072 
L 303.404957 106.435319 
L 303.480068 106.493424 
L 305.110559 107.779004 
L 305.630588 108.199026 
L 306.816162 109.175382 
L 307.681083 109.904629 
L 308.521765 110.627615 
L 309.638374 111.610232 
L 310.227367 112.139123 
L 311.508675 113.315834 
L 311.93297 113.713611 
L 313.297658 115.021437 
L 313.638572 115.355098 
L 315.010514 116.72704 
L 315.344175 117.067954 
L 316.652001 118.432642 
L 317.049778 118.856937 
L 318.226489 120.138245 
L 318.75538 120.727238 
L 319.737997 121.843848 
L 320.460983 122.684529 
L 321.19023 123.54945 
L 322.166586 124.735024 
L 322.586609 125.255053 
L 323.872188 126.885544 
L 323.930293 126.960655 
L 325.21754 128.666258 
L 325.577791 129.155829 
L 326.456036 130.371861 
L 327.283394 131.547579 
L 327.649495 132.077463 
L 328.796901 133.783066 
L 328.988996 134.076545 
L 329.89679 135.488669 
L 330.694599 136.765163 
L 330.958086 137.194271 
L 331.975463 138.899874 
L 332.400201 139.633513 
L 332.953215 140.605476 
L 333.894237 142.311079 
L 334.105804 142.706913 
L 334.793987 144.016682 
L 335.661243 145.722284 
L 335.811407 146.02779 
L 336.48812 147.427887 
L 337.284068 149.13349 
L 337.517009 149.651137 
L 338.042826 150.839092 
L 338.769804 152.544695 
L 339.222612 153.649546 
L 339.46485 154.250298 
L 340.125084 155.9559 
L 340.757807 157.661503 
L 340.928215 158.141742 
L 341.356119 159.367105 
L 341.924654 161.072708 
L 342.466115 162.778311 
L 342.633817 163.334377 
L 342.975086 164.483913 
L 343.454787 166.189516 
L 343.907837 167.895119 
L 344.334238 169.600721 
L 344.33942 169.622831 
L 344.727918 171.306324 
L 345.095279 173.011927 
L 345.436399 174.717529 
L 345.75128 176.423132 
L 346.03992 178.128734 
L 346.045023 178.161899 
L 346.298422 179.834337 
L 346.531004 181.53994 
L 346.737744 183.245542 
L 346.918641 184.951145 
L 347.073696 186.656748 
L 347.202909 188.36235 
L 347.306278 190.067953 
L 347.383806 191.773556 
L 347.435491 193.479158 
L 347.461333 195.184761 
L 347.461333 196.890363 
L 347.435491 198.595966 
L 347.383806 200.301569 
L 347.306278 202.007171 
L 347.202909 203.712774 
L 347.073696 205.418377 
L 346.918641 207.123979 
L 346.737744 208.829582 
L 346.531004 210.535185 
L 346.298422 212.240787 
L 346.045023 213.913225 
L 346.03992 213.94639 
L 345.75128 215.651992 
L 345.436399 217.357595 
L 345.095279 219.063198 
L 344.727918 220.7688 
L 344.33942 222.452293 
L 344.334238 222.474403 
L 343.907837 224.180006 
L 343.454787 225.885608 
L 342.975086 227.591211 
L 342.633817 228.740747 
L 342.466115 229.296813 
L 341.924654 231.002416 
L 341.356119 232.708019 
L 340.928215 233.933382 
L 340.757807 234.413621 
L 340.125084 236.119224 
L 339.46485 237.824827 
L 339.222612 238.425578 
L 338.769804 239.530429 
L 338.042826 241.236032 
L 337.517009 242.423988 
L 337.284068 242.941635 
L 336.48812 244.647237 
L 335.811407 246.047334 
L 335.661243 246.35284 
L 334.793987 248.058442 
L 334.105804 249.368211 
L 333.894237 249.764045 
L 332.953215 251.469648 
L 332.400201 252.441612 
L 331.975463 253.17525 
L 330.958086 254.880853 
L 330.694599 255.309961 
L 329.89679 256.586456 
L 328.988996 257.998579 
L 328.796901 258.292058 
L 327.649495 259.997661 
L 327.283394 260.527545 
L 326.456036 261.703264 
L 325.577791 262.919295 
L 325.21754 263.408866 
L 323.930293 265.114469 
L 323.872188 265.18958 
L 322.586609 266.820071 
L 322.166586 267.3401 
L 321.19023 268.525674 
L 320.460983 269.390595 
L 319.737997 270.231277 
L 318.75538 271.347887 
L 318.226489 271.936879 
L 317.049778 273.218187 
L 316.652001 273.642482 
L 315.344175 275.00717 
L 315.010514 275.348085 
L 313.638572 276.720026 
L 313.297658 277.053687 
L 311.93297 278.361513 
L 311.508675 278.75929 
L 310.227367 279.936001 
L 309.638374 280.464893 
L 308.521765 281.447509 
L 307.681083 282.170495 
L 306.816162 282.899742 
L 305.630588 283.876098 
L 305.110559 284.296121 
L 303.480068 285.5817 
L 303.404957 285.639805 
L 301.699354 286.927053 
L 301.209783 287.287303 
L 299.993751 288.165548 
L 298.818033 288.992906 
L 298.288149 289.359007 
L 296.582546 290.506413 
L 296.289067 290.698508 
L 294.876944 291.606302 
L 293.600449 292.404111 
L 293.171341 292.667598 
L 291.465738 293.684975 
L 290.732099 294.109714 
L 289.760136 294.662727 
L 288.054533 295.60375 
L 287.658699 295.815316 
L 286.34893 296.5035 
L 284.643328 297.370755 
L 284.337822 297.520919 
L 282.937725 298.197632 
L 281.232122 298.99358 
L 280.714476 299.226521 
L 279.52652 299.752338 
L 277.820917 300.479316 
L 276.716066 300.932124 
L 276.115315 301.174362 
L 274.409712 301.834596 
L 272.704109 302.467319 
L 272.22387 302.637727 
L 270.998507 303.065631 
L 269.292904 303.634166 
L 267.587301 304.175627 
L 267.031235 304.343329 
L 265.881699 304.684598 
L 264.176096 305.164299 
L 262.470493 305.617349 
L 260.764891 306.04375 
L 260.742781 306.048932 
L 259.059288 306.43743 
L 257.353686 306.804791 
L 255.648083 307.145911 
L 253.94248 307.460792 
L 252.236878 307.749432 
L 252.203713 307.754535 
L 250.531275 308.007934 
L 248.825672 308.240517 
L 247.12007 308.447256 
L 245.414467 308.628154 
L 243.708864 308.783208 
L 242.003262 308.912421 
L 240.297659 309.01579 
L 238.592057 309.093318 
L 236.886454 309.145003 
L 235.180851 309.170845 
L 233.475249 309.170845 
L 231.769646 309.145003 
L 230.064043 309.093318 
L 228.358441 309.01579 
L 226.652838 308.912421 
L 224.947236 308.783208 
L 223.241633 308.628154 
L 221.53603 308.447256 
L 219.830428 308.240517 
L 218.124825 308.007934 
z
" clip-path="url(#p782732f462)" style="fill: #c00000; fill-opacity: 0.08"/>
   </g>
   <g id="QuadContourSet_2">
    <path d="M 218.124825 308.007934 
L 219.830428 308.240517 
L 221.53603 308.447256 
L 223.241633 308.628154 
L 224.947236 308.783208 
L 226.652838 308.912421 
L 228.358441 309.01579 
L 230.064043 309.093318 
L 231.769646 309.145003 
L 233.475249 309.170845 
L 235.180851 309.170845 
L 236.886454 309.145003 
L 238.592057 309.093318 
L 240.297659 309.01579 
L 242.003262 308.912421 
L 243.708864 308.783208 
L 245.414467 308.628154 
L 247.12007 308.447256 
L 248.825672 308.240517 
L 250.531275 308.007934 
L 252.203713 307.754535 
L 252.236878 307.749432 
L 253.94248 307.460792 
L 255.648083 307.145911 
L 257.353686 306.804791 
L 259.059288 306.43743 
L 260.742781 306.048932 
L 260.764891 306.04375 
L 262.470493 305.617349 
L 264.176096 305.164299 
L 265.881699 304.684598 
L 267.031235 304.343329 
L 267.587301 304.175627 
L 269.292904 303.634166 
L 270.998507 303.065631 
L 272.22387 302.637727 
L 272.704109 302.467319 
L 274.409712 301.834596 
L 276.115315 301.174362 
L 276.716066 300.932124 
L 277.820917 300.479316 
L 279.52652 299.752338 
L 280.714476 299.226521 
L 281.232122 298.99358 
L 282.937725 298.197632 
L 284.337822 297.520919 
L 284.643328 297.370755 
L 286.34893 296.5035 
L 287.658699 295.815316 
L 288.054533 295.60375 
L 289.760136 294.662727 
L 290.732099 294.109714 
L 291.465738 293.684975 
L 293.171341 292.667598 
L 293.600449 292.404111 
L 294.876944 291.606302 
L 296.289067 290.698508 
L 296.582546 290.506413 
L 298.288149 289.359007 
L 298.818033 288.992906 
L 299.993751 288.165548 
L 301.209783 287.287303 
L 301.699354 286.927053 
L 303.404957 285.639805 
L 303.480068 285.5817 
L 305.110559 284.296121 
L 305.630588 283.876098 
L 306.816162 282.899742 
L 307.681083 282.170495 
L 308.521765 281.447509 
L 309.638374 280.464893 
L 310.227367 279.936001 
L 311.508675 278.75929 
L 311.93297 278.361513 
L 313.297658 277.053687 
L 313.638572 276.720026 
L 315.010514 275.348085 
L 315.344175 275.00717 
L 316.652001 273.642482 
L 317.049778 273.218187 
L 318.226489 271.936879 
L 318.75538 271.347887 
L 319.737997 270.231277 
L 320.460983 269.390595 
L 321.19023 268.525674 
L 322.166586 267.3401 
L 322.586609 266.820071 
L 323.872188 265.18958 
L 323.930293 265.114469 
L 325.21754 263.408866 
L 325.577791 262.919295 
L 326.456036 261.703264 
L 327.283394 260.527545 
L 327.649495 259.997661 
L 328.796901 258.292058 
L 328.988996 257.998579 
L 329.89679 256.586456 
L 330.694599 255.309961 
L 330.958086 254.880853 
L 331.975463 253.17525 
L 332.400201 252.441612 
L 332.953215 251.469648 
L 333.894237 249.764045 
L 334.105804 249.368211 
L 334.793987 248.058442 
L 335.661243 246.35284 
L 335.811407 246.047334 
L 336.48812 244.647237 
L 337.284068 242.941635 
L 337.517009 242.423988 
L 338.042826 241.236032 
L 338.769804 239.530429 
L 339.222612 238.425578 
L 339.46485 237.824827 
L 340.125084 236.119224 
L 340.757807 234.413621 
L 340.928215 233.933382 
L 341.356119 232.708019 
L 341.924654 231.002416 
L 342.466115 229.296813 
L 342.633817 228.740747 
L 342.975086 227.591211 
L 343.454787 225.885608 
L 343.907837 224.180006 
L 344.334238 222.474403 
L 344.33942 222.452293 
L 344.727918 220.7688 
L 345.095279 219.063198 
L 345.436399 217.357595 
L 345.75128 215.651992 
L 346.03992 213.94639 
L 346.045023 213.913225 
L 346.298422 212.240787 
L 346.531004 210.535185 
L 346.737744 208.829582 
L 346.918641 207.123979 
L 347.073696 205.418377 
L 347.202909 203.712774 
L 347.306278 202.007171 
L 347.383806 200.301569 
L 347.435491 198.595966 
L 347.461333 196.890363 
L 347.461333 195.184761 
L 347.435491 193.479158 
L 347.383806 191.773556 
L 347.306278 190.067953 
L 347.202909 188.36235 
L 347.073696 186.656748 
L 346.918641 184.951145 
L 346.737744 183.245542 
L 346.531004 181.53994 
L 346.298422 179.834337 
L 346.045023 178.161899 
L 346.03992 178.128734 
L 345.75128 176.423132 
L 345.436399 174.717529 
L 345.095279 173.011927 
L 344.727918 171.306324 
L 344.33942 169.622831 
L 344.334238 169.600721 
L 343.907837 167.895119 
L 343.454787 166.189516 
L 342.975086 164.483913 
L 342.633817 163.334377 
L 342.466115 162.778311 
L 341.924654 161.072708 
L 341.356119 159.367105 
L 340.928215 158.141742 
L 340.757807 157.661503 
L 340.125084 155.9559 
L 339.46485 154.250298 
L 339.222612 153.649546 
L 338.769804 152.544695 
L 338.042826 150.839092 
L 337.517009 149.651137 
L 337.284068 149.13349 
L 336.48812 147.427887 
L 335.811407 146.02779 
L 335.661243 145.722284 
L 334.793987 144.016682 
L 334.105804 142.706913 
L 333.894237 142.311079 
L 332.953215 140.605476 
L 332.400201 139.633513 
L 331.975463 138.899874 
L 330.958086 137.194271 
L 330.694599 136.765163 
L 329.89679 135.488669 
L 328.988996 134.076545 
L 328.796901 133.783066 
L 327.649495 132.077463 
L 327.283394 131.547579 
L 326.456036 130.371861 
L 325.577791 129.155829 
L 325.21754 128.666258 
L 323.930293 126.960655 
L 323.872188 126.885544 
L 322.586609 125.255053 
L 322.166586 124.735024 
L 321.19023 123.54945 
L 320.460983 122.684529 
L 319.737997 121.843848 
L 318.75538 120.727238 
L 318.226489 120.138245 
L 317.049778 118.856937 
L 316.652001 118.432642 
L 315.344175 117.067954 
L 315.010514 116.72704 
L 313.638572 115.355098 
L 313.297658 115.021437 
L 311.93297 113.713611 
L 311.508675 113.315834 
L 310.227367 112.139123 
L 309.638374 111.610232 
L 308.521765 110.627615 
L 307.681083 109.904629 
L 306.816162 109.175382 
L 305.630588 108.199026 
L 305.110559 107.779004 
L 303.480068 106.493424 
L 303.404957 106.435319 
L 301.699354 105.148072 
L 301.209783 104.787821 
L 299.993751 103.909576 
L 298.818033 103.082219 
L 298.288149 102.716117 
L 296.582546 101.568712 
L 296.289067 101.376616 
L 294.876944 100.468822 
L 293.600449 99.671013 
L 293.171341 99.407526 
L 291.465738 98.390149 
L 290.732099 97.965411 
L 289.760136 97.412397 
L 288.054533 96.471375 
L 287.658699 96.259808 
L 286.34893 95.571625 
L 284.643328 94.704369 
L 284.337822 94.554205 
L 282.937725 93.877492 
L 281.232122 93.081544 
L 280.714476 92.848603 
L 279.52652 92.322786 
L 277.820917 91.595808 
L 276.716066 91.143 
L 276.115315 90.900762 
L 274.409712 90.240528 
L 272.704109 89.607805 
L 272.22387 89.437397 
L 270.998507 89.009493 
L 269.292904 88.440959 
L 267.587301 87.899497 
L 267.031235 87.731795 
L 265.881699 87.390526 
L 264.176096 86.910826 
L 262.470493 86.457775 
L 260.764891 86.031374 
L 260.742781 86.026192 
L 259.059288 85.637694 
L 257.353686 85.270333 
L 255.648083 84.929213 
L 253.94248 84.614332 
L 252.236878 84.325692 
L 252.203713 84.32059 
L 250.531275 84.06719 
L 248.825672 83.834608 
L 247.12007 83.627868 
L 245.414467 83.446971 
L 243.708864 83.291916 
L 242.003262 83.162704 
L 240.297659 83.059334 
L 238.592057 82.981806 
L 236.886454 82.930121 
L 235.180851 82.904279 
L 233.475249 82.904279 
L 231.769646 82.930121 
L 230.064043 82.981806 
L 228.358441 83.059334 
L 226.652838 83.162704 
L 224.947236 83.291916 
L 223.241633 83.446971 
L 221.53603 83.627868 
L 219.830428 83.834608 
L 218.124825 84.06719 
L 216.452387 84.32059 
L 216.419222 84.325692 
L 214.71362 84.614332 
L 213.008017 84.929213 
L 211.302414 85.270333 
L 209.596812 85.637694 
L 207.913319 86.026192 
L 207.891209 86.031374 
L 206.185607 86.457775 
L 204.480004 86.910826 
L 202.774401 87.390526 
L 201.624865 87.731795 
L 201.068799 87.899497 
L 199.363196 88.440959 
L 197.657593 89.009493 
L 196.43223 89.437397 
L 195.951991 89.607805 
L 194.246388 90.240528 
L 192.540785 90.900762 
L 191.940034 91.143 
L 190.835183 91.595808 
L 189.12958 92.322786 
L 187.941624 92.848603 
L 187.423978 93.081544 
L 185.718375 93.877492 
L 184.318278 94.554205 
L 184.012772 94.704369 
L 182.30717 95.571625 
L 180.997401 96.259808 
L 180.601567 96.471375 
L 178.895964 97.412397 
L 177.924001 97.965411 
L 177.190362 98.390149 
L 175.484759 99.407526 
L 175.055651 99.671013 
L 173.779156 100.468822 
L 172.367033 101.376616 
L 172.073554 101.568712 
L 170.367951 102.716117 
L 169.838067 103.082219 
L 168.662349 103.909576 
L 167.446317 104.787821 
L 166.956746 105.148072 
L 165.251143 106.435319 
L 165.176032 106.493424 
L 163.545541 107.779004 
L 163.025512 108.199026 
L 161.839938 109.175382 
L 160.975017 109.904629 
L 160.134335 110.627615 
L 159.017726 111.610232 
L 158.428733 112.139123 
L 157.147425 113.315834 
L 156.72313 113.713611 
L 155.358442 115.021437 
L 155.017528 115.355098 
L 153.645586 116.72704 
L 153.311925 117.067954 
L 152.004099 118.432642 
L 151.606322 118.856937 
L 150.429611 120.138245 
L 149.90072 120.727238 
L 148.918103 121.843848 
L 148.195117 122.684529 
L 147.46587 123.54945 
L 146.489514 124.735024 
L 146.069491 125.255053 
L 144.783912 126.885544 
L 144.725807 126.960655 
L 143.43856 128.666258 
L 143.078309 129.155829 
L 142.200064 130.371861 
L 141.372706 131.547579 
L 141.006605 132.077463 
L 139.859199 133.783066 
L 139.667104 134.076545 
L 138.75931 135.488669 
L 137.961501 136.765163 
L 137.698014 137.194271 
L 136.680637 138.899874 
L 136.255899 139.633513 
L 135.702885 140.605476 
L 134.761863 142.311079 
L 134.550296 142.706913 
L 133.862113 144.016682 
L 132.994857 145.722284 
L 132.844693 146.02779 
L 132.16798 147.427887 
L 131.372032 149.13349 
L 131.139091 149.651137 
L 130.613274 150.839092 
L 129.886296 152.544695 
L 129.433488 153.649546 
L 129.19125 154.250298 
L 128.531016 155.9559 
L 127.898293 157.661503 
L 127.727885 158.141742 
L 127.299981 159.367105 
L 126.731446 161.072708 
L 126.189985 162.778311 
L 126.022283 163.334377 
L 125.681014 164.483913 
L 125.201313 166.189516 
L 124.748263 167.895119 
L 124.321862 169.600721 
L 124.31668 169.622831 
L 123.928182 171.306324 
L 123.560821 173.011927 
L 123.219701 174.717529 
L 122.90482 176.423132 
L 122.61618 178.128734 
L 122.611077 178.161899 
L 122.357678 179.834337 
L 122.125096 181.53994 
L 121.918356 183.245542 
L 121.737459 184.951145 
L 121.582404 186.656748 
L 121.453191 188.36235 
L 121.349822 190.067953 
L 121.272294 191.773556 
L 121.220609 193.479158 
L 121.194767 195.184761 
L 121.194767 196.890363 
L 121.220609 198.595966 
L 121.272294 200.301569 
L 121.349822 202.007171 
L 121.453191 203.712774 
L 121.582404 205.418377 
L 121.737459 207.123979 
L 121.918356 208.829582 
L 122.125096 210.535185 
L 122.357678 212.240787 
L 122.611077 213.913225 
L 122.61618 213.94639 
L 122.90482 215.651992 
L 123.219701 217.357595 
L 123.560821 219.063198 
L 123.928182 220.7688 
L 124.31668 222.452293 
L 124.321862 222.474403 
L 124.748263 224.180006 
L 125.201313 225.885608 
L 125.681014 227.591211 
L 126.022283 228.740747 
L 126.189985 229.296813 
L 126.731446 231.002416 
L 127.299981 232.708019 
L 127.727885 233.933382 
L 127.898293 234.413621 
L 128.531016 236.119224 
L 129.19125 237.824827 
L 129.433488 238.425578 
L 129.886296 239.530429 
L 130.613274 241.236032 
L 131.139091 242.423988 
L 131.372032 242.941635 
L 132.16798 244.647237 
L 132.844693 246.047334 
L 132.994857 246.35284 
L 133.862113 248.058442 
L 134.550296 249.368211 
L 134.761863 249.764045 
L 135.702885 251.469648 
L 136.255899 252.441612 
L 136.680637 253.17525 
L 137.698014 254.880853 
L 137.961501 255.309961 
L 138.75931 256.586456 
L 139.667104 257.998579 
L 139.859199 258.292058 
L 141.006605 259.997661 
L 141.372706 260.527545 
L 142.200064 261.703264 
L 143.078309 262.919295 
L 143.43856 263.408866 
L 144.725807 265.114469 
L 144.783912 265.18958 
L 146.069491 266.820071 
L 146.489514 267.3401 
L 147.46587 268.525674 
L 148.195117 269.390595 
L 148.918103 270.231277 
L 149.90072 271.347887 
L 150.429611 271.936879 
L 151.606322 273.218187 
L 152.004099 273.642482 
L 153.311925 275.00717 
L 153.645586 275.348085 
L 155.017528 276.720026 
L 155.358442 277.053687 
L 156.72313 278.361513 
L 157.147425 278.75929 
L 158.428733 279.936001 
L 159.017726 280.464893 
L 160.134335 281.447509 
L 160.975017 282.170495 
L 161.839938 282.899742 
L 163.025512 283.876098 
L 163.545541 284.296121 
L 165.176032 285.5817 
L 165.251143 285.639805 
L 166.956746 286.927053 
L 167.446317 287.287303 
L 168.662349 288.165548 
L 169.838067 288.992906 
L 170.367951 289.359007 
L 172.073554 290.506413 
L 172.367033 290.698508 
L 173.779156 291.606302 
L 175.055651 292.404111 
L 175.484759 292.667598 
L 177.190362 293.684975 
L 177.924001 294.109714 
L 178.895964 294.662727 
L 180.601567 295.60375 
L 180.997401 295.815316 
L 182.30717 296.5035 
L 184.012772 297.370755 
L 184.318278 297.520919 
L 185.718375 298.197632 
L 187.423978 298.99358 
L 187.941624 299.226521 
L 189.12958 299.752338 
L 190.835183 300.479316 
L 191.940034 300.932124 
L 192.540785 301.174362 
L 194.246388 301.834596 
L 195.951991 302.467319 
L 196.43223 302.637727 
L 197.657593 303.065631 
L 199.363196 303.634166 
L 201.068799 304.175627 
L 201.624865 304.343329 
L 202.774401 304.684598 
L 204.480004 305.164299 
L 206.185607 305.617349 
L 207.891209 306.04375 
L 207.913319 306.048932 
L 209.596812 306.43743 
L 211.302414 306.804791 
L 213.008017 307.145911 
L 214.71362 307.460792 
L 216.419222 307.749432 
L 216.452387 307.754535 
z
" clip-path="url(#p782732f462)" style="fill: #0096ff; fill-opacity: 0.06"/>
   </g>
   <g id="line2d_29">
    <path d="M 347.466358 196.037562 
L 347.409969 192.46595 
L 347.240857 188.897898 
L 346.959191 185.336963 
L 346.565252 181.786694 
L 346.059433 178.250631 
L 345.442237 174.732299 
L 344.71428 171.235204 
L 343.876288 167.762832 
L 342.929096 164.318646 
L 341.873647 160.906077 
L 340.710996 157.528529 
L 339.442299 154.189367 
L 338.068822 150.89192 
L 336.591934 147.639475 
L 335.013107 144.435275 
L 333.333915 141.282513 
L 331.556032 138.184332 
L 329.68123 135.14382 
L 327.711378 132.164009 
L 325.648439 129.247868 
L 323.49447 126.398304 
L 321.251618 123.618158 
L 318.922119 120.910202 
L 316.508295 118.277134 
L 314.012551 115.72158 
L 311.437377 113.246086 
L 308.785338 110.853121 
L 306.059078 108.545069 
L 303.261315 106.324232 
L 300.394838 104.192822 
L 297.462505 102.152966 
L 294.467237 100.206696 
L 291.412022 98.355952 
L 288.299904 96.60258 
L 285.133986 94.948326 
L 281.917423 93.39484 
L 278.653422 91.943671 
L 275.345236 90.596265 
L 271.996164 89.353965 
L 268.609543 88.218009 
L 265.18875 87.189531 
L 261.737194 86.269554 
L 258.258317 85.458997 
L 254.755585 84.758667 
L 251.23249 84.169262 
L 247.692545 83.691369 
L 244.139277 83.325466 
L 240.57623 83.071917 
L 237.006954 82.930974 
L 233.435008 82.902779 
L 229.863952 82.987358 
L 226.297346 83.184629 
L 222.738745 83.494394 
L 219.191697 83.916344 
L 215.659736 84.450059 
L 212.146385 85.095007 
L 208.655145 85.850545 
L 205.189497 86.71592 
L 201.752894 87.690269 
L 198.348763 88.772621 
L 194.980497 89.961897 
L 191.651453 91.256911 
L 188.36495 92.656373 
L 185.124265 94.158888 
L 181.932626 95.762958 
L 178.793217 97.466983 
L 175.709166 99.269266 
L 172.683547 101.168009 
L 169.719377 103.161321 
L 166.819611 105.247214 
L 163.987138 107.423608 
L 161.224783 109.688335 
L 158.535298 112.039136 
L 155.921366 114.473669 
L 153.385591 116.989507 
L 150.930501 119.584141 
L 148.558544 122.254986 
L 146.272083 124.999379 
L 144.073399 127.814585 
L 141.964682 130.697796 
L 139.948035 133.64614 
L 138.025469 136.656676 
L 136.198898 139.726405 
L 134.470146 142.852266 
L 132.840933 146.031144 
L 131.312885 149.259869 
L 129.887525 152.535222 
L 128.566274 155.85394 
L 127.350448 159.212714 
L 126.24126 162.608196 
L 125.239815 166.037001 
L 124.347111 169.495711 
L 123.564039 172.980878 
L 122.891379 176.489029 
L 122.329802 180.016666 
L 121.879866 183.560274 
L 121.542022 187.116319 
L 121.316605 190.681256 
L 121.20384 194.251533 
L 121.20384 197.823591 
L 121.316605 201.393868 
L 121.542022 204.958806 
L 121.879866 208.514851 
L 122.329802 212.058458 
L 122.891379 215.586095 
L 123.564039 219.094246 
L 124.347111 222.579414 
L 125.239815 226.038124 
L 126.24126 229.466928 
L 127.350448 232.86241 
L 128.566274 236.221184 
L 129.887525 239.539902 
L 131.312885 242.815256 
L 132.840933 246.04398 
L 134.470146 249.222858 
L 136.198898 252.348719 
L 138.025469 255.418448 
L 139.948035 258.428985 
L 141.964682 261.377328 
L 144.073399 264.26054 
L 146.272083 267.075745 
L 148.558544 269.820138 
L 150.930501 272.490983 
L 153.385591 275.085617 
L 155.921366 277.601455 
L 158.535298 280.035988 
L 161.224783 282.38679 
L 163.987138 284.651516 
L 166.819611 286.827911 
L 169.719377 288.913803 
L 172.683547 290.907115 
L 175.709166 292.805858 
L 178.793217 294.608141 
L 181.932626 296.312167 
L 185.124265 297.916236 
L 188.36495 299.418751 
L 191.651453 300.818213 
L 194.980497 302.113228 
L 198.348763 303.302503 
L 201.752894 304.384855 
L 205.189497 305.359204 
L 208.655145 306.224579 
L 212.146385 306.980117 
L 215.659736 307.625065 
L 219.191697 308.15878 
L 222.738745 308.580731 
L 226.297346 308.890495 
L 229.863952 309.087766 
L 233.435008 309.172346 
L 237.006954 309.14415 
L 240.57623 309.003207 
L 244.139277 308.749658 
L 247.692545 308.383755 
L 251.23249 307.905863 
L 254.755585 307.316458 
L 258.258317 306.616127 
L 261.737194 305.80557 
L 265.18875 304.885593 
L 268.609543 303.857115 
L 271.996164 302.721159 
L 275.345236 301.478859 
L 278.653422 300.131453 
L 281.917423 298.680284 
L 285.133986 297.126798 
L 288.299904 295.472545 
L 291.412022 293.719172 
L 294.467237 291.868428 
L 297.462505 289.922158 
L 300.394838 287.882302 
L 303.261315 285.750893 
L 306.059078 283.530055 
L 308.785338 281.222004 
L 311.437377 278.829038 
L 314.012551 276.353544 
L 316.508295 273.79799 
L 318.922119 271.164922 
L 321.251618 268.456966 
L 323.49447 265.67682 
L 325.648439 262.827257 
L 327.711378 259.911116 
L 329.68123 256.931304 
L 331.556032 253.890792 
L 333.333915 250.792611 
L 335.013107 247.639849 
L 336.591934 244.435649 
L 338.068822 241.183204 
L 339.442299 237.885757 
L 340.710996 234.546595 
L 341.873647 231.169047 
L 342.929096 227.756478 
L 343.876288 224.312292 
L 344.71428 220.83992 
L 345.442237 217.342825 
L 346.059433 213.824493 
L 346.565252 210.28843 
L 346.959191 206.738162 
L 347.240857 203.177226 
L 347.409969 199.609174 
L 347.466358 196.037562 
L 347.466358 196.037562 
" clip-path="url(#p782732f462)" style="fill: none; stroke: #ff9300; stroke-width: 2"/>
   </g>
   <g id="patch_3">
    <path d="M 64.620588 365.745024 
L 64.620588 26.3301 
" style="fill: none; stroke: #f0f0f0; stroke-width: 3; stroke-linejoin: miter; stroke-linecap: square"/>
   </g>
   <g id="patch_4">
    <path d="M 404.035512 365.745024 
L 404.035512 26.3301 
" style="fill: none; stroke: #f0f0f0; stroke-width: 3; stroke-linejoin: miter; stroke-linecap: square"/>
   </g>
   <g id="patch_5">
    <path d="M 64.620588 365.745024 
L 404.035512 365.745024 
" style="fill: none; stroke: #f0f0f0; stroke-width: 3; stroke-linejoin: miter; stroke-linecap: square"/>
   </g>
   <g id="patch_6">
    <path d="M 64.620588 26.3301 
L 404.035512 26.3301 
" style="fill: none; stroke: #f0f0f0; stroke-width: 3; stroke-linejoin: miter; stroke-linecap: square"/>
   </g>
   <g id="text_17">
    <!-- Circular decision boundary from polynomial features -->
    <g style="fill: #808080" transform="translate(7.2 20.3301) scale(0.1728 -0.1728)">
     <defs>
      <path id="DejaVuSans-43" d="M 4122 4306 
L 4122 3641 
Q 3803 3938 3442 4084 
Q 3081 4231 2675 4231 
Q 1875 4231 1450 3742 
Q 1025 3253 1025 2328 
Q 1025 1406 1450 917 
Q 1875 428 2675 428 
Q 3081 428 3442 575 
Q 3803 722 4122 1019 
L 4122 359 
Q 3791 134 3420 21 
Q 3050 -91 2638 -91 
Q 1578 -91 968 557 
Q 359 1206 359 2328 
Q 359 3453 968 4101 
Q 1578 4750 2638 4750 
Q 3056 4750 3426 4639 
Q 3797 4528 4122 4306 
z
" transform="scale(0.015625)"/>
      <path id="DejaVuSans-69" d="M 603 3500 
L 1178 3500 
L 1178 0 
L 603 0 
L 603 3500 
z
M 603 4863 
L 1178 4863 
L 1178 4134 
L 603 4134 
L 603 4863 
z
" transform="scale(0.015625)"/>
      <path id="DejaVuSans-72" d="M 2631 2963 
Q 2534 3019 2420 3045 
Q 2306 3072 2169 3072 
Q 1681 3072 1420 2755 
Q 1159 2438 1159 1844 
L 1159 0 
L 581 0 
L 581 3500 
L 1159 3500 
L 1159 2956 
Q 1341 3275 1631 3429 
Q 1922 3584 2338 3584 
Q 2397 3584 2469 3576 
Q 2541 3569 2628 3553 
L 2631 2963 
z
" transform="scale(0.015625)"/>
      <path id="DejaVuSans-63" d="M 3122 3366 
L 3122 2828 
Q 2878 2963 2633 3030 
Q 2388 3097 2138 3097 
Q 1578 3097 1268 2742 
Q 959 2388 959 1747 
Q 959 1106 1268 751 
Q 1578 397 2138 397 
Q 2388 397 2633 464 
Q 2878 531 3122 666 
L 3122 134 
Q 2881 22 2623 -34 
Q 2366 -91 2075 -91 
Q 1284 -91 818 406 
Q 353 903 353 1747 
Q 353 2603 823 3093 
Q 1294 3584 2113 3584 
Q 2378 3584 2631 3529 
Q 2884 3475 3122 3366 
z
" transform="scale(0.015625)"/>
      <path id="DejaVuSans-75" d="M 544 1381 
L 544 3500 
L 1119 3500 
L 1119 1403 
Q 1119 906 1312 657 
Q 1506 409 1894 409 
Q 2359 409 2629 706 
Q 2900 1003 2900 1516 
L 2900 3500 
L 3475 3500 
L 3475 0 
L 2900 0 
L 2900 538 
Q 2691 219 2414 64 
Q 2138 -91 1772 -91 
Q 1169 -91 856 284 
Q 544 659 544 1381 
z
M 1991 3584 
L 1991 3584 
z
" transform="scale(0.015625)"/>
      <path id="DejaVuSans-6c" d="M 603 4863 
L 1178 4863 
L 1178 0 
L 603 0 
L 603 4863 
z
" transform="scale(0.015625)"/>
      <path id="DejaVuSans-61" d="M 2194 1759 
Q 1497 1759 1228 1600 
Q 959 1441 959 1056 
Q 959 750 1161 570 
Q 1363 391 1709 391 
Q 2188 391 2477 730 
Q 2766 1069 2766 1631 
L 2766 1759 
L 2194 1759 
z
M 3341 1997 
L 3341 0 
L 2766 0 
L 2766 531 
Q 2569 213 2275 61 
Q 1981 -91 1556 -91 
Q 1019 -91 701 211 
Q 384 513 384 1019 
Q 384 1609 779 1909 
Q 1175 2209 1959 2209 
L 2766 2209 
L 2766 2266 
Q 2766 2663 2505 2880 
Q 2244 3097 1772 3097 
Q 1472 3097 1187 3025 
Q 903 2953 641 2809 
L 641 3341 
Q 956 3463 1253 3523 
Q 1550 3584 1831 3584 
Q 2591 3584 2966 3190 
Q 3341 2797 3341 1997 
z
" transform="scale(0.015625)"/>
      <path id="DejaVuSans-20" transform="scale(0.015625)"/>
      <path id="DejaVuSans-64" d="M 2906 2969 
L 2906 4863 
L 3481 4863 
L 3481 0 
L 2906 0 
L 2906 525 
Q 2725 213 2448 61 
Q 2172 -91 1784 -91 
Q 1150 -91 751 415 
Q 353 922 353 1747 
Q 353 2572 751 3078 
Q 1150 3584 1784 3584 
Q 2172 3584 2448 3432 
Q 2725 3281 2906 2969 
z
M 947 1747 
Q 947 1113 1208 752 
Q 1469 391 1925 391 
Q 2381 391 2643 752 
Q 2906 1113 2906 1747 
Q 2906 2381 2643 2742 
Q 2381 3103 1925 3103 
Q 1469 3103 1208 2742 
Q 947 2381 947 1747 
z
" transform="scale(0.015625)"/>
      <path id="DejaVuSans-65" d="M 3597 1894 
L 3597 1613 
L 953 1613 
Q 991 1019 1311 708 
Q 1631 397 2203 397 
Q 2534 397 2845 478 
Q 3156 559 3463 722 
L 3463 178 
Q 3153 47 2828 -22 
Q 2503 -91 2169 -91 
Q 1331 -91 842 396 
Q 353 884 353 1716 
Q 353 2575 817 3079 
Q 1281 3584 2069 3584 
Q 2775 3584 3186 3129 
Q 3597 2675 3597 1894 
z
M 3022 2063 
Q 3016 2534 2758 2815 
Q 2500 3097 2075 3097 
Q 1594 3097 1305 2825 
Q 1016 2553 972 2059 
L 3022 2063 
z
" transform="scale(0.015625)"/>
      <path id="DejaVuSans-73" d="M 2834 3397 
L 2834 2853 
Q 2591 2978 2328 3040 
Q 2066 3103 1784 3103 
Q 1356 3103 1142 2972 
Q 928 2841 928 2578 
Q 928 2378 1081 2264 
Q 1234 2150 1697 2047 
L 1894 2003 
Q 2506 1872 2764 1633 
Q 3022 1394 3022 966 
Q 3022 478 2636 193 
Q 2250 -91 1575 -91 
Q 1294 -91 989 -36 
Q 684 19 347 128 
L 347 722 
Q 666 556 975 473 
Q 1284 391 1588 391 
Q 1994 391 2212 530 
Q 2431 669 2431 922 
Q 2431 1156 2273 1281 
Q 2116 1406 1581 1522 
L 1381 1569 
Q 847 1681 609 1914 
Q 372 2147 372 2553 
Q 372 3047 722 3315 
Q 1072 3584 1716 3584 
Q 2034 3584 2315 3537 
Q 2597 3491 2834 3397 
z
" transform="scale(0.015625)"/>
      <path id="DejaVuSans-6f" d="M 1959 3097 
Q 1497 3097 1228 2736 
Q 959 2375 959 1747 
Q 959 1119 1226 758 
Q 1494 397 1959 397 
Q 2419 397 2687 759 
Q 2956 1122 2956 1747 
Q 2956 2369 2687 2733 
Q 2419 3097 1959 3097 
z
M 1959 3584 
Q 2709 3584 3137 3096 
Q 3566 2609 3566 1747 
Q 3566 888 3137 398 
Q 2709 -91 1959 -91 
Q 1206 -91 779 398 
Q 353 888 353 1747 
Q 353 2609 779 3096 
Q 1206 3584 1959 3584 
z
" transform="scale(0.015625)"/>
      <path id="DejaVuSans-6e" d="M 3513 2113 
L 3513 0 
L 2938 0 
L 2938 2094 
Q 2938 2591 2744 2837 
Q 2550 3084 2163 3084 
Q 1697 3084 1428 2787 
Q 1159 2491 1159 1978 
L 1159 0 
L 581 0 
L 581 3500 
L 1159 3500 
L 1159 2956 
Q 1366 3272 1645 3428 
Q 1925 3584 2291 3584 
Q 2894 3584 3203 3211 
Q 3513 2838 3513 2113 
z
" transform="scale(0.015625)"/>
      <path id="DejaVuSans-62" d="M 3116 1747 
Q 3116 2381 2855 2742 
Q 2594 3103 2138 3103 
Q 1681 3103 1420 2742 
Q 1159 2381 1159 1747 
Q 1159 1113 1420 752 
Q 1681 391 2138 391 
Q 2594 391 2855 752 
Q 3116 1113 3116 1747 
z
M 1159 2969 
Q 1341 3281 1617 3432 
Q 1894 3584 2278 3584 
Q 2916 3584 3314 3078 
Q 3713 2572 3713 1747 
Q 3713 922 3314 415 
Q 2916 -91 2278 -91 
Q 1894 -91 1617 61 
Q 1341 213 1159 525 
L 1159 0 
L 581 0 
L 581 4863 
L 1159 4863 
L 1159 2969 
z
" transform="scale(0.015625)"/>
      <path id="DejaVuSans-79" d="M 2059 -325 
Q 1816 -950 1584 -1140 
Q 1353 -1331 966 -1331 
L 506 -1331 
L 506 -850 
L 844 -850 
Q 1081 -850 1212 -737 
Q 1344 -625 1503 -206 
L 1606 56 
L 191 3500 
L 800 3500 
L 1894 763 
L 2988 3500 
L 3597 3500 
L 2059 -325 
z
" transform="scale(0.015625)"/>
      <path id="DejaVuSans-66" d="M 2375 4863 
L 2375 4384 
L 1825 4384 
Q 1516 4384 1395 4259 
Q 1275 4134 1275 3809 
L 1275 3500 
L 2222 3500 
L 2222 3053 
L 1275 3053 
L 1275 0 
L 697 0 
L 697 3053 
L 147 3053 
L 147 3500 
L 697 3500 
L 697 3744 
Q 697 4328 969 4595 
Q 1241 4863 1831 4863 
L 2375 4863 
z
" transform="scale(0.015625)"/>
      <path id="DejaVuSans-6d" d="M 3328 2828 
Q 3544 3216 3844 3400 
Q 4144 3584 4550 3584 
Q 5097 3584 5394 3201 
Q 5691 2819 5691 2113 
L 5691 0 
L 5113 0 
L 5113 2094 
Q 5113 2597 4934 2840 
Q 4756 3084 4391 3084 
Q 3944 3084 3684 2787 
Q 3425 2491 3425 1978 
L 3425 0 
L 2847 0 
L 2847 2094 
Q 2847 2600 2669 2842 
Q 2491 3084 2119 3084 
Q 1678 3084 1418 2786 
Q 1159 2488 1159 1978 
L 1159 0 
L 581 0 
L 581 3500 
L 1159 3500 
L 1159 2956 
Q 1356 3278 1631 3431 
Q 1906 3584 2284 3584 
Q 2666 3584 2933 3390 
Q 3200 3197 3328 2828 
z
" transform="scale(0.015625)"/>
      <path id="DejaVuSans-70" d="M 1159 525 
L 1159 -1331 
L 581 -1331 
L 581 3500 
L 1159 3500 
L 1159 2969 
Q 1341 3281 1617 3432 
Q 1894 3584 2278 3584 
Q 2916 3584 3314 3078 
Q 3713 2572 3713 1747 
Q 3713 922 3314 415 
Q 2916 -91 2278 -91 
Q 1894 -91 1617 61 
Q 1341 213 1159 525 
z
M 3116 1747 
Q 3116 2381 2855 2742 
Q 2594 3103 2138 3103 
Q 1681 3103 1420 2742 
Q 1159 2381 1159 1747 
Q 1159 1113 1420 752 
Q 1681 391 2138 391 
Q 2594 391 2855 752 
Q 3116 1113 3116 1747 
z
" transform="scale(0.015625)"/>
      <path id="DejaVuSans-74" d="M 1172 4494 
L 1172 3500 
L 2356 3500 
L 2356 3053 
L 1172 3053 
L 1172 1153 
Q 1172 725 1289 603 
Q 1406 481 1766 481 
L 2356 481 
L 2356 0 
L 1766 0 
Q 1100 0 847 248 
Q 594 497 594 1153 
L 594 3053 
L 172 3053 
L 172 3500 
L 594 3500 
L 594 4494 
L 1172 4494 
z
" transform="scale(0.015625)"/>
     </defs>
     <use xlink:href="#DejaVuSans-43"/>
     <use xlink:href="#DejaVuSans-69" transform="translate(69.824219 0)"/>
     <use xlink:href="#DejaVuSans-72" transform="translate(97.607422 0)"/>
     <use xlink:href="#DejaVuSans-63" transform="translate(136.470703 0)"/>
     <use xlink:href="#DejaVuSans-75" transform="translate(191.451172 0)"/>
     <use xlink:href="#DejaVuSans-6c" transform="translate(254.830078 0)"/>
     <use xlink:href="#DejaVuSans-61" transform="translate(282.613281 0)"/>
     <use xlink:href="#DejaVuSans-72" transform="translate(343.892578 0)"/>
     <use xlink:href="#DejaVuSans-20" transform="translate(385.005859 0)"/>
     <use xlink:href="#DejaVuSans-64" transform="translate(416.792969 0)"/>
     <use xlink:href="#DejaVuSans-65" transform="translate(480.269531 0)"/>
     <use xlink:href="#DejaVuSans-63" transform="translate(541.792969 0)"/>
     <use xlink:href="#DejaVuSans-69" transform="translate(596.773438 0)"/>
     <use xlink:href="#DejaVuSans-73" transform="translate(624.556641 0)"/>
     <use xlink:href="#DejaVuSans-69" transform="translate(676.65625 0)"/>
     <use xlink:href="#DejaVuSans-6f" transform="translate(704.439453 0)"/>
     <use xlink:href="#DejaVuSans-6e" transform="translate(765.621094 0)"/>
     <use xlink:href="#DejaVuSans-20" transform="translate(829 0)"/>
     <use xlink:href="#DejaVuSans-62" transform="translate(860.787109 0)"/>
     <use xlink:href="#DejaVuSans-6f" transform="translate(924.263672 0)"/>
     <use xlink:href="#DejaVuSans-75" transform="translate(985.445312 0)"/>
     <use xlink:href="#DejaVuSans-6e" transform="translate(1048.824219 0)"/>
     <use xlink:href="#DejaVuSans-64" transform="translate(1112.203125 0)"/>
     <use xlink:href="#DejaVuSans-61" transform="translate(1175.679688 0)"/>
     <use xlink:href="#DejaVuSans-72" transform="translate(1236.958984 0)"/>
     <use xlink:href="#DejaVuSans-79" transform="translate(1278.072266 0)"/>
     <use xlink:href="#DejaVuSans-20" transform="translate(1337.251953 0)"/>
     <use xlink:href="#DejaVuSans-66" transform="translate(1369.039062 0)"/>
     <use xlink:href="#DejaVuSans-72" transform="translate(1404.244141 0)"/>
     <use xlink:href="#DejaVuSans-6f" transform="translate(1443.107422 0)"/>
     <use xlink:href="#DejaVuSans-6d" transform="translate(1504.289062 0)"/>
     <use xlink:href="#DejaVuSans-20" transform="translate(1601.701172 0)"/>
     <use xlink:href="#DejaVuSans-70" transform="translate(1633.488281 0)"/>
     <use xlink:href="#DejaVuSans-6f" transform="translate(1696.964844 0)"/>
     <use xlink:href="#DejaVuSans-6c" transform="translate(1758.146484 0)"/>
     <use xlink:href="#DejaVuSans-79" transform="translate(1785.929688 0)"/>
     <use xlink:href="#DejaVuSans-6e" transform="translate(1845.109375 0)"/>
     <use xlink:href="#DejaVuSans-6f" transform="translate(1908.488281 0)"/>
     <use xlink:href="#DejaVuSans-6d" transform="translate(1969.669922 0)"/>
     <use xlink:href="#DejaVuSans-69" transform="translate(2067.082031 0)"/>
     <use xlink:href="#DejaVuSans-61" transform="translate(2094.865234 0)"/>
     <use xlink:href="#DejaVuSans-6c" transform="translate(2156.144531 0)"/>
     <use xlink:href="#DejaVuSans-20" transform="translate(2183.927734 0)"/>
     <use xlink:href="#DejaVuSans-66" transform="translate(2215.714844 0)"/>
     <use xlink:href="#DejaVuSans-65" transform="translate(2250.919922 0)"/>
     <use xlink:href="#DejaVuSans-61" transform="translate(2312.443359 0)"/>
     <use xlink:href="#DejaVuSans-74" transform="translate(2373.722656 0)"/>
     <use xlink:href="#DejaVuSans-75" transform="translate(2412.931641 0)"/>
     <use xlink:href="#DejaVuSans-72" transform="translate(2476.310547 0)"/>
     <use xlink:href="#DejaVuSans-65" transform="translate(2515.173828 0)"/>
     <use xlink:href="#DejaVuSans-73" transform="translate(2576.697266 0)"/>
    </g>
   </g>
   <g id="legend_1">
    <g id="patch_7">
     <path d="M 412.623811 218.202875 
L 489.213811 218.202875 
Q 491.013811 218.202875 491.013811 216.402875 
L 491.013811 175.67225 
Q 491.013811 173.87225 489.213811 173.87225 
L 412.623811 173.87225 
Q 410.823811 173.87225 410.823811 175.67225 
L 410.823811 216.402875 
Q 410.823811 218.202875 412.623811 218.202875 
z
" style="fill: #ffffff; opacity: 0.8; stroke: #cccccc; stroke-width: 0.5; stroke-linejoin: miter"/>
    </g>
    <g id="PathCollection_3">
     <g>
      <use xlink:href="#m910fe2291f" x="423.423811" y="181.948343" style="fill: #ff0000; stroke: #ff0000; stroke-width: 4"/>
     </g>
    </g>
    <g id="text_18">
     <!-- y = 1 -->
     <g transform="translate(439.623811 184.310843) scale(0.09 -0.09)">
      <defs>
       <path id="DejaVuSans-3d" d="M 678 2906 
L 4684 2906 
L 4684 2381 
L 678 2381 
L 678 2906 
z
M 678 1631 
L 4684 1631 
L 4684 1100 
L 678 1100 
L 678 1631 
z
" transform="scale(0.015625)"/>
      </defs>
      <use xlink:href="#DejaVuSans-79"/>
      <use xlink:href="#DejaVuSans-20" transform="translate(59.179688 0)"/>
      <use xlink:href="#DejaVuSans-3d" transform="translate(90.966797 0)"/>
      <use xlink:href="#DejaVuSans-20" transform="translate(174.755859 0)"/>
      <use xlink:href="#DejaVuSans-31" transform="translate(206.542969 0)"/>
     </g>
    </g>
    <g id="PathCollection_4">
     <path d="M 423.423811 200.158656 
C 424.749826 200.158656 426.02171 199.631824 426.959344 198.69419 
C 427.896979 197.756555 428.423811 196.484671 428.423811 195.158656 
C 428.423811 193.83264 427.896979 192.560757 426.959344 191.623122 
C 426.02171 190.685487 424.749826 190.158656 423.423811 190.158656 
C 422.097795 190.158656 420.825911 190.685487 419.888277 191.623122 
C 418.950642 192.560757 418.423811 193.83264 418.423811 195.158656 
C 418.423811 196.484671 418.950642 197.756555 419.888277 198.69419 
C 420.825911 199.631824 422.097795 200.158656 423.423811 200.158656 
L 423.423811 200.158656 
z
" style="fill: none; stroke: #0096ff; stroke-width: 2"/>
    </g>
    <g id="text_19">
     <!-- y = 0 -->
     <g transform="translate(439.623811 197.521156) scale(0.09 -0.09)">
      <use xlink:href="#DejaVuSans-79"/>
      <use xlink:href="#DejaVuSans-20" transform="translate(59.179688 0)"/>
      <use xlink:href="#DejaVuSans-3d" transform="translate(90.966797 0)"/>
      <use xlink:href="#DejaVuSans-20" transform="translate(174.755859 0)"/>
      <use xlink:href="#DejaVuSans-30" transform="translate(206.542969 0)"/>
     </g>
    </g>
    <g id="line2d_30">
     <path d="M 414.423811 208.932875 
L 423.423811 208.932875 
L 432.423811 208.932875 
" style="fill: none; stroke: #ff9300; stroke-width: 2"/>
    </g>
    <g id="text_20">
     <!-- $x_1^2 + x_2^2 = 1$ -->
     <g transform="translate(439.623811 212.082875) scale(0.09 -0.09)">
      <defs>
       <path id="DejaVuSans-2b" d="M 2944 4013 
L 2944 2272 
L 4684 2272 
L 4684 1741 
L 2944 1741 
L 2944 0 
L 2419 0 
L 2419 1741 
L 678 1741 
L 678 2272 
L 2419 2272 
L 2419 4013 
L 2944 4013 
z
" transform="scale(0.015625)"/>
      </defs>
      <use xlink:href="#DejaVuSans-Oblique-78" transform="translate(0 0.765625)"/>
      <use xlink:href="#DejaVuSans-32" transform="translate(63.645833 39.046875) scale(0.7)"/>
      <use xlink:href="#DejaVuSans-31" transform="translate(59.179688 -26.578125) scale(0.7)"/>
      <use xlink:href="#DejaVuSans-2b" transform="translate(130.398763 0.765625)"/>
      <use xlink:href="#DejaVuSans-Oblique-78" transform="translate(233.670247 0.765625)"/>
      <use xlink:href="#DejaVuSans-32" transform="translate(297.316081 39.046875) scale(0.7)"/>
      <use xlink:href="#DejaVuSans-32" transform="translate(292.849935 -26.578125) scale(0.7)"/>
      <use xlink:href="#DejaVuSans-3d" transform="translate(364.06901 0.765625)"/>
      <use xlink:href="#DejaVuSans-31" transform="translate(467.340495 0.765625)"/>
     </g>
    </g>
   </g>
  </g>
 </g>
 <defs>
  <clipPath id="p782732f462">
   <rect x="64.620588" y="26.3301" width="339.414924" height="339.414924"/>
  </clipPath>
 </defs>
</svg>
