<?xml version="1.0" encoding="utf-8" standalone="no"?>
<!DOCTYPE svg PUBLIC "-//W3C//DTD SVG 1.1//EN"
  "http://www.w3.org/Graphics/SVG/1.1/DTD/svg11.dtd">
<svg xmlns:xlink="http://www.w3.org/1999/xlink" width="924.48pt" height="165.746625pt" viewBox="0 0 924.48 165.746625" xmlns="http://www.w3.org/2000/svg" version="1.1">
 <metadata>
  <rdf:RDF xmlns:dc="http://purl.org/dc/elements/1.1/" xmlns:cc="http://creativecommons.org/ns#" xmlns:rdf="http://www.w3.org/1999/02/22-rdf-syntax-ns#">
   <cc:Work>
    <dc:type rdf:resource="http://purl.org/dc/dcmitype/StillImage"/>
    <dc:date>2026-07-17T22:01:23.673746</dc:date>
    <dc:format>image/svg+xml</dc:format>
    <dc:creator>
     <cc:Agent>
      <dc:title>Matplotlib v3.10.8, https://matplotlib.org/</dc:title>
     </cc:Agent>
    </dc:creator>
   </cc:Work>
  </rdf:RDF>
 </metadata>
 <defs>
  <style type="text/css">*{stroke-linejoin: round; stroke-linecap: butt}</style>
 </defs>
 <g id="figure_1">
  <g id="patch_1">
   <path d="M 0 165.746625 
L 924.48 165.746625 
L 924.48 0 
L 0 0 
z
" style="fill: #ffffff"/>
  </g>
  <g id="axes_1">
   <g id="patch_2">
    <path d="M 7.2 158.546625 
L 148.08 158.546625 
L 148.08 30.116625 
L 7.2 30.116625 
z
" style="fill: #ffffff"/>
   </g>
   <g id="matplotlib.axis_1"/>
   <g id="matplotlib.axis_2"/>
   <g id="line2d_1">
    <path d="M 13.603636 101.0742 
L 141.676364 101.0742 
L 141.676364 101.0742 
" clip-path="url(#p6e9c5779a0)" style="fill: none; stroke: #0e7490; stroke-width: 2"/>
   </g>
   <g id="line2d_2">
    <defs>
     <path id="me3d5fb701e" d="M -4 4 
L 4 -4 
M -4 -4 
L 4 4 
" style="stroke: #c00000; stroke-width: 2"/>
    </defs>
    <g clip-path="url(#p6e9c5779a0)">
     <use xlink:href="#me3d5fb701e" x="31.120545" y="101.0742" style="fill: #c00000; stroke: #c00000; stroke-width: 2"/>
    </g>
   </g>
   <g id="patch_3">
    <path d="M 7.2 158.546625 
L 7.2 30.116625 
" style="fill: none; stroke: #f0f0f0; stroke-width: 3; stroke-linejoin: miter; stroke-linecap: square"/>
   </g>
   <g id="patch_4">
    <path d="M 148.08 158.546625 
L 148.08 30.116625 
" style="fill: none; stroke: #f0f0f0; stroke-width: 3; stroke-linejoin: miter; stroke-linecap: square"/>
   </g>
   <g id="patch_5">
    <path d="M 7.2 158.546625 
L 148.08 158.546625 
" style="fill: none; stroke: #f0f0f0; stroke-width: 3; stroke-linejoin: miter; stroke-linecap: square"/>
   </g>
   <g id="patch_6">
    <path d="M 7.2 30.116625 
L 148.08 30.116625 
" style="fill: none; stroke: #f0f0f0; stroke-width: 3; stroke-linejoin: miter; stroke-linecap: square"/>
   </g>
   <g id="text_1">
    <!-- $m=1$ -->
    <g style="fill: #808080" transform="translate(64.86 14.038594) scale(0.09 -0.09)">
     <defs>
      <path id="DejaVuSans-Oblique-6d" d="M 5747 2113 
L 5338 0 
L 4763 0 
L 5166 2094 
Q 5191 2228 5203 2325 
Q 5216 2422 5216 2491 
Q 5216 2772 5059 2928 
Q 4903 3084 4622 3084 
Q 4203 3084 3875 2770 
Q 3547 2456 3450 1953 
L 3066 0 
L 2491 0 
L 2900 2094 
Q 2925 2209 2937 2307 
Q 2950 2406 2950 2484 
Q 2950 2769 2794 2926 
Q 2638 3084 2363 3084 
Q 1938 3084 1609 2770 
Q 1281 2456 1184 1953 
L 800 0 
L 225 0 
L 909 3500 
L 1484 3500 
L 1375 2956 
Q 1609 3263 1923 3423 
Q 2238 3584 2597 3584 
Q 2978 3584 3223 3384 
Q 3469 3184 3519 2828 
Q 3781 3197 4126 3390 
Q 4472 3584 4856 3584 
Q 5306 3584 5551 3325 
Q 5797 3066 5797 2591 
Q 5797 2488 5784 2364 
Q 5772 2241 5747 2113 
z
" transform="scale(0.015625)"/>
      <path id="DejaVuSans-3d" d="M 678 2906 
L 4684 2906 
L 4684 2381 
L 678 2381 
L 678 2906 
z
M 678 1631 
L 4684 1631 
L 4684 1100 
L 678 1100 
L 678 1631 
z
" transform="scale(0.015625)"/>
      <path id="DejaVuSans-31" d="M 794 531 
L 1825 531 
L 1825 4091 
L 703 3866 
L 703 4441 
L 1819 4666 
L 2450 4666 
L 2450 531 
L 3481 531 
L 3481 0 
L 794 0 
L 794 531 
z
" transform="scale(0.015625)"/>
     </defs>
     <use xlink:href="#DejaVuSans-Oblique-6d" transform="translate(0 0.09375)"/>
     <use xlink:href="#DejaVuSans-3d" transform="translate(116.894531 0.09375)"/>
     <use xlink:href="#DejaVuSans-31" transform="translate(220.166016 0.09375)"/>
    </g>
    <!-- $J_{train}=0$ -->
    <g style="fill: #808080" transform="translate(60.45 24.116625) scale(0.09 -0.09)">
     <defs>
      <path id="DejaVuSans-Oblique-4a" d="M 1069 4666 
L 1703 4666 
L 856 325 
Q 691 -522 298 -901 
Q -94 -1281 -800 -1281 
L -1050 -1281 
L -947 -750 
L -750 -750 
Q -328 -750 -109 -509 
Q 109 -269 225 325 
L 1069 4666 
z
" transform="scale(0.015625)"/>
      <path id="DejaVuSans-Oblique-74" d="M 2706 3500 
L 2619 3053 
L 1472 3053 
L 1100 1153 
Q 1081 1047 1072 975 
Q 1063 903 1063 863 
Q 1063 663 1183 572 
Q 1303 481 1569 481 
L 2150 481 
L 2053 0 
L 1503 0 
Q 991 0 739 200 
Q 488 400 488 806 
Q 488 878 497 964 
Q 506 1050 525 1153 
L 897 3053 
L 409 3053 
L 500 3500 
L 978 3500 
L 1172 4494 
L 1747 4494 
L 1556 3500 
L 2706 3500 
z
" transform="scale(0.015625)"/>
      <path id="DejaVuSans-Oblique-72" d="M 2853 2969 
Q 2766 3016 2653 3041 
Q 2541 3066 2413 3066 
Q 1953 3066 1609 2717 
Q 1266 2369 1153 1784 
L 800 0 
L 225 0 
L 909 3500 
L 1484 3500 
L 1375 2956 
Q 1603 3259 1920 3421 
Q 2238 3584 2597 3584 
Q 2691 3584 2781 3573 
Q 2872 3563 2963 3538 
L 2853 2969 
z
" transform="scale(0.015625)"/>
      <path id="DejaVuSans-Oblique-61" d="M 3438 1997 
L 3047 0 
L 2472 0 
L 2578 531 
Q 2325 219 2001 64 
Q 1678 -91 1281 -91 
Q 834 -91 548 182 
Q 263 456 263 884 
Q 263 1497 752 1853 
Q 1241 2209 2100 2209 
L 2900 2209 
L 2931 2363 
Q 2938 2388 2941 2417 
Q 2944 2447 2944 2509 
Q 2944 2788 2717 2942 
Q 2491 3097 2081 3097 
Q 1800 3097 1504 3025 
Q 1209 2953 897 2809 
L 997 3341 
Q 1322 3463 1633 3523 
Q 1944 3584 2234 3584 
Q 2853 3584 3176 3315 
Q 3500 3047 3500 2534 
Q 3500 2431 3484 2292 
Q 3469 2153 3438 1997 
z
M 2816 1759 
L 2241 1759 
Q 1534 1759 1195 1570 
Q 856 1381 856 984 
Q 856 709 1029 553 
Q 1203 397 1509 397 
Q 1978 397 2328 733 
Q 2678 1069 2791 1631 
L 2816 1759 
z
" transform="scale(0.015625)"/>
      <path id="DejaVuSans-Oblique-69" d="M 1172 4863 
L 1747 4863 
L 1606 4134 
L 1031 4134 
L 1172 4863 
z
M 909 3500 
L 1484 3500 
L 800 0 
L 225 0 
L 909 3500 
z
" transform="scale(0.015625)"/>
      <path id="DejaVuSans-Oblique-6e" d="M 3566 2113 
L 3156 0 
L 2578 0 
L 2988 2091 
Q 3016 2238 3031 2350 
Q 3047 2463 3047 2528 
Q 3047 2791 2881 2937 
Q 2716 3084 2419 3084 
Q 1956 3084 1622 2776 
Q 1288 2469 1184 1941 
L 800 0 
L 225 0 
L 903 3500 
L 1478 3500 
L 1363 2950 
Q 1603 3253 1940 3418 
Q 2278 3584 2650 3584 
Q 3113 3584 3367 3334 
Q 3622 3084 3622 2631 
Q 3622 2519 3608 2391 
Q 3594 2263 3566 2113 
z
" transform="scale(0.015625)"/>
      <path id="DejaVuSans-30" d="M 2034 4250 
Q 1547 4250 1301 3770 
Q 1056 3291 1056 2328 
Q 1056 1369 1301 889 
Q 1547 409 2034 409 
Q 2525 409 2770 889 
Q 3016 1369 3016 2328 
Q 3016 3291 2770 3770 
Q 2525 4250 2034 4250 
z
M 2034 4750 
Q 2819 4750 3233 4129 
Q 3647 3509 3647 2328 
Q 3647 1150 3233 529 
Q 2819 -91 2034 -91 
Q 1250 -91 836 529 
Q 422 1150 422 2328 
Q 422 3509 836 4129 
Q 1250 4750 2034 4750 
z
" transform="scale(0.015625)"/>
     </defs>
     <use xlink:href="#DejaVuSans-Oblique-4a" transform="translate(0 0.78125)"/>
     <use xlink:href="#DejaVuSans-Oblique-74" transform="translate(29.492188 -15.625) scale(0.7)"/>
     <use xlink:href="#DejaVuSans-Oblique-72" transform="translate(56.938477 -15.625) scale(0.7)"/>
     <use xlink:href="#DejaVuSans-Oblique-61" transform="translate(85.717773 -15.625) scale(0.7)"/>
     <use xlink:href="#DejaVuSans-Oblique-69" transform="translate(128.613281 -15.625) scale(0.7)"/>
     <use xlink:href="#DejaVuSans-Oblique-6e" transform="translate(148.061523 -15.625) scale(0.7)"/>
     <use xlink:href="#DejaVuSans-3d" transform="translate(214.643555 0.78125)"/>
     <use xlink:href="#DejaVuSans-30" transform="translate(317.915039 0.78125)"/>
    </g>
   </g>
  </g>
  <g id="axes_2">
   <g id="patch_7">
    <path d="M 161.04 158.546625 
L 301.92 158.546625 
L 301.92 30.116625 
L 161.04 30.116625 
z
" style="fill: #ffffff"/>
   </g>
   <g id="matplotlib.axis_3"/>
   <g id="matplotlib.axis_4"/>
   <g id="line2d_3">
    <path d="M 167.443636 15.28296 
L 198.369582 166.746625 
L 198.369582 166.746625 
" clip-path="url(#pcc0f125db8)" style="fill: none; stroke: #0e7490; stroke-width: 2"/>
   </g>
   <g id="line2d_4">
    <g clip-path="url(#pcc0f125db8)">
     <use xlink:href="#me3d5fb701e" x="184.960545" y="101.0742" style="fill: #c00000; stroke: #c00000; stroke-width: 2"/>
     <use xlink:href="#me3d5fb701e" x="186.219245" y="107.23884" style="fill: #c00000; stroke: #c00000; stroke-width: 2"/>
    </g>
   </g>
   <g id="patch_8">
    <path d="M 161.04 158.546625 
L 161.04 30.116625 
" style="fill: none; stroke: #f0f0f0; stroke-width: 3; stroke-linejoin: miter; stroke-linecap: square"/>
   </g>
   <g id="patch_9">
    <path d="M 301.92 158.546625 
L 301.92 30.116625 
" style="fill: none; stroke: #f0f0f0; stroke-width: 3; stroke-linejoin: miter; stroke-linecap: square"/>
   </g>
   <g id="patch_10">
    <path d="M 161.04 158.546625 
L 301.92 158.546625 
" style="fill: none; stroke: #f0f0f0; stroke-width: 3; stroke-linejoin: miter; stroke-linecap: square"/>
   </g>
   <g id="patch_11">
    <path d="M 161.04 30.116625 
L 301.92 30.116625 
" style="fill: none; stroke: #f0f0f0; stroke-width: 3; stroke-linejoin: miter; stroke-linecap: square"/>
   </g>
   <g id="text_2">
    <!-- $m=2$ -->
    <g style="fill: #808080" transform="translate(218.7 14.038594) scale(0.09 -0.09)">
     <defs>
      <path id="DejaVuSans-32" d="M 1228 531 
L 3431 531 
L 3431 0 
L 469 0 
L 469 531 
Q 828 903 1448 1529 
Q 2069 2156 2228 2338 
Q 2531 2678 2651 2914 
Q 2772 3150 2772 3378 
Q 2772 3750 2511 3984 
Q 2250 4219 1831 4219 
Q 1534 4219 1204 4116 
Q 875 4013 500 3803 
L 500 4441 
Q 881 4594 1212 4672 
Q 1544 4750 1819 4750 
Q 2544 4750 2975 4387 
Q 3406 4025 3406 3419 
Q 3406 3131 3298 2873 
Q 3191 2616 2906 2266 
Q 2828 2175 2409 1742 
Q 1991 1309 1228 531 
z
" transform="scale(0.015625)"/>
     </defs>
     <use xlink:href="#DejaVuSans-Oblique-6d" transform="translate(0 0.78125)"/>
     <use xlink:href="#DejaVuSans-3d" transform="translate(116.894531 0.78125)"/>
     <use xlink:href="#DejaVuSans-32" transform="translate(220.166016 0.78125)"/>
    </g>
    <!-- $J_{train}=0$ -->
    <g style="fill: #808080" transform="translate(214.29 24.116625) scale(0.09 -0.09)">
     <use xlink:href="#DejaVuSans-Oblique-4a" transform="translate(0 0.78125)"/>
     <use xlink:href="#DejaVuSans-Oblique-74" transform="translate(29.492188 -15.625) scale(0.7)"/>
     <use xlink:href="#DejaVuSans-Oblique-72" transform="translate(56.938477 -15.625) scale(0.7)"/>
     <use xlink:href="#DejaVuSans-Oblique-61" transform="translate(85.717773 -15.625) scale(0.7)"/>
     <use xlink:href="#DejaVuSans-Oblique-69" transform="translate(128.613281 -15.625) scale(0.7)"/>
     <use xlink:href="#DejaVuSans-Oblique-6e" transform="translate(148.061523 -15.625) scale(0.7)"/>
     <use xlink:href="#DejaVuSans-3d" transform="translate(214.643555 0.78125)"/>
     <use xlink:href="#DejaVuSans-30" transform="translate(317.915039 0.78125)"/>
    </g>
   </g>
  </g>
  <g id="axes_3">
   <g id="patch_12">
    <path d="M 314.88 158.546625 
L 455.76 158.546625 
L 455.76 30.116625 
L 314.88 30.116625 
z
" style="fill: #ffffff"/>
   </g>
   <g id="matplotlib.axis_5"/>
   <g id="matplotlib.axis_6"/>
   <g id="line2d_5">
    <path d="M 327.250867 166.746625 
L 358.65343 -1 
L 358.65343 -1 
" clip-path="url(#p98f069ea3d)" style="fill: none; stroke: #0e7490; stroke-width: 2"/>
   </g>
   <g id="line2d_6">
    <g clip-path="url(#p98f069ea3d)">
     <use xlink:href="#me3d5fb701e" x="338.800545" y="101.0742" style="fill: #c00000; stroke: #c00000; stroke-width: 2"/>
     <use xlink:href="#me3d5fb701e" x="340.059245" y="107.23884" style="fill: #c00000; stroke: #c00000; stroke-width: 2"/>
     <use xlink:href="#me3d5fb701e" x="341.073198" y="87.97434" style="fill: #c00000; stroke: #c00000; stroke-width: 2"/>
    </g>
   </g>
   <g id="patch_13">
    <path d="M 314.88 158.546625 
L 314.88 30.116625 
" style="fill: none; stroke: #f0f0f0; stroke-width: 3; stroke-linejoin: miter; stroke-linecap: square"/>
   </g>
   <g id="patch_14">
    <path d="M 455.76 158.546625 
L 455.76 30.116625 
" style="fill: none; stroke: #f0f0f0; stroke-width: 3; stroke-linejoin: miter; stroke-linecap: square"/>
   </g>
   <g id="patch_15">
    <path d="M 314.88 158.546625 
L 455.76 158.546625 
" style="fill: none; stroke: #f0f0f0; stroke-width: 3; stroke-linejoin: miter; stroke-linecap: square"/>
   </g>
   <g id="patch_16">
    <path d="M 314.88 30.116625 
L 455.76 30.116625 
" style="fill: none; stroke: #f0f0f0; stroke-width: 3; stroke-linejoin: miter; stroke-linecap: square"/>
   </g>
   <g id="text_3">
    <!-- $m=3$ -->
    <g style="fill: #808080" transform="translate(372.54 14.038594) scale(0.09 -0.09)">
     <defs>
      <path id="DejaVuSans-33" d="M 2597 2516 
Q 3050 2419 3304 2112 
Q 3559 1806 3559 1356 
Q 3559 666 3084 287 
Q 2609 -91 1734 -91 
Q 1441 -91 1130 -33 
Q 819 25 488 141 
L 488 750 
Q 750 597 1062 519 
Q 1375 441 1716 441 
Q 2309 441 2620 675 
Q 2931 909 2931 1356 
Q 2931 1769 2642 2001 
Q 2353 2234 1838 2234 
L 1294 2234 
L 1294 2753 
L 1863 2753 
Q 2328 2753 2575 2939 
Q 2822 3125 2822 3475 
Q 2822 3834 2567 4026 
Q 2313 4219 1838 4219 
Q 1578 4219 1281 4162 
Q 984 4106 628 3988 
L 628 4550 
Q 988 4650 1302 4700 
Q 1616 4750 1894 4750 
Q 2613 4750 3031 4423 
Q 3450 4097 3450 3541 
Q 3450 3153 3228 2886 
Q 3006 2619 2597 2516 
z
" transform="scale(0.015625)"/>
     </defs>
     <use xlink:href="#DejaVuSans-Oblique-6d" transform="translate(0 0.78125)"/>
     <use xlink:href="#DejaVuSans-3d" transform="translate(116.894531 0.78125)"/>
     <use xlink:href="#DejaVuSans-33" transform="translate(220.166016 0.78125)"/>
    </g>
    <!-- $J_{train}=48$ -->
    <g style="fill: #808080" transform="translate(365.25 24.116625) scale(0.09 -0.09)">
     <defs>
      <path id="DejaVuSans-34" d="M 2419 4116 
L 825 1625 
L 2419 1625 
L 2419 4116 
z
M 2253 4666 
L 3047 4666 
L 3047 1625 
L 3713 1625 
L 3713 1100 
L 3047 1100 
L 3047 0 
L 2419 0 
L 2419 1100 
L 313 1100 
L 313 1709 
L 2253 4666 
z
" transform="scale(0.015625)"/>
      <path id="DejaVuSans-38" d="M 2034 2216 
Q 1584 2216 1326 1975 
Q 1069 1734 1069 1313 
Q 1069 891 1326 650 
Q 1584 409 2034 409 
Q 2484 409 2743 651 
Q 3003 894 3003 1313 
Q 3003 1734 2745 1975 
Q 2488 2216 2034 2216 
z
M 1403 2484 
Q 997 2584 770 2862 
Q 544 3141 544 3541 
Q 544 4100 942 4425 
Q 1341 4750 2034 4750 
Q 2731 4750 3128 4425 
Q 3525 4100 3525 3541 
Q 3525 3141 3298 2862 
Q 3072 2584 2669 2484 
Q 3125 2378 3379 2068 
Q 3634 1759 3634 1313 
Q 3634 634 3220 271 
Q 2806 -91 2034 -91 
Q 1263 -91 848 271 
Q 434 634 434 1313 
Q 434 1759 690 2068 
Q 947 2378 1403 2484 
z
M 1172 3481 
Q 1172 3119 1398 2916 
Q 1625 2713 2034 2713 
Q 2441 2713 2670 2916 
Q 2900 3119 2900 3481 
Q 2900 3844 2670 4047 
Q 2441 4250 2034 4250 
Q 1625 4250 1398 4047 
Q 1172 3844 1172 3481 
z
" transform="scale(0.015625)"/>
     </defs>
     <use xlink:href="#DejaVuSans-Oblique-4a" transform="translate(0 0.78125)"/>
     <use xlink:href="#DejaVuSans-Oblique-74" transform="translate(29.492188 -15.625) scale(0.7)"/>
     <use xlink:href="#DejaVuSans-Oblique-72" transform="translate(56.938477 -15.625) scale(0.7)"/>
     <use xlink:href="#DejaVuSans-Oblique-61" transform="translate(85.717773 -15.625) scale(0.7)"/>
     <use xlink:href="#DejaVuSans-Oblique-69" transform="translate(128.613281 -15.625) scale(0.7)"/>
     <use xlink:href="#DejaVuSans-Oblique-6e" transform="translate(148.061523 -15.625) scale(0.7)"/>
     <use xlink:href="#DejaVuSans-3d" transform="translate(214.643555 0.78125)"/>
     <use xlink:href="#DejaVuSans-34" transform="translate(317.915039 0.78125)"/>
     <use xlink:href="#DejaVuSans-38" transform="translate(381.538086 0.78125)"/>
    </g>
   </g>
  </g>
  <g id="axes_4">
   <g id="patch_17">
    <path d="M 468.72 158.546625 
L 609.6 158.546625 
L 609.6 30.116625 
L 468.72 30.116625 
z
" style="fill: #ffffff"/>
   </g>
   <g id="matplotlib.axis_7"/>
   <g id="matplotlib.axis_8"/>
   <g id="line2d_7">
    <path d="M 475.123636 88.119666 
L 603.196364 166.656157 
L 603.196364 166.656157 
" clip-path="url(#p529fdb55aa)" style="fill: none; stroke: #0e7490; stroke-width: 2"/>
   </g>
   <g id="line2d_8">
    <g clip-path="url(#p529fdb55aa)">
     <use xlink:href="#me3d5fb701e" x="492.640545" y="101.0742" style="fill: #c00000; stroke: #c00000; stroke-width: 2"/>
     <use xlink:href="#me3d5fb701e" x="493.899245" y="107.23884" style="fill: #c00000; stroke: #c00000; stroke-width: 2"/>
     <use xlink:href="#me3d5fb701e" x="494.913198" y="87.97434" style="fill: #c00000; stroke: #c00000; stroke-width: 2"/>
     <use xlink:href="#me3d5fb701e" x="500.087853" y="105.890325" style="fill: #c00000; stroke: #c00000; stroke-width: 2"/>
    </g>
   </g>
   <g id="patch_18">
    <path d="M 468.72 158.546625 
L 468.72 30.116625 
" style="fill: none; stroke: #f0f0f0; stroke-width: 3; stroke-linejoin: miter; stroke-linecap: square"/>
   </g>
   <g id="patch_19">
    <path d="M 609.6 158.546625 
L 609.6 30.116625 
" style="fill: none; stroke: #f0f0f0; stroke-width: 3; stroke-linejoin: miter; stroke-linecap: square"/>
   </g>
   <g id="patch_20">
    <path d="M 468.72 158.546625 
L 609.6 158.546625 
" style="fill: none; stroke: #f0f0f0; stroke-width: 3; stroke-linejoin: miter; stroke-linecap: square"/>
   </g>
   <g id="patch_21">
    <path d="M 468.72 30.116625 
L 609.6 30.116625 
" style="fill: none; stroke: #f0f0f0; stroke-width: 3; stroke-linejoin: miter; stroke-linecap: square"/>
   </g>
   <g id="text_4">
    <!-- $m=4$ -->
    <g style="fill: #808080" transform="translate(526.38 14.038594) scale(0.09 -0.09)">
     <use xlink:href="#DejaVuSans-Oblique-6d" transform="translate(0 0.09375)"/>
     <use xlink:href="#DejaVuSans-3d" transform="translate(116.894531 0.09375)"/>
     <use xlink:href="#DejaVuSans-34" transform="translate(220.166016 0.09375)"/>
    </g>
    <!-- $J_{train}=67$ -->
    <g style="fill: #808080" transform="translate(519.09 24.116625) scale(0.09 -0.09)">
     <defs>
      <path id="DejaVuSans-36" d="M 2113 2584 
Q 1688 2584 1439 2293 
Q 1191 2003 1191 1497 
Q 1191 994 1439 701 
Q 1688 409 2113 409 
Q 2538 409 2786 701 
Q 3034 994 3034 1497 
Q 3034 2003 2786 2293 
Q 2538 2584 2113 2584 
z
M 3366 4563 
L 3366 3988 
Q 3128 4100 2886 4159 
Q 2644 4219 2406 4219 
Q 1781 4219 1451 3797 
Q 1122 3375 1075 2522 
Q 1259 2794 1537 2939 
Q 1816 3084 2150 3084 
Q 2853 3084 3261 2657 
Q 3669 2231 3669 1497 
Q 3669 778 3244 343 
Q 2819 -91 2113 -91 
Q 1303 -91 875 529 
Q 447 1150 447 2328 
Q 447 3434 972 4092 
Q 1497 4750 2381 4750 
Q 2619 4750 2861 4703 
Q 3103 4656 3366 4563 
z
" transform="scale(0.015625)"/>
      <path id="DejaVuSans-37" d="M 525 4666 
L 3525 4666 
L 3525 4397 
L 1831 0 
L 1172 0 
L 2766 4134 
L 525 4134 
L 525 4666 
z
" transform="scale(0.015625)"/>
     </defs>
     <use xlink:href="#DejaVuSans-Oblique-4a" transform="translate(0 0.78125)"/>
     <use xlink:href="#DejaVuSans-Oblique-74" transform="translate(29.492188 -15.625) scale(0.7)"/>
     <use xlink:href="#DejaVuSans-Oblique-72" transform="translate(56.938477 -15.625) scale(0.7)"/>
     <use xlink:href="#DejaVuSans-Oblique-61" transform="translate(85.717773 -15.625) scale(0.7)"/>
     <use xlink:href="#DejaVuSans-Oblique-69" transform="translate(128.613281 -15.625) scale(0.7)"/>
     <use xlink:href="#DejaVuSans-Oblique-6e" transform="translate(148.061523 -15.625) scale(0.7)"/>
     <use xlink:href="#DejaVuSans-3d" transform="translate(214.643555 0.78125)"/>
     <use xlink:href="#DejaVuSans-36" transform="translate(317.915039 0.78125)"/>
     <use xlink:href="#DejaVuSans-37" transform="translate(381.538086 0.78125)"/>
    </g>
   </g>
  </g>
  <g id="axes_5">
   <g id="patch_22">
    <path d="M 622.56 158.546625 
L 763.44 158.546625 
L 763.44 30.116625 
L 622.56 30.116625 
z
" style="fill: #ffffff"/>
   </g>
   <g id="matplotlib.axis_9"/>
   <g id="matplotlib.axis_10"/>
   <g id="line2d_9">
    <path d="M 628.963636 128.663295 
L 720.242438 -1 
L 720.242438 -1 
" clip-path="url(#p6564276359)" style="fill: none; stroke: #0e7490; stroke-width: 2"/>
   </g>
   <g id="line2d_10">
    <g clip-path="url(#p6564276359)">
     <use xlink:href="#me3d5fb701e" x="646.480545" y="101.0742" style="fill: #c00000; stroke: #c00000; stroke-width: 2"/>
     <use xlink:href="#me3d5fb701e" x="647.739245" y="107.23884" style="fill: #c00000; stroke: #c00000; stroke-width: 2"/>
     <use xlink:href="#me3d5fb701e" x="648.753198" y="87.97434" style="fill: #c00000; stroke: #c00000; stroke-width: 2"/>
     <use xlink:href="#me3d5fb701e" x="653.927853" y="105.890325" style="fill: #c00000; stroke: #c00000; stroke-width: 2"/>
     <use xlink:href="#me3d5fb701e" x="673.822307" y="62.28834" style="fill: #c00000; stroke: #c00000; stroke-width: 2"/>
    </g>
   </g>
   <g id="patch_23">
    <path d="M 622.56 158.546625 
L 622.56 30.116625 
" style="fill: none; stroke: #f0f0f0; stroke-width: 3; stroke-linejoin: miter; stroke-linecap: square"/>
   </g>
   <g id="patch_24">
    <path d="M 763.44 158.546625 
L 763.44 30.116625 
" style="fill: none; stroke: #f0f0f0; stroke-width: 3; stroke-linejoin: miter; stroke-linecap: square"/>
   </g>
   <g id="patch_25">
    <path d="M 622.56 158.546625 
L 763.44 158.546625 
" style="fill: none; stroke: #f0f0f0; stroke-width: 3; stroke-linejoin: miter; stroke-linecap: square"/>
   </g>
   <g id="patch_26">
    <path d="M 622.56 30.116625 
L 763.44 30.116625 
" style="fill: none; stroke: #f0f0f0; stroke-width: 3; stroke-linejoin: miter; stroke-linecap: square"/>
   </g>
   <g id="text_5">
    <!-- $m=5$ -->
    <g style="fill: #808080" transform="translate(680.22 14.038594) scale(0.09 -0.09)">
     <defs>
      <path id="DejaVuSans-35" d="M 691 4666 
L 3169 4666 
L 3169 4134 
L 1269 4134 
L 1269 2991 
Q 1406 3038 1543 3061 
Q 1681 3084 1819 3084 
Q 2600 3084 3056 2656 
Q 3513 2228 3513 1497 
Q 3513 744 3044 326 
Q 2575 -91 1722 -91 
Q 1428 -91 1123 -41 
Q 819 9 494 109 
L 494 744 
Q 775 591 1075 516 
Q 1375 441 1709 441 
Q 2250 441 2565 725 
Q 2881 1009 2881 1497 
Q 2881 1984 2565 2268 
Q 2250 2553 1709 2553 
Q 1456 2553 1204 2497 
Q 953 2441 691 2322 
L 691 4666 
z
" transform="scale(0.015625)"/>
     </defs>
     <use xlink:href="#DejaVuSans-Oblique-6d" transform="translate(0 0.09375)"/>
     <use xlink:href="#DejaVuSans-3d" transform="translate(116.894531 0.09375)"/>
     <use xlink:href="#DejaVuSans-35" transform="translate(220.166016 0.09375)"/>
    </g>
    <!-- $J_{train}=88$ -->
    <g style="fill: #808080" transform="translate(672.93 24.116625) scale(0.09 -0.09)">
     <use xlink:href="#DejaVuSans-Oblique-4a" transform="translate(0 0.78125)"/>
     <use xlink:href="#DejaVuSans-Oblique-74" transform="translate(29.492188 -15.625) scale(0.7)"/>
     <use xlink:href="#DejaVuSans-Oblique-72" transform="translate(56.938477 -15.625) scale(0.7)"/>
     <use xlink:href="#DejaVuSans-Oblique-61" transform="translate(85.717773 -15.625) scale(0.7)"/>
     <use xlink:href="#DejaVuSans-Oblique-69" transform="translate(128.613281 -15.625) scale(0.7)"/>
     <use xlink:href="#DejaVuSans-Oblique-6e" transform="translate(148.061523 -15.625) scale(0.7)"/>
     <use xlink:href="#DejaVuSans-3d" transform="translate(214.643555 0.78125)"/>
     <use xlink:href="#DejaVuSans-38" transform="translate(317.915039 0.78125)"/>
     <use xlink:href="#DejaVuSans-38" transform="translate(381.538086 0.78125)"/>
    </g>
   </g>
  </g>
  <g id="axes_6">
   <g id="patch_27">
    <path d="M 776.4 158.546625 
L 917.28 158.546625 
L 917.28 30.116625 
L 776.4 30.116625 
z
" style="fill: #ffffff"/>
   </g>
   <g id="matplotlib.axis_11"/>
   <g id="matplotlib.axis_12"/>
   <g id="line2d_11">
    <path d="M 782.803636 122.527491 
L 892.026709 -1 
L 892.026709 -1 
" clip-path="url(#pcff0d16cc8)" style="fill: none; stroke: #0e7490; stroke-width: 2"/>
   </g>
   <g id="line2d_12">
    <g clip-path="url(#pcff0d16cc8)">
     <use xlink:href="#me3d5fb701e" x="800.320545" y="101.0742" style="fill: #c00000; stroke: #c00000; stroke-width: 2"/>
     <use xlink:href="#me3d5fb701e" x="801.579245" y="107.23884" style="fill: #c00000; stroke: #c00000; stroke-width: 2"/>
     <use xlink:href="#me3d5fb701e" x="802.593198" y="87.97434" style="fill: #c00000; stroke: #c00000; stroke-width: 2"/>
     <use xlink:href="#me3d5fb701e" x="807.767853" y="105.890325" style="fill: #c00000; stroke: #c00000; stroke-width: 2"/>
     <use xlink:href="#me3d5fb701e" x="827.662307" y="62.28834" style="fill: #c00000; stroke: #c00000; stroke-width: 2"/>
     <use xlink:href="#me3d5fb701e" x="833.850915" y="70.572075" style="fill: #c00000; stroke: #c00000; stroke-width: 2"/>
    </g>
   </g>
   <g id="patch_28">
    <path d="M 776.4 158.546625 
L 776.4 30.116625 
" style="fill: none; stroke: #f0f0f0; stroke-width: 3; stroke-linejoin: miter; stroke-linecap: square"/>
   </g>
   <g id="patch_29">
    <path d="M 917.28 158.546625 
L 917.28 30.116625 
" style="fill: none; stroke: #f0f0f0; stroke-width: 3; stroke-linejoin: miter; stroke-linecap: square"/>
   </g>
   <g id="patch_30">
    <path d="M 776.4 158.546625 
L 917.28 158.546625 
" style="fill: none; stroke: #f0f0f0; stroke-width: 3; stroke-linejoin: miter; stroke-linecap: square"/>
   </g>
   <g id="patch_31">
    <path d="M 776.4 30.116625 
L 917.28 30.116625 
" style="fill: none; stroke: #f0f0f0; stroke-width: 3; stroke-linejoin: miter; stroke-linecap: square"/>
   </g>
   <g id="text_6">
    <!-- $m=6$ -->
    <g style="fill: #808080" transform="translate(834.06 14.038594) scale(0.09 -0.09)">
     <use xlink:href="#DejaVuSans-Oblique-6d" transform="translate(0 0.78125)"/>
     <use xlink:href="#DejaVuSans-3d" transform="translate(116.894531 0.78125)"/>
     <use xlink:href="#DejaVuSans-36" transform="translate(220.166016 0.78125)"/>
    </g>
    <!-- $J_{train}=90$ -->
    <g style="fill: #808080" transform="translate(826.77 24.116625) scale(0.09 -0.09)">
     <defs>
      <path id="DejaVuSans-39" d="M 703 97 
L 703 672 
Q 941 559 1184 500 
Q 1428 441 1663 441 
Q 2288 441 2617 861 
Q 2947 1281 2994 2138 
Q 2813 1869 2534 1725 
Q 2256 1581 1919 1581 
Q 1219 1581 811 2004 
Q 403 2428 403 3163 
Q 403 3881 828 4315 
Q 1253 4750 1959 4750 
Q 2769 4750 3195 4129 
Q 3622 3509 3622 2328 
Q 3622 1225 3098 567 
Q 2575 -91 1691 -91 
Q 1453 -91 1209 -44 
Q 966 3 703 97 
z
M 1959 2075 
Q 2384 2075 2632 2365 
Q 2881 2656 2881 3163 
Q 2881 3666 2632 3958 
Q 2384 4250 1959 4250 
Q 1534 4250 1286 3958 
Q 1038 3666 1038 3163 
Q 1038 2656 1286 2365 
Q 1534 2075 1959 2075 
z
" transform="scale(0.015625)"/>
     </defs>
     <use xlink:href="#DejaVuSans-Oblique-4a" transform="translate(0 0.78125)"/>
     <use xlink:href="#DejaVuSans-Oblique-74" transform="translate(29.492188 -15.625) scale(0.7)"/>
     <use xlink:href="#DejaVuSans-Oblique-72" transform="translate(56.938477 -15.625) scale(0.7)"/>
     <use xlink:href="#DejaVuSans-Oblique-61" transform="translate(85.717773 -15.625) scale(0.7)"/>
     <use xlink:href="#DejaVuSans-Oblique-69" transform="translate(128.613281 -15.625) scale(0.7)"/>
     <use xlink:href="#DejaVuSans-Oblique-6e" transform="translate(148.061523 -15.625) scale(0.7)"/>
     <use xlink:href="#DejaVuSans-3d" transform="translate(214.643555 0.78125)"/>
     <use xlink:href="#DejaVuSans-39" transform="translate(317.915039 0.78125)"/>
     <use xlink:href="#DejaVuSans-30" transform="translate(381.538086 0.78125)"/>
    </g>
   </g>
  </g>
 </g>
 <defs>
  <clipPath id="p6e9c5779a0">
   <rect x="7.2" y="30.116625" width="140.88" height="128.43"/>
  </clipPath>
  <clipPath id="pcc0f125db8">
   <rect x="161.04" y="30.116625" width="140.88" height="128.43"/>
  </clipPath>
  <clipPath id="p98f069ea3d">
   <rect x="314.88" y="30.116625" width="140.88" height="128.43"/>
  </clipPath>
  <clipPath id="p529fdb55aa">
   <rect x="468.72" y="30.116625" width="140.88" height="128.43"/>
  </clipPath>
  <clipPath id="p6564276359">
   <rect x="622.56" y="30.116625" width="140.88" height="128.43"/>
  </clipPath>
  <clipPath id="pcff0d16cc8">
   <rect x="776.4" y="30.116625" width="140.88" height="128.43"/>
  </clipPath>
 </defs>
</svg>
