<?xml version="1.0" encoding="utf-8" standalone="no"?>
<!DOCTYPE svg PUBLIC "-//W3C//DTD SVG 1.1//EN"
  "http://www.w3.org/Graphics/SVG/1.1/DTD/svg11.dtd">
<svg xmlns:xlink="http://www.w3.org/1999/xlink" width="352.207886pt" height="354.135227pt" viewBox="0 0 352.207886 354.135227" xmlns="http://www.w3.org/2000/svg" version="1.1">
 <metadata>
  <rdf:RDF xmlns:dc="http://purl.org/dc/elements/1.1/" xmlns:cc="http://creativecommons.org/ns#" xmlns:rdf="http://www.w3.org/1999/02/22-rdf-syntax-ns#">
   <cc:Work>
    <dc:type rdf:resource="http://purl.org/dc/dcmitype/StillImage"/>
    <dc:date>2026-05-04T15:52:41.068923</dc:date>
    <dc:format>image/svg+xml</dc:format>
    <dc:creator>
     <cc:Agent>
      <dc:title>Matplotlib v3.10.8, https://matplotlib.org/</dc:title>
     </cc:Agent>
    </dc:creator>
   </cc:Work>
  </rdf:RDF>
 </metadata>
 <defs>
  <style type="text/css">*{stroke-linejoin: round; stroke-linecap: butt}</style>
 </defs>
 <g id="figure_1">
  <g id="patch_1">
   <path d="M 0 354.135227 
L 352.207886 354.135227 
L 352.207886 0 
L 0 0 
z
" style="fill: #ffffff"/>
  </g>
  <g id="patch_2">
   <path d="M 7.2 344.968125 
L 329.85 344.968125 
L 329.85 22.318125 
L 7.2 22.318125 
z
" style="fill: #ffffff"/>
  </g>
  <g id="pane3d_1">
   <g id="patch_3">
    <path d="M 31.5623 265.412975 
L 138.111867 176.101015 
L 136.630726 47.297203 
L 24.982213 128.773203 
" style="fill: #f2f2f2; opacity: 0.5; stroke: #f2f2f2; stroke-linejoin: miter"/>
   </g>
  </g>
  <g id="pane3d_2">
   <g id="patch_4">
    <path d="M 138.111867 176.101015 
L 309.085906 225.796418 
L 315.187366 92.556106 
L 136.630726 47.297203 
" style="fill: #e6e6e6; opacity: 0.5; stroke: #e6e6e6; stroke-linejoin: miter"/>
   </g>
  </g>
  <g id="pane3d_3">
   <g id="patch_5">
    <path d="M 31.5623 265.412975 
L 212.803132 324.60623 
L 309.085906 225.796418 
L 138.111867 176.101015 
" style="fill: #ececec; opacity: 0.5; stroke: #ececec; stroke-linejoin: miter"/>
   </g>
  </g>
  <g id="grid3d_1">
   <g id="Line3DCollection_1">
    <path d="M 42.539196 268.998029 
L 148.509985 179.123337 
L 147.468484 50.044259 
" style="fill: none; stroke: #b0b0b0; stroke-width: 0.8"/>
    <path d="M 61.5252 275.198858 
L 166.481768 184.347025 
L 166.206685 54.793846 
" style="fill: none; stroke: #b0b0b0; stroke-width: 0.8"/>
    <path d="M 80.727133 281.470209 
L 184.64102 189.625203 
L 185.148791 59.595118 
" style="fill: none; stroke: #b0b0b0; stroke-width: 0.8"/>
    <path d="M 100.148699 287.813293 
L 202.990688 194.958727 
L 204.298149 64.448922 
" style="fill: none; stroke: #b0b0b0; stroke-width: 0.8"/>
    <path d="M 119.793687 294.229346 
L 221.533784 200.348473 
L 223.658179 69.356125 
" style="fill: none; stroke: #b0b0b0; stroke-width: 0.8"/>
    <path d="M 139.665977 300.719636 
L 240.273382 205.795334 
L 243.232377 74.317614 
" style="fill: none; stroke: #b0b0b0; stroke-width: 0.8"/>
    <path d="M 159.769535 307.285458 
L 259.212622 211.300223 
L 263.024316 79.334293 
" style="fill: none; stroke: #b0b0b0; stroke-width: 0.8"/>
    <path d="M 180.108423 313.928139 
L 278.354712 216.864073 
L 283.037649 84.40709 
" style="fill: none; stroke: #b0b0b0; stroke-width: 0.8"/>
    <path d="M 200.686797 320.649035 
L 297.702928 222.487836 
L 303.276114 89.536951 
" style="fill: none; stroke: #b0b0b0; stroke-width: 0.8"/>
   </g>
  </g>
  <g id="grid3d_2">
   <g id="Line3DCollection_2">
    <path d="M 32.702984 123.138935 
L 38.904466 259.258626 
L 219.465154 317.769356 
" style="fill: none; stroke: #b0b0b0; stroke-width: 0.8"/>
    <path d="M 45.729073 113.633089 
L 51.30052 248.868007 
L 230.703686 306.235858 
" style="fill: none; stroke: #b0b0b0; stroke-width: 0.8"/>
    <path d="M 58.497273 104.315438 
L 63.461811 238.674172 
L 241.718146 294.932312 
" style="fill: none; stroke: #b0b0b0; stroke-width: 0.8"/>
    <path d="M 71.015168 95.180448 
L 75.394945 228.671583 
L 252.515171 283.851909 
" style="fill: none; stroke: #b0b0b0; stroke-width: 0.8"/>
    <path d="M 83.290048 86.2228 
L 87.106283 218.854907 
L 263.101135 272.988105 
" style="fill: none; stroke: #b0b0b0; stroke-width: 0.8"/>
    <path d="M 95.32892 77.43738 
L 98.601951 209.21901 
L 273.482167 262.334613 
" style="fill: none; stroke: #b0b0b0; stroke-width: 0.8"/>
    <path d="M 107.138527 68.819267 
L 109.887853 199.758943 
L 283.664161 251.885381 
" style="fill: none; stroke: #b0b0b0; stroke-width: 0.8"/>
    <path d="M 118.725355 60.363727 
L 120.969678 190.469938 
L 293.652788 241.634593 
" style="fill: none; stroke: #b0b0b0; stroke-width: 0.8"/>
    <path d="M 130.09565 52.066204 
L 131.852913 181.347395 
L 303.453503 231.576649 
" style="fill: none; stroke: #b0b0b0; stroke-width: 0.8"/>
   </g>
  </g>
  <g id="grid3d_3">
   <g id="Line3DCollection_3">
    <path d="M 309.245361 222.314326 
L 138.07308 172.727939 
L 31.390619 261.847901 
" style="fill: none; stroke: #b0b0b0; stroke-width: 0.8"/>
    <path d="M 309.922752 207.521828 
L 137.908351 158.40271 
L 30.66112 246.69938 
" style="fill: none; stroke: #b0b0b0; stroke-width: 0.8"/>
    <path d="M 310.606907 192.581627 
L 137.742056 143.941263 
L 29.924059 231.393848 
" style="fill: none; stroke: #b0b0b0; stroke-width: 0.8"/>
    <path d="M 311.297928 177.491502 
L 137.574172 129.341648 
L 29.17932 215.928851 
" style="fill: none; stroke: #b0b0b0; stroke-width: 0.8"/>
    <path d="M 311.995918 162.249183 
L 137.404676 114.601874 
L 28.426781 200.301884 
" style="fill: none; stroke: #b0b0b0; stroke-width: 0.8"/>
    <path d="M 312.700984 146.852356 
L 137.233546 99.719913 
L 27.666318 184.510389 
" style="fill: none; stroke: #b0b0b0; stroke-width: 0.8"/>
    <path d="M 313.413232 131.29866 
L 137.060756 84.693697 
L 26.897807 168.551754 
" style="fill: none; stroke: #b0b0b0; stroke-width: 0.8"/>
    <path d="M 314.132775 115.585687 
L 136.886284 69.52112 
L 26.121118 152.423311 
" style="fill: none; stroke: #b0b0b0; stroke-width: 0.8"/>
    <path d="M 314.859724 99.710975 
L 136.710103 54.200032 
L 25.336121 136.122335 
" style="fill: none; stroke: #b0b0b0; stroke-width: 0.8"/>
   </g>
  </g>
  <g id="axis3d_1">
   <g id="line2d_1">
    <path d="M 31.5623 265.412975 
L 212.803132 324.60623 
" style="fill: none; stroke: #000000; stroke-width: 0.8; stroke-linecap: square"/>
   </g>
   <g id="xtick_1">
    <g id="line2d_2">
     <path d="M 43.461984 268.215406 
L 40.689661 270.566635 
" style="fill: none; stroke: #000000; stroke-width: 0.8; stroke-linecap: square"/>
    </g>
    <g id="text_1">
     <!-- −0.50 -->
     <g transform="translate(19.692391 292.296951) scale(0.1 -0.1)">
      <defs>
       <path id="DejaVuSans-2212" d="M 678 2272 
L 4684 2272 
L 4684 1741 
L 678 1741 
L 678 2272 
z
" transform="scale(0.015625)"/>
       <path id="DejaVuSans-30" d="M 2034 4250 
Q 1547 4250 1301 3770 
Q 1056 3291 1056 2328 
Q 1056 1369 1301 889 
Q 1547 409 2034 409 
Q 2525 409 2770 889 
Q 3016 1369 3016 2328 
Q 3016 3291 2770 3770 
Q 2525 4250 2034 4250 
z
M 2034 4750 
Q 2819 4750 3233 4129 
Q 3647 3509 3647 2328 
Q 3647 1150 3233 529 
Q 2819 -91 2034 -91 
Q 1250 -91 836 529 
Q 422 1150 422 2328 
Q 422 3509 836 4129 
Q 1250 4750 2034 4750 
z
" transform="scale(0.015625)"/>
       <path id="DejaVuSans-2e" d="M 684 794 
L 1344 794 
L 1344 0 
L 684 0 
L 684 794 
z
" transform="scale(0.015625)"/>
       <path id="DejaVuSans-35" d="M 691 4666 
L 3169 4666 
L 3169 4134 
L 1269 4134 
L 1269 2991 
Q 1406 3038 1543 3061 
Q 1681 3084 1819 3084 
Q 2600 3084 3056 2656 
Q 3513 2228 3513 1497 
Q 3513 744 3044 326 
Q 2575 -91 1722 -91 
Q 1428 -91 1123 -41 
Q 819 9 494 109 
L 494 744 
Q 775 591 1075 516 
Q 1375 441 1709 441 
Q 2250 441 2565 725 
Q 2881 1009 2881 1497 
Q 2881 1984 2565 2268 
Q 2250 2553 1709 2553 
Q 1456 2553 1204 2497 
Q 953 2441 691 2322 
L 691 4666 
z
" transform="scale(0.015625)"/>
      </defs>
      <use xlink:href="#DejaVuSans-2212"/>
      <use xlink:href="#DejaVuSans-30" transform="translate(83.789062 0)"/>
      <use xlink:href="#DejaVuSans-2e" transform="translate(147.412109 0)"/>
      <use xlink:href="#DejaVuSans-35" transform="translate(179.199219 0)"/>
      <use xlink:href="#DejaVuSans-30" transform="translate(242.822266 0)"/>
     </g>
    </g>
   </g>
   <g id="xtick_2">
    <g id="line2d_3">
     <path d="M 62.439576 274.407362 
L 59.692503 276.785266 
" style="fill: none; stroke: #000000; stroke-width: 0.8; stroke-linecap: square"/>
    </g>
    <g id="text_2">
     <!-- −0.25 -->
     <g transform="translate(38.694221 298.605937) scale(0.1 -0.1)">
      <defs>
       <path id="DejaVuSans-32" d="M 1228 531 
L 3431 531 
L 3431 0 
L 469 0 
L 469 531 
Q 828 903 1448 1529 
Q 2069 2156 2228 2338 
Q 2531 2678 2651 2914 
Q 2772 3150 2772 3378 
Q 2772 3750 2511 3984 
Q 2250 4219 1831 4219 
Q 1534 4219 1204 4116 
Q 875 4013 500 3803 
L 500 4441 
Q 881 4594 1212 4672 
Q 1544 4750 1819 4750 
Q 2544 4750 2975 4387 
Q 3406 4025 3406 3419 
Q 3406 3131 3298 2873 
Q 3191 2616 2906 2266 
Q 2828 2175 2409 1742 
Q 1991 1309 1228 531 
z
" transform="scale(0.015625)"/>
      </defs>
      <use xlink:href="#DejaVuSans-2212"/>
      <use xlink:href="#DejaVuSans-30" transform="translate(83.789062 0)"/>
      <use xlink:href="#DejaVuSans-2e" transform="translate(147.412109 0)"/>
      <use xlink:href="#DejaVuSans-32" transform="translate(179.199219 0)"/>
      <use xlink:href="#DejaVuSans-35" transform="translate(242.822266 0)"/>
     </g>
    </g>
   </g>
   <g id="xtick_3">
    <g id="line2d_4">
     <path d="M 81.632845 280.669689 
L 78.911777 283.074724 
" style="fill: none; stroke: #000000; stroke-width: 0.8; stroke-linecap: square"/>
    </g>
    <g id="text_3">
     <!-- 0.00 -->
     <g transform="translate(62.102673 304.986896) scale(0.1 -0.1)">
      <use xlink:href="#DejaVuSans-30"/>
      <use xlink:href="#DejaVuSans-2e" transform="translate(63.623047 0)"/>
      <use xlink:href="#DejaVuSans-30" transform="translate(95.410156 0)"/>
      <use xlink:href="#DejaVuSans-30" transform="translate(159.033203 0)"/>
     </g>
    </g>
   </g>
   <g id="xtick_4">
    <g id="line2d_5">
     <path d="M 101.045489 287.003593 
L 98.351203 289.436226 
" style="fill: none; stroke: #000000; stroke-width: 0.8; stroke-linecap: square"/>
    </g>
    <g id="text_4">
     <!-- 0.25 -->
     <g transform="translate(81.541789 311.441069) scale(0.1 -0.1)">
      <use xlink:href="#DejaVuSans-30"/>
      <use xlink:href="#DejaVuSans-2e" transform="translate(63.623047 0)"/>
      <use xlink:href="#DejaVuSans-32" transform="translate(95.410156 0)"/>
      <use xlink:href="#DejaVuSans-35" transform="translate(159.033203 0)"/>
     </g>
    </g>
   </g>
   <g id="xtick_5">
    <g id="line2d_6">
     <path d="M 120.68129 293.410309 
L 118.014585 295.871016 
" style="fill: none; stroke: #000000; stroke-width: 0.8; stroke-linecap: square"/>
    </g>
    <g id="text_5">
     <!-- 0.50 -->
     <g transform="translate(101.205232 317.969723) scale(0.1 -0.1)">
      <use xlink:href="#DejaVuSans-30"/>
      <use xlink:href="#DejaVuSans-2e" transform="translate(63.623047 0)"/>
      <use xlink:href="#DejaVuSans-35" transform="translate(95.410156 0)"/>
      <use xlink:href="#DejaVuSans-30" transform="translate(159.033203 0)"/>
     </g>
    </g>
   </g>
   <g id="xtick_6">
    <g id="line2d_7">
     <path d="M 140.544119 299.891098 
L 137.905815 302.38037 
" style="fill: none; stroke: #000000; stroke-width: 0.8; stroke-linecap: square"/>
    </g>
    <g id="text_6">
     <!-- 0.75 -->
     <g transform="translate(121.096907 324.574154) scale(0.1 -0.1)">
      <defs>
       <path id="DejaVuSans-37" d="M 525 4666 
L 3525 4666 
L 3525 4397 
L 1831 0 
L 1172 0 
L 2766 4134 
L 525 4134 
L 525 4666 
z
" transform="scale(0.015625)"/>
      </defs>
      <use xlink:href="#DejaVuSans-30"/>
      <use xlink:href="#DejaVuSans-2e" transform="translate(63.623047 0)"/>
      <use xlink:href="#DejaVuSans-37" transform="translate(95.410156 0)"/>
      <use xlink:href="#DejaVuSans-35" transform="translate(159.033203 0)"/>
     </g>
    </g>
   </g>
   <g id="xtick_7">
    <g id="line2d_8">
     <path d="M 160.637936 306.447253 
L 158.028877 308.96559 
" style="fill: none; stroke: #000000; stroke-width: 0.8; stroke-linecap: square"/>
    </g>
    <g id="text_7">
     <!-- 1.00 -->
     <g transform="translate(141.22081 331.25569) scale(0.1 -0.1)">
      <defs>
       <path id="DejaVuSans-31" d="M 794 531 
L 1825 531 
L 1825 4091 
L 703 3866 
L 703 4441 
L 1819 4666 
L 2450 4666 
L 2450 531 
L 3481 531 
L 3481 0 
L 794 0 
L 794 531 
z
" transform="scale(0.015625)"/>
      </defs>
      <use xlink:href="#DejaVuSans-31"/>
      <use xlink:href="#DejaVuSans-2e" transform="translate(63.623047 0)"/>
      <use xlink:href="#DejaVuSans-30" transform="translate(95.410156 0)"/>
      <use xlink:href="#DejaVuSans-30" transform="translate(159.033203 0)"/>
     </g>
    </g>
   </g>
   <g id="xtick_8">
    <g id="line2d_9">
     <path d="M 180.966794 313.080097 
L 178.387847 315.62801 
" style="fill: none; stroke: #000000; stroke-width: 0.8; stroke-linecap: square"/>
    </g>
    <g id="text_8">
     <!-- 1.25 -->
     <g transform="translate(161.581031 338.015688) scale(0.1 -0.1)">
      <use xlink:href="#DejaVuSans-31"/>
      <use xlink:href="#DejaVuSans-2e" transform="translate(63.623047 0)"/>
      <use xlink:href="#DejaVuSans-32" transform="translate(95.410156 0)"/>
      <use xlink:href="#DejaVuSans-35" transform="translate(159.033203 0)"/>
     </g>
    </g>
   </g>
   <g id="xtick_9">
    <g id="line2d_10">
     <path d="M 201.53484 319.790983 
L 198.986899 322.368996 
" style="fill: none; stroke: #000000; stroke-width: 0.8; stroke-linecap: square"/>
    </g>
    <g id="text_9">
     <!-- 1.50 -->
     <g transform="translate(182.181759 344.855539) scale(0.1 -0.1)">
      <use xlink:href="#DejaVuSans-31"/>
      <use xlink:href="#DejaVuSans-2e" transform="translate(63.623047 0)"/>
      <use xlink:href="#DejaVuSans-35" transform="translate(95.410156 0)"/>
      <use xlink:href="#DejaVuSans-30" transform="translate(159.033203 0)"/>
     </g>
    </g>
   </g>
   <g id="text_10">
    <!-- $a$ -->
    <g transform="translate(100.425907 332.209498) scale(0.1 -0.1)">
     <defs>
      <path id="DejaVuSans-Oblique-61" d="M 3438 1997 
L 3047 0 
L 2472 0 
L 2578 531 
Q 2325 219 2001 64 
Q 1678 -91 1281 -91 
Q 834 -91 548 182 
Q 263 456 263 884 
Q 263 1497 752 1853 
Q 1241 2209 2100 2209 
L 2900 2209 
L 2931 2363 
Q 2938 2388 2941 2417 
Q 2944 2447 2944 2509 
Q 2944 2788 2717 2942 
Q 2491 3097 2081 3097 
Q 1800 3097 1504 3025 
Q 1209 2953 897 2809 
L 997 3341 
Q 1322 3463 1633 3523 
Q 1944 3584 2234 3584 
Q 2853 3584 3176 3315 
Q 3500 3047 3500 2534 
Q 3500 2431 3484 2292 
Q 3469 2153 3438 1997 
z
M 2816 1759 
L 2241 1759 
Q 1534 1759 1195 1570 
Q 856 1381 856 984 
Q 856 709 1029 553 
Q 1203 397 1509 397 
Q 1978 397 2328 733 
Q 2678 1069 2791 1631 
L 2816 1759 
z
" transform="scale(0.015625)"/>
     </defs>
     <use xlink:href="#DejaVuSans-Oblique-61"/>
    </g>
   </g>
  </g>
  <g id="axis3d_2">
   <g id="line2d_11">
    <path d="M 309.085906 225.796418 
L 212.803132 324.60623 
" style="fill: none; stroke: #000000; stroke-width: 0.8; stroke-linecap: square"/>
   </g>
   <g id="xtick_10">
    <g id="line2d_12">
     <path d="M 217.943564 317.276284 
L 222.51227 318.756775 
" style="fill: none; stroke: #000000; stroke-width: 0.8; stroke-linecap: square"/>
    </g>
    <g id="text_11">
     <!-- −0.50 -->
     <g transform="translate(217.021781 338.789678) scale(0.1 -0.1)">
      <use xlink:href="#DejaVuSans-2212"/>
      <use xlink:href="#DejaVuSans-30" transform="translate(83.789062 0)"/>
      <use xlink:href="#DejaVuSans-2e" transform="translate(147.412109 0)"/>
      <use xlink:href="#DejaVuSans-35" transform="translate(179.199219 0)"/>
      <use xlink:href="#DejaVuSans-30" transform="translate(242.822266 0)"/>
     </g>
    </g>
   </g>
   <g id="xtick_11">
    <g id="line2d_13">
     <path d="M 229.192621 305.752664 
L 233.729684 307.203483 
" style="fill: none; stroke: #000000; stroke-width: 0.8; stroke-linecap: square"/>
    </g>
    <g id="text_12">
     <!-- −0.25 -->
     <g transform="translate(228.136058 327.115327) scale(0.1 -0.1)">
      <use xlink:href="#DejaVuSans-2212"/>
      <use xlink:href="#DejaVuSans-30" transform="translate(83.789062 0)"/>
      <use xlink:href="#DejaVuSans-2e" transform="translate(147.412109 0)"/>
      <use xlink:href="#DejaVuSans-32" transform="translate(179.199219 0)"/>
      <use xlink:href="#DejaVuSans-35" transform="translate(242.822266 0)"/>
     </g>
    </g>
   </g>
   <g id="xtick_12">
    <g id="line2d_14">
     <path d="M 240.217492 294.458701 
L 244.723259 295.880733 
" style="fill: none; stroke: #000000; stroke-width: 0.8; stroke-linecap: square"/>
    </g>
    <g id="text_13">
     <!-- 0.00 -->
     <g transform="translate(243.218478 315.67385) scale(0.1 -0.1)">
      <use xlink:href="#DejaVuSans-30"/>
      <use xlink:href="#DejaVuSans-2e" transform="translate(63.623047 0)"/>
      <use xlink:href="#DejaVuSans-30" transform="translate(95.410156 0)"/>
      <use xlink:href="#DejaVuSans-30" transform="translate(159.033203 0)"/>
     </g>
    </g>
   </g>
   <g id="xtick_13">
    <g id="line2d_15">
     <path d="M 251.024812 283.3876 
L 255.499628 284.781691 
" style="fill: none; stroke: #000000; stroke-width: 0.8; stroke-linecap: square"/>
    </g>
    <g id="text_14">
     <!-- 0.25 -->
     <g transform="translate(253.895921 304.458346) scale(0.1 -0.1)">
      <use xlink:href="#DejaVuSans-30"/>
      <use xlink:href="#DejaVuSans-2e" transform="translate(63.623047 0)"/>
      <use xlink:href="#DejaVuSans-32" transform="translate(95.410156 0)"/>
      <use xlink:href="#DejaVuSans-35" transform="translate(159.033203 0)"/>
     </g>
    </g>
   </g>
   <g id="xtick_14">
    <g id="line2d_16">
     <path d="M 261.620958 272.532827 
L 266.065167 273.899794 
" style="fill: none; stroke: #000000; stroke-width: 0.8; stroke-linecap: square"/>
    </g>
    <g id="text_15">
     <!-- 0.50 -->
     <g transform="translate(264.364542 293.462188) scale(0.1 -0.1)">
      <use xlink:href="#DejaVuSans-30"/>
      <use xlink:href="#DejaVuSans-2e" transform="translate(63.623047 0)"/>
      <use xlink:href="#DejaVuSans-35" transform="translate(95.410156 0)"/>
      <use xlink:href="#DejaVuSans-30" transform="translate(159.033203 0)"/>
     </g>
    </g>
   </g>
   <g id="xtick_15">
    <g id="line2d_17">
     <path d="M 272.012059 261.888103 
L 276.426001 263.22873 
" style="fill: none; stroke: #000000; stroke-width: 0.8; stroke-linecap: square"/>
    </g>
    <g id="text_16">
     <!-- 0.75 -->
     <g transform="translate(274.630407 282.679002) scale(0.1 -0.1)">
      <use xlink:href="#DejaVuSans-30"/>
      <use xlink:href="#DejaVuSans-2e" transform="translate(63.623047 0)"/>
      <use xlink:href="#DejaVuSans-37" transform="translate(95.410156 0)"/>
      <use xlink:href="#DejaVuSans-35" transform="translate(159.033203 0)"/>
     </g>
    </g>
   </g>
   <g id="xtick_16">
    <g id="line2d_18">
     <path d="M 282.20401 251.44739 
L 286.588023 252.762431 
" style="fill: none; stroke: #000000; stroke-width: 0.8; stroke-linecap: square"/>
    </g>
    <g id="text_17">
     <!-- 1.00 -->
     <g transform="translate(284.699352 272.10266) scale(0.1 -0.1)">
      <use xlink:href="#DejaVuSans-31"/>
      <use xlink:href="#DejaVuSans-2e" transform="translate(63.623047 0)"/>
      <use xlink:href="#DejaVuSans-30" transform="translate(95.410156 0)"/>
      <use xlink:href="#DejaVuSans-30" transform="translate(159.033203 0)"/>
     </g>
    </g>
   </g>
   <g id="xtick_17">
    <g id="line2d_19">
     <path d="M 292.202482 241.204879 
L 296.556902 242.49506 
" style="fill: none; stroke: #000000; stroke-width: 0.8; stroke-linecap: square"/>
    </g>
    <g id="text_18">
     <!-- 1.25 -->
     <g transform="translate(294.576987 261.727269) scale(0.1 -0.1)">
      <use xlink:href="#DejaVuSans-31"/>
      <use xlink:href="#DejaVuSans-2e" transform="translate(63.623047 0)"/>
      <use xlink:href="#DejaVuSans-32" transform="translate(95.410156 0)"/>
      <use xlink:href="#DejaVuSans-35" transform="translate(159.033203 0)"/>
     </g>
    </g>
   </g>
   <g id="xtick_18">
    <g id="line2d_20">
     <path d="M 302.012932 231.154979 
L 306.338091 232.420997 
" style="fill: none; stroke: #000000; stroke-width: 0.8; stroke-linecap: square"/>
    </g>
    <g id="text_19">
     <!-- 1.50 -->
     <g transform="translate(304.268714 251.547154) scale(0.1 -0.1)">
      <use xlink:href="#DejaVuSans-31"/>
      <use xlink:href="#DejaVuSans-2e" transform="translate(63.623047 0)"/>
      <use xlink:href="#DejaVuSans-35" transform="translate(95.410156 0)"/>
      <use xlink:href="#DejaVuSans-30" transform="translate(159.033203 0)"/>
     </g>
    </g>
   </g>
   <g id="text_20">
    <!-- $b$ -->
    <g transform="translate(286.864456 303.753612) scale(0.1 -0.1)">
     <defs>
      <path id="DejaVuSans-Oblique-62" d="M 3169 2138 
Q 3169 2591 2961 2847 
Q 2753 3103 2388 3103 
Q 2122 3103 1889 2973 
Q 1656 2844 1484 2597 
Q 1303 2338 1198 1995 
Q 1094 1653 1094 1313 
Q 1094 881 1298 636 
Q 1503 391 1863 391 
Q 2134 391 2365 517 
Q 2597 644 2772 891 
Q 2950 1147 3059 1487 
Q 3169 1828 3169 2138 
z
M 1381 2969 
Q 1594 3256 1914 3420 
Q 2234 3584 2584 3584 
Q 3122 3584 3439 3221 
Q 3756 2859 3756 2241 
Q 3756 1734 3570 1259 
Q 3384 784 3041 416 
Q 2816 172 2522 40 
Q 2228 -91 1906 -91 
Q 1566 -91 1316 65 
Q 1066 222 909 531 
L 806 0 
L 231 0 
L 1178 4863 
L 1753 4863 
L 1381 2969 
z
" transform="scale(0.015625)"/>
     </defs>
     <use xlink:href="#DejaVuSans-Oblique-62" transform="translate(0 0.015625)"/>
    </g>
   </g>
  </g>
  <g id="axis3d_3">
   <g id="line2d_21">
    <path d="M 309.085906 225.796418 
L 315.187366 92.556106 
" style="fill: none; stroke: #000000; stroke-width: 0.8; stroke-linecap: square"/>
   </g>
   <g id="xtick_19">
    <g id="line2d_22">
     <path d="M 307.808675 221.898137 
L 312.122153 223.147696 
" style="fill: none; stroke: #000000; stroke-width: 0.8; stroke-linecap: square"/>
    </g>
    <g id="text_21">
     <!-- −0.50 -->
     <g transform="translate(312.201864 227.311979) scale(0.1 -0.1)">
      <use xlink:href="#DejaVuSans-2212"/>
      <use xlink:href="#DejaVuSans-30" transform="translate(83.789062 0)"/>
      <use xlink:href="#DejaVuSans-2e" transform="translate(147.412109 0)"/>
      <use xlink:href="#DejaVuSans-35" transform="translate(179.199219 0)"/>
      <use xlink:href="#DejaVuSans-30" transform="translate(242.822266 0)"/>
     </g>
    </g>
   </g>
   <g id="xtick_20">
    <g id="line2d_23">
     <path d="M 308.478663 207.109465 
L 312.814387 208.347541 
" style="fill: none; stroke: #000000; stroke-width: 0.8; stroke-linecap: square"/>
    </g>
    <g id="text_22">
     <!-- −0.25 -->
     <g transform="translate(312.968148 212.543415) scale(0.1 -0.1)">
      <use xlink:href="#DejaVuSans-2212"/>
      <use xlink:href="#DejaVuSans-30" transform="translate(83.789062 0)"/>
      <use xlink:href="#DejaVuSans-2e" transform="translate(147.412109 0)"/>
      <use xlink:href="#DejaVuSans-32" transform="translate(179.199219 0)"/>
      <use xlink:href="#DejaVuSans-35" transform="translate(242.822266 0)"/>
     </g>
    </g>
   </g>
   <g id="xtick_21">
    <g id="line2d_24">
     <path d="M 309.155337 192.173187 
L 313.513539 193.399489 
" style="fill: none; stroke: #000000; stroke-width: 0.8; stroke-linecap: square"/>
    </g>
    <g id="text_23">
     <!-- 0.00 -->
     <g transform="translate(317.931908 197.627758) scale(0.1 -0.1)">
      <use xlink:href="#DejaVuSans-30"/>
      <use xlink:href="#DejaVuSans-2e" transform="translate(63.623047 0)"/>
      <use xlink:href="#DejaVuSans-30" transform="translate(95.410156 0)"/>
      <use xlink:href="#DejaVuSans-30" transform="translate(159.033203 0)"/>
     </g>
    </g>
   </g>
   <g id="xtick_22">
    <g id="line2d_25">
     <path d="M 309.8388 177.087085 
L 314.219712 178.301313 
" style="fill: none; stroke: #000000; stroke-width: 0.8; stroke-linecap: square"/>
    </g>
    <g id="text_24">
     <!-- 0.25 -->
     <g transform="translate(318.71357 182.562798) scale(0.1 -0.1)">
      <use xlink:href="#DejaVuSans-30"/>
      <use xlink:href="#DejaVuSans-2e" transform="translate(63.623047 0)"/>
      <use xlink:href="#DejaVuSans-32" transform="translate(95.410156 0)"/>
      <use xlink:href="#DejaVuSans-35" transform="translate(159.033203 0)"/>
     </g>
    </g>
   </g>
   <g id="xtick_23">
    <g id="line2d_26">
     <path d="M 310.529152 161.848891 
L 314.933013 163.050739 
" style="fill: none; stroke: #000000; stroke-width: 0.8; stroke-linecap: square"/>
    </g>
    <g id="text_25">
     <!-- 0.50 -->
     <g transform="translate(319.503097 167.346283) scale(0.1 -0.1)">
      <use xlink:href="#DejaVuSans-30"/>
      <use xlink:href="#DejaVuSans-2e" transform="translate(63.623047 0)"/>
      <use xlink:href="#DejaVuSans-35" transform="translate(95.410156 0)"/>
      <use xlink:href="#DejaVuSans-30" transform="translate(159.033203 0)"/>
     </g>
    </g>
   </g>
   <g id="xtick_24">
    <g id="line2d_27">
     <path d="M 311.2265 146.456294 
L 315.653551 147.645447 
" style="fill: none; stroke: #000000; stroke-width: 0.8; stroke-linecap: square"/>
    </g>
    <g id="text_26">
     <!-- 0.75 -->
     <g transform="translate(320.300606 151.975913) scale(0.1 -0.1)">
      <use xlink:href="#DejaVuSans-30"/>
      <use xlink:href="#DejaVuSans-2e" transform="translate(63.623047 0)"/>
      <use xlink:href="#DejaVuSans-37" transform="translate(95.410156 0)"/>
      <use xlink:href="#DejaVuSans-35" transform="translate(159.033203 0)"/>
     </g>
    </g>
   </g>
   <g id="xtick_25">
    <g id="line2d_28">
     <path d="M 311.93095 130.906935 
L 316.381435 132.083072 
" style="fill: none; stroke: #000000; stroke-width: 0.8; stroke-linecap: square"/>
    </g>
    <g id="text_27">
     <!-- 1.00 -->
     <g transform="translate(321.10622 136.449344) scale(0.1 -0.1)">
      <use xlink:href="#DejaVuSans-31"/>
      <use xlink:href="#DejaVuSans-2e" transform="translate(63.623047 0)"/>
      <use xlink:href="#DejaVuSans-30" transform="translate(95.410156 0)"/>
      <use xlink:href="#DejaVuSans-30" transform="translate(159.033203 0)"/>
     </g>
    </g>
   </g>
   <g id="xtick_26">
    <g id="line2d_29">
     <path d="M 312.64261 115.198408 
L 317.11678 116.361199 
" style="fill: none; stroke: #000000; stroke-width: 0.8; stroke-linecap: square"/>
    </g>
    <g id="text_28">
     <!-- 1.25 -->
     <g transform="translate(321.920062 120.764182) scale(0.1 -0.1)">
      <use xlink:href="#DejaVuSans-31"/>
      <use xlink:href="#DejaVuSans-2e" transform="translate(63.623047 0)"/>
      <use xlink:href="#DejaVuSans-32" transform="translate(95.410156 0)"/>
      <use xlink:href="#DejaVuSans-35" transform="translate(159.033203 0)"/>
     </g>
    </g>
   </g>
   <g id="xtick_27">
    <g id="line2d_30">
     <path d="M 313.361593 99.328255 
L 317.8597 100.477363 
" style="fill: none; stroke: #000000; stroke-width: 0.8; stroke-linecap: square"/>
    </g>
    <g id="text_29">
     <!-- 1.50 -->
     <g transform="translate(322.742261 104.917985) scale(0.1 -0.1)">
      <use xlink:href="#DejaVuSans-31"/>
      <use xlink:href="#DejaVuSans-2e" transform="translate(63.623047 0)"/>
      <use xlink:href="#DejaVuSans-35" transform="translate(95.410156 0)"/>
      <use xlink:href="#DejaVuSans-30" transform="translate(159.033203 0)"/>
     </g>
    </g>
   </g>
   <g id="text_30">
    <!-- $c$ -->
    <g transform="translate(349.74261 157.979526) scale(0.1 -0.1)">
     <defs>
      <path id="DejaVuSans-Oblique-63" d="M 3431 3366 
L 3316 2797 
Q 3109 2947 2876 3022 
Q 2644 3097 2394 3097 
Q 2119 3097 1870 3000 
Q 1622 2903 1453 2725 
Q 1184 2453 1037 2087 
Q 891 1722 891 1331 
Q 891 859 1127 628 
Q 1363 397 1844 397 
Q 2081 397 2348 469 
Q 2616 541 2906 684 
L 2797 116 
Q 2547 13 2283 -39 
Q 2019 -91 1741 -91 
Q 1044 -91 669 257 
Q 294 606 294 1253 
Q 294 1797 489 2255 
Q 684 2713 1069 3078 
Q 1331 3328 1684 3456 
Q 2038 3584 2456 3584 
Q 2700 3584 2940 3529 
Q 3181 3475 3431 3366 
z
" transform="scale(0.015625)"/>
     </defs>
     <use xlink:href="#DejaVuSans-Oblique-63"/>
    </g>
   </g>
  </g>
  <g id="axes_1">
   <g id="Path3DCollection_1">
    <defs>
     <path id="C0_0_3ea0930182" d="M 0 3.535534 
C 0.937635 3.535534 1.836992 3.163008 2.5 2.5 
C 3.163008 1.836992 3.535534 0.937635 3.535534 -0 
C 3.535534 -0.937635 3.163008 -1.836992 2.5 -2.5 
C 1.836992 -3.163008 0.937635 -3.535534 0 -3.535534 
C -0.937635 -3.535534 -1.836992 -3.163008 -2.5 -2.5 
C -3.163008 -1.836992 -3.535534 -0.937635 -3.535534 0 
C -3.535534 0.937635 -3.163008 1.836992 -2.5 2.5 
C -1.836992 3.163008 -0.937635 3.535534 0 3.535534 
z
"/>
    </defs>
    <g clip-path="url(#p4f8d859c8c)">
     <use xlink:href="#C0_0_3ea0930182" x="156.965604" y="180.965086" style="fill: #ff0000; fill-opacity: 0.3; stroke: #ff0000; stroke-opacity: 0.3"/>
    </g>
    <g clip-path="url(#p4f8d859c8c)">
     <use xlink:href="#C0_0_3ea0930182" x="109.871452" y="157.763417" style="fill: #ff0000; fill-opacity: 0.976667; stroke: #ff0000; stroke-opacity: 0.976667"/>
    </g>
    <g clip-path="url(#p4f8d859c8c)">
     <use xlink:href="#C0_0_3ea0930182" x="189.802874" y="244.208419" style="fill: #ff0000; stroke: #ff0000"/>
    </g>
   </g>
   <g id="text_31">
    <!-- $(1,0,0)$ -->
    <g transform="translate(193.829688 245.43984) scale(0.09 -0.09)">
     <defs>
      <path id="DejaVuSans-28" d="M 1984 4856 
Q 1566 4138 1362 3434 
Q 1159 2731 1159 2009 
Q 1159 1288 1364 580 
Q 1569 -128 1984 -844 
L 1484 -844 
Q 1016 -109 783 600 
Q 550 1309 550 2009 
Q 550 2706 781 3412 
Q 1013 4119 1484 4856 
L 1984 4856 
z
" transform="scale(0.015625)"/>
      <path id="DejaVuSans-2c" d="M 750 794 
L 1409 794 
L 1409 256 
L 897 -744 
L 494 -744 
L 750 256 
L 750 794 
z
" transform="scale(0.015625)"/>
      <path id="DejaVuSans-29" d="M 513 4856 
L 1013 4856 
Q 1481 4119 1714 3412 
Q 1947 2706 1947 2009 
Q 1947 1309 1714 600 
Q 1481 -109 1013 -844 
L 513 -844 
Q 928 -128 1133 580 
Q 1338 1288 1338 2009 
Q 1338 2731 1133 3434 
Q 928 4138 513 4856 
z
" transform="scale(0.015625)"/>
     </defs>
     <use xlink:href="#DejaVuSans-28" transform="translate(0 0.125)"/>
     <use xlink:href="#DejaVuSans-31" transform="translate(39.013672 0.125)"/>
     <use xlink:href="#DejaVuSans-2c" transform="translate(102.636719 0.125)"/>
     <use xlink:href="#DejaVuSans-30" transform="translate(153.90625 0.125)"/>
     <use xlink:href="#DejaVuSans-2c" transform="translate(217.529297 0.125)"/>
     <use xlink:href="#DejaVuSans-30" transform="translate(268.798828 0.125)"/>
     <use xlink:href="#DejaVuSans-29" transform="translate(332.421875 0.125)"/>
    </g>
   </g>
   <g id="text_32">
    <!-- $(0,1,0)$ -->
    <g transform="translate(159.165912 179.082161) scale(0.09 -0.09)">
     <use xlink:href="#DejaVuSans-28" transform="translate(0 0.125)"/>
     <use xlink:href="#DejaVuSans-30" transform="translate(39.013672 0.125)"/>
     <use xlink:href="#DejaVuSans-2c" transform="translate(102.636719 0.125)"/>
     <use xlink:href="#DejaVuSans-31" transform="translate(153.90625 0.125)"/>
     <use xlink:href="#DejaVuSans-2c" transform="translate(217.529297 0.125)"/>
     <use xlink:href="#DejaVuSans-30" transform="translate(268.798828 0.125)"/>
     <use xlink:href="#DejaVuSans-29" transform="translate(332.421875 0.125)"/>
    </g>
   </g>
   <g id="text_33">
    <!-- $(0,0,1)$ -->
    <g transform="translate(109.80541 154.574913) scale(0.09 -0.09)">
     <use xlink:href="#DejaVuSans-28" transform="translate(0 0.125)"/>
     <use xlink:href="#DejaVuSans-30" transform="translate(39.013672 0.125)"/>
     <use xlink:href="#DejaVuSans-2c" transform="translate(102.636719 0.125)"/>
     <use xlink:href="#DejaVuSans-30" transform="translate(153.90625 0.125)"/>
     <use xlink:href="#DejaVuSans-2c" transform="translate(217.529297 0.125)"/>
     <use xlink:href="#DejaVuSans-31" transform="translate(268.798828 0.125)"/>
     <use xlink:href="#DejaVuSans-29" transform="translate(332.421875 0.125)"/>
    </g>
   </g>
   <g id="text_34">
    <!-- Plane: $a + b + c = 1$ -->
    <g transform="translate(108.465 16.318125) scale(0.12 -0.12)">
     <defs>
      <path id="DejaVuSans-Bold-50" d="M 588 4666 
L 2584 4666 
Q 3475 4666 3951 4270 
Q 4428 3875 4428 3144 
Q 4428 2409 3951 2014 
Q 3475 1619 2584 1619 
L 1791 1619 
L 1791 0 
L 588 0 
L 588 4666 
z
M 1791 3794 
L 1791 2491 
L 2456 2491 
Q 2806 2491 2997 2661 
Q 3188 2831 3188 3144 
Q 3188 3456 2997 3625 
Q 2806 3794 2456 3794 
L 1791 3794 
z
" transform="scale(0.015625)"/>
      <path id="DejaVuSans-Bold-6c" d="M 538 4863 
L 1656 4863 
L 1656 0 
L 538 0 
L 538 4863 
z
" transform="scale(0.015625)"/>
      <path id="DejaVuSans-Bold-61" d="M 2106 1575 
Q 1756 1575 1579 1456 
Q 1403 1338 1403 1106 
Q 1403 894 1545 773 
Q 1688 653 1941 653 
Q 2256 653 2472 879 
Q 2688 1106 2688 1447 
L 2688 1575 
L 2106 1575 
z
M 3816 1997 
L 3816 0 
L 2688 0 
L 2688 519 
Q 2463 200 2181 54 
Q 1900 -91 1497 -91 
Q 953 -91 614 226 
Q 275 544 275 1050 
Q 275 1666 698 1953 
Q 1122 2241 2028 2241 
L 2688 2241 
L 2688 2328 
Q 2688 2594 2478 2717 
Q 2269 2841 1825 2841 
Q 1466 2841 1156 2769 
Q 847 2697 581 2553 
L 581 3406 
Q 941 3494 1303 3539 
Q 1666 3584 2028 3584 
Q 2975 3584 3395 3211 
Q 3816 2838 3816 1997 
z
" transform="scale(0.015625)"/>
      <path id="DejaVuSans-Bold-6e" d="M 4056 2131 
L 4056 0 
L 2931 0 
L 2931 347 
L 2931 1631 
Q 2931 2084 2911 2256 
Q 2891 2428 2841 2509 
Q 2775 2619 2662 2680 
Q 2550 2741 2406 2741 
Q 2056 2741 1856 2470 
Q 1656 2200 1656 1722 
L 1656 0 
L 538 0 
L 538 3500 
L 1656 3500 
L 1656 2988 
Q 1909 3294 2193 3439 
Q 2478 3584 2822 3584 
Q 3428 3584 3742 3212 
Q 4056 2841 4056 2131 
z
" transform="scale(0.015625)"/>
      <path id="DejaVuSans-Bold-65" d="M 4031 1759 
L 4031 1441 
L 1416 1441 
Q 1456 1047 1700 850 
Q 1944 653 2381 653 
Q 2734 653 3104 758 
Q 3475 863 3866 1075 
L 3866 213 
Q 3469 63 3072 -14 
Q 2675 -91 2278 -91 
Q 1328 -91 801 392 
Q 275 875 275 1747 
Q 275 2603 792 3093 
Q 1309 3584 2216 3584 
Q 3041 3584 3536 3087 
Q 4031 2591 4031 1759 
z
M 2881 2131 
Q 2881 2450 2695 2645 
Q 2509 2841 2209 2841 
Q 1884 2841 1681 2658 
Q 1478 2475 1428 2131 
L 2881 2131 
z
" transform="scale(0.015625)"/>
      <path id="DejaVuSans-Bold-3a" d="M 716 3500 
L 1844 3500 
L 1844 2291 
L 716 2291 
L 716 3500 
z
M 716 1209 
L 1844 1209 
L 1844 0 
L 716 0 
L 716 1209 
z
" transform="scale(0.015625)"/>
      <path id="DejaVuSans-Bold-20" transform="scale(0.015625)"/>
      <path id="DejaVuSans-2b" d="M 2944 4013 
L 2944 2272 
L 4684 2272 
L 4684 1741 
L 2944 1741 
L 2944 0 
L 2419 0 
L 2419 1741 
L 678 1741 
L 678 2272 
L 2419 2272 
L 2419 4013 
L 2944 4013 
z
" transform="scale(0.015625)"/>
      <path id="DejaVuSans-3d" d="M 678 2906 
L 4684 2906 
L 4684 2381 
L 678 2381 
L 678 2906 
z
M 678 1631 
L 4684 1631 
L 4684 1100 
L 678 1100 
L 678 1631 
z
" transform="scale(0.015625)"/>
     </defs>
     <use xlink:href="#DejaVuSans-Bold-50" transform="translate(0 0.015625)"/>
     <use xlink:href="#DejaVuSans-Bold-6c" transform="translate(73.291016 0.015625)"/>
     <use xlink:href="#DejaVuSans-Bold-61" transform="translate(107.568359 0.015625)"/>
     <use xlink:href="#DejaVuSans-Bold-6e" transform="translate(175.048828 0.015625)"/>
     <use xlink:href="#DejaVuSans-Bold-65" transform="translate(246.240234 0.015625)"/>
     <use xlink:href="#DejaVuSans-Bold-3a" transform="translate(314.0625 0.015625)"/>
     <use xlink:href="#DejaVuSans-Bold-20" transform="translate(354.052734 0.015625)"/>
     <use xlink:href="#DejaVuSans-Oblique-61" transform="translate(388.867188 0.015625)"/>
     <use xlink:href="#DejaVuSans-2b" transform="translate(469.628906 0.015625)"/>
     <use xlink:href="#DejaVuSans-Oblique-62" transform="translate(572.900391 0.015625)"/>
     <use xlink:href="#DejaVuSans-2b" transform="translate(655.859375 0.015625)"/>
     <use xlink:href="#DejaVuSans-Oblique-63" transform="translate(759.130859 0.015625)"/>
     <use xlink:href="#DejaVuSans-3d" transform="translate(833.59375 0.015625)"/>
     <use xlink:href="#DejaVuSans-31" transform="translate(936.865234 0.015625)"/>
    </g>
   </g>
   <g id="Poly3DCollection_1">
    <path d="M 137.303538 149.642159 
L 145.045953 158.008291 
L 149.656512 160.379604 
L 141.958465 152.061908 
z
" clip-path="url(#p4f8d859c8c)" style="fill: #1f3a51; fill-opacity: 0.3"/>
    <path d="M 145.045953 158.008291 
L 152.791321 166.377615 
L 157.35748 168.700455 
L 149.656512 160.379604 
z
" clip-path="url(#p4f8d859c8c)" style="fill: #1f3a51; fill-opacity: 0.3"/>
    <path d="M 152.791321 166.377615 
L 160.539646 174.750134 
L 165.061369 177.024463 
L 157.35748 168.700455 
z
" clip-path="url(#p4f8d859c8c)" style="fill: #1f3a51; fill-opacity: 0.3"/>
    <path d="M 160.539646 174.750134 
L 168.290928 183.125849 
L 172.768181 185.35163 
L 165.061369 177.024463 
z
" clip-path="url(#p4f8d859c8c)" style="fill: #1f3a51; fill-opacity: 0.3"/>
    <path d="M 168.290928 183.125849 
L 176.04517 191.504761 
L 172.768181 185.35163 
z
" clip-path="url(#p4f8d859c8c)" style="fill: #1f3a51; fill-opacity: 0.3"/>
    <path d="M 176.04517 191.504761 
z
" clip-path="url(#p4f8d859c8c)" style="fill: #2e5475; fill-opacity: 0.3"/>
    <path d="M 132.593568 147.193796 
L 140.380863 155.608932 
L 145.045953 158.008291 
L 137.303538 149.642159 
z
" clip-path="url(#p4f8d859c8c)" style="fill: #1f3a51; fill-opacity: 0.3"/>
    <path d="M 140.380863 155.608932 
L 148.171148 164.027298 
L 152.791321 166.377615 
L 145.045953 158.008291 
z
" clip-path="url(#p4f8d859c8c)" style="fill: #1f3a51; fill-opacity: 0.3"/>
    <path d="M 148.171148 164.027298 
L 155.964424 172.448896 
L 160.539646 174.750134 
L 152.791321 166.377615 
z
" clip-path="url(#p4f8d859c8c)" style="fill: #1f3a51; fill-opacity: 0.3"/>
    <path d="M 155.964424 172.448896 
L 163.760691 180.873728 
L 168.290928 183.125849 
L 160.539646 174.750134 
z
" clip-path="url(#p4f8d859c8c)" style="fill: #1f3a51; fill-opacity: 0.3"/>
    <path d="M 163.760691 180.873728 
L 171.559954 189.301795 
L 176.04517 191.504761 
L 168.290928 183.125849 
z
" clip-path="url(#p4f8d859c8c)" style="fill: #1f3a51; fill-opacity: 0.3"/>
    <path d="M 171.559954 189.301795 
L 179.362212 197.7331 
L 176.04517 191.504761 
z
" clip-path="url(#p4f8d859c8c)" style="fill: #1f3a51; fill-opacity: 0.3"/>
    <path d="M 179.362212 197.7331 
z
" clip-path="url(#p4f8d859c8c)" style="fill: #2e5475; fill-opacity: 0.3"/>
    <path d="M 127.827571 144.71631 
L 135.660271 153.181028 
L 140.380863 155.608932 
L 132.593568 147.193796 
z
" clip-path="url(#p4f8d859c8c)" style="fill: #1f3a51; fill-opacity: 0.3"/>
    <path d="M 135.660271 153.181028 
L 143.495996 161.649013 
L 148.171148 164.027298 
L 140.380863 155.608932 
z
" clip-path="url(#p4f8d859c8c)" style="fill: #1f3a51; fill-opacity: 0.3"/>
    <path d="M 143.495996 161.649013 
L 151.334747 170.120269 
L 155.964424 172.448896 
L 148.171148 164.027298 
z
" clip-path="url(#p4f8d859c8c)" style="fill: #1f3a51; fill-opacity: 0.3"/>
    <path d="M 151.334747 170.120269 
L 159.176525 178.594797 
L 163.760691 180.873728 
L 155.964424 172.448896 
z
" clip-path="url(#p4f8d859c8c)" style="fill: #1f3a51; fill-opacity: 0.3"/>
    <path d="M 159.176525 178.594797 
L 167.021333 187.072599 
L 171.559954 189.301795 
L 163.760691 180.873728 
z
" clip-path="url(#p4f8d859c8c)" style="fill: #1f3a51; fill-opacity: 0.3"/>
    <path d="M 167.021333 187.072599 
L 174.869173 195.553677 
L 179.362212 197.7331 
L 171.559954 189.301795 
z
" clip-path="url(#p4f8d859c8c)" style="fill: #1f3a51; fill-opacity: 0.3"/>
    <path d="M 174.869173 195.553677 
L 182.720045 204.038033 
L 179.362212 197.7331 
z
" clip-path="url(#p4f8d859c8c)" style="fill: #1f3a51; fill-opacity: 0.3"/>
    <path d="M 182.720045 204.038033 
z
" clip-path="url(#p4f8d859c8c)" style="fill: #2e5475; fill-opacity: 0.3"/>
    <path d="M 123.004543 142.209178 
L 130.88318 150.724064 
L 135.660271 153.181028 
L 127.827571 144.71631 
z
" clip-path="url(#p4f8d859c8c)" style="fill: #1f3a51; fill-opacity: 0.3"/>
    <path d="M 130.88318 150.724064 
L 138.764878 159.242257 
L 143.495996 161.649013 
L 135.660271 153.181028 
z
" clip-path="url(#p4f8d859c8c)" style="fill: #1f3a51; fill-opacity: 0.3"/>
    <path d="M 138.764878 159.242257 
L 146.649637 167.76376 
L 151.334747 170.120269 
L 143.495996 161.649013 
z
" clip-path="url(#p4f8d859c8c)" style="fill: #1f3a51; fill-opacity: 0.3"/>
    <path d="M 146.649637 167.76376 
L 154.537461 176.288574 
L 159.176525 178.594797 
L 151.334747 170.120269 
z
" clip-path="url(#p4f8d859c8c)" style="fill: #1f3a51; fill-opacity: 0.3"/>
    <path d="M 154.537461 176.288574 
L 162.42835 184.816702 
L 167.021333 187.072599 
L 159.176525 178.594797 
z
" clip-path="url(#p4f8d859c8c)" style="fill: #1f3a51; fill-opacity: 0.3"/>
    <path d="M 162.42835 184.816702 
L 170.322306 193.348144 
L 174.869173 195.553677 
L 167.021333 187.072599 
z
" clip-path="url(#p4f8d859c8c)" style="fill: #1f3a51; fill-opacity: 0.3"/>
    <path d="M 170.322306 193.348144 
L 178.219332 201.882904 
L 182.720045 204.038033 
L 174.869173 195.553677 
z
" clip-path="url(#p4f8d859c8c)" style="fill: #1f3a51; fill-opacity: 0.3"/>
    <path d="M 178.219332 201.882904 
L 186.119429 210.420982 
L 182.720045 204.038033 
z
" clip-path="url(#p4f8d859c8c)" style="fill: #1f3a51; fill-opacity: 0.3"/>
    <path d="M 186.119429 210.420982 
z
" clip-path="url(#p4f8d859c8c)" style="fill: #2e5475; fill-opacity: 0.3"/>
    <path d="M 118.123453 139.671864 
L 126.048569 148.237517 
L 130.88318 150.724064 
L 123.004543 142.209178 
z
" clip-path="url(#p4f8d859c8c)" style="fill: #1f3a51; fill-opacity: 0.3"/>
    <path d="M 126.048569 148.237517 
L 133.976782 156.806517 
L 138.764878 159.242257 
L 130.88318 150.724064 
z
" clip-path="url(#p4f8d859c8c)" style="fill: #1f3a51; fill-opacity: 0.3"/>
    <path d="M 133.976782 156.806517 
L 141.908094 165.378866 
L 146.649637 167.76376 
L 138.764878 159.242257 
z
" clip-path="url(#p4f8d859c8c)" style="fill: #1f3a51; fill-opacity: 0.3"/>
    <path d="M 141.908094 165.378866 
L 149.842506 173.954567 
L 154.537461 176.288574 
L 146.649637 167.76376 
z
" clip-path="url(#p4f8d859c8c)" style="fill: #1f3a51; fill-opacity: 0.3"/>
    <path d="M 149.842506 173.954567 
L 157.78002 182.53362 
L 162.42835 184.816702 
L 154.537461 176.288574 
z
" clip-path="url(#p4f8d859c8c)" style="fill: #1f3a51; fill-opacity: 0.3"/>
    <path d="M 157.78002 182.53362 
L 165.720639 191.116029 
L 170.322306 193.348144 
L 162.42835 184.816702 
z
" clip-path="url(#p4f8d859c8c)" style="fill: #1f3a51; fill-opacity: 0.3"/>
    <path d="M 165.720639 191.116029 
L 173.664363 199.701795 
L 178.219332 201.882904 
L 170.322306 193.348144 
z
" clip-path="url(#p4f8d859c8c)" style="fill: #1f3a51; fill-opacity: 0.3"/>
    <path d="M 173.664363 199.701795 
L 181.611195 208.290919 
L 186.119429 210.420982 
L 178.219332 201.882904 
z
" clip-path="url(#p4f8d859c8c)" style="fill: #1f3a51; fill-opacity: 0.3"/>
    <path d="M 181.611195 208.290919 
L 189.561137 216.883405 
L 186.119429 210.420982 
z
" clip-path="url(#p4f8d859c8c)" style="fill: #1f3a51; fill-opacity: 0.3"/>
    <path d="M 189.561137 216.883405 
z
" clip-path="url(#p4f8d859c8c)" style="fill: #2e5475; fill-opacity: 0.3"/>
    <path d="M 113.183248 137.103819 
L 121.155394 145.720848 
L 126.048569 148.237517 
L 118.123453 139.671864 
z
" clip-path="url(#p4f8d859c8c)" style="fill: #1f3a51; fill-opacity: 0.3"/>
    <path d="M 121.155394 145.720848 
L 129.130674 154.341265 
L 133.976782 156.806517 
L 126.048569 148.237517 
z
" clip-path="url(#p4f8d859c8c)" style="fill: #1f3a51; fill-opacity: 0.3"/>
    <path d="M 129.130674 154.341265 
L 137.10909 162.965071 
L 141.908094 165.378866 
L 133.976782 156.806517 
z
" clip-path="url(#p4f8d859c8c)" style="fill: #1f3a51; fill-opacity: 0.3"/>
    <path d="M 137.10909 162.965071 
L 145.090644 171.592269 
L 149.842506 173.954567 
L 141.908094 165.378866 
z
" clip-path="url(#p4f8d859c8c)" style="fill: #1f3a51; fill-opacity: 0.3"/>
    <path d="M 145.090644 171.592269 
L 153.075338 180.222861 
L 157.78002 182.53362 
L 149.842506 173.954567 
z
" clip-path="url(#p4f8d859c8c)" style="fill: #1f3a51; fill-opacity: 0.3"/>
    <path d="M 153.075338 180.222861 
L 161.063173 188.856848 
L 165.720639 191.116029 
L 157.78002 182.53362 
z
" clip-path="url(#p4f8d859c8c)" style="fill: #1f3a51; fill-opacity: 0.3"/>
    <path d="M 161.063173 188.856848 
L 169.054152 197.494233 
L 173.664363 199.701795 
L 165.720639 191.116029 
z
" clip-path="url(#p4f8d859c8c)" style="fill: #1f3a51; fill-opacity: 0.3"/>
    <path d="M 169.054152 197.494233 
L 177.048275 206.135018 
L 181.611195 208.290919 
L 173.664363 199.701795 
z
" clip-path="url(#p4f8d859c8c)" style="fill: #1f3a51; fill-opacity: 0.3"/>
    <path d="M 177.048275 206.135018 
L 185.045546 214.779204 
L 189.561137 216.883405 
L 181.611195 208.290919 
z
" clip-path="url(#p4f8d859c8c)" style="fill: #1f3a51; fill-opacity: 0.3"/>
    <path d="M 185.045546 214.779204 
L 193.045966 223.426794 
L 189.561137 216.883405 
z
" clip-path="url(#p4f8d859c8c)" style="fill: #1f3a51; fill-opacity: 0.3"/>
    <path d="M 193.045966 223.426794 
z
" clip-path="url(#p4f8d859c8c)" style="fill: #2e5475; fill-opacity: 0.3"/>
    <path d="M 108.182845 134.504483 
L 116.202583 143.173508 
L 121.155394 145.720848 
L 113.183248 137.103819 
z
" clip-path="url(#p4f8d859c8c)" style="fill: #1f3a51; fill-opacity: 0.3"/>
    <path d="M 116.202583 143.173508 
L 124.225492 151.845962 
L 129.130674 154.341265 
L 121.155394 145.720848 
z
" clip-path="url(#p4f8d859c8c)" style="fill: #1f3a51; fill-opacity: 0.3"/>
    <path d="M 124.225492 151.845962 
L 132.251576 160.521847 
L 137.10909 162.965071 
L 129.130674 154.341265 
z
" clip-path="url(#p4f8d859c8c)" style="fill: #1f3a51; fill-opacity: 0.3"/>
    <path d="M 132.251576 160.521847 
L 140.280835 169.201164 
L 145.090644 171.592269 
L 137.10909 162.965071 
z
" clip-path="url(#p4f8d859c8c)" style="fill: #1f3a51; fill-opacity: 0.3"/>
    <path d="M 140.280835 169.201164 
L 148.313272 177.883917 
L 153.075338 180.222861 
L 145.090644 171.592269 
z
" clip-path="url(#p4f8d859c8c)" style="fill: #1f3a51; fill-opacity: 0.3"/>
    <path d="M 148.313272 177.883917 
L 156.348889 186.570106 
L 161.063173 188.856848 
L 153.075338 180.222861 
z
" clip-path="url(#p4f8d859c8c)" style="fill: #1f3a51; fill-opacity: 0.3"/>
    <path d="M 156.348889 186.570106 
L 164.387687 195.259735 
L 169.054152 197.494233 
L 161.063173 188.856848 
z
" clip-path="url(#p4f8d859c8c)" style="fill: #1f3a51; fill-opacity: 0.3"/>
    <path d="M 164.387687 195.259735 
L 172.429668 203.952805 
L 177.048275 206.135018 
L 169.054152 197.494233 
z
" clip-path="url(#p4f8d859c8c)" style="fill: #1f3a51; fill-opacity: 0.3"/>
    <path d="M 172.429668 203.952805 
L 180.474835 212.649318 
L 185.045546 214.779204 
L 177.048275 206.135018 
z
" clip-path="url(#p4f8d859c8c)" style="fill: #1f3a51; fill-opacity: 0.3"/>
    <path d="M 180.474835 212.649318 
L 188.523189 221.349276 
L 193.045966 223.426794 
L 185.045546 214.779204 
z
" clip-path="url(#p4f8d859c8c)" style="fill: #1f3a51; fill-opacity: 0.3"/>
    <path d="M 188.523189 221.349276 
L 196.574731 230.052681 
L 193.045966 223.426794 
z
" clip-path="url(#p4f8d859c8c)" style="fill: #1f3a51; fill-opacity: 0.3"/>
    <path d="M 196.574731 230.052681 
z
" clip-path="url(#p4f8d859c8c)" style="fill: #2e5475; fill-opacity: 0.3"/>
    <path d="M 103.121139 131.87328 
L 111.18904 140.594932 
L 116.202583 143.173508 
L 108.182845 134.504483 
z
" clip-path="url(#p4f8d859c8c)" style="fill: #1f3a51; fill-opacity: 0.3"/>
    <path d="M 111.18904 140.594932 
L 119.260151 149.320055 
L 124.225492 151.845962 
L 116.202583 143.173508 
z
" clip-path="url(#p4f8d859c8c)" style="fill: #1f3a51; fill-opacity: 0.3"/>
    <path d="M 119.260151 149.320055 
L 127.334474 158.048651 
L 132.251576 160.521847 
L 124.225492 151.845962 
z
" clip-path="url(#p4f8d859c8c)" style="fill: #1f3a51; fill-opacity: 0.3"/>
    <path d="M 127.334474 158.048651 
L 135.412012 166.780722 
L 140.280835 169.201164 
L 132.251576 160.521847 
z
" clip-path="url(#p4f8d859c8c)" style="fill: #1f3a51; fill-opacity: 0.3"/>
    <path d="M 135.412012 166.780722 
L 143.492767 175.516269 
L 148.313272 177.883917 
L 140.280835 169.201164 
z
" clip-path="url(#p4f8d859c8c)" style="fill: #1f3a51; fill-opacity: 0.3"/>
    <path d="M 143.492767 175.516269 
L 151.576739 184.255296 
L 156.348889 186.570106 
L 148.313272 177.883917 
z
" clip-path="url(#p4f8d859c8c)" style="fill: #1f3a51; fill-opacity: 0.3"/>
    <path d="M 151.576739 184.255296 
L 159.663932 192.997805 
L 164.387687 195.259735 
L 156.348889 186.570106 
z
" clip-path="url(#p4f8d859c8c)" style="fill: #1f3a51; fill-opacity: 0.3"/>
    <path d="M 159.663932 192.997805 
L 167.754348 201.743796 
L 172.429668 203.952805 
L 164.387687 195.259735 
z
" clip-path="url(#p4f8d859c8c)" style="fill: #1f3a51; fill-opacity: 0.3"/>
    <path d="M 167.754348 201.743796 
L 175.847987 210.493273 
L 180.474835 212.649318 
L 172.429668 203.952805 
z
" clip-path="url(#p4f8d859c8c)" style="fill: #1f3a51; fill-opacity: 0.3"/>
    <path d="M 175.847987 210.493273 
L 183.944852 219.246237 
L 188.523189 221.349276 
L 180.474835 212.649318 
z
" clip-path="url(#p4f8d859c8c)" style="fill: #1f3a51; fill-opacity: 0.3"/>
    <path d="M 183.944852 219.246237 
L 192.044946 228.002691 
L 196.574731 230.052681 
L 188.523189 221.349276 
z
" clip-path="url(#p4f8d859c8c)" style="fill: #1f3a51; fill-opacity: 0.3"/>
    <path d="M 192.044946 228.002691 
L 200.148269 236.762636 
L 196.574731 230.052681 
z
" clip-path="url(#p4f8d859c8c)" style="fill: #1f3a51; fill-opacity: 0.3"/>
    <path d="M 200.148269 236.762636 
z
" clip-path="url(#p4f8d859c8c)" style="fill: #2e5475; fill-opacity: 0.3"/>
    <path d="M 97.996995 129.20962 
L 106.11364 137.984542 
L 111.18904 140.594932 
L 103.121139 131.87328 
z
" clip-path="url(#p4f8d859c8c)" style="fill: #1f3a51; fill-opacity: 0.3"/>
    <path d="M 106.11364 137.984542 
L 114.233535 146.762978 
L 119.260151 149.320055 
L 111.18904 140.594932 
z
" clip-path="url(#p4f8d859c8c)" style="fill: #1f3a51; fill-opacity: 0.3"/>
    <path d="M 114.233535 146.762978 
L 122.356682 155.544929 
L 127.334474 158.048651 
L 119.260151 149.320055 
z
" clip-path="url(#p4f8d859c8c)" style="fill: #1f3a51; fill-opacity: 0.3"/>
    <path d="M 122.356682 155.544929 
L 130.483082 164.330398 
L 135.412012 166.780722 
L 127.334474 158.048651 
z
" clip-path="url(#p4f8d859c8c)" style="fill: #1f3a51; fill-opacity: 0.3"/>
    <path d="M 130.483082 164.330398 
L 138.612739 173.119387 
L 143.492767 175.516269 
L 135.412012 166.780722 
z
" clip-path="url(#p4f8d859c8c)" style="fill: #1f3a51; fill-opacity: 0.3"/>
    <path d="M 138.612739 173.119387 
L 146.745653 181.911898 
L 151.576739 184.255296 
L 143.492767 175.516269 
z
" clip-path="url(#p4f8d859c8c)" style="fill: #1f3a51; fill-opacity: 0.3"/>
    <path d="M 146.745653 181.911898 
L 154.881827 190.707933 
L 159.663932 192.997805 
L 151.576739 184.255296 
z
" clip-path="url(#p4f8d859c8c)" style="fill: #1f3a51; fill-opacity: 0.3"/>
    <path d="M 154.881827 190.707933 
L 163.021263 199.507495 
L 167.754348 201.743796 
L 159.663932 192.997805 
z
" clip-path="url(#p4f8d859c8c)" style="fill: #1f3a51; fill-opacity: 0.3"/>
    <path d="M 163.021263 199.507495 
L 171.163962 208.310584 
L 175.847987 210.493273 
L 167.754348 201.743796 
z
" clip-path="url(#p4f8d859c8c)" style="fill: #1f3a51; fill-opacity: 0.3"/>
    <path d="M 171.163962 208.310584 
L 179.309928 217.117205 
L 183.944852 219.246237 
L 175.847987 210.493273 
z
" clip-path="url(#p4f8d859c8c)" style="fill: #1f3a51; fill-opacity: 0.3"/>
    <path d="M 179.309928 217.117205 
L 187.45916 225.927358 
L 192.044946 228.002691 
L 183.944852 219.246237 
z
" clip-path="url(#p4f8d859c8c)" style="fill: #1f3a51; fill-opacity: 0.3"/>
    <path d="M 187.45916 225.927358 
L 195.611663 234.741046 
L 200.148269 236.762636 
L 192.044946 228.002691 
z
" clip-path="url(#p4f8d859c8c)" style="fill: #1f3a51; fill-opacity: 0.3"/>
    <path d="M 195.611663 234.741046 
L 203.767437 243.55827 
L 200.148269 236.762636 
z
" clip-path="url(#p4f8d859c8c)" style="fill: #1f3a51; fill-opacity: 0.3"/>
    <path d="M 203.767437 243.55827 
z
" clip-path="url(#p4f8d859c8c)" style="fill: #2e5475; fill-opacity: 0.3"/>
    <path d="M 92.809251 126.512899 
L 100.975233 135.341745 
L 106.11364 137.984542 
L 97.996995 129.20962 
z
" clip-path="url(#p4f8d859c8c)" style="fill: #1f3a51; fill-opacity: 0.3"/>
    <path d="M 100.975233 135.341745 
L 109.144504 144.174149 
L 114.233535 146.762978 
L 106.11364 137.984542 
z
" clip-path="url(#p4f8d859c8c)" style="fill: #1f3a51; fill-opacity: 0.3"/>
    <path d="M 109.144504 144.174149 
L 117.317068 153.010112 
L 122.356682 155.544929 
L 114.233535 146.762978 
z
" clip-path="url(#p4f8d859c8c)" style="fill: #1f3a51; fill-opacity: 0.3"/>
    <path d="M 117.317068 153.010112 
L 125.492926 161.849637 
L 130.483082 164.330398 
L 122.356682 155.544929 
z
" clip-path="url(#p4f8d859c8c)" style="fill: #1f3a51; fill-opacity: 0.3"/>
    <path d="M 125.492926 161.849637 
L 133.672079 170.692725 
L 138.612739 173.119387 
L 130.483082 164.330398 
z
" clip-path="url(#p4f8d859c8c)" style="fill: #1f3a51; fill-opacity: 0.3"/>
    <path d="M 133.672079 170.692725 
L 141.854531 179.539378 
L 146.745653 181.911898 
L 138.612739 173.119387 
z
" clip-path="url(#p4f8d859c8c)" style="fill: #1f3a51; fill-opacity: 0.3"/>
    <path d="M 141.854531 179.539378 
L 150.040283 188.3896 
L 154.881827 190.707933 
L 146.745653 181.911898 
z
" clip-path="url(#p4f8d859c8c)" style="fill: #1f3a51; fill-opacity: 0.3"/>
    <path d="M 150.040283 188.3896 
L 158.229337 197.243392 
L 163.021263 199.507495 
L 154.881827 190.707933 
z
" clip-path="url(#p4f8d859c8c)" style="fill: #1f3a51; fill-opacity: 0.3"/>
    <path d="M 158.229337 197.243392 
L 166.421694 206.100755 
L 171.163962 208.310584 
L 163.021263 199.507495 
z
" clip-path="url(#p4f8d859c8c)" style="fill: #1f3a51; fill-opacity: 0.3"/>
    <path d="M 166.421694 206.100755 
L 174.617358 214.961694 
L 179.309928 217.117205 
L 171.163962 208.310584 
z
" clip-path="url(#p4f8d859c8c)" style="fill: #1f3a51; fill-opacity: 0.3"/>
    <path d="M 174.617358 214.961694 
L 182.81633 223.826208 
L 187.45916 225.927358 
L 179.309928 217.117205 
z
" clip-path="url(#p4f8d859c8c)" style="fill: #1f3a51; fill-opacity: 0.3"/>
    <path d="M 182.81633 223.826208 
L 191.018612 232.694302 
L 195.611663 234.741046 
L 187.45916 225.927358 
z
" clip-path="url(#p4f8d859c8c)" style="fill: #1f3a51; fill-opacity: 0.3"/>
    <path d="M 191.018612 232.694302 
L 199.224206 241.565976 
L 203.767437 243.55827 
L 195.611663 234.741046 
z
" clip-path="url(#p4f8d859c8c)" style="fill: #1f3a51; fill-opacity: 0.3"/>
    <path d="M 199.224206 241.565976 
L 207.433114 250.441234 
L 203.767437 243.55827 
z
" clip-path="url(#p4f8d859c8c)" style="fill: #1f3a51; fill-opacity: 0.3"/>
    <path d="M 207.433114 250.441234 
z
" clip-path="url(#p4f8d859c8c)" style="fill: #2e5475; fill-opacity: 0.3"/>
    <path d="M 87.556715 123.782497 
L 95.772636 132.665935 
L 100.975233 135.341745 
L 92.809251 126.512899 
z
" clip-path="url(#p4f8d859c8c)" style="fill: #1f3a51; fill-opacity: 0.3"/>
    <path d="M 95.772636 132.665935 
L 103.991889 141.552975 
L 109.144504 144.174149 
L 100.975233 135.341745 
z
" clip-path="url(#p4f8d859c8c)" style="fill: #1f3a51; fill-opacity: 0.3"/>
    <path d="M 103.991889 141.552975 
L 112.214474 150.443618 
L 117.317068 153.010112 
L 109.144504 144.174149 
z
" clip-path="url(#p4f8d859c8c)" style="fill: #1f3a51; fill-opacity: 0.3"/>
    <path d="M 112.214474 150.443618 
L 120.440394 159.337867 
L 125.492926 161.849637 
L 117.317068 153.010112 
z
" clip-path="url(#p4f8d859c8c)" style="fill: #1f3a51; fill-opacity: 0.3"/>
    <path d="M 120.440394 159.337867 
L 128.669652 168.235724 
L 133.672079 170.692725 
L 125.492926 161.849637 
z
" clip-path="url(#p4f8d859c8c)" style="fill: #1f3a51; fill-opacity: 0.3"/>
    <path d="M 128.669652 168.235724 
L 136.902248 177.137191 
L 141.854531 179.539378 
L 133.672079 170.692725 
z
" clip-path="url(#p4f8d859c8c)" style="fill: #1f3a51; fill-opacity: 0.3"/>
    <path d="M 136.902248 177.137191 
L 145.138185 186.042271 
L 150.040283 188.3896 
L 141.854531 179.539378 
z
" clip-path="url(#p4f8d859c8c)" style="fill: #1f3a51; fill-opacity: 0.3"/>
    <path d="M 145.138185 186.042271 
L 153.377465 194.950965 
L 158.229337 197.243392 
L 150.040283 188.3896 
z
" clip-path="url(#p4f8d859c8c)" style="fill: #1f3a51; fill-opacity: 0.3"/>
    <path d="M 153.377465 194.950965 
L 161.62009 203.863277 
L 166.421694 206.100755 
L 158.229337 197.243392 
z
" clip-path="url(#p4f8d859c8c)" style="fill: #1f3a51; fill-opacity: 0.3"/>
    <path d="M 161.62009 203.863277 
L 169.866063 212.779207 
L 174.617358 214.961694 
L 166.421694 206.100755 
z
" clip-path="url(#p4f8d859c8c)" style="fill: #1f3a51; fill-opacity: 0.3"/>
    <path d="M 169.866063 212.779207 
L 178.115384 221.698758 
L 182.81633 223.826208 
L 174.617358 214.961694 
z
" clip-path="url(#p4f8d859c8c)" style="fill: #1f3a51; fill-opacity: 0.3"/>
    <path d="M 178.115384 221.698758 
L 186.368057 230.621933 
L 191.018612 232.694302 
L 182.81633 223.826208 
z
" clip-path="url(#p4f8d859c8c)" style="fill: #1f3a51; fill-opacity: 0.3"/>
    <path d="M 186.368057 230.621933 
L 194.624083 239.548734 
L 199.224206 241.565976 
L 191.018612 232.694302 
z
" clip-path="url(#p4f8d859c8c)" style="fill: #1f3a51; fill-opacity: 0.3"/>
    <path d="M 194.624083 239.548734 
L 202.883464 248.479163 
L 207.433114 250.441234 
L 199.224206 241.565976 
z
" clip-path="url(#p4f8d859c8c)" style="fill: #1f3a51; fill-opacity: 0.3"/>
    <path d="M 202.883464 248.479163 
L 211.146202 257.413221 
L 207.433114 250.441234 
z
" clip-path="url(#p4f8d859c8c)" style="fill: #1f3a51; fill-opacity: 0.3"/>
    <path d="M 211.146202 257.413221 
z
" clip-path="url(#p4f8d859c8c)" style="fill: #2e5475; fill-opacity: 0.3"/>
    <path d="M 82.238165 121.01778 
L 90.504641 129.956489 
L 95.772636 132.665935 
L 87.556715 123.782497 
z
" clip-path="url(#p4f8d859c8c)" style="fill: #1f3a51; fill-opacity: 0.3"/>
    <path d="M 90.504641 129.956489 
L 98.774489 138.898844 
L 103.991889 141.552975 
L 95.772636 132.665935 
z
" clip-path="url(#p4f8d859c8c)" style="fill: #1f3a51; fill-opacity: 0.3"/>
    <path d="M 98.774489 138.898844 
L 107.047712 147.844848 
L 112.214474 150.443618 
L 103.991889 141.552975 
z
" clip-path="url(#p4f8d859c8c)" style="fill: #1f3a51; fill-opacity: 0.3"/>
    <path d="M 107.047712 147.844848 
L 115.324311 156.794504 
L 120.440394 159.337867 
L 112.214474 150.443618 
z
" clip-path="url(#p4f8d859c8c)" style="fill: #1f3a51; fill-opacity: 0.3"/>
    <path d="M 115.324311 156.794504 
L 123.604289 165.747812 
L 128.669652 168.235724 
L 120.440394 159.337867 
z
" clip-path="url(#p4f8d859c8c)" style="fill: #1f3a51; fill-opacity: 0.3"/>
    <path d="M 123.604289 165.747812 
L 131.887648 174.704777 
L 136.902248 177.137191 
L 128.669652 168.235724 
z
" clip-path="url(#p4f8d859c8c)" style="fill: #1f3a51; fill-opacity: 0.3"/>
    <path d="M 131.887648 174.704777 
L 140.17439 183.665399 
L 145.138185 186.042271 
L 136.902248 177.137191 
z
" clip-path="url(#p4f8d859c8c)" style="fill: #1f3a51; fill-opacity: 0.3"/>
    <path d="M 140.17439 183.665399 
L 148.464516 192.629681 
L 153.377465 194.950965 
L 145.138185 186.042271 
z
" clip-path="url(#p4f8d859c8c)" style="fill: #1f3a51; fill-opacity: 0.3"/>
    <path d="M 148.464516 192.629681 
L 156.758029 201.597626 
L 161.62009 203.863277 
L 153.377465 194.950965 
z
" clip-path="url(#p4f8d859c8c)" style="fill: #1f3a51; fill-opacity: 0.3"/>
    <path d="M 156.758029 201.597626 
L 165.054931 210.569235 
L 169.866063 212.779207 
L 161.62009 203.863277 
z
" clip-path="url(#p4f8d859c8c)" style="fill: #1f3a51; fill-opacity: 0.3"/>
    <path d="M 165.054931 210.569235 
L 173.355224 219.544511 
L 178.115384 221.698758 
L 169.866063 212.779207 
z
" clip-path="url(#p4f8d859c8c)" style="fill: #1f3a51; fill-opacity: 0.3"/>
    <path d="M 173.355224 219.544511 
L 181.658911 228.523456 
L 186.368057 230.621933 
L 178.115384 221.698758 
z
" clip-path="url(#p4f8d859c8c)" style="fill: #1f3a51; fill-opacity: 0.3"/>
    <path d="M 181.658911 228.523456 
L 189.965992 237.506072 
L 194.624083 239.548734 
L 186.368057 230.621933 
z
" clip-path="url(#p4f8d859c8c)" style="fill: #1f3a51; fill-opacity: 0.3"/>
    <path d="M 189.965992 237.506072 
L 198.276471 246.492362 
L 202.883464 248.479163 
L 194.624083 239.548734 
z
" clip-path="url(#p4f8d859c8c)" style="fill: #1f3a51; fill-opacity: 0.3"/>
    <path d="M 198.276471 246.492362 
L 206.590349 255.482328 
L 211.146202 257.413221 
L 202.883464 248.479163 
z
" clip-path="url(#p4f8d859c8c)" style="fill: #1f3a51; fill-opacity: 0.3"/>
    <path d="M 206.590349 255.482328 
L 214.907629 264.475971 
L 211.146202 257.413221 
z
" clip-path="url(#p4f8d859c8c)" style="fill: #1f3a51; fill-opacity: 0.3"/>
    <path d="M 76.852349 118.218096 
L 85.170005 127.212768 
L 90.504641 129.956489 
L 82.238165 121.01778 
z
" clip-path="url(#p4f8d859c8c)" style="fill: #1f3a51; fill-opacity: 0.3"/>
    <path d="M 214.907629 264.475971 
z
" clip-path="url(#p4f8d859c8c)" style="fill: #2e5475; fill-opacity: 0.3"/>
    <path d="M 85.170005 127.212768 
L 93.491076 136.211132 
L 98.774489 138.898844 
L 90.504641 129.956489 
z
" clip-path="url(#p4f8d859c8c)" style="fill: #1f3a51; fill-opacity: 0.3"/>
    <path d="M 93.491076 136.211132 
L 101.815564 145.213191 
L 107.047712 147.844848 
L 98.774489 138.898844 
z
" clip-path="url(#p4f8d859c8c)" style="fill: #1f3a51; fill-opacity: 0.3"/>
    <path d="M 101.815564 145.213191 
L 110.14347 154.218947 
L 115.324311 156.794504 
L 107.047712 147.844848 
z
" clip-path="url(#p4f8d859c8c)" style="fill: #1f3a51; fill-opacity: 0.3"/>
    <path d="M 110.14347 154.218947 
L 118.474798 163.228403 
L 123.604289 165.747812 
L 115.324311 156.794504 
z
" clip-path="url(#p4f8d859c8c)" style="fill: #1f3a51; fill-opacity: 0.3"/>
    <path d="M 118.474798 163.228403 
L 126.809549 172.24156 
L 131.887648 174.704777 
L 123.604289 165.747812 
z
" clip-path="url(#p4f8d859c8c)" style="fill: #1f3a51; fill-opacity: 0.3"/>
    <path d="M 126.809549 172.24156 
L 135.147725 181.258422 
L 140.17439 183.665399 
L 131.887648 174.704777 
z
" clip-path="url(#p4f8d859c8c)" style="fill: #1f3a51; fill-opacity: 0.3"/>
    <path d="M 135.147725 181.258422 
L 143.489329 190.27899 
L 148.464516 192.629681 
L 140.17439 183.665399 
z
" clip-path="url(#p4f8d859c8c)" style="fill: #1f3a51; fill-opacity: 0.3"/>
    <path d="M 143.489329 190.27899 
L 151.834362 199.303267 
L 156.758029 201.597626 
L 148.464516 192.629681 
z
" clip-path="url(#p4f8d859c8c)" style="fill: #1f3a51; fill-opacity: 0.3"/>
    <path d="M 151.834362 199.303267 
L 160.182826 208.331255 
L 165.054931 210.569235 
L 156.758029 201.597626 
z
" clip-path="url(#p4f8d859c8c)" style="fill: #1f3a51; fill-opacity: 0.3"/>
    <path d="M 160.182826 208.331255 
L 168.534725 217.362956 
L 173.355224 219.544511 
L 165.054931 210.569235 
z
" clip-path="url(#p4f8d859c8c)" style="fill: #1f3a51; fill-opacity: 0.3"/>
    <path d="M 168.534725 217.362956 
L 176.890059 226.398372 
L 181.658911 228.523456 
L 173.355224 219.544511 
z
" clip-path="url(#p4f8d859c8c)" style="fill: #1f3a51; fill-opacity: 0.3"/>
    <path d="M 176.890059 226.398372 
L 185.248831 235.437507 
L 189.965992 237.506072 
L 181.658911 228.523456 
z
" clip-path="url(#p4f8d859c8c)" style="fill: #1f3a51; fill-opacity: 0.3"/>
    <path d="M 185.248831 235.437507 
L 193.611044 244.480361 
L 198.276471 246.492362 
L 189.965992 237.506072 
z
" clip-path="url(#p4f8d859c8c)" style="fill: #1f3a51; fill-opacity: 0.3"/>
    <path d="M 193.611044 244.480361 
L 201.976698 253.526938 
L 206.590349 255.482328 
L 198.276471 246.492362 
z
" clip-path="url(#p4f8d859c8c)" style="fill: #1f3a51; fill-opacity: 0.3"/>
    <path d="M 201.976698 253.526938 
L 210.345797 262.577239 
L 214.907629 264.475971 
L 206.590349 255.482328 
z
" clip-path="url(#p4f8d859c8c)" style="fill: #1f3a51; fill-opacity: 0.3"/>
    <path d="M 210.345797 262.577239 
L 218.718343 271.631268 
L 214.907629 264.475971 
z
" clip-path="url(#p4f8d859c8c)" style="fill: #1f3a51; fill-opacity: 0.3"/>
    <path d="M 71.397984 115.382779 
L 79.767458 124.434118 
L 85.170005 127.212768 
L 76.852349 118.218096 
z
" clip-path="url(#p4f8d859c8c)" style="fill: #1f3a51; fill-opacity: 0.3"/>
    <path d="M 79.767458 124.434118 
L 88.140389 133.489197 
L 93.491076 136.211132 
L 85.170005 127.212768 
z
" clip-path="url(#p4f8d859c8c)" style="fill: #1f3a51; fill-opacity: 0.3"/>
    <path d="M 218.718343 271.631268 
z
" clip-path="url(#p4f8d859c8c)" style="fill: #2e5475; fill-opacity: 0.3"/>
    <path d="M 88.140389 133.489197 
L 96.51678 142.548017 
L 101.815564 145.213191 
L 93.491076 136.211132 
z
" clip-path="url(#p4f8d859c8c)" style="fill: #1f3a51; fill-opacity: 0.3"/>
    <path d="M 96.51678 142.548017 
L 104.896634 151.610582 
L 110.14347 154.218947 
L 101.815564 145.213191 
z
" clip-path="url(#p4f8d859c8c)" style="fill: #1f3a51; fill-opacity: 0.3"/>
    <path d="M 104.896634 151.610582 
L 113.279952 160.676894 
L 118.474798 163.228403 
L 110.14347 154.218947 
z
" clip-path="url(#p4f8d859c8c)" style="fill: #1f3a51; fill-opacity: 0.3"/>
    <path d="M 113.279952 160.676894 
L 121.666736 169.746954 
L 126.809549 172.24156 
L 118.474798 163.228403 
z
" clip-path="url(#p4f8d859c8c)" style="fill: #1f3a51; fill-opacity: 0.3"/>
    <path d="M 121.666736 169.746954 
L 130.056989 178.820766 
L 135.147725 181.258422 
L 126.809549 172.24156 
z
" clip-path="url(#p4f8d859c8c)" style="fill: #1f3a51; fill-opacity: 0.3"/>
    <path d="M 130.056989 178.820766 
L 138.450713 187.898331 
L 143.489329 190.27899 
L 135.147725 181.258422 
z
" clip-path="url(#p4f8d859c8c)" style="fill: #1f3a51; fill-opacity: 0.3"/>
    <path d="M 138.450713 187.898331 
L 146.84791 196.979652 
L 151.834362 199.303267 
L 143.489329 190.27899 
z
" clip-path="url(#p4f8d859c8c)" style="fill: #1f3a51; fill-opacity: 0.3"/>
    <path d="M 146.84791 196.979652 
L 155.248582 206.064731 
L 160.182826 208.331255 
L 151.834362 199.303267 
z
" clip-path="url(#p4f8d859c8c)" style="fill: #1f3a51; fill-opacity: 0.3"/>
    <path d="M 155.248582 206.064731 
L 163.652731 215.153571 
L 168.534725 217.362956 
L 160.182826 208.331255 
z
" clip-path="url(#p4f8d859c8c)" style="fill: #1f3a51; fill-opacity: 0.3"/>
    <path d="M 163.652731 215.153571 
L 172.060359 224.246174 
L 176.890059 226.398372 
L 168.534725 217.362956 
z
" clip-path="url(#p4f8d859c8c)" style="fill: #1f3a51; fill-opacity: 0.3"/>
    <path d="M 172.060359 224.246174 
L 180.47147 233.342542 
L 185.248831 235.437507 
L 176.890059 226.398372 
z
" clip-path="url(#p4f8d859c8c)" style="fill: #1f3a51; fill-opacity: 0.3"/>
    <path d="M 180.47147 233.342542 
L 188.886063 242.442677 
L 193.611044 244.480361 
L 185.248831 235.437507 
z
" clip-path="url(#p4f8d859c8c)" style="fill: #1f3a51; fill-opacity: 0.3"/>
    <path d="M 188.886063 242.442677 
L 197.304143 251.546583 
L 201.976698 253.526938 
L 193.611044 244.480361 
z
" clip-path="url(#p4f8d859c8c)" style="fill: #1f3a51; fill-opacity: 0.3"/>
    <path d="M 197.304143 251.546583 
L 205.725711 260.654261 
L 210.345797 262.577239 
L 201.976698 253.526938 
z
" clip-path="url(#p4f8d859c8c)" style="fill: #1f3a51; fill-opacity: 0.3"/>
    <path d="M 205.725711 260.654261 
L 214.150769 269.765713 
L 218.718343 271.631268 
L 210.345797 262.577239 
z
" clip-path="url(#p4f8d859c8c)" style="fill: #1f3a51; fill-opacity: 0.3"/>
    <path d="M 214.150769 269.765713 
L 222.57932 278.880942 
L 218.718343 271.631268 
z
" clip-path="url(#p4f8d859c8c)" style="fill: #1f3a51; fill-opacity: 0.3"/>
    <path d="M 74.295692 121.619868 
L 79.767458 124.434118 
L 71.397984 115.382779 
z
" clip-path="url(#p4f8d859c8c)" style="fill: #1f3a51; fill-opacity: 0.3"/>
    <path d="M 74.295692 121.619868 
L 82.721134 130.732381 
L 88.140389 133.489197 
L 79.767458 124.434118 
z
" clip-path="url(#p4f8d859c8c)" style="fill: #1f3a51; fill-opacity: 0.3"/>
    <path d="M 82.721134 130.732381 
L 91.15008 139.848683 
L 96.51678 142.548017 
L 88.140389 133.489197 
z
" clip-path="url(#p4f8d859c8c)" style="fill: #1f3a51; fill-opacity: 0.3"/>
    <path d="M 222.57932 278.880942 
z
" clip-path="url(#p4f8d859c8c)" style="fill: #2e5475; fill-opacity: 0.3"/>
    <path d="M 91.15008 139.848683 
L 99.582532 148.968778 
L 104.896634 151.610582 
L 96.51678 142.548017 
z
" clip-path="url(#p4f8d859c8c)" style="fill: #1f3a51; fill-opacity: 0.3"/>
    <path d="M 99.582532 148.968778 
L 108.018493 158.092667 
L 113.279952 160.676894 
L 104.896634 151.610582 
z
" clip-path="url(#p4f8d859c8c)" style="fill: #1f3a51; fill-opacity: 0.3"/>
    <path d="M 108.018493 158.092667 
L 116.457965 167.220353 
L 121.666736 169.746954 
L 113.279952 160.676894 
z
" clip-path="url(#p4f8d859c8c)" style="fill: #1f3a51; fill-opacity: 0.3"/>
    <path d="M 116.457965 167.220353 
L 124.900949 176.351839 
L 130.056989 178.820766 
L 121.666736 169.746954 
z
" clip-path="url(#p4f8d859c8c)" style="fill: #1f3a51; fill-opacity: 0.3"/>
    <path d="M 124.900949 176.351839 
L 133.347448 185.487126 
L 138.450713 187.898331 
L 130.056989 178.820766 
z
" clip-path="url(#p4f8d859c8c)" style="fill: #1f3a51; fill-opacity: 0.3"/>
    <path d="M 133.347448 185.487126 
L 141.797465 194.626217 
L 146.84791 196.979652 
L 138.450713 187.898331 
z
" clip-path="url(#p4f8d859c8c)" style="fill: #1f3a51; fill-opacity: 0.3"/>
    <path d="M 141.797465 194.626217 
L 150.251001 203.769114 
L 155.248582 206.064731 
L 146.84791 196.979652 
z
" clip-path="url(#p4f8d859c8c)" style="fill: #1f3a51; fill-opacity: 0.3"/>
    <path d="M 150.251001 203.769114 
L 158.708058 212.915821 
L 163.652731 215.153571 
L 155.248582 206.064731 
z
" clip-path="url(#p4f8d859c8c)" style="fill: #1f3a51; fill-opacity: 0.3"/>
    <path d="M 158.708058 212.915821 
L 167.16864 222.066338 
L 172.060359 224.246174 
L 163.652731 215.153571 
z
" clip-path="url(#p4f8d859c8c)" style="fill: #1f3a51; fill-opacity: 0.3"/>
    <path d="M 167.16864 222.066338 
L 175.632747 231.220669 
L 180.47147 233.342542 
L 172.060359 224.246174 
z
" clip-path="url(#p4f8d859c8c)" style="fill: #1f3a51; fill-opacity: 0.3"/>
    <path d="M 175.632747 231.220669 
L 184.100382 240.378816 
L 188.886063 242.442677 
L 180.47147 233.342542 
z
" clip-path="url(#p4f8d859c8c)" style="fill: #1f3a51; fill-opacity: 0.3"/>
    <path d="M 184.100382 240.378816 
L 192.571548 249.540781 
L 197.304143 251.546583 
L 188.886063 242.442677 
z
" clip-path="url(#p4f8d859c8c)" style="fill: #1f3a51; fill-opacity: 0.3"/>
    <path d="M 192.571548 249.540781 
L 201.046247 258.706567 
L 205.725711 260.654261 
L 197.304143 251.546583 
z
" clip-path="url(#p4f8d859c8c)" style="fill: #1f3a51; fill-opacity: 0.3"/>
    <path d="M 74.295692 121.619868 
z
" clip-path="url(#p4f8d859c8c)" style="fill: #2e5475; fill-opacity: 0.3"/>
    <path d="M 201.046247 258.706567 
L 209.524481 267.876176 
L 214.150769 269.765713 
L 205.725711 260.654261 
z
" clip-path="url(#p4f8d859c8c)" style="fill: #1f3a51; fill-opacity: 0.3"/>
    <path d="M 209.524481 267.876176 
L 218.006251 277.049611 
L 222.57932 278.880942 
L 214.150769 269.765713 
z
" clip-path="url(#p4f8d859c8c)" style="fill: #1f3a51; fill-opacity: 0.3"/>
    <path d="M 218.006251 277.049611 
L 226.491561 286.226873 
L 222.57932 278.880942 
z
" clip-path="url(#p4f8d859c8c)" style="fill: #1f3a51; fill-opacity: 0.3"/>
    <path d="M 77.231985 127.940009 
L 82.721134 130.732381 
L 74.295692 121.619868 
z
" clip-path="url(#p4f8d859c8c)" style="fill: #1f3a51; fill-opacity: 0.3"/>
    <path d="M 77.231985 127.940009 
L 85.714149 137.114527 
L 91.15008 139.848683 
L 82.721134 130.732381 
z
" clip-path="url(#p4f8d859c8c)" style="fill: #1f3a51; fill-opacity: 0.3"/>
    <path d="M 85.714149 137.114527 
L 94.199865 146.292887 
L 99.582532 148.968778 
L 91.15008 139.848683 
z
" clip-path="url(#p4f8d859c8c)" style="fill: #1f3a51; fill-opacity: 0.3"/>
    <path d="M 94.199865 146.292887 
L 102.689133 155.47509 
L 108.018493 158.092667 
L 99.582532 148.968778 
z
" clip-path="url(#p4f8d859c8c)" style="fill: #1f3a51; fill-opacity: 0.3"/>
    <path d="M 102.689133 155.47509 
L 111.181958 164.661139 
L 116.457965 167.220353 
L 108.018493 158.092667 
z
" clip-path="url(#p4f8d859c8c)" style="fill: #1f3a51; fill-opacity: 0.3"/>
    <path d="M 111.181958 164.661139 
L 119.67834 173.851036 
L 124.900949 176.351839 
L 116.457965 167.220353 
z
" clip-path="url(#p4f8d859c8c)" style="fill: #1f3a51; fill-opacity: 0.3"/>
    <path d="M 119.67834 173.851036 
L 128.178282 183.044783 
L 133.347448 185.487126 
L 124.900949 176.351839 
z
" clip-path="url(#p4f8d859c8c)" style="fill: #1f3a51; fill-opacity: 0.3"/>
    <path d="M 128.178282 183.044783 
L 136.681787 192.242384 
L 141.797465 194.626217 
L 133.347448 185.487126 
z
" clip-path="url(#p4f8d859c8c)" style="fill: #1f3a51; fill-opacity: 0.3"/>
    <path d="M 136.681787 192.242384 
L 145.188856 201.44384 
L 150.251001 203.769114 
L 141.797465 194.626217 
z
" clip-path="url(#p4f8d859c8c)" style="fill: #1f3a51; fill-opacity: 0.3"/>
    <path d="M 145.188856 201.44384 
L 153.699492 210.649155 
L 158.708058 212.915821 
L 150.251001 203.769114 
z
" clip-path="url(#p4f8d859c8c)" style="fill: #1f3a51; fill-opacity: 0.3"/>
    <path d="M 153.699492 210.649155 
L 162.213697 219.858329 
L 167.16864 222.066338 
L 158.708058 212.915821 
z
" clip-path="url(#p4f8d859c8c)" style="fill: #1f3a51; fill-opacity: 0.3"/>
    <path d="M 162.213697 219.858329 
L 170.731474 229.071367 
L 175.632747 231.220669 
L 167.16864 222.066338 
z
" clip-path="url(#p4f8d859c8c)" style="fill: #1f3a51; fill-opacity: 0.3"/>
    <path d="M 170.731474 229.071367 
L 179.252823 238.288269 
L 184.100382 240.378816 
L 175.632747 231.220669 
z
" clip-path="url(#p4f8d859c8c)" style="fill: #1f3a51; fill-opacity: 0.3"/>
    <path d="M 179.252823 238.288269 
L 187.777749 247.50904 
L 192.571548 249.540781 
L 184.100382 240.378816 
z
" clip-path="url(#p4f8d859c8c)" style="fill: #1f3a51; fill-opacity: 0.3"/>
    <path d="M 187.777749 247.50904 
L 196.306253 256.73368 
L 201.046247 258.706567 
L 192.571548 249.540781 
z
" clip-path="url(#p4f8d859c8c)" style="fill: #1f3a51; fill-opacity: 0.3"/>
    <path d="M 196.306253 256.73368 
L 204.838337 265.962193 
L 209.524481 267.876176 
L 201.046247 258.706567 
z
" clip-path="url(#p4f8d859c8c)" style="fill: #1f3a51; fill-opacity: 0.3"/>
    <path d="M 77.231985 127.940009 
z
" clip-path="url(#p4f8d859c8c)" style="fill: #2e5475; fill-opacity: 0.3"/>
    <path d="M 204.838337 265.962193 
L 213.374004 275.194581 
L 218.006251 277.049611 
L 209.524481 267.876176 
z
" clip-path="url(#p4f8d859c8c)" style="fill: #1f3a51; fill-opacity: 0.3"/>
    <path d="M 213.374004 275.194581 
L 221.913255 284.430846 
L 226.491561 286.226873 
L 218.006251 277.049611 
z
" clip-path="url(#p4f8d859c8c)" style="fill: #1f3a51; fill-opacity: 0.3"/>
    <path d="M 80.207639 134.344872 
L 85.714149 137.114527 
L 77.231985 127.940009 
z
" clip-path="url(#p4f8d859c8c)" style="fill: #1f3a51; fill-opacity: 0.3"/>
    <path d="M 80.207639 134.344872 
L 88.747295 143.582246 
L 94.199865 146.292887 
L 85.714149 137.114527 
z
" clip-path="url(#p4f8d859c8c)" style="fill: #1f3a51; fill-opacity: 0.3"/>
    <path d="M 88.747295 143.582246 
L 97.290549 152.823512 
L 102.689133 155.47509 
L 94.199865 146.292887 
z
" clip-path="url(#p4f8d859c8c)" style="fill: #1f3a51; fill-opacity: 0.3"/>
    <path d="M 97.290549 152.823512 
L 105.837405 162.068675 
L 111.181958 164.661139 
L 102.689133 155.47509 
z
" clip-path="url(#p4f8d859c8c)" style="fill: #1f3a51; fill-opacity: 0.3"/>
    <path d="M 105.837405 162.068675 
L 114.387865 171.317735 
L 119.67834 173.851036 
L 111.181958 164.661139 
z
" clip-path="url(#p4f8d859c8c)" style="fill: #1f3a51; fill-opacity: 0.3"/>
    <path d="M 114.387865 171.317735 
L 122.94193 180.570697 
L 128.178282 183.044783 
L 119.67834 173.851036 
z
" clip-path="url(#p4f8d859c8c)" style="fill: #1f3a51; fill-opacity: 0.3"/>
    <path d="M 122.94193 180.570697 
L 131.499604 189.827561 
L 136.681787 192.242384 
L 128.178282 183.044783 
z
" clip-path="url(#p4f8d859c8c)" style="fill: #1f3a51; fill-opacity: 0.3"/>
    <path d="M 131.499604 189.827561 
L 140.060889 199.088331 
L 145.188856 201.44384 
L 136.681787 192.242384 
z
" clip-path="url(#p4f8d859c8c)" style="fill: #1f3a51; fill-opacity: 0.3"/>
    <path d="M 140.060889 199.088331 
L 148.625786 208.353009 
L 153.699492 210.649155 
L 145.188856 201.44384 
z
" clip-path="url(#p4f8d859c8c)" style="fill: #1f3a51; fill-opacity: 0.3"/>
    <path d="M 148.625786 208.353009 
L 157.194299 217.621598 
L 162.213697 219.858329 
L 153.699492 210.649155 
z
" clip-path="url(#p4f8d859c8c)" style="fill: #1f3a51; fill-opacity: 0.3"/>
    <path d="M 157.194299 217.621598 
L 165.766429 226.894099 
L 170.731474 229.071367 
L 162.213697 219.858329 
z
" clip-path="url(#p4f8d859c8c)" style="fill: #1f3a51; fill-opacity: 0.3"/>
    <path d="M 165.766429 226.894099 
L 174.342179 236.170516 
L 179.252823 238.288269 
L 170.731474 229.071367 
z
" clip-path="url(#p4f8d859c8c)" style="fill: #1f3a51; fill-opacity: 0.3"/>
    <path d="M 174.342179 236.170516 
L 182.92155 245.450852 
L 187.777749 247.50904 
L 179.252823 238.288269 
z
" clip-path="url(#p4f8d859c8c)" style="fill: #1f3a51; fill-opacity: 0.3"/>
    <path d="M 182.92155 245.450852 
L 191.504547 254.735107 
L 196.306253 256.73368 
L 187.777749 247.50904 
z
" clip-path="url(#p4f8d859c8c)" style="fill: #1f3a51; fill-opacity: 0.3"/>
    <path d="M 191.504547 254.735107 
L 200.09117 264.023286 
L 204.838337 265.962193 
L 196.306253 256.73368 
z
" clip-path="url(#p4f8d859c8c)" style="fill: #1f3a51; fill-opacity: 0.3"/>
    <path d="M 200.09117 264.023286 
L 208.681421 273.31539 
L 213.374004 275.194581 
L 204.838337 265.962193 
z
" clip-path="url(#p4f8d859c8c)" style="fill: #1f3a51; fill-opacity: 0.3"/>
    <path d="M 80.207639 134.344872 
z
" clip-path="url(#p4f8d859c8c)" style="fill: #2e5475; fill-opacity: 0.3"/>
    <path d="M 208.681421 273.31539 
L 217.275304 282.611421 
L 221.913255 284.430846 
L 213.374004 275.194581 
z
" clip-path="url(#p4f8d859c8c)" style="fill: #1f3a51; fill-opacity: 0.3"/>
    <path d="M 83.223452 140.836172 
L 88.747295 143.582246 
L 80.207639 134.344872 
z
" clip-path="url(#p4f8d859c8c)" style="fill: #1f3a51; fill-opacity: 0.3"/>
    <path d="M 83.223452 140.836172 
L 91.821383 150.137267 
L 97.290549 152.823512 
L 88.747295 143.582246 
z
" clip-path="url(#p4f8d859c8c)" style="fill: #1f3a51; fill-opacity: 0.3"/>
    <path d="M 91.821383 150.137267 
L 100.422962 159.442309 
L 105.837405 162.068675 
L 97.290549 152.823512 
z
" clip-path="url(#p4f8d859c8c)" style="fill: #1f3a51; fill-opacity: 0.3"/>
    <path d="M 100.422962 159.442309 
L 109.028191 168.7513 
L 114.387865 171.317735 
L 105.837405 162.068675 
z
" clip-path="url(#p4f8d859c8c)" style="fill: #1f3a51; fill-opacity: 0.3"/>
    <path d="M 109.028191 168.7513 
L 117.637073 178.064243 
L 122.94193 180.570697 
L 114.387865 171.317735 
z
" clip-path="url(#p4f8d859c8c)" style="fill: #1f3a51; fill-opacity: 0.3"/>
    <path d="M 117.637073 178.064243 
L 126.249611 187.381139 
L 131.499604 189.827561 
L 122.94193 180.570697 
z
" clip-path="url(#p4f8d859c8c)" style="fill: #1f3a51; fill-opacity: 0.3"/>
    <path d="M 126.249611 187.381139 
L 134.865806 196.701993 
L 140.060889 199.088331 
L 131.499604 189.827561 
z
" clip-path="url(#p4f8d859c8c)" style="fill: #1f3a51; fill-opacity: 0.3"/>
    <path d="M 134.865806 196.701993 
L 143.485661 206.026805 
L 148.625786 208.353009 
L 140.060889 199.088331 
z
" clip-path="url(#p4f8d859c8c)" style="fill: #1f3a51; fill-opacity: 0.3"/>
    <path d="M 143.485661 206.026805 
L 152.109178 215.355579 
L 157.194299 217.621598 
L 148.625786 208.353009 
z
" clip-path="url(#p4f8d859c8c)" style="fill: #1f3a51; fill-opacity: 0.3"/>
    <path d="M 152.109178 215.355579 
L 160.73636 224.688318 
L 165.766429 226.894099 
L 157.194299 217.621598 
z
" clip-path="url(#p4f8d859c8c)" style="fill: #1f3a51; fill-opacity: 0.3"/>
    <path d="M 160.73636 224.688318 
L 169.367208 234.025023 
L 174.342179 236.170516 
L 165.766429 226.894099 
z
" clip-path="url(#p4f8d859c8c)" style="fill: #1f3a51; fill-opacity: 0.3"/>
    <path d="M 169.367208 234.025023 
L 178.001726 243.365697 
L 182.92155 245.450852 
L 174.342179 236.170516 
z
" clip-path="url(#p4f8d859c8c)" style="fill: #1f3a51; fill-opacity: 0.3"/>
    <path d="M 178.001726 243.365697 
L 186.639915 252.710343 
L 191.504547 254.735107 
L 182.92155 245.450852 
z
" clip-path="url(#p4f8d859c8c)" style="fill: #1f3a51; fill-opacity: 0.3"/>
    <path d="M 186.639915 252.710343 
L 195.281778 262.058964 
L 200.09117 264.023286 
L 191.504547 254.735107 
z
" clip-path="url(#p4f8d859c8c)" style="fill: #1f3a51; fill-opacity: 0.3"/>
    <path d="M 195.281778 262.058964 
L 203.927318 271.411561 
L 208.681421 273.31539 
L 200.09117 264.023286 
z
" clip-path="url(#p4f8d859c8c)" style="fill: #1f3a51; fill-opacity: 0.3"/>
    <path d="M 203.927318 271.411561 
L 212.576536 280.768138 
L 217.275304 282.611421 
L 208.681421 273.31539 
z
" clip-path="url(#p4f8d859c8c)" style="fill: #1f3a51; fill-opacity: 0.3"/>
    <path d="M 83.223452 140.836172 
z
" clip-path="url(#p4f8d859c8c)" style="fill: #2e5475; fill-opacity: 0.3"/>
    <path d="M 86.280241 147.415671 
L 91.821383 150.137267 
L 83.223452 140.836172 
z
" clip-path="url(#p4f8d859c8c)" style="fill: #1f3a51; fill-opacity: 0.3"/>
    <path d="M 86.280241 147.415671 
L 94.937248 156.781373 
L 100.422962 159.442309 
L 91.821383 150.137267 
z
" clip-path="url(#p4f8d859c8c)" style="fill: #1f3a51; fill-opacity: 0.3"/>
    <path d="M 94.937248 156.781373 
L 103.597953 166.151076 
L 109.028191 168.7513 
L 100.422962 159.442309 
z
" clip-path="url(#p4f8d859c8c)" style="fill: #1f3a51; fill-opacity: 0.3"/>
    <path d="M 103.597953 166.151076 
L 112.262359 175.524782 
L 117.637073 178.064243 
L 109.028191 168.7513 
z
" clip-path="url(#p4f8d859c8c)" style="fill: #1f3a51; fill-opacity: 0.3"/>
    <path d="M 112.262359 175.524782 
L 120.930468 184.902495 
L 126.249611 187.381139 
L 117.637073 178.064243 
z
" clip-path="url(#p4f8d859c8c)" style="fill: #1f3a51; fill-opacity: 0.3"/>
    <path d="M 120.930468 184.902495 
L 129.602282 194.284216 
L 134.865806 196.701993 
L 126.249611 187.381139 
z
" clip-path="url(#p4f8d859c8c)" style="fill: #1f3a51; fill-opacity: 0.3"/>
    <path d="M 129.602282 194.284216 
L 138.277804 203.669949 
L 143.485661 206.026805 
L 134.865806 196.701993 
z
" clip-path="url(#p4f8d859c8c)" style="fill: #1f3a51; fill-opacity: 0.3"/>
    <path d="M 138.277804 203.669949 
L 146.957036 213.059695 
L 152.109178 215.355579 
L 143.485661 206.026805 
z
" clip-path="url(#p4f8d859c8c)" style="fill: #1f3a51; fill-opacity: 0.3"/>
    <path d="M 146.957036 213.059695 
L 155.639981 222.453458 
L 160.73636 224.688318 
L 152.109178 215.355579 
z
" clip-path="url(#p4f8d859c8c)" style="fill: #1f3a51; fill-opacity: 0.3"/>
    <path d="M 155.639981 222.453458 
L 164.32664 231.85124 
L 169.367208 234.025023 
L 160.73636 224.688318 
z
" clip-path="url(#p4f8d859c8c)" style="fill: #1f3a51; fill-opacity: 0.3"/>
    <path d="M 164.32664 231.85124 
L 173.017017 241.253043 
L 178.001726 243.365697 
L 169.367208 234.025023 
z
" clip-path="url(#p4f8d859c8c)" style="fill: #1f3a51; fill-opacity: 0.3"/>
    <path d="M 173.017017 241.253043 
L 181.711114 250.65887 
L 186.639915 252.710343 
L 178.001726 243.365697 
z
" clip-path="url(#p4f8d859c8c)" style="fill: #1f3a51; fill-opacity: 0.3"/>
    <path d="M 181.711114 250.65887 
L 190.408932 260.068725 
L 195.281778 262.058964 
L 186.639915 252.710343 
z
" clip-path="url(#p4f8d859c8c)" style="fill: #1f3a51; fill-opacity: 0.3"/>
    <path d="M 190.408932 260.068725 
L 199.110475 269.482608 
L 203.927318 271.411561 
L 195.281778 262.058964 
z
" clip-path="url(#p4f8d859c8c)" style="fill: #1f3a51; fill-opacity: 0.3"/>
    <path d="M 199.110475 269.482608 
L 207.815745 278.900524 
L 212.576536 280.768138 
L 203.927318 271.411561 
z
" clip-path="url(#p4f8d859c8c)" style="fill: #1f3a51; fill-opacity: 0.3"/>
   </g>
  </g>
 </g>
 <defs>
  <clipPath id="p4f8d859c8c">
   <rect x="7.2" y="22.318125" width="322.65" height="322.65"/>
  </clipPath>
 </defs>
</svg>
