<?xml version="1.0" encoding="utf-8" standalone="no"?>
<!DOCTYPE svg PUBLIC "-//W3C//DTD SVG 1.1//EN"
  "http://www.w3.org/Graphics/SVG/1.1/DTD/svg11.dtd">
<svg xmlns:xlink="http://www.w3.org/1999/xlink" width="672.48pt" height="276.208359pt" viewBox="0 0 672.48 276.208359" xmlns="http://www.w3.org/2000/svg" version="1.1">
 <metadata>
  <rdf:RDF xmlns:dc="http://purl.org/dc/elements/1.1/" xmlns:cc="http://creativecommons.org/ns#" xmlns:rdf="http://www.w3.org/1999/02/22-rdf-syntax-ns#">
   <cc:Work>
    <dc:type rdf:resource="http://purl.org/dc/dcmitype/StillImage"/>
    <dc:date>2026-07-17T22:01:02.110195</dc:date>
    <dc:format>image/svg+xml</dc:format>
    <dc:creator>
     <cc:Agent>
      <dc:title>Matplotlib v3.10.8, https://matplotlib.org/</dc:title>
     </cc:Agent>
    </dc:creator>
   </cc:Work>
  </rdf:RDF>
 </metadata>
 <defs>
  <style type="text/css">*{stroke-linejoin: round; stroke-linecap: butt}</style>
 </defs>
 <g id="figure_1">
  <g id="patch_1">
   <path d="M 0 276.208359 
L 672.48 276.208359 
L 672.48 0 
L 0 0 
z
" style="fill: #ffffff"/>
  </g>
  <g id="axes_1">
   <g id="patch_2">
    <path d="M 7.2 269.008359 
L 329.76 269.008359 
L 329.76 21.178359 
L 7.2 21.178359 
z
" style="fill: #ffffff"/>
   </g>
   <g id="matplotlib.axis_1"/>
   <g id="matplotlib.axis_2"/>
   <g id="PathCollection_1">
    <defs>
     <path id="maac4327d85" d="M 0 2.738613 
C 0.726289 2.738613 1.422928 2.450055 1.936492 1.936492 
C 2.450055 1.422928 2.738613 0.726289 2.738613 0 
C 2.738613 -0.726289 2.450055 -1.422928 1.936492 -1.936492 
C 1.422928 -2.450055 0.726289 -2.738613 0 -2.738613 
C -0.726289 -2.738613 -1.422928 -2.450055 -1.936492 -1.936492 
C -2.450055 -1.422928 -2.738613 -0.726289 -2.738613 0 
C -2.738613 0.726289 -2.450055 1.422928 -1.936492 1.936492 
C -1.422928 2.450055 -0.726289 2.738613 0 2.738613 
z
" style="stroke: #0096ff; stroke-opacity: 0.75; stroke-width: 0.5"/>
    </defs>
    <g clip-path="url(#p72976925b3)">
     <use xlink:href="#maac4327d85" x="34.821757" y="88.848617" style="fill: #0096ff; fill-opacity: 0.75; stroke: #0096ff; stroke-opacity: 0.75; stroke-width: 0.5"/>
     <use xlink:href="#maac4327d85" x="39.764058" y="78.931286" style="fill: #0096ff; fill-opacity: 0.75; stroke: #0096ff; stroke-opacity: 0.75; stroke-width: 0.5"/>
     <use xlink:href="#maac4327d85" x="27.295931" y="77.293007" style="fill: #0096ff; fill-opacity: 0.75; stroke: #0096ff; stroke-opacity: 0.75; stroke-width: 0.5"/>
     <use xlink:href="#maac4327d85" x="45.056468" y="66.394321" style="fill: #0096ff; fill-opacity: 0.75; stroke: #0096ff; stroke-opacity: 0.75; stroke-width: 0.5"/>
     <use xlink:href="#maac4327d85" x="70.138526" y="61.373785" style="fill: #0096ff; fill-opacity: 0.75; stroke: #0096ff; stroke-opacity: 0.75; stroke-width: 0.5"/>
     <use xlink:href="#maac4327d85" x="67.656928" y="75.925081" style="fill: #0096ff; fill-opacity: 0.75; stroke: #0096ff; stroke-opacity: 0.75; stroke-width: 0.5"/>
     <use xlink:href="#maac4327d85" x="68.86674" y="60.233846" style="fill: #0096ff; fill-opacity: 0.75; stroke: #0096ff; stroke-opacity: 0.75; stroke-width: 0.5"/>
     <use xlink:href="#maac4327d85" x="49.035297" y="69.246099" style="fill: #0096ff; fill-opacity: 0.75; stroke: #0096ff; stroke-opacity: 0.75; stroke-width: 0.5"/>
     <use xlink:href="#maac4327d85" x="57.040802" y="60.892948" style="fill: #0096ff; fill-opacity: 0.75; stroke: #0096ff; stroke-opacity: 0.75; stroke-width: 0.5"/>
     <use xlink:href="#maac4327d85" x="46.633328" y="78.427171" style="fill: #0096ff; fill-opacity: 0.75; stroke: #0096ff; stroke-opacity: 0.75; stroke-width: 0.5"/>
     <use xlink:href="#maac4327d85" x="137.948085" y="111.515931" style="fill: #0096ff; fill-opacity: 0.75; stroke: #0096ff; stroke-opacity: 0.75; stroke-width: 0.5"/>
     <use xlink:href="#maac4327d85" x="111.716674" y="110.488533" style="fill: #0096ff; fill-opacity: 0.75; stroke: #0096ff; stroke-opacity: 0.75; stroke-width: 0.5"/>
     <use xlink:href="#maac4327d85" x="131.647206" y="116.528413" style="fill: #0096ff; fill-opacity: 0.75; stroke: #0096ff; stroke-opacity: 0.75; stroke-width: 0.5"/>
     <use xlink:href="#maac4327d85" x="131.164927" y="111.909982" style="fill: #0096ff; fill-opacity: 0.75; stroke: #0096ff; stroke-opacity: 0.75; stroke-width: 0.5"/>
     <use xlink:href="#maac4327d85" x="109.397951" y="98.48423" style="fill: #0096ff; fill-opacity: 0.75; stroke: #0096ff; stroke-opacity: 0.75; stroke-width: 0.5"/>
     <use xlink:href="#maac4327d85" x="121.911668" y="136.680911" style="fill: #0096ff; fill-opacity: 0.75; stroke: #0096ff; stroke-opacity: 0.75; stroke-width: 0.5"/>
     <use xlink:href="#maac4327d85" x="132.125806" y="99.44056" style="fill: #0096ff; fill-opacity: 0.75; stroke: #0096ff; stroke-opacity: 0.75; stroke-width: 0.5"/>
     <use xlink:href="#maac4327d85" x="126.404253" y="98.496221" style="fill: #0096ff; fill-opacity: 0.75; stroke: #0096ff; stroke-opacity: 0.75; stroke-width: 0.5"/>
     <use xlink:href="#maac4327d85" x="153.602168" y="122.800675" style="fill: #0096ff; fill-opacity: 0.75; stroke: #0096ff; stroke-opacity: 0.75; stroke-width: 0.5"/>
     <use xlink:href="#maac4327d85" x="100.897057" y="126.550545" style="fill: #0096ff; fill-opacity: 0.75; stroke: #0096ff; stroke-opacity: 0.75; stroke-width: 0.5"/>
    </g>
   </g>
   <g id="patch_3">
    <path d="M 88.156282 139.392712 
C 108.350347 139.392712 127.720035 134.454235 141.999396 125.664923 
C 156.278757 116.875611 164.301944 104.953072 164.301944 92.523108 
C 164.301944 80.093144 156.278757 68.170605 141.999396 59.381293 
C 127.720035 50.591981 108.350347 45.653504 88.156282 45.653504 
C 67.962216 45.653504 48.592528 50.591981 34.313167 59.381293 
C 20.033806 68.170605 12.010619 80.093144 12.010619 92.523108 
C 12.010619 104.953072 20.033806 116.875611 34.313167 125.664923 
C 48.592528 134.454235 67.962216 139.392712 88.156282 139.392712 
L 88.156282 139.392712 
z
" clip-path="url(#p72976925b3)" style="fill: none; stroke-dasharray: 5.55,2.4; stroke-dashoffset: 0; stroke: #0096ff; stroke-width: 1.5; stroke-linejoin: miter"/>
   </g>
   <g id="PathCollection_2">
    <defs>
     <path id="m9590c1b434" d="M 0 2.738613 
C 0.726289 2.738613 1.422928 2.450055 1.936492 1.936492 
C 2.450055 1.422928 2.738613 0.726289 2.738613 0 
C 2.738613 -0.726289 2.450055 -1.422928 1.936492 -1.936492 
C 1.422928 -2.450055 0.726289 -2.738613 0 -2.738613 
C -0.726289 -2.738613 -1.422928 -2.450055 -1.936492 -1.936492 
C -2.450055 -1.422928 -2.738613 -0.726289 -2.738613 0 
C -2.738613 0.726289 -2.450055 1.422928 -1.936492 1.936492 
C -1.422928 2.450055 -0.726289 2.738613 0 2.738613 
z
" style="stroke: #ff9300; stroke-opacity: 0.75; stroke-width: 0.5"/>
    </defs>
    <g clip-path="url(#p72976925b3)">
     <use xlink:href="#m9590c1b434" x="219.320112" y="207.529511" style="fill: #ff9300; fill-opacity: 0.75; stroke: #ff9300; stroke-opacity: 0.75; stroke-width: 0.5"/>
     <use xlink:href="#m9590c1b434" x="183.964082" y="212.774207" style="fill: #ff9300; fill-opacity: 0.75; stroke: #ff9300; stroke-opacity: 0.75; stroke-width: 0.5"/>
     <use xlink:href="#m9590c1b434" x="203.762361" y="199.569035" style="fill: #ff9300; fill-opacity: 0.75; stroke: #ff9300; stroke-opacity: 0.75; stroke-width: 0.5"/>
     <use xlink:href="#m9590c1b434" x="215.187277" y="189.348324" style="fill: #ff9300; fill-opacity: 0.75; stroke: #ff9300; stroke-opacity: 0.75; stroke-width: 0.5"/>
     <use xlink:href="#m9590c1b434" x="191.543809" y="200.884433" style="fill: #ff9300; fill-opacity: 0.75; stroke: #ff9300; stroke-opacity: 0.75; stroke-width: 0.5"/>
     <use xlink:href="#m9590c1b434" x="188.90092" y="198.58237" style="fill: #ff9300; fill-opacity: 0.75; stroke: #ff9300; stroke-opacity: 0.75; stroke-width: 0.5"/>
     <use xlink:href="#m9590c1b434" x="188.682435" y="211.390417" style="fill: #ff9300; fill-opacity: 0.75; stroke: #ff9300; stroke-opacity: 0.75; stroke-width: 0.5"/>
     <use xlink:href="#m9590c1b434" x="231.585321" y="198.980078" style="fill: #ff9300; fill-opacity: 0.75; stroke: #ff9300; stroke-opacity: 0.75; stroke-width: 0.5"/>
     <use xlink:href="#m9590c1b434" x="212.188213" y="173.752359" style="fill: #ff9300; fill-opacity: 0.75; stroke: #ff9300; stroke-opacity: 0.75; stroke-width: 0.5"/>
     <use xlink:href="#m9590c1b434" x="214.057632" y="200.45537" style="fill: #ff9300; fill-opacity: 0.75; stroke: #ff9300; stroke-opacity: 0.75; stroke-width: 0.5"/>
     <use xlink:href="#m9590c1b434" x="280.075347" y="241.652881" style="fill: #ff9300; fill-opacity: 0.75; stroke: #ff9300; stroke-opacity: 0.75; stroke-width: 0.5"/>
     <use xlink:href="#m9590c1b434" x="293.700211" y="237.482542" style="fill: #ff9300; fill-opacity: 0.75; stroke: #ff9300; stroke-opacity: 0.75; stroke-width: 0.5"/>
     <use xlink:href="#m9590c1b434" x="302.459017" y="237.628327" style="fill: #ff9300; fill-opacity: 0.75; stroke: #ff9300; stroke-opacity: 0.75; stroke-width: 0.5"/>
     <use xlink:href="#m9590c1b434" x="274.726125" y="238.379597" style="fill: #ff9300; fill-opacity: 0.75; stroke: #ff9300; stroke-opacity: 0.75; stroke-width: 0.5"/>
     <use xlink:href="#m9590c1b434" x="287.559093" y="232.275176" style="fill: #ff9300; fill-opacity: 0.75; stroke: #ff9300; stroke-opacity: 0.75; stroke-width: 0.5"/>
     <use xlink:href="#m9590c1b434" x="297.33125" y="239.728442" style="fill: #ff9300; fill-opacity: 0.75; stroke: #ff9300; stroke-opacity: 0.75; stroke-width: 0.5"/>
     <use xlink:href="#m9590c1b434" x="283.163281" y="214.645685" style="fill: #ff9300; fill-opacity: 0.75; stroke: #ff9300; stroke-opacity: 0.75; stroke-width: 0.5"/>
     <use xlink:href="#m9590c1b434" x="276.210038" y="228.79487" style="fill: #ff9300; fill-opacity: 0.75; stroke: #ff9300; stroke-opacity: 0.75; stroke-width: 0.5"/>
     <use xlink:href="#m9590c1b434" x="299.957945" y="228.585122" style="fill: #ff9300; fill-opacity: 0.75; stroke: #ff9300; stroke-opacity: 0.75; stroke-width: 0.5"/>
     <use xlink:href="#m9590c1b434" x="271.045444" y="254.921199" style="fill: #ff9300; fill-opacity: 0.75; stroke: #ff9300; stroke-opacity: 0.75; stroke-width: 0.5"/>
    </g>
   </g>
   <g id="patch_4">
    <path d="M 245.770996 260.25024 
C 267.083949 260.25024 287.526848 255.731897 302.597382 247.690322 
C 317.667916 239.648748 326.135642 228.740501 326.135642 217.367997 
C 326.135642 205.995493 317.667916 195.087247 302.597382 187.045672 
C 287.526848 179.004098 267.083949 174.485754 245.770996 174.485754 
C 224.458042 174.485754 204.015143 179.004098 188.944609 187.045672 
C 173.874075 195.087247 165.406349 205.995493 165.406349 217.367997 
C 165.406349 228.740501 173.874075 239.648748 188.944609 247.690322 
C 204.015143 255.731897 224.458042 260.25024 245.770996 260.25024 
L 245.770996 260.25024 
z
" clip-path="url(#p72976925b3)" style="fill: none; stroke-dasharray: 5.55,2.4; stroke-dashoffset: 0; stroke: #ff9300; stroke-width: 1.5; stroke-linejoin: miter"/>
   </g>
   <g id="patch_5">
    <path d="M 7.2 269.008359 
L 7.2 21.178359 
" style="fill: none; stroke: #f0f0f0; stroke-width: 3; stroke-linejoin: miter; stroke-linecap: square"/>
   </g>
   <g id="patch_6">
    <path d="M 329.76 269.008359 
L 329.76 21.178359 
" style="fill: none; stroke: #f0f0f0; stroke-width: 3; stroke-linejoin: miter; stroke-linecap: square"/>
   </g>
   <g id="patch_7">
    <path d="M 7.2 269.008359 
L 329.76 269.008359 
" style="fill: none; stroke: #f0f0f0; stroke-width: 3; stroke-linejoin: miter; stroke-linecap: square"/>
   </g>
   <g id="patch_8">
    <path d="M 7.2 21.178359 
L 329.76 21.178359 
" style="fill: none; stroke: #f0f0f0; stroke-width: 3; stroke-linejoin: miter; stroke-linecap: square"/>
   </g>
   <g id="text_1">
    <!-- two clusters? they are right -->
    <g style="fill: #808080" transform="translate(96.320391 15.178359) scale(0.105 -0.105)">
     <defs>
      <path id="DejaVuSans-74" d="M 1172 4494 
L 1172 3500 
L 2356 3500 
L 2356 3053 
L 1172 3053 
L 1172 1153 
Q 1172 725 1289 603 
Q 1406 481 1766 481 
L 2356 481 
L 2356 0 
L 1766 0 
Q 1100 0 847 248 
Q 594 497 594 1153 
L 594 3053 
L 172 3053 
L 172 3500 
L 594 3500 
L 594 4494 
L 1172 4494 
z
" transform="scale(0.015625)"/>
      <path id="DejaVuSans-77" d="M 269 3500 
L 844 3500 
L 1563 769 
L 2278 3500 
L 2956 3500 
L 3675 769 
L 4391 3500 
L 4966 3500 
L 4050 0 
L 3372 0 
L 2619 2869 
L 1863 0 
L 1184 0 
L 269 3500 
z
" transform="scale(0.015625)"/>
      <path id="DejaVuSans-6f" d="M 1959 3097 
Q 1497 3097 1228 2736 
Q 959 2375 959 1747 
Q 959 1119 1226 758 
Q 1494 397 1959 397 
Q 2419 397 2687 759 
Q 2956 1122 2956 1747 
Q 2956 2369 2687 2733 
Q 2419 3097 1959 3097 
z
M 1959 3584 
Q 2709 3584 3137 3096 
Q 3566 2609 3566 1747 
Q 3566 888 3137 398 
Q 2709 -91 1959 -91 
Q 1206 -91 779 398 
Q 353 888 353 1747 
Q 353 2609 779 3096 
Q 1206 3584 1959 3584 
z
" transform="scale(0.015625)"/>
      <path id="DejaVuSans-20" transform="scale(0.015625)"/>
      <path id="DejaVuSans-63" d="M 3122 3366 
L 3122 2828 
Q 2878 2963 2633 3030 
Q 2388 3097 2138 3097 
Q 1578 3097 1268 2742 
Q 959 2388 959 1747 
Q 959 1106 1268 751 
Q 1578 397 2138 397 
Q 2388 397 2633 464 
Q 2878 531 3122 666 
L 3122 134 
Q 2881 22 2623 -34 
Q 2366 -91 2075 -91 
Q 1284 -91 818 406 
Q 353 903 353 1747 
Q 353 2603 823 3093 
Q 1294 3584 2113 3584 
Q 2378 3584 2631 3529 
Q 2884 3475 3122 3366 
z
" transform="scale(0.015625)"/>
      <path id="DejaVuSans-6c" d="M 603 4863 
L 1178 4863 
L 1178 0 
L 603 0 
L 603 4863 
z
" transform="scale(0.015625)"/>
      <path id="DejaVuSans-75" d="M 544 1381 
L 544 3500 
L 1119 3500 
L 1119 1403 
Q 1119 906 1312 657 
Q 1506 409 1894 409 
Q 2359 409 2629 706 
Q 2900 1003 2900 1516 
L 2900 3500 
L 3475 3500 
L 3475 0 
L 2900 0 
L 2900 538 
Q 2691 219 2414 64 
Q 2138 -91 1772 -91 
Q 1169 -91 856 284 
Q 544 659 544 1381 
z
M 1991 3584 
L 1991 3584 
z
" transform="scale(0.015625)"/>
      <path id="DejaVuSans-73" d="M 2834 3397 
L 2834 2853 
Q 2591 2978 2328 3040 
Q 2066 3103 1784 3103 
Q 1356 3103 1142 2972 
Q 928 2841 928 2578 
Q 928 2378 1081 2264 
Q 1234 2150 1697 2047 
L 1894 2003 
Q 2506 1872 2764 1633 
Q 3022 1394 3022 966 
Q 3022 478 2636 193 
Q 2250 -91 1575 -91 
Q 1294 -91 989 -36 
Q 684 19 347 128 
L 347 722 
Q 666 556 975 473 
Q 1284 391 1588 391 
Q 1994 391 2212 530 
Q 2431 669 2431 922 
Q 2431 1156 2273 1281 
Q 2116 1406 1581 1522 
L 1381 1569 
Q 847 1681 609 1914 
Q 372 2147 372 2553 
Q 372 3047 722 3315 
Q 1072 3584 1716 3584 
Q 2034 3584 2315 3537 
Q 2597 3491 2834 3397 
z
" transform="scale(0.015625)"/>
      <path id="DejaVuSans-65" d="M 3597 1894 
L 3597 1613 
L 953 1613 
Q 991 1019 1311 708 
Q 1631 397 2203 397 
Q 2534 397 2845 478 
Q 3156 559 3463 722 
L 3463 178 
Q 3153 47 2828 -22 
Q 2503 -91 2169 -91 
Q 1331 -91 842 396 
Q 353 884 353 1716 
Q 353 2575 817 3079 
Q 1281 3584 2069 3584 
Q 2775 3584 3186 3129 
Q 3597 2675 3597 1894 
z
M 3022 2063 
Q 3016 2534 2758 2815 
Q 2500 3097 2075 3097 
Q 1594 3097 1305 2825 
Q 1016 2553 972 2059 
L 3022 2063 
z
" transform="scale(0.015625)"/>
      <path id="DejaVuSans-72" d="M 2631 2963 
Q 2534 3019 2420 3045 
Q 2306 3072 2169 3072 
Q 1681 3072 1420 2755 
Q 1159 2438 1159 1844 
L 1159 0 
L 581 0 
L 581 3500 
L 1159 3500 
L 1159 2956 
Q 1341 3275 1631 3429 
Q 1922 3584 2338 3584 
Q 2397 3584 2469 3576 
Q 2541 3569 2628 3553 
L 2631 2963 
z
" transform="scale(0.015625)"/>
      <path id="DejaVuSans-3f" d="M 1222 794 
L 1856 794 
L 1856 0 
L 1222 0 
L 1222 794 
z
M 1838 1253 
L 1241 1253 
L 1241 1734 
Q 1241 2050 1328 2253 
Q 1416 2456 1697 2725 
L 1978 3003 
Q 2156 3169 2236 3316 
Q 2316 3463 2316 3616 
Q 2316 3894 2111 4066 
Q 1906 4238 1569 4238 
Q 1322 4238 1042 4128 
Q 763 4019 459 3809 
L 459 4397 
Q 753 4575 1054 4662 
Q 1356 4750 1678 4750 
Q 2253 4750 2601 4447 
Q 2950 4144 2950 3647 
Q 2950 3409 2837 3195 
Q 2725 2981 2444 2713 
L 2169 2444 
Q 2022 2297 1961 2214 
Q 1900 2131 1875 2053 
Q 1856 1988 1847 1894 
Q 1838 1800 1838 1638 
L 1838 1253 
z
" transform="scale(0.015625)"/>
      <path id="DejaVuSans-68" d="M 3513 2113 
L 3513 0 
L 2938 0 
L 2938 2094 
Q 2938 2591 2744 2837 
Q 2550 3084 2163 3084 
Q 1697 3084 1428 2787 
Q 1159 2491 1159 1978 
L 1159 0 
L 581 0 
L 581 4863 
L 1159 4863 
L 1159 2956 
Q 1366 3272 1645 3428 
Q 1925 3584 2291 3584 
Q 2894 3584 3203 3211 
Q 3513 2838 3513 2113 
z
" transform="scale(0.015625)"/>
      <path id="DejaVuSans-79" d="M 2059 -325 
Q 1816 -950 1584 -1140 
Q 1353 -1331 966 -1331 
L 506 -1331 
L 506 -850 
L 844 -850 
Q 1081 -850 1212 -737 
Q 1344 -625 1503 -206 
L 1606 56 
L 191 3500 
L 800 3500 
L 1894 763 
L 2988 3500 
L 3597 3500 
L 2059 -325 
z
" transform="scale(0.015625)"/>
      <path id="DejaVuSans-61" d="M 2194 1759 
Q 1497 1759 1228 1600 
Q 959 1441 959 1056 
Q 959 750 1161 570 
Q 1363 391 1709 391 
Q 2188 391 2477 730 
Q 2766 1069 2766 1631 
L 2766 1759 
L 2194 1759 
z
M 3341 1997 
L 3341 0 
L 2766 0 
L 2766 531 
Q 2569 213 2275 61 
Q 1981 -91 1556 -91 
Q 1019 -91 701 211 
Q 384 513 384 1019 
Q 384 1609 779 1909 
Q 1175 2209 1959 2209 
L 2766 2209 
L 2766 2266 
Q 2766 2663 2505 2880 
Q 2244 3097 1772 3097 
Q 1472 3097 1187 3025 
Q 903 2953 641 2809 
L 641 3341 
Q 956 3463 1253 3523 
Q 1550 3584 1831 3584 
Q 2591 3584 2966 3190 
Q 3341 2797 3341 1997 
z
" transform="scale(0.015625)"/>
      <path id="DejaVuSans-69" d="M 603 3500 
L 1178 3500 
L 1178 0 
L 603 0 
L 603 3500 
z
M 603 4863 
L 1178 4863 
L 1178 4134 
L 603 4134 
L 603 4863 
z
" transform="scale(0.015625)"/>
      <path id="DejaVuSans-67" d="M 2906 1791 
Q 2906 2416 2648 2759 
Q 2391 3103 1925 3103 
Q 1463 3103 1205 2759 
Q 947 2416 947 1791 
Q 947 1169 1205 825 
Q 1463 481 1925 481 
Q 2391 481 2648 825 
Q 2906 1169 2906 1791 
z
M 3481 434 
Q 3481 -459 3084 -895 
Q 2688 -1331 1869 -1331 
Q 1566 -1331 1297 -1286 
Q 1028 -1241 775 -1147 
L 775 -588 
Q 1028 -725 1275 -790 
Q 1522 -856 1778 -856 
Q 2344 -856 2625 -561 
Q 2906 -266 2906 331 
L 2906 616 
Q 2728 306 2450 153 
Q 2172 0 1784 0 
Q 1141 0 747 490 
Q 353 981 353 1791 
Q 353 2603 747 3093 
Q 1141 3584 1784 3584 
Q 2172 3584 2450 3431 
Q 2728 3278 2906 2969 
L 2906 3500 
L 3481 3500 
L 3481 434 
z
" transform="scale(0.015625)"/>
     </defs>
     <use xlink:href="#DejaVuSans-74"/>
     <use xlink:href="#DejaVuSans-77" transform="translate(39.208984 0)"/>
     <use xlink:href="#DejaVuSans-6f" transform="translate(120.996094 0)"/>
     <use xlink:href="#DejaVuSans-20" transform="translate(182.177734 0)"/>
     <use xlink:href="#DejaVuSans-63" transform="translate(213.964844 0)"/>
     <use xlink:href="#DejaVuSans-6c" transform="translate(268.945312 0)"/>
     <use xlink:href="#DejaVuSans-75" transform="translate(296.728516 0)"/>
     <use xlink:href="#DejaVuSans-73" transform="translate(360.107422 0)"/>
     <use xlink:href="#DejaVuSans-74" transform="translate(412.207031 0)"/>
     <use xlink:href="#DejaVuSans-65" transform="translate(451.416016 0)"/>
     <use xlink:href="#DejaVuSans-72" transform="translate(512.939453 0)"/>
     <use xlink:href="#DejaVuSans-73" transform="translate(554.052734 0)"/>
     <use xlink:href="#DejaVuSans-3f" transform="translate(606.152344 0)"/>
     <use xlink:href="#DejaVuSans-20" transform="translate(659.228516 0)"/>
     <use xlink:href="#DejaVuSans-74" transform="translate(691.015625 0)"/>
     <use xlink:href="#DejaVuSans-68" transform="translate(730.224609 0)"/>
     <use xlink:href="#DejaVuSans-65" transform="translate(793.603516 0)"/>
     <use xlink:href="#DejaVuSans-79" transform="translate(855.126953 0)"/>
     <use xlink:href="#DejaVuSans-20" transform="translate(914.306641 0)"/>
     <use xlink:href="#DejaVuSans-61" transform="translate(946.09375 0)"/>
     <use xlink:href="#DejaVuSans-72" transform="translate(1007.373047 0)"/>
     <use xlink:href="#DejaVuSans-65" transform="translate(1046.236328 0)"/>
     <use xlink:href="#DejaVuSans-20" transform="translate(1107.759766 0)"/>
     <use xlink:href="#DejaVuSans-72" transform="translate(1139.546875 0)"/>
     <use xlink:href="#DejaVuSans-69" transform="translate(1180.660156 0)"/>
     <use xlink:href="#DejaVuSans-67" transform="translate(1208.443359 0)"/>
     <use xlink:href="#DejaVuSans-68" transform="translate(1271.919922 0)"/>
     <use xlink:href="#DejaVuSans-74" transform="translate(1335.298828 0)"/>
    </g>
   </g>
  </g>
  <g id="axes_2">
   <g id="patch_9">
    <path d="M 342.72 269.008359 
L 665.28 269.008359 
L 665.28 21.178359 
L 342.72 21.178359 
z
" style="fill: #ffffff"/>
   </g>
   <g id="matplotlib.axis_3"/>
   <g id="matplotlib.axis_4"/>
   <g id="PathCollection_3">
    <g clip-path="url(#p27eb4a767b)">
     <use xlink:href="#maac4327d85" x="370.341757" y="88.848617" style="fill: #0096ff; fill-opacity: 0.75; stroke: #0096ff; stroke-opacity: 0.75; stroke-width: 0.5"/>
     <use xlink:href="#maac4327d85" x="375.284058" y="78.931286" style="fill: #0096ff; fill-opacity: 0.75; stroke: #0096ff; stroke-opacity: 0.75; stroke-width: 0.5"/>
     <use xlink:href="#maac4327d85" x="362.815931" y="77.293007" style="fill: #0096ff; fill-opacity: 0.75; stroke: #0096ff; stroke-opacity: 0.75; stroke-width: 0.5"/>
     <use xlink:href="#maac4327d85" x="380.576468" y="66.394321" style="fill: #0096ff; fill-opacity: 0.75; stroke: #0096ff; stroke-opacity: 0.75; stroke-width: 0.5"/>
     <use xlink:href="#maac4327d85" x="405.658526" y="61.373785" style="fill: #0096ff; fill-opacity: 0.75; stroke: #0096ff; stroke-opacity: 0.75; stroke-width: 0.5"/>
     <use xlink:href="#maac4327d85" x="403.176928" y="75.925081" style="fill: #0096ff; fill-opacity: 0.75; stroke: #0096ff; stroke-opacity: 0.75; stroke-width: 0.5"/>
     <use xlink:href="#maac4327d85" x="404.38674" y="60.233846" style="fill: #0096ff; fill-opacity: 0.75; stroke: #0096ff; stroke-opacity: 0.75; stroke-width: 0.5"/>
     <use xlink:href="#maac4327d85" x="384.555297" y="69.246099" style="fill: #0096ff; fill-opacity: 0.75; stroke: #0096ff; stroke-opacity: 0.75; stroke-width: 0.5"/>
     <use xlink:href="#maac4327d85" x="392.560802" y="60.892948" style="fill: #0096ff; fill-opacity: 0.75; stroke: #0096ff; stroke-opacity: 0.75; stroke-width: 0.5"/>
     <use xlink:href="#maac4327d85" x="382.153328" y="78.427171" style="fill: #0096ff; fill-opacity: 0.75; stroke: #0096ff; stroke-opacity: 0.75; stroke-width: 0.5"/>
    </g>
   </g>
   <g id="patch_10">
    <path d="M 386.150984 96.524947 
C 395.649043 96.524947 404.759366 93.915199 411.475508 89.270471 
C 418.191651 84.625742 421.96527 78.325254 421.96527 71.756616 
C 421.96527 65.187978 418.191651 58.88749 411.475508 54.242762 
C 404.759366 49.598033 395.649043 46.988286 386.150984 46.988286 
C 376.652924 46.988286 367.542601 49.598033 360.826459 54.242762 
C 354.110317 58.88749 350.336697 65.187978 350.336697 71.756616 
C 350.336697 78.325254 354.110317 84.625742 360.826459 89.270471 
C 367.542601 93.915199 376.652924 96.524947 386.150984 96.524947 
L 386.150984 96.524947 
z
" clip-path="url(#p27eb4a767b)" style="fill: none; stroke-dasharray: 5.55,2.4; stroke-dashoffset: 0; stroke: #0096ff; stroke-width: 1.5; stroke-linejoin: miter"/>
   </g>
   <g id="PathCollection_4">
    <defs>
     <path id="mba2bb30408" d="M 0 2.738613 
C 0.726289 2.738613 1.422928 2.450055 1.936492 1.936492 
C 2.450055 1.422928 2.738613 0.726289 2.738613 0 
C 2.738613 -0.726289 2.450055 -1.422928 1.936492 -1.936492 
C 1.422928 -2.450055 0.726289 -2.738613 0 -2.738613 
C -0.726289 -2.738613 -1.422928 -2.450055 -1.936492 -1.936492 
C -2.450055 -1.422928 -2.738613 -0.726289 -2.738613 0 
C -2.738613 0.726289 -2.450055 1.422928 -1.936492 1.936492 
C -1.422928 2.450055 -0.726289 2.738613 0 2.738613 
z
" style="stroke: #2e8b57; stroke-opacity: 0.75; stroke-width: 0.5"/>
    </defs>
    <g clip-path="url(#p27eb4a767b)">
     <use xlink:href="#mba2bb30408" x="473.468085" y="111.515931" style="fill: #2e8b57; fill-opacity: 0.75; stroke: #2e8b57; stroke-opacity: 0.75; stroke-width: 0.5"/>
     <use xlink:href="#mba2bb30408" x="447.236674" y="110.488533" style="fill: #2e8b57; fill-opacity: 0.75; stroke: #2e8b57; stroke-opacity: 0.75; stroke-width: 0.5"/>
     <use xlink:href="#mba2bb30408" x="467.167206" y="116.528413" style="fill: #2e8b57; fill-opacity: 0.75; stroke: #2e8b57; stroke-opacity: 0.75; stroke-width: 0.5"/>
     <use xlink:href="#mba2bb30408" x="466.684927" y="111.909982" style="fill: #2e8b57; fill-opacity: 0.75; stroke: #2e8b57; stroke-opacity: 0.75; stroke-width: 0.5"/>
     <use xlink:href="#mba2bb30408" x="444.917951" y="98.48423" style="fill: #2e8b57; fill-opacity: 0.75; stroke: #2e8b57; stroke-opacity: 0.75; stroke-width: 0.5"/>
     <use xlink:href="#mba2bb30408" x="457.431668" y="136.680911" style="fill: #2e8b57; fill-opacity: 0.75; stroke: #2e8b57; stroke-opacity: 0.75; stroke-width: 0.5"/>
     <use xlink:href="#mba2bb30408" x="467.645806" y="99.44056" style="fill: #2e8b57; fill-opacity: 0.75; stroke: #2e8b57; stroke-opacity: 0.75; stroke-width: 0.5"/>
     <use xlink:href="#mba2bb30408" x="461.924253" y="98.496221" style="fill: #2e8b57; fill-opacity: 0.75; stroke: #2e8b57; stroke-opacity: 0.75; stroke-width: 0.5"/>
     <use xlink:href="#mba2bb30408" x="489.122168" y="122.800675" style="fill: #2e8b57; fill-opacity: 0.75; stroke: #2e8b57; stroke-opacity: 0.75; stroke-width: 0.5"/>
     <use xlink:href="#mba2bb30408" x="436.417057" y="126.550545" style="fill: #2e8b57; fill-opacity: 0.75; stroke: #2e8b57; stroke-opacity: 0.75; stroke-width: 0.5"/>
    </g>
   </g>
   <g id="patch_11">
    <path d="M 461.20158 142.710132 
C 470.871505 142.710132 480.146678 139.610199 486.984348 134.093057 
C 493.822018 128.575916 497.66392 121.092016 497.66392 113.2896 
C 497.66392 105.487184 493.822018 98.003284 486.984348 92.486143 
C 480.146678 86.969001 470.871505 83.869069 461.20158 83.869069 
C 451.531654 83.869069 442.256481 86.969001 435.418811 92.486143 
C 428.581141 98.003284 424.739239 105.487184 424.739239 113.2896 
C 424.739239 121.092016 428.581141 128.575916 435.418811 134.093057 
C 442.256481 139.610199 451.531654 142.710132 461.20158 142.710132 
L 461.20158 142.710132 
z
" clip-path="url(#p27eb4a767b)" style="fill: none; stroke-dasharray: 5.55,2.4; stroke-dashoffset: 0; stroke: #2e8b57; stroke-width: 1.5; stroke-linejoin: miter"/>
   </g>
   <g id="PathCollection_5">
    <g clip-path="url(#p27eb4a767b)">
     <use xlink:href="#m9590c1b434" x="554.840112" y="207.529511" style="fill: #ff9300; fill-opacity: 0.75; stroke: #ff9300; stroke-opacity: 0.75; stroke-width: 0.5"/>
     <use xlink:href="#m9590c1b434" x="519.484082" y="212.774207" style="fill: #ff9300; fill-opacity: 0.75; stroke: #ff9300; stroke-opacity: 0.75; stroke-width: 0.5"/>
     <use xlink:href="#m9590c1b434" x="539.282361" y="199.569035" style="fill: #ff9300; fill-opacity: 0.75; stroke: #ff9300; stroke-opacity: 0.75; stroke-width: 0.5"/>
     <use xlink:href="#m9590c1b434" x="550.707277" y="189.348324" style="fill: #ff9300; fill-opacity: 0.75; stroke: #ff9300; stroke-opacity: 0.75; stroke-width: 0.5"/>
     <use xlink:href="#m9590c1b434" x="527.063809" y="200.884433" style="fill: #ff9300; fill-opacity: 0.75; stroke: #ff9300; stroke-opacity: 0.75; stroke-width: 0.5"/>
     <use xlink:href="#m9590c1b434" x="524.42092" y="198.58237" style="fill: #ff9300; fill-opacity: 0.75; stroke: #ff9300; stroke-opacity: 0.75; stroke-width: 0.5"/>
     <use xlink:href="#m9590c1b434" x="524.202435" y="211.390417" style="fill: #ff9300; fill-opacity: 0.75; stroke: #ff9300; stroke-opacity: 0.75; stroke-width: 0.5"/>
     <use xlink:href="#m9590c1b434" x="567.105321" y="198.980078" style="fill: #ff9300; fill-opacity: 0.75; stroke: #ff9300; stroke-opacity: 0.75; stroke-width: 0.5"/>
     <use xlink:href="#m9590c1b434" x="547.708213" y="173.752359" style="fill: #ff9300; fill-opacity: 0.75; stroke: #ff9300; stroke-opacity: 0.75; stroke-width: 0.5"/>
     <use xlink:href="#m9590c1b434" x="549.577632" y="200.45537" style="fill: #ff9300; fill-opacity: 0.75; stroke: #ff9300; stroke-opacity: 0.75; stroke-width: 0.5"/>
    </g>
   </g>
   <g id="patch_12">
    <path d="M 540.439216 226.609757 
C 550.348801 226.609757 559.853849 223.735033 566.860983 218.618708 
C 573.868117 213.502384 577.805237 206.562185 577.805237 199.32661 
C 577.805237 192.091035 573.868117 185.150837 566.860983 180.034512 
C 559.853849 174.918188 550.348801 172.043464 540.439216 172.043464 
C 530.529631 172.043464 521.024584 174.918188 514.017449 180.034512 
C 507.010315 185.150837 503.073195 192.091035 503.073195 199.32661 
C 503.073195 206.562185 507.010315 213.502384 514.017449 218.618708 
C 521.024584 223.735033 530.529631 226.609757 540.439216 226.609757 
L 540.439216 226.609757 
z
" clip-path="url(#p27eb4a767b)" style="fill: none; stroke-dasharray: 5.55,2.4; stroke-dashoffset: 0; stroke: #ff9300; stroke-width: 1.5; stroke-linejoin: miter"/>
   </g>
   <g id="PathCollection_6">
    <defs>
     <path id="mb9c43c84d7" d="M 0 2.738613 
C 0.726289 2.738613 1.422928 2.450055 1.936492 1.936492 
C 2.450055 1.422928 2.738613 0.726289 2.738613 0 
C 2.738613 -0.726289 2.450055 -1.422928 1.936492 -1.936492 
C 1.422928 -2.450055 0.726289 -2.738613 0 -2.738613 
C -0.726289 -2.738613 -1.422928 -2.450055 -1.936492 -1.936492 
C -2.450055 -1.422928 -2.738613 -0.726289 -2.738613 0 
C -2.738613 0.726289 -2.450055 1.422928 -1.936492 1.936492 
C -1.422928 2.450055 -0.726289 2.738613 0 2.738613 
z
" style="stroke: #c00000; stroke-opacity: 0.75; stroke-width: 0.5"/>
    </defs>
    <g clip-path="url(#p27eb4a767b)">
     <use xlink:href="#mb9c43c84d7" x="615.595347" y="241.652881" style="fill: #c00000; fill-opacity: 0.75; stroke: #c00000; stroke-opacity: 0.75; stroke-width: 0.5"/>
     <use xlink:href="#mb9c43c84d7" x="629.220211" y="237.482542" style="fill: #c00000; fill-opacity: 0.75; stroke: #c00000; stroke-opacity: 0.75; stroke-width: 0.5"/>
     <use xlink:href="#mb9c43c84d7" x="637.979017" y="237.628327" style="fill: #c00000; fill-opacity: 0.75; stroke: #c00000; stroke-opacity: 0.75; stroke-width: 0.5"/>
     <use xlink:href="#mb9c43c84d7" x="610.246125" y="238.379597" style="fill: #c00000; fill-opacity: 0.75; stroke: #c00000; stroke-opacity: 0.75; stroke-width: 0.5"/>
     <use xlink:href="#mb9c43c84d7" x="623.079093" y="232.275176" style="fill: #c00000; fill-opacity: 0.75; stroke: #c00000; stroke-opacity: 0.75; stroke-width: 0.5"/>
     <use xlink:href="#mb9c43c84d7" x="632.85125" y="239.728442" style="fill: #c00000; fill-opacity: 0.75; stroke: #c00000; stroke-opacity: 0.75; stroke-width: 0.5"/>
     <use xlink:href="#mb9c43c84d7" x="618.683281" y="214.645685" style="fill: #c00000; fill-opacity: 0.75; stroke: #c00000; stroke-opacity: 0.75; stroke-width: 0.5"/>
     <use xlink:href="#mb9c43c84d7" x="611.730038" y="228.79487" style="fill: #c00000; fill-opacity: 0.75; stroke: #c00000; stroke-opacity: 0.75; stroke-width: 0.5"/>
     <use xlink:href="#mb9c43c84d7" x="635.477945" y="228.585122" style="fill: #c00000; fill-opacity: 0.75; stroke: #c00000; stroke-opacity: 0.75; stroke-width: 0.5"/>
     <use xlink:href="#mb9c43c84d7" x="606.565444" y="254.921199" style="fill: #c00000; fill-opacity: 0.75; stroke: #c00000; stroke-opacity: 0.75; stroke-width: 0.5"/>
    </g>
   </g>
   <g id="patch_13">
    <path d="M 622.142775 261.462453 
C 630.210727 261.462453 637.949322 258.717337 643.654226 253.831686 
C 649.359129 248.946034 652.56456 242.318739 652.56456 235.409384 
C 652.56456 228.500029 649.359129 221.872734 643.654226 216.987082 
C 637.949322 212.101431 630.210727 209.356315 622.142775 209.356315 
C 614.074823 209.356315 606.336228 212.101431 600.631325 216.987082 
C 594.926421 221.872734 591.72099 228.500029 591.72099 235.409384 
C 591.72099 242.318739 594.926421 248.946034 600.631325 253.831686 
C 606.336228 258.717337 614.074823 261.462453 622.142775 261.462453 
L 622.142775 261.462453 
z
" clip-path="url(#p27eb4a767b)" style="fill: none; stroke-dasharray: 5.55,2.4; stroke-dashoffset: 0; stroke: #c00000; stroke-width: 1.5; stroke-linejoin: miter"/>
   </g>
   <g id="patch_14">
    <path d="M 342.72 269.008359 
L 342.72 21.178359 
" style="fill: none; stroke: #f0f0f0; stroke-width: 3; stroke-linejoin: miter; stroke-linecap: square"/>
   </g>
   <g id="patch_15">
    <path d="M 665.28 269.008359 
L 665.28 21.178359 
" style="fill: none; stroke: #f0f0f0; stroke-width: 3; stroke-linejoin: miter; stroke-linecap: square"/>
   </g>
   <g id="patch_16">
    <path d="M 342.72 269.008359 
L 665.28 269.008359 
" style="fill: none; stroke: #f0f0f0; stroke-width: 3; stroke-linejoin: miter; stroke-linecap: square"/>
   </g>
   <g id="patch_17">
    <path d="M 342.72 21.178359 
L 665.28 21.178359 
" style="fill: none; stroke: #f0f0f0; stroke-width: 3; stroke-linejoin: miter; stroke-linecap: square"/>
   </g>
   <g id="text_2">
    <!-- four clusters? also right -->
    <g style="fill: #808080" transform="translate(442.114805 15.178359) scale(0.105 -0.105)">
     <defs>
      <path id="DejaVuSans-66" d="M 2375 4863 
L 2375 4384 
L 1825 4384 
Q 1516 4384 1395 4259 
Q 1275 4134 1275 3809 
L 1275 3500 
L 2222 3500 
L 2222 3053 
L 1275 3053 
L 1275 0 
L 697 0 
L 697 3053 
L 147 3053 
L 147 3500 
L 697 3500 
L 697 3744 
Q 697 4328 969 4595 
Q 1241 4863 1831 4863 
L 2375 4863 
z
" transform="scale(0.015625)"/>
     </defs>
     <use xlink:href="#DejaVuSans-66"/>
     <use xlink:href="#DejaVuSans-6f" transform="translate(35.205078 0)"/>
     <use xlink:href="#DejaVuSans-75" transform="translate(96.386719 0)"/>
     <use xlink:href="#DejaVuSans-72" transform="translate(159.765625 0)"/>
     <use xlink:href="#DejaVuSans-20" transform="translate(200.878906 0)"/>
     <use xlink:href="#DejaVuSans-63" transform="translate(232.666016 0)"/>
     <use xlink:href="#DejaVuSans-6c" transform="translate(287.646484 0)"/>
     <use xlink:href="#DejaVuSans-75" transform="translate(315.429688 0)"/>
     <use xlink:href="#DejaVuSans-73" transform="translate(378.808594 0)"/>
     <use xlink:href="#DejaVuSans-74" transform="translate(430.908203 0)"/>
     <use xlink:href="#DejaVuSans-65" transform="translate(470.117188 0)"/>
     <use xlink:href="#DejaVuSans-72" transform="translate(531.640625 0)"/>
     <use xlink:href="#DejaVuSans-73" transform="translate(572.753906 0)"/>
     <use xlink:href="#DejaVuSans-3f" transform="translate(624.853516 0)"/>
     <use xlink:href="#DejaVuSans-20" transform="translate(677.929688 0)"/>
     <use xlink:href="#DejaVuSans-61" transform="translate(709.716797 0)"/>
     <use xlink:href="#DejaVuSans-6c" transform="translate(770.996094 0)"/>
     <use xlink:href="#DejaVuSans-73" transform="translate(798.779297 0)"/>
     <use xlink:href="#DejaVuSans-6f" transform="translate(850.878906 0)"/>
     <use xlink:href="#DejaVuSans-20" transform="translate(912.060547 0)"/>
     <use xlink:href="#DejaVuSans-72" transform="translate(943.847656 0)"/>
     <use xlink:href="#DejaVuSans-69" transform="translate(984.960938 0)"/>
     <use xlink:href="#DejaVuSans-67" transform="translate(1012.744141 0)"/>
     <use xlink:href="#DejaVuSans-68" transform="translate(1076.220703 0)"/>
     <use xlink:href="#DejaVuSans-74" transform="translate(1139.599609 0)"/>
    </g>
   </g>
  </g>
 </g>
 <defs>
  <clipPath id="p72976925b3">
   <rect x="7.2" y="21.178359" width="322.56" height="247.83"/>
  </clipPath>
  <clipPath id="p27eb4a767b">
   <rect x="342.72" y="21.178359" width="322.56" height="247.83"/>
  </clipPath>
 </defs>
</svg>
