<?xml version="1.0" encoding="utf-8" standalone="no"?>
<!DOCTYPE svg PUBLIC "-//W3C//DTD SVG 1.1//EN"
  "http://www.w3.org/Graphics/SVG/1.1/DTD/svg11.dtd">
<svg xmlns:xlink="http://www.w3.org/1999/xlink" width="681.12pt" height="284.848359pt" viewBox="0 0 681.12 284.848359" xmlns="http://www.w3.org/2000/svg" version="1.1">
 <metadata>
  <rdf:RDF xmlns:dc="http://purl.org/dc/elements/1.1/" xmlns:cc="http://creativecommons.org/ns#" xmlns:rdf="http://www.w3.org/1999/02/22-rdf-syntax-ns#">
   <cc:Work>
    <dc:type rdf:resource="http://purl.org/dc/dcmitype/StillImage"/>
    <dc:date>2026-07-20T23:14:04.018993</dc:date>
    <dc:format>image/svg+xml</dc:format>
    <dc:creator>
     <cc:Agent>
      <dc:title>Matplotlib v3.10.8, https://matplotlib.org/</dc:title>
     </cc:Agent>
    </dc:creator>
   </cc:Work>
  </rdf:RDF>
 </metadata>
 <defs>
  <style type="text/css">*{stroke-linejoin: round; stroke-linecap: butt}</style>
 </defs>
 <g id="figure_1">
  <g id="patch_1">
   <path d="M 0 284.848359 
L 681.12 284.848359 
L 681.12 0 
L 0 0 
z
" style="fill: #ffffff"/>
  </g>
  <g id="axes_1">
   <g id="patch_2">
    <path d="M 7.2 277.648359 
L 336.24 277.648359 
L 336.24 21.178359 
L 7.2 21.178359 
z
" style="fill: #ffffff"/>
   </g>
   <g id="matplotlib.axis_1"/>
   <g id="matplotlib.axis_2"/>
   <g id="PathCollection_1">
    <defs>
     <path id="me70dbc5b8d" d="M 0 2.738613 
C 0.726289 2.738613 1.422928 2.450055 1.936492 1.936492 
C 2.450055 1.422928 2.738613 0.726289 2.738613 0 
C 2.738613 -0.726289 2.450055 -1.422928 1.936492 -1.936492 
C 1.422928 -2.450055 0.726289 -2.738613 0 -2.738613 
C -0.726289 -2.738613 -1.422928 -2.450055 -1.936492 -1.936492 
C -2.450055 -1.422928 -2.738613 -0.726289 -2.738613 0 
C -2.738613 0.726289 -2.450055 1.422928 -1.936492 1.936492 
C -1.422928 2.450055 -0.726289 2.738613 0 2.738613 
z
" style="stroke: #0096ff; stroke-opacity: 0.75; stroke-width: 0.5"/>
    </defs>
    <g clip-path="url(#pdf39e2cd07)">
     <use xlink:href="#me70dbc5b8d" x="35.376658" y="91.207778" style="fill: #0096ff; fill-opacity: 0.75; stroke: #0096ff; stroke-opacity: 0.75; stroke-width: 0.5"/>
     <use xlink:href="#me70dbc5b8d" x="40.418246" y="80.944704" style="fill: #0096ff; fill-opacity: 0.75; stroke: #0096ff; stroke-opacity: 0.75; stroke-width: 0.5"/>
     <use xlink:href="#me70dbc5b8d" x="27.699644" y="79.249309" style="fill: #0096ff; fill-opacity: 0.75; stroke: #0096ff; stroke-opacity: 0.75; stroke-width: 0.5"/>
     <use xlink:href="#me70dbc5b8d" x="45.816978" y="67.970668" style="fill: #0096ff; fill-opacity: 0.75; stroke: #0096ff; stroke-opacity: 0.75; stroke-width: 0.5"/>
     <use xlink:href="#me70dbc5b8d" x="71.402916" y="62.775103" style="fill: #0096ff; fill-opacity: 0.75; stroke: #0096ff; stroke-opacity: 0.75; stroke-width: 0.5"/>
     <use xlink:href="#me70dbc5b8d" x="68.871465" y="77.833694" style="fill: #0096ff; fill-opacity: 0.75; stroke: #0096ff; stroke-opacity: 0.75; stroke-width: 0.5"/>
     <use xlink:href="#me70dbc5b8d" x="70.105581" y="61.595423" style="fill: #0096ff; fill-opacity: 0.75; stroke: #0096ff; stroke-opacity: 0.75; stroke-width: 0.5"/>
     <use xlink:href="#me70dbc5b8d" x="49.875738" y="70.921866" style="fill: #0096ff; fill-opacity: 0.75; stroke: #0096ff; stroke-opacity: 0.75; stroke-width: 0.5"/>
     <use xlink:href="#me70dbc5b8d" x="58.042068" y="62.277503" style="fill: #0096ff; fill-opacity: 0.75; stroke: #0096ff; stroke-opacity: 0.75; stroke-width: 0.5"/>
     <use xlink:href="#me70dbc5b8d" x="47.425515" y="80.423014" style="fill: #0096ff; fill-opacity: 0.75; stroke: #0096ff; stroke-opacity: 0.75; stroke-width: 0.5"/>
     <use xlink:href="#me70dbc5b8d" x="140.574721" y="114.665334" style="fill: #0096ff; fill-opacity: 0.75; stroke: #0096ff; stroke-opacity: 0.75; stroke-width: 0.5"/>
     <use xlink:href="#me70dbc5b8d" x="113.816339" y="113.602118" style="fill: #0096ff; fill-opacity: 0.75; stroke: #0096ff; stroke-opacity: 0.75; stroke-width: 0.5"/>
     <use xlink:href="#me70dbc5b8d" x="134.147262" y="119.852565" style="fill: #0096ff; fill-opacity: 0.75; stroke: #0096ff; stroke-opacity: 0.75; stroke-width: 0.5"/>
     <use xlink:href="#me70dbc5b8d" x="133.655294" y="115.073123" style="fill: #0096ff; fill-opacity: 0.75; stroke: #0096ff; stroke-opacity: 0.75; stroke-width: 0.5"/>
     <use xlink:href="#me70dbc5b8d" x="111.451035" y="101.179315" style="fill: #0096ff; fill-opacity: 0.75; stroke: #0096ff; stroke-opacity: 0.75; stroke-width: 0.5"/>
     <use xlink:href="#me70dbc5b8d" x="124.216144" y="140.707631" style="fill: #0096ff; fill-opacity: 0.75; stroke: #0096ff; stroke-opacity: 0.75; stroke-width: 0.5"/>
     <use xlink:href="#me70dbc5b8d" x="134.635476" y="102.168984" style="fill: #0096ff; fill-opacity: 0.75; stroke: #0096ff; stroke-opacity: 0.75; stroke-width: 0.5"/>
     <use xlink:href="#me70dbc5b8d" x="128.798981" y="101.191723" style="fill: #0096ff; fill-opacity: 0.75; stroke: #0096ff; stroke-opacity: 0.75; stroke-width: 0.5"/>
     <use xlink:href="#me70dbc5b8d" x="156.543283" y="126.343494" style="fill: #0096ff; fill-opacity: 0.75; stroke: #0096ff; stroke-opacity: 0.75; stroke-width: 0.5"/>
     <use xlink:href="#me70dbc5b8d" x="102.779364" y="130.224094" style="fill: #0096ff; fill-opacity: 0.75; stroke: #0096ff; stroke-opacity: 0.75; stroke-width: 0.5"/>
    </g>
   </g>
   <g id="patch_3">
    <path d="M 89.782635 143.513973 
C 110.382386 143.513973 130.141197 138.403327 144.70742 129.307597 
C 159.273643 120.211867 167.45801 107.873677 167.45801 95.010372 
C 167.45801 82.147067 159.273643 69.808878 144.70742 60.713147 
C 130.141197 51.617417 110.382386 46.506772 89.782635 46.506772 
C 69.182885 46.506772 49.424074 51.617417 34.857851 60.713147 
C 20.291628 69.808878 12.107261 82.147067 12.107261 95.010372 
C 12.107261 107.873677 20.291628 120.211867 34.857851 129.307597 
C 49.424074 138.403327 69.182885 143.513973 89.782635 143.513973 
L 89.782635 143.513973 
z
" clip-path="url(#pdf39e2cd07)" style="fill: none; stroke-dasharray: 5.55,2.4; stroke-dashoffset: 0; stroke: #0096ff; stroke-width: 1.5; stroke-linejoin: miter"/>
   </g>
   <g id="PathCollection_2">
    <defs>
     <path id="m84dd107767" d="M 0 2.738613 
C 0.726289 2.738613 1.422928 2.450055 1.936492 1.936492 
C 2.450055 1.422928 2.738613 0.726289 2.738613 0 
C 2.738613 -0.726289 2.450055 -1.422928 1.936492 -1.936492 
C 1.422928 -2.450055 0.726289 -2.738613 0 -2.738613 
C -0.726289 -2.738613 -1.422928 -2.450055 -1.936492 -1.936492 
C -2.450055 -1.422928 -2.738613 -0.726289 -2.738613 0 
C -2.738613 0.726289 -2.450055 1.422928 -1.936492 1.936492 
C -1.422928 2.450055 -0.726289 2.738613 0 2.738613 
z
" style="stroke: #ff9300; stroke-opacity: 0.75; stroke-width: 0.5"/>
    </defs>
    <g clip-path="url(#pdf39e2cd07)">
     <use xlink:href="#m84dd107767" x="223.581453" y="214.026198" style="fill: #ff9300; fill-opacity: 0.75; stroke: #ff9300; stroke-opacity: 0.75; stroke-width: 0.5"/>
     <use xlink:href="#m84dd107767" x="187.515146" y="219.453738" style="fill: #ff9300; fill-opacity: 0.75; stroke: #ff9300; stroke-opacity: 0.75; stroke-width: 0.5"/>
     <use xlink:href="#m84dd107767" x="207.711158" y="205.788199" style="fill: #ff9300; fill-opacity: 0.75; stroke: #ff9300; stroke-opacity: 0.75; stroke-width: 0.5"/>
     <use xlink:href="#m84dd107767" x="219.365592" y="195.211168" style="fill: #ff9300; fill-opacity: 0.75; stroke: #ff9300; stroke-opacity: 0.75; stroke-width: 0.5"/>
     <use xlink:href="#m84dd107767" x="195.247144" y="207.149455" style="fill: #ff9300; fill-opacity: 0.75; stroke: #ff9300; stroke-opacity: 0.75; stroke-width: 0.5"/>
     <use xlink:href="#m84dd107767" x="192.551162" y="204.767136" style="fill: #ff9300; fill-opacity: 0.75; stroke: #ff9300; stroke-opacity: 0.75; stroke-width: 0.5"/>
     <use xlink:href="#m84dd107767" x="192.328288" y="218.021705" style="fill: #ff9300; fill-opacity: 0.75; stroke: #ff9300; stroke-opacity: 0.75; stroke-width: 0.5"/>
     <use xlink:href="#m84dd107767" x="236.093062" y="205.178709" style="fill: #ff9300; fill-opacity: 0.75; stroke: #ff9300; stroke-opacity: 0.75; stroke-width: 0.5"/>
     <use xlink:href="#m84dd107767" x="216.306279" y="179.071487" style="fill: #ff9300; fill-opacity: 0.75; stroke: #ff9300; stroke-opacity: 0.75; stroke-width: 0.5"/>
     <use xlink:href="#m84dd107767" x="218.213254" y="206.705434" style="fill: #ff9300; fill-opacity: 0.75; stroke: #ff9300; stroke-opacity: 0.75; stroke-width: 0.5"/>
     <use xlink:href="#m84dd107767" x="285.557218" y="249.339197" style="fill: #ff9300; fill-opacity: 0.75; stroke: #ff9300; stroke-opacity: 0.75; stroke-width: 0.5"/>
     <use xlink:href="#m84dd107767" x="299.455796" y="245.02347" style="fill: #ff9300; fill-opacity: 0.75; stroke: #ff9300; stroke-opacity: 0.75; stroke-width: 0.5"/>
     <use xlink:href="#m84dd107767" x="308.39056" y="245.174337" style="fill: #ff9300; fill-opacity: 0.75; stroke: #ff9300; stroke-opacity: 0.75; stroke-width: 0.5"/>
     <use xlink:href="#m84dd107767" x="280.100534" y="245.951798" style="fill: #ff9300; fill-opacity: 0.75; stroke: #ff9300; stroke-opacity: 0.75; stroke-width: 0.5"/>
     <use xlink:href="#m84dd107767" x="293.191307" y="239.634561" style="fill: #ff9300; fill-opacity: 0.75; stroke: #ff9300; stroke-opacity: 0.75; stroke-width: 0.5"/>
     <use xlink:href="#m84dd107767" x="303.15978" y="247.347667" style="fill: #ff9300; fill-opacity: 0.75; stroke: #ff9300; stroke-opacity: 0.75; stroke-width: 0.5"/>
     <use xlink:href="#m84dd107767" x="288.707186" y="221.390461" style="fill: #ff9300; fill-opacity: 0.75; stroke: #ff9300; stroke-opacity: 0.75; stroke-width: 0.5"/>
     <use xlink:href="#m84dd107767" x="281.614258" y="236.032923" style="fill: #ff9300; fill-opacity: 0.75; stroke: #ff9300; stroke-opacity: 0.75; stroke-width: 0.5"/>
     <use xlink:href="#m84dd107767" x="305.839243" y="235.815862" style="fill: #ff9300; fill-opacity: 0.75; stroke: #ff9300; stroke-opacity: 0.75; stroke-width: 0.5"/>
     <use xlink:href="#m84dd107767" x="276.345911" y="263.070084" style="fill: #ff9300; fill-opacity: 0.75; stroke: #ff9300; stroke-opacity: 0.75; stroke-width: 0.5"/>
    </g>
   </g>
   <g id="patch_4">
    <path d="M 250.563717 268.58491 
C 272.304832 268.58491 293.158414 263.909045 308.531704 255.58712 
C 323.904994 247.265195 332.542831 235.976658 332.542831 224.207679 
C 332.542831 212.438701 323.904994 201.150164 308.531704 192.828239 
C 293.158414 184.506314 272.304832 179.830449 250.563717 179.830449 
C 228.822601 179.830449 207.969019 184.506314 192.595729 192.828239 
C 177.222439 201.150164 168.584602 212.438701 168.584602 224.207679 
C 168.584602 235.976658 177.222439 247.265195 192.595729 255.58712 
C 207.969019 263.909045 228.822601 268.58491 250.563717 268.58491 
L 250.563717 268.58491 
z
" clip-path="url(#pdf39e2cd07)" style="fill: none; stroke-dasharray: 5.55,2.4; stroke-dashoffset: 0; stroke: #ff9300; stroke-width: 1.5; stroke-linejoin: miter"/>
   </g>
   <g id="patch_5">
    <path d="M 7.2 277.648359 
L 7.2 21.178359 
" style="fill: none; stroke: #f0f0f0; stroke-width: 3; stroke-linejoin: miter; stroke-linecap: square"/>
   </g>
   <g id="patch_6">
    <path d="M 336.24 277.648359 
L 336.24 21.178359 
" style="fill: none; stroke: #f0f0f0; stroke-width: 3; stroke-linejoin: miter; stroke-linecap: square"/>
   </g>
   <g id="patch_7">
    <path d="M 7.2 277.648359 
L 336.24 277.648359 
" style="fill: none; stroke: #f0f0f0; stroke-width: 3; stroke-linejoin: miter; stroke-linecap: square"/>
   </g>
   <g id="patch_8">
    <path d="M 7.2 21.178359 
L 336.24 21.178359 
" style="fill: none; stroke: #f0f0f0; stroke-width: 3; stroke-linejoin: miter; stroke-linecap: square"/>
   </g>
   <g id="text_1">
    <!-- two clusters? they are right -->
    <g style="fill: #808080" transform="translate(99.560391 15.178359) scale(0.105 -0.105)">
     <defs>
      <path id="DejaVuSans-74" d="M 1172 4494 
L 1172 3500 
L 2356 3500 
L 2356 3053 
L 1172 3053 
L 1172 1153 
Q 1172 725 1289 603 
Q 1406 481 1766 481 
L 2356 481 
L 2356 0 
L 1766 0 
Q 1100 0 847 248 
Q 594 497 594 1153 
L 594 3053 
L 172 3053 
L 172 3500 
L 594 3500 
L 594 4494 
L 1172 4494 
z
" transform="scale(0.015625)"/>
      <path id="DejaVuSans-77" d="M 269 3500 
L 844 3500 
L 1563 769 
L 2278 3500 
L 2956 3500 
L 3675 769 
L 4391 3500 
L 4966 3500 
L 4050 0 
L 3372 0 
L 2619 2869 
L 1863 0 
L 1184 0 
L 269 3500 
z
" transform="scale(0.015625)"/>
      <path id="DejaVuSans-6f" d="M 1959 3097 
Q 1497 3097 1228 2736 
Q 959 2375 959 1747 
Q 959 1119 1226 758 
Q 1494 397 1959 397 
Q 2419 397 2687 759 
Q 2956 1122 2956 1747 
Q 2956 2369 2687 2733 
Q 2419 3097 1959 3097 
z
M 1959 3584 
Q 2709 3584 3137 3096 
Q 3566 2609 3566 1747 
Q 3566 888 3137 398 
Q 2709 -91 1959 -91 
Q 1206 -91 779 398 
Q 353 888 353 1747 
Q 353 2609 779 3096 
Q 1206 3584 1959 3584 
z
" transform="scale(0.015625)"/>
      <path id="DejaVuSans-20" transform="scale(0.015625)"/>
      <path id="DejaVuSans-63" d="M 3122 3366 
L 3122 2828 
Q 2878 2963 2633 3030 
Q 2388 3097 2138 3097 
Q 1578 3097 1268 2742 
Q 959 2388 959 1747 
Q 959 1106 1268 751 
Q 1578 397 2138 397 
Q 2388 397 2633 464 
Q 2878 531 3122 666 
L 3122 134 
Q 2881 22 2623 -34 
Q 2366 -91 2075 -91 
Q 1284 -91 818 406 
Q 353 903 353 1747 
Q 353 2603 823 3093 
Q 1294 3584 2113 3584 
Q 2378 3584 2631 3529 
Q 2884 3475 3122 3366 
z
" transform="scale(0.015625)"/>
      <path id="DejaVuSans-6c" d="M 603 4863 
L 1178 4863 
L 1178 0 
L 603 0 
L 603 4863 
z
" transform="scale(0.015625)"/>
      <path id="DejaVuSans-75" d="M 544 1381 
L 544 3500 
L 1119 3500 
L 1119 1403 
Q 1119 906 1312 657 
Q 1506 409 1894 409 
Q 2359 409 2629 706 
Q 2900 1003 2900 1516 
L 2900 3500 
L 3475 3500 
L 3475 0 
L 2900 0 
L 2900 538 
Q 2691 219 2414 64 
Q 2138 -91 1772 -91 
Q 1169 -91 856 284 
Q 544 659 544 1381 
z
M 1991 3584 
L 1991 3584 
z
" transform="scale(0.015625)"/>
      <path id="DejaVuSans-73" d="M 2834 3397 
L 2834 2853 
Q 2591 2978 2328 3040 
Q 2066 3103 1784 3103 
Q 1356 3103 1142 2972 
Q 928 2841 928 2578 
Q 928 2378 1081 2264 
Q 1234 2150 1697 2047 
L 1894 2003 
Q 2506 1872 2764 1633 
Q 3022 1394 3022 966 
Q 3022 478 2636 193 
Q 2250 -91 1575 -91 
Q 1294 -91 989 -36 
Q 684 19 347 128 
L 347 722 
Q 666 556 975 473 
Q 1284 391 1588 391 
Q 1994 391 2212 530 
Q 2431 669 2431 922 
Q 2431 1156 2273 1281 
Q 2116 1406 1581 1522 
L 1381 1569 
Q 847 1681 609 1914 
Q 372 2147 372 2553 
Q 372 3047 722 3315 
Q 1072 3584 1716 3584 
Q 2034 3584 2315 3537 
Q 2597 3491 2834 3397 
z
" transform="scale(0.015625)"/>
      <path id="DejaVuSans-65" d="M 3597 1894 
L 3597 1613 
L 953 1613 
Q 991 1019 1311 708 
Q 1631 397 2203 397 
Q 2534 397 2845 478 
Q 3156 559 3463 722 
L 3463 178 
Q 3153 47 2828 -22 
Q 2503 -91 2169 -91 
Q 1331 -91 842 396 
Q 353 884 353 1716 
Q 353 2575 817 3079 
Q 1281 3584 2069 3584 
Q 2775 3584 3186 3129 
Q 3597 2675 3597 1894 
z
M 3022 2063 
Q 3016 2534 2758 2815 
Q 2500 3097 2075 3097 
Q 1594 3097 1305 2825 
Q 1016 2553 972 2059 
L 3022 2063 
z
" transform="scale(0.015625)"/>
      <path id="DejaVuSans-72" d="M 2631 2963 
Q 2534 3019 2420 3045 
Q 2306 3072 2169 3072 
Q 1681 3072 1420 2755 
Q 1159 2438 1159 1844 
L 1159 0 
L 581 0 
L 581 3500 
L 1159 3500 
L 1159 2956 
Q 1341 3275 1631 3429 
Q 1922 3584 2338 3584 
Q 2397 3584 2469 3576 
Q 2541 3569 2628 3553 
L 2631 2963 
z
" transform="scale(0.015625)"/>
      <path id="DejaVuSans-3f" d="M 1222 794 
L 1856 794 
L 1856 0 
L 1222 0 
L 1222 794 
z
M 1838 1253 
L 1241 1253 
L 1241 1734 
Q 1241 2050 1328 2253 
Q 1416 2456 1697 2725 
L 1978 3003 
Q 2156 3169 2236 3316 
Q 2316 3463 2316 3616 
Q 2316 3894 2111 4066 
Q 1906 4238 1569 4238 
Q 1322 4238 1042 4128 
Q 763 4019 459 3809 
L 459 4397 
Q 753 4575 1054 4662 
Q 1356 4750 1678 4750 
Q 2253 4750 2601 4447 
Q 2950 4144 2950 3647 
Q 2950 3409 2837 3195 
Q 2725 2981 2444 2713 
L 2169 2444 
Q 2022 2297 1961 2214 
Q 1900 2131 1875 2053 
Q 1856 1988 1847 1894 
Q 1838 1800 1838 1638 
L 1838 1253 
z
" transform="scale(0.015625)"/>
      <path id="DejaVuSans-68" d="M 3513 2113 
L 3513 0 
L 2938 0 
L 2938 2094 
Q 2938 2591 2744 2837 
Q 2550 3084 2163 3084 
Q 1697 3084 1428 2787 
Q 1159 2491 1159 1978 
L 1159 0 
L 581 0 
L 581 4863 
L 1159 4863 
L 1159 2956 
Q 1366 3272 1645 3428 
Q 1925 3584 2291 3584 
Q 2894 3584 3203 3211 
Q 3513 2838 3513 2113 
z
" transform="scale(0.015625)"/>
      <path id="DejaVuSans-79" d="M 2059 -325 
Q 1816 -950 1584 -1140 
Q 1353 -1331 966 -1331 
L 506 -1331 
L 506 -850 
L 844 -850 
Q 1081 -850 1212 -737 
Q 1344 -625 1503 -206 
L 1606 56 
L 191 3500 
L 800 3500 
L 1894 763 
L 2988 3500 
L 3597 3500 
L 2059 -325 
z
" transform="scale(0.015625)"/>
      <path id="DejaVuSans-61" d="M 2194 1759 
Q 1497 1759 1228 1600 
Q 959 1441 959 1056 
Q 959 750 1161 570 
Q 1363 391 1709 391 
Q 2188 391 2477 730 
Q 2766 1069 2766 1631 
L 2766 1759 
L 2194 1759 
z
M 3341 1997 
L 3341 0 
L 2766 0 
L 2766 531 
Q 2569 213 2275 61 
Q 1981 -91 1556 -91 
Q 1019 -91 701 211 
Q 384 513 384 1019 
Q 384 1609 779 1909 
Q 1175 2209 1959 2209 
L 2766 2209 
L 2766 2266 
Q 2766 2663 2505 2880 
Q 2244 3097 1772 3097 
Q 1472 3097 1187 3025 
Q 903 2953 641 2809 
L 641 3341 
Q 956 3463 1253 3523 
Q 1550 3584 1831 3584 
Q 2591 3584 2966 3190 
Q 3341 2797 3341 1997 
z
" transform="scale(0.015625)"/>
      <path id="DejaVuSans-69" d="M 603 3500 
L 1178 3500 
L 1178 0 
L 603 0 
L 603 3500 
z
M 603 4863 
L 1178 4863 
L 1178 4134 
L 603 4134 
L 603 4863 
z
" transform="scale(0.015625)"/>
      <path id="DejaVuSans-67" d="M 2906 1791 
Q 2906 2416 2648 2759 
Q 2391 3103 1925 3103 
Q 1463 3103 1205 2759 
Q 947 2416 947 1791 
Q 947 1169 1205 825 
Q 1463 481 1925 481 
Q 2391 481 2648 825 
Q 2906 1169 2906 1791 
z
M 3481 434 
Q 3481 -459 3084 -895 
Q 2688 -1331 1869 -1331 
Q 1566 -1331 1297 -1286 
Q 1028 -1241 775 -1147 
L 775 -588 
Q 1028 -725 1275 -790 
Q 1522 -856 1778 -856 
Q 2344 -856 2625 -561 
Q 2906 -266 2906 331 
L 2906 616 
Q 2728 306 2450 153 
Q 2172 0 1784 0 
Q 1141 0 747 490 
Q 353 981 353 1791 
Q 353 2603 747 3093 
Q 1141 3584 1784 3584 
Q 2172 3584 2450 3431 
Q 2728 3278 2906 2969 
L 2906 3500 
L 3481 3500 
L 3481 434 
z
" transform="scale(0.015625)"/>
     </defs>
     <use xlink:href="#DejaVuSans-74"/>
     <use xlink:href="#DejaVuSans-77" transform="translate(39.208984 0)"/>
     <use xlink:href="#DejaVuSans-6f" transform="translate(120.996094 0)"/>
     <use xlink:href="#DejaVuSans-20" transform="translate(182.177734 0)"/>
     <use xlink:href="#DejaVuSans-63" transform="translate(213.964844 0)"/>
     <use xlink:href="#DejaVuSans-6c" transform="translate(268.945312 0)"/>
     <use xlink:href="#DejaVuSans-75" transform="translate(296.728516 0)"/>
     <use xlink:href="#DejaVuSans-73" transform="translate(360.107422 0)"/>
     <use xlink:href="#DejaVuSans-74" transform="translate(412.207031 0)"/>
     <use xlink:href="#DejaVuSans-65" transform="translate(451.416016 0)"/>
     <use xlink:href="#DejaVuSans-72" transform="translate(512.939453 0)"/>
     <use xlink:href="#DejaVuSans-73" transform="translate(554.052734 0)"/>
     <use xlink:href="#DejaVuSans-3f" transform="translate(606.152344 0)"/>
     <use xlink:href="#DejaVuSans-20" transform="translate(659.228516 0)"/>
     <use xlink:href="#DejaVuSans-74" transform="translate(691.015625 0)"/>
     <use xlink:href="#DejaVuSans-68" transform="translate(730.224609 0)"/>
     <use xlink:href="#DejaVuSans-65" transform="translate(793.603516 0)"/>
     <use xlink:href="#DejaVuSans-79" transform="translate(855.126953 0)"/>
     <use xlink:href="#DejaVuSans-20" transform="translate(914.306641 0)"/>
     <use xlink:href="#DejaVuSans-61" transform="translate(946.09375 0)"/>
     <use xlink:href="#DejaVuSans-72" transform="translate(1007.373047 0)"/>
     <use xlink:href="#DejaVuSans-65" transform="translate(1046.236328 0)"/>
     <use xlink:href="#DejaVuSans-20" transform="translate(1107.759766 0)"/>
     <use xlink:href="#DejaVuSans-72" transform="translate(1139.546875 0)"/>
     <use xlink:href="#DejaVuSans-69" transform="translate(1180.660156 0)"/>
     <use xlink:href="#DejaVuSans-67" transform="translate(1208.443359 0)"/>
     <use xlink:href="#DejaVuSans-68" transform="translate(1271.919922 0)"/>
     <use xlink:href="#DejaVuSans-74" transform="translate(1335.298828 0)"/>
    </g>
   </g>
  </g>
  <g id="axes_2">
   <g id="patch_9">
    <path d="M 344.88 277.648359 
L 673.92 277.648359 
L 673.92 21.178359 
L 344.88 21.178359 
z
" style="fill: #ffffff"/>
   </g>
   <g id="matplotlib.axis_3"/>
   <g id="matplotlib.axis_4"/>
   <g id="PathCollection_3">
    <g clip-path="url(#pd5b2caea00)">
     <use xlink:href="#me70dbc5b8d" x="373.056658" y="91.207778" style="fill: #0096ff; fill-opacity: 0.75; stroke: #0096ff; stroke-opacity: 0.75; stroke-width: 0.5"/>
     <use xlink:href="#me70dbc5b8d" x="378.098246" y="80.944704" style="fill: #0096ff; fill-opacity: 0.75; stroke: #0096ff; stroke-opacity: 0.75; stroke-width: 0.5"/>
     <use xlink:href="#me70dbc5b8d" x="365.379644" y="79.249309" style="fill: #0096ff; fill-opacity: 0.75; stroke: #0096ff; stroke-opacity: 0.75; stroke-width: 0.5"/>
     <use xlink:href="#me70dbc5b8d" x="383.496978" y="67.970668" style="fill: #0096ff; fill-opacity: 0.75; stroke: #0096ff; stroke-opacity: 0.75; stroke-width: 0.5"/>
     <use xlink:href="#me70dbc5b8d" x="409.082916" y="62.775103" style="fill: #0096ff; fill-opacity: 0.75; stroke: #0096ff; stroke-opacity: 0.75; stroke-width: 0.5"/>
     <use xlink:href="#me70dbc5b8d" x="406.551465" y="77.833694" style="fill: #0096ff; fill-opacity: 0.75; stroke: #0096ff; stroke-opacity: 0.75; stroke-width: 0.5"/>
     <use xlink:href="#me70dbc5b8d" x="407.785581" y="61.595423" style="fill: #0096ff; fill-opacity: 0.75; stroke: #0096ff; stroke-opacity: 0.75; stroke-width: 0.5"/>
     <use xlink:href="#me70dbc5b8d" x="387.555738" y="70.921866" style="fill: #0096ff; fill-opacity: 0.75; stroke: #0096ff; stroke-opacity: 0.75; stroke-width: 0.5"/>
     <use xlink:href="#me70dbc5b8d" x="395.722068" y="62.277503" style="fill: #0096ff; fill-opacity: 0.75; stroke: #0096ff; stroke-opacity: 0.75; stroke-width: 0.5"/>
     <use xlink:href="#me70dbc5b8d" x="385.105515" y="80.423014" style="fill: #0096ff; fill-opacity: 0.75; stroke: #0096ff; stroke-opacity: 0.75; stroke-width: 0.5"/>
    </g>
   </g>
   <g id="patch_10">
    <path d="M 389.183481 99.151725 
C 398.87235 99.151725 408.165692 96.450995 415.016757 91.644339 
C 421.867822 86.837683 425.717251 80.317544 425.717251 73.519906 
C 425.717251 66.722268 421.867822 60.202129 415.016757 55.395473 
C 408.165692 50.588817 398.87235 47.888087 389.183481 47.888087 
C 379.494612 47.888087 370.20127 50.588817 363.350205 55.395473 
C 356.49914 60.202129 352.649711 66.722268 352.649711 73.519906 
C 352.649711 80.317544 356.49914 86.837683 363.350205 91.644339 
C 370.20127 96.450995 379.494612 99.151725 389.183481 99.151725 
L 389.183481 99.151725 
z
" clip-path="url(#pd5b2caea00)" style="fill: none; stroke-dasharray: 5.55,2.4; stroke-dashoffset: 0; stroke: #0096ff; stroke-width: 1.5; stroke-linejoin: miter"/>
   </g>
   <g id="PathCollection_4">
    <defs>
     <path id="m81bcc3f13c" d="M 0 2.738613 
C 0.726289 2.738613 1.422928 2.450055 1.936492 1.936492 
C 2.450055 1.422928 2.738613 0.726289 2.738613 0 
C 2.738613 -0.726289 2.450055 -1.422928 1.936492 -1.936492 
C 1.422928 -2.450055 0.726289 -2.738613 0 -2.738613 
C -0.726289 -2.738613 -1.422928 -2.450055 -1.936492 -1.936492 
C -2.450055 -1.422928 -2.738613 -0.726289 -2.738613 0 
C -2.738613 0.726289 -2.450055 1.422928 -1.936492 1.936492 
C -1.422928 2.450055 -0.726289 2.738613 0 2.738613 
z
" style="stroke: #2e8b57; stroke-opacity: 0.75; stroke-width: 0.5"/>
    </defs>
    <g clip-path="url(#pd5b2caea00)">
     <use xlink:href="#m81bcc3f13c" x="478.254721" y="114.665334" style="fill: #2e8b57; fill-opacity: 0.75; stroke: #2e8b57; stroke-opacity: 0.75; stroke-width: 0.5"/>
     <use xlink:href="#m81bcc3f13c" x="451.496339" y="113.602118" style="fill: #2e8b57; fill-opacity: 0.75; stroke: #2e8b57; stroke-opacity: 0.75; stroke-width: 0.5"/>
     <use xlink:href="#m81bcc3f13c" x="471.827262" y="119.852565" style="fill: #2e8b57; fill-opacity: 0.75; stroke: #2e8b57; stroke-opacity: 0.75; stroke-width: 0.5"/>
     <use xlink:href="#m81bcc3f13c" x="471.335294" y="115.073123" style="fill: #2e8b57; fill-opacity: 0.75; stroke: #2e8b57; stroke-opacity: 0.75; stroke-width: 0.5"/>
     <use xlink:href="#m81bcc3f13c" x="449.131035" y="101.179315" style="fill: #2e8b57; fill-opacity: 0.75; stroke: #2e8b57; stroke-opacity: 0.75; stroke-width: 0.5"/>
     <use xlink:href="#m81bcc3f13c" x="461.896144" y="140.707631" style="fill: #2e8b57; fill-opacity: 0.75; stroke: #2e8b57; stroke-opacity: 0.75; stroke-width: 0.5"/>
     <use xlink:href="#m81bcc3f13c" x="472.315476" y="102.168984" style="fill: #2e8b57; fill-opacity: 0.75; stroke: #2e8b57; stroke-opacity: 0.75; stroke-width: 0.5"/>
     <use xlink:href="#m81bcc3f13c" x="466.478981" y="101.191723" style="fill: #2e8b57; fill-opacity: 0.75; stroke: #2e8b57; stroke-opacity: 0.75; stroke-width: 0.5"/>
     <use xlink:href="#m81bcc3f13c" x="494.223283" y="126.343494" style="fill: #2e8b57; fill-opacity: 0.75; stroke: #2e8b57; stroke-opacity: 0.75; stroke-width: 0.5"/>
     <use xlink:href="#m81bcc3f13c" x="440.459364" y="130.224094" style="fill: #2e8b57; fill-opacity: 0.75; stroke: #2e8b57; stroke-opacity: 0.75; stroke-width: 0.5"/>
    </g>
   </g>
   <g id="patch_11">
    <path d="M 465.74179 146.947046 
C 475.605977 146.947046 485.067481 143.739042 492.042515 138.029558 
C 499.017549 132.320075 502.936633 124.575267 502.936633 116.500838 
C 502.936633 108.426409 499.017549 100.681601 492.042515 94.972118 
C 485.067481 89.262635 475.605977 86.05463 465.74179 86.05463 
C 455.877602 86.05463 446.416098 89.262635 439.441064 94.972118 
C 432.46603 100.681601 428.546947 108.426409 428.546947 116.500838 
C 428.546947 124.575267 432.46603 132.320075 439.441064 138.029558 
C 446.416098 143.739042 455.877602 146.947046 465.74179 146.947046 
L 465.74179 146.947046 
z
" clip-path="url(#pd5b2caea00)" style="fill: none; stroke-dasharray: 5.55,2.4; stroke-dashoffset: 0; stroke: #2e8b57; stroke-width: 1.5; stroke-linejoin: miter"/>
   </g>
   <g id="PathCollection_5">
    <g clip-path="url(#pd5b2caea00)">
     <use xlink:href="#m84dd107767" x="561.261453" y="214.026198" style="fill: #ff9300; fill-opacity: 0.75; stroke: #ff9300; stroke-opacity: 0.75; stroke-width: 0.5"/>
     <use xlink:href="#m84dd107767" x="525.195146" y="219.453738" style="fill: #ff9300; fill-opacity: 0.75; stroke: #ff9300; stroke-opacity: 0.75; stroke-width: 0.5"/>
     <use xlink:href="#m84dd107767" x="545.391158" y="205.788199" style="fill: #ff9300; fill-opacity: 0.75; stroke: #ff9300; stroke-opacity: 0.75; stroke-width: 0.5"/>
     <use xlink:href="#m84dd107767" x="557.045592" y="195.211168" style="fill: #ff9300; fill-opacity: 0.75; stroke: #ff9300; stroke-opacity: 0.75; stroke-width: 0.5"/>
     <use xlink:href="#m84dd107767" x="532.927144" y="207.149455" style="fill: #ff9300; fill-opacity: 0.75; stroke: #ff9300; stroke-opacity: 0.75; stroke-width: 0.5"/>
     <use xlink:href="#m84dd107767" x="530.231162" y="204.767136" style="fill: #ff9300; fill-opacity: 0.75; stroke: #ff9300; stroke-opacity: 0.75; stroke-width: 0.5"/>
     <use xlink:href="#m84dd107767" x="530.008288" y="218.021705" style="fill: #ff9300; fill-opacity: 0.75; stroke: #ff9300; stroke-opacity: 0.75; stroke-width: 0.5"/>
     <use xlink:href="#m84dd107767" x="573.773062" y="205.178709" style="fill: #ff9300; fill-opacity: 0.75; stroke: #ff9300; stroke-opacity: 0.75; stroke-width: 0.5"/>
     <use xlink:href="#m84dd107767" x="553.986279" y="179.071487" style="fill: #ff9300; fill-opacity: 0.75; stroke: #ff9300; stroke-opacity: 0.75; stroke-width: 0.5"/>
     <use xlink:href="#m84dd107767" x="555.893254" y="206.705434" style="fill: #ff9300; fill-opacity: 0.75; stroke: #ff9300; stroke-opacity: 0.75; stroke-width: 0.5"/>
    </g>
   </g>
   <g id="patch_12">
    <path d="M 546.571254 233.771631 
C 556.679915 233.771631 566.375912 230.796686 573.523815 225.501994 
C 580.671718 220.207301 584.687932 213.025149 584.687932 205.537323 
C 584.687932 198.049497 580.671718 190.867345 573.523815 185.572652 
C 566.375912 180.277959 556.679915 177.303015 546.571254 177.303015 
C 536.462593 177.303015 526.766595 180.277959 519.618693 185.572652 
C 512.47079 190.867345 508.454576 198.049497 508.454576 205.537323 
C 508.454576 213.025149 512.47079 220.207301 519.618693 225.501994 
C 526.766595 230.796686 536.462593 233.771631 546.571254 233.771631 
L 546.571254 233.771631 
z
" clip-path="url(#pd5b2caea00)" style="fill: none; stroke-dasharray: 5.55,2.4; stroke-dashoffset: 0; stroke: #ff9300; stroke-width: 1.5; stroke-linejoin: miter"/>
   </g>
   <g id="PathCollection_6">
    <defs>
     <path id="m8088b29a4c" d="M 0 2.738613 
C 0.726289 2.738613 1.422928 2.450055 1.936492 1.936492 
C 2.450055 1.422928 2.738613 0.726289 2.738613 0 
C 2.738613 -0.726289 2.450055 -1.422928 1.936492 -1.936492 
C 1.422928 -2.450055 0.726289 -2.738613 0 -2.738613 
C -0.726289 -2.738613 -1.422928 -2.450055 -1.936492 -1.936492 
C -2.450055 -1.422928 -2.738613 -0.726289 -2.738613 0 
C -2.738613 0.726289 -2.450055 1.422928 -1.936492 1.936492 
C -1.422928 2.450055 -0.726289 2.738613 0 2.738613 
z
" style="stroke: #c00000; stroke-opacity: 0.75; stroke-width: 0.5"/>
    </defs>
    <g clip-path="url(#pd5b2caea00)">
     <use xlink:href="#m8088b29a4c" x="623.237218" y="249.339197" style="fill: #c00000; fill-opacity: 0.75; stroke: #c00000; stroke-opacity: 0.75; stroke-width: 0.5"/>
     <use xlink:href="#m8088b29a4c" x="637.135796" y="245.02347" style="fill: #c00000; fill-opacity: 0.75; stroke: #c00000; stroke-opacity: 0.75; stroke-width: 0.5"/>
     <use xlink:href="#m8088b29a4c" x="646.07056" y="245.174337" style="fill: #c00000; fill-opacity: 0.75; stroke: #c00000; stroke-opacity: 0.75; stroke-width: 0.5"/>
     <use xlink:href="#m8088b29a4c" x="617.780534" y="245.951798" style="fill: #c00000; fill-opacity: 0.75; stroke: #c00000; stroke-opacity: 0.75; stroke-width: 0.5"/>
     <use xlink:href="#m8088b29a4c" x="630.871307" y="239.634561" style="fill: #c00000; fill-opacity: 0.75; stroke: #c00000; stroke-opacity: 0.75; stroke-width: 0.5"/>
     <use xlink:href="#m8088b29a4c" x="640.83978" y="247.347667" style="fill: #c00000; fill-opacity: 0.75; stroke: #c00000; stroke-opacity: 0.75; stroke-width: 0.5"/>
     <use xlink:href="#m8088b29a4c" x="626.387186" y="221.390461" style="fill: #c00000; fill-opacity: 0.75; stroke: #c00000; stroke-opacity: 0.75; stroke-width: 0.5"/>
     <use xlink:href="#m8088b29a4c" x="619.294258" y="236.032923" style="fill: #c00000; fill-opacity: 0.75; stroke: #c00000; stroke-opacity: 0.75; stroke-width: 0.5"/>
     <use xlink:href="#m8088b29a4c" x="643.519243" y="235.815862" style="fill: #c00000; fill-opacity: 0.75; stroke: #c00000; stroke-opacity: 0.75; stroke-width: 0.5"/>
     <use xlink:href="#m8088b29a4c" x="614.025911" y="263.070084" style="fill: #c00000; fill-opacity: 0.75; stroke: #c00000; stroke-opacity: 0.75; stroke-width: 0.5"/>
    </g>
   </g>
   <g id="patch_13">
    <path d="M 629.916179 269.839383 
C 638.14621 269.839383 646.040268 266.998565 651.859779 261.942587 
C 657.67929 256.886609 660.949116 250.028269 660.949116 242.878036 
C 660.949116 235.727803 657.67929 228.869463 651.859779 223.813485 
C 646.040268 218.757507 638.14621 215.916689 629.916179 215.916689 
C 621.686148 215.916689 613.79209 218.757507 607.972579 223.813485 
C 602.153068 228.869463 598.883242 235.727803 598.883242 242.878036 
C 598.883242 250.028269 602.153068 256.886609 607.972579 261.942587 
C 613.79209 266.998565 621.686148 269.839383 629.916179 269.839383 
L 629.916179 269.839383 
z
" clip-path="url(#pd5b2caea00)" style="fill: none; stroke-dasharray: 5.55,2.4; stroke-dashoffset: 0; stroke: #c00000; stroke-width: 1.5; stroke-linejoin: miter"/>
   </g>
   <g id="patch_14">
    <path d="M 344.88 277.648359 
L 344.88 21.178359 
" style="fill: none; stroke: #f0f0f0; stroke-width: 3; stroke-linejoin: miter; stroke-linecap: square"/>
   </g>
   <g id="patch_15">
    <path d="M 673.92 277.648359 
L 673.92 21.178359 
" style="fill: none; stroke: #f0f0f0; stroke-width: 3; stroke-linejoin: miter; stroke-linecap: square"/>
   </g>
   <g id="patch_16">
    <path d="M 344.88 277.648359 
L 673.92 277.648359 
" style="fill: none; stroke: #f0f0f0; stroke-width: 3; stroke-linejoin: miter; stroke-linecap: square"/>
   </g>
   <g id="patch_17">
    <path d="M 344.88 21.178359 
L 673.92 21.178359 
" style="fill: none; stroke: #f0f0f0; stroke-width: 3; stroke-linejoin: miter; stroke-linecap: square"/>
   </g>
   <g id="text_2">
    <!-- four clusters? also right -->
    <g style="fill: #808080" transform="translate(447.514805 15.178359) scale(0.105 -0.105)">
     <defs>
      <path id="DejaVuSans-66" d="M 2375 4863 
L 2375 4384 
L 1825 4384 
Q 1516 4384 1395 4259 
Q 1275 4134 1275 3809 
L 1275 3500 
L 2222 3500 
L 2222 3053 
L 1275 3053 
L 1275 0 
L 697 0 
L 697 3053 
L 147 3053 
L 147 3500 
L 697 3500 
L 697 3744 
Q 697 4328 969 4595 
Q 1241 4863 1831 4863 
L 2375 4863 
z
" transform="scale(0.015625)"/>
     </defs>
     <use xlink:href="#DejaVuSans-66"/>
     <use xlink:href="#DejaVuSans-6f" transform="translate(35.205078 0)"/>
     <use xlink:href="#DejaVuSans-75" transform="translate(96.386719 0)"/>
     <use xlink:href="#DejaVuSans-72" transform="translate(159.765625 0)"/>
     <use xlink:href="#DejaVuSans-20" transform="translate(200.878906 0)"/>
     <use xlink:href="#DejaVuSans-63" transform="translate(232.666016 0)"/>
     <use xlink:href="#DejaVuSans-6c" transform="translate(287.646484 0)"/>
     <use xlink:href="#DejaVuSans-75" transform="translate(315.429688 0)"/>
     <use xlink:href="#DejaVuSans-73" transform="translate(378.808594 0)"/>
     <use xlink:href="#DejaVuSans-74" transform="translate(430.908203 0)"/>
     <use xlink:href="#DejaVuSans-65" transform="translate(470.117188 0)"/>
     <use xlink:href="#DejaVuSans-72" transform="translate(531.640625 0)"/>
     <use xlink:href="#DejaVuSans-73" transform="translate(572.753906 0)"/>
     <use xlink:href="#DejaVuSans-3f" transform="translate(624.853516 0)"/>
     <use xlink:href="#DejaVuSans-20" transform="translate(677.929688 0)"/>
     <use xlink:href="#DejaVuSans-61" transform="translate(709.716797 0)"/>
     <use xlink:href="#DejaVuSans-6c" transform="translate(770.996094 0)"/>
     <use xlink:href="#DejaVuSans-73" transform="translate(798.779297 0)"/>
     <use xlink:href="#DejaVuSans-6f" transform="translate(850.878906 0)"/>
     <use xlink:href="#DejaVuSans-20" transform="translate(912.060547 0)"/>
     <use xlink:href="#DejaVuSans-72" transform="translate(943.847656 0)"/>
     <use xlink:href="#DejaVuSans-69" transform="translate(984.960938 0)"/>
     <use xlink:href="#DejaVuSans-67" transform="translate(1012.744141 0)"/>
     <use xlink:href="#DejaVuSans-68" transform="translate(1076.220703 0)"/>
     <use xlink:href="#DejaVuSans-74" transform="translate(1139.599609 0)"/>
    </g>
   </g>
  </g>
 </g>
 <defs>
  <clipPath id="pdf39e2cd07">
   <rect x="7.2" y="21.178359" width="329.04" height="256.47"/>
  </clipPath>
  <clipPath id="pd5b2caea00">
   <rect x="344.88" y="21.178359" width="329.04" height="256.47"/>
  </clipPath>
 </defs>
</svg>
