<?xml version="1.0" encoding="utf-8" standalone="no"?>
<!DOCTYPE svg PUBLIC "-//W3C//DTD SVG 1.1//EN"
  "http://www.w3.org/Graphics/SVG/1.1/DTD/svg11.dtd">
<svg xmlns:xlink="http://www.w3.org/1999/xlink" width="853.517812pt" height="350.744062pt" viewBox="0 0 853.517812 350.744062" xmlns="http://www.w3.org/2000/svg" version="1.1">
 <metadata>
  <rdf:RDF xmlns:dc="http://purl.org/dc/elements/1.1/" xmlns:cc="http://creativecommons.org/ns#" xmlns:rdf="http://www.w3.org/1999/02/22-rdf-syntax-ns#">
   <cc:Work>
    <dc:type rdf:resource="http://purl.org/dc/dcmitype/StillImage"/>
    <dc:date>2026-07-16T22:43:11.886860</dc:date>
    <dc:format>image/svg+xml</dc:format>
    <dc:creator>
     <cc:Agent>
      <dc:title>Matplotlib v3.10.8, https://matplotlib.org/</dc:title>
     </cc:Agent>
    </dc:creator>
   </cc:Work>
  </rdf:RDF>
 </metadata>
 <defs>
  <style type="text/css">*{stroke-linejoin: round; stroke-linecap: butt}</style>
 </defs>
 <g id="figure_1">
  <g id="patch_1">
   <path d="M 0 350.744062 
L 853.517812 350.744062 
L 853.517812 0 
L 0 0 
z
" style="fill: #ffffff"/>
  </g>
  <g id="axes_1">
   <g id="patch_2">
    <path d="M 44.749063 312.22 
L 420.313125 312.22 
L 420.313125 22.32 
L 44.749063 22.32 
z
" style="fill: #ffffff"/>
   </g>
   <g id="matplotlib.axis_1">
    <g id="xtick_1">
     <g id="line2d_1">
      <path d="M 44.749063 312.22 
L 44.749063 22.32 
" clip-path="url(#p4a0011e3be)" style="fill: none; stroke-dasharray: 2.96,1.28; stroke-dashoffset: 0; stroke: #b0b0b0; stroke-opacity: 0.4; stroke-width: 0.8"/>
     </g>
     <g id="line2d_2">
      <defs>
       <path id="mc1baeb742e" d="M 0 0 
L 0 3.5 
" style="stroke: #000000; stroke-width: 0.8"/>
      </defs>
      <g>
       <use xlink:href="#mc1baeb742e" x="44.749063" y="312.22" style="stroke: #000000; stroke-width: 0.8"/>
      </g>
     </g>
     <g id="text_1">
      <!-- 0.0 -->
      <g transform="translate(36.7975 326.818437) scale(0.1 -0.1)">
       <defs>
        <path id="DejaVuSans-30" d="M 2034 4250 
Q 1547 4250 1301 3770 
Q 1056 3291 1056 2328 
Q 1056 1369 1301 889 
Q 1547 409 2034 409 
Q 2525 409 2770 889 
Q 3016 1369 3016 2328 
Q 3016 3291 2770 3770 
Q 2525 4250 2034 4250 
z
M 2034 4750 
Q 2819 4750 3233 4129 
Q 3647 3509 3647 2328 
Q 3647 1150 3233 529 
Q 2819 -91 2034 -91 
Q 1250 -91 836 529 
Q 422 1150 422 2328 
Q 422 3509 836 4129 
Q 1250 4750 2034 4750 
z
" transform="scale(0.015625)"/>
        <path id="DejaVuSans-2e" d="M 684 794 
L 1344 794 
L 1344 0 
L 684 0 
L 684 794 
z
" transform="scale(0.015625)"/>
       </defs>
       <use xlink:href="#DejaVuSans-30"/>
       <use xlink:href="#DejaVuSans-2e" transform="translate(63.623047 0)"/>
       <use xlink:href="#DejaVuSans-30" transform="translate(95.410156 0)"/>
      </g>
     </g>
    </g>
    <g id="xtick_2">
     <g id="line2d_3">
      <path d="M 91.69457 312.22 
L 91.69457 22.32 
" clip-path="url(#p4a0011e3be)" style="fill: none; stroke-dasharray: 2.96,1.28; stroke-dashoffset: 0; stroke: #b0b0b0; stroke-opacity: 0.4; stroke-width: 0.8"/>
     </g>
     <g id="line2d_4">
      <g>
       <use xlink:href="#mc1baeb742e" x="91.69457" y="312.22" style="stroke: #000000; stroke-width: 0.8"/>
      </g>
     </g>
     <g id="text_2">
      <!-- 0.5 -->
      <g transform="translate(83.743008 326.818437) scale(0.1 -0.1)">
       <defs>
        <path id="DejaVuSans-35" d="M 691 4666 
L 3169 4666 
L 3169 4134 
L 1269 4134 
L 1269 2991 
Q 1406 3038 1543 3061 
Q 1681 3084 1819 3084 
Q 2600 3084 3056 2656 
Q 3513 2228 3513 1497 
Q 3513 744 3044 326 
Q 2575 -91 1722 -91 
Q 1428 -91 1123 -41 
Q 819 9 494 109 
L 494 744 
Q 775 591 1075 516 
Q 1375 441 1709 441 
Q 2250 441 2565 725 
Q 2881 1009 2881 1497 
Q 2881 1984 2565 2268 
Q 2250 2553 1709 2553 
Q 1456 2553 1204 2497 
Q 953 2441 691 2322 
L 691 4666 
z
" transform="scale(0.015625)"/>
       </defs>
       <use xlink:href="#DejaVuSans-30"/>
       <use xlink:href="#DejaVuSans-2e" transform="translate(63.623047 0)"/>
       <use xlink:href="#DejaVuSans-35" transform="translate(95.410156 0)"/>
      </g>
     </g>
    </g>
    <g id="xtick_3">
     <g id="line2d_5">
      <path d="M 138.640078 312.22 
L 138.640078 22.32 
" clip-path="url(#p4a0011e3be)" style="fill: none; stroke-dasharray: 2.96,1.28; stroke-dashoffset: 0; stroke: #b0b0b0; stroke-opacity: 0.4; stroke-width: 0.8"/>
     </g>
     <g id="line2d_6">
      <g>
       <use xlink:href="#mc1baeb742e" x="138.640078" y="312.22" style="stroke: #000000; stroke-width: 0.8"/>
      </g>
     </g>
     <g id="text_3">
      <!-- 1.0 -->
      <g transform="translate(130.688516 326.818437) scale(0.1 -0.1)">
       <defs>
        <path id="DejaVuSans-31" d="M 794 531 
L 1825 531 
L 1825 4091 
L 703 3866 
L 703 4441 
L 1819 4666 
L 2450 4666 
L 2450 531 
L 3481 531 
L 3481 0 
L 794 0 
L 794 531 
z
" transform="scale(0.015625)"/>
       </defs>
       <use xlink:href="#DejaVuSans-31"/>
       <use xlink:href="#DejaVuSans-2e" transform="translate(63.623047 0)"/>
       <use xlink:href="#DejaVuSans-30" transform="translate(95.410156 0)"/>
      </g>
     </g>
    </g>
    <g id="xtick_4">
     <g id="line2d_7">
      <path d="M 185.585586 312.22 
L 185.585586 22.32 
" clip-path="url(#p4a0011e3be)" style="fill: none; stroke-dasharray: 2.96,1.28; stroke-dashoffset: 0; stroke: #b0b0b0; stroke-opacity: 0.4; stroke-width: 0.8"/>
     </g>
     <g id="line2d_8">
      <g>
       <use xlink:href="#mc1baeb742e" x="185.585586" y="312.22" style="stroke: #000000; stroke-width: 0.8"/>
      </g>
     </g>
     <g id="text_4">
      <!-- 1.5 -->
      <g transform="translate(177.634023 326.818437) scale(0.1 -0.1)">
       <use xlink:href="#DejaVuSans-31"/>
       <use xlink:href="#DejaVuSans-2e" transform="translate(63.623047 0)"/>
       <use xlink:href="#DejaVuSans-35" transform="translate(95.410156 0)"/>
      </g>
     </g>
    </g>
    <g id="xtick_5">
     <g id="line2d_9">
      <path d="M 232.531094 312.22 
L 232.531094 22.32 
" clip-path="url(#p4a0011e3be)" style="fill: none; stroke-dasharray: 2.96,1.28; stroke-dashoffset: 0; stroke: #b0b0b0; stroke-opacity: 0.4; stroke-width: 0.8"/>
     </g>
     <g id="line2d_10">
      <g>
       <use xlink:href="#mc1baeb742e" x="232.531094" y="312.22" style="stroke: #000000; stroke-width: 0.8"/>
      </g>
     </g>
     <g id="text_5">
      <!-- 2.0 -->
      <g transform="translate(224.579531 326.818437) scale(0.1 -0.1)">
       <defs>
        <path id="DejaVuSans-32" d="M 1228 531 
L 3431 531 
L 3431 0 
L 469 0 
L 469 531 
Q 828 903 1448 1529 
Q 2069 2156 2228 2338 
Q 2531 2678 2651 2914 
Q 2772 3150 2772 3378 
Q 2772 3750 2511 3984 
Q 2250 4219 1831 4219 
Q 1534 4219 1204 4116 
Q 875 4013 500 3803 
L 500 4441 
Q 881 4594 1212 4672 
Q 1544 4750 1819 4750 
Q 2544 4750 2975 4387 
Q 3406 4025 3406 3419 
Q 3406 3131 3298 2873 
Q 3191 2616 2906 2266 
Q 2828 2175 2409 1742 
Q 1991 1309 1228 531 
z
" transform="scale(0.015625)"/>
       </defs>
       <use xlink:href="#DejaVuSans-32"/>
       <use xlink:href="#DejaVuSans-2e" transform="translate(63.623047 0)"/>
       <use xlink:href="#DejaVuSans-30" transform="translate(95.410156 0)"/>
      </g>
     </g>
    </g>
    <g id="xtick_6">
     <g id="line2d_11">
      <path d="M 279.476602 312.22 
L 279.476602 22.32 
" clip-path="url(#p4a0011e3be)" style="fill: none; stroke-dasharray: 2.96,1.28; stroke-dashoffset: 0; stroke: #b0b0b0; stroke-opacity: 0.4; stroke-width: 0.8"/>
     </g>
     <g id="line2d_12">
      <g>
       <use xlink:href="#mc1baeb742e" x="279.476602" y="312.22" style="stroke: #000000; stroke-width: 0.8"/>
      </g>
     </g>
     <g id="text_6">
      <!-- 2.5 -->
      <g transform="translate(271.525039 326.818437) scale(0.1 -0.1)">
       <use xlink:href="#DejaVuSans-32"/>
       <use xlink:href="#DejaVuSans-2e" transform="translate(63.623047 0)"/>
       <use xlink:href="#DejaVuSans-35" transform="translate(95.410156 0)"/>
      </g>
     </g>
    </g>
    <g id="xtick_7">
     <g id="line2d_13">
      <path d="M 326.422109 312.22 
L 326.422109 22.32 
" clip-path="url(#p4a0011e3be)" style="fill: none; stroke-dasharray: 2.96,1.28; stroke-dashoffset: 0; stroke: #b0b0b0; stroke-opacity: 0.4; stroke-width: 0.8"/>
     </g>
     <g id="line2d_14">
      <g>
       <use xlink:href="#mc1baeb742e" x="326.422109" y="312.22" style="stroke: #000000; stroke-width: 0.8"/>
      </g>
     </g>
     <g id="text_7">
      <!-- 3.0 -->
      <g transform="translate(318.470547 326.818437) scale(0.1 -0.1)">
       <defs>
        <path id="DejaVuSans-33" d="M 2597 2516 
Q 3050 2419 3304 2112 
Q 3559 1806 3559 1356 
Q 3559 666 3084 287 
Q 2609 -91 1734 -91 
Q 1441 -91 1130 -33 
Q 819 25 488 141 
L 488 750 
Q 750 597 1062 519 
Q 1375 441 1716 441 
Q 2309 441 2620 675 
Q 2931 909 2931 1356 
Q 2931 1769 2642 2001 
Q 2353 2234 1838 2234 
L 1294 2234 
L 1294 2753 
L 1863 2753 
Q 2328 2753 2575 2939 
Q 2822 3125 2822 3475 
Q 2822 3834 2567 4026 
Q 2313 4219 1838 4219 
Q 1578 4219 1281 4162 
Q 984 4106 628 3988 
L 628 4550 
Q 988 4650 1302 4700 
Q 1616 4750 1894 4750 
Q 2613 4750 3031 4423 
Q 3450 4097 3450 3541 
Q 3450 3153 3228 2886 
Q 3006 2619 2597 2516 
z
" transform="scale(0.015625)"/>
       </defs>
       <use xlink:href="#DejaVuSans-33"/>
       <use xlink:href="#DejaVuSans-2e" transform="translate(63.623047 0)"/>
       <use xlink:href="#DejaVuSans-30" transform="translate(95.410156 0)"/>
      </g>
     </g>
    </g>
    <g id="xtick_8">
     <g id="line2d_15">
      <path d="M 373.367617 312.22 
L 373.367617 22.32 
" clip-path="url(#p4a0011e3be)" style="fill: none; stroke-dasharray: 2.96,1.28; stroke-dashoffset: 0; stroke: #b0b0b0; stroke-opacity: 0.4; stroke-width: 0.8"/>
     </g>
     <g id="line2d_16">
      <g>
       <use xlink:href="#mc1baeb742e" x="373.367617" y="312.22" style="stroke: #000000; stroke-width: 0.8"/>
      </g>
     </g>
     <g id="text_8">
      <!-- 3.5 -->
      <g transform="translate(365.416055 326.818437) scale(0.1 -0.1)">
       <use xlink:href="#DejaVuSans-33"/>
       <use xlink:href="#DejaVuSans-2e" transform="translate(63.623047 0)"/>
       <use xlink:href="#DejaVuSans-35" transform="translate(95.410156 0)"/>
      </g>
     </g>
    </g>
    <g id="xtick_9">
     <g id="line2d_17">
      <path d="M 420.313125 312.22 
L 420.313125 22.32 
" clip-path="url(#p4a0011e3be)" style="fill: none; stroke-dasharray: 2.96,1.28; stroke-dashoffset: 0; stroke: #b0b0b0; stroke-opacity: 0.4; stroke-width: 0.8"/>
     </g>
     <g id="line2d_18">
      <g>
       <use xlink:href="#mc1baeb742e" x="420.313125" y="312.22" style="stroke: #000000; stroke-width: 0.8"/>
      </g>
     </g>
     <g id="text_9">
      <!-- 4.0 -->
      <g transform="translate(412.361562 326.818437) scale(0.1 -0.1)">
       <defs>
        <path id="DejaVuSans-34" d="M 2419 4116 
L 825 1625 
L 2419 1625 
L 2419 4116 
z
M 2253 4666 
L 3047 4666 
L 3047 1625 
L 3713 1625 
L 3713 1100 
L 3047 1100 
L 3047 0 
L 2419 0 
L 2419 1100 
L 313 1100 
L 313 1709 
L 2253 4666 
z
" transform="scale(0.015625)"/>
       </defs>
       <use xlink:href="#DejaVuSans-34"/>
       <use xlink:href="#DejaVuSans-2e" transform="translate(63.623047 0)"/>
       <use xlink:href="#DejaVuSans-30" transform="translate(95.410156 0)"/>
      </g>
     </g>
    </g>
    <g id="text_10">
     <!-- $x$ -->
     <g transform="translate(229.231094 341.256406) scale(0.11 -0.11)">
      <defs>
       <path id="DejaVuSans-Oblique-78" d="M 3841 3500 
L 2234 1784 
L 3219 0 
L 2559 0 
L 1819 1388 
L 531 0 
L -166 0 
L 1556 1844 
L 641 3500 
L 1300 3500 
L 1972 2234 
L 3144 3500 
L 3841 3500 
z
" transform="scale(0.015625)"/>
      </defs>
      <use xlink:href="#DejaVuSans-Oblique-78" transform="translate(0 0.3125)"/>
     </g>
    </g>
   </g>
   <g id="matplotlib.axis_2">
    <g id="ytick_1">
     <g id="line2d_19">
      <path d="M 44.749063 312.22 
L 420.313125 312.22 
" clip-path="url(#p4a0011e3be)" style="fill: none; stroke-dasharray: 2.96,1.28; stroke-dashoffset: 0; stroke: #b0b0b0; stroke-opacity: 0.4; stroke-width: 0.8"/>
     </g>
     <g id="line2d_20">
      <defs>
       <path id="m3d03fb07bd" d="M 0 0 
L -3.5 0 
" style="stroke: #000000; stroke-width: 0.8"/>
      </defs>
      <g>
       <use xlink:href="#m3d03fb07bd" x="44.749063" y="312.22" style="stroke: #000000; stroke-width: 0.8"/>
      </g>
     </g>
     <g id="text_11">
      <!-- 0.0 -->
      <g transform="translate(21.845937 316.019219) scale(0.1 -0.1)">
       <use xlink:href="#DejaVuSans-30"/>
       <use xlink:href="#DejaVuSans-2e" transform="translate(63.623047 0)"/>
       <use xlink:href="#DejaVuSans-30" transform="translate(95.410156 0)"/>
      </g>
     </g>
    </g>
    <g id="ytick_2">
     <g id="line2d_21">
      <path d="M 44.749063 275.9825 
L 420.313125 275.9825 
" clip-path="url(#p4a0011e3be)" style="fill: none; stroke-dasharray: 2.96,1.28; stroke-dashoffset: 0; stroke: #b0b0b0; stroke-opacity: 0.4; stroke-width: 0.8"/>
     </g>
     <g id="line2d_22">
      <g>
       <use xlink:href="#m3d03fb07bd" x="44.749063" y="275.9825" style="stroke: #000000; stroke-width: 0.8"/>
      </g>
     </g>
     <g id="text_12">
      <!-- 0.5 -->
      <g transform="translate(21.845937 279.781719) scale(0.1 -0.1)">
       <use xlink:href="#DejaVuSans-30"/>
       <use xlink:href="#DejaVuSans-2e" transform="translate(63.623047 0)"/>
       <use xlink:href="#DejaVuSans-35" transform="translate(95.410156 0)"/>
      </g>
     </g>
    </g>
    <g id="ytick_3">
     <g id="line2d_23">
      <path d="M 44.749063 239.745 
L 420.313125 239.745 
" clip-path="url(#p4a0011e3be)" style="fill: none; stroke-dasharray: 2.96,1.28; stroke-dashoffset: 0; stroke: #b0b0b0; stroke-opacity: 0.4; stroke-width: 0.8"/>
     </g>
     <g id="line2d_24">
      <g>
       <use xlink:href="#m3d03fb07bd" x="44.749063" y="239.745" style="stroke: #000000; stroke-width: 0.8"/>
      </g>
     </g>
     <g id="text_13">
      <!-- 1.0 -->
      <g transform="translate(21.845937 243.544219) scale(0.1 -0.1)">
       <use xlink:href="#DejaVuSans-31"/>
       <use xlink:href="#DejaVuSans-2e" transform="translate(63.623047 0)"/>
       <use xlink:href="#DejaVuSans-30" transform="translate(95.410156 0)"/>
      </g>
     </g>
    </g>
    <g id="ytick_4">
     <g id="line2d_25">
      <path d="M 44.749063 203.5075 
L 420.313125 203.5075 
" clip-path="url(#p4a0011e3be)" style="fill: none; stroke-dasharray: 2.96,1.28; stroke-dashoffset: 0; stroke: #b0b0b0; stroke-opacity: 0.4; stroke-width: 0.8"/>
     </g>
     <g id="line2d_26">
      <g>
       <use xlink:href="#m3d03fb07bd" x="44.749063" y="203.5075" style="stroke: #000000; stroke-width: 0.8"/>
      </g>
     </g>
     <g id="text_14">
      <!-- 1.5 -->
      <g transform="translate(21.845937 207.306719) scale(0.1 -0.1)">
       <use xlink:href="#DejaVuSans-31"/>
       <use xlink:href="#DejaVuSans-2e" transform="translate(63.623047 0)"/>
       <use xlink:href="#DejaVuSans-35" transform="translate(95.410156 0)"/>
      </g>
     </g>
    </g>
    <g id="ytick_5">
     <g id="line2d_27">
      <path d="M 44.749063 167.27 
L 420.313125 167.27 
" clip-path="url(#p4a0011e3be)" style="fill: none; stroke-dasharray: 2.96,1.28; stroke-dashoffset: 0; stroke: #b0b0b0; stroke-opacity: 0.4; stroke-width: 0.8"/>
     </g>
     <g id="line2d_28">
      <g>
       <use xlink:href="#m3d03fb07bd" x="44.749063" y="167.27" style="stroke: #000000; stroke-width: 0.8"/>
      </g>
     </g>
     <g id="text_15">
      <!-- 2.0 -->
      <g transform="translate(21.845937 171.069219) scale(0.1 -0.1)">
       <use xlink:href="#DejaVuSans-32"/>
       <use xlink:href="#DejaVuSans-2e" transform="translate(63.623047 0)"/>
       <use xlink:href="#DejaVuSans-30" transform="translate(95.410156 0)"/>
      </g>
     </g>
    </g>
    <g id="ytick_6">
     <g id="line2d_29">
      <path d="M 44.749063 131.0325 
L 420.313125 131.0325 
" clip-path="url(#p4a0011e3be)" style="fill: none; stroke-dasharray: 2.96,1.28; stroke-dashoffset: 0; stroke: #b0b0b0; stroke-opacity: 0.4; stroke-width: 0.8"/>
     </g>
     <g id="line2d_30">
      <g>
       <use xlink:href="#m3d03fb07bd" x="44.749063" y="131.0325" style="stroke: #000000; stroke-width: 0.8"/>
      </g>
     </g>
     <g id="text_16">
      <!-- 2.5 -->
      <g transform="translate(21.845937 134.831719) scale(0.1 -0.1)">
       <use xlink:href="#DejaVuSans-32"/>
       <use xlink:href="#DejaVuSans-2e" transform="translate(63.623047 0)"/>
       <use xlink:href="#DejaVuSans-35" transform="translate(95.410156 0)"/>
      </g>
     </g>
    </g>
    <g id="ytick_7">
     <g id="line2d_31">
      <path d="M 44.749063 94.795 
L 420.313125 94.795 
" clip-path="url(#p4a0011e3be)" style="fill: none; stroke-dasharray: 2.96,1.28; stroke-dashoffset: 0; stroke: #b0b0b0; stroke-opacity: 0.4; stroke-width: 0.8"/>
     </g>
     <g id="line2d_32">
      <g>
       <use xlink:href="#m3d03fb07bd" x="44.749063" y="94.795" style="stroke: #000000; stroke-width: 0.8"/>
      </g>
     </g>
     <g id="text_17">
      <!-- 3.0 -->
      <g transform="translate(21.845937 98.594219) scale(0.1 -0.1)">
       <use xlink:href="#DejaVuSans-33"/>
       <use xlink:href="#DejaVuSans-2e" transform="translate(63.623047 0)"/>
       <use xlink:href="#DejaVuSans-30" transform="translate(95.410156 0)"/>
      </g>
     </g>
    </g>
    <g id="ytick_8">
     <g id="line2d_33">
      <path d="M 44.749063 58.5575 
L 420.313125 58.5575 
" clip-path="url(#p4a0011e3be)" style="fill: none; stroke-dasharray: 2.96,1.28; stroke-dashoffset: 0; stroke: #b0b0b0; stroke-opacity: 0.4; stroke-width: 0.8"/>
     </g>
     <g id="line2d_34">
      <g>
       <use xlink:href="#m3d03fb07bd" x="44.749063" y="58.5575" style="stroke: #000000; stroke-width: 0.8"/>
      </g>
     </g>
     <g id="text_18">
      <!-- 3.5 -->
      <g transform="translate(21.845937 62.356719) scale(0.1 -0.1)">
       <use xlink:href="#DejaVuSans-33"/>
       <use xlink:href="#DejaVuSans-2e" transform="translate(63.623047 0)"/>
       <use xlink:href="#DejaVuSans-35" transform="translate(95.410156 0)"/>
      </g>
     </g>
    </g>
    <g id="ytick_9">
     <g id="line2d_35">
      <path d="M 44.749063 22.32 
L 420.313125 22.32 
" clip-path="url(#p4a0011e3be)" style="fill: none; stroke-dasharray: 2.96,1.28; stroke-dashoffset: 0; stroke: #b0b0b0; stroke-opacity: 0.4; stroke-width: 0.8"/>
     </g>
     <g id="line2d_36">
      <g>
       <use xlink:href="#m3d03fb07bd" x="44.749063" y="22.32" style="stroke: #000000; stroke-width: 0.8"/>
      </g>
     </g>
     <g id="text_19">
      <!-- 4.0 -->
      <g transform="translate(21.845937 26.119219) scale(0.1 -0.1)">
       <use xlink:href="#DejaVuSans-34"/>
       <use xlink:href="#DejaVuSans-2e" transform="translate(63.623047 0)"/>
       <use xlink:href="#DejaVuSans-30" transform="translate(95.410156 0)"/>
      </g>
     </g>
    </g>
    <g id="text_20">
     <!-- $f_w(x)$ -->
     <g transform="translate(15.558281 180.085) rotate(-90) scale(0.11 -0.11)">
      <defs>
       <path id="DejaVuSans-Oblique-66" d="M 3059 4863 
L 2969 4384 
L 2419 4384 
Q 2106 4384 1964 4261 
Q 1822 4138 1753 3809 
L 1691 3500 
L 2638 3500 
L 2553 3053 
L 1606 3053 
L 1013 0 
L 434 0 
L 1031 3053 
L 481 3053 
L 563 3500 
L 1113 3500 
L 1159 3744 
Q 1278 4363 1576 4613 
Q 1875 4863 2516 4863 
L 3059 4863 
z
" transform="scale(0.015625)"/>
       <path id="DejaVuSans-Oblique-77" d="M 544 3500 
L 1113 3500 
L 1259 684 
L 2566 3500 
L 3231 3500 
L 3425 684 
L 4666 3500 
L 5241 3500 
L 3641 0 
L 2969 0 
L 2797 2900 
L 1459 0 
L 781 0 
L 544 3500 
z
" transform="scale(0.015625)"/>
       <path id="DejaVuSans-28" d="M 1984 4856 
Q 1566 4138 1362 3434 
Q 1159 2731 1159 2009 
Q 1159 1288 1364 580 
Q 1569 -128 1984 -844 
L 1484 -844 
Q 1016 -109 783 600 
Q 550 1309 550 2009 
Q 550 2706 781 3412 
Q 1013 4119 1484 4856 
L 1984 4856 
z
" transform="scale(0.015625)"/>
       <path id="DejaVuSans-29" d="M 513 4856 
L 1013 4856 
Q 1481 4119 1714 3412 
Q 1947 2706 1947 2009 
Q 1947 1309 1714 600 
Q 1481 -109 1013 -844 
L 513 -844 
Q 928 -128 1133 580 
Q 1338 1288 1338 2009 
Q 1338 2731 1133 3434 
Q 928 4138 513 4856 
z
" transform="scale(0.015625)"/>
      </defs>
      <use xlink:href="#DejaVuSans-Oblique-66" transform="translate(0 0.015625)"/>
      <use xlink:href="#DejaVuSans-Oblique-77" transform="translate(35.205078 -16.390625) scale(0.7)"/>
      <use xlink:href="#DejaVuSans-28" transform="translate(95.19043 0.015625)"/>
      <use xlink:href="#DejaVuSans-Oblique-78" transform="translate(134.204102 0.015625)"/>
      <use xlink:href="#DejaVuSans-29" transform="translate(193.383789 0.015625)"/>
     </g>
    </g>
   </g>
   <g id="line2d_37">
    <path d="M 44.749063 312.22 
L 48.542639 312.22 
L 52.336215 312.22 
L 56.129792 312.22 
L 59.923368 312.22 
L 63.716944 312.22 
L 67.510521 312.22 
L 71.304097 312.22 
L 75.097674 312.22 
L 78.89125 312.22 
L 82.684826 312.22 
L 86.478403 312.22 
L 90.271979 312.22 
L 94.065556 312.22 
L 97.859132 312.22 
L 101.652708 312.22 
L 105.446285 312.22 
L 109.239861 312.22 
L 113.033438 312.22 
L 116.827014 312.22 
L 120.62059 312.22 
L 124.414167 312.22 
L 128.207743 312.22 
L 132.001319 312.22 
L 135.794896 312.22 
L 139.588472 312.22 
L 143.382049 312.22 
L 147.175625 312.22 
L 150.969201 312.22 
L 154.762778 312.22 
L 158.556354 312.22 
L 162.349931 312.22 
L 166.143507 312.22 
L 169.937083 312.22 
L 173.73066 312.22 
L 177.524236 312.22 
L 181.317813 312.22 
L 185.111389 312.22 
L 188.904965 312.22 
L 192.698542 312.22 
L 196.492118 312.22 
L 200.285694 312.22 
L 204.079271 312.22 
L 207.872847 312.22 
L 211.666424 312.22 
L 215.46 312.22 
L 219.253576 312.22 
L 223.047153 312.22 
L 226.840729 312.22 
L 230.634306 312.22 
L 234.427882 312.22 
L 238.221458 312.22 
L 242.015035 312.22 
L 245.808611 312.22 
L 249.602188 312.22 
L 253.395764 312.22 
L 257.18934 312.22 
L 260.982917 312.22 
L 264.776493 312.22 
L 268.570069 312.22 
L 272.363646 312.22 
L 276.157222 312.22 
L 279.950799 312.22 
L 283.744375 312.22 
L 287.537951 312.22 
L 291.331528 312.22 
L 295.125104 312.22 
L 298.918681 312.22 
L 302.712257 312.22 
L 306.505833 312.22 
L 310.29941 312.22 
L 314.092986 312.22 
L 317.886563 312.22 
L 321.680139 312.22 
L 325.473715 312.22 
L 329.267292 312.22 
L 333.060868 312.22 
L 336.854444 312.22 
L 340.648021 312.22 
L 344.441597 312.22 
L 348.235174 312.22 
L 352.02875 312.22 
L 355.822326 312.22 
L 359.615903 312.22 
L 363.409479 312.22 
L 367.203056 312.22 
L 370.996632 312.22 
L 374.790208 312.22 
L 378.583785 312.22 
L 382.377361 312.22 
L 386.170938 312.22 
L 389.964514 312.22 
L 393.75809 312.22 
L 397.551667 312.22 
L 401.345243 312.22 
L 405.138819 312.22 
L 408.932396 312.22 
L 412.725972 312.22 
L 416.519549 312.22 
L 420.313125 312.22 
" clip-path="url(#p4a0011e3be)" style="fill: none; stroke-dasharray: 11.1,4.8; stroke-dashoffset: 0; stroke: #cc0000; stroke-width: 3"/>
   </g>
   <g id="line2d_38">
    <path d="M 44.749063 312.22 
L 48.542639 310.755859 
L 52.336215 309.291717 
L 56.129792 307.827576 
L 59.923368 306.363434 
L 63.716944 304.899293 
L 67.510521 303.435152 
L 71.304097 301.97101 
L 75.097674 300.506869 
L 78.89125 299.042727 
L 82.684826 297.578586 
L 86.478403 296.114444 
L 90.271979 294.650303 
L 94.065556 293.186162 
L 97.859132 291.72202 
L 101.652708 290.257879 
L 105.446285 288.793737 
L 109.239861 287.329596 
L 113.033438 285.865455 
L 116.827014 284.401313 
L 120.62059 282.937172 
L 124.414167 281.47303 
L 128.207743 280.008889 
L 132.001319 278.544747 
L 135.794896 277.080606 
L 139.588472 275.616465 
L 143.382049 274.152323 
L 147.175625 272.688182 
L 150.969201 271.22404 
L 154.762778 269.759899 
L 158.556354 268.295758 
L 162.349931 266.831616 
L 166.143507 265.367475 
L 169.937083 263.903333 
L 173.73066 262.439192 
L 177.524236 260.975051 
L 181.317813 259.510909 
L 185.111389 258.046768 
L 188.904965 256.582626 
L 192.698542 255.118485 
L 196.492118 253.654343 
L 200.285694 252.190202 
L 204.079271 250.726061 
L 207.872847 249.261919 
L 211.666424 247.797778 
L 215.46 246.333636 
L 219.253576 244.869495 
L 223.047153 243.405354 
L 226.840729 241.941212 
L 230.634306 240.477071 
L 234.427882 239.012929 
L 238.221458 237.548788 
L 242.015035 236.084646 
L 245.808611 234.620505 
L 249.602188 233.156364 
L 253.395764 231.692222 
L 257.18934 230.228081 
L 260.982917 228.763939 
L 264.776493 227.299798 
L 268.570069 225.835657 
L 272.363646 224.371515 
L 276.157222 222.907374 
L 279.950799 221.443232 
L 283.744375 219.979091 
L 287.537951 218.514949 
L 291.331528 217.050808 
L 295.125104 215.586667 
L 298.918681 214.122525 
L 302.712257 212.658384 
L 306.505833 211.194242 
L 310.29941 209.730101 
L 314.092986 208.26596 
L 317.886563 206.801818 
L 321.680139 205.337677 
L 325.473715 203.873535 
L 329.267292 202.409394 
L 333.060868 200.945253 
L 336.854444 199.481111 
L 340.648021 198.01697 
L 344.441597 196.552828 
L 348.235174 195.088687 
L 352.02875 193.624545 
L 355.822326 192.160404 
L 359.615903 190.696263 
L 363.409479 189.232121 
L 367.203056 187.76798 
L 370.996632 186.303838 
L 374.790208 184.839697 
L 378.583785 183.375556 
L 382.377361 181.911414 
L 386.170938 180.447273 
L 389.964514 178.983131 
L 393.75809 177.51899 
L 397.551667 176.054848 
L 401.345243 174.590707 
L 405.138819 173.126566 
L 408.932396 171.662424 
L 412.725972 170.198283 
L 416.519549 168.734141 
L 420.313125 167.27 
" clip-path="url(#p4a0011e3be)" style="fill: none; stroke: #cc7000; stroke-width: 2; stroke-linecap: square"/>
   </g>
   <g id="line2d_39">
    <path d="M 44.749063 312.22 
L 48.542639 309.291717 
L 52.336215 306.363434 
L 56.129792 303.435152 
L 59.923368 300.506869 
L 63.716944 297.578586 
L 67.510521 294.650303 
L 71.304097 291.72202 
L 75.097674 288.793737 
L 78.89125 285.865455 
L 82.684826 282.937172 
L 86.478403 280.008889 
L 90.271979 277.080606 
L 94.065556 274.152323 
L 97.859132 271.22404 
L 101.652708 268.295758 
L 105.446285 265.367475 
L 109.239861 262.439192 
L 113.033438 259.510909 
L 116.827014 256.582626 
L 120.62059 253.654343 
L 124.414167 250.726061 
L 128.207743 247.797778 
L 132.001319 244.869495 
L 135.794896 241.941212 
L 139.588472 239.012929 
L 143.382049 236.084646 
L 147.175625 233.156364 
L 150.969201 230.228081 
L 154.762778 227.299798 
L 158.556354 224.371515 
L 162.349931 221.443232 
L 166.143507 218.514949 
L 169.937083 215.586667 
L 173.73066 212.658384 
L 177.524236 209.730101 
L 181.317813 206.801818 
L 185.111389 203.873535 
L 188.904965 200.945253 
L 192.698542 198.01697 
L 196.492118 195.088687 
L 200.285694 192.160404 
L 204.079271 189.232121 
L 207.872847 186.303838 
L 211.666424 183.375556 
L 215.46 180.447273 
L 219.253576 177.51899 
L 223.047153 174.590707 
L 226.840729 171.662424 
L 230.634306 168.734141 
L 234.427882 165.805859 
L 238.221458 162.877576 
L 242.015035 159.949293 
L 245.808611 157.02101 
L 249.602188 154.092727 
L 253.395764 151.164444 
L 257.18934 148.236162 
L 260.982917 145.307879 
L 264.776493 142.379596 
L 268.570069 139.451313 
L 272.363646 136.52303 
L 276.157222 133.594747 
L 279.950799 130.666465 
L 283.744375 127.738182 
L 287.537951 124.809899 
L 291.331528 121.881616 
L 295.125104 118.953333 
L 298.918681 116.025051 
L 302.712257 113.096768 
L 306.505833 110.168485 
L 310.29941 107.240202 
L 314.092986 104.311919 
L 317.886563 101.383636 
L 321.680139 98.455354 
L 325.473715 95.527071 
L 329.267292 92.598788 
L 333.060868 89.670505 
L 336.854444 86.742222 
L 340.648021 83.813939 
L 344.441597 80.885657 
L 348.235174 77.957374 
L 352.02875 75.029091 
L 355.822326 72.100808 
L 359.615903 69.172525 
L 363.409479 66.244242 
L 367.203056 63.31596 
L 370.996632 60.387677 
L 374.790208 57.459394 
L 378.583785 54.531111 
L 382.377361 51.602828 
L 386.170938 48.674545 
L 389.964514 45.746263 
L 393.75809 42.81798 
L 397.551667 39.889697 
L 401.345243 36.961414 
L 405.138819 34.033131 
L 408.932396 31.104848 
L 412.725972 28.176566 
L 416.519549 25.248283 
L 420.313125 22.32 
" clip-path="url(#p4a0011e3be)" style="fill: none; stroke: #2e8b57; stroke-width: 2; stroke-linecap: square"/>
   </g>
   <g id="patch_3">
    <path d="M 44.749063 312.22 
L 44.749063 22.32 
" style="fill: none; stroke: #000000; stroke-width: 0.8; stroke-linejoin: miter; stroke-linecap: square"/>
   </g>
   <g id="patch_4">
    <path d="M 420.313125 312.22 
L 420.313125 22.32 
" style="fill: none; stroke: #000000; stroke-width: 0.8; stroke-linejoin: miter; stroke-linecap: square"/>
   </g>
   <g id="patch_5">
    <path d="M 44.749063 312.22 
L 420.313125 312.22 
" style="fill: none; stroke: #000000; stroke-width: 0.8; stroke-linejoin: miter; stroke-linecap: square"/>
   </g>
   <g id="patch_6">
    <path d="M 44.749063 22.32 
L 420.313125 22.32 
" style="fill: none; stroke: #000000; stroke-width: 0.8; stroke-linejoin: miter; stroke-linecap: square"/>
   </g>
   <g id="text_21">
    <!-- Model $f_w(x) = wx$ -->
    <g style="fill: #808080" transform="translate(182.791094 16.32) scale(0.12 -0.12)">
     <defs>
      <path id="DejaVuSans-4d" d="M 628 4666 
L 1569 4666 
L 2759 1491 
L 3956 4666 
L 4897 4666 
L 4897 0 
L 4281 0 
L 4281 4097 
L 3078 897 
L 2444 897 
L 1241 4097 
L 1241 0 
L 628 0 
L 628 4666 
z
" transform="scale(0.015625)"/>
      <path id="DejaVuSans-6f" d="M 1959 3097 
Q 1497 3097 1228 2736 
Q 959 2375 959 1747 
Q 959 1119 1226 758 
Q 1494 397 1959 397 
Q 2419 397 2687 759 
Q 2956 1122 2956 1747 
Q 2956 2369 2687 2733 
Q 2419 3097 1959 3097 
z
M 1959 3584 
Q 2709 3584 3137 3096 
Q 3566 2609 3566 1747 
Q 3566 888 3137 398 
Q 2709 -91 1959 -91 
Q 1206 -91 779 398 
Q 353 888 353 1747 
Q 353 2609 779 3096 
Q 1206 3584 1959 3584 
z
" transform="scale(0.015625)"/>
      <path id="DejaVuSans-64" d="M 2906 2969 
L 2906 4863 
L 3481 4863 
L 3481 0 
L 2906 0 
L 2906 525 
Q 2725 213 2448 61 
Q 2172 -91 1784 -91 
Q 1150 -91 751 415 
Q 353 922 353 1747 
Q 353 2572 751 3078 
Q 1150 3584 1784 3584 
Q 2172 3584 2448 3432 
Q 2725 3281 2906 2969 
z
M 947 1747 
Q 947 1113 1208 752 
Q 1469 391 1925 391 
Q 2381 391 2643 752 
Q 2906 1113 2906 1747 
Q 2906 2381 2643 2742 
Q 2381 3103 1925 3103 
Q 1469 3103 1208 2742 
Q 947 2381 947 1747 
z
" transform="scale(0.015625)"/>
      <path id="DejaVuSans-65" d="M 3597 1894 
L 3597 1613 
L 953 1613 
Q 991 1019 1311 708 
Q 1631 397 2203 397 
Q 2534 397 2845 478 
Q 3156 559 3463 722 
L 3463 178 
Q 3153 47 2828 -22 
Q 2503 -91 2169 -91 
Q 1331 -91 842 396 
Q 353 884 353 1716 
Q 353 2575 817 3079 
Q 1281 3584 2069 3584 
Q 2775 3584 3186 3129 
Q 3597 2675 3597 1894 
z
M 3022 2063 
Q 3016 2534 2758 2815 
Q 2500 3097 2075 3097 
Q 1594 3097 1305 2825 
Q 1016 2553 972 2059 
L 3022 2063 
z
" transform="scale(0.015625)"/>
      <path id="DejaVuSans-6c" d="M 603 4863 
L 1178 4863 
L 1178 0 
L 603 0 
L 603 4863 
z
" transform="scale(0.015625)"/>
      <path id="DejaVuSans-20" transform="scale(0.015625)"/>
      <path id="DejaVuSans-3d" d="M 678 2906 
L 4684 2906 
L 4684 2381 
L 678 2381 
L 678 2906 
z
M 678 1631 
L 4684 1631 
L 4684 1100 
L 678 1100 
L 678 1631 
z
" transform="scale(0.015625)"/>
     </defs>
     <use xlink:href="#DejaVuSans-4d" transform="translate(0 0.015625)"/>
     <use xlink:href="#DejaVuSans-6f" transform="translate(86.279297 0.015625)"/>
     <use xlink:href="#DejaVuSans-64" transform="translate(147.460938 0.015625)"/>
     <use xlink:href="#DejaVuSans-65" transform="translate(210.9375 0.015625)"/>
     <use xlink:href="#DejaVuSans-6c" transform="translate(272.460938 0.015625)"/>
     <use xlink:href="#DejaVuSans-20" transform="translate(300.244141 0.015625)"/>
     <use xlink:href="#DejaVuSans-Oblique-66" transform="translate(332.03125 0.015625)"/>
     <use xlink:href="#DejaVuSans-Oblique-77" transform="translate(367.236328 -16.390625) scale(0.7)"/>
     <use xlink:href="#DejaVuSans-28" transform="translate(427.22168 0.015625)"/>
     <use xlink:href="#DejaVuSans-Oblique-78" transform="translate(466.235352 0.015625)"/>
     <use xlink:href="#DejaVuSans-29" transform="translate(525.415039 0.015625)"/>
     <use xlink:href="#DejaVuSans-3d" transform="translate(583.911133 0.015625)"/>
     <use xlink:href="#DejaVuSans-Oblique-77" transform="translate(687.182617 0.015625)"/>
     <use xlink:href="#DejaVuSans-Oblique-78" transform="translate(768.969727 0.015625)"/>
    </g>
   </g>
   <g id="PathCollection_1">
    <defs>
     <path id="mbc399dd34f" d="M -4.472136 4.472136 
L 4.472136 -4.472136 
M -4.472136 -4.472136 
L 4.472136 4.472136 
" style="stroke: #4682b4; stroke-width: 2"/>
    </defs>
    <g clip-path="url(#p4a0011e3be)">
     <use xlink:href="#mbc399dd34f" x="138.640078" y="239.745" style="fill: #4682b4; stroke: #4682b4; stroke-width: 2"/>
     <use xlink:href="#mbc399dd34f" x="232.531094" y="167.27" style="fill: #4682b4; stroke: #4682b4; stroke-width: 2"/>
     <use xlink:href="#mbc399dd34f" x="326.422109" y="94.795" style="fill: #4682b4; stroke: #4682b4; stroke-width: 2"/>
    </g>
   </g>
   <g id="legend_1">
    <g id="patch_7">
     <path d="M 51.749063 89.0325 
L 148.90375 89.0325 
Q 150.90375 89.0325 150.90375 87.0325 
L 150.90375 29.32 
Q 150.90375 27.32 148.90375 27.32 
L 51.749063 27.32 
Q 49.749063 27.32 49.749063 29.32 
L 49.749063 87.0325 
Q 49.749063 89.0325 51.749063 89.0325 
z
" style="fill: #ffffff; opacity: 0.8; stroke: #cccccc; stroke-linejoin: miter"/>
    </g>
    <g id="line2d_40">
     <path d="M 53.749063 35.418437 
L 63.749063 35.418437 
L 73.749063 35.418437 
" style="fill: none; stroke-dasharray: 11.1,4.8; stroke-dashoffset: 0; stroke: #cc0000; stroke-width: 3"/>
    </g>
    <g id="text_22">
     <!-- $w = 0$ -->
     <g transform="translate(81.749063 38.918437) scale(0.1 -0.1)">
      <use xlink:href="#DejaVuSans-Oblique-77" transform="translate(0 0.78125)"/>
      <use xlink:href="#DejaVuSans-3d" transform="translate(101.269531 0.78125)"/>
      <use xlink:href="#DejaVuSans-30" transform="translate(204.541016 0.78125)"/>
     </g>
    </g>
    <g id="line2d_41">
     <path d="M 53.749063 50.096563 
L 63.749063 50.096563 
L 73.749063 50.096563 
" style="fill: none; stroke: #cc7000; stroke-width: 2; stroke-linecap: square"/>
    </g>
    <g id="text_23">
     <!-- $w = 0.5$ -->
     <g transform="translate(81.749063 53.596563) scale(0.1 -0.1)">
      <use xlink:href="#DejaVuSans-Oblique-77" transform="translate(0 0.78125)"/>
      <use xlink:href="#DejaVuSans-3d" transform="translate(101.269531 0.78125)"/>
      <use xlink:href="#DejaVuSans-30" transform="translate(204.541016 0.78125)"/>
      <use xlink:href="#DejaVuSans-2e" transform="translate(268.164062 0.78125)"/>
      <use xlink:href="#DejaVuSans-35" transform="translate(299.951172 0.78125)"/>
     </g>
    </g>
    <g id="line2d_42">
     <path d="M 53.749063 64.774687 
L 63.749063 64.774687 
L 73.749063 64.774687 
" style="fill: none; stroke: #2e8b57; stroke-width: 2; stroke-linecap: square"/>
    </g>
    <g id="text_24">
     <!-- $w = 1.0$ -->
     <g transform="translate(81.749063 68.274687) scale(0.1 -0.1)">
      <use xlink:href="#DejaVuSans-Oblique-77" transform="translate(0 0.78125)"/>
      <use xlink:href="#DejaVuSans-3d" transform="translate(101.269531 0.78125)"/>
      <use xlink:href="#DejaVuSans-31" transform="translate(204.541016 0.78125)"/>
      <use xlink:href="#DejaVuSans-2e" transform="translate(268.164062 0.78125)"/>
      <use xlink:href="#DejaVuSans-30" transform="translate(299.951172 0.78125)"/>
     </g>
    </g>
    <g id="PathCollection_2">
     <g>
      <use xlink:href="#mbc399dd34f" x="63.749063" y="80.327812" style="fill: #4682b4; stroke: #4682b4; stroke-width: 2"/>
     </g>
    </g>
    <g id="text_25">
     <!-- Training data -->
     <g transform="translate(81.749063 82.952812) scale(0.1 -0.1)">
      <defs>
       <path id="DejaVuSans-54" d="M -19 4666 
L 3928 4666 
L 3928 4134 
L 2272 4134 
L 2272 0 
L 1638 0 
L 1638 4134 
L -19 4134 
L -19 4666 
z
" transform="scale(0.015625)"/>
       <path id="DejaVuSans-72" d="M 2631 2963 
Q 2534 3019 2420 3045 
Q 2306 3072 2169 3072 
Q 1681 3072 1420 2755 
Q 1159 2438 1159 1844 
L 1159 0 
L 581 0 
L 581 3500 
L 1159 3500 
L 1159 2956 
Q 1341 3275 1631 3429 
Q 1922 3584 2338 3584 
Q 2397 3584 2469 3576 
Q 2541 3569 2628 3553 
L 2631 2963 
z
" transform="scale(0.015625)"/>
       <path id="DejaVuSans-61" d="M 2194 1759 
Q 1497 1759 1228 1600 
Q 959 1441 959 1056 
Q 959 750 1161 570 
Q 1363 391 1709 391 
Q 2188 391 2477 730 
Q 2766 1069 2766 1631 
L 2766 1759 
L 2194 1759 
z
M 3341 1997 
L 3341 0 
L 2766 0 
L 2766 531 
Q 2569 213 2275 61 
Q 1981 -91 1556 -91 
Q 1019 -91 701 211 
Q 384 513 384 1019 
Q 384 1609 779 1909 
Q 1175 2209 1959 2209 
L 2766 2209 
L 2766 2266 
Q 2766 2663 2505 2880 
Q 2244 3097 1772 3097 
Q 1472 3097 1187 3025 
Q 903 2953 641 2809 
L 641 3341 
Q 956 3463 1253 3523 
Q 1550 3584 1831 3584 
Q 2591 3584 2966 3190 
Q 3341 2797 3341 1997 
z
" transform="scale(0.015625)"/>
       <path id="DejaVuSans-69" d="M 603 3500 
L 1178 3500 
L 1178 0 
L 603 0 
L 603 3500 
z
M 603 4863 
L 1178 4863 
L 1178 4134 
L 603 4134 
L 603 4863 
z
" transform="scale(0.015625)"/>
       <path id="DejaVuSans-6e" d="M 3513 2113 
L 3513 0 
L 2938 0 
L 2938 2094 
Q 2938 2591 2744 2837 
Q 2550 3084 2163 3084 
Q 1697 3084 1428 2787 
Q 1159 2491 1159 1978 
L 1159 0 
L 581 0 
L 581 3500 
L 1159 3500 
L 1159 2956 
Q 1366 3272 1645 3428 
Q 1925 3584 2291 3584 
Q 2894 3584 3203 3211 
Q 3513 2838 3513 2113 
z
" transform="scale(0.015625)"/>
       <path id="DejaVuSans-67" d="M 2906 1791 
Q 2906 2416 2648 2759 
Q 2391 3103 1925 3103 
Q 1463 3103 1205 2759 
Q 947 2416 947 1791 
Q 947 1169 1205 825 
Q 1463 481 1925 481 
Q 2391 481 2648 825 
Q 2906 1169 2906 1791 
z
M 3481 434 
Q 3481 -459 3084 -895 
Q 2688 -1331 1869 -1331 
Q 1566 -1331 1297 -1286 
Q 1028 -1241 775 -1147 
L 775 -588 
Q 1028 -725 1275 -790 
Q 1522 -856 1778 -856 
Q 2344 -856 2625 -561 
Q 2906 -266 2906 331 
L 2906 616 
Q 2728 306 2450 153 
Q 2172 0 1784 0 
Q 1141 0 747 490 
Q 353 981 353 1791 
Q 353 2603 747 3093 
Q 1141 3584 1784 3584 
Q 2172 3584 2450 3431 
Q 2728 3278 2906 2969 
L 2906 3500 
L 3481 3500 
L 3481 434 
z
" transform="scale(0.015625)"/>
       <path id="DejaVuSans-74" d="M 1172 4494 
L 1172 3500 
L 2356 3500 
L 2356 3053 
L 1172 3053 
L 1172 1153 
Q 1172 725 1289 603 
Q 1406 481 1766 481 
L 2356 481 
L 2356 0 
L 1766 0 
Q 1100 0 847 248 
Q 594 497 594 1153 
L 594 3053 
L 172 3053 
L 172 3500 
L 594 3500 
L 594 4494 
L 1172 4494 
z
" transform="scale(0.015625)"/>
      </defs>
      <use xlink:href="#DejaVuSans-54"/>
      <use xlink:href="#DejaVuSans-72" transform="translate(46.333984 0)"/>
      <use xlink:href="#DejaVuSans-61" transform="translate(87.447266 0)"/>
      <use xlink:href="#DejaVuSans-69" transform="translate(148.726562 0)"/>
      <use xlink:href="#DejaVuSans-6e" transform="translate(176.509766 0)"/>
      <use xlink:href="#DejaVuSans-69" transform="translate(239.888672 0)"/>
      <use xlink:href="#DejaVuSans-6e" transform="translate(267.671875 0)"/>
      <use xlink:href="#DejaVuSans-67" transform="translate(331.050781 0)"/>
      <use xlink:href="#DejaVuSans-20" transform="translate(394.527344 0)"/>
      <use xlink:href="#DejaVuSans-64" transform="translate(426.314453 0)"/>
      <use xlink:href="#DejaVuSans-61" transform="translate(489.791016 0)"/>
      <use xlink:href="#DejaVuSans-74" transform="translate(551.070312 0)"/>
      <use xlink:href="#DejaVuSans-61" transform="translate(590.279297 0)"/>
     </g>
    </g>
   </g>
  </g>
  <g id="axes_2">
   <g id="patch_8">
    <path d="M 470.75375 312.22 
L 846.317813 312.22 
L 846.317813 22.32 
L 470.75375 22.32 
z
" style="fill: #ffffff"/>
   </g>
   <g id="matplotlib.axis_3">
    <g id="xtick_10">
     <g id="line2d_43">
      <path d="M 487.824844 312.22 
L 487.824844 22.32 
" clip-path="url(#p99186cbfa1)" style="fill: none; stroke-dasharray: 2.96,1.28; stroke-dashoffset: 0; stroke: #b0b0b0; stroke-opacity: 0.4; stroke-width: 0.8"/>
     </g>
     <g id="line2d_44">
      <g>
       <use xlink:href="#mc1baeb742e" x="487.824844" y="312.22" style="stroke: #000000; stroke-width: 0.8"/>
      </g>
     </g>
     <g id="text_26">
      <!-- −0.5 -->
      <g transform="translate(475.683438 326.818437) scale(0.1 -0.1)">
       <defs>
        <path id="DejaVuSans-2212" d="M 678 2272 
L 4684 2272 
L 4684 1741 
L 678 1741 
L 678 2272 
z
" transform="scale(0.015625)"/>
       </defs>
       <use xlink:href="#DejaVuSans-2212"/>
       <use xlink:href="#DejaVuSans-30" transform="translate(83.789062 0)"/>
       <use xlink:href="#DejaVuSans-2e" transform="translate(147.412109 0)"/>
       <use xlink:href="#DejaVuSans-35" transform="translate(179.199219 0)"/>
      </g>
     </g>
    </g>
    <g id="xtick_11">
     <g id="line2d_45">
      <path d="M 544.72849 312.22 
L 544.72849 22.32 
" clip-path="url(#p99186cbfa1)" style="fill: none; stroke-dasharray: 2.96,1.28; stroke-dashoffset: 0; stroke: #b0b0b0; stroke-opacity: 0.4; stroke-width: 0.8"/>
     </g>
     <g id="line2d_46">
      <g>
       <use xlink:href="#mc1baeb742e" x="544.72849" y="312.22" style="stroke: #000000; stroke-width: 0.8"/>
      </g>
     </g>
     <g id="text_27">
      <!-- 0.0 -->
      <g transform="translate(536.776927 326.818437) scale(0.1 -0.1)">
       <use xlink:href="#DejaVuSans-30"/>
       <use xlink:href="#DejaVuSans-2e" transform="translate(63.623047 0)"/>
       <use xlink:href="#DejaVuSans-30" transform="translate(95.410156 0)"/>
      </g>
     </g>
    </g>
    <g id="xtick_12">
     <g id="line2d_47">
      <path d="M 601.632135 312.22 
L 601.632135 22.32 
" clip-path="url(#p99186cbfa1)" style="fill: none; stroke-dasharray: 2.96,1.28; stroke-dashoffset: 0; stroke: #b0b0b0; stroke-opacity: 0.4; stroke-width: 0.8"/>
     </g>
     <g id="line2d_48">
      <g>
       <use xlink:href="#mc1baeb742e" x="601.632135" y="312.22" style="stroke: #000000; stroke-width: 0.8"/>
      </g>
     </g>
     <g id="text_28">
      <!-- 0.5 -->
      <g transform="translate(593.680573 326.818437) scale(0.1 -0.1)">
       <use xlink:href="#DejaVuSans-30"/>
       <use xlink:href="#DejaVuSans-2e" transform="translate(63.623047 0)"/>
       <use xlink:href="#DejaVuSans-35" transform="translate(95.410156 0)"/>
      </g>
     </g>
    </g>
    <g id="xtick_13">
     <g id="line2d_49">
      <path d="M 658.535781 312.22 
L 658.535781 22.32 
" clip-path="url(#p99186cbfa1)" style="fill: none; stroke-dasharray: 2.96,1.28; stroke-dashoffset: 0; stroke: #b0b0b0; stroke-opacity: 0.4; stroke-width: 0.8"/>
     </g>
     <g id="line2d_50">
      <g>
       <use xlink:href="#mc1baeb742e" x="658.535781" y="312.22" style="stroke: #000000; stroke-width: 0.8"/>
      </g>
     </g>
     <g id="text_29">
      <!-- 1.0 -->
      <g transform="translate(650.584219 326.818437) scale(0.1 -0.1)">
       <use xlink:href="#DejaVuSans-31"/>
       <use xlink:href="#DejaVuSans-2e" transform="translate(63.623047 0)"/>
       <use xlink:href="#DejaVuSans-30" transform="translate(95.410156 0)"/>
      </g>
     </g>
    </g>
    <g id="xtick_14">
     <g id="line2d_51">
      <path d="M 715.439427 312.22 
L 715.439427 22.32 
" clip-path="url(#p99186cbfa1)" style="fill: none; stroke-dasharray: 2.96,1.28; stroke-dashoffset: 0; stroke: #b0b0b0; stroke-opacity: 0.4; stroke-width: 0.8"/>
     </g>
     <g id="line2d_52">
      <g>
       <use xlink:href="#mc1baeb742e" x="715.439427" y="312.22" style="stroke: #000000; stroke-width: 0.8"/>
      </g>
     </g>
     <g id="text_30">
      <!-- 1.5 -->
      <g transform="translate(707.487865 326.818437) scale(0.1 -0.1)">
       <use xlink:href="#DejaVuSans-31"/>
       <use xlink:href="#DejaVuSans-2e" transform="translate(63.623047 0)"/>
       <use xlink:href="#DejaVuSans-35" transform="translate(95.410156 0)"/>
      </g>
     </g>
    </g>
    <g id="xtick_15">
     <g id="line2d_53">
      <path d="M 772.343073 312.22 
L 772.343073 22.32 
" clip-path="url(#p99186cbfa1)" style="fill: none; stroke-dasharray: 2.96,1.28; stroke-dashoffset: 0; stroke: #b0b0b0; stroke-opacity: 0.4; stroke-width: 0.8"/>
     </g>
     <g id="line2d_54">
      <g>
       <use xlink:href="#mc1baeb742e" x="772.343073" y="312.22" style="stroke: #000000; stroke-width: 0.8"/>
      </g>
     </g>
     <g id="text_31">
      <!-- 2.0 -->
      <g transform="translate(764.39151 326.818437) scale(0.1 -0.1)">
       <use xlink:href="#DejaVuSans-32"/>
       <use xlink:href="#DejaVuSans-2e" transform="translate(63.623047 0)"/>
       <use xlink:href="#DejaVuSans-30" transform="translate(95.410156 0)"/>
      </g>
     </g>
    </g>
    <g id="xtick_16">
     <g id="line2d_55">
      <path d="M 829.246719 312.22 
L 829.246719 22.32 
" clip-path="url(#p99186cbfa1)" style="fill: none; stroke-dasharray: 2.96,1.28; stroke-dashoffset: 0; stroke: #b0b0b0; stroke-opacity: 0.4; stroke-width: 0.8"/>
     </g>
     <g id="line2d_56">
      <g>
       <use xlink:href="#mc1baeb742e" x="829.246719" y="312.22" style="stroke: #000000; stroke-width: 0.8"/>
      </g>
     </g>
     <g id="text_32">
      <!-- 2.5 -->
      <g transform="translate(821.295156 326.818437) scale(0.1 -0.1)">
       <use xlink:href="#DejaVuSans-32"/>
       <use xlink:href="#DejaVuSans-2e" transform="translate(63.623047 0)"/>
       <use xlink:href="#DejaVuSans-35" transform="translate(95.410156 0)"/>
      </g>
     </g>
    </g>
    <g id="text_33">
     <!-- $w$ -->
     <g transform="translate(654.025781 341.256406) scale(0.11 -0.11)">
      <use xlink:href="#DejaVuSans-Oblique-77" transform="translate(0 0.3125)"/>
     </g>
    </g>
   </g>
   <g id="matplotlib.axis_4">
    <g id="ytick_10">
     <g id="line2d_57">
      <path d="M 470.75375 299.042727 
L 846.317813 299.042727 
" clip-path="url(#p99186cbfa1)" style="fill: none; stroke-dasharray: 2.96,1.28; stroke-dashoffset: 0; stroke: #b0b0b0; stroke-opacity: 0.4; stroke-width: 0.8"/>
     </g>
     <g id="line2d_58">
      <g>
       <use xlink:href="#m3d03fb07bd" x="470.75375" y="299.042727" style="stroke: #000000; stroke-width: 0.8"/>
      </g>
     </g>
     <g id="text_34">
      <!-- 0 -->
      <g transform="translate(457.39125 302.841946) scale(0.1 -0.1)">
       <use xlink:href="#DejaVuSans-30"/>
      </g>
     </g>
    </g>
    <g id="ytick_11">
     <g id="line2d_59">
      <path d="M 470.75375 248.843593 
L 846.317813 248.843593 
" clip-path="url(#p99186cbfa1)" style="fill: none; stroke-dasharray: 2.96,1.28; stroke-dashoffset: 0; stroke: #b0b0b0; stroke-opacity: 0.4; stroke-width: 0.8"/>
     </g>
     <g id="line2d_60">
      <g>
       <use xlink:href="#m3d03fb07bd" x="470.75375" y="248.843593" style="stroke: #000000; stroke-width: 0.8"/>
      </g>
     </g>
     <g id="text_35">
      <!-- 1 -->
      <g transform="translate(457.39125 252.642812) scale(0.1 -0.1)">
       <use xlink:href="#DejaVuSans-31"/>
      </g>
     </g>
    </g>
    <g id="ytick_12">
     <g id="line2d_61">
      <path d="M 470.75375 198.644459 
L 846.317813 198.644459 
" clip-path="url(#p99186cbfa1)" style="fill: none; stroke-dasharray: 2.96,1.28; stroke-dashoffset: 0; stroke: #b0b0b0; stroke-opacity: 0.4; stroke-width: 0.8"/>
     </g>
     <g id="line2d_62">
      <g>
       <use xlink:href="#m3d03fb07bd" x="470.75375" y="198.644459" style="stroke: #000000; stroke-width: 0.8"/>
      </g>
     </g>
     <g id="text_36">
      <!-- 2 -->
      <g transform="translate(457.39125 202.443678) scale(0.1 -0.1)">
       <use xlink:href="#DejaVuSans-32"/>
      </g>
     </g>
    </g>
    <g id="ytick_13">
     <g id="line2d_63">
      <path d="M 470.75375 148.445325 
L 846.317813 148.445325 
" clip-path="url(#p99186cbfa1)" style="fill: none; stroke-dasharray: 2.96,1.28; stroke-dashoffset: 0; stroke: #b0b0b0; stroke-opacity: 0.4; stroke-width: 0.8"/>
     </g>
     <g id="line2d_64">
      <g>
       <use xlink:href="#m3d03fb07bd" x="470.75375" y="148.445325" style="stroke: #000000; stroke-width: 0.8"/>
      </g>
     </g>
     <g id="text_37">
      <!-- 3 -->
      <g transform="translate(457.39125 152.244543) scale(0.1 -0.1)">
       <use xlink:href="#DejaVuSans-33"/>
      </g>
     </g>
    </g>
    <g id="ytick_14">
     <g id="line2d_65">
      <path d="M 470.75375 98.24619 
L 846.317813 98.24619 
" clip-path="url(#p99186cbfa1)" style="fill: none; stroke-dasharray: 2.96,1.28; stroke-dashoffset: 0; stroke: #b0b0b0; stroke-opacity: 0.4; stroke-width: 0.8"/>
     </g>
     <g id="line2d_66">
      <g>
       <use xlink:href="#m3d03fb07bd" x="470.75375" y="98.24619" style="stroke: #000000; stroke-width: 0.8"/>
      </g>
     </g>
     <g id="text_38">
      <!-- 4 -->
      <g transform="translate(457.39125 102.045409) scale(0.1 -0.1)">
       <use xlink:href="#DejaVuSans-34"/>
      </g>
     </g>
    </g>
    <g id="ytick_15">
     <g id="line2d_67">
      <path d="M 470.75375 48.047056 
L 846.317813 48.047056 
" clip-path="url(#p99186cbfa1)" style="fill: none; stroke-dasharray: 2.96,1.28; stroke-dashoffset: 0; stroke: #b0b0b0; stroke-opacity: 0.4; stroke-width: 0.8"/>
     </g>
     <g id="line2d_68">
      <g>
       <use xlink:href="#m3d03fb07bd" x="470.75375" y="48.047056" style="stroke: #000000; stroke-width: 0.8"/>
      </g>
     </g>
     <g id="text_39">
      <!-- 5 -->
      <g transform="translate(457.39125 51.846275) scale(0.1 -0.1)">
       <use xlink:href="#DejaVuSans-35"/>
      </g>
     </g>
    </g>
    <g id="text_40">
     <!-- $J(w)$ -->
     <g transform="translate(451.08125 177.72) rotate(-90) scale(0.11 -0.11)">
      <defs>
       <path id="DejaVuSans-Oblique-4a" d="M 1069 4666 
L 1703 4666 
L 856 325 
Q 691 -522 298 -901 
Q -94 -1281 -800 -1281 
L -1050 -1281 
L -947 -750 
L -750 -750 
Q -328 -750 -109 -509 
Q 109 -269 225 325 
L 1069 4666 
z
" transform="scale(0.015625)"/>
      </defs>
      <use xlink:href="#DejaVuSans-Oblique-4a" transform="translate(0 0.125)"/>
      <use xlink:href="#DejaVuSans-28" transform="translate(29.492188 0.125)"/>
      <use xlink:href="#DejaVuSans-Oblique-77" transform="translate(68.505859 0.125)"/>
      <use xlink:href="#DejaVuSans-29" transform="translate(150.292969 0.125)"/>
     </g>
    </g>
   </g>
   <g id="line2d_69">
    <path d="M 487.824844 35.497273 
L 491.27355 46.038015 
L 494.722255 56.363641 
L 498.170961 66.474149 
L 501.619667 76.36954 
L 505.068373 86.049814 
L 508.517079 95.51497 
L 511.965784 104.76501 
L 515.41449 113.799932 
L 518.863196 122.619737 
L 522.311902 131.224425 
L 525.760608 139.613996 
L 529.209313 147.788449 
L 532.658019 155.747785 
L 536.106725 163.492004 
L 539.555431 171.021106 
L 543.004137 178.335091 
L 546.452842 185.433958 
L 549.901548 192.317708 
L 553.350254 198.986342 
L 556.79896 205.439857 
L 560.247666 211.678256 
L 563.696372 217.701538 
L 567.145077 223.509702 
L 570.593783 229.102749 
L 574.042489 234.480679 
L 577.491195 239.643492 
L 580.939901 244.591187 
L 584.388606 249.323765 
L 587.837312 253.841226 
L 591.286018 258.14357 
L 594.734724 262.230797 
L 598.18343 266.102907 
L 601.632135 269.759899 
L 605.080841 273.201774 
L 608.529547 276.428532 
L 611.978253 279.440173 
L 615.426959 282.236696 
L 618.875664 284.818103 
L 622.32437 287.184392 
L 625.773076 289.335564 
L 629.221782 291.271619 
L 632.670488 292.992556 
L 636.119193 294.498377 
L 639.567899 295.78908 
L 643.016605 296.864666 
L 646.465311 297.725134 
L 649.914017 298.370486 
L 653.362723 298.80072 
L 656.811428 299.015838 
L 660.260134 299.015838 
L 663.70884 298.80072 
L 667.157546 298.370486 
L 670.606252 297.725134 
L 674.054957 296.864666 
L 677.503663 295.78908 
L 680.952369 294.498377 
L 684.401075 292.992556 
L 687.849781 291.271619 
L 691.298486 289.335564 
L 694.747192 287.184392 
L 698.195898 284.818103 
L 701.644604 282.236696 
L 705.09331 279.440173 
L 708.542015 276.428532 
L 711.990721 273.201774 
L 715.439427 269.759899 
L 718.888133 266.102907 
L 722.336839 262.230797 
L 725.785545 258.14357 
L 729.23425 253.841226 
L 732.682956 249.323765 
L 736.131662 244.591187 
L 739.580368 239.643492 
L 743.029074 234.480679 
L 746.477779 229.102749 
L 749.926485 223.509702 
L 753.375191 217.701538 
L 756.823897 211.678256 
L 760.272603 205.439857 
L 763.721308 198.986342 
L 767.170014 192.317708 
L 770.61872 185.433958 
L 774.067426 178.335091 
L 777.516132 171.021106 
L 780.964837 163.492004 
L 784.413543 155.747785 
L 787.862249 147.788449 
L 791.310955 139.613996 
L 794.759661 131.224425 
L 798.208366 122.619737 
L 801.657072 113.799932 
L 805.105778 104.76501 
L 808.554484 95.51497 
L 812.00319 86.049814 
L 815.451896 76.36954 
L 818.900601 66.474149 
L 822.349307 56.363641 
L 825.798013 46.038015 
L 829.246719 35.497273 
" clip-path="url(#p99186cbfa1)" style="fill: none; stroke: #22176f; stroke-width: 2; stroke-linecap: square"/>
   </g>
   <g id="patch_9">
    <path d="M 470.75375 312.22 
L 470.75375 22.32 
" style="fill: none; stroke: #000000; stroke-width: 0.8; stroke-linejoin: miter; stroke-linecap: square"/>
   </g>
   <g id="patch_10">
    <path d="M 846.317813 312.22 
L 846.317813 22.32 
" style="fill: none; stroke: #000000; stroke-width: 0.8; stroke-linejoin: miter; stroke-linecap: square"/>
   </g>
   <g id="patch_11">
    <path d="M 470.75375 312.22 
L 846.317813 312.22 
" style="fill: none; stroke: #000000; stroke-width: 0.8; stroke-linejoin: miter; stroke-linecap: square"/>
   </g>
   <g id="patch_12">
    <path d="M 470.75375 22.32 
L 846.317813 22.32 
" style="fill: none; stroke: #000000; stroke-width: 0.8; stroke-linejoin: miter; stroke-linecap: square"/>
   </g>
   <g id="text_41">
    <!-- $J(0) = 2.33$ -->
    <g style="fill: #cc0000" transform="translate(556.109219 171.871587) scale(0.09 -0.09)">
     <use xlink:href="#DejaVuSans-Oblique-4a" transform="translate(0 0.125)"/>
     <use xlink:href="#DejaVuSans-28" transform="translate(29.492188 0.125)"/>
     <use xlink:href="#DejaVuSans-30" transform="translate(68.505859 0.125)"/>
     <use xlink:href="#DejaVuSans-29" transform="translate(132.128906 0.125)"/>
     <use xlink:href="#DejaVuSans-3d" transform="translate(190.625 0.125)"/>
     <use xlink:href="#DejaVuSans-32" transform="translate(293.896484 0.125)"/>
     <use xlink:href="#DejaVuSans-2e" transform="translate(357.519531 0.125)"/>
     <use xlink:href="#DejaVuSans-33" transform="translate(389.306641 0.125)"/>
     <use xlink:href="#DejaVuSans-33" transform="translate(452.929688 0.125)"/>
    </g>
   </g>
   <g id="text_42">
    <!-- $J(0.5) = 0.58$ -->
    <g style="fill: #cc7000" transform="translate(613.012865 259.720072) scale(0.09 -0.09)">
     <defs>
      <path id="DejaVuSans-38" d="M 2034 2216 
Q 1584 2216 1326 1975 
Q 1069 1734 1069 1313 
Q 1069 891 1326 650 
Q 1584 409 2034 409 
Q 2484 409 2743 651 
Q 3003 894 3003 1313 
Q 3003 1734 2745 1975 
Q 2488 2216 2034 2216 
z
M 1403 2484 
Q 997 2584 770 2862 
Q 544 3141 544 3541 
Q 544 4100 942 4425 
Q 1341 4750 2034 4750 
Q 2731 4750 3128 4425 
Q 3525 4100 3525 3541 
Q 3525 3141 3298 2862 
Q 3072 2584 2669 2484 
Q 3125 2378 3379 2068 
Q 3634 1759 3634 1313 
Q 3634 634 3220 271 
Q 2806 -91 2034 -91 
Q 1263 -91 848 271 
Q 434 634 434 1313 
Q 434 1759 690 2068 
Q 947 2378 1403 2484 
z
M 1172 3481 
Q 1172 3119 1398 2916 
Q 1625 2713 2034 2713 
Q 2441 2713 2670 2916 
Q 2900 3119 2900 3481 
Q 2900 3844 2670 4047 
Q 2441 4250 2034 4250 
Q 1625 4250 1398 4047 
Q 1172 3844 1172 3481 
z
" transform="scale(0.015625)"/>
     </defs>
     <use xlink:href="#DejaVuSans-Oblique-4a" transform="translate(0 0.125)"/>
     <use xlink:href="#DejaVuSans-28" transform="translate(29.492188 0.125)"/>
     <use xlink:href="#DejaVuSans-30" transform="translate(68.505859 0.125)"/>
     <use xlink:href="#DejaVuSans-2e" transform="translate(132.128906 0.125)"/>
     <use xlink:href="#DejaVuSans-35" transform="translate(163.916016 0.125)"/>
     <use xlink:href="#DejaVuSans-29" transform="translate(227.539062 0.125)"/>
     <use xlink:href="#DejaVuSans-3d" transform="translate(286.035156 0.125)"/>
     <use xlink:href="#DejaVuSans-30" transform="translate(389.306641 0.125)"/>
     <use xlink:href="#DejaVuSans-2e" transform="translate(452.929688 0.125)"/>
     <use xlink:href="#DejaVuSans-35" transform="translate(484.716797 0.125)"/>
     <use xlink:href="#DejaVuSans-38" transform="translate(548.339844 0.125)"/>
    </g>
   </g>
   <g id="text_43">
    <!-- $J(1.0) = 0.00$ -->
    <g style="fill: #2e8b57" transform="translate(669.91651 289.0029) scale(0.09 -0.09)">
     <use xlink:href="#DejaVuSans-Oblique-4a" transform="translate(0 0.125)"/>
     <use xlink:href="#DejaVuSans-28" transform="translate(29.492188 0.125)"/>
     <use xlink:href="#DejaVuSans-31" transform="translate(68.505859 0.125)"/>
     <use xlink:href="#DejaVuSans-2e" transform="translate(132.128906 0.125)"/>
     <use xlink:href="#DejaVuSans-30" transform="translate(163.916016 0.125)"/>
     <use xlink:href="#DejaVuSans-29" transform="translate(227.539062 0.125)"/>
     <use xlink:href="#DejaVuSans-3d" transform="translate(286.035156 0.125)"/>
     <use xlink:href="#DejaVuSans-30" transform="translate(389.306641 0.125)"/>
     <use xlink:href="#DejaVuSans-2e" transform="translate(452.929688 0.125)"/>
     <use xlink:href="#DejaVuSans-30" transform="translate(484.716797 0.125)"/>
     <use xlink:href="#DejaVuSans-30" transform="translate(548.339844 0.125)"/>
    </g>
   </g>
   <g id="text_44">
    <!-- Cost function $J(w)$ -->
    <g style="fill: #808080" transform="translate(605.495781 16.32) scale(0.12 -0.12)">
     <defs>
      <path id="DejaVuSans-43" d="M 4122 4306 
L 4122 3641 
Q 3803 3938 3442 4084 
Q 3081 4231 2675 4231 
Q 1875 4231 1450 3742 
Q 1025 3253 1025 2328 
Q 1025 1406 1450 917 
Q 1875 428 2675 428 
Q 3081 428 3442 575 
Q 3803 722 4122 1019 
L 4122 359 
Q 3791 134 3420 21 
Q 3050 -91 2638 -91 
Q 1578 -91 968 557 
Q 359 1206 359 2328 
Q 359 3453 968 4101 
Q 1578 4750 2638 4750 
Q 3056 4750 3426 4639 
Q 3797 4528 4122 4306 
z
" transform="scale(0.015625)"/>
      <path id="DejaVuSans-73" d="M 2834 3397 
L 2834 2853 
Q 2591 2978 2328 3040 
Q 2066 3103 1784 3103 
Q 1356 3103 1142 2972 
Q 928 2841 928 2578 
Q 928 2378 1081 2264 
Q 1234 2150 1697 2047 
L 1894 2003 
Q 2506 1872 2764 1633 
Q 3022 1394 3022 966 
Q 3022 478 2636 193 
Q 2250 -91 1575 -91 
Q 1294 -91 989 -36 
Q 684 19 347 128 
L 347 722 
Q 666 556 975 473 
Q 1284 391 1588 391 
Q 1994 391 2212 530 
Q 2431 669 2431 922 
Q 2431 1156 2273 1281 
Q 2116 1406 1581 1522 
L 1381 1569 
Q 847 1681 609 1914 
Q 372 2147 372 2553 
Q 372 3047 722 3315 
Q 1072 3584 1716 3584 
Q 2034 3584 2315 3537 
Q 2597 3491 2834 3397 
z
" transform="scale(0.015625)"/>
      <path id="DejaVuSans-66" d="M 2375 4863 
L 2375 4384 
L 1825 4384 
Q 1516 4384 1395 4259 
Q 1275 4134 1275 3809 
L 1275 3500 
L 2222 3500 
L 2222 3053 
L 1275 3053 
L 1275 0 
L 697 0 
L 697 3053 
L 147 3053 
L 147 3500 
L 697 3500 
L 697 3744 
Q 697 4328 969 4595 
Q 1241 4863 1831 4863 
L 2375 4863 
z
" transform="scale(0.015625)"/>
      <path id="DejaVuSans-75" d="M 544 1381 
L 544 3500 
L 1119 3500 
L 1119 1403 
Q 1119 906 1312 657 
Q 1506 409 1894 409 
Q 2359 409 2629 706 
Q 2900 1003 2900 1516 
L 2900 3500 
L 3475 3500 
L 3475 0 
L 2900 0 
L 2900 538 
Q 2691 219 2414 64 
Q 2138 -91 1772 -91 
Q 1169 -91 856 284 
Q 544 659 544 1381 
z
M 1991 3584 
L 1991 3584 
z
" transform="scale(0.015625)"/>
      <path id="DejaVuSans-63" d="M 3122 3366 
L 3122 2828 
Q 2878 2963 2633 3030 
Q 2388 3097 2138 3097 
Q 1578 3097 1268 2742 
Q 959 2388 959 1747 
Q 959 1106 1268 751 
Q 1578 397 2138 397 
Q 2388 397 2633 464 
Q 2878 531 3122 666 
L 3122 134 
Q 2881 22 2623 -34 
Q 2366 -91 2075 -91 
Q 1284 -91 818 406 
Q 353 903 353 1747 
Q 353 2603 823 3093 
Q 1294 3584 2113 3584 
Q 2378 3584 2631 3529 
Q 2884 3475 3122 3366 
z
" transform="scale(0.015625)"/>
     </defs>
     <use xlink:href="#DejaVuSans-43" transform="translate(0 0.015625)"/>
     <use xlink:href="#DejaVuSans-6f" transform="translate(69.824219 0.015625)"/>
     <use xlink:href="#DejaVuSans-73" transform="translate(131.005859 0.015625)"/>
     <use xlink:href="#DejaVuSans-74" transform="translate(183.105469 0.015625)"/>
     <use xlink:href="#DejaVuSans-20" transform="translate(222.314453 0.015625)"/>
     <use xlink:href="#DejaVuSans-66" transform="translate(254.101562 0.015625)"/>
     <use xlink:href="#DejaVuSans-75" transform="translate(289.306641 0.015625)"/>
     <use xlink:href="#DejaVuSans-6e" transform="translate(352.685547 0.015625)"/>
     <use xlink:href="#DejaVuSans-63" transform="translate(416.064453 0.015625)"/>
     <use xlink:href="#DejaVuSans-74" transform="translate(471.044922 0.015625)"/>
     <use xlink:href="#DejaVuSans-69" transform="translate(510.253906 0.015625)"/>
     <use xlink:href="#DejaVuSans-6f" transform="translate(538.037109 0.015625)"/>
     <use xlink:href="#DejaVuSans-6e" transform="translate(599.21875 0.015625)"/>
     <use xlink:href="#DejaVuSans-20" transform="translate(662.597656 0.015625)"/>
     <use xlink:href="#DejaVuSans-Oblique-4a" transform="translate(694.384766 0.015625)"/>
     <use xlink:href="#DejaVuSans-28" transform="translate(723.876953 0.015625)"/>
     <use xlink:href="#DejaVuSans-Oblique-77" transform="translate(762.890625 0.015625)"/>
     <use xlink:href="#DejaVuSans-29" transform="translate(844.677734 0.015625)"/>
    </g>
   </g>
   <g id="line2d_70">
    <defs>
     <path id="ma1dea98f39" d="M 0 5 
C 1.326016 5 2.597899 4.473168 3.535534 3.535534 
C 4.473168 2.597899 5 1.326016 5 0 
C 5 -1.326016 4.473168 -2.597899 3.535534 -3.535534 
C 2.597899 -4.473168 1.326016 -5 0 -5 
C -1.326016 -5 -2.597899 -4.473168 -3.535534 -3.535534 
C -4.473168 -2.597899 -5 -1.326016 -5 0 
C -5 1.326016 -4.473168 2.597899 -3.535534 3.535534 
C -2.597899 4.473168 -1.326016 5 0 5 
z
" style="stroke: #cc0000"/>
    </defs>
    <g clip-path="url(#p99186cbfa1)">
     <use xlink:href="#ma1dea98f39" x="544.72849" y="181.911414" style="fill: #cc0000; stroke: #cc0000"/>
    </g>
   </g>
   <g id="line2d_71">
    <defs>
     <path id="m47393dfb9c" d="M 0 5 
C 1.326016 5 2.597899 4.473168 3.535534 3.535534 
C 4.473168 2.597899 5 1.326016 5 0 
C 5 -1.326016 4.473168 -2.597899 3.535534 -3.535534 
C 2.597899 -4.473168 1.326016 -5 0 -5 
C -1.326016 -5 -2.597899 -4.473168 -3.535534 -3.535534 
C -4.473168 -2.597899 -5 -1.326016 -5 0 
C -5 1.326016 -4.473168 2.597899 -3.535534 3.535534 
C -2.597899 4.473168 -1.326016 5 0 5 
z
" style="stroke: #cc7000"/>
    </defs>
    <g clip-path="url(#p99186cbfa1)">
     <use xlink:href="#m47393dfb9c" x="601.632135" y="269.759899" style="fill: #cc7000; stroke: #cc7000"/>
    </g>
   </g>
   <g id="line2d_72">
    <defs>
     <path id="mdeeaf7b795" d="M 0 5 
C 1.326016 5 2.597899 4.473168 3.535534 3.535534 
C 4.473168 2.597899 5 1.326016 5 0 
C 5 -1.326016 4.473168 -2.597899 3.535534 -3.535534 
C 2.597899 -4.473168 1.326016 -5 0 -5 
C -1.326016 -5 -2.597899 -4.473168 -3.535534 -3.535534 
C -4.473168 -2.597899 -5 -1.326016 -5 0 
C -5 1.326016 -4.473168 2.597899 -3.535534 3.535534 
C -2.597899 4.473168 -1.326016 5 0 5 
z
" style="stroke: #2e8b57"/>
    </defs>
    <g clip-path="url(#p99186cbfa1)">
     <use xlink:href="#mdeeaf7b795" x="658.535781" y="299.042727" style="fill: #2e8b57; stroke: #2e8b57"/>
    </g>
   </g>
  </g>
 </g>
 <defs>
  <clipPath id="p4a0011e3be">
   <rect x="44.749063" y="22.32" width="375.564063" height="289.9"/>
  </clipPath>
  <clipPath id="p99186cbfa1">
   <rect x="470.75375" y="22.32" width="375.564063" height="289.9"/>
  </clipPath>
 </defs>
</svg>
