<?xml version="1.0" encoding="utf-8" standalone="no"?>
<!DOCTYPE svg PUBLIC "-//W3C//DTD SVG 1.1//EN"
  "http://www.w3.org/Graphics/SVG/1.1/DTD/svg11.dtd">
<svg xmlns:xlink="http://www.w3.org/1999/xlink" width="857.0575pt" height="321.716916pt" viewBox="0 0 857.0575 321.716916" xmlns="http://www.w3.org/2000/svg" version="1.1">
 <metadata>
  <rdf:RDF xmlns:dc="http://purl.org/dc/elements/1.1/" xmlns:cc="http://creativecommons.org/ns#" xmlns:rdf="http://www.w3.org/1999/02/22-rdf-syntax-ns#">
   <cc:Work>
    <dc:type rdf:resource="http://purl.org/dc/dcmitype/StillImage"/>
    <dc:date>2026-07-17T14:39:51.325855</dc:date>
    <dc:format>image/svg+xml</dc:format>
    <dc:creator>
     <cc:Agent>
      <dc:title>Matplotlib v3.10.8, https://matplotlib.org/</dc:title>
     </cc:Agent>
    </dc:creator>
   </cc:Work>
  </rdf:RDF>
 </metadata>
 <defs>
  <style type="text/css">*{stroke-linejoin: round; stroke-linecap: butt}</style>
 </defs>
 <g id="figure_1">
  <g id="patch_1">
   <path d="M 0 321.716916 
L 857.0575 321.716916 
L 857.0575 0 
L 0 0 
z
" style="fill: #ffffff"/>
  </g>
  <g id="axes_1">
   <g id="patch_2">
    <path d="M 36.17625 226.041525 
L 420.116875 226.041525 
L 420.116875 22.318125 
L 36.17625 22.318125 
z
" style="fill: #ffffff"/>
   </g>
   <g id="matplotlib.axis_1">
    <g id="xtick_1">
     <g id="line2d_1">
      <path d="M 55.373281 226.041525 
L 55.373281 22.318125 
" clip-path="url(#p820bbd29e8)" style="fill: none; stroke-dasharray: 2.96,1.28; stroke-dashoffset: 0; stroke: #b0b0b0; stroke-opacity: 0.3; stroke-width: 0.8"/>
     </g>
     <g id="line2d_2">
      <defs>
       <path id="ma0fdfe20b5" d="M 0 0 
L 0 3.5 
" style="stroke: #000000; stroke-width: 0.8"/>
      </defs>
      <g>
       <use xlink:href="#ma0fdfe20b5" x="55.373281" y="226.041525" style="stroke: #000000; stroke-width: 0.8"/>
      </g>
     </g>
     <g id="text_1">
      <!-- 6 -->
      <g transform="translate(52.192031 240.639963) scale(0.1 -0.1)">
       <defs>
        <path id="DejaVuSans-36" d="M 2113 2584 
Q 1688 2584 1439 2293 
Q 1191 2003 1191 1497 
Q 1191 994 1439 701 
Q 1688 409 2113 409 
Q 2538 409 2786 701 
Q 3034 994 3034 1497 
Q 3034 2003 2786 2293 
Q 2538 2584 2113 2584 
z
M 3366 4563 
L 3366 3988 
Q 3128 4100 2886 4159 
Q 2644 4219 2406 4219 
Q 1781 4219 1451 3797 
Q 1122 3375 1075 2522 
Q 1259 2794 1537 2939 
Q 1816 3084 2150 3084 
Q 2853 3084 3261 2657 
Q 3669 2231 3669 1497 
Q 3669 778 3244 343 
Q 2819 -91 2113 -91 
Q 1303 -91 875 529 
Q 447 1150 447 2328 
Q 447 3434 972 4092 
Q 1497 4750 2381 4750 
Q 2619 4750 2861 4703 
Q 3103 4656 3366 4563 
z
" transform="scale(0.015625)"/>
       </defs>
       <use xlink:href="#DejaVuSans-36"/>
      </g>
     </g>
    </g>
    <g id="xtick_2">
     <g id="line2d_3">
      <path d="M 132.161406 226.041525 
L 132.161406 22.318125 
" clip-path="url(#p820bbd29e8)" style="fill: none; stroke-dasharray: 2.96,1.28; stroke-dashoffset: 0; stroke: #b0b0b0; stroke-opacity: 0.3; stroke-width: 0.8"/>
     </g>
     <g id="line2d_4">
      <g>
       <use xlink:href="#ma0fdfe20b5" x="132.161406" y="226.041525" style="stroke: #000000; stroke-width: 0.8"/>
      </g>
     </g>
     <g id="text_2">
      <!-- 8 -->
      <g transform="translate(128.980156 240.639963) scale(0.1 -0.1)">
       <defs>
        <path id="DejaVuSans-38" d="M 2034 2216 
Q 1584 2216 1326 1975 
Q 1069 1734 1069 1313 
Q 1069 891 1326 650 
Q 1584 409 2034 409 
Q 2484 409 2743 651 
Q 3003 894 3003 1313 
Q 3003 1734 2745 1975 
Q 2488 2216 2034 2216 
z
M 1403 2484 
Q 997 2584 770 2862 
Q 544 3141 544 3541 
Q 544 4100 942 4425 
Q 1341 4750 2034 4750 
Q 2731 4750 3128 4425 
Q 3525 4100 3525 3541 
Q 3525 3141 3298 2862 
Q 3072 2584 2669 2484 
Q 3125 2378 3379 2068 
Q 3634 1759 3634 1313 
Q 3634 634 3220 271 
Q 2806 -91 2034 -91 
Q 1263 -91 848 271 
Q 434 634 434 1313 
Q 434 1759 690 2068 
Q 947 2378 1403 2484 
z
M 1172 3481 
Q 1172 3119 1398 2916 
Q 1625 2713 2034 2713 
Q 2441 2713 2670 2916 
Q 2900 3119 2900 3481 
Q 2900 3844 2670 4047 
Q 2441 4250 2034 4250 
Q 1625 4250 1398 4047 
Q 1172 3844 1172 3481 
z
" transform="scale(0.015625)"/>
       </defs>
       <use xlink:href="#DejaVuSans-38"/>
      </g>
     </g>
    </g>
    <g id="xtick_3">
     <g id="line2d_5">
      <path d="M 208.949531 226.041525 
L 208.949531 22.318125 
" clip-path="url(#p820bbd29e8)" style="fill: none; stroke-dasharray: 2.96,1.28; stroke-dashoffset: 0; stroke: #b0b0b0; stroke-opacity: 0.3; stroke-width: 0.8"/>
     </g>
     <g id="line2d_6">
      <g>
       <use xlink:href="#ma0fdfe20b5" x="208.949531" y="226.041525" style="stroke: #000000; stroke-width: 0.8"/>
      </g>
     </g>
     <g id="text_3">
      <!-- 10 -->
      <g transform="translate(202.587031 240.639963) scale(0.1 -0.1)">
       <defs>
        <path id="DejaVuSans-31" d="M 794 531 
L 1825 531 
L 1825 4091 
L 703 3866 
L 703 4441 
L 1819 4666 
L 2450 4666 
L 2450 531 
L 3481 531 
L 3481 0 
L 794 0 
L 794 531 
z
" transform="scale(0.015625)"/>
        <path id="DejaVuSans-30" d="M 2034 4250 
Q 1547 4250 1301 3770 
Q 1056 3291 1056 2328 
Q 1056 1369 1301 889 
Q 1547 409 2034 409 
Q 2525 409 2770 889 
Q 3016 1369 3016 2328 
Q 3016 3291 2770 3770 
Q 2525 4250 2034 4250 
z
M 2034 4750 
Q 2819 4750 3233 4129 
Q 3647 3509 3647 2328 
Q 3647 1150 3233 529 
Q 2819 -91 2034 -91 
Q 1250 -91 836 529 
Q 422 1150 422 2328 
Q 422 3509 836 4129 
Q 1250 4750 2034 4750 
z
" transform="scale(0.015625)"/>
       </defs>
       <use xlink:href="#DejaVuSans-31"/>
       <use xlink:href="#DejaVuSans-30" transform="translate(63.623047 0)"/>
      </g>
     </g>
    </g>
    <g id="xtick_4">
     <g id="line2d_7">
      <path d="M 285.737656 226.041525 
L 285.737656 22.318125 
" clip-path="url(#p820bbd29e8)" style="fill: none; stroke-dasharray: 2.96,1.28; stroke-dashoffset: 0; stroke: #b0b0b0; stroke-opacity: 0.3; stroke-width: 0.8"/>
     </g>
     <g id="line2d_8">
      <g>
       <use xlink:href="#ma0fdfe20b5" x="285.737656" y="226.041525" style="stroke: #000000; stroke-width: 0.8"/>
      </g>
     </g>
     <g id="text_4">
      <!-- 12 -->
      <g transform="translate(279.375156 240.639963) scale(0.1 -0.1)">
       <defs>
        <path id="DejaVuSans-32" d="M 1228 531 
L 3431 531 
L 3431 0 
L 469 0 
L 469 531 
Q 828 903 1448 1529 
Q 2069 2156 2228 2338 
Q 2531 2678 2651 2914 
Q 2772 3150 2772 3378 
Q 2772 3750 2511 3984 
Q 2250 4219 1831 4219 
Q 1534 4219 1204 4116 
Q 875 4013 500 3803 
L 500 4441 
Q 881 4594 1212 4672 
Q 1544 4750 1819 4750 
Q 2544 4750 2975 4387 
Q 3406 4025 3406 3419 
Q 3406 3131 3298 2873 
Q 3191 2616 2906 2266 
Q 2828 2175 2409 1742 
Q 1991 1309 1228 531 
z
" transform="scale(0.015625)"/>
       </defs>
       <use xlink:href="#DejaVuSans-31"/>
       <use xlink:href="#DejaVuSans-32" transform="translate(63.623047 0)"/>
      </g>
     </g>
    </g>
    <g id="xtick_5">
     <g id="line2d_9">
      <path d="M 362.525781 226.041525 
L 362.525781 22.318125 
" clip-path="url(#p820bbd29e8)" style="fill: none; stroke-dasharray: 2.96,1.28; stroke-dashoffset: 0; stroke: #b0b0b0; stroke-opacity: 0.3; stroke-width: 0.8"/>
     </g>
     <g id="line2d_10">
      <g>
       <use xlink:href="#ma0fdfe20b5" x="362.525781" y="226.041525" style="stroke: #000000; stroke-width: 0.8"/>
      </g>
     </g>
     <g id="text_5">
      <!-- 14 -->
      <g transform="translate(356.163281 240.639963) scale(0.1 -0.1)">
       <defs>
        <path id="DejaVuSans-34" d="M 2419 4116 
L 825 1625 
L 2419 1625 
L 2419 4116 
z
M 2253 4666 
L 3047 4666 
L 3047 1625 
L 3713 1625 
L 3713 1100 
L 3047 1100 
L 3047 0 
L 2419 0 
L 2419 1100 
L 313 1100 
L 313 1709 
L 2253 4666 
z
" transform="scale(0.015625)"/>
       </defs>
       <use xlink:href="#DejaVuSans-31"/>
       <use xlink:href="#DejaVuSans-34" transform="translate(63.623047 0)"/>
      </g>
     </g>
    </g>
    <g id="text_6">
     <!-- x -->
     <g transform="translate(224.595312 255.837775) scale(0.12 -0.12)">
      <defs>
       <path id="DejaVuSans-78" d="M 3513 3500 
L 2247 1797 
L 3578 0 
L 2900 0 
L 1881 1375 
L 863 0 
L 184 0 
L 1544 1831 
L 300 3500 
L 978 3500 
L 1906 2253 
L 2834 3500 
L 3513 3500 
z
" transform="scale(0.015625)"/>
      </defs>
      <use xlink:href="#DejaVuSans-78"/>
     </g>
    </g>
   </g>
   <g id="matplotlib.axis_2">
    <g id="ytick_1">
     <g id="line2d_11">
      <path d="M 36.17625 200.063373 
L 420.116875 200.063373 
" clip-path="url(#p820bbd29e8)" style="fill: none; stroke-dasharray: 2.96,1.28; stroke-dashoffset: 0; stroke: #b0b0b0; stroke-opacity: 0.3; stroke-width: 0.8"/>
     </g>
     <g id="line2d_12">
      <defs>
       <path id="m27da4678af" d="M 0 0 
L -3.5 0 
" style="stroke: #000000; stroke-width: 0.8"/>
      </defs>
      <g>
       <use xlink:href="#m27da4678af" x="36.17625" y="200.063373" style="stroke: #000000; stroke-width: 0.8"/>
      </g>
     </g>
     <g id="text_7">
      <!-- 0 -->
      <g transform="translate(22.81375 203.862592) scale(0.1 -0.1)">
       <use xlink:href="#DejaVuSans-30"/>
      </g>
     </g>
    </g>
    <g id="ytick_2">
     <g id="line2d_13">
      <path d="M 36.17625 159.045239 
L 420.116875 159.045239 
" clip-path="url(#p820bbd29e8)" style="fill: none; stroke-dasharray: 2.96,1.28; stroke-dashoffset: 0; stroke: #b0b0b0; stroke-opacity: 0.3; stroke-width: 0.8"/>
     </g>
     <g id="line2d_14">
      <g>
       <use xlink:href="#m27da4678af" x="36.17625" y="159.045239" style="stroke: #000000; stroke-width: 0.8"/>
      </g>
     </g>
     <g id="text_8">
      <!-- 2 -->
      <g transform="translate(22.81375 162.844458) scale(0.1 -0.1)">
       <use xlink:href="#DejaVuSans-32"/>
      </g>
     </g>
    </g>
    <g id="ytick_3">
     <g id="line2d_15">
      <path d="M 36.17625 118.027105 
L 420.116875 118.027105 
" clip-path="url(#p820bbd29e8)" style="fill: none; stroke-dasharray: 2.96,1.28; stroke-dashoffset: 0; stroke: #b0b0b0; stroke-opacity: 0.3; stroke-width: 0.8"/>
     </g>
     <g id="line2d_16">
      <g>
       <use xlink:href="#m27da4678af" x="36.17625" y="118.027105" style="stroke: #000000; stroke-width: 0.8"/>
      </g>
     </g>
     <g id="text_9">
      <!-- 4 -->
      <g transform="translate(22.81375 121.826324) scale(0.1 -0.1)">
       <use xlink:href="#DejaVuSans-34"/>
      </g>
     </g>
    </g>
    <g id="ytick_4">
     <g id="line2d_17">
      <path d="M 36.17625 77.008971 
L 420.116875 77.008971 
" clip-path="url(#p820bbd29e8)" style="fill: none; stroke-dasharray: 2.96,1.28; stroke-dashoffset: 0; stroke: #b0b0b0; stroke-opacity: 0.3; stroke-width: 0.8"/>
     </g>
     <g id="line2d_18">
      <g>
       <use xlink:href="#m27da4678af" x="36.17625" y="77.008971" style="stroke: #000000; stroke-width: 0.8"/>
      </g>
     </g>
     <g id="text_10">
      <!-- 6 -->
      <g transform="translate(22.81375 80.808189) scale(0.1 -0.1)">
       <use xlink:href="#DejaVuSans-36"/>
      </g>
     </g>
    </g>
    <g id="ytick_5">
     <g id="line2d_19">
      <path d="M 36.17625 35.990836 
L 420.116875 35.990836 
" clip-path="url(#p820bbd29e8)" style="fill: none; stroke-dasharray: 2.96,1.28; stroke-dashoffset: 0; stroke: #b0b0b0; stroke-opacity: 0.3; stroke-width: 0.8"/>
     </g>
     <g id="line2d_20">
      <g>
       <use xlink:href="#m27da4678af" x="36.17625" y="35.990836" style="stroke: #000000; stroke-width: 0.8"/>
      </g>
     </g>
     <g id="text_11">
      <!-- 8 -->
      <g transform="translate(22.81375 39.790055) scale(0.1 -0.1)">
       <use xlink:href="#DejaVuSans-38"/>
      </g>
     </g>
    </g>
    <g id="text_12">
     <!-- y -->
     <g transform="translate(16.318125 127.731075) rotate(-90) scale(0.12 -0.12)">
      <defs>
       <path id="DejaVuSans-79" d="M 2059 -325 
Q 1816 -950 1584 -1140 
Q 1353 -1331 966 -1331 
L 506 -1331 
L 506 -850 
L 844 -850 
Q 1081 -850 1212 -737 
Q 1344 -625 1503 -206 
L 1606 56 
L 191 3500 
L 800 3500 
L 1894 763 
L 2988 3500 
L 3597 3500 
L 2059 -325 
z
" transform="scale(0.015625)"/>
      </defs>
      <use xlink:href="#DejaVuSans-79"/>
     </g>
    </g>
   </g>
   <g id="line2d_21">
    <path d="M 36.17625 31.57828 
L 40.054438 33.449018 
L 43.932626 35.319756 
L 47.810814 37.190494 
L 51.689003 39.061233 
L 55.567191 40.931971 
L 59.445379 42.802709 
L 63.323567 44.673448 
L 67.201755 46.544186 
L 71.079943 48.414924 
L 74.958131 50.285662 
L 78.836319 52.156401 
L 82.714508 54.027139 
L 86.592696 55.897877 
L 90.470884 57.768616 
L 94.349072 59.639354 
L 98.22726 61.510092 
L 102.105448 63.380831 
L 105.983636 65.251569 
L 109.861824 67.122307 
L 113.740013 68.993045 
L 117.618201 70.863784 
L 121.496389 72.734522 
L 125.374577 74.60526 
L 129.252765 76.475999 
L 133.130953 78.346737 
L 137.009141 80.217475 
L 140.88733 82.088213 
L 144.765518 83.958952 
L 148.643706 85.82969 
L 152.521894 87.700428 
L 156.400082 89.571167 
L 160.27827 91.441905 
L 164.156458 93.312643 
L 168.034646 95.183381 
L 171.912835 97.05412 
L 175.791023 98.924858 
L 179.669211 100.795596 
L 183.547399 102.666335 
L 187.425587 104.537073 
L 191.303775 106.407811 
L 195.181963 108.27855 
L 199.060152 110.149288 
L 202.93834 112.020026 
L 206.816528 113.890764 
L 210.694716 115.761503 
L 214.572904 117.632241 
L 218.451092 119.502979 
L 222.32928 121.373718 
L 226.207468 123.244456 
L 230.085657 125.115194 
L 233.963845 126.985932 
L 237.842033 128.856671 
L 241.720221 130.727409 
L 245.598409 132.598147 
L 249.476597 134.468886 
L 253.354785 136.339624 
L 257.232973 138.210362 
L 261.111162 140.0811 
L 264.98935 141.951839 
L 268.867538 143.822577 
L 272.745726 145.693315 
L 276.623914 147.564054 
L 280.502102 149.434792 
L 284.38029 151.30553 
L 288.258479 153.176269 
L 292.136667 155.047007 
L 296.014855 156.917745 
L 299.893043 158.788483 
L 303.771231 160.659222 
L 307.649419 162.52996 
L 311.527607 164.400698 
L 315.405795 166.271437 
L 319.283984 168.142175 
L 323.162172 170.012913 
L 327.04036 171.883651 
L 330.918548 173.75439 
L 334.796736 175.625128 
L 338.674924 177.495866 
L 342.553112 179.366605 
L 346.431301 181.237343 
L 350.309489 183.108081 
L 354.187677 184.978819 
L 358.065865 186.849558 
L 361.944053 188.720296 
L 365.822241 190.591034 
L 369.700429 192.461773 
L 373.578617 194.332511 
L 377.456806 196.203249 
L 381.334994 198.073988 
L 385.213182 199.944726 
L 389.09137 201.815464 
L 392.969558 203.686202 
L 396.847746 205.556941 
L 400.725934 207.427679 
L 404.604122 209.298417 
L 408.482311 211.169156 
L 412.360499 213.039894 
L 416.238687 214.910632 
L 420.116875 216.78137 
" clip-path="url(#p820bbd29e8)" style="fill: none; stroke: #2e8b57; stroke-width: 2.5; stroke-linecap: square"/>
   </g>
   <g id="patch_3">
    <path d="M 36.17625 226.041525 
L 36.17625 22.318125 
" style="fill: none; stroke: #000000; stroke-width: 0.8; stroke-linejoin: miter; stroke-linecap: square"/>
   </g>
   <g id="patch_4">
    <path d="M 420.116875 226.041525 
L 420.116875 22.318125 
" style="fill: none; stroke: #000000; stroke-width: 0.8; stroke-linejoin: miter; stroke-linecap: square"/>
   </g>
   <g id="patch_5">
    <path d="M 36.17625 226.041525 
L 420.116875 226.041525 
" style="fill: none; stroke: #000000; stroke-width: 0.8; stroke-linejoin: miter; stroke-linecap: square"/>
   </g>
   <g id="patch_6">
    <path d="M 36.17625 22.318125 
L 420.116875 22.318125 
" style="fill: none; stroke: #000000; stroke-width: 0.8; stroke-linejoin: miter; stroke-linecap: square"/>
   </g>
   <g id="PathCollection_1">
    <defs>
     <path id="m2f4fe4314f" d="M 0 3.872983 
C 1.027127 3.872983 2.012324 3.464901 2.738613 2.738613 
C 3.464901 2.012324 3.872983 1.027127 3.872983 0 
C 3.872983 -1.027127 3.464901 -2.012324 2.738613 -2.738613 
C 2.012324 -3.464901 1.027127 -3.872983 0 -3.872983 
C -1.027127 -3.872983 -2.012324 -3.464901 -2.738613 -2.738613 
C -3.464901 -2.012324 -3.872983 -1.027127 -3.872983 0 
C -3.872983 1.027127 -3.464901 2.012324 -2.738613 2.738613 
C -2.012324 3.464901 -1.027127 3.872983 0 3.872983 
z
" style="stroke: #ffffff"/>
    </defs>
    <g clip-path="url(#p820bbd29e8)">
     <use xlink:href="#m2f4fe4314f" x="55.373281" y="35.990836" style="fill: #4682b4; stroke: #ffffff"/>
     <use xlink:href="#m2f4fe4314f" x="93.767344" y="56.499904" style="fill: #4682b4; stroke: #ffffff"/>
     <use xlink:href="#m2f4fe4314f" x="132.161406" y="77.008971" style="fill: #4682b4; stroke: #ffffff"/>
     <use xlink:href="#m2f4fe4314f" x="170.555469" y="97.518038" style="fill: #4682b4; stroke: #ffffff"/>
     <use xlink:href="#m2f4fe4314f" x="208.949531" y="118.027105" style="fill: #4682b4; stroke: #ffffff"/>
     <use xlink:href="#m2f4fe4314f" x="247.343594" y="138.536172" style="fill: #4682b4; stroke: #ffffff"/>
     <use xlink:href="#m2f4fe4314f" x="285.737656" y="159.045239" style="fill: #4682b4; stroke: #ffffff"/>
     <use xlink:href="#m2f4fe4314f" x="324.131719" y="179.554306" style="fill: #4682b4; stroke: #ffffff"/>
     <use xlink:href="#m2f4fe4314f" x="362.525781" y="179.554306" style="fill: #4682b4; stroke: #ffffff"/>
     <use xlink:href="#m2f4fe4314f" x="400.919844" y="200.063373" style="fill: #4682b4; stroke: #ffffff"/>
    </g>
   </g>
   <g id="text_13">
    <!-- $\mathrm{Var}(X) = 9.17$ -->
    <g transform="translate(191.681562 270.860673) scale(0.11 -0.11)">
     <defs>
      <path id="DejaVuSans-56" d="M 1831 0 
L 50 4666 
L 709 4666 
L 2188 738 
L 3669 4666 
L 4325 4666 
L 2547 0 
L 1831 0 
z
" transform="scale(0.015625)"/>
      <path id="DejaVuSans-61" d="M 2194 1759 
Q 1497 1759 1228 1600 
Q 959 1441 959 1056 
Q 959 750 1161 570 
Q 1363 391 1709 391 
Q 2188 391 2477 730 
Q 2766 1069 2766 1631 
L 2766 1759 
L 2194 1759 
z
M 3341 1997 
L 3341 0 
L 2766 0 
L 2766 531 
Q 2569 213 2275 61 
Q 1981 -91 1556 -91 
Q 1019 -91 701 211 
Q 384 513 384 1019 
Q 384 1609 779 1909 
Q 1175 2209 1959 2209 
L 2766 2209 
L 2766 2266 
Q 2766 2663 2505 2880 
Q 2244 3097 1772 3097 
Q 1472 3097 1187 3025 
Q 903 2953 641 2809 
L 641 3341 
Q 956 3463 1253 3523 
Q 1550 3584 1831 3584 
Q 2591 3584 2966 3190 
Q 3341 2797 3341 1997 
z
" transform="scale(0.015625)"/>
      <path id="DejaVuSans-72" d="M 2631 2963 
Q 2534 3019 2420 3045 
Q 2306 3072 2169 3072 
Q 1681 3072 1420 2755 
Q 1159 2438 1159 1844 
L 1159 0 
L 581 0 
L 581 3500 
L 1159 3500 
L 1159 2956 
Q 1341 3275 1631 3429 
Q 1922 3584 2338 3584 
Q 2397 3584 2469 3576 
Q 2541 3569 2628 3553 
L 2631 2963 
z
" transform="scale(0.015625)"/>
      <path id="DejaVuSans-28" d="M 1984 4856 
Q 1566 4138 1362 3434 
Q 1159 2731 1159 2009 
Q 1159 1288 1364 580 
Q 1569 -128 1984 -844 
L 1484 -844 
Q 1016 -109 783 600 
Q 550 1309 550 2009 
Q 550 2706 781 3412 
Q 1013 4119 1484 4856 
L 1984 4856 
z
" transform="scale(0.015625)"/>
      <path id="DejaVuSans-Oblique-58" d="M 878 4666 
L 1516 4666 
L 2316 2981 
L 3763 4666 
L 4500 4666 
L 2578 2438 
L 3738 0 
L 3103 0 
L 2163 1966 
L 459 0 
L -275 0 
L 1906 2509 
L 878 4666 
z
" transform="scale(0.015625)"/>
      <path id="DejaVuSans-29" d="M 513 4856 
L 1013 4856 
Q 1481 4119 1714 3412 
Q 1947 2706 1947 2009 
Q 1947 1309 1714 600 
Q 1481 -109 1013 -844 
L 513 -844 
Q 928 -128 1133 580 
Q 1338 1288 1338 2009 
Q 1338 2731 1133 3434 
Q 928 4138 513 4856 
z
" transform="scale(0.015625)"/>
      <path id="DejaVuSans-3d" d="M 678 2906 
L 4684 2906 
L 4684 2381 
L 678 2381 
L 678 2906 
z
M 678 1631 
L 4684 1631 
L 4684 1100 
L 678 1100 
L 678 1631 
z
" transform="scale(0.015625)"/>
      <path id="DejaVuSans-39" d="M 703 97 
L 703 672 
Q 941 559 1184 500 
Q 1428 441 1663 441 
Q 2288 441 2617 861 
Q 2947 1281 2994 2138 
Q 2813 1869 2534 1725 
Q 2256 1581 1919 1581 
Q 1219 1581 811 2004 
Q 403 2428 403 3163 
Q 403 3881 828 4315 
Q 1253 4750 1959 4750 
Q 2769 4750 3195 4129 
Q 3622 3509 3622 2328 
Q 3622 1225 3098 567 
Q 2575 -91 1691 -91 
Q 1453 -91 1209 -44 
Q 966 3 703 97 
z
M 1959 2075 
Q 2384 2075 2632 2365 
Q 2881 2656 2881 3163 
Q 2881 3666 2632 3958 
Q 2384 4250 1959 4250 
Q 1534 4250 1286 3958 
Q 1038 3666 1038 3163 
Q 1038 2656 1286 2365 
Q 1534 2075 1959 2075 
z
" transform="scale(0.015625)"/>
      <path id="DejaVuSans-2e" d="M 684 794 
L 1344 794 
L 1344 0 
L 684 0 
L 684 794 
z
" transform="scale(0.015625)"/>
      <path id="DejaVuSans-37" d="M 525 4666 
L 3525 4666 
L 3525 4397 
L 1831 0 
L 1172 0 
L 2766 4134 
L 525 4134 
L 525 4666 
z
" transform="scale(0.015625)"/>
     </defs>
     <use xlink:href="#DejaVuSans-56" transform="translate(0 0.125)"/>
     <use xlink:href="#DejaVuSans-61" transform="translate(68.408203 0.125)"/>
     <use xlink:href="#DejaVuSans-72" transform="translate(129.6875 0.125)"/>
     <use xlink:href="#DejaVuSans-28" transform="translate(170.800781 0.125)"/>
     <use xlink:href="#DejaVuSans-Oblique-58" transform="translate(209.814453 0.125)"/>
     <use xlink:href="#DejaVuSans-29" transform="translate(278.320312 0.125)"/>
     <use xlink:href="#DejaVuSans-3d" transform="translate(336.816406 0.125)"/>
     <use xlink:href="#DejaVuSans-39" transform="translate(440.087891 0.125)"/>
     <use xlink:href="#DejaVuSans-2e" transform="translate(503.710938 0.125)"/>
     <use xlink:href="#DejaVuSans-31" transform="translate(535.498047 0.125)"/>
     <use xlink:href="#DejaVuSans-37" transform="translate(599.121094 0.125)"/>
    </g>
   </g>
   <g id="text_14">
    <!-- $\mathrm{Var}(Y) = 7.57$ -->
    <g transform="translate(192.451562 287.158545) scale(0.11 -0.11)">
     <defs>
      <path id="DejaVuSans-Oblique-59" d="M 403 4666 
L 1081 4666 
L 1953 2747 
L 3616 4666 
L 4325 4666 
L 2209 2222 
L 1778 0 
L 1147 0 
L 1575 2222 
L 403 4666 
z
" transform="scale(0.015625)"/>
      <path id="DejaVuSans-35" d="M 691 4666 
L 3169 4666 
L 3169 4134 
L 1269 4134 
L 1269 2991 
Q 1406 3038 1543 3061 
Q 1681 3084 1819 3084 
Q 2600 3084 3056 2656 
Q 3513 2228 3513 1497 
Q 3513 744 3044 326 
Q 2575 -91 1722 -91 
Q 1428 -91 1123 -41 
Q 819 9 494 109 
L 494 744 
Q 775 591 1075 516 
Q 1375 441 1709 441 
Q 2250 441 2565 725 
Q 2881 1009 2881 1497 
Q 2881 1984 2565 2268 
Q 2250 2553 1709 2553 
Q 1456 2553 1204 2497 
Q 953 2441 691 2322 
L 691 4666 
z
" transform="scale(0.015625)"/>
     </defs>
     <use xlink:href="#DejaVuSans-56" transform="translate(0 0.125)"/>
     <use xlink:href="#DejaVuSans-61" transform="translate(68.408203 0.125)"/>
     <use xlink:href="#DejaVuSans-72" transform="translate(129.6875 0.125)"/>
     <use xlink:href="#DejaVuSans-28" transform="translate(170.800781 0.125)"/>
     <use xlink:href="#DejaVuSans-Oblique-59" transform="translate(209.814453 0.125)"/>
     <use xlink:href="#DejaVuSans-29" transform="translate(270.898438 0.125)"/>
     <use xlink:href="#DejaVuSans-3d" transform="translate(329.394531 0.125)"/>
     <use xlink:href="#DejaVuSans-37" transform="translate(432.666016 0.125)"/>
     <use xlink:href="#DejaVuSans-2e" transform="translate(496.289062 0.125)"/>
     <use xlink:href="#DejaVuSans-35" transform="translate(528.076172 0.125)"/>
     <use xlink:href="#DejaVuSans-37" transform="translate(584.449219 0.125)"/>
    </g>
   </g>
   <g id="text_15">
    <!-- $\mathrm{Cov}(X, Y) = -8.28$ -->
    <g style="fill: #cc0000" transform="translate(167.036562 311.605353) scale(0.14 -0.14)">
     <defs>
      <path id="DejaVuSans-43" d="M 4122 4306 
L 4122 3641 
Q 3803 3938 3442 4084 
Q 3081 4231 2675 4231 
Q 1875 4231 1450 3742 
Q 1025 3253 1025 2328 
Q 1025 1406 1450 917 
Q 1875 428 2675 428 
Q 3081 428 3442 575 
Q 3803 722 4122 1019 
L 4122 359 
Q 3791 134 3420 21 
Q 3050 -91 2638 -91 
Q 1578 -91 968 557 
Q 359 1206 359 2328 
Q 359 3453 968 4101 
Q 1578 4750 2638 4750 
Q 3056 4750 3426 4639 
Q 3797 4528 4122 4306 
z
" transform="scale(0.015625)"/>
      <path id="DejaVuSans-6f" d="M 1959 3097 
Q 1497 3097 1228 2736 
Q 959 2375 959 1747 
Q 959 1119 1226 758 
Q 1494 397 1959 397 
Q 2419 397 2687 759 
Q 2956 1122 2956 1747 
Q 2956 2369 2687 2733 
Q 2419 3097 1959 3097 
z
M 1959 3584 
Q 2709 3584 3137 3096 
Q 3566 2609 3566 1747 
Q 3566 888 3137 398 
Q 2709 -91 1959 -91 
Q 1206 -91 779 398 
Q 353 888 353 1747 
Q 353 2609 779 3096 
Q 1206 3584 1959 3584 
z
" transform="scale(0.015625)"/>
      <path id="DejaVuSans-76" d="M 191 3500 
L 800 3500 
L 1894 563 
L 2988 3500 
L 3597 3500 
L 2284 0 
L 1503 0 
L 191 3500 
z
" transform="scale(0.015625)"/>
      <path id="DejaVuSans-2c" d="M 750 794 
L 1409 794 
L 1409 256 
L 897 -744 
L 494 -744 
L 750 256 
L 750 794 
z
" transform="scale(0.015625)"/>
      <path id="DejaVuSans-2212" d="M 678 2272 
L 4684 2272 
L 4684 1741 
L 678 1741 
L 678 2272 
z
" transform="scale(0.015625)"/>
     </defs>
     <use xlink:href="#DejaVuSans-43" transform="translate(0 0.125)"/>
     <use xlink:href="#DejaVuSans-6f" transform="translate(69.824219 0.125)"/>
     <use xlink:href="#DejaVuSans-76" transform="translate(131.005859 0.125)"/>
     <use xlink:href="#DejaVuSans-28" transform="translate(190.185547 0.125)"/>
     <use xlink:href="#DejaVuSans-Oblique-58" transform="translate(229.199219 0.125)"/>
     <use xlink:href="#DejaVuSans-2c" transform="translate(297.705078 0.125)"/>
     <use xlink:href="#DejaVuSans-Oblique-59" transform="translate(348.974609 0.125)"/>
     <use xlink:href="#DejaVuSans-29" transform="translate(410.058594 0.125)"/>
     <use xlink:href="#DejaVuSans-3d" transform="translate(468.554688 0.125)"/>
     <use xlink:href="#DejaVuSans-2212" transform="translate(571.826172 0.125)"/>
     <use xlink:href="#DejaVuSans-38" transform="translate(655.615234 0.125)"/>
     <use xlink:href="#DejaVuSans-2e" transform="translate(719.238281 0.125)"/>
     <use xlink:href="#DejaVuSans-32" transform="translate(745.525391 0.125)"/>
     <use xlink:href="#DejaVuSans-38" transform="translate(809.148438 0.125)"/>
    </g>
   </g>
   <g id="text_16">
    <!-- Age vs. Naps per Day -->
    <g transform="translate(156.009687 16.318125) scale(0.12 -0.12)">
     <defs>
      <path id="DejaVuSans-Bold-41" d="M 3419 850 
L 1538 850 
L 1241 0 
L 31 0 
L 1759 4666 
L 3194 4666 
L 4922 0 
L 3713 0 
L 3419 850 
z
M 1838 1716 
L 3116 1716 
L 2478 3572 
L 1838 1716 
z
" transform="scale(0.015625)"/>
      <path id="DejaVuSans-Bold-67" d="M 2919 594 
Q 2688 288 2409 144 
Q 2131 0 1766 0 
Q 1125 0 706 504 
Q 288 1009 288 1791 
Q 288 2575 706 3076 
Q 1125 3578 1766 3578 
Q 2131 3578 2409 3434 
Q 2688 3291 2919 2981 
L 2919 3500 
L 4044 3500 
L 4044 353 
Q 4044 -491 3511 -936 
Q 2978 -1381 1966 -1381 
Q 1638 -1381 1331 -1331 
Q 1025 -1281 716 -1178 
L 716 -306 
Q 1009 -475 1290 -558 
Q 1572 -641 1856 -641 
Q 2406 -641 2662 -400 
Q 2919 -159 2919 353 
L 2919 594 
z
M 2181 2772 
Q 1834 2772 1640 2515 
Q 1447 2259 1447 1791 
Q 1447 1309 1634 1061 
Q 1822 813 2181 813 
Q 2531 813 2725 1069 
Q 2919 1325 2919 1791 
Q 2919 2259 2725 2515 
Q 2531 2772 2181 2772 
z
" transform="scale(0.015625)"/>
      <path id="DejaVuSans-Bold-65" d="M 4031 1759 
L 4031 1441 
L 1416 1441 
Q 1456 1047 1700 850 
Q 1944 653 2381 653 
Q 2734 653 3104 758 
Q 3475 863 3866 1075 
L 3866 213 
Q 3469 63 3072 -14 
Q 2675 -91 2278 -91 
Q 1328 -91 801 392 
Q 275 875 275 1747 
Q 275 2603 792 3093 
Q 1309 3584 2216 3584 
Q 3041 3584 3536 3087 
Q 4031 2591 4031 1759 
z
M 2881 2131 
Q 2881 2450 2695 2645 
Q 2509 2841 2209 2841 
Q 1884 2841 1681 2658 
Q 1478 2475 1428 2131 
L 2881 2131 
z
" transform="scale(0.015625)"/>
      <path id="DejaVuSans-Bold-20" transform="scale(0.015625)"/>
      <path id="DejaVuSans-Bold-76" d="M 97 3500 
L 1216 3500 
L 2088 1081 
L 2956 3500 
L 4078 3500 
L 2700 0 
L 1472 0 
L 97 3500 
z
" transform="scale(0.015625)"/>
      <path id="DejaVuSans-Bold-73" d="M 3272 3391 
L 3272 2541 
Q 2913 2691 2578 2766 
Q 2244 2841 1947 2841 
Q 1628 2841 1473 2761 
Q 1319 2681 1319 2516 
Q 1319 2381 1436 2309 
Q 1553 2238 1856 2203 
L 2053 2175 
Q 2913 2066 3209 1816 
Q 3506 1566 3506 1031 
Q 3506 472 3093 190 
Q 2681 -91 1863 -91 
Q 1516 -91 1145 -36 
Q 775 19 384 128 
L 384 978 
Q 719 816 1070 734 
Q 1422 653 1784 653 
Q 2113 653 2278 743 
Q 2444 834 2444 1013 
Q 2444 1163 2330 1236 
Q 2216 1309 1875 1350 
L 1678 1375 
Q 931 1469 631 1722 
Q 331 1975 331 2491 
Q 331 3047 712 3315 
Q 1094 3584 1881 3584 
Q 2191 3584 2531 3537 
Q 2872 3491 3272 3391 
z
" transform="scale(0.015625)"/>
      <path id="DejaVuSans-Bold-2e" d="M 653 1209 
L 1778 1209 
L 1778 0 
L 653 0 
L 653 1209 
z
" transform="scale(0.015625)"/>
      <path id="DejaVuSans-Bold-4e" d="M 588 4666 
L 1931 4666 
L 3628 1466 
L 3628 4666 
L 4769 4666 
L 4769 0 
L 3425 0 
L 1728 3200 
L 1728 0 
L 588 0 
L 588 4666 
z
" transform="scale(0.015625)"/>
      <path id="DejaVuSans-Bold-61" d="M 2106 1575 
Q 1756 1575 1579 1456 
Q 1403 1338 1403 1106 
Q 1403 894 1545 773 
Q 1688 653 1941 653 
Q 2256 653 2472 879 
Q 2688 1106 2688 1447 
L 2688 1575 
L 2106 1575 
z
M 3816 1997 
L 3816 0 
L 2688 0 
L 2688 519 
Q 2463 200 2181 54 
Q 1900 -91 1497 -91 
Q 953 -91 614 226 
Q 275 544 275 1050 
Q 275 1666 698 1953 
Q 1122 2241 2028 2241 
L 2688 2241 
L 2688 2328 
Q 2688 2594 2478 2717 
Q 2269 2841 1825 2841 
Q 1466 2841 1156 2769 
Q 847 2697 581 2553 
L 581 3406 
Q 941 3494 1303 3539 
Q 1666 3584 2028 3584 
Q 2975 3584 3395 3211 
Q 3816 2838 3816 1997 
z
" transform="scale(0.015625)"/>
      <path id="DejaVuSans-Bold-70" d="M 1656 506 
L 1656 -1331 
L 538 -1331 
L 538 3500 
L 1656 3500 
L 1656 2988 
Q 1888 3294 2169 3439 
Q 2450 3584 2816 3584 
Q 3463 3584 3878 3070 
Q 4294 2556 4294 1747 
Q 4294 938 3878 423 
Q 3463 -91 2816 -91 
Q 2450 -91 2169 54 
Q 1888 200 1656 506 
z
M 2400 2772 
Q 2041 2772 1848 2508 
Q 1656 2244 1656 1747 
Q 1656 1250 1848 986 
Q 2041 722 2400 722 
Q 2759 722 2948 984 
Q 3138 1247 3138 1747 
Q 3138 2247 2948 2509 
Q 2759 2772 2400 2772 
z
" transform="scale(0.015625)"/>
      <path id="DejaVuSans-Bold-72" d="M 3138 2547 
Q 2991 2616 2845 2648 
Q 2700 2681 2553 2681 
Q 2122 2681 1889 2404 
Q 1656 2128 1656 1613 
L 1656 0 
L 538 0 
L 538 3500 
L 1656 3500 
L 1656 2925 
Q 1872 3269 2151 3426 
Q 2431 3584 2822 3584 
Q 2878 3584 2943 3579 
Q 3009 3575 3134 3559 
L 3138 2547 
z
" transform="scale(0.015625)"/>
      <path id="DejaVuSans-Bold-44" d="M 1791 3756 
L 1791 909 
L 2222 909 
Q 2959 909 3348 1275 
Q 3738 1641 3738 2338 
Q 3738 3031 3350 3393 
Q 2963 3756 2222 3756 
L 1791 3756 
z
M 588 4666 
L 1856 4666 
Q 2919 4666 3439 4514 
Q 3959 4363 4331 4000 
Q 4659 3684 4818 3271 
Q 4978 2859 4978 2338 
Q 4978 1809 4818 1395 
Q 4659 981 4331 666 
Q 3956 303 3431 151 
Q 2906 0 1856 0 
L 588 0 
L 588 4666 
z
" transform="scale(0.015625)"/>
      <path id="DejaVuSans-Bold-79" d="M 78 3500 
L 1197 3500 
L 2138 1125 
L 2938 3500 
L 4056 3500 
L 2584 -331 
Q 2363 -916 2067 -1148 
Q 1772 -1381 1288 -1381 
L 641 -1381 
L 641 -647 
L 991 -647 
Q 1275 -647 1404 -556 
Q 1534 -466 1606 -231 
L 1638 -134 
L 78 3500 
z
" transform="scale(0.015625)"/>
     </defs>
     <use xlink:href="#DejaVuSans-Bold-41"/>
     <use xlink:href="#DejaVuSans-Bold-67" transform="translate(77.392578 0)"/>
     <use xlink:href="#DejaVuSans-Bold-65" transform="translate(148.974609 0)"/>
     <use xlink:href="#DejaVuSans-Bold-20" transform="translate(216.796875 0)"/>
     <use xlink:href="#DejaVuSans-Bold-76" transform="translate(251.611328 0)"/>
     <use xlink:href="#DejaVuSans-Bold-73" transform="translate(316.796875 0)"/>
     <use xlink:href="#DejaVuSans-Bold-2e" transform="translate(376.318359 0)"/>
     <use xlink:href="#DejaVuSans-Bold-20" transform="translate(414.306641 0)"/>
     <use xlink:href="#DejaVuSans-Bold-4e" transform="translate(449.121094 0)"/>
     <use xlink:href="#DejaVuSans-Bold-61" transform="translate(532.8125 0)"/>
     <use xlink:href="#DejaVuSans-Bold-70" transform="translate(600.292969 0)"/>
     <use xlink:href="#DejaVuSans-Bold-73" transform="translate(671.875 0)"/>
     <use xlink:href="#DejaVuSans-Bold-20" transform="translate(731.396484 0)"/>
     <use xlink:href="#DejaVuSans-Bold-70" transform="translate(766.210938 0)"/>
     <use xlink:href="#DejaVuSans-Bold-65" transform="translate(837.792969 0)"/>
     <use xlink:href="#DejaVuSans-Bold-72" transform="translate(905.615234 0)"/>
     <use xlink:href="#DejaVuSans-Bold-20" transform="translate(954.931641 0)"/>
     <use xlink:href="#DejaVuSans-Bold-44" transform="translate(989.746094 0)"/>
     <use xlink:href="#DejaVuSans-Bold-61" transform="translate(1072.753906 0)"/>
     <use xlink:href="#DejaVuSans-Bold-79" transform="translate(1137.109375 0)"/>
    </g>
   </g>
   <g id="PathCollection_2">
    <defs>
     <path id="me33712a0cc" d="M -5 5 
L 5 5 
L 5 -5 
L -5 -5 
z
" style="stroke: #cc0000"/>
    </defs>
    <g clip-path="url(#p820bbd29e8)">
     <use xlink:href="#me33712a0cc" x="228.146562" y="124.179825" style="fill: #cc0000; stroke: #cc0000"/>
    </g>
   </g>
  </g>
  <g id="axes_2">
   <g id="patch_7">
    <path d="M 465.916875 226.041525 
L 849.8575 226.041525 
L 849.8575 22.318125 
L 465.916875 22.318125 
z
" style="fill: #ffffff"/>
   </g>
   <g id="matplotlib.axis_3">
    <g id="xtick_6">
     <g id="line2d_22">
      <path d="M 485.113906 226.041525 
L 485.113906 22.318125 
" clip-path="url(#pde87c83e63)" style="fill: none; stroke-dasharray: 2.96,1.28; stroke-dashoffset: 0; stroke: #b0b0b0; stroke-opacity: 0.3; stroke-width: 0.8"/>
     </g>
     <g id="line2d_23">
      <g>
       <use xlink:href="#ma0fdfe20b5" x="485.113906" y="226.041525" style="stroke: #000000; stroke-width: 0.8"/>
      </g>
     </g>
     <g id="text_17">
      <!-- 6 -->
      <g transform="translate(481.932656 240.639963) scale(0.1 -0.1)">
       <use xlink:href="#DejaVuSans-36"/>
      </g>
     </g>
    </g>
    <g id="xtick_7">
     <g id="line2d_24">
      <path d="M 561.902031 226.041525 
L 561.902031 22.318125 
" clip-path="url(#pde87c83e63)" style="fill: none; stroke-dasharray: 2.96,1.28; stroke-dashoffset: 0; stroke: #b0b0b0; stroke-opacity: 0.3; stroke-width: 0.8"/>
     </g>
     <g id="line2d_25">
      <g>
       <use xlink:href="#ma0fdfe20b5" x="561.902031" y="226.041525" style="stroke: #000000; stroke-width: 0.8"/>
      </g>
     </g>
     <g id="text_18">
      <!-- 8 -->
      <g transform="translate(558.720781 240.639963) scale(0.1 -0.1)">
       <use xlink:href="#DejaVuSans-38"/>
      </g>
     </g>
    </g>
    <g id="xtick_8">
     <g id="line2d_26">
      <path d="M 638.690156 226.041525 
L 638.690156 22.318125 
" clip-path="url(#pde87c83e63)" style="fill: none; stroke-dasharray: 2.96,1.28; stroke-dashoffset: 0; stroke: #b0b0b0; stroke-opacity: 0.3; stroke-width: 0.8"/>
     </g>
     <g id="line2d_27">
      <g>
       <use xlink:href="#ma0fdfe20b5" x="638.690156" y="226.041525" style="stroke: #000000; stroke-width: 0.8"/>
      </g>
     </g>
     <g id="text_19">
      <!-- 10 -->
      <g transform="translate(632.327656 240.639963) scale(0.1 -0.1)">
       <use xlink:href="#DejaVuSans-31"/>
       <use xlink:href="#DejaVuSans-30" transform="translate(63.623047 0)"/>
      </g>
     </g>
    </g>
    <g id="xtick_9">
     <g id="line2d_28">
      <path d="M 715.478281 226.041525 
L 715.478281 22.318125 
" clip-path="url(#pde87c83e63)" style="fill: none; stroke-dasharray: 2.96,1.28; stroke-dashoffset: 0; stroke: #b0b0b0; stroke-opacity: 0.3; stroke-width: 0.8"/>
     </g>
     <g id="line2d_29">
      <g>
       <use xlink:href="#ma0fdfe20b5" x="715.478281" y="226.041525" style="stroke: #000000; stroke-width: 0.8"/>
      </g>
     </g>
     <g id="text_20">
      <!-- 12 -->
      <g transform="translate(709.115781 240.639963) scale(0.1 -0.1)">
       <use xlink:href="#DejaVuSans-31"/>
       <use xlink:href="#DejaVuSans-32" transform="translate(63.623047 0)"/>
      </g>
     </g>
    </g>
    <g id="xtick_10">
     <g id="line2d_30">
      <path d="M 792.266406 226.041525 
L 792.266406 22.318125 
" clip-path="url(#pde87c83e63)" style="fill: none; stroke-dasharray: 2.96,1.28; stroke-dashoffset: 0; stroke: #b0b0b0; stroke-opacity: 0.3; stroke-width: 0.8"/>
     </g>
     <g id="line2d_31">
      <g>
       <use xlink:href="#ma0fdfe20b5" x="792.266406" y="226.041525" style="stroke: #000000; stroke-width: 0.8"/>
      </g>
     </g>
     <g id="text_21">
      <!-- 14 -->
      <g transform="translate(785.903906 240.639963) scale(0.1 -0.1)">
       <use xlink:href="#DejaVuSans-31"/>
       <use xlink:href="#DejaVuSans-34" transform="translate(63.623047 0)"/>
      </g>
     </g>
    </g>
    <g id="text_22">
     <!-- x -->
     <g transform="translate(654.335937 255.837775) scale(0.12 -0.12)">
      <use xlink:href="#DejaVuSans-78"/>
     </g>
    </g>
   </g>
   <g id="matplotlib.axis_4">
    <g id="ytick_6">
     <g id="line2d_32">
      <path d="M 465.916875 214.057796 
L 849.8575 214.057796 
" clip-path="url(#pde87c83e63)" style="fill: none; stroke-dasharray: 2.96,1.28; stroke-dashoffset: 0; stroke: #b0b0b0; stroke-opacity: 0.3; stroke-width: 0.8"/>
     </g>
     <g id="line2d_33">
      <g>
       <use xlink:href="#m27da4678af" x="465.916875" y="214.057796" style="stroke: #000000; stroke-width: 0.8"/>
      </g>
     </g>
     <g id="text_23">
      <!-- 50 -->
      <g transform="translate(446.191875 217.857014) scale(0.1 -0.1)">
       <use xlink:href="#DejaVuSans-35"/>
       <use xlink:href="#DejaVuSans-30" transform="translate(63.623047 0)"/>
      </g>
     </g>
    </g>
    <g id="ytick_7">
     <g id="line2d_34">
      <path d="M 465.916875 169.11881 
L 849.8575 169.11881 
" clip-path="url(#pde87c83e63)" style="fill: none; stroke-dasharray: 2.96,1.28; stroke-dashoffset: 0; stroke: #b0b0b0; stroke-opacity: 0.3; stroke-width: 0.8"/>
     </g>
     <g id="line2d_35">
      <g>
       <use xlink:href="#m27da4678af" x="465.916875" y="169.11881" style="stroke: #000000; stroke-width: 0.8"/>
      </g>
     </g>
     <g id="text_24">
      <!-- 55 -->
      <g transform="translate(446.191875 172.918029) scale(0.1 -0.1)">
       <use xlink:href="#DejaVuSans-35"/>
       <use xlink:href="#DejaVuSans-35" transform="translate(63.623047 0)"/>
      </g>
     </g>
    </g>
    <g id="ytick_8">
     <g id="line2d_36">
      <path d="M 465.916875 124.179825 
L 849.8575 124.179825 
" clip-path="url(#pde87c83e63)" style="fill: none; stroke-dasharray: 2.96,1.28; stroke-dashoffset: 0; stroke: #b0b0b0; stroke-opacity: 0.3; stroke-width: 0.8"/>
     </g>
     <g id="line2d_37">
      <g>
       <use xlink:href="#m27da4678af" x="465.916875" y="124.179825" style="stroke: #000000; stroke-width: 0.8"/>
      </g>
     </g>
     <g id="text_25">
      <!-- 60 -->
      <g transform="translate(446.191875 127.979044) scale(0.1 -0.1)">
       <use xlink:href="#DejaVuSans-36"/>
       <use xlink:href="#DejaVuSans-30" transform="translate(63.623047 0)"/>
      </g>
     </g>
    </g>
    <g id="ytick_9">
     <g id="line2d_38">
      <path d="M 465.916875 79.24084 
L 849.8575 79.24084 
" clip-path="url(#pde87c83e63)" style="fill: none; stroke-dasharray: 2.96,1.28; stroke-dashoffset: 0; stroke: #b0b0b0; stroke-opacity: 0.3; stroke-width: 0.8"/>
     </g>
     <g id="line2d_39">
      <g>
       <use xlink:href="#m27da4678af" x="465.916875" y="79.24084" style="stroke: #000000; stroke-width: 0.8"/>
      </g>
     </g>
     <g id="text_26">
      <!-- 65 -->
      <g transform="translate(446.191875 83.040058) scale(0.1 -0.1)">
       <use xlink:href="#DejaVuSans-36"/>
       <use xlink:href="#DejaVuSans-35" transform="translate(63.623047 0)"/>
      </g>
     </g>
    </g>
    <g id="ytick_10">
     <g id="line2d_40">
      <path d="M 465.916875 34.301854 
L 849.8575 34.301854 
" clip-path="url(#pde87c83e63)" style="fill: none; stroke-dasharray: 2.96,1.28; stroke-dashoffset: 0; stroke: #b0b0b0; stroke-opacity: 0.3; stroke-width: 0.8"/>
     </g>
     <g id="line2d_41">
      <g>
       <use xlink:href="#m27da4678af" x="465.916875" y="34.301854" style="stroke: #000000; stroke-width: 0.8"/>
      </g>
     </g>
     <g id="text_27">
      <!-- 70 -->
      <g transform="translate(446.191875 38.101073) scale(0.1 -0.1)">
       <use xlink:href="#DejaVuSans-37"/>
       <use xlink:href="#DejaVuSans-30" transform="translate(63.623047 0)"/>
      </g>
     </g>
    </g>
    <g id="text_28">
     <!-- y -->
     <g transform="translate(439.69625 127.731075) rotate(-90) scale(0.12 -0.12)">
      <use xlink:href="#DejaVuSans-79"/>
     </g>
    </g>
   </g>
   <g id="line2d_42">
    <path d="M 465.916875 216.78137 
L 469.795063 214.910632 
L 473.673251 213.039894 
L 477.551439 211.169156 
L 481.429628 209.298417 
L 485.307816 207.427679 
L 489.186004 205.556941 
L 493.064192 203.686202 
L 496.94238 201.815464 
L 500.820568 199.944726 
L 504.698756 198.073988 
L 508.576944 196.203249 
L 512.455133 194.332511 
L 516.333321 192.461773 
L 520.211509 190.591034 
L 524.089697 188.720296 
L 527.967885 186.849558 
L 531.846073 184.978819 
L 535.724261 183.108081 
L 539.602449 181.237343 
L 543.480638 179.366605 
L 547.358826 177.495866 
L 551.237014 175.625128 
L 555.115202 173.75439 
L 558.99339 171.883651 
L 562.871578 170.012913 
L 566.749766 168.142175 
L 570.627955 166.271437 
L 574.506143 164.400698 
L 578.384331 162.52996 
L 582.262519 160.659222 
L 586.140707 158.788483 
L 590.018895 156.917745 
L 593.897083 155.047007 
L 597.775271 153.176269 
L 601.65346 151.30553 
L 605.531648 149.434792 
L 609.409836 147.564054 
L 613.288024 145.693315 
L 617.166212 143.822577 
L 621.0444 141.951839 
L 624.922588 140.0811 
L 628.800777 138.210362 
L 632.678965 136.339624 
L 636.557153 134.468886 
L 640.435341 132.598147 
L 644.313529 130.727409 
L 648.191717 128.856671 
L 652.069905 126.985932 
L 655.948093 125.115194 
L 659.826282 123.244456 
L 663.70447 121.373718 
L 667.582658 119.502979 
L 671.460846 117.632241 
L 675.339034 115.761503 
L 679.217222 113.890764 
L 683.09541 112.020026 
L 686.973598 110.149288 
L 690.851787 108.27855 
L 694.729975 106.407811 
L 698.608163 104.537073 
L 702.486351 102.666335 
L 706.364539 100.795596 
L 710.242727 98.924858 
L 714.120915 97.05412 
L 717.999104 95.183381 
L 721.877292 93.312643 
L 725.75548 91.441905 
L 729.633668 89.571167 
L 733.511856 87.700428 
L 737.390044 85.82969 
L 741.268232 83.958952 
L 745.14642 82.088213 
L 749.024609 80.217475 
L 752.902797 78.346737 
L 756.780985 76.475999 
L 760.659173 74.60526 
L 764.537361 72.734522 
L 768.415549 70.863784 
L 772.293737 68.993045 
L 776.171926 67.122307 
L 780.050114 65.251569 
L 783.928302 63.380831 
L 787.80649 61.510092 
L 791.684678 59.639354 
L 795.562866 57.768616 
L 799.441054 55.897877 
L 803.319242 54.027139 
L 807.197431 52.156401 
L 811.075619 50.285662 
L 814.953807 48.414924 
L 818.831995 46.544186 
L 822.710183 44.673448 
L 826.588371 42.802709 
L 830.466559 40.931971 
L 834.344747 39.061233 
L 838.222936 37.190494 
L 842.101124 35.319756 
L 845.979312 33.449018 
L 849.8575 31.57828 
" clip-path="url(#pde87c83e63)" style="fill: none; stroke: #2e8b57; stroke-width: 2.5; stroke-linecap: square"/>
   </g>
   <g id="patch_8">
    <path d="M 465.916875 226.041525 
L 465.916875 22.318125 
" style="fill: none; stroke: #000000; stroke-width: 0.8; stroke-linejoin: miter; stroke-linecap: square"/>
   </g>
   <g id="patch_9">
    <path d="M 849.8575 226.041525 
L 849.8575 22.318125 
" style="fill: none; stroke: #000000; stroke-width: 0.8; stroke-linejoin: miter; stroke-linecap: square"/>
   </g>
   <g id="patch_10">
    <path d="M 465.916875 226.041525 
L 849.8575 226.041525 
" style="fill: none; stroke: #000000; stroke-width: 0.8; stroke-linejoin: miter; stroke-linecap: square"/>
   </g>
   <g id="patch_11">
    <path d="M 465.916875 22.318125 
L 849.8575 22.318125 
" style="fill: none; stroke: #000000; stroke-width: 0.8; stroke-linejoin: miter; stroke-linecap: square"/>
   </g>
   <g id="PathCollection_3">
    <g clip-path="url(#pde87c83e63)">
     <use xlink:href="#m2f4fe4314f" x="485.113906" y="214.057796" style="fill: #4682b4; stroke: #ffffff"/>
     <use xlink:href="#m2f4fe4314f" x="523.507969" y="196.082201" style="fill: #4682b4; stroke: #ffffff"/>
     <use xlink:href="#m2f4fe4314f" x="561.902031" y="169.11881" style="fill: #4682b4; stroke: #ffffff"/>
     <use xlink:href="#m2f4fe4314f" x="600.296094" y="151.143216" style="fill: #4682b4; stroke: #ffffff"/>
     <use xlink:href="#m2f4fe4314f" x="638.690156" y="124.179825" style="fill: #4682b4; stroke: #ffffff"/>
     <use xlink:href="#m2f4fe4314f" x="677.084219" y="106.204231" style="fill: #4682b4; stroke: #ffffff"/>
     <use xlink:href="#m2f4fe4314f" x="715.478281" y="88.228637" style="fill: #4682b4; stroke: #ffffff"/>
     <use xlink:href="#m2f4fe4314f" x="753.872344" y="79.24084" style="fill: #4682b4; stroke: #ffffff"/>
     <use xlink:href="#m2f4fe4314f" x="792.266406" y="61.265246" style="fill: #4682b4; stroke: #ffffff"/>
     <use xlink:href="#m2f4fe4314f" x="830.660469" y="52.277449" style="fill: #4682b4; stroke: #ffffff"/>
    </g>
   </g>
   <g id="text_29">
    <!-- $\mathrm{Var}(X) = 9.17$ -->
    <g transform="translate(621.422187 270.860673) scale(0.11 -0.11)">
     <use xlink:href="#DejaVuSans-56" transform="translate(0 0.125)"/>
     <use xlink:href="#DejaVuSans-61" transform="translate(68.408203 0.125)"/>
     <use xlink:href="#DejaVuSans-72" transform="translate(129.6875 0.125)"/>
     <use xlink:href="#DejaVuSans-28" transform="translate(170.800781 0.125)"/>
     <use xlink:href="#DejaVuSans-Oblique-58" transform="translate(209.814453 0.125)"/>
     <use xlink:href="#DejaVuSans-29" transform="translate(278.320312 0.125)"/>
     <use xlink:href="#DejaVuSans-3d" transform="translate(336.816406 0.125)"/>
     <use xlink:href="#DejaVuSans-39" transform="translate(440.087891 0.125)"/>
     <use xlink:href="#DejaVuSans-2e" transform="translate(503.710938 0.125)"/>
     <use xlink:href="#DejaVuSans-31" transform="translate(535.498047 0.125)"/>
     <use xlink:href="#DejaVuSans-37" transform="translate(599.121094 0.125)"/>
    </g>
   </g>
   <g id="text_30">
    <!-- $\mathrm{Var}(Y) = 39.56$ -->
    <g transform="translate(618.342187 287.158545) scale(0.11 -0.11)">
     <defs>
      <path id="DejaVuSans-33" d="M 2597 2516 
Q 3050 2419 3304 2112 
Q 3559 1806 3559 1356 
Q 3559 666 3084 287 
Q 2609 -91 1734 -91 
Q 1441 -91 1130 -33 
Q 819 25 488 141 
L 488 750 
Q 750 597 1062 519 
Q 1375 441 1716 441 
Q 2309 441 2620 675 
Q 2931 909 2931 1356 
Q 2931 1769 2642 2001 
Q 2353 2234 1838 2234 
L 1294 2234 
L 1294 2753 
L 1863 2753 
Q 2328 2753 2575 2939 
Q 2822 3125 2822 3475 
Q 2822 3834 2567 4026 
Q 2313 4219 1838 4219 
Q 1578 4219 1281 4162 
Q 984 4106 628 3988 
L 628 4550 
Q 988 4650 1302 4700 
Q 1616 4750 1894 4750 
Q 2613 4750 3031 4423 
Q 3450 4097 3450 3541 
Q 3450 3153 3228 2886 
Q 3006 2619 2597 2516 
z
" transform="scale(0.015625)"/>
     </defs>
     <use xlink:href="#DejaVuSans-56" transform="translate(0 0.125)"/>
     <use xlink:href="#DejaVuSans-61" transform="translate(68.408203 0.125)"/>
     <use xlink:href="#DejaVuSans-72" transform="translate(129.6875 0.125)"/>
     <use xlink:href="#DejaVuSans-28" transform="translate(170.800781 0.125)"/>
     <use xlink:href="#DejaVuSans-Oblique-59" transform="translate(209.814453 0.125)"/>
     <use xlink:href="#DejaVuSans-29" transform="translate(270.898438 0.125)"/>
     <use xlink:href="#DejaVuSans-3d" transform="translate(329.394531 0.125)"/>
     <use xlink:href="#DejaVuSans-33" transform="translate(432.666016 0.125)"/>
     <use xlink:href="#DejaVuSans-39" transform="translate(496.289062 0.125)"/>
     <use xlink:href="#DejaVuSans-2e" transform="translate(559.912109 0.125)"/>
     <use xlink:href="#DejaVuSans-35" transform="translate(591.699219 0.125)"/>
     <use xlink:href="#DejaVuSans-36" transform="translate(655.322266 0.125)"/>
    </g>
   </g>
   <g id="text_31">
    <!-- $\mathrm{Cov}(X, Y) = 18.89$ -->
    <g style="fill: #4682b4" transform="translate(597.967187 311.605353) scale(0.14 -0.14)">
     <use xlink:href="#DejaVuSans-43" transform="translate(0 0.125)"/>
     <use xlink:href="#DejaVuSans-6f" transform="translate(69.824219 0.125)"/>
     <use xlink:href="#DejaVuSans-76" transform="translate(131.005859 0.125)"/>
     <use xlink:href="#DejaVuSans-28" transform="translate(190.185547 0.125)"/>
     <use xlink:href="#DejaVuSans-Oblique-58" transform="translate(229.199219 0.125)"/>
     <use xlink:href="#DejaVuSans-2c" transform="translate(297.705078 0.125)"/>
     <use xlink:href="#DejaVuSans-Oblique-59" transform="translate(348.974609 0.125)"/>
     <use xlink:href="#DejaVuSans-29" transform="translate(410.058594 0.125)"/>
     <use xlink:href="#DejaVuSans-3d" transform="translate(468.554688 0.125)"/>
     <use xlink:href="#DejaVuSans-31" transform="translate(571.826172 0.125)"/>
     <use xlink:href="#DejaVuSans-38" transform="translate(635.449219 0.125)"/>
     <use xlink:href="#DejaVuSans-2e" transform="translate(699.072266 0.125)"/>
     <use xlink:href="#DejaVuSans-38" transform="translate(728.234375 0.125)"/>
     <use xlink:href="#DejaVuSans-39" transform="translate(791.857422 0.125)"/>
    </g>
   </g>
   <g id="text_32">
    <!-- Age vs. Height -->
    <g transform="translate(608.359062 16.318125) scale(0.12 -0.12)">
     <defs>
      <path id="DejaVuSans-Bold-48" d="M 588 4666 
L 1791 4666 
L 1791 2888 
L 3566 2888 
L 3566 4666 
L 4769 4666 
L 4769 0 
L 3566 0 
L 3566 1978 
L 1791 1978 
L 1791 0 
L 588 0 
L 588 4666 
z
" transform="scale(0.015625)"/>
      <path id="DejaVuSans-Bold-69" d="M 538 3500 
L 1656 3500 
L 1656 0 
L 538 0 
L 538 3500 
z
M 538 4863 
L 1656 4863 
L 1656 3950 
L 538 3950 
L 538 4863 
z
" transform="scale(0.015625)"/>
      <path id="DejaVuSans-Bold-68" d="M 4056 2131 
L 4056 0 
L 2931 0 
L 2931 347 
L 2931 1625 
Q 2931 2084 2911 2256 
Q 2891 2428 2841 2509 
Q 2775 2619 2662 2680 
Q 2550 2741 2406 2741 
Q 2056 2741 1856 2470 
Q 1656 2200 1656 1722 
L 1656 0 
L 538 0 
L 538 4863 
L 1656 4863 
L 1656 2988 
Q 1909 3294 2193 3439 
Q 2478 3584 2822 3584 
Q 3428 3584 3742 3212 
Q 4056 2841 4056 2131 
z
" transform="scale(0.015625)"/>
      <path id="DejaVuSans-Bold-74" d="M 1759 4494 
L 1759 3500 
L 2913 3500 
L 2913 2700 
L 1759 2700 
L 1759 1216 
Q 1759 972 1856 886 
Q 1953 800 2241 800 
L 2816 800 
L 2816 0 
L 1856 0 
Q 1194 0 917 276 
Q 641 553 641 1216 
L 641 2700 
L 84 2700 
L 84 3500 
L 641 3500 
L 641 4494 
L 1759 4494 
z
" transform="scale(0.015625)"/>
     </defs>
     <use xlink:href="#DejaVuSans-Bold-41"/>
     <use xlink:href="#DejaVuSans-Bold-67" transform="translate(77.392578 0)"/>
     <use xlink:href="#DejaVuSans-Bold-65" transform="translate(148.974609 0)"/>
     <use xlink:href="#DejaVuSans-Bold-20" transform="translate(216.796875 0)"/>
     <use xlink:href="#DejaVuSans-Bold-76" transform="translate(251.611328 0)"/>
     <use xlink:href="#DejaVuSans-Bold-73" transform="translate(316.796875 0)"/>
     <use xlink:href="#DejaVuSans-Bold-2e" transform="translate(376.318359 0)"/>
     <use xlink:href="#DejaVuSans-Bold-20" transform="translate(414.306641 0)"/>
     <use xlink:href="#DejaVuSans-Bold-48" transform="translate(449.121094 0)"/>
     <use xlink:href="#DejaVuSans-Bold-65" transform="translate(532.8125 0)"/>
     <use xlink:href="#DejaVuSans-Bold-69" transform="translate(600.634766 0)"/>
     <use xlink:href="#DejaVuSans-Bold-67" transform="translate(634.912109 0)"/>
     <use xlink:href="#DejaVuSans-Bold-68" transform="translate(706.494141 0)"/>
     <use xlink:href="#DejaVuSans-Bold-74" transform="translate(777.685547 0)"/>
    </g>
   </g>
   <g id="PathCollection_4">
    <g clip-path="url(#pde87c83e63)">
     <use xlink:href="#me33712a0cc" x="657.887187" y="124.179825" style="fill: #cc0000; stroke: #cc0000"/>
    </g>
   </g>
  </g>
 </g>
 <defs>
  <clipPath id="p820bbd29e8">
   <rect x="36.17625" y="22.318125" width="383.940625" height="203.7234"/>
  </clipPath>
  <clipPath id="pde87c83e63">
   <rect x="465.916875" y="22.318125" width="383.940625" height="203.7234"/>
  </clipPath>
 </defs>
</svg>
