<?xml version="1.0" encoding="utf-8" standalone="no"?>
<!DOCTYPE svg PUBLIC "-//W3C//DTD SVG 1.1//EN"
  "http://www.w3.org/Graphics/SVG/1.1/DTD/svg11.dtd">
<svg xmlns:xlink="http://www.w3.org/1999/xlink" width="1000.965313pt" height="350.976875pt" viewBox="0 0 1000.965313 350.976875" xmlns="http://www.w3.org/2000/svg" version="1.1">
 <metadata>
  <rdf:RDF xmlns:dc="http://purl.org/dc/elements/1.1/" xmlns:cc="http://creativecommons.org/ns#" xmlns:rdf="http://www.w3.org/1999/02/22-rdf-syntax-ns#">
   <cc:Work>
    <dc:type rdf:resource="http://purl.org/dc/dcmitype/StillImage"/>
    <dc:date>2026-06-24T22:50:49.745840</dc:date>
    <dc:format>image/svg+xml</dc:format>
    <dc:creator>
     <cc:Agent>
      <dc:title>Matplotlib v3.10.8, https://matplotlib.org/</dc:title>
     </cc:Agent>
    </dc:creator>
   </cc:Work>
  </rdf:RDF>
 </metadata>
 <defs>
  <style type="text/css">*{stroke-linejoin: round; stroke-linecap: butt}</style>
 </defs>
 <g id="figure_1">
  <g id="patch_1">
   <path d="M 0 350.976875 
L 1000.965313 350.976875 
L 1000.965313 0 
L 0 0 
z
" style="fill: #ffffff"/>
  </g>
  <g id="axes_1">
   <g id="patch_2">
    <path d="M 45.716875 311.485 
L 481.01375 311.485 
L 481.01375 22.56 
L 45.716875 22.56 
z
" style="fill: #ffffff"/>
   </g>
   <g id="matplotlib.axis_1">
    <g id="xtick_1">
     <g id="line2d_1">
      <path d="M 45.716875 311.485 
L 45.716875 22.56 
" clip-path="url(#p376eedf878)" style="fill: none; stroke-dasharray: 2.96,1.28; stroke-dashoffset: 0; stroke: #b0b0b0; stroke-opacity: 0.4; stroke-width: 0.8"/>
     </g>
     <g id="line2d_2">
      <defs>
       <path id="m2c530565e5" d="M 0 0 
L 0 3.5 
" style="stroke: #000000; stroke-width: 0.8"/>
      </defs>
      <g>
       <use xlink:href="#m2c530565e5" x="45.716875" y="311.485" style="stroke: #000000; stroke-width: 0.8"/>
      </g>
     </g>
     <g id="text_1">
      <!-- 0.0 -->
      <g transform="translate(37.765313 326.083437) scale(0.1 -0.1)">
       <defs>
        <path id="DejaVuSans-30" d="M 2034 4250 
Q 1547 4250 1301 3770 
Q 1056 3291 1056 2328 
Q 1056 1369 1301 889 
Q 1547 409 2034 409 
Q 2525 409 2770 889 
Q 3016 1369 3016 2328 
Q 3016 3291 2770 3770 
Q 2525 4250 2034 4250 
z
M 2034 4750 
Q 2819 4750 3233 4129 
Q 3647 3509 3647 2328 
Q 3647 1150 3233 529 
Q 2819 -91 2034 -91 
Q 1250 -91 836 529 
Q 422 1150 422 2328 
Q 422 3509 836 4129 
Q 1250 4750 2034 4750 
z
" transform="scale(0.015625)"/>
        <path id="DejaVuSans-2e" d="M 684 794 
L 1344 794 
L 1344 0 
L 684 0 
L 684 794 
z
" transform="scale(0.015625)"/>
       </defs>
       <use xlink:href="#DejaVuSans-30"/>
       <use xlink:href="#DejaVuSans-2e" transform="translate(63.623047 0)"/>
       <use xlink:href="#DejaVuSans-30" transform="translate(95.410156 0)"/>
      </g>
     </g>
    </g>
    <g id="xtick_2">
     <g id="line2d_3">
      <path d="M 132.77625 311.485 
L 132.77625 22.56 
" clip-path="url(#p376eedf878)" style="fill: none; stroke-dasharray: 2.96,1.28; stroke-dashoffset: 0; stroke: #b0b0b0; stroke-opacity: 0.4; stroke-width: 0.8"/>
     </g>
     <g id="line2d_4">
      <g>
       <use xlink:href="#m2c530565e5" x="132.77625" y="311.485" style="stroke: #000000; stroke-width: 0.8"/>
      </g>
     </g>
     <g id="text_2">
      <!-- 0.5 -->
      <g transform="translate(124.824688 326.083437) scale(0.1 -0.1)">
       <defs>
        <path id="DejaVuSans-35" d="M 691 4666 
L 3169 4666 
L 3169 4134 
L 1269 4134 
L 1269 2991 
Q 1406 3038 1543 3061 
Q 1681 3084 1819 3084 
Q 2600 3084 3056 2656 
Q 3513 2228 3513 1497 
Q 3513 744 3044 326 
Q 2575 -91 1722 -91 
Q 1428 -91 1123 -41 
Q 819 9 494 109 
L 494 744 
Q 775 591 1075 516 
Q 1375 441 1709 441 
Q 2250 441 2565 725 
Q 2881 1009 2881 1497 
Q 2881 1984 2565 2268 
Q 2250 2553 1709 2553 
Q 1456 2553 1204 2497 
Q 953 2441 691 2322 
L 691 4666 
z
" transform="scale(0.015625)"/>
       </defs>
       <use xlink:href="#DejaVuSans-30"/>
       <use xlink:href="#DejaVuSans-2e" transform="translate(63.623047 0)"/>
       <use xlink:href="#DejaVuSans-35" transform="translate(95.410156 0)"/>
      </g>
     </g>
    </g>
    <g id="xtick_3">
     <g id="line2d_5">
      <path d="M 219.835625 311.485 
L 219.835625 22.56 
" clip-path="url(#p376eedf878)" style="fill: none; stroke-dasharray: 2.96,1.28; stroke-dashoffset: 0; stroke: #b0b0b0; stroke-opacity: 0.4; stroke-width: 0.8"/>
     </g>
     <g id="line2d_6">
      <g>
       <use xlink:href="#m2c530565e5" x="219.835625" y="311.485" style="stroke: #000000; stroke-width: 0.8"/>
      </g>
     </g>
     <g id="text_3">
      <!-- 1.0 -->
      <g transform="translate(211.884063 326.083437) scale(0.1 -0.1)">
       <defs>
        <path id="DejaVuSans-31" d="M 794 531 
L 1825 531 
L 1825 4091 
L 703 3866 
L 703 4441 
L 1819 4666 
L 2450 4666 
L 2450 531 
L 3481 531 
L 3481 0 
L 794 0 
L 794 531 
z
" transform="scale(0.015625)"/>
       </defs>
       <use xlink:href="#DejaVuSans-31"/>
       <use xlink:href="#DejaVuSans-2e" transform="translate(63.623047 0)"/>
       <use xlink:href="#DejaVuSans-30" transform="translate(95.410156 0)"/>
      </g>
     </g>
    </g>
    <g id="xtick_4">
     <g id="line2d_7">
      <path d="M 306.895 311.485 
L 306.895 22.56 
" clip-path="url(#p376eedf878)" style="fill: none; stroke-dasharray: 2.96,1.28; stroke-dashoffset: 0; stroke: #b0b0b0; stroke-opacity: 0.4; stroke-width: 0.8"/>
     </g>
     <g id="line2d_8">
      <g>
       <use xlink:href="#m2c530565e5" x="306.895" y="311.485" style="stroke: #000000; stroke-width: 0.8"/>
      </g>
     </g>
     <g id="text_4">
      <!-- 1.5 -->
      <g transform="translate(298.943438 326.083437) scale(0.1 -0.1)">
       <use xlink:href="#DejaVuSans-31"/>
       <use xlink:href="#DejaVuSans-2e" transform="translate(63.623047 0)"/>
       <use xlink:href="#DejaVuSans-35" transform="translate(95.410156 0)"/>
      </g>
     </g>
    </g>
    <g id="xtick_5">
     <g id="line2d_9">
      <path d="M 393.954375 311.485 
L 393.954375 22.56 
" clip-path="url(#p376eedf878)" style="fill: none; stroke-dasharray: 2.96,1.28; stroke-dashoffset: 0; stroke: #b0b0b0; stroke-opacity: 0.4; stroke-width: 0.8"/>
     </g>
     <g id="line2d_10">
      <g>
       <use xlink:href="#m2c530565e5" x="393.954375" y="311.485" style="stroke: #000000; stroke-width: 0.8"/>
      </g>
     </g>
     <g id="text_5">
      <!-- 2.0 -->
      <g transform="translate(386.002813 326.083437) scale(0.1 -0.1)">
       <defs>
        <path id="DejaVuSans-32" d="M 1228 531 
L 3431 531 
L 3431 0 
L 469 0 
L 469 531 
Q 828 903 1448 1529 
Q 2069 2156 2228 2338 
Q 2531 2678 2651 2914 
Q 2772 3150 2772 3378 
Q 2772 3750 2511 3984 
Q 2250 4219 1831 4219 
Q 1534 4219 1204 4116 
Q 875 4013 500 3803 
L 500 4441 
Q 881 4594 1212 4672 
Q 1544 4750 1819 4750 
Q 2544 4750 2975 4387 
Q 3406 4025 3406 3419 
Q 3406 3131 3298 2873 
Q 3191 2616 2906 2266 
Q 2828 2175 2409 1742 
Q 1991 1309 1228 531 
z
" transform="scale(0.015625)"/>
       </defs>
       <use xlink:href="#DejaVuSans-32"/>
       <use xlink:href="#DejaVuSans-2e" transform="translate(63.623047 0)"/>
       <use xlink:href="#DejaVuSans-30" transform="translate(95.410156 0)"/>
      </g>
     </g>
    </g>
    <g id="xtick_6">
     <g id="line2d_11">
      <path d="M 481.01375 311.485 
L 481.01375 22.56 
" clip-path="url(#p376eedf878)" style="fill: none; stroke-dasharray: 2.96,1.28; stroke-dashoffset: 0; stroke: #b0b0b0; stroke-opacity: 0.4; stroke-width: 0.8"/>
     </g>
     <g id="line2d_12">
      <g>
       <use xlink:href="#m2c530565e5" x="481.01375" y="311.485" style="stroke: #000000; stroke-width: 0.8"/>
      </g>
     </g>
     <g id="text_6">
      <!-- 2.5 -->
      <g transform="translate(473.062188 326.083437) scale(0.1 -0.1)">
       <use xlink:href="#DejaVuSans-32"/>
       <use xlink:href="#DejaVuSans-2e" transform="translate(63.623047 0)"/>
       <use xlink:href="#DejaVuSans-35" transform="translate(95.410156 0)"/>
      </g>
     </g>
    </g>
    <g id="text_7">
     <!-- x -->
     <g transform="translate(259.814063 341.28125) scale(0.12 -0.12)">
      <defs>
       <path id="DejaVuSans-78" d="M 3513 3500 
L 2247 1797 
L 3578 0 
L 2900 0 
L 1881 1375 
L 863 0 
L 184 0 
L 1544 1831 
L 300 3500 
L 978 3500 
L 1906 2253 
L 2834 3500 
L 3513 3500 
z
" transform="scale(0.015625)"/>
      </defs>
      <use xlink:href="#DejaVuSans-78"/>
     </g>
    </g>
   </g>
   <g id="matplotlib.axis_2">
    <g id="ytick_1">
     <g id="line2d_13">
      <path d="M 45.716875 311.485 
L 481.01375 311.485 
" clip-path="url(#p376eedf878)" style="fill: none; stroke-dasharray: 2.96,1.28; stroke-dashoffset: 0; stroke: #b0b0b0; stroke-opacity: 0.4; stroke-width: 0.8"/>
     </g>
     <g id="line2d_14">
      <defs>
       <path id="me1eeda592f" d="M 0 0 
L -3.5 0 
" style="stroke: #000000; stroke-width: 0.8"/>
      </defs>
      <g>
       <use xlink:href="#me1eeda592f" x="45.716875" y="311.485" style="stroke: #000000; stroke-width: 0.8"/>
      </g>
     </g>
     <g id="text_8">
      <!-- 0.5 -->
      <g transform="translate(22.81375 315.284219) scale(0.1 -0.1)">
       <use xlink:href="#DejaVuSans-30"/>
       <use xlink:href="#DejaVuSans-2e" transform="translate(63.623047 0)"/>
       <use xlink:href="#DejaVuSans-35" transform="translate(95.410156 0)"/>
      </g>
     </g>
    </g>
    <g id="ytick_2">
     <g id="line2d_15">
      <path d="M 45.716875 279.382222 
L 481.01375 279.382222 
" clip-path="url(#p376eedf878)" style="fill: none; stroke-dasharray: 2.96,1.28; stroke-dashoffset: 0; stroke: #b0b0b0; stroke-opacity: 0.4; stroke-width: 0.8"/>
     </g>
     <g id="line2d_16">
      <g>
       <use xlink:href="#me1eeda592f" x="45.716875" y="279.382222" style="stroke: #000000; stroke-width: 0.8"/>
      </g>
     </g>
     <g id="text_9">
      <!-- 1.0 -->
      <g transform="translate(22.81375 283.181441) scale(0.1 -0.1)">
       <use xlink:href="#DejaVuSans-31"/>
       <use xlink:href="#DejaVuSans-2e" transform="translate(63.623047 0)"/>
       <use xlink:href="#DejaVuSans-30" transform="translate(95.410156 0)"/>
      </g>
     </g>
    </g>
    <g id="ytick_3">
     <g id="line2d_17">
      <path d="M 45.716875 247.279444 
L 481.01375 247.279444 
" clip-path="url(#p376eedf878)" style="fill: none; stroke-dasharray: 2.96,1.28; stroke-dashoffset: 0; stroke: #b0b0b0; stroke-opacity: 0.4; stroke-width: 0.8"/>
     </g>
     <g id="line2d_18">
      <g>
       <use xlink:href="#me1eeda592f" x="45.716875" y="247.279444" style="stroke: #000000; stroke-width: 0.8"/>
      </g>
     </g>
     <g id="text_10">
      <!-- 1.5 -->
      <g transform="translate(22.81375 251.078663) scale(0.1 -0.1)">
       <use xlink:href="#DejaVuSans-31"/>
       <use xlink:href="#DejaVuSans-2e" transform="translate(63.623047 0)"/>
       <use xlink:href="#DejaVuSans-35" transform="translate(95.410156 0)"/>
      </g>
     </g>
    </g>
    <g id="ytick_4">
     <g id="line2d_19">
      <path d="M 45.716875 215.176667 
L 481.01375 215.176667 
" clip-path="url(#p376eedf878)" style="fill: none; stroke-dasharray: 2.96,1.28; stroke-dashoffset: 0; stroke: #b0b0b0; stroke-opacity: 0.4; stroke-width: 0.8"/>
     </g>
     <g id="line2d_20">
      <g>
       <use xlink:href="#me1eeda592f" x="45.716875" y="215.176667" style="stroke: #000000; stroke-width: 0.8"/>
      </g>
     </g>
     <g id="text_11">
      <!-- 2.0 -->
      <g transform="translate(22.81375 218.975885) scale(0.1 -0.1)">
       <use xlink:href="#DejaVuSans-32"/>
       <use xlink:href="#DejaVuSans-2e" transform="translate(63.623047 0)"/>
       <use xlink:href="#DejaVuSans-30" transform="translate(95.410156 0)"/>
      </g>
     </g>
    </g>
    <g id="ytick_5">
     <g id="line2d_21">
      <path d="M 45.716875 183.073889 
L 481.01375 183.073889 
" clip-path="url(#p376eedf878)" style="fill: none; stroke-dasharray: 2.96,1.28; stroke-dashoffset: 0; stroke: #b0b0b0; stroke-opacity: 0.4; stroke-width: 0.8"/>
     </g>
     <g id="line2d_22">
      <g>
       <use xlink:href="#me1eeda592f" x="45.716875" y="183.073889" style="stroke: #000000; stroke-width: 0.8"/>
      </g>
     </g>
     <g id="text_12">
      <!-- 2.5 -->
      <g transform="translate(22.81375 186.873108) scale(0.1 -0.1)">
       <use xlink:href="#DejaVuSans-32"/>
       <use xlink:href="#DejaVuSans-2e" transform="translate(63.623047 0)"/>
       <use xlink:href="#DejaVuSans-35" transform="translate(95.410156 0)"/>
      </g>
     </g>
    </g>
    <g id="ytick_6">
     <g id="line2d_23">
      <path d="M 45.716875 150.971111 
L 481.01375 150.971111 
" clip-path="url(#p376eedf878)" style="fill: none; stroke-dasharray: 2.96,1.28; stroke-dashoffset: 0; stroke: #b0b0b0; stroke-opacity: 0.4; stroke-width: 0.8"/>
     </g>
     <g id="line2d_24">
      <g>
       <use xlink:href="#me1eeda592f" x="45.716875" y="150.971111" style="stroke: #000000; stroke-width: 0.8"/>
      </g>
     </g>
     <g id="text_13">
      <!-- 3.0 -->
      <g transform="translate(22.81375 154.77033) scale(0.1 -0.1)">
       <defs>
        <path id="DejaVuSans-33" d="M 2597 2516 
Q 3050 2419 3304 2112 
Q 3559 1806 3559 1356 
Q 3559 666 3084 287 
Q 2609 -91 1734 -91 
Q 1441 -91 1130 -33 
Q 819 25 488 141 
L 488 750 
Q 750 597 1062 519 
Q 1375 441 1716 441 
Q 2309 441 2620 675 
Q 2931 909 2931 1356 
Q 2931 1769 2642 2001 
Q 2353 2234 1838 2234 
L 1294 2234 
L 1294 2753 
L 1863 2753 
Q 2328 2753 2575 2939 
Q 2822 3125 2822 3475 
Q 2822 3834 2567 4026 
Q 2313 4219 1838 4219 
Q 1578 4219 1281 4162 
Q 984 4106 628 3988 
L 628 4550 
Q 988 4650 1302 4700 
Q 1616 4750 1894 4750 
Q 2613 4750 3031 4423 
Q 3450 4097 3450 3541 
Q 3450 3153 3228 2886 
Q 3006 2619 2597 2516 
z
" transform="scale(0.015625)"/>
       </defs>
       <use xlink:href="#DejaVuSans-33"/>
       <use xlink:href="#DejaVuSans-2e" transform="translate(63.623047 0)"/>
       <use xlink:href="#DejaVuSans-30" transform="translate(95.410156 0)"/>
      </g>
     </g>
    </g>
    <g id="ytick_7">
     <g id="line2d_25">
      <path d="M 45.716875 118.868333 
L 481.01375 118.868333 
" clip-path="url(#p376eedf878)" style="fill: none; stroke-dasharray: 2.96,1.28; stroke-dashoffset: 0; stroke: #b0b0b0; stroke-opacity: 0.4; stroke-width: 0.8"/>
     </g>
     <g id="line2d_26">
      <g>
       <use xlink:href="#me1eeda592f" x="45.716875" y="118.868333" style="stroke: #000000; stroke-width: 0.8"/>
      </g>
     </g>
     <g id="text_14">
      <!-- 3.5 -->
      <g transform="translate(22.81375 122.667552) scale(0.1 -0.1)">
       <use xlink:href="#DejaVuSans-33"/>
       <use xlink:href="#DejaVuSans-2e" transform="translate(63.623047 0)"/>
       <use xlink:href="#DejaVuSans-35" transform="translate(95.410156 0)"/>
      </g>
     </g>
    </g>
    <g id="ytick_8">
     <g id="line2d_27">
      <path d="M 45.716875 86.765556 
L 481.01375 86.765556 
" clip-path="url(#p376eedf878)" style="fill: none; stroke-dasharray: 2.96,1.28; stroke-dashoffset: 0; stroke: #b0b0b0; stroke-opacity: 0.4; stroke-width: 0.8"/>
     </g>
     <g id="line2d_28">
      <g>
       <use xlink:href="#me1eeda592f" x="45.716875" y="86.765556" style="stroke: #000000; stroke-width: 0.8"/>
      </g>
     </g>
     <g id="text_15">
      <!-- 4.0 -->
      <g transform="translate(22.81375 90.564774) scale(0.1 -0.1)">
       <defs>
        <path id="DejaVuSans-34" d="M 2419 4116 
L 825 1625 
L 2419 1625 
L 2419 4116 
z
M 2253 4666 
L 3047 4666 
L 3047 1625 
L 3713 1625 
L 3713 1100 
L 3047 1100 
L 3047 0 
L 2419 0 
L 2419 1100 
L 313 1100 
L 313 1709 
L 2253 4666 
z
" transform="scale(0.015625)"/>
       </defs>
       <use xlink:href="#DejaVuSans-34"/>
       <use xlink:href="#DejaVuSans-2e" transform="translate(63.623047 0)"/>
       <use xlink:href="#DejaVuSans-30" transform="translate(95.410156 0)"/>
      </g>
     </g>
    </g>
    <g id="ytick_9">
     <g id="line2d_29">
      <path d="M 45.716875 54.662778 
L 481.01375 54.662778 
" clip-path="url(#p376eedf878)" style="fill: none; stroke-dasharray: 2.96,1.28; stroke-dashoffset: 0; stroke: #b0b0b0; stroke-opacity: 0.4; stroke-width: 0.8"/>
     </g>
     <g id="line2d_30">
      <g>
       <use xlink:href="#me1eeda592f" x="45.716875" y="54.662778" style="stroke: #000000; stroke-width: 0.8"/>
      </g>
     </g>
     <g id="text_16">
      <!-- 4.5 -->
      <g transform="translate(22.81375 58.461997) scale(0.1 -0.1)">
       <use xlink:href="#DejaVuSans-34"/>
       <use xlink:href="#DejaVuSans-2e" transform="translate(63.623047 0)"/>
       <use xlink:href="#DejaVuSans-35" transform="translate(95.410156 0)"/>
      </g>
     </g>
    </g>
    <g id="ytick_10">
     <g id="line2d_31">
      <path d="M 45.716875 22.56 
L 481.01375 22.56 
" clip-path="url(#p376eedf878)" style="fill: none; stroke-dasharray: 2.96,1.28; stroke-dashoffset: 0; stroke: #b0b0b0; stroke-opacity: 0.4; stroke-width: 0.8"/>
     </g>
     <g id="line2d_32">
      <g>
       <use xlink:href="#me1eeda592f" x="45.716875" y="22.56" style="stroke: #000000; stroke-width: 0.8"/>
      </g>
     </g>
     <g id="text_17">
      <!-- 5.0 -->
      <g transform="translate(22.81375 26.359219) scale(0.1 -0.1)">
       <use xlink:href="#DejaVuSans-35"/>
       <use xlink:href="#DejaVuSans-2e" transform="translate(63.623047 0)"/>
       <use xlink:href="#DejaVuSans-30" transform="translate(95.410156 0)"/>
      </g>
     </g>
    </g>
    <g id="text_18">
     <!-- g(x) -->
     <g transform="translate(16.318125 179.064687) rotate(-90) scale(0.12 -0.12)">
      <defs>
       <path id="DejaVuSans-67" d="M 2906 1791 
Q 2906 2416 2648 2759 
Q 2391 3103 1925 3103 
Q 1463 3103 1205 2759 
Q 947 2416 947 1791 
Q 947 1169 1205 825 
Q 1463 481 1925 481 
Q 2391 481 2648 825 
Q 2906 1169 2906 1791 
z
M 3481 434 
Q 3481 -459 3084 -895 
Q 2688 -1331 1869 -1331 
Q 1566 -1331 1297 -1286 
Q 1028 -1241 775 -1147 
L 775 -588 
Q 1028 -725 1275 -790 
Q 1522 -856 1778 -856 
Q 2344 -856 2625 -561 
Q 2906 -266 2906 331 
L 2906 616 
Q 2728 306 2450 153 
Q 2172 0 1784 0 
Q 1141 0 747 490 
Q 353 981 353 1791 
Q 353 2603 747 3093 
Q 1141 3584 1784 3584 
Q 2172 3584 2450 3431 
Q 2728 3278 2906 2969 
L 2906 3500 
L 3481 3500 
L 3481 434 
z
" transform="scale(0.015625)"/>
       <path id="DejaVuSans-28" d="M 1984 4856 
Q 1566 4138 1362 3434 
Q 1159 2731 1159 2009 
Q 1159 1288 1364 580 
Q 1569 -128 1984 -844 
L 1484 -844 
Q 1016 -109 783 600 
Q 550 1309 550 2009 
Q 550 2706 781 3412 
Q 1013 4119 1484 4856 
L 1984 4856 
z
" transform="scale(0.015625)"/>
       <path id="DejaVuSans-29" d="M 513 4856 
L 1013 4856 
Q 1481 4119 1714 3412 
Q 1947 2706 1947 2009 
Q 1947 1309 1714 600 
Q 1481 -109 1013 -844 
L 513 -844 
Q 928 -128 1133 580 
Q 1338 1288 1338 2009 
Q 1338 2731 1133 3434 
Q 928 4138 513 4856 
z
" transform="scale(0.015625)"/>
      </defs>
      <use xlink:href="#DejaVuSans-67"/>
      <use xlink:href="#DejaVuSans-28" transform="translate(63.476562 0)"/>
      <use xlink:href="#DejaVuSans-78" transform="translate(102.490234 0)"/>
      <use xlink:href="#DejaVuSans-29" transform="translate(161.669922 0)"/>
     </g>
    </g>
   </g>
   <g id="line2d_33">
    <path d="M 48.060692 -1 
L 48.908082 21.41488 
L 50.358101 44.918106 
L 51.80812 61.822499 
L 53.258139 74.976746 
L 54.708158 85.707618 
L 56.158177 94.741855 
L 57.608196 102.521012 
L 59.058215 109.333548 
L 60.508234 115.378322 
L 61.958253 120.798237 
L 63.408272 125.699444 
L 64.858291 130.162951 
L 67.758329 138.016829 
L 70.658367 144.729285 
L 73.558405 150.547233 
L 76.458443 155.643859 
L 79.358481 160.145293 
L 82.258519 164.146218 
L 85.158557 167.7195 
L 88.058595 170.92239 
L 90.958633 173.800664 
L 93.858671 176.391483 
L 96.758709 178.725405 
L 99.658747 180.827847 
L 102.558785 182.720162 
L 105.458823 184.420446 
L 109.80888 186.644023 
L 114.158938 188.513236 
L 118.508995 190.06318 
L 122.859052 191.322542 
L 127.209109 192.314998 
L 131.559166 193.060248 
L 135.909223 193.574792 
L 140.25928 193.872532 
L 144.609337 193.965222 
L 148.959394 193.862837 
L 153.309451 193.573854 
L 157.659508 193.105487 
L 162.009565 192.463864 
L 167.809641 191.347728 
L 173.609717 189.942877 
L 179.409793 188.257317 
L 185.20987 186.297249 
L 191.009946 184.067331 
L 196.810022 181.570884 
L 202.610098 178.810066 
L 208.410174 175.786005 
L 214.21025 172.498912 
L 220.010326 168.94817 
L 225.810402 165.132415 
L 231.610478 161.049588 
L 237.410554 156.696997 
L 243.21063 152.07135 
L 249.010707 147.168795 
L 254.810783 141.984946 
L 260.610859 136.514909 
L 266.410935 130.753296 
L 272.211011 124.694243 
L 278.011087 118.331423 
L 283.811163 111.65805 
L 289.611239 104.666889 
L 295.411315 97.350258 
L 301.211391 89.700031 
L 307.011467 81.70764 
L 312.811543 73.364067 
L 318.61162 64.659851 
L 324.411696 55.585073 
L 330.211772 46.129362 
L 336.011848 36.281878 
L 341.811924 26.031312 
L 347.612 15.365873 
L 353.412076 4.273282 
L 356.09117 -1 
L 356.09117 -1 
" clip-path="url(#p376eedf878)" style="fill: none; stroke: #000000; stroke-width: 2.5; stroke-linecap: square"/>
   </g>
   <g id="line2d_34">
    <path d="M 54.422813 311.485 
L 54.422813 22.56 
" clip-path="url(#p376eedf878)" style="fill: none; stroke-dasharray: 2.96,1.28; stroke-dashoffset: 0; stroke: #cc0066; stroke-opacity: 0.4; stroke-width: 0.8"/>
   </g>
   <g id="line2d_35">
    <path d="M 62.649514 311.485 
L 62.649514 22.56 
" clip-path="url(#p376eedf878)" style="fill: none; stroke-dasharray: 2.96,1.28; stroke-dashoffset: 0; stroke: #cc0066; stroke-opacity: 0.5; stroke-width: 0.8"/>
   </g>
   <g id="line2d_36">
    <path d="M 77.611367 311.485 
L 77.611367 22.56 
" clip-path="url(#p376eedf878)" style="fill: none; stroke-dasharray: 2.96,1.28; stroke-dashoffset: 0; stroke: #cc0066; stroke-opacity: 0.6; stroke-width: 0.8"/>
   </g>
   <g id="line2d_37">
    <path d="M 101.525363 311.485 
L 101.525363 22.56 
" clip-path="url(#p376eedf878)" style="fill: none; stroke-dasharray: 2.96,1.28; stroke-dashoffset: 0; stroke: #cc0066; stroke-opacity: 0.7; stroke-width: 0.8"/>
   </g>
   <g id="line2d_38">
    <path d="M 128.823346 311.485 
L 128.823346 22.56 
" clip-path="url(#p376eedf878)" style="fill: none; stroke-dasharray: 2.96,1.28; stroke-dashoffset: 0; stroke: #cc0066; stroke-opacity: 0.8; stroke-width: 0.8"/>
   </g>
   <g id="line2d_39">
    <path d="M 142.848979 311.485 
L 142.848979 22.56 
" clip-path="url(#p376eedf878)" style="fill: none; stroke-dasharray: 2.96,1.28; stroke-dashoffset: 0; stroke: #cc0066; stroke-opacity: 0.9; stroke-width: 0.8"/>
   </g>
   <g id="line2d_40">
    <path d="M 144.452634 311.485 
L 144.452634 22.56 
" clip-path="url(#p376eedf878)" style="fill: none; stroke-dasharray: 2.96,1.28; stroke-dashoffset: 0; stroke: #cc0066; stroke-width: 0.8"/>
   </g>
   <g id="patch_3">
    <path d="M 45.716875 311.485 
L 45.716875 22.56 
" style="fill: none; stroke: #000000; stroke-width: 0.8; stroke-linejoin: miter; stroke-linecap: square"/>
   </g>
   <g id="patch_4">
    <path d="M 481.01375 311.485 
L 481.01375 22.56 
" style="fill: none; stroke: #000000; stroke-width: 0.8; stroke-linejoin: miter; stroke-linecap: square"/>
   </g>
   <g id="patch_5">
    <path d="M 45.716875 311.485 
L 481.01375 311.485 
" style="fill: none; stroke: #000000; stroke-width: 0.8; stroke-linejoin: miter; stroke-linecap: square"/>
   </g>
   <g id="patch_6">
    <path d="M 45.716875 22.56 
L 481.01375 22.56 
" style="fill: none; stroke: #000000; stroke-width: 0.8; stroke-linejoin: miter; stroke-linecap: square"/>
   </g>
   <g id="patch_7">
    <path d="M 197.814535 214.976959 
Q 172.063445 204.837281 147.560705 195.18915 
" style="fill: none; stroke: #2e8b57; stroke-width: 1.2; stroke-linecap: round"/>
    <path d="M 150.848725 198.848238 
L 147.560705 195.18915 
L 152.460788 194.754187 
" style="fill: none; stroke: #2e8b57; stroke-width: 1.2; stroke-linecap: round"/>
   </g>
   <g id="text_19">
    <!-- Minimum at x = 0.5671 -->
    <g style="fill: #2e8b57" transform="translate(153.158572 226.068103) scale(0.11 -0.11)">
     <defs>
      <path id="DejaVuSans-4d" d="M 628 4666 
L 1569 4666 
L 2759 1491 
L 3956 4666 
L 4897 4666 
L 4897 0 
L 4281 0 
L 4281 4097 
L 3078 897 
L 2444 897 
L 1241 4097 
L 1241 0 
L 628 0 
L 628 4666 
z
" transform="scale(0.015625)"/>
      <path id="DejaVuSans-69" d="M 603 3500 
L 1178 3500 
L 1178 0 
L 603 0 
L 603 3500 
z
M 603 4863 
L 1178 4863 
L 1178 4134 
L 603 4134 
L 603 4863 
z
" transform="scale(0.015625)"/>
      <path id="DejaVuSans-6e" d="M 3513 2113 
L 3513 0 
L 2938 0 
L 2938 2094 
Q 2938 2591 2744 2837 
Q 2550 3084 2163 3084 
Q 1697 3084 1428 2787 
Q 1159 2491 1159 1978 
L 1159 0 
L 581 0 
L 581 3500 
L 1159 3500 
L 1159 2956 
Q 1366 3272 1645 3428 
Q 1925 3584 2291 3584 
Q 2894 3584 3203 3211 
Q 3513 2838 3513 2113 
z
" transform="scale(0.015625)"/>
      <path id="DejaVuSans-6d" d="M 3328 2828 
Q 3544 3216 3844 3400 
Q 4144 3584 4550 3584 
Q 5097 3584 5394 3201 
Q 5691 2819 5691 2113 
L 5691 0 
L 5113 0 
L 5113 2094 
Q 5113 2597 4934 2840 
Q 4756 3084 4391 3084 
Q 3944 3084 3684 2787 
Q 3425 2491 3425 1978 
L 3425 0 
L 2847 0 
L 2847 2094 
Q 2847 2600 2669 2842 
Q 2491 3084 2119 3084 
Q 1678 3084 1418 2786 
Q 1159 2488 1159 1978 
L 1159 0 
L 581 0 
L 581 3500 
L 1159 3500 
L 1159 2956 
Q 1356 3278 1631 3431 
Q 1906 3584 2284 3584 
Q 2666 3584 2933 3390 
Q 3200 3197 3328 2828 
z
" transform="scale(0.015625)"/>
      <path id="DejaVuSans-75" d="M 544 1381 
L 544 3500 
L 1119 3500 
L 1119 1403 
Q 1119 906 1312 657 
Q 1506 409 1894 409 
Q 2359 409 2629 706 
Q 2900 1003 2900 1516 
L 2900 3500 
L 3475 3500 
L 3475 0 
L 2900 0 
L 2900 538 
Q 2691 219 2414 64 
Q 2138 -91 1772 -91 
Q 1169 -91 856 284 
Q 544 659 544 1381 
z
M 1991 3584 
L 1991 3584 
z
" transform="scale(0.015625)"/>
      <path id="DejaVuSans-20" transform="scale(0.015625)"/>
      <path id="DejaVuSans-61" d="M 2194 1759 
Q 1497 1759 1228 1600 
Q 959 1441 959 1056 
Q 959 750 1161 570 
Q 1363 391 1709 391 
Q 2188 391 2477 730 
Q 2766 1069 2766 1631 
L 2766 1759 
L 2194 1759 
z
M 3341 1997 
L 3341 0 
L 2766 0 
L 2766 531 
Q 2569 213 2275 61 
Q 1981 -91 1556 -91 
Q 1019 -91 701 211 
Q 384 513 384 1019 
Q 384 1609 779 1909 
Q 1175 2209 1959 2209 
L 2766 2209 
L 2766 2266 
Q 2766 2663 2505 2880 
Q 2244 3097 1772 3097 
Q 1472 3097 1187 3025 
Q 903 2953 641 2809 
L 641 3341 
Q 956 3463 1253 3523 
Q 1550 3584 1831 3584 
Q 2591 3584 2966 3190 
Q 3341 2797 3341 1997 
z
" transform="scale(0.015625)"/>
      <path id="DejaVuSans-74" d="M 1172 4494 
L 1172 3500 
L 2356 3500 
L 2356 3053 
L 1172 3053 
L 1172 1153 
Q 1172 725 1289 603 
Q 1406 481 1766 481 
L 2356 481 
L 2356 0 
L 1766 0 
Q 1100 0 847 248 
Q 594 497 594 1153 
L 594 3053 
L 172 3053 
L 172 3500 
L 594 3500 
L 594 4494 
L 1172 4494 
z
" transform="scale(0.015625)"/>
      <path id="DejaVuSans-3d" d="M 678 2906 
L 4684 2906 
L 4684 2381 
L 678 2381 
L 678 2906 
z
M 678 1631 
L 4684 1631 
L 4684 1100 
L 678 1100 
L 678 1631 
z
" transform="scale(0.015625)"/>
      <path id="DejaVuSans-36" d="M 2113 2584 
Q 1688 2584 1439 2293 
Q 1191 2003 1191 1497 
Q 1191 994 1439 701 
Q 1688 409 2113 409 
Q 2538 409 2786 701 
Q 3034 994 3034 1497 
Q 3034 2003 2786 2293 
Q 2538 2584 2113 2584 
z
M 3366 4563 
L 3366 3988 
Q 3128 4100 2886 4159 
Q 2644 4219 2406 4219 
Q 1781 4219 1451 3797 
Q 1122 3375 1075 2522 
Q 1259 2794 1537 2939 
Q 1816 3084 2150 3084 
Q 2853 3084 3261 2657 
Q 3669 2231 3669 1497 
Q 3669 778 3244 343 
Q 2819 -91 2113 -91 
Q 1303 -91 875 529 
Q 447 1150 447 2328 
Q 447 3434 972 4092 
Q 1497 4750 2381 4750 
Q 2619 4750 2861 4703 
Q 3103 4656 3366 4563 
z
" transform="scale(0.015625)"/>
      <path id="DejaVuSans-37" d="M 525 4666 
L 3525 4666 
L 3525 4397 
L 1831 0 
L 1172 0 
L 2766 4134 
L 525 4134 
L 525 4666 
z
" transform="scale(0.015625)"/>
     </defs>
     <use xlink:href="#DejaVuSans-4d"/>
     <use xlink:href="#DejaVuSans-69" transform="translate(86.279297 0)"/>
     <use xlink:href="#DejaVuSans-6e" transform="translate(114.0625 0)"/>
     <use xlink:href="#DejaVuSans-69" transform="translate(177.441406 0)"/>
     <use xlink:href="#DejaVuSans-6d" transform="translate(205.224609 0)"/>
     <use xlink:href="#DejaVuSans-75" transform="translate(302.636719 0)"/>
     <use xlink:href="#DejaVuSans-6d" transform="translate(366.015625 0)"/>
     <use xlink:href="#DejaVuSans-20" transform="translate(463.427734 0)"/>
     <use xlink:href="#DejaVuSans-61" transform="translate(495.214844 0)"/>
     <use xlink:href="#DejaVuSans-74" transform="translate(556.494141 0)"/>
     <use xlink:href="#DejaVuSans-20" transform="translate(595.703125 0)"/>
     <use xlink:href="#DejaVuSans-78" transform="translate(627.490234 0)"/>
     <use xlink:href="#DejaVuSans-20" transform="translate(686.669922 0)"/>
     <use xlink:href="#DejaVuSans-3d" transform="translate(718.457031 0)"/>
     <use xlink:href="#DejaVuSans-20" transform="translate(802.246094 0)"/>
     <use xlink:href="#DejaVuSans-30" transform="translate(834.033203 0)"/>
     <use xlink:href="#DejaVuSans-2e" transform="translate(897.65625 0)"/>
     <use xlink:href="#DejaVuSans-35" transform="translate(929.443359 0)"/>
     <use xlink:href="#DejaVuSans-36" transform="translate(993.066406 0)"/>
     <use xlink:href="#DejaVuSans-37" transform="translate(1056.689453 0)"/>
     <use xlink:href="#DejaVuSans-31" transform="translate(1120.3125 0)"/>
    </g>
   </g>
   <g id="text_20">
    <!-- $g(x) = e^x - \ln(x)$ -->
    <g style="fill: #808080" transform="translate(216.265313 16.56) scale(0.12 -0.12)">
     <defs>
      <path id="DejaVuSans-Oblique-67" d="M 3816 3500 
L 3219 434 
Q 3047 -456 2561 -893 
Q 2075 -1331 1253 -1331 
Q 950 -1331 690 -1286 
Q 431 -1241 206 -1147 
L 313 -588 
Q 525 -725 762 -790 
Q 1000 -856 1269 -856 
Q 1816 -856 2167 -557 
Q 2519 -259 2631 300 
L 2681 563 
Q 2441 288 2122 144 
Q 1803 0 1434 0 
Q 903 0 598 351 
Q 294 703 294 1319 
Q 294 1803 478 2267 
Q 663 2731 997 3091 
Q 1219 3328 1514 3456 
Q 1809 3584 2131 3584 
Q 2484 3584 2746 3420 
Q 3009 3256 3138 2956 
L 3238 3500 
L 3816 3500 
z
M 2950 2216 
Q 2950 2641 2750 2872 
Q 2550 3103 2181 3103 
Q 1953 3103 1747 3012 
Q 1541 2922 1394 2759 
Q 1156 2491 1023 2127 
Q 891 1763 891 1375 
Q 891 944 1092 712 
Q 1294 481 1672 481 
Q 2219 481 2584 976 
Q 2950 1472 2950 2216 
z
" transform="scale(0.015625)"/>
      <path id="DejaVuSans-Oblique-78" d="M 3841 3500 
L 2234 1784 
L 3219 0 
L 2559 0 
L 1819 1388 
L 531 0 
L -166 0 
L 1556 1844 
L 641 3500 
L 1300 3500 
L 1972 2234 
L 3144 3500 
L 3841 3500 
z
" transform="scale(0.015625)"/>
      <path id="DejaVuSans-Oblique-65" d="M 3078 2063 
Q 3088 2113 3092 2166 
Q 3097 2219 3097 2272 
Q 3097 2653 2873 2875 
Q 2650 3097 2266 3097 
Q 1838 3097 1509 2826 
Q 1181 2556 1013 2059 
L 3078 2063 
z
M 3578 1613 
L 903 1613 
Q 884 1494 878 1425 
Q 872 1356 872 1306 
Q 872 872 1139 634 
Q 1406 397 1894 397 
Q 2269 397 2603 481 
Q 2938 566 3225 728 
L 3116 159 
Q 2806 34 2476 -28 
Q 2147 -91 1806 -91 
Q 1078 -91 686 257 
Q 294 606 294 1247 
Q 294 1794 489 2264 
Q 684 2734 1063 3103 
Q 1306 3334 1642 3459 
Q 1978 3584 2356 3584 
Q 2950 3584 3301 3228 
Q 3653 2872 3653 2272 
Q 3653 2128 3634 1964 
Q 3616 1800 3578 1613 
z
" transform="scale(0.015625)"/>
      <path id="DejaVuSans-2212" d="M 678 2272 
L 4684 2272 
L 4684 1741 
L 678 1741 
L 678 2272 
z
" transform="scale(0.015625)"/>
      <path id="DejaVuSans-6c" d="M 603 4863 
L 1178 4863 
L 1178 0 
L 603 0 
L 603 4863 
z
" transform="scale(0.015625)"/>
     </defs>
     <use xlink:href="#DejaVuSans-Oblique-67" transform="translate(0 0.4375)"/>
     <use xlink:href="#DejaVuSans-28" transform="translate(63.476562 0.4375)"/>
     <use xlink:href="#DejaVuSans-Oblique-78" transform="translate(102.490234 0.4375)"/>
     <use xlink:href="#DejaVuSans-29" transform="translate(161.669922 0.4375)"/>
     <use xlink:href="#DejaVuSans-3d" transform="translate(220.166016 0.4375)"/>
     <use xlink:href="#DejaVuSans-Oblique-65" transform="translate(323.4375 0.4375)"/>
     <use xlink:href="#DejaVuSans-Oblique-78" transform="translate(389.610833 38.71875) scale(0.7)"/>
     <use xlink:href="#DejaVuSans-2212" transform="translate(453.253411 0.4375)"/>
     <use xlink:href="#DejaVuSans-6c" transform="translate(556.524896 0.4375)"/>
     <use xlink:href="#DejaVuSans-6e" transform="translate(584.308099 0.4375)"/>
     <use xlink:href="#DejaVuSans-28" transform="translate(647.687005 0.4375)"/>
     <use xlink:href="#DejaVuSans-Oblique-78" transform="translate(686.700677 0.4375)"/>
     <use xlink:href="#DejaVuSans-29" transform="translate(745.880365 0.4375)"/>
    </g>
   </g>
   <g id="line2d_41">
    <defs>
     <path id="m5bd7198c24" d="M 0 5 
C 1.326016 5 2.597899 4.473168 3.535534 3.535534 
C 4.473168 2.597899 5 1.326016 5 0 
C 5 -1.326016 4.473168 -2.597899 3.535534 -3.535534 
C 2.597899 -4.473168 1.326016 -5 0 -5 
C -1.326016 -5 -2.597899 -4.473168 -3.535534 -3.535534 
C -4.473168 -2.597899 -5 -1.326016 -5 0 
C -5 1.326016 -4.473168 2.597899 -3.535534 3.535534 
C -2.597899 4.473168 -1.326016 5 0 5 
z
" style="stroke: #2e8b57"/>
    </defs>
    <g clip-path="url(#p376eedf878)">
     <use xlink:href="#m5bd7198c24" x="144.452634" y="193.965325" style="fill: #2e8b57; stroke: #2e8b57"/>
    </g>
   </g>
   <g id="legend_1">
    <g id="patch_8">
     <path d="M 351.76375 47.64 
L 473.31375 47.64 
Q 475.51375 47.64 475.51375 45.44 
L 475.51375 30.26 
Q 475.51375 28.06 473.31375 28.06 
L 351.76375 28.06 
Q 349.56375 28.06 349.56375 30.26 
L 349.56375 45.44 
Q 349.56375 47.64 351.76375 47.64 
z
" style="fill: #ffffff; opacity: 0.8; stroke: #cccccc; stroke-linejoin: miter"/>
    </g>
    <g id="line2d_42">
     <path d="M 353.96375 37.08 
L 364.96375 37.08 
L 375.96375 37.08 
" style="fill: none; stroke: #000000; stroke-width: 2.5; stroke-linecap: square"/>
    </g>
    <g id="text_21">
     <!-- $g(x) = e^x - \ln(x)$ -->
     <g transform="translate(384.76375 40.93) scale(0.11 -0.11)">
      <use xlink:href="#DejaVuSans-Oblique-67" transform="translate(0 0.4375)"/>
      <use xlink:href="#DejaVuSans-28" transform="translate(63.476562 0.4375)"/>
      <use xlink:href="#DejaVuSans-Oblique-78" transform="translate(102.490234 0.4375)"/>
      <use xlink:href="#DejaVuSans-29" transform="translate(161.669922 0.4375)"/>
      <use xlink:href="#DejaVuSans-3d" transform="translate(220.166016 0.4375)"/>
      <use xlink:href="#DejaVuSans-Oblique-65" transform="translate(323.4375 0.4375)"/>
      <use xlink:href="#DejaVuSans-Oblique-78" transform="translate(389.610833 38.71875) scale(0.7)"/>
      <use xlink:href="#DejaVuSans-2212" transform="translate(453.253411 0.4375)"/>
      <use xlink:href="#DejaVuSans-6c" transform="translate(556.524896 0.4375)"/>
      <use xlink:href="#DejaVuSans-6e" transform="translate(584.308099 0.4375)"/>
      <use xlink:href="#DejaVuSans-28" transform="translate(647.687005 0.4375)"/>
      <use xlink:href="#DejaVuSans-Oblique-78" transform="translate(686.700677 0.4375)"/>
      <use xlink:href="#DejaVuSans-29" transform="translate(745.880365 0.4375)"/>
     </g>
    </g>
   </g>
  </g>
  <g id="axes_2">
   <g id="patch_9">
    <path d="M 547.335625 311.485 
L 982.6325 311.485 
L 982.6325 22.56 
L 547.335625 22.56 
z
" style="fill: #ffffff"/>
   </g>
   <g id="matplotlib.axis_3">
    <g id="xtick_7">
     <g id="line2d_43">
      <path d="M 547.335625 311.485 
L 547.335625 22.56 
" clip-path="url(#p1d13ebc6ca)" style="fill: none; stroke-dasharray: 2.96,1.28; stroke-dashoffset: 0; stroke: #b0b0b0; stroke-opacity: 0.4; stroke-width: 0.8"/>
     </g>
     <g id="line2d_44">
      <g>
       <use xlink:href="#m2c530565e5" x="547.335625" y="311.485" style="stroke: #000000; stroke-width: 0.8"/>
      </g>
     </g>
     <g id="text_22">
      <!-- 0.00 -->
      <g transform="translate(536.202813 326.083437) scale(0.1 -0.1)">
       <use xlink:href="#DejaVuSans-30"/>
       <use xlink:href="#DejaVuSans-2e" transform="translate(63.623047 0)"/>
       <use xlink:href="#DejaVuSans-30" transform="translate(95.410156 0)"/>
       <use xlink:href="#DejaVuSans-30" transform="translate(159.033203 0)"/>
      </g>
     </g>
    </g>
    <g id="xtick_8">
     <g id="line2d_45">
      <path d="M 601.747734 311.485 
L 601.747734 22.56 
" clip-path="url(#p1d13ebc6ca)" style="fill: none; stroke-dasharray: 2.96,1.28; stroke-dashoffset: 0; stroke: #b0b0b0; stroke-opacity: 0.4; stroke-width: 0.8"/>
     </g>
     <g id="line2d_46">
      <g>
       <use xlink:href="#m2c530565e5" x="601.747734" y="311.485" style="stroke: #000000; stroke-width: 0.8"/>
      </g>
     </g>
     <g id="text_23">
      <!-- 0.25 -->
      <g transform="translate(590.614922 326.083437) scale(0.1 -0.1)">
       <use xlink:href="#DejaVuSans-30"/>
       <use xlink:href="#DejaVuSans-2e" transform="translate(63.623047 0)"/>
       <use xlink:href="#DejaVuSans-32" transform="translate(95.410156 0)"/>
       <use xlink:href="#DejaVuSans-35" transform="translate(159.033203 0)"/>
      </g>
     </g>
    </g>
    <g id="xtick_9">
     <g id="line2d_47">
      <path d="M 656.159844 311.485 
L 656.159844 22.56 
" clip-path="url(#p1d13ebc6ca)" style="fill: none; stroke-dasharray: 2.96,1.28; stroke-dashoffset: 0; stroke: #b0b0b0; stroke-opacity: 0.4; stroke-width: 0.8"/>
     </g>
     <g id="line2d_48">
      <g>
       <use xlink:href="#m2c530565e5" x="656.159844" y="311.485" style="stroke: #000000; stroke-width: 0.8"/>
      </g>
     </g>
     <g id="text_24">
      <!-- 0.50 -->
      <g transform="translate(645.027031 326.083437) scale(0.1 -0.1)">
       <use xlink:href="#DejaVuSans-30"/>
       <use xlink:href="#DejaVuSans-2e" transform="translate(63.623047 0)"/>
       <use xlink:href="#DejaVuSans-35" transform="translate(95.410156 0)"/>
       <use xlink:href="#DejaVuSans-30" transform="translate(159.033203 0)"/>
      </g>
     </g>
    </g>
    <g id="xtick_10">
     <g id="line2d_49">
      <path d="M 710.571953 311.485 
L 710.571953 22.56 
" clip-path="url(#p1d13ebc6ca)" style="fill: none; stroke-dasharray: 2.96,1.28; stroke-dashoffset: 0; stroke: #b0b0b0; stroke-opacity: 0.4; stroke-width: 0.8"/>
     </g>
     <g id="line2d_50">
      <g>
       <use xlink:href="#m2c530565e5" x="710.571953" y="311.485" style="stroke: #000000; stroke-width: 0.8"/>
      </g>
     </g>
     <g id="text_25">
      <!-- 0.75 -->
      <g transform="translate(699.439141 326.083437) scale(0.1 -0.1)">
       <use xlink:href="#DejaVuSans-30"/>
       <use xlink:href="#DejaVuSans-2e" transform="translate(63.623047 0)"/>
       <use xlink:href="#DejaVuSans-37" transform="translate(95.410156 0)"/>
       <use xlink:href="#DejaVuSans-35" transform="translate(159.033203 0)"/>
      </g>
     </g>
    </g>
    <g id="xtick_11">
     <g id="line2d_51">
      <path d="M 764.984063 311.485 
L 764.984063 22.56 
" clip-path="url(#p1d13ebc6ca)" style="fill: none; stroke-dasharray: 2.96,1.28; stroke-dashoffset: 0; stroke: #b0b0b0; stroke-opacity: 0.4; stroke-width: 0.8"/>
     </g>
     <g id="line2d_52">
      <g>
       <use xlink:href="#m2c530565e5" x="764.984063" y="311.485" style="stroke: #000000; stroke-width: 0.8"/>
      </g>
     </g>
     <g id="text_26">
      <!-- 1.00 -->
      <g transform="translate(753.85125 326.083437) scale(0.1 -0.1)">
       <use xlink:href="#DejaVuSans-31"/>
       <use xlink:href="#DejaVuSans-2e" transform="translate(63.623047 0)"/>
       <use xlink:href="#DejaVuSans-30" transform="translate(95.410156 0)"/>
       <use xlink:href="#DejaVuSans-30" transform="translate(159.033203 0)"/>
      </g>
     </g>
    </g>
    <g id="xtick_12">
     <g id="line2d_53">
      <path d="M 819.396172 311.485 
L 819.396172 22.56 
" clip-path="url(#p1d13ebc6ca)" style="fill: none; stroke-dasharray: 2.96,1.28; stroke-dashoffset: 0; stroke: #b0b0b0; stroke-opacity: 0.4; stroke-width: 0.8"/>
     </g>
     <g id="line2d_54">
      <g>
       <use xlink:href="#m2c530565e5" x="819.396172" y="311.485" style="stroke: #000000; stroke-width: 0.8"/>
      </g>
     </g>
     <g id="text_27">
      <!-- 1.25 -->
      <g transform="translate(808.263359 326.083437) scale(0.1 -0.1)">
       <use xlink:href="#DejaVuSans-31"/>
       <use xlink:href="#DejaVuSans-2e" transform="translate(63.623047 0)"/>
       <use xlink:href="#DejaVuSans-32" transform="translate(95.410156 0)"/>
       <use xlink:href="#DejaVuSans-35" transform="translate(159.033203 0)"/>
      </g>
     </g>
    </g>
    <g id="xtick_13">
     <g id="line2d_55">
      <path d="M 873.808281 311.485 
L 873.808281 22.56 
" clip-path="url(#p1d13ebc6ca)" style="fill: none; stroke-dasharray: 2.96,1.28; stroke-dashoffset: 0; stroke: #b0b0b0; stroke-opacity: 0.4; stroke-width: 0.8"/>
     </g>
     <g id="line2d_56">
      <g>
       <use xlink:href="#m2c530565e5" x="873.808281" y="311.485" style="stroke: #000000; stroke-width: 0.8"/>
      </g>
     </g>
     <g id="text_28">
      <!-- 1.50 -->
      <g transform="translate(862.675469 326.083437) scale(0.1 -0.1)">
       <use xlink:href="#DejaVuSans-31"/>
       <use xlink:href="#DejaVuSans-2e" transform="translate(63.623047 0)"/>
       <use xlink:href="#DejaVuSans-35" transform="translate(95.410156 0)"/>
       <use xlink:href="#DejaVuSans-30" transform="translate(159.033203 0)"/>
      </g>
     </g>
    </g>
    <g id="xtick_14">
     <g id="line2d_57">
      <path d="M 928.220391 311.485 
L 928.220391 22.56 
" clip-path="url(#p1d13ebc6ca)" style="fill: none; stroke-dasharray: 2.96,1.28; stroke-dashoffset: 0; stroke: #b0b0b0; stroke-opacity: 0.4; stroke-width: 0.8"/>
     </g>
     <g id="line2d_58">
      <g>
       <use xlink:href="#m2c530565e5" x="928.220391" y="311.485" style="stroke: #000000; stroke-width: 0.8"/>
      </g>
     </g>
     <g id="text_29">
      <!-- 1.75 -->
      <g transform="translate(917.087578 326.083437) scale(0.1 -0.1)">
       <use xlink:href="#DejaVuSans-31"/>
       <use xlink:href="#DejaVuSans-2e" transform="translate(63.623047 0)"/>
       <use xlink:href="#DejaVuSans-37" transform="translate(95.410156 0)"/>
       <use xlink:href="#DejaVuSans-35" transform="translate(159.033203 0)"/>
      </g>
     </g>
    </g>
    <g id="xtick_15">
     <g id="line2d_59">
      <path d="M 982.6325 311.485 
L 982.6325 22.56 
" clip-path="url(#p1d13ebc6ca)" style="fill: none; stroke-dasharray: 2.96,1.28; stroke-dashoffset: 0; stroke: #b0b0b0; stroke-opacity: 0.4; stroke-width: 0.8"/>
     </g>
     <g id="line2d_60">
      <g>
       <use xlink:href="#m2c530565e5" x="982.6325" y="311.485" style="stroke: #000000; stroke-width: 0.8"/>
      </g>
     </g>
     <g id="text_30">
      <!-- 2.00 -->
      <g transform="translate(971.499688 326.083437) scale(0.1 -0.1)">
       <use xlink:href="#DejaVuSans-32"/>
       <use xlink:href="#DejaVuSans-2e" transform="translate(63.623047 0)"/>
       <use xlink:href="#DejaVuSans-30" transform="translate(95.410156 0)"/>
       <use xlink:href="#DejaVuSans-30" transform="translate(159.033203 0)"/>
      </g>
     </g>
    </g>
    <g id="text_31">
     <!-- x -->
     <g transform="translate(761.432813 341.28125) scale(0.12 -0.12)">
      <use xlink:href="#DejaVuSans-78"/>
     </g>
    </g>
   </g>
   <g id="matplotlib.axis_4">
    <g id="ytick_11">
     <g id="line2d_61">
      <path d="M 547.335625 311.485 
L 982.6325 311.485 
" clip-path="url(#p1d13ebc6ca)" style="fill: none; stroke-dasharray: 2.96,1.28; stroke-dashoffset: 0; stroke: #b0b0b0; stroke-opacity: 0.4; stroke-width: 0.8"/>
     </g>
     <g id="line2d_62">
      <g>
       <use xlink:href="#me1eeda592f" x="547.335625" y="311.485" style="stroke: #000000; stroke-width: 0.8"/>
      </g>
     </g>
     <g id="text_32">
      <!-- −20 -->
      <g transform="translate(519.230938 315.284219) scale(0.1 -0.1)">
       <use xlink:href="#DejaVuSans-2212"/>
       <use xlink:href="#DejaVuSans-32" transform="translate(83.789062 0)"/>
       <use xlink:href="#DejaVuSans-30" transform="translate(147.412109 0)"/>
      </g>
     </g>
    </g>
    <g id="ytick_12">
     <g id="line2d_63">
      <path d="M 547.335625 257.98037 
L 982.6325 257.98037 
" clip-path="url(#p1d13ebc6ca)" style="fill: none; stroke-dasharray: 2.96,1.28; stroke-dashoffset: 0; stroke: #b0b0b0; stroke-opacity: 0.4; stroke-width: 0.8"/>
     </g>
     <g id="line2d_64">
      <g>
       <use xlink:href="#me1eeda592f" x="547.335625" y="257.98037" style="stroke: #000000; stroke-width: 0.8"/>
      </g>
     </g>
     <g id="text_33">
      <!-- −15 -->
      <g transform="translate(519.230938 261.779589) scale(0.1 -0.1)">
       <use xlink:href="#DejaVuSans-2212"/>
       <use xlink:href="#DejaVuSans-31" transform="translate(83.789062 0)"/>
       <use xlink:href="#DejaVuSans-35" transform="translate(147.412109 0)"/>
      </g>
     </g>
    </g>
    <g id="ytick_13">
     <g id="line2d_65">
      <path d="M 547.335625 204.475741 
L 982.6325 204.475741 
" clip-path="url(#p1d13ebc6ca)" style="fill: none; stroke-dasharray: 2.96,1.28; stroke-dashoffset: 0; stroke: #b0b0b0; stroke-opacity: 0.4; stroke-width: 0.8"/>
     </g>
     <g id="line2d_66">
      <g>
       <use xlink:href="#me1eeda592f" x="547.335625" y="204.475741" style="stroke: #000000; stroke-width: 0.8"/>
      </g>
     </g>
     <g id="text_34">
      <!-- −10 -->
      <g transform="translate(519.230938 208.274959) scale(0.1 -0.1)">
       <use xlink:href="#DejaVuSans-2212"/>
       <use xlink:href="#DejaVuSans-31" transform="translate(83.789062 0)"/>
       <use xlink:href="#DejaVuSans-30" transform="translate(147.412109 0)"/>
      </g>
     </g>
    </g>
    <g id="ytick_14">
     <g id="line2d_67">
      <path d="M 547.335625 150.971111 
L 982.6325 150.971111 
" clip-path="url(#p1d13ebc6ca)" style="fill: none; stroke-dasharray: 2.96,1.28; stroke-dashoffset: 0; stroke: #b0b0b0; stroke-opacity: 0.4; stroke-width: 0.8"/>
     </g>
     <g id="line2d_68">
      <g>
       <use xlink:href="#me1eeda592f" x="547.335625" y="150.971111" style="stroke: #000000; stroke-width: 0.8"/>
      </g>
     </g>
     <g id="text_35">
      <!-- −5 -->
      <g transform="translate(525.593438 154.77033) scale(0.1 -0.1)">
       <use xlink:href="#DejaVuSans-2212"/>
       <use xlink:href="#DejaVuSans-35" transform="translate(83.789062 0)"/>
      </g>
     </g>
    </g>
    <g id="ytick_15">
     <g id="line2d_69">
      <path d="M 547.335625 97.466481 
L 982.6325 97.466481 
" clip-path="url(#p1d13ebc6ca)" style="fill: none; stroke-dasharray: 2.96,1.28; stroke-dashoffset: 0; stroke: #b0b0b0; stroke-opacity: 0.4; stroke-width: 0.8"/>
     </g>
     <g id="line2d_70">
      <g>
       <use xlink:href="#me1eeda592f" x="547.335625" y="97.466481" style="stroke: #000000; stroke-width: 0.8"/>
      </g>
     </g>
     <g id="text_36">
      <!-- 0 -->
      <g transform="translate(533.973125 101.2657) scale(0.1 -0.1)">
       <use xlink:href="#DejaVuSans-30"/>
      </g>
     </g>
    </g>
    <g id="ytick_16">
     <g id="line2d_71">
      <path d="M 547.335625 43.961852 
L 982.6325 43.961852 
" clip-path="url(#p1d13ebc6ca)" style="fill: none; stroke-dasharray: 2.96,1.28; stroke-dashoffset: 0; stroke: #b0b0b0; stroke-opacity: 0.4; stroke-width: 0.8"/>
     </g>
     <g id="line2d_72">
      <g>
       <use xlink:href="#me1eeda592f" x="547.335625" y="43.961852" style="stroke: #000000; stroke-width: 0.8"/>
      </g>
     </g>
     <g id="text_37">
      <!-- 5 -->
      <g transform="translate(533.973125 47.761071) scale(0.1 -0.1)">
       <use xlink:href="#DejaVuSans-35"/>
      </g>
     </g>
    </g>
    <g id="text_38">
     <!-- $g'(x)$ -->
     <g transform="translate(512.710938 180.7025) rotate(-90) scale(0.12 -0.12)">
      <defs>
       <path id="Cmsy10-30" d="M 225 347 
Q 184 359 184 409 
L 966 3316 
Q 1003 3434 1093 3506 
Q 1184 3578 1300 3578 
Q 1450 3578 1564 3479 
Q 1678 3381 1678 3231 
Q 1678 3166 1644 3084 
L 488 319 
Q 466 275 428 275 
Q 394 275 320 306 
Q 247 338 225 347 
z
" transform="scale(0.015625)"/>
      </defs>
      <use xlink:href="#DejaVuSans-Oblique-67" transform="translate(0 0.584375)"/>
      <use xlink:href="#Cmsy10-30" transform="translate(68.126458 38.865625) scale(0.7)"/>
      <use xlink:href="#DejaVuSans-28" transform="translate(90.103997 0.584375)"/>
      <use xlink:href="#DejaVuSans-Oblique-78" transform="translate(129.117669 0.584375)"/>
      <use xlink:href="#DejaVuSans-29" transform="translate(188.297357 0.584375)"/>
     </g>
    </g>
   </g>
   <g id="line2d_73">
    <path d="M 556.160592 351.976875 
L 556.733088 334.130491 
L 558.167092 301.244867 
L 559.601097 276.031061 
L 561.035102 256.079753 
L 562.469107 239.894824 
L 563.903111 226.49814 
L 565.337116 215.223243 
L 566.771121 205.600363 
L 568.205126 197.288849 
L 569.63913 190.035656 
L 571.073135 183.648886 
L 572.50714 177.980368 
L 573.941145 172.913877 
L 575.375149 168.356963 
L 576.809154 164.235166 
L 578.243159 160.487845 
L 581.111168 153.925559 
L 583.979178 148.362725 
L 586.847188 143.581201 
L 589.715197 139.421887 
L 592.583207 135.766015 
L 595.451216 132.523124 
L 598.319226 129.623105 
L 601.187235 127.010774 
L 604.055245 124.642103 
L 606.923254 122.481534 
L 611.225268 119.568786 
L 615.527283 116.982504 
L 619.829297 114.663456 
L 624.131311 112.565657 
L 629.86733 110.051178 
L 635.603349 107.799787 
L 641.339368 105.761046 
L 648.509392 103.453214 
L 657.113421 100.962116 
L 665.717449 98.705588 
L 675.755482 96.297624 
L 687.22752 93.765502 
L 701.567568 90.831608 
L 720.20963 87.259415 
L 751.757734 81.486662 
L 789.041858 74.614485 
L 811.985934 70.167264 
L 832.062001 66.058475 
L 850.704063 62.015574 
L 867.91212 58.055182 
L 883.686172 54.205988 
L 899.460224 50.123603 
L 913.800272 46.190018 
L 928.140319 42.025656 
L 942.480367 37.611348 
L 955.38641 33.408234 
L 968.292452 28.971167 
L 981.198495 24.284136 
L 982.6325 23.747202 
L 982.6325 23.747202 
" clip-path="url(#p1d13ebc6ca)" style="fill: none; stroke: #000000; stroke-width: 2.5; stroke-linecap: square"/>
   </g>
   <g id="line2d_74">
    <path d="M 547.335625 97.466481 
L 982.6325 97.466481 
" clip-path="url(#p1d13ebc6ca)" style="fill: none; stroke: #4169e1; stroke-opacity: 0.7; stroke-width: 1.5; stroke-linecap: square"/>
   </g>
   <g id="line2d_75">
    <path d="M 555.593992 351.976875 
L 555.802763 347.8603 
L 556.1903 340.218795 
L 556.577837 332.57729 
L 556.965374 324.935785 
L 557.352911 317.29428 
L 557.740448 309.652775 
L 558.127985 302.01127 
L 558.515522 294.369765 
L 558.903059 286.728261 
L 559.290596 279.086756 
L 559.678133 271.445251 
L 560.06567 263.803746 
L 560.453207 256.162241 
L 560.840745 248.520736 
L 561.228282 240.879231 
L 561.615819 233.237726 
L 562.003356 225.596221 
L 562.390893 217.954716 
L 562.77843 210.313211 
L 563.165967 202.671706 
L 563.553504 195.030201 
L 563.941041 187.388696 
L 564.328578 179.747191 
L 564.716115 172.105686 
L 565.103652 164.464181 
L 565.491189 156.822676 
L 565.878726 149.181172 
L 566.266263 141.539667 
L 566.6538 133.898162 
L 567.041337 126.256657 
L 567.428874 118.615152 
L 567.816411 110.973647 
L 568.203948 103.332142 
L 568.591485 95.690637 
L 568.979022 88.049132 
L 569.366559 80.407627 
L 569.754096 72.766122 
L 570.141633 65.124617 
L 570.52917 57.483112 
L 570.916707 49.841607 
L 571.304244 42.200102 
L 571.691781 34.558597 
L 572.079318 26.917092 
L 572.466855 19.275588 
L 572.854392 11.634083 
" clip-path="url(#p1d13ebc6ca)" style="fill: none; stroke: #cc0000; stroke-width: 1.8; stroke-linecap: square"/>
   </g>
   <g id="line2d_76">
    <path d="M 558.218047 97.466481 
L 558.218047 300.235426 
" clip-path="url(#p1d13ebc6ca)" style="fill: none; stroke-dasharray: 5.55,2.4; stroke-dashoffset: 0; stroke: #cc0000; stroke-width: 1.5"/>
   </g>
   <g id="line2d_77">
    <path d="M 564.148455 218.57685 
L 564.707807 215.63855 
L 565.267159 212.70025 
L 565.826511 209.76195 
L 566.385863 206.823651 
L 566.945215 203.885351 
L 567.504567 200.947051 
L 568.06392 198.008751 
L 568.623272 195.070451 
L 569.182624 192.132151 
L 569.741976 189.193851 
L 570.301328 186.255552 
L 570.86068 183.317252 
L 571.420032 180.378952 
L 571.979385 177.440652 
L 572.538737 174.502352 
L 573.098089 171.564052 
L 573.657441 168.625752 
L 574.216793 165.687453 
L 574.776145 162.749153 
L 575.335497 159.810853 
L 575.894849 156.872553 
L 576.454202 153.934253 
L 577.013554 150.995953 
L 577.572906 148.057653 
L 578.132258 145.119353 
L 578.69161 142.181054 
L 579.250962 139.242754 
L 579.810314 136.304454 
L 580.369666 133.366154 
L 580.929019 130.427854 
L 581.488371 127.489554 
L 582.047723 124.551254 
L 582.607075 121.612955 
L 583.166427 118.674655 
L 583.725779 115.736355 
L 584.285131 112.798055 
L 584.844483 109.859755 
L 585.403836 106.921455 
L 585.963188 103.983155 
L 586.52254 101.044855 
L 587.081892 98.106556 
L 587.641244 95.168256 
L 588.200596 92.229956 
L 588.759948 89.291656 
L 589.319301 86.353356 
L 589.878653 83.415056 
L 590.438005 80.476756 
L 590.997357 77.538457 
L 591.556709 74.600157 
" clip-path="url(#p1d13ebc6ca)" style="fill: none; stroke: #008b8b; stroke-width: 1.8; stroke-linecap: square"/>
   </g>
   <g id="line2d_78">
    <path d="M 568.501423 97.466481 
L 568.501423 195.710525 
" clip-path="url(#p1d13ebc6ca)" style="fill: none; stroke-dasharray: 5.55,2.4; stroke-dashoffset: 0; stroke: #008b8b; stroke-width: 1.5"/>
   </g>
   <g id="line2d_79">
    <path d="M 582.850772 149.668425 
L 583.638495 148.467662 
L 584.426218 147.266899 
L 585.213941 146.066137 
L 586.001664 144.865374 
L 586.789387 143.664611 
L 587.57711 142.463848 
L 588.364833 141.263086 
L 589.152556 140.062323 
L 589.940279 138.86156 
L 590.728003 137.660797 
L 591.515726 136.460035 
L 592.303449 135.259272 
L 593.091172 134.058509 
L 593.878895 132.857746 
L 594.666618 131.656984 
L 595.454341 130.456221 
L 596.242064 129.255458 
L 597.029787 128.054695 
L 597.81751 126.853933 
L 598.605234 125.65317 
L 599.392957 124.452407 
L 600.18068 123.251644 
L 600.968403 122.050882 
L 601.756126 120.850119 
L 602.543849 119.649356 
L 603.331572 118.448593 
L 604.119295 117.24783 
L 604.907018 116.047068 
L 605.694741 114.846305 
L 606.482465 113.645542 
L 607.270188 112.444779 
L 608.057911 111.244017 
L 608.845634 110.043254 
L 609.633357 108.842491 
L 610.42108 107.641728 
L 611.208803 106.440966 
L 611.996526 105.240203 
L 612.784249 104.03944 
L 613.571972 102.838677 
L 614.359695 101.637915 
L 615.147419 100.437152 
L 615.935142 99.236389 
L 616.722865 98.035626 
L 617.510588 96.834864 
L 618.298311 95.634101 
L 619.086034 94.433338 
L 619.873757 93.232575 
L 620.66148 92.031813 
L 621.449203 90.83105 
" clip-path="url(#p1d13ebc6ca)" style="fill: none; stroke: #ff8c00; stroke-width: 1.8; stroke-linecap: square"/>
   </g>
   <g id="line2d_80">
    <path d="M 587.20374 97.466481 
L 587.20374 143.032993 
" clip-path="url(#p1d13ebc6ca)" style="fill: none; stroke-dasharray: 5.55,2.4; stroke-dashoffset: 0; stroke: #ff8c00; stroke-width: 1.5"/>
   </g>
   <g id="line2d_81">
    <path d="M 612.743266 118.486589 
L 613.617315 118.009074 
L 614.491364 117.531559 
L 615.365414 117.054043 
L 616.239463 116.576528 
L 617.113512 116.099013 
L 617.987562 115.621498 
L 618.861611 115.143983 
L 619.73566 114.666467 
L 620.60971 114.188952 
L 621.483759 113.711437 
L 622.357808 113.233922 
L 623.231858 112.756407 
L 624.105907 112.278891 
L 624.979956 111.801376 
L 625.854006 111.323861 
L 626.728055 110.846346 
L 627.602104 110.368831 
L 628.476153 109.891316 
L 629.350203 109.4138 
L 630.224252 108.936285 
L 631.098301 108.45877 
L 631.972351 107.981255 
L 632.8464 107.50374 
L 633.720449 107.026224 
L 634.594499 106.548709 
L 635.468548 106.071194 
L 636.342597 105.593679 
L 637.216647 105.116164 
L 638.090696 104.638649 
L 638.964745 104.161133 
L 639.838794 103.683618 
L 640.712844 103.206103 
L 641.586893 102.728588 
L 642.460942 102.251073 
L 643.334992 101.773557 
L 644.209041 101.296042 
L 645.08309 100.818527 
L 645.95714 100.341012 
L 646.831189 99.863497 
L 647.705238 99.385982 
L 648.579288 98.908466 
L 649.453337 98.430951 
L 650.327386 97.953436 
L 651.201435 97.475921 
L 652.075485 96.998406 
L 652.949534 96.52089 
L 653.823583 96.043375 
L 654.697633 95.56586 
L 655.571682 95.088345 
" clip-path="url(#p1d13ebc6ca)" style="fill: none; stroke: #9acd32; stroke-width: 1.8; stroke-linecap: square"/>
   </g>
   <g id="line2d_82">
    <path d="M 617.096235 97.466481 
L 617.096235 116.108452 
" clip-path="url(#p1d13ebc6ca)" style="fill: none; stroke-dasharray: 5.55,2.4; stroke-dashoffset: 0; stroke: #9acd32; stroke-width: 1.5"/>
   </g>
   <g id="line2d_83">
    <path d="M 646.865745 103.92386 
L 647.401213 103.765865 
L 647.936682 103.60787 
L 648.472151 103.449875 
L 649.00762 103.29188 
L 649.543089 103.133884 
L 650.078558 102.975889 
L 650.614027 102.817894 
L 651.149496 102.659899 
L 651.684965 102.501904 
L 652.220434 102.343909 
L 652.755903 102.185913 
L 653.291372 102.027918 
L 653.826841 101.869923 
L 654.36231 101.711928 
L 654.897779 101.553933 
L 655.433248 101.395938 
L 655.968717 101.237942 
L 656.504186 101.079947 
L 657.039655 100.921952 
L 657.575124 100.763957 
L 658.110593 100.605962 
L 658.646062 100.447967 
L 659.181531 100.289971 
L 659.717 100.131976 
L 660.252469 99.973981 
L 660.787938 99.815986 
L 661.323407 99.657991 
L 661.858876 99.499996 
L 662.394345 99.342 
L 662.929814 99.184005 
L 663.465283 99.02601 
L 664.000751 98.868015 
L 664.53622 98.71002 
L 665.071689 98.552025 
L 665.607158 98.394029 
L 666.142627 98.236034 
L 666.678096 98.078039 
L 667.213565 97.920044 
L 667.749034 97.762049 
L 668.284503 97.604054 
L 668.819972 97.446058 
L 669.355441 97.288063 
L 669.89091 97.130068 
L 670.426379 96.972073 
L 670.961848 96.814078 
L 671.497317 96.656083 
L 672.032786 96.498087 
L 672.568255 96.340092 
L 673.103724 96.182097 
" clip-path="url(#p1d13ebc6ca)" style="fill: none; stroke: #4169e1; stroke-width: 1.8; stroke-linecap: square"/>
   </g>
   <g id="line2d_84">
    <path d="M 651.218713 97.466481 
L 651.218713 102.639476 
" clip-path="url(#p1d13ebc6ca)" style="fill: none; stroke-dasharray: 5.55,2.4; stroke-dashoffset: 0; stroke: #4169e1; stroke-width: 1.5"/>
   </g>
   <g id="line2d_85">
    <path d="M 664.397786 99.016954 
L 664.616368 98.963647 
L 664.83495 98.910339 
L 665.053532 98.857032 
L 665.272113 98.803724 
L 665.490695 98.750416 
L 665.709277 98.697109 
L 665.927859 98.643801 
L 666.146441 98.590494 
L 666.365022 98.537186 
L 666.583604 98.483878 
L 666.802186 98.430571 
L 667.020768 98.377263 
L 667.239349 98.323956 
L 667.457931 98.270648 
L 667.676513 98.21734 
L 667.895095 98.164033 
L 668.113676 98.110725 
L 668.332258 98.057418 
L 668.55084 98.00411 
L 668.769422 97.950802 
L 668.988003 97.897495 
L 669.206585 97.844187 
L 669.425167 97.79088 
L 669.643749 97.737572 
L 669.862331 97.684264 
L 670.080912 97.630957 
L 670.299494 97.577649 
L 670.518076 97.524341 
L 670.736658 97.471034 
L 670.955239 97.417726 
L 671.173821 97.364419 
L 671.392403 97.311111 
L 671.610985 97.257803 
L 671.829566 97.204496 
L 672.048148 97.151188 
L 672.26673 97.097881 
L 672.485312 97.044573 
L 672.703893 96.991265 
L 672.922475 96.937958 
L 673.141057 96.88465 
L 673.359639 96.831343 
L 673.57822 96.778035 
L 673.796802 96.724727 
L 674.015384 96.67142 
L 674.233966 96.618112 
L 674.452548 96.564805 
L 674.671129 96.511497 
L 674.889711 96.458189 
L 675.108293 96.404882 
" clip-path="url(#p1d13ebc6ca)" style="fill: none; stroke: #cc0066; stroke-width: 1.8; stroke-linecap: square"/>
   </g>
   <g id="line2d_86">
    <path d="M 668.750755 97.466481 
L 668.750755 97.955355 
" clip-path="url(#p1d13ebc6ca)" style="fill: none; stroke-dasharray: 5.55,2.4; stroke-dashoffset: 0; stroke: #cc0066; stroke-width: 1.5"/>
   </g>
   <g id="line2d_87">
    <path d="M 670.755324 97.466481 
L 670.755324 97.47083 
" clip-path="url(#p1d13ebc6ca)" style="fill: none; stroke-dasharray: 5.55,2.4; stroke-dashoffset: 0; stroke: #2e8b57; stroke-width: 1.5"/>
   </g>
   <g id="patch_10">
    <path d="M 547.335625 311.485 
L 547.335625 22.56 
" style="fill: none; stroke: #000000; stroke-width: 0.8; stroke-linejoin: miter; stroke-linecap: square"/>
   </g>
   <g id="patch_11">
    <path d="M 982.6325 311.485 
L 982.6325 22.56 
" style="fill: none; stroke: #000000; stroke-width: 0.8; stroke-linejoin: miter; stroke-linecap: square"/>
   </g>
   <g id="patch_12">
    <path d="M 547.335625 311.485 
L 982.6325 311.485 
" style="fill: none; stroke: #000000; stroke-width: 0.8; stroke-linejoin: miter; stroke-linecap: square"/>
   </g>
   <g id="patch_13">
    <path d="M 547.335625 22.56 
L 982.6325 22.56 
" style="fill: none; stroke: #000000; stroke-width: 0.8; stroke-linejoin: miter; stroke-linecap: square"/>
   </g>
   <g id="text_39">
    <!-- $x_0$ -->
    <g style="fill: #cc0000" transform="translate(552.868047 316.835463) scale(0.1 -0.1)">
     <use xlink:href="#DejaVuSans-Oblique-78" transform="translate(0 0.3125)"/>
     <use xlink:href="#DejaVuSans-30" transform="translate(59.179688 -16.09375) scale(0.7)"/>
    </g>
   </g>
   <g id="text_40">
    <!-- $x_1$ -->
    <g style="fill: #008b8b" transform="translate(563.151423 313.625185) scale(0.1 -0.1)">
     <use xlink:href="#DejaVuSans-Oblique-78" transform="translate(0 0.3125)"/>
     <use xlink:href="#DejaVuSans-31" transform="translate(59.179688 -16.09375) scale(0.7)"/>
    </g>
   </g>
   <g id="text_41">
    <!-- $x_2$ -->
    <g style="fill: #ff8c00" transform="translate(581.85374 310.414907) scale(0.1 -0.1)">
     <use xlink:href="#DejaVuSans-Oblique-78" transform="translate(0 0.3125)"/>
     <use xlink:href="#DejaVuSans-32" transform="translate(59.179688 -16.09375) scale(0.7)"/>
    </g>
   </g>
   <g id="text_42">
    <!-- $x_3$ -->
    <g style="fill: #9acd32" transform="translate(611.746235 307.20463) scale(0.1 -0.1)">
     <use xlink:href="#DejaVuSans-Oblique-78" transform="translate(0 0.3125)"/>
     <use xlink:href="#DejaVuSans-33" transform="translate(59.179688 -16.09375) scale(0.7)"/>
    </g>
   </g>
   <g id="text_43">
    <!-- $x_4$ -->
    <g style="fill: #4169e1" transform="translate(645.868713 303.994352) scale(0.1 -0.1)">
     <use xlink:href="#DejaVuSans-Oblique-78" transform="translate(0 0.3125)"/>
     <use xlink:href="#DejaVuSans-34" transform="translate(59.179688 -16.09375) scale(0.7)"/>
    </g>
   </g>
   <g id="text_44">
    <!-- $x_5$ -->
    <g style="fill: #cc0066" transform="translate(663.400755 300.784074) scale(0.1 -0.1)">
     <use xlink:href="#DejaVuSans-Oblique-78" transform="translate(0 0.3125)"/>
     <use xlink:href="#DejaVuSans-35" transform="translate(59.179688 -16.09375) scale(0.7)"/>
    </g>
   </g>
   <g id="text_45">
    <!-- $x_6$ -->
    <g style="fill: #2e8b57" transform="translate(665.405324 297.573796) scale(0.1 -0.1)">
     <use xlink:href="#DejaVuSans-Oblique-78" transform="translate(0 0.3125)"/>
     <use xlink:href="#DejaVuSans-36" transform="translate(59.179688 -16.09375) scale(0.7)"/>
    </g>
   </g>
   <g id="text_46">
    <!-- Finding the zero of $g'(x)$ -->
    <g style="fill: #808080" transform="translate(693.044063 16.56) scale(0.12 -0.12)">
     <defs>
      <path id="DejaVuSans-46" d="M 628 4666 
L 3309 4666 
L 3309 4134 
L 1259 4134 
L 1259 2759 
L 3109 2759 
L 3109 2228 
L 1259 2228 
L 1259 0 
L 628 0 
L 628 4666 
z
" transform="scale(0.015625)"/>
      <path id="DejaVuSans-64" d="M 2906 2969 
L 2906 4863 
L 3481 4863 
L 3481 0 
L 2906 0 
L 2906 525 
Q 2725 213 2448 61 
Q 2172 -91 1784 -91 
Q 1150 -91 751 415 
Q 353 922 353 1747 
Q 353 2572 751 3078 
Q 1150 3584 1784 3584 
Q 2172 3584 2448 3432 
Q 2725 3281 2906 2969 
z
M 947 1747 
Q 947 1113 1208 752 
Q 1469 391 1925 391 
Q 2381 391 2643 752 
Q 2906 1113 2906 1747 
Q 2906 2381 2643 2742 
Q 2381 3103 1925 3103 
Q 1469 3103 1208 2742 
Q 947 2381 947 1747 
z
" transform="scale(0.015625)"/>
      <path id="DejaVuSans-68" d="M 3513 2113 
L 3513 0 
L 2938 0 
L 2938 2094 
Q 2938 2591 2744 2837 
Q 2550 3084 2163 3084 
Q 1697 3084 1428 2787 
Q 1159 2491 1159 1978 
L 1159 0 
L 581 0 
L 581 4863 
L 1159 4863 
L 1159 2956 
Q 1366 3272 1645 3428 
Q 1925 3584 2291 3584 
Q 2894 3584 3203 3211 
Q 3513 2838 3513 2113 
z
" transform="scale(0.015625)"/>
      <path id="DejaVuSans-65" d="M 3597 1894 
L 3597 1613 
L 953 1613 
Q 991 1019 1311 708 
Q 1631 397 2203 397 
Q 2534 397 2845 478 
Q 3156 559 3463 722 
L 3463 178 
Q 3153 47 2828 -22 
Q 2503 -91 2169 -91 
Q 1331 -91 842 396 
Q 353 884 353 1716 
Q 353 2575 817 3079 
Q 1281 3584 2069 3584 
Q 2775 3584 3186 3129 
Q 3597 2675 3597 1894 
z
M 3022 2063 
Q 3016 2534 2758 2815 
Q 2500 3097 2075 3097 
Q 1594 3097 1305 2825 
Q 1016 2553 972 2059 
L 3022 2063 
z
" transform="scale(0.015625)"/>
      <path id="DejaVuSans-7a" d="M 353 3500 
L 3084 3500 
L 3084 2975 
L 922 459 
L 3084 459 
L 3084 0 
L 275 0 
L 275 525 
L 2438 3041 
L 353 3041 
L 353 3500 
z
" transform="scale(0.015625)"/>
      <path id="DejaVuSans-72" d="M 2631 2963 
Q 2534 3019 2420 3045 
Q 2306 3072 2169 3072 
Q 1681 3072 1420 2755 
Q 1159 2438 1159 1844 
L 1159 0 
L 581 0 
L 581 3500 
L 1159 3500 
L 1159 2956 
Q 1341 3275 1631 3429 
Q 1922 3584 2338 3584 
Q 2397 3584 2469 3576 
Q 2541 3569 2628 3553 
L 2631 2963 
z
" transform="scale(0.015625)"/>
      <path id="DejaVuSans-6f" d="M 1959 3097 
Q 1497 3097 1228 2736 
Q 959 2375 959 1747 
Q 959 1119 1226 758 
Q 1494 397 1959 397 
Q 2419 397 2687 759 
Q 2956 1122 2956 1747 
Q 2956 2369 2687 2733 
Q 2419 3097 1959 3097 
z
M 1959 3584 
Q 2709 3584 3137 3096 
Q 3566 2609 3566 1747 
Q 3566 888 3137 398 
Q 2709 -91 1959 -91 
Q 1206 -91 779 398 
Q 353 888 353 1747 
Q 353 2609 779 3096 
Q 1206 3584 1959 3584 
z
" transform="scale(0.015625)"/>
      <path id="DejaVuSans-66" d="M 2375 4863 
L 2375 4384 
L 1825 4384 
Q 1516 4384 1395 4259 
Q 1275 4134 1275 3809 
L 1275 3500 
L 2222 3500 
L 2222 3053 
L 1275 3053 
L 1275 0 
L 697 0 
L 697 3053 
L 147 3053 
L 147 3500 
L 697 3500 
L 697 3744 
Q 697 4328 969 4595 
Q 1241 4863 1831 4863 
L 2375 4863 
z
" transform="scale(0.015625)"/>
     </defs>
     <use xlink:href="#DejaVuSans-46" transform="translate(0 0.584375)"/>
     <use xlink:href="#DejaVuSans-69" transform="translate(57.519531 0.584375)"/>
     <use xlink:href="#DejaVuSans-6e" transform="translate(85.302734 0.584375)"/>
     <use xlink:href="#DejaVuSans-64" transform="translate(148.681641 0.584375)"/>
     <use xlink:href="#DejaVuSans-69" transform="translate(212.158203 0.584375)"/>
     <use xlink:href="#DejaVuSans-6e" transform="translate(239.941406 0.584375)"/>
     <use xlink:href="#DejaVuSans-67" transform="translate(303.320312 0.584375)"/>
     <use xlink:href="#DejaVuSans-20" transform="translate(366.796875 0.584375)"/>
     <use xlink:href="#DejaVuSans-74" transform="translate(398.583984 0.584375)"/>
     <use xlink:href="#DejaVuSans-68" transform="translate(437.792969 0.584375)"/>
     <use xlink:href="#DejaVuSans-65" transform="translate(501.171875 0.584375)"/>
     <use xlink:href="#DejaVuSans-20" transform="translate(562.695312 0.584375)"/>
     <use xlink:href="#DejaVuSans-7a" transform="translate(594.482422 0.584375)"/>
     <use xlink:href="#DejaVuSans-65" transform="translate(646.972656 0.584375)"/>
     <use xlink:href="#DejaVuSans-72" transform="translate(708.496094 0.584375)"/>
     <use xlink:href="#DejaVuSans-6f" transform="translate(749.609375 0.584375)"/>
     <use xlink:href="#DejaVuSans-20" transform="translate(810.791016 0.584375)"/>
     <use xlink:href="#DejaVuSans-6f" transform="translate(842.578125 0.584375)"/>
     <use xlink:href="#DejaVuSans-66" transform="translate(903.759766 0.584375)"/>
     <use xlink:href="#DejaVuSans-20" transform="translate(938.964844 0.584375)"/>
     <use xlink:href="#DejaVuSans-Oblique-67" transform="translate(970.751953 0.584375)"/>
     <use xlink:href="#Cmsy10-30" transform="translate(1038.878411 38.865625) scale(0.7)"/>
     <use xlink:href="#DejaVuSans-28" transform="translate(1060.855951 0.584375)"/>
     <use xlink:href="#DejaVuSans-Oblique-78" transform="translate(1099.869622 0.584375)"/>
     <use xlink:href="#DejaVuSans-29" transform="translate(1159.04931 0.584375)"/>
    </g>
   </g>
   <g id="line2d_88">
    <defs>
     <path id="mfec8799851" d="M 0 3.5 
C 0.928211 3.5 1.81853 3.131218 2.474874 2.474874 
C 3.131218 1.81853 3.5 0.928211 3.5 0 
C 3.5 -0.928211 3.131218 -1.81853 2.474874 -2.474874 
C 1.81853 -3.131218 0.928211 -3.5 0 -3.5 
C -0.928211 -3.5 -1.81853 -3.131218 -2.474874 -2.474874 
C -3.131218 -1.81853 -3.5 -0.928211 -3.5 0 
C -3.5 0.928211 -3.131218 1.81853 -2.474874 2.474874 
C -1.81853 3.131218 -0.928211 3.5 0 3.5 
z
" style="stroke: #cc0000"/>
    </defs>
    <g clip-path="url(#p1d13ebc6ca)">
     <use xlink:href="#mfec8799851" x="558.218047" y="300.235426" style="fill: #cc0000; stroke: #cc0000"/>
    </g>
   </g>
   <g id="line2d_89">
    <defs>
     <path id="me4d36566d8" d="M 0 3.5 
C 0.928211 3.5 1.81853 3.131218 2.474874 2.474874 
C 3.131218 1.81853 3.5 0.928211 3.5 0 
C 3.5 -0.928211 3.131218 -1.81853 2.474874 -2.474874 
C 1.81853 -3.131218 0.928211 -3.5 0 -3.5 
C -0.928211 -3.5 -1.81853 -3.131218 -2.474874 -2.474874 
C -3.131218 -1.81853 -3.5 -0.928211 -3.5 0 
C -3.5 0.928211 -3.131218 1.81853 -2.474874 2.474874 
C -1.81853 3.131218 -0.928211 3.5 0 3.5 
z
" style="stroke: #008b8b"/>
    </defs>
    <g clip-path="url(#p1d13ebc6ca)">
     <use xlink:href="#me4d36566d8" x="568.501423" y="195.710525" style="fill: #008b8b; stroke: #008b8b"/>
    </g>
   </g>
   <g id="line2d_90">
    <defs>
     <path id="me8da12a63a" d="M 0 3.5 
C 0.928211 3.5 1.81853 3.131218 2.474874 2.474874 
C 3.131218 1.81853 3.5 0.928211 3.5 0 
C 3.5 -0.928211 3.131218 -1.81853 2.474874 -2.474874 
C 1.81853 -3.131218 0.928211 -3.5 0 -3.5 
C -0.928211 -3.5 -1.81853 -3.131218 -2.474874 -2.474874 
C -3.131218 -1.81853 -3.5 -0.928211 -3.5 0 
C -3.5 0.928211 -3.131218 1.81853 -2.474874 2.474874 
C -1.81853 3.131218 -0.928211 3.5 0 3.5 
z
" style="stroke: #ff8c00"/>
    </defs>
    <g clip-path="url(#p1d13ebc6ca)">
     <use xlink:href="#me8da12a63a" x="587.20374" y="143.032993" style="fill: #ff8c00; stroke: #ff8c00"/>
    </g>
   </g>
   <g id="line2d_91">
    <defs>
     <path id="mf5ee132a42" d="M 0 3.5 
C 0.928211 3.5 1.81853 3.131218 2.474874 2.474874 
C 3.131218 1.81853 3.5 0.928211 3.5 0 
C 3.5 -0.928211 3.131218 -1.81853 2.474874 -2.474874 
C 1.81853 -3.131218 0.928211 -3.5 0 -3.5 
C -0.928211 -3.5 -1.81853 -3.131218 -2.474874 -2.474874 
C -3.131218 -1.81853 -3.5 -0.928211 -3.5 0 
C -3.5 0.928211 -3.131218 1.81853 -2.474874 2.474874 
C -1.81853 3.131218 -0.928211 3.5 0 3.5 
z
" style="stroke: #9acd32"/>
    </defs>
    <g clip-path="url(#p1d13ebc6ca)">
     <use xlink:href="#mf5ee132a42" x="617.096235" y="116.108452" style="fill: #9acd32; stroke: #9acd32"/>
    </g>
   </g>
   <g id="line2d_92">
    <defs>
     <path id="m2d0e5d13ee" d="M 0 3.5 
C 0.928211 3.5 1.81853 3.131218 2.474874 2.474874 
C 3.131218 1.81853 3.5 0.928211 3.5 0 
C 3.5 -0.928211 3.131218 -1.81853 2.474874 -2.474874 
C 1.81853 -3.131218 0.928211 -3.5 0 -3.5 
C -0.928211 -3.5 -1.81853 -3.131218 -2.474874 -2.474874 
C -3.131218 -1.81853 -3.5 -0.928211 -3.5 0 
C -3.5 0.928211 -3.131218 1.81853 -2.474874 2.474874 
C -1.81853 3.131218 -0.928211 3.5 0 3.5 
z
" style="stroke: #4169e1"/>
    </defs>
    <g clip-path="url(#p1d13ebc6ca)">
     <use xlink:href="#m2d0e5d13ee" x="651.218713" y="102.639476" style="fill: #4169e1; stroke: #4169e1"/>
    </g>
   </g>
   <g id="line2d_93">
    <defs>
     <path id="m4b42668edc" d="M 0 3.5 
C 0.928211 3.5 1.81853 3.131218 2.474874 2.474874 
C 3.131218 1.81853 3.5 0.928211 3.5 0 
C 3.5 -0.928211 3.131218 -1.81853 2.474874 -2.474874 
C 1.81853 -3.131218 0.928211 -3.5 0 -3.5 
C -0.928211 -3.5 -1.81853 -3.131218 -2.474874 -2.474874 
C -3.131218 -1.81853 -3.5 -0.928211 -3.5 0 
C -3.5 0.928211 -3.131218 1.81853 -2.474874 2.474874 
C -1.81853 3.131218 -0.928211 3.5 0 3.5 
z
" style="stroke: #cc0066"/>
    </defs>
    <g clip-path="url(#p1d13ebc6ca)">
     <use xlink:href="#m4b42668edc" x="668.750755" y="97.955355" style="fill: #cc0066; stroke: #cc0066"/>
    </g>
   </g>
   <g id="legend_2">
    <g id="patch_14">
     <path d="M 858.3325 47.75 
L 974.9325 47.75 
Q 977.1325 47.75 977.1325 45.55 
L 977.1325 30.26 
Q 977.1325 28.06 974.9325 28.06 
L 858.3325 28.06 
Q 856.1325 28.06 856.1325 30.26 
L 856.1325 45.55 
Q 856.1325 47.75 858.3325 47.75 
z
" style="fill: #ffffff; opacity: 0.8; stroke: #cccccc; stroke-linejoin: miter"/>
    </g>
    <g id="line2d_94">
     <path d="M 860.5325 37.19 
L 871.5325 37.19 
L 882.5325 37.19 
" style="fill: none; stroke: #000000; stroke-width: 2.5; stroke-linecap: square"/>
    </g>
    <g id="text_47">
     <!-- $g'(x) = e^x - 1/x$ -->
     <g transform="translate(891.3325 41.04) scale(0.11 -0.11)">
      <defs>
       <path id="DejaVuSans-2f" d="M 1625 4666 
L 2156 4666 
L 531 -594 
L 0 -594 
L 1625 4666 
z
" transform="scale(0.015625)"/>
      </defs>
      <use xlink:href="#DejaVuSans-Oblique-67" transform="translate(0 0.584375)"/>
      <use xlink:href="#Cmsy10-30" transform="translate(68.126458 38.865625) scale(0.7)"/>
      <use xlink:href="#DejaVuSans-28" transform="translate(90.103997 0.584375)"/>
      <use xlink:href="#DejaVuSans-Oblique-78" transform="translate(129.117669 0.584375)"/>
      <use xlink:href="#DejaVuSans-29" transform="translate(188.297357 0.584375)"/>
      <use xlink:href="#DejaVuSans-3d" transform="translate(246.793451 0.584375)"/>
      <use xlink:href="#DejaVuSans-Oblique-65" transform="translate(350.064935 0.584375)"/>
      <use xlink:href="#DejaVuSans-Oblique-78" transform="translate(416.238268 38.865625) scale(0.7)"/>
      <use xlink:href="#DejaVuSans-2212" transform="translate(479.880846 0.584375)"/>
      <use xlink:href="#DejaVuSans-31" transform="translate(583.152331 0.584375)"/>
      <use xlink:href="#DejaVuSans-2f" transform="translate(646.775378 0.584375)"/>
      <use xlink:href="#DejaVuSans-Oblique-78" transform="translate(680.466784 0.584375)"/>
     </g>
    </g>
   </g>
   <g id="line2d_95">
    <defs>
     <path id="mbd53cf004c" d="M 0 4.5 
C 1.193414 4.5 2.338109 4.025852 3.181981 3.181981 
C 4.025852 2.338109 4.5 1.193414 4.5 0 
C 4.5 -1.193414 4.025852 -2.338109 3.181981 -3.181981 
C 2.338109 -4.025852 1.193414 -4.5 0 -4.5 
C -1.193414 -4.5 -2.338109 -4.025852 -3.181981 -3.181981 
C -4.025852 -2.338109 -4.5 -1.193414 -4.5 0 
C -4.5 1.193414 -4.025852 2.338109 -3.181981 3.181981 
C -2.338109 4.025852 -1.193414 4.5 0 4.5 
z
" style="stroke: #2e8b57"/>
    </defs>
    <g clip-path="url(#p1d13ebc6ca)">
     <use xlink:href="#mbd53cf004c" x="670.755324" y="97.466481" style="fill: #2e8b57; stroke: #2e8b57"/>
    </g>
   </g>
  </g>
 </g>
 <defs>
  <clipPath id="p376eedf878">
   <rect x="45.716875" y="22.56" width="435.296875" height="288.925"/>
  </clipPath>
  <clipPath id="p1d13ebc6ca">
   <rect x="547.335625" y="22.56" width="435.296875" height="288.925"/>
  </clipPath>
 </defs>
</svg>
