<?xml version="1.0" encoding="utf-8" standalone="no"?>
<!DOCTYPE svg PUBLIC "-//W3C//DTD SVG 1.1//EN"
  "http://www.w3.org/Graphics/SVG/1.1/DTD/svg11.dtd">
<svg xmlns:xlink="http://www.w3.org/1999/xlink" width="651.36179pt" height="353.366064pt" viewBox="0 0 651.36179 353.366064" xmlns="http://www.w3.org/2000/svg" version="1.1">
 <metadata>
  <rdf:RDF xmlns:dc="http://purl.org/dc/elements/1.1/" xmlns:cc="http://creativecommons.org/ns#" xmlns:rdf="http://www.w3.org/1999/02/22-rdf-syntax-ns#">
   <cc:Work>
    <dc:type rdf:resource="http://purl.org/dc/dcmitype/StillImage"/>
    <dc:date>2026-07-11T21:10:14.841959</dc:date>
    <dc:format>image/svg+xml</dc:format>
    <dc:creator>
     <cc:Agent>
      <dc:title>Matplotlib v3.10.8, https://matplotlib.org/</dc:title>
     </cc:Agent>
    </dc:creator>
   </cc:Work>
  </rdf:RDF>
 </metadata>
 <defs>
  <style type="text/css">*{stroke-linejoin: round; stroke-linecap: butt}</style>
 </defs>
 <g id="figure_1">
  <g id="patch_1">
   <path d="M 0 353.366064 
L 651.36179 353.366064 
L 651.36179 0 
L 0 0 
z
" style="fill: #ffffff"/>
  </g>
  <g id="axes_1">
   <g id="line2d_1">
    <path d="M 150.271417 119.89324 
L 329.60066 80.695591 
" clip-path="url(#pce7d9e165f)" style="fill: none; stroke: #d0d0d0; stroke-width: 0.6; stroke-linecap: square"/>
   </g>
   <g id="line2d_2">
    <path d="M 150.271417 119.89324 
L 329.60066 168.8903 
" clip-path="url(#pce7d9e165f)" style="fill: none; stroke: #d0d0d0; stroke-width: 0.6; stroke-linecap: square"/>
   </g>
   <g id="line2d_3">
    <path d="M 150.271417 119.89324 
L 329.60066 257.08501 
" clip-path="url(#pce7d9e165f)" style="fill: none; stroke: #d0d0d0; stroke-width: 0.6; stroke-linecap: square"/>
   </g>
   <g id="line2d_4">
    <path d="M 150.271417 217.887361 
L 329.60066 80.695591 
" clip-path="url(#pce7d9e165f)" style="fill: none; stroke: #d0d0d0; stroke-width: 0.6; stroke-linecap: square"/>
   </g>
   <g id="line2d_5">
    <path d="M 150.271417 217.887361 
L 329.60066 168.8903 
" clip-path="url(#pce7d9e165f)" style="fill: none; stroke: #d0d0d0; stroke-width: 0.6; stroke-linecap: square"/>
   </g>
   <g id="line2d_6">
    <path d="M 150.271417 217.887361 
L 329.60066 257.08501 
" clip-path="url(#pce7d9e165f)" style="fill: none; stroke: #d0d0d0; stroke-width: 0.6; stroke-linecap: square"/>
   </g>
   <g id="line2d_7">
    <path d="M 400.156427 80.695591 
L 550.087433 168.8903 
" clip-path="url(#pce7d9e165f)" style="fill: none; stroke: #d0d0d0; stroke-width: 0.6; stroke-linecap: square"/>
   </g>
   <g id="line2d_8">
    <path d="M 400.156427 168.8903 
L 550.087433 168.8903 
" clip-path="url(#pce7d9e165f)" style="fill: none; stroke: #d0d0d0; stroke-width: 0.6; stroke-linecap: square"/>
   </g>
   <g id="line2d_9">
    <path d="M 400.156427 257.08501 
L 550.087433 168.8903 
" clip-path="url(#pce7d9e165f)" style="fill: none; stroke: #d0d0d0; stroke-width: 0.6; stroke-linecap: square"/>
   </g>
   <g id="patch_2">
    <path d="M 375.208717 80.695591 
Q 385.456612 80.695591 394.251062 80.695591 
" style="fill: none; stroke: #cc7000; stroke-width: 1.3; stroke-linecap: round"/>
    <path d="M 390.251062 78.695591 
L 394.251062 80.695591 
L 390.251062 82.695591 
" style="fill: none; stroke: #cc7000; stroke-width: 1.3; stroke-linecap: round"/>
   </g>
   <g id="patch_3">
    <path d="M 375.208717 168.8903 
Q 385.456612 168.8903 394.251062 168.8903 
" style="fill: none; stroke: #cc7000; stroke-width: 1.3; stroke-linecap: round"/>
    <path d="M 390.251062 166.8903 
L 394.251062 168.8903 
L 390.251062 170.8903 
" style="fill: none; stroke: #cc7000; stroke-width: 1.3; stroke-linecap: round"/>
   </g>
   <g id="patch_4">
    <path d="M 375.208717 257.08501 
Q 385.456612 257.08501 394.251062 257.08501 
" style="fill: none; stroke: #cc7000; stroke-width: 1.3; stroke-linecap: round"/>
    <path d="M 390.251062 255.08501 
L 394.251062 257.08501 
L 390.251062 259.08501 
" style="fill: none; stroke: #cc7000; stroke-width: 1.3; stroke-linecap: round"/>
   </g>
   <g id="patch_5">
    <path d="M 595.695491 168.8903 
Q 605.943385 168.8903 614.737836 168.8903 
" style="fill: none; stroke: #1e6b3e; stroke-width: 1.3; stroke-linecap: round"/>
    <path d="M 610.737836 166.8903 
L 614.737836 168.8903 
L 610.737836 170.8903 
" style="fill: none; stroke: #1e6b3e; stroke-width: 1.3; stroke-linecap: round"/>
   </g>
   <g id="patch_6">
    <path d="M 129.692652 140.472005 
C 135.150204 140.472005 140.384964 138.303697 144.244037 134.444624 
C 148.103109 130.585552 150.271417 125.350792 150.271417 119.89324 
C 150.271417 114.435687 148.103109 109.200927 144.244037 105.341855 
C 140.384964 101.482783 135.150204 99.314474 129.692652 99.314474 
C 124.235099 99.314474 119.00034 101.482783 115.141267 105.341855 
C 111.282195 109.200927 109.113886 114.435687 109.113886 119.89324 
C 109.113886 125.350792 111.282195 130.585552 115.141267 134.444624 
C 119.00034 138.303697 124.235099 140.472005 129.692652 140.472005 
z
" clip-path="url(#pce7d9e165f)" style="fill: #87ceeb; stroke: #ffffff; stroke-width: 1.5; stroke-linejoin: miter"/>
   </g>
   <g id="patch_7">
    <path d="M 129.692652 238.466127 
C 135.150204 238.466127 140.384964 236.297818 144.244037 232.438746 
C 148.103109 228.579674 150.271417 223.344914 150.271417 217.887361 
C 150.271417 212.429809 148.103109 207.195049 144.244037 203.335977 
C 140.384964 199.476904 135.150204 197.308596 129.692652 197.308596 
C 124.235099 197.308596 119.00034 199.476904 115.141267 203.335977 
C 111.282195 207.195049 109.113886 212.429809 109.113886 217.887361 
C 109.113886 223.344914 111.282195 228.579674 115.141267 232.438746 
C 119.00034 236.297818 124.235099 238.466127 129.692652 238.466127 
z
" clip-path="url(#pce7d9e165f)" style="fill: #87ceeb; stroke: #ffffff; stroke-width: 1.5; stroke-linejoin: miter"/>
   </g>
   <g id="patch_8">
    <path d="M 350.179425 101.274357 
C 355.636978 101.274357 360.871738 99.106048 364.73081 95.246976 
C 368.589882 91.387903 370.758191 86.153144 370.758191 80.695591 
C 370.758191 75.238039 368.589882 70.003279 364.73081 66.144206 
C 360.871738 62.285134 355.636978 60.116826 350.179425 60.116826 
C 344.721873 60.116826 339.487113 62.285134 335.628041 66.144206 
C 331.768968 70.003279 329.60066 75.238039 329.60066 80.695591 
C 329.60066 86.153144 331.768968 91.387903 335.628041 95.246976 
C 339.487113 99.106048 344.721873 101.274357 350.179425 101.274357 
z
" clip-path="url(#pce7d9e165f)" style="fill: #ffb347; stroke: #ffffff; stroke-width: 1.5; stroke-linejoin: miter"/>
   </g>
   <g id="patch_9">
    <path d="M 350.179425 189.469066 
C 355.636978 189.469066 360.871738 187.300757 364.73081 183.441685 
C 368.589882 179.582613 370.758191 174.347853 370.758191 168.8903 
C 370.758191 163.432748 368.589882 158.197988 364.73081 154.338916 
C 360.871738 150.479844 355.636978 148.311535 350.179425 148.311535 
C 344.721873 148.311535 339.487113 150.479844 335.628041 154.338916 
C 331.768968 158.197988 329.60066 163.432748 329.60066 168.8903 
C 329.60066 174.347853 331.768968 179.582613 335.628041 183.441685 
C 339.487113 187.300757 344.721873 189.469066 350.179425 189.469066 
z
" clip-path="url(#pce7d9e165f)" style="fill: #ffb347; stroke: #ffffff; stroke-width: 1.5; stroke-linejoin: miter"/>
   </g>
   <g id="patch_10">
    <path d="M 350.179425 277.663775 
C 355.636978 277.663775 360.871738 275.495467 364.73081 271.636394 
C 368.589882 267.777322 370.758191 262.542562 370.758191 257.08501 
C 370.758191 251.627457 368.589882 246.392698 364.73081 242.533625 
C 360.871738 238.674553 355.636978 236.506244 350.179425 236.506244 
C 344.721873 236.506244 339.487113 238.674553 335.628041 242.533625 
C 331.768968 246.392698 329.60066 251.627457 329.60066 257.08501 
C 329.60066 262.542562 331.768968 267.777322 335.628041 271.636394 
C 339.487113 275.495467 344.721873 277.663775 350.179425 277.663775 
z
" clip-path="url(#pce7d9e165f)" style="fill: #ffb347; stroke: #ffffff; stroke-width: 1.5; stroke-linejoin: miter"/>
   </g>
   <g id="patch_11">
    <path d="M 570.666199 189.469066 
C 576.123751 189.469066 581.358511 187.300757 585.217583 183.441685 
C 589.076656 179.582613 591.244964 174.347853 591.244964 168.8903 
C 591.244964 163.432748 589.076656 158.197988 585.217583 154.338916 
C 581.358511 150.479844 576.123751 148.311535 570.666199 148.311535 
C 565.208646 148.311535 559.973886 150.479844 556.114814 154.338916 
C 552.255742 158.197988 550.087433 163.432748 550.087433 168.8903 
C 550.087433 174.347853 552.255742 179.582613 556.114814 183.441685 
C 559.973886 187.300757 565.208646 189.469066 570.666199 189.469066 
z
" clip-path="url(#pce7d9e165f)" style="fill: #f08080; stroke: #ffffff; stroke-width: 1.5; stroke-linejoin: miter"/>
   </g>
   <g id="text_1">
    <!-- temp -->
    <g transform="translate(115.303277 116.769755) scale(0.11 -0.11)">
     <defs>
      <path id="DejaVuSans-74" d="M 1172 4494 
L 1172 3500 
L 2356 3500 
L 2356 3053 
L 1172 3053 
L 1172 1153 
Q 1172 725 1289 603 
Q 1406 481 1766 481 
L 2356 481 
L 2356 0 
L 1766 0 
Q 1100 0 847 248 
Q 594 497 594 1153 
L 594 3053 
L 172 3053 
L 172 3500 
L 594 3500 
L 594 4494 
L 1172 4494 
z
" transform="scale(0.015625)"/>
      <path id="DejaVuSans-65" d="M 3597 1894 
L 3597 1613 
L 953 1613 
Q 991 1019 1311 708 
Q 1631 397 2203 397 
Q 2534 397 2845 478 
Q 3156 559 3463 722 
L 3463 178 
Q 3153 47 2828 -22 
Q 2503 -91 2169 -91 
Q 1331 -91 842 396 
Q 353 884 353 1716 
Q 353 2575 817 3079 
Q 1281 3584 2069 3584 
Q 2775 3584 3186 3129 
Q 3597 2675 3597 1894 
z
M 3022 2063 
Q 3016 2534 2758 2815 
Q 2500 3097 2075 3097 
Q 1594 3097 1305 2825 
Q 1016 2553 972 2059 
L 3022 2063 
z
" transform="scale(0.015625)"/>
      <path id="DejaVuSans-6d" d="M 3328 2828 
Q 3544 3216 3844 3400 
Q 4144 3584 4550 3584 
Q 5097 3584 5394 3201 
Q 5691 2819 5691 2113 
L 5691 0 
L 5113 0 
L 5113 2094 
Q 5113 2597 4934 2840 
Q 4756 3084 4391 3084 
Q 3944 3084 3684 2787 
Q 3425 2491 3425 1978 
L 3425 0 
L 2847 0 
L 2847 2094 
Q 2847 2600 2669 2842 
Q 2491 3084 2119 3084 
Q 1678 3084 1418 2786 
Q 1159 2488 1159 1978 
L 1159 0 
L 581 0 
L 581 3500 
L 1159 3500 
L 1159 2956 
Q 1356 3278 1631 3431 
Q 1906 3584 2284 3584 
Q 2666 3584 2933 3390 
Q 3200 3197 3328 2828 
z
" transform="scale(0.015625)"/>
      <path id="DejaVuSans-70" d="M 1159 525 
L 1159 -1331 
L 581 -1331 
L 581 3500 
L 1159 3500 
L 1159 2969 
Q 1341 3281 1617 3432 
Q 1894 3584 2278 3584 
Q 2916 3584 3314 3078 
Q 3713 2572 3713 1747 
Q 3713 922 3314 415 
Q 2916 -91 2278 -91 
Q 1894 -91 1617 61 
Q 1341 213 1159 525 
z
M 3116 1747 
Q 3116 2381 2855 2742 
Q 2594 3103 2138 3103 
Q 1681 3103 1420 2742 
Q 1159 2381 1159 1747 
Q 1159 1113 1420 752 
Q 1681 391 2138 391 
Q 2594 391 2855 752 
Q 3116 1113 3116 1747 
z
" transform="scale(0.015625)"/>
     </defs>
     <use xlink:href="#DejaVuSans-74"/>
     <use xlink:href="#DejaVuSans-65" transform="translate(39.208984 0)"/>
     <use xlink:href="#DejaVuSans-6d" transform="translate(100.732422 0)"/>
     <use xlink:href="#DejaVuSans-70" transform="translate(198.144531 0)"/>
    </g>
    <!-- $x_1$ -->
    <g transform="translate(123.807652 129.087349) scale(0.11 -0.11)">
     <defs>
      <path id="DejaVuSans-Oblique-78" d="M 3841 3500 
L 2234 1784 
L 3219 0 
L 2559 0 
L 1819 1388 
L 531 0 
L -166 0 
L 1556 1844 
L 641 3500 
L 1300 3500 
L 1972 2234 
L 3144 3500 
L 3841 3500 
z
" transform="scale(0.015625)"/>
      <path id="DejaVuSans-31" d="M 794 531 
L 1825 531 
L 1825 4091 
L 703 3866 
L 703 4441 
L 1819 4666 
L 2450 4666 
L 2450 531 
L 3481 531 
L 3481 0 
L 794 0 
L 794 531 
z
" transform="scale(0.015625)"/>
     </defs>
     <use xlink:href="#DejaVuSans-Oblique-78" transform="translate(0 0.3125)"/>
     <use xlink:href="#DejaVuSans-31" transform="translate(59.179688 -16.09375) scale(0.7)"/>
    </g>
   </g>
   <g id="text_2">
    <!-- dur. -->
    <g transform="translate(119.208277 214.763877) scale(0.11 -0.11)">
     <defs>
      <path id="DejaVuSans-64" d="M 2906 2969 
L 2906 4863 
L 3481 4863 
L 3481 0 
L 2906 0 
L 2906 525 
Q 2725 213 2448 61 
Q 2172 -91 1784 -91 
Q 1150 -91 751 415 
Q 353 922 353 1747 
Q 353 2572 751 3078 
Q 1150 3584 1784 3584 
Q 2172 3584 2448 3432 
Q 2725 3281 2906 2969 
z
M 947 1747 
Q 947 1113 1208 752 
Q 1469 391 1925 391 
Q 2381 391 2643 752 
Q 2906 1113 2906 1747 
Q 2906 2381 2643 2742 
Q 2381 3103 1925 3103 
Q 1469 3103 1208 2742 
Q 947 2381 947 1747 
z
" transform="scale(0.015625)"/>
      <path id="DejaVuSans-75" d="M 544 1381 
L 544 3500 
L 1119 3500 
L 1119 1403 
Q 1119 906 1312 657 
Q 1506 409 1894 409 
Q 2359 409 2629 706 
Q 2900 1003 2900 1516 
L 2900 3500 
L 3475 3500 
L 3475 0 
L 2900 0 
L 2900 538 
Q 2691 219 2414 64 
Q 2138 -91 1772 -91 
Q 1169 -91 856 284 
Q 544 659 544 1381 
z
M 1991 3584 
L 1991 3584 
z
" transform="scale(0.015625)"/>
      <path id="DejaVuSans-72" d="M 2631 2963 
Q 2534 3019 2420 3045 
Q 2306 3072 2169 3072 
Q 1681 3072 1420 2755 
Q 1159 2438 1159 1844 
L 1159 0 
L 581 0 
L 581 3500 
L 1159 3500 
L 1159 2956 
Q 1341 3275 1631 3429 
Q 1922 3584 2338 3584 
Q 2397 3584 2469 3576 
Q 2541 3569 2628 3553 
L 2631 2963 
z
" transform="scale(0.015625)"/>
      <path id="DejaVuSans-2e" d="M 684 794 
L 1344 794 
L 1344 0 
L 684 0 
L 684 794 
z
" transform="scale(0.015625)"/>
     </defs>
     <use xlink:href="#DejaVuSans-64"/>
     <use xlink:href="#DejaVuSans-75" transform="translate(63.476562 0)"/>
     <use xlink:href="#DejaVuSans-72" transform="translate(126.855469 0)"/>
     <use xlink:href="#DejaVuSans-2e" transform="translate(158.84375 0)"/>
    </g>
    <!-- $x_2$ -->
    <g transform="translate(123.807652 227.081471) scale(0.11 -0.11)">
     <defs>
      <path id="DejaVuSans-32" d="M 1228 531 
L 3431 531 
L 3431 0 
L 469 0 
L 469 531 
Q 828 903 1448 1529 
Q 2069 2156 2228 2338 
Q 2531 2678 2651 2914 
Q 2772 3150 2772 3378 
Q 2772 3750 2511 3984 
Q 2250 4219 1831 4219 
Q 1534 4219 1204 4116 
Q 875 4013 500 3803 
L 500 4441 
Q 881 4594 1212 4672 
Q 1544 4750 1819 4750 
Q 2544 4750 2975 4387 
Q 3406 4025 3406 3419 
Q 3406 3131 3298 2873 
Q 3191 2616 2906 2266 
Q 2828 2175 2409 1742 
Q 1991 1309 1228 531 
z
" transform="scale(0.015625)"/>
     </defs>
     <use xlink:href="#DejaVuSans-Oblique-78" transform="translate(0 0.3125)"/>
     <use xlink:href="#DejaVuSans-32" transform="translate(59.179688 -16.09375) scale(0.7)"/>
    </g>
   </g>
   <g id="text_3">
    <!-- $a_1^{[1]}$ -->
    <g style="fill: #cc7000" transform="translate(376.217309 66.836238) scale(0.11 -0.11)">
     <defs>
      <path id="DejaVuSans-Oblique-61" d="M 3438 1997 
L 3047 0 
L 2472 0 
L 2578 531 
Q 2325 219 2001 64 
Q 1678 -91 1281 -91 
Q 834 -91 548 182 
Q 263 456 263 884 
Q 263 1497 752 1853 
Q 1241 2209 2100 2209 
L 2900 2209 
L 2931 2363 
Q 2938 2388 2941 2417 
Q 2944 2447 2944 2509 
Q 2944 2788 2717 2942 
Q 2491 3097 2081 3097 
Q 1800 3097 1504 3025 
Q 1209 2953 897 2809 
L 997 3341 
Q 1322 3463 1633 3523 
Q 1944 3584 2234 3584 
Q 2853 3584 3176 3315 
Q 3500 3047 3500 2534 
Q 3500 2431 3484 2292 
Q 3469 2153 3438 1997 
z
M 2816 1759 
L 2241 1759 
Q 1534 1759 1195 1570 
Q 856 1381 856 984 
Q 856 709 1029 553 
Q 1203 397 1509 397 
Q 1978 397 2328 733 
Q 2678 1069 2791 1631 
L 2816 1759 
z
" transform="scale(0.015625)"/>
      <path id="DejaVuSans-5b" d="M 550 4863 
L 1875 4863 
L 1875 4416 
L 1125 4416 
L 1125 -397 
L 1875 -397 
L 1875 -844 
L 550 -844 
L 550 4863 
z
" transform="scale(0.015625)"/>
      <path id="DejaVuSans-5d" d="M 1947 4863 
L 1947 -844 
L 622 -844 
L 622 -397 
L 1369 -397 
L 1369 4416 
L 622 4416 
L 622 4863 
L 1947 4863 
z
" transform="scale(0.015625)"/>
     </defs>
     <use xlink:href="#DejaVuSans-Oblique-61" transform="translate(0 0.389063)"/>
     <use xlink:href="#DejaVuSans-5b" transform="translate(65.929193 45.810938) scale(0.7)"/>
     <use xlink:href="#DejaVuSans-31" transform="translate(93.238763 45.810938) scale(0.7)"/>
     <use xlink:href="#DejaVuSans-5d" transform="translate(137.774896 45.810938) scale(0.7)"/>
     <use xlink:href="#DejaVuSans-31" transform="translate(61.279297 -26.954687) scale(0.7)"/>
    </g>
   </g>
   <g id="text_4">
    <!-- $a_2^{[1]}$ -->
    <g style="fill: #cc7000" transform="translate(376.217309 155.030947) scale(0.11 -0.11)">
     <use xlink:href="#DejaVuSans-Oblique-61" transform="translate(0 0.470313)"/>
     <use xlink:href="#DejaVuSans-5b" transform="translate(65.929193 46.810938) scale(0.7)"/>
     <use xlink:href="#DejaVuSans-31" transform="translate(93.238763 46.810938) scale(0.7)"/>
     <use xlink:href="#DejaVuSans-5d" transform="translate(137.774896 46.810938) scale(0.7)"/>
     <use xlink:href="#DejaVuSans-32" transform="translate(61.279297 -26.873437) scale(0.7)"/>
    </g>
   </g>
   <g id="text_5">
    <!-- $a_3^{[1]}$ -->
    <g style="fill: #cc7000" transform="translate(376.217309 243.115656) scale(0.11 -0.11)">
     <defs>
      <path id="DejaVuSans-33" d="M 2597 2516 
Q 3050 2419 3304 2112 
Q 3559 1806 3559 1356 
Q 3559 666 3084 287 
Q 2609 -91 1734 -91 
Q 1441 -91 1130 -33 
Q 819 25 488 141 
L 488 750 
Q 750 597 1062 519 
Q 1375 441 1716 441 
Q 2309 441 2620 675 
Q 2931 909 2931 1356 
Q 2931 1769 2642 2001 
Q 2353 2234 1838 2234 
L 1294 2234 
L 1294 2753 
L 1863 2753 
Q 2328 2753 2575 2939 
Q 2822 3125 2822 3475 
Q 2822 3834 2567 4026 
Q 2313 4219 1838 4219 
Q 1578 4219 1281 4162 
Q 984 4106 628 3988 
L 628 4550 
Q 988 4650 1302 4700 
Q 1616 4750 1894 4750 
Q 2613 4750 3031 4423 
Q 3450 4097 3450 3541 
Q 3450 3153 3228 2886 
Q 3006 2619 2597 2516 
z
" transform="scale(0.015625)"/>
     </defs>
     <use xlink:href="#DejaVuSans-Oblique-61" transform="translate(0 0.470313)"/>
     <use xlink:href="#DejaVuSans-5b" transform="translate(65.929193 46.810938) scale(0.7)"/>
     <use xlink:href="#DejaVuSans-31" transform="translate(93.238763 46.810938) scale(0.7)"/>
     <use xlink:href="#DejaVuSans-5d" transform="translate(137.774896 46.810938) scale(0.7)"/>
     <use xlink:href="#DejaVuSans-33" transform="translate(61.279297 -26.873437) scale(0.7)"/>
    </g>
   </g>
   <g id="text_6">
    <!-- $a^{[2]}$ -->
    <g style="fill: #1e6b3e" transform="translate(596.704082 155.823291) scale(0.11 -0.11)">
     <use xlink:href="#DejaVuSans-Oblique-61" transform="translate(0 0.529687)"/>
     <use xlink:href="#DejaVuSans-5b" transform="translate(65.929193 38.810937) scale(0.7)"/>
     <use xlink:href="#DejaVuSans-32" transform="translate(93.238763 38.810937) scale(0.7)"/>
     <use xlink:href="#DejaVuSans-5d" transform="translate(137.774896 38.810937) scale(0.7)"/>
    </g>
   </g>
   <g id="text_7">
    <!-- Input -->
    <g style="fill: #333333" transform="translate(114.156402 329.899314) scale(0.12 -0.12)">
     <defs>
      <path id="DejaVuSans-49" d="M 628 4666 
L 1259 4666 
L 1259 0 
L 628 0 
L 628 4666 
z
" transform="scale(0.015625)"/>
      <path id="DejaVuSans-6e" d="M 3513 2113 
L 3513 0 
L 2938 0 
L 2938 2094 
Q 2938 2591 2744 2837 
Q 2550 3084 2163 3084 
Q 1697 3084 1428 2787 
Q 1159 2491 1159 1978 
L 1159 0 
L 581 0 
L 581 3500 
L 1159 3500 
L 1159 2956 
Q 1366 3272 1645 3428 
Q 1925 3584 2291 3584 
Q 2894 3584 3203 3211 
Q 3513 2838 3513 2113 
z
" transform="scale(0.015625)"/>
     </defs>
     <use xlink:href="#DejaVuSans-49"/>
     <use xlink:href="#DejaVuSans-6e" transform="translate(29.492188 0)"/>
     <use xlink:href="#DejaVuSans-70" transform="translate(92.871094 0)"/>
     <use xlink:href="#DejaVuSans-75" transform="translate(156.347656 0)"/>
     <use xlink:href="#DejaVuSans-74" transform="translate(219.726562 0)"/>
    </g>
    <!-- $\vec{x}$ -->
    <g style="fill: #333333" transform="translate(126.092652 343.336689) scale(0.12 -0.12)">
     <defs>
      <path id="DejaVuSans-20d7" d="M -3009 4066 
L -3009 4378 
L -694 4378 
L -1106 4863 
L -713 4863 
L -166 4222 
L -713 3581 
L -1106 3581 
L -694 4066 
L -3009 4066 
z
" transform="scale(0.015625)"/>
     </defs>
     <use xlink:href="#DejaVuSans-20d7" transform="translate(61.810547 12.015625)"/>
     <use xlink:href="#DejaVuSans-Oblique-78" transform="translate(0 0.78125)"/>
    </g>
   </g>
   <g id="text_8">
    <!-- layer_1 -->
    <g style="fill: #333333" transform="translate(328.308488 329.899314) scale(0.12 -0.12)">
     <defs>
      <path id="DejaVuSans-6c" d="M 603 4863 
L 1178 4863 
L 1178 0 
L 603 0 
L 603 4863 
z
" transform="scale(0.015625)"/>
      <path id="DejaVuSans-61" d="M 2194 1759 
Q 1497 1759 1228 1600 
Q 959 1441 959 1056 
Q 959 750 1161 570 
Q 1363 391 1709 391 
Q 2188 391 2477 730 
Q 2766 1069 2766 1631 
L 2766 1759 
L 2194 1759 
z
M 3341 1997 
L 3341 0 
L 2766 0 
L 2766 531 
Q 2569 213 2275 61 
Q 1981 -91 1556 -91 
Q 1019 -91 701 211 
Q 384 513 384 1019 
Q 384 1609 779 1909 
Q 1175 2209 1959 2209 
L 2766 2209 
L 2766 2266 
Q 2766 2663 2505 2880 
Q 2244 3097 1772 3097 
Q 1472 3097 1187 3025 
Q 903 2953 641 2809 
L 641 3341 
Q 956 3463 1253 3523 
Q 1550 3584 1831 3584 
Q 2591 3584 2966 3190 
Q 3341 2797 3341 1997 
z
" transform="scale(0.015625)"/>
      <path id="DejaVuSans-79" d="M 2059 -325 
Q 1816 -950 1584 -1140 
Q 1353 -1331 966 -1331 
L 506 -1331 
L 506 -850 
L 844 -850 
Q 1081 -850 1212 -737 
Q 1344 -625 1503 -206 
L 1606 56 
L 191 3500 
L 800 3500 
L 1894 763 
L 2988 3500 
L 3597 3500 
L 2059 -325 
z
" transform="scale(0.015625)"/>
      <path id="DejaVuSans-5f" d="M 3263 -1063 
L 3263 -1509 
L -63 -1509 
L -63 -1063 
L 3263 -1063 
z
" transform="scale(0.015625)"/>
     </defs>
     <use xlink:href="#DejaVuSans-6c"/>
     <use xlink:href="#DejaVuSans-61" transform="translate(27.783203 0)"/>
     <use xlink:href="#DejaVuSans-79" transform="translate(89.0625 0)"/>
     <use xlink:href="#DejaVuSans-65" transform="translate(148.242188 0)"/>
     <use xlink:href="#DejaVuSans-72" transform="translate(209.765625 0)"/>
     <use xlink:href="#DejaVuSans-5f" transform="translate(250.878906 0)"/>
     <use xlink:href="#DejaVuSans-31" transform="translate(300.878906 0)"/>
    </g>
    <!-- 3 units, sigmoid -->
    <g style="fill: #333333" transform="translate(302.298488 343.670439) scale(0.12 -0.12)">
     <defs>
      <path id="DejaVuSans-20" transform="scale(0.015625)"/>
      <path id="DejaVuSans-69" d="M 603 3500 
L 1178 3500 
L 1178 0 
L 603 0 
L 603 3500 
z
M 603 4863 
L 1178 4863 
L 1178 4134 
L 603 4134 
L 603 4863 
z
" transform="scale(0.015625)"/>
      <path id="DejaVuSans-73" d="M 2834 3397 
L 2834 2853 
Q 2591 2978 2328 3040 
Q 2066 3103 1784 3103 
Q 1356 3103 1142 2972 
Q 928 2841 928 2578 
Q 928 2378 1081 2264 
Q 1234 2150 1697 2047 
L 1894 2003 
Q 2506 1872 2764 1633 
Q 3022 1394 3022 966 
Q 3022 478 2636 193 
Q 2250 -91 1575 -91 
Q 1294 -91 989 -36 
Q 684 19 347 128 
L 347 722 
Q 666 556 975 473 
Q 1284 391 1588 391 
Q 1994 391 2212 530 
Q 2431 669 2431 922 
Q 2431 1156 2273 1281 
Q 2116 1406 1581 1522 
L 1381 1569 
Q 847 1681 609 1914 
Q 372 2147 372 2553 
Q 372 3047 722 3315 
Q 1072 3584 1716 3584 
Q 2034 3584 2315 3537 
Q 2597 3491 2834 3397 
z
" transform="scale(0.015625)"/>
      <path id="DejaVuSans-2c" d="M 750 794 
L 1409 794 
L 1409 256 
L 897 -744 
L 494 -744 
L 750 256 
L 750 794 
z
" transform="scale(0.015625)"/>
      <path id="DejaVuSans-67" d="M 2906 1791 
Q 2906 2416 2648 2759 
Q 2391 3103 1925 3103 
Q 1463 3103 1205 2759 
Q 947 2416 947 1791 
Q 947 1169 1205 825 
Q 1463 481 1925 481 
Q 2391 481 2648 825 
Q 2906 1169 2906 1791 
z
M 3481 434 
Q 3481 -459 3084 -895 
Q 2688 -1331 1869 -1331 
Q 1566 -1331 1297 -1286 
Q 1028 -1241 775 -1147 
L 775 -588 
Q 1028 -725 1275 -790 
Q 1522 -856 1778 -856 
Q 2344 -856 2625 -561 
Q 2906 -266 2906 331 
L 2906 616 
Q 2728 306 2450 153 
Q 2172 0 1784 0 
Q 1141 0 747 490 
Q 353 981 353 1791 
Q 353 2603 747 3093 
Q 1141 3584 1784 3584 
Q 2172 3584 2450 3431 
Q 2728 3278 2906 2969 
L 2906 3500 
L 3481 3500 
L 3481 434 
z
" transform="scale(0.015625)"/>
      <path id="DejaVuSans-6f" d="M 1959 3097 
Q 1497 3097 1228 2736 
Q 959 2375 959 1747 
Q 959 1119 1226 758 
Q 1494 397 1959 397 
Q 2419 397 2687 759 
Q 2956 1122 2956 1747 
Q 2956 2369 2687 2733 
Q 2419 3097 1959 3097 
z
M 1959 3584 
Q 2709 3584 3137 3096 
Q 3566 2609 3566 1747 
Q 3566 888 3137 398 
Q 2709 -91 1959 -91 
Q 1206 -91 779 398 
Q 353 888 353 1747 
Q 353 2609 779 3096 
Q 1206 3584 1959 3584 
z
" transform="scale(0.015625)"/>
     </defs>
     <use xlink:href="#DejaVuSans-33"/>
     <use xlink:href="#DejaVuSans-20" transform="translate(63.623047 0)"/>
     <use xlink:href="#DejaVuSans-75" transform="translate(95.410156 0)"/>
     <use xlink:href="#DejaVuSans-6e" transform="translate(158.789062 0)"/>
     <use xlink:href="#DejaVuSans-69" transform="translate(222.167969 0)"/>
     <use xlink:href="#DejaVuSans-74" transform="translate(249.951172 0)"/>
     <use xlink:href="#DejaVuSans-73" transform="translate(289.160156 0)"/>
     <use xlink:href="#DejaVuSans-2c" transform="translate(341.259766 0)"/>
     <use xlink:href="#DejaVuSans-20" transform="translate(373.046875 0)"/>
     <use xlink:href="#DejaVuSans-73" transform="translate(404.833984 0)"/>
     <use xlink:href="#DejaVuSans-69" transform="translate(456.933594 0)"/>
     <use xlink:href="#DejaVuSans-67" transform="translate(484.716797 0)"/>
     <use xlink:href="#DejaVuSans-6d" transform="translate(548.193359 0)"/>
     <use xlink:href="#DejaVuSans-6f" transform="translate(645.605469 0)"/>
     <use xlink:href="#DejaVuSans-69" transform="translate(706.787109 0)"/>
     <use xlink:href="#DejaVuSans-64" transform="translate(734.570312 0)"/>
    </g>
   </g>
   <g id="text_9">
    <!-- layer_2 -->
    <g style="fill: #333333" transform="translate(548.795261 329.899314) scale(0.12 -0.12)">
     <use xlink:href="#DejaVuSans-6c"/>
     <use xlink:href="#DejaVuSans-61" transform="translate(27.783203 0)"/>
     <use xlink:href="#DejaVuSans-79" transform="translate(89.0625 0)"/>
     <use xlink:href="#DejaVuSans-65" transform="translate(148.242188 0)"/>
     <use xlink:href="#DejaVuSans-72" transform="translate(209.765625 0)"/>
     <use xlink:href="#DejaVuSans-5f" transform="translate(250.878906 0)"/>
     <use xlink:href="#DejaVuSans-32" transform="translate(300.878906 0)"/>
    </g>
    <!-- 1 unit, sigmoid -->
    <g style="fill: #333333" transform="translate(525.910886 343.670439) scale(0.12 -0.12)">
     <use xlink:href="#DejaVuSans-31"/>
     <use xlink:href="#DejaVuSans-20" transform="translate(63.623047 0)"/>
     <use xlink:href="#DejaVuSans-75" transform="translate(95.410156 0)"/>
     <use xlink:href="#DejaVuSans-6e" transform="translate(158.789062 0)"/>
     <use xlink:href="#DejaVuSans-69" transform="translate(222.167969 0)"/>
     <use xlink:href="#DejaVuSans-74" transform="translate(249.951172 0)"/>
     <use xlink:href="#DejaVuSans-2c" transform="translate(289.160156 0)"/>
     <use xlink:href="#DejaVuSans-20" transform="translate(320.947266 0)"/>
     <use xlink:href="#DejaVuSans-73" transform="translate(352.734375 0)"/>
     <use xlink:href="#DejaVuSans-69" transform="translate(404.833984 0)"/>
     <use xlink:href="#DejaVuSans-67" transform="translate(432.617188 0)"/>
     <use xlink:href="#DejaVuSans-6d" transform="translate(496.09375 0)"/>
     <use xlink:href="#DejaVuSans-6f" transform="translate(593.505859 0)"/>
     <use xlink:href="#DejaVuSans-69" transform="translate(654.6875 0)"/>
     <use xlink:href="#DejaVuSans-64" transform="translate(682.470703 0)"/>
    </g>
   </g>
  </g>
 </g>
 <defs>
  <clipPath id="pce7d9e165f">
   <rect x="7.2" y="7.2" width="636.96179" height="323.380601"/>
  </clipPath>
 </defs>
</svg>
