<?xml version="1.0" encoding="utf-8" standalone="no"?>
<!DOCTYPE svg PUBLIC "-//W3C//DTD SVG 1.1//EN"
  "http://www.w3.org/Graphics/SVG/1.1/DTD/svg11.dtd">
<svg xmlns:xlink="http://www.w3.org/1999/xlink" width="561.77024pt" height="352.242187pt" viewBox="0 0 561.77024 352.242187" xmlns="http://www.w3.org/2000/svg" version="1.1">
 <metadata>
  <rdf:RDF xmlns:dc="http://purl.org/dc/elements/1.1/" xmlns:cc="http://creativecommons.org/ns#" xmlns:rdf="http://www.w3.org/1999/02/22-rdf-syntax-ns#">
   <cc:Work>
    <dc:type rdf:resource="http://purl.org/dc/dcmitype/StillImage"/>
    <dc:date>2026-06-15T22:09:47.227214</dc:date>
    <dc:format>image/svg+xml</dc:format>
    <dc:creator>
     <cc:Agent>
      <dc:title>Matplotlib v3.10.8, https://matplotlib.org/</dc:title>
     </cc:Agent>
    </dc:creator>
   </cc:Work>
  </rdf:RDF>
 </metadata>
 <defs>
  <style type="text/css">*{stroke-linejoin: round; stroke-linecap: butt}</style>
 </defs>
 <g id="figure_1">
  <g id="patch_1">
   <path d="M 0 352.242187 
L 561.77024 352.242187 
L 561.77024 0 
L 0 0 
z
" style="fill: #ffffff"/>
  </g>
  <g id="axes_1">
   <g id="patch_2">
    <path d="M 41.570938 313.718125 
L 554.316072 313.718125 
L 554.316072 22.318125 
L 41.570938 22.318125 
z
" style="fill: #ffffff"/>
   </g>
   <g id="matplotlib.axis_1">
    <g id="xtick_1">
     <g id="line2d_1">
      <path d="M 41.570938 313.718125 
L 41.570938 22.318125 
" clip-path="url(#p561a3bda14)" style="fill: none; stroke-dasharray: 2.96,1.28; stroke-dashoffset: 0; stroke: #b0b0b0; stroke-opacity: 0.4; stroke-width: 0.8"/>
     </g>
     <g id="line2d_2">
      <defs>
       <path id="m0c5e97d4b9" d="M 0 0 
L 0 3.5 
" style="stroke: #000000; stroke-width: 0.8"/>
      </defs>
      <g>
       <use xlink:href="#m0c5e97d4b9" x="41.570938" y="313.718125" style="stroke: #000000; stroke-width: 0.8"/>
      </g>
     </g>
     <g id="text_1">
      <!-- 0 -->
      <g transform="translate(38.389688 328.316562) scale(0.1 -0.1)">
       <defs>
        <path id="DejaVuSans-30" d="M 2034 4250 
Q 1547 4250 1301 3770 
Q 1056 3291 1056 2328 
Q 1056 1369 1301 889 
Q 1547 409 2034 409 
Q 2525 409 2770 889 
Q 3016 1369 3016 2328 
Q 3016 3291 2770 3770 
Q 2525 4250 2034 4250 
z
M 2034 4750 
Q 2819 4750 3233 4129 
Q 3647 3509 3647 2328 
Q 3647 1150 3233 529 
Q 2819 -91 2034 -91 
Q 1250 -91 836 529 
Q 422 1150 422 2328 
Q 422 3509 836 4129 
Q 1250 4750 2034 4750 
z
" transform="scale(0.015625)"/>
       </defs>
       <use xlink:href="#DejaVuSans-30"/>
      </g>
     </g>
    </g>
    <g id="xtick_2">
     <g id="line2d_3">
      <path d="M 140.175771 313.718125 
L 140.175771 22.318125 
" clip-path="url(#p561a3bda14)" style="fill: none; stroke-dasharray: 2.96,1.28; stroke-dashoffset: 0; stroke: #b0b0b0; stroke-opacity: 0.4; stroke-width: 0.8"/>
     </g>
     <g id="line2d_4">
      <g>
       <use xlink:href="#m0c5e97d4b9" x="140.175771" y="313.718125" style="stroke: #000000; stroke-width: 0.8"/>
      </g>
     </g>
     <g id="text_2">
      <!-- 50 -->
      <g transform="translate(133.813271 328.316562) scale(0.1 -0.1)">
       <defs>
        <path id="DejaVuSans-35" d="M 691 4666 
L 3169 4666 
L 3169 4134 
L 1269 4134 
L 1269 2991 
Q 1406 3038 1543 3061 
Q 1681 3084 1819 3084 
Q 2600 3084 3056 2656 
Q 3513 2228 3513 1497 
Q 3513 744 3044 326 
Q 2575 -91 1722 -91 
Q 1428 -91 1123 -41 
Q 819 9 494 109 
L 494 744 
Q 775 591 1075 516 
Q 1375 441 1709 441 
Q 2250 441 2565 725 
Q 2881 1009 2881 1497 
Q 2881 1984 2565 2268 
Q 2250 2553 1709 2553 
Q 1456 2553 1204 2497 
Q 953 2441 691 2322 
L 691 4666 
z
" transform="scale(0.015625)"/>
       </defs>
       <use xlink:href="#DejaVuSans-35"/>
       <use xlink:href="#DejaVuSans-30" transform="translate(63.623047 0)"/>
      </g>
     </g>
    </g>
    <g id="xtick_3">
     <g id="line2d_5">
      <path d="M 238.780605 313.718125 
L 238.780605 22.318125 
" clip-path="url(#p561a3bda14)" style="fill: none; stroke-dasharray: 2.96,1.28; stroke-dashoffset: 0; stroke: #b0b0b0; stroke-opacity: 0.4; stroke-width: 0.8"/>
     </g>
     <g id="line2d_6">
      <g>
       <use xlink:href="#m0c5e97d4b9" x="238.780605" y="313.718125" style="stroke: #000000; stroke-width: 0.8"/>
      </g>
     </g>
     <g id="text_3">
      <!-- 100 -->
      <g transform="translate(229.236855 328.316562) scale(0.1 -0.1)">
       <defs>
        <path id="DejaVuSans-31" d="M 794 531 
L 1825 531 
L 1825 4091 
L 703 3866 
L 703 4441 
L 1819 4666 
L 2450 4666 
L 2450 531 
L 3481 531 
L 3481 0 
L 794 0 
L 794 531 
z
" transform="scale(0.015625)"/>
       </defs>
       <use xlink:href="#DejaVuSans-31"/>
       <use xlink:href="#DejaVuSans-30" transform="translate(63.623047 0)"/>
       <use xlink:href="#DejaVuSans-30" transform="translate(127.246094 0)"/>
      </g>
     </g>
    </g>
    <g id="xtick_4">
     <g id="line2d_7">
      <path d="M 337.385438 313.718125 
L 337.385438 22.318125 
" clip-path="url(#p561a3bda14)" style="fill: none; stroke-dasharray: 2.96,1.28; stroke-dashoffset: 0; stroke: #b0b0b0; stroke-opacity: 0.4; stroke-width: 0.8"/>
     </g>
     <g id="line2d_8">
      <g>
       <use xlink:href="#m0c5e97d4b9" x="337.385438" y="313.718125" style="stroke: #000000; stroke-width: 0.8"/>
      </g>
     </g>
     <g id="text_4">
      <!-- 150 -->
      <g transform="translate(327.841688 328.316562) scale(0.1 -0.1)">
       <use xlink:href="#DejaVuSans-31"/>
       <use xlink:href="#DejaVuSans-35" transform="translate(63.623047 0)"/>
       <use xlink:href="#DejaVuSans-30" transform="translate(127.246094 0)"/>
      </g>
     </g>
    </g>
    <g id="xtick_5">
     <g id="line2d_9">
      <path d="M 435.990272 313.718125 
L 435.990272 22.318125 
" clip-path="url(#p561a3bda14)" style="fill: none; stroke-dasharray: 2.96,1.28; stroke-dashoffset: 0; stroke: #b0b0b0; stroke-opacity: 0.4; stroke-width: 0.8"/>
     </g>
     <g id="line2d_10">
      <g>
       <use xlink:href="#m0c5e97d4b9" x="435.990272" y="313.718125" style="stroke: #000000; stroke-width: 0.8"/>
      </g>
     </g>
     <g id="text_5">
      <!-- 200 -->
      <g transform="translate(426.446522 328.316562) scale(0.1 -0.1)">
       <defs>
        <path id="DejaVuSans-32" d="M 1228 531 
L 3431 531 
L 3431 0 
L 469 0 
L 469 531 
Q 828 903 1448 1529 
Q 2069 2156 2228 2338 
Q 2531 2678 2651 2914 
Q 2772 3150 2772 3378 
Q 2772 3750 2511 3984 
Q 2250 4219 1831 4219 
Q 1534 4219 1204 4116 
Q 875 4013 500 3803 
L 500 4441 
Q 881 4594 1212 4672 
Q 1544 4750 1819 4750 
Q 2544 4750 2975 4387 
Q 3406 4025 3406 3419 
Q 3406 3131 3298 2873 
Q 3191 2616 2906 2266 
Q 2828 2175 2409 1742 
Q 1991 1309 1228 531 
z
" transform="scale(0.015625)"/>
       </defs>
       <use xlink:href="#DejaVuSans-32"/>
       <use xlink:href="#DejaVuSans-30" transform="translate(63.623047 0)"/>
       <use xlink:href="#DejaVuSans-30" transform="translate(127.246094 0)"/>
      </g>
     </g>
    </g>
    <g id="xtick_6">
     <g id="line2d_11">
      <path d="M 534.595105 313.718125 
L 534.595105 22.318125 
" clip-path="url(#p561a3bda14)" style="fill: none; stroke-dasharray: 2.96,1.28; stroke-dashoffset: 0; stroke: #b0b0b0; stroke-opacity: 0.4; stroke-width: 0.8"/>
     </g>
     <g id="line2d_12">
      <g>
       <use xlink:href="#m0c5e97d4b9" x="534.595105" y="313.718125" style="stroke: #000000; stroke-width: 0.8"/>
      </g>
     </g>
     <g id="text_6">
      <!-- 250 -->
      <g transform="translate(525.051355 328.316562) scale(0.1 -0.1)">
       <use xlink:href="#DejaVuSans-32"/>
       <use xlink:href="#DejaVuSans-35" transform="translate(63.623047 0)"/>
       <use xlink:href="#DejaVuSans-30" transform="translate(127.246094 0)"/>
      </g>
     </g>
    </g>
    <g id="text_7">
     <!-- TV Advertising Budget ($k) -->
     <g transform="translate(223.706395 342.754531) scale(0.11 -0.11)">
      <defs>
       <path id="DejaVuSans-54" d="M -19 4666 
L 3928 4666 
L 3928 4134 
L 2272 4134 
L 2272 0 
L 1638 0 
L 1638 4134 
L -19 4134 
L -19 4666 
z
" transform="scale(0.015625)"/>
       <path id="DejaVuSans-56" d="M 1831 0 
L 50 4666 
L 709 4666 
L 2188 738 
L 3669 4666 
L 4325 4666 
L 2547 0 
L 1831 0 
z
" transform="scale(0.015625)"/>
       <path id="DejaVuSans-20" transform="scale(0.015625)"/>
       <path id="DejaVuSans-41" d="M 2188 4044 
L 1331 1722 
L 3047 1722 
L 2188 4044 
z
M 1831 4666 
L 2547 4666 
L 4325 0 
L 3669 0 
L 3244 1197 
L 1141 1197 
L 716 0 
L 50 0 
L 1831 4666 
z
" transform="scale(0.015625)"/>
       <path id="DejaVuSans-64" d="M 2906 2969 
L 2906 4863 
L 3481 4863 
L 3481 0 
L 2906 0 
L 2906 525 
Q 2725 213 2448 61 
Q 2172 -91 1784 -91 
Q 1150 -91 751 415 
Q 353 922 353 1747 
Q 353 2572 751 3078 
Q 1150 3584 1784 3584 
Q 2172 3584 2448 3432 
Q 2725 3281 2906 2969 
z
M 947 1747 
Q 947 1113 1208 752 
Q 1469 391 1925 391 
Q 2381 391 2643 752 
Q 2906 1113 2906 1747 
Q 2906 2381 2643 2742 
Q 2381 3103 1925 3103 
Q 1469 3103 1208 2742 
Q 947 2381 947 1747 
z
" transform="scale(0.015625)"/>
       <path id="DejaVuSans-76" d="M 191 3500 
L 800 3500 
L 1894 563 
L 2988 3500 
L 3597 3500 
L 2284 0 
L 1503 0 
L 191 3500 
z
" transform="scale(0.015625)"/>
       <path id="DejaVuSans-65" d="M 3597 1894 
L 3597 1613 
L 953 1613 
Q 991 1019 1311 708 
Q 1631 397 2203 397 
Q 2534 397 2845 478 
Q 3156 559 3463 722 
L 3463 178 
Q 3153 47 2828 -22 
Q 2503 -91 2169 -91 
Q 1331 -91 842 396 
Q 353 884 353 1716 
Q 353 2575 817 3079 
Q 1281 3584 2069 3584 
Q 2775 3584 3186 3129 
Q 3597 2675 3597 1894 
z
M 3022 2063 
Q 3016 2534 2758 2815 
Q 2500 3097 2075 3097 
Q 1594 3097 1305 2825 
Q 1016 2553 972 2059 
L 3022 2063 
z
" transform="scale(0.015625)"/>
       <path id="DejaVuSans-72" d="M 2631 2963 
Q 2534 3019 2420 3045 
Q 2306 3072 2169 3072 
Q 1681 3072 1420 2755 
Q 1159 2438 1159 1844 
L 1159 0 
L 581 0 
L 581 3500 
L 1159 3500 
L 1159 2956 
Q 1341 3275 1631 3429 
Q 1922 3584 2338 3584 
Q 2397 3584 2469 3576 
Q 2541 3569 2628 3553 
L 2631 2963 
z
" transform="scale(0.015625)"/>
       <path id="DejaVuSans-74" d="M 1172 4494 
L 1172 3500 
L 2356 3500 
L 2356 3053 
L 1172 3053 
L 1172 1153 
Q 1172 725 1289 603 
Q 1406 481 1766 481 
L 2356 481 
L 2356 0 
L 1766 0 
Q 1100 0 847 248 
Q 594 497 594 1153 
L 594 3053 
L 172 3053 
L 172 3500 
L 594 3500 
L 594 4494 
L 1172 4494 
z
" transform="scale(0.015625)"/>
       <path id="DejaVuSans-69" d="M 603 3500 
L 1178 3500 
L 1178 0 
L 603 0 
L 603 3500 
z
M 603 4863 
L 1178 4863 
L 1178 4134 
L 603 4134 
L 603 4863 
z
" transform="scale(0.015625)"/>
       <path id="DejaVuSans-73" d="M 2834 3397 
L 2834 2853 
Q 2591 2978 2328 3040 
Q 2066 3103 1784 3103 
Q 1356 3103 1142 2972 
Q 928 2841 928 2578 
Q 928 2378 1081 2264 
Q 1234 2150 1697 2047 
L 1894 2003 
Q 2506 1872 2764 1633 
Q 3022 1394 3022 966 
Q 3022 478 2636 193 
Q 2250 -91 1575 -91 
Q 1294 -91 989 -36 
Q 684 19 347 128 
L 347 722 
Q 666 556 975 473 
Q 1284 391 1588 391 
Q 1994 391 2212 530 
Q 2431 669 2431 922 
Q 2431 1156 2273 1281 
Q 2116 1406 1581 1522 
L 1381 1569 
Q 847 1681 609 1914 
Q 372 2147 372 2553 
Q 372 3047 722 3315 
Q 1072 3584 1716 3584 
Q 2034 3584 2315 3537 
Q 2597 3491 2834 3397 
z
" transform="scale(0.015625)"/>
       <path id="DejaVuSans-6e" d="M 3513 2113 
L 3513 0 
L 2938 0 
L 2938 2094 
Q 2938 2591 2744 2837 
Q 2550 3084 2163 3084 
Q 1697 3084 1428 2787 
Q 1159 2491 1159 1978 
L 1159 0 
L 581 0 
L 581 3500 
L 1159 3500 
L 1159 2956 
Q 1366 3272 1645 3428 
Q 1925 3584 2291 3584 
Q 2894 3584 3203 3211 
Q 3513 2838 3513 2113 
z
" transform="scale(0.015625)"/>
       <path id="DejaVuSans-67" d="M 2906 1791 
Q 2906 2416 2648 2759 
Q 2391 3103 1925 3103 
Q 1463 3103 1205 2759 
Q 947 2416 947 1791 
Q 947 1169 1205 825 
Q 1463 481 1925 481 
Q 2391 481 2648 825 
Q 2906 1169 2906 1791 
z
M 3481 434 
Q 3481 -459 3084 -895 
Q 2688 -1331 1869 -1331 
Q 1566 -1331 1297 -1286 
Q 1028 -1241 775 -1147 
L 775 -588 
Q 1028 -725 1275 -790 
Q 1522 -856 1778 -856 
Q 2344 -856 2625 -561 
Q 2906 -266 2906 331 
L 2906 616 
Q 2728 306 2450 153 
Q 2172 0 1784 0 
Q 1141 0 747 490 
Q 353 981 353 1791 
Q 353 2603 747 3093 
Q 1141 3584 1784 3584 
Q 2172 3584 2450 3431 
Q 2728 3278 2906 2969 
L 2906 3500 
L 3481 3500 
L 3481 434 
z
" transform="scale(0.015625)"/>
       <path id="DejaVuSans-42" d="M 1259 2228 
L 1259 519 
L 2272 519 
Q 2781 519 3026 730 
Q 3272 941 3272 1375 
Q 3272 1813 3026 2020 
Q 2781 2228 2272 2228 
L 1259 2228 
z
M 1259 4147 
L 1259 2741 
L 2194 2741 
Q 2656 2741 2882 2914 
Q 3109 3088 3109 3444 
Q 3109 3797 2882 3972 
Q 2656 4147 2194 4147 
L 1259 4147 
z
M 628 4666 
L 2241 4666 
Q 2963 4666 3353 4366 
Q 3744 4066 3744 3513 
Q 3744 3084 3544 2831 
Q 3344 2578 2956 2516 
Q 3422 2416 3680 2098 
Q 3938 1781 3938 1306 
Q 3938 681 3513 340 
Q 3088 0 2303 0 
L 628 0 
L 628 4666 
z
" transform="scale(0.015625)"/>
       <path id="DejaVuSans-75" d="M 544 1381 
L 544 3500 
L 1119 3500 
L 1119 1403 
Q 1119 906 1312 657 
Q 1506 409 1894 409 
Q 2359 409 2629 706 
Q 2900 1003 2900 1516 
L 2900 3500 
L 3475 3500 
L 3475 0 
L 2900 0 
L 2900 538 
Q 2691 219 2414 64 
Q 2138 -91 1772 -91 
Q 1169 -91 856 284 
Q 544 659 544 1381 
z
M 1991 3584 
L 1991 3584 
z
" transform="scale(0.015625)"/>
       <path id="DejaVuSans-28" d="M 1984 4856 
Q 1566 4138 1362 3434 
Q 1159 2731 1159 2009 
Q 1159 1288 1364 580 
Q 1569 -128 1984 -844 
L 1484 -844 
Q 1016 -109 783 600 
Q 550 1309 550 2009 
Q 550 2706 781 3412 
Q 1013 4119 1484 4856 
L 1984 4856 
z
" transform="scale(0.015625)"/>
       <path id="DejaVuSans-24" d="M 2163 -941 
L 1850 -941 
L 1847 0 
Q 1519 6 1191 76 
Q 863 147 531 288 
L 531 850 
Q 850 650 1176 548 
Q 1503 447 1850 444 
L 1850 1869 
Q 1159 1981 845 2250 
Q 531 2519 531 2988 
Q 531 3497 872 3790 
Q 1213 4084 1850 4128 
L 1850 4863 
L 2163 4863 
L 2163 4138 
Q 2453 4125 2725 4076 
Q 2997 4028 3256 3944 
L 3256 3397 
Q 2997 3528 2723 3600 
Q 2450 3672 2163 3684 
L 2163 2350 
Q 2872 2241 3206 1959 
Q 3541 1678 3541 1191 
Q 3541 663 3186 358 
Q 2831 53 2163 6 
L 2163 -941 
z
M 1850 2406 
L 1850 3688 
Q 1488 3647 1297 3481 
Q 1106 3316 1106 3041 
Q 1106 2772 1282 2622 
Q 1459 2472 1850 2406 
z
M 2163 1806 
L 2163 453 
Q 2559 506 2761 678 
Q 2963 850 2963 1131 
Q 2963 1406 2770 1568 
Q 2578 1731 2163 1806 
z
" transform="scale(0.015625)"/>
       <path id="DejaVuSans-6b" d="M 581 4863 
L 1159 4863 
L 1159 1991 
L 2875 3500 
L 3609 3500 
L 1753 1863 
L 3688 0 
L 2938 0 
L 1159 1709 
L 1159 0 
L 581 0 
L 581 4863 
z
" transform="scale(0.015625)"/>
       <path id="DejaVuSans-29" d="M 513 4856 
L 1013 4856 
Q 1481 4119 1714 3412 
Q 1947 2706 1947 2009 
Q 1947 1309 1714 600 
Q 1481 -109 1013 -844 
L 513 -844 
Q 928 -128 1133 580 
Q 1338 1288 1338 2009 
Q 1338 2731 1133 3434 
Q 928 4138 513 4856 
z
" transform="scale(0.015625)"/>
      </defs>
      <use xlink:href="#DejaVuSans-54"/>
      <use xlink:href="#DejaVuSans-56" transform="translate(61.083984 0)"/>
      <use xlink:href="#DejaVuSans-20" transform="translate(129.492188 0)"/>
      <use xlink:href="#DejaVuSans-41" transform="translate(161.279297 0)"/>
      <use xlink:href="#DejaVuSans-64" transform="translate(227.9375 0)"/>
      <use xlink:href="#DejaVuSans-76" transform="translate(291.414062 0)"/>
      <use xlink:href="#DejaVuSans-65" transform="translate(350.59375 0)"/>
      <use xlink:href="#DejaVuSans-72" transform="translate(412.117188 0)"/>
      <use xlink:href="#DejaVuSans-74" transform="translate(453.230469 0)"/>
      <use xlink:href="#DejaVuSans-69" transform="translate(492.439453 0)"/>
      <use xlink:href="#DejaVuSans-73" transform="translate(520.222656 0)"/>
      <use xlink:href="#DejaVuSans-69" transform="translate(572.322266 0)"/>
      <use xlink:href="#DejaVuSans-6e" transform="translate(600.105469 0)"/>
      <use xlink:href="#DejaVuSans-67" transform="translate(663.484375 0)"/>
      <use xlink:href="#DejaVuSans-20" transform="translate(726.960938 0)"/>
      <use xlink:href="#DejaVuSans-42" transform="translate(758.748047 0)"/>
      <use xlink:href="#DejaVuSans-75" transform="translate(827.351562 0)"/>
      <use xlink:href="#DejaVuSans-64" transform="translate(890.730469 0)"/>
      <use xlink:href="#DejaVuSans-67" transform="translate(954.207031 0)"/>
      <use xlink:href="#DejaVuSans-65" transform="translate(1017.683594 0)"/>
      <use xlink:href="#DejaVuSans-74" transform="translate(1079.207031 0)"/>
      <use xlink:href="#DejaVuSans-20" transform="translate(1118.416016 0)"/>
      <use xlink:href="#DejaVuSans-28" transform="translate(1150.203125 0)"/>
      <use xlink:href="#DejaVuSans-24" transform="translate(1189.216797 0)"/>
      <use xlink:href="#DejaVuSans-6b" transform="translate(1252.839844 0)"/>
      <use xlink:href="#DejaVuSans-29" transform="translate(1310.75 0)"/>
     </g>
    </g>
   </g>
   <g id="matplotlib.axis_2">
    <g id="ytick_1">
     <g id="line2d_13">
      <path d="M 41.570938 313.718125 
L 554.316072 313.718125 
" clip-path="url(#p561a3bda14)" style="fill: none; stroke-dasharray: 2.96,1.28; stroke-dashoffset: 0; stroke: #b0b0b0; stroke-opacity: 0.4; stroke-width: 0.8"/>
     </g>
     <g id="line2d_14">
      <defs>
       <path id="mf4ab53dd72" d="M 0 0 
L -3.5 0 
" style="stroke: #000000; stroke-width: 0.8"/>
      </defs>
      <g>
       <use xlink:href="#mf4ab53dd72" x="41.570938" y="313.718125" style="stroke: #000000; stroke-width: 0.8"/>
      </g>
     </g>
     <g id="text_8">
      <!-- 0 -->
      <g transform="translate(28.208438 317.517344) scale(0.1 -0.1)">
       <use xlink:href="#DejaVuSans-30"/>
      </g>
     </g>
    </g>
    <g id="ytick_2">
     <g id="line2d_15">
      <path d="M 41.570938 261.682411 
L 554.316072 261.682411 
" clip-path="url(#p561a3bda14)" style="fill: none; stroke-dasharray: 2.96,1.28; stroke-dashoffset: 0; stroke: #b0b0b0; stroke-opacity: 0.4; stroke-width: 0.8"/>
     </g>
     <g id="line2d_16">
      <g>
       <use xlink:href="#mf4ab53dd72" x="41.570938" y="261.682411" style="stroke: #000000; stroke-width: 0.8"/>
      </g>
     </g>
     <g id="text_9">
      <!-- 5 -->
      <g transform="translate(28.208438 265.481629) scale(0.1 -0.1)">
       <use xlink:href="#DejaVuSans-35"/>
      </g>
     </g>
    </g>
    <g id="ytick_3">
     <g id="line2d_17">
      <path d="M 41.570938 209.646696 
L 554.316072 209.646696 
" clip-path="url(#p561a3bda14)" style="fill: none; stroke-dasharray: 2.96,1.28; stroke-dashoffset: 0; stroke: #b0b0b0; stroke-opacity: 0.4; stroke-width: 0.8"/>
     </g>
     <g id="line2d_18">
      <g>
       <use xlink:href="#mf4ab53dd72" x="41.570938" y="209.646696" style="stroke: #000000; stroke-width: 0.8"/>
      </g>
     </g>
     <g id="text_10">
      <!-- 10 -->
      <g transform="translate(21.845938 213.445915) scale(0.1 -0.1)">
       <use xlink:href="#DejaVuSans-31"/>
       <use xlink:href="#DejaVuSans-30" transform="translate(63.623047 0)"/>
      </g>
     </g>
    </g>
    <g id="ytick_4">
     <g id="line2d_19">
      <path d="M 41.570938 157.610982 
L 554.316072 157.610982 
" clip-path="url(#p561a3bda14)" style="fill: none; stroke-dasharray: 2.96,1.28; stroke-dashoffset: 0; stroke: #b0b0b0; stroke-opacity: 0.4; stroke-width: 0.8"/>
     </g>
     <g id="line2d_20">
      <g>
       <use xlink:href="#mf4ab53dd72" x="41.570938" y="157.610982" style="stroke: #000000; stroke-width: 0.8"/>
      </g>
     </g>
     <g id="text_11">
      <!-- 15 -->
      <g transform="translate(21.845938 161.410201) scale(0.1 -0.1)">
       <use xlink:href="#DejaVuSans-31"/>
       <use xlink:href="#DejaVuSans-35" transform="translate(63.623047 0)"/>
      </g>
     </g>
    </g>
    <g id="ytick_5">
     <g id="line2d_21">
      <path d="M 41.570938 105.575268 
L 554.316072 105.575268 
" clip-path="url(#p561a3bda14)" style="fill: none; stroke-dasharray: 2.96,1.28; stroke-dashoffset: 0; stroke: #b0b0b0; stroke-opacity: 0.4; stroke-width: 0.8"/>
     </g>
     <g id="line2d_22">
      <g>
       <use xlink:href="#mf4ab53dd72" x="41.570938" y="105.575268" style="stroke: #000000; stroke-width: 0.8"/>
      </g>
     </g>
     <g id="text_12">
      <!-- 20 -->
      <g transform="translate(21.845938 109.374487) scale(0.1 -0.1)">
       <use xlink:href="#DejaVuSans-32"/>
       <use xlink:href="#DejaVuSans-30" transform="translate(63.623047 0)"/>
      </g>
     </g>
    </g>
    <g id="ytick_6">
     <g id="line2d_23">
      <path d="M 41.570938 53.539554 
L 554.316072 53.539554 
" clip-path="url(#p561a3bda14)" style="fill: none; stroke-dasharray: 2.96,1.28; stroke-dashoffset: 0; stroke: #b0b0b0; stroke-opacity: 0.4; stroke-width: 0.8"/>
     </g>
     <g id="line2d_24">
      <g>
       <use xlink:href="#mf4ab53dd72" x="41.570938" y="53.539554" style="stroke: #000000; stroke-width: 0.8"/>
      </g>
     </g>
     <g id="text_13">
      <!-- 25 -->
      <g transform="translate(21.845938 57.338772) scale(0.1 -0.1)">
       <use xlink:href="#DejaVuSans-32"/>
       <use xlink:href="#DejaVuSans-35" transform="translate(63.623047 0)"/>
      </g>
     </g>
    </g>
    <g id="text_14">
     <!-- Sales (units) -->
     <g transform="translate(15.558281 202.217812) rotate(-90) scale(0.11 -0.11)">
      <defs>
       <path id="DejaVuSans-53" d="M 3425 4513 
L 3425 3897 
Q 3066 4069 2747 4153 
Q 2428 4238 2131 4238 
Q 1616 4238 1336 4038 
Q 1056 3838 1056 3469 
Q 1056 3159 1242 3001 
Q 1428 2844 1947 2747 
L 2328 2669 
Q 3034 2534 3370 2195 
Q 3706 1856 3706 1288 
Q 3706 609 3251 259 
Q 2797 -91 1919 -91 
Q 1588 -91 1214 -16 
Q 841 59 441 206 
L 441 856 
Q 825 641 1194 531 
Q 1563 422 1919 422 
Q 2459 422 2753 634 
Q 3047 847 3047 1241 
Q 3047 1584 2836 1778 
Q 2625 1972 2144 2069 
L 1759 2144 
Q 1053 2284 737 2584 
Q 422 2884 422 3419 
Q 422 4038 858 4394 
Q 1294 4750 2059 4750 
Q 2388 4750 2728 4690 
Q 3069 4631 3425 4513 
z
" transform="scale(0.015625)"/>
       <path id="DejaVuSans-61" d="M 2194 1759 
Q 1497 1759 1228 1600 
Q 959 1441 959 1056 
Q 959 750 1161 570 
Q 1363 391 1709 391 
Q 2188 391 2477 730 
Q 2766 1069 2766 1631 
L 2766 1759 
L 2194 1759 
z
M 3341 1997 
L 3341 0 
L 2766 0 
L 2766 531 
Q 2569 213 2275 61 
Q 1981 -91 1556 -91 
Q 1019 -91 701 211 
Q 384 513 384 1019 
Q 384 1609 779 1909 
Q 1175 2209 1959 2209 
L 2766 2209 
L 2766 2266 
Q 2766 2663 2505 2880 
Q 2244 3097 1772 3097 
Q 1472 3097 1187 3025 
Q 903 2953 641 2809 
L 641 3341 
Q 956 3463 1253 3523 
Q 1550 3584 1831 3584 
Q 2591 3584 2966 3190 
Q 3341 2797 3341 1997 
z
" transform="scale(0.015625)"/>
       <path id="DejaVuSans-6c" d="M 603 4863 
L 1178 4863 
L 1178 0 
L 603 0 
L 603 4863 
z
" transform="scale(0.015625)"/>
      </defs>
      <use xlink:href="#DejaVuSans-53"/>
      <use xlink:href="#DejaVuSans-61" transform="translate(63.476562 0)"/>
      <use xlink:href="#DejaVuSans-6c" transform="translate(124.755859 0)"/>
      <use xlink:href="#DejaVuSans-65" transform="translate(152.539062 0)"/>
      <use xlink:href="#DejaVuSans-73" transform="translate(214.0625 0)"/>
      <use xlink:href="#DejaVuSans-20" transform="translate(266.162109 0)"/>
      <use xlink:href="#DejaVuSans-28" transform="translate(297.949219 0)"/>
      <use xlink:href="#DejaVuSans-75" transform="translate(336.962891 0)"/>
      <use xlink:href="#DejaVuSans-6e" transform="translate(400.341797 0)"/>
      <use xlink:href="#DejaVuSans-69" transform="translate(463.720703 0)"/>
      <use xlink:href="#DejaVuSans-74" transform="translate(491.503906 0)"/>
      <use xlink:href="#DejaVuSans-73" transform="translate(530.712891 0)"/>
      <use xlink:href="#DejaVuSans-29" transform="translate(582.8125 0)"/>
     </g>
    </g>
   </g>
   <g id="line2d_25">
    <path d="M 41.570938 240.528919 
L 47.546988 239.029766 
L 53.523039 237.530613 
L 59.499089 236.031459 
L 65.47514 234.532306 
L 71.45119 233.033152 
L 77.427241 231.533999 
L 83.403291 230.034846 
L 89.379342 228.535692 
L 95.355392 227.036539 
L 101.331443 225.537386 
L 107.307493 224.038232 
L 113.283544 222.539079 
L 119.259594 221.039926 
L 125.235645 219.540772 
L 131.211695 218.041619 
L 137.187746 216.542466 
L 143.163796 215.043312 
L 149.139847 213.544159 
L 155.115897 212.045005 
L 161.091948 210.545852 
L 167.067998 209.046699 
L 173.044049 207.547545 
L 179.020099 206.048392 
L 184.99615 204.549239 
L 190.9722 203.050085 
L 196.948251 201.550932 
L 202.924302 200.051779 
L 208.900352 198.552625 
L 214.876403 197.053472 
L 220.852453 195.554319 
L 226.828504 194.055165 
L 232.804554 192.556012 
L 238.780605 191.056858 
L 244.756655 189.557705 
L 250.732706 188.058552 
L 256.708756 186.559398 
L 262.684807 185.060245 
L 268.660857 183.561092 
L 274.636908 182.061938 
L 280.612958 180.562785 
L 286.589009 179.063632 
L 292.565059 177.564478 
L 298.54111 176.065325 
L 304.51716 174.566172 
L 310.493211 173.067018 
L 316.469261 171.567865 
L 322.445312 170.068711 
L 328.421362 168.569558 
L 334.397413 167.070405 
L 340.373463 165.571251 
L 346.349514 164.072098 
L 352.325565 162.572945 
L 358.301615 161.073791 
L 364.277666 159.574638 
L 370.253716 158.075485 
L 376.229767 156.576331 
L 382.205817 155.077178 
L 388.181868 153.578025 
L 394.157918 152.078871 
L 400.133969 150.579718 
L 406.110019 149.080564 
L 412.08607 147.581411 
L 418.06212 146.082258 
L 424.038171 144.583104 
L 430.014221 143.083951 
L 435.990272 141.584798 
L 441.966322 140.085644 
L 447.942373 138.586491 
L 453.918423 137.087338 
L 459.894474 135.588184 
L 465.870524 134.089031 
L 471.846575 132.589878 
L 477.822625 131.090724 
L 483.798676 129.591571 
L 489.774726 128.092417 
L 495.750777 126.593264 
L 501.726828 125.094111 
L 507.702878 123.594957 
L 513.678929 122.095804 
L 519.654979 120.596651 
L 525.63103 119.097497 
L 531.60708 117.598344 
L 537.583131 116.099191 
L 543.559181 114.600037 
L 549.535232 113.100884 
L 555.511282 111.601731 
L 561.487333 110.102577 
L 562.77024 109.780747 
" clip-path="url(#p561a3bda14)" style="fill: none; stroke: #2e8b57; stroke-width: 2; stroke-linecap: square"/>
   </g>
   <g id="line2d_26">
    <path d="M 495.350382 83.720268 
L 495.350382 126.693707 
" clip-path="url(#p561a3bda14)" style="fill: none; stroke-dasharray: 7.4,3.2; stroke-dashoffset: 0; stroke: #cc0000; stroke-opacity: 0.8; stroke-width: 2"/>
   </g>
   <g id="line2d_27">
    <path d="M 129.329239 205.483839 
L 129.329239 218.513852 
" clip-path="url(#p561a3bda14)" style="fill: none; stroke-dasharray: 7.4,3.2; stroke-dashoffset: 0; stroke: #cc0000; stroke-opacity: 0.8; stroke-width: 2"/>
   </g>
   <g id="line2d_28">
    <path d="M 75.491 216.931696 
L 75.491 232.019725 
" clip-path="url(#p561a3bda14)" style="fill: none; stroke-dasharray: 7.4,3.2; stroke-dashoffset: 0; stroke: #cc0000; stroke-opacity: 0.8; stroke-width: 2"/>
   </g>
   <g id="line2d_29">
    <path d="M 340.343583 121.185982 
L 340.343583 165.578747 
" clip-path="url(#p561a3bda14)" style="fill: none; stroke-dasharray: 7.4,3.2; stroke-dashoffset: 0; stroke: #cc0000; stroke-opacity: 0.8; stroke-width: 2"/>
   </g>
   <g id="line2d_30">
    <path d="M 398.126016 179.465982 
L 398.126016 151.083433 
" clip-path="url(#p561a3bda14)" style="fill: none; stroke-dasharray: 7.4,3.2; stroke-dashoffset: 0; stroke: #cc0000; stroke-opacity: 0.8; stroke-width: 2"/>
   </g>
   <g id="patch_3">
    <path d="M 41.570938 313.718125 
L 41.570938 22.318125 
" style="fill: none; stroke: #000000; stroke-width: 0.8; stroke-linejoin: miter; stroke-linecap: square"/>
   </g>
   <g id="patch_4">
    <path d="M 554.316072 313.718125 
L 554.316072 22.318125 
" style="fill: none; stroke: #000000; stroke-width: 0.8; stroke-linejoin: miter; stroke-linecap: square"/>
   </g>
   <g id="patch_5">
    <path d="M 41.570938 313.718125 
L 554.316072 313.718125 
" style="fill: none; stroke: #000000; stroke-width: 0.8; stroke-linejoin: miter; stroke-linecap: square"/>
   </g>
   <g id="patch_6">
    <path d="M 41.570938 22.318125 
L 554.316072 22.318125 
" style="fill: none; stroke: #000000; stroke-width: 0.8; stroke-linejoin: miter; stroke-linecap: square"/>
   </g>
   <g id="text_15">
    <!-- error = 4.1 -->
    <g style="fill: #cc0000" transform="translate(505.210865 105.206988) scale(0.09 -0.09)">
     <defs>
      <path id="DejaVuSans-6f" d="M 1959 3097 
Q 1497 3097 1228 2736 
Q 959 2375 959 1747 
Q 959 1119 1226 758 
Q 1494 397 1959 397 
Q 2419 397 2687 759 
Q 2956 1122 2956 1747 
Q 2956 2369 2687 2733 
Q 2419 3097 1959 3097 
z
M 1959 3584 
Q 2709 3584 3137 3096 
Q 3566 2609 3566 1747 
Q 3566 888 3137 398 
Q 2709 -91 1959 -91 
Q 1206 -91 779 398 
Q 353 888 353 1747 
Q 353 2609 779 3096 
Q 1206 3584 1959 3584 
z
" transform="scale(0.015625)"/>
      <path id="DejaVuSans-3d" d="M 678 2906 
L 4684 2906 
L 4684 2381 
L 678 2381 
L 678 2906 
z
M 678 1631 
L 4684 1631 
L 4684 1100 
L 678 1100 
L 678 1631 
z
" transform="scale(0.015625)"/>
      <path id="DejaVuSans-34" d="M 2419 4116 
L 825 1625 
L 2419 1625 
L 2419 4116 
z
M 2253 4666 
L 3047 4666 
L 3047 1625 
L 3713 1625 
L 3713 1100 
L 3047 1100 
L 3047 0 
L 2419 0 
L 2419 1100 
L 313 1100 
L 313 1709 
L 2253 4666 
z
" transform="scale(0.015625)"/>
      <path id="DejaVuSans-2e" d="M 684 794 
L 1344 794 
L 1344 0 
L 684 0 
L 684 794 
z
" transform="scale(0.015625)"/>
     </defs>
     <use xlink:href="#DejaVuSans-65"/>
     <use xlink:href="#DejaVuSans-72" transform="translate(61.523438 0)"/>
     <use xlink:href="#DejaVuSans-72" transform="translate(100.886719 0)"/>
     <use xlink:href="#DejaVuSans-6f" transform="translate(139.75 0)"/>
     <use xlink:href="#DejaVuSans-72" transform="translate(200.931641 0)"/>
     <use xlink:href="#DejaVuSans-20" transform="translate(242.044922 0)"/>
     <use xlink:href="#DejaVuSans-3d" transform="translate(273.832031 0)"/>
     <use xlink:href="#DejaVuSans-20" transform="translate(357.621094 0)"/>
     <use xlink:href="#DejaVuSans-34" transform="translate(389.408203 0)"/>
     <use xlink:href="#DejaVuSans-2e" transform="translate(453.03125 0)"/>
     <use xlink:href="#DejaVuSans-31" transform="translate(484.818359 0)"/>
    </g>
   </g>
   <g id="text_16">
    <!-- error = 1.3 -->
    <g style="fill: #cc0000" transform="translate(139.189723 211.998846) scale(0.09 -0.09)">
     <defs>
      <path id="DejaVuSans-33" d="M 2597 2516 
Q 3050 2419 3304 2112 
Q 3559 1806 3559 1356 
Q 3559 666 3084 287 
Q 2609 -91 1734 -91 
Q 1441 -91 1130 -33 
Q 819 25 488 141 
L 488 750 
Q 750 597 1062 519 
Q 1375 441 1716 441 
Q 2309 441 2620 675 
Q 2931 909 2931 1356 
Q 2931 1769 2642 2001 
Q 2353 2234 1838 2234 
L 1294 2234 
L 1294 2753 
L 1863 2753 
Q 2328 2753 2575 2939 
Q 2822 3125 2822 3475 
Q 2822 3834 2567 4026 
Q 2313 4219 1838 4219 
Q 1578 4219 1281 4162 
Q 984 4106 628 3988 
L 628 4550 
Q 988 4650 1302 4700 
Q 1616 4750 1894 4750 
Q 2613 4750 3031 4423 
Q 3450 4097 3450 3541 
Q 3450 3153 3228 2886 
Q 3006 2619 2597 2516 
z
" transform="scale(0.015625)"/>
     </defs>
     <use xlink:href="#DejaVuSans-65"/>
     <use xlink:href="#DejaVuSans-72" transform="translate(61.523438 0)"/>
     <use xlink:href="#DejaVuSans-72" transform="translate(100.886719 0)"/>
     <use xlink:href="#DejaVuSans-6f" transform="translate(139.75 0)"/>
     <use xlink:href="#DejaVuSans-72" transform="translate(200.931641 0)"/>
     <use xlink:href="#DejaVuSans-20" transform="translate(242.044922 0)"/>
     <use xlink:href="#DejaVuSans-3d" transform="translate(273.832031 0)"/>
     <use xlink:href="#DejaVuSans-20" transform="translate(357.621094 0)"/>
     <use xlink:href="#DejaVuSans-31" transform="translate(389.408203 0)"/>
     <use xlink:href="#DejaVuSans-2e" transform="translate(453.03125 0)"/>
     <use xlink:href="#DejaVuSans-33" transform="translate(484.818359 0)"/>
    </g>
   </g>
   <g id="text_17">
    <!-- error = 1.4 -->
    <g style="fill: #cc0000" transform="translate(85.351484 224.475711) scale(0.09 -0.09)">
     <use xlink:href="#DejaVuSans-65"/>
     <use xlink:href="#DejaVuSans-72" transform="translate(61.523438 0)"/>
     <use xlink:href="#DejaVuSans-72" transform="translate(100.886719 0)"/>
     <use xlink:href="#DejaVuSans-6f" transform="translate(139.75 0)"/>
     <use xlink:href="#DejaVuSans-72" transform="translate(200.931641 0)"/>
     <use xlink:href="#DejaVuSans-20" transform="translate(242.044922 0)"/>
     <use xlink:href="#DejaVuSans-3d" transform="translate(273.832031 0)"/>
     <use xlink:href="#DejaVuSans-20" transform="translate(357.621094 0)"/>
     <use xlink:href="#DejaVuSans-31" transform="translate(389.408203 0)"/>
     <use xlink:href="#DejaVuSans-2e" transform="translate(453.03125 0)"/>
     <use xlink:href="#DejaVuSans-34" transform="translate(484.818359 0)"/>
    </g>
   </g>
   <g id="text_18">
    <!-- error = 4.3 -->
    <g style="fill: #cc0000" transform="translate(350.204067 143.382365) scale(0.09 -0.09)">
     <use xlink:href="#DejaVuSans-65"/>
     <use xlink:href="#DejaVuSans-72" transform="translate(61.523438 0)"/>
     <use xlink:href="#DejaVuSans-72" transform="translate(100.886719 0)"/>
     <use xlink:href="#DejaVuSans-6f" transform="translate(139.75 0)"/>
     <use xlink:href="#DejaVuSans-72" transform="translate(200.931641 0)"/>
     <use xlink:href="#DejaVuSans-20" transform="translate(242.044922 0)"/>
     <use xlink:href="#DejaVuSans-3d" transform="translate(273.832031 0)"/>
     <use xlink:href="#DejaVuSans-20" transform="translate(357.621094 0)"/>
     <use xlink:href="#DejaVuSans-34" transform="translate(389.408203 0)"/>
     <use xlink:href="#DejaVuSans-2e" transform="translate(453.03125 0)"/>
     <use xlink:href="#DejaVuSans-33" transform="translate(484.818359 0)"/>
    </g>
   </g>
   <g id="text_19">
    <!-- error = -2.7 -->
    <g style="fill: #cc0000" transform="translate(407.986499 165.274708) scale(0.09 -0.09)">
     <defs>
      <path id="DejaVuSans-2d" d="M 313 2009 
L 1997 2009 
L 1997 1497 
L 313 1497 
L 313 2009 
z
" transform="scale(0.015625)"/>
      <path id="DejaVuSans-37" d="M 525 4666 
L 3525 4666 
L 3525 4397 
L 1831 0 
L 1172 0 
L 2766 4134 
L 525 4134 
L 525 4666 
z
" transform="scale(0.015625)"/>
     </defs>
     <use xlink:href="#DejaVuSans-65"/>
     <use xlink:href="#DejaVuSans-72" transform="translate(61.523438 0)"/>
     <use xlink:href="#DejaVuSans-72" transform="translate(100.886719 0)"/>
     <use xlink:href="#DejaVuSans-6f" transform="translate(139.75 0)"/>
     <use xlink:href="#DejaVuSans-72" transform="translate(200.931641 0)"/>
     <use xlink:href="#DejaVuSans-20" transform="translate(242.044922 0)"/>
     <use xlink:href="#DejaVuSans-3d" transform="translate(273.832031 0)"/>
     <use xlink:href="#DejaVuSans-20" transform="translate(357.621094 0)"/>
     <use xlink:href="#DejaVuSans-2d" transform="translate(389.408203 0)"/>
     <use xlink:href="#DejaVuSans-32" transform="translate(425.492188 0)"/>
     <use xlink:href="#DejaVuSans-2e" transform="translate(489.115234 0)"/>
     <use xlink:href="#DejaVuSans-37" transform="translate(520.902344 0)"/>
    </g>
   </g>
   <g id="text_20">
    <!-- The error is the vertical distance between actual and predicted -->
    <g style="fill: #808080" transform="translate(108.49538 16.318125) scale(0.12 -0.12)">
     <defs>
      <path id="DejaVuSans-68" d="M 3513 2113 
L 3513 0 
L 2938 0 
L 2938 2094 
Q 2938 2591 2744 2837 
Q 2550 3084 2163 3084 
Q 1697 3084 1428 2787 
Q 1159 2491 1159 1978 
L 1159 0 
L 581 0 
L 581 4863 
L 1159 4863 
L 1159 2956 
Q 1366 3272 1645 3428 
Q 1925 3584 2291 3584 
Q 2894 3584 3203 3211 
Q 3513 2838 3513 2113 
z
" transform="scale(0.015625)"/>
      <path id="DejaVuSans-63" d="M 3122 3366 
L 3122 2828 
Q 2878 2963 2633 3030 
Q 2388 3097 2138 3097 
Q 1578 3097 1268 2742 
Q 959 2388 959 1747 
Q 959 1106 1268 751 
Q 1578 397 2138 397 
Q 2388 397 2633 464 
Q 2878 531 3122 666 
L 3122 134 
Q 2881 22 2623 -34 
Q 2366 -91 2075 -91 
Q 1284 -91 818 406 
Q 353 903 353 1747 
Q 353 2603 823 3093 
Q 1294 3584 2113 3584 
Q 2378 3584 2631 3529 
Q 2884 3475 3122 3366 
z
" transform="scale(0.015625)"/>
      <path id="DejaVuSans-62" d="M 3116 1747 
Q 3116 2381 2855 2742 
Q 2594 3103 2138 3103 
Q 1681 3103 1420 2742 
Q 1159 2381 1159 1747 
Q 1159 1113 1420 752 
Q 1681 391 2138 391 
Q 2594 391 2855 752 
Q 3116 1113 3116 1747 
z
M 1159 2969 
Q 1341 3281 1617 3432 
Q 1894 3584 2278 3584 
Q 2916 3584 3314 3078 
Q 3713 2572 3713 1747 
Q 3713 922 3314 415 
Q 2916 -91 2278 -91 
Q 1894 -91 1617 61 
Q 1341 213 1159 525 
L 1159 0 
L 581 0 
L 581 4863 
L 1159 4863 
L 1159 2969 
z
" transform="scale(0.015625)"/>
      <path id="DejaVuSans-77" d="M 269 3500 
L 844 3500 
L 1563 769 
L 2278 3500 
L 2956 3500 
L 3675 769 
L 4391 3500 
L 4966 3500 
L 4050 0 
L 3372 0 
L 2619 2869 
L 1863 0 
L 1184 0 
L 269 3500 
z
" transform="scale(0.015625)"/>
      <path id="DejaVuSans-70" d="M 1159 525 
L 1159 -1331 
L 581 -1331 
L 581 3500 
L 1159 3500 
L 1159 2969 
Q 1341 3281 1617 3432 
Q 1894 3584 2278 3584 
Q 2916 3584 3314 3078 
Q 3713 2572 3713 1747 
Q 3713 922 3314 415 
Q 2916 -91 2278 -91 
Q 1894 -91 1617 61 
Q 1341 213 1159 525 
z
M 3116 1747 
Q 3116 2381 2855 2742 
Q 2594 3103 2138 3103 
Q 1681 3103 1420 2742 
Q 1159 2381 1159 1747 
Q 1159 1113 1420 752 
Q 1681 391 2138 391 
Q 2594 391 2855 752 
Q 3116 1113 3116 1747 
z
" transform="scale(0.015625)"/>
     </defs>
     <use xlink:href="#DejaVuSans-54"/>
     <use xlink:href="#DejaVuSans-68" transform="translate(61.083984 0)"/>
     <use xlink:href="#DejaVuSans-65" transform="translate(124.462891 0)"/>
     <use xlink:href="#DejaVuSans-20" transform="translate(185.986328 0)"/>
     <use xlink:href="#DejaVuSans-65" transform="translate(217.773438 0)"/>
     <use xlink:href="#DejaVuSans-72" transform="translate(279.296875 0)"/>
     <use xlink:href="#DejaVuSans-72" transform="translate(318.660156 0)"/>
     <use xlink:href="#DejaVuSans-6f" transform="translate(357.523438 0)"/>
     <use xlink:href="#DejaVuSans-72" transform="translate(418.705078 0)"/>
     <use xlink:href="#DejaVuSans-20" transform="translate(459.818359 0)"/>
     <use xlink:href="#DejaVuSans-69" transform="translate(491.605469 0)"/>
     <use xlink:href="#DejaVuSans-73" transform="translate(519.388672 0)"/>
     <use xlink:href="#DejaVuSans-20" transform="translate(571.488281 0)"/>
     <use xlink:href="#DejaVuSans-74" transform="translate(603.275391 0)"/>
     <use xlink:href="#DejaVuSans-68" transform="translate(642.484375 0)"/>
     <use xlink:href="#DejaVuSans-65" transform="translate(705.863281 0)"/>
     <use xlink:href="#DejaVuSans-20" transform="translate(767.386719 0)"/>
     <use xlink:href="#DejaVuSans-76" transform="translate(799.173828 0)"/>
     <use xlink:href="#DejaVuSans-65" transform="translate(858.353516 0)"/>
     <use xlink:href="#DejaVuSans-72" transform="translate(919.876953 0)"/>
     <use xlink:href="#DejaVuSans-74" transform="translate(960.990234 0)"/>
     <use xlink:href="#DejaVuSans-69" transform="translate(1000.199219 0)"/>
     <use xlink:href="#DejaVuSans-63" transform="translate(1027.982422 0)"/>
     <use xlink:href="#DejaVuSans-61" transform="translate(1082.962891 0)"/>
     <use xlink:href="#DejaVuSans-6c" transform="translate(1144.242188 0)"/>
     <use xlink:href="#DejaVuSans-20" transform="translate(1172.025391 0)"/>
     <use xlink:href="#DejaVuSans-64" transform="translate(1203.8125 0)"/>
     <use xlink:href="#DejaVuSans-69" transform="translate(1267.289062 0)"/>
     <use xlink:href="#DejaVuSans-73" transform="translate(1295.072266 0)"/>
     <use xlink:href="#DejaVuSans-74" transform="translate(1347.171875 0)"/>
     <use xlink:href="#DejaVuSans-61" transform="translate(1386.380859 0)"/>
     <use xlink:href="#DejaVuSans-6e" transform="translate(1447.660156 0)"/>
     <use xlink:href="#DejaVuSans-63" transform="translate(1511.039062 0)"/>
     <use xlink:href="#DejaVuSans-65" transform="translate(1566.019531 0)"/>
     <use xlink:href="#DejaVuSans-20" transform="translate(1627.542969 0)"/>
     <use xlink:href="#DejaVuSans-62" transform="translate(1659.330078 0)"/>
     <use xlink:href="#DejaVuSans-65" transform="translate(1722.806641 0)"/>
     <use xlink:href="#DejaVuSans-74" transform="translate(1784.330078 0)"/>
     <use xlink:href="#DejaVuSans-77" transform="translate(1823.539062 0)"/>
     <use xlink:href="#DejaVuSans-65" transform="translate(1905.326172 0)"/>
     <use xlink:href="#DejaVuSans-65" transform="translate(1966.849609 0)"/>
     <use xlink:href="#DejaVuSans-6e" transform="translate(2028.373047 0)"/>
     <use xlink:href="#DejaVuSans-20" transform="translate(2091.751953 0)"/>
     <use xlink:href="#DejaVuSans-61" transform="translate(2123.539062 0)"/>
     <use xlink:href="#DejaVuSans-63" transform="translate(2184.818359 0)"/>
     <use xlink:href="#DejaVuSans-74" transform="translate(2239.798828 0)"/>
     <use xlink:href="#DejaVuSans-75" transform="translate(2279.007812 0)"/>
     <use xlink:href="#DejaVuSans-61" transform="translate(2342.386719 0)"/>
     <use xlink:href="#DejaVuSans-6c" transform="translate(2403.666016 0)"/>
     <use xlink:href="#DejaVuSans-20" transform="translate(2431.449219 0)"/>
     <use xlink:href="#DejaVuSans-61" transform="translate(2463.236328 0)"/>
     <use xlink:href="#DejaVuSans-6e" transform="translate(2524.515625 0)"/>
     <use xlink:href="#DejaVuSans-64" transform="translate(2587.894531 0)"/>
     <use xlink:href="#DejaVuSans-20" transform="translate(2651.371094 0)"/>
     <use xlink:href="#DejaVuSans-70" transform="translate(2683.158203 0)"/>
     <use xlink:href="#DejaVuSans-72" transform="translate(2746.634766 0)"/>
     <use xlink:href="#DejaVuSans-65" transform="translate(2785.498047 0)"/>
     <use xlink:href="#DejaVuSans-64" transform="translate(2847.021484 0)"/>
     <use xlink:href="#DejaVuSans-69" transform="translate(2910.498047 0)"/>
     <use xlink:href="#DejaVuSans-63" transform="translate(2938.28125 0)"/>
     <use xlink:href="#DejaVuSans-74" transform="translate(2993.261719 0)"/>
     <use xlink:href="#DejaVuSans-65" transform="translate(3032.470703 0)"/>
     <use xlink:href="#DejaVuSans-64" transform="translate(3093.994141 0)"/>
    </g>
   </g>
   <g id="PathCollection_1">
    <defs>
     <path id="m07c68b0df1" d="M 0 5 
C 1.326016 5 2.597899 4.473168 3.535534 3.535534 
C 4.473168 2.597899 5 1.326016 5 0 
C 5 -1.326016 4.473168 -2.597899 3.535534 -3.535534 
C 2.597899 -4.473168 1.326016 -5 0 -5 
C -1.326016 -5 -2.597899 -4.473168 -3.535534 -3.535534 
C -4.473168 -2.597899 -5 -1.326016 -5 0 
C -5 1.326016 -4.473168 2.597899 -3.535534 3.535534 
C -2.597899 4.473168 -1.326016 5 0 5 
z
" style="stroke: #4682b4"/>
    </defs>
    <g clip-path="url(#p561a3bda14)">
     <use xlink:href="#m07c68b0df1" x="495.350382" y="83.720268" style="fill: #4682b4; stroke: #4682b4"/>
     <use xlink:href="#m07c68b0df1" x="129.329239" y="205.483839" style="fill: #4682b4; stroke: #4682b4"/>
     <use xlink:href="#m07c68b0df1" x="75.491" y="216.931696" style="fill: #4682b4; stroke: #4682b4"/>
     <use xlink:href="#m07c68b0df1" x="340.343583" y="121.185982" style="fill: #4682b4; stroke: #4682b4"/>
     <use xlink:href="#m07c68b0df1" x="398.126016" y="179.465982" style="fill: #4682b4; stroke: #4682b4"/>
    </g>
   </g>
   <g id="PathCollection_2">
    <defs>
     <path id="m6cdf2606af" d="M -3.872983 3.872983 
L 3.872983 -3.872983 
M -3.872983 -3.872983 
L 3.872983 3.872983 
" style="stroke: #2e8b57; stroke-width: 2"/>
    </defs>
    <g clip-path="url(#p561a3bda14)">
     <use xlink:href="#m6cdf2606af" x="495.350382" y="126.693707" style="fill: #2e8b57; stroke: #2e8b57; stroke-width: 2"/>
     <use xlink:href="#m6cdf2606af" x="129.329239" y="218.513852" style="fill: #2e8b57; stroke: #2e8b57; stroke-width: 2"/>
     <use xlink:href="#m6cdf2606af" x="75.491" y="232.019725" style="fill: #2e8b57; stroke: #2e8b57; stroke-width: 2"/>
     <use xlink:href="#m6cdf2606af" x="340.343583" y="165.578747" style="fill: #2e8b57; stroke: #2e8b57; stroke-width: 2"/>
     <use xlink:href="#m6cdf2606af" x="398.126016" y="151.083433" style="fill: #2e8b57; stroke: #2e8b57; stroke-width: 2"/>
    </g>
   </g>
   <g id="legend_1">
    <g id="patch_7">
     <path d="M 402.916072 59.674375 
L 547.316072 59.674375 
Q 549.316072 59.674375 549.316072 57.674375 
L 549.316072 29.318125 
Q 549.316072 27.318125 547.316072 27.318125 
L 402.916072 27.318125 
Q 400.916072 27.318125 400.916072 29.318125 
L 400.916072 57.674375 
Q 400.916072 59.674375 402.916072 59.674375 
z
" style="fill: #ffffff; opacity: 0.8; stroke: #cccccc; stroke-linejoin: miter"/>
    </g>
    <g id="line2d_31">
     <path d="M 404.916072 35.416562 
L 414.916072 35.416562 
L 424.916072 35.416562 
" style="fill: none; stroke: #2e8b57; stroke-width: 2; stroke-linecap: square"/>
    </g>
    <g id="text_21">
     <!-- Model (prediction line) -->
     <g transform="translate(432.916072 38.916562) scale(0.1 -0.1)">
      <defs>
       <path id="DejaVuSans-4d" d="M 628 4666 
L 1569 4666 
L 2759 1491 
L 3956 4666 
L 4897 4666 
L 4897 0 
L 4281 0 
L 4281 4097 
L 3078 897 
L 2444 897 
L 1241 4097 
L 1241 0 
L 628 0 
L 628 4666 
z
" transform="scale(0.015625)"/>
      </defs>
      <use xlink:href="#DejaVuSans-4d"/>
      <use xlink:href="#DejaVuSans-6f" transform="translate(86.279297 0)"/>
      <use xlink:href="#DejaVuSans-64" transform="translate(147.460938 0)"/>
      <use xlink:href="#DejaVuSans-65" transform="translate(210.9375 0)"/>
      <use xlink:href="#DejaVuSans-6c" transform="translate(272.460938 0)"/>
      <use xlink:href="#DejaVuSans-20" transform="translate(300.244141 0)"/>
      <use xlink:href="#DejaVuSans-28" transform="translate(332.03125 0)"/>
      <use xlink:href="#DejaVuSans-70" transform="translate(371.044922 0)"/>
      <use xlink:href="#DejaVuSans-72" transform="translate(434.521484 0)"/>
      <use xlink:href="#DejaVuSans-65" transform="translate(473.384766 0)"/>
      <use xlink:href="#DejaVuSans-64" transform="translate(534.908203 0)"/>
      <use xlink:href="#DejaVuSans-69" transform="translate(598.384766 0)"/>
      <use xlink:href="#DejaVuSans-63" transform="translate(626.167969 0)"/>
      <use xlink:href="#DejaVuSans-74" transform="translate(681.148438 0)"/>
      <use xlink:href="#DejaVuSans-69" transform="translate(720.357422 0)"/>
      <use xlink:href="#DejaVuSans-6f" transform="translate(748.140625 0)"/>
      <use xlink:href="#DejaVuSans-6e" transform="translate(809.322266 0)"/>
      <use xlink:href="#DejaVuSans-20" transform="translate(872.701172 0)"/>
      <use xlink:href="#DejaVuSans-6c" transform="translate(904.488281 0)"/>
      <use xlink:href="#DejaVuSans-69" transform="translate(932.271484 0)"/>
      <use xlink:href="#DejaVuSans-6e" transform="translate(960.054688 0)"/>
      <use xlink:href="#DejaVuSans-65" transform="translate(1023.433594 0)"/>
      <use xlink:href="#DejaVuSans-29" transform="translate(1084.957031 0)"/>
     </g>
    </g>
    <g id="PathCollection_3">
     <g>
      <use xlink:href="#m07c68b0df1" x="414.916072" y="50.969687" style="fill: #4682b4; stroke: #4682b4"/>
     </g>
    </g>
    <g id="text_22">
     <!-- Actual sales -->
     <g transform="translate(432.916072 53.594687) scale(0.1 -0.1)">
      <use xlink:href="#DejaVuSans-41"/>
      <use xlink:href="#DejaVuSans-63" transform="translate(66.658203 0)"/>
      <use xlink:href="#DejaVuSans-74" transform="translate(121.638672 0)"/>
      <use xlink:href="#DejaVuSans-75" transform="translate(160.847656 0)"/>
      <use xlink:href="#DejaVuSans-61" transform="translate(224.226562 0)"/>
      <use xlink:href="#DejaVuSans-6c" transform="translate(285.505859 0)"/>
      <use xlink:href="#DejaVuSans-20" transform="translate(313.289062 0)"/>
      <use xlink:href="#DejaVuSans-73" transform="translate(345.076172 0)"/>
      <use xlink:href="#DejaVuSans-61" transform="translate(397.175781 0)"/>
      <use xlink:href="#DejaVuSans-6c" transform="translate(458.455078 0)"/>
      <use xlink:href="#DejaVuSans-65" transform="translate(486.238281 0)"/>
      <use xlink:href="#DejaVuSans-73" transform="translate(547.761719 0)"/>
     </g>
    </g>
   </g>
  </g>
 </g>
 <defs>
  <clipPath id="p561a3bda14">
   <rect x="41.570938" y="22.318125" width="512.745135" height="291.4"/>
  </clipPath>
 </defs>
</svg>
