<?xml version="1.0" encoding="utf-8" standalone="no"?>
<!DOCTYPE svg PUBLIC "-//W3C//DTD SVG 1.1//EN"
  "http://www.w3.org/Graphics/SVG/1.1/DTD/svg11.dtd">
<svg xmlns:xlink="http://www.w3.org/1999/xlink" width="852.12525pt" height="331.97025pt" viewBox="0 0 852.12525 331.97025" xmlns="http://www.w3.org/2000/svg" version="1.1">
 <metadata>
  <rdf:RDF xmlns:dc="http://purl.org/dc/elements/1.1/" xmlns:cc="http://creativecommons.org/ns#" xmlns:rdf="http://www.w3.org/1999/02/22-rdf-syntax-ns#">
   <cc:Work>
    <dc:type rdf:resource="http://purl.org/dc/dcmitype/StillImage"/>
    <dc:date>2026-07-09T14:01:23.233891</dc:date>
    <dc:format>image/svg+xml</dc:format>
    <dc:creator>
     <cc:Agent>
      <dc:title>Matplotlib v3.10.8, https://matplotlib.org/</dc:title>
     </cc:Agent>
    </dc:creator>
   </cc:Work>
  </rdf:RDF>
 </metadata>
 <defs>
  <style type="text/css">*{stroke-linejoin: round; stroke-linecap: butt}</style>
 </defs>
 <g id="figure_1">
  <g id="patch_1">
   <path d="M 0 331.97025 
L 852.12525 331.97025 
L 852.12525 0 
L 0 0 
z
" style="fill: #ffffff"/>
  </g>
  <g id="axes_1">
   <g id="patch_2">
    <path d="M 47.72025 291.72 
L 439.84275 291.72 
L 439.84275 73.35 
L 47.72025 73.35 
z
" style="fill: #ffffff"/>
   </g>
   <g id="matplotlib.axis_1">
    <g id="xtick_1">
     <g id="line2d_1">
      <path d="M 81.042913 291.72 
L 81.042913 73.35 
" clip-path="url(#pb268aae5b5)" style="fill: none; stroke-dasharray: 3.7,1.6; stroke-dashoffset: 0; stroke: #cbcbcb; stroke-opacity: 0.4"/>
     </g>
     <g id="line2d_2"/>
     <g id="text_1">
      <!-- 0 -->
      <g transform="translate(77.225413 304.338125) scale(0.12 -0.12)">
       <defs>
        <path id="DejaVuSans-30" d="M 2034 4250 
Q 1547 4250 1301 3770 
Q 1056 3291 1056 2328 
Q 1056 1369 1301 889 
Q 1547 409 2034 409 
Q 2525 409 2770 889 
Q 3016 1369 3016 2328 
Q 3016 3291 2770 3770 
Q 2525 4250 2034 4250 
z
M 2034 4750 
Q 2819 4750 3233 4129 
Q 3647 3509 3647 2328 
Q 3647 1150 3233 529 
Q 2819 -91 2034 -91 
Q 1250 -91 836 529 
Q 422 1150 422 2328 
Q 422 3509 836 4129 
Q 1250 4750 2034 4750 
z
" transform="scale(0.015625)"/>
       </defs>
       <use xlink:href="#DejaVuSans-30"/>
      </g>
     </g>
    </g>
    <g id="xtick_2">
     <g id="line2d_3">
      <path d="M 143.038565 291.72 
L 143.038565 73.35 
" clip-path="url(#pb268aae5b5)" style="fill: none; stroke-dasharray: 3.7,1.6; stroke-dashoffset: 0; stroke: #cbcbcb; stroke-opacity: 0.4"/>
     </g>
     <g id="line2d_4"/>
     <g id="text_2">
      <!-- 2 -->
      <g transform="translate(139.221065 304.338125) scale(0.12 -0.12)">
       <defs>
        <path id="DejaVuSans-32" d="M 1228 531 
L 3431 531 
L 3431 0 
L 469 0 
L 469 531 
Q 828 903 1448 1529 
Q 2069 2156 2228 2338 
Q 2531 2678 2651 2914 
Q 2772 3150 2772 3378 
Q 2772 3750 2511 3984 
Q 2250 4219 1831 4219 
Q 1534 4219 1204 4116 
Q 875 4013 500 3803 
L 500 4441 
Q 881 4594 1212 4672 
Q 1544 4750 1819 4750 
Q 2544 4750 2975 4387 
Q 3406 4025 3406 3419 
Q 3406 3131 3298 2873 
Q 3191 2616 2906 2266 
Q 2828 2175 2409 1742 
Q 1991 1309 1228 531 
z
" transform="scale(0.015625)"/>
       </defs>
       <use xlink:href="#DejaVuSans-32"/>
      </g>
     </g>
    </g>
    <g id="xtick_3">
     <g id="line2d_5">
      <path d="M 205.034217 291.72 
L 205.034217 73.35 
" clip-path="url(#pb268aae5b5)" style="fill: none; stroke-dasharray: 3.7,1.6; stroke-dashoffset: 0; stroke: #cbcbcb; stroke-opacity: 0.4"/>
     </g>
     <g id="line2d_6"/>
     <g id="text_3">
      <!-- 4 -->
      <g transform="translate(201.216717 304.338125) scale(0.12 -0.12)">
       <defs>
        <path id="DejaVuSans-34" d="M 2419 4116 
L 825 1625 
L 2419 1625 
L 2419 4116 
z
M 2253 4666 
L 3047 4666 
L 3047 1625 
L 3713 1625 
L 3713 1100 
L 3047 1100 
L 3047 0 
L 2419 0 
L 2419 1100 
L 313 1100 
L 313 1709 
L 2253 4666 
z
" transform="scale(0.015625)"/>
       </defs>
       <use xlink:href="#DejaVuSans-34"/>
      </g>
     </g>
    </g>
    <g id="xtick_4">
     <g id="line2d_7">
      <path d="M 267.02987 291.72 
L 267.02987 73.35 
" clip-path="url(#pb268aae5b5)" style="fill: none; stroke-dasharray: 3.7,1.6; stroke-dashoffset: 0; stroke: #cbcbcb; stroke-opacity: 0.4"/>
     </g>
     <g id="line2d_8"/>
     <g id="text_4">
      <!-- 6 -->
      <g transform="translate(263.21237 304.338125) scale(0.12 -0.12)">
       <defs>
        <path id="DejaVuSans-36" d="M 2113 2584 
Q 1688 2584 1439 2293 
Q 1191 2003 1191 1497 
Q 1191 994 1439 701 
Q 1688 409 2113 409 
Q 2538 409 2786 701 
Q 3034 994 3034 1497 
Q 3034 2003 2786 2293 
Q 2538 2584 2113 2584 
z
M 3366 4563 
L 3366 3988 
Q 3128 4100 2886 4159 
Q 2644 4219 2406 4219 
Q 1781 4219 1451 3797 
Q 1122 3375 1075 2522 
Q 1259 2794 1537 2939 
Q 1816 3084 2150 3084 
Q 2853 3084 3261 2657 
Q 3669 2231 3669 1497 
Q 3669 778 3244 343 
Q 2819 -91 2113 -91 
Q 1303 -91 875 529 
Q 447 1150 447 2328 
Q 447 3434 972 4092 
Q 1497 4750 2381 4750 
Q 2619 4750 2861 4703 
Q 3103 4656 3366 4563 
z
" transform="scale(0.015625)"/>
       </defs>
       <use xlink:href="#DejaVuSans-36"/>
      </g>
     </g>
    </g>
    <g id="xtick_5">
     <g id="line2d_9">
      <path d="M 329.025522 291.72 
L 329.025522 73.35 
" clip-path="url(#pb268aae5b5)" style="fill: none; stroke-dasharray: 3.7,1.6; stroke-dashoffset: 0; stroke: #cbcbcb; stroke-opacity: 0.4"/>
     </g>
     <g id="line2d_10"/>
     <g id="text_5">
      <!-- 8 -->
      <g transform="translate(325.208022 304.338125) scale(0.12 -0.12)">
       <defs>
        <path id="DejaVuSans-38" d="M 2034 2216 
Q 1584 2216 1326 1975 
Q 1069 1734 1069 1313 
Q 1069 891 1326 650 
Q 1584 409 2034 409 
Q 2484 409 2743 651 
Q 3003 894 3003 1313 
Q 3003 1734 2745 1975 
Q 2488 2216 2034 2216 
z
M 1403 2484 
Q 997 2584 770 2862 
Q 544 3141 544 3541 
Q 544 4100 942 4425 
Q 1341 4750 2034 4750 
Q 2731 4750 3128 4425 
Q 3525 4100 3525 3541 
Q 3525 3141 3298 2862 
Q 3072 2584 2669 2484 
Q 3125 2378 3379 2068 
Q 3634 1759 3634 1313 
Q 3634 634 3220 271 
Q 2806 -91 2034 -91 
Q 1263 -91 848 271 
Q 434 634 434 1313 
Q 434 1759 690 2068 
Q 947 2378 1403 2484 
z
M 1172 3481 
Q 1172 3119 1398 2916 
Q 1625 2713 2034 2713 
Q 2441 2713 2670 2916 
Q 2900 3119 2900 3481 
Q 2900 3844 2670 4047 
Q 2441 4250 2034 4250 
Q 1625 4250 1398 4047 
Q 1172 3844 1172 3481 
z
" transform="scale(0.015625)"/>
       </defs>
       <use xlink:href="#DejaVuSans-38"/>
      </g>
     </g>
    </g>
    <g id="xtick_6">
     <g id="line2d_11">
      <path d="M 391.021174 291.72 
L 391.021174 73.35 
" clip-path="url(#pb268aae5b5)" style="fill: none; stroke-dasharray: 3.7,1.6; stroke-dashoffset: 0; stroke: #cbcbcb; stroke-opacity: 0.4"/>
     </g>
     <g id="line2d_12"/>
     <g id="text_6">
      <!-- 10 -->
      <g transform="translate(383.386174 304.338125) scale(0.12 -0.12)">
       <defs>
        <path id="DejaVuSans-31" d="M 794 531 
L 1825 531 
L 1825 4091 
L 703 3866 
L 703 4441 
L 1819 4666 
L 2450 4666 
L 2450 531 
L 3481 531 
L 3481 0 
L 794 0 
L 794 531 
z
" transform="scale(0.015625)"/>
       </defs>
       <use xlink:href="#DejaVuSans-31"/>
       <use xlink:href="#DejaVuSans-30" transform="translate(63.623047 0)"/>
      </g>
     </g>
    </g>
    <g id="text_7">
     <!-- Tumor size -->
     <g transform="translate(205.282875 321.7755) scale(0.144 -0.144)">
      <defs>
       <path id="DejaVuSans-54" d="M -19 4666 
L 3928 4666 
L 3928 4134 
L 2272 4134 
L 2272 0 
L 1638 0 
L 1638 4134 
L -19 4134 
L -19 4666 
z
" transform="scale(0.015625)"/>
       <path id="DejaVuSans-75" d="M 544 1381 
L 544 3500 
L 1119 3500 
L 1119 1403 
Q 1119 906 1312 657 
Q 1506 409 1894 409 
Q 2359 409 2629 706 
Q 2900 1003 2900 1516 
L 2900 3500 
L 3475 3500 
L 3475 0 
L 2900 0 
L 2900 538 
Q 2691 219 2414 64 
Q 2138 -91 1772 -91 
Q 1169 -91 856 284 
Q 544 659 544 1381 
z
M 1991 3584 
L 1991 3584 
z
" transform="scale(0.015625)"/>
       <path id="DejaVuSans-6d" d="M 3328 2828 
Q 3544 3216 3844 3400 
Q 4144 3584 4550 3584 
Q 5097 3584 5394 3201 
Q 5691 2819 5691 2113 
L 5691 0 
L 5113 0 
L 5113 2094 
Q 5113 2597 4934 2840 
Q 4756 3084 4391 3084 
Q 3944 3084 3684 2787 
Q 3425 2491 3425 1978 
L 3425 0 
L 2847 0 
L 2847 2094 
Q 2847 2600 2669 2842 
Q 2491 3084 2119 3084 
Q 1678 3084 1418 2786 
Q 1159 2488 1159 1978 
L 1159 0 
L 581 0 
L 581 3500 
L 1159 3500 
L 1159 2956 
Q 1356 3278 1631 3431 
Q 1906 3584 2284 3584 
Q 2666 3584 2933 3390 
Q 3200 3197 3328 2828 
z
" transform="scale(0.015625)"/>
       <path id="DejaVuSans-6f" d="M 1959 3097 
Q 1497 3097 1228 2736 
Q 959 2375 959 1747 
Q 959 1119 1226 758 
Q 1494 397 1959 397 
Q 2419 397 2687 759 
Q 2956 1122 2956 1747 
Q 2956 2369 2687 2733 
Q 2419 3097 1959 3097 
z
M 1959 3584 
Q 2709 3584 3137 3096 
Q 3566 2609 3566 1747 
Q 3566 888 3137 398 
Q 2709 -91 1959 -91 
Q 1206 -91 779 398 
Q 353 888 353 1747 
Q 353 2609 779 3096 
Q 1206 3584 1959 3584 
z
" transform="scale(0.015625)"/>
       <path id="DejaVuSans-72" d="M 2631 2963 
Q 2534 3019 2420 3045 
Q 2306 3072 2169 3072 
Q 1681 3072 1420 2755 
Q 1159 2438 1159 1844 
L 1159 0 
L 581 0 
L 581 3500 
L 1159 3500 
L 1159 2956 
Q 1341 3275 1631 3429 
Q 1922 3584 2338 3584 
Q 2397 3584 2469 3576 
Q 2541 3569 2628 3553 
L 2631 2963 
z
" transform="scale(0.015625)"/>
       <path id="DejaVuSans-20" transform="scale(0.015625)"/>
       <path id="DejaVuSans-73" d="M 2834 3397 
L 2834 2853 
Q 2591 2978 2328 3040 
Q 2066 3103 1784 3103 
Q 1356 3103 1142 2972 
Q 928 2841 928 2578 
Q 928 2378 1081 2264 
Q 1234 2150 1697 2047 
L 1894 2003 
Q 2506 1872 2764 1633 
Q 3022 1394 3022 966 
Q 3022 478 2636 193 
Q 2250 -91 1575 -91 
Q 1294 -91 989 -36 
Q 684 19 347 128 
L 347 722 
Q 666 556 975 473 
Q 1284 391 1588 391 
Q 1994 391 2212 530 
Q 2431 669 2431 922 
Q 2431 1156 2273 1281 
Q 2116 1406 1581 1522 
L 1381 1569 
Q 847 1681 609 1914 
Q 372 2147 372 2553 
Q 372 3047 722 3315 
Q 1072 3584 1716 3584 
Q 2034 3584 2315 3537 
Q 2597 3491 2834 3397 
z
" transform="scale(0.015625)"/>
       <path id="DejaVuSans-69" d="M 603 3500 
L 1178 3500 
L 1178 0 
L 603 0 
L 603 3500 
z
M 603 4863 
L 1178 4863 
L 1178 4134 
L 603 4134 
L 603 4863 
z
" transform="scale(0.015625)"/>
       <path id="DejaVuSans-7a" d="M 353 3500 
L 3084 3500 
L 3084 2975 
L 922 459 
L 3084 459 
L 3084 0 
L 275 0 
L 275 525 
L 2438 3041 
L 353 3041 
L 353 3500 
z
" transform="scale(0.015625)"/>
       <path id="DejaVuSans-65" d="M 3597 1894 
L 3597 1613 
L 953 1613 
Q 991 1019 1311 708 
Q 1631 397 2203 397 
Q 2534 397 2845 478 
Q 3156 559 3463 722 
L 3463 178 
Q 3153 47 2828 -22 
Q 2503 -91 2169 -91 
Q 1331 -91 842 396 
Q 353 884 353 1716 
Q 353 2575 817 3079 
Q 1281 3584 2069 3584 
Q 2775 3584 3186 3129 
Q 3597 2675 3597 1894 
z
M 3022 2063 
Q 3016 2534 2758 2815 
Q 2500 3097 2075 3097 
Q 1594 3097 1305 2825 
Q 1016 2553 972 2059 
L 3022 2063 
z
" transform="scale(0.015625)"/>
      </defs>
      <use xlink:href="#DejaVuSans-54"/>
      <use xlink:href="#DejaVuSans-75" transform="translate(45.958984 0)"/>
      <use xlink:href="#DejaVuSans-6d" transform="translate(109.337891 0)"/>
      <use xlink:href="#DejaVuSans-6f" transform="translate(206.75 0)"/>
      <use xlink:href="#DejaVuSans-72" transform="translate(267.931641 0)"/>
      <use xlink:href="#DejaVuSans-20" transform="translate(309.044922 0)"/>
      <use xlink:href="#DejaVuSans-73" transform="translate(340.832031 0)"/>
      <use xlink:href="#DejaVuSans-69" transform="translate(392.931641 0)"/>
      <use xlink:href="#DejaVuSans-7a" transform="translate(420.714844 0)"/>
      <use xlink:href="#DejaVuSans-65" transform="translate(473.205078 0)"/>
     </g>
    </g>
   </g>
   <g id="matplotlib.axis_2">
    <g id="ytick_1">
     <g id="line2d_13">
      <path d="M 47.72025 269.779558 
L 439.84275 269.779558 
" clip-path="url(#pb268aae5b5)" style="fill: none; stroke-dasharray: 3.7,1.6; stroke-dashoffset: 0; stroke: #cbcbcb; stroke-opacity: 0.4"/>
     </g>
     <g id="line2d_14"/>
     <g id="text_8">
      <!-- 0.0 -->
      <g transform="translate(25.1365 274.33862) scale(0.12 -0.12)">
       <defs>
        <path id="DejaVuSans-2e" d="M 684 794 
L 1344 794 
L 1344 0 
L 684 0 
L 684 794 
z
" transform="scale(0.015625)"/>
       </defs>
       <use xlink:href="#DejaVuSans-30"/>
       <use xlink:href="#DejaVuSans-2e" transform="translate(63.623047 0)"/>
       <use xlink:href="#DejaVuSans-30" transform="translate(95.410156 0)"/>
      </g>
     </g>
    </g>
    <g id="ytick_2">
     <g id="line2d_15">
      <path d="M 47.72025 232.181149 
L 439.84275 232.181149 
" clip-path="url(#pb268aae5b5)" style="fill: none; stroke-dasharray: 3.7,1.6; stroke-dashoffset: 0; stroke: #cbcbcb; stroke-opacity: 0.4"/>
     </g>
     <g id="line2d_16"/>
     <g id="text_9">
      <!-- 0.5 -->
      <g transform="translate(25.1365 236.740212) scale(0.12 -0.12)">
       <defs>
        <path id="DejaVuSans-35" d="M 691 4666 
L 3169 4666 
L 3169 4134 
L 1269 4134 
L 1269 2991 
Q 1406 3038 1543 3061 
Q 1681 3084 1819 3084 
Q 2600 3084 3056 2656 
Q 3513 2228 3513 1497 
Q 3513 744 3044 326 
Q 2575 -91 1722 -91 
Q 1428 -91 1123 -41 
Q 819 9 494 109 
L 494 744 
Q 775 591 1075 516 
Q 1375 441 1709 441 
Q 2250 441 2565 725 
Q 2881 1009 2881 1497 
Q 2881 1984 2565 2268 
Q 2250 2553 1709 2553 
Q 1456 2553 1204 2497 
Q 953 2441 691 2322 
L 691 4666 
z
" transform="scale(0.015625)"/>
       </defs>
       <use xlink:href="#DejaVuSans-30"/>
       <use xlink:href="#DejaVuSans-2e" transform="translate(63.623047 0)"/>
       <use xlink:href="#DejaVuSans-35" transform="translate(95.410156 0)"/>
      </g>
     </g>
    </g>
    <g id="ytick_3">
     <g id="line2d_17">
      <path d="M 47.72025 194.582741 
L 439.84275 194.582741 
" clip-path="url(#pb268aae5b5)" style="fill: none; stroke-dasharray: 3.7,1.6; stroke-dashoffset: 0; stroke: #cbcbcb; stroke-opacity: 0.4"/>
     </g>
     <g id="line2d_18"/>
     <g id="text_10">
      <!-- 1.0 -->
      <g transform="translate(25.1365 199.141803) scale(0.12 -0.12)">
       <use xlink:href="#DejaVuSans-31"/>
       <use xlink:href="#DejaVuSans-2e" transform="translate(63.623047 0)"/>
       <use xlink:href="#DejaVuSans-30" transform="translate(95.410156 0)"/>
      </g>
     </g>
    </g>
    <g id="ytick_4">
     <g id="line2d_19">
      <path d="M 47.72025 156.984332 
L 439.84275 156.984332 
" clip-path="url(#pb268aae5b5)" style="fill: none; stroke-dasharray: 3.7,1.6; stroke-dashoffset: 0; stroke: #cbcbcb; stroke-opacity: 0.4"/>
     </g>
     <g id="line2d_20"/>
     <g id="text_11">
      <!-- 1.5 -->
      <g transform="translate(25.1365 161.543395) scale(0.12 -0.12)">
       <use xlink:href="#DejaVuSans-31"/>
       <use xlink:href="#DejaVuSans-2e" transform="translate(63.623047 0)"/>
       <use xlink:href="#DejaVuSans-35" transform="translate(95.410156 0)"/>
      </g>
     </g>
    </g>
    <g id="ytick_5">
     <g id="line2d_21">
      <path d="M 47.72025 119.385924 
L 439.84275 119.385924 
" clip-path="url(#pb268aae5b5)" style="fill: none; stroke-dasharray: 3.7,1.6; stroke-dashoffset: 0; stroke: #cbcbcb; stroke-opacity: 0.4"/>
     </g>
     <g id="line2d_22"/>
     <g id="text_12">
      <!-- 2.0 -->
      <g transform="translate(25.1365 123.944986) scale(0.12 -0.12)">
       <use xlink:href="#DejaVuSans-32"/>
       <use xlink:href="#DejaVuSans-2e" transform="translate(63.623047 0)"/>
       <use xlink:href="#DejaVuSans-30" transform="translate(95.410156 0)"/>
      </g>
     </g>
    </g>
    <g id="ytick_6">
     <g id="line2d_23">
      <path d="M 47.72025 81.787515 
L 439.84275 81.787515 
" clip-path="url(#pb268aae5b5)" style="fill: none; stroke-dasharray: 3.7,1.6; stroke-dashoffset: 0; stroke: #cbcbcb; stroke-opacity: 0.4"/>
     </g>
     <g id="line2d_24"/>
     <g id="text_13">
      <!-- 2.5 -->
      <g transform="translate(25.1365 86.346578) scale(0.12 -0.12)">
       <use xlink:href="#DejaVuSans-32"/>
       <use xlink:href="#DejaVuSans-2e" transform="translate(63.623047 0)"/>
       <use xlink:href="#DejaVuSans-35" transform="translate(95.410156 0)"/>
      </g>
     </g>
    </g>
    <g id="text_14">
     <!-- y -->
     <g transform="translate(18.14175 186.7965) rotate(-90) scale(0.144 -0.144)">
      <defs>
       <path id="DejaVuSans-79" d="M 2059 -325 
Q 1816 -950 1584 -1140 
Q 1353 -1331 966 -1331 
L 506 -1331 
L 506 -850 
L 844 -850 
Q 1081 -850 1212 -737 
Q 1344 -625 1503 -206 
L 1606 56 
L 191 3500 
L 800 3500 
L 1894 763 
L 2988 3500 
L 3597 3500 
L 2059 -325 
z
" transform="scale(0.015625)"/>
      </defs>
      <use xlink:href="#DejaVuSans-79"/>
     </g>
    </g>
   </g>
   <g id="PathCollection_1">
    <defs>
     <path id="m320cac790f" d="M -4.472136 4.472136 
L 4.472136 -4.472136 
M -4.472136 -4.472136 
L 4.472136 4.472136 
" style="stroke: #c00000; stroke-width: 4"/>
    </defs>
    <g clip-path="url(#pb268aae5b5)">
     <use xlink:href="#m320cac790f" x="174.036391" y="194.582741" style="fill: #c00000; stroke: #c00000; stroke-width: 4"/>
     <use xlink:href="#m320cac790f" x="205.034217" y="194.582741" style="fill: #c00000; stroke: #c00000; stroke-width: 4"/>
     <use xlink:href="#m320cac790f" x="236.032043" y="194.582741" style="fill: #c00000; stroke: #c00000; stroke-width: 4"/>
    </g>
   </g>
   <g id="PathCollection_2">
    <defs>
     <path id="C0_0_8f7f930669" d="M 0 5 
C 1.326016 5 2.597899 4.473168 3.535534 3.535534 
C 4.473168 2.597899 5 1.326016 5 -0 
C 5 -1.326016 4.473168 -2.597899 3.535534 -3.535534 
C 2.597899 -4.473168 1.326016 -5 0 -5 
C -1.326016 -5 -2.597899 -4.473168 -3.535534 -3.535534 
C -4.473168 -2.597899 -5 -1.326016 -5 0 
C -5 1.326016 -4.473168 2.597899 -3.535534 3.535534 
C -2.597899 4.473168 -1.326016 5 0 5 
z
"/>
    </defs>
    <g clip-path="url(#pb268aae5b5)">
     <use xlink:href="#C0_0_8f7f930669" x="81.042913" y="269.779558" style="fill: none; stroke: #0096ff; stroke-width: 2"/>
    </g>
    <g clip-path="url(#pb268aae5b5)">
     <use xlink:href="#C0_0_8f7f930669" x="112.040739" y="269.779558" style="fill: none; stroke: #0096ff; stroke-width: 2"/>
    </g>
    <g clip-path="url(#pb268aae5b5)">
     <use xlink:href="#C0_0_8f7f930669" x="143.038565" y="269.779558" style="fill: none; stroke: #0096ff; stroke-width: 2"/>
    </g>
   </g>
   <g id="line2d_25">
    <path d="M 65.544 281.794091 
L 68.539588 280.125871 
L 71.535176 278.457651 
L 74.530765 276.789431 
L 77.526353 275.121211 
L 80.521941 273.452991 
L 83.517529 271.784771 
L 86.513118 270.116551 
L 89.508706 268.448331 
L 92.504294 266.780111 
L 95.499882 265.111891 
L 98.495471 263.443671 
L 101.491059 261.775451 
L 104.486647 260.107231 
L 107.482235 258.439011 
L 110.477824 256.770791 
L 113.473412 255.102571 
L 116.469 253.434351 
L 119.464588 251.766131 
L 122.460176 250.097911 
L 125.455765 248.429691 
L 128.451353 246.761471 
L 131.446941 245.093251 
L 134.442529 243.425031 
L 137.438118 241.756811 
L 140.433706 240.088591 
L 143.429294 238.420371 
L 146.424882 236.75215 
L 149.420471 235.08393 
L 152.416059 233.41571 
L 155.411647 231.74749 
L 158.407235 230.07927 
L 161.402824 228.41105 
L 164.398412 226.74283 
L 167.394 225.07461 
L 170.389588 223.40639 
L 173.385176 221.73817 
L 176.380765 220.06995 
L 179.376353 218.40173 
L 182.371941 216.73351 
L 185.367529 215.06529 
L 188.363118 213.39707 
L 191.358706 211.72885 
L 194.354294 210.06063 
L 197.349882 208.39241 
L 200.345471 206.72419 
L 203.341059 205.05597 
L 206.336647 203.38775 
L 209.332235 201.71953 
L 212.327824 200.05131 
L 215.323412 198.38309 
L 218.319 196.71487 
L 221.314588 195.04665 
L 224.310176 193.37843 
L 227.305765 191.71021 
L 230.301353 190.04199 
L 233.296941 188.37377 
L 236.292529 186.70555 
L 239.288118 185.03733 
L 242.283706 183.36911 
L 245.279294 181.70089 
L 248.274882 180.03267 
L 251.270471 178.36445 
L 254.266059 176.69623 
L 257.261647 175.02801 
L 260.257235 173.35979 
L 263.252824 171.69157 
L 266.248412 170.02335 
L 269.244 168.35513 
L 272.239588 166.68691 
L 275.235176 165.01869 
L 278.230765 163.35047 
L 281.226353 161.68225 
L 284.221941 160.01403 
L 287.217529 158.34581 
L 290.213118 156.67759 
L 293.208706 155.00937 
L 296.204294 153.34115 
L 299.199882 151.67293 
L 302.195471 150.00471 
L 305.191059 148.33649 
L 308.186647 146.66827 
L 311.182235 145.00005 
L 314.177824 143.33183 
L 317.173412 141.66361 
L 320.169 139.99539 
L 323.164588 138.32717 
L 326.160176 136.65895 
L 329.155765 134.99073 
L 332.151353 133.32251 
L 335.146941 131.65429 
L 338.142529 129.98607 
L 341.138118 128.31785 
L 344.133706 126.649629 
L 347.129294 124.981409 
L 350.124882 123.313189 
L 353.120471 121.644969 
L 356.116059 119.976749 
L 359.111647 118.308529 
L 362.107235 116.640309 
L 365.102824 114.972089 
L 368.098412 113.303869 
L 371.094 111.635649 
L 374.089588 109.967429 
L 377.085176 108.299209 
L 380.080765 106.630989 
L 383.076353 104.962769 
L 386.071941 103.294549 
L 389.067529 101.626329 
L 392.063118 99.958109 
L 395.058706 98.289889 
L 398.054294 96.621669 
L 401.049882 94.953449 
L 404.045471 93.285229 
L 407.041059 91.617009 
L 410.036647 89.948789 
L 413.032235 88.280569 
L 416.027824 86.612349 
L 419.023412 84.944129 
L 422.019 83.275909 
" clip-path="url(#pb268aae5b5)" style="fill: none; stroke: #ff9300; stroke-width: 2"/>
   </g>
   <g id="line2d_26">
    <path d="M 47.72025 232.181149 
L 439.84275 232.181149 
" clip-path="url(#pb268aae5b5)" style="fill: none; stroke-dasharray: 3.7,1.6; stroke-dashoffset: 0; stroke: #808080"/>
   </g>
   <g id="line2d_27">
    <path d="M 154.632935 291.72 
L 154.632935 73.35 
" clip-path="url(#pb268aae5b5)" style="fill: none; stroke-dasharray: 2,3.3; stroke-dashoffset: 0; stroke: #7030a0; stroke-width: 2"/>
   </g>
   <g id="patch_3">
    <path d="M 47.72025 291.72 
L 47.72025 73.35 
" style="fill: none; stroke: #f0f0f0; stroke-width: 3; stroke-linejoin: miter; stroke-linecap: square"/>
   </g>
   <g id="patch_4">
    <path d="M 439.84275 291.72 
L 439.84275 73.35 
" style="fill: none; stroke: #f0f0f0; stroke-width: 3; stroke-linejoin: miter; stroke-linecap: square"/>
   </g>
   <g id="patch_5">
    <path d="M 47.72025 291.72 
L 439.84275 291.72 
" style="fill: none; stroke: #f0f0f0; stroke-width: 3; stroke-linejoin: miter; stroke-linecap: square"/>
   </g>
   <g id="patch_6">
    <path d="M 47.72025 73.35 
L 439.84275 73.35 
" style="fill: none; stroke: #f0f0f0; stroke-width: 3; stroke-linejoin: miter; stroke-linecap: square"/>
   </g>
   <g id="text_15">
    <!-- Original data -->
    <g style="fill: #808080" transform="translate(187.7646 67.35) scale(0.1728 -0.1728)">
     <defs>
      <path id="DejaVuSans-4f" d="M 2522 4238 
Q 1834 4238 1429 3725 
Q 1025 3213 1025 2328 
Q 1025 1447 1429 934 
Q 1834 422 2522 422 
Q 3209 422 3611 934 
Q 4013 1447 4013 2328 
Q 4013 3213 3611 3725 
Q 3209 4238 2522 4238 
z
M 2522 4750 
Q 3503 4750 4090 4092 
Q 4678 3434 4678 2328 
Q 4678 1225 4090 567 
Q 3503 -91 2522 -91 
Q 1538 -91 948 565 
Q 359 1222 359 2328 
Q 359 3434 948 4092 
Q 1538 4750 2522 4750 
z
" transform="scale(0.015625)"/>
      <path id="DejaVuSans-67" d="M 2906 1791 
Q 2906 2416 2648 2759 
Q 2391 3103 1925 3103 
Q 1463 3103 1205 2759 
Q 947 2416 947 1791 
Q 947 1169 1205 825 
Q 1463 481 1925 481 
Q 2391 481 2648 825 
Q 2906 1169 2906 1791 
z
M 3481 434 
Q 3481 -459 3084 -895 
Q 2688 -1331 1869 -1331 
Q 1566 -1331 1297 -1286 
Q 1028 -1241 775 -1147 
L 775 -588 
Q 1028 -725 1275 -790 
Q 1522 -856 1778 -856 
Q 2344 -856 2625 -561 
Q 2906 -266 2906 331 
L 2906 616 
Q 2728 306 2450 153 
Q 2172 0 1784 0 
Q 1141 0 747 490 
Q 353 981 353 1791 
Q 353 2603 747 3093 
Q 1141 3584 1784 3584 
Q 2172 3584 2450 3431 
Q 2728 3278 2906 2969 
L 2906 3500 
L 3481 3500 
L 3481 434 
z
" transform="scale(0.015625)"/>
      <path id="DejaVuSans-6e" d="M 3513 2113 
L 3513 0 
L 2938 0 
L 2938 2094 
Q 2938 2591 2744 2837 
Q 2550 3084 2163 3084 
Q 1697 3084 1428 2787 
Q 1159 2491 1159 1978 
L 1159 0 
L 581 0 
L 581 3500 
L 1159 3500 
L 1159 2956 
Q 1366 3272 1645 3428 
Q 1925 3584 2291 3584 
Q 2894 3584 3203 3211 
Q 3513 2838 3513 2113 
z
" transform="scale(0.015625)"/>
      <path id="DejaVuSans-61" d="M 2194 1759 
Q 1497 1759 1228 1600 
Q 959 1441 959 1056 
Q 959 750 1161 570 
Q 1363 391 1709 391 
Q 2188 391 2477 730 
Q 2766 1069 2766 1631 
L 2766 1759 
L 2194 1759 
z
M 3341 1997 
L 3341 0 
L 2766 0 
L 2766 531 
Q 2569 213 2275 61 
Q 1981 -91 1556 -91 
Q 1019 -91 701 211 
Q 384 513 384 1019 
Q 384 1609 779 1909 
Q 1175 2209 1959 2209 
L 2766 2209 
L 2766 2266 
Q 2766 2663 2505 2880 
Q 2244 3097 1772 3097 
Q 1472 3097 1187 3025 
Q 903 2953 641 2809 
L 641 3341 
Q 956 3463 1253 3523 
Q 1550 3584 1831 3584 
Q 2591 3584 2966 3190 
Q 3341 2797 3341 1997 
z
" transform="scale(0.015625)"/>
      <path id="DejaVuSans-6c" d="M 603 4863 
L 1178 4863 
L 1178 0 
L 603 0 
L 603 4863 
z
" transform="scale(0.015625)"/>
      <path id="DejaVuSans-64" d="M 2906 2969 
L 2906 4863 
L 3481 4863 
L 3481 0 
L 2906 0 
L 2906 525 
Q 2725 213 2448 61 
Q 2172 -91 1784 -91 
Q 1150 -91 751 415 
Q 353 922 353 1747 
Q 353 2572 751 3078 
Q 1150 3584 1784 3584 
Q 2172 3584 2448 3432 
Q 2725 3281 2906 2969 
z
M 947 1747 
Q 947 1113 1208 752 
Q 1469 391 1925 391 
Q 2381 391 2643 752 
Q 2906 1113 2906 1747 
Q 2906 2381 2643 2742 
Q 2381 3103 1925 3103 
Q 1469 3103 1208 2742 
Q 947 2381 947 1747 
z
" transform="scale(0.015625)"/>
      <path id="DejaVuSans-74" d="M 1172 4494 
L 1172 3500 
L 2356 3500 
L 2356 3053 
L 1172 3053 
L 1172 1153 
Q 1172 725 1289 603 
Q 1406 481 1766 481 
L 2356 481 
L 2356 0 
L 1766 0 
Q 1100 0 847 248 
Q 594 497 594 1153 
L 594 3053 
L 172 3053 
L 172 3500 
L 594 3500 
L 594 4494 
L 1172 4494 
z
" transform="scale(0.015625)"/>
     </defs>
     <use xlink:href="#DejaVuSans-4f"/>
     <use xlink:href="#DejaVuSans-72" transform="translate(78.710938 0)"/>
     <use xlink:href="#DejaVuSans-69" transform="translate(119.824219 0)"/>
     <use xlink:href="#DejaVuSans-67" transform="translate(147.607422 0)"/>
     <use xlink:href="#DejaVuSans-69" transform="translate(211.083984 0)"/>
     <use xlink:href="#DejaVuSans-6e" transform="translate(238.867188 0)"/>
     <use xlink:href="#DejaVuSans-61" transform="translate(302.246094 0)"/>
     <use xlink:href="#DejaVuSans-6c" transform="translate(363.525391 0)"/>
     <use xlink:href="#DejaVuSans-20" transform="translate(391.308594 0)"/>
     <use xlink:href="#DejaVuSans-64" transform="translate(423.095703 0)"/>
     <use xlink:href="#DejaVuSans-61" transform="translate(486.572266 0)"/>
     <use xlink:href="#DejaVuSans-74" transform="translate(547.851562 0)"/>
     <use xlink:href="#DejaVuSans-61" transform="translate(587.060547 0)"/>
    </g>
   </g>
   <g id="PathCollection_3">
    <defs>
     <path id="mfeb1ef446e" d="M 0 -5.477226 
L -1.229714 -1.692556 
L -5.209151 -1.692556 
L -1.989719 0.646499 
L -3.219432 4.431169 
L -0 2.092114 
L 3.219432 4.431169 
L 1.989719 0.646499 
L 5.209151 -1.692556 
L 1.229714 -1.692556 
z
" style="stroke: #ff40ff; stroke-width: 0.5"/>
    </defs>
    <g clip-path="url(#pb268aae5b5)">
     <use xlink:href="#mfeb1ef446e" x="174.036391" y="194.582741" style="fill: #ff40ff; stroke: #ff40ff; stroke-width: 0.5"/>
    </g>
   </g>
   <g id="legend_1">
    <g id="patch_7">
     <path d="M 368.24525 287.72 
L 434.24275 287.72 
Q 435.84275 287.72 435.84275 286.12 
L 435.84275 251.6925 
Q 435.84275 250.0925 434.24275 250.0925 
L 368.24525 250.0925 
Q 366.64525 250.0925 366.64525 251.6925 
L 366.64525 286.12 
Q 366.64525 287.72 368.24525 287.72 
z
" style="fill: #ffffff; opacity: 0.8; stroke: #cccccc; stroke-width: 0.5; stroke-linejoin: miter"/>
    </g>
    <g id="PathCollection_4">
     <g>
      <use xlink:href="#m320cac790f" x="377.84525" y="257.27125" style="fill: #c00000; stroke: #c00000; stroke-width: 4"/>
     </g>
    </g>
    <g id="text_16">
     <!-- malignant -->
     <g transform="translate(392.24525 259.37125) scale(0.08 -0.08)">
      <use xlink:href="#DejaVuSans-6d"/>
      <use xlink:href="#DejaVuSans-61" transform="translate(97.412109 0)"/>
      <use xlink:href="#DejaVuSans-6c" transform="translate(158.691406 0)"/>
      <use xlink:href="#DejaVuSans-69" transform="translate(186.474609 0)"/>
      <use xlink:href="#DejaVuSans-67" transform="translate(214.257812 0)"/>
      <use xlink:href="#DejaVuSans-6e" transform="translate(277.734375 0)"/>
      <use xlink:href="#DejaVuSans-61" transform="translate(341.113281 0)"/>
      <use xlink:href="#DejaVuSans-6e" transform="translate(402.392578 0)"/>
      <use xlink:href="#DejaVuSans-74" transform="translate(465.771484 0)"/>
     </g>
    </g>
    <g id="PathCollection_5">
     <path d="M 377.84525 274.01375 
C 379.171265 274.01375 380.443149 273.486918 381.380784 272.549284 
C 382.318418 271.611649 382.84525 270.339765 382.84525 269.01375 
C 382.84525 267.687734 382.318418 266.415851 381.380784 265.478216 
C 380.443149 264.540582 379.171265 264.01375 377.84525 264.01375 
C 376.519234 264.01375 375.247351 264.540582 374.309716 265.478216 
C 373.372082 266.415851 372.84525 267.687734 372.84525 269.01375 
C 372.84525 270.339765 373.372082 271.611649 374.309716 272.549284 
C 375.247351 273.486918 376.519234 274.01375 377.84525 274.01375 
L 377.84525 274.01375 
z
" style="fill: none; stroke: #0096ff; stroke-width: 2"/>
    </g>
    <g id="text_17">
     <!-- benign -->
     <g transform="translate(392.24525 271.11375) scale(0.08 -0.08)">
      <defs>
       <path id="DejaVuSans-62" d="M 3116 1747 
Q 3116 2381 2855 2742 
Q 2594 3103 2138 3103 
Q 1681 3103 1420 2742 
Q 1159 2381 1159 1747 
Q 1159 1113 1420 752 
Q 1681 391 2138 391 
Q 2594 391 2855 752 
Q 3116 1113 3116 1747 
z
M 1159 2969 
Q 1341 3281 1617 3432 
Q 1894 3584 2278 3584 
Q 2916 3584 3314 3078 
Q 3713 2572 3713 1747 
Q 3713 922 3314 415 
Q 2916 -91 2278 -91 
Q 1894 -91 1617 61 
Q 1341 213 1159 525 
L 1159 0 
L 581 0 
L 581 4863 
L 1159 4863 
L 1159 2969 
z
" transform="scale(0.015625)"/>
      </defs>
      <use xlink:href="#DejaVuSans-62"/>
      <use xlink:href="#DejaVuSans-65" transform="translate(63.476562 0)"/>
      <use xlink:href="#DejaVuSans-6e" transform="translate(125 0)"/>
      <use xlink:href="#DejaVuSans-69" transform="translate(188.378906 0)"/>
      <use xlink:href="#DejaVuSans-67" transform="translate(216.162109 0)"/>
      <use xlink:href="#DejaVuSans-6e" transform="translate(279.638672 0)"/>
     </g>
    </g>
    <g id="line2d_28">
     <path d="M 369.84525 280.05625 
L 377.84525 280.05625 
L 385.84525 280.05625 
" style="fill: none; stroke: #ff9300; stroke-width: 2"/>
    </g>
    <g id="text_18">
     <!-- linear fit -->
     <g transform="translate(392.24525 282.85625) scale(0.08 -0.08)">
      <defs>
       <path id="DejaVuSans-66" d="M 2375 4863 
L 2375 4384 
L 1825 4384 
Q 1516 4384 1395 4259 
Q 1275 4134 1275 3809 
L 1275 3500 
L 2222 3500 
L 2222 3053 
L 1275 3053 
L 1275 0 
L 697 0 
L 697 3053 
L 147 3053 
L 147 3500 
L 697 3500 
L 697 3744 
Q 697 4328 969 4595 
Q 1241 4863 1831 4863 
L 2375 4863 
z
" transform="scale(0.015625)"/>
      </defs>
      <use xlink:href="#DejaVuSans-6c"/>
      <use xlink:href="#DejaVuSans-69" transform="translate(27.783203 0)"/>
      <use xlink:href="#DejaVuSans-6e" transform="translate(55.566406 0)"/>
      <use xlink:href="#DejaVuSans-65" transform="translate(118.945312 0)"/>
      <use xlink:href="#DejaVuSans-61" transform="translate(180.46875 0)"/>
      <use xlink:href="#DejaVuSans-72" transform="translate(241.748047 0)"/>
      <use xlink:href="#DejaVuSans-20" transform="translate(282.861328 0)"/>
      <use xlink:href="#DejaVuSans-66" transform="translate(314.648438 0)"/>
      <use xlink:href="#DejaVuSans-69" transform="translate(349.853516 0)"/>
      <use xlink:href="#DejaVuSans-74" transform="translate(377.636719 0)"/>
     </g>
    </g>
   </g>
  </g>
  <g id="axes_2">
   <g id="patch_8">
    <path d="M 452.80275 291.72 
L 844.92525 291.72 
L 844.92525 73.35 
L 452.80275 73.35 
z
" style="fill: #ffffff"/>
   </g>
   <g id="matplotlib.axis_3">
    <g id="xtick_7">
     <g id="line2d_29">
      <path d="M 486.125413 291.72 
L 486.125413 73.35 
" clip-path="url(#pfc45ab3d06)" style="fill: none; stroke-dasharray: 3.7,1.6; stroke-dashoffset: 0; stroke: #cbcbcb; stroke-opacity: 0.4"/>
     </g>
     <g id="line2d_30"/>
     <g id="text_19">
      <!-- 0 -->
      <g transform="translate(482.307913 304.338125) scale(0.12 -0.12)">
       <use xlink:href="#DejaVuSans-30"/>
      </g>
     </g>
    </g>
    <g id="xtick_8">
     <g id="line2d_31">
      <path d="M 548.121065 291.72 
L 548.121065 73.35 
" clip-path="url(#pfc45ab3d06)" style="fill: none; stroke-dasharray: 3.7,1.6; stroke-dashoffset: 0; stroke: #cbcbcb; stroke-opacity: 0.4"/>
     </g>
     <g id="line2d_32"/>
     <g id="text_20">
      <!-- 2 -->
      <g transform="translate(544.303565 304.338125) scale(0.12 -0.12)">
       <use xlink:href="#DejaVuSans-32"/>
      </g>
     </g>
    </g>
    <g id="xtick_9">
     <g id="line2d_33">
      <path d="M 610.116717 291.72 
L 610.116717 73.35 
" clip-path="url(#pfc45ab3d06)" style="fill: none; stroke-dasharray: 3.7,1.6; stroke-dashoffset: 0; stroke: #cbcbcb; stroke-opacity: 0.4"/>
     </g>
     <g id="line2d_34"/>
     <g id="text_21">
      <!-- 4 -->
      <g transform="translate(606.299217 304.338125) scale(0.12 -0.12)">
       <use xlink:href="#DejaVuSans-34"/>
      </g>
     </g>
    </g>
    <g id="xtick_10">
     <g id="line2d_35">
      <path d="M 672.11237 291.72 
L 672.11237 73.35 
" clip-path="url(#pfc45ab3d06)" style="fill: none; stroke-dasharray: 3.7,1.6; stroke-dashoffset: 0; stroke: #cbcbcb; stroke-opacity: 0.4"/>
     </g>
     <g id="line2d_36"/>
     <g id="text_22">
      <!-- 6 -->
      <g transform="translate(668.29487 304.338125) scale(0.12 -0.12)">
       <use xlink:href="#DejaVuSans-36"/>
      </g>
     </g>
    </g>
    <g id="xtick_11">
     <g id="line2d_37">
      <path d="M 734.108022 291.72 
L 734.108022 73.35 
" clip-path="url(#pfc45ab3d06)" style="fill: none; stroke-dasharray: 3.7,1.6; stroke-dashoffset: 0; stroke: #cbcbcb; stroke-opacity: 0.4"/>
     </g>
     <g id="line2d_38"/>
     <g id="text_23">
      <!-- 8 -->
      <g transform="translate(730.290522 304.338125) scale(0.12 -0.12)">
       <use xlink:href="#DejaVuSans-38"/>
      </g>
     </g>
    </g>
    <g id="xtick_12">
     <g id="line2d_39">
      <path d="M 796.103674 291.72 
L 796.103674 73.35 
" clip-path="url(#pfc45ab3d06)" style="fill: none; stroke-dasharray: 3.7,1.6; stroke-dashoffset: 0; stroke: #cbcbcb; stroke-opacity: 0.4"/>
     </g>
     <g id="line2d_40"/>
     <g id="text_24">
      <!-- 10 -->
      <g transform="translate(788.468674 304.338125) scale(0.12 -0.12)">
       <use xlink:href="#DejaVuSans-31"/>
       <use xlink:href="#DejaVuSans-30" transform="translate(63.623047 0)"/>
      </g>
     </g>
    </g>
    <g id="text_25">
     <!-- Tumor size -->
     <g transform="translate(610.365375 321.7755) scale(0.144 -0.144)">
      <use xlink:href="#DejaVuSans-54"/>
      <use xlink:href="#DejaVuSans-75" transform="translate(45.958984 0)"/>
      <use xlink:href="#DejaVuSans-6d" transform="translate(109.337891 0)"/>
      <use xlink:href="#DejaVuSans-6f" transform="translate(206.75 0)"/>
      <use xlink:href="#DejaVuSans-72" transform="translate(267.931641 0)"/>
      <use xlink:href="#DejaVuSans-20" transform="translate(309.044922 0)"/>
      <use xlink:href="#DejaVuSans-73" transform="translate(340.832031 0)"/>
      <use xlink:href="#DejaVuSans-69" transform="translate(392.931641 0)"/>
      <use xlink:href="#DejaVuSans-7a" transform="translate(420.714844 0)"/>
      <use xlink:href="#DejaVuSans-65" transform="translate(473.205078 0)"/>
     </g>
    </g>
   </g>
   <g id="matplotlib.axis_4">
    <g id="ytick_7">
     <g id="line2d_41">
      <path d="M 452.80275 269.779558 
L 844.92525 269.779558 
" clip-path="url(#pfc45ab3d06)" style="fill: none; stroke-dasharray: 3.7,1.6; stroke-dashoffset: 0; stroke: #cbcbcb; stroke-opacity: 0.4"/>
     </g>
     <g id="line2d_42"/>
    </g>
    <g id="ytick_8">
     <g id="line2d_43">
      <path d="M 452.80275 232.181149 
L 844.92525 232.181149 
" clip-path="url(#pfc45ab3d06)" style="fill: none; stroke-dasharray: 3.7,1.6; stroke-dashoffset: 0; stroke: #cbcbcb; stroke-opacity: 0.4"/>
     </g>
     <g id="line2d_44"/>
    </g>
    <g id="ytick_9">
     <g id="line2d_45">
      <path d="M 452.80275 194.582741 
L 844.92525 194.582741 
" clip-path="url(#pfc45ab3d06)" style="fill: none; stroke-dasharray: 3.7,1.6; stroke-dashoffset: 0; stroke: #cbcbcb; stroke-opacity: 0.4"/>
     </g>
     <g id="line2d_46"/>
    </g>
    <g id="ytick_10">
     <g id="line2d_47">
      <path d="M 452.80275 156.984332 
L 844.92525 156.984332 
" clip-path="url(#pfc45ab3d06)" style="fill: none; stroke-dasharray: 3.7,1.6; stroke-dashoffset: 0; stroke: #cbcbcb; stroke-opacity: 0.4"/>
     </g>
     <g id="line2d_48"/>
    </g>
    <g id="ytick_11">
     <g id="line2d_49">
      <path d="M 452.80275 119.385924 
L 844.92525 119.385924 
" clip-path="url(#pfc45ab3d06)" style="fill: none; stroke-dasharray: 3.7,1.6; stroke-dashoffset: 0; stroke: #cbcbcb; stroke-opacity: 0.4"/>
     </g>
     <g id="line2d_50"/>
    </g>
    <g id="ytick_12">
     <g id="line2d_51">
      <path d="M 452.80275 81.787515 
L 844.92525 81.787515 
" clip-path="url(#pfc45ab3d06)" style="fill: none; stroke-dasharray: 3.7,1.6; stroke-dashoffset: 0; stroke: #cbcbcb; stroke-opacity: 0.4"/>
     </g>
     <g id="line2d_52"/>
    </g>
   </g>
   <g id="PathCollection_6">
    <g clip-path="url(#pfc45ab3d06)">
     <use xlink:href="#m320cac790f" x="579.118891" y="194.582741" style="fill: #c00000; stroke: #c00000; stroke-width: 4"/>
     <use xlink:href="#m320cac790f" x="610.116717" y="194.582741" style="fill: #c00000; stroke: #c00000; stroke-width: 4"/>
     <use xlink:href="#m320cac790f" x="641.114543" y="194.582741" style="fill: #c00000; stroke: #c00000; stroke-width: 4"/>
     <use xlink:href="#m320cac790f" x="796.103674" y="194.582741" style="fill: #c00000; stroke: #c00000; stroke-width: 4"/>
    </g>
   </g>
   <g id="PathCollection_7">
    <defs>
     <path id="C1_0_259de8c918" d="M 0 5 
C 1.326016 5 2.597899 4.473168 3.535534 3.535534 
C 4.473168 2.597899 5 1.326016 5 -0 
C 5 -1.326016 4.473168 -2.597899 3.535534 -3.535534 
C 2.597899 -4.473168 1.326016 -5 0 -5 
C -1.326016 -5 -2.597899 -4.473168 -3.535534 -3.535534 
C -4.473168 -2.597899 -5 -1.326016 -5 0 
C -5 1.326016 -4.473168 2.597899 -3.535534 3.535534 
C -2.597899 4.473168 -1.326016 5 0 5 
z
"/>
    </defs>
    <g clip-path="url(#pfc45ab3d06)">
     <use xlink:href="#C1_0_259de8c918" x="486.125413" y="269.779558" style="fill: none; stroke: #0096ff; stroke-width: 2"/>
    </g>
    <g clip-path="url(#pfc45ab3d06)">
     <use xlink:href="#C1_0_259de8c918" x="517.123239" y="269.779558" style="fill: none; stroke: #0096ff; stroke-width: 2"/>
    </g>
    <g clip-path="url(#pfc45ab3d06)">
     <use xlink:href="#C1_0_259de8c918" x="548.121065" y="269.779558" style="fill: none; stroke: #0096ff; stroke-width: 2"/>
    </g>
   </g>
   <g id="line2d_53">
    <path d="M 470.6265 266.125225 
L 473.622088 265.222618 
L 476.617676 264.320011 
L 479.613265 263.417404 
L 482.608853 262.514797 
L 485.604441 261.61219 
L 488.600029 260.709583 
L 491.595618 259.806976 
L 494.591206 258.904369 
L 497.586794 258.001762 
L 500.582382 257.099154 
L 503.577971 256.196547 
L 506.573559 255.29394 
L 509.569147 254.391333 
L 512.564735 253.488726 
L 515.560324 252.586119 
L 518.555912 251.683512 
L 521.5515 250.780905 
L 524.547088 249.878298 
L 527.542676 248.975691 
L 530.538265 248.073084 
L 533.533853 247.170476 
L 536.529441 246.267869 
L 539.525029 245.365262 
L 542.520618 244.462655 
L 545.516206 243.560048 
L 548.511794 242.657441 
L 551.507382 241.754834 
L 554.502971 240.852227 
L 557.498559 239.94962 
L 560.494147 239.047013 
L 563.489735 238.144406 
L 566.485324 237.241798 
L 569.480912 236.339191 
L 572.4765 235.436584 
L 575.472088 234.533977 
L 578.467676 233.63137 
L 581.463265 232.728763 
L 584.458853 231.826156 
L 587.454441 230.923549 
L 590.450029 230.020942 
L 593.445618 229.118335 
L 596.441206 228.215728 
L 599.436794 227.313121 
L 602.432382 226.410513 
L 605.427971 225.507906 
L 608.423559 224.605299 
L 611.419147 223.702692 
L 614.414735 222.800085 
L 617.410324 221.897478 
L 620.405912 220.994871 
L 623.4015 220.092264 
L 626.397088 219.189657 
L 629.392676 218.28705 
L 632.388265 217.384443 
L 635.383853 216.481835 
L 638.379441 215.579228 
L 641.375029 214.676621 
L 644.370618 213.774014 
L 647.366206 212.871407 
L 650.361794 211.9688 
L 653.357382 211.066193 
L 656.352971 210.163586 
L 659.348559 209.260979 
L 662.344147 208.358372 
L 665.339735 207.455765 
L 668.335324 206.553157 
L 671.330912 205.65055 
L 674.3265 204.747943 
L 677.322088 203.845336 
L 680.317676 202.942729 
L 683.313265 202.040122 
L 686.308853 201.137515 
L 689.304441 200.234908 
L 692.300029 199.332301 
L 695.295618 198.429694 
L 698.291206 197.527087 
L 701.286794 196.62448 
L 704.282382 195.721872 
L 707.277971 194.819265 
L 710.273559 193.916658 
L 713.269147 193.014051 
L 716.264735 192.111444 
L 719.260324 191.208837 
L 722.255912 190.30623 
L 725.2515 189.403623 
L 728.247088 188.501016 
L 731.242676 187.598409 
L 734.238265 186.695802 
L 737.233853 185.793194 
L 740.229441 184.890587 
L 743.225029 183.98798 
L 746.220618 183.085373 
L 749.216206 182.182766 
L 752.211794 181.280159 
L 755.207382 180.377552 
L 758.202971 179.474945 
L 761.198559 178.572338 
L 764.194147 177.669731 
L 767.189735 176.767124 
L 770.185324 175.864517 
L 773.180912 174.961909 
L 776.1765 174.059302 
L 779.172088 173.156695 
L 782.167676 172.254088 
L 785.163265 171.351481 
L 788.158853 170.448874 
L 791.154441 169.546267 
L 794.150029 168.64366 
L 797.145618 167.741053 
L 800.141206 166.838446 
L 803.136794 165.935839 
L 806.132382 165.033231 
L 809.127971 164.130624 
L 812.123559 163.228017 
L 815.119147 162.32541 
L 818.114735 161.422803 
L 821.110324 160.520196 
L 824.105912 159.617589 
L 827.1015 158.714982 
" clip-path="url(#pfc45ab3d06)" style="fill: none; stroke: #ff9300; stroke-width: 2"/>
   </g>
   <g id="line2d_54">
    <path d="M 452.80275 232.181149 
L 844.92525 232.181149 
" clip-path="url(#pfc45ab3d06)" style="fill: none; stroke-dasharray: 3.7,1.6; stroke-dashoffset: 0; stroke: #808080"/>
   </g>
   <g id="line2d_55">
    <path d="M 583.280694 291.72 
L 583.280694 73.35 
" clip-path="url(#pfc45ab3d06)" style="fill: none; stroke-dasharray: 2,3.3; stroke-dashoffset: 0; stroke: #7030a0; stroke-width: 2"/>
   </g>
   <g id="patch_9">
    <path d="M 452.80275 291.72 
L 452.80275 73.35 
" style="fill: none; stroke: #f0f0f0; stroke-width: 3; stroke-linejoin: miter; stroke-linecap: square"/>
   </g>
   <g id="patch_10">
    <path d="M 844.92525 291.72 
L 844.92525 73.35 
" style="fill: none; stroke: #f0f0f0; stroke-width: 3; stroke-linejoin: miter; stroke-linecap: square"/>
   </g>
   <g id="patch_11">
    <path d="M 452.80275 291.72 
L 844.92525 291.72 
" style="fill: none; stroke: #f0f0f0; stroke-width: 3; stroke-linejoin: miter; stroke-linecap: square"/>
   </g>
   <g id="patch_12">
    <path d="M 452.80275 73.35 
L 844.92525 73.35 
" style="fill: none; stroke: #f0f0f0; stroke-width: 3; stroke-linejoin: miter; stroke-linecap: square"/>
   </g>
   <g id="text_26">
    <!-- After adding malignant point at x = 10 -->
    <g style="fill: #808080" transform="translate(481.5801 67.35) scale(0.1728 -0.1728)">
     <defs>
      <path id="DejaVuSans-41" d="M 2188 4044 
L 1331 1722 
L 3047 1722 
L 2188 4044 
z
M 1831 4666 
L 2547 4666 
L 4325 0 
L 3669 0 
L 3244 1197 
L 1141 1197 
L 716 0 
L 50 0 
L 1831 4666 
z
" transform="scale(0.015625)"/>
      <path id="DejaVuSans-70" d="M 1159 525 
L 1159 -1331 
L 581 -1331 
L 581 3500 
L 1159 3500 
L 1159 2969 
Q 1341 3281 1617 3432 
Q 1894 3584 2278 3584 
Q 2916 3584 3314 3078 
Q 3713 2572 3713 1747 
Q 3713 922 3314 415 
Q 2916 -91 2278 -91 
Q 1894 -91 1617 61 
Q 1341 213 1159 525 
z
M 3116 1747 
Q 3116 2381 2855 2742 
Q 2594 3103 2138 3103 
Q 1681 3103 1420 2742 
Q 1159 2381 1159 1747 
Q 1159 1113 1420 752 
Q 1681 391 2138 391 
Q 2594 391 2855 752 
Q 3116 1113 3116 1747 
z
" transform="scale(0.015625)"/>
      <path id="DejaVuSans-78" d="M 3513 3500 
L 2247 1797 
L 3578 0 
L 2900 0 
L 1881 1375 
L 863 0 
L 184 0 
L 1544 1831 
L 300 3500 
L 978 3500 
L 1906 2253 
L 2834 3500 
L 3513 3500 
z
" transform="scale(0.015625)"/>
      <path id="DejaVuSans-3d" d="M 678 2906 
L 4684 2906 
L 4684 2381 
L 678 2381 
L 678 2906 
z
M 678 1631 
L 4684 1631 
L 4684 1100 
L 678 1100 
L 678 1631 
z
" transform="scale(0.015625)"/>
     </defs>
     <use xlink:href="#DejaVuSans-41"/>
     <use xlink:href="#DejaVuSans-66" transform="translate(64.783203 0)"/>
     <use xlink:href="#DejaVuSans-74" transform="translate(98.238281 0)"/>
     <use xlink:href="#DejaVuSans-65" transform="translate(137.447266 0)"/>
     <use xlink:href="#DejaVuSans-72" transform="translate(198.970703 0)"/>
     <use xlink:href="#DejaVuSans-20" transform="translate(240.083984 0)"/>
     <use xlink:href="#DejaVuSans-61" transform="translate(271.871094 0)"/>
     <use xlink:href="#DejaVuSans-64" transform="translate(333.150391 0)"/>
     <use xlink:href="#DejaVuSans-64" transform="translate(396.626953 0)"/>
     <use xlink:href="#DejaVuSans-69" transform="translate(460.103516 0)"/>
     <use xlink:href="#DejaVuSans-6e" transform="translate(487.886719 0)"/>
     <use xlink:href="#DejaVuSans-67" transform="translate(551.265625 0)"/>
     <use xlink:href="#DejaVuSans-20" transform="translate(614.742188 0)"/>
     <use xlink:href="#DejaVuSans-6d" transform="translate(646.529297 0)"/>
     <use xlink:href="#DejaVuSans-61" transform="translate(743.941406 0)"/>
     <use xlink:href="#DejaVuSans-6c" transform="translate(805.220703 0)"/>
     <use xlink:href="#DejaVuSans-69" transform="translate(833.003906 0)"/>
     <use xlink:href="#DejaVuSans-67" transform="translate(860.787109 0)"/>
     <use xlink:href="#DejaVuSans-6e" transform="translate(924.263672 0)"/>
     <use xlink:href="#DejaVuSans-61" transform="translate(987.642578 0)"/>
     <use xlink:href="#DejaVuSans-6e" transform="translate(1048.921875 0)"/>
     <use xlink:href="#DejaVuSans-74" transform="translate(1112.300781 0)"/>
     <use xlink:href="#DejaVuSans-20" transform="translate(1151.509766 0)"/>
     <use xlink:href="#DejaVuSans-70" transform="translate(1183.296875 0)"/>
     <use xlink:href="#DejaVuSans-6f" transform="translate(1246.773438 0)"/>
     <use xlink:href="#DejaVuSans-69" transform="translate(1307.955078 0)"/>
     <use xlink:href="#DejaVuSans-6e" transform="translate(1335.738281 0)"/>
     <use xlink:href="#DejaVuSans-74" transform="translate(1399.117188 0)"/>
     <use xlink:href="#DejaVuSans-20" transform="translate(1438.326172 0)"/>
     <use xlink:href="#DejaVuSans-61" transform="translate(1470.113281 0)"/>
     <use xlink:href="#DejaVuSans-74" transform="translate(1531.392578 0)"/>
     <use xlink:href="#DejaVuSans-20" transform="translate(1570.601562 0)"/>
     <use xlink:href="#DejaVuSans-78" transform="translate(1602.388672 0)"/>
     <use xlink:href="#DejaVuSans-20" transform="translate(1661.568359 0)"/>
     <use xlink:href="#DejaVuSans-3d" transform="translate(1693.355469 0)"/>
     <use xlink:href="#DejaVuSans-20" transform="translate(1777.144531 0)"/>
     <use xlink:href="#DejaVuSans-31" transform="translate(1808.931641 0)"/>
     <use xlink:href="#DejaVuSans-30" transform="translate(1872.554688 0)"/>
    </g>
   </g>
   <g id="PathCollection_8">
    <g clip-path="url(#pfc45ab3d06)">
     <use xlink:href="#mfeb1ef446e" x="579.118891" y="194.582741" style="fill: #ff40ff; stroke: #ff40ff; stroke-width: 0.5"/>
    </g>
   </g>
  </g>
  <g id="text_27">
   <!-- One outlier shifts the decision boundary -->
   <g style="fill: #808080" transform="translate(281.50275 18.14175) scale(0.144 -0.144)">
    <defs>
     <path id="DejaVuSans-68" d="M 3513 2113 
L 3513 0 
L 2938 0 
L 2938 2094 
Q 2938 2591 2744 2837 
Q 2550 3084 2163 3084 
Q 1697 3084 1428 2787 
Q 1159 2491 1159 1978 
L 1159 0 
L 581 0 
L 581 4863 
L 1159 4863 
L 1159 2956 
Q 1366 3272 1645 3428 
Q 1925 3584 2291 3584 
Q 2894 3584 3203 3211 
Q 3513 2838 3513 2113 
z
" transform="scale(0.015625)"/>
     <path id="DejaVuSans-63" d="M 3122 3366 
L 3122 2828 
Q 2878 2963 2633 3030 
Q 2388 3097 2138 3097 
Q 1578 3097 1268 2742 
Q 959 2388 959 1747 
Q 959 1106 1268 751 
Q 1578 397 2138 397 
Q 2388 397 2633 464 
Q 2878 531 3122 666 
L 3122 134 
Q 2881 22 2623 -34 
Q 2366 -91 2075 -91 
Q 1284 -91 818 406 
Q 353 903 353 1747 
Q 353 2603 823 3093 
Q 1294 3584 2113 3584 
Q 2378 3584 2631 3529 
Q 2884 3475 3122 3366 
z
" transform="scale(0.015625)"/>
    </defs>
    <use xlink:href="#DejaVuSans-4f"/>
    <use xlink:href="#DejaVuSans-6e" transform="translate(78.710938 0)"/>
    <use xlink:href="#DejaVuSans-65" transform="translate(142.089844 0)"/>
    <use xlink:href="#DejaVuSans-20" transform="translate(203.613281 0)"/>
    <use xlink:href="#DejaVuSans-6f" transform="translate(235.400391 0)"/>
    <use xlink:href="#DejaVuSans-75" transform="translate(296.582031 0)"/>
    <use xlink:href="#DejaVuSans-74" transform="translate(359.960938 0)"/>
    <use xlink:href="#DejaVuSans-6c" transform="translate(399.169922 0)"/>
    <use xlink:href="#DejaVuSans-69" transform="translate(426.953125 0)"/>
    <use xlink:href="#DejaVuSans-65" transform="translate(454.736328 0)"/>
    <use xlink:href="#DejaVuSans-72" transform="translate(516.259766 0)"/>
    <use xlink:href="#DejaVuSans-20" transform="translate(557.373047 0)"/>
    <use xlink:href="#DejaVuSans-73" transform="translate(589.160156 0)"/>
    <use xlink:href="#DejaVuSans-68" transform="translate(641.259766 0)"/>
    <use xlink:href="#DejaVuSans-69" transform="translate(704.638672 0)"/>
    <use xlink:href="#DejaVuSans-66" transform="translate(732.421875 0)"/>
    <use xlink:href="#DejaVuSans-74" transform="translate(765.876953 0)"/>
    <use xlink:href="#DejaVuSans-73" transform="translate(805.085938 0)"/>
    <use xlink:href="#DejaVuSans-20" transform="translate(857.185547 0)"/>
    <use xlink:href="#DejaVuSans-74" transform="translate(888.972656 0)"/>
    <use xlink:href="#DejaVuSans-68" transform="translate(928.181641 0)"/>
    <use xlink:href="#DejaVuSans-65" transform="translate(991.560547 0)"/>
    <use xlink:href="#DejaVuSans-20" transform="translate(1053.083984 0)"/>
    <use xlink:href="#DejaVuSans-64" transform="translate(1084.871094 0)"/>
    <use xlink:href="#DejaVuSans-65" transform="translate(1148.347656 0)"/>
    <use xlink:href="#DejaVuSans-63" transform="translate(1209.871094 0)"/>
    <use xlink:href="#DejaVuSans-69" transform="translate(1264.851562 0)"/>
    <use xlink:href="#DejaVuSans-73" transform="translate(1292.634766 0)"/>
    <use xlink:href="#DejaVuSans-69" transform="translate(1344.734375 0)"/>
    <use xlink:href="#DejaVuSans-6f" transform="translate(1372.517578 0)"/>
    <use xlink:href="#DejaVuSans-6e" transform="translate(1433.699219 0)"/>
    <use xlink:href="#DejaVuSans-20" transform="translate(1497.078125 0)"/>
    <use xlink:href="#DejaVuSans-62" transform="translate(1528.865234 0)"/>
    <use xlink:href="#DejaVuSans-6f" transform="translate(1592.341797 0)"/>
    <use xlink:href="#DejaVuSans-75" transform="translate(1653.523438 0)"/>
    <use xlink:href="#DejaVuSans-6e" transform="translate(1716.902344 0)"/>
    <use xlink:href="#DejaVuSans-64" transform="translate(1780.28125 0)"/>
    <use xlink:href="#DejaVuSans-61" transform="translate(1843.757812 0)"/>
    <use xlink:href="#DejaVuSans-72" transform="translate(1905.037109 0)"/>
    <use xlink:href="#DejaVuSans-79" transform="translate(1946.150391 0)"/>
   </g>
  </g>
 </g>
 <defs>
  <clipPath id="pb268aae5b5">
   <rect x="47.72025" y="73.35" width="392.1225" height="218.37"/>
  </clipPath>
  <clipPath id="pfc45ab3d06">
   <rect x="452.80275" y="73.35" width="392.1225" height="218.37"/>
  </clipPath>
 </defs>
</svg>
