<?xml version="1.0" encoding="utf-8" standalone="no"?>
<!DOCTYPE svg PUBLIC "-//W3C//DTD SVG 1.1//EN"
  "http://www.w3.org/Graphics/SVG/1.1/DTD/svg11.dtd">
<svg xmlns:xlink="http://www.w3.org/1999/xlink" width="572.53975pt" height="356.6569pt" viewBox="0 0 572.53975 356.6569" xmlns="http://www.w3.org/2000/svg" version="1.1">
 <metadata>
  <rdf:RDF xmlns:dc="http://purl.org/dc/elements/1.1/" xmlns:cc="http://creativecommons.org/ns#" xmlns:rdf="http://www.w3.org/1999/02/22-rdf-syntax-ns#">
   <cc:Work>
    <dc:type rdf:resource="http://purl.org/dc/dcmitype/StillImage"/>
    <dc:date>2026-07-22T14:21:06.936798</dc:date>
    <dc:format>image/svg+xml</dc:format>
    <dc:creator>
     <cc:Agent>
      <dc:title>Matplotlib v3.10.8, https://matplotlib.org/</dc:title>
     </cc:Agent>
    </dc:creator>
   </cc:Work>
  </rdf:RDF>
 </metadata>
 <defs>
  <style type="text/css">*{stroke-linejoin: round; stroke-linecap: butt}</style>
 </defs>
 <g id="figure_1">
  <g id="patch_1">
   <path d="M 0 356.6569 
L 572.53975 356.6569 
L 572.53975 0 
L 0 0 
z
" style="fill: #ffffff"/>
  </g>
  <g id="axes_1">
   <g id="patch_2">
    <path d="M 36.7135 324.9234 
L 565.33975 324.9234 
L 565.33975 21.9534 
L 36.7135 21.9534 
z
" style="fill: #ffffff"/>
   </g>
   <g id="matplotlib.axis_1">
    <g id="xtick_1">
     <g id="line2d_1">
      <path d="M 97.708837 324.9234 
L 97.708837 21.9534 
" clip-path="url(#pfe12dd9274)" style="fill: none; stroke-dasharray: 3.7,1.6; stroke-dashoffset: 0; stroke: #cbcbcb; stroke-opacity: 0.4"/>
     </g>
     <g id="line2d_2"/>
     <g id="text_1">
      <!-- 0 -->
      <g transform="translate(95.163837 334.50215) scale(0.08 -0.08)">
       <defs>
        <path id="DejaVuSans-30" d="M 2034 4250 
Q 1547 4250 1301 3770 
Q 1056 3291 1056 2328 
Q 1056 1369 1301 889 
Q 1547 409 2034 409 
Q 2525 409 2770 889 
Q 3016 1369 3016 2328 
Q 3016 3291 2770 3770 
Q 2525 4250 2034 4250 
z
M 2034 4750 
Q 2819 4750 3233 4129 
Q 3647 3509 3647 2328 
Q 3647 1150 3233 529 
Q 2819 -91 2034 -91 
Q 1250 -91 836 529 
Q 422 1150 422 2328 
Q 422 3509 836 4129 
Q 1250 4750 2034 4750 
z
" transform="scale(0.015625)"/>
       </defs>
       <use xlink:href="#DejaVuSans-30"/>
      </g>
     </g>
    </g>
    <g id="xtick_2">
     <g id="line2d_3">
      <path d="M 171.642578 324.9234 
L 171.642578 21.9534 
" clip-path="url(#pfe12dd9274)" style="fill: none; stroke-dasharray: 3.7,1.6; stroke-dashoffset: 0; stroke: #cbcbcb; stroke-opacity: 0.4"/>
     </g>
     <g id="line2d_4"/>
     <g id="text_2">
      <!-- 1 -->
      <g transform="translate(169.097578 334.50215) scale(0.08 -0.08)">
       <defs>
        <path id="DejaVuSans-31" d="M 794 531 
L 1825 531 
L 1825 4091 
L 703 3866 
L 703 4441 
L 1819 4666 
L 2450 4666 
L 2450 531 
L 3481 531 
L 3481 0 
L 794 0 
L 794 531 
z
" transform="scale(0.015625)"/>
       </defs>
       <use xlink:href="#DejaVuSans-31"/>
      </g>
     </g>
    </g>
    <g id="xtick_3">
     <g id="line2d_5">
      <path d="M 245.576319 324.9234 
L 245.576319 21.9534 
" clip-path="url(#pfe12dd9274)" style="fill: none; stroke-dasharray: 3.7,1.6; stroke-dashoffset: 0; stroke: #cbcbcb; stroke-opacity: 0.4"/>
     </g>
     <g id="line2d_6"/>
     <g id="text_3">
      <!-- 2 -->
      <g transform="translate(243.031319 334.50215) scale(0.08 -0.08)">
       <defs>
        <path id="DejaVuSans-32" d="M 1228 531 
L 3431 531 
L 3431 0 
L 469 0 
L 469 531 
Q 828 903 1448 1529 
Q 2069 2156 2228 2338 
Q 2531 2678 2651 2914 
Q 2772 3150 2772 3378 
Q 2772 3750 2511 3984 
Q 2250 4219 1831 4219 
Q 1534 4219 1204 4116 
Q 875 4013 500 3803 
L 500 4441 
Q 881 4594 1212 4672 
Q 1544 4750 1819 4750 
Q 2544 4750 2975 4387 
Q 3406 4025 3406 3419 
Q 3406 3131 3298 2873 
Q 3191 2616 2906 2266 
Q 2828 2175 2409 1742 
Q 1991 1309 1228 531 
z
" transform="scale(0.015625)"/>
       </defs>
       <use xlink:href="#DejaVuSans-32"/>
      </g>
     </g>
    </g>
    <g id="xtick_4">
     <g id="line2d_7">
      <path d="M 319.51006 324.9234 
L 319.51006 21.9534 
" clip-path="url(#pfe12dd9274)" style="fill: none; stroke-dasharray: 3.7,1.6; stroke-dashoffset: 0; stroke: #cbcbcb; stroke-opacity: 0.4"/>
     </g>
     <g id="line2d_8"/>
     <g id="text_4">
      <!-- 3 -->
      <g transform="translate(316.96506 334.50215) scale(0.08 -0.08)">
       <defs>
        <path id="DejaVuSans-33" d="M 2597 2516 
Q 3050 2419 3304 2112 
Q 3559 1806 3559 1356 
Q 3559 666 3084 287 
Q 2609 -91 1734 -91 
Q 1441 -91 1130 -33 
Q 819 25 488 141 
L 488 750 
Q 750 597 1062 519 
Q 1375 441 1716 441 
Q 2309 441 2620 675 
Q 2931 909 2931 1356 
Q 2931 1769 2642 2001 
Q 2353 2234 1838 2234 
L 1294 2234 
L 1294 2753 
L 1863 2753 
Q 2328 2753 2575 2939 
Q 2822 3125 2822 3475 
Q 2822 3834 2567 4026 
Q 2313 4219 1838 4219 
Q 1578 4219 1281 4162 
Q 984 4106 628 3988 
L 628 4550 
Q 988 4650 1302 4700 
Q 1616 4750 1894 4750 
Q 2613 4750 3031 4423 
Q 3450 4097 3450 3541 
Q 3450 3153 3228 2886 
Q 3006 2619 2597 2516 
z
" transform="scale(0.015625)"/>
       </defs>
       <use xlink:href="#DejaVuSans-33"/>
      </g>
     </g>
    </g>
    <g id="xtick_5">
     <g id="line2d_9">
      <path d="M 393.443802 324.9234 
L 393.443802 21.9534 
" clip-path="url(#pfe12dd9274)" style="fill: none; stroke-dasharray: 3.7,1.6; stroke-dashoffset: 0; stroke: #cbcbcb; stroke-opacity: 0.4"/>
     </g>
     <g id="line2d_10"/>
     <g id="text_5">
      <!-- 4 -->
      <g transform="translate(390.898802 334.50215) scale(0.08 -0.08)">
       <defs>
        <path id="DejaVuSans-34" d="M 2419 4116 
L 825 1625 
L 2419 1625 
L 2419 4116 
z
M 2253 4666 
L 3047 4666 
L 3047 1625 
L 3713 1625 
L 3713 1100 
L 3047 1100 
L 3047 0 
L 2419 0 
L 2419 1100 
L 313 1100 
L 313 1709 
L 2253 4666 
z
" transform="scale(0.015625)"/>
       </defs>
       <use xlink:href="#DejaVuSans-34"/>
      </g>
     </g>
    </g>
    <g id="xtick_6">
     <g id="line2d_11">
      <path d="M 467.377543 324.9234 
L 467.377543 21.9534 
" clip-path="url(#pfe12dd9274)" style="fill: none; stroke-dasharray: 3.7,1.6; stroke-dashoffset: 0; stroke: #cbcbcb; stroke-opacity: 0.4"/>
     </g>
     <g id="line2d_12"/>
     <g id="text_6">
      <!-- 5 -->
      <g transform="translate(464.832543 334.50215) scale(0.08 -0.08)">
       <defs>
        <path id="DejaVuSans-35" d="M 691 4666 
L 3169 4666 
L 3169 4134 
L 1269 4134 
L 1269 2991 
Q 1406 3038 1543 3061 
Q 1681 3084 1819 3084 
Q 2600 3084 3056 2656 
Q 3513 2228 3513 1497 
Q 3513 744 3044 326 
Q 2575 -91 1722 -91 
Q 1428 -91 1123 -41 
Q 819 9 494 109 
L 494 744 
Q 775 591 1075 516 
Q 1375 441 1709 441 
Q 2250 441 2565 725 
Q 2881 1009 2881 1497 
Q 2881 1984 2565 2268 
Q 2250 2553 1709 2553 
Q 1456 2553 1204 2497 
Q 953 2441 691 2322 
L 691 4666 
z
" transform="scale(0.015625)"/>
       </defs>
       <use xlink:href="#DejaVuSans-35"/>
      </g>
     </g>
    </g>
    <g id="xtick_7">
     <g id="line2d_13">
      <path d="M 541.311284 324.9234 
L 541.311284 21.9534 
" clip-path="url(#pfe12dd9274)" style="fill: none; stroke-dasharray: 3.7,1.6; stroke-dashoffset: 0; stroke: #cbcbcb; stroke-opacity: 0.4"/>
     </g>
     <g id="line2d_14"/>
     <g id="text_7">
      <!-- 6 -->
      <g transform="translate(538.766284 334.50215) scale(0.08 -0.08)">
       <defs>
        <path id="DejaVuSans-36" d="M 2113 2584 
Q 1688 2584 1439 2293 
Q 1191 2003 1191 1497 
Q 1191 994 1439 701 
Q 1688 409 2113 409 
Q 2538 409 2786 701 
Q 3034 994 3034 1497 
Q 3034 2003 2786 2293 
Q 2538 2584 2113 2584 
z
M 3366 4563 
L 3366 3988 
Q 3128 4100 2886 4159 
Q 2644 4219 2406 4219 
Q 1781 4219 1451 3797 
Q 1122 3375 1075 2522 
Q 1259 2794 1537 2939 
Q 1816 3084 2150 3084 
Q 2853 3084 3261 2657 
Q 3669 2231 3669 1497 
Q 3669 778 3244 343 
Q 2819 -91 2113 -91 
Q 1303 -91 875 529 
Q 447 1150 447 2328 
Q 447 3434 972 4092 
Q 1497 4750 2381 4750 
Q 2619 4750 2861 4703 
Q 3103 4656 3366 4563 
z
" transform="scale(0.015625)"/>
       </defs>
       <use xlink:href="#DejaVuSans-36"/>
      </g>
     </g>
    </g>
    <g id="text_8">
     <!-- Tumor size -->
     <g transform="translate(275.360875 347.4604) scale(0.096 -0.096)">
      <defs>
       <path id="DejaVuSans-54" d="M -19 4666 
L 3928 4666 
L 3928 4134 
L 2272 4134 
L 2272 0 
L 1638 0 
L 1638 4134 
L -19 4134 
L -19 4666 
z
" transform="scale(0.015625)"/>
       <path id="DejaVuSans-75" d="M 544 1381 
L 544 3500 
L 1119 3500 
L 1119 1403 
Q 1119 906 1312 657 
Q 1506 409 1894 409 
Q 2359 409 2629 706 
Q 2900 1003 2900 1516 
L 2900 3500 
L 3475 3500 
L 3475 0 
L 2900 0 
L 2900 538 
Q 2691 219 2414 64 
Q 2138 -91 1772 -91 
Q 1169 -91 856 284 
Q 544 659 544 1381 
z
M 1991 3584 
L 1991 3584 
z
" transform="scale(0.015625)"/>
       <path id="DejaVuSans-6d" d="M 3328 2828 
Q 3544 3216 3844 3400 
Q 4144 3584 4550 3584 
Q 5097 3584 5394 3201 
Q 5691 2819 5691 2113 
L 5691 0 
L 5113 0 
L 5113 2094 
Q 5113 2597 4934 2840 
Q 4756 3084 4391 3084 
Q 3944 3084 3684 2787 
Q 3425 2491 3425 1978 
L 3425 0 
L 2847 0 
L 2847 2094 
Q 2847 2600 2669 2842 
Q 2491 3084 2119 3084 
Q 1678 3084 1418 2786 
Q 1159 2488 1159 1978 
L 1159 0 
L 581 0 
L 581 3500 
L 1159 3500 
L 1159 2956 
Q 1356 3278 1631 3431 
Q 1906 3584 2284 3584 
Q 2666 3584 2933 3390 
Q 3200 3197 3328 2828 
z
" transform="scale(0.015625)"/>
       <path id="DejaVuSans-6f" d="M 1959 3097 
Q 1497 3097 1228 2736 
Q 959 2375 959 1747 
Q 959 1119 1226 758 
Q 1494 397 1959 397 
Q 2419 397 2687 759 
Q 2956 1122 2956 1747 
Q 2956 2369 2687 2733 
Q 2419 3097 1959 3097 
z
M 1959 3584 
Q 2709 3584 3137 3096 
Q 3566 2609 3566 1747 
Q 3566 888 3137 398 
Q 2709 -91 1959 -91 
Q 1206 -91 779 398 
Q 353 888 353 1747 
Q 353 2609 779 3096 
Q 1206 3584 1959 3584 
z
" transform="scale(0.015625)"/>
       <path id="DejaVuSans-72" d="M 2631 2963 
Q 2534 3019 2420 3045 
Q 2306 3072 2169 3072 
Q 1681 3072 1420 2755 
Q 1159 2438 1159 1844 
L 1159 0 
L 581 0 
L 581 3500 
L 1159 3500 
L 1159 2956 
Q 1341 3275 1631 3429 
Q 1922 3584 2338 3584 
Q 2397 3584 2469 3576 
Q 2541 3569 2628 3553 
L 2631 2963 
z
" transform="scale(0.015625)"/>
       <path id="DejaVuSans-20" transform="scale(0.015625)"/>
       <path id="DejaVuSans-73" d="M 2834 3397 
L 2834 2853 
Q 2591 2978 2328 3040 
Q 2066 3103 1784 3103 
Q 1356 3103 1142 2972 
Q 928 2841 928 2578 
Q 928 2378 1081 2264 
Q 1234 2150 1697 2047 
L 1894 2003 
Q 2506 1872 2764 1633 
Q 3022 1394 3022 966 
Q 3022 478 2636 193 
Q 2250 -91 1575 -91 
Q 1294 -91 989 -36 
Q 684 19 347 128 
L 347 722 
Q 666 556 975 473 
Q 1284 391 1588 391 
Q 1994 391 2212 530 
Q 2431 669 2431 922 
Q 2431 1156 2273 1281 
Q 2116 1406 1581 1522 
L 1381 1569 
Q 847 1681 609 1914 
Q 372 2147 372 2553 
Q 372 3047 722 3315 
Q 1072 3584 1716 3584 
Q 2034 3584 2315 3537 
Q 2597 3491 2834 3397 
z
" transform="scale(0.015625)"/>
       <path id="DejaVuSans-69" d="M 603 3500 
L 1178 3500 
L 1178 0 
L 603 0 
L 603 3500 
z
M 603 4863 
L 1178 4863 
L 1178 4134 
L 603 4134 
L 603 4863 
z
" transform="scale(0.015625)"/>
       <path id="DejaVuSans-7a" d="M 353 3500 
L 3084 3500 
L 3084 2975 
L 922 459 
L 3084 459 
L 3084 0 
L 275 0 
L 275 525 
L 2438 3041 
L 353 3041 
L 353 3500 
z
" transform="scale(0.015625)"/>
       <path id="DejaVuSans-65" d="M 3597 1894 
L 3597 1613 
L 953 1613 
Q 991 1019 1311 708 
Q 1631 397 2203 397 
Q 2534 397 2845 478 
Q 3156 559 3463 722 
L 3463 178 
Q 3153 47 2828 -22 
Q 2503 -91 2169 -91 
Q 1331 -91 842 396 
Q 353 884 353 1716 
Q 353 2575 817 3079 
Q 1281 3584 2069 3584 
Q 2775 3584 3186 3129 
Q 3597 2675 3597 1894 
z
M 3022 2063 
Q 3016 2534 2758 2815 
Q 2500 3097 2075 3097 
Q 1594 3097 1305 2825 
Q 1016 2553 972 2059 
L 3022 2063 
z
" transform="scale(0.015625)"/>
      </defs>
      <use xlink:href="#DejaVuSans-54"/>
      <use xlink:href="#DejaVuSans-75" transform="translate(45.958984 0)"/>
      <use xlink:href="#DejaVuSans-6d" transform="translate(109.337891 0)"/>
      <use xlink:href="#DejaVuSans-6f" transform="translate(206.75 0)"/>
      <use xlink:href="#DejaVuSans-72" transform="translate(267.931641 0)"/>
      <use xlink:href="#DejaVuSans-20" transform="translate(309.044922 0)"/>
      <use xlink:href="#DejaVuSans-73" transform="translate(340.832031 0)"/>
      <use xlink:href="#DejaVuSans-69" transform="translate(392.931641 0)"/>
      <use xlink:href="#DejaVuSans-7a" transform="translate(420.714844 0)"/>
      <use xlink:href="#DejaVuSans-65" transform="translate(473.205078 0)"/>
     </g>
    </g>
   </g>
   <g id="matplotlib.axis_2">
    <g id="ytick_1">
     <g id="line2d_15">
      <path d="M 36.7135 301.618015 
L 565.33975 301.618015 
" clip-path="url(#pfe12dd9274)" style="fill: none; stroke-dasharray: 3.7,1.6; stroke-dashoffset: 0; stroke: #cbcbcb; stroke-opacity: 0.4"/>
     </g>
     <g id="line2d_16"/>
     <g id="text_9">
      <!-- 0.0 -->
      <g transform="translate(20.491 304.65739) scale(0.08 -0.08)">
       <defs>
        <path id="DejaVuSans-2e" d="M 684 794 
L 1344 794 
L 1344 0 
L 684 0 
L 684 794 
z
" transform="scale(0.015625)"/>
       </defs>
       <use xlink:href="#DejaVuSans-30"/>
       <use xlink:href="#DejaVuSans-2e" transform="translate(63.623047 0)"/>
       <use xlink:href="#DejaVuSans-30" transform="translate(95.410156 0)"/>
      </g>
     </g>
    </g>
    <g id="ytick_2">
     <g id="line2d_17">
      <path d="M 36.7135 255.007246 
L 565.33975 255.007246 
" clip-path="url(#pfe12dd9274)" style="fill: none; stroke-dasharray: 3.7,1.6; stroke-dashoffset: 0; stroke: #cbcbcb; stroke-opacity: 0.4"/>
     </g>
     <g id="line2d_18"/>
     <g id="text_10">
      <!-- 0.2 -->
      <g transform="translate(20.491 258.046621) scale(0.08 -0.08)">
       <use xlink:href="#DejaVuSans-30"/>
       <use xlink:href="#DejaVuSans-2e" transform="translate(63.623047 0)"/>
       <use xlink:href="#DejaVuSans-32" transform="translate(95.410156 0)"/>
      </g>
     </g>
    </g>
    <g id="ytick_3">
     <g id="line2d_19">
      <path d="M 36.7135 208.396477 
L 565.33975 208.396477 
" clip-path="url(#pfe12dd9274)" style="fill: none; stroke-dasharray: 3.7,1.6; stroke-dashoffset: 0; stroke: #cbcbcb; stroke-opacity: 0.4"/>
     </g>
     <g id="line2d_20"/>
     <g id="text_11">
      <!-- 0.4 -->
      <g transform="translate(20.491 211.435852) scale(0.08 -0.08)">
       <use xlink:href="#DejaVuSans-30"/>
       <use xlink:href="#DejaVuSans-2e" transform="translate(63.623047 0)"/>
       <use xlink:href="#DejaVuSans-34" transform="translate(95.410156 0)"/>
      </g>
     </g>
    </g>
    <g id="ytick_4">
     <g id="line2d_21">
      <path d="M 36.7135 161.785708 
L 565.33975 161.785708 
" clip-path="url(#pfe12dd9274)" style="fill: none; stroke-dasharray: 3.7,1.6; stroke-dashoffset: 0; stroke: #cbcbcb; stroke-opacity: 0.4"/>
     </g>
     <g id="line2d_22"/>
     <g id="text_12">
      <!-- 0.6 -->
      <g transform="translate(20.491 164.825083) scale(0.08 -0.08)">
       <use xlink:href="#DejaVuSans-30"/>
       <use xlink:href="#DejaVuSans-2e" transform="translate(63.623047 0)"/>
       <use xlink:href="#DejaVuSans-36" transform="translate(95.410156 0)"/>
      </g>
     </g>
    </g>
    <g id="ytick_5">
     <g id="line2d_23">
      <path d="M 36.7135 115.174938 
L 565.33975 115.174938 
" clip-path="url(#pfe12dd9274)" style="fill: none; stroke-dasharray: 3.7,1.6; stroke-dashoffset: 0; stroke: #cbcbcb; stroke-opacity: 0.4"/>
     </g>
     <g id="line2d_24"/>
     <g id="text_13">
      <!-- 0.8 -->
      <g transform="translate(20.491 118.214313) scale(0.08 -0.08)">
       <defs>
        <path id="DejaVuSans-38" d="M 2034 2216 
Q 1584 2216 1326 1975 
Q 1069 1734 1069 1313 
Q 1069 891 1326 650 
Q 1584 409 2034 409 
Q 2484 409 2743 651 
Q 3003 894 3003 1313 
Q 3003 1734 2745 1975 
Q 2488 2216 2034 2216 
z
M 1403 2484 
Q 997 2584 770 2862 
Q 544 3141 544 3541 
Q 544 4100 942 4425 
Q 1341 4750 2034 4750 
Q 2731 4750 3128 4425 
Q 3525 4100 3525 3541 
Q 3525 3141 3298 2862 
Q 3072 2584 2669 2484 
Q 3125 2378 3379 2068 
Q 3634 1759 3634 1313 
Q 3634 634 3220 271 
Q 2806 -91 2034 -91 
Q 1263 -91 848 271 
Q 434 634 434 1313 
Q 434 1759 690 2068 
Q 947 2378 1403 2484 
z
M 1172 3481 
Q 1172 3119 1398 2916 
Q 1625 2713 2034 2713 
Q 2441 2713 2670 2916 
Q 2900 3119 2900 3481 
Q 2900 3844 2670 4047 
Q 2441 4250 2034 4250 
Q 1625 4250 1398 4047 
Q 1172 3844 1172 3481 
z
" transform="scale(0.015625)"/>
       </defs>
       <use xlink:href="#DejaVuSans-30"/>
       <use xlink:href="#DejaVuSans-2e" transform="translate(63.623047 0)"/>
       <use xlink:href="#DejaVuSans-38" transform="translate(95.410156 0)"/>
      </g>
     </g>
    </g>
    <g id="ytick_6">
     <g id="line2d_25">
      <path d="M 36.7135 68.564169 
L 565.33975 68.564169 
" clip-path="url(#pfe12dd9274)" style="fill: none; stroke-dasharray: 3.7,1.6; stroke-dashoffset: 0; stroke: #cbcbcb; stroke-opacity: 0.4"/>
     </g>
     <g id="line2d_26"/>
     <g id="text_14">
      <!-- 1.0 -->
      <g transform="translate(20.491 71.603544) scale(0.08 -0.08)">
       <use xlink:href="#DejaVuSans-31"/>
       <use xlink:href="#DejaVuSans-2e" transform="translate(63.623047 0)"/>
       <use xlink:href="#DejaVuSans-30" transform="translate(95.410156 0)"/>
      </g>
     </g>
    </g>
    <g id="ytick_7">
     <g id="line2d_27">
      <path d="M 36.7135 21.9534 
L 565.33975 21.9534 
" clip-path="url(#pfe12dd9274)" style="fill: none; stroke-dasharray: 3.7,1.6; stroke-dashoffset: 0; stroke: #cbcbcb; stroke-opacity: 0.4"/>
     </g>
     <g id="line2d_28"/>
     <g id="text_15">
      <!-- 1.2 -->
      <g transform="translate(20.491 24.992775) scale(0.08 -0.08)">
       <use xlink:href="#DejaVuSans-31"/>
       <use xlink:href="#DejaVuSans-2e" transform="translate(63.623047 0)"/>
       <use xlink:href="#DejaVuSans-32" transform="translate(95.410156 0)"/>
      </g>
     </g>
    </g>
    <g id="text_16">
     <!-- y -->
     <g transform="translate(14.4945 176.2794) rotate(-90) scale(0.096 -0.096)">
      <defs>
       <path id="DejaVuSans-79" d="M 2059 -325 
Q 1816 -950 1584 -1140 
Q 1353 -1331 966 -1331 
L 506 -1331 
L 506 -850 
L 844 -850 
Q 1081 -850 1212 -737 
Q 1344 -625 1503 -206 
L 1606 56 
L 191 3500 
L 800 3500 
L 1894 763 
L 2988 3500 
L 3597 3500 
L 2059 -325 
z
" transform="scale(0.015625)"/>
      </defs>
      <use xlink:href="#DejaVuSans-79"/>
     </g>
    </g>
   </g>
   <g id="PathCollection_1">
    <defs>
     <path id="m7968525291" d="M -4.472136 4.472136 
L 4.472136 -4.472136 
M -4.472136 -4.472136 
L 4.472136 4.472136 
" style="stroke: #c00000; stroke-width: 4"/>
    </defs>
    <g clip-path="url(#pfe12dd9274)">
     <use xlink:href="#m7968525291" x="319.51006" y="68.564169" style="fill: #c00000; stroke: #c00000; stroke-width: 4"/>
     <use xlink:href="#m7968525291" x="393.443802" y="68.564169" style="fill: #c00000; stroke: #c00000; stroke-width: 4"/>
     <use xlink:href="#m7968525291" x="467.377543" y="68.564169" style="fill: #c00000; stroke: #c00000; stroke-width: 4"/>
    </g>
   </g>
   <g id="PathCollection_2">
    <defs>
     <path id="C0_0_b64f41e753" d="M 0 5 
C 1.326016 5 2.597899 4.473168 3.535534 3.535534 
C 4.473168 2.597899 5 1.326016 5 -0 
C 5 -1.326016 4.473168 -2.597899 3.535534 -3.535534 
C 2.597899 -4.473168 1.326016 -5 0 -5 
C -1.326016 -5 -2.597899 -4.473168 -3.535534 -3.535534 
C -4.473168 -2.597899 -5 -1.326016 -5 0 
C -5 1.326016 -4.473168 2.597899 -3.535534 3.535534 
C -2.597899 4.473168 -1.326016 5 0 5 
z
"/>
    </defs>
    <g clip-path="url(#pfe12dd9274)">
     <use xlink:href="#C0_0_b64f41e753" x="97.708837" y="301.618015" style="fill: none; stroke: #0096ff; stroke-width: 2"/>
    </g>
    <g clip-path="url(#pfe12dd9274)">
     <use xlink:href="#C0_0_b64f41e753" x="171.642578" y="301.618015" style="fill: none; stroke: #0096ff; stroke-width: 2"/>
    </g>
    <g clip-path="url(#pfe12dd9274)">
     <use xlink:href="#C0_0_b64f41e753" x="245.576319" y="301.618015" style="fill: none; stroke: #0096ff; stroke-width: 2"/>
    </g>
   </g>
   <g id="line2d_29">
    <path d="M 60.741966 338.854074 
L 65.596201 335.341404 
L 70.450437 331.828733 
L 75.304673 328.316063 
L 80.158908 324.803392 
L 85.013144 321.290721 
L 89.867379 317.778051 
L 94.721615 314.26538 
L 99.57585 310.752709 
L 104.430086 307.240039 
L 109.284321 303.727368 
L 114.138557 300.214698 
L 118.992792 296.702027 
L 123.847028 293.189356 
L 128.701263 289.676686 
L 133.555499 286.164015 
L 138.409735 282.651345 
L 143.26397 279.138674 
L 148.118206 275.626003 
L 152.972441 272.113333 
L 157.826677 268.600662 
L 162.680912 265.087991 
L 167.535148 261.575321 
L 172.389383 258.06265 
L 177.243619 254.54998 
L 182.097854 251.037309 
L 186.95209 247.524638 
L 191.806325 244.011968 
L 196.660561 240.499297 
L 201.514796 236.986627 
L 206.369032 233.473956 
L 211.223268 229.961285 
L 216.077503 226.448615 
L 220.931739 222.935944 
L 225.785974 219.423274 
L 230.64021 215.910603 
L 235.494445 212.397932 
L 240.348681 208.885262 
L 245.202916 205.372591 
L 250.057152 201.85992 
L 254.911387 198.34725 
L 259.765623 194.834579 
L 264.619858 191.321909 
L 269.474094 187.809238 
L 274.32833 184.296567 
L 279.182565 180.783897 
L 284.036801 177.271226 
L 288.891036 173.758556 
L 293.745272 170.245885 
L 298.599507 166.733214 
L 303.453743 163.220544 
L 308.307978 159.707873 
L 313.162214 156.195203 
L 318.016449 152.682532 
L 322.870685 149.169861 
L 327.72492 145.657191 
L 332.579156 142.14452 
L 337.433392 138.631849 
L 342.287627 135.119179 
L 347.141863 131.606508 
L 351.996098 128.093838 
L 356.850334 124.581167 
L 361.704569 121.068496 
L 366.558805 117.555826 
L 371.41304 114.043155 
L 376.267276 110.530485 
L 381.121511 107.017814 
L 385.975747 103.505143 
L 390.829982 99.992473 
L 395.684218 96.479802 
L 400.538454 92.967131 
L 405.392689 89.454461 
L 410.246925 85.94179 
L 415.10116 82.42912 
L 419.955396 78.916449 
L 424.809631 75.403778 
L 429.663867 71.891108 
L 434.518102 68.378437 
L 439.372338 64.865767 
L 444.226573 61.353096 
L 449.080809 57.840425 
L 453.935044 54.327755 
L 458.78928 50.815084 
L 463.643515 47.302414 
L 468.497751 43.789743 
L 473.351987 40.277072 
L 478.206222 36.764402 
L 483.060458 33.251731 
L 487.914693 29.73906 
L 492.768929 26.22639 
L 497.623164 22.713719 
L 502.4774 19.201049 
L 507.331635 15.688378 
L 512.185871 12.175707 
L 517.040106 8.663037 
L 521.894342 5.150366 
L 526.748577 1.637696 
L 530.393666 -1 
" clip-path="url(#pfe12dd9274)" style="fill: none; stroke: #ff9300; stroke-width: 2"/>
   </g>
   <g id="patch_3">
    <path d="M 36.7135 324.9234 
L 36.7135 21.9534 
" style="fill: none; stroke: #f0f0f0; stroke-width: 3; stroke-linejoin: miter; stroke-linecap: square"/>
   </g>
   <g id="patch_4">
    <path d="M 565.33975 324.9234 
L 565.33975 21.9534 
" style="fill: none; stroke: #f0f0f0; stroke-width: 3; stroke-linejoin: miter; stroke-linecap: square"/>
   </g>
   <g id="patch_5">
    <path d="M 36.7135 324.9234 
L 565.33975 324.9234 
" style="fill: none; stroke: #f0f0f0; stroke-width: 3; stroke-linejoin: miter; stroke-linecap: square"/>
   </g>
   <g id="patch_6">
    <path d="M 36.7135 21.9534 
L 565.33975 21.9534 
" style="fill: none; stroke: #f0f0f0; stroke-width: 3; stroke-linejoin: miter; stroke-linecap: square"/>
   </g>
   <g id="text_17">
    <!-- Linear regression on classification labels -->
    <g style="fill: #808080" transform="translate(184.441525 15.9534) scale(0.1152 -0.1152)">
     <defs>
      <path id="DejaVuSans-4c" d="M 628 4666 
L 1259 4666 
L 1259 531 
L 3531 531 
L 3531 0 
L 628 0 
L 628 4666 
z
" transform="scale(0.015625)"/>
      <path id="DejaVuSans-6e" d="M 3513 2113 
L 3513 0 
L 2938 0 
L 2938 2094 
Q 2938 2591 2744 2837 
Q 2550 3084 2163 3084 
Q 1697 3084 1428 2787 
Q 1159 2491 1159 1978 
L 1159 0 
L 581 0 
L 581 3500 
L 1159 3500 
L 1159 2956 
Q 1366 3272 1645 3428 
Q 1925 3584 2291 3584 
Q 2894 3584 3203 3211 
Q 3513 2838 3513 2113 
z
" transform="scale(0.015625)"/>
      <path id="DejaVuSans-61" d="M 2194 1759 
Q 1497 1759 1228 1600 
Q 959 1441 959 1056 
Q 959 750 1161 570 
Q 1363 391 1709 391 
Q 2188 391 2477 730 
Q 2766 1069 2766 1631 
L 2766 1759 
L 2194 1759 
z
M 3341 1997 
L 3341 0 
L 2766 0 
L 2766 531 
Q 2569 213 2275 61 
Q 1981 -91 1556 -91 
Q 1019 -91 701 211 
Q 384 513 384 1019 
Q 384 1609 779 1909 
Q 1175 2209 1959 2209 
L 2766 2209 
L 2766 2266 
Q 2766 2663 2505 2880 
Q 2244 3097 1772 3097 
Q 1472 3097 1187 3025 
Q 903 2953 641 2809 
L 641 3341 
Q 956 3463 1253 3523 
Q 1550 3584 1831 3584 
Q 2591 3584 2966 3190 
Q 3341 2797 3341 1997 
z
" transform="scale(0.015625)"/>
      <path id="DejaVuSans-67" d="M 2906 1791 
Q 2906 2416 2648 2759 
Q 2391 3103 1925 3103 
Q 1463 3103 1205 2759 
Q 947 2416 947 1791 
Q 947 1169 1205 825 
Q 1463 481 1925 481 
Q 2391 481 2648 825 
Q 2906 1169 2906 1791 
z
M 3481 434 
Q 3481 -459 3084 -895 
Q 2688 -1331 1869 -1331 
Q 1566 -1331 1297 -1286 
Q 1028 -1241 775 -1147 
L 775 -588 
Q 1028 -725 1275 -790 
Q 1522 -856 1778 -856 
Q 2344 -856 2625 -561 
Q 2906 -266 2906 331 
L 2906 616 
Q 2728 306 2450 153 
Q 2172 0 1784 0 
Q 1141 0 747 490 
Q 353 981 353 1791 
Q 353 2603 747 3093 
Q 1141 3584 1784 3584 
Q 2172 3584 2450 3431 
Q 2728 3278 2906 2969 
L 2906 3500 
L 3481 3500 
L 3481 434 
z
" transform="scale(0.015625)"/>
      <path id="DejaVuSans-63" d="M 3122 3366 
L 3122 2828 
Q 2878 2963 2633 3030 
Q 2388 3097 2138 3097 
Q 1578 3097 1268 2742 
Q 959 2388 959 1747 
Q 959 1106 1268 751 
Q 1578 397 2138 397 
Q 2388 397 2633 464 
Q 2878 531 3122 666 
L 3122 134 
Q 2881 22 2623 -34 
Q 2366 -91 2075 -91 
Q 1284 -91 818 406 
Q 353 903 353 1747 
Q 353 2603 823 3093 
Q 1294 3584 2113 3584 
Q 2378 3584 2631 3529 
Q 2884 3475 3122 3366 
z
" transform="scale(0.015625)"/>
      <path id="DejaVuSans-6c" d="M 603 4863 
L 1178 4863 
L 1178 0 
L 603 0 
L 603 4863 
z
" transform="scale(0.015625)"/>
      <path id="DejaVuSans-66" d="M 2375 4863 
L 2375 4384 
L 1825 4384 
Q 1516 4384 1395 4259 
Q 1275 4134 1275 3809 
L 1275 3500 
L 2222 3500 
L 2222 3053 
L 1275 3053 
L 1275 0 
L 697 0 
L 697 3053 
L 147 3053 
L 147 3500 
L 697 3500 
L 697 3744 
Q 697 4328 969 4595 
Q 1241 4863 1831 4863 
L 2375 4863 
z
" transform="scale(0.015625)"/>
      <path id="DejaVuSans-74" d="M 1172 4494 
L 1172 3500 
L 2356 3500 
L 2356 3053 
L 1172 3053 
L 1172 1153 
Q 1172 725 1289 603 
Q 1406 481 1766 481 
L 2356 481 
L 2356 0 
L 1766 0 
Q 1100 0 847 248 
Q 594 497 594 1153 
L 594 3053 
L 172 3053 
L 172 3500 
L 594 3500 
L 594 4494 
L 1172 4494 
z
" transform="scale(0.015625)"/>
      <path id="DejaVuSans-62" d="M 3116 1747 
Q 3116 2381 2855 2742 
Q 2594 3103 2138 3103 
Q 1681 3103 1420 2742 
Q 1159 2381 1159 1747 
Q 1159 1113 1420 752 
Q 1681 391 2138 391 
Q 2594 391 2855 752 
Q 3116 1113 3116 1747 
z
M 1159 2969 
Q 1341 3281 1617 3432 
Q 1894 3584 2278 3584 
Q 2916 3584 3314 3078 
Q 3713 2572 3713 1747 
Q 3713 922 3314 415 
Q 2916 -91 2278 -91 
Q 1894 -91 1617 61 
Q 1341 213 1159 525 
L 1159 0 
L 581 0 
L 581 4863 
L 1159 4863 
L 1159 2969 
z
" transform="scale(0.015625)"/>
     </defs>
     <use xlink:href="#DejaVuSans-4c"/>
     <use xlink:href="#DejaVuSans-69" transform="translate(55.712891 0)"/>
     <use xlink:href="#DejaVuSans-6e" transform="translate(83.496094 0)"/>
     <use xlink:href="#DejaVuSans-65" transform="translate(146.875 0)"/>
     <use xlink:href="#DejaVuSans-61" transform="translate(208.398438 0)"/>
     <use xlink:href="#DejaVuSans-72" transform="translate(269.677734 0)"/>
     <use xlink:href="#DejaVuSans-20" transform="translate(310.791016 0)"/>
     <use xlink:href="#DejaVuSans-72" transform="translate(342.578125 0)"/>
     <use xlink:href="#DejaVuSans-65" transform="translate(381.441406 0)"/>
     <use xlink:href="#DejaVuSans-67" transform="translate(442.964844 0)"/>
     <use xlink:href="#DejaVuSans-72" transform="translate(506.441406 0)"/>
     <use xlink:href="#DejaVuSans-65" transform="translate(545.304688 0)"/>
     <use xlink:href="#DejaVuSans-73" transform="translate(606.828125 0)"/>
     <use xlink:href="#DejaVuSans-73" transform="translate(658.927734 0)"/>
     <use xlink:href="#DejaVuSans-69" transform="translate(711.027344 0)"/>
     <use xlink:href="#DejaVuSans-6f" transform="translate(738.810547 0)"/>
     <use xlink:href="#DejaVuSans-6e" transform="translate(799.992188 0)"/>
     <use xlink:href="#DejaVuSans-20" transform="translate(863.371094 0)"/>
     <use xlink:href="#DejaVuSans-6f" transform="translate(895.158203 0)"/>
     <use xlink:href="#DejaVuSans-6e" transform="translate(956.339844 0)"/>
     <use xlink:href="#DejaVuSans-20" transform="translate(1019.71875 0)"/>
     <use xlink:href="#DejaVuSans-63" transform="translate(1051.505859 0)"/>
     <use xlink:href="#DejaVuSans-6c" transform="translate(1106.486328 0)"/>
     <use xlink:href="#DejaVuSans-61" transform="translate(1134.269531 0)"/>
     <use xlink:href="#DejaVuSans-73" transform="translate(1195.548828 0)"/>
     <use xlink:href="#DejaVuSans-73" transform="translate(1247.648438 0)"/>
     <use xlink:href="#DejaVuSans-69" transform="translate(1299.748047 0)"/>
     <use xlink:href="#DejaVuSans-66" transform="translate(1327.53125 0)"/>
     <use xlink:href="#DejaVuSans-69" transform="translate(1362.736328 0)"/>
     <use xlink:href="#DejaVuSans-63" transform="translate(1390.519531 0)"/>
     <use xlink:href="#DejaVuSans-61" transform="translate(1445.5 0)"/>
     <use xlink:href="#DejaVuSans-74" transform="translate(1506.779297 0)"/>
     <use xlink:href="#DejaVuSans-69" transform="translate(1545.988281 0)"/>
     <use xlink:href="#DejaVuSans-6f" transform="translate(1573.771484 0)"/>
     <use xlink:href="#DejaVuSans-6e" transform="translate(1634.953125 0)"/>
     <use xlink:href="#DejaVuSans-20" transform="translate(1698.332031 0)"/>
     <use xlink:href="#DejaVuSans-6c" transform="translate(1730.119141 0)"/>
     <use xlink:href="#DejaVuSans-61" transform="translate(1757.902344 0)"/>
     <use xlink:href="#DejaVuSans-62" transform="translate(1819.181641 0)"/>
     <use xlink:href="#DejaVuSans-65" transform="translate(1882.658203 0)"/>
     <use xlink:href="#DejaVuSans-6c" transform="translate(1944.181641 0)"/>
     <use xlink:href="#DejaVuSans-73" transform="translate(1971.964844 0)"/>
    </g>
   </g>
   <g id="legend_1">
    <g id="patch_7">
     <path d="M 432.0435 320.9234 
L 559.73975 320.9234 
Q 561.33975 320.9234 561.33975 319.3234 
L 561.33975 284.8959 
Q 561.33975 283.2959 559.73975 283.2959 
L 432.0435 283.2959 
Q 430.4435 283.2959 430.4435 284.8959 
L 430.4435 319.3234 
Q 430.4435 320.9234 432.0435 320.9234 
z
" style="fill: #ffffff; opacity: 0.8; stroke: #cccccc; stroke-width: 0.5; stroke-linejoin: miter"/>
    </g>
    <g id="PathCollection_3">
     <g>
      <use xlink:href="#m7968525291" x="441.6435" y="290.47465" style="fill: #c00000; stroke: #c00000; stroke-width: 4"/>
     </g>
    </g>
    <g id="text_18">
     <!-- malignant (y=1) -->
     <g transform="translate(456.0435 292.57465) scale(0.08 -0.08)">
      <defs>
       <path id="DejaVuSans-28" d="M 1984 4856 
Q 1566 4138 1362 3434 
Q 1159 2731 1159 2009 
Q 1159 1288 1364 580 
Q 1569 -128 1984 -844 
L 1484 -844 
Q 1016 -109 783 600 
Q 550 1309 550 2009 
Q 550 2706 781 3412 
Q 1013 4119 1484 4856 
L 1984 4856 
z
" transform="scale(0.015625)"/>
       <path id="DejaVuSans-3d" d="M 678 2906 
L 4684 2906 
L 4684 2381 
L 678 2381 
L 678 2906 
z
M 678 1631 
L 4684 1631 
L 4684 1100 
L 678 1100 
L 678 1631 
z
" transform="scale(0.015625)"/>
       <path id="DejaVuSans-29" d="M 513 4856 
L 1013 4856 
Q 1481 4119 1714 3412 
Q 1947 2706 1947 2009 
Q 1947 1309 1714 600 
Q 1481 -109 1013 -844 
L 513 -844 
Q 928 -128 1133 580 
Q 1338 1288 1338 2009 
Q 1338 2731 1133 3434 
Q 928 4138 513 4856 
z
" transform="scale(0.015625)"/>
      </defs>
      <use xlink:href="#DejaVuSans-6d"/>
      <use xlink:href="#DejaVuSans-61" transform="translate(97.412109 0)"/>
      <use xlink:href="#DejaVuSans-6c" transform="translate(158.691406 0)"/>
      <use xlink:href="#DejaVuSans-69" transform="translate(186.474609 0)"/>
      <use xlink:href="#DejaVuSans-67" transform="translate(214.257812 0)"/>
      <use xlink:href="#DejaVuSans-6e" transform="translate(277.734375 0)"/>
      <use xlink:href="#DejaVuSans-61" transform="translate(341.113281 0)"/>
      <use xlink:href="#DejaVuSans-6e" transform="translate(402.392578 0)"/>
      <use xlink:href="#DejaVuSans-74" transform="translate(465.771484 0)"/>
      <use xlink:href="#DejaVuSans-20" transform="translate(504.980469 0)"/>
      <use xlink:href="#DejaVuSans-28" transform="translate(536.767578 0)"/>
      <use xlink:href="#DejaVuSans-79" transform="translate(575.78125 0)"/>
      <use xlink:href="#DejaVuSans-3d" transform="translate(634.960938 0)"/>
      <use xlink:href="#DejaVuSans-31" transform="translate(718.75 0)"/>
      <use xlink:href="#DejaVuSans-29" transform="translate(782.373047 0)"/>
     </g>
    </g>
    <g id="PathCollection_4">
     <path d="M 441.6435 307.21715 
C 442.969515 307.21715 444.241399 306.690318 445.179034 305.752684 
C 446.116668 304.815049 446.6435 303.543165 446.6435 302.21715 
C 446.6435 300.891135 446.116668 299.619251 445.179034 298.681616 
C 444.241399 297.743982 442.969515 297.21715 441.6435 297.21715 
C 440.317485 297.21715 439.045601 297.743982 438.107966 298.681616 
C 437.170332 299.619251 436.6435 300.891135 436.6435 302.21715 
C 436.6435 303.543165 437.170332 304.815049 438.107966 305.752684 
C 439.045601 306.690318 440.317485 307.21715 441.6435 307.21715 
L 441.6435 307.21715 
z
" style="fill: none; stroke: #0096ff; stroke-width: 2"/>
    </g>
    <g id="text_19">
     <!-- benign (y=0) -->
     <g transform="translate(456.0435 304.31715) scale(0.08 -0.08)">
      <use xlink:href="#DejaVuSans-62"/>
      <use xlink:href="#DejaVuSans-65" transform="translate(63.476562 0)"/>
      <use xlink:href="#DejaVuSans-6e" transform="translate(125 0)"/>
      <use xlink:href="#DejaVuSans-69" transform="translate(188.378906 0)"/>
      <use xlink:href="#DejaVuSans-67" transform="translate(216.162109 0)"/>
      <use xlink:href="#DejaVuSans-6e" transform="translate(279.638672 0)"/>
      <use xlink:href="#DejaVuSans-20" transform="translate(343.017578 0)"/>
      <use xlink:href="#DejaVuSans-28" transform="translate(374.804688 0)"/>
      <use xlink:href="#DejaVuSans-79" transform="translate(413.818359 0)"/>
      <use xlink:href="#DejaVuSans-3d" transform="translate(472.998047 0)"/>
      <use xlink:href="#DejaVuSans-30" transform="translate(556.787109 0)"/>
      <use xlink:href="#DejaVuSans-29" transform="translate(620.410156 0)"/>
     </g>
    </g>
    <g id="line2d_30">
     <path d="M 433.6435 313.25965 
L 441.6435 313.25965 
L 449.6435 313.25965 
" style="fill: none; stroke: #ff9300; stroke-width: 2"/>
    </g>
    <g id="text_20">
     <!-- Linear fit: 0.23x + (-0.04) -->
     <g transform="translate(456.0435 316.05965) scale(0.08 -0.08)">
      <defs>
       <path id="DejaVuSans-3a" d="M 750 794 
L 1409 794 
L 1409 0 
L 750 0 
L 750 794 
z
M 750 3309 
L 1409 3309 
L 1409 2516 
L 750 2516 
L 750 3309 
z
" transform="scale(0.015625)"/>
       <path id="DejaVuSans-78" d="M 3513 3500 
L 2247 1797 
L 3578 0 
L 2900 0 
L 1881 1375 
L 863 0 
L 184 0 
L 1544 1831 
L 300 3500 
L 978 3500 
L 1906 2253 
L 2834 3500 
L 3513 3500 
z
" transform="scale(0.015625)"/>
       <path id="DejaVuSans-2b" d="M 2944 4013 
L 2944 2272 
L 4684 2272 
L 4684 1741 
L 2944 1741 
L 2944 0 
L 2419 0 
L 2419 1741 
L 678 1741 
L 678 2272 
L 2419 2272 
L 2419 4013 
L 2944 4013 
z
" transform="scale(0.015625)"/>
       <path id="DejaVuSans-2d" d="M 313 2009 
L 1997 2009 
L 1997 1497 
L 313 1497 
L 313 2009 
z
" transform="scale(0.015625)"/>
      </defs>
      <use xlink:href="#DejaVuSans-4c"/>
      <use xlink:href="#DejaVuSans-69" transform="translate(55.712891 0)"/>
      <use xlink:href="#DejaVuSans-6e" transform="translate(83.496094 0)"/>
      <use xlink:href="#DejaVuSans-65" transform="translate(146.875 0)"/>
      <use xlink:href="#DejaVuSans-61" transform="translate(208.398438 0)"/>
      <use xlink:href="#DejaVuSans-72" transform="translate(269.677734 0)"/>
      <use xlink:href="#DejaVuSans-20" transform="translate(310.791016 0)"/>
      <use xlink:href="#DejaVuSans-66" transform="translate(342.578125 0)"/>
      <use xlink:href="#DejaVuSans-69" transform="translate(377.783203 0)"/>
      <use xlink:href="#DejaVuSans-74" transform="translate(405.566406 0)"/>
      <use xlink:href="#DejaVuSans-3a" transform="translate(444.775391 0)"/>
      <use xlink:href="#DejaVuSans-20" transform="translate(478.466797 0)"/>
      <use xlink:href="#DejaVuSans-30" transform="translate(510.253906 0)"/>
      <use xlink:href="#DejaVuSans-2e" transform="translate(573.876953 0)"/>
      <use xlink:href="#DejaVuSans-32" transform="translate(605.664062 0)"/>
      <use xlink:href="#DejaVuSans-33" transform="translate(669.287109 0)"/>
      <use xlink:href="#DejaVuSans-78" transform="translate(732.910156 0)"/>
      <use xlink:href="#DejaVuSans-20" transform="translate(792.089844 0)"/>
      <use xlink:href="#DejaVuSans-2b" transform="translate(823.876953 0)"/>
      <use xlink:href="#DejaVuSans-20" transform="translate(907.666016 0)"/>
      <use xlink:href="#DejaVuSans-28" transform="translate(939.453125 0)"/>
      <use xlink:href="#DejaVuSans-2d" transform="translate(978.466797 0)"/>
      <use xlink:href="#DejaVuSans-30" transform="translate(1014.550781 0)"/>
      <use xlink:href="#DejaVuSans-2e" transform="translate(1078.173828 0)"/>
      <use xlink:href="#DejaVuSans-30" transform="translate(1109.960938 0)"/>
      <use xlink:href="#DejaVuSans-34" transform="translate(1173.583984 0)"/>
      <use xlink:href="#DejaVuSans-29" transform="translate(1237.207031 0)"/>
     </g>
    </g>
   </g>
  </g>
 </g>
 <defs>
  <clipPath id="pfe12dd9274">
   <rect x="36.7135" y="21.9534" width="528.62625" height="302.97"/>
  </clipPath>
 </defs>
</svg>
