<?xml version="1.0" encoding="utf-8" standalone="no"?>
<!DOCTYPE svg PUBLIC "-//W3C//DTD SVG 1.1//EN"
  "http://www.w3.org/Graphics/SVG/1.1/DTD/svg11.dtd">
<svg xmlns:xlink="http://www.w3.org/1999/xlink" width="488.7pt" height="291.6pt" viewBox="0 0 488.7 291.6" xmlns="http://www.w3.org/2000/svg" version="1.1">
 <metadata>
  <rdf:RDF xmlns:dc="http://purl.org/dc/elements/1.1/" xmlns:cc="http://creativecommons.org/ns#" xmlns:rdf="http://www.w3.org/1999/02/22-rdf-syntax-ns#">
   <cc:Work>
    <dc:type rdf:resource="http://purl.org/dc/dcmitype/StillImage"/>
    <dc:date>2026-07-22T14:15:45.605726</dc:date>
    <dc:format>image/svg+xml</dc:format>
    <dc:creator>
     <cc:Agent>
      <dc:title>Matplotlib v3.10.8, https://matplotlib.org/</dc:title>
     </cc:Agent>
    </dc:creator>
   </cc:Work>
  </rdf:RDF>
 </metadata>
 <defs>
  <style type="text/css">*{stroke-linejoin: round; stroke-linecap: butt}</style>
 </defs>
 <g id="figure_1">
  <g id="patch_1">
   <path d="M 0 291.6 
L 488.7 291.6 
L 488.7 0 
L 0 0 
z
" style="fill: #ffffff"/>
  </g>
  <g id="axes_1">
   <g id="patch_2">
    <path d="M 233.626142 59.218756 
Q 187.432322 98.008305 142.608431 135.647508 
" clip-path="url(#p2aa309762c)" style="fill: none; stroke: #555555; stroke-width: 1.6; stroke-linecap: round"/>
    <path d="M 149.567437 133.982506 
L 142.608431 135.647508 
L 145.451833 129.081302 
z
" clip-path="url(#p2aa309762c)" style="fill: #555555; stroke: #555555; stroke-width: 1.6; stroke-linecap: round"/>
   </g>
   <g id="patch_3">
    <path d="M 255.073858 59.218756 
Q 301.267678 98.008305 346.091569 135.647508 
" clip-path="url(#p2aa309762c)" style="fill: none; stroke: #555555; stroke-width: 1.6; stroke-linecap: round"/>
    <path d="M 343.248167 129.081302 
L 346.091569 135.647508 
L 339.132563 133.982506 
z
" clip-path="url(#p2aa309762c)" style="fill: #555555; stroke: #555555; stroke-width: 1.6; stroke-linecap: round"/>
   </g>
   <g id="patch_4">
    <path d="M 122.929171 157.564501 
Q 99.688469 193.593151 77.417447 228.118565 
" clip-path="url(#p2aa309762c)" style="fill: none; stroke: #555555; stroke-width: 1.6; stroke-linecap: round"/>
    <path d="M 83.575752 224.47504 
L 77.417447 228.118565 
L 78.19761 221.005806 
z
" clip-path="url(#p2aa309762c)" style="fill: #555555; stroke: #555555; stroke-width: 1.6; stroke-linecap: round"/>
   </g>
   <g id="patch_5">
    <path d="M 138.106829 157.564501 
Q 161.347531 193.593151 183.618553 228.118565 
" clip-path="url(#p2aa309762c)" style="fill: none; stroke: #555555; stroke-width: 1.6; stroke-linecap: round"/>
    <path d="M 182.83839 221.005806 
L 183.618553 228.118565 
L 177.460248 224.47504 
z
" clip-path="url(#p2aa309762c)" style="fill: #555555; stroke: #555555; stroke-width: 1.6; stroke-linecap: round"/>
   </g>
   <g id="patch_6">
    <path d="M 350.593171 157.564501 
Q 327.352469 193.593151 305.081447 228.118565 
" clip-path="url(#p2aa309762c)" style="fill: none; stroke: #555555; stroke-width: 1.6; stroke-linecap: round"/>
    <path d="M 311.239752 224.47504 
L 305.081447 228.118565 
L 305.86161 221.005806 
z
" clip-path="url(#p2aa309762c)" style="fill: #555555; stroke: #555555; stroke-width: 1.6; stroke-linecap: round"/>
   </g>
   <g id="patch_7">
    <path d="M 365.770829 157.564501 
Q 389.011531 193.593151 411.282553 228.118565 
" clip-path="url(#p2aa309762c)" style="fill: none; stroke: #555555; stroke-width: 1.6; stroke-linecap: round"/>
    <path d="M 410.50239 221.005806 
L 411.282553 228.118565 
L 405.124248 224.47504 
z
" clip-path="url(#p2aa309762c)" style="fill: #555555; stroke: #555555; stroke-width: 1.6; stroke-linecap: round"/>
   </g>
   <g id="patch_8">
    <path d="M 233.626142 59.218756 
Q 187.432322 98.008305 143.807118 134.640955 
" clip-path="url(#p2aa309762c)" style="fill: none; stroke: #be1d74; stroke-width: 3; stroke-linecap: round"/>
    <path d="M 150.766124 132.975953 
L 143.807118 134.640955 
L 146.65052 128.074749 
z
" clip-path="url(#p2aa309762c)" style="fill: #be1d74; stroke: #be1d74; stroke-width: 3; stroke-linecap: round"/>
   </g>
   <g id="patch_9">
    <path d="M 122.929171 157.564501 
Q 99.688469 193.593151 78.265918 226.803233 
" clip-path="url(#p2aa309762c)" style="fill: none; stroke: #be1d74; stroke-width: 3; stroke-linecap: round"/>
    <path d="M 84.424223 223.159708 
L 78.265918 226.803233 
L 79.04608 219.690474 
z
" clip-path="url(#p2aa309762c)" style="fill: #be1d74; stroke: #be1d74; stroke-width: 3; stroke-linecap: round"/>
   </g>
   <g id="patch_10">
    <path d="M 244.35 75.305172 
C 260.073229 75.305172 275.154592 72.661386 286.272593 67.956078 
C 297.390595 63.250769 303.6375 56.868105 303.6375 50.213793 
C 303.6375 43.559482 297.390595 37.176817 286.272593 32.471509 
C 275.154592 27.7662 260.073229 25.122414 244.35 25.122414 
C 228.626771 25.122414 213.545408 27.7662 202.427407 32.471509 
C 191.309405 37.176817 185.0625 43.559482 185.0625 50.213793 
C 185.0625 56.868105 191.309405 63.250769 202.427407 67.956078 
C 213.545408 72.661386 228.626771 75.305172 244.35 75.305172 
z
" clip-path="url(#p2aa309762c)" style="fill: #ffffff; stroke: #7030a0; stroke-width: 2; stroke-linejoin: miter"/>
   </g>
   <g id="patch_11">
    <path d="M 130.518 170.891379 
C 146.241229 170.891379 161.322592 168.247593 172.440593 163.542284 
C 183.558595 158.836976 189.8055 152.454312 189.8055 145.8 
C 189.8055 139.145688 183.558595 132.763024 172.440593 128.057716 
C 161.322592 123.352407 146.241229 120.708621 130.518 120.708621 
C 114.794771 120.708621 99.713408 123.352407 88.595407 128.057716 
C 77.477405 132.763024 71.2305 139.145688 71.2305 145.8 
C 71.2305 152.454312 77.477405 158.836976 88.595407 163.542284 
C 99.713408 168.247593 114.794771 170.891379 130.518 170.891379 
z
" clip-path="url(#p2aa309762c)" style="fill: #ffffff; stroke: #7030a0; stroke-width: 2; stroke-linejoin: miter"/>
   </g>
   <g id="patch_12">
    <path d="M 358.182 170.891379 
C 373.905229 170.891379 388.986592 168.247593 400.104593 163.542284 
C 411.222595 158.836976 417.4695 152.454312 417.4695 145.8 
C 417.4695 139.145688 411.222595 132.763024 400.104593 128.057716 
C 388.986592 123.352407 373.905229 120.708621 358.182 120.708621 
C 342.458771 120.708621 327.377408 123.352407 316.259407 128.057716 
C 305.141405 132.763024 298.8945 139.145688 298.8945 145.8 
C 298.8945 152.454312 305.141405 158.836976 316.259407 163.542284 
C 327.377408 168.247593 342.458771 170.891379 358.182 170.891379 
z
" clip-path="url(#p2aa309762c)" style="fill: #ffffff; stroke: #7030a0; stroke-width: 2; stroke-linejoin: miter"/>
   </g>
   <g id="patch_13">
    <path d="M 28.5435 264.565862 
L 109.1745 264.565862 
Q 112.0203 264.565862 112.0203 261.698276 
L 112.0203 221.074138 
Q 112.0203 218.206552 109.1745 218.206552 
L 28.5435 218.206552 
Q 25.6977 218.206552 25.6977 221.074138 
L 25.6977 261.698276 
Q 25.6977 264.565862 28.5435 264.565862 
z
" clip-path="url(#p2aa309762c)" style="fill: #ffffff; stroke: #0e7490; stroke-width: 2; stroke-linejoin: miter"/>
   </g>
   <g id="patch_14">
    <path d="M 151.8615 264.565862 
L 232.4925 264.565862 
Q 235.3383 264.565862 235.3383 261.698276 
L 235.3383 221.074138 
Q 235.3383 218.206552 232.4925 218.206552 
L 151.8615 218.206552 
Q 149.0157 218.206552 149.0157 221.074138 
L 149.0157 261.698276 
Q 149.0157 264.565862 151.8615 264.565862 
z
" clip-path="url(#p2aa309762c)" style="fill: #ffffff; stroke: #9a9aa8; stroke-width: 2; stroke-linejoin: miter"/>
   </g>
   <g id="patch_15">
    <path d="M 256.2075 264.565862 
L 336.8385 264.565862 
Q 339.6843 264.565862 339.6843 261.698276 
L 339.6843 221.074138 
Q 339.6843 218.206552 336.8385 218.206552 
L 256.2075 218.206552 
Q 253.3617 218.206552 253.3617 221.074138 
L 253.3617 261.698276 
Q 253.3617 264.565862 256.2075 264.565862 
z
" clip-path="url(#p2aa309762c)" style="fill: #ffffff; stroke: #0e7490; stroke-width: 2; stroke-linejoin: miter"/>
   </g>
   <g id="patch_16">
    <path d="M 379.5255 264.565862 
L 460.1565 264.565862 
Q 463.0023 264.565862 463.0023 261.698276 
L 463.0023 221.074138 
Q 463.0023 218.206552 460.1565 218.206552 
L 379.5255 218.206552 
Q 376.6797 218.206552 376.6797 221.074138 
L 376.6797 261.698276 
Q 376.6797 264.565862 379.5255 264.565862 
z
" clip-path="url(#p2aa309762c)" style="fill: #ffffff; stroke: #9a9aa8; stroke-width: 2; stroke-linejoin: miter"/>
   </g>
   <g id="text_1">
    <g id="patch_17">
     <path d="M 147.882203 103.839006 
L 179.555797 103.839006 
L 179.555797 92.174787 
L 147.882203 92.174787 
z
" style="fill: #ffffff"/>
    </g>
    <!-- Pointy -->
    <g style="fill: #555555" transform="translate(149.117203 100.628303) scale(0.095 -0.095)">
     <defs>
      <path id="DejaVuSans-50" d="M 1259 4147 
L 1259 2394 
L 2053 2394 
Q 2494 2394 2734 2622 
Q 2975 2850 2975 3272 
Q 2975 3691 2734 3919 
Q 2494 4147 2053 4147 
L 1259 4147 
z
M 628 4666 
L 2053 4666 
Q 2838 4666 3239 4311 
Q 3641 3956 3641 3272 
Q 3641 2581 3239 2228 
Q 2838 1875 2053 1875 
L 1259 1875 
L 1259 0 
L 628 0 
L 628 4666 
z
" transform="scale(0.015625)"/>
      <path id="DejaVuSans-6f" d="M 1959 3097 
Q 1497 3097 1228 2736 
Q 959 2375 959 1747 
Q 959 1119 1226 758 
Q 1494 397 1959 397 
Q 2419 397 2687 759 
Q 2956 1122 2956 1747 
Q 2956 2369 2687 2733 
Q 2419 3097 1959 3097 
z
M 1959 3584 
Q 2709 3584 3137 3096 
Q 3566 2609 3566 1747 
Q 3566 888 3137 398 
Q 2709 -91 1959 -91 
Q 1206 -91 779 398 
Q 353 888 353 1747 
Q 353 2609 779 3096 
Q 1206 3584 1959 3584 
z
" transform="scale(0.015625)"/>
      <path id="DejaVuSans-69" d="M 603 3500 
L 1178 3500 
L 1178 0 
L 603 0 
L 603 3500 
z
M 603 4863 
L 1178 4863 
L 1178 4134 
L 603 4134 
L 603 4863 
z
" transform="scale(0.015625)"/>
      <path id="DejaVuSans-6e" d="M 3513 2113 
L 3513 0 
L 2938 0 
L 2938 2094 
Q 2938 2591 2744 2837 
Q 2550 3084 2163 3084 
Q 1697 3084 1428 2787 
Q 1159 2491 1159 1978 
L 1159 0 
L 581 0 
L 581 3500 
L 1159 3500 
L 1159 2956 
Q 1366 3272 1645 3428 
Q 1925 3584 2291 3584 
Q 2894 3584 3203 3211 
Q 3513 2838 3513 2113 
z
" transform="scale(0.015625)"/>
      <path id="DejaVuSans-74" d="M 1172 4494 
L 1172 3500 
L 2356 3500 
L 2356 3053 
L 1172 3053 
L 1172 1153 
Q 1172 725 1289 603 
Q 1406 481 1766 481 
L 2356 481 
L 2356 0 
L 1766 0 
Q 1100 0 847 248 
Q 594 497 594 1153 
L 594 3053 
L 172 3053 
L 172 3500 
L 594 3500 
L 594 4494 
L 1172 4494 
z
" transform="scale(0.015625)"/>
      <path id="DejaVuSans-79" d="M 2059 -325 
Q 1816 -950 1584 -1140 
Q 1353 -1331 966 -1331 
L 506 -1331 
L 506 -850 
L 844 -850 
Q 1081 -850 1212 -737 
Q 1344 -625 1503 -206 
L 1606 56 
L 191 3500 
L 800 3500 
L 1894 763 
L 2988 3500 
L 3597 3500 
L 2059 -325 
z
" transform="scale(0.015625)"/>
     </defs>
     <use xlink:href="#DejaVuSans-50"/>
     <use xlink:href="#DejaVuSans-6f" transform="translate(56.677734 0)"/>
     <use xlink:href="#DejaVuSans-69" transform="translate(117.859375 0)"/>
     <use xlink:href="#DejaVuSans-6e" transform="translate(145.642578 0)"/>
     <use xlink:href="#DejaVuSans-74" transform="translate(209.021484 0)"/>
     <use xlink:href="#DejaVuSans-79" transform="translate(248.230469 0)"/>
    </g>
   </g>
   <g id="text_2">
    <g id="patch_18">
     <path d="M 307.94557 103.839006 
L 342.01643 103.839006 
L 342.01643 92.174787 
L 307.94557 92.174787 
z
" style="fill: #ffffff"/>
    </g>
    <!-- Floppy -->
    <g style="fill: #555555" transform="translate(309.18057 100.628303) scale(0.095 -0.095)">
     <defs>
      <path id="DejaVuSans-46" d="M 628 4666 
L 3309 4666 
L 3309 4134 
L 1259 4134 
L 1259 2759 
L 3109 2759 
L 3109 2228 
L 1259 2228 
L 1259 0 
L 628 0 
L 628 4666 
z
" transform="scale(0.015625)"/>
      <path id="DejaVuSans-6c" d="M 603 4863 
L 1178 4863 
L 1178 0 
L 603 0 
L 603 4863 
z
" transform="scale(0.015625)"/>
      <path id="DejaVuSans-70" d="M 1159 525 
L 1159 -1331 
L 581 -1331 
L 581 3500 
L 1159 3500 
L 1159 2969 
Q 1341 3281 1617 3432 
Q 1894 3584 2278 3584 
Q 2916 3584 3314 3078 
Q 3713 2572 3713 1747 
Q 3713 922 3314 415 
Q 2916 -91 2278 -91 
Q 1894 -91 1617 61 
Q 1341 213 1159 525 
z
M 3116 1747 
Q 3116 2381 2855 2742 
Q 2594 3103 2138 3103 
Q 1681 3103 1420 2742 
Q 1159 2381 1159 1747 
Q 1159 1113 1420 752 
Q 1681 391 2138 391 
Q 2594 391 2855 752 
Q 3116 1113 3116 1747 
z
" transform="scale(0.015625)"/>
     </defs>
     <use xlink:href="#DejaVuSans-46"/>
     <use xlink:href="#DejaVuSans-6c" transform="translate(57.519531 0)"/>
     <use xlink:href="#DejaVuSans-6f" transform="translate(85.302734 0)"/>
     <use xlink:href="#DejaVuSans-70" transform="translate(146.484375 0)"/>
     <use xlink:href="#DejaVuSans-70" transform="translate(209.960938 0)"/>
     <use xlink:href="#DejaVuSans-79" transform="translate(273.4375 0)"/>
    </g>
   </g>
   <g id="text_3">
    <g id="patch_19">
     <path d="M 57.337703 199.425213 
L 89.866297 199.425213 
L 89.866297 187.760994 
L 57.337703 187.760994 
z
" style="fill: #ffffff"/>
    </g>
    <!-- Round -->
    <g style="fill: #555555" transform="translate(58.572703 196.21451) scale(0.095 -0.095)">
     <defs>
      <path id="DejaVuSans-52" d="M 2841 2188 
Q 3044 2119 3236 1894 
Q 3428 1669 3622 1275 
L 4263 0 
L 3584 0 
L 2988 1197 
Q 2756 1666 2539 1819 
Q 2322 1972 1947 1972 
L 1259 1972 
L 1259 0 
L 628 0 
L 628 4666 
L 2053 4666 
Q 2853 4666 3247 4331 
Q 3641 3997 3641 3322 
Q 3641 2881 3436 2590 
Q 3231 2300 2841 2188 
z
M 1259 4147 
L 1259 2491 
L 2053 2491 
Q 2509 2491 2742 2702 
Q 2975 2913 2975 3322 
Q 2975 3731 2742 3939 
Q 2509 4147 2053 4147 
L 1259 4147 
z
" transform="scale(0.015625)"/>
      <path id="DejaVuSans-75" d="M 544 1381 
L 544 3500 
L 1119 3500 
L 1119 1403 
Q 1119 906 1312 657 
Q 1506 409 1894 409 
Q 2359 409 2629 706 
Q 2900 1003 2900 1516 
L 2900 3500 
L 3475 3500 
L 3475 0 
L 2900 0 
L 2900 538 
Q 2691 219 2414 64 
Q 2138 -91 1772 -91 
Q 1169 -91 856 284 
Q 544 659 544 1381 
z
M 1991 3584 
L 1991 3584 
z
" transform="scale(0.015625)"/>
      <path id="DejaVuSans-64" d="M 2906 2969 
L 2906 4863 
L 3481 4863 
L 3481 0 
L 2906 0 
L 2906 525 
Q 2725 213 2448 61 
Q 2172 -91 1784 -91 
Q 1150 -91 751 415 
Q 353 922 353 1747 
Q 353 2572 751 3078 
Q 1150 3584 1784 3584 
Q 2172 3584 2448 3432 
Q 2725 3281 2906 2969 
z
M 947 1747 
Q 947 1113 1208 752 
Q 1469 391 1925 391 
Q 2381 391 2643 752 
Q 2906 1113 2906 1747 
Q 2906 2381 2643 2742 
Q 2381 3103 1925 3103 
Q 1469 3103 1208 2742 
Q 947 2381 947 1747 
z
" transform="scale(0.015625)"/>
     </defs>
     <use xlink:href="#DejaVuSans-52"/>
     <use xlink:href="#DejaVuSans-6f" transform="translate(64.982422 0)"/>
     <use xlink:href="#DejaVuSans-75" transform="translate(126.164062 0)"/>
     <use xlink:href="#DejaVuSans-6e" transform="translate(189.542969 0)"/>
     <use xlink:href="#DejaVuSans-64" transform="translate(252.921875 0)"/>
    </g>
   </g>
   <g id="text_4">
    <g id="patch_20">
     <path d="M 170.641983 199.425213 
L 220.352217 199.425213 
L 220.352217 187.760994 
L 170.641983 187.760994 
z
" style="fill: #ffffff"/>
    </g>
    <!-- Not round -->
    <g style="fill: #555555" transform="translate(171.876983 196.21451) scale(0.095 -0.095)">
     <defs>
      <path id="DejaVuSans-4e" d="M 628 4666 
L 1478 4666 
L 3547 763 
L 3547 4666 
L 4159 4666 
L 4159 0 
L 3309 0 
L 1241 3903 
L 1241 0 
L 628 0 
L 628 4666 
z
" transform="scale(0.015625)"/>
      <path id="DejaVuSans-20" transform="scale(0.015625)"/>
      <path id="DejaVuSans-72" d="M 2631 2963 
Q 2534 3019 2420 3045 
Q 2306 3072 2169 3072 
Q 1681 3072 1420 2755 
Q 1159 2438 1159 1844 
L 1159 0 
L 581 0 
L 581 3500 
L 1159 3500 
L 1159 2956 
Q 1341 3275 1631 3429 
Q 1922 3584 2338 3584 
Q 2397 3584 2469 3576 
Q 2541 3569 2628 3553 
L 2631 2963 
z
" transform="scale(0.015625)"/>
     </defs>
     <use xlink:href="#DejaVuSans-4e"/>
     <use xlink:href="#DejaVuSans-6f" transform="translate(74.804688 0)"/>
     <use xlink:href="#DejaVuSans-74" transform="translate(135.986328 0)"/>
     <use xlink:href="#DejaVuSans-20" transform="translate(175.195312 0)"/>
     <use xlink:href="#DejaVuSans-72" transform="translate(206.982422 0)"/>
     <use xlink:href="#DejaVuSans-6f" transform="translate(245.845703 0)"/>
     <use xlink:href="#DejaVuSans-75" transform="translate(307.027344 0)"/>
     <use xlink:href="#DejaVuSans-6e" transform="translate(370.40625 0)"/>
     <use xlink:href="#DejaVuSans-64" transform="translate(433.785156 0)"/>
    </g>
   </g>
   <g id="text_5">
    <g id="patch_21">
     <path d="M 278.89172 199.425213 
L 317.00008 199.425213 
L 317.00008 187.760994 
L 278.89172 187.760994 
z
" style="fill: #ffffff"/>
    </g>
    <!-- Present -->
    <g style="fill: #555555" transform="translate(280.12672 196.21451) scale(0.095 -0.095)">
     <defs>
      <path id="DejaVuSans-65" d="M 3597 1894 
L 3597 1613 
L 953 1613 
Q 991 1019 1311 708 
Q 1631 397 2203 397 
Q 2534 397 2845 478 
Q 3156 559 3463 722 
L 3463 178 
Q 3153 47 2828 -22 
Q 2503 -91 2169 -91 
Q 1331 -91 842 396 
Q 353 884 353 1716 
Q 353 2575 817 3079 
Q 1281 3584 2069 3584 
Q 2775 3584 3186 3129 
Q 3597 2675 3597 1894 
z
M 3022 2063 
Q 3016 2534 2758 2815 
Q 2500 3097 2075 3097 
Q 1594 3097 1305 2825 
Q 1016 2553 972 2059 
L 3022 2063 
z
" transform="scale(0.015625)"/>
      <path id="DejaVuSans-73" d="M 2834 3397 
L 2834 2853 
Q 2591 2978 2328 3040 
Q 2066 3103 1784 3103 
Q 1356 3103 1142 2972 
Q 928 2841 928 2578 
Q 928 2378 1081 2264 
Q 1234 2150 1697 2047 
L 1894 2003 
Q 2506 1872 2764 1633 
Q 3022 1394 3022 966 
Q 3022 478 2636 193 
Q 2250 -91 1575 -91 
Q 1294 -91 989 -36 
Q 684 19 347 128 
L 347 722 
Q 666 556 975 473 
Q 1284 391 1588 391 
Q 1994 391 2212 530 
Q 2431 669 2431 922 
Q 2431 1156 2273 1281 
Q 2116 1406 1581 1522 
L 1381 1569 
Q 847 1681 609 1914 
Q 372 2147 372 2553 
Q 372 3047 722 3315 
Q 1072 3584 1716 3584 
Q 2034 3584 2315 3537 
Q 2597 3491 2834 3397 
z
" transform="scale(0.015625)"/>
     </defs>
     <use xlink:href="#DejaVuSans-50"/>
     <use xlink:href="#DejaVuSans-72" transform="translate(58.552734 0)"/>
     <use xlink:href="#DejaVuSans-65" transform="translate(97.416016 0)"/>
     <use xlink:href="#DejaVuSans-73" transform="translate(158.939453 0)"/>
     <use xlink:href="#DejaVuSans-65" transform="translate(211.039062 0)"/>
     <use xlink:href="#DejaVuSans-6e" transform="translate(272.5625 0)"/>
     <use xlink:href="#DejaVuSans-74" transform="translate(335.941406 0)"/>
    </g>
   </g>
   <g id="text_6">
    <g id="patch_22">
     <path d="M 397.328547 199.425213 
L 432.867453 199.425213 
L 432.867453 187.760994 
L 397.328547 187.760994 
z
" style="fill: #ffffff"/>
    </g>
    <!-- Absent -->
    <g style="fill: #555555" transform="translate(398.563547 196.21451) scale(0.095 -0.095)">
     <defs>
      <path id="DejaVuSans-41" d="M 2188 4044 
L 1331 1722 
L 3047 1722 
L 2188 4044 
z
M 1831 4666 
L 2547 4666 
L 4325 0 
L 3669 0 
L 3244 1197 
L 1141 1197 
L 716 0 
L 50 0 
L 1831 4666 
z
" transform="scale(0.015625)"/>
      <path id="DejaVuSans-62" d="M 3116 1747 
Q 3116 2381 2855 2742 
Q 2594 3103 2138 3103 
Q 1681 3103 1420 2742 
Q 1159 2381 1159 1747 
Q 1159 1113 1420 752 
Q 1681 391 2138 391 
Q 2594 391 2855 752 
Q 3116 1113 3116 1747 
z
M 1159 2969 
Q 1341 3281 1617 3432 
Q 1894 3584 2278 3584 
Q 2916 3584 3314 3078 
Q 3713 2572 3713 1747 
Q 3713 922 3314 415 
Q 2916 -91 2278 -91 
Q 1894 -91 1617 61 
Q 1341 213 1159 525 
L 1159 0 
L 581 0 
L 581 4863 
L 1159 4863 
L 1159 2969 
z
" transform="scale(0.015625)"/>
     </defs>
     <use xlink:href="#DejaVuSans-41"/>
     <use xlink:href="#DejaVuSans-62" transform="translate(68.408203 0)"/>
     <use xlink:href="#DejaVuSans-73" transform="translate(131.884766 0)"/>
     <use xlink:href="#DejaVuSans-65" transform="translate(183.984375 0)"/>
     <use xlink:href="#DejaVuSans-6e" transform="translate(245.507812 0)"/>
     <use xlink:href="#DejaVuSans-74" transform="translate(308.886719 0)"/>
    </g>
   </g>
   <g id="text_7">
    <!-- Ear shape -->
    <g style="fill: #7030a0" transform="translate(218.145938 53.111137) scale(0.105 -0.105)">
     <defs>
      <path id="DejaVuSans-45" d="M 628 4666 
L 3578 4666 
L 3578 4134 
L 1259 4134 
L 1259 2753 
L 3481 2753 
L 3481 2222 
L 1259 2222 
L 1259 531 
L 3634 531 
L 3634 0 
L 628 0 
L 628 4666 
z
" transform="scale(0.015625)"/>
      <path id="DejaVuSans-61" d="M 2194 1759 
Q 1497 1759 1228 1600 
Q 959 1441 959 1056 
Q 959 750 1161 570 
Q 1363 391 1709 391 
Q 2188 391 2477 730 
Q 2766 1069 2766 1631 
L 2766 1759 
L 2194 1759 
z
M 3341 1997 
L 3341 0 
L 2766 0 
L 2766 531 
Q 2569 213 2275 61 
Q 1981 -91 1556 -91 
Q 1019 -91 701 211 
Q 384 513 384 1019 
Q 384 1609 779 1909 
Q 1175 2209 1959 2209 
L 2766 2209 
L 2766 2266 
Q 2766 2663 2505 2880 
Q 2244 3097 1772 3097 
Q 1472 3097 1187 3025 
Q 903 2953 641 2809 
L 641 3341 
Q 956 3463 1253 3523 
Q 1550 3584 1831 3584 
Q 2591 3584 2966 3190 
Q 3341 2797 3341 1997 
z
" transform="scale(0.015625)"/>
      <path id="DejaVuSans-68" d="M 3513 2113 
L 3513 0 
L 2938 0 
L 2938 2094 
Q 2938 2591 2744 2837 
Q 2550 3084 2163 3084 
Q 1697 3084 1428 2787 
Q 1159 2491 1159 1978 
L 1159 0 
L 581 0 
L 581 4863 
L 1159 4863 
L 1159 2956 
Q 1366 3272 1645 3428 
Q 1925 3584 2291 3584 
Q 2894 3584 3203 3211 
Q 3513 2838 3513 2113 
z
" transform="scale(0.015625)"/>
     </defs>
     <use xlink:href="#DejaVuSans-45"/>
     <use xlink:href="#DejaVuSans-61" transform="translate(63.183594 0)"/>
     <use xlink:href="#DejaVuSans-72" transform="translate(124.462891 0)"/>
     <use xlink:href="#DejaVuSans-20" transform="translate(165.576172 0)"/>
     <use xlink:href="#DejaVuSans-73" transform="translate(197.363281 0)"/>
     <use xlink:href="#DejaVuSans-68" transform="translate(249.462891 0)"/>
     <use xlink:href="#DejaVuSans-61" transform="translate(312.841797 0)"/>
     <use xlink:href="#DejaVuSans-70" transform="translate(374.121094 0)"/>
     <use xlink:href="#DejaVuSans-65" transform="translate(437.597656 0)"/>
    </g>
   </g>
   <g id="text_8">
    <!-- Face shape -->
    <g style="fill: #7030a0" transform="translate(101.131945 148.697344) scale(0.105 -0.105)">
     <defs>
      <path id="DejaVuSans-63" d="M 3122 3366 
L 3122 2828 
Q 2878 2963 2633 3030 
Q 2388 3097 2138 3097 
Q 1578 3097 1268 2742 
Q 959 2388 959 1747 
Q 959 1106 1268 751 
Q 1578 397 2138 397 
Q 2388 397 2633 464 
Q 2878 531 3122 666 
L 3122 134 
Q 2881 22 2623 -34 
Q 2366 -91 2075 -91 
Q 1284 -91 818 406 
Q 353 903 353 1747 
Q 353 2603 823 3093 
Q 1294 3584 2113 3584 
Q 2378 3584 2631 3529 
Q 2884 3475 3122 3366 
z
" transform="scale(0.015625)"/>
     </defs>
     <use xlink:href="#DejaVuSans-46"/>
     <use xlink:href="#DejaVuSans-61" transform="translate(48.394531 0)"/>
     <use xlink:href="#DejaVuSans-63" transform="translate(109.673828 0)"/>
     <use xlink:href="#DejaVuSans-65" transform="translate(164.654297 0)"/>
     <use xlink:href="#DejaVuSans-20" transform="translate(226.177734 0)"/>
     <use xlink:href="#DejaVuSans-73" transform="translate(257.964844 0)"/>
     <use xlink:href="#DejaVuSans-68" transform="translate(310.064453 0)"/>
     <use xlink:href="#DejaVuSans-61" transform="translate(373.443359 0)"/>
     <use xlink:href="#DejaVuSans-70" transform="translate(434.722656 0)"/>
     <use xlink:href="#DejaVuSans-65" transform="translate(498.199219 0)"/>
    </g>
   </g>
   <g id="text_9">
    <!-- Whiskers -->
    <g style="fill: #7030a0" transform="translate(334.497117 148.697344) scale(0.105 -0.105)">
     <defs>
      <path id="DejaVuSans-57" d="M 213 4666 
L 850 4666 
L 1831 722 
L 2809 4666 
L 3519 4666 
L 4500 722 
L 5478 4666 
L 6119 4666 
L 4947 0 
L 4153 0 
L 3169 4050 
L 2175 0 
L 1381 0 
L 213 4666 
z
" transform="scale(0.015625)"/>
      <path id="DejaVuSans-6b" d="M 581 4863 
L 1159 4863 
L 1159 1991 
L 2875 3500 
L 3609 3500 
L 1753 1863 
L 3688 0 
L 2938 0 
L 1159 1709 
L 1159 0 
L 581 0 
L 581 4863 
z
" transform="scale(0.015625)"/>
     </defs>
     <use xlink:href="#DejaVuSans-57"/>
     <use xlink:href="#DejaVuSans-68" transform="translate(98.876953 0)"/>
     <use xlink:href="#DejaVuSans-69" transform="translate(162.255859 0)"/>
     <use xlink:href="#DejaVuSans-73" transform="translate(190.039062 0)"/>
     <use xlink:href="#DejaVuSans-6b" transform="translate(242.138672 0)"/>
     <use xlink:href="#DejaVuSans-65" transform="translate(296.423828 0)"/>
     <use xlink:href="#DejaVuSans-72" transform="translate(357.947266 0)"/>
     <use xlink:href="#DejaVuSans-73" transform="translate(399.060547 0)"/>
    </g>
   </g>
   <g id="text_10">
    <!-- Cat -->
    <g style="fill: #0e7490" transform="translate(59.917594 244.283551) scale(0.105 -0.105)">
     <defs>
      <path id="DejaVuSans-43" d="M 4122 4306 
L 4122 3641 
Q 3803 3938 3442 4084 
Q 3081 4231 2675 4231 
Q 1875 4231 1450 3742 
Q 1025 3253 1025 2328 
Q 1025 1406 1450 917 
Q 1875 428 2675 428 
Q 3081 428 3442 575 
Q 3803 722 4122 1019 
L 4122 359 
Q 3791 134 3420 21 
Q 3050 -91 2638 -91 
Q 1578 -91 968 557 
Q 359 1206 359 2328 
Q 359 3453 968 4101 
Q 1578 4750 2638 4750 
Q 3056 4750 3426 4639 
Q 3797 4528 4122 4306 
z
" transform="scale(0.015625)"/>
     </defs>
     <use xlink:href="#DejaVuSans-43"/>
     <use xlink:href="#DejaVuSans-61" transform="translate(69.824219 0)"/>
     <use xlink:href="#DejaVuSans-74" transform="translate(131.103516 0)"/>
    </g>
   </g>
   <g id="text_11">
    <!-- Not cat -->
    <g style="fill: #9a9aa8" transform="translate(173.148211 244.283551) scale(0.105 -0.105)">
     <use xlink:href="#DejaVuSans-4e"/>
     <use xlink:href="#DejaVuSans-6f" transform="translate(74.804688 0)"/>
     <use xlink:href="#DejaVuSans-74" transform="translate(135.986328 0)"/>
     <use xlink:href="#DejaVuSans-20" transform="translate(175.195312 0)"/>
     <use xlink:href="#DejaVuSans-63" transform="translate(206.982422 0)"/>
     <use xlink:href="#DejaVuSans-61" transform="translate(261.962891 0)"/>
     <use xlink:href="#DejaVuSans-74" transform="translate(323.242188 0)"/>
    </g>
   </g>
   <g id="text_12">
    <!-- Cat -->
    <g style="fill: #0e7490" transform="translate(287.581594 244.283551) scale(0.105 -0.105)">
     <use xlink:href="#DejaVuSans-43"/>
     <use xlink:href="#DejaVuSans-61" transform="translate(69.824219 0)"/>
     <use xlink:href="#DejaVuSans-74" transform="translate(131.103516 0)"/>
    </g>
   </g>
   <g id="text_13">
    <!-- Not cat -->
    <g style="fill: #9a9aa8" transform="translate(400.812211 244.283551) scale(0.105 -0.105)">
     <use xlink:href="#DejaVuSans-4e"/>
     <use xlink:href="#DejaVuSans-6f" transform="translate(74.804688 0)"/>
     <use xlink:href="#DejaVuSans-74" transform="translate(135.986328 0)"/>
     <use xlink:href="#DejaVuSans-20" transform="translate(175.195312 0)"/>
     <use xlink:href="#DejaVuSans-63" transform="translate(206.982422 0)"/>
     <use xlink:href="#DejaVuSans-61" transform="translate(261.962891 0)"/>
     <use xlink:href="#DejaVuSans-74" transform="translate(323.242188 0)"/>
    </g>
   </g>
   <g id="text_14">
    <!-- new example: pointy ears, round face, whiskers present  →  prediction: Cat -->
    <g style="fill: #be1d74" transform="translate(56.70625 282.010345) scale(0.1 -0.1)">
     <defs>
      <path id="DejaVuSans-77" d="M 269 3500 
L 844 3500 
L 1563 769 
L 2278 3500 
L 2956 3500 
L 3675 769 
L 4391 3500 
L 4966 3500 
L 4050 0 
L 3372 0 
L 2619 2869 
L 1863 0 
L 1184 0 
L 269 3500 
z
" transform="scale(0.015625)"/>
      <path id="DejaVuSans-78" d="M 3513 3500 
L 2247 1797 
L 3578 0 
L 2900 0 
L 1881 1375 
L 863 0 
L 184 0 
L 1544 1831 
L 300 3500 
L 978 3500 
L 1906 2253 
L 2834 3500 
L 3513 3500 
z
" transform="scale(0.015625)"/>
      <path id="DejaVuSans-6d" d="M 3328 2828 
Q 3544 3216 3844 3400 
Q 4144 3584 4550 3584 
Q 5097 3584 5394 3201 
Q 5691 2819 5691 2113 
L 5691 0 
L 5113 0 
L 5113 2094 
Q 5113 2597 4934 2840 
Q 4756 3084 4391 3084 
Q 3944 3084 3684 2787 
Q 3425 2491 3425 1978 
L 3425 0 
L 2847 0 
L 2847 2094 
Q 2847 2600 2669 2842 
Q 2491 3084 2119 3084 
Q 1678 3084 1418 2786 
Q 1159 2488 1159 1978 
L 1159 0 
L 581 0 
L 581 3500 
L 1159 3500 
L 1159 2956 
Q 1356 3278 1631 3431 
Q 1906 3584 2284 3584 
Q 2666 3584 2933 3390 
Q 3200 3197 3328 2828 
z
" transform="scale(0.015625)"/>
      <path id="DejaVuSans-3a" d="M 750 794 
L 1409 794 
L 1409 0 
L 750 0 
L 750 794 
z
M 750 3309 
L 1409 3309 
L 1409 2516 
L 750 2516 
L 750 3309 
z
" transform="scale(0.015625)"/>
      <path id="DejaVuSans-2c" d="M 750 794 
L 1409 794 
L 1409 256 
L 897 -744 
L 494 -744 
L 750 256 
L 750 794 
z
" transform="scale(0.015625)"/>
      <path id="DejaVuSans-66" d="M 2375 4863 
L 2375 4384 
L 1825 4384 
Q 1516 4384 1395 4259 
Q 1275 4134 1275 3809 
L 1275 3500 
L 2222 3500 
L 2222 3053 
L 1275 3053 
L 1275 0 
L 697 0 
L 697 3053 
L 147 3053 
L 147 3500 
L 697 3500 
L 697 3744 
Q 697 4328 969 4595 
Q 1241 4863 1831 4863 
L 2375 4863 
z
" transform="scale(0.015625)"/>
      <path id="DejaVuSans-2192" d="M 5050 2147 
L 5050 1866 
L 3822 638 
L 3447 1013 
L 4175 1741 
L 366 1741 
L 366 2272 
L 4175 2272 
L 3447 3000 
L 3822 3375 
L 5050 2147 
z
" transform="scale(0.015625)"/>
     </defs>
     <use xlink:href="#DejaVuSans-6e"/>
     <use xlink:href="#DejaVuSans-65" transform="translate(63.378906 0)"/>
     <use xlink:href="#DejaVuSans-77" transform="translate(124.902344 0)"/>
     <use xlink:href="#DejaVuSans-20" transform="translate(206.689453 0)"/>
     <use xlink:href="#DejaVuSans-65" transform="translate(238.476562 0)"/>
     <use xlink:href="#DejaVuSans-78" transform="translate(298.25 0)"/>
     <use xlink:href="#DejaVuSans-61" transform="translate(357.429688 0)"/>
     <use xlink:href="#DejaVuSans-6d" transform="translate(418.708984 0)"/>
     <use xlink:href="#DejaVuSans-70" transform="translate(516.121094 0)"/>
     <use xlink:href="#DejaVuSans-6c" transform="translate(579.597656 0)"/>
     <use xlink:href="#DejaVuSans-65" transform="translate(607.380859 0)"/>
     <use xlink:href="#DejaVuSans-3a" transform="translate(668.904297 0)"/>
     <use xlink:href="#DejaVuSans-20" transform="translate(702.595703 0)"/>
     <use xlink:href="#DejaVuSans-70" transform="translate(734.382812 0)"/>
     <use xlink:href="#DejaVuSans-6f" transform="translate(797.859375 0)"/>
     <use xlink:href="#DejaVuSans-69" transform="translate(859.041016 0)"/>
     <use xlink:href="#DejaVuSans-6e" transform="translate(886.824219 0)"/>
     <use xlink:href="#DejaVuSans-74" transform="translate(950.203125 0)"/>
     <use xlink:href="#DejaVuSans-79" transform="translate(989.412109 0)"/>
     <use xlink:href="#DejaVuSans-20" transform="translate(1048.591797 0)"/>
     <use xlink:href="#DejaVuSans-65" transform="translate(1080.378906 0)"/>
     <use xlink:href="#DejaVuSans-61" transform="translate(1141.902344 0)"/>
     <use xlink:href="#DejaVuSans-72" transform="translate(1203.181641 0)"/>
     <use xlink:href="#DejaVuSans-73" transform="translate(1244.294922 0)"/>
     <use xlink:href="#DejaVuSans-2c" transform="translate(1296.394531 0)"/>
     <use xlink:href="#DejaVuSans-20" transform="translate(1328.181641 0)"/>
     <use xlink:href="#DejaVuSans-72" transform="translate(1359.96875 0)"/>
     <use xlink:href="#DejaVuSans-6f" transform="translate(1398.832031 0)"/>
     <use xlink:href="#DejaVuSans-75" transform="translate(1460.013672 0)"/>
     <use xlink:href="#DejaVuSans-6e" transform="translate(1523.392578 0)"/>
     <use xlink:href="#DejaVuSans-64" transform="translate(1586.771484 0)"/>
     <use xlink:href="#DejaVuSans-20" transform="translate(1650.248047 0)"/>
     <use xlink:href="#DejaVuSans-66" transform="translate(1682.035156 0)"/>
     <use xlink:href="#DejaVuSans-61" transform="translate(1717.240234 0)"/>
     <use xlink:href="#DejaVuSans-63" transform="translate(1778.519531 0)"/>
     <use xlink:href="#DejaVuSans-65" transform="translate(1833.5 0)"/>
     <use xlink:href="#DejaVuSans-2c" transform="translate(1895.023438 0)"/>
     <use xlink:href="#DejaVuSans-20" transform="translate(1926.810547 0)"/>
     <use xlink:href="#DejaVuSans-77" transform="translate(1958.597656 0)"/>
     <use xlink:href="#DejaVuSans-68" transform="translate(2040.384766 0)"/>
     <use xlink:href="#DejaVuSans-69" transform="translate(2103.763672 0)"/>
     <use xlink:href="#DejaVuSans-73" transform="translate(2131.546875 0)"/>
     <use xlink:href="#DejaVuSans-6b" transform="translate(2183.646484 0)"/>
     <use xlink:href="#DejaVuSans-65" transform="translate(2237.931641 0)"/>
     <use xlink:href="#DejaVuSans-72" transform="translate(2299.455078 0)"/>
     <use xlink:href="#DejaVuSans-73" transform="translate(2340.568359 0)"/>
     <use xlink:href="#DejaVuSans-20" transform="translate(2392.667969 0)"/>
     <use xlink:href="#DejaVuSans-70" transform="translate(2424.455078 0)"/>
     <use xlink:href="#DejaVuSans-72" transform="translate(2487.931641 0)"/>
     <use xlink:href="#DejaVuSans-65" transform="translate(2526.794922 0)"/>
     <use xlink:href="#DejaVuSans-73" transform="translate(2588.318359 0)"/>
     <use xlink:href="#DejaVuSans-65" transform="translate(2640.417969 0)"/>
     <use xlink:href="#DejaVuSans-6e" transform="translate(2701.941406 0)"/>
     <use xlink:href="#DejaVuSans-74" transform="translate(2765.320312 0)"/>
     <use xlink:href="#DejaVuSans-20" transform="translate(2804.529297 0)"/>
     <use xlink:href="#DejaVuSans-20" transform="translate(2836.316406 0)"/>
     <use xlink:href="#DejaVuSans-2192" transform="translate(2868.103516 0)"/>
     <use xlink:href="#DejaVuSans-20" transform="translate(2951.892578 0)"/>
     <use xlink:href="#DejaVuSans-20" transform="translate(2983.679688 0)"/>
     <use xlink:href="#DejaVuSans-70" transform="translate(3015.466797 0)"/>
     <use xlink:href="#DejaVuSans-72" transform="translate(3078.943359 0)"/>
     <use xlink:href="#DejaVuSans-65" transform="translate(3117.806641 0)"/>
     <use xlink:href="#DejaVuSans-64" transform="translate(3179.330078 0)"/>
     <use xlink:href="#DejaVuSans-69" transform="translate(3242.806641 0)"/>
     <use xlink:href="#DejaVuSans-63" transform="translate(3270.589844 0)"/>
     <use xlink:href="#DejaVuSans-74" transform="translate(3325.570312 0)"/>
     <use xlink:href="#DejaVuSans-69" transform="translate(3364.779297 0)"/>
     <use xlink:href="#DejaVuSans-6f" transform="translate(3392.5625 0)"/>
     <use xlink:href="#DejaVuSans-6e" transform="translate(3453.744141 0)"/>
     <use xlink:href="#DejaVuSans-3a" transform="translate(3517.123047 0)"/>
     <use xlink:href="#DejaVuSans-20" transform="translate(3550.814453 0)"/>
     <use xlink:href="#DejaVuSans-43" transform="translate(3582.601562 0)"/>
     <use xlink:href="#DejaVuSans-61" transform="translate(3652.425781 0)"/>
     <use xlink:href="#DejaVuSans-74" transform="translate(3713.705078 0)"/>
    </g>
   </g>
  </g>
 </g>
 <defs>
  <clipPath id="p2aa309762c">
   <rect x="7.2" y="7.2" width="474.3" height="277.2"/>
  </clipPath>
 </defs>
</svg>
