<?xml version="1.0" encoding="utf-8" standalone="no"?>
<!DOCTYPE svg PUBLIC "-//W3C//DTD SVG 1.1//EN"
  "http://www.w3.org/Graphics/SVG/1.1/DTD/svg11.dtd">
<svg xmlns:xlink="http://www.w3.org/1999/xlink" width="377.1pt" height="191.808pt" viewBox="0 0 377.1 191.808" xmlns="http://www.w3.org/2000/svg" version="1.1">
 <metadata>
  <rdf:RDF xmlns:dc="http://purl.org/dc/elements/1.1/" xmlns:cc="http://creativecommons.org/ns#" xmlns:rdf="http://www.w3.org/1999/02/22-rdf-syntax-ns#">
   <cc:Work>
    <dc:type rdf:resource="http://purl.org/dc/dcmitype/StillImage"/>
    <dc:date>2026-07-23T10:57:33.929059</dc:date>
    <dc:format>image/svg+xml</dc:format>
    <dc:creator>
     <cc:Agent>
      <dc:title>Matplotlib v3.10.8, https://matplotlib.org/</dc:title>
     </cc:Agent>
    </dc:creator>
   </cc:Work>
  </rdf:RDF>
 </metadata>
 <defs>
  <style type="text/css">*{stroke-linejoin: round; stroke-linecap: butt}</style>
 </defs>
 <g id="figure_1">
  <g id="patch_1">
   <path d="M 0 191.808 
L 377.1 191.808 
L 377.1 0 
L 0 0 
z
" style="fill: #ffffff"/>
  </g>
  <g id="axes_1">
   <g id="patch_2">
    <path d="M 176.795013 50.284027 
Q 136.736302 76.19162 98.179678 101.127752 
" clip-path="url(#p2edd7a7eeb)" style="fill: none; stroke: #555555; stroke-width: 1.6; stroke-linecap: round"/>
    <path d="M 105.291508 100.339164 
L 98.179678 101.127752 
L 101.815906 94.965135 
z
" clip-path="url(#p2edd7a7eeb)" style="fill: #555555; stroke: #555555; stroke-width: 1.6; stroke-linecap: round"/>
   </g>
   <g id="patch_3">
    <path d="M 200.304987 50.284027 
Q 240.363698 76.19162 278.920322 101.127752 
" clip-path="url(#p2edd7a7eeb)" style="fill: none; stroke: #555555; stroke-width: 1.6; stroke-linecap: round"/>
    <path d="M 275.284094 94.965135 
L 278.920322 101.127752 
L 271.808492 100.339164 
z
" clip-path="url(#p2edd7a7eeb)" style="fill: #555555; stroke: #555555; stroke-width: 1.6; stroke-linecap: round"/>
   </g>
   <g id="patch_4">
    <path d="M 188.55 63.3792 
C 205.726636 63.3792 222.202075 61.19837 234.347791 57.317013 
C 246.493507 53.435656 253.317857 48.170668 253.317857 42.6816 
C 253.317857 37.192532 246.493507 31.927544 234.347791 28.046187 
C 222.202075 24.16483 205.726636 21.984 188.55 21.984 
C 171.373364 21.984 154.897925 24.16483 142.752209 28.046187 
C 130.606493 31.927544 123.782143 37.192532 123.782143 42.6816 
C 123.782143 48.170668 130.606493 53.435656 142.752209 57.317013 
C 154.897925 61.19837 171.373364 63.3792 188.55 63.3792 
z
" clip-path="url(#p2edd7a7eeb)" style="fill: #ffffff; stroke: #2e8b57; stroke-width: 2; stroke-linejoin: miter"/>
   </g>
   <g id="text_1">
    <g id="patch_5">
     <path d="M 104.146629 82.231062 
L 122.691942 82.231062 
L 122.691942 70.152937 
L 104.146629 70.152937 
z
" style="fill: #ffffff"/>
    </g>
    <!-- Yes -->
    <g style="fill: #555555" transform="translate(105.346629 78.951375) scale(0.1 -0.1)">
     <defs>
      <path id="DejaVuSans-59" d="M -13 4666 
L 666 4666 
L 1959 2747 
L 3244 4666 
L 3922 4666 
L 2272 2222 
L 2272 0 
L 1638 0 
L 1638 2222 
L -13 4666 
z
" transform="scale(0.015625)"/>
      <path id="DejaVuSans-65" d="M 3597 1894 
L 3597 1613 
L 953 1613 
Q 991 1019 1311 708 
Q 1631 397 2203 397 
Q 2534 397 2845 478 
Q 3156 559 3463 722 
L 3463 178 
Q 3153 47 2828 -22 
Q 2503 -91 2169 -91 
Q 1331 -91 842 396 
Q 353 884 353 1716 
Q 353 2575 817 3079 
Q 1281 3584 2069 3584 
Q 2775 3584 3186 3129 
Q 3597 2675 3597 1894 
z
M 3022 2063 
Q 3016 2534 2758 2815 
Q 2500 3097 2075 3097 
Q 1594 3097 1305 2825 
Q 1016 2553 972 2059 
L 3022 2063 
z
" transform="scale(0.015625)"/>
      <path id="DejaVuSans-73" d="M 2834 3397 
L 2834 2853 
Q 2591 2978 2328 3040 
Q 2066 3103 1784 3103 
Q 1356 3103 1142 2972 
Q 928 2841 928 2578 
Q 928 2378 1081 2264 
Q 1234 2150 1697 2047 
L 1894 2003 
Q 2506 1872 2764 1633 
Q 3022 1394 3022 966 
Q 3022 478 2636 193 
Q 2250 -91 1575 -91 
Q 1294 -91 989 -36 
Q 684 19 347 128 
L 347 722 
Q 666 556 975 473 
Q 1284 391 1588 391 
Q 1994 391 2212 530 
Q 2431 669 2431 922 
Q 2431 1156 2273 1281 
Q 2116 1406 1581 1522 
L 1381 1569 
Q 847 1681 609 1914 
Q 372 2147 372 2553 
Q 372 3047 722 3315 
Q 1072 3584 1716 3584 
Q 2034 3584 2315 3537 
Q 2597 3491 2834 3397 
z
" transform="scale(0.015625)"/>
     </defs>
     <use xlink:href="#DejaVuSans-59"/>
     <use xlink:href="#DejaVuSans-65" transform="translate(47.833984 0)"/>
     <use xlink:href="#DejaVuSans-73" transform="translate(109.357422 0)"/>
    </g>
   </g>
   <g id="text_2">
    <g id="patch_6">
     <path d="M 253.09 82.231062 
L 269.09 82.231062 
L 269.09 70.152937 
L 253.09 70.152937 
z
" style="fill: #ffffff"/>
    </g>
    <!-- No -->
    <g style="fill: #555555" transform="translate(254.29 78.951375) scale(0.1 -0.1)">
     <defs>
      <path id="DejaVuSans-4e" d="M 628 4666 
L 1478 4666 
L 3547 763 
L 3547 4666 
L 4159 4666 
L 4159 0 
L 3309 0 
L 1241 3903 
L 1241 0 
L 628 0 
L 628 4666 
z
" transform="scale(0.015625)"/>
      <path id="DejaVuSans-6f" d="M 1959 3097 
Q 1497 3097 1228 2736 
Q 959 2375 959 1747 
Q 959 1119 1226 758 
Q 1494 397 1959 397 
Q 2419 397 2687 759 
Q 2956 1122 2956 1747 
Q 2956 2369 2687 2733 
Q 2419 3097 1959 3097 
z
M 1959 3584 
Q 2709 3584 3137 3096 
Q 3566 2609 3566 1747 
Q 3566 888 3137 398 
Q 2709 -91 1959 -91 
Q 1206 -91 779 398 
Q 353 888 353 1747 
Q 353 2609 779 3096 
Q 1206 3584 1959 3584 
z
" transform="scale(0.015625)"/>
     </defs>
     <use xlink:href="#DejaVuSans-4e"/>
     <use xlink:href="#DejaVuSans-6f" transform="translate(74.804688 0)"/>
    </g>
   </g>
   <g id="text_3">
    <!-- Cat DNA? -->
    <g style="fill: #2e8b57" transform="translate(163.591992 45.578944) scale(0.105 -0.105)">
     <defs>
      <path id="DejaVuSans-43" d="M 4122 4306 
L 4122 3641 
Q 3803 3938 3442 4084 
Q 3081 4231 2675 4231 
Q 1875 4231 1450 3742 
Q 1025 3253 1025 2328 
Q 1025 1406 1450 917 
Q 1875 428 2675 428 
Q 3081 428 3442 575 
Q 3803 722 4122 1019 
L 4122 359 
Q 3791 134 3420 21 
Q 3050 -91 2638 -91 
Q 1578 -91 968 557 
Q 359 1206 359 2328 
Q 359 3453 968 4101 
Q 1578 4750 2638 4750 
Q 3056 4750 3426 4639 
Q 3797 4528 4122 4306 
z
" transform="scale(0.015625)"/>
      <path id="DejaVuSans-61" d="M 2194 1759 
Q 1497 1759 1228 1600 
Q 959 1441 959 1056 
Q 959 750 1161 570 
Q 1363 391 1709 391 
Q 2188 391 2477 730 
Q 2766 1069 2766 1631 
L 2766 1759 
L 2194 1759 
z
M 3341 1997 
L 3341 0 
L 2766 0 
L 2766 531 
Q 2569 213 2275 61 
Q 1981 -91 1556 -91 
Q 1019 -91 701 211 
Q 384 513 384 1019 
Q 384 1609 779 1909 
Q 1175 2209 1959 2209 
L 2766 2209 
L 2766 2266 
Q 2766 2663 2505 2880 
Q 2244 3097 1772 3097 
Q 1472 3097 1187 3025 
Q 903 2953 641 2809 
L 641 3341 
Q 956 3463 1253 3523 
Q 1550 3584 1831 3584 
Q 2591 3584 2966 3190 
Q 3341 2797 3341 1997 
z
" transform="scale(0.015625)"/>
      <path id="DejaVuSans-74" d="M 1172 4494 
L 1172 3500 
L 2356 3500 
L 2356 3053 
L 1172 3053 
L 1172 1153 
Q 1172 725 1289 603 
Q 1406 481 1766 481 
L 2356 481 
L 2356 0 
L 1766 0 
Q 1100 0 847 248 
Q 594 497 594 1153 
L 594 3053 
L 172 3053 
L 172 3500 
L 594 3500 
L 594 4494 
L 1172 4494 
z
" transform="scale(0.015625)"/>
      <path id="DejaVuSans-20" transform="scale(0.015625)"/>
      <path id="DejaVuSans-44" d="M 1259 4147 
L 1259 519 
L 2022 519 
Q 2988 519 3436 956 
Q 3884 1394 3884 2338 
Q 3884 3275 3436 3711 
Q 2988 4147 2022 4147 
L 1259 4147 
z
M 628 4666 
L 1925 4666 
Q 3281 4666 3915 4102 
Q 4550 3538 4550 2338 
Q 4550 1131 3912 565 
Q 3275 0 1925 0 
L 628 0 
L 628 4666 
z
" transform="scale(0.015625)"/>
      <path id="DejaVuSans-41" d="M 2188 4044 
L 1331 1722 
L 3047 1722 
L 2188 4044 
z
M 1831 4666 
L 2547 4666 
L 4325 0 
L 3669 0 
L 3244 1197 
L 1141 1197 
L 716 0 
L 50 0 
L 1831 4666 
z
" transform="scale(0.015625)"/>
      <path id="DejaVuSans-3f" d="M 1222 794 
L 1856 794 
L 1856 0 
L 1222 0 
L 1222 794 
z
M 1838 1253 
L 1241 1253 
L 1241 1734 
Q 1241 2050 1328 2253 
Q 1416 2456 1697 2725 
L 1978 3003 
Q 2156 3169 2236 3316 
Q 2316 3463 2316 3616 
Q 2316 3894 2111 4066 
Q 1906 4238 1569 4238 
Q 1322 4238 1042 4128 
Q 763 4019 459 3809 
L 459 4397 
Q 753 4575 1054 4662 
Q 1356 4750 1678 4750 
Q 2253 4750 2601 4447 
Q 2950 4144 2950 3647 
Q 2950 3409 2837 3195 
Q 2725 2981 2444 2713 
L 2169 2444 
Q 2022 2297 1961 2214 
Q 1900 2131 1875 2053 
Q 1856 1988 1847 1894 
Q 1838 1800 1838 1638 
L 1838 1253 
z
" transform="scale(0.015625)"/>
     </defs>
     <use xlink:href="#DejaVuSans-43"/>
     <use xlink:href="#DejaVuSans-61" transform="translate(69.824219 0)"/>
     <use xlink:href="#DejaVuSans-74" transform="translate(131.103516 0)"/>
     <use xlink:href="#DejaVuSans-20" transform="translate(170.3125 0)"/>
     <use xlink:href="#DejaVuSans-44" transform="translate(202.099609 0)"/>
     <use xlink:href="#DejaVuSans-4e" transform="translate(279.101562 0)"/>
     <use xlink:href="#DejaVuSans-41" transform="translate(353.90625 0)"/>
     <use xlink:href="#DejaVuSans-3f" transform="translate(422.314453 0)"/>
    </g>
   </g>
   <g id="text_4">
    <!-- 5/5 cats -->
    <g style="fill: #0e7490" transform="translate(62.90596 123.5008) scale(0.11 -0.11)">
     <defs>
      <path id="DejaVuSans-35" d="M 691 4666 
L 3169 4666 
L 3169 4134 
L 1269 4134 
L 1269 2991 
Q 1406 3038 1543 3061 
Q 1681 3084 1819 3084 
Q 2600 3084 3056 2656 
Q 3513 2228 3513 1497 
Q 3513 744 3044 326 
Q 2575 -91 1722 -91 
Q 1428 -91 1123 -41 
Q 819 9 494 109 
L 494 744 
Q 775 591 1075 516 
Q 1375 441 1709 441 
Q 2250 441 2565 725 
Q 2881 1009 2881 1497 
Q 2881 1984 2565 2268 
Q 2250 2553 1709 2553 
Q 1456 2553 1204 2497 
Q 953 2441 691 2322 
L 691 4666 
z
" transform="scale(0.015625)"/>
      <path id="DejaVuSans-2f" d="M 1625 4666 
L 2156 4666 
L 531 -594 
L 0 -594 
L 1625 4666 
z
" transform="scale(0.015625)"/>
      <path id="DejaVuSans-63" d="M 3122 3366 
L 3122 2828 
Q 2878 2963 2633 3030 
Q 2388 3097 2138 3097 
Q 1578 3097 1268 2742 
Q 959 2388 959 1747 
Q 959 1106 1268 751 
Q 1578 397 2138 397 
Q 2388 397 2633 464 
Q 2878 531 3122 666 
L 3122 134 
Q 2881 22 2623 -34 
Q 2366 -91 2075 -91 
Q 1284 -91 818 406 
Q 353 903 353 1747 
Q 353 2603 823 3093 
Q 1294 3584 2113 3584 
Q 2378 3584 2631 3529 
Q 2884 3475 3122 3366 
z
" transform="scale(0.015625)"/>
     </defs>
     <use xlink:href="#DejaVuSans-35"/>
     <use xlink:href="#DejaVuSans-2f" transform="translate(63.623047 0)"/>
     <use xlink:href="#DejaVuSans-35" transform="translate(97.314453 0)"/>
     <use xlink:href="#DejaVuSans-20" transform="translate(160.9375 0)"/>
     <use xlink:href="#DejaVuSans-63" transform="translate(192.724609 0)"/>
     <use xlink:href="#DejaVuSans-61" transform="translate(247.705078 0)"/>
     <use xlink:href="#DejaVuSans-74" transform="translate(308.984375 0)"/>
     <use xlink:href="#DejaVuSans-73" transform="translate(348.193359 0)"/>
    </g>
   </g>
   <g id="text_5">
    <!-- 0/5 cats -->
    <g style="fill: #9a3a3a" transform="translate(270.163103 123.5008) scale(0.11 -0.11)">
     <defs>
      <path id="DejaVuSans-30" d="M 2034 4250 
Q 1547 4250 1301 3770 
Q 1056 3291 1056 2328 
Q 1056 1369 1301 889 
Q 1547 409 2034 409 
Q 2525 409 2770 889 
Q 3016 1369 3016 2328 
Q 3016 3291 2770 3770 
Q 2525 4250 2034 4250 
z
M 2034 4750 
Q 2819 4750 3233 4129 
Q 3647 3509 3647 2328 
Q 3647 1150 3233 529 
Q 2819 -91 2034 -91 
Q 1250 -91 836 529 
Q 422 1150 422 2328 
Q 422 3509 836 4129 
Q 1250 4750 2034 4750 
z
" transform="scale(0.015625)"/>
     </defs>
     <use xlink:href="#DejaVuSans-30"/>
     <use xlink:href="#DejaVuSans-2f" transform="translate(63.623047 0)"/>
     <use xlink:href="#DejaVuSans-35" transform="translate(97.314453 0)"/>
     <use xlink:href="#DejaVuSans-20" transform="translate(160.9375 0)"/>
     <use xlink:href="#DejaVuSans-63" transform="translate(192.724609 0)"/>
     <use xlink:href="#DejaVuSans-61" transform="translate(247.705078 0)"/>
     <use xlink:href="#DejaVuSans-74" transform="translate(308.984375 0)"/>
     <use xlink:href="#DejaVuSans-73" transform="translate(348.193359 0)"/>
    </g>
   </g>
   <g id="text_6">
    <!-- completely pure -->
    <g style="fill: #2e8b57" transform="translate(46.298733 143.2128) scale(0.095 -0.095)">
     <defs>
      <path id="DejaVuSans-6d" d="M 3328 2828 
Q 3544 3216 3844 3400 
Q 4144 3584 4550 3584 
Q 5097 3584 5394 3201 
Q 5691 2819 5691 2113 
L 5691 0 
L 5113 0 
L 5113 2094 
Q 5113 2597 4934 2840 
Q 4756 3084 4391 3084 
Q 3944 3084 3684 2787 
Q 3425 2491 3425 1978 
L 3425 0 
L 2847 0 
L 2847 2094 
Q 2847 2600 2669 2842 
Q 2491 3084 2119 3084 
Q 1678 3084 1418 2786 
Q 1159 2488 1159 1978 
L 1159 0 
L 581 0 
L 581 3500 
L 1159 3500 
L 1159 2956 
Q 1356 3278 1631 3431 
Q 1906 3584 2284 3584 
Q 2666 3584 2933 3390 
Q 3200 3197 3328 2828 
z
" transform="scale(0.015625)"/>
      <path id="DejaVuSans-70" d="M 1159 525 
L 1159 -1331 
L 581 -1331 
L 581 3500 
L 1159 3500 
L 1159 2969 
Q 1341 3281 1617 3432 
Q 1894 3584 2278 3584 
Q 2916 3584 3314 3078 
Q 3713 2572 3713 1747 
Q 3713 922 3314 415 
Q 2916 -91 2278 -91 
Q 1894 -91 1617 61 
Q 1341 213 1159 525 
z
M 3116 1747 
Q 3116 2381 2855 2742 
Q 2594 3103 2138 3103 
Q 1681 3103 1420 2742 
Q 1159 2381 1159 1747 
Q 1159 1113 1420 752 
Q 1681 391 2138 391 
Q 2594 391 2855 752 
Q 3116 1113 3116 1747 
z
" transform="scale(0.015625)"/>
      <path id="DejaVuSans-6c" d="M 603 4863 
L 1178 4863 
L 1178 0 
L 603 0 
L 603 4863 
z
" transform="scale(0.015625)"/>
      <path id="DejaVuSans-79" d="M 2059 -325 
Q 1816 -950 1584 -1140 
Q 1353 -1331 966 -1331 
L 506 -1331 
L 506 -850 
L 844 -850 
Q 1081 -850 1212 -737 
Q 1344 -625 1503 -206 
L 1606 56 
L 191 3500 
L 800 3500 
L 1894 763 
L 2988 3500 
L 3597 3500 
L 2059 -325 
z
" transform="scale(0.015625)"/>
      <path id="DejaVuSans-75" d="M 544 1381 
L 544 3500 
L 1119 3500 
L 1119 1403 
Q 1119 906 1312 657 
Q 1506 409 1894 409 
Q 2359 409 2629 706 
Q 2900 1003 2900 1516 
L 2900 3500 
L 3475 3500 
L 3475 0 
L 2900 0 
L 2900 538 
Q 2691 219 2414 64 
Q 2138 -91 1772 -91 
Q 1169 -91 856 284 
Q 544 659 544 1381 
z
M 1991 3584 
L 1991 3584 
z
" transform="scale(0.015625)"/>
      <path id="DejaVuSans-72" d="M 2631 2963 
Q 2534 3019 2420 3045 
Q 2306 3072 2169 3072 
Q 1681 3072 1420 2755 
Q 1159 2438 1159 1844 
L 1159 0 
L 581 0 
L 581 3500 
L 1159 3500 
L 1159 2956 
Q 1341 3275 1631 3429 
Q 1922 3584 2338 3584 
Q 2397 3584 2469 3576 
Q 2541 3569 2628 3553 
L 2631 2963 
z
" transform="scale(0.015625)"/>
     </defs>
     <use xlink:href="#DejaVuSans-63"/>
     <use xlink:href="#DejaVuSans-6f" transform="translate(54.980469 0)"/>
     <use xlink:href="#DejaVuSans-6d" transform="translate(116.162109 0)"/>
     <use xlink:href="#DejaVuSans-70" transform="translate(213.574219 0)"/>
     <use xlink:href="#DejaVuSans-6c" transform="translate(277.050781 0)"/>
     <use xlink:href="#DejaVuSans-65" transform="translate(304.833984 0)"/>
     <use xlink:href="#DejaVuSans-74" transform="translate(366.357422 0)"/>
     <use xlink:href="#DejaVuSans-65" transform="translate(405.566406 0)"/>
     <use xlink:href="#DejaVuSans-6c" transform="translate(467.089844 0)"/>
     <use xlink:href="#DejaVuSans-79" transform="translate(494.873047 0)"/>
     <use xlink:href="#DejaVuSans-20" transform="translate(554.052734 0)"/>
     <use xlink:href="#DejaVuSans-70" transform="translate(585.839844 0)"/>
     <use xlink:href="#DejaVuSans-75" transform="translate(649.316406 0)"/>
     <use xlink:href="#DejaVuSans-72" transform="translate(712.695312 0)"/>
     <use xlink:href="#DejaVuSans-65" transform="translate(751.558594 0)"/>
    </g>
   </g>
   <g id="text_7">
    <!-- completely pure -->
    <g style="fill: #2e8b57" transform="translate(253.555876 143.2128) scale(0.095 -0.095)">
     <use xlink:href="#DejaVuSans-63"/>
     <use xlink:href="#DejaVuSans-6f" transform="translate(54.980469 0)"/>
     <use xlink:href="#DejaVuSans-6d" transform="translate(116.162109 0)"/>
     <use xlink:href="#DejaVuSans-70" transform="translate(213.574219 0)"/>
     <use xlink:href="#DejaVuSans-6c" transform="translate(277.050781 0)"/>
     <use xlink:href="#DejaVuSans-65" transform="translate(304.833984 0)"/>
     <use xlink:href="#DejaVuSans-74" transform="translate(366.357422 0)"/>
     <use xlink:href="#DejaVuSans-65" transform="translate(405.566406 0)"/>
     <use xlink:href="#DejaVuSans-6c" transform="translate(467.089844 0)"/>
     <use xlink:href="#DejaVuSans-79" transform="translate(494.873047 0)"/>
     <use xlink:href="#DejaVuSans-20" transform="translate(554.052734 0)"/>
     <use xlink:href="#DejaVuSans-70" transform="translate(585.839844 0)"/>
     <use xlink:href="#DejaVuSans-75" transform="translate(649.316406 0)"/>
     <use xlink:href="#DejaVuSans-72" transform="translate(712.695312 0)"/>
     <use xlink:href="#DejaVuSans-65" transform="translate(751.558594 0)"/>
    </g>
   </g>
   <g id="text_8">
    <!-- a hypothetical perfect feature -->
    <g style="fill: #808080" transform="translate(113.698437 172.7808) scale(0.1 -0.1)">
     <defs>
      <path id="DejaVuSans-68" d="M 3513 2113 
L 3513 0 
L 2938 0 
L 2938 2094 
Q 2938 2591 2744 2837 
Q 2550 3084 2163 3084 
Q 1697 3084 1428 2787 
Q 1159 2491 1159 1978 
L 1159 0 
L 581 0 
L 581 4863 
L 1159 4863 
L 1159 2956 
Q 1366 3272 1645 3428 
Q 1925 3584 2291 3584 
Q 2894 3584 3203 3211 
Q 3513 2838 3513 2113 
z
" transform="scale(0.015625)"/>
      <path id="DejaVuSans-69" d="M 603 3500 
L 1178 3500 
L 1178 0 
L 603 0 
L 603 3500 
z
M 603 4863 
L 1178 4863 
L 1178 4134 
L 603 4134 
L 603 4863 
z
" transform="scale(0.015625)"/>
      <path id="DejaVuSans-66" d="M 2375 4863 
L 2375 4384 
L 1825 4384 
Q 1516 4384 1395 4259 
Q 1275 4134 1275 3809 
L 1275 3500 
L 2222 3500 
L 2222 3053 
L 1275 3053 
L 1275 0 
L 697 0 
L 697 3053 
L 147 3053 
L 147 3500 
L 697 3500 
L 697 3744 
Q 697 4328 969 4595 
Q 1241 4863 1831 4863 
L 2375 4863 
z
" transform="scale(0.015625)"/>
     </defs>
     <use xlink:href="#DejaVuSans-61"/>
     <use xlink:href="#DejaVuSans-20" transform="translate(61.279297 0)"/>
     <use xlink:href="#DejaVuSans-68" transform="translate(93.066406 0)"/>
     <use xlink:href="#DejaVuSans-79" transform="translate(156.445312 0)"/>
     <use xlink:href="#DejaVuSans-70" transform="translate(215.625 0)"/>
     <use xlink:href="#DejaVuSans-6f" transform="translate(279.101562 0)"/>
     <use xlink:href="#DejaVuSans-74" transform="translate(340.283203 0)"/>
     <use xlink:href="#DejaVuSans-68" transform="translate(379.492188 0)"/>
     <use xlink:href="#DejaVuSans-65" transform="translate(442.871094 0)"/>
     <use xlink:href="#DejaVuSans-74" transform="translate(504.394531 0)"/>
     <use xlink:href="#DejaVuSans-69" transform="translate(543.603516 0)"/>
     <use xlink:href="#DejaVuSans-63" transform="translate(571.386719 0)"/>
     <use xlink:href="#DejaVuSans-61" transform="translate(626.367188 0)"/>
     <use xlink:href="#DejaVuSans-6c" transform="translate(687.646484 0)"/>
     <use xlink:href="#DejaVuSans-20" transform="translate(715.429688 0)"/>
     <use xlink:href="#DejaVuSans-70" transform="translate(747.216797 0)"/>
     <use xlink:href="#DejaVuSans-65" transform="translate(810.693359 0)"/>
     <use xlink:href="#DejaVuSans-72" transform="translate(872.216797 0)"/>
     <use xlink:href="#DejaVuSans-66" transform="translate(913.330078 0)"/>
     <use xlink:href="#DejaVuSans-65" transform="translate(948.535156 0)"/>
     <use xlink:href="#DejaVuSans-63" transform="translate(1010.058594 0)"/>
     <use xlink:href="#DejaVuSans-74" transform="translate(1065.039062 0)"/>
     <use xlink:href="#DejaVuSans-20" transform="translate(1104.248047 0)"/>
     <use xlink:href="#DejaVuSans-66" transform="translate(1136.035156 0)"/>
     <use xlink:href="#DejaVuSans-65" transform="translate(1171.240234 0)"/>
     <use xlink:href="#DejaVuSans-61" transform="translate(1232.763672 0)"/>
     <use xlink:href="#DejaVuSans-74" transform="translate(1294.042969 0)"/>
     <use xlink:href="#DejaVuSans-75" transform="translate(1333.251953 0)"/>
     <use xlink:href="#DejaVuSans-72" transform="translate(1396.630859 0)"/>
     <use xlink:href="#DejaVuSans-65" transform="translate(1435.494141 0)"/>
    </g>
   </g>
  </g>
 </g>
 <defs>
  <clipPath id="p2edd7a7eeb">
   <rect x="7.2" y="7.2" width="362.7" height="177.408"/>
  </clipPath>
 </defs>
</svg>
