<?xml version="1.0" encoding="utf-8" standalone="no"?>
<!DOCTYPE svg PUBLIC "-//W3C//DTD SVG 1.1//EN"
  "http://www.w3.org/Graphics/SVG/1.1/DTD/svg11.dtd">
<svg xmlns:xlink="http://www.w3.org/1999/xlink" width="788.7085pt" height="317.971625pt" viewBox="0 0 788.7085 317.971625" xmlns="http://www.w3.org/2000/svg" version="1.1">
 <metadata>
  <rdf:RDF xmlns:dc="http://purl.org/dc/elements/1.1/" xmlns:cc="http://creativecommons.org/ns#" xmlns:rdf="http://www.w3.org/1999/02/22-rdf-syntax-ns#">
   <cc:Work>
    <dc:type rdf:resource="http://purl.org/dc/dcmitype/StillImage"/>
    <dc:date>2026-07-23T15:05:40.894032</dc:date>
    <dc:format>image/svg+xml</dc:format>
    <dc:creator>
     <cc:Agent>
      <dc:title>Matplotlib v3.10.8, https://matplotlib.org/</dc:title>
     </cc:Agent>
    </dc:creator>
   </cc:Work>
  </rdf:RDF>
 </metadata>
 <defs>
  <style type="text/css">*{stroke-linejoin: round; stroke-linecap: butt}</style>
 </defs>
 <g id="figure_1">
  <g id="patch_1">
   <path d="M 0 317.971625 
L 788.7085 317.971625 
L 788.7085 0 
L 0 0 
z
" style="fill: #ffffff"/>
  </g>
  <g id="axes_1">
   <g id="patch_2">
    <path d="M 48.50725 286.238125 
L 410.687875 286.238125 
L 410.687875 32.018125 
L 48.50725 32.018125 
z
" style="fill: #ffffff"/>
   </g>
   <g id="matplotlib.axis_1">
    <g id="xtick_1">
     <g id="line2d_1"/>
     <g id="text_1">
      <!-- −0.75 -->
      <g transform="translate(67.290913 295.816875) scale(0.08 -0.08)">
       <defs>
        <path id="DejaVuSans-2212" d="M 678 2272 
L 4684 2272 
L 4684 1741 
L 678 1741 
L 678 2272 
z
" transform="scale(0.015625)"/>
        <path id="DejaVuSans-30" d="M 2034 4250 
Q 1547 4250 1301 3770 
Q 1056 3291 1056 2328 
Q 1056 1369 1301 889 
Q 1547 409 2034 409 
Q 2525 409 2770 889 
Q 3016 1369 3016 2328 
Q 3016 3291 2770 3770 
Q 2525 4250 2034 4250 
z
M 2034 4750 
Q 2819 4750 3233 4129 
Q 3647 3509 3647 2328 
Q 3647 1150 3233 529 
Q 2819 -91 2034 -91 
Q 1250 -91 836 529 
Q 422 1150 422 2328 
Q 422 3509 836 4129 
Q 1250 4750 2034 4750 
z
" transform="scale(0.015625)"/>
        <path id="DejaVuSans-2e" d="M 684 794 
L 1344 794 
L 1344 0 
L 684 0 
L 684 794 
z
" transform="scale(0.015625)"/>
        <path id="DejaVuSans-37" d="M 525 4666 
L 3525 4666 
L 3525 4397 
L 1831 0 
L 1172 0 
L 2766 4134 
L 525 4134 
L 525 4666 
z
" transform="scale(0.015625)"/>
        <path id="DejaVuSans-35" d="M 691 4666 
L 3169 4666 
L 3169 4134 
L 1269 4134 
L 1269 2991 
Q 1406 3038 1543 3061 
Q 1681 3084 1819 3084 
Q 2600 3084 3056 2656 
Q 3513 2228 3513 1497 
Q 3513 744 3044 326 
Q 2575 -91 1722 -91 
Q 1428 -91 1123 -41 
Q 819 9 494 109 
L 494 744 
Q 775 591 1075 516 
Q 1375 441 1709 441 
Q 2250 441 2565 725 
Q 2881 1009 2881 1497 
Q 2881 1984 2565 2268 
Q 2250 2553 1709 2553 
Q 1456 2553 1204 2497 
Q 953 2441 691 2322 
L 691 4666 
z
" transform="scale(0.015625)"/>
       </defs>
       <use xlink:href="#DejaVuSans-2212"/>
       <use xlink:href="#DejaVuSans-30" transform="translate(83.789062 0)"/>
       <use xlink:href="#DejaVuSans-2e" transform="translate(147.412109 0)"/>
       <use xlink:href="#DejaVuSans-37" transform="translate(179.199219 0)"/>
       <use xlink:href="#DejaVuSans-35" transform="translate(242.822266 0)"/>
      </g>
     </g>
    </g>
    <g id="xtick_2">
     <g id="line2d_2"/>
     <g id="text_2">
      <!-- −0.50 -->
      <g transform="translate(110.387747 295.816875) scale(0.08 -0.08)">
       <use xlink:href="#DejaVuSans-2212"/>
       <use xlink:href="#DejaVuSans-30" transform="translate(83.789062 0)"/>
       <use xlink:href="#DejaVuSans-2e" transform="translate(147.412109 0)"/>
       <use xlink:href="#DejaVuSans-35" transform="translate(179.199219 0)"/>
       <use xlink:href="#DejaVuSans-30" transform="translate(242.822266 0)"/>
      </g>
     </g>
    </g>
    <g id="xtick_3">
     <g id="line2d_3"/>
     <g id="text_3">
      <!-- −0.25 -->
      <g transform="translate(153.484582 295.816875) scale(0.08 -0.08)">
       <defs>
        <path id="DejaVuSans-32" d="M 1228 531 
L 3431 531 
L 3431 0 
L 469 0 
L 469 531 
Q 828 903 1448 1529 
Q 2069 2156 2228 2338 
Q 2531 2678 2651 2914 
Q 2772 3150 2772 3378 
Q 2772 3750 2511 3984 
Q 2250 4219 1831 4219 
Q 1534 4219 1204 4116 
Q 875 4013 500 3803 
L 500 4441 
Q 881 4594 1212 4672 
Q 1544 4750 1819 4750 
Q 2544 4750 2975 4387 
Q 3406 4025 3406 3419 
Q 3406 3131 3298 2873 
Q 3191 2616 2906 2266 
Q 2828 2175 2409 1742 
Q 1991 1309 1228 531 
z
" transform="scale(0.015625)"/>
       </defs>
       <use xlink:href="#DejaVuSans-2212"/>
       <use xlink:href="#DejaVuSans-30" transform="translate(83.789062 0)"/>
       <use xlink:href="#DejaVuSans-2e" transform="translate(147.412109 0)"/>
       <use xlink:href="#DejaVuSans-32" transform="translate(179.199219 0)"/>
       <use xlink:href="#DejaVuSans-35" transform="translate(242.822266 0)"/>
      </g>
     </g>
    </g>
    <g id="xtick_4">
     <g id="line2d_4"/>
     <g id="text_4">
      <!-- 0.00 -->
      <g transform="translate(199.933291 295.816875) scale(0.08 -0.08)">
       <use xlink:href="#DejaVuSans-30"/>
       <use xlink:href="#DejaVuSans-2e" transform="translate(63.623047 0)"/>
       <use xlink:href="#DejaVuSans-30" transform="translate(95.410156 0)"/>
       <use xlink:href="#DejaVuSans-30" transform="translate(159.033203 0)"/>
      </g>
     </g>
    </g>
    <g id="xtick_5">
     <g id="line2d_5"/>
     <g id="text_5">
      <!-- 0.25 -->
      <g transform="translate(243.030126 295.816875) scale(0.08 -0.08)">
       <use xlink:href="#DejaVuSans-30"/>
       <use xlink:href="#DejaVuSans-2e" transform="translate(63.623047 0)"/>
       <use xlink:href="#DejaVuSans-32" transform="translate(95.410156 0)"/>
       <use xlink:href="#DejaVuSans-35" transform="translate(159.033203 0)"/>
      </g>
     </g>
    </g>
    <g id="xtick_6">
     <g id="line2d_6"/>
     <g id="text_6">
      <!-- 0.50 -->
      <g transform="translate(286.12696 295.816875) scale(0.08 -0.08)">
       <use xlink:href="#DejaVuSans-30"/>
       <use xlink:href="#DejaVuSans-2e" transform="translate(63.623047 0)"/>
       <use xlink:href="#DejaVuSans-35" transform="translate(95.410156 0)"/>
       <use xlink:href="#DejaVuSans-30" transform="translate(159.033203 0)"/>
      </g>
     </g>
    </g>
    <g id="xtick_7">
     <g id="line2d_7"/>
     <g id="text_7">
      <!-- 0.75 -->
      <g transform="translate(329.223795 295.816875) scale(0.08 -0.08)">
       <use xlink:href="#DejaVuSans-30"/>
       <use xlink:href="#DejaVuSans-2e" transform="translate(63.623047 0)"/>
       <use xlink:href="#DejaVuSans-37" transform="translate(95.410156 0)"/>
       <use xlink:href="#DejaVuSans-35" transform="translate(159.033203 0)"/>
      </g>
     </g>
    </g>
    <g id="xtick_8">
     <g id="line2d_8"/>
     <g id="text_8">
      <!-- 1.00 -->
      <g transform="translate(372.320629 295.816875) scale(0.08 -0.08)">
       <defs>
        <path id="DejaVuSans-31" d="M 794 531 
L 1825 531 
L 1825 4091 
L 703 3866 
L 703 4441 
L 1819 4666 
L 2450 4666 
L 2450 531 
L 3481 531 
L 3481 0 
L 794 0 
L 794 531 
z
" transform="scale(0.015625)"/>
       </defs>
       <use xlink:href="#DejaVuSans-31"/>
       <use xlink:href="#DejaVuSans-2e" transform="translate(63.623047 0)"/>
       <use xlink:href="#DejaVuSans-30" transform="translate(95.410156 0)"/>
       <use xlink:href="#DejaVuSans-30" transform="translate(159.033203 0)"/>
      </g>
     </g>
    </g>
    <g id="text_9">
     <!-- Microchip Test 1 -->
     <g transform="translate(191.062563 308.775125) scale(0.096 -0.096)">
      <defs>
       <path id="DejaVuSans-4d" d="M 628 4666 
L 1569 4666 
L 2759 1491 
L 3956 4666 
L 4897 4666 
L 4897 0 
L 4281 0 
L 4281 4097 
L 3078 897 
L 2444 897 
L 1241 4097 
L 1241 0 
L 628 0 
L 628 4666 
z
" transform="scale(0.015625)"/>
       <path id="DejaVuSans-69" d="M 603 3500 
L 1178 3500 
L 1178 0 
L 603 0 
L 603 3500 
z
M 603 4863 
L 1178 4863 
L 1178 4134 
L 603 4134 
L 603 4863 
z
" transform="scale(0.015625)"/>
       <path id="DejaVuSans-63" d="M 3122 3366 
L 3122 2828 
Q 2878 2963 2633 3030 
Q 2388 3097 2138 3097 
Q 1578 3097 1268 2742 
Q 959 2388 959 1747 
Q 959 1106 1268 751 
Q 1578 397 2138 397 
Q 2388 397 2633 464 
Q 2878 531 3122 666 
L 3122 134 
Q 2881 22 2623 -34 
Q 2366 -91 2075 -91 
Q 1284 -91 818 406 
Q 353 903 353 1747 
Q 353 2603 823 3093 
Q 1294 3584 2113 3584 
Q 2378 3584 2631 3529 
Q 2884 3475 3122 3366 
z
" transform="scale(0.015625)"/>
       <path id="DejaVuSans-72" d="M 2631 2963 
Q 2534 3019 2420 3045 
Q 2306 3072 2169 3072 
Q 1681 3072 1420 2755 
Q 1159 2438 1159 1844 
L 1159 0 
L 581 0 
L 581 3500 
L 1159 3500 
L 1159 2956 
Q 1341 3275 1631 3429 
Q 1922 3584 2338 3584 
Q 2397 3584 2469 3576 
Q 2541 3569 2628 3553 
L 2631 2963 
z
" transform="scale(0.015625)"/>
       <path id="DejaVuSans-6f" d="M 1959 3097 
Q 1497 3097 1228 2736 
Q 959 2375 959 1747 
Q 959 1119 1226 758 
Q 1494 397 1959 397 
Q 2419 397 2687 759 
Q 2956 1122 2956 1747 
Q 2956 2369 2687 2733 
Q 2419 3097 1959 3097 
z
M 1959 3584 
Q 2709 3584 3137 3096 
Q 3566 2609 3566 1747 
Q 3566 888 3137 398 
Q 2709 -91 1959 -91 
Q 1206 -91 779 398 
Q 353 888 353 1747 
Q 353 2609 779 3096 
Q 1206 3584 1959 3584 
z
" transform="scale(0.015625)"/>
       <path id="DejaVuSans-68" d="M 3513 2113 
L 3513 0 
L 2938 0 
L 2938 2094 
Q 2938 2591 2744 2837 
Q 2550 3084 2163 3084 
Q 1697 3084 1428 2787 
Q 1159 2491 1159 1978 
L 1159 0 
L 581 0 
L 581 4863 
L 1159 4863 
L 1159 2956 
Q 1366 3272 1645 3428 
Q 1925 3584 2291 3584 
Q 2894 3584 3203 3211 
Q 3513 2838 3513 2113 
z
" transform="scale(0.015625)"/>
       <path id="DejaVuSans-70" d="M 1159 525 
L 1159 -1331 
L 581 -1331 
L 581 3500 
L 1159 3500 
L 1159 2969 
Q 1341 3281 1617 3432 
Q 1894 3584 2278 3584 
Q 2916 3584 3314 3078 
Q 3713 2572 3713 1747 
Q 3713 922 3314 415 
Q 2916 -91 2278 -91 
Q 1894 -91 1617 61 
Q 1341 213 1159 525 
z
M 3116 1747 
Q 3116 2381 2855 2742 
Q 2594 3103 2138 3103 
Q 1681 3103 1420 2742 
Q 1159 2381 1159 1747 
Q 1159 1113 1420 752 
Q 1681 391 2138 391 
Q 2594 391 2855 752 
Q 3116 1113 3116 1747 
z
" transform="scale(0.015625)"/>
       <path id="DejaVuSans-20" transform="scale(0.015625)"/>
       <path id="DejaVuSans-54" d="M -19 4666 
L 3928 4666 
L 3928 4134 
L 2272 4134 
L 2272 0 
L 1638 0 
L 1638 4134 
L -19 4134 
L -19 4666 
z
" transform="scale(0.015625)"/>
       <path id="DejaVuSans-65" d="M 3597 1894 
L 3597 1613 
L 953 1613 
Q 991 1019 1311 708 
Q 1631 397 2203 397 
Q 2534 397 2845 478 
Q 3156 559 3463 722 
L 3463 178 
Q 3153 47 2828 -22 
Q 2503 -91 2169 -91 
Q 1331 -91 842 396 
Q 353 884 353 1716 
Q 353 2575 817 3079 
Q 1281 3584 2069 3584 
Q 2775 3584 3186 3129 
Q 3597 2675 3597 1894 
z
M 3022 2063 
Q 3016 2534 2758 2815 
Q 2500 3097 2075 3097 
Q 1594 3097 1305 2825 
Q 1016 2553 972 2059 
L 3022 2063 
z
" transform="scale(0.015625)"/>
       <path id="DejaVuSans-73" d="M 2834 3397 
L 2834 2853 
Q 2591 2978 2328 3040 
Q 2066 3103 1784 3103 
Q 1356 3103 1142 2972 
Q 928 2841 928 2578 
Q 928 2378 1081 2264 
Q 1234 2150 1697 2047 
L 1894 2003 
Q 2506 1872 2764 1633 
Q 3022 1394 3022 966 
Q 3022 478 2636 193 
Q 2250 -91 1575 -91 
Q 1294 -91 989 -36 
Q 684 19 347 128 
L 347 722 
Q 666 556 975 473 
Q 1284 391 1588 391 
Q 1994 391 2212 530 
Q 2431 669 2431 922 
Q 2431 1156 2273 1281 
Q 2116 1406 1581 1522 
L 1381 1569 
Q 847 1681 609 1914 
Q 372 2147 372 2553 
Q 372 3047 722 3315 
Q 1072 3584 1716 3584 
Q 2034 3584 2315 3537 
Q 2597 3491 2834 3397 
z
" transform="scale(0.015625)"/>
       <path id="DejaVuSans-74" d="M 1172 4494 
L 1172 3500 
L 2356 3500 
L 2356 3053 
L 1172 3053 
L 1172 1153 
Q 1172 725 1289 603 
Q 1406 481 1766 481 
L 2356 481 
L 2356 0 
L 1766 0 
Q 1100 0 847 248 
Q 594 497 594 1153 
L 594 3053 
L 172 3053 
L 172 3500 
L 594 3500 
L 594 4494 
L 1172 4494 
z
" transform="scale(0.015625)"/>
      </defs>
      <use xlink:href="#DejaVuSans-4d"/>
      <use xlink:href="#DejaVuSans-69" transform="translate(86.279297 0)"/>
      <use xlink:href="#DejaVuSans-63" transform="translate(114.0625 0)"/>
      <use xlink:href="#DejaVuSans-72" transform="translate(169.042969 0)"/>
      <use xlink:href="#DejaVuSans-6f" transform="translate(207.90625 0)"/>
      <use xlink:href="#DejaVuSans-63" transform="translate(269.087891 0)"/>
      <use xlink:href="#DejaVuSans-68" transform="translate(324.068359 0)"/>
      <use xlink:href="#DejaVuSans-69" transform="translate(387.447266 0)"/>
      <use xlink:href="#DejaVuSans-70" transform="translate(415.230469 0)"/>
      <use xlink:href="#DejaVuSans-20" transform="translate(478.707031 0)"/>
      <use xlink:href="#DejaVuSans-54" transform="translate(510.494141 0)"/>
      <use xlink:href="#DejaVuSans-65" transform="translate(554.578125 0)"/>
      <use xlink:href="#DejaVuSans-73" transform="translate(616.101562 0)"/>
      <use xlink:href="#DejaVuSans-74" transform="translate(668.201172 0)"/>
      <use xlink:href="#DejaVuSans-20" transform="translate(707.410156 0)"/>
      <use xlink:href="#DejaVuSans-31" transform="translate(739.197266 0)"/>
     </g>
    </g>
   </g>
   <g id="matplotlib.axis_2">
    <g id="ytick_1">
     <g id="line2d_9"/>
     <g id="text_10">
      <!-- −0.75 -->
      <g transform="translate(20.491 274.633164) scale(0.08 -0.08)">
       <use xlink:href="#DejaVuSans-2212"/>
       <use xlink:href="#DejaVuSans-30" transform="translate(83.789062 0)"/>
       <use xlink:href="#DejaVuSans-2e" transform="translate(147.412109 0)"/>
       <use xlink:href="#DejaVuSans-37" transform="translate(179.199219 0)"/>
       <use xlink:href="#DejaVuSans-35" transform="translate(242.822266 0)"/>
      </g>
     </g>
    </g>
    <g id="ytick_2">
     <g id="line2d_10"/>
     <g id="text_11">
      <!-- −0.50 -->
      <g transform="translate(20.491 244.057884) scale(0.08 -0.08)">
       <use xlink:href="#DejaVuSans-2212"/>
       <use xlink:href="#DejaVuSans-30" transform="translate(83.789062 0)"/>
       <use xlink:href="#DejaVuSans-2e" transform="translate(147.412109 0)"/>
       <use xlink:href="#DejaVuSans-35" transform="translate(179.199219 0)"/>
       <use xlink:href="#DejaVuSans-30" transform="translate(242.822266 0)"/>
      </g>
     </g>
    </g>
    <g id="ytick_3">
     <g id="line2d_11"/>
     <g id="text_12">
      <!-- −0.25 -->
      <g transform="translate(20.491 213.482604) scale(0.08 -0.08)">
       <use xlink:href="#DejaVuSans-2212"/>
       <use xlink:href="#DejaVuSans-30" transform="translate(83.789062 0)"/>
       <use xlink:href="#DejaVuSans-2e" transform="translate(147.412109 0)"/>
       <use xlink:href="#DejaVuSans-32" transform="translate(179.199219 0)"/>
       <use xlink:href="#DejaVuSans-35" transform="translate(242.822266 0)"/>
      </g>
     </g>
    </g>
    <g id="ytick_4">
     <g id="line2d_12"/>
     <g id="text_13">
      <!-- 0.00 -->
      <g transform="translate(27.19475 182.907324) scale(0.08 -0.08)">
       <use xlink:href="#DejaVuSans-30"/>
       <use xlink:href="#DejaVuSans-2e" transform="translate(63.623047 0)"/>
       <use xlink:href="#DejaVuSans-30" transform="translate(95.410156 0)"/>
       <use xlink:href="#DejaVuSans-30" transform="translate(159.033203 0)"/>
      </g>
     </g>
    </g>
    <g id="ytick_5">
     <g id="line2d_13"/>
     <g id="text_14">
      <!-- 0.25 -->
      <g transform="translate(27.19475 152.332044) scale(0.08 -0.08)">
       <use xlink:href="#DejaVuSans-30"/>
       <use xlink:href="#DejaVuSans-2e" transform="translate(63.623047 0)"/>
       <use xlink:href="#DejaVuSans-32" transform="translate(95.410156 0)"/>
       <use xlink:href="#DejaVuSans-35" transform="translate(159.033203 0)"/>
      </g>
     </g>
    </g>
    <g id="ytick_6">
     <g id="line2d_14"/>
     <g id="text_15">
      <!-- 0.50 -->
      <g transform="translate(27.19475 121.756764) scale(0.08 -0.08)">
       <use xlink:href="#DejaVuSans-30"/>
       <use xlink:href="#DejaVuSans-2e" transform="translate(63.623047 0)"/>
       <use xlink:href="#DejaVuSans-35" transform="translate(95.410156 0)"/>
       <use xlink:href="#DejaVuSans-30" transform="translate(159.033203 0)"/>
      </g>
     </g>
    </g>
    <g id="ytick_7">
     <g id="line2d_15"/>
     <g id="text_16">
      <!-- 0.75 -->
      <g transform="translate(27.19475 91.181484) scale(0.08 -0.08)">
       <use xlink:href="#DejaVuSans-30"/>
       <use xlink:href="#DejaVuSans-2e" transform="translate(63.623047 0)"/>
       <use xlink:href="#DejaVuSans-37" transform="translate(95.410156 0)"/>
       <use xlink:href="#DejaVuSans-35" transform="translate(159.033203 0)"/>
      </g>
     </g>
    </g>
    <g id="ytick_8">
     <g id="line2d_16"/>
     <g id="text_17">
      <!-- 1.00 -->
      <g transform="translate(27.19475 60.606204) scale(0.08 -0.08)">
       <use xlink:href="#DejaVuSans-31"/>
       <use xlink:href="#DejaVuSans-2e" transform="translate(63.623047 0)"/>
       <use xlink:href="#DejaVuSans-30" transform="translate(95.410156 0)"/>
       <use xlink:href="#DejaVuSans-30" transform="translate(159.033203 0)"/>
      </g>
     </g>
    </g>
    <g id="text_18">
     <!-- Microchip Test 2 -->
     <g transform="translate(14.4945 197.663125) rotate(-90) scale(0.096 -0.096)">
      <use xlink:href="#DejaVuSans-4d"/>
      <use xlink:href="#DejaVuSans-69" transform="translate(86.279297 0)"/>
      <use xlink:href="#DejaVuSans-63" transform="translate(114.0625 0)"/>
      <use xlink:href="#DejaVuSans-72" transform="translate(169.042969 0)"/>
      <use xlink:href="#DejaVuSans-6f" transform="translate(207.90625 0)"/>
      <use xlink:href="#DejaVuSans-63" transform="translate(269.087891 0)"/>
      <use xlink:href="#DejaVuSans-68" transform="translate(324.068359 0)"/>
      <use xlink:href="#DejaVuSans-69" transform="translate(387.447266 0)"/>
      <use xlink:href="#DejaVuSans-70" transform="translate(415.230469 0)"/>
      <use xlink:href="#DejaVuSans-20" transform="translate(478.707031 0)"/>
      <use xlink:href="#DejaVuSans-54" transform="translate(510.494141 0)"/>
      <use xlink:href="#DejaVuSans-65" transform="translate(554.578125 0)"/>
      <use xlink:href="#DejaVuSans-73" transform="translate(616.101562 0)"/>
      <use xlink:href="#DejaVuSans-74" transform="translate(668.201172 0)"/>
      <use xlink:href="#DejaVuSans-20" transform="translate(707.410156 0)"/>
      <use xlink:href="#DejaVuSans-32" transform="translate(739.197266 0)"/>
     </g>
    </g>
   </g>
   <g id="PathCollection_1">
    <defs>
     <path id="m8c4002f5dc" d="M -3.162278 3.162278 
L 3.162278 -3.162278 
M -3.162278 -3.162278 
L 3.162278 3.162278 
" style="stroke: #c00000; stroke-width: 4"/>
    </defs>
    <g clip-path="url(#p6466d30939)">
     <use xlink:href="#m8c4002f5dc" x="217.677323" y="94.310977" style="fill: #c00000; stroke: #c00000; stroke-width: 4"/>
     <use xlink:href="#m8c4002f5dc" x="192.851995" y="96.09902" style="fill: #c00000; stroke: #c00000; stroke-width: 4"/>
     <use xlink:href="#m8c4002f5dc" x="171.998643" y="95.204999" style="fill: #c00000; stroke: #c00000; stroke-width: 4"/>
     <use xlink:href="#m8c4002f5dc" x="144.19429" y="118.449549" style="fill: #c00000; stroke: #c00000; stroke-width: 4"/>
     <use xlink:href="#m8c4002f5dc" x="120.36174" y="122.919655" style="fill: #c00000; stroke: #c00000; stroke-width: 4"/>
     <use xlink:href="#m8c4002f5dc" x="118.375838" y="154.209174" style="fill: #c00000; stroke: #c00000; stroke-width: 4"/>
     <use xlink:href="#m8c4002f5dc" x="140.222485" y="175.666049" style="fill: #c00000; stroke: #c00000; stroke-width: 4"/>
     <use xlink:href="#m8c4002f5dc" x="156.109702" y="203.380339" style="fill: #c00000; stroke: #c00000; stroke-width: 4"/>
     <use xlink:href="#m8c4002f5dc" x="211.719272" y="229.306954" style="fill: #c00000; stroke: #c00000; stroke-width: 4"/>
     <use xlink:href="#m8c4002f5dc" x="231.579155" y="242.717271" style="fill: #c00000; stroke: #c00000; stroke-width: 4"/>
     <use xlink:href="#m8c4002f5dc" x="275.27245" y="248.97542" style="fill: #c00000; stroke: #c00000; stroke-width: 4"/>
     <use xlink:href="#m8c4002f5dc" x="300.09795" y="243.611293" style="fill: #c00000; stroke: #c00000; stroke-width: 4"/>
     <use xlink:href="#m8c4002f5dc" x="318.96402" y="209.638488" style="fill: #c00000; stroke: #c00000; stroke-width: 4"/>
     <use xlink:href="#m8c4002f5dc" x="335.845912" y="202.486318" style="fill: #c00000; stroke: #c00000; stroke-width: 4"/>
     <use xlink:href="#m8c4002f5dc" x="303.076803" y="120.237592" style="fill: #c00000; stroke: #c00000; stroke-width: 4"/>
     <use xlink:href="#m8c4002f5dc" x="264.348264" y="108.615316" style="fill: #c00000; stroke: #c00000; stroke-width: 4"/>
     <use xlink:href="#m8c4002f5dc" x="237.536861" y="113.979444" style="fill: #c00000; stroke: #c00000; stroke-width: 4"/>
     <use xlink:href="#m8c4002f5dc" x="200.79612" y="80.006638" style="fill: #c00000; stroke: #c00000; stroke-width: 4"/>
     <use xlink:href="#m8c4002f5dc" x="178.949301" y="94.310977" style="fill: #c00000; stroke: #c00000; stroke-width: 4"/>
     <use xlink:href="#m8c4002f5dc" x="126.319447" y="102.357168" style="fill: #c00000; stroke: #c00000; stroke-width: 4"/>
     <use xlink:href="#m8c4002f5dc" x="104.474523" y="106.827274" style="fill: #c00000; stroke: #c00000; stroke-width: 4"/>
     <use xlink:href="#m8c4002f5dc" x="100.500995" y="139.012037" style="fill: #c00000; stroke: #c00000; stroke-width: 4"/>
     <use xlink:href="#m8c4002f5dc" x="106.460425" y="179.242134" style="fill: #c00000; stroke: #c00000; stroke-width: 4"/>
     <use xlink:href="#m8c4002f5dc" x="136.250681" y="213.214572" style="fill: #c00000; stroke: #c00000; stroke-width: 4"/>
     <use xlink:href="#m8c4002f5dc" x="188.880535" y="228.412932" style="fill: #c00000; stroke: #c00000; stroke-width: 4"/>
     <use xlink:href="#m8c4002f5dc" x="243.496292" y="253.445526" style="fill: #c00000; stroke: #c00000; stroke-width: 4"/>
     <use xlink:href="#m8c4002f5dc" x="289.173764" y="245.399335" style="fill: #c00000; stroke: #c00000; stroke-width: 4"/>
     <use xlink:href="#m8c4002f5dc" x="324.923451" y="245.399335" style="fill: #c00000; stroke: #c00000; stroke-width: 4"/>
     <use xlink:href="#m8c4002f5dc" x="184.908731" y="113.085422" style="fill: #c00000; stroke: #c00000; stroke-width: 4"/>
     <use xlink:href="#m8c4002f5dc" x="158.097328" y="84.476744" style="fill: #c00000; stroke: #c00000; stroke-width: 4"/>
     <use xlink:href="#m8c4002f5dc" x="163.062084" y="62.126215" style="fill: #c00000; stroke: #c00000; stroke-width: 4"/>
     <use xlink:href="#m8c4002f5dc" x="180.935203" y="81.794681" style="fill: #c00000; stroke: #c00000; stroke-width: 4"/>
     <use xlink:href="#m8c4002f5dc" x="178.949301" y="100.569126" style="fill: #c00000; stroke: #c00000; stroke-width: 4"/>
     <use xlink:href="#m8c4002f5dc" x="160.08323" y="122.025634" style="fill: #c00000; stroke: #c00000; stroke-width: 4"/>
     <use xlink:href="#m8c4002f5dc" x="146.180192" y="141.6941" style="fill: #c00000; stroke: #c00000; stroke-width: 4"/>
     <use xlink:href="#m8c4002f5dc" x="157.102653" y="176.560071" style="fill: #c00000; stroke: #c00000; stroke-width: 4"/>
     <use xlink:href="#m8c4002f5dc" x="168.026839" y="206.062403" style="fill: #c00000; stroke: #c00000; stroke-width: 4"/>
     <use xlink:href="#m8c4002f5dc" x="197.817095" y="202.486318" style="fill: #c00000; stroke: #c00000; stroke-width: 4"/>
     <use xlink:href="#m8c4002f5dc" x="219.663397" y="199.804254" style="fill: #c00000; stroke: #c00000; stroke-width: 4"/>
     <use xlink:href="#m8c4002f5dc" x="248.461047" y="230.200975" style="fill: #c00000; stroke: #c00000; stroke-width: 4"/>
     <use xlink:href="#m8c4002f5dc" x="259.383509" y="207.850445" style="fill: #c00000; stroke: #c00000; stroke-width: 4"/>
     <use xlink:href="#m8c4002f5dc" x="292.152618" y="202.486318" style="fill: #c00000; stroke: #c00000; stroke-width: 4"/>
     <use xlink:href="#m8c4002f5dc" x="319.958695" y="197.122191" style="fill: #c00000; stroke: #c00000; stroke-width: 4"/>
     <use xlink:href="#m8c4002f5dc" x="288.180813" y="178.348113" style="fill: #c00000; stroke: #c00000; stroke-width: 4"/>
     <use xlink:href="#m8c4002f5dc" x="316.978118" y="160.467322" style="fill: #c00000; stroke: #c00000; stroke-width: 4"/>
     <use xlink:href="#m8c4002f5dc" x="308.041559" y="147.058227" style="fill: #c00000; stroke: #c00000; stroke-width: 4"/>
     <use xlink:href="#m8c4002f5dc" x="333.86001" y="125.601719" style="fill: #c00000; stroke: #c00000; stroke-width: 4"/>
     <use xlink:href="#m8c4002f5dc" x="247.468096" y="115.767486" style="fill: #c00000; stroke: #c00000; stroke-width: 4"/>
     <use xlink:href="#m8c4002f5dc" x="285.20196" y="97.887062" style="fill: #c00000; stroke: #c00000; stroke-width: 4"/>
     <use xlink:href="#m8c4002f5dc" x="264.348264" y="95.204999" style="fill: #c00000; stroke: #c00000; stroke-width: 4"/>
     <use xlink:href="#m8c4002f5dc" x="232.572106" y="109.509338" style="fill: #c00000; stroke: #c00000; stroke-width: 4"/>
     <use xlink:href="#m8c4002f5dc" x="207.747226" y="130.965846" style="fill: #c00000; stroke: #c00000; stroke-width: 4"/>
     <use xlink:href="#m8c4002f5dc" x="192.851995" y="112.191401" style="fill: #c00000; stroke: #c00000; stroke-width: 4"/>
     <use xlink:href="#m8c4002f5dc" x="172.991594" y="136.329973" style="fill: #c00000; stroke: #c00000; stroke-width: 4"/>
     <use xlink:href="#m8c4002f5dc" x="172.991594" y="158.67928" style="fill: #c00000; stroke: #c00000; stroke-width: 4"/>
     <use xlink:href="#m8c4002f5dc" x="133.271828" y="153.315153" style="fill: #c00000; stroke: #c00000; stroke-width: 4"/>
     <use xlink:href="#m8c4002f5dc" x="171.005692" y="181.924198" style="fill: #c00000; stroke: #c00000; stroke-width: 4"/>
     <use xlink:href="#m8c4002f5dc" x="184.908731" y="213.214572" style="fill: #c00000; stroke: #c00000; stroke-width: 4"/>
    </g>
   </g>
   <g id="PathCollection_2">
    <defs>
     <path id="C0_0_57c3f1049c" d="M 0 3.708099 
C 0.983399 3.708099 1.926654 3.317391 2.622022 2.622022 
C 3.317391 1.926654 3.708099 0.983399 3.708099 -0 
C 3.708099 -0.983399 3.317391 -1.926654 2.622022 -2.622022 
C 1.926654 -3.317391 0.983399 -3.708099 0 -3.708099 
C -0.983399 -3.708099 -1.926654 -3.317391 -2.622022 -2.622022 
C -3.317391 -1.926654 -3.708099 -0.983399 -3.708099 0 
C -3.708099 0.983399 -3.317391 1.926654 -2.622022 2.622022 
C -1.926654 3.317391 -0.983399 3.708099 0 3.708099 
z
"/>
    </defs>
    <g clip-path="url(#p6466d30939)">
     <use xlink:href="#C0_0_57c3f1049c" x="240.517438" y="65.702299" style="fill: none; stroke: #0096ff; stroke-width: 1.5"/>
    </g>
    <g clip-path="url(#p6466d30939)">
     <use xlink:href="#C0_0_57c3f1049c" x="247.468096" y="84.476744" style="fill: none; stroke: #0096ff; stroke-width: 1.5"/>
    </g>
    <g clip-path="url(#p6466d30939)">
     <use xlink:href="#C0_0_57c3f1049c" x="260.37646" y="104.14521" style="fill: none; stroke: #0096ff; stroke-width: 1.5"/>
    </g>
    <g clip-path="url(#p6466d30939)">
     <use xlink:href="#C0_0_57c3f1049c" x="296.126146" y="87.158808" style="fill: none; stroke: #0096ff; stroke-width: 1.5"/>
    </g>
    <g clip-path="url(#p6466d30939)">
     <use xlink:href="#C0_0_57c3f1049c" x="314.992216" y="90.734893" style="fill: none; stroke: #0096ff; stroke-width: 1.5"/>
    </g>
    <g clip-path="url(#p6466d30939)">
     <use xlink:href="#C0_0_57c3f1049c" x="313.006314" y="106.827274" style="fill: none; stroke: #0096ff; stroke-width: 1.5"/>
    </g>
    <g clip-path="url(#p6466d30939)">
     <use xlink:href="#C0_0_57c3f1049c" x="340.810668" y="118.449549" style="fill: none; stroke: #0096ff; stroke-width: 1.5"/>
    </g>
    <g clip-path="url(#p6466d30939)">
     <use xlink:href="#C0_0_57c3f1049c" x="368.615021" y="135.435952" style="fill: none; stroke: #0096ff; stroke-width: 1.5"/>
    </g>
    <g clip-path="url(#p6466d30939)">
     <use xlink:href="#C0_0_57c3f1049c" x="350.741902" y="146.164206" style="fill: none; stroke: #0096ff; stroke-width: 1.5"/>
    </g>
    <g clip-path="url(#p6466d30939)">
     <use xlink:href="#C0_0_57c3f1049c" x="374.574452" y="169.408023" style="fill: none; stroke: #0096ff; stroke-width: 1.5"/>
    </g>
    <g clip-path="url(#p6466d30939)">
     <use xlink:href="#C0_0_57c3f1049c" x="370.600923" y="178.348113" style="fill: none; stroke: #0096ff; stroke-width: 1.5"/>
    </g>
    <g clip-path="url(#p6466d30939)">
     <use xlink:href="#C0_0_57c3f1049c" x="357.69256" y="189.970266" style="fill: none; stroke: #0096ff; stroke-width: 1.5"/>
    </g>
    <g clip-path="url(#p6466d30939)">
     <use xlink:href="#C0_0_57c3f1049c" x="363.650266" y="205.168382" style="fill: none; stroke: #0096ff; stroke-width: 1.5"/>
    </g>
    <g clip-path="url(#p6466d30939)">
     <use xlink:href="#C0_0_57c3f1049c" x="355.706657" y="224.836848" style="fill: none; stroke: #0096ff; stroke-width: 1.5"/>
    </g>
    <g clip-path="url(#p6466d30939)">
     <use xlink:href="#C0_0_57c3f1049c" x="351.734853" y="243.611293" style="fill: none; stroke: #0096ff; stroke-width: 1.5"/>
    </g>
    <g clip-path="url(#p6466d30939)">
     <use xlink:href="#C0_0_57c3f1049c" x="345.775423" y="248.081399" style="fill: none; stroke: #0096ff; stroke-width: 1.5"/>
    </g>
    <g clip-path="url(#p6466d30939)">
     <use xlink:href="#C0_0_57c3f1049c" x="311.020412" y="270.431928" style="fill: none; stroke: #0096ff; stroke-width: 1.5"/>
    </g>
    <g clip-path="url(#p6466d30939)">
     <use xlink:href="#C0_0_57c3f1049c" x="298.112048" y="252.551505" style="fill: none; stroke: #0096ff; stroke-width: 1.5"/>
    </g>
    <g clip-path="url(#p6466d30939)">
     <use xlink:href="#C0_0_57c3f1049c" x="289.173764" y="231.094996" style="fill: none; stroke: #0096ff; stroke-width: 1.5"/>
    </g>
    <g clip-path="url(#p6466d30939)">
     <use xlink:href="#C0_0_57c3f1049c" x="269.314743" y="250.763462" style="fill: none; stroke: #0096ff; stroke-width: 1.5"/>
    </g>
    <g clip-path="url(#p6466d30939)">
     <use xlink:href="#C0_0_57c3f1049c" x="258.390558" y="274.008013" style="fill: none; stroke: #0096ff; stroke-width: 1.5"/>
    </g>
    <g clip-path="url(#p6466d30939)">
     <use xlink:href="#C0_0_57c3f1049c" x="223.635374" y="272.219971" style="fill: none; stroke: #0096ff; stroke-width: 1.5"/>
    </g>
    <g clip-path="url(#p6466d30939)">
     <use xlink:href="#C0_0_57c3f1049c" x="234.558008" y="250.763462" style="fill: none; stroke: #0096ff; stroke-width: 1.5"/>
    </g>
    <g clip-path="url(#p6466d30939)">
     <use xlink:href="#C0_0_57c3f1049c" x="185.901682" y="234.671081" style="fill: none; stroke: #0096ff; stroke-width: 1.5"/>
    </g>
    <g clip-path="url(#p6466d30939)">
     <use xlink:href="#C0_0_57c3f1049c" x="138.236583" y="230.200975" style="fill: none; stroke: #0096ff; stroke-width: 1.5"/>
    </g>
    <g clip-path="url(#p6466d30939)">
     <use xlink:href="#C0_0_57c3f1049c" x="141.215436" y="211.42653" style="fill: none; stroke: #0096ff; stroke-width: 1.5"/>
    </g>
    <g clip-path="url(#p6466d30939)">
     <use xlink:href="#C0_0_57c3f1049c" x="80.641974" y="211.42653" style="fill: none; stroke: #0096ff; stroke-width: 1.5"/>
    </g>
    <g clip-path="url(#p6466d30939)">
     <use xlink:href="#C0_0_57c3f1049c" x="88.585582" y="174.772028" style="fill: none; stroke: #0096ff; stroke-width: 1.5"/>
    </g>
    <g clip-path="url(#p6466d30939)">
     <use xlink:href="#C0_0_57c3f1049c" x="78.656071" y="144.376164" style="fill: none; stroke: #0096ff; stroke-width: 1.5"/>
    </g>
    <g clip-path="url(#p6466d30939)">
     <use xlink:href="#C0_0_57c3f1049c" x="88.585582" y="96.09902" style="fill: none; stroke: #0096ff; stroke-width: 1.5"/>
    </g>
    <g clip-path="url(#p6466d30939)">
     <use xlink:href="#C0_0_57c3f1049c" x="139.229534" y="93.416956" style="fill: none; stroke: #0096ff; stroke-width: 1.5"/>
    </g>
    <g clip-path="url(#p6466d30939)">
     <use xlink:href="#C0_0_57c3f1049c" x="143.201339" y="67.490342" style="fill: none; stroke: #0096ff; stroke-width: 1.5"/>
    </g>
    <g clip-path="url(#p6466d30939)">
     <use xlink:href="#C0_0_57c3f1049c" x="121.354691" y="69.278384" style="fill: none; stroke: #0096ff; stroke-width: 1.5"/>
    </g>
    <g clip-path="url(#p6466d30939)">
     <use xlink:href="#C0_0_57c3f1049c" x="114.404034" y="93.416956" style="fill: none; stroke: #0096ff; stroke-width: 1.5"/>
    </g>
    <g clip-path="url(#p6466d30939)">
     <use xlink:href="#C0_0_57c3f1049c" x="226.6144" y="84.476744" style="fill: none; stroke: #0096ff; stroke-width: 1.5"/>
    </g>
    <g clip-path="url(#p6466d30939)">
     <use xlink:href="#C0_0_57c3f1049c" x="218.670446" y="67.490342" style="fill: none; stroke: #0096ff; stroke-width: 1.5"/>
    </g>
    <g clip-path="url(#p6466d30939)">
     <use xlink:href="#C0_0_57c3f1049c" x="190.866437" y="58.55013" style="fill: none; stroke: #0096ff; stroke-width: 1.5"/>
    </g>
    <g clip-path="url(#p6466d30939)">
     <use xlink:href="#C0_0_57c3f1049c" x="194.838069" y="44.248237" style="fill: none; stroke: #0096ff; stroke-width: 1.5"/>
    </g>
    <g clip-path="url(#p6466d30939)">
     <use xlink:href="#C0_0_57c3f1049c" x="258.390558" y="46.926632" style="fill: none; stroke: #0096ff; stroke-width: 1.5"/>
    </g>
    <g clip-path="url(#p6466d30939)">
     <use xlink:href="#C0_0_57c3f1049c" x="277.258352" y="79.112617" style="fill: none; stroke: #0096ff; stroke-width: 1.5"/>
    </g>
    <g clip-path="url(#p6466d30939)">
     <use xlink:href="#C0_0_57c3f1049c" x="318.96402" y="71.066427" style="fill: none; stroke: #0096ff; stroke-width: 1.5"/>
    </g>
    <g clip-path="url(#p6466d30939)">
     <use xlink:href="#C0_0_57c3f1049c" x="350.741902" y="98.781083" style="fill: none; stroke: #0096ff; stroke-width: 1.5"/>
    </g>
    <g clip-path="url(#p6466d30939)">
     <use xlink:href="#C0_0_57c3f1049c" x="324.923451" y="101.463147" style="fill: none; stroke: #0096ff; stroke-width: 1.5"/>
    </g>
    <g clip-path="url(#p6466d30939)">
     <use xlink:href="#C0_0_57c3f1049c" x="393.449141" y="167.619492" style="fill: none; stroke: #0096ff; stroke-width: 1.5"/>
    </g>
    <g clip-path="url(#p6466d30939)">
     <use xlink:href="#C0_0_57c3f1049c" x="200.79612" y="250.763462" style="fill: none; stroke: #0096ff; stroke-width: 1.5"/>
    </g>
    <g clip-path="url(#p6466d30939)">
     <use xlink:href="#C0_0_57c3f1049c" x="168.026839" y="257.915632" style="fill: none; stroke: #0096ff; stroke-width: 1.5"/>
    </g>
    <g clip-path="url(#p6466d30939)">
     <use xlink:href="#C0_0_57c3f1049c" x="182.921105" y="224.836848" style="fill: none; stroke: #0096ff; stroke-width: 1.5"/>
    </g>
    <g clip-path="url(#p6466d30939)">
     <use xlink:href="#C0_0_57c3f1049c" x="124.333544" y="216.790657" style="fill: none; stroke: #0096ff; stroke-width: 1.5"/>
    </g>
    <g clip-path="url(#p6466d30939)">
     <use xlink:href="#C0_0_57c3f1049c" x="128.305349" y="196.22817" style="fill: none; stroke: #0096ff; stroke-width: 1.5"/>
    </g>
    <g clip-path="url(#p6466d30939)">
     <use xlink:href="#C0_0_57c3f1049c" x="159.090279" y="187.288325" style="fill: none; stroke: #0096ff; stroke-width: 1.5"/>
    </g>
    <g clip-path="url(#p6466d30939)">
     <use xlink:href="#C0_0_57c3f1049c" x="103.479848" y="188.182224" style="fill: none; stroke: #0096ff; stroke-width: 1.5"/>
    </g>
    <g clip-path="url(#p6466d30939)">
     <use xlink:href="#C0_0_57c3f1049c" x="94.543289" y="206.062403" style="fill: none; stroke: #0096ff; stroke-width: 1.5"/>
    </g>
    <g clip-path="url(#p6466d30939)">
     <use xlink:href="#C0_0_57c3f1049c" x="105.467474" y="231.094996" style="fill: none; stroke: #0096ff; stroke-width: 1.5"/>
    </g>
    <g clip-path="url(#p6466d30939)">
     <use xlink:href="#C0_0_57c3f1049c" x="83.620827" y="189.970266" style="fill: none; stroke: #0096ff; stroke-width: 1.5"/>
    </g>
    <g clip-path="url(#p6466d30939)">
     <use xlink:href="#C0_0_57c3f1049c" x="65.745984" y="141.6941" style="fill: none; stroke: #0096ff; stroke-width: 1.5"/>
    </g>
    <g clip-path="url(#p6466d30939)">
     <use xlink:href="#C0_0_57c3f1049c" x="84.613778" y="113.979444" style="fill: none; stroke: #0096ff; stroke-width: 1.5"/>
    </g>
    <g clip-path="url(#p6466d30939)">
     <use xlink:href="#C0_0_57c3f1049c" x="106.460425" y="119.343571" style="fill: none; stroke: #0096ff; stroke-width: 1.5"/>
    </g>
    <g clip-path="url(#p6466d30939)">
     <use xlink:href="#C0_0_57c3f1049c" x="125.326495" y="57.656109" style="fill: none; stroke: #0096ff; stroke-width: 1.5"/>
    </g>
    <g clip-path="url(#p6466d30939)">
     <use xlink:href="#C0_0_57c3f1049c" x="207.747226" y="57.656109" style="fill: none; stroke: #0096ff; stroke-width: 1.5"/>
    </g>
    <g clip-path="url(#p6466d30939)">
     <use xlink:href="#C0_0_57c3f1049c" x="317.90039" y="183.611831" style="fill: none; stroke: #0096ff; stroke-width: 1.5"/>
    </g>
   </g>
   <g id="QuadContourSet_1">
    <path d="M 235.674419 253.906697 
L 238.105161 254.15392 
L 240.535904 254.37082 
L 242.966646 254.556501 
L 245.397388 254.709962 
L 247.828131 254.830102 
L 250.258873 254.915715 
L 252.689616 254.965492 
L 255.120358 254.978015 
L 257.551101 254.95176 
L 259.981843 254.885088 
L 262.412586 254.776246 
L 264.843328 254.62336 
L 267.27407 254.42443 
L 269.704813 254.177317 
L 272.135555 253.879738 
L 272.544751 253.82081 
L 274.566298 253.519513 
L 276.99704 253.10005 
L 279.427783 252.6205 
L 281.693879 252.114635 
L 281.858525 252.076583 
L 284.289268 251.447157 
L 286.72001 250.745884 
L 287.776636 250.408461 
L 289.150753 249.954175 
L 291.581495 249.069142 
L 292.500409 248.702286 
L 294.012237 248.077459 
L 296.406944 246.996112 
L 296.44298 246.979265 
L 298.873722 245.742995 
L 299.694417 245.289937 
L 301.304465 244.369882 
L 302.575526 243.583763 
L 303.735207 242.841332 
L 305.129677 241.877588 
L 306.16595 241.136246 
L 307.418136 240.171414 
L 308.596692 239.231379 
L 309.490385 238.465239 
L 311.027435 237.101045 
L 311.386639 236.759065 
L 313.11773 235.05289 
L 313.458177 234.705588 
L 314.702028 233.346716 
L 315.888919 232.003586 
L 316.18904 231.640541 
L 317.551053 229.934367 
L 318.319662 228.936848 
L 318.831234 228.228192 
L 320.019639 226.522018 
L 320.750404 225.434379 
L 321.140341 224.815843 
L 322.17742 223.109669 
L 323.17619 221.403494 
L 323.181147 221.394712 
L 324.081107 219.69732 
L 324.950857 217.991145 
L 325.611889 216.642541 
L 325.776805 216.284971 
L 326.533098 214.578796 
L 327.258225 212.872622 
L 327.952964 211.166447 
L 328.042632 210.936711 
L 328.585365 209.460273 
L 329.184341 207.754098 
L 329.755435 206.047924 
L 330.299079 204.341749 
L 330.473374 203.766779 
L 330.796795 202.635575 
L 331.259106 200.9294 
L 331.695785 199.223226 
L 332.10706 197.517051 
L 332.493106 195.810877 
L 332.854049 194.104702 
L 332.904117 193.850935 
L 333.174746 192.398528 
L 333.468919 190.692353 
L 333.739292 188.986179 
L 333.98591 187.280004 
L 334.208792 185.57383 
L 334.407929 183.867655 
L 334.583294 182.161481 
L 334.734837 180.455306 
L 334.862495 178.749132 
L 334.966186 177.042957 
L 335.045817 175.336783 
L 335.101281 173.630608 
L 335.13246 171.924434 
L 335.139222 170.218259 
L 335.121424 168.512085 
L 335.07891 166.80591 
L 335.011509 165.099736 
L 334.919034 163.393561 
L 334.801281 161.687387 
L 334.658023 159.981212 
L 334.48901 158.275038 
L 334.293963 156.568863 
L 334.072566 154.862689 
L 333.824465 153.156514 
L 333.549257 151.45034 
L 333.246483 149.744165 
L 332.915615 148.037991 
L 332.904117 147.983681 
L 332.53914 146.331816 
L 332.132211 144.625642 
L 331.69478 142.919467 
L 331.226124 141.213293 
L 330.725394 139.507118 
L 330.473374 138.703895 
L 330.178122 137.800944 
L 329.584346 136.094769 
L 328.955432 134.388595 
L 328.29009 132.68242 
L 328.042632 132.08438 
L 327.565533 130.976246 
L 326.790234 129.270071 
L 325.974442 127.563897 
L 325.611889 126.845925 
L 325.093227 125.857722 
L 324.151321 124.151548 
L 323.181147 122.475846 
L 323.162812 122.445373 
L 322.080461 120.739199 
L 320.94868 119.033024 
L 320.750404 118.749198 
L 319.720099 117.32685 
L 318.428388 115.620675 
L 318.319662 115.484215 
L 317.024068 113.914501 
L 315.888919 112.59857 
L 315.54014 112.208326 
L 313.94174 110.502152 
L 313.458177 110.009731 
L 312.224967 108.795977 
L 311.027435 107.669329 
L 310.390294 107.089803 
L 308.596692 105.530859 
L 308.421567 105.383628 
L 306.295385 103.677454 
L 306.16595 103.578371 
L 303.998403 101.971279 
L 303.735207 101.78502 
L 301.518881 100.265105 
L 301.304465 100.124804 
L 298.873722 98.58298 
L 298.834594 98.55893 
L 296.44298 97.157962 
L 295.906188 96.852756 
L 294.012237 95.826791 
L 292.719226 95.146581 
L 291.581495 94.576425 
L 289.247956 93.440407 
L 289.150753 93.395323 
L 286.72001 92.30518 
L 285.410695 91.734232 
L 284.289268 91.268853 
L 281.858525 90.29024 
L 281.186867 90.028058 
L 279.427783 89.375226 
L 276.99704 88.498718 
L 276.490566 88.321883 
L 274.566298 87.683575 
L 272.135555 86.900685 
L 271.222128 86.615709 
L 269.704813 86.166092 
L 267.27407 85.468828 
L 265.26537 84.909534 
L 264.843328 84.79789 
L 262.412586 84.178516 
L 259.981843 83.578256 
L 258.412319 83.20336 
L 257.551101 83.008121 
L 255.120358 82.477963 
L 252.689616 81.965687 
L 250.388891 81.497185 
L 250.258873 81.472061 
L 247.828131 81.022477 
L 245.397388 80.590037 
L 242.966646 80.174213 
L 240.634908 79.791011 
L 240.535904 79.775585 
L 238.105161 79.415304 
L 235.674419 79.071321 
L 233.243676 78.743385 
L 230.812934 78.43135 
L 228.382191 78.135158 
L 227.943426 78.084836 
L 225.951449 77.868752 
L 223.520706 77.621114 
L 221.089964 77.389264 
L 218.659221 77.173248 
L 216.228479 76.973172 
L 213.797737 76.789188 
L 211.366994 76.621495 
L 208.936252 76.470328 
L 207.275013 76.378662 
L 206.505509 76.338548 
L 204.074767 76.228513 
L 201.644024 76.134978 
L 199.213282 76.058204 
L 196.782539 75.998485 
L 194.351797 75.95614 
L 191.921055 75.931516 
L 189.490312 75.924985 
L 187.05957 75.936941 
L 184.628827 75.967806 
L 182.198085 76.018025 
L 179.767342 76.088073 
L 177.3366 76.17845 
L 174.905857 76.289693 
L 173.273379 76.378662 
L 172.475115 76.425308 
L 170.044372 76.590308 
L 167.61363 76.779286 
L 165.182888 76.992898 
L 162.752145 77.23185 
L 160.321403 77.496912 
L 157.89066 77.788927 
L 155.641445 78.084836 
L 155.459918 78.1105 
L 153.029175 78.483156 
L 150.598433 78.886903 
L 148.16769 79.322889 
L 145.744223 79.791011 
L 145.736948 79.792524 
L 143.306206 80.332471 
L 140.875463 80.909889 
L 138.560008 81.497185 
L 138.444721 81.528704 
L 136.013978 82.233719 
L 133.583236 82.982851 
L 132.907626 83.20336 
L 131.152493 83.821206 
L 128.721751 84.72628 
L 128.255374 84.909534 
L 126.291008 85.74318 
L 124.341144 86.615709 
L 123.860266 86.848591 
L 121.429523 88.086315 
L 120.989242 88.321883 
L 118.998781 89.475758 
L 118.090776 90.028058 
L 116.568039 91.033408 
L 115.554766 91.734232 
L 114.137296 92.800338 
L 113.323791 93.440407 
L 111.706554 94.826843 
L 111.349555 95.146581 
L 109.604761 96.852756 
L 109.275811 97.204727 
L 108.062861 98.55893 
L 106.845069 100.050943 
L 106.677312 100.265105 
L 105.463088 101.971279 
L 104.414326 103.598522 
L 104.365441 103.677454 
L 103.41264 105.383628 
L 102.557245 107.089803 
L 101.983584 108.370794 
L 101.800393 108.795977 
L 101.148541 110.502152 
L 100.574722 112.208326 
L 100.074267 113.914501 
L 99.642918 115.620675 
L 99.552841 116.040727 
L 99.287134 117.32685 
L 98.994094 119.033024 
L 98.757095 120.739199 
L 98.573047 122.445373 
L 98.439082 124.151548 
L 98.352542 125.857722 
L 98.310953 127.563897 
L 98.31202 129.270071 
L 98.353611 130.976246 
L 98.433752 132.68242 
L 98.55062 134.388595 
L 98.702534 136.094769 
L 98.887951 137.800944 
L 99.105461 139.507118 
L 99.353783 141.213293 
L 99.552841 142.4355 
L 99.634571 142.919467 
L 99.951854 144.625642 
L 100.297392 146.331816 
L 100.670261 148.037991 
L 101.069648 149.744165 
L 101.494847 151.45034 
L 101.945255 153.156514 
L 101.983584 153.294295 
L 102.435231 154.862689 
L 102.950898 156.568863 
L 103.490509 158.275038 
L 104.053748 159.981212 
L 104.414326 161.030253 
L 104.648002 161.687387 
L 105.277717 163.393561 
L 105.930298 165.099736 
L 106.605691 166.80591 
L 106.845069 167.391115 
L 107.318986 168.512085 
L 108.062742 170.218259 
L 108.828996 171.924434 
L 109.275811 172.890909 
L 109.629074 173.630608 
L 110.46628 175.336783 
L 111.325943 177.042957 
L 111.706554 177.778954 
L 112.22447 178.749132 
L 113.157771 180.455306 
L 114.113783 182.161481 
L 114.137296 182.202459 
L 115.122835 183.867655 
L 116.155276 185.57383 
L 116.568039 186.24089 
L 117.231091 187.280004 
L 118.34283 188.986179 
L 118.998781 189.971983 
L 119.492918 190.692353 
L 120.686804 192.398528 
L 121.429523 193.439134 
L 121.919053 194.104702 
L 123.197971 195.810877 
L 123.860266 196.677873 
L 124.520592 197.517051 
L 125.887547 199.223226 
L 126.291008 199.71767 
L 127.309075 200.9294 
L 128.721751 202.582215 
L 128.768712 202.635575 
L 130.296651 204.341749 
L 131.152493 205.281547 
L 131.870817 206.047924 
L 133.49634 207.754098 
L 133.583236 207.843772 
L 135.194821 209.460273 
L 136.013978 210.268849 
L 136.94953 211.166447 
L 138.444721 212.578512 
L 138.76511 212.872622 
L 140.653345 214.578796 
L 140.875463 214.776305 
L 142.620396 216.284971 
L 143.306206 216.868711 
L 144.662413 217.991145 
L 145.736948 218.866677 
L 146.785376 219.69732 
L 148.16769 220.775488 
L 148.995742 221.403494 
L 150.598433 222.600021 
L 151.300491 223.109669 
L 153.029175 224.344811 
L 153.707187 224.815843 
L 155.459918 226.014103 
L 156.224046 226.522018 
L 157.89066 227.611903 
L 158.860026 228.228192 
L 160.321403 229.142013 
L 161.62494 229.934367 
L 162.752145 230.608067 
L 164.52958 231.640541 
L 165.182888 232.013554 
L 167.585882 233.346716 
L 167.61363 233.361841 
L 170.044372 234.648274 
L 170.831503 235.05289 
L 172.475115 235.882498 
L 174.263719 236.759065 
L 174.905857 237.067945 
L 177.3366 238.202224 
L 177.917739 238.465239 
L 179.767342 239.286225 
L 181.823694 240.171414 
L 182.198085 240.329401 
L 184.628827 241.322582 
L 186.031181 241.877588 
L 187.05957 242.276243 
L 189.490312 243.187724 
L 190.582588 243.583763 
L 191.921055 244.058707 
L 194.351797 244.891746 
L 195.555677 245.289937 
L 196.782539 245.686732 
L 199.213282 246.444262 
L 201.051837 246.996112 
L 201.644024 247.169774 
L 204.074767 247.854472 
L 206.505509 248.512006 
L 207.239923 248.702286 
L 208.936252 249.131159 
L 211.366994 249.718584 
L 213.797737 250.279207 
L 214.387124 250.408461 
L 216.228479 250.802047 
L 218.659221 251.294624 
L 221.089964 251.760218 
L 223.055889 252.114635 
L 223.520706 252.196227 
L 225.951449 252.595231 
L 228.382191 252.966568 
L 230.812934 253.309764 
L 233.243676 253.624237 
L 234.920668 253.82081 
L 235.674419 253.906697 
z
" clip-path="url(#p6466d30939)" style="fill: none; stroke: #008000; stroke-width: 2"/>
   </g>
   <g id="patch_3">
    <path d="M 48.50725 286.238125 
L 48.50725 32.018125 
" style="fill: none; stroke: #f0f0f0; stroke-width: 3; stroke-linejoin: miter; stroke-linecap: square"/>
   </g>
   <g id="patch_4">
    <path d="M 410.687875 286.238125 
L 410.687875 32.018125 
" style="fill: none; stroke: #f0f0f0; stroke-width: 3; stroke-linejoin: miter; stroke-linecap: square"/>
   </g>
   <g id="patch_5">
    <path d="M 48.50725 286.238125 
L 410.687875 286.238125 
" style="fill: none; stroke: #f0f0f0; stroke-width: 3; stroke-linejoin: miter; stroke-linecap: square"/>
   </g>
   <g id="patch_6">
    <path d="M 48.50725 32.018125 
L 410.687875 32.018125 
" style="fill: none; stroke: #f0f0f0; stroke-width: 3; stroke-linejoin: miter; stroke-linecap: square"/>
   </g>
   <g id="text_19">
    <!-- $\lambda = 0$ (no regularization) -->
    <g style="fill: #808080" transform="translate(169.347563 14.8) scale(0.1 -0.1)">
     <defs>
      <path id="DejaVuSans-Oblique-3bb" d="M 2350 4316 
L 3125 0 
L 2516 0 
L 2038 2588 
L 328 0 
L -281 0 
L 1903 3356 
L 1794 3975 
Q 1725 4369 1391 4369 
L 1091 4369 
L 1184 4863 
L 1550 4856 
Q 2253 4847 2350 4316 
z
" transform="scale(0.015625)"/>
      <path id="DejaVuSans-3d" d="M 678 2906 
L 4684 2906 
L 4684 2381 
L 678 2381 
L 678 2906 
z
M 678 1631 
L 4684 1631 
L 4684 1100 
L 678 1100 
L 678 1631 
z
" transform="scale(0.015625)"/>
      <path id="DejaVuSans-28" d="M 1984 4856 
Q 1566 4138 1362 3434 
Q 1159 2731 1159 2009 
Q 1159 1288 1364 580 
Q 1569 -128 1984 -844 
L 1484 -844 
Q 1016 -109 783 600 
Q 550 1309 550 2009 
Q 550 2706 781 3412 
Q 1013 4119 1484 4856 
L 1984 4856 
z
" transform="scale(0.015625)"/>
      <path id="DejaVuSans-6e" d="M 3513 2113 
L 3513 0 
L 2938 0 
L 2938 2094 
Q 2938 2591 2744 2837 
Q 2550 3084 2163 3084 
Q 1697 3084 1428 2787 
Q 1159 2491 1159 1978 
L 1159 0 
L 581 0 
L 581 3500 
L 1159 3500 
L 1159 2956 
Q 1366 3272 1645 3428 
Q 1925 3584 2291 3584 
Q 2894 3584 3203 3211 
Q 3513 2838 3513 2113 
z
" transform="scale(0.015625)"/>
      <path id="DejaVuSans-67" d="M 2906 1791 
Q 2906 2416 2648 2759 
Q 2391 3103 1925 3103 
Q 1463 3103 1205 2759 
Q 947 2416 947 1791 
Q 947 1169 1205 825 
Q 1463 481 1925 481 
Q 2391 481 2648 825 
Q 2906 1169 2906 1791 
z
M 3481 434 
Q 3481 -459 3084 -895 
Q 2688 -1331 1869 -1331 
Q 1566 -1331 1297 -1286 
Q 1028 -1241 775 -1147 
L 775 -588 
Q 1028 -725 1275 -790 
Q 1522 -856 1778 -856 
Q 2344 -856 2625 -561 
Q 2906 -266 2906 331 
L 2906 616 
Q 2728 306 2450 153 
Q 2172 0 1784 0 
Q 1141 0 747 490 
Q 353 981 353 1791 
Q 353 2603 747 3093 
Q 1141 3584 1784 3584 
Q 2172 3584 2450 3431 
Q 2728 3278 2906 2969 
L 2906 3500 
L 3481 3500 
L 3481 434 
z
" transform="scale(0.015625)"/>
      <path id="DejaVuSans-75" d="M 544 1381 
L 544 3500 
L 1119 3500 
L 1119 1403 
Q 1119 906 1312 657 
Q 1506 409 1894 409 
Q 2359 409 2629 706 
Q 2900 1003 2900 1516 
L 2900 3500 
L 3475 3500 
L 3475 0 
L 2900 0 
L 2900 538 
Q 2691 219 2414 64 
Q 2138 -91 1772 -91 
Q 1169 -91 856 284 
Q 544 659 544 1381 
z
M 1991 3584 
L 1991 3584 
z
" transform="scale(0.015625)"/>
      <path id="DejaVuSans-6c" d="M 603 4863 
L 1178 4863 
L 1178 0 
L 603 0 
L 603 4863 
z
" transform="scale(0.015625)"/>
      <path id="DejaVuSans-61" d="M 2194 1759 
Q 1497 1759 1228 1600 
Q 959 1441 959 1056 
Q 959 750 1161 570 
Q 1363 391 1709 391 
Q 2188 391 2477 730 
Q 2766 1069 2766 1631 
L 2766 1759 
L 2194 1759 
z
M 3341 1997 
L 3341 0 
L 2766 0 
L 2766 531 
Q 2569 213 2275 61 
Q 1981 -91 1556 -91 
Q 1019 -91 701 211 
Q 384 513 384 1019 
Q 384 1609 779 1909 
Q 1175 2209 1959 2209 
L 2766 2209 
L 2766 2266 
Q 2766 2663 2505 2880 
Q 2244 3097 1772 3097 
Q 1472 3097 1187 3025 
Q 903 2953 641 2809 
L 641 3341 
Q 956 3463 1253 3523 
Q 1550 3584 1831 3584 
Q 2591 3584 2966 3190 
Q 3341 2797 3341 1997 
z
" transform="scale(0.015625)"/>
      <path id="DejaVuSans-7a" d="M 353 3500 
L 3084 3500 
L 3084 2975 
L 922 459 
L 3084 459 
L 3084 0 
L 275 0 
L 275 525 
L 2438 3041 
L 353 3041 
L 353 3500 
z
" transform="scale(0.015625)"/>
      <path id="DejaVuSans-29" d="M 513 4856 
L 1013 4856 
Q 1481 4119 1714 3412 
Q 1947 2706 1947 2009 
Q 1947 1309 1714 600 
Q 1481 -109 1013 -844 
L 513 -844 
Q 928 -128 1133 580 
Q 1338 1288 1338 2009 
Q 1338 2731 1133 3434 
Q 928 4138 513 4856 
z
" transform="scale(0.015625)"/>
     </defs>
     <use xlink:href="#DejaVuSans-Oblique-3bb" transform="translate(0 0.015625)"/>
     <use xlink:href="#DejaVuSans-3d" transform="translate(78.662109 0.015625)"/>
     <use xlink:href="#DejaVuSans-30" transform="translate(181.933594 0.015625)"/>
     <use xlink:href="#DejaVuSans-20" transform="translate(245.556641 0.015625)"/>
     <use xlink:href="#DejaVuSans-28" transform="translate(277.34375 0.015625)"/>
     <use xlink:href="#DejaVuSans-6e" transform="translate(316.357422 0.015625)"/>
     <use xlink:href="#DejaVuSans-6f" transform="translate(379.736328 0.015625)"/>
     <use xlink:href="#DejaVuSans-20" transform="translate(440.917969 0.015625)"/>
     <use xlink:href="#DejaVuSans-72" transform="translate(472.705078 0.015625)"/>
     <use xlink:href="#DejaVuSans-65" transform="translate(513.818359 0.015625)"/>
     <use xlink:href="#DejaVuSans-67" transform="translate(575.341797 0.015625)"/>
     <use xlink:href="#DejaVuSans-75" transform="translate(638.818359 0.015625)"/>
     <use xlink:href="#DejaVuSans-6c" transform="translate(702.197266 0.015625)"/>
     <use xlink:href="#DejaVuSans-61" transform="translate(729.980469 0.015625)"/>
     <use xlink:href="#DejaVuSans-72" transform="translate(791.259766 0.015625)"/>
     <use xlink:href="#DejaVuSans-69" transform="translate(832.373047 0.015625)"/>
     <use xlink:href="#DejaVuSans-7a" transform="translate(860.15625 0.015625)"/>
     <use xlink:href="#DejaVuSans-61" transform="translate(912.646484 0.015625)"/>
     <use xlink:href="#DejaVuSans-74" transform="translate(973.925781 0.015625)"/>
     <use xlink:href="#DejaVuSans-69" transform="translate(1013.134766 0.015625)"/>
     <use xlink:href="#DejaVuSans-6f" transform="translate(1040.917969 0.015625)"/>
     <use xlink:href="#DejaVuSans-6e" transform="translate(1102.099609 0.015625)"/>
     <use xlink:href="#DejaVuSans-29" transform="translate(1165.478516 0.015625)"/>
    </g>
    <!-- Train accuracy: 82.2% -->
    <g style="fill: #808080" transform="translate(174.660844 26.018125) scale(0.1 -0.1)">
     <defs>
      <path id="DejaVuSans-79" d="M 2059 -325 
Q 1816 -950 1584 -1140 
Q 1353 -1331 966 -1331 
L 506 -1331 
L 506 -850 
L 844 -850 
Q 1081 -850 1212 -737 
Q 1344 -625 1503 -206 
L 1606 56 
L 191 3500 
L 800 3500 
L 1894 763 
L 2988 3500 
L 3597 3500 
L 2059 -325 
z
" transform="scale(0.015625)"/>
      <path id="DejaVuSans-3a" d="M 750 794 
L 1409 794 
L 1409 0 
L 750 0 
L 750 794 
z
M 750 3309 
L 1409 3309 
L 1409 2516 
L 750 2516 
L 750 3309 
z
" transform="scale(0.015625)"/>
      <path id="DejaVuSans-38" d="M 2034 2216 
Q 1584 2216 1326 1975 
Q 1069 1734 1069 1313 
Q 1069 891 1326 650 
Q 1584 409 2034 409 
Q 2484 409 2743 651 
Q 3003 894 3003 1313 
Q 3003 1734 2745 1975 
Q 2488 2216 2034 2216 
z
M 1403 2484 
Q 997 2584 770 2862 
Q 544 3141 544 3541 
Q 544 4100 942 4425 
Q 1341 4750 2034 4750 
Q 2731 4750 3128 4425 
Q 3525 4100 3525 3541 
Q 3525 3141 3298 2862 
Q 3072 2584 2669 2484 
Q 3125 2378 3379 2068 
Q 3634 1759 3634 1313 
Q 3634 634 3220 271 
Q 2806 -91 2034 -91 
Q 1263 -91 848 271 
Q 434 634 434 1313 
Q 434 1759 690 2068 
Q 947 2378 1403 2484 
z
M 1172 3481 
Q 1172 3119 1398 2916 
Q 1625 2713 2034 2713 
Q 2441 2713 2670 2916 
Q 2900 3119 2900 3481 
Q 2900 3844 2670 4047 
Q 2441 4250 2034 4250 
Q 1625 4250 1398 4047 
Q 1172 3844 1172 3481 
z
" transform="scale(0.015625)"/>
      <path id="DejaVuSans-25" d="M 4653 2053 
Q 4381 2053 4226 1822 
Q 4072 1591 4072 1178 
Q 4072 772 4226 539 
Q 4381 306 4653 306 
Q 4919 306 5073 539 
Q 5228 772 5228 1178 
Q 5228 1588 5073 1820 
Q 4919 2053 4653 2053 
z
M 4653 2450 
Q 5147 2450 5437 2106 
Q 5728 1763 5728 1178 
Q 5728 594 5436 251 
Q 5144 -91 4653 -91 
Q 4153 -91 3862 251 
Q 3572 594 3572 1178 
Q 3572 1766 3864 2108 
Q 4156 2450 4653 2450 
z
M 1428 4353 
Q 1159 4353 1004 4120 
Q 850 3888 850 3481 
Q 850 3069 1003 2837 
Q 1156 2606 1428 2606 
Q 1700 2606 1854 2837 
Q 2009 3069 2009 3481 
Q 2009 3884 1853 4118 
Q 1697 4353 1428 4353 
z
M 4250 4750 
L 4750 4750 
L 1831 -91 
L 1331 -91 
L 4250 4750 
z
M 1428 4750 
Q 1922 4750 2215 4408 
Q 2509 4066 2509 3481 
Q 2509 2891 2217 2550 
Q 1925 2209 1428 2209 
Q 931 2209 642 2551 
Q 353 2894 353 3481 
Q 353 4063 643 4406 
Q 934 4750 1428 4750 
z
" transform="scale(0.015625)"/>
     </defs>
     <use xlink:href="#DejaVuSans-54"/>
     <use xlink:href="#DejaVuSans-72" transform="translate(46.333984 0)"/>
     <use xlink:href="#DejaVuSans-61" transform="translate(87.447266 0)"/>
     <use xlink:href="#DejaVuSans-69" transform="translate(148.726562 0)"/>
     <use xlink:href="#DejaVuSans-6e" transform="translate(176.509766 0)"/>
     <use xlink:href="#DejaVuSans-20" transform="translate(239.888672 0)"/>
     <use xlink:href="#DejaVuSans-61" transform="translate(271.675781 0)"/>
     <use xlink:href="#DejaVuSans-63" transform="translate(332.955078 0)"/>
     <use xlink:href="#DejaVuSans-63" transform="translate(387.935547 0)"/>
     <use xlink:href="#DejaVuSans-75" transform="translate(442.916016 0)"/>
     <use xlink:href="#DejaVuSans-72" transform="translate(506.294922 0)"/>
     <use xlink:href="#DejaVuSans-61" transform="translate(547.408203 0)"/>
     <use xlink:href="#DejaVuSans-63" transform="translate(608.6875 0)"/>
     <use xlink:href="#DejaVuSans-79" transform="translate(663.667969 0)"/>
     <use xlink:href="#DejaVuSans-3a" transform="translate(715.597656 0)"/>
     <use xlink:href="#DejaVuSans-20" transform="translate(749.289062 0)"/>
     <use xlink:href="#DejaVuSans-38" transform="translate(781.076172 0)"/>
     <use xlink:href="#DejaVuSans-32" transform="translate(844.699219 0)"/>
     <use xlink:href="#DejaVuSans-2e" transform="translate(908.322266 0)"/>
     <use xlink:href="#DejaVuSans-32" transform="translate(940.109375 0)"/>
     <use xlink:href="#DejaVuSans-25" transform="translate(1003.732422 0)"/>
    </g>
   </g>
  </g>
  <g id="axes_2">
   <g id="patch_7">
    <path d="M 419.327875 286.238125 
L 781.5085 286.238125 
L 781.5085 32.018125 
L 419.327875 32.018125 
z
" style="fill: #ffffff"/>
   </g>
   <g id="matplotlib.axis_3">
    <g id="xtick_9">
     <g id="line2d_17"/>
     <g id="text_20">
      <!-- −0.75 -->
      <g transform="translate(438.111538 295.816875) scale(0.08 -0.08)">
       <use xlink:href="#DejaVuSans-2212"/>
       <use xlink:href="#DejaVuSans-30" transform="translate(83.789062 0)"/>
       <use xlink:href="#DejaVuSans-2e" transform="translate(147.412109 0)"/>
       <use xlink:href="#DejaVuSans-37" transform="translate(179.199219 0)"/>
       <use xlink:href="#DejaVuSans-35" transform="translate(242.822266 0)"/>
      </g>
     </g>
    </g>
    <g id="xtick_10">
     <g id="line2d_18"/>
     <g id="text_21">
      <!-- −0.50 -->
      <g transform="translate(481.208372 295.816875) scale(0.08 -0.08)">
       <use xlink:href="#DejaVuSans-2212"/>
       <use xlink:href="#DejaVuSans-30" transform="translate(83.789062 0)"/>
       <use xlink:href="#DejaVuSans-2e" transform="translate(147.412109 0)"/>
       <use xlink:href="#DejaVuSans-35" transform="translate(179.199219 0)"/>
       <use xlink:href="#DejaVuSans-30" transform="translate(242.822266 0)"/>
      </g>
     </g>
    </g>
    <g id="xtick_11">
     <g id="line2d_19"/>
     <g id="text_22">
      <!-- −0.25 -->
      <g transform="translate(524.305207 295.816875) scale(0.08 -0.08)">
       <use xlink:href="#DejaVuSans-2212"/>
       <use xlink:href="#DejaVuSans-30" transform="translate(83.789062 0)"/>
       <use xlink:href="#DejaVuSans-2e" transform="translate(147.412109 0)"/>
       <use xlink:href="#DejaVuSans-32" transform="translate(179.199219 0)"/>
       <use xlink:href="#DejaVuSans-35" transform="translate(242.822266 0)"/>
      </g>
     </g>
    </g>
    <g id="xtick_12">
     <g id="line2d_20"/>
     <g id="text_23">
      <!-- 0.00 -->
      <g transform="translate(570.753916 295.816875) scale(0.08 -0.08)">
       <use xlink:href="#DejaVuSans-30"/>
       <use xlink:href="#DejaVuSans-2e" transform="translate(63.623047 0)"/>
       <use xlink:href="#DejaVuSans-30" transform="translate(95.410156 0)"/>
       <use xlink:href="#DejaVuSans-30" transform="translate(159.033203 0)"/>
      </g>
     </g>
    </g>
    <g id="xtick_13">
     <g id="line2d_21"/>
     <g id="text_24">
      <!-- 0.25 -->
      <g transform="translate(613.850751 295.816875) scale(0.08 -0.08)">
       <use xlink:href="#DejaVuSans-30"/>
       <use xlink:href="#DejaVuSans-2e" transform="translate(63.623047 0)"/>
       <use xlink:href="#DejaVuSans-32" transform="translate(95.410156 0)"/>
       <use xlink:href="#DejaVuSans-35" transform="translate(159.033203 0)"/>
      </g>
     </g>
    </g>
    <g id="xtick_14">
     <g id="line2d_22"/>
     <g id="text_25">
      <!-- 0.50 -->
      <g transform="translate(656.947585 295.816875) scale(0.08 -0.08)">
       <use xlink:href="#DejaVuSans-30"/>
       <use xlink:href="#DejaVuSans-2e" transform="translate(63.623047 0)"/>
       <use xlink:href="#DejaVuSans-35" transform="translate(95.410156 0)"/>
       <use xlink:href="#DejaVuSans-30" transform="translate(159.033203 0)"/>
      </g>
     </g>
    </g>
    <g id="xtick_15">
     <g id="line2d_23"/>
     <g id="text_26">
      <!-- 0.75 -->
      <g transform="translate(700.04442 295.816875) scale(0.08 -0.08)">
       <use xlink:href="#DejaVuSans-30"/>
       <use xlink:href="#DejaVuSans-2e" transform="translate(63.623047 0)"/>
       <use xlink:href="#DejaVuSans-37" transform="translate(95.410156 0)"/>
       <use xlink:href="#DejaVuSans-35" transform="translate(159.033203 0)"/>
      </g>
     </g>
    </g>
    <g id="xtick_16">
     <g id="line2d_24"/>
     <g id="text_27">
      <!-- 1.00 -->
      <g transform="translate(743.141254 295.816875) scale(0.08 -0.08)">
       <use xlink:href="#DejaVuSans-31"/>
       <use xlink:href="#DejaVuSans-2e" transform="translate(63.623047 0)"/>
       <use xlink:href="#DejaVuSans-30" transform="translate(95.410156 0)"/>
       <use xlink:href="#DejaVuSans-30" transform="translate(159.033203 0)"/>
      </g>
     </g>
    </g>
    <g id="text_28">
     <!-- Microchip Test 1 -->
     <g transform="translate(561.883188 308.775125) scale(0.096 -0.096)">
      <use xlink:href="#DejaVuSans-4d"/>
      <use xlink:href="#DejaVuSans-69" transform="translate(86.279297 0)"/>
      <use xlink:href="#DejaVuSans-63" transform="translate(114.0625 0)"/>
      <use xlink:href="#DejaVuSans-72" transform="translate(169.042969 0)"/>
      <use xlink:href="#DejaVuSans-6f" transform="translate(207.90625 0)"/>
      <use xlink:href="#DejaVuSans-63" transform="translate(269.087891 0)"/>
      <use xlink:href="#DejaVuSans-68" transform="translate(324.068359 0)"/>
      <use xlink:href="#DejaVuSans-69" transform="translate(387.447266 0)"/>
      <use xlink:href="#DejaVuSans-70" transform="translate(415.230469 0)"/>
      <use xlink:href="#DejaVuSans-20" transform="translate(478.707031 0)"/>
      <use xlink:href="#DejaVuSans-54" transform="translate(510.494141 0)"/>
      <use xlink:href="#DejaVuSans-65" transform="translate(554.578125 0)"/>
      <use xlink:href="#DejaVuSans-73" transform="translate(616.101562 0)"/>
      <use xlink:href="#DejaVuSans-74" transform="translate(668.201172 0)"/>
      <use xlink:href="#DejaVuSans-20" transform="translate(707.410156 0)"/>
      <use xlink:href="#DejaVuSans-31" transform="translate(739.197266 0)"/>
     </g>
    </g>
   </g>
   <g id="matplotlib.axis_4">
    <g id="ytick_9">
     <g id="line2d_25"/>
    </g>
    <g id="ytick_10">
     <g id="line2d_26"/>
    </g>
    <g id="ytick_11">
     <g id="line2d_27"/>
    </g>
    <g id="ytick_12">
     <g id="line2d_28"/>
    </g>
    <g id="ytick_13">
     <g id="line2d_29"/>
    </g>
    <g id="ytick_14">
     <g id="line2d_30"/>
    </g>
    <g id="ytick_15">
     <g id="line2d_31"/>
    </g>
    <g id="ytick_16">
     <g id="line2d_32"/>
    </g>
   </g>
   <g id="PathCollection_3">
    <g clip-path="url(#p5828ad99d2)">
     <use xlink:href="#m8c4002f5dc" x="588.497948" y="94.310977" style="fill: #c00000; stroke: #c00000; stroke-width: 4"/>
     <use xlink:href="#m8c4002f5dc" x="563.67262" y="96.09902" style="fill: #c00000; stroke: #c00000; stroke-width: 4"/>
     <use xlink:href="#m8c4002f5dc" x="542.819268" y="95.204999" style="fill: #c00000; stroke: #c00000; stroke-width: 4"/>
     <use xlink:href="#m8c4002f5dc" x="515.014915" y="118.449549" style="fill: #c00000; stroke: #c00000; stroke-width: 4"/>
     <use xlink:href="#m8c4002f5dc" x="491.182365" y="122.919655" style="fill: #c00000; stroke: #c00000; stroke-width: 4"/>
     <use xlink:href="#m8c4002f5dc" x="489.196463" y="154.209174" style="fill: #c00000; stroke: #c00000; stroke-width: 4"/>
     <use xlink:href="#m8c4002f5dc" x="511.04311" y="175.666049" style="fill: #c00000; stroke: #c00000; stroke-width: 4"/>
     <use xlink:href="#m8c4002f5dc" x="526.930327" y="203.380339" style="fill: #c00000; stroke: #c00000; stroke-width: 4"/>
     <use xlink:href="#m8c4002f5dc" x="582.539897" y="229.306954" style="fill: #c00000; stroke: #c00000; stroke-width: 4"/>
     <use xlink:href="#m8c4002f5dc" x="602.39978" y="242.717271" style="fill: #c00000; stroke: #c00000; stroke-width: 4"/>
     <use xlink:href="#m8c4002f5dc" x="646.093075" y="248.97542" style="fill: #c00000; stroke: #c00000; stroke-width: 4"/>
     <use xlink:href="#m8c4002f5dc" x="670.918575" y="243.611293" style="fill: #c00000; stroke: #c00000; stroke-width: 4"/>
     <use xlink:href="#m8c4002f5dc" x="689.784645" y="209.638488" style="fill: #c00000; stroke: #c00000; stroke-width: 4"/>
     <use xlink:href="#m8c4002f5dc" x="706.666537" y="202.486318" style="fill: #c00000; stroke: #c00000; stroke-width: 4"/>
     <use xlink:href="#m8c4002f5dc" x="673.897428" y="120.237592" style="fill: #c00000; stroke: #c00000; stroke-width: 4"/>
     <use xlink:href="#m8c4002f5dc" x="635.168889" y="108.615316" style="fill: #c00000; stroke: #c00000; stroke-width: 4"/>
     <use xlink:href="#m8c4002f5dc" x="608.357486" y="113.979444" style="fill: #c00000; stroke: #c00000; stroke-width: 4"/>
     <use xlink:href="#m8c4002f5dc" x="571.616745" y="80.006638" style="fill: #c00000; stroke: #c00000; stroke-width: 4"/>
     <use xlink:href="#m8c4002f5dc" x="549.769926" y="94.310977" style="fill: #c00000; stroke: #c00000; stroke-width: 4"/>
     <use xlink:href="#m8c4002f5dc" x="497.140072" y="102.357168" style="fill: #c00000; stroke: #c00000; stroke-width: 4"/>
     <use xlink:href="#m8c4002f5dc" x="475.295148" y="106.827274" style="fill: #c00000; stroke: #c00000; stroke-width: 4"/>
     <use xlink:href="#m8c4002f5dc" x="471.32162" y="139.012037" style="fill: #c00000; stroke: #c00000; stroke-width: 4"/>
     <use xlink:href="#m8c4002f5dc" x="477.28105" y="179.242134" style="fill: #c00000; stroke: #c00000; stroke-width: 4"/>
     <use xlink:href="#m8c4002f5dc" x="507.071306" y="213.214572" style="fill: #c00000; stroke: #c00000; stroke-width: 4"/>
     <use xlink:href="#m8c4002f5dc" x="559.70116" y="228.412932" style="fill: #c00000; stroke: #c00000; stroke-width: 4"/>
     <use xlink:href="#m8c4002f5dc" x="614.316917" y="253.445526" style="fill: #c00000; stroke: #c00000; stroke-width: 4"/>
     <use xlink:href="#m8c4002f5dc" x="659.994389" y="245.399335" style="fill: #c00000; stroke: #c00000; stroke-width: 4"/>
     <use xlink:href="#m8c4002f5dc" x="695.744076" y="245.399335" style="fill: #c00000; stroke: #c00000; stroke-width: 4"/>
     <use xlink:href="#m8c4002f5dc" x="555.729356" y="113.085422" style="fill: #c00000; stroke: #c00000; stroke-width: 4"/>
     <use xlink:href="#m8c4002f5dc" x="528.917953" y="84.476744" style="fill: #c00000; stroke: #c00000; stroke-width: 4"/>
     <use xlink:href="#m8c4002f5dc" x="533.882709" y="62.126215" style="fill: #c00000; stroke: #c00000; stroke-width: 4"/>
     <use xlink:href="#m8c4002f5dc" x="551.755828" y="81.794681" style="fill: #c00000; stroke: #c00000; stroke-width: 4"/>
     <use xlink:href="#m8c4002f5dc" x="549.769926" y="100.569126" style="fill: #c00000; stroke: #c00000; stroke-width: 4"/>
     <use xlink:href="#m8c4002f5dc" x="530.903855" y="122.025634" style="fill: #c00000; stroke: #c00000; stroke-width: 4"/>
     <use xlink:href="#m8c4002f5dc" x="517.000817" y="141.6941" style="fill: #c00000; stroke: #c00000; stroke-width: 4"/>
     <use xlink:href="#m8c4002f5dc" x="527.923278" y="176.560071" style="fill: #c00000; stroke: #c00000; stroke-width: 4"/>
     <use xlink:href="#m8c4002f5dc" x="538.847464" y="206.062403" style="fill: #c00000; stroke: #c00000; stroke-width: 4"/>
     <use xlink:href="#m8c4002f5dc" x="568.63772" y="202.486318" style="fill: #c00000; stroke: #c00000; stroke-width: 4"/>
     <use xlink:href="#m8c4002f5dc" x="590.484022" y="199.804254" style="fill: #c00000; stroke: #c00000; stroke-width: 4"/>
     <use xlink:href="#m8c4002f5dc" x="619.281672" y="230.200975" style="fill: #c00000; stroke: #c00000; stroke-width: 4"/>
     <use xlink:href="#m8c4002f5dc" x="630.204134" y="207.850445" style="fill: #c00000; stroke: #c00000; stroke-width: 4"/>
     <use xlink:href="#m8c4002f5dc" x="662.973243" y="202.486318" style="fill: #c00000; stroke: #c00000; stroke-width: 4"/>
     <use xlink:href="#m8c4002f5dc" x="690.77932" y="197.122191" style="fill: #c00000; stroke: #c00000; stroke-width: 4"/>
     <use xlink:href="#m8c4002f5dc" x="659.001438" y="178.348113" style="fill: #c00000; stroke: #c00000; stroke-width: 4"/>
     <use xlink:href="#m8c4002f5dc" x="687.798743" y="160.467322" style="fill: #c00000; stroke: #c00000; stroke-width: 4"/>
     <use xlink:href="#m8c4002f5dc" x="678.862184" y="147.058227" style="fill: #c00000; stroke: #c00000; stroke-width: 4"/>
     <use xlink:href="#m8c4002f5dc" x="704.680635" y="125.601719" style="fill: #c00000; stroke: #c00000; stroke-width: 4"/>
     <use xlink:href="#m8c4002f5dc" x="618.288721" y="115.767486" style="fill: #c00000; stroke: #c00000; stroke-width: 4"/>
     <use xlink:href="#m8c4002f5dc" x="656.022585" y="97.887062" style="fill: #c00000; stroke: #c00000; stroke-width: 4"/>
     <use xlink:href="#m8c4002f5dc" x="635.168889" y="95.204999" style="fill: #c00000; stroke: #c00000; stroke-width: 4"/>
     <use xlink:href="#m8c4002f5dc" x="603.392731" y="109.509338" style="fill: #c00000; stroke: #c00000; stroke-width: 4"/>
     <use xlink:href="#m8c4002f5dc" x="578.567851" y="130.965846" style="fill: #c00000; stroke: #c00000; stroke-width: 4"/>
     <use xlink:href="#m8c4002f5dc" x="563.67262" y="112.191401" style="fill: #c00000; stroke: #c00000; stroke-width: 4"/>
     <use xlink:href="#m8c4002f5dc" x="543.812219" y="136.329973" style="fill: #c00000; stroke: #c00000; stroke-width: 4"/>
     <use xlink:href="#m8c4002f5dc" x="543.812219" y="158.67928" style="fill: #c00000; stroke: #c00000; stroke-width: 4"/>
     <use xlink:href="#m8c4002f5dc" x="504.092453" y="153.315153" style="fill: #c00000; stroke: #c00000; stroke-width: 4"/>
     <use xlink:href="#m8c4002f5dc" x="541.826317" y="181.924198" style="fill: #c00000; stroke: #c00000; stroke-width: 4"/>
     <use xlink:href="#m8c4002f5dc" x="555.729356" y="213.214572" style="fill: #c00000; stroke: #c00000; stroke-width: 4"/>
    </g>
   </g>
   <g id="PathCollection_4">
    <defs>
     <path id="C1_0_67aed564ad" d="M 0 3.708099 
C 0.983399 3.708099 1.926654 3.317391 2.622022 2.622022 
C 3.317391 1.926654 3.708099 0.983399 3.708099 -0 
C 3.708099 -0.983399 3.317391 -1.926654 2.622022 -2.622022 
C 1.926654 -3.317391 0.983399 -3.708099 0 -3.708099 
C -0.983399 -3.708099 -1.926654 -3.317391 -2.622022 -2.622022 
C -3.317391 -1.926654 -3.708099 -0.983399 -3.708099 0 
C -3.708099 0.983399 -3.317391 1.926654 -2.622022 2.622022 
C -1.926654 3.317391 -0.983399 3.708099 0 3.708099 
z
"/>
    </defs>
    <g clip-path="url(#p5828ad99d2)">
     <use xlink:href="#C1_0_67aed564ad" x="611.338063" y="65.702299" style="fill: none; stroke: #0096ff; stroke-width: 1.5"/>
    </g>
    <g clip-path="url(#p5828ad99d2)">
     <use xlink:href="#C1_0_67aed564ad" x="618.288721" y="84.476744" style="fill: none; stroke: #0096ff; stroke-width: 1.5"/>
    </g>
    <g clip-path="url(#p5828ad99d2)">
     <use xlink:href="#C1_0_67aed564ad" x="631.197085" y="104.14521" style="fill: none; stroke: #0096ff; stroke-width: 1.5"/>
    </g>
    <g clip-path="url(#p5828ad99d2)">
     <use xlink:href="#C1_0_67aed564ad" x="666.946771" y="87.158808" style="fill: none; stroke: #0096ff; stroke-width: 1.5"/>
    </g>
    <g clip-path="url(#p5828ad99d2)">
     <use xlink:href="#C1_0_67aed564ad" x="685.812841" y="90.734893" style="fill: none; stroke: #0096ff; stroke-width: 1.5"/>
    </g>
    <g clip-path="url(#p5828ad99d2)">
     <use xlink:href="#C1_0_67aed564ad" x="683.826939" y="106.827274" style="fill: none; stroke: #0096ff; stroke-width: 1.5"/>
    </g>
    <g clip-path="url(#p5828ad99d2)">
     <use xlink:href="#C1_0_67aed564ad" x="711.631293" y="118.449549" style="fill: none; stroke: #0096ff; stroke-width: 1.5"/>
    </g>
    <g clip-path="url(#p5828ad99d2)">
     <use xlink:href="#C1_0_67aed564ad" x="739.435646" y="135.435952" style="fill: none; stroke: #0096ff; stroke-width: 1.5"/>
    </g>
    <g clip-path="url(#p5828ad99d2)">
     <use xlink:href="#C1_0_67aed564ad" x="721.562527" y="146.164206" style="fill: none; stroke: #0096ff; stroke-width: 1.5"/>
    </g>
    <g clip-path="url(#p5828ad99d2)">
     <use xlink:href="#C1_0_67aed564ad" x="745.395077" y="169.408023" style="fill: none; stroke: #0096ff; stroke-width: 1.5"/>
    </g>
    <g clip-path="url(#p5828ad99d2)">
     <use xlink:href="#C1_0_67aed564ad" x="741.421548" y="178.348113" style="fill: none; stroke: #0096ff; stroke-width: 1.5"/>
    </g>
    <g clip-path="url(#p5828ad99d2)">
     <use xlink:href="#C1_0_67aed564ad" x="728.513185" y="189.970266" style="fill: none; stroke: #0096ff; stroke-width: 1.5"/>
    </g>
    <g clip-path="url(#p5828ad99d2)">
     <use xlink:href="#C1_0_67aed564ad" x="734.470891" y="205.168382" style="fill: none; stroke: #0096ff; stroke-width: 1.5"/>
    </g>
    <g clip-path="url(#p5828ad99d2)">
     <use xlink:href="#C1_0_67aed564ad" x="726.527282" y="224.836848" style="fill: none; stroke: #0096ff; stroke-width: 1.5"/>
    </g>
    <g clip-path="url(#p5828ad99d2)">
     <use xlink:href="#C1_0_67aed564ad" x="722.555478" y="243.611293" style="fill: none; stroke: #0096ff; stroke-width: 1.5"/>
    </g>
    <g clip-path="url(#p5828ad99d2)">
     <use xlink:href="#C1_0_67aed564ad" x="716.596048" y="248.081399" style="fill: none; stroke: #0096ff; stroke-width: 1.5"/>
    </g>
    <g clip-path="url(#p5828ad99d2)">
     <use xlink:href="#C1_0_67aed564ad" x="681.841037" y="270.431928" style="fill: none; stroke: #0096ff; stroke-width: 1.5"/>
    </g>
    <g clip-path="url(#p5828ad99d2)">
     <use xlink:href="#C1_0_67aed564ad" x="668.932673" y="252.551505" style="fill: none; stroke: #0096ff; stroke-width: 1.5"/>
    </g>
    <g clip-path="url(#p5828ad99d2)">
     <use xlink:href="#C1_0_67aed564ad" x="659.994389" y="231.094996" style="fill: none; stroke: #0096ff; stroke-width: 1.5"/>
    </g>
    <g clip-path="url(#p5828ad99d2)">
     <use xlink:href="#C1_0_67aed564ad" x="640.135368" y="250.763462" style="fill: none; stroke: #0096ff; stroke-width: 1.5"/>
    </g>
    <g clip-path="url(#p5828ad99d2)">
     <use xlink:href="#C1_0_67aed564ad" x="629.211183" y="274.008013" style="fill: none; stroke: #0096ff; stroke-width: 1.5"/>
    </g>
    <g clip-path="url(#p5828ad99d2)">
     <use xlink:href="#C1_0_67aed564ad" x="594.455999" y="272.219971" style="fill: none; stroke: #0096ff; stroke-width: 1.5"/>
    </g>
    <g clip-path="url(#p5828ad99d2)">
     <use xlink:href="#C1_0_67aed564ad" x="605.378633" y="250.763462" style="fill: none; stroke: #0096ff; stroke-width: 1.5"/>
    </g>
    <g clip-path="url(#p5828ad99d2)">
     <use xlink:href="#C1_0_67aed564ad" x="556.722307" y="234.671081" style="fill: none; stroke: #0096ff; stroke-width: 1.5"/>
    </g>
    <g clip-path="url(#p5828ad99d2)">
     <use xlink:href="#C1_0_67aed564ad" x="509.057208" y="230.200975" style="fill: none; stroke: #0096ff; stroke-width: 1.5"/>
    </g>
    <g clip-path="url(#p5828ad99d2)">
     <use xlink:href="#C1_0_67aed564ad" x="512.036061" y="211.42653" style="fill: none; stroke: #0096ff; stroke-width: 1.5"/>
    </g>
    <g clip-path="url(#p5828ad99d2)">
     <use xlink:href="#C1_0_67aed564ad" x="451.462599" y="211.42653" style="fill: none; stroke: #0096ff; stroke-width: 1.5"/>
    </g>
    <g clip-path="url(#p5828ad99d2)">
     <use xlink:href="#C1_0_67aed564ad" x="459.406207" y="174.772028" style="fill: none; stroke: #0096ff; stroke-width: 1.5"/>
    </g>
    <g clip-path="url(#p5828ad99d2)">
     <use xlink:href="#C1_0_67aed564ad" x="449.476696" y="144.376164" style="fill: none; stroke: #0096ff; stroke-width: 1.5"/>
    </g>
    <g clip-path="url(#p5828ad99d2)">
     <use xlink:href="#C1_0_67aed564ad" x="459.406207" y="96.09902" style="fill: none; stroke: #0096ff; stroke-width: 1.5"/>
    </g>
    <g clip-path="url(#p5828ad99d2)">
     <use xlink:href="#C1_0_67aed564ad" x="510.050159" y="93.416956" style="fill: none; stroke: #0096ff; stroke-width: 1.5"/>
    </g>
    <g clip-path="url(#p5828ad99d2)">
     <use xlink:href="#C1_0_67aed564ad" x="514.021964" y="67.490342" style="fill: none; stroke: #0096ff; stroke-width: 1.5"/>
    </g>
    <g clip-path="url(#p5828ad99d2)">
     <use xlink:href="#C1_0_67aed564ad" x="492.175316" y="69.278384" style="fill: none; stroke: #0096ff; stroke-width: 1.5"/>
    </g>
    <g clip-path="url(#p5828ad99d2)">
     <use xlink:href="#C1_0_67aed564ad" x="485.224659" y="93.416956" style="fill: none; stroke: #0096ff; stroke-width: 1.5"/>
    </g>
    <g clip-path="url(#p5828ad99d2)">
     <use xlink:href="#C1_0_67aed564ad" x="597.435025" y="84.476744" style="fill: none; stroke: #0096ff; stroke-width: 1.5"/>
    </g>
    <g clip-path="url(#p5828ad99d2)">
     <use xlink:href="#C1_0_67aed564ad" x="589.491071" y="67.490342" style="fill: none; stroke: #0096ff; stroke-width: 1.5"/>
    </g>
    <g clip-path="url(#p5828ad99d2)">
     <use xlink:href="#C1_0_67aed564ad" x="561.687062" y="58.55013" style="fill: none; stroke: #0096ff; stroke-width: 1.5"/>
    </g>
    <g clip-path="url(#p5828ad99d2)">
     <use xlink:href="#C1_0_67aed564ad" x="565.658694" y="44.248237" style="fill: none; stroke: #0096ff; stroke-width: 1.5"/>
    </g>
    <g clip-path="url(#p5828ad99d2)">
     <use xlink:href="#C1_0_67aed564ad" x="629.211183" y="46.926632" style="fill: none; stroke: #0096ff; stroke-width: 1.5"/>
    </g>
    <g clip-path="url(#p5828ad99d2)">
     <use xlink:href="#C1_0_67aed564ad" x="648.078977" y="79.112617" style="fill: none; stroke: #0096ff; stroke-width: 1.5"/>
    </g>
    <g clip-path="url(#p5828ad99d2)">
     <use xlink:href="#C1_0_67aed564ad" x="689.784645" y="71.066427" style="fill: none; stroke: #0096ff; stroke-width: 1.5"/>
    </g>
    <g clip-path="url(#p5828ad99d2)">
     <use xlink:href="#C1_0_67aed564ad" x="721.562527" y="98.781083" style="fill: none; stroke: #0096ff; stroke-width: 1.5"/>
    </g>
    <g clip-path="url(#p5828ad99d2)">
     <use xlink:href="#C1_0_67aed564ad" x="695.744076" y="101.463147" style="fill: none; stroke: #0096ff; stroke-width: 1.5"/>
    </g>
    <g clip-path="url(#p5828ad99d2)">
     <use xlink:href="#C1_0_67aed564ad" x="764.269766" y="167.619492" style="fill: none; stroke: #0096ff; stroke-width: 1.5"/>
    </g>
    <g clip-path="url(#p5828ad99d2)">
     <use xlink:href="#C1_0_67aed564ad" x="571.616745" y="250.763462" style="fill: none; stroke: #0096ff; stroke-width: 1.5"/>
    </g>
    <g clip-path="url(#p5828ad99d2)">
     <use xlink:href="#C1_0_67aed564ad" x="538.847464" y="257.915632" style="fill: none; stroke: #0096ff; stroke-width: 1.5"/>
    </g>
    <g clip-path="url(#p5828ad99d2)">
     <use xlink:href="#C1_0_67aed564ad" x="553.74173" y="224.836848" style="fill: none; stroke: #0096ff; stroke-width: 1.5"/>
    </g>
    <g clip-path="url(#p5828ad99d2)">
     <use xlink:href="#C1_0_67aed564ad" x="495.154169" y="216.790657" style="fill: none; stroke: #0096ff; stroke-width: 1.5"/>
    </g>
    <g clip-path="url(#p5828ad99d2)">
     <use xlink:href="#C1_0_67aed564ad" x="499.125974" y="196.22817" style="fill: none; stroke: #0096ff; stroke-width: 1.5"/>
    </g>
    <g clip-path="url(#p5828ad99d2)">
     <use xlink:href="#C1_0_67aed564ad" x="529.910904" y="187.288325" style="fill: none; stroke: #0096ff; stroke-width: 1.5"/>
    </g>
    <g clip-path="url(#p5828ad99d2)">
     <use xlink:href="#C1_0_67aed564ad" x="474.300473" y="188.182224" style="fill: none; stroke: #0096ff; stroke-width: 1.5"/>
    </g>
    <g clip-path="url(#p5828ad99d2)">
     <use xlink:href="#C1_0_67aed564ad" x="465.363914" y="206.062403" style="fill: none; stroke: #0096ff; stroke-width: 1.5"/>
    </g>
    <g clip-path="url(#p5828ad99d2)">
     <use xlink:href="#C1_0_67aed564ad" x="476.288099" y="231.094996" style="fill: none; stroke: #0096ff; stroke-width: 1.5"/>
    </g>
    <g clip-path="url(#p5828ad99d2)">
     <use xlink:href="#C1_0_67aed564ad" x="454.441452" y="189.970266" style="fill: none; stroke: #0096ff; stroke-width: 1.5"/>
    </g>
    <g clip-path="url(#p5828ad99d2)">
     <use xlink:href="#C1_0_67aed564ad" x="436.566609" y="141.6941" style="fill: none; stroke: #0096ff; stroke-width: 1.5"/>
    </g>
    <g clip-path="url(#p5828ad99d2)">
     <use xlink:href="#C1_0_67aed564ad" x="455.434403" y="113.979444" style="fill: none; stroke: #0096ff; stroke-width: 1.5"/>
    </g>
    <g clip-path="url(#p5828ad99d2)">
     <use xlink:href="#C1_0_67aed564ad" x="477.28105" y="119.343571" style="fill: none; stroke: #0096ff; stroke-width: 1.5"/>
    </g>
    <g clip-path="url(#p5828ad99d2)">
     <use xlink:href="#C1_0_67aed564ad" x="496.14712" y="57.656109" style="fill: none; stroke: #0096ff; stroke-width: 1.5"/>
    </g>
    <g clip-path="url(#p5828ad99d2)">
     <use xlink:href="#C1_0_67aed564ad" x="578.567851" y="57.656109" style="fill: none; stroke: #0096ff; stroke-width: 1.5"/>
    </g>
    <g clip-path="url(#p5828ad99d2)">
     <use xlink:href="#C1_0_67aed564ad" x="688.721015" y="183.611831" style="fill: none; stroke: #0096ff; stroke-width: 1.5"/>
    </g>
   </g>
   <g id="QuadContourSet_2">
    <path d="M 596.772074 255.609642 
L 599.202816 255.872566 
L 601.633559 256.10774 
L 604.064301 256.314608 
L 606.495044 256.492544 
L 608.925786 256.640843 
L 611.356529 256.758728 
L 613.787271 256.845343 
L 616.218013 256.899754 
L 618.648756 256.920944 
L 621.079498 256.907812 
L 623.510241 256.859169 
L 625.940983 256.773737 
L 628.371726 256.650145 
L 630.802468 256.486921 
L 633.233211 256.282492 
L 635.663953 256.035175 
L 638.094695 255.74317 
L 639.646999 255.526984 
L 640.525438 255.400275 
L 642.95618 254.999469 
L 645.386923 254.546074 
L 647.817665 254.037694 
L 648.74963 253.82081 
L 650.248408 253.459538 
L 652.67915 252.811491 
L 655.053851 252.114635 
L 655.109893 252.097601 
L 657.540635 251.288544 
L 659.962723 250.408461 
L 659.971378 250.405204 
L 662.40212 249.410635 
L 663.998216 248.702286 
L 664.832862 248.318698 
L 667.263605 247.110419 
L 667.476737 246.996112 
L 669.694347 245.764576 
L 670.488017 245.289937 
L 672.12509 244.276253 
L 673.165635 243.583763 
L 674.555832 242.625853 
L 675.567991 241.877588 
L 676.986575 240.791763 
L 677.743176 240.171414 
L 679.417317 238.750097 
L 679.731013 238.465239 
L 681.545629 236.759065 
L 681.84806 236.464665 
L 683.205682 235.05289 
L 684.278802 233.896995 
L 684.757667 233.346716 
L 686.19106 231.640541 
L 686.709544 231.001258 
L 687.52151 229.934367 
L 688.774158 228.228192 
L 689.140287 227.711434 
L 689.93191 226.522018 
L 691.026535 224.815843 
L 691.571029 223.935484 
L 692.051342 223.109669 
L 693.007296 221.403494 
L 693.927142 219.69732 
L 694.001772 219.553584 
L 694.765308 217.991145 
L 695.56637 216.284971 
L 696.335401 214.578796 
L 696.432514 214.354505 
L 697.036986 212.872622 
L 697.703694 211.166447 
L 698.341541 209.460273 
L 698.863257 208.000184 
L 698.946192 207.754098 
L 699.495533 206.047924 
L 700.018522 204.341749 
L 700.515503 202.635575 
L 700.986768 200.9294 
L 701.293999 199.754353 
L 701.425098 199.223226 
L 701.822852 197.517051 
L 702.196701 195.810877 
L 702.546805 194.104702 
L 702.873287 192.398528 
L 703.176242 190.692353 
L 703.455735 188.986179 
L 703.711808 187.280004 
L 703.724742 187.18542 
L 703.932978 185.57383 
L 704.131259 183.867655 
L 704.307322 182.161481 
L 704.461137 180.455306 
L 704.592653 178.749132 
L 704.701803 177.042957 
L 704.788497 175.336783 
L 704.852625 173.630608 
L 704.894062 171.924434 
L 704.912657 170.218259 
L 704.908245 168.512085 
L 704.880636 166.80591 
L 704.829618 165.099736 
L 704.754958 163.393561 
L 704.656396 161.687387 
L 704.533647 159.981212 
L 704.386396 158.275038 
L 704.214295 156.568863 
L 704.016963 154.862689 
L 703.793981 153.156514 
L 703.724742 152.683848 
L 703.535713 151.45034 
L 703.246201 149.744165 
L 702.928507 148.037991 
L 702.582076 146.331816 
L 702.206291 144.625642 
L 701.800475 142.919467 
L 701.363873 141.213293 
L 701.293999 140.95985 
L 700.875935 139.507118 
L 700.35118 137.800944 
L 699.792204 136.094769 
L 699.197974 134.388595 
L 698.863257 133.4856 
L 698.552847 132.68242 
L 697.852825 130.976246 
L 697.113332 129.270071 
L 696.432514 127.782972 
L 696.328034 127.563897 
L 695.466036 125.857722 
L 694.559562 124.151548 
L 694.001772 123.155777 
L 693.587777 122.445373 
L 692.540286 120.739199 
L 691.571029 119.234674 
L 691.43597 119.033024 
L 690.231421 117.32685 
L 689.140287 115.851014 
L 688.963398 115.620675 
L 687.584594 113.914501 
L 686.709544 112.881133 
L 686.118404 112.208326 
L 684.546687 110.502152 
L 684.278802 110.225416 
L 682.84476 108.795977 
L 681.84806 107.847429 
L 681.023369 107.089803 
L 679.417317 105.681568 
L 679.065504 105.383628 
L 676.986575 103.703898 
L 676.952709 103.677454 
L 674.660369 101.971279 
L 674.555832 101.897088 
L 672.179231 100.265105 
L 672.12509 100.229658 
L 669.694347 98.690424 
L 669.479874 98.55893 
L 667.263605 97.264622 
L 666.535866 96.852756 
L 664.832862 95.93492 
L 663.324384 95.146581 
L 662.40212 94.687664 
L 659.971378 93.514968 
L 659.811561 93.440407 
L 657.540635 92.432565 
L 655.920428 91.734232 
L 655.109893 91.401858 
L 652.67915 90.437157 
L 651.615627 90.028058 
L 650.248408 89.528047 
L 647.817665 88.666691 
L 646.812697 88.321883 
L 645.386923 87.857034 
L 642.95618 87.089841 
L 641.405732 86.615709 
L 640.525438 86.35997 
L 638.094695 85.67842 
L 635.663953 85.017383 
L 635.252466 84.909534 
L 633.233211 84.40731 
L 630.802468 83.82303 
L 628.371726 83.257638 
L 628.128901 83.20336 
L 625.940983 82.739579 
L 623.510241 82.242878 
L 621.079498 81.763929 
L 619.670638 81.497185 
L 618.648756 81.313736 
L 616.218013 80.896006 
L 613.787271 80.495186 
L 611.356529 80.111042 
L 609.238729 79.791011 
L 608.925786 79.746195 
L 606.495044 79.415905 
L 604.064301 79.101732 
L 601.633559 78.803599 
L 599.202816 78.521484 
L 596.772074 78.255414 
L 595.11025 78.084836 
L 594.341331 78.010141 
L 591.910589 77.790438 
L 589.479846 77.586463 
L 587.049104 77.398315 
L 584.618362 77.22613 
L 582.187619 77.070073 
L 579.756877 76.930338 
L 577.326134 76.807146 
L 574.895392 76.700742 
L 572.464649 76.611392 
L 570.033907 76.539385 
L 567.603164 76.485027 
L 565.172422 76.448646 
L 562.74168 76.430586 
L 560.310937 76.431209 
L 557.880195 76.450894 
L 555.449452 76.49004 
L 553.01871 76.549061 
L 550.587967 76.628392 
L 548.157225 76.728489 
L 545.726482 76.849829 
L 543.29574 76.992912 
L 540.864997 77.158267 
L 538.434255 77.346452 
L 536.003513 77.558059 
L 533.57277 77.79372 
L 531.142028 78.054111 
L 530.879977 78.084836 
L 528.711285 78.35693 
L 526.280543 78.68942 
L 523.8498 79.05032 
L 521.419058 79.440506 
L 519.391599 79.791011 
L 518.988315 79.865728 
L 516.557573 80.347979 
L 514.126831 80.864032 
L 511.696088 81.415091 
L 511.355575 81.497185 
L 509.265346 82.037547 
L 506.834603 82.705007 
L 505.123143 83.20336 
L 504.403861 83.428267 
L 501.973118 84.231696 
L 500.032658 84.909534 
L 499.542376 85.09365 
L 497.111633 86.055547 
L 495.767846 86.615709 
L 494.680891 87.103275 
L 492.250148 88.24974 
L 492.104514 88.321883 
L 489.819406 89.541093 
L 488.949465 90.028058 
L 487.388664 90.970428 
L 486.181293 91.734232 
L 484.957921 92.570196 
L 483.741136 93.440407 
L 482.527179 94.379583 
L 481.578977 95.146581 
L 480.096436 96.44594 
L 479.652082 96.852756 
L 477.935307 98.55893 
L 477.665694 98.850406 
L 476.411883 100.265105 
L 475.234951 101.712557 
L 475.033206 101.971279 
L 473.816604 103.677454 
L 472.804209 105.233366 
L 472.710367 105.383628 
L 471.742508 107.089803 
L 470.865916 108.795977 
L 470.373466 109.859477 
L 470.087633 110.502152 
L 469.407895 112.208326 
L 468.802393 113.914501 
L 468.267125 115.620675 
L 467.942724 116.801993 
L 467.804169 117.32685 
L 467.414841 119.033024 
L 467.083012 120.739199 
L 466.805713 122.445373 
L 466.580167 124.151548 
L 466.403776 125.857722 
L 466.274105 127.563897 
L 466.18887 129.270071 
L 466.145931 130.976246 
L 466.143282 132.68242 
L 466.179047 134.388595 
L 466.251472 136.094769 
L 466.358921 137.800944 
L 466.49987 139.507118 
L 466.672904 141.213293 
L 466.876713 142.919467 
L 467.110085 144.625642 
L 467.371907 146.331816 
L 467.661155 148.037991 
L 467.942724 149.559668 
L 467.97823 149.744165 
L 468.332777 151.45034 
L 468.712878 153.156514 
L 469.117772 154.862689 
L 469.546777 156.568863 
L 469.999288 158.275038 
L 470.373466 159.617913 
L 470.478633 159.981212 
L 470.995327 161.687387 
L 471.534466 163.393561 
L 472.095655 165.099736 
L 472.678562 166.80591 
L 472.804209 167.160767 
L 473.300738 168.512085 
L 473.949042 170.218259 
L 474.618525 171.924434 
L 475.234951 173.447581 
L 475.311786 173.630608 
L 476.049176 175.336783 
L 476.807433 177.042957 
L 477.586528 178.749132 
L 477.665694 178.917994 
L 478.412541 180.455306 
L 479.262234 182.161481 
L 480.096436 183.79638 
L 480.134114 183.867655 
L 481.057442 185.57383 
L 482.001692 187.280004 
L 482.527179 188.208575 
L 482.982747 188.986179 
L 484.00385 190.692353 
L 484.957921 192.2538 
L 485.049437 192.398528 
L 486.150657 194.104702 
L 487.273522 195.810877 
L 487.388664 195.982366 
L 488.454195 197.517051 
L 489.660996 199.223226 
L 489.819406 199.442922 
L 490.927284 200.9294 
L 492.221775 202.635575 
L 492.250148 202.672279 
L 493.583573 204.341749 
L 494.680891 205.691983 
L 494.979734 206.047924 
L 496.437709 207.754098 
L 497.111633 208.529183 
L 497.947636 209.460273 
L 499.505571 211.166447 
L 499.542376 211.206047 
L 501.141234 212.872622 
L 501.973118 213.725325 
L 502.832475 214.578796 
L 504.403861 216.1136 
L 504.584922 216.284971 
L 506.418655 217.991145 
L 506.834603 218.371614 
L 508.32973 219.69732 
L 509.265346 220.512972 
L 510.319001 221.403494 
L 511.696088 222.547652 
L 512.393744 223.109669 
L 514.126831 224.481881 
L 514.561817 224.815843 
L 516.557573 226.32146 
L 516.831721 226.522018 
L 518.988315 228.07183 
L 519.212682 228.228192 
L 521.419058 229.738134 
L 521.714741 229.934367 
L 523.8498 231.325263 
L 524.348867 231.640541 
L 526.280543 232.837899 
L 527.127094 233.346716 
L 528.711285 234.280549 
L 530.062682 235.05289 
L 531.142028 235.657572 
L 533.17031 236.759065 
L 533.57277 236.973201 
L 536.003513 238.22614 
L 536.48239 238.465239 
L 538.434255 239.419353 
L 540.022595 240.171414 
L 540.864997 240.561694 
L 543.29574 241.651643 
L 543.816656 241.877588 
L 545.726482 242.687467 
L 547.911338 243.583763 
L 548.157225 243.682321 
L 550.587967 244.623183 
L 552.370931 245.289937 
L 553.01871 245.526425 
L 555.449452 246.382237 
L 557.257314 246.996112 
L 557.880195 247.202413 
L 560.310937 247.977287 
L 562.673592 248.702286 
L 562.74168 248.722648 
L 565.172422 249.420368 
L 567.603164 250.090063 
L 568.809712 250.408461 
L 570.033907 250.722937 
L 572.464649 251.319734 
L 574.895392 251.889424 
L 575.905015 252.114635 
L 577.326134 252.422879 
L 579.756877 252.923265 
L 582.187619 253.397022 
L 584.492074 253.82081 
L 584.618362 253.843369 
L 587.049104 254.250828 
L 589.479846 254.631738 
L 591.910589 254.985847 
L 594.341331 255.312833 
L 596.080135 255.526984 
L 596.772074 255.609642 
z
" clip-path="url(#p5828ad99d2)" style="fill: none; stroke: #008000; stroke-width: 2"/>
   </g>
   <g id="patch_8">
    <path d="M 419.327875 286.238125 
L 419.327875 32.018125 
" style="fill: none; stroke: #f0f0f0; stroke-width: 3; stroke-linejoin: miter; stroke-linecap: square"/>
   </g>
   <g id="patch_9">
    <path d="M 781.5085 286.238125 
L 781.5085 32.018125 
" style="fill: none; stroke: #f0f0f0; stroke-width: 3; stroke-linejoin: miter; stroke-linecap: square"/>
   </g>
   <g id="patch_10">
    <path d="M 419.327875 286.238125 
L 781.5085 286.238125 
" style="fill: none; stroke: #f0f0f0; stroke-width: 3; stroke-linejoin: miter; stroke-linecap: square"/>
   </g>
   <g id="patch_11">
    <path d="M 419.327875 32.018125 
L 781.5085 32.018125 
" style="fill: none; stroke: #f0f0f0; stroke-width: 3; stroke-linejoin: miter; stroke-linecap: square"/>
   </g>
   <g id="text_29">
    <!-- $\lambda = 1$ -->
    <g style="fill: #808080" transform="translate(588.118188 14.820312) scale(0.1 -0.1)">
     <use xlink:href="#DejaVuSans-Oblique-3bb" transform="translate(0 0.015625)"/>
     <use xlink:href="#DejaVuSans-3d" transform="translate(78.662109 0.015625)"/>
     <use xlink:href="#DejaVuSans-31" transform="translate(181.933594 0.015625)"/>
    </g>
    <!-- Train accuracy: 82.2% -->
    <g style="fill: #808080" transform="translate(545.481469 26.018125) scale(0.1 -0.1)">
     <use xlink:href="#DejaVuSans-54"/>
     <use xlink:href="#DejaVuSans-72" transform="translate(46.333984 0)"/>
     <use xlink:href="#DejaVuSans-61" transform="translate(87.447266 0)"/>
     <use xlink:href="#DejaVuSans-69" transform="translate(148.726562 0)"/>
     <use xlink:href="#DejaVuSans-6e" transform="translate(176.509766 0)"/>
     <use xlink:href="#DejaVuSans-20" transform="translate(239.888672 0)"/>
     <use xlink:href="#DejaVuSans-61" transform="translate(271.675781 0)"/>
     <use xlink:href="#DejaVuSans-63" transform="translate(332.955078 0)"/>
     <use xlink:href="#DejaVuSans-63" transform="translate(387.935547 0)"/>
     <use xlink:href="#DejaVuSans-75" transform="translate(442.916016 0)"/>
     <use xlink:href="#DejaVuSans-72" transform="translate(506.294922 0)"/>
     <use xlink:href="#DejaVuSans-61" transform="translate(547.408203 0)"/>
     <use xlink:href="#DejaVuSans-63" transform="translate(608.6875 0)"/>
     <use xlink:href="#DejaVuSans-79" transform="translate(663.667969 0)"/>
     <use xlink:href="#DejaVuSans-3a" transform="translate(715.597656 0)"/>
     <use xlink:href="#DejaVuSans-20" transform="translate(749.289062 0)"/>
     <use xlink:href="#DejaVuSans-38" transform="translate(781.076172 0)"/>
     <use xlink:href="#DejaVuSans-32" transform="translate(844.699219 0)"/>
     <use xlink:href="#DejaVuSans-2e" transform="translate(908.322266 0)"/>
     <use xlink:href="#DejaVuSans-32" transform="translate(940.109375 0)"/>
     <use xlink:href="#DejaVuSans-25" transform="translate(1003.732422 0)"/>
    </g>
   </g>
  </g>
 </g>
 <defs>
  <clipPath id="p6466d30939">
   <rect x="48.50725" y="32.018125" width="362.180625" height="254.22"/>
  </clipPath>
  <clipPath id="p5828ad99d2">
   <rect x="419.327875" y="32.018125" width="362.180625" height="254.22"/>
  </clipPath>
 </defs>
</svg>
