<?xml version="1.0" encoding="utf-8" standalone="no"?>
<!DOCTYPE svg PUBLIC "-//W3C//DTD SVG 1.1//EN"
  "http://www.w3.org/Graphics/SVG/1.1/DTD/svg11.dtd">
<svg xmlns:xlink="http://www.w3.org/1999/xlink" width="348.284625pt" height="312.16035pt" viewBox="0 0 348.284625 312.16035" xmlns="http://www.w3.org/2000/svg" version="1.1">
 <metadata>
  <rdf:RDF xmlns:dc="http://purl.org/dc/elements/1.1/" xmlns:cc="http://creativecommons.org/ns#" xmlns:rdf="http://www.w3.org/1999/02/22-rdf-syntax-ns#">
   <cc:Work>
    <dc:type rdf:resource="http://purl.org/dc/dcmitype/StillImage"/>
    <dc:date>2026-07-09T14:00:55.507517</dc:date>
    <dc:format>image/svg+xml</dc:format>
    <dc:creator>
     <cc:Agent>
      <dc:title>Matplotlib v3.10.8, https://matplotlib.org/</dc:title>
     </cc:Agent>
    </dc:creator>
   </cc:Work>
  </rdf:RDF>
 </metadata>
 <defs>
  <style type="text/css">*{stroke-linejoin: round; stroke-linecap: butt}</style>
 </defs>
 <g id="figure_1">
  <g id="patch_1">
   <path d="M 0 312.16035 
L 348.284625 312.16035 
L 348.284625 0 
L 0 0 
z
" style="fill: #ffffff"/>
  </g>
  <g id="axes_1">
   <g id="patch_2">
    <path d="M 65.410875 271.9101 
L 341.084625 271.9101 
L 341.084625 26.3301 
L 65.410875 26.3301 
z
" style="fill: #ffffff"/>
   </g>
   <g id="matplotlib.axis_1">
    <g id="xtick_1">
     <g id="line2d_1"/>
     <g id="text_1">
      <!-- −0.5 -->
      <g transform="translate(106.886265 284.528225) scale(0.12 -0.12)">
       <defs>
        <path id="DejaVuSans-2212" d="M 678 2272 
L 4684 2272 
L 4684 1741 
L 678 1741 
L 678 2272 
z
" transform="scale(0.015625)"/>
        <path id="DejaVuSans-30" d="M 2034 4250 
Q 1547 4250 1301 3770 
Q 1056 3291 1056 2328 
Q 1056 1369 1301 889 
Q 1547 409 2034 409 
Q 2525 409 2770 889 
Q 3016 1369 3016 2328 
Q 3016 3291 2770 3770 
Q 2525 4250 2034 4250 
z
M 2034 4750 
Q 2819 4750 3233 4129 
Q 3647 3509 3647 2328 
Q 3647 1150 3233 529 
Q 2819 -91 2034 -91 
Q 1250 -91 836 529 
Q 422 1150 422 2328 
Q 422 3509 836 4129 
Q 1250 4750 2034 4750 
z
" transform="scale(0.015625)"/>
        <path id="DejaVuSans-2e" d="M 684 794 
L 1344 794 
L 1344 0 
L 684 0 
L 684 794 
z
" transform="scale(0.015625)"/>
        <path id="DejaVuSans-35" d="M 691 4666 
L 3169 4666 
L 3169 4134 
L 1269 4134 
L 1269 2991 
Q 1406 3038 1543 3061 
Q 1681 3084 1819 3084 
Q 2600 3084 3056 2656 
Q 3513 2228 3513 1497 
Q 3513 744 3044 326 
Q 2575 -91 1722 -91 
Q 1428 -91 1123 -41 
Q 819 9 494 109 
L 494 744 
Q 775 591 1075 516 
Q 1375 441 1709 441 
Q 2250 441 2565 725 
Q 2881 1009 2881 1497 
Q 2881 1984 2565 2268 
Q 2250 2553 1709 2553 
Q 1456 2553 1204 2497 
Q 953 2441 691 2322 
L 691 4666 
z
" transform="scale(0.015625)"/>
       </defs>
       <use xlink:href="#DejaVuSans-2212"/>
       <use xlink:href="#DejaVuSans-30" transform="translate(83.789062 0)"/>
       <use xlink:href="#DejaVuSans-2e" transform="translate(147.412109 0)"/>
       <use xlink:href="#DejaVuSans-35" transform="translate(179.199219 0)"/>
      </g>
     </g>
    </g>
    <g id="xtick_2">
     <g id="line2d_2"/>
     <g id="text_2">
      <!-- 0.0 -->
      <g transform="translate(177.831083 284.528225) scale(0.12 -0.12)">
       <use xlink:href="#DejaVuSans-30"/>
       <use xlink:href="#DejaVuSans-2e" transform="translate(63.623047 0)"/>
       <use xlink:href="#DejaVuSans-30" transform="translate(95.410156 0)"/>
      </g>
     </g>
    </g>
    <g id="xtick_3">
     <g id="line2d_3"/>
     <g id="text_3">
      <!-- 0.5 -->
      <g transform="translate(243.748088 284.528225) scale(0.12 -0.12)">
       <use xlink:href="#DejaVuSans-30"/>
       <use xlink:href="#DejaVuSans-2e" transform="translate(63.623047 0)"/>
       <use xlink:href="#DejaVuSans-35" transform="translate(95.410156 0)"/>
      </g>
     </g>
    </g>
    <g id="xtick_4">
     <g id="line2d_4"/>
     <g id="text_4">
      <!-- 1.0 -->
      <g transform="translate(309.665094 284.528225) scale(0.12 -0.12)">
       <defs>
        <path id="DejaVuSans-31" d="M 794 531 
L 1825 531 
L 1825 4091 
L 703 3866 
L 703 4441 
L 1819 4666 
L 2450 4666 
L 2450 531 
L 3481 531 
L 3481 0 
L 794 0 
L 794 531 
z
" transform="scale(0.015625)"/>
       </defs>
       <use xlink:href="#DejaVuSans-31"/>
       <use xlink:href="#DejaVuSans-2e" transform="translate(63.623047 0)"/>
       <use xlink:href="#DejaVuSans-30" transform="translate(95.410156 0)"/>
      </g>
     </g>
    </g>
    <g id="text_5">
     <!-- Microchip Test 1 -->
     <g transform="translate(145.44525 301.9656) scale(0.144 -0.144)">
      <defs>
       <path id="DejaVuSans-4d" d="M 628 4666 
L 1569 4666 
L 2759 1491 
L 3956 4666 
L 4897 4666 
L 4897 0 
L 4281 0 
L 4281 4097 
L 3078 897 
L 2444 897 
L 1241 4097 
L 1241 0 
L 628 0 
L 628 4666 
z
" transform="scale(0.015625)"/>
       <path id="DejaVuSans-69" d="M 603 3500 
L 1178 3500 
L 1178 0 
L 603 0 
L 603 3500 
z
M 603 4863 
L 1178 4863 
L 1178 4134 
L 603 4134 
L 603 4863 
z
" transform="scale(0.015625)"/>
       <path id="DejaVuSans-63" d="M 3122 3366 
L 3122 2828 
Q 2878 2963 2633 3030 
Q 2388 3097 2138 3097 
Q 1578 3097 1268 2742 
Q 959 2388 959 1747 
Q 959 1106 1268 751 
Q 1578 397 2138 397 
Q 2388 397 2633 464 
Q 2878 531 3122 666 
L 3122 134 
Q 2881 22 2623 -34 
Q 2366 -91 2075 -91 
Q 1284 -91 818 406 
Q 353 903 353 1747 
Q 353 2603 823 3093 
Q 1294 3584 2113 3584 
Q 2378 3584 2631 3529 
Q 2884 3475 3122 3366 
z
" transform="scale(0.015625)"/>
       <path id="DejaVuSans-72" d="M 2631 2963 
Q 2534 3019 2420 3045 
Q 2306 3072 2169 3072 
Q 1681 3072 1420 2755 
Q 1159 2438 1159 1844 
L 1159 0 
L 581 0 
L 581 3500 
L 1159 3500 
L 1159 2956 
Q 1341 3275 1631 3429 
Q 1922 3584 2338 3584 
Q 2397 3584 2469 3576 
Q 2541 3569 2628 3553 
L 2631 2963 
z
" transform="scale(0.015625)"/>
       <path id="DejaVuSans-6f" d="M 1959 3097 
Q 1497 3097 1228 2736 
Q 959 2375 959 1747 
Q 959 1119 1226 758 
Q 1494 397 1959 397 
Q 2419 397 2687 759 
Q 2956 1122 2956 1747 
Q 2956 2369 2687 2733 
Q 2419 3097 1959 3097 
z
M 1959 3584 
Q 2709 3584 3137 3096 
Q 3566 2609 3566 1747 
Q 3566 888 3137 398 
Q 2709 -91 1959 -91 
Q 1206 -91 779 398 
Q 353 888 353 1747 
Q 353 2609 779 3096 
Q 1206 3584 1959 3584 
z
" transform="scale(0.015625)"/>
       <path id="DejaVuSans-68" d="M 3513 2113 
L 3513 0 
L 2938 0 
L 2938 2094 
Q 2938 2591 2744 2837 
Q 2550 3084 2163 3084 
Q 1697 3084 1428 2787 
Q 1159 2491 1159 1978 
L 1159 0 
L 581 0 
L 581 4863 
L 1159 4863 
L 1159 2956 
Q 1366 3272 1645 3428 
Q 1925 3584 2291 3584 
Q 2894 3584 3203 3211 
Q 3513 2838 3513 2113 
z
" transform="scale(0.015625)"/>
       <path id="DejaVuSans-70" d="M 1159 525 
L 1159 -1331 
L 581 -1331 
L 581 3500 
L 1159 3500 
L 1159 2969 
Q 1341 3281 1617 3432 
Q 1894 3584 2278 3584 
Q 2916 3584 3314 3078 
Q 3713 2572 3713 1747 
Q 3713 922 3314 415 
Q 2916 -91 2278 -91 
Q 1894 -91 1617 61 
Q 1341 213 1159 525 
z
M 3116 1747 
Q 3116 2381 2855 2742 
Q 2594 3103 2138 3103 
Q 1681 3103 1420 2742 
Q 1159 2381 1159 1747 
Q 1159 1113 1420 752 
Q 1681 391 2138 391 
Q 2594 391 2855 752 
Q 3116 1113 3116 1747 
z
" transform="scale(0.015625)"/>
       <path id="DejaVuSans-20" transform="scale(0.015625)"/>
       <path id="DejaVuSans-54" d="M -19 4666 
L 3928 4666 
L 3928 4134 
L 2272 4134 
L 2272 0 
L 1638 0 
L 1638 4134 
L -19 4134 
L -19 4666 
z
" transform="scale(0.015625)"/>
       <path id="DejaVuSans-65" d="M 3597 1894 
L 3597 1613 
L 953 1613 
Q 991 1019 1311 708 
Q 1631 397 2203 397 
Q 2534 397 2845 478 
Q 3156 559 3463 722 
L 3463 178 
Q 3153 47 2828 -22 
Q 2503 -91 2169 -91 
Q 1331 -91 842 396 
Q 353 884 353 1716 
Q 353 2575 817 3079 
Q 1281 3584 2069 3584 
Q 2775 3584 3186 3129 
Q 3597 2675 3597 1894 
z
M 3022 2063 
Q 3016 2534 2758 2815 
Q 2500 3097 2075 3097 
Q 1594 3097 1305 2825 
Q 1016 2553 972 2059 
L 3022 2063 
z
" transform="scale(0.015625)"/>
       <path id="DejaVuSans-73" d="M 2834 3397 
L 2834 2853 
Q 2591 2978 2328 3040 
Q 2066 3103 1784 3103 
Q 1356 3103 1142 2972 
Q 928 2841 928 2578 
Q 928 2378 1081 2264 
Q 1234 2150 1697 2047 
L 1894 2003 
Q 2506 1872 2764 1633 
Q 3022 1394 3022 966 
Q 3022 478 2636 193 
Q 2250 -91 1575 -91 
Q 1294 -91 989 -36 
Q 684 19 347 128 
L 347 722 
Q 666 556 975 473 
Q 1284 391 1588 391 
Q 1994 391 2212 530 
Q 2431 669 2431 922 
Q 2431 1156 2273 1281 
Q 2116 1406 1581 1522 
L 1381 1569 
Q 847 1681 609 1914 
Q 372 2147 372 2553 
Q 372 3047 722 3315 
Q 1072 3584 1716 3584 
Q 2034 3584 2315 3537 
Q 2597 3491 2834 3397 
z
" transform="scale(0.015625)"/>
       <path id="DejaVuSans-74" d="M 1172 4494 
L 1172 3500 
L 2356 3500 
L 2356 3053 
L 1172 3053 
L 1172 1153 
Q 1172 725 1289 603 
Q 1406 481 1766 481 
L 2356 481 
L 2356 0 
L 1766 0 
Q 1100 0 847 248 
Q 594 497 594 1153 
L 594 3053 
L 172 3053 
L 172 3500 
L 594 3500 
L 594 4494 
L 1172 4494 
z
" transform="scale(0.015625)"/>
      </defs>
      <use xlink:href="#DejaVuSans-4d"/>
      <use xlink:href="#DejaVuSans-69" transform="translate(86.279297 0)"/>
      <use xlink:href="#DejaVuSans-63" transform="translate(114.0625 0)"/>
      <use xlink:href="#DejaVuSans-72" transform="translate(169.042969 0)"/>
      <use xlink:href="#DejaVuSans-6f" transform="translate(207.90625 0)"/>
      <use xlink:href="#DejaVuSans-63" transform="translate(269.087891 0)"/>
      <use xlink:href="#DejaVuSans-68" transform="translate(324.068359 0)"/>
      <use xlink:href="#DejaVuSans-69" transform="translate(387.447266 0)"/>
      <use xlink:href="#DejaVuSans-70" transform="translate(415.230469 0)"/>
      <use xlink:href="#DejaVuSans-20" transform="translate(478.707031 0)"/>
      <use xlink:href="#DejaVuSans-54" transform="translate(510.494141 0)"/>
      <use xlink:href="#DejaVuSans-65" transform="translate(554.578125 0)"/>
      <use xlink:href="#DejaVuSans-73" transform="translate(616.101562 0)"/>
      <use xlink:href="#DejaVuSans-74" transform="translate(668.201172 0)"/>
      <use xlink:href="#DejaVuSans-20" transform="translate(707.410156 0)"/>
      <use xlink:href="#DejaVuSans-31" transform="translate(739.197266 0)"/>
     </g>
    </g>
   </g>
   <g id="matplotlib.axis_2">
    <g id="ytick_1">
     <g id="line2d_5"/>
     <g id="text_6">
      <!-- −0.75 -->
      <g transform="translate(25.1365 262.960565) scale(0.12 -0.12)">
       <defs>
        <path id="DejaVuSans-37" d="M 525 4666 
L 3525 4666 
L 3525 4397 
L 1831 0 
L 1172 0 
L 2766 4134 
L 525 4134 
L 525 4666 
z
" transform="scale(0.015625)"/>
       </defs>
       <use xlink:href="#DejaVuSans-2212"/>
       <use xlink:href="#DejaVuSans-30" transform="translate(83.789062 0)"/>
       <use xlink:href="#DejaVuSans-2e" transform="translate(147.412109 0)"/>
       <use xlink:href="#DejaVuSans-37" transform="translate(179.199219 0)"/>
       <use xlink:href="#DejaVuSans-35" transform="translate(242.822266 0)"/>
      </g>
     </g>
    </g>
    <g id="ytick_2">
     <g id="line2d_6"/>
     <g id="text_7">
      <!-- −0.50 -->
      <g transform="translate(25.1365 233.250969) scale(0.12 -0.12)">
       <use xlink:href="#DejaVuSans-2212"/>
       <use xlink:href="#DejaVuSans-30" transform="translate(83.789062 0)"/>
       <use xlink:href="#DejaVuSans-2e" transform="translate(147.412109 0)"/>
       <use xlink:href="#DejaVuSans-35" transform="translate(179.199219 0)"/>
       <use xlink:href="#DejaVuSans-30" transform="translate(242.822266 0)"/>
      </g>
     </g>
    </g>
    <g id="ytick_3">
     <g id="line2d_7"/>
     <g id="text_8">
      <!-- −0.25 -->
      <g transform="translate(25.1365 203.541372) scale(0.12 -0.12)">
       <defs>
        <path id="DejaVuSans-32" d="M 1228 531 
L 3431 531 
L 3431 0 
L 469 0 
L 469 531 
Q 828 903 1448 1529 
Q 2069 2156 2228 2338 
Q 2531 2678 2651 2914 
Q 2772 3150 2772 3378 
Q 2772 3750 2511 3984 
Q 2250 4219 1831 4219 
Q 1534 4219 1204 4116 
Q 875 4013 500 3803 
L 500 4441 
Q 881 4594 1212 4672 
Q 1544 4750 1819 4750 
Q 2544 4750 2975 4387 
Q 3406 4025 3406 3419 
Q 3406 3131 3298 2873 
Q 3191 2616 2906 2266 
Q 2828 2175 2409 1742 
Q 1991 1309 1228 531 
z
" transform="scale(0.015625)"/>
       </defs>
       <use xlink:href="#DejaVuSans-2212"/>
       <use xlink:href="#DejaVuSans-30" transform="translate(83.789062 0)"/>
       <use xlink:href="#DejaVuSans-2e" transform="translate(147.412109 0)"/>
       <use xlink:href="#DejaVuSans-32" transform="translate(179.199219 0)"/>
       <use xlink:href="#DejaVuSans-35" transform="translate(242.822266 0)"/>
      </g>
     </g>
    </g>
    <g id="ytick_4">
     <g id="line2d_8"/>
     <g id="text_9">
      <!-- 0.00 -->
      <g transform="translate(35.192125 173.831776) scale(0.12 -0.12)">
       <use xlink:href="#DejaVuSans-30"/>
       <use xlink:href="#DejaVuSans-2e" transform="translate(63.623047 0)"/>
       <use xlink:href="#DejaVuSans-30" transform="translate(95.410156 0)"/>
       <use xlink:href="#DejaVuSans-30" transform="translate(159.033203 0)"/>
      </g>
     </g>
    </g>
    <g id="ytick_5">
     <g id="line2d_9"/>
     <g id="text_10">
      <!-- 0.25 -->
      <g transform="translate(35.192125 144.122179) scale(0.12 -0.12)">
       <use xlink:href="#DejaVuSans-30"/>
       <use xlink:href="#DejaVuSans-2e" transform="translate(63.623047 0)"/>
       <use xlink:href="#DejaVuSans-32" transform="translate(95.410156 0)"/>
       <use xlink:href="#DejaVuSans-35" transform="translate(159.033203 0)"/>
      </g>
     </g>
    </g>
    <g id="ytick_6">
     <g id="line2d_10"/>
     <g id="text_11">
      <!-- 0.50 -->
      <g transform="translate(35.192125 114.412583) scale(0.12 -0.12)">
       <use xlink:href="#DejaVuSans-30"/>
       <use xlink:href="#DejaVuSans-2e" transform="translate(63.623047 0)"/>
       <use xlink:href="#DejaVuSans-35" transform="translate(95.410156 0)"/>
       <use xlink:href="#DejaVuSans-30" transform="translate(159.033203 0)"/>
      </g>
     </g>
    </g>
    <g id="ytick_7">
     <g id="line2d_11"/>
     <g id="text_12">
      <!-- 0.75 -->
      <g transform="translate(35.192125 84.702987) scale(0.12 -0.12)">
       <use xlink:href="#DejaVuSans-30"/>
       <use xlink:href="#DejaVuSans-2e" transform="translate(63.623047 0)"/>
       <use xlink:href="#DejaVuSans-37" transform="translate(95.410156 0)"/>
       <use xlink:href="#DejaVuSans-35" transform="translate(159.033203 0)"/>
      </g>
     </g>
    </g>
    <g id="ytick_8">
     <g id="line2d_12"/>
     <g id="text_13">
      <!-- 1.00 -->
      <g transform="translate(35.192125 54.99339) scale(0.12 -0.12)">
       <use xlink:href="#DejaVuSans-31"/>
       <use xlink:href="#DejaVuSans-2e" transform="translate(63.623047 0)"/>
       <use xlink:href="#DejaVuSans-30" transform="translate(95.410156 0)"/>
       <use xlink:href="#DejaVuSans-30" transform="translate(159.033203 0)"/>
      </g>
     </g>
    </g>
    <g id="text_14">
     <!-- Microchip Test 2 -->
     <g transform="translate(18.14175 206.9226) rotate(-90) scale(0.144 -0.144)">
      <use xlink:href="#DejaVuSans-4d"/>
      <use xlink:href="#DejaVuSans-69" transform="translate(86.279297 0)"/>
      <use xlink:href="#DejaVuSans-63" transform="translate(114.0625 0)"/>
      <use xlink:href="#DejaVuSans-72" transform="translate(169.042969 0)"/>
      <use xlink:href="#DejaVuSans-6f" transform="translate(207.90625 0)"/>
      <use xlink:href="#DejaVuSans-63" transform="translate(269.087891 0)"/>
      <use xlink:href="#DejaVuSans-68" transform="translate(324.068359 0)"/>
      <use xlink:href="#DejaVuSans-69" transform="translate(387.447266 0)"/>
      <use xlink:href="#DejaVuSans-70" transform="translate(415.230469 0)"/>
      <use xlink:href="#DejaVuSans-20" transform="translate(478.707031 0)"/>
      <use xlink:href="#DejaVuSans-54" transform="translate(510.494141 0)"/>
      <use xlink:href="#DejaVuSans-65" transform="translate(554.578125 0)"/>
      <use xlink:href="#DejaVuSans-73" transform="translate(616.101562 0)"/>
      <use xlink:href="#DejaVuSans-74" transform="translate(668.201172 0)"/>
      <use xlink:href="#DejaVuSans-20" transform="translate(707.410156 0)"/>
      <use xlink:href="#DejaVuSans-32" transform="translate(739.197266 0)"/>
     </g>
    </g>
   </g>
   <g id="PathCollection_1">
    <defs>
     <path id="m52d541f174" d="M -3.535534 3.535534 
L 3.535534 -3.535534 
M -3.535534 -3.535534 
L 3.535534 3.535534 
" style="stroke: #c00000; stroke-width: 4"/>
    </defs>
    <g clip-path="url(#pb028536f8e)">
     <use xlink:href="#m52d541f174" x="194.131692" y="86.138132" style="fill: #c00000; stroke: #c00000; stroke-width: 4"/>
     <use xlink:href="#m52d541f174" x="175.146408" y="87.875549" style="fill: #c00000; stroke: #c00000; stroke-width: 4"/>
     <use xlink:href="#m52d541f174" x="159.198711" y="87.006841" style="fill: #c00000; stroke: #c00000; stroke-width: 4"/>
     <use xlink:href="#m52d541f174" x="137.935203" y="109.593264" style="fill: #c00000; stroke: #c00000; stroke-width: 4"/>
     <use xlink:href="#m52d541f174" x="119.709151" y="113.936807" style="fill: #c00000; stroke: #c00000; stroke-width: 4"/>
     <use xlink:href="#m52d541f174" x="118.190424" y="144.34042" style="fill: #c00000; stroke: #c00000; stroke-width: 4"/>
     <use xlink:href="#m52d541f174" x="134.897748" y="165.189783" style="fill: #c00000; stroke: #c00000; stroke-width: 4"/>
     <use xlink:href="#m52d541f174" x="147.04757" y="192.119393" style="fill: #c00000; stroke: #c00000; stroke-width: 4"/>
     <use xlink:href="#m52d541f174" x="189.575245" y="217.311943" style="fill: #c00000; stroke: #c00000; stroke-width: 4"/>
     <use xlink:href="#m52d541f174" x="204.763182" y="230.342572" style="fill: #c00000; stroke: #c00000; stroke-width: 4"/>
     <use xlink:href="#m52d541f174" x="238.17783" y="236.423532" style="fill: #c00000; stroke: #c00000; stroke-width: 4"/>
     <use xlink:href="#m52d541f174" x="257.163246" y="231.21128" style="fill: #c00000; stroke: #c00000; stroke-width: 4"/>
     <use xlink:href="#m52d541f174" x="271.591161" y="198.200353" style="fill: #c00000; stroke: #c00000; stroke-width: 4"/>
     <use xlink:href="#m52d541f174" x="284.501665" y="191.250685" style="fill: #c00000; stroke: #c00000; stroke-width: 4"/>
     <use xlink:href="#m52d541f174" x="259.441338" y="111.330682" style="fill: #c00000; stroke: #c00000; stroke-width: 4"/>
     <use xlink:href="#m52d541f174" x="229.823509" y="100.03747" style="fill: #c00000; stroke: #c00000; stroke-width: 4"/>
     <use xlink:href="#m52d541f174" x="209.319365" y="105.249721" style="fill: #c00000; stroke: #c00000; stroke-width: 4"/>
     <use xlink:href="#m52d541f174" x="181.221714" y="72.238795" style="fill: #c00000; stroke: #c00000; stroke-width: 4"/>
     <use xlink:href="#m52d541f174" x="164.514258" y="86.138132" style="fill: #c00000; stroke: #c00000; stroke-width: 4"/>
     <use xlink:href="#m52d541f174" x="124.265335" y="93.95651" style="fill: #c00000; stroke: #c00000; stroke-width: 4"/>
     <use xlink:href="#m52d541f174" x="107.559329" y="98.300053" style="fill: #c00000; stroke: #c00000; stroke-width: 4"/>
     <use xlink:href="#m52d541f174" x="104.520555" y="129.573562" style="fill: #c00000; stroke: #c00000; stroke-width: 4"/>
     <use xlink:href="#m52d541f174" x="109.078057" y="168.664617" style="fill: #c00000; stroke: #c00000; stroke-width: 4"/>
     <use xlink:href="#m52d541f174" x="131.860292" y="201.675188" style="fill: #c00000; stroke: #c00000; stroke-width: 4"/>
     <use xlink:href="#m52d541f174" x="172.109216" y="216.443234" style="fill: #c00000; stroke: #c00000; stroke-width: 4"/>
     <use xlink:href="#m52d541f174" x="213.876867" y="240.767075" style="fill: #c00000; stroke: #c00000; stroke-width: 4"/>
     <use xlink:href="#m52d541f174" x="248.808925" y="232.948697" style="fill: #c00000; stroke: #c00000; stroke-width: 4"/>
     <use xlink:href="#m52d541f174" x="276.148662" y="232.948697" style="fill: #c00000; stroke: #c00000; stroke-width: 4"/>
     <use xlink:href="#m52d541f174" x="169.07176" y="104.381013" style="fill: #c00000; stroke: #c00000; stroke-width: 4"/>
     <use xlink:href="#m52d541f174" x="148.567616" y="76.582338" style="fill: #c00000; stroke: #c00000; stroke-width: 4"/>
     <use xlink:href="#m52d541f174" x="152.364436" y="54.864623" style="fill: #c00000; stroke: #c00000; stroke-width: 4"/>
     <use xlink:href="#m52d541f174" x="166.032986" y="73.976212" style="fill: #c00000; stroke: #c00000; stroke-width: 4"/>
     <use xlink:href="#m52d541f174" x="164.514258" y="92.219092" style="fill: #c00000; stroke: #c00000; stroke-width: 4"/>
     <use xlink:href="#m52d541f174" x="150.086344" y="113.068099" style="fill: #c00000; stroke: #c00000; stroke-width: 4"/>
     <use xlink:href="#m52d541f174" x="139.453931" y="132.179688" style="fill: #c00000; stroke: #c00000; stroke-width: 4"/>
     <use xlink:href="#m52d541f174" x="147.806934" y="166.058492" style="fill: #c00000; stroke: #c00000; stroke-width: 4"/>
     <use xlink:href="#m52d541f174" x="156.161255" y="194.725519" style="fill: #c00000; stroke: #c00000; stroke-width: 4"/>
     <use xlink:href="#m52d541f174" x="178.943491" y="191.250685" style="fill: #c00000; stroke: #c00000; stroke-width: 4"/>
     <use xlink:href="#m52d541f174" x="195.650551" y="188.644559" style="fill: #c00000; stroke: #c00000; stroke-width: 4"/>
     <use xlink:href="#m52d541f174" x="217.673687" y="218.180651" style="fill: #c00000; stroke: #c00000; stroke-width: 4"/>
     <use xlink:href="#m52d541f174" x="226.02669" y="196.462936" style="fill: #c00000; stroke: #c00000; stroke-width: 4"/>
     <use xlink:href="#m52d541f174" x="251.087017" y="191.250685" style="fill: #c00000; stroke: #c00000; stroke-width: 4"/>
     <use xlink:href="#m52d541f174" x="272.351843" y="186.038433" style="fill: #c00000; stroke: #c00000; stroke-width: 4"/>
     <use xlink:href="#m52d541f174" x="248.049561" y="167.795909" style="fill: #c00000; stroke: #c00000; stroke-width: 4"/>
     <use xlink:href="#m52d541f174" x="270.072433" y="150.42138" style="fill: #c00000; stroke: #c00000; stroke-width: 4"/>
     <use xlink:href="#m52d541f174" x="263.238158" y="137.39194" style="fill: #c00000; stroke: #c00000; stroke-width: 4"/>
     <use xlink:href="#m52d541f174" x="282.982937" y="116.542933" style="fill: #c00000; stroke: #c00000; stroke-width: 4"/>
     <use xlink:href="#m52d541f174" x="216.914323" y="106.987139" style="fill: #c00000; stroke: #c00000; stroke-width: 4"/>
     <use xlink:href="#m52d541f174" x="245.771469" y="89.612967" style="fill: #c00000; stroke: #c00000; stroke-width: 4"/>
     <use xlink:href="#m52d541f174" x="229.823509" y="87.006841" style="fill: #c00000; stroke: #c00000; stroke-width: 4"/>
     <use xlink:href="#m52d541f174" x="205.522546" y="100.906178" style="fill: #c00000; stroke: #c00000; stroke-width: 4"/>
     <use xlink:href="#m52d541f174" x="186.537605" y="121.755185" style="fill: #c00000; stroke: #c00000; stroke-width: 4"/>
     <use xlink:href="#m52d541f174" x="175.146408" y="103.512304" style="fill: #c00000; stroke: #c00000; stroke-width: 4"/>
     <use xlink:href="#m52d541f174" x="159.958075" y="126.967436" style="fill: #c00000; stroke: #c00000; stroke-width: 4"/>
     <use xlink:href="#m52d541f174" x="159.958075" y="148.683963" style="fill: #c00000; stroke: #c00000; stroke-width: 4"/>
     <use xlink:href="#m52d541f174" x="129.5822" y="143.471712" style="fill: #c00000; stroke: #c00000; stroke-width: 4"/>
     <use xlink:href="#m52d541f174" x="158.439347" y="171.270743" style="fill: #c00000; stroke: #c00000; stroke-width: 4"/>
     <use xlink:href="#m52d541f174" x="169.07176" y="201.675188" style="fill: #c00000; stroke: #c00000; stroke-width: 4"/>
    </g>
   </g>
   <g id="PathCollection_2">
    <defs>
     <path id="C0_0_c5c4a60b1c" d="M 0 4.1833 
C 1.109424 4.1833 2.173559 3.742521 2.95804 2.95804 
C 3.742521 2.173559 4.1833 1.109424 4.1833 -0 
C 4.1833 -1.109424 3.742521 -2.173559 2.95804 -2.95804 
C 2.173559 -3.742521 1.109424 -4.1833 0 -4.1833 
C -1.109424 -4.1833 -2.173559 -3.742521 -2.95804 -2.95804 
C -3.742521 -2.173559 -4.1833 -1.109424 -4.1833 0 
C -4.1833 1.109424 -3.742521 2.173559 -2.95804 2.95804 
C -2.173559 3.742521 -1.109424 4.1833 0 4.1833 
z
"/>
    </defs>
    <g clip-path="url(#pb028536f8e)">
     <use xlink:href="#C0_0_c5c4a60b1c" x="211.598775" y="58.339457" style="fill: none; stroke: #0096ff; stroke-width: 1.5"/>
    </g>
    <g clip-path="url(#pb028536f8e)">
     <use xlink:href="#C0_0_c5c4a60b1c" x="216.914323" y="76.582338" style="fill: none; stroke: #0096ff; stroke-width: 1.5"/>
    </g>
    <g clip-path="url(#pb028536f8e)">
     <use xlink:href="#C0_0_c5c4a60b1c" x="226.786054" y="95.693927" style="fill: none; stroke: #0096ff; stroke-width: 1.5"/>
    </g>
    <g clip-path="url(#pb028536f8e)">
     <use xlink:href="#C0_0_c5c4a60b1c" x="254.125791" y="79.188463" style="fill: none; stroke: #0096ff; stroke-width: 1.5"/>
    </g>
    <g clip-path="url(#pb028536f8e)">
     <use xlink:href="#C0_0_c5c4a60b1c" x="268.553705" y="82.663298" style="fill: none; stroke: #0096ff; stroke-width: 1.5"/>
    </g>
    <g clip-path="url(#pb028536f8e)">
     <use xlink:href="#C0_0_c5c4a60b1c" x="267.034977" y="98.300053" style="fill: none; stroke: #0096ff; stroke-width: 1.5"/>
    </g>
    <g clip-path="url(#pb028536f8e)">
     <use xlink:href="#C0_0_c5c4a60b1c" x="288.298485" y="109.593264" style="fill: none; stroke: #0096ff; stroke-width: 1.5"/>
    </g>
    <g clip-path="url(#pb028536f8e)">
     <use xlink:href="#C0_0_c5c4a60b1c" x="309.561992" y="126.098728" style="fill: none; stroke: #0096ff; stroke-width: 1.5"/>
    </g>
    <g clip-path="url(#pb028536f8e)">
     <use xlink:href="#C0_0_c5c4a60b1c" x="295.893442" y="136.523231" style="fill: none; stroke: #0096ff; stroke-width: 1.5"/>
    </g>
    <g clip-path="url(#pb028536f8e)">
     <use xlink:href="#C0_0_c5c4a60b1c" x="314.119494" y="159.108942" style="fill: none; stroke: #0096ff; stroke-width: 1.5"/>
    </g>
    <g clip-path="url(#pb028536f8e)">
     <use xlink:href="#C0_0_c5c4a60b1c" x="311.08072" y="167.795909" style="fill: none; stroke: #0096ff; stroke-width: 1.5"/>
    </g>
    <g clip-path="url(#pb028536f8e)">
     <use xlink:href="#C0_0_c5c4a60b1c" x="301.208989" y="179.089002" style="fill: none; stroke: #0096ff; stroke-width: 1.5"/>
    </g>
    <g clip-path="url(#pb028536f8e)">
     <use xlink:href="#C0_0_c5c4a60b1c" x="305.765173" y="193.85681" style="fill: none; stroke: #0096ff; stroke-width: 1.5"/>
    </g>
    <g clip-path="url(#pb028536f8e)">
     <use xlink:href="#C0_0_c5c4a60b1c" x="299.690262" y="212.9684" style="fill: none; stroke: #0096ff; stroke-width: 1.5"/>
    </g>
    <g clip-path="url(#pb028536f8e)">
     <use xlink:href="#C0_0_c5c4a60b1c" x="296.652806" y="231.21128" style="fill: none; stroke: #0096ff; stroke-width: 1.5"/>
    </g>
    <g clip-path="url(#pb028536f8e)">
     <use xlink:href="#C0_0_c5c4a60b1c" x="292.095304" y="235.554823" style="fill: none; stroke: #0096ff; stroke-width: 1.5"/>
    </g>
    <g clip-path="url(#pb028536f8e)">
     <use xlink:href="#C0_0_c5c4a60b1c" x="265.516249" y="257.272538" style="fill: none; stroke: #0096ff; stroke-width: 1.5"/>
    </g>
    <g clip-path="url(#pb028536f8e)">
     <use xlink:href="#C0_0_c5c4a60b1c" x="255.644519" y="239.898366" style="fill: none; stroke: #0096ff; stroke-width: 1.5"/>
    </g>
    <g clip-path="url(#pb028536f8e)">
     <use xlink:href="#C0_0_c5c4a60b1c" x="248.808925" y="219.04936" style="fill: none; stroke: #0096ff; stroke-width: 1.5"/>
    </g>
    <g clip-path="url(#pb028536f8e)">
     <use xlink:href="#C0_0_c5c4a60b1c" x="233.621647" y="238.160949" style="fill: none; stroke: #0096ff; stroke-width: 1.5"/>
    </g>
    <g clip-path="url(#pb028536f8e)">
     <use xlink:href="#C0_0_c5c4a60b1c" x="225.267326" y="260.747373" style="fill: none; stroke: #0096ff; stroke-width: 1.5"/>
    </g>
    <g clip-path="url(#pb028536f8e)">
     <use xlink:href="#C0_0_c5c4a60b1c" x="198.688139" y="259.009956" style="fill: none; stroke: #0096ff; stroke-width: 1.5"/>
    </g>
    <g clip-path="url(#pb028536f8e)">
     <use xlink:href="#C0_0_c5c4a60b1c" x="207.041274" y="238.160949" style="fill: none; stroke: #0096ff; stroke-width: 1.5"/>
    </g>
    <g clip-path="url(#pb028536f8e)">
     <use xlink:href="#C0_0_c5c4a60b1c" x="169.831124" y="222.524194" style="fill: none; stroke: #0096ff; stroke-width: 1.5"/>
    </g>
    <g clip-path="url(#pb028536f8e)">
     <use xlink:href="#C0_0_c5c4a60b1c" x="133.37902" y="218.180651" style="fill: none; stroke: #0096ff; stroke-width: 1.5"/>
    </g>
    <g clip-path="url(#pb028536f8e)">
     <use xlink:href="#C0_0_c5c4a60b1c" x="135.657112" y="199.937771" style="fill: none; stroke: #0096ff; stroke-width: 1.5"/>
    </g>
    <g clip-path="url(#pb028536f8e)">
     <use xlink:href="#C0_0_c5c4a60b1c" x="89.333277" y="199.937771" style="fill: none; stroke: #0096ff; stroke-width: 1.5"/>
    </g>
    <g clip-path="url(#pb028536f8e)">
     <use xlink:href="#C0_0_c5c4a60b1c" x="95.408188" y="164.321074" style="fill: none; stroke: #0096ff; stroke-width: 1.5"/>
    </g>
    <g clip-path="url(#pb028536f8e)">
     <use xlink:href="#C0_0_c5c4a60b1c" x="87.814549" y="134.785814" style="fill: none; stroke: #0096ff; stroke-width: 1.5"/>
    </g>
    <g clip-path="url(#pb028536f8e)">
     <use xlink:href="#C0_0_c5c4a60b1c" x="95.408188" y="87.875549" style="fill: none; stroke: #0096ff; stroke-width: 1.5"/>
    </g>
    <g clip-path="url(#pb028536f8e)">
     <use xlink:href="#C0_0_c5c4a60b1c" x="134.138384" y="85.269424" style="fill: none; stroke: #0096ff; stroke-width: 1.5"/>
    </g>
    <g clip-path="url(#pb028536f8e)">
     <use xlink:href="#C0_0_c5c4a60b1c" x="137.17584" y="60.076874" style="fill: none; stroke: #0096ff; stroke-width: 1.5"/>
    </g>
    <g clip-path="url(#pb028536f8e)">
     <use xlink:href="#C0_0_c5c4a60b1c" x="120.468515" y="61.814291" style="fill: none; stroke: #0096ff; stroke-width: 1.5"/>
    </g>
    <g clip-path="url(#pb028536f8e)">
     <use xlink:href="#C0_0_c5c4a60b1c" x="115.152968" y="85.269424" style="fill: none; stroke: #0096ff; stroke-width: 1.5"/>
    </g>
    <g clip-path="url(#pb028536f8e)">
     <use xlink:href="#C0_0_c5c4a60b1c" x="200.966362" y="76.582338" style="fill: none; stroke: #0096ff; stroke-width: 1.5"/>
    </g>
    <g clip-path="url(#pb028536f8e)">
     <use xlink:href="#C0_0_c5c4a60b1c" x="194.891188" y="60.076874" style="fill: none; stroke: #0096ff; stroke-width: 1.5"/>
    </g>
    <g clip-path="url(#pb028536f8e)">
     <use xlink:href="#C0_0_c5c4a60b1c" x="173.627944" y="51.389788" style="fill: none; stroke: #0096ff; stroke-width: 1.5"/>
    </g>
    <g clip-path="url(#pb028536f8e)">
     <use xlink:href="#C0_0_c5c4a60b1c" x="176.665267" y="37.492827" style="fill: none; stroke: #0096ff; stroke-width: 1.5"/>
    </g>
    <g clip-path="url(#pb028536f8e)">
     <use xlink:href="#C0_0_c5c4a60b1c" x="225.267326" y="40.095388" style="fill: none; stroke: #0096ff; stroke-width: 1.5"/>
    </g>
    <g clip-path="url(#pb028536f8e)">
     <use xlink:href="#C0_0_c5c4a60b1c" x="239.696558" y="71.370086" style="fill: none; stroke: #0096ff; stroke-width: 1.5"/>
    </g>
    <g clip-path="url(#pb028536f8e)">
     <use xlink:href="#C0_0_c5c4a60b1c" x="271.591161" y="63.551709" style="fill: none; stroke: #0096ff; stroke-width: 1.5"/>
    </g>
    <g clip-path="url(#pb028536f8e)">
     <use xlink:href="#C0_0_c5c4a60b1c" x="295.893442" y="90.481675" style="fill: none; stroke: #0096ff; stroke-width: 1.5"/>
    </g>
    <g clip-path="url(#pb028536f8e)">
     <use xlink:href="#C0_0_c5c4a60b1c" x="276.148662" y="93.087801" style="fill: none; stroke: #0096ff; stroke-width: 1.5"/>
    </g>
    <g clip-path="url(#pb028536f8e)">
     <use xlink:href="#C0_0_c5c4a60b1c" x="328.554" y="157.371049" style="fill: none; stroke: #0096ff; stroke-width: 1.5"/>
    </g>
    <g clip-path="url(#pb028536f8e)">
     <use xlink:href="#C0_0_c5c4a60b1c" x="181.221714" y="238.160949" style="fill: none; stroke: #0096ff; stroke-width: 1.5"/>
    </g>
    <g clip-path="url(#pb028536f8e)">
     <use xlink:href="#C0_0_c5c4a60b1c" x="156.161255" y="245.110618" style="fill: none; stroke: #0096ff; stroke-width: 1.5"/>
    </g>
    <g clip-path="url(#pb028536f8e)">
     <use xlink:href="#C0_0_c5c4a60b1c" x="167.551714" y="212.9684" style="fill: none; stroke: #0096ff; stroke-width: 1.5"/>
    </g>
    <g clip-path="url(#pb028536f8e)">
     <use xlink:href="#C0_0_c5c4a60b1c" x="122.746607" y="205.150022" style="fill: none; stroke: #0096ff; stroke-width: 1.5"/>
    </g>
    <g clip-path="url(#pb028536f8e)">
     <use xlink:href="#C0_0_c5c4a60b1c" x="125.784063" y="185.169724" style="fill: none; stroke: #0096ff; stroke-width: 1.5"/>
    </g>
    <g clip-path="url(#pb028536f8e)">
     <use xlink:href="#C0_0_c5c4a60b1c" x="149.32698" y="176.482995" style="fill: none; stroke: #0096ff; stroke-width: 1.5"/>
    </g>
    <g clip-path="url(#pb028536f8e)">
     <use xlink:href="#C0_0_c5c4a60b1c" x="106.798647" y="177.351585" style="fill: none; stroke: #0096ff; stroke-width: 1.5"/>
    </g>
    <g clip-path="url(#pb028536f8e)">
     <use xlink:href="#C0_0_c5c4a60b1c" x="99.964372" y="194.725519" style="fill: none; stroke: #0096ff; stroke-width: 1.5"/>
    </g>
    <g clip-path="url(#pb028536f8e)">
     <use xlink:href="#C0_0_c5c4a60b1c" x="108.318693" y="219.04936" style="fill: none; stroke: #0096ff; stroke-width: 1.5"/>
    </g>
    <g clip-path="url(#pb028536f8e)">
     <use xlink:href="#C0_0_c5c4a60b1c" x="91.611369" y="179.089002" style="fill: none; stroke: #0096ff; stroke-width: 1.5"/>
    </g>
    <g clip-path="url(#pb028536f8e)">
     <use xlink:href="#C0_0_c5c4a60b1c" x="77.9415" y="132.179688" style="fill: none; stroke: #0096ff; stroke-width: 1.5"/>
    </g>
    <g clip-path="url(#pb028536f8e)">
     <use xlink:href="#C0_0_c5c4a60b1c" x="92.370733" y="105.249721" style="fill: none; stroke: #0096ff; stroke-width: 1.5"/>
    </g>
    <g clip-path="url(#pb028536f8e)">
     <use xlink:href="#C0_0_c5c4a60b1c" x="109.078057" y="110.461973" style="fill: none; stroke: #0096ff; stroke-width: 1.5"/>
    </g>
    <g clip-path="url(#pb028536f8e)">
     <use xlink:href="#C0_0_c5c4a60b1c" x="123.505971" y="50.52108" style="fill: none; stroke: #0096ff; stroke-width: 1.5"/>
    </g>
    <g clip-path="url(#pb028536f8e)">
     <use xlink:href="#C0_0_c5c4a60b1c" x="186.537605" y="50.52108" style="fill: none; stroke: #0096ff; stroke-width: 1.5"/>
    </g>
    <g clip-path="url(#pb028536f8e)">
     <use xlink:href="#C0_0_c5c4a60b1c" x="270.777745" y="172.910594" style="fill: none; stroke: #0096ff; stroke-width: 1.5"/>
    </g>
   </g>
   <g id="patch_3">
    <path d="M 65.410875 271.9101 
L 65.410875 26.3301 
" style="fill: none; stroke: #f0f0f0; stroke-width: 3; stroke-linejoin: miter; stroke-linecap: square"/>
   </g>
   <g id="patch_4">
    <path d="M 341.084625 271.9101 
L 341.084625 26.3301 
" style="fill: none; stroke: #f0f0f0; stroke-width: 3; stroke-linejoin: miter; stroke-linecap: square"/>
   </g>
   <g id="patch_5">
    <path d="M 65.410875 271.9101 
L 341.084625 271.9101 
" style="fill: none; stroke: #f0f0f0; stroke-width: 3; stroke-linejoin: miter; stroke-linecap: square"/>
   </g>
   <g id="patch_6">
    <path d="M 65.410875 26.3301 
L 341.084625 26.3301 
" style="fill: none; stroke: #f0f0f0; stroke-width: 3; stroke-linejoin: miter; stroke-linecap: square"/>
   </g>
   <g id="text_15">
    <!-- Microchip QA data -->
    <g style="fill: #808080" transform="translate(124.22145 20.3301) scale(0.1728 -0.1728)">
     <defs>
      <path id="DejaVuSans-51" d="M 2522 4238 
Q 1834 4238 1429 3725 
Q 1025 3213 1025 2328 
Q 1025 1447 1429 934 
Q 1834 422 2522 422 
Q 3209 422 3611 934 
Q 4013 1447 4013 2328 
Q 4013 3213 3611 3725 
Q 3209 4238 2522 4238 
z
M 3406 84 
L 4238 -825 
L 3475 -825 
L 2784 -78 
Q 2681 -84 2626 -87 
Q 2572 -91 2522 -91 
Q 1538 -91 948 567 
Q 359 1225 359 2328 
Q 359 3434 948 4092 
Q 1538 4750 2522 4750 
Q 3503 4750 4090 4092 
Q 4678 3434 4678 2328 
Q 4678 1516 4351 937 
Q 4025 359 3406 84 
z
" transform="scale(0.015625)"/>
      <path id="DejaVuSans-41" d="M 2188 4044 
L 1331 1722 
L 3047 1722 
L 2188 4044 
z
M 1831 4666 
L 2547 4666 
L 4325 0 
L 3669 0 
L 3244 1197 
L 1141 1197 
L 716 0 
L 50 0 
L 1831 4666 
z
" transform="scale(0.015625)"/>
      <path id="DejaVuSans-64" d="M 2906 2969 
L 2906 4863 
L 3481 4863 
L 3481 0 
L 2906 0 
L 2906 525 
Q 2725 213 2448 61 
Q 2172 -91 1784 -91 
Q 1150 -91 751 415 
Q 353 922 353 1747 
Q 353 2572 751 3078 
Q 1150 3584 1784 3584 
Q 2172 3584 2448 3432 
Q 2725 3281 2906 2969 
z
M 947 1747 
Q 947 1113 1208 752 
Q 1469 391 1925 391 
Q 2381 391 2643 752 
Q 2906 1113 2906 1747 
Q 2906 2381 2643 2742 
Q 2381 3103 1925 3103 
Q 1469 3103 1208 2742 
Q 947 2381 947 1747 
z
" transform="scale(0.015625)"/>
      <path id="DejaVuSans-61" d="M 2194 1759 
Q 1497 1759 1228 1600 
Q 959 1441 959 1056 
Q 959 750 1161 570 
Q 1363 391 1709 391 
Q 2188 391 2477 730 
Q 2766 1069 2766 1631 
L 2766 1759 
L 2194 1759 
z
M 3341 1997 
L 3341 0 
L 2766 0 
L 2766 531 
Q 2569 213 2275 61 
Q 1981 -91 1556 -91 
Q 1019 -91 701 211 
Q 384 513 384 1019 
Q 384 1609 779 1909 
Q 1175 2209 1959 2209 
L 2766 2209 
L 2766 2266 
Q 2766 2663 2505 2880 
Q 2244 3097 1772 3097 
Q 1472 3097 1187 3025 
Q 903 2953 641 2809 
L 641 3341 
Q 956 3463 1253 3523 
Q 1550 3584 1831 3584 
Q 2591 3584 2966 3190 
Q 3341 2797 3341 1997 
z
" transform="scale(0.015625)"/>
     </defs>
     <use xlink:href="#DejaVuSans-4d"/>
     <use xlink:href="#DejaVuSans-69" transform="translate(86.279297 0)"/>
     <use xlink:href="#DejaVuSans-63" transform="translate(114.0625 0)"/>
     <use xlink:href="#DejaVuSans-72" transform="translate(169.042969 0)"/>
     <use xlink:href="#DejaVuSans-6f" transform="translate(207.90625 0)"/>
     <use xlink:href="#DejaVuSans-63" transform="translate(269.087891 0)"/>
     <use xlink:href="#DejaVuSans-68" transform="translate(324.068359 0)"/>
     <use xlink:href="#DejaVuSans-69" transform="translate(387.447266 0)"/>
     <use xlink:href="#DejaVuSans-70" transform="translate(415.230469 0)"/>
     <use xlink:href="#DejaVuSans-20" transform="translate(478.707031 0)"/>
     <use xlink:href="#DejaVuSans-51" transform="translate(510.494141 0)"/>
     <use xlink:href="#DejaVuSans-41" transform="translate(589.205078 0)"/>
     <use xlink:href="#DejaVuSans-20" transform="translate(657.613281 0)"/>
     <use xlink:href="#DejaVuSans-64" transform="translate(689.400391 0)"/>
     <use xlink:href="#DejaVuSans-61" transform="translate(752.876953 0)"/>
     <use xlink:href="#DejaVuSans-74" transform="translate(814.15625 0)"/>
     <use xlink:href="#DejaVuSans-61" transform="translate(853.365234 0)"/>
    </g>
   </g>
   <g id="legend_1">
    <g id="patch_7">
     <path d="M 264.057281 59.950725 
L 334.784625 59.950725 
Q 336.584625 59.950725 336.584625 58.150725 
L 336.584625 32.6301 
Q 336.584625 30.8301 334.784625 30.8301 
L 264.057281 30.8301 
Q 262.257281 30.8301 262.257281 32.6301 
L 262.257281 58.150725 
Q 262.257281 59.950725 264.057281 59.950725 
z
" style="fill: #ffffff; opacity: 0.8; stroke: #cccccc; stroke-width: 0.5; stroke-linejoin: miter"/>
    </g>
    <g id="PathCollection_3">
     <g>
      <use xlink:href="#m52d541f174" x="274.857281" y="38.906194" style="fill: #c00000; stroke: #c00000; stroke-width: 4"/>
     </g>
    </g>
    <g id="text_16">
     <!-- Accepted -->
     <g transform="translate(291.057281 41.268694) scale(0.09 -0.09)">
      <use xlink:href="#DejaVuSans-41"/>
      <use xlink:href="#DejaVuSans-63" transform="translate(66.658203 0)"/>
      <use xlink:href="#DejaVuSans-63" transform="translate(121.638672 0)"/>
      <use xlink:href="#DejaVuSans-65" transform="translate(176.619141 0)"/>
      <use xlink:href="#DejaVuSans-70" transform="translate(238.142578 0)"/>
      <use xlink:href="#DejaVuSans-74" transform="translate(301.619141 0)"/>
      <use xlink:href="#DejaVuSans-65" transform="translate(340.828125 0)"/>
      <use xlink:href="#DejaVuSans-64" transform="translate(402.351562 0)"/>
     </g>
    </g>
    <g id="PathCollection_4">
     <path d="M 274.857281 56.299806 
C 275.966705 56.299806 277.03084 55.859027 277.815321 55.074546 
C 278.599802 54.290065 279.040581 53.22593 279.040581 52.116506 
C 279.040581 51.007082 278.599802 49.942948 277.815321 49.158466 
C 277.03084 48.373985 275.966705 47.933206 274.857281 47.933206 
C 273.747857 47.933206 272.683723 48.373985 271.899241 49.158466 
C 271.11476 49.942948 270.673981 51.007082 270.673981 52.116506 
C 270.673981 53.22593 271.11476 54.290065 271.899241 55.074546 
C 272.683723 55.859027 273.747857 56.299806 274.857281 56.299806 
L 274.857281 56.299806 
z
" style="fill: none; stroke: #0096ff; stroke-width: 1.5"/>
    </g>
    <g id="text_17">
     <!-- Rejected -->
     <g transform="translate(291.057281 54.479006) scale(0.09 -0.09)">
      <defs>
       <path id="DejaVuSans-52" d="M 2841 2188 
Q 3044 2119 3236 1894 
Q 3428 1669 3622 1275 
L 4263 0 
L 3584 0 
L 2988 1197 
Q 2756 1666 2539 1819 
Q 2322 1972 1947 1972 
L 1259 1972 
L 1259 0 
L 628 0 
L 628 4666 
L 2053 4666 
Q 2853 4666 3247 4331 
Q 3641 3997 3641 3322 
Q 3641 2881 3436 2590 
Q 3231 2300 2841 2188 
z
M 1259 4147 
L 1259 2491 
L 2053 2491 
Q 2509 2491 2742 2702 
Q 2975 2913 2975 3322 
Q 2975 3731 2742 3939 
Q 2509 4147 2053 4147 
L 1259 4147 
z
" transform="scale(0.015625)"/>
       <path id="DejaVuSans-6a" d="M 603 3500 
L 1178 3500 
L 1178 -63 
Q 1178 -731 923 -1031 
Q 669 -1331 103 -1331 
L -116 -1331 
L -116 -844 
L 38 -844 
Q 366 -844 484 -692 
Q 603 -541 603 -63 
L 603 3500 
z
M 603 4863 
L 1178 4863 
L 1178 4134 
L 603 4134 
L 603 4863 
z
" transform="scale(0.015625)"/>
      </defs>
      <use xlink:href="#DejaVuSans-52"/>
      <use xlink:href="#DejaVuSans-65" transform="translate(64.982422 0)"/>
      <use xlink:href="#DejaVuSans-6a" transform="translate(126.505859 0)"/>
      <use xlink:href="#DejaVuSans-65" transform="translate(154.289062 0)"/>
      <use xlink:href="#DejaVuSans-63" transform="translate(215.8125 0)"/>
      <use xlink:href="#DejaVuSans-74" transform="translate(270.792969 0)"/>
      <use xlink:href="#DejaVuSans-65" transform="translate(310.001953 0)"/>
      <use xlink:href="#DejaVuSans-64" transform="translate(371.525391 0)"/>
     </g>
    </g>
   </g>
  </g>
 </g>
 <defs>
  <clipPath id="pb028536f8e">
   <rect x="65.410875" y="26.3301" width="275.67375" height="245.58"/>
  </clipPath>
 </defs>
</svg>
