<?xml version="1.0" encoding="utf-8" standalone="no"?>
<!DOCTYPE svg PUBLIC "-//W3C//DTD SVG 1.1//EN"
  "http://www.w3.org/Graphics/SVG/1.1/DTD/svg11.dtd">
<svg xmlns:xlink="http://www.w3.org/1999/xlink" width="780.284625pt" height="309.598375pt" viewBox="0 0 780.284625 309.598375" xmlns="http://www.w3.org/2000/svg" version="1.1">
 <metadata>
  <rdf:RDF xmlns:dc="http://purl.org/dc/elements/1.1/" xmlns:cc="http://creativecommons.org/ns#" xmlns:rdf="http://www.w3.org/1999/02/22-rdf-syntax-ns#">
   <cc:Work>
    <dc:type rdf:resource="http://purl.org/dc/dcmitype/StillImage"/>
    <dc:date>2026-07-15T16:08:45.373917</dc:date>
    <dc:format>image/svg+xml</dc:format>
    <dc:creator>
     <cc:Agent>
      <dc:title>Matplotlib v3.10.8, https://matplotlib.org/</dc:title>
     </cc:Agent>
    </dc:creator>
   </cc:Work>
  </rdf:RDF>
 </metadata>
 <defs>
  <style type="text/css">*{stroke-linejoin: round; stroke-linecap: butt}</style>
 </defs>
 <g id="figure_1">
  <g id="patch_1">
   <path d="M 0 309.598375 
L 780.284625 309.598375 
L 780.284625 0 
L 0 0 
z
" style="fill: #ffffff"/>
  </g>
  <g id="axes_1">
   <g id="patch_2">
    <path d="M 65.410875 269.348125 
L 412.76775 269.348125 
L 412.76775 32.018125 
L 65.410875 32.018125 
z
" style="fill: #ffffff"/>
   </g>
   <g id="matplotlib.axis_1">
    <g id="xtick_1">
     <g id="line2d_1"/>
     <g id="text_1">
      <!-- −0.75 -->
      <g transform="translate(76.794961 281.96625) scale(0.12 -0.12)">
       <defs>
        <path id="DejaVuSans-2212" d="M 678 2272 
L 4684 2272 
L 4684 1741 
L 678 1741 
L 678 2272 
z
" transform="scale(0.015625)"/>
        <path id="DejaVuSans-30" d="M 2034 4250 
Q 1547 4250 1301 3770 
Q 1056 3291 1056 2328 
Q 1056 1369 1301 889 
Q 1547 409 2034 409 
Q 2525 409 2770 889 
Q 3016 1369 3016 2328 
Q 3016 3291 2770 3770 
Q 2525 4250 2034 4250 
z
M 2034 4750 
Q 2819 4750 3233 4129 
Q 3647 3509 3647 2328 
Q 3647 1150 3233 529 
Q 2819 -91 2034 -91 
Q 1250 -91 836 529 
Q 422 1150 422 2328 
Q 422 3509 836 4129 
Q 1250 4750 2034 4750 
z
" transform="scale(0.015625)"/>
        <path id="DejaVuSans-2e" d="M 684 794 
L 1344 794 
L 1344 0 
L 684 0 
L 684 794 
z
" transform="scale(0.015625)"/>
        <path id="DejaVuSans-37" d="M 525 4666 
L 3525 4666 
L 3525 4397 
L 1831 0 
L 1172 0 
L 2766 4134 
L 525 4134 
L 525 4666 
z
" transform="scale(0.015625)"/>
        <path id="DejaVuSans-35" d="M 691 4666 
L 3169 4666 
L 3169 4134 
L 1269 4134 
L 1269 2991 
Q 1406 3038 1543 3061 
Q 1681 3084 1819 3084 
Q 2600 3084 3056 2656 
Q 3513 2228 3513 1497 
Q 3513 744 3044 326 
Q 2575 -91 1722 -91 
Q 1428 -91 1123 -41 
Q 819 9 494 109 
L 494 744 
Q 775 591 1075 516 
Q 1375 441 1709 441 
Q 2250 441 2565 725 
Q 2881 1009 2881 1497 
Q 2881 1984 2565 2268 
Q 2250 2553 1709 2553 
Q 1456 2553 1204 2497 
Q 953 2441 691 2322 
L 691 4666 
z
" transform="scale(0.015625)"/>
       </defs>
       <use xlink:href="#DejaVuSans-2212"/>
       <use xlink:href="#DejaVuSans-30" transform="translate(83.789062 0)"/>
       <use xlink:href="#DejaVuSans-2e" transform="translate(147.412109 0)"/>
       <use xlink:href="#DejaVuSans-37" transform="translate(179.199219 0)"/>
       <use xlink:href="#DejaVuSans-35" transform="translate(242.822266 0)"/>
      </g>
     </g>
    </g>
    <g id="xtick_2">
     <g id="line2d_2"/>
     <g id="text_2">
      <!-- −0.50 -->
      <g transform="translate(118.127878 281.96625) scale(0.12 -0.12)">
       <use xlink:href="#DejaVuSans-2212"/>
       <use xlink:href="#DejaVuSans-30" transform="translate(83.789062 0)"/>
       <use xlink:href="#DejaVuSans-2e" transform="translate(147.412109 0)"/>
       <use xlink:href="#DejaVuSans-35" transform="translate(179.199219 0)"/>
       <use xlink:href="#DejaVuSans-30" transform="translate(242.822266 0)"/>
      </g>
     </g>
    </g>
    <g id="xtick_3">
     <g id="line2d_3"/>
     <g id="text_3">
      <!-- −0.25 -->
      <g transform="translate(159.460795 281.96625) scale(0.12 -0.12)">
       <defs>
        <path id="DejaVuSans-32" d="M 1228 531 
L 3431 531 
L 3431 0 
L 469 0 
L 469 531 
Q 828 903 1448 1529 
Q 2069 2156 2228 2338 
Q 2531 2678 2651 2914 
Q 2772 3150 2772 3378 
Q 2772 3750 2511 3984 
Q 2250 4219 1831 4219 
Q 1534 4219 1204 4116 
Q 875 4013 500 3803 
L 500 4441 
Q 881 4594 1212 4672 
Q 1544 4750 1819 4750 
Q 2544 4750 2975 4387 
Q 3406 4025 3406 3419 
Q 3406 3131 3298 2873 
Q 3191 2616 2906 2266 
Q 2828 2175 2409 1742 
Q 1991 1309 1228 531 
z
" transform="scale(0.015625)"/>
       </defs>
       <use xlink:href="#DejaVuSans-2212"/>
       <use xlink:href="#DejaVuSans-30" transform="translate(83.789062 0)"/>
       <use xlink:href="#DejaVuSans-2e" transform="translate(147.412109 0)"/>
       <use xlink:href="#DejaVuSans-32" transform="translate(179.199219 0)"/>
       <use xlink:href="#DejaVuSans-35" transform="translate(242.822266 0)"/>
      </g>
     </g>
    </g>
    <g id="xtick_4">
     <g id="line2d_4"/>
     <g id="text_4">
      <!-- 0.00 -->
      <g transform="translate(205.821525 281.96625) scale(0.12 -0.12)">
       <use xlink:href="#DejaVuSans-30"/>
       <use xlink:href="#DejaVuSans-2e" transform="translate(63.623047 0)"/>
       <use xlink:href="#DejaVuSans-30" transform="translate(95.410156 0)"/>
       <use xlink:href="#DejaVuSans-30" transform="translate(159.033203 0)"/>
      </g>
     </g>
    </g>
    <g id="xtick_5">
     <g id="line2d_5"/>
     <g id="text_5">
      <!-- 0.25 -->
      <g transform="translate(247.154442 281.96625) scale(0.12 -0.12)">
       <use xlink:href="#DejaVuSans-30"/>
       <use xlink:href="#DejaVuSans-2e" transform="translate(63.623047 0)"/>
       <use xlink:href="#DejaVuSans-32" transform="translate(95.410156 0)"/>
       <use xlink:href="#DejaVuSans-35" transform="translate(159.033203 0)"/>
      </g>
     </g>
    </g>
    <g id="xtick_6">
     <g id="line2d_6"/>
     <g id="text_6">
      <!-- 0.50 -->
      <g transform="translate(288.487359 281.96625) scale(0.12 -0.12)">
       <use xlink:href="#DejaVuSans-30"/>
       <use xlink:href="#DejaVuSans-2e" transform="translate(63.623047 0)"/>
       <use xlink:href="#DejaVuSans-35" transform="translate(95.410156 0)"/>
       <use xlink:href="#DejaVuSans-30" transform="translate(159.033203 0)"/>
      </g>
     </g>
    </g>
    <g id="xtick_7">
     <g id="line2d_7"/>
     <g id="text_7">
      <!-- 0.75 -->
      <g transform="translate(329.820276 281.96625) scale(0.12 -0.12)">
       <use xlink:href="#DejaVuSans-30"/>
       <use xlink:href="#DejaVuSans-2e" transform="translate(63.623047 0)"/>
       <use xlink:href="#DejaVuSans-37" transform="translate(95.410156 0)"/>
       <use xlink:href="#DejaVuSans-35" transform="translate(159.033203 0)"/>
      </g>
     </g>
    </g>
    <g id="xtick_8">
     <g id="line2d_8"/>
     <g id="text_8">
      <!-- 1.00 -->
      <g transform="translate(371.153193 281.96625) scale(0.12 -0.12)">
       <defs>
        <path id="DejaVuSans-31" d="M 794 531 
L 1825 531 
L 1825 4091 
L 703 3866 
L 703 4441 
L 1819 4666 
L 2450 4666 
L 2450 531 
L 3481 531 
L 3481 0 
L 794 0 
L 794 531 
z
" transform="scale(0.015625)"/>
       </defs>
       <use xlink:href="#DejaVuSans-31"/>
       <use xlink:href="#DejaVuSans-2e" transform="translate(63.623047 0)"/>
       <use xlink:href="#DejaVuSans-30" transform="translate(95.410156 0)"/>
       <use xlink:href="#DejaVuSans-30" transform="translate(159.033203 0)"/>
      </g>
     </g>
    </g>
    <g id="text_9">
     <!-- Microchip Test 1 -->
     <g transform="translate(181.286812 299.403625) scale(0.144 -0.144)">
      <defs>
       <path id="DejaVuSans-4d" d="M 628 4666 
L 1569 4666 
L 2759 1491 
L 3956 4666 
L 4897 4666 
L 4897 0 
L 4281 0 
L 4281 4097 
L 3078 897 
L 2444 897 
L 1241 4097 
L 1241 0 
L 628 0 
L 628 4666 
z
" transform="scale(0.015625)"/>
       <path id="DejaVuSans-69" d="M 603 3500 
L 1178 3500 
L 1178 0 
L 603 0 
L 603 3500 
z
M 603 4863 
L 1178 4863 
L 1178 4134 
L 603 4134 
L 603 4863 
z
" transform="scale(0.015625)"/>
       <path id="DejaVuSans-63" d="M 3122 3366 
L 3122 2828 
Q 2878 2963 2633 3030 
Q 2388 3097 2138 3097 
Q 1578 3097 1268 2742 
Q 959 2388 959 1747 
Q 959 1106 1268 751 
Q 1578 397 2138 397 
Q 2388 397 2633 464 
Q 2878 531 3122 666 
L 3122 134 
Q 2881 22 2623 -34 
Q 2366 -91 2075 -91 
Q 1284 -91 818 406 
Q 353 903 353 1747 
Q 353 2603 823 3093 
Q 1294 3584 2113 3584 
Q 2378 3584 2631 3529 
Q 2884 3475 3122 3366 
z
" transform="scale(0.015625)"/>
       <path id="DejaVuSans-72" d="M 2631 2963 
Q 2534 3019 2420 3045 
Q 2306 3072 2169 3072 
Q 1681 3072 1420 2755 
Q 1159 2438 1159 1844 
L 1159 0 
L 581 0 
L 581 3500 
L 1159 3500 
L 1159 2956 
Q 1341 3275 1631 3429 
Q 1922 3584 2338 3584 
Q 2397 3584 2469 3576 
Q 2541 3569 2628 3553 
L 2631 2963 
z
" transform="scale(0.015625)"/>
       <path id="DejaVuSans-6f" d="M 1959 3097 
Q 1497 3097 1228 2736 
Q 959 2375 959 1747 
Q 959 1119 1226 758 
Q 1494 397 1959 397 
Q 2419 397 2687 759 
Q 2956 1122 2956 1747 
Q 2956 2369 2687 2733 
Q 2419 3097 1959 3097 
z
M 1959 3584 
Q 2709 3584 3137 3096 
Q 3566 2609 3566 1747 
Q 3566 888 3137 398 
Q 2709 -91 1959 -91 
Q 1206 -91 779 398 
Q 353 888 353 1747 
Q 353 2609 779 3096 
Q 1206 3584 1959 3584 
z
" transform="scale(0.015625)"/>
       <path id="DejaVuSans-68" d="M 3513 2113 
L 3513 0 
L 2938 0 
L 2938 2094 
Q 2938 2591 2744 2837 
Q 2550 3084 2163 3084 
Q 1697 3084 1428 2787 
Q 1159 2491 1159 1978 
L 1159 0 
L 581 0 
L 581 4863 
L 1159 4863 
L 1159 2956 
Q 1366 3272 1645 3428 
Q 1925 3584 2291 3584 
Q 2894 3584 3203 3211 
Q 3513 2838 3513 2113 
z
" transform="scale(0.015625)"/>
       <path id="DejaVuSans-70" d="M 1159 525 
L 1159 -1331 
L 581 -1331 
L 581 3500 
L 1159 3500 
L 1159 2969 
Q 1341 3281 1617 3432 
Q 1894 3584 2278 3584 
Q 2916 3584 3314 3078 
Q 3713 2572 3713 1747 
Q 3713 922 3314 415 
Q 2916 -91 2278 -91 
Q 1894 -91 1617 61 
Q 1341 213 1159 525 
z
M 3116 1747 
Q 3116 2381 2855 2742 
Q 2594 3103 2138 3103 
Q 1681 3103 1420 2742 
Q 1159 2381 1159 1747 
Q 1159 1113 1420 752 
Q 1681 391 2138 391 
Q 2594 391 2855 752 
Q 3116 1113 3116 1747 
z
" transform="scale(0.015625)"/>
       <path id="DejaVuSans-20" transform="scale(0.015625)"/>
       <path id="DejaVuSans-54" d="M -19 4666 
L 3928 4666 
L 3928 4134 
L 2272 4134 
L 2272 0 
L 1638 0 
L 1638 4134 
L -19 4134 
L -19 4666 
z
" transform="scale(0.015625)"/>
       <path id="DejaVuSans-65" d="M 3597 1894 
L 3597 1613 
L 953 1613 
Q 991 1019 1311 708 
Q 1631 397 2203 397 
Q 2534 397 2845 478 
Q 3156 559 3463 722 
L 3463 178 
Q 3153 47 2828 -22 
Q 2503 -91 2169 -91 
Q 1331 -91 842 396 
Q 353 884 353 1716 
Q 353 2575 817 3079 
Q 1281 3584 2069 3584 
Q 2775 3584 3186 3129 
Q 3597 2675 3597 1894 
z
M 3022 2063 
Q 3016 2534 2758 2815 
Q 2500 3097 2075 3097 
Q 1594 3097 1305 2825 
Q 1016 2553 972 2059 
L 3022 2063 
z
" transform="scale(0.015625)"/>
       <path id="DejaVuSans-73" d="M 2834 3397 
L 2834 2853 
Q 2591 2978 2328 3040 
Q 2066 3103 1784 3103 
Q 1356 3103 1142 2972 
Q 928 2841 928 2578 
Q 928 2378 1081 2264 
Q 1234 2150 1697 2047 
L 1894 2003 
Q 2506 1872 2764 1633 
Q 3022 1394 3022 966 
Q 3022 478 2636 193 
Q 2250 -91 1575 -91 
Q 1294 -91 989 -36 
Q 684 19 347 128 
L 347 722 
Q 666 556 975 473 
Q 1284 391 1588 391 
Q 1994 391 2212 530 
Q 2431 669 2431 922 
Q 2431 1156 2273 1281 
Q 2116 1406 1581 1522 
L 1381 1569 
Q 847 1681 609 1914 
Q 372 2147 372 2553 
Q 372 3047 722 3315 
Q 1072 3584 1716 3584 
Q 2034 3584 2315 3537 
Q 2597 3491 2834 3397 
z
" transform="scale(0.015625)"/>
       <path id="DejaVuSans-74" d="M 1172 4494 
L 1172 3500 
L 2356 3500 
L 2356 3053 
L 1172 3053 
L 1172 1153 
Q 1172 725 1289 603 
Q 1406 481 1766 481 
L 2356 481 
L 2356 0 
L 1766 0 
Q 1100 0 847 248 
Q 594 497 594 1153 
L 594 3053 
L 172 3053 
L 172 3500 
L 594 3500 
L 594 4494 
L 1172 4494 
z
" transform="scale(0.015625)"/>
      </defs>
      <use xlink:href="#DejaVuSans-4d"/>
      <use xlink:href="#DejaVuSans-69" transform="translate(86.279297 0)"/>
      <use xlink:href="#DejaVuSans-63" transform="translate(114.0625 0)"/>
      <use xlink:href="#DejaVuSans-72" transform="translate(169.042969 0)"/>
      <use xlink:href="#DejaVuSans-6f" transform="translate(207.90625 0)"/>
      <use xlink:href="#DejaVuSans-63" transform="translate(269.087891 0)"/>
      <use xlink:href="#DejaVuSans-68" transform="translate(324.068359 0)"/>
      <use xlink:href="#DejaVuSans-69" transform="translate(387.447266 0)"/>
      <use xlink:href="#DejaVuSans-70" transform="translate(415.230469 0)"/>
      <use xlink:href="#DejaVuSans-20" transform="translate(478.707031 0)"/>
      <use xlink:href="#DejaVuSans-54" transform="translate(510.494141 0)"/>
      <use xlink:href="#DejaVuSans-65" transform="translate(554.578125 0)"/>
      <use xlink:href="#DejaVuSans-73" transform="translate(616.101562 0)"/>
      <use xlink:href="#DejaVuSans-74" transform="translate(668.201172 0)"/>
      <use xlink:href="#DejaVuSans-20" transform="translate(707.410156 0)"/>
      <use xlink:href="#DejaVuSans-31" transform="translate(739.197266 0)"/>
     </g>
    </g>
   </g>
   <g id="matplotlib.axis_2">
    <g id="ytick_1">
     <g id="line2d_9"/>
     <g id="text_10">
      <!-- −0.75 -->
      <g transform="translate(25.1365 260.235799) scale(0.12 -0.12)">
       <use xlink:href="#DejaVuSans-2212"/>
       <use xlink:href="#DejaVuSans-30" transform="translate(83.789062 0)"/>
       <use xlink:href="#DejaVuSans-2e" transform="translate(147.412109 0)"/>
       <use xlink:href="#DejaVuSans-37" transform="translate(179.199219 0)"/>
       <use xlink:href="#DejaVuSans-35" transform="translate(242.822266 0)"/>
      </g>
     </g>
    </g>
    <g id="ytick_2">
     <g id="line2d_10"/>
     <g id="text_11">
      <!-- −0.50 -->
      <g transform="translate(25.1365 231.691896) scale(0.12 -0.12)">
       <use xlink:href="#DejaVuSans-2212"/>
       <use xlink:href="#DejaVuSans-30" transform="translate(83.789062 0)"/>
       <use xlink:href="#DejaVuSans-2e" transform="translate(147.412109 0)"/>
       <use xlink:href="#DejaVuSans-35" transform="translate(179.199219 0)"/>
       <use xlink:href="#DejaVuSans-30" transform="translate(242.822266 0)"/>
      </g>
     </g>
    </g>
    <g id="ytick_3">
     <g id="line2d_11"/>
     <g id="text_12">
      <!-- −0.25 -->
      <g transform="translate(25.1365 203.147992) scale(0.12 -0.12)">
       <use xlink:href="#DejaVuSans-2212"/>
       <use xlink:href="#DejaVuSans-30" transform="translate(83.789062 0)"/>
       <use xlink:href="#DejaVuSans-2e" transform="translate(147.412109 0)"/>
       <use xlink:href="#DejaVuSans-32" transform="translate(179.199219 0)"/>
       <use xlink:href="#DejaVuSans-35" transform="translate(242.822266 0)"/>
      </g>
     </g>
    </g>
    <g id="ytick_4">
     <g id="line2d_12"/>
     <g id="text_13">
      <!-- 0.00 -->
      <g transform="translate(35.192125 174.604088) scale(0.12 -0.12)">
       <use xlink:href="#DejaVuSans-30"/>
       <use xlink:href="#DejaVuSans-2e" transform="translate(63.623047 0)"/>
       <use xlink:href="#DejaVuSans-30" transform="translate(95.410156 0)"/>
       <use xlink:href="#DejaVuSans-30" transform="translate(159.033203 0)"/>
      </g>
     </g>
    </g>
    <g id="ytick_5">
     <g id="line2d_13"/>
     <g id="text_14">
      <!-- 0.25 -->
      <g transform="translate(35.192125 146.060185) scale(0.12 -0.12)">
       <use xlink:href="#DejaVuSans-30"/>
       <use xlink:href="#DejaVuSans-2e" transform="translate(63.623047 0)"/>
       <use xlink:href="#DejaVuSans-32" transform="translate(95.410156 0)"/>
       <use xlink:href="#DejaVuSans-35" transform="translate(159.033203 0)"/>
      </g>
     </g>
    </g>
    <g id="ytick_6">
     <g id="line2d_14"/>
     <g id="text_15">
      <!-- 0.50 -->
      <g transform="translate(35.192125 117.516281) scale(0.12 -0.12)">
       <use xlink:href="#DejaVuSans-30"/>
       <use xlink:href="#DejaVuSans-2e" transform="translate(63.623047 0)"/>
       <use xlink:href="#DejaVuSans-35" transform="translate(95.410156 0)"/>
       <use xlink:href="#DejaVuSans-30" transform="translate(159.033203 0)"/>
      </g>
     </g>
    </g>
    <g id="ytick_7">
     <g id="line2d_15"/>
     <g id="text_16">
      <!-- 0.75 -->
      <g transform="translate(35.192125 88.972377) scale(0.12 -0.12)">
       <use xlink:href="#DejaVuSans-30"/>
       <use xlink:href="#DejaVuSans-2e" transform="translate(63.623047 0)"/>
       <use xlink:href="#DejaVuSans-37" transform="translate(95.410156 0)"/>
       <use xlink:href="#DejaVuSans-35" transform="translate(159.033203 0)"/>
      </g>
     </g>
    </g>
    <g id="ytick_8">
     <g id="line2d_16"/>
     <g id="text_17">
      <!-- 1.00 -->
      <g transform="translate(35.192125 60.428473) scale(0.12 -0.12)">
       <use xlink:href="#DejaVuSans-31"/>
       <use xlink:href="#DejaVuSans-2e" transform="translate(63.623047 0)"/>
       <use xlink:href="#DejaVuSans-30" transform="translate(95.410156 0)"/>
       <use xlink:href="#DejaVuSans-30" transform="translate(159.033203 0)"/>
      </g>
     </g>
    </g>
    <g id="text_18">
     <!-- Microchip Test 2 -->
     <g transform="translate(18.14175 208.485625) rotate(-90) scale(0.144 -0.144)">
      <use xlink:href="#DejaVuSans-4d"/>
      <use xlink:href="#DejaVuSans-69" transform="translate(86.279297 0)"/>
      <use xlink:href="#DejaVuSans-63" transform="translate(114.0625 0)"/>
      <use xlink:href="#DejaVuSans-72" transform="translate(169.042969 0)"/>
      <use xlink:href="#DejaVuSans-6f" transform="translate(207.90625 0)"/>
      <use xlink:href="#DejaVuSans-63" transform="translate(269.087891 0)"/>
      <use xlink:href="#DejaVuSans-68" transform="translate(324.068359 0)"/>
      <use xlink:href="#DejaVuSans-69" transform="translate(387.447266 0)"/>
      <use xlink:href="#DejaVuSans-70" transform="translate(415.230469 0)"/>
      <use xlink:href="#DejaVuSans-20" transform="translate(478.707031 0)"/>
      <use xlink:href="#DejaVuSans-54" transform="translate(510.494141 0)"/>
      <use xlink:href="#DejaVuSans-65" transform="translate(554.578125 0)"/>
      <use xlink:href="#DejaVuSans-73" transform="translate(616.101562 0)"/>
      <use xlink:href="#DejaVuSans-74" transform="translate(668.201172 0)"/>
      <use xlink:href="#DejaVuSans-20" transform="translate(707.410156 0)"/>
      <use xlink:href="#DejaVuSans-32" transform="translate(739.197266 0)"/>
     </g>
    </g>
   </g>
   <g id="PathCollection_1">
    <defs>
     <path id="m0460e4d68a" d="M -3.162278 3.162278 
L 3.162278 -3.162278 
M -3.162278 -3.162278 
L 3.162278 3.162278 
" style="stroke: #c00000; stroke-width: 4"/>
    </defs>
    <g clip-path="url(#pe78f658a6f)">
     <use xlink:href="#m0460e4d68a" x="227.656958" y="90.172333" style="fill: #c00000; stroke: #c00000; stroke-width: 4"/>
     <use xlink:href="#m0460e4d68a" x="203.84771" y="91.84158" style="fill: #c00000; stroke: #c00000; stroke-width: 4"/>
     <use xlink:href="#m0460e4d68a" x="183.847869" y="91.006956" style="fill: #c00000; stroke: #c00000; stroke-width: 4"/>
     <use xlink:href="#m0460e4d68a" x="157.181524" y="112.707174" style="fill: #c00000; stroke: #c00000; stroke-width: 4"/>
     <use xlink:href="#m0460e4d68a" x="134.324421" y="116.880292" style="fill: #c00000; stroke: #c00000; stroke-width: 4"/>
     <use xlink:href="#m0460e4d68a" x="132.4198" y="146.090982" style="fill: #c00000; stroke: #c00000; stroke-width: 4"/>
     <use xlink:href="#m0460e4d68a" x="153.372282" y="166.122294" style="fill: #c00000; stroke: #c00000; stroke-width: 4"/>
     <use xlink:href="#m0460e4d68a" x="168.609249" y="191.995288" style="fill: #c00000; stroke: #c00000; stroke-width: 4"/>
     <use xlink:href="#m0460e4d68a" x="221.942765" y="216.199376" style="fill: #c00000; stroke: #c00000; stroke-width: 4"/>
     <use xlink:href="#m0460e4d68a" x="240.9898" y="228.718732" style="fill: #c00000; stroke: #c00000; stroke-width: 4"/>
     <use xlink:href="#m0460e4d68a" x="282.894765" y="234.561099" style="fill: #c00000; stroke: #c00000; stroke-width: 4"/>
     <use xlink:href="#m0460e4d68a" x="306.704178" y="229.553356" style="fill: #c00000; stroke: #c00000; stroke-width: 4"/>
     <use xlink:href="#m0460e4d68a" x="324.798076" y="197.837654" style="fill: #c00000; stroke: #c00000; stroke-width: 4"/>
     <use xlink:href="#m0460e4d68a" x="340.989006" y="191.160664" style="fill: #c00000; stroke: #c00000; stroke-width: 4"/>
     <use xlink:href="#m0460e4d68a" x="309.561109" y="114.376421" style="fill: #c00000; stroke: #c00000; stroke-width: 4"/>
     <use xlink:href="#m0460e4d68a" x="272.417697" y="103.526313" style="fill: #c00000; stroke: #c00000; stroke-width: 4"/>
     <use xlink:href="#m0460e4d68a" x="246.703662" y="108.534055" style="fill: #c00000; stroke: #c00000; stroke-width: 4"/>
     <use xlink:href="#m0460e4d68a" x="211.466689" y="76.818353" style="fill: #c00000; stroke: #c00000; stroke-width: 4"/>
     <use xlink:href="#m0460e4d68a" x="190.514042" y="90.172333" style="fill: #c00000; stroke: #c00000; stroke-width: 4"/>
     <use xlink:href="#m0460e4d68a" x="140.038283" y="97.683946" style="fill: #c00000; stroke: #c00000; stroke-width: 4"/>
     <use xlink:href="#m0460e4d68a" x="119.087454" y="101.857065" style="fill: #c00000; stroke: #c00000; stroke-width: 4"/>
     <use xlink:href="#m0460e4d68a" x="115.276559" y="131.90352" style="fill: #c00000; stroke: #c00000; stroke-width: 4"/>
     <use xlink:href="#m0460e4d68a" x="120.992075" y="169.460789" style="fill: #c00000; stroke: #c00000; stroke-width: 4"/>
     <use xlink:href="#m0460e4d68a" x="149.563041" y="201.176149" style="fill: #c00000; stroke: #c00000; stroke-width: 4"/>
     <use xlink:href="#m0460e4d68a" x="200.038799" y="215.364753" style="fill: #c00000; stroke: #c00000; stroke-width: 4"/>
     <use xlink:href="#m0460e4d68a" x="252.419178" y="238.734217" style="fill: #c00000; stroke: #c00000; stroke-width: 4"/>
     <use xlink:href="#m0460e4d68a" x="296.22711" y="231.222604" style="fill: #c00000; stroke: #c00000; stroke-width: 4"/>
     <use xlink:href="#m0460e4d68a" x="330.513592" y="231.222604" style="fill: #c00000; stroke: #c00000; stroke-width: 4"/>
     <use xlink:href="#m0460e4d68a" x="196.229557" y="107.699431" style="fill: #c00000; stroke: #c00000; stroke-width: 4"/>
     <use xlink:href="#m0460e4d68a" x="170.515523" y="80.991471" style="fill: #c00000; stroke: #c00000; stroke-width: 4"/>
     <use xlink:href="#m0460e4d68a" x="175.277075" y="60.125878" style="fill: #c00000; stroke: #c00000; stroke-width: 4"/>
     <use xlink:href="#m0460e4d68a" x="192.418663" y="78.4876" style="fill: #c00000; stroke: #c00000; stroke-width: 4"/>
     <use xlink:href="#m0460e4d68a" x="190.514042" y="96.014699" style="fill: #c00000; stroke: #c00000; stroke-width: 4"/>
     <use xlink:href="#m0460e4d68a" x="172.420144" y="116.045669" style="fill: #c00000; stroke: #c00000; stroke-width: 4"/>
     <use xlink:href="#m0460e4d68a" x="159.086145" y="134.407391" style="fill: #c00000; stroke: #c00000; stroke-width: 4"/>
     <use xlink:href="#m0460e4d68a" x="169.561559" y="166.956918" style="fill: #c00000; stroke: #c00000; stroke-width: 4"/>
     <use xlink:href="#m0460e4d68a" x="180.038627" y="194.499159" style="fill: #c00000; stroke: #c00000; stroke-width: 4"/>
     <use xlink:href="#m0460e4d68a" x="208.609593" y="191.160664" style="fill: #c00000; stroke: #c00000; stroke-width: 4"/>
     <use xlink:href="#m0460e4d68a" x="229.561744" y="188.656793" style="fill: #c00000; stroke: #c00000; stroke-width: 4"/>
     <use xlink:href="#m0460e4d68a" x="257.18073" y="217.034" style="fill: #c00000; stroke: #c00000; stroke-width: 4"/>
     <use xlink:href="#m0460e4d68a" x="267.656145" y="196.168406" style="fill: #c00000; stroke: #c00000; stroke-width: 4"/>
     <use xlink:href="#m0460e4d68a" x="299.084042" y="191.160664" style="fill: #c00000; stroke: #c00000; stroke-width: 4"/>
     <use xlink:href="#m0460e4d68a" x="325.75204" y="186.152922" style="fill: #c00000; stroke: #c00000; stroke-width: 4"/>
     <use xlink:href="#m0460e4d68a" x="295.2748" y="168.626165" style="fill: #c00000; stroke: #c00000; stroke-width: 4"/>
     <use xlink:href="#m0460e4d68a" x="322.893455" y="151.933348" style="fill: #c00000; stroke: #c00000; stroke-width: 4"/>
     <use xlink:href="#m0460e4d68a" x="314.322661" y="139.415134" style="fill: #c00000; stroke: #c00000; stroke-width: 4"/>
     <use xlink:href="#m0460e4d68a" x="339.084385" y="119.384164" style="fill: #c00000; stroke: #c00000; stroke-width: 4"/>
     <use xlink:href="#m0460e4d68a" x="256.22842" y="110.203303" style="fill: #c00000; stroke: #c00000; stroke-width: 4"/>
     <use xlink:href="#m0460e4d68a" x="292.417869" y="93.510828" style="fill: #c00000; stroke: #c00000; stroke-width: 4"/>
     <use xlink:href="#m0460e4d68a" x="272.417697" y="91.006956" style="fill: #c00000; stroke: #c00000; stroke-width: 4"/>
     <use xlink:href="#m0460e4d68a" x="241.94211" y="104.360936" style="fill: #c00000; stroke: #c00000; stroke-width: 4"/>
     <use xlink:href="#m0460e4d68a" x="218.133292" y="124.391906" style="fill: #c00000; stroke: #c00000; stroke-width: 4"/>
     <use xlink:href="#m0460e4d68a" x="203.84771" y="106.864808" style="fill: #c00000; stroke: #c00000; stroke-width: 4"/>
     <use xlink:href="#m0460e4d68a" x="184.800179" y="129.399649" style="fill: #c00000; stroke: #c00000; stroke-width: 4"/>
     <use xlink:href="#m0460e4d68a" x="184.800179" y="150.2641" style="fill: #c00000; stroke: #c00000; stroke-width: 4"/>
     <use xlink:href="#m0460e4d68a" x="146.70611" y="145.256358" style="fill: #c00000; stroke: #c00000; stroke-width: 4"/>
     <use xlink:href="#m0460e4d68a" x="182.895558" y="171.96466" style="fill: #c00000; stroke: #c00000; stroke-width: 4"/>
     <use xlink:href="#m0460e4d68a" x="196.229557" y="201.176149" style="fill: #c00000; stroke: #c00000; stroke-width: 4"/>
    </g>
   </g>
   <g id="PathCollection_2">
    <defs>
     <path id="C0_0_cb0c0d6ffb" d="M 0 3.708099 
C 0.983399 3.708099 1.926654 3.317391 2.622022 2.622022 
C 3.317391 1.926654 3.708099 0.983399 3.708099 -0 
C 3.708099 -0.983399 3.317391 -1.926654 2.622022 -2.622022 
C 1.926654 -3.317391 0.983399 -3.708099 0 -3.708099 
C -0.983399 -3.708099 -1.926654 -3.317391 -2.622022 -2.622022 
C -3.317391 -1.926654 -3.708099 -0.983399 -3.708099 0 
C -3.708099 0.983399 -3.317391 1.926654 -2.622022 2.622022 
C -1.926654 3.317391 -0.983399 3.708099 0 3.708099 
z
"/>
    </defs>
    <g clip-path="url(#pe78f658a6f)">
     <use xlink:href="#C0_0_cb0c0d6ffb" x="249.562247" y="63.464373" style="fill: none; stroke: #0096ff; stroke-width: 1.5"/>
    </g>
    <g clip-path="url(#pe78f658a6f)">
     <use xlink:href="#C0_0_cb0c0d6ffb" x="256.22842" y="80.991471" style="fill: none; stroke: #0096ff; stroke-width: 1.5"/>
    </g>
    <g clip-path="url(#pe78f658a6f)">
     <use xlink:href="#C0_0_cb0c0d6ffb" x="268.608455" y="99.353194" style="fill: none; stroke: #0096ff; stroke-width: 1.5"/>
    </g>
    <g clip-path="url(#pe78f658a6f)">
     <use xlink:href="#C0_0_cb0c0d6ffb" x="302.894937" y="83.495343" style="fill: none; stroke: #0096ff; stroke-width: 1.5"/>
    </g>
    <g clip-path="url(#pe78f658a6f)">
     <use xlink:href="#C0_0_cb0c0d6ffb" x="320.988834" y="86.833838" style="fill: none; stroke: #0096ff; stroke-width: 1.5"/>
    </g>
    <g clip-path="url(#pe78f658a6f)">
     <use xlink:href="#C0_0_cb0c0d6ffb" x="319.084214" y="101.857065" style="fill: none; stroke: #0096ff; stroke-width: 1.5"/>
    </g>
    <g clip-path="url(#pe78f658a6f)">
     <use xlink:href="#C0_0_cb0c0d6ffb" x="345.750558" y="112.707174" style="fill: none; stroke: #0096ff; stroke-width: 1.5"/>
    </g>
    <g clip-path="url(#pe78f658a6f)">
     <use xlink:href="#C0_0_cb0c0d6ffb" x="372.416903" y="128.565025" style="fill: none; stroke: #0096ff; stroke-width: 1.5"/>
    </g>
    <g clip-path="url(#pe78f658a6f)">
     <use xlink:href="#C0_0_cb0c0d6ffb" x="355.275316" y="138.58051" style="fill: none; stroke: #0096ff; stroke-width: 1.5"/>
    </g>
    <g clip-path="url(#pe78f658a6f)">
     <use xlink:href="#C0_0_cb0c0d6ffb" x="378.132419" y="160.280042" style="fill: none; stroke: #0096ff; stroke-width: 1.5"/>
    </g>
    <g clip-path="url(#pe78f658a6f)">
     <use xlink:href="#C0_0_cb0c0d6ffb" x="374.321524" y="168.626165" style="fill: none; stroke: #0096ff; stroke-width: 1.5"/>
    </g>
    <g clip-path="url(#pe78f658a6f)">
     <use xlink:href="#C0_0_cb0c0d6ffb" x="361.941489" y="179.47616" style="fill: none; stroke: #0096ff; stroke-width: 1.5"/>
    </g>
    <g clip-path="url(#pe78f658a6f)">
     <use xlink:href="#C0_0_cb0c0d6ffb" x="367.655351" y="193.664535" style="fill: none; stroke: #0096ff; stroke-width: 1.5"/>
    </g>
    <g clip-path="url(#pe78f658a6f)">
     <use xlink:href="#C0_0_cb0c0d6ffb" x="360.036868" y="212.026258" style="fill: none; stroke: #0096ff; stroke-width: 1.5"/>
    </g>
    <g clip-path="url(#pe78f658a6f)">
     <use xlink:href="#C0_0_cb0c0d6ffb" x="356.227626" y="229.553356" style="fill: none; stroke: #0096ff; stroke-width: 1.5"/>
    </g>
    <g clip-path="url(#pe78f658a6f)">
     <use xlink:href="#C0_0_cb0c0d6ffb" x="350.51211" y="233.726475" style="fill: none; stroke: #0096ff; stroke-width: 1.5"/>
    </g>
    <g clip-path="url(#pe78f658a6f)">
     <use xlink:href="#C0_0_cb0c0d6ffb" x="317.179593" y="254.592069" style="fill: none; stroke: #0096ff; stroke-width: 1.5"/>
    </g>
    <g clip-path="url(#pe78f658a6f)">
     <use xlink:href="#C0_0_cb0c0d6ffb" x="304.799557" y="237.899594" style="fill: none; stroke: #0096ff; stroke-width: 1.5"/>
    </g>
    <g clip-path="url(#pe78f658a6f)">
     <use xlink:href="#C0_0_cb0c0d6ffb" x="296.22711" y="217.868624" style="fill: none; stroke: #0096ff; stroke-width: 1.5"/>
    </g>
    <g clip-path="url(#pe78f658a6f)">
     <use xlink:href="#C0_0_cb0c0d6ffb" x="277.180902" y="236.230346" style="fill: none; stroke: #0096ff; stroke-width: 1.5"/>
    </g>
    <g clip-path="url(#pe78f658a6f)">
     <use xlink:href="#C0_0_cb0c0d6ffb" x="266.703834" y="257.930564" style="fill: none; stroke: #0096ff; stroke-width: 1.5"/>
    </g>
    <g clip-path="url(#pe78f658a6f)">
     <use xlink:href="#C0_0_cb0c0d6ffb" x="233.371151" y="256.261316" style="fill: none; stroke: #0096ff; stroke-width: 1.5"/>
    </g>
    <g clip-path="url(#pe78f658a6f)">
     <use xlink:href="#C0_0_cb0c0d6ffb" x="243.846731" y="236.230346" style="fill: none; stroke: #0096ff; stroke-width: 1.5"/>
    </g>
    <g clip-path="url(#pe78f658a6f)">
     <use xlink:href="#C0_0_cb0c0d6ffb" x="197.181868" y="221.207119" style="fill: none; stroke: #0096ff; stroke-width: 1.5"/>
    </g>
    <g clip-path="url(#pe78f658a6f)">
     <use xlink:href="#C0_0_cb0c0d6ffb" x="151.467662" y="217.034" style="fill: none; stroke: #0096ff; stroke-width: 1.5"/>
    </g>
    <g clip-path="url(#pe78f658a6f)">
     <use xlink:href="#C0_0_cb0c0d6ffb" x="154.324593" y="199.506901" style="fill: none; stroke: #0096ff; stroke-width: 1.5"/>
    </g>
    <g clip-path="url(#pe78f658a6f)">
     <use xlink:href="#C0_0_cb0c0d6ffb" x="96.230351" y="199.506901" style="fill: none; stroke: #0096ff; stroke-width: 1.5"/>
    </g>
    <g clip-path="url(#pe78f658a6f)">
     <use xlink:href="#C0_0_cb0c0d6ffb" x="103.848835" y="165.28767" style="fill: none; stroke: #0096ff; stroke-width: 1.5"/>
    </g>
    <g clip-path="url(#pe78f658a6f)">
     <use xlink:href="#C0_0_cb0c0d6ffb" x="94.32573" y="136.911262" style="fill: none; stroke: #0096ff; stroke-width: 1.5"/>
    </g>
    <g clip-path="url(#pe78f658a6f)">
     <use xlink:href="#C0_0_cb0c0d6ffb" x="103.848835" y="91.84158" style="fill: none; stroke: #0096ff; stroke-width: 1.5"/>
    </g>
    <g clip-path="url(#pe78f658a6f)">
     <use xlink:href="#C0_0_cb0c0d6ffb" x="152.419972" y="89.337709" style="fill: none; stroke: #0096ff; stroke-width: 1.5"/>
    </g>
    <g clip-path="url(#pe78f658a6f)">
     <use xlink:href="#C0_0_cb0c0d6ffb" x="156.229214" y="65.13362" style="fill: none; stroke: #0096ff; stroke-width: 1.5"/>
    </g>
    <g clip-path="url(#pe78f658a6f)">
     <use xlink:href="#C0_0_cb0c0d6ffb" x="135.276731" y="66.802868" style="fill: none; stroke: #0096ff; stroke-width: 1.5"/>
    </g>
    <g clip-path="url(#pe78f658a6f)">
     <use xlink:href="#C0_0_cb0c0d6ffb" x="128.610558" y="89.337709" style="fill: none; stroke: #0096ff; stroke-width: 1.5"/>
    </g>
    <g clip-path="url(#pe78f658a6f)">
     <use xlink:href="#C0_0_cb0c0d6ffb" x="236.228248" y="80.991471" style="fill: none; stroke: #0096ff; stroke-width: 1.5"/>
    </g>
    <g clip-path="url(#pe78f658a6f)">
     <use xlink:href="#C0_0_cb0c0d6ffb" x="228.609434" y="65.13362" style="fill: none; stroke: #0096ff; stroke-width: 1.5"/>
    </g>
    <g clip-path="url(#pe78f658a6f)">
     <use xlink:href="#C0_0_cb0c0d6ffb" x="201.94342" y="56.787383" style="fill: none; stroke: #0096ff; stroke-width: 1.5"/>
    </g>
    <g clip-path="url(#pe78f658a6f)">
     <use xlink:href="#C0_0_cb0c0d6ffb" x="205.752496" y="43.435686" style="fill: none; stroke: #0096ff; stroke-width: 1.5"/>
    </g>
    <g clip-path="url(#pe78f658a6f)">
     <use xlink:href="#C0_0_cb0c0d6ffb" x="266.703834" y="45.936132" style="fill: none; stroke: #0096ff; stroke-width: 1.5"/>
    </g>
    <g clip-path="url(#pe78f658a6f)">
     <use xlink:href="#C0_0_cb0c0d6ffb" x="284.799385" y="75.983729" style="fill: none; stroke: #0096ff; stroke-width: 1.5"/>
    </g>
    <g clip-path="url(#pe78f658a6f)">
     <use xlink:href="#C0_0_cb0c0d6ffb" x="324.798076" y="68.472115" style="fill: none; stroke: #0096ff; stroke-width: 1.5"/>
    </g>
    <g clip-path="url(#pe78f658a6f)">
     <use xlink:href="#C0_0_cb0c0d6ffb" x="355.275316" y="94.345451" style="fill: none; stroke: #0096ff; stroke-width: 1.5"/>
    </g>
    <g clip-path="url(#pe78f658a6f)">
     <use xlink:href="#C0_0_cb0c0d6ffb" x="330.513592" y="96.849323" style="fill: none; stroke: #0096ff; stroke-width: 1.5"/>
    </g>
    <g clip-path="url(#pe78f658a6f)">
     <use xlink:href="#C0_0_cb0c0d6ffb" x="396.234583" y="158.610338" style="fill: none; stroke: #0096ff; stroke-width: 1.5"/>
    </g>
    <g clip-path="url(#pe78f658a6f)">
     <use xlink:href="#C0_0_cb0c0d6ffb" x="211.466689" y="236.230346" style="fill: none; stroke: #0096ff; stroke-width: 1.5"/>
    </g>
    <g clip-path="url(#pe78f658a6f)">
     <use xlink:href="#C0_0_cb0c0d6ffb" x="180.038627" y="242.907336" style="fill: none; stroke: #0096ff; stroke-width: 1.5"/>
    </g>
    <g clip-path="url(#pe78f658a6f)">
     <use xlink:href="#C0_0_cb0c0d6ffb" x="194.323283" y="212.026258" style="fill: none; stroke: #0096ff; stroke-width: 1.5"/>
    </g>
    <g clip-path="url(#pe78f658a6f)">
     <use xlink:href="#C0_0_cb0c0d6ffb" x="138.133663" y="204.514644" style="fill: none; stroke: #0096ff; stroke-width: 1.5"/>
    </g>
    <g clip-path="url(#pe78f658a6f)">
     <use xlink:href="#C0_0_cb0c0d6ffb" x="141.942904" y="185.318298" style="fill: none; stroke: #0096ff; stroke-width: 1.5"/>
    </g>
    <g clip-path="url(#pe78f658a6f)">
     <use xlink:href="#C0_0_cb0c0d6ffb" x="171.467834" y="176.972403" style="fill: none; stroke: #0096ff; stroke-width: 1.5"/>
    </g>
    <g clip-path="url(#pe78f658a6f)">
     <use xlink:href="#C0_0_cb0c0d6ffb" x="118.133491" y="177.806912" style="fill: none; stroke: #0096ff; stroke-width: 1.5"/>
    </g>
    <g clip-path="url(#pe78f658a6f)">
     <use xlink:href="#C0_0_cb0c0d6ffb" x="109.562697" y="194.499159" style="fill: none; stroke: #0096ff; stroke-width: 1.5"/>
    </g>
    <g clip-path="url(#pe78f658a6f)">
     <use xlink:href="#C0_0_cb0c0d6ffb" x="120.039765" y="217.868624" style="fill: none; stroke: #0096ff; stroke-width: 1.5"/>
    </g>
    <g clip-path="url(#pe78f658a6f)">
     <use xlink:href="#C0_0_cb0c0d6ffb" x="99.087283" y="179.47616" style="fill: none; stroke: #0096ff; stroke-width: 1.5"/>
    </g>
    <g clip-path="url(#pe78f658a6f)">
     <use xlink:href="#C0_0_cb0c0d6ffb" x="81.944042" y="134.407391" style="fill: none; stroke: #0096ff; stroke-width: 1.5"/>
    </g>
    <g clip-path="url(#pe78f658a6f)">
     <use xlink:href="#C0_0_cb0c0d6ffb" x="100.039593" y="108.534055" style="fill: none; stroke: #0096ff; stroke-width: 1.5"/>
    </g>
    <g clip-path="url(#pe78f658a6f)">
     <use xlink:href="#C0_0_cb0c0d6ffb" x="120.992075" y="113.541797" style="fill: none; stroke: #0096ff; stroke-width: 1.5"/>
    </g>
    <g clip-path="url(#pe78f658a6f)">
     <use xlink:href="#C0_0_cb0c0d6ffb" x="139.085973" y="55.952759" style="fill: none; stroke: #0096ff; stroke-width: 1.5"/>
    </g>
    <g clip-path="url(#pe78f658a6f)">
     <use xlink:href="#C0_0_cb0c0d6ffb" x="218.133292" y="55.952759" style="fill: none; stroke: #0096ff; stroke-width: 1.5"/>
    </g>
    <g clip-path="url(#pe78f658a6f)">
     <use xlink:href="#C0_0_cb0c0d6ffb" x="323.77798" y="173.54017" style="fill: none; stroke: #0096ff; stroke-width: 1.5"/>
    </g>
   </g>
   <g id="QuadContourSet_1">
    <path d="M 244.917448 239.16475 
L 247.248702 239.395547 
L 249.579956 239.598037 
L 251.911211 239.771381 
L 254.242465 239.914646 
L 256.573719 240.026804 
L 258.904973 240.106729 
L 261.236227 240.153199 
L 263.567482 240.164891 
L 265.898736 240.140379 
L 268.22999 240.078137 
L 270.561244 239.976527 
L 272.892498 239.833798 
L 275.223753 239.648084 
L 277.555007 239.417389 
L 279.886261 239.139582 
L 280.278709 239.084568 
L 282.217515 238.803289 
L 284.548769 238.411695 
L 286.880023 237.964005 
L 289.05337 237.491749 
L 289.211278 237.456225 
L 291.542532 236.868617 
L 293.873786 236.213936 
L 294.887165 235.89893 
L 296.20504 235.474827 
L 298.536294 234.648594 
L 299.417598 234.306112 
L 300.867549 233.722797 
L 303.164242 232.713293 
L 303.198803 232.697566 
L 305.530057 231.543431 
L 306.317162 231.120474 
L 307.861311 230.261546 
L 309.080349 229.527655 
L 310.192565 228.83455 
L 311.52996 227.934836 
L 312.52382 227.242748 
L 313.724755 226.342018 
L 314.855074 225.464438 
L 315.712188 224.749199 
L 317.186328 223.475639 
L 317.53083 223.15638 
L 319.191069 221.563561 
L 319.517582 221.239333 
L 320.710524 219.970742 
L 321.848836 218.716849 
L 322.136673 218.377924 
L 323.44294 216.785105 
L 324.180091 215.85386 
L 324.670725 215.192286 
L 325.810489 213.599467 
L 326.511345 212.58409 
L 326.885321 212.006648 
L 327.879954 210.41383 
L 328.837845 208.821011 
L 328.842599 208.812812 
L 329.705725 207.228192 
L 330.539877 205.635373 
L 331.173853 204.376369 
L 331.332019 204.042555 
L 332.057358 202.449736 
L 332.752806 200.856917 
L 333.41911 199.264098 
L 333.505107 199.049625 
L 334.025627 197.671279 
L 334.600088 196.078461 
L 335.147808 194.485642 
L 335.6692 192.892823 
L 335.836362 192.356053 
L 336.146545 191.300004 
L 336.589934 189.707185 
L 337.00874 188.114367 
L 337.403182 186.521548 
L 337.773428 184.928729 
L 338.119597 183.33591 
L 338.167616 183.099003 
L 338.427168 181.743091 
L 338.709301 180.150273 
L 338.968608 178.557454 
L 339.205133 176.964635 
L 339.418892 175.371816 
L 339.609879 173.778997 
L 339.778066 172.186179 
L 339.923406 170.59336 
L 340.045839 169.000541 
L 340.145286 167.407722 
L 340.221658 165.814904 
L 340.274852 164.222085 
L 340.304755 162.629266 
L 340.31124 161.036447 
L 340.294171 159.443628 
L 340.253397 157.85081 
L 340.188754 156.257991 
L 340.100064 154.665172 
L 339.98713 153.072353 
L 339.849736 151.479534 
L 339.687641 149.886716 
L 339.500577 148.293897 
L 339.288241 146.701078 
L 339.050295 145.108259 
L 338.786351 143.51544 
L 338.495969 141.922622 
L 338.178644 140.329803 
L 338.167616 140.279101 
L 337.817577 138.736984 
L 337.427303 137.144165 
L 337.007776 135.551346 
L 336.558302 133.958528 
L 336.078066 132.365709 
L 335.836362 131.615851 
L 335.553193 130.77289 
L 334.98372 129.180071 
L 334.380547 127.587253 
L 333.742437 125.994434 
L 333.505107 125.436126 
L 333.047536 124.401615 
L 332.303969 122.808796 
L 331.521567 121.215977 
L 331.173853 120.545707 
L 330.676419 119.623159 
L 329.773064 118.03034 
L 328.842599 116.46597 
L 328.825015 116.437521 
L 327.786964 114.844702 
L 326.701506 113.251883 
L 326.511345 112.986914 
L 325.523209 111.659065 
L 324.284367 110.066246 
L 324.180091 109.938852 
L 322.937524 108.473427 
L 321.848836 107.244924 
L 321.514332 106.880608 
L 319.981353 105.287789 
L 319.517582 104.828084 
L 318.334846 103.694971 
L 317.186328 102.643176 
L 316.575265 102.102152 
L 314.855074 100.646782 
L 314.687116 100.509333 
L 312.647957 98.916514 
L 312.52382 98.824014 
L 310.444989 97.323695 
L 310.192565 97.149811 
L 308.066951 95.730877 
L 307.861311 95.599897 
L 305.530057 94.160509 
L 305.49253 94.138058 
L 303.198803 92.830168 
L 302.683981 92.545239 
L 300.867549 91.587438 
L 299.62746 90.95242 
L 298.536294 90.420145 
L 296.298265 89.359602 
L 296.20504 89.317513 
L 293.873786 88.299797 
L 292.61806 87.766783 
L 291.542532 87.332322 
L 289.211278 86.418727 
L 288.56711 86.173964 
L 286.880023 85.564505 
L 284.548769 84.746231 
L 284.063025 84.581145 
L 282.217515 83.985245 
L 279.886261 83.254369 
L 279.010219 82.988326 
L 277.555007 82.568581 
L 275.223753 81.917643 
L 273.297266 81.395508 
L 272.892498 81.291281 
L 270.561244 80.713057 
L 268.22999 80.152678 
L 266.724705 79.802689 
L 265.898736 79.620421 
L 263.567482 79.125486 
L 261.236227 78.647245 
L 259.029669 78.20987 
L 258.904973 78.186415 
L 256.573719 77.7667 
L 254.242465 77.362992 
L 251.911211 76.974794 
L 249.674909 76.617051 
L 249.579956 76.60265 
L 247.248702 76.266306 
L 244.917448 75.945176 
L 242.586194 75.639028 
L 240.25494 75.347724 
L 237.923685 75.071211 
L 237.502879 75.024232 
L 235.592431 74.822504 
L 233.261177 74.591319 
L 230.929923 74.374872 
L 228.598669 74.173209 
L 226.267414 73.986425 
L 223.93616 73.814665 
L 221.604906 73.658113 
L 219.273652 73.516989 
L 217.680406 73.431414 
L 216.942398 73.393965 
L 214.611143 73.291241 
L 212.279889 73.20392 
L 209.948635 73.132246 
L 207.617381 73.076495 
L 205.286127 73.036963 
L 202.954872 73.013976 
L 200.623618 73.007878 
L 198.292364 73.01904 
L 195.96111 73.047854 
L 193.629856 73.094737 
L 191.298602 73.160131 
L 188.967347 73.244504 
L 186.636093 73.348356 
L 185.070431 73.431414 
L 184.304839 73.474961 
L 181.973585 73.628999 
L 179.642331 73.805421 
L 177.311076 74.00484 
L 174.979822 74.227917 
L 172.648568 74.475369 
L 170.317314 74.747983 
L 168.160157 75.024232 
L 167.98606 75.048191 
L 165.654805 75.396088 
L 163.323551 75.773011 
L 160.992297 76.18003 
L 158.66802 76.617051 
L 158.661043 76.618463 
L 156.329789 77.122537 
L 153.998534 77.661593 
L 151.777849 78.20987 
L 151.66728 78.239295 
L 149.336026 78.89747 
L 147.004772 79.596831 
L 146.356814 79.802689 
L 144.673518 80.379486 
L 142.342263 81.224429 
L 141.894975 81.395508 
L 140.011009 82.173767 
L 138.140951 82.988326 
L 137.679755 83.205736 
L 135.348501 84.361227 
L 134.92624 84.581145 
L 133.017247 85.658358 
L 132.146405 86.173964 
L 130.685992 87.11252 
L 129.714192 87.766783 
L 128.354738 88.762057 
L 127.574529 89.359602 
L 126.023484 90.653925 
L 125.681097 90.95242 
L 124.007716 92.545239 
L 123.69223 92.873825 
L 122.528925 94.138058 
L 121.360976 95.530943 
L 121.200085 95.730877 
L 120.035558 97.323695 
L 119.029721 98.842826 
L 118.982837 98.916514 
L 118.069034 100.509333 
L 117.248649 102.102152 
L 116.698467 103.298036 
L 116.522775 103.694971 
L 115.897602 105.287789 
L 115.347268 106.880608 
L 114.867298 108.473427 
L 114.453603 110.066246 
L 114.367213 110.45839 
L 114.112381 111.659065 
L 113.831335 113.251883 
L 113.604036 114.844702 
L 113.42752 116.437521 
L 113.299039 118.03034 
L 113.216041 119.623159 
L 113.176154 121.215977 
L 113.177177 122.808796 
L 113.217066 124.401615 
L 113.293927 125.994434 
L 113.406011 127.587253 
L 113.551708 129.180071 
L 113.729536 130.77289 
L 113.938144 132.365709 
L 114.176302 133.958528 
L 114.367213 135.099533 
L 114.445597 135.551346 
L 114.749895 137.144165 
L 115.08129 138.736984 
L 115.438898 140.329803 
L 115.821938 141.922622 
L 116.229734 143.51544 
L 116.661707 145.108259 
L 116.698467 145.236886 
L 117.131629 146.701078 
L 117.62619 148.293897 
L 118.143715 149.886716 
L 118.683902 151.479534 
L 119.029721 152.458878 
L 119.253833 153.072353 
L 119.857774 154.665172 
L 120.483646 156.257991 
L 121.131396 157.85081 
L 121.360976 158.397134 
L 121.815496 159.443628 
L 122.528811 161.036447 
L 123.263703 162.629266 
L 123.69223 163.53153 
L 124.031034 164.222085 
L 124.833974 165.814904 
L 125.658451 167.407722 
L 126.023484 168.094821 
L 126.520202 169.000541 
L 127.415304 170.59336 
L 128.332187 172.186179 
L 128.354738 172.224435 
L 129.29994 173.778997 
L 130.290124 175.371816 
L 130.685992 175.994558 
L 131.321907 176.964635 
L 132.388143 178.557454 
L 133.017247 179.477763 
L 133.491159 180.150273 
L 134.63618 181.743091 
L 135.348501 182.714562 
L 135.817994 183.33591 
L 137.044567 184.928729 
L 137.679755 185.738124 
L 138.313054 186.521548 
L 139.624062 188.114367 
L 140.011009 188.575961 
L 140.987407 189.707185 
L 142.342263 191.25019 
L 142.387303 191.300004 
L 143.852704 192.892823 
L 144.673518 193.770182 
L 145.362441 194.485642 
L 146.921432 196.078461 
L 147.004772 196.162176 
L 148.550396 197.671279 
L 149.336026 198.426135 
L 150.233287 199.264098 
L 151.66728 200.582348 
L 151.974556 200.856917 
L 153.785507 202.449736 
L 153.998534 202.634122 
L 155.672048 204.042555 
L 156.329789 204.587512 
L 157.630487 205.635373 
L 158.661043 206.452736 
L 159.666559 207.228192 
L 160.992297 208.234728 
L 161.786457 208.821011 
L 163.323551 209.938042 
L 163.996875 210.41383 
L 165.654805 211.566911 
L 166.305067 212.006648 
L 167.98606 213.125298 
L 168.718912 213.599467 
L 170.317314 214.616942 
L 171.247005 215.192286 
L 172.648568 216.045394 
L 173.898753 216.785105 
L 174.979822 217.414046 
L 176.684509 218.377924 
L 177.311076 218.726154 
L 179.615719 219.970742 
L 179.642331 219.984863 
L 181.973585 221.185827 
L 182.728498 221.563561 
L 184.304839 222.338051 
L 186.020237 223.15638 
L 186.636093 223.444739 
L 188.967347 224.503658 
L 189.524701 224.749199 
L 191.298602 225.51564 
L 193.270789 226.342018 
L 193.629856 226.489509 
L 195.96111 227.416704 
L 197.306066 227.934836 
L 198.292364 228.307005 
L 200.623618 229.157929 
L 201.671188 229.527655 
L 202.954872 229.971045 
L 205.286127 230.748738 
L 206.440732 231.120474 
L 207.617381 231.490907 
L 209.948635 232.198107 
L 211.711939 232.713293 
L 212.279889 232.875417 
L 214.611143 233.514625 
L 216.942398 234.128473 
L 217.646753 234.306112 
L 219.273652 234.706491 
L 221.604906 235.254888 
L 223.93616 235.778265 
L 224.501424 235.89893 
L 226.267414 236.266368 
L 228.598669 236.726219 
L 230.929923 237.160879 
L 232.815384 237.491749 
L 233.261177 237.56792 
L 235.592431 237.940415 
L 237.923685 238.287081 
L 240.25494 238.607475 
L 242.586194 238.901056 
L 244.194548 239.084568 
L 244.917448 239.16475 
z
" clip-path="url(#pe78f658a6f)" style="fill: none; stroke: #008000; stroke-width: 2"/>
   </g>
   <g id="patch_3">
    <path d="M 65.410875 269.348125 
L 65.410875 32.018125 
" style="fill: none; stroke: #f0f0f0; stroke-width: 3; stroke-linejoin: miter; stroke-linecap: square"/>
   </g>
   <g id="patch_4">
    <path d="M 412.76775 269.348125 
L 412.76775 32.018125 
" style="fill: none; stroke: #f0f0f0; stroke-width: 3; stroke-linejoin: miter; stroke-linecap: square"/>
   </g>
   <g id="patch_5">
    <path d="M 65.410875 269.348125 
L 412.76775 269.348125 
" style="fill: none; stroke: #f0f0f0; stroke-width: 3; stroke-linejoin: miter; stroke-linecap: square"/>
   </g>
   <g id="patch_6">
    <path d="M 65.410875 32.018125 
L 412.76775 32.018125 
" style="fill: none; stroke: #f0f0f0; stroke-width: 3; stroke-linejoin: miter; stroke-linecap: square"/>
   </g>
   <g id="text_19">
    <!-- $\lambda = 0$ (no regularization) -->
    <g style="fill: #808080" transform="translate(178.839312 14.8) scale(0.1 -0.1)">
     <defs>
      <path id="DejaVuSans-Oblique-3bb" d="M 2350 4316 
L 3125 0 
L 2516 0 
L 2038 2588 
L 328 0 
L -281 0 
L 1903 3356 
L 1794 3975 
Q 1725 4369 1391 4369 
L 1091 4369 
L 1184 4863 
L 1550 4856 
Q 2253 4847 2350 4316 
z
" transform="scale(0.015625)"/>
      <path id="DejaVuSans-3d" d="M 678 2906 
L 4684 2906 
L 4684 2381 
L 678 2381 
L 678 2906 
z
M 678 1631 
L 4684 1631 
L 4684 1100 
L 678 1100 
L 678 1631 
z
" transform="scale(0.015625)"/>
      <path id="DejaVuSans-28" d="M 1984 4856 
Q 1566 4138 1362 3434 
Q 1159 2731 1159 2009 
Q 1159 1288 1364 580 
Q 1569 -128 1984 -844 
L 1484 -844 
Q 1016 -109 783 600 
Q 550 1309 550 2009 
Q 550 2706 781 3412 
Q 1013 4119 1484 4856 
L 1984 4856 
z
" transform="scale(0.015625)"/>
      <path id="DejaVuSans-6e" d="M 3513 2113 
L 3513 0 
L 2938 0 
L 2938 2094 
Q 2938 2591 2744 2837 
Q 2550 3084 2163 3084 
Q 1697 3084 1428 2787 
Q 1159 2491 1159 1978 
L 1159 0 
L 581 0 
L 581 3500 
L 1159 3500 
L 1159 2956 
Q 1366 3272 1645 3428 
Q 1925 3584 2291 3584 
Q 2894 3584 3203 3211 
Q 3513 2838 3513 2113 
z
" transform="scale(0.015625)"/>
      <path id="DejaVuSans-67" d="M 2906 1791 
Q 2906 2416 2648 2759 
Q 2391 3103 1925 3103 
Q 1463 3103 1205 2759 
Q 947 2416 947 1791 
Q 947 1169 1205 825 
Q 1463 481 1925 481 
Q 2391 481 2648 825 
Q 2906 1169 2906 1791 
z
M 3481 434 
Q 3481 -459 3084 -895 
Q 2688 -1331 1869 -1331 
Q 1566 -1331 1297 -1286 
Q 1028 -1241 775 -1147 
L 775 -588 
Q 1028 -725 1275 -790 
Q 1522 -856 1778 -856 
Q 2344 -856 2625 -561 
Q 2906 -266 2906 331 
L 2906 616 
Q 2728 306 2450 153 
Q 2172 0 1784 0 
Q 1141 0 747 490 
Q 353 981 353 1791 
Q 353 2603 747 3093 
Q 1141 3584 1784 3584 
Q 2172 3584 2450 3431 
Q 2728 3278 2906 2969 
L 2906 3500 
L 3481 3500 
L 3481 434 
z
" transform="scale(0.015625)"/>
      <path id="DejaVuSans-75" d="M 544 1381 
L 544 3500 
L 1119 3500 
L 1119 1403 
Q 1119 906 1312 657 
Q 1506 409 1894 409 
Q 2359 409 2629 706 
Q 2900 1003 2900 1516 
L 2900 3500 
L 3475 3500 
L 3475 0 
L 2900 0 
L 2900 538 
Q 2691 219 2414 64 
Q 2138 -91 1772 -91 
Q 1169 -91 856 284 
Q 544 659 544 1381 
z
M 1991 3584 
L 1991 3584 
z
" transform="scale(0.015625)"/>
      <path id="DejaVuSans-6c" d="M 603 4863 
L 1178 4863 
L 1178 0 
L 603 0 
L 603 4863 
z
" transform="scale(0.015625)"/>
      <path id="DejaVuSans-61" d="M 2194 1759 
Q 1497 1759 1228 1600 
Q 959 1441 959 1056 
Q 959 750 1161 570 
Q 1363 391 1709 391 
Q 2188 391 2477 730 
Q 2766 1069 2766 1631 
L 2766 1759 
L 2194 1759 
z
M 3341 1997 
L 3341 0 
L 2766 0 
L 2766 531 
Q 2569 213 2275 61 
Q 1981 -91 1556 -91 
Q 1019 -91 701 211 
Q 384 513 384 1019 
Q 384 1609 779 1909 
Q 1175 2209 1959 2209 
L 2766 2209 
L 2766 2266 
Q 2766 2663 2505 2880 
Q 2244 3097 1772 3097 
Q 1472 3097 1187 3025 
Q 903 2953 641 2809 
L 641 3341 
Q 956 3463 1253 3523 
Q 1550 3584 1831 3584 
Q 2591 3584 2966 3190 
Q 3341 2797 3341 1997 
z
" transform="scale(0.015625)"/>
      <path id="DejaVuSans-7a" d="M 353 3500 
L 3084 3500 
L 3084 2975 
L 922 459 
L 3084 459 
L 3084 0 
L 275 0 
L 275 525 
L 2438 3041 
L 353 3041 
L 353 3500 
z
" transform="scale(0.015625)"/>
      <path id="DejaVuSans-29" d="M 513 4856 
L 1013 4856 
Q 1481 4119 1714 3412 
Q 1947 2706 1947 2009 
Q 1947 1309 1714 600 
Q 1481 -109 1013 -844 
L 513 -844 
Q 928 -128 1133 580 
Q 1338 1288 1338 2009 
Q 1338 2731 1133 3434 
Q 928 4138 513 4856 
z
" transform="scale(0.015625)"/>
     </defs>
     <use xlink:href="#DejaVuSans-Oblique-3bb" transform="translate(0 0.015625)"/>
     <use xlink:href="#DejaVuSans-3d" transform="translate(78.662109 0.015625)"/>
     <use xlink:href="#DejaVuSans-30" transform="translate(181.933594 0.015625)"/>
     <use xlink:href="#DejaVuSans-20" transform="translate(245.556641 0.015625)"/>
     <use xlink:href="#DejaVuSans-28" transform="translate(277.34375 0.015625)"/>
     <use xlink:href="#DejaVuSans-6e" transform="translate(316.357422 0.015625)"/>
     <use xlink:href="#DejaVuSans-6f" transform="translate(379.736328 0.015625)"/>
     <use xlink:href="#DejaVuSans-20" transform="translate(440.917969 0.015625)"/>
     <use xlink:href="#DejaVuSans-72" transform="translate(472.705078 0.015625)"/>
     <use xlink:href="#DejaVuSans-65" transform="translate(513.818359 0.015625)"/>
     <use xlink:href="#DejaVuSans-67" transform="translate(575.341797 0.015625)"/>
     <use xlink:href="#DejaVuSans-75" transform="translate(638.818359 0.015625)"/>
     <use xlink:href="#DejaVuSans-6c" transform="translate(702.197266 0.015625)"/>
     <use xlink:href="#DejaVuSans-61" transform="translate(729.980469 0.015625)"/>
     <use xlink:href="#DejaVuSans-72" transform="translate(791.259766 0.015625)"/>
     <use xlink:href="#DejaVuSans-69" transform="translate(832.373047 0.015625)"/>
     <use xlink:href="#DejaVuSans-7a" transform="translate(860.15625 0.015625)"/>
     <use xlink:href="#DejaVuSans-61" transform="translate(912.646484 0.015625)"/>
     <use xlink:href="#DejaVuSans-74" transform="translate(973.925781 0.015625)"/>
     <use xlink:href="#DejaVuSans-69" transform="translate(1013.134766 0.015625)"/>
     <use xlink:href="#DejaVuSans-6f" transform="translate(1040.917969 0.015625)"/>
     <use xlink:href="#DejaVuSans-6e" transform="translate(1102.099609 0.015625)"/>
     <use xlink:href="#DejaVuSans-29" transform="translate(1165.478516 0.015625)"/>
    </g>
    <!-- Train accuracy: 82.2% -->
    <g style="fill: #808080" transform="translate(184.152594 26.018125) scale(0.1 -0.1)">
     <defs>
      <path id="DejaVuSans-79" d="M 2059 -325 
Q 1816 -950 1584 -1140 
Q 1353 -1331 966 -1331 
L 506 -1331 
L 506 -850 
L 844 -850 
Q 1081 -850 1212 -737 
Q 1344 -625 1503 -206 
L 1606 56 
L 191 3500 
L 800 3500 
L 1894 763 
L 2988 3500 
L 3597 3500 
L 2059 -325 
z
" transform="scale(0.015625)"/>
      <path id="DejaVuSans-3a" d="M 750 794 
L 1409 794 
L 1409 0 
L 750 0 
L 750 794 
z
M 750 3309 
L 1409 3309 
L 1409 2516 
L 750 2516 
L 750 3309 
z
" transform="scale(0.015625)"/>
      <path id="DejaVuSans-38" d="M 2034 2216 
Q 1584 2216 1326 1975 
Q 1069 1734 1069 1313 
Q 1069 891 1326 650 
Q 1584 409 2034 409 
Q 2484 409 2743 651 
Q 3003 894 3003 1313 
Q 3003 1734 2745 1975 
Q 2488 2216 2034 2216 
z
M 1403 2484 
Q 997 2584 770 2862 
Q 544 3141 544 3541 
Q 544 4100 942 4425 
Q 1341 4750 2034 4750 
Q 2731 4750 3128 4425 
Q 3525 4100 3525 3541 
Q 3525 3141 3298 2862 
Q 3072 2584 2669 2484 
Q 3125 2378 3379 2068 
Q 3634 1759 3634 1313 
Q 3634 634 3220 271 
Q 2806 -91 2034 -91 
Q 1263 -91 848 271 
Q 434 634 434 1313 
Q 434 1759 690 2068 
Q 947 2378 1403 2484 
z
M 1172 3481 
Q 1172 3119 1398 2916 
Q 1625 2713 2034 2713 
Q 2441 2713 2670 2916 
Q 2900 3119 2900 3481 
Q 2900 3844 2670 4047 
Q 2441 4250 2034 4250 
Q 1625 4250 1398 4047 
Q 1172 3844 1172 3481 
z
" transform="scale(0.015625)"/>
      <path id="DejaVuSans-25" d="M 4653 2053 
Q 4381 2053 4226 1822 
Q 4072 1591 4072 1178 
Q 4072 772 4226 539 
Q 4381 306 4653 306 
Q 4919 306 5073 539 
Q 5228 772 5228 1178 
Q 5228 1588 5073 1820 
Q 4919 2053 4653 2053 
z
M 4653 2450 
Q 5147 2450 5437 2106 
Q 5728 1763 5728 1178 
Q 5728 594 5436 251 
Q 5144 -91 4653 -91 
Q 4153 -91 3862 251 
Q 3572 594 3572 1178 
Q 3572 1766 3864 2108 
Q 4156 2450 4653 2450 
z
M 1428 4353 
Q 1159 4353 1004 4120 
Q 850 3888 850 3481 
Q 850 3069 1003 2837 
Q 1156 2606 1428 2606 
Q 1700 2606 1854 2837 
Q 2009 3069 2009 3481 
Q 2009 3884 1853 4118 
Q 1697 4353 1428 4353 
z
M 4250 4750 
L 4750 4750 
L 1831 -91 
L 1331 -91 
L 4250 4750 
z
M 1428 4750 
Q 1922 4750 2215 4408 
Q 2509 4066 2509 3481 
Q 2509 2891 2217 2550 
Q 1925 2209 1428 2209 
Q 931 2209 642 2551 
Q 353 2894 353 3481 
Q 353 4063 643 4406 
Q 934 4750 1428 4750 
z
" transform="scale(0.015625)"/>
     </defs>
     <use xlink:href="#DejaVuSans-54"/>
     <use xlink:href="#DejaVuSans-72" transform="translate(46.333984 0)"/>
     <use xlink:href="#DejaVuSans-61" transform="translate(87.447266 0)"/>
     <use xlink:href="#DejaVuSans-69" transform="translate(148.726562 0)"/>
     <use xlink:href="#DejaVuSans-6e" transform="translate(176.509766 0)"/>
     <use xlink:href="#DejaVuSans-20" transform="translate(239.888672 0)"/>
     <use xlink:href="#DejaVuSans-61" transform="translate(271.675781 0)"/>
     <use xlink:href="#DejaVuSans-63" transform="translate(332.955078 0)"/>
     <use xlink:href="#DejaVuSans-63" transform="translate(387.935547 0)"/>
     <use xlink:href="#DejaVuSans-75" transform="translate(442.916016 0)"/>
     <use xlink:href="#DejaVuSans-72" transform="translate(506.294922 0)"/>
     <use xlink:href="#DejaVuSans-61" transform="translate(547.408203 0)"/>
     <use xlink:href="#DejaVuSans-63" transform="translate(608.6875 0)"/>
     <use xlink:href="#DejaVuSans-79" transform="translate(663.667969 0)"/>
     <use xlink:href="#DejaVuSans-3a" transform="translate(715.597656 0)"/>
     <use xlink:href="#DejaVuSans-20" transform="translate(749.289062 0)"/>
     <use xlink:href="#DejaVuSans-38" transform="translate(781.076172 0)"/>
     <use xlink:href="#DejaVuSans-32" transform="translate(844.699219 0)"/>
     <use xlink:href="#DejaVuSans-2e" transform="translate(908.322266 0)"/>
     <use xlink:href="#DejaVuSans-32" transform="translate(940.109375 0)"/>
     <use xlink:href="#DejaVuSans-25" transform="translate(1003.732422 0)"/>
    </g>
   </g>
  </g>
  <g id="axes_2">
   <g id="patch_7">
    <path d="M 425.72775 269.348125 
L 773.084625 269.348125 
L 773.084625 32.018125 
L 425.72775 32.018125 
z
" style="fill: #ffffff"/>
   </g>
   <g id="matplotlib.axis_3">
    <g id="xtick_9">
     <g id="line2d_17"/>
     <g id="text_20">
      <!-- −0.75 -->
      <g transform="translate(437.111836 281.96625) scale(0.12 -0.12)">
       <use xlink:href="#DejaVuSans-2212"/>
       <use xlink:href="#DejaVuSans-30" transform="translate(83.789062 0)"/>
       <use xlink:href="#DejaVuSans-2e" transform="translate(147.412109 0)"/>
       <use xlink:href="#DejaVuSans-37" transform="translate(179.199219 0)"/>
       <use xlink:href="#DejaVuSans-35" transform="translate(242.822266 0)"/>
      </g>
     </g>
    </g>
    <g id="xtick_10">
     <g id="line2d_18"/>
     <g id="text_21">
      <!-- −0.50 -->
      <g transform="translate(478.444753 281.96625) scale(0.12 -0.12)">
       <use xlink:href="#DejaVuSans-2212"/>
       <use xlink:href="#DejaVuSans-30" transform="translate(83.789062 0)"/>
       <use xlink:href="#DejaVuSans-2e" transform="translate(147.412109 0)"/>
       <use xlink:href="#DejaVuSans-35" transform="translate(179.199219 0)"/>
       <use xlink:href="#DejaVuSans-30" transform="translate(242.822266 0)"/>
      </g>
     </g>
    </g>
    <g id="xtick_11">
     <g id="line2d_19"/>
     <g id="text_22">
      <!-- −0.25 -->
      <g transform="translate(519.77767 281.96625) scale(0.12 -0.12)">
       <use xlink:href="#DejaVuSans-2212"/>
       <use xlink:href="#DejaVuSans-30" transform="translate(83.789062 0)"/>
       <use xlink:href="#DejaVuSans-2e" transform="translate(147.412109 0)"/>
       <use xlink:href="#DejaVuSans-32" transform="translate(179.199219 0)"/>
       <use xlink:href="#DejaVuSans-35" transform="translate(242.822266 0)"/>
      </g>
     </g>
    </g>
    <g id="xtick_12">
     <g id="line2d_20"/>
     <g id="text_23">
      <!-- 0.00 -->
      <g transform="translate(566.1384 281.96625) scale(0.12 -0.12)">
       <use xlink:href="#DejaVuSans-30"/>
       <use xlink:href="#DejaVuSans-2e" transform="translate(63.623047 0)"/>
       <use xlink:href="#DejaVuSans-30" transform="translate(95.410156 0)"/>
       <use xlink:href="#DejaVuSans-30" transform="translate(159.033203 0)"/>
      </g>
     </g>
    </g>
    <g id="xtick_13">
     <g id="line2d_21"/>
     <g id="text_24">
      <!-- 0.25 -->
      <g transform="translate(607.471317 281.96625) scale(0.12 -0.12)">
       <use xlink:href="#DejaVuSans-30"/>
       <use xlink:href="#DejaVuSans-2e" transform="translate(63.623047 0)"/>
       <use xlink:href="#DejaVuSans-32" transform="translate(95.410156 0)"/>
       <use xlink:href="#DejaVuSans-35" transform="translate(159.033203 0)"/>
      </g>
     </g>
    </g>
    <g id="xtick_14">
     <g id="line2d_22"/>
     <g id="text_25">
      <!-- 0.50 -->
      <g transform="translate(648.804234 281.96625) scale(0.12 -0.12)">
       <use xlink:href="#DejaVuSans-30"/>
       <use xlink:href="#DejaVuSans-2e" transform="translate(63.623047 0)"/>
       <use xlink:href="#DejaVuSans-35" transform="translate(95.410156 0)"/>
       <use xlink:href="#DejaVuSans-30" transform="translate(159.033203 0)"/>
      </g>
     </g>
    </g>
    <g id="xtick_15">
     <g id="line2d_23"/>
     <g id="text_26">
      <!-- 0.75 -->
      <g transform="translate(690.137151 281.96625) scale(0.12 -0.12)">
       <use xlink:href="#DejaVuSans-30"/>
       <use xlink:href="#DejaVuSans-2e" transform="translate(63.623047 0)"/>
       <use xlink:href="#DejaVuSans-37" transform="translate(95.410156 0)"/>
       <use xlink:href="#DejaVuSans-35" transform="translate(159.033203 0)"/>
      </g>
     </g>
    </g>
    <g id="xtick_16">
     <g id="line2d_24"/>
     <g id="text_27">
      <!-- 1.00 -->
      <g transform="translate(731.470068 281.96625) scale(0.12 -0.12)">
       <use xlink:href="#DejaVuSans-31"/>
       <use xlink:href="#DejaVuSans-2e" transform="translate(63.623047 0)"/>
       <use xlink:href="#DejaVuSans-30" transform="translate(95.410156 0)"/>
       <use xlink:href="#DejaVuSans-30" transform="translate(159.033203 0)"/>
      </g>
     </g>
    </g>
    <g id="text_28">
     <!-- Microchip Test 1 -->
     <g transform="translate(541.603687 299.403625) scale(0.144 -0.144)">
      <use xlink:href="#DejaVuSans-4d"/>
      <use xlink:href="#DejaVuSans-69" transform="translate(86.279297 0)"/>
      <use xlink:href="#DejaVuSans-63" transform="translate(114.0625 0)"/>
      <use xlink:href="#DejaVuSans-72" transform="translate(169.042969 0)"/>
      <use xlink:href="#DejaVuSans-6f" transform="translate(207.90625 0)"/>
      <use xlink:href="#DejaVuSans-63" transform="translate(269.087891 0)"/>
      <use xlink:href="#DejaVuSans-68" transform="translate(324.068359 0)"/>
      <use xlink:href="#DejaVuSans-69" transform="translate(387.447266 0)"/>
      <use xlink:href="#DejaVuSans-70" transform="translate(415.230469 0)"/>
      <use xlink:href="#DejaVuSans-20" transform="translate(478.707031 0)"/>
      <use xlink:href="#DejaVuSans-54" transform="translate(510.494141 0)"/>
      <use xlink:href="#DejaVuSans-65" transform="translate(554.578125 0)"/>
      <use xlink:href="#DejaVuSans-73" transform="translate(616.101562 0)"/>
      <use xlink:href="#DejaVuSans-74" transform="translate(668.201172 0)"/>
      <use xlink:href="#DejaVuSans-20" transform="translate(707.410156 0)"/>
      <use xlink:href="#DejaVuSans-31" transform="translate(739.197266 0)"/>
     </g>
    </g>
   </g>
   <g id="matplotlib.axis_4">
    <g id="ytick_9">
     <g id="line2d_25"/>
    </g>
    <g id="ytick_10">
     <g id="line2d_26"/>
    </g>
    <g id="ytick_11">
     <g id="line2d_27"/>
    </g>
    <g id="ytick_12">
     <g id="line2d_28"/>
    </g>
    <g id="ytick_13">
     <g id="line2d_29"/>
    </g>
    <g id="ytick_14">
     <g id="line2d_30"/>
    </g>
    <g id="ytick_15">
     <g id="line2d_31"/>
    </g>
    <g id="ytick_16">
     <g id="line2d_32"/>
    </g>
   </g>
   <g id="PathCollection_3">
    <g clip-path="url(#p2c570e22cc)">
     <use xlink:href="#m0460e4d68a" x="587.973833" y="90.172333" style="fill: #c00000; stroke: #c00000; stroke-width: 4"/>
     <use xlink:href="#m0460e4d68a" x="564.164585" y="91.84158" style="fill: #c00000; stroke: #c00000; stroke-width: 4"/>
     <use xlink:href="#m0460e4d68a" x="544.164744" y="91.006956" style="fill: #c00000; stroke: #c00000; stroke-width: 4"/>
     <use xlink:href="#m0460e4d68a" x="517.498399" y="112.707174" style="fill: #c00000; stroke: #c00000; stroke-width: 4"/>
     <use xlink:href="#m0460e4d68a" x="494.641296" y="116.880292" style="fill: #c00000; stroke: #c00000; stroke-width: 4"/>
     <use xlink:href="#m0460e4d68a" x="492.736675" y="146.090982" style="fill: #c00000; stroke: #c00000; stroke-width: 4"/>
     <use xlink:href="#m0460e4d68a" x="513.689157" y="166.122294" style="fill: #c00000; stroke: #c00000; stroke-width: 4"/>
     <use xlink:href="#m0460e4d68a" x="528.926124" y="191.995288" style="fill: #c00000; stroke: #c00000; stroke-width: 4"/>
     <use xlink:href="#m0460e4d68a" x="582.25964" y="216.199376" style="fill: #c00000; stroke: #c00000; stroke-width: 4"/>
     <use xlink:href="#m0460e4d68a" x="601.306675" y="228.718732" style="fill: #c00000; stroke: #c00000; stroke-width: 4"/>
     <use xlink:href="#m0460e4d68a" x="643.21164" y="234.561099" style="fill: #c00000; stroke: #c00000; stroke-width: 4"/>
     <use xlink:href="#m0460e4d68a" x="667.021053" y="229.553356" style="fill: #c00000; stroke: #c00000; stroke-width: 4"/>
     <use xlink:href="#m0460e4d68a" x="685.114951" y="197.837654" style="fill: #c00000; stroke: #c00000; stroke-width: 4"/>
     <use xlink:href="#m0460e4d68a" x="701.305881" y="191.160664" style="fill: #c00000; stroke: #c00000; stroke-width: 4"/>
     <use xlink:href="#m0460e4d68a" x="669.877984" y="114.376421" style="fill: #c00000; stroke: #c00000; stroke-width: 4"/>
     <use xlink:href="#m0460e4d68a" x="632.734572" y="103.526313" style="fill: #c00000; stroke: #c00000; stroke-width: 4"/>
     <use xlink:href="#m0460e4d68a" x="607.020537" y="108.534055" style="fill: #c00000; stroke: #c00000; stroke-width: 4"/>
     <use xlink:href="#m0460e4d68a" x="571.783564" y="76.818353" style="fill: #c00000; stroke: #c00000; stroke-width: 4"/>
     <use xlink:href="#m0460e4d68a" x="550.830917" y="90.172333" style="fill: #c00000; stroke: #c00000; stroke-width: 4"/>
     <use xlink:href="#m0460e4d68a" x="500.355158" y="97.683946" style="fill: #c00000; stroke: #c00000; stroke-width: 4"/>
     <use xlink:href="#m0460e4d68a" x="479.404329" y="101.857065" style="fill: #c00000; stroke: #c00000; stroke-width: 4"/>
     <use xlink:href="#m0460e4d68a" x="475.593434" y="131.90352" style="fill: #c00000; stroke: #c00000; stroke-width: 4"/>
     <use xlink:href="#m0460e4d68a" x="481.30895" y="169.460789" style="fill: #c00000; stroke: #c00000; stroke-width: 4"/>
     <use xlink:href="#m0460e4d68a" x="509.879916" y="201.176149" style="fill: #c00000; stroke: #c00000; stroke-width: 4"/>
     <use xlink:href="#m0460e4d68a" x="560.355674" y="215.364753" style="fill: #c00000; stroke: #c00000; stroke-width: 4"/>
     <use xlink:href="#m0460e4d68a" x="612.736053" y="238.734217" style="fill: #c00000; stroke: #c00000; stroke-width: 4"/>
     <use xlink:href="#m0460e4d68a" x="656.543985" y="231.222604" style="fill: #c00000; stroke: #c00000; stroke-width: 4"/>
     <use xlink:href="#m0460e4d68a" x="690.830467" y="231.222604" style="fill: #c00000; stroke: #c00000; stroke-width: 4"/>
     <use xlink:href="#m0460e4d68a" x="556.546432" y="107.699431" style="fill: #c00000; stroke: #c00000; stroke-width: 4"/>
     <use xlink:href="#m0460e4d68a" x="530.832398" y="80.991471" style="fill: #c00000; stroke: #c00000; stroke-width: 4"/>
     <use xlink:href="#m0460e4d68a" x="535.59395" y="60.125878" style="fill: #c00000; stroke: #c00000; stroke-width: 4"/>
     <use xlink:href="#m0460e4d68a" x="552.735538" y="78.4876" style="fill: #c00000; stroke: #c00000; stroke-width: 4"/>
     <use xlink:href="#m0460e4d68a" x="550.830917" y="96.014699" style="fill: #c00000; stroke: #c00000; stroke-width: 4"/>
     <use xlink:href="#m0460e4d68a" x="532.737019" y="116.045669" style="fill: #c00000; stroke: #c00000; stroke-width: 4"/>
     <use xlink:href="#m0460e4d68a" x="519.40302" y="134.407391" style="fill: #c00000; stroke: #c00000; stroke-width: 4"/>
     <use xlink:href="#m0460e4d68a" x="529.878434" y="166.956918" style="fill: #c00000; stroke: #c00000; stroke-width: 4"/>
     <use xlink:href="#m0460e4d68a" x="540.355502" y="194.499159" style="fill: #c00000; stroke: #c00000; stroke-width: 4"/>
     <use xlink:href="#m0460e4d68a" x="568.926468" y="191.160664" style="fill: #c00000; stroke: #c00000; stroke-width: 4"/>
     <use xlink:href="#m0460e4d68a" x="589.878619" y="188.656793" style="fill: #c00000; stroke: #c00000; stroke-width: 4"/>
     <use xlink:href="#m0460e4d68a" x="617.497605" y="217.034" style="fill: #c00000; stroke: #c00000; stroke-width: 4"/>
     <use xlink:href="#m0460e4d68a" x="627.97302" y="196.168406" style="fill: #c00000; stroke: #c00000; stroke-width: 4"/>
     <use xlink:href="#m0460e4d68a" x="659.400917" y="191.160664" style="fill: #c00000; stroke: #c00000; stroke-width: 4"/>
     <use xlink:href="#m0460e4d68a" x="686.068915" y="186.152922" style="fill: #c00000; stroke: #c00000; stroke-width: 4"/>
     <use xlink:href="#m0460e4d68a" x="655.591675" y="168.626165" style="fill: #c00000; stroke: #c00000; stroke-width: 4"/>
     <use xlink:href="#m0460e4d68a" x="683.21033" y="151.933348" style="fill: #c00000; stroke: #c00000; stroke-width: 4"/>
     <use xlink:href="#m0460e4d68a" x="674.639536" y="139.415134" style="fill: #c00000; stroke: #c00000; stroke-width: 4"/>
     <use xlink:href="#m0460e4d68a" x="699.40126" y="119.384164" style="fill: #c00000; stroke: #c00000; stroke-width: 4"/>
     <use xlink:href="#m0460e4d68a" x="616.545295" y="110.203303" style="fill: #c00000; stroke: #c00000; stroke-width: 4"/>
     <use xlink:href="#m0460e4d68a" x="652.734744" y="93.510828" style="fill: #c00000; stroke: #c00000; stroke-width: 4"/>
     <use xlink:href="#m0460e4d68a" x="632.734572" y="91.006956" style="fill: #c00000; stroke: #c00000; stroke-width: 4"/>
     <use xlink:href="#m0460e4d68a" x="602.258985" y="104.360936" style="fill: #c00000; stroke: #c00000; stroke-width: 4"/>
     <use xlink:href="#m0460e4d68a" x="578.450167" y="124.391906" style="fill: #c00000; stroke: #c00000; stroke-width: 4"/>
     <use xlink:href="#m0460e4d68a" x="564.164585" y="106.864808" style="fill: #c00000; stroke: #c00000; stroke-width: 4"/>
     <use xlink:href="#m0460e4d68a" x="545.117054" y="129.399649" style="fill: #c00000; stroke: #c00000; stroke-width: 4"/>
     <use xlink:href="#m0460e4d68a" x="545.117054" y="150.2641" style="fill: #c00000; stroke: #c00000; stroke-width: 4"/>
     <use xlink:href="#m0460e4d68a" x="507.022985" y="145.256358" style="fill: #c00000; stroke: #c00000; stroke-width: 4"/>
     <use xlink:href="#m0460e4d68a" x="543.212433" y="171.96466" style="fill: #c00000; stroke: #c00000; stroke-width: 4"/>
     <use xlink:href="#m0460e4d68a" x="556.546432" y="201.176149" style="fill: #c00000; stroke: #c00000; stroke-width: 4"/>
    </g>
   </g>
   <g id="PathCollection_4">
    <defs>
     <path id="C1_0_b58bfa32db" d="M 0 3.708099 
C 0.983399 3.708099 1.926654 3.317391 2.622022 2.622022 
C 3.317391 1.926654 3.708099 0.983399 3.708099 -0 
C 3.708099 -0.983399 3.317391 -1.926654 2.622022 -2.622022 
C 1.926654 -3.317391 0.983399 -3.708099 0 -3.708099 
C -0.983399 -3.708099 -1.926654 -3.317391 -2.622022 -2.622022 
C -3.317391 -1.926654 -3.708099 -0.983399 -3.708099 0 
C -3.708099 0.983399 -3.317391 1.926654 -2.622022 2.622022 
C -1.926654 3.317391 -0.983399 3.708099 0 3.708099 
z
"/>
    </defs>
    <g clip-path="url(#p2c570e22cc)">
     <use xlink:href="#C1_0_b58bfa32db" x="609.879122" y="63.464373" style="fill: none; stroke: #0096ff; stroke-width: 1.5"/>
    </g>
    <g clip-path="url(#p2c570e22cc)">
     <use xlink:href="#C1_0_b58bfa32db" x="616.545295" y="80.991471" style="fill: none; stroke: #0096ff; stroke-width: 1.5"/>
    </g>
    <g clip-path="url(#p2c570e22cc)">
     <use xlink:href="#C1_0_b58bfa32db" x="628.92533" y="99.353194" style="fill: none; stroke: #0096ff; stroke-width: 1.5"/>
    </g>
    <g clip-path="url(#p2c570e22cc)">
     <use xlink:href="#C1_0_b58bfa32db" x="663.211812" y="83.495343" style="fill: none; stroke: #0096ff; stroke-width: 1.5"/>
    </g>
    <g clip-path="url(#p2c570e22cc)">
     <use xlink:href="#C1_0_b58bfa32db" x="681.305709" y="86.833838" style="fill: none; stroke: #0096ff; stroke-width: 1.5"/>
    </g>
    <g clip-path="url(#p2c570e22cc)">
     <use xlink:href="#C1_0_b58bfa32db" x="679.401089" y="101.857065" style="fill: none; stroke: #0096ff; stroke-width: 1.5"/>
    </g>
    <g clip-path="url(#p2c570e22cc)">
     <use xlink:href="#C1_0_b58bfa32db" x="706.067433" y="112.707174" style="fill: none; stroke: #0096ff; stroke-width: 1.5"/>
    </g>
    <g clip-path="url(#p2c570e22cc)">
     <use xlink:href="#C1_0_b58bfa32db" x="732.733778" y="128.565025" style="fill: none; stroke: #0096ff; stroke-width: 1.5"/>
    </g>
    <g clip-path="url(#p2c570e22cc)">
     <use xlink:href="#C1_0_b58bfa32db" x="715.592191" y="138.58051" style="fill: none; stroke: #0096ff; stroke-width: 1.5"/>
    </g>
    <g clip-path="url(#p2c570e22cc)">
     <use xlink:href="#C1_0_b58bfa32db" x="738.449294" y="160.280042" style="fill: none; stroke: #0096ff; stroke-width: 1.5"/>
    </g>
    <g clip-path="url(#p2c570e22cc)">
     <use xlink:href="#C1_0_b58bfa32db" x="734.638399" y="168.626165" style="fill: none; stroke: #0096ff; stroke-width: 1.5"/>
    </g>
    <g clip-path="url(#p2c570e22cc)">
     <use xlink:href="#C1_0_b58bfa32db" x="722.258364" y="179.47616" style="fill: none; stroke: #0096ff; stroke-width: 1.5"/>
    </g>
    <g clip-path="url(#p2c570e22cc)">
     <use xlink:href="#C1_0_b58bfa32db" x="727.972226" y="193.664535" style="fill: none; stroke: #0096ff; stroke-width: 1.5"/>
    </g>
    <g clip-path="url(#p2c570e22cc)">
     <use xlink:href="#C1_0_b58bfa32db" x="720.353743" y="212.026258" style="fill: none; stroke: #0096ff; stroke-width: 1.5"/>
    </g>
    <g clip-path="url(#p2c570e22cc)">
     <use xlink:href="#C1_0_b58bfa32db" x="716.544501" y="229.553356" style="fill: none; stroke: #0096ff; stroke-width: 1.5"/>
    </g>
    <g clip-path="url(#p2c570e22cc)">
     <use xlink:href="#C1_0_b58bfa32db" x="710.828985" y="233.726475" style="fill: none; stroke: #0096ff; stroke-width: 1.5"/>
    </g>
    <g clip-path="url(#p2c570e22cc)">
     <use xlink:href="#C1_0_b58bfa32db" x="677.496468" y="254.592069" style="fill: none; stroke: #0096ff; stroke-width: 1.5"/>
    </g>
    <g clip-path="url(#p2c570e22cc)">
     <use xlink:href="#C1_0_b58bfa32db" x="665.116432" y="237.899594" style="fill: none; stroke: #0096ff; stroke-width: 1.5"/>
    </g>
    <g clip-path="url(#p2c570e22cc)">
     <use xlink:href="#C1_0_b58bfa32db" x="656.543985" y="217.868624" style="fill: none; stroke: #0096ff; stroke-width: 1.5"/>
    </g>
    <g clip-path="url(#p2c570e22cc)">
     <use xlink:href="#C1_0_b58bfa32db" x="637.497777" y="236.230346" style="fill: none; stroke: #0096ff; stroke-width: 1.5"/>
    </g>
    <g clip-path="url(#p2c570e22cc)">
     <use xlink:href="#C1_0_b58bfa32db" x="627.020709" y="257.930564" style="fill: none; stroke: #0096ff; stroke-width: 1.5"/>
    </g>
    <g clip-path="url(#p2c570e22cc)">
     <use xlink:href="#C1_0_b58bfa32db" x="593.688026" y="256.261316" style="fill: none; stroke: #0096ff; stroke-width: 1.5"/>
    </g>
    <g clip-path="url(#p2c570e22cc)">
     <use xlink:href="#C1_0_b58bfa32db" x="604.163606" y="236.230346" style="fill: none; stroke: #0096ff; stroke-width: 1.5"/>
    </g>
    <g clip-path="url(#p2c570e22cc)">
     <use xlink:href="#C1_0_b58bfa32db" x="557.498743" y="221.207119" style="fill: none; stroke: #0096ff; stroke-width: 1.5"/>
    </g>
    <g clip-path="url(#p2c570e22cc)">
     <use xlink:href="#C1_0_b58bfa32db" x="511.784537" y="217.034" style="fill: none; stroke: #0096ff; stroke-width: 1.5"/>
    </g>
    <g clip-path="url(#p2c570e22cc)">
     <use xlink:href="#C1_0_b58bfa32db" x="514.641468" y="199.506901" style="fill: none; stroke: #0096ff; stroke-width: 1.5"/>
    </g>
    <g clip-path="url(#p2c570e22cc)">
     <use xlink:href="#C1_0_b58bfa32db" x="456.547226" y="199.506901" style="fill: none; stroke: #0096ff; stroke-width: 1.5"/>
    </g>
    <g clip-path="url(#p2c570e22cc)">
     <use xlink:href="#C1_0_b58bfa32db" x="464.16571" y="165.28767" style="fill: none; stroke: #0096ff; stroke-width: 1.5"/>
    </g>
    <g clip-path="url(#p2c570e22cc)">
     <use xlink:href="#C1_0_b58bfa32db" x="454.642605" y="136.911262" style="fill: none; stroke: #0096ff; stroke-width: 1.5"/>
    </g>
    <g clip-path="url(#p2c570e22cc)">
     <use xlink:href="#C1_0_b58bfa32db" x="464.16571" y="91.84158" style="fill: none; stroke: #0096ff; stroke-width: 1.5"/>
    </g>
    <g clip-path="url(#p2c570e22cc)">
     <use xlink:href="#C1_0_b58bfa32db" x="512.736847" y="89.337709" style="fill: none; stroke: #0096ff; stroke-width: 1.5"/>
    </g>
    <g clip-path="url(#p2c570e22cc)">
     <use xlink:href="#C1_0_b58bfa32db" x="516.546089" y="65.13362" style="fill: none; stroke: #0096ff; stroke-width: 1.5"/>
    </g>
    <g clip-path="url(#p2c570e22cc)">
     <use xlink:href="#C1_0_b58bfa32db" x="495.593606" y="66.802868" style="fill: none; stroke: #0096ff; stroke-width: 1.5"/>
    </g>
    <g clip-path="url(#p2c570e22cc)">
     <use xlink:href="#C1_0_b58bfa32db" x="488.927433" y="89.337709" style="fill: none; stroke: #0096ff; stroke-width: 1.5"/>
    </g>
    <g clip-path="url(#p2c570e22cc)">
     <use xlink:href="#C1_0_b58bfa32db" x="596.545123" y="80.991471" style="fill: none; stroke: #0096ff; stroke-width: 1.5"/>
    </g>
    <g clip-path="url(#p2c570e22cc)">
     <use xlink:href="#C1_0_b58bfa32db" x="588.926309" y="65.13362" style="fill: none; stroke: #0096ff; stroke-width: 1.5"/>
    </g>
    <g clip-path="url(#p2c570e22cc)">
     <use xlink:href="#C1_0_b58bfa32db" x="562.260295" y="56.787383" style="fill: none; stroke: #0096ff; stroke-width: 1.5"/>
    </g>
    <g clip-path="url(#p2c570e22cc)">
     <use xlink:href="#C1_0_b58bfa32db" x="566.069371" y="43.435686" style="fill: none; stroke: #0096ff; stroke-width: 1.5"/>
    </g>
    <g clip-path="url(#p2c570e22cc)">
     <use xlink:href="#C1_0_b58bfa32db" x="627.020709" y="45.936132" style="fill: none; stroke: #0096ff; stroke-width: 1.5"/>
    </g>
    <g clip-path="url(#p2c570e22cc)">
     <use xlink:href="#C1_0_b58bfa32db" x="645.11626" y="75.983729" style="fill: none; stroke: #0096ff; stroke-width: 1.5"/>
    </g>
    <g clip-path="url(#p2c570e22cc)">
     <use xlink:href="#C1_0_b58bfa32db" x="685.114951" y="68.472115" style="fill: none; stroke: #0096ff; stroke-width: 1.5"/>
    </g>
    <g clip-path="url(#p2c570e22cc)">
     <use xlink:href="#C1_0_b58bfa32db" x="715.592191" y="94.345451" style="fill: none; stroke: #0096ff; stroke-width: 1.5"/>
    </g>
    <g clip-path="url(#p2c570e22cc)">
     <use xlink:href="#C1_0_b58bfa32db" x="690.830467" y="96.849323" style="fill: none; stroke: #0096ff; stroke-width: 1.5"/>
    </g>
    <g clip-path="url(#p2c570e22cc)">
     <use xlink:href="#C1_0_b58bfa32db" x="756.551458" y="158.610338" style="fill: none; stroke: #0096ff; stroke-width: 1.5"/>
    </g>
    <g clip-path="url(#p2c570e22cc)">
     <use xlink:href="#C1_0_b58bfa32db" x="571.783564" y="236.230346" style="fill: none; stroke: #0096ff; stroke-width: 1.5"/>
    </g>
    <g clip-path="url(#p2c570e22cc)">
     <use xlink:href="#C1_0_b58bfa32db" x="540.355502" y="242.907336" style="fill: none; stroke: #0096ff; stroke-width: 1.5"/>
    </g>
    <g clip-path="url(#p2c570e22cc)">
     <use xlink:href="#C1_0_b58bfa32db" x="554.640158" y="212.026258" style="fill: none; stroke: #0096ff; stroke-width: 1.5"/>
    </g>
    <g clip-path="url(#p2c570e22cc)">
     <use xlink:href="#C1_0_b58bfa32db" x="498.450538" y="204.514644" style="fill: none; stroke: #0096ff; stroke-width: 1.5"/>
    </g>
    <g clip-path="url(#p2c570e22cc)">
     <use xlink:href="#C1_0_b58bfa32db" x="502.259779" y="185.318298" style="fill: none; stroke: #0096ff; stroke-width: 1.5"/>
    </g>
    <g clip-path="url(#p2c570e22cc)">
     <use xlink:href="#C1_0_b58bfa32db" x="531.784709" y="176.972403" style="fill: none; stroke: #0096ff; stroke-width: 1.5"/>
    </g>
    <g clip-path="url(#p2c570e22cc)">
     <use xlink:href="#C1_0_b58bfa32db" x="478.450366" y="177.806912" style="fill: none; stroke: #0096ff; stroke-width: 1.5"/>
    </g>
    <g clip-path="url(#p2c570e22cc)">
     <use xlink:href="#C1_0_b58bfa32db" x="469.879572" y="194.499159" style="fill: none; stroke: #0096ff; stroke-width: 1.5"/>
    </g>
    <g clip-path="url(#p2c570e22cc)">
     <use xlink:href="#C1_0_b58bfa32db" x="480.35664" y="217.868624" style="fill: none; stroke: #0096ff; stroke-width: 1.5"/>
    </g>
    <g clip-path="url(#p2c570e22cc)">
     <use xlink:href="#C1_0_b58bfa32db" x="459.404158" y="179.47616" style="fill: none; stroke: #0096ff; stroke-width: 1.5"/>
    </g>
    <g clip-path="url(#p2c570e22cc)">
     <use xlink:href="#C1_0_b58bfa32db" x="442.260917" y="134.407391" style="fill: none; stroke: #0096ff; stroke-width: 1.5"/>
    </g>
    <g clip-path="url(#p2c570e22cc)">
     <use xlink:href="#C1_0_b58bfa32db" x="460.356468" y="108.534055" style="fill: none; stroke: #0096ff; stroke-width: 1.5"/>
    </g>
    <g clip-path="url(#p2c570e22cc)">
     <use xlink:href="#C1_0_b58bfa32db" x="481.30895" y="113.541797" style="fill: none; stroke: #0096ff; stroke-width: 1.5"/>
    </g>
    <g clip-path="url(#p2c570e22cc)">
     <use xlink:href="#C1_0_b58bfa32db" x="499.402848" y="55.952759" style="fill: none; stroke: #0096ff; stroke-width: 1.5"/>
    </g>
    <g clip-path="url(#p2c570e22cc)">
     <use xlink:href="#C1_0_b58bfa32db" x="578.450167" y="55.952759" style="fill: none; stroke: #0096ff; stroke-width: 1.5"/>
    </g>
    <g clip-path="url(#p2c570e22cc)">
     <use xlink:href="#C1_0_b58bfa32db" x="684.094855" y="173.54017" style="fill: none; stroke: #0096ff; stroke-width: 1.5"/>
    </g>
   </g>
   <g id="QuadContourSet_2">
    <path d="M 595.909306 240.754553 
L 598.24056 241.000008 
L 600.571815 241.219558 
L 602.903069 241.412683 
L 605.234323 241.578796 
L 607.565577 241.717242 
L 609.896831 241.827295 
L 612.228086 241.908156 
L 614.55934 241.958952 
L 616.890594 241.978734 
L 619.221848 241.966474 
L 621.553102 241.921063 
L 623.884357 241.841308 
L 626.215611 241.725927 
L 628.546865 241.573547 
L 630.878119 241.3827 
L 633.209373 241.151814 
L 635.540628 240.87921 
L 637.029396 240.677387 
L 637.871882 240.559096 
L 640.203136 240.184919 
L 642.53439 239.761647 
L 644.865644 239.287043 
L 645.759464 239.084568 
L 647.196898 238.747298 
L 649.528153 238.142307 
L 651.805659 237.491749 
L 651.859407 237.475847 
L 654.190661 236.720542 
L 656.513615 235.89893 
L 656.521915 235.89589 
L 658.853169 234.967399 
L 660.383938 234.306112 
L 661.184424 233.948009 
L 663.515678 232.820006 
L 663.720086 232.713293 
L 665.846932 231.563579 
L 666.608117 231.120474 
L 668.178186 230.174138 
L 669.176143 229.527655 
L 670.50944 228.633388 
L 671.480172 227.934836 
L 672.840695 226.921152 
L 673.566328 226.342018 
L 675.171949 225.015131 
L 675.472805 224.749199 
L 677.213151 223.15638 
L 677.503203 222.88154 
L 678.805259 221.563561 
L 679.834457 220.484462 
L 680.293723 219.970742 
L 681.668449 218.377924 
L 682.165711 217.781113 
L 682.944444 216.785105 
L 684.145822 215.192286 
L 684.496966 214.70986 
L 685.256188 213.599467 
L 686.306012 212.006648 
L 686.82822 211.184779 
L 687.288874 210.41383 
L 688.205702 208.821011 
L 689.087898 207.228192 
L 689.159474 207.094006 
L 689.891759 205.635373 
L 690.660034 204.042555 
L 691.39759 202.449736 
L 691.490728 202.240346 
L 692.070459 200.856917 
L 692.709879 199.264098 
L 693.32162 197.671279 
L 693.821982 196.308196 
L 693.901523 196.078461 
L 694.428381 194.485642 
L 694.929964 192.892823 
L 695.406604 191.300004 
L 695.85858 189.707185 
L 696.153237 188.610207 
L 696.278969 188.114367 
L 696.660444 186.521548 
L 697.018992 184.928729 
L 697.354766 183.33591 
L 697.667885 181.743091 
L 697.95844 180.150273 
L 698.226495 178.557454 
L 698.472087 176.964635 
L 698.484491 176.876335 
L 698.684204 175.371816 
L 698.87437 173.778997 
L 699.043227 172.186179 
L 699.190746 170.59336 
L 699.31688 169.000541 
L 699.421562 167.407722 
L 699.504707 165.814904 
L 699.566211 164.222085 
L 699.605951 162.629266 
L 699.623786 161.036447 
L 699.619554 159.443628 
L 699.593075 157.85081 
L 699.544145 156.257991 
L 699.472541 154.665172 
L 699.378014 153.072353 
L 699.260289 151.479534 
L 699.119064 149.886716 
L 698.954007 148.293897 
L 698.764752 146.701078 
L 698.550896 145.108259 
L 698.484491 144.666996 
L 698.303199 143.51544 
L 698.025536 141.922622 
L 697.720846 140.329803 
L 697.388593 138.736984 
L 697.02819 137.144165 
L 696.638983 135.551346 
L 696.22025 133.958528 
L 696.153237 133.721923 
L 695.752284 132.365709 
L 695.249006 130.77289 
L 694.712908 129.180071 
L 694.143 127.587253 
L 693.821982 126.744251 
L 693.524277 125.994434 
L 692.852907 124.401615 
L 692.14368 122.808796 
L 691.490728 121.420498 
L 691.390524 121.215977 
L 690.563807 119.623159 
L 689.694434 118.03034 
L 689.159474 117.100727 
L 688.762424 116.437521 
L 687.757806 114.844702 
L 686.82822 113.440136 
L 686.698688 113.251883 
L 685.54344 111.659065 
L 684.496966 110.281281 
L 684.327317 110.066246 
L 683.004946 108.473427 
L 682.165711 107.508715 
L 681.598766 106.880608 
L 680.091378 105.287789 
L 679.834457 105.02944 
L 678.459109 103.694971 
L 677.503203 102.809442 
L 676.712266 102.102152 
L 675.171949 100.787478 
L 674.834535 100.509333 
L 672.840695 98.941201 
L 672.808215 98.916514 
L 670.609698 97.323695 
L 670.50944 97.254433 
L 668.230112 95.730877 
L 668.178186 95.697785 
L 665.846932 94.260815 
L 665.641237 94.138058 
L 663.515678 92.929742 
L 662.817725 92.545239 
L 661.184424 91.688383 
L 659.737686 90.95242 
L 658.853169 90.523993 
L 656.521915 89.429209 
L 656.36864 89.359602 
L 654.190661 88.41872 
L 652.636768 87.766783 
L 651.859407 87.456491 
L 649.528153 86.555883 
L 648.508159 86.173964 
L 647.196898 85.707173 
L 644.865644 84.903044 
L 643.901808 84.581145 
L 642.53439 84.14718 
L 640.203136 83.430958 
L 638.716146 82.988326 
L 637.871882 82.749578 
L 635.540628 82.11331 
L 633.209373 81.496191 
L 632.814728 81.395508 
L 630.878119 80.92665 
L 628.546865 80.381188 
L 626.215611 79.853361 
L 625.982724 79.802689 
L 623.884357 79.36972 
L 621.553102 78.90602 
L 619.221848 78.458891 
L 617.870651 78.20987 
L 616.890594 78.038608 
L 614.55934 77.648632 
L 612.228086 77.274441 
L 609.896831 76.91582 
L 607.865712 76.617051 
L 607.565577 76.575213 
L 605.234323 76.266867 
L 602.903069 75.973567 
L 600.571815 75.695241 
L 598.24056 75.43187 
L 595.909306 75.183477 
L 594.3155 75.024232 
L 593.578052 74.954499 
L 591.246798 74.749394 
L 588.915544 74.55897 
L 586.584289 74.383323 
L 584.253035 74.222577 
L 581.921781 74.076888 
L 579.590527 73.946437 
L 577.259273 73.83143 
L 574.928018 73.732095 
L 572.596764 73.648682 
L 570.26551 73.581458 
L 567.934256 73.530712 
L 565.603002 73.496748 
L 563.271747 73.479888 
L 560.940493 73.480469 
L 558.609239 73.498847 
L 556.277985 73.535391 
L 553.946731 73.590491 
L 551.615477 73.664552 
L 549.284222 73.757999 
L 546.952968 73.871277 
L 544.621714 74.004854 
L 542.29046 74.159223 
L 539.959206 74.334905 
L 537.627951 74.532453 
L 535.296697 74.752457 
L 532.965443 74.995548 
L 532.714118 75.024232 
L 530.634189 75.278249 
L 528.302935 75.588648 
L 525.97168 75.925571 
L 523.640426 76.289833 
L 521.69595 76.617051 
L 521.309172 76.686804 
L 518.977918 77.137015 
L 516.646664 77.618783 
L 514.315409 78.133229 
L 513.988833 78.20987 
L 511.984155 78.714331 
L 509.652901 79.337446 
L 508.011489 79.802689 
L 507.321647 80.012654 
L 504.990393 80.762704 
L 503.129353 81.395508 
L 502.659138 81.567391 
L 500.327884 82.465381 
L 499.039097 82.988326 
L 497.99663 83.443499 
L 495.665376 84.513795 
L 495.525702 84.581145 
L 493.334122 85.719352 
L 492.499786 86.173964 
L 491.002867 87.053725 
L 489.844913 87.766783 
L 488.671613 88.547206 
L 487.50463 89.359602 
L 486.340359 90.23638 
L 485.430967 90.95242 
L 484.009105 92.165451 
L 483.582937 92.545239 
L 481.936429 94.138058 
L 481.677851 94.410168 
L 480.475358 95.730877 
L 479.346596 97.082162 
L 479.153108 97.323695 
L 477.986301 98.916514 
L 477.015342 100.369054 
L 476.925341 100.509333 
L 475.997096 102.102152 
L 475.156382 103.694971 
L 474.684088 104.687813 
L 474.409953 105.287789 
L 473.758037 106.880608 
L 473.177317 108.473427 
L 472.663957 110.066246 
L 472.352834 111.169079 
L 472.219949 111.659065 
L 471.846557 113.251883 
L 471.52831 114.844702 
L 471.26236 116.437521 
L 471.046045 118.03034 
L 470.876874 119.623159 
L 470.75251 121.215977 
L 470.670764 122.808796 
L 470.629582 124.401615 
L 470.627042 125.994434 
L 470.661343 127.587253 
L 470.730803 129.180071 
L 470.833854 130.77289 
L 470.969034 132.365709 
L 471.134987 133.958528 
L 471.330454 135.551346 
L 471.554274 137.144165 
L 471.80538 138.736984 
L 472.082789 140.329803 
L 472.352834 141.750382 
L 472.386886 141.922622 
L 472.726923 143.51544 
L 473.091466 145.108259 
L 473.479788 146.701078 
L 473.891235 148.293897 
L 474.325224 149.886716 
L 474.684088 151.140372 
L 474.78495 151.479534 
L 475.280496 153.072353 
L 475.797569 154.665172 
L 476.335789 156.257991 
L 476.894838 157.85081 
L 477.015342 158.182091 
L 477.491549 159.443628 
L 478.113318 161.036447 
L 478.7554 162.629266 
L 479.346596 164.051217 
L 479.420286 164.222085 
L 480.127496 165.814904 
L 480.854717 167.407722 
L 481.601925 169.000541 
L 481.677851 169.158185 
L 482.39413 170.59336 
L 483.209046 172.186179 
L 484.009105 173.712458 
L 484.04524 173.778997 
L 484.930778 175.371816 
L 485.83638 176.964635 
L 486.340359 177.831513 
L 486.777281 178.557454 
L 487.756592 180.150273 
L 488.671613 181.60798 
L 488.759383 181.743091 
L 489.815531 183.33591 
L 490.892438 184.928729 
L 491.002867 185.088825 
L 492.024788 186.521548 
L 493.182195 188.114367 
L 493.334122 188.319467 
L 494.396655 189.707185 
L 495.638163 191.300004 
L 495.665376 191.33427 
L 496.944225 192.892823 
L 497.99663 194.15335 
L 498.283242 194.485642 
L 499.681543 196.078461 
L 500.327884 196.80205 
L 501.12967 197.671279 
L 502.62384 199.264098 
L 502.659138 199.301067 
L 504.192556 200.856917 
L 504.990393 201.652968 
L 505.814576 202.449736 
L 507.321647 203.882569 
L 507.495297 204.042555 
L 509.253977 205.635373 
L 509.652901 205.990564 
L 511.086833 207.228192 
L 511.984155 207.989654 
L 512.994685 208.821011 
L 514.315409 209.889153 
L 514.984511 210.41383 
L 516.646664 211.694875 
L 517.063846 212.006648 
L 518.977918 213.412234 
L 519.240845 213.599467 
L 521.309172 215.046312 
L 521.524356 215.192286 
L 523.640426 216.601909 
L 523.924007 216.785105 
L 525.97168 218.083592 
L 526.45032 218.377924 
L 528.302935 219.495731 
L 529.114837 219.970742 
L 530.634189 220.842534 
L 531.930274 221.563561 
L 532.965443 222.128069 
L 534.910709 223.15638 
L 535.296697 223.35629 
L 537.627951 224.525985 
L 538.087229 224.749199 
L 539.959206 225.639923 
L 541.482536 226.342018 
L 542.29046 226.706368 
L 544.621714 227.723903 
L 545.12131 227.934836 
L 546.952968 228.690908 
L 549.0484 229.527655 
L 549.284222 229.619666 
L 551.615477 230.498019 
L 553.325465 231.120474 
L 553.946731 231.34125 
L 556.277985 232.140203 
L 558.011852 232.713293 
L 558.609239 232.905887 
L 560.940493 233.629281 
L 563.206447 234.306112 
L 563.271747 234.32512 
L 565.603002 234.976485 
L 567.934256 235.601687 
L 569.09142 235.89893 
L 570.26551 236.192514 
L 572.596764 236.74966 
L 574.928018 237.281501 
L 575.896319 237.491749 
L 577.259273 237.779513 
L 579.590527 238.246655 
L 581.921781 238.688936 
L 584.131916 239.084568 
L 584.253035 239.105628 
L 586.584289 239.486017 
L 588.915544 239.841619 
L 591.246798 240.172202 
L 593.578052 240.477463 
L 595.245687 240.677387 
L 595.909306 240.754553 
z
" clip-path="url(#p2c570e22cc)" style="fill: none; stroke: #008000; stroke-width: 2"/>
   </g>
   <g id="patch_8">
    <path d="M 425.72775 269.348125 
L 425.72775 32.018125 
" style="fill: none; stroke: #f0f0f0; stroke-width: 3; stroke-linejoin: miter; stroke-linecap: square"/>
   </g>
   <g id="patch_9">
    <path d="M 773.084625 269.348125 
L 773.084625 32.018125 
" style="fill: none; stroke: #f0f0f0; stroke-width: 3; stroke-linejoin: miter; stroke-linecap: square"/>
   </g>
   <g id="patch_10">
    <path d="M 425.72775 269.348125 
L 773.084625 269.348125 
" style="fill: none; stroke: #f0f0f0; stroke-width: 3; stroke-linejoin: miter; stroke-linecap: square"/>
   </g>
   <g id="patch_11">
    <path d="M 425.72775 32.018125 
L 773.084625 32.018125 
" style="fill: none; stroke: #f0f0f0; stroke-width: 3; stroke-linejoin: miter; stroke-linecap: square"/>
   </g>
   <g id="text_29">
    <!-- $\lambda = 1$ -->
    <g style="fill: #808080" transform="translate(587.106188 14.820313) scale(0.1 -0.1)">
     <use xlink:href="#DejaVuSans-Oblique-3bb" transform="translate(0 0.015625)"/>
     <use xlink:href="#DejaVuSans-3d" transform="translate(78.662109 0.015625)"/>
     <use xlink:href="#DejaVuSans-31" transform="translate(181.933594 0.015625)"/>
    </g>
    <!-- Train accuracy: 82.2% -->
    <g style="fill: #808080" transform="translate(544.469469 26.018125) scale(0.1 -0.1)">
     <use xlink:href="#DejaVuSans-54"/>
     <use xlink:href="#DejaVuSans-72" transform="translate(46.333984 0)"/>
     <use xlink:href="#DejaVuSans-61" transform="translate(87.447266 0)"/>
     <use xlink:href="#DejaVuSans-69" transform="translate(148.726562 0)"/>
     <use xlink:href="#DejaVuSans-6e" transform="translate(176.509766 0)"/>
     <use xlink:href="#DejaVuSans-20" transform="translate(239.888672 0)"/>
     <use xlink:href="#DejaVuSans-61" transform="translate(271.675781 0)"/>
     <use xlink:href="#DejaVuSans-63" transform="translate(332.955078 0)"/>
     <use xlink:href="#DejaVuSans-63" transform="translate(387.935547 0)"/>
     <use xlink:href="#DejaVuSans-75" transform="translate(442.916016 0)"/>
     <use xlink:href="#DejaVuSans-72" transform="translate(506.294922 0)"/>
     <use xlink:href="#DejaVuSans-61" transform="translate(547.408203 0)"/>
     <use xlink:href="#DejaVuSans-63" transform="translate(608.6875 0)"/>
     <use xlink:href="#DejaVuSans-79" transform="translate(663.667969 0)"/>
     <use xlink:href="#DejaVuSans-3a" transform="translate(715.597656 0)"/>
     <use xlink:href="#DejaVuSans-20" transform="translate(749.289062 0)"/>
     <use xlink:href="#DejaVuSans-38" transform="translate(781.076172 0)"/>
     <use xlink:href="#DejaVuSans-32" transform="translate(844.699219 0)"/>
     <use xlink:href="#DejaVuSans-2e" transform="translate(908.322266 0)"/>
     <use xlink:href="#DejaVuSans-32" transform="translate(940.109375 0)"/>
     <use xlink:href="#DejaVuSans-25" transform="translate(1003.732422 0)"/>
    </g>
   </g>
  </g>
 </g>
 <defs>
  <clipPath id="pe78f658a6f">
   <rect x="65.410875" y="32.018125" width="347.356875" height="237.33"/>
  </clipPath>
  <clipPath id="p2c570e22cc">
   <rect x="425.72775" y="32.018125" width="347.356875" height="237.33"/>
  </clipPath>
 </defs>
</svg>
