<?xml version="1.0" encoding="utf-8" standalone="no"?>
<!DOCTYPE svg PUBLIC "-//W3C//DTD SVG 1.1//EN"
  "http://www.w3.org/Graphics/SVG/1.1/DTD/svg11.dtd">
<svg xmlns:xlink="http://www.w3.org/1999/xlink" width="715.108077pt" height="209.397938pt" viewBox="0 0 715.108077 209.397938" xmlns="http://www.w3.org/2000/svg" version="1.1">
 <metadata>
  <rdf:RDF xmlns:dc="http://purl.org/dc/elements/1.1/" xmlns:cc="http://creativecommons.org/ns#" xmlns:rdf="http://www.w3.org/1999/02/22-rdf-syntax-ns#">
   <cc:Work>
    <dc:type rdf:resource="http://purl.org/dc/dcmitype/StillImage"/>
    <dc:date>2026-07-23T14:59:41.183559</dc:date>
    <dc:format>image/svg+xml</dc:format>
    <dc:creator>
     <cc:Agent>
      <dc:title>Matplotlib v3.10.8, https://matplotlib.org/</dc:title>
     </cc:Agent>
    </dc:creator>
   </cc:Work>
  </rdf:RDF>
 </metadata>
 <defs>
  <style type="text/css">*{stroke-linejoin: round; stroke-linecap: butt}</style>
 </defs>
 <g id="figure_1">
  <g id="patch_1">
   <path d="M 0 209.397938 
L 715.108077 209.397938 
L 715.108077 0 
L 0 0 
z
" style="fill: #ffffff"/>
  </g>
  <g id="axes_1">
   <g id="line2d_1">
    <path d="M 149.565721 77.457938 
L 187.338029 132.897938 
" clip-path="url(#p5c772830ac)" style="fill: none; stroke: #c00000; stroke-width: 2.6"/>
   </g>
   <g id="line2d_2">
    <path d="M 149.565721 132.897938 
L 187.338029 77.457938 
" clip-path="url(#p5c772830ac)" style="fill: none; stroke: #c00000; stroke-width: 2.6"/>
   </g>
   <g id="patch_2">
    <path d="M 118.515208 105.177938 
Q 168.45248 105.177938 216.153685 105.177938 
" style="fill: none; stroke: #888888; stroke-width: 2; stroke-linecap: round"/>
    <path d="M 212.953685 103.577938 
L 216.153685 105.177938 
L 212.953685 106.777938 
" style="fill: none; stroke: #888888; stroke-width: 2; stroke-linecap: round"/>
   </g>
   <g id="text_1">
    <!-- state $x$ -->
    <g transform="translate(72.571875 102.338406) scale(0.1 -0.1)">
     <defs>
      <path id="DejaVuSans-73" d="M 2834 3397 
L 2834 2853 
Q 2591 2978 2328 3040 
Q 2066 3103 1784 3103 
Q 1356 3103 1142 2972 
Q 928 2841 928 2578 
Q 928 2378 1081 2264 
Q 1234 2150 1697 2047 
L 1894 2003 
Q 2506 1872 2764 1633 
Q 3022 1394 3022 966 
Q 3022 478 2636 193 
Q 2250 -91 1575 -91 
Q 1294 -91 989 -36 
Q 684 19 347 128 
L 347 722 
Q 666 556 975 473 
Q 1284 391 1588 391 
Q 1994 391 2212 530 
Q 2431 669 2431 922 
Q 2431 1156 2273 1281 
Q 2116 1406 1581 1522 
L 1381 1569 
Q 847 1681 609 1914 
Q 372 2147 372 2553 
Q 372 3047 722 3315 
Q 1072 3584 1716 3584 
Q 2034 3584 2315 3537 
Q 2597 3491 2834 3397 
z
" transform="scale(0.015625)"/>
      <path id="DejaVuSans-74" d="M 1172 4494 
L 1172 3500 
L 2356 3500 
L 2356 3053 
L 1172 3053 
L 1172 1153 
Q 1172 725 1289 603 
Q 1406 481 1766 481 
L 2356 481 
L 2356 0 
L 1766 0 
Q 1100 0 847 248 
Q 594 497 594 1153 
L 594 3053 
L 172 3053 
L 172 3500 
L 594 3500 
L 594 4494 
L 1172 4494 
z
" transform="scale(0.015625)"/>
      <path id="DejaVuSans-61" d="M 2194 1759 
Q 1497 1759 1228 1600 
Q 959 1441 959 1056 
Q 959 750 1161 570 
Q 1363 391 1709 391 
Q 2188 391 2477 730 
Q 2766 1069 2766 1631 
L 2766 1759 
L 2194 1759 
z
M 3341 1997 
L 3341 0 
L 2766 0 
L 2766 531 
Q 2569 213 2275 61 
Q 1981 -91 1556 -91 
Q 1019 -91 701 211 
Q 384 513 384 1019 
Q 384 1609 779 1909 
Q 1175 2209 1959 2209 
L 2766 2209 
L 2766 2266 
Q 2766 2663 2505 2880 
Q 2244 3097 1772 3097 
Q 1472 3097 1187 3025 
Q 903 2953 641 2809 
L 641 3341 
Q 956 3463 1253 3523 
Q 1550 3584 1831 3584 
Q 2591 3584 2966 3190 
Q 3341 2797 3341 1997 
z
" transform="scale(0.015625)"/>
      <path id="DejaVuSans-65" d="M 3597 1894 
L 3597 1613 
L 953 1613 
Q 991 1019 1311 708 
Q 1631 397 2203 397 
Q 2534 397 2845 478 
Q 3156 559 3463 722 
L 3463 178 
Q 3153 47 2828 -22 
Q 2503 -91 2169 -91 
Q 1331 -91 842 396 
Q 353 884 353 1716 
Q 353 2575 817 3079 
Q 1281 3584 2069 3584 
Q 2775 3584 3186 3129 
Q 3597 2675 3597 1894 
z
M 3022 2063 
Q 3016 2534 2758 2815 
Q 2500 3097 2075 3097 
Q 1594 3097 1305 2825 
Q 1016 2553 972 2059 
L 3022 2063 
z
" transform="scale(0.015625)"/>
      <path id="DejaVuSans-20" transform="scale(0.015625)"/>
      <path id="DejaVuSans-Oblique-78" d="M 3841 3500 
L 2234 1784 
L 3219 0 
L 2559 0 
L 1819 1388 
L 531 0 
L -166 0 
L 1556 1844 
L 641 3500 
L 1300 3500 
L 1972 2234 
L 3144 3500 
L 3841 3500 
z
" transform="scale(0.015625)"/>
     </defs>
     <use xlink:href="#DejaVuSans-73" transform="translate(0 0.78125)"/>
     <use xlink:href="#DejaVuSans-74" transform="translate(52.099609 0.78125)"/>
     <use xlink:href="#DejaVuSans-61" transform="translate(91.308594 0.78125)"/>
     <use xlink:href="#DejaVuSans-74" transform="translate(152.587891 0.78125)"/>
     <use xlink:href="#DejaVuSans-65" transform="translate(191.796875 0.78125)"/>
     <use xlink:href="#DejaVuSans-20" transform="translate(253.320312 0.78125)"/>
     <use xlink:href="#DejaVuSans-Oblique-78" transform="translate(285.107422 0.78125)"/>
    </g>
    <!-- (position, speed, ...) -->
    <g transform="translate(7.2 113.536219) scale(0.1 -0.1)">
     <defs>
      <path id="DejaVuSans-28" d="M 1984 4856 
Q 1566 4138 1362 3434 
Q 1159 2731 1159 2009 
Q 1159 1288 1364 580 
Q 1569 -128 1984 -844 
L 1484 -844 
Q 1016 -109 783 600 
Q 550 1309 550 2009 
Q 550 2706 781 3412 
Q 1013 4119 1484 4856 
L 1984 4856 
z
" transform="scale(0.015625)"/>
      <path id="DejaVuSans-70" d="M 1159 525 
L 1159 -1331 
L 581 -1331 
L 581 3500 
L 1159 3500 
L 1159 2969 
Q 1341 3281 1617 3432 
Q 1894 3584 2278 3584 
Q 2916 3584 3314 3078 
Q 3713 2572 3713 1747 
Q 3713 922 3314 415 
Q 2916 -91 2278 -91 
Q 1894 -91 1617 61 
Q 1341 213 1159 525 
z
M 3116 1747 
Q 3116 2381 2855 2742 
Q 2594 3103 2138 3103 
Q 1681 3103 1420 2742 
Q 1159 2381 1159 1747 
Q 1159 1113 1420 752 
Q 1681 391 2138 391 
Q 2594 391 2855 752 
Q 3116 1113 3116 1747 
z
" transform="scale(0.015625)"/>
      <path id="DejaVuSans-6f" d="M 1959 3097 
Q 1497 3097 1228 2736 
Q 959 2375 959 1747 
Q 959 1119 1226 758 
Q 1494 397 1959 397 
Q 2419 397 2687 759 
Q 2956 1122 2956 1747 
Q 2956 2369 2687 2733 
Q 2419 3097 1959 3097 
z
M 1959 3584 
Q 2709 3584 3137 3096 
Q 3566 2609 3566 1747 
Q 3566 888 3137 398 
Q 2709 -91 1959 -91 
Q 1206 -91 779 398 
Q 353 888 353 1747 
Q 353 2609 779 3096 
Q 1206 3584 1959 3584 
z
" transform="scale(0.015625)"/>
      <path id="DejaVuSans-69" d="M 603 3500 
L 1178 3500 
L 1178 0 
L 603 0 
L 603 3500 
z
M 603 4863 
L 1178 4863 
L 1178 4134 
L 603 4134 
L 603 4863 
z
" transform="scale(0.015625)"/>
      <path id="DejaVuSans-6e" d="M 3513 2113 
L 3513 0 
L 2938 0 
L 2938 2094 
Q 2938 2591 2744 2837 
Q 2550 3084 2163 3084 
Q 1697 3084 1428 2787 
Q 1159 2491 1159 1978 
L 1159 0 
L 581 0 
L 581 3500 
L 1159 3500 
L 1159 2956 
Q 1366 3272 1645 3428 
Q 1925 3584 2291 3584 
Q 2894 3584 3203 3211 
Q 3513 2838 3513 2113 
z
" transform="scale(0.015625)"/>
      <path id="DejaVuSans-2c" d="M 750 794 
L 1409 794 
L 1409 256 
L 897 -744 
L 494 -744 
L 750 256 
L 750 794 
z
" transform="scale(0.015625)"/>
      <path id="DejaVuSans-64" d="M 2906 2969 
L 2906 4863 
L 3481 4863 
L 3481 0 
L 2906 0 
L 2906 525 
Q 2725 213 2448 61 
Q 2172 -91 1784 -91 
Q 1150 -91 751 415 
Q 353 922 353 1747 
Q 353 2572 751 3078 
Q 1150 3584 1784 3584 
Q 2172 3584 2448 3432 
Q 2725 3281 2906 2969 
z
M 947 1747 
Q 947 1113 1208 752 
Q 1469 391 1925 391 
Q 2381 391 2643 752 
Q 2906 1113 2906 1747 
Q 2906 2381 2643 2742 
Q 2381 3103 1925 3103 
Q 1469 3103 1208 2742 
Q 947 2381 947 1747 
z
" transform="scale(0.015625)"/>
      <path id="DejaVuSans-2e" d="M 684 794 
L 1344 794 
L 1344 0 
L 684 0 
L 684 794 
z
" transform="scale(0.015625)"/>
      <path id="DejaVuSans-29" d="M 513 4856 
L 1013 4856 
Q 1481 4119 1714 3412 
Q 1947 2706 1947 2009 
Q 1947 1309 1714 600 
Q 1481 -109 1013 -844 
L 513 -844 
Q 928 -128 1133 580 
Q 1338 1288 1338 2009 
Q 1338 2731 1133 3434 
Q 928 4138 513 4856 
z
" transform="scale(0.015625)"/>
     </defs>
     <use xlink:href="#DejaVuSans-28"/>
     <use xlink:href="#DejaVuSans-70" transform="translate(39.013672 0)"/>
     <use xlink:href="#DejaVuSans-6f" transform="translate(102.490234 0)"/>
     <use xlink:href="#DejaVuSans-73" transform="translate(163.671875 0)"/>
     <use xlink:href="#DejaVuSans-69" transform="translate(215.771484 0)"/>
     <use xlink:href="#DejaVuSans-74" transform="translate(243.554688 0)"/>
     <use xlink:href="#DejaVuSans-69" transform="translate(282.763672 0)"/>
     <use xlink:href="#DejaVuSans-6f" transform="translate(310.546875 0)"/>
     <use xlink:href="#DejaVuSans-6e" transform="translate(371.728516 0)"/>
     <use xlink:href="#DejaVuSans-2c" transform="translate(435.107422 0)"/>
     <use xlink:href="#DejaVuSans-20" transform="translate(466.894531 0)"/>
     <use xlink:href="#DejaVuSans-73" transform="translate(498.681641 0)"/>
     <use xlink:href="#DejaVuSans-70" transform="translate(550.78125 0)"/>
     <use xlink:href="#DejaVuSans-65" transform="translate(614.257812 0)"/>
     <use xlink:href="#DejaVuSans-65" transform="translate(675.78125 0)"/>
     <use xlink:href="#DejaVuSans-64" transform="translate(737.304688 0)"/>
     <use xlink:href="#DejaVuSans-2c" transform="translate(800.78125 0)"/>
     <use xlink:href="#DejaVuSans-20" transform="translate(832.568359 0)"/>
     <use xlink:href="#DejaVuSans-2e" transform="translate(864.355469 0)"/>
     <use xlink:href="#DejaVuSans-2e" transform="translate(896.142578 0)"/>
     <use xlink:href="#DejaVuSans-2e" transform="translate(927.929688 0)"/>
     <use xlink:href="#DejaVuSans-29" transform="translate(959.716797 0)"/>
    </g>
   </g>
   <g id="text_2">
    <!-- action $y$ -->
    <g transform="translate(229.831875 102.329031) scale(0.1 -0.1)">
     <defs>
      <path id="DejaVuSans-63" d="M 3122 3366 
L 3122 2828 
Q 2878 2963 2633 3030 
Q 2388 3097 2138 3097 
Q 1578 3097 1268 2742 
Q 959 2388 959 1747 
Q 959 1106 1268 751 
Q 1578 397 2138 397 
Q 2388 397 2633 464 
Q 2878 531 3122 666 
L 3122 134 
Q 2881 22 2623 -34 
Q 2366 -91 2075 -91 
Q 1284 -91 818 406 
Q 353 903 353 1747 
Q 353 2603 823 3093 
Q 1294 3584 2113 3584 
Q 2378 3584 2631 3529 
Q 2884 3475 3122 3366 
z
" transform="scale(0.015625)"/>
      <path id="DejaVuSans-Oblique-79" d="M 1588 -325 
Q 1188 -997 936 -1164 
Q 684 -1331 294 -1331 
L -159 -1331 
L -63 -850 
L 269 -850 
Q 509 -850 678 -719 
Q 847 -588 1056 -206 
L 1234 128 
L 459 3500 
L 1069 3500 
L 1650 819 
L 3256 3500 
L 3859 3500 
L 1588 -325 
z
" transform="scale(0.015625)"/>
     </defs>
     <use xlink:href="#DejaVuSans-61" transform="translate(0 0.015625)"/>
     <use xlink:href="#DejaVuSans-63" transform="translate(61.279297 0.015625)"/>
     <use xlink:href="#DejaVuSans-74" transform="translate(116.259766 0.015625)"/>
     <use xlink:href="#DejaVuSans-69" transform="translate(155.46875 0.015625)"/>
     <use xlink:href="#DejaVuSans-6f" transform="translate(183.251953 0.015625)"/>
     <use xlink:href="#DejaVuSans-6e" transform="translate(244.433594 0.015625)"/>
     <use xlink:href="#DejaVuSans-20" transform="translate(307.8125 0.015625)"/>
     <use xlink:href="#DejaVuSans-Oblique-79" transform="translate(339.599609 0.015625)"/>
    </g>
    <!-- (stick movement) -->
    <g transform="translate(229.831875 113.547156) scale(0.1 -0.1)">
     <defs>
      <path id="DejaVuSans-6b" d="M 581 4863 
L 1159 4863 
L 1159 1991 
L 2875 3500 
L 3609 3500 
L 1753 1863 
L 3688 0 
L 2938 0 
L 1159 1709 
L 1159 0 
L 581 0 
L 581 4863 
z
" transform="scale(0.015625)"/>
      <path id="DejaVuSans-6d" d="M 3328 2828 
Q 3544 3216 3844 3400 
Q 4144 3584 4550 3584 
Q 5097 3584 5394 3201 
Q 5691 2819 5691 2113 
L 5691 0 
L 5113 0 
L 5113 2094 
Q 5113 2597 4934 2840 
Q 4756 3084 4391 3084 
Q 3944 3084 3684 2787 
Q 3425 2491 3425 1978 
L 3425 0 
L 2847 0 
L 2847 2094 
Q 2847 2600 2669 2842 
Q 2491 3084 2119 3084 
Q 1678 3084 1418 2786 
Q 1159 2488 1159 1978 
L 1159 0 
L 581 0 
L 581 3500 
L 1159 3500 
L 1159 2956 
Q 1356 3278 1631 3431 
Q 1906 3584 2284 3584 
Q 2666 3584 2933 3390 
Q 3200 3197 3328 2828 
z
" transform="scale(0.015625)"/>
      <path id="DejaVuSans-76" d="M 191 3500 
L 800 3500 
L 1894 563 
L 2988 3500 
L 3597 3500 
L 2284 0 
L 1503 0 
L 191 3500 
z
" transform="scale(0.015625)"/>
     </defs>
     <use xlink:href="#DejaVuSans-28"/>
     <use xlink:href="#DejaVuSans-73" transform="translate(39.013672 0)"/>
     <use xlink:href="#DejaVuSans-74" transform="translate(91.113281 0)"/>
     <use xlink:href="#DejaVuSans-69" transform="translate(130.322266 0)"/>
     <use xlink:href="#DejaVuSans-63" transform="translate(158.105469 0)"/>
     <use xlink:href="#DejaVuSans-6b" transform="translate(213.085938 0)"/>
     <use xlink:href="#DejaVuSans-20" transform="translate(270.996094 0)"/>
     <use xlink:href="#DejaVuSans-6d" transform="translate(302.783203 0)"/>
     <use xlink:href="#DejaVuSans-6f" transform="translate(400.195312 0)"/>
     <use xlink:href="#DejaVuSans-76" transform="translate(461.376953 0)"/>
     <use xlink:href="#DejaVuSans-65" transform="translate(520.556641 0)"/>
     <use xlink:href="#DejaVuSans-6d" transform="translate(582.080078 0)"/>
     <use xlink:href="#DejaVuSans-65" transform="translate(679.492188 0)"/>
     <use xlink:href="#DejaVuSans-6e" transform="translate(741.015625 0)"/>
     <use xlink:href="#DejaVuSans-74" transform="translate(804.394531 0)"/>
     <use xlink:href="#DejaVuSans-29" transform="translate(843.603516 0)"/>
    </g>
   </g>
   <g id="text_3">
    <!-- supervised learning -->
    <g style="fill: #c00000" transform="translate(114.253672 15.558281) scale(0.11 -0.11)">
     <defs>
      <path id="DejaVuSans-75" d="M 544 1381 
L 544 3500 
L 1119 3500 
L 1119 1403 
Q 1119 906 1312 657 
Q 1506 409 1894 409 
Q 2359 409 2629 706 
Q 2900 1003 2900 1516 
L 2900 3500 
L 3475 3500 
L 3475 0 
L 2900 0 
L 2900 538 
Q 2691 219 2414 64 
Q 2138 -91 1772 -91 
Q 1169 -91 856 284 
Q 544 659 544 1381 
z
M 1991 3584 
L 1991 3584 
z
" transform="scale(0.015625)"/>
      <path id="DejaVuSans-72" d="M 2631 2963 
Q 2534 3019 2420 3045 
Q 2306 3072 2169 3072 
Q 1681 3072 1420 2755 
Q 1159 2438 1159 1844 
L 1159 0 
L 581 0 
L 581 3500 
L 1159 3500 
L 1159 2956 
Q 1341 3275 1631 3429 
Q 1922 3584 2338 3584 
Q 2397 3584 2469 3576 
Q 2541 3569 2628 3553 
L 2631 2963 
z
" transform="scale(0.015625)"/>
      <path id="DejaVuSans-6c" d="M 603 4863 
L 1178 4863 
L 1178 0 
L 603 0 
L 603 4863 
z
" transform="scale(0.015625)"/>
      <path id="DejaVuSans-67" d="M 2906 1791 
Q 2906 2416 2648 2759 
Q 2391 3103 1925 3103 
Q 1463 3103 1205 2759 
Q 947 2416 947 1791 
Q 947 1169 1205 825 
Q 1463 481 1925 481 
Q 2391 481 2648 825 
Q 2906 1169 2906 1791 
z
M 3481 434 
Q 3481 -459 3084 -895 
Q 2688 -1331 1869 -1331 
Q 1566 -1331 1297 -1286 
Q 1028 -1241 775 -1147 
L 775 -588 
Q 1028 -725 1275 -790 
Q 1522 -856 1778 -856 
Q 2344 -856 2625 -561 
Q 2906 -266 2906 331 
L 2906 616 
Q 2728 306 2450 153 
Q 2172 0 1784 0 
Q 1141 0 747 490 
Q 353 981 353 1791 
Q 353 2603 747 3093 
Q 1141 3584 1784 3584 
Q 2172 3584 2450 3431 
Q 2728 3278 2906 2969 
L 2906 3500 
L 3481 3500 
L 3481 434 
z
" transform="scale(0.015625)"/>
     </defs>
     <use xlink:href="#DejaVuSans-73"/>
     <use xlink:href="#DejaVuSans-75" transform="translate(52.099609 0)"/>
     <use xlink:href="#DejaVuSans-70" transform="translate(115.478516 0)"/>
     <use xlink:href="#DejaVuSans-65" transform="translate(178.955078 0)"/>
     <use xlink:href="#DejaVuSans-72" transform="translate(240.478516 0)"/>
     <use xlink:href="#DejaVuSans-76" transform="translate(281.591797 0)"/>
     <use xlink:href="#DejaVuSans-69" transform="translate(340.771484 0)"/>
     <use xlink:href="#DejaVuSans-73" transform="translate(368.554688 0)"/>
     <use xlink:href="#DejaVuSans-65" transform="translate(420.654297 0)"/>
     <use xlink:href="#DejaVuSans-64" transform="translate(482.177734 0)"/>
     <use xlink:href="#DejaVuSans-20" transform="translate(545.654297 0)"/>
     <use xlink:href="#DejaVuSans-6c" transform="translate(577.441406 0)"/>
     <use xlink:href="#DejaVuSans-65" transform="translate(605.224609 0)"/>
     <use xlink:href="#DejaVuSans-61" transform="translate(666.748047 0)"/>
     <use xlink:href="#DejaVuSans-72" transform="translate(728.027344 0)"/>
     <use xlink:href="#DejaVuSans-6e" transform="translate(767.390625 0)"/>
     <use xlink:href="#DejaVuSans-69" transform="translate(830.769531 0)"/>
     <use xlink:href="#DejaVuSans-6e" transform="translate(858.552734 0)"/>
     <use xlink:href="#DejaVuSans-67" transform="translate(921.931641 0)"/>
    </g>
    <!-- one "correct" label $y$ per state? -->
    <g style="fill: #c00000" transform="translate(82.376875 27.877938) scale(0.11 -0.11)">
     <defs>
      <path id="DejaVuSans-22" d="M 1147 4666 
L 1147 2931 
L 616 2931 
L 616 4666 
L 1147 4666 
z
M 2328 4666 
L 2328 2931 
L 1797 2931 
L 1797 4666 
L 2328 4666 
z
" transform="scale(0.015625)"/>
      <path id="DejaVuSans-62" d="M 3116 1747 
Q 3116 2381 2855 2742 
Q 2594 3103 2138 3103 
Q 1681 3103 1420 2742 
Q 1159 2381 1159 1747 
Q 1159 1113 1420 752 
Q 1681 391 2138 391 
Q 2594 391 2855 752 
Q 3116 1113 3116 1747 
z
M 1159 2969 
Q 1341 3281 1617 3432 
Q 1894 3584 2278 3584 
Q 2916 3584 3314 3078 
Q 3713 2572 3713 1747 
Q 3713 922 3314 415 
Q 2916 -91 2278 -91 
Q 1894 -91 1617 61 
Q 1341 213 1159 525 
L 1159 0 
L 581 0 
L 581 4863 
L 1159 4863 
L 1159 2969 
z
" transform="scale(0.015625)"/>
      <path id="DejaVuSans-3f" d="M 1222 794 
L 1856 794 
L 1856 0 
L 1222 0 
L 1222 794 
z
M 1838 1253 
L 1241 1253 
L 1241 1734 
Q 1241 2050 1328 2253 
Q 1416 2456 1697 2725 
L 1978 3003 
Q 2156 3169 2236 3316 
Q 2316 3463 2316 3616 
Q 2316 3894 2111 4066 
Q 1906 4238 1569 4238 
Q 1322 4238 1042 4128 
Q 763 4019 459 3809 
L 459 4397 
Q 753 4575 1054 4662 
Q 1356 4750 1678 4750 
Q 2253 4750 2601 4447 
Q 2950 4144 2950 3647 
Q 2950 3409 2837 3195 
Q 2725 2981 2444 2713 
L 2169 2444 
Q 2022 2297 1961 2214 
Q 1900 2131 1875 2053 
Q 1856 1988 1847 1894 
Q 1838 1800 1838 1638 
L 1838 1253 
z
" transform="scale(0.015625)"/>
     </defs>
     <use xlink:href="#DejaVuSans-6f" transform="translate(0 0.015625)"/>
     <use xlink:href="#DejaVuSans-6e" transform="translate(61.181641 0.015625)"/>
     <use xlink:href="#DejaVuSans-65" transform="translate(124.560547 0.015625)"/>
     <use xlink:href="#DejaVuSans-20" transform="translate(186.083984 0.015625)"/>
     <use xlink:href="#DejaVuSans-22" transform="translate(217.871094 0.015625)"/>
     <use xlink:href="#DejaVuSans-63" transform="translate(263.867188 0.015625)"/>
     <use xlink:href="#DejaVuSans-6f" transform="translate(318.847656 0.015625)"/>
     <use xlink:href="#DejaVuSans-72" transform="translate(380.029297 0.015625)"/>
     <use xlink:href="#DejaVuSans-72" transform="translate(421.142578 0.015625)"/>
     <use xlink:href="#DejaVuSans-65" transform="translate(462.255859 0.015625)"/>
     <use xlink:href="#DejaVuSans-63" transform="translate(523.779297 0.015625)"/>
     <use xlink:href="#DejaVuSans-74" transform="translate(578.759766 0.015625)"/>
     <use xlink:href="#DejaVuSans-22" transform="translate(617.96875 0.015625)"/>
     <use xlink:href="#DejaVuSans-20" transform="translate(663.964844 0.015625)"/>
     <use xlink:href="#DejaVuSans-6c" transform="translate(695.751953 0.015625)"/>
     <use xlink:href="#DejaVuSans-61" transform="translate(723.535156 0.015625)"/>
     <use xlink:href="#DejaVuSans-62" transform="translate(784.814453 0.015625)"/>
     <use xlink:href="#DejaVuSans-65" transform="translate(848.291016 0.015625)"/>
     <use xlink:href="#DejaVuSans-6c" transform="translate(909.814453 0.015625)"/>
     <use xlink:href="#DejaVuSans-20" transform="translate(937.597656 0.015625)"/>
     <use xlink:href="#DejaVuSans-Oblique-79" transform="translate(969.384766 0.015625)"/>
     <use xlink:href="#DejaVuSans-20" transform="translate(1028.564453 0.015625)"/>
     <use xlink:href="#DejaVuSans-70" transform="translate(1060.351562 0.015625)"/>
     <use xlink:href="#DejaVuSans-65" transform="translate(1123.828125 0.015625)"/>
     <use xlink:href="#DejaVuSans-72" transform="translate(1185.351562 0.015625)"/>
     <use xlink:href="#DejaVuSans-20" transform="translate(1226.464844 0.015625)"/>
     <use xlink:href="#DejaVuSans-73" transform="translate(1258.251953 0.015625)"/>
     <use xlink:href="#DejaVuSans-74" transform="translate(1310.351562 0.015625)"/>
     <use xlink:href="#DejaVuSans-61" transform="translate(1349.560547 0.015625)"/>
     <use xlink:href="#DejaVuSans-74" transform="translate(1410.839844 0.015625)"/>
     <use xlink:href="#DejaVuSans-65" transform="translate(1450.048828 0.015625)"/>
     <use xlink:href="#DejaVuSans-3f" transform="translate(1511.572266 0.015625)"/>
    </g>
   </g>
  </g>
  <g id="axes_2">
   <g id="patch_3">
    <path d="M 496.238285 77.457938 
Q 546.175557 77.457938 593.876762 77.457938 
" style="fill: none; stroke: #2e8b57; stroke-width: 2; stroke-linecap: round"/>
    <path d="M 590.676762 75.857938 
L 593.876762 77.457938 
L 590.676762 79.057938 
" style="fill: none; stroke: #2e8b57; stroke-width: 2; stroke-linecap: round"/>
   </g>
   <g id="text_4">
    <!-- state $s$ -->
    <g transform="translate(450.994952 80.217313) scale(0.1 -0.1)">
     <defs>
      <path id="DejaVuSans-Oblique-73" d="M 3200 3397 
L 3091 2853 
Q 2863 2978 2609 3040 
Q 2356 3103 2088 3103 
Q 1634 3103 1373 2948 
Q 1113 2794 1113 2528 
Q 1113 2219 1719 2053 
Q 1766 2041 1788 2034 
L 1972 1978 
Q 2547 1819 2739 1644 
Q 2931 1469 2931 1166 
Q 2931 609 2489 259 
Q 2047 -91 1331 -91 
Q 1053 -91 747 -37 
Q 441 16 72 128 
L 184 722 
Q 500 559 806 475 
Q 1113 391 1394 391 
Q 1816 391 2080 572 
Q 2344 753 2344 1031 
Q 2344 1331 1650 1516 
L 1591 1531 
L 1394 1581 
Q 956 1697 753 1886 
Q 550 2075 550 2369 
Q 550 2928 970 3256 
Q 1391 3584 2113 3584 
Q 2397 3584 2667 3537 
Q 2938 3491 3200 3397 
z
" transform="scale(0.015625)"/>
     </defs>
     <use xlink:href="#DejaVuSans-73" transform="translate(0 0.78125)"/>
     <use xlink:href="#DejaVuSans-74" transform="translate(52.099609 0.78125)"/>
     <use xlink:href="#DejaVuSans-61" transform="translate(91.308594 0.78125)"/>
     <use xlink:href="#DejaVuSans-74" transform="translate(152.587891 0.78125)"/>
     <use xlink:href="#DejaVuSans-65" transform="translate(191.796875 0.78125)"/>
     <use xlink:href="#DejaVuSans-20" transform="translate(253.320312 0.78125)"/>
     <use xlink:href="#DejaVuSans-Oblique-73" transform="translate(285.107422 0.78125)"/>
    </g>
   </g>
   <g id="text_5">
    <!-- action $a$ -->
    <g transform="translate(607.554952 74.618406) scale(0.1 -0.1)">
     <defs>
      <path id="DejaVuSans-Oblique-61" d="M 3438 1997 
L 3047 0 
L 2472 0 
L 2578 531 
Q 2325 219 2001 64 
Q 1678 -91 1281 -91 
Q 834 -91 548 182 
Q 263 456 263 884 
Q 263 1497 752 1853 
Q 1241 2209 2100 2209 
L 2900 2209 
L 2931 2363 
Q 2938 2388 2941 2417 
Q 2944 2447 2944 2509 
Q 2944 2788 2717 2942 
Q 2491 3097 2081 3097 
Q 1800 3097 1504 3025 
Q 1209 2953 897 2809 
L 997 3341 
Q 1322 3463 1633 3523 
Q 1944 3584 2234 3584 
Q 2853 3584 3176 3315 
Q 3500 3047 3500 2534 
Q 3500 2431 3484 2292 
Q 3469 2153 3438 1997 
z
M 2816 1759 
L 2241 1759 
Q 1534 1759 1195 1570 
Q 856 1381 856 984 
Q 856 709 1029 553 
Q 1203 397 1509 397 
Q 1978 397 2328 733 
Q 2678 1069 2791 1631 
L 2816 1759 
z
" transform="scale(0.015625)"/>
     </defs>
     <use xlink:href="#DejaVuSans-61" transform="translate(0 0.015625)"/>
     <use xlink:href="#DejaVuSans-63" transform="translate(61.279297 0.015625)"/>
     <use xlink:href="#DejaVuSans-74" transform="translate(116.259766 0.015625)"/>
     <use xlink:href="#DejaVuSans-69" transform="translate(155.46875 0.015625)"/>
     <use xlink:href="#DejaVuSans-6f" transform="translate(183.251953 0.015625)"/>
     <use xlink:href="#DejaVuSans-6e" transform="translate(244.433594 0.015625)"/>
     <use xlink:href="#DejaVuSans-20" transform="translate(307.8125 0.015625)"/>
     <use xlink:href="#DejaVuSans-Oblique-61" transform="translate(339.599609 0.015625)"/>
    </g>
    <!-- (the policy's choice) -->
    <g transform="translate(607.554952 85.816219) scale(0.1 -0.1)">
     <defs>
      <path id="DejaVuSans-68" d="M 3513 2113 
L 3513 0 
L 2938 0 
L 2938 2094 
Q 2938 2591 2744 2837 
Q 2550 3084 2163 3084 
Q 1697 3084 1428 2787 
Q 1159 2491 1159 1978 
L 1159 0 
L 581 0 
L 581 4863 
L 1159 4863 
L 1159 2956 
Q 1366 3272 1645 3428 
Q 1925 3584 2291 3584 
Q 2894 3584 3203 3211 
Q 3513 2838 3513 2113 
z
" transform="scale(0.015625)"/>
      <path id="DejaVuSans-79" d="M 2059 -325 
Q 1816 -950 1584 -1140 
Q 1353 -1331 966 -1331 
L 506 -1331 
L 506 -850 
L 844 -850 
Q 1081 -850 1212 -737 
Q 1344 -625 1503 -206 
L 1606 56 
L 191 3500 
L 800 3500 
L 1894 763 
L 2988 3500 
L 3597 3500 
L 2059 -325 
z
" transform="scale(0.015625)"/>
      <path id="DejaVuSans-27" d="M 1147 4666 
L 1147 2931 
L 616 2931 
L 616 4666 
L 1147 4666 
z
" transform="scale(0.015625)"/>
     </defs>
     <use xlink:href="#DejaVuSans-28"/>
     <use xlink:href="#DejaVuSans-74" transform="translate(39.013672 0)"/>
     <use xlink:href="#DejaVuSans-68" transform="translate(78.222656 0)"/>
     <use xlink:href="#DejaVuSans-65" transform="translate(141.601562 0)"/>
     <use xlink:href="#DejaVuSans-20" transform="translate(203.125 0)"/>
     <use xlink:href="#DejaVuSans-70" transform="translate(234.912109 0)"/>
     <use xlink:href="#DejaVuSans-6f" transform="translate(298.388672 0)"/>
     <use xlink:href="#DejaVuSans-6c" transform="translate(359.570312 0)"/>
     <use xlink:href="#DejaVuSans-69" transform="translate(387.353516 0)"/>
     <use xlink:href="#DejaVuSans-63" transform="translate(415.136719 0)"/>
     <use xlink:href="#DejaVuSans-79" transform="translate(470.117188 0)"/>
     <use xlink:href="#DejaVuSans-27" transform="translate(529.296875 0)"/>
     <use xlink:href="#DejaVuSans-73" transform="translate(556.787109 0)"/>
     <use xlink:href="#DejaVuSans-20" transform="translate(608.886719 0)"/>
     <use xlink:href="#DejaVuSans-63" transform="translate(640.673828 0)"/>
     <use xlink:href="#DejaVuSans-68" transform="translate(695.654297 0)"/>
     <use xlink:href="#DejaVuSans-6f" transform="translate(759.033203 0)"/>
     <use xlink:href="#DejaVuSans-69" transform="translate(820.214844 0)"/>
     <use xlink:href="#DejaVuSans-63" transform="translate(847.998047 0)"/>
     <use xlink:href="#DejaVuSans-65" transform="translate(902.978516 0)"/>
     <use xlink:href="#DejaVuSans-29" transform="translate(964.501953 0)"/>
    </g>
   </g>
   <g id="patch_4">
    <path d="M 546.174952 166.932088 
Q 546.174952 135.667388 546.174952 106.638756 
" style="fill: none; stroke: #0096ff; stroke-width: 2; stroke-linecap: round"/>
    <path d="M 544.574952 109.838756 
L 546.174952 106.638756 
L 547.774952 109.838756 
" style="fill: none; stroke: #0096ff; stroke-width: 2; stroke-linecap: round"/>
   </g>
   <g id="text_6">
    <!-- reward $R(s)$: good or bad? -->
    <g style="fill: #0096ff" transform="translate(484.234952 183.570938) scale(0.095 -0.095)">
     <defs>
      <path id="DejaVuSans-77" d="M 269 3500 
L 844 3500 
L 1563 769 
L 2278 3500 
L 2956 3500 
L 3675 769 
L 4391 3500 
L 4966 3500 
L 4050 0 
L 3372 0 
L 2619 2869 
L 1863 0 
L 1184 0 
L 269 3500 
z
" transform="scale(0.015625)"/>
      <path id="DejaVuSans-Oblique-52" d="M 1613 4147 
L 1294 2491 
L 2106 2491 
Q 2584 2491 2879 2755 
Q 3175 3019 3175 3444 
Q 3175 3784 2976 3965 
Q 2778 4147 2406 4147 
L 1613 4147 
z
M 2772 2241 
Q 2972 2194 3105 2009 
Q 3238 1825 3413 1275 
L 3809 0 
L 3144 0 
L 2778 1197 
Q 2638 1659 2453 1815 
Q 2269 1972 1888 1972 
L 1191 1972 
L 806 0 
L 172 0 
L 1081 4666 
L 2503 4666 
Q 3150 4666 3495 4373 
Q 3841 4081 3841 3531 
Q 3841 3044 3547 2687 
Q 3253 2331 2772 2241 
z
" transform="scale(0.015625)"/>
      <path id="DejaVuSans-3a" d="M 750 794 
L 1409 794 
L 1409 0 
L 750 0 
L 750 794 
z
M 750 3309 
L 1409 3309 
L 1409 2516 
L 750 2516 
L 750 3309 
z
" transform="scale(0.015625)"/>
     </defs>
     <use xlink:href="#DejaVuSans-72" transform="translate(0 0.015625)"/>
     <use xlink:href="#DejaVuSans-65" transform="translate(41.113281 0.015625)"/>
     <use xlink:href="#DejaVuSans-77" transform="translate(102.636719 0.015625)"/>
     <use xlink:href="#DejaVuSans-61" transform="translate(184.423828 0.015625)"/>
     <use xlink:href="#DejaVuSans-72" transform="translate(245.703125 0.015625)"/>
     <use xlink:href="#DejaVuSans-64" transform="translate(286.816406 0.015625)"/>
     <use xlink:href="#DejaVuSans-20" transform="translate(350.292969 0.015625)"/>
     <use xlink:href="#DejaVuSans-Oblique-52" transform="translate(382.080078 0.015625)"/>
     <use xlink:href="#DejaVuSans-28" transform="translate(451.5625 0.015625)"/>
     <use xlink:href="#DejaVuSans-Oblique-73" transform="translate(490.576172 0.015625)"/>
     <use xlink:href="#DejaVuSans-29" transform="translate(542.675781 0.015625)"/>
     <use xlink:href="#DejaVuSans-3a" transform="translate(581.689453 0.015625)"/>
     <use xlink:href="#DejaVuSans-20" transform="translate(615.380859 0.015625)"/>
     <use xlink:href="#DejaVuSans-67" transform="translate(647.167969 0.015625)"/>
     <use xlink:href="#DejaVuSans-6f" transform="translate(710.644531 0.015625)"/>
     <use xlink:href="#DejaVuSans-6f" transform="translate(771.826172 0.015625)"/>
     <use xlink:href="#DejaVuSans-64" transform="translate(833.007812 0.015625)"/>
     <use xlink:href="#DejaVuSans-20" transform="translate(896.484375 0.015625)"/>
     <use xlink:href="#DejaVuSans-6f" transform="translate(928.271484 0.015625)"/>
     <use xlink:href="#DejaVuSans-72" transform="translate(989.453125 0.015625)"/>
     <use xlink:href="#DejaVuSans-20" transform="translate(1030.566406 0.015625)"/>
     <use xlink:href="#DejaVuSans-62" transform="translate(1062.353516 0.015625)"/>
     <use xlink:href="#DejaVuSans-61" transform="translate(1125.830078 0.015625)"/>
     <use xlink:href="#DejaVuSans-64" transform="translate(1187.109375 0.015625)"/>
     <use xlink:href="#DejaVuSans-3f" transform="translate(1250.585938 0.015625)"/>
    </g>
   </g>
   <g id="text_7">
    <!-- reinforcement learning -->
    <g style="fill: #2e8b57" transform="translate(483.223155 15.560344) scale(0.11 -0.11)">
     <defs>
      <path id="DejaVuSans-66" d="M 2375 4863 
L 2375 4384 
L 1825 4384 
Q 1516 4384 1395 4259 
Q 1275 4134 1275 3809 
L 1275 3500 
L 2222 3500 
L 2222 3053 
L 1275 3053 
L 1275 0 
L 697 0 
L 697 3053 
L 147 3053 
L 147 3500 
L 697 3500 
L 697 3744 
Q 697 4328 969 4595 
Q 1241 4863 1831 4863 
L 2375 4863 
z
" transform="scale(0.015625)"/>
     </defs>
     <use xlink:href="#DejaVuSans-72"/>
     <use xlink:href="#DejaVuSans-65" transform="translate(38.863281 0)"/>
     <use xlink:href="#DejaVuSans-69" transform="translate(100.386719 0)"/>
     <use xlink:href="#DejaVuSans-6e" transform="translate(128.169922 0)"/>
     <use xlink:href="#DejaVuSans-66" transform="translate(191.548828 0)"/>
     <use xlink:href="#DejaVuSans-6f" transform="translate(226.753906 0)"/>
     <use xlink:href="#DejaVuSans-72" transform="translate(287.935547 0)"/>
     <use xlink:href="#DejaVuSans-63" transform="translate(326.798828 0)"/>
     <use xlink:href="#DejaVuSans-65" transform="translate(381.779297 0)"/>
     <use xlink:href="#DejaVuSans-6d" transform="translate(443.302734 0)"/>
     <use xlink:href="#DejaVuSans-65" transform="translate(540.714844 0)"/>
     <use xlink:href="#DejaVuSans-6e" transform="translate(602.238281 0)"/>
     <use xlink:href="#DejaVuSans-74" transform="translate(665.617188 0)"/>
     <use xlink:href="#DejaVuSans-20" transform="translate(704.826172 0)"/>
     <use xlink:href="#DejaVuSans-6c" transform="translate(736.613281 0)"/>
     <use xlink:href="#DejaVuSans-65" transform="translate(764.396484 0)"/>
     <use xlink:href="#DejaVuSans-61" transform="translate(825.919922 0)"/>
     <use xlink:href="#DejaVuSans-72" transform="translate(887.199219 0)"/>
     <use xlink:href="#DejaVuSans-6e" transform="translate(926.5625 0)"/>
     <use xlink:href="#DejaVuSans-69" transform="translate(989.941406 0)"/>
     <use xlink:href="#DejaVuSans-6e" transform="translate(1017.724609 0)"/>
     <use xlink:href="#DejaVuSans-67" transform="translate(1081.103516 0)"/>
    </g>
    <!-- a reward, not a label -->
    <g style="fill: #2e8b57" transform="translate(489.338468 27.877938) scale(0.11 -0.11)">
     <use xlink:href="#DejaVuSans-61"/>
     <use xlink:href="#DejaVuSans-20" transform="translate(61.279297 0)"/>
     <use xlink:href="#DejaVuSans-72" transform="translate(93.066406 0)"/>
     <use xlink:href="#DejaVuSans-65" transform="translate(131.929688 0)"/>
     <use xlink:href="#DejaVuSans-77" transform="translate(193.453125 0)"/>
     <use xlink:href="#DejaVuSans-61" transform="translate(275.240234 0)"/>
     <use xlink:href="#DejaVuSans-72" transform="translate(336.519531 0)"/>
     <use xlink:href="#DejaVuSans-64" transform="translate(375.882812 0)"/>
     <use xlink:href="#DejaVuSans-2c" transform="translate(439.359375 0)"/>
     <use xlink:href="#DejaVuSans-20" transform="translate(471.146484 0)"/>
     <use xlink:href="#DejaVuSans-6e" transform="translate(502.933594 0)"/>
     <use xlink:href="#DejaVuSans-6f" transform="translate(566.3125 0)"/>
     <use xlink:href="#DejaVuSans-74" transform="translate(627.494141 0)"/>
     <use xlink:href="#DejaVuSans-20" transform="translate(666.703125 0)"/>
     <use xlink:href="#DejaVuSans-61" transform="translate(698.490234 0)"/>
     <use xlink:href="#DejaVuSans-20" transform="translate(759.769531 0)"/>
     <use xlink:href="#DejaVuSans-6c" transform="translate(791.556641 0)"/>
     <use xlink:href="#DejaVuSans-61" transform="translate(819.339844 0)"/>
     <use xlink:href="#DejaVuSans-62" transform="translate(880.619141 0)"/>
     <use xlink:href="#DejaVuSans-65" transform="translate(944.095703 0)"/>
     <use xlink:href="#DejaVuSans-6c" transform="translate(1005.619141 0)"/>
    </g>
   </g>
  </g>
 </g>
 <defs>
  <clipPath id="p5c772830ac">
   <rect x="50.413413" y="35.877938" width="236.076923" height="166.32"/>
  </clipPath>
 </defs>
</svg>
