<?xml version="1.0" encoding="utf-8" standalone="no"?>
<!DOCTYPE svg PUBLIC "-//W3C//DTD SVG 1.1//EN"
  "http://www.w3.org/Graphics/SVG/1.1/DTD/svg11.dtd">
<svg xmlns:xlink="http://www.w3.org/1999/xlink" width="515.848425pt" height="274.66035pt" viewBox="0 0 515.848425 274.66035" xmlns="http://www.w3.org/2000/svg" version="1.1">
 <metadata>
  <rdf:RDF xmlns:dc="http://purl.org/dc/elements/1.1/" xmlns:cc="http://creativecommons.org/ns#" xmlns:rdf="http://www.w3.org/1999/02/22-rdf-syntax-ns#">
   <cc:Work>
    <dc:type rdf:resource="http://purl.org/dc/dcmitype/StillImage"/>
    <dc:date>2026-07-08T14:51:26.379654</dc:date>
    <dc:format>image/svg+xml</dc:format>
    <dc:creator>
     <cc:Agent>
      <dc:title>Matplotlib v3.10.8, https://matplotlib.org/</dc:title>
     </cc:Agent>
    </dc:creator>
   </cc:Work>
  </rdf:RDF>
 </metadata>
 <defs>
  <style type="text/css">*{stroke-linejoin: round; stroke-linecap: butt}</style>
 </defs>
 <g id="figure_1">
  <g id="patch_1">
   <path d="M 0 274.66035 
L 515.848425 274.66035 
L 515.848425 0 
L 0 0 
z
" style="fill: #ffffff"/>
  </g>
  <g id="axes_1">
   <g id="patch_2">
    <path d="M 47.75175 234.4101 
L 481.863 234.4101 
L 481.863 26.3301 
L 47.75175 26.3301 
z
" style="fill: #ffffff"/>
   </g>
   <g id="matplotlib.axis_1">
    <g id="xtick_1">
     <g id="line2d_1">
      <path d="M 67.48408 234.4101 
L 67.48408 26.3301 
" clip-path="url(#p381651132a)" style="fill: none; stroke-dasharray: 3.7,1.6; stroke-dashoffset: 0; stroke: #cbcbcb; stroke-opacity: 0.35"/>
     </g>
     <g id="line2d_2"/>
     <g id="text_1">
      <!-- −2 -->
      <g transform="translate(58.638767 247.028225) scale(0.12 -0.12)">
       <defs>
        <path id="DejaVuSans-2212" d="M 678 2272 
L 4684 2272 
L 4684 1741 
L 678 1741 
L 678 2272 
z
" transform="scale(0.015625)"/>
        <path id="DejaVuSans-32" d="M 1228 531 
L 3431 531 
L 3431 0 
L 469 0 
L 469 531 
Q 828 903 1448 1529 
Q 2069 2156 2228 2338 
Q 2531 2678 2651 2914 
Q 2772 3150 2772 3378 
Q 2772 3750 2511 3984 
Q 2250 4219 1831 4219 
Q 1534 4219 1204 4116 
Q 875 4013 500 3803 
L 500 4441 
Q 881 4594 1212 4672 
Q 1544 4750 1819 4750 
Q 2544 4750 2975 4387 
Q 3406 4025 3406 3419 
Q 3406 3131 3298 2873 
Q 3191 2616 2906 2266 
Q 2828 2175 2409 1742 
Q 1991 1309 1228 531 
z
" transform="scale(0.015625)"/>
       </defs>
       <use xlink:href="#DejaVuSans-2212"/>
       <use xlink:href="#DejaVuSans-32" transform="translate(83.789062 0)"/>
      </g>
     </g>
    </g>
    <g id="xtick_2">
     <g id="line2d_3">
      <path d="M 116.814903 234.4101 
L 116.814903 26.3301 
" clip-path="url(#p381651132a)" style="fill: none; stroke-dasharray: 3.7,1.6; stroke-dashoffset: 0; stroke: #cbcbcb; stroke-opacity: 0.35"/>
     </g>
     <g id="line2d_4"/>
     <g id="text_2">
      <!-- −1 -->
      <g transform="translate(107.969591 247.028225) scale(0.12 -0.12)">
       <defs>
        <path id="DejaVuSans-31" d="M 794 531 
L 1825 531 
L 1825 4091 
L 703 3866 
L 703 4441 
L 1819 4666 
L 2450 4666 
L 2450 531 
L 3481 531 
L 3481 0 
L 794 0 
L 794 531 
z
" transform="scale(0.015625)"/>
       </defs>
       <use xlink:href="#DejaVuSans-2212"/>
       <use xlink:href="#DejaVuSans-31" transform="translate(83.789062 0)"/>
      </g>
     </g>
    </g>
    <g id="xtick_3">
     <g id="line2d_5">
      <path d="M 166.145727 234.4101 
L 166.145727 26.3301 
" clip-path="url(#p381651132a)" style="fill: none; stroke-dasharray: 3.7,1.6; stroke-dashoffset: 0; stroke: #cbcbcb; stroke-opacity: 0.35"/>
     </g>
     <g id="line2d_6"/>
     <g id="text_3">
      <!-- 0 -->
      <g transform="translate(162.328227 247.028225) scale(0.12 -0.12)">
       <defs>
        <path id="DejaVuSans-30" d="M 2034 4250 
Q 1547 4250 1301 3770 
Q 1056 3291 1056 2328 
Q 1056 1369 1301 889 
Q 1547 409 2034 409 
Q 2525 409 2770 889 
Q 3016 1369 3016 2328 
Q 3016 3291 2770 3770 
Q 2525 4250 2034 4250 
z
M 2034 4750 
Q 2819 4750 3233 4129 
Q 3647 3509 3647 2328 
Q 3647 1150 3233 529 
Q 2819 -91 2034 -91 
Q 1250 -91 836 529 
Q 422 1150 422 2328 
Q 422 3509 836 4129 
Q 1250 4750 2034 4750 
z
" transform="scale(0.015625)"/>
       </defs>
       <use xlink:href="#DejaVuSans-30"/>
      </g>
     </g>
    </g>
    <g id="xtick_4">
     <g id="line2d_7">
      <path d="M 215.476551 234.4101 
L 215.476551 26.3301 
" clip-path="url(#p381651132a)" style="fill: none; stroke-dasharray: 3.7,1.6; stroke-dashoffset: 0; stroke: #cbcbcb; stroke-opacity: 0.35"/>
     </g>
     <g id="line2d_8"/>
     <g id="text_4">
      <!-- 1 -->
      <g transform="translate(211.659051 247.028225) scale(0.12 -0.12)">
       <use xlink:href="#DejaVuSans-31"/>
      </g>
     </g>
    </g>
    <g id="xtick_5">
     <g id="line2d_9">
      <path d="M 264.807375 234.4101 
L 264.807375 26.3301 
" clip-path="url(#p381651132a)" style="fill: none; stroke-dasharray: 3.7,1.6; stroke-dashoffset: 0; stroke: #cbcbcb; stroke-opacity: 0.35"/>
     </g>
     <g id="line2d_10"/>
     <g id="text_5">
      <!-- 2 -->
      <g transform="translate(260.989875 247.028225) scale(0.12 -0.12)">
       <use xlink:href="#DejaVuSans-32"/>
      </g>
     </g>
    </g>
    <g id="xtick_6">
     <g id="line2d_11">
      <path d="M 314.138199 234.4101 
L 314.138199 26.3301 
" clip-path="url(#p381651132a)" style="fill: none; stroke-dasharray: 3.7,1.6; stroke-dashoffset: 0; stroke: #cbcbcb; stroke-opacity: 0.35"/>
     </g>
     <g id="line2d_12"/>
     <g id="text_6">
      <!-- 3 -->
      <g transform="translate(310.320699 247.028225) scale(0.12 -0.12)">
       <defs>
        <path id="DejaVuSans-33" d="M 2597 2516 
Q 3050 2419 3304 2112 
Q 3559 1806 3559 1356 
Q 3559 666 3084 287 
Q 2609 -91 1734 -91 
Q 1441 -91 1130 -33 
Q 819 25 488 141 
L 488 750 
Q 750 597 1062 519 
Q 1375 441 1716 441 
Q 2309 441 2620 675 
Q 2931 909 2931 1356 
Q 2931 1769 2642 2001 
Q 2353 2234 1838 2234 
L 1294 2234 
L 1294 2753 
L 1863 2753 
Q 2328 2753 2575 2939 
Q 2822 3125 2822 3475 
Q 2822 3834 2567 4026 
Q 2313 4219 1838 4219 
Q 1578 4219 1281 4162 
Q 984 4106 628 3988 
L 628 4550 
Q 988 4650 1302 4700 
Q 1616 4750 1894 4750 
Q 2613 4750 3031 4423 
Q 3450 4097 3450 3541 
Q 3450 3153 3228 2886 
Q 3006 2619 2597 2516 
z
" transform="scale(0.015625)"/>
       </defs>
       <use xlink:href="#DejaVuSans-33"/>
      </g>
     </g>
    </g>
    <g id="xtick_7">
     <g id="line2d_13">
      <path d="M 363.469023 234.4101 
L 363.469023 26.3301 
" clip-path="url(#p381651132a)" style="fill: none; stroke-dasharray: 3.7,1.6; stroke-dashoffset: 0; stroke: #cbcbcb; stroke-opacity: 0.35"/>
     </g>
     <g id="line2d_14"/>
     <g id="text_7">
      <!-- 4 -->
      <g transform="translate(359.651523 247.028225) scale(0.12 -0.12)">
       <defs>
        <path id="DejaVuSans-34" d="M 2419 4116 
L 825 1625 
L 2419 1625 
L 2419 4116 
z
M 2253 4666 
L 3047 4666 
L 3047 1625 
L 3713 1625 
L 3713 1100 
L 3047 1100 
L 3047 0 
L 2419 0 
L 2419 1100 
L 313 1100 
L 313 1709 
L 2253 4666 
z
" transform="scale(0.015625)"/>
       </defs>
       <use xlink:href="#DejaVuSans-34"/>
      </g>
     </g>
    </g>
    <g id="xtick_8">
     <g id="line2d_15">
      <path d="M 412.799847 234.4101 
L 412.799847 26.3301 
" clip-path="url(#p381651132a)" style="fill: none; stroke-dasharray: 3.7,1.6; stroke-dashoffset: 0; stroke: #cbcbcb; stroke-opacity: 0.35"/>
     </g>
     <g id="line2d_16"/>
     <g id="text_8">
      <!-- 5 -->
      <g transform="translate(408.982347 247.028225) scale(0.12 -0.12)">
       <defs>
        <path id="DejaVuSans-35" d="M 691 4666 
L 3169 4666 
L 3169 4134 
L 1269 4134 
L 1269 2991 
Q 1406 3038 1543 3061 
Q 1681 3084 1819 3084 
Q 2600 3084 3056 2656 
Q 3513 2228 3513 1497 
Q 3513 744 3044 326 
Q 2575 -91 1722 -91 
Q 1428 -91 1123 -41 
Q 819 9 494 109 
L 494 744 
Q 775 591 1075 516 
Q 1375 441 1709 441 
Q 2250 441 2565 725 
Q 2881 1009 2881 1497 
Q 2881 1984 2565 2268 
Q 2250 2553 1709 2553 
Q 1456 2553 1204 2497 
Q 953 2441 691 2322 
L 691 4666 
z
" transform="scale(0.015625)"/>
       </defs>
       <use xlink:href="#DejaVuSans-35"/>
      </g>
     </g>
    </g>
    <g id="xtick_9">
     <g id="line2d_17">
      <path d="M 462.13067 234.4101 
L 462.13067 26.3301 
" clip-path="url(#p381651132a)" style="fill: none; stroke-dasharray: 3.7,1.6; stroke-dashoffset: 0; stroke: #cbcbcb; stroke-opacity: 0.35"/>
     </g>
     <g id="line2d_18"/>
     <g id="text_9">
      <!-- 6 -->
      <g transform="translate(458.31317 247.028225) scale(0.12 -0.12)">
       <defs>
        <path id="DejaVuSans-36" d="M 2113 2584 
Q 1688 2584 1439 2293 
Q 1191 2003 1191 1497 
Q 1191 994 1439 701 
Q 1688 409 2113 409 
Q 2538 409 2786 701 
Q 3034 994 3034 1497 
Q 3034 2003 2786 2293 
Q 2538 2584 2113 2584 
z
M 3366 4563 
L 3366 3988 
Q 3128 4100 2886 4159 
Q 2644 4219 2406 4219 
Q 1781 4219 1451 3797 
Q 1122 3375 1075 2522 
Q 1259 2794 1537 2939 
Q 1816 3084 2150 3084 
Q 2853 3084 3261 2657 
Q 3669 2231 3669 1497 
Q 3669 778 3244 343 
Q 2819 -91 2113 -91 
Q 1303 -91 875 529 
Q 447 1150 447 2328 
Q 447 3434 972 4092 
Q 1497 4750 2381 4750 
Q 2619 4750 2861 4703 
Q 3103 4656 3366 4563 
z
" transform="scale(0.015625)"/>
       </defs>
       <use xlink:href="#DejaVuSans-36"/>
      </g>
     </g>
    </g>
    <g id="text_10">
     <!-- $w$ (illustrative) -->
     <g transform="translate(212.967375 264.4656) scale(0.144 -0.144)">
      <defs>
       <path id="DejaVuSans-Oblique-77" d="M 544 3500 
L 1113 3500 
L 1259 684 
L 2566 3500 
L 3231 3500 
L 3425 684 
L 4666 3500 
L 5241 3500 
L 3641 0 
L 2969 0 
L 2797 2900 
L 1459 0 
L 781 0 
L 544 3500 
z
" transform="scale(0.015625)"/>
       <path id="DejaVuSans-20" transform="scale(0.015625)"/>
       <path id="DejaVuSans-28" d="M 1984 4856 
Q 1566 4138 1362 3434 
Q 1159 2731 1159 2009 
Q 1159 1288 1364 580 
Q 1569 -128 1984 -844 
L 1484 -844 
Q 1016 -109 783 600 
Q 550 1309 550 2009 
Q 550 2706 781 3412 
Q 1013 4119 1484 4856 
L 1984 4856 
z
" transform="scale(0.015625)"/>
       <path id="DejaVuSans-69" d="M 603 3500 
L 1178 3500 
L 1178 0 
L 603 0 
L 603 3500 
z
M 603 4863 
L 1178 4863 
L 1178 4134 
L 603 4134 
L 603 4863 
z
" transform="scale(0.015625)"/>
       <path id="DejaVuSans-6c" d="M 603 4863 
L 1178 4863 
L 1178 0 
L 603 0 
L 603 4863 
z
" transform="scale(0.015625)"/>
       <path id="DejaVuSans-75" d="M 544 1381 
L 544 3500 
L 1119 3500 
L 1119 1403 
Q 1119 906 1312 657 
Q 1506 409 1894 409 
Q 2359 409 2629 706 
Q 2900 1003 2900 1516 
L 2900 3500 
L 3475 3500 
L 3475 0 
L 2900 0 
L 2900 538 
Q 2691 219 2414 64 
Q 2138 -91 1772 -91 
Q 1169 -91 856 284 
Q 544 659 544 1381 
z
M 1991 3584 
L 1991 3584 
z
" transform="scale(0.015625)"/>
       <path id="DejaVuSans-73" d="M 2834 3397 
L 2834 2853 
Q 2591 2978 2328 3040 
Q 2066 3103 1784 3103 
Q 1356 3103 1142 2972 
Q 928 2841 928 2578 
Q 928 2378 1081 2264 
Q 1234 2150 1697 2047 
L 1894 2003 
Q 2506 1872 2764 1633 
Q 3022 1394 3022 966 
Q 3022 478 2636 193 
Q 2250 -91 1575 -91 
Q 1294 -91 989 -36 
Q 684 19 347 128 
L 347 722 
Q 666 556 975 473 
Q 1284 391 1588 391 
Q 1994 391 2212 530 
Q 2431 669 2431 922 
Q 2431 1156 2273 1281 
Q 2116 1406 1581 1522 
L 1381 1569 
Q 847 1681 609 1914 
Q 372 2147 372 2553 
Q 372 3047 722 3315 
Q 1072 3584 1716 3584 
Q 2034 3584 2315 3537 
Q 2597 3491 2834 3397 
z
" transform="scale(0.015625)"/>
       <path id="DejaVuSans-74" d="M 1172 4494 
L 1172 3500 
L 2356 3500 
L 2356 3053 
L 1172 3053 
L 1172 1153 
Q 1172 725 1289 603 
Q 1406 481 1766 481 
L 2356 481 
L 2356 0 
L 1766 0 
Q 1100 0 847 248 
Q 594 497 594 1153 
L 594 3053 
L 172 3053 
L 172 3500 
L 594 3500 
L 594 4494 
L 1172 4494 
z
" transform="scale(0.015625)"/>
       <path id="DejaVuSans-72" d="M 2631 2963 
Q 2534 3019 2420 3045 
Q 2306 3072 2169 3072 
Q 1681 3072 1420 2755 
Q 1159 2438 1159 1844 
L 1159 0 
L 581 0 
L 581 3500 
L 1159 3500 
L 1159 2956 
Q 1341 3275 1631 3429 
Q 1922 3584 2338 3584 
Q 2397 3584 2469 3576 
Q 2541 3569 2628 3553 
L 2631 2963 
z
" transform="scale(0.015625)"/>
       <path id="DejaVuSans-61" d="M 2194 1759 
Q 1497 1759 1228 1600 
Q 959 1441 959 1056 
Q 959 750 1161 570 
Q 1363 391 1709 391 
Q 2188 391 2477 730 
Q 2766 1069 2766 1631 
L 2766 1759 
L 2194 1759 
z
M 3341 1997 
L 3341 0 
L 2766 0 
L 2766 531 
Q 2569 213 2275 61 
Q 1981 -91 1556 -91 
Q 1019 -91 701 211 
Q 384 513 384 1019 
Q 384 1609 779 1909 
Q 1175 2209 1959 2209 
L 2766 2209 
L 2766 2266 
Q 2766 2663 2505 2880 
Q 2244 3097 1772 3097 
Q 1472 3097 1187 3025 
Q 903 2953 641 2809 
L 641 3341 
Q 956 3463 1253 3523 
Q 1550 3584 1831 3584 
Q 2591 3584 2966 3190 
Q 3341 2797 3341 1997 
z
" transform="scale(0.015625)"/>
       <path id="DejaVuSans-76" d="M 191 3500 
L 800 3500 
L 1894 563 
L 2988 3500 
L 3597 3500 
L 2284 0 
L 1503 0 
L 191 3500 
z
" transform="scale(0.015625)"/>
       <path id="DejaVuSans-65" d="M 3597 1894 
L 3597 1613 
L 953 1613 
Q 991 1019 1311 708 
Q 1631 397 2203 397 
Q 2534 397 2845 478 
Q 3156 559 3463 722 
L 3463 178 
Q 3153 47 2828 -22 
Q 2503 -91 2169 -91 
Q 1331 -91 842 396 
Q 353 884 353 1716 
Q 353 2575 817 3079 
Q 1281 3584 2069 3584 
Q 2775 3584 3186 3129 
Q 3597 2675 3597 1894 
z
M 3022 2063 
Q 3016 2534 2758 2815 
Q 2500 3097 2075 3097 
Q 1594 3097 1305 2825 
Q 1016 2553 972 2059 
L 3022 2063 
z
" transform="scale(0.015625)"/>
       <path id="DejaVuSans-29" d="M 513 4856 
L 1013 4856 
Q 1481 4119 1714 3412 
Q 1947 2706 1947 2009 
Q 1947 1309 1714 600 
Q 1481 -109 1013 -844 
L 513 -844 
Q 928 -128 1133 580 
Q 1338 1288 1338 2009 
Q 1338 2731 1133 3434 
Q 928 4138 513 4856 
z
" transform="scale(0.015625)"/>
      </defs>
      <use xlink:href="#DejaVuSans-Oblique-77" transform="translate(0 0.015625)"/>
      <use xlink:href="#DejaVuSans-20" transform="translate(81.787109 0.015625)"/>
      <use xlink:href="#DejaVuSans-28" transform="translate(113.574219 0.015625)"/>
      <use xlink:href="#DejaVuSans-69" transform="translate(152.587891 0.015625)"/>
      <use xlink:href="#DejaVuSans-6c" transform="translate(180.371094 0.015625)"/>
      <use xlink:href="#DejaVuSans-6c" transform="translate(208.154297 0.015625)"/>
      <use xlink:href="#DejaVuSans-75" transform="translate(235.9375 0.015625)"/>
      <use xlink:href="#DejaVuSans-73" transform="translate(299.316406 0.015625)"/>
      <use xlink:href="#DejaVuSans-74" transform="translate(351.416016 0.015625)"/>
      <use xlink:href="#DejaVuSans-72" transform="translate(390.625 0.015625)"/>
      <use xlink:href="#DejaVuSans-61" transform="translate(431.738281 0.015625)"/>
      <use xlink:href="#DejaVuSans-74" transform="translate(493.017578 0.015625)"/>
      <use xlink:href="#DejaVuSans-69" transform="translate(532.226562 0.015625)"/>
      <use xlink:href="#DejaVuSans-76" transform="translate(560.009766 0.015625)"/>
      <use xlink:href="#DejaVuSans-65" transform="translate(619.189453 0.015625)"/>
      <use xlink:href="#DejaVuSans-29" transform="translate(680.712891 0.015625)"/>
     </g>
    </g>
   </g>
   <g id="matplotlib.axis_2">
    <g id="ytick_1">
     <g id="line2d_19">
      <path d="M 47.75175 232.490137 
L 481.863 232.490137 
" clip-path="url(#p381651132a)" style="fill: none; stroke-dasharray: 3.7,1.6; stroke-dashoffset: 0; stroke: #cbcbcb; stroke-opacity: 0.35"/>
     </g>
     <g id="line2d_20"/>
     <g id="text_11">
      <!-- 0.6 -->
      <g transform="translate(25.168 237.0492) scale(0.12 -0.12)">
       <defs>
        <path id="DejaVuSans-2e" d="M 684 794 
L 1344 794 
L 1344 0 
L 684 0 
L 684 794 
z
" transform="scale(0.015625)"/>
       </defs>
       <use xlink:href="#DejaVuSans-30"/>
       <use xlink:href="#DejaVuSans-2e" transform="translate(63.623047 0)"/>
       <use xlink:href="#DejaVuSans-36" transform="translate(95.410156 0)"/>
      </g>
     </g>
    </g>
    <g id="ytick_2">
     <g id="line2d_21">
      <path d="M 47.75175 204.487299 
L 481.863 204.487299 
" clip-path="url(#p381651132a)" style="fill: none; stroke-dasharray: 3.7,1.6; stroke-dashoffset: 0; stroke: #cbcbcb; stroke-opacity: 0.35"/>
     </g>
     <g id="line2d_22"/>
     <g id="text_12">
      <!-- 0.8 -->
      <g transform="translate(25.168 209.046362) scale(0.12 -0.12)">
       <defs>
        <path id="DejaVuSans-38" d="M 2034 2216 
Q 1584 2216 1326 1975 
Q 1069 1734 1069 1313 
Q 1069 891 1326 650 
Q 1584 409 2034 409 
Q 2484 409 2743 651 
Q 3003 894 3003 1313 
Q 3003 1734 2745 1975 
Q 2488 2216 2034 2216 
z
M 1403 2484 
Q 997 2584 770 2862 
Q 544 3141 544 3541 
Q 544 4100 942 4425 
Q 1341 4750 2034 4750 
Q 2731 4750 3128 4425 
Q 3525 4100 3525 3541 
Q 3525 3141 3298 2862 
Q 3072 2584 2669 2484 
Q 3125 2378 3379 2068 
Q 3634 1759 3634 1313 
Q 3634 634 3220 271 
Q 2806 -91 2034 -91 
Q 1263 -91 848 271 
Q 434 634 434 1313 
Q 434 1759 690 2068 
Q 947 2378 1403 2484 
z
M 1172 3481 
Q 1172 3119 1398 2916 
Q 1625 2713 2034 2713 
Q 2441 2713 2670 2916 
Q 2900 3119 2900 3481 
Q 2900 3844 2670 4047 
Q 2441 4250 2034 4250 
Q 1625 4250 1398 4047 
Q 1172 3844 1172 3481 
z
" transform="scale(0.015625)"/>
       </defs>
       <use xlink:href="#DejaVuSans-30"/>
       <use xlink:href="#DejaVuSans-2e" transform="translate(63.623047 0)"/>
       <use xlink:href="#DejaVuSans-38" transform="translate(95.410156 0)"/>
      </g>
     </g>
    </g>
    <g id="ytick_3">
     <g id="line2d_23">
      <path d="M 47.75175 176.484461 
L 481.863 176.484461 
" clip-path="url(#p381651132a)" style="fill: none; stroke-dasharray: 3.7,1.6; stroke-dashoffset: 0; stroke: #cbcbcb; stroke-opacity: 0.35"/>
     </g>
     <g id="line2d_24"/>
     <g id="text_13">
      <!-- 1.0 -->
      <g transform="translate(25.168 181.043523) scale(0.12 -0.12)">
       <use xlink:href="#DejaVuSans-31"/>
       <use xlink:href="#DejaVuSans-2e" transform="translate(63.623047 0)"/>
       <use xlink:href="#DejaVuSans-30" transform="translate(95.410156 0)"/>
      </g>
     </g>
    </g>
    <g id="ytick_4">
     <g id="line2d_25">
      <path d="M 47.75175 148.481622 
L 481.863 148.481622 
" clip-path="url(#p381651132a)" style="fill: none; stroke-dasharray: 3.7,1.6; stroke-dashoffset: 0; stroke: #cbcbcb; stroke-opacity: 0.35"/>
     </g>
     <g id="line2d_26"/>
     <g id="text_14">
      <!-- 1.2 -->
      <g transform="translate(25.168 153.040685) scale(0.12 -0.12)">
       <use xlink:href="#DejaVuSans-31"/>
       <use xlink:href="#DejaVuSans-2e" transform="translate(63.623047 0)"/>
       <use xlink:href="#DejaVuSans-32" transform="translate(95.410156 0)"/>
      </g>
     </g>
    </g>
    <g id="ytick_5">
     <g id="line2d_27">
      <path d="M 47.75175 120.478784 
L 481.863 120.478784 
" clip-path="url(#p381651132a)" style="fill: none; stroke-dasharray: 3.7,1.6; stroke-dashoffset: 0; stroke: #cbcbcb; stroke-opacity: 0.35"/>
     </g>
     <g id="line2d_28"/>
     <g id="text_15">
      <!-- 1.4 -->
      <g transform="translate(25.168 125.037846) scale(0.12 -0.12)">
       <use xlink:href="#DejaVuSans-31"/>
       <use xlink:href="#DejaVuSans-2e" transform="translate(63.623047 0)"/>
       <use xlink:href="#DejaVuSans-34" transform="translate(95.410156 0)"/>
      </g>
     </g>
    </g>
    <g id="ytick_6">
     <g id="line2d_29">
      <path d="M 47.75175 92.475946 
L 481.863 92.475946 
" clip-path="url(#p381651132a)" style="fill: none; stroke-dasharray: 3.7,1.6; stroke-dashoffset: 0; stroke: #cbcbcb; stroke-opacity: 0.35"/>
     </g>
     <g id="line2d_30"/>
     <g id="text_16">
      <!-- 1.6 -->
      <g transform="translate(25.168 97.035008) scale(0.12 -0.12)">
       <use xlink:href="#DejaVuSans-31"/>
       <use xlink:href="#DejaVuSans-2e" transform="translate(63.623047 0)"/>
       <use xlink:href="#DejaVuSans-36" transform="translate(95.410156 0)"/>
      </g>
     </g>
    </g>
    <g id="ytick_7">
     <g id="line2d_31">
      <path d="M 47.75175 64.473107 
L 481.863 64.473107 
" clip-path="url(#p381651132a)" style="fill: none; stroke-dasharray: 3.7,1.6; stroke-dashoffset: 0; stroke: #cbcbcb; stroke-opacity: 0.35"/>
     </g>
     <g id="line2d_32"/>
     <g id="text_17">
      <!-- 1.8 -->
      <g transform="translate(25.168 69.03217) scale(0.12 -0.12)">
       <use xlink:href="#DejaVuSans-31"/>
       <use xlink:href="#DejaVuSans-2e" transform="translate(63.623047 0)"/>
       <use xlink:href="#DejaVuSans-38" transform="translate(95.410156 0)"/>
      </g>
     </g>
    </g>
    <g id="ytick_8">
     <g id="line2d_33">
      <path d="M 47.75175 36.470269 
L 481.863 36.470269 
" clip-path="url(#p381651132a)" style="fill: none; stroke-dasharray: 3.7,1.6; stroke-dashoffset: 0; stroke: #cbcbcb; stroke-opacity: 0.35"/>
     </g>
     <g id="line2d_34"/>
     <g id="text_18">
      <!-- 2.0 -->
      <g transform="translate(25.168 41.029331) scale(0.12 -0.12)">
       <use xlink:href="#DejaVuSans-32"/>
       <use xlink:href="#DejaVuSans-2e" transform="translate(63.623047 0)"/>
       <use xlink:href="#DejaVuSans-30" transform="translate(95.410156 0)"/>
      </g>
     </g>
    </g>
    <g id="text_19">
     <!-- $J(w)$ -->
     <g transform="translate(18.144 144.0501) rotate(-90) scale(0.144 -0.144)">
      <defs>
       <path id="DejaVuSans-Oblique-4a" d="M 1069 4666 
L 1703 4666 
L 856 325 
Q 691 -522 298 -901 
Q -94 -1281 -800 -1281 
L -1050 -1281 
L -947 -750 
L -750 -750 
Q -328 -750 -109 -509 
Q 109 -269 225 325 
L 1069 4666 
z
" transform="scale(0.015625)"/>
      </defs>
      <use xlink:href="#DejaVuSans-Oblique-4a" transform="translate(0 0.125)"/>
      <use xlink:href="#DejaVuSans-28" transform="translate(29.492188 0.125)"/>
      <use xlink:href="#DejaVuSans-Oblique-77" transform="translate(68.505859 0.125)"/>
      <use xlink:href="#DejaVuSans-29" transform="translate(150.292969 0.125)"/>
     </g>
    </g>
   </g>
   <g id="line2d_35">
    <path d="M 67.48408 108.83309 
L 69.467228 101.757253 
L 71.450377 93.482467 
L 75.416674 74.763807 
L 77.399823 65.239203 
L 79.382972 56.291905 
L 81.36612 48.439633 
L 83.349269 42.157352 
L 85.332418 37.84295 
L 87.315567 35.788282 
L 89.298715 36.157843 
L 91.281864 38.976721 
L 93.265013 44.128752 
L 95.248161 51.365038 
L 97.23131 60.322153 
L 99.214459 70.548635 
L 107.147054 113.950717 
L 109.130202 123.088832 
L 111.113351 130.872035 
L 113.0965 137.161382 
L 115.079648 141.945371 
L 117.062797 145.334614 
L 119.045946 147.546857 
L 121.029094 148.88358 
L 123.012243 149.700146 
L 124.995392 150.371902 
L 126.97854 151.259017 
L 128.961689 152.672877 
L 130.944838 154.846776 
L 132.927987 157.913275 
L 134.911135 161.890063 
L 136.894284 166.675501 
L 140.860581 177.712435 
L 142.84373 183.261632 
L 144.826879 188.269031 
L 146.810027 192.292186 
L 148.793176 194.91513 
L 150.776325 195.783169 
L 152.759474 194.633548 
L 154.742622 191.319547 
L 156.725771 185.82606 
L 158.70892 178.275366 
L 160.692068 168.922585 
L 162.675217 158.141086 
L 166.641514 134.228103 
L 170.607812 110.832092 
L 172.590961 100.661934 
L 174.574109 92.102579 
L 176.557258 85.470687 
L 178.540407 80.95617 
L 180.523555 78.612537 
L 182.506704 78.357517 
L 184.489853 79.983856 
L 186.473001 83.179354 
L 188.45615 87.554527 
L 192.422448 98.100669 
L 194.405596 103.414766 
L 196.388745 108.263376 
L 198.371894 112.379438 
L 200.355042 115.603127 
L 202.338191 117.892396 
L 204.32134 119.323551 
L 206.304488 120.081854 
L 210.270786 120.746588 
L 212.253935 121.364911 
L 214.237083 122.66765 
L 216.220232 124.987272 
L 218.203381 128.586771 
L 220.186529 133.632764 
L 222.169678 140.176095 
L 224.152827 148.141572 
L 226.135975 157.327722 
L 230.102273 177.993527 
L 234.06857 198.635842 
L 236.051719 207.659297 
L 238.034868 215.160472 
L 240.018016 220.72817 
L 242.001165 224.053394 
L 243.984314 224.951918 
L 245.967462 223.37778 
L 247.950611 219.426653 
L 249.93376 213.32883 
L 251.916908 205.432369 
L 253.900057 196.177711 
L 261.832652 155.737873 
L 263.815801 147.145125 
L 265.798949 139.858157 
L 267.782098 134.034491 
L 269.765247 129.704291 
L 271.748395 126.774189 
L 273.731544 125.040915 
L 275.714693 124.213566 
L 277.697842 123.942646 
L 279.68099 123.853541 
L 281.664139 123.581672 
L 283.647288 122.806507 
L 285.630436 121.281658 
L 287.613585 118.858637 
L 289.596734 115.502335 
L 291.579882 111.296949 
L 293.563031 106.441844 
L 297.529329 96.063643 
L 299.512477 91.348192 
L 301.495626 87.534589 
L 303.478775 85.04494 
L 305.461923 84.245007 
L 307.445072 85.412765 
L 309.428221 88.713202 
L 311.411369 94.181396 
L 313.394518 101.715241 
L 315.377667 111.078479 
L 317.360815 121.913856 
L 321.327113 146.108572 
L 325.29341 170.0393 
L 327.276559 180.559054 
L 329.259708 189.506137 
L 331.242856 196.546649 
L 333.226005 201.471183 
L 335.209154 204.205955 
L 337.192302 204.813698 
L 339.175451 203.484331 
L 341.1586 200.51619 
L 343.141749 196.28936 
L 345.124897 191.233254 
L 349.091195 180.383607 
L 351.074343 175.376324 
L 353.057492 171.050549 
L 355.040641 167.582775 
L 357.023789 165.032657 
L 359.006938 163.340946 
L 360.990087 162.337449 
L 366.939533 160.507119 
L 368.922682 159.093199 
L 370.90583 156.689572 
L 372.888979 153.021181 
L 374.872128 147.905814 
L 376.855276 141.274716 
L 378.838425 133.184277 
L 380.821574 123.817773 
L 384.787871 102.563977 
L 388.754169 80.968691 
L 390.737317 71.327653 
L 392.720466 63.123402 
L 394.703615 56.779798 
L 396.686763 52.622487 
L 398.669912 50.855131 
L 400.653061 51.544493 
L 402.63621 54.615545 
L 404.619358 59.856967 
L 406.602507 66.936616 
L 408.585656 75.425773 
L 412.551953 94.626073 
L 414.535102 104.296677 
L 416.51825 113.369216 
L 418.501399 121.446744 
L 420.484548 128.234058 
L 422.467696 133.55519 
L 424.450845 137.361237 
L 426.433994 139.728024 
L 428.417143 140.843857 
L 430.400291 140.988433 
L 432.38344 140.504648 
L 436.349737 139.139596 
L 438.332886 138.955599 
L 440.316035 139.472592 
L 442.299183 140.854652 
L 444.282332 143.15418 
L 446.265481 146.304513 
L 448.24863 150.122583 
L 452.214927 158.53164 
L 454.198076 162.33 
L 456.181224 165.273168 
L 458.164373 166.933659 
L 460.147522 166.935329 
L 462.13067 164.985533 
L 462.13067 164.985533 
" clip-path="url(#p381651132a)" style="fill: none; stroke: #7030a0; stroke-width: 2"/>
   </g>
   <g id="patch_3">
    <path d="M 47.75175 234.4101 
L 47.75175 26.3301 
" style="fill: none; stroke: #f0f0f0; stroke-width: 3; stroke-linejoin: miter; stroke-linecap: square"/>
   </g>
   <g id="patch_4">
    <path d="M 481.863 234.4101 
L 481.863 26.3301 
" style="fill: none; stroke: #f0f0f0; stroke-width: 3; stroke-linejoin: miter; stroke-linecap: square"/>
   </g>
   <g id="patch_5">
    <path d="M 47.75175 234.4101 
L 481.863 234.4101 
" style="fill: none; stroke: #f0f0f0; stroke-width: 3; stroke-linejoin: miter; stroke-linecap: square"/>
   </g>
   <g id="patch_6">
    <path d="M 47.75175 26.3301 
L 481.863 26.3301 
" style="fill: none; stroke: #f0f0f0; stroke-width: 3; stroke-linejoin: miter; stroke-linecap: square"/>
   </g>
   <g id="patch_7">
    <path d="M 206.052726 224.951918 
Q 223.520611 224.951918 240.429479 224.951918 
" style="fill: none; stroke: #808080; stroke-width: 0.5; stroke-linecap: round"/>
    <path d="M 236.429479 222.951918 
L 240.429479 224.951918 
L 236.429479 226.951918 
" style="fill: none; stroke: #808080; stroke-width: 0.5; stroke-linecap: round"/>
   </g>
   <g id="text_20">
    <!-- local minimum -->
    <g transform="translate(128.120301 227.711293) scale(0.1 -0.1)">
     <defs>
      <path id="DejaVuSans-6f" d="M 1959 3097 
Q 1497 3097 1228 2736 
Q 959 2375 959 1747 
Q 959 1119 1226 758 
Q 1494 397 1959 397 
Q 2419 397 2687 759 
Q 2956 1122 2956 1747 
Q 2956 2369 2687 2733 
Q 2419 3097 1959 3097 
z
M 1959 3584 
Q 2709 3584 3137 3096 
Q 3566 2609 3566 1747 
Q 3566 888 3137 398 
Q 2709 -91 1959 -91 
Q 1206 -91 779 398 
Q 353 888 353 1747 
Q 353 2609 779 3096 
Q 1206 3584 1959 3584 
z
" transform="scale(0.015625)"/>
      <path id="DejaVuSans-63" d="M 3122 3366 
L 3122 2828 
Q 2878 2963 2633 3030 
Q 2388 3097 2138 3097 
Q 1578 3097 1268 2742 
Q 959 2388 959 1747 
Q 959 1106 1268 751 
Q 1578 397 2138 397 
Q 2388 397 2633 464 
Q 2878 531 3122 666 
L 3122 134 
Q 2881 22 2623 -34 
Q 2366 -91 2075 -91 
Q 1284 -91 818 406 
Q 353 903 353 1747 
Q 353 2603 823 3093 
Q 1294 3584 2113 3584 
Q 2378 3584 2631 3529 
Q 2884 3475 3122 3366 
z
" transform="scale(0.015625)"/>
      <path id="DejaVuSans-6d" d="M 3328 2828 
Q 3544 3216 3844 3400 
Q 4144 3584 4550 3584 
Q 5097 3584 5394 3201 
Q 5691 2819 5691 2113 
L 5691 0 
L 5113 0 
L 5113 2094 
Q 5113 2597 4934 2840 
Q 4756 3084 4391 3084 
Q 3944 3084 3684 2787 
Q 3425 2491 3425 1978 
L 3425 0 
L 2847 0 
L 2847 2094 
Q 2847 2600 2669 2842 
Q 2491 3084 2119 3084 
Q 1678 3084 1418 2786 
Q 1159 2488 1159 1978 
L 1159 0 
L 581 0 
L 581 3500 
L 1159 3500 
L 1159 2956 
Q 1356 3278 1631 3431 
Q 1906 3584 2284 3584 
Q 2666 3584 2933 3390 
Q 3200 3197 3328 2828 
z
" transform="scale(0.015625)"/>
      <path id="DejaVuSans-6e" d="M 3513 2113 
L 3513 0 
L 2938 0 
L 2938 2094 
Q 2938 2591 2744 2837 
Q 2550 3084 2163 3084 
Q 1697 3084 1428 2787 
Q 1159 2491 1159 1978 
L 1159 0 
L 581 0 
L 581 3500 
L 1159 3500 
L 1159 2956 
Q 1366 3272 1645 3428 
Q 1925 3584 2291 3584 
Q 2894 3584 3203 3211 
Q 3513 2838 3513 2113 
z
" transform="scale(0.015625)"/>
     </defs>
     <use xlink:href="#DejaVuSans-6c"/>
     <use xlink:href="#DejaVuSans-6f" transform="translate(27.783203 0)"/>
     <use xlink:href="#DejaVuSans-63" transform="translate(88.964844 0)"/>
     <use xlink:href="#DejaVuSans-61" transform="translate(143.945312 0)"/>
     <use xlink:href="#DejaVuSans-6c" transform="translate(205.224609 0)"/>
     <use xlink:href="#DejaVuSans-20" transform="translate(233.007812 0)"/>
     <use xlink:href="#DejaVuSans-6d" transform="translate(264.794922 0)"/>
     <use xlink:href="#DejaVuSans-69" transform="translate(362.207031 0)"/>
     <use xlink:href="#DejaVuSans-6e" transform="translate(389.990234 0)"/>
     <use xlink:href="#DejaVuSans-69" transform="translate(453.369141 0)"/>
     <use xlink:href="#DejaVuSans-6d" transform="translate(481.152344 0)"/>
     <use xlink:href="#DejaVuSans-75" transform="translate(578.564453 0)"/>
     <use xlink:href="#DejaVuSans-6d" transform="translate(641.943359 0)"/>
    </g>
   </g>
   <g id="text_21">
    <!-- Non-convex cost (squared error + logistic model sketch) -->
    <g style="fill: #808080" transform="translate(20.966325 20.3301) scale(0.1728 -0.1728)">
     <defs>
      <path id="DejaVuSans-4e" d="M 628 4666 
L 1478 4666 
L 3547 763 
L 3547 4666 
L 4159 4666 
L 4159 0 
L 3309 0 
L 1241 3903 
L 1241 0 
L 628 0 
L 628 4666 
z
" transform="scale(0.015625)"/>
      <path id="DejaVuSans-2d" d="M 313 2009 
L 1997 2009 
L 1997 1497 
L 313 1497 
L 313 2009 
z
" transform="scale(0.015625)"/>
      <path id="DejaVuSans-78" d="M 3513 3500 
L 2247 1797 
L 3578 0 
L 2900 0 
L 1881 1375 
L 863 0 
L 184 0 
L 1544 1831 
L 300 3500 
L 978 3500 
L 1906 2253 
L 2834 3500 
L 3513 3500 
z
" transform="scale(0.015625)"/>
      <path id="DejaVuSans-71" d="M 947 1747 
Q 947 1113 1208 752 
Q 1469 391 1925 391 
Q 2381 391 2643 752 
Q 2906 1113 2906 1747 
Q 2906 2381 2643 2742 
Q 2381 3103 1925 3103 
Q 1469 3103 1208 2742 
Q 947 2381 947 1747 
z
M 2906 525 
Q 2725 213 2448 61 
Q 2172 -91 1784 -91 
Q 1150 -91 751 415 
Q 353 922 353 1747 
Q 353 2572 751 3078 
Q 1150 3584 1784 3584 
Q 2172 3584 2448 3432 
Q 2725 3281 2906 2969 
L 2906 3500 
L 3481 3500 
L 3481 -1331 
L 2906 -1331 
L 2906 525 
z
" transform="scale(0.015625)"/>
      <path id="DejaVuSans-64" d="M 2906 2969 
L 2906 4863 
L 3481 4863 
L 3481 0 
L 2906 0 
L 2906 525 
Q 2725 213 2448 61 
Q 2172 -91 1784 -91 
Q 1150 -91 751 415 
Q 353 922 353 1747 
Q 353 2572 751 3078 
Q 1150 3584 1784 3584 
Q 2172 3584 2448 3432 
Q 2725 3281 2906 2969 
z
M 947 1747 
Q 947 1113 1208 752 
Q 1469 391 1925 391 
Q 2381 391 2643 752 
Q 2906 1113 2906 1747 
Q 2906 2381 2643 2742 
Q 2381 3103 1925 3103 
Q 1469 3103 1208 2742 
Q 947 2381 947 1747 
z
" transform="scale(0.015625)"/>
      <path id="DejaVuSans-2b" d="M 2944 4013 
L 2944 2272 
L 4684 2272 
L 4684 1741 
L 2944 1741 
L 2944 0 
L 2419 0 
L 2419 1741 
L 678 1741 
L 678 2272 
L 2419 2272 
L 2419 4013 
L 2944 4013 
z
" transform="scale(0.015625)"/>
      <path id="DejaVuSans-67" d="M 2906 1791 
Q 2906 2416 2648 2759 
Q 2391 3103 1925 3103 
Q 1463 3103 1205 2759 
Q 947 2416 947 1791 
Q 947 1169 1205 825 
Q 1463 481 1925 481 
Q 2391 481 2648 825 
Q 2906 1169 2906 1791 
z
M 3481 434 
Q 3481 -459 3084 -895 
Q 2688 -1331 1869 -1331 
Q 1566 -1331 1297 -1286 
Q 1028 -1241 775 -1147 
L 775 -588 
Q 1028 -725 1275 -790 
Q 1522 -856 1778 -856 
Q 2344 -856 2625 -561 
Q 2906 -266 2906 331 
L 2906 616 
Q 2728 306 2450 153 
Q 2172 0 1784 0 
Q 1141 0 747 490 
Q 353 981 353 1791 
Q 353 2603 747 3093 
Q 1141 3584 1784 3584 
Q 2172 3584 2450 3431 
Q 2728 3278 2906 2969 
L 2906 3500 
L 3481 3500 
L 3481 434 
z
" transform="scale(0.015625)"/>
      <path id="DejaVuSans-6b" d="M 581 4863 
L 1159 4863 
L 1159 1991 
L 2875 3500 
L 3609 3500 
L 1753 1863 
L 3688 0 
L 2938 0 
L 1159 1709 
L 1159 0 
L 581 0 
L 581 4863 
z
" transform="scale(0.015625)"/>
      <path id="DejaVuSans-68" d="M 3513 2113 
L 3513 0 
L 2938 0 
L 2938 2094 
Q 2938 2591 2744 2837 
Q 2550 3084 2163 3084 
Q 1697 3084 1428 2787 
Q 1159 2491 1159 1978 
L 1159 0 
L 581 0 
L 581 4863 
L 1159 4863 
L 1159 2956 
Q 1366 3272 1645 3428 
Q 1925 3584 2291 3584 
Q 2894 3584 3203 3211 
Q 3513 2838 3513 2113 
z
" transform="scale(0.015625)"/>
     </defs>
     <use xlink:href="#DejaVuSans-4e"/>
     <use xlink:href="#DejaVuSans-6f" transform="translate(74.804688 0)"/>
     <use xlink:href="#DejaVuSans-6e" transform="translate(135.986328 0)"/>
     <use xlink:href="#DejaVuSans-2d" transform="translate(199.365234 0)"/>
     <use xlink:href="#DejaVuSans-63" transform="translate(235.449219 0)"/>
     <use xlink:href="#DejaVuSans-6f" transform="translate(290.429688 0)"/>
     <use xlink:href="#DejaVuSans-6e" transform="translate(351.611328 0)"/>
     <use xlink:href="#DejaVuSans-76" transform="translate(414.990234 0)"/>
     <use xlink:href="#DejaVuSans-65" transform="translate(474.169922 0)"/>
     <use xlink:href="#DejaVuSans-78" transform="translate(533.943359 0)"/>
     <use xlink:href="#DejaVuSans-20" transform="translate(593.123047 0)"/>
     <use xlink:href="#DejaVuSans-63" transform="translate(624.910156 0)"/>
     <use xlink:href="#DejaVuSans-6f" transform="translate(679.890625 0)"/>
     <use xlink:href="#DejaVuSans-73" transform="translate(741.072266 0)"/>
     <use xlink:href="#DejaVuSans-74" transform="translate(793.171875 0)"/>
     <use xlink:href="#DejaVuSans-20" transform="translate(832.380859 0)"/>
     <use xlink:href="#DejaVuSans-28" transform="translate(864.167969 0)"/>
     <use xlink:href="#DejaVuSans-73" transform="translate(903.181641 0)"/>
     <use xlink:href="#DejaVuSans-71" transform="translate(955.28125 0)"/>
     <use xlink:href="#DejaVuSans-75" transform="translate(1018.757812 0)"/>
     <use xlink:href="#DejaVuSans-61" transform="translate(1082.136719 0)"/>
     <use xlink:href="#DejaVuSans-72" transform="translate(1143.416016 0)"/>
     <use xlink:href="#DejaVuSans-65" transform="translate(1182.279297 0)"/>
     <use xlink:href="#DejaVuSans-64" transform="translate(1243.802734 0)"/>
     <use xlink:href="#DejaVuSans-20" transform="translate(1307.279297 0)"/>
     <use xlink:href="#DejaVuSans-65" transform="translate(1339.066406 0)"/>
     <use xlink:href="#DejaVuSans-72" transform="translate(1400.589844 0)"/>
     <use xlink:href="#DejaVuSans-72" transform="translate(1439.953125 0)"/>
     <use xlink:href="#DejaVuSans-6f" transform="translate(1478.816406 0)"/>
     <use xlink:href="#DejaVuSans-72" transform="translate(1539.998047 0)"/>
     <use xlink:href="#DejaVuSans-20" transform="translate(1581.111328 0)"/>
     <use xlink:href="#DejaVuSans-2b" transform="translate(1612.898438 0)"/>
     <use xlink:href="#DejaVuSans-20" transform="translate(1696.6875 0)"/>
     <use xlink:href="#DejaVuSans-6c" transform="translate(1728.474609 0)"/>
     <use xlink:href="#DejaVuSans-6f" transform="translate(1756.257812 0)"/>
     <use xlink:href="#DejaVuSans-67" transform="translate(1817.439453 0)"/>
     <use xlink:href="#DejaVuSans-69" transform="translate(1880.916016 0)"/>
     <use xlink:href="#DejaVuSans-73" transform="translate(1908.699219 0)"/>
     <use xlink:href="#DejaVuSans-74" transform="translate(1960.798828 0)"/>
     <use xlink:href="#DejaVuSans-69" transform="translate(2000.007812 0)"/>
     <use xlink:href="#DejaVuSans-63" transform="translate(2027.791016 0)"/>
     <use xlink:href="#DejaVuSans-20" transform="translate(2082.771484 0)"/>
     <use xlink:href="#DejaVuSans-6d" transform="translate(2114.558594 0)"/>
     <use xlink:href="#DejaVuSans-6f" transform="translate(2211.970703 0)"/>
     <use xlink:href="#DejaVuSans-64" transform="translate(2273.152344 0)"/>
     <use xlink:href="#DejaVuSans-65" transform="translate(2336.628906 0)"/>
     <use xlink:href="#DejaVuSans-6c" transform="translate(2398.152344 0)"/>
     <use xlink:href="#DejaVuSans-20" transform="translate(2425.935547 0)"/>
     <use xlink:href="#DejaVuSans-73" transform="translate(2457.722656 0)"/>
     <use xlink:href="#DejaVuSans-6b" transform="translate(2509.822266 0)"/>
     <use xlink:href="#DejaVuSans-65" transform="translate(2564.107422 0)"/>
     <use xlink:href="#DejaVuSans-74" transform="translate(2625.630859 0)"/>
     <use xlink:href="#DejaVuSans-63" transform="translate(2664.839844 0)"/>
     <use xlink:href="#DejaVuSans-68" transform="translate(2719.820312 0)"/>
     <use xlink:href="#DejaVuSans-29" transform="translate(2783.199219 0)"/>
    </g>
   </g>
   <g id="PathCollection_1">
    <defs>
     <path id="md438a089a5" d="M 0 3.535534 
C 0.937635 3.535534 1.836992 3.163008 2.5 2.5 
C 3.163008 1.836992 3.535534 0.937635 3.535534 0 
C 3.535534 -0.937635 3.163008 -1.836992 2.5 -2.5 
C 1.836992 -3.163008 0.937635 -3.535534 0 -3.535534 
C -0.937635 -3.535534 -1.836992 -3.163008 -2.5 -2.5 
C -3.163008 -1.836992 -3.535534 -0.937635 -3.535534 0 
C -3.535534 0.937635 -3.163008 1.836992 -2.5 2.5 
C -1.836992 3.163008 -0.937635 3.535534 0 3.535534 
z
" style="stroke: #0096ff; stroke-width: 0.5"/>
    </defs>
    <g clip-path="url(#p381651132a)">
     <use xlink:href="#md438a089a5" x="150.776325" y="195.783169" style="fill: #0096ff; stroke: #0096ff; stroke-width: 0.5"/>
     <use xlink:href="#md438a089a5" x="243.984314" y="224.951918" style="fill: #0096ff; stroke: #0096ff; stroke-width: 0.5"/>
     <use xlink:href="#md438a089a5" x="337.192302" y="204.813698" style="fill: #0096ff; stroke: #0096ff; stroke-width: 0.5"/>
     <use xlink:href="#md438a089a5" x="430.400291" y="140.988433" style="fill: #0096ff; stroke: #0096ff; stroke-width: 0.5"/>
     <use xlink:href="#md438a089a5" x="460.147522" y="166.935329" style="fill: #0096ff; stroke: #0096ff; stroke-width: 0.5"/>
    </g>
   </g>
  </g>
 </g>
 <defs>
  <clipPath id="p381651132a">
   <rect x="47.75175" y="26.3301" width="434.11125" height="208.08"/>
  </clipPath>
 </defs>
</svg>
